# https://github.com/mikedh/trimesh
v 0.00945686 -0.07886557 0.00019821
v 0.00945686 -0.07886557 0.00469822
v 0.00945686 -0.07858394 0.00018160
v 0.01040541 -0.07886557 0.00034327
v 0.02363772 -0.07886557 0.01091121
v 0.00945686 -0.04880815 0.00973416
v 0.00945686 -0.07833249 0.00016832
v 0.01049132 -0.07833249 0.00032666
v 0.01163624 -0.07886557 0.00058023
v 0.02532616 -0.07886557 0.01127329
v 0.00945686 -0.04642769 0.00969873
v 0.02583463 -0.07886557 0.01136519
v 0.00945686 -0.07697798 0.00011738
v 0.01075783 -0.07587157 0.00027904
v 0.01198866 -0.07587157 0.00051268
v 0.01172215 -0.07833249 0.00056362
v 0.01211490 -0.07886557 0.00069538
v 0.00945686 -0.04461385 0.00864902
v 0.01107342 -0.04880815 0.00983935
v 0.01961911 -0.05485316 0.01030773
v 0.01975937 -0.05485316 0.01030773
v 0.02703390 -0.07886557 0.01089792
v 0.02736878 -0.07587157 0.01071854
v 0.02583463 -0.07833249 0.01134748
v 0.00945686 -0.07587157 0.00007752
v 0.01083848 -0.07341064 0.00026576
v 0.01206756 -0.07341064 0.00049718
v 0.01353333 -0.07587157 0.00089802
v 0.01353333 -0.07833249 0.00100653
v 0.01353333 -0.07886557 0.00104307
v 0.01599500 -0.04935464 0.00863241
v 0.01740116 -0.04988773 0.00816403
v 0.00945686 -0.04461385 0.00829026
v 0.02229643 -0.05713973 0.01037860
v 0.01831464 -0.05140653 0.00873650
v 0.02735125 -0.07886557 0.01074401
v 0.02736352 -0.07833249 0.01075286
v 0.02736878 -0.07587157 0.00962565
v 0.02731092 -0.07341064 0.01062220
v 0.02583463 -0.07587157 0.01122346
v 0.00945686 -0.07341064 0.00005316
v 0.01072802 -0.07094973 0.00028679
v 0.01195885 -0.07094973 0.00051711
v 0.01353333 -0.07094973 0.00090577
v 0.01353333 -0.07341064 0.00086480
v 0.01599500 -0.07341064 0.00161554
v 0.01599500 -0.07587157 0.00165540
v 0.01599500 -0.07833249 0.00177831
v 0.01599500 -0.07886557 0.00181817
v 0.01984879 -0.05231513 0.00824708
v 0.01740116 -0.04988773 0.00767018
v 0.01002143 -0.04501283 0.00772333
v 0.00945686 -0.04486531 0.00762589
v 0.02253488 -0.05667035 0.00906093
v 0.02505615 -0.06356696 0.01060449
v 0.02480368 -0.06177995 0.01045500
v 0.02735125 -0.07886557 0.00972641
v 0.02736352 -0.07833249 0.00969319
v 0.02668499 -0.07587157 0.00839545
v 0.02672006 -0.07341064 0.00843864
v 0.02731092 -0.07341064 0.00966883
v 0.02583463 -0.07341064 0.01107066
v 0.02719871 -0.07094973 0.01046829
v 0.00945686 -0.07094973 0.00009413
v 0.01044749 -0.06848880 0.00033662
v 0.01167832 -0.06848880 0.00057026
v 0.01353333 -0.06848880 0.00101982
v 0.01599500 -0.07094973 0.00166204
v 0.01813755 -0.07094973 0.00250358
v 0.01818840 -0.07341064 0.00247922
v 0.01813931 -0.07587157 0.00250026
v 0.01799027 -0.07833249 0.00256448
v 0.01637897 -0.07886557 0.00196876
v 0.01984879 -0.05231513 0.00766686
v 0.01831464 -0.05140653 0.00725384
v 0.01595116 -0.05133612 0.00601257
v 0.01599500 -0.04935464 0.00726602
v 0.01303890 -0.04713512 0.00741107
v 0.01093316 -0.04632711 0.00712650
v 0.00945686 -0.04525758 0.00735128
v 0.02487907 -0.06149832 0.00906093
v 0.02251209 -0.05670053 0.00748526
v 0.02710403 -0.06949463 0.01034206
v 0.02674285 -0.07886557 0.00876196
v 0.02658856 -0.07833249 0.00846300
v 0.02545416 -0.07587157 0.00709882
v 0.02548922 -0.07341064 0.00706671
v 0.02547169 -0.07094973 0.00707667
v 0.02537701 -0.06848880 0.00714533
v 0.02670077 -0.07094973 0.00866452
v 0.02719871 -0.07094973 0.00989472
v 0.00945686 -0.06848880 0.00019046
v 0.01012312 -0.06667496 0.00039642
v 0.01099628 -0.06592395 0.00063670
v 0.01353333 -0.06602789 0.00122024
v 0.01599500 -0.06848880 0.00178827
v 0.01799553 -0.06848880 0.00256891
v 0.01936663 -0.07094973 0.00305833
v 0.01941748 -0.07341064 0.00303397
v 0.01936663 -0.07587157 0.00305833
v 0.01921760 -0.07833249 0.00312920
v 0.01794293 -0.07886557 0.00258552
v 0.02037654 -0.05372999 0.00728595
v 0.01837600 -0.05377022 0.00602807
v 0.01674191 -0.05297897 0.00555526
v 0.01510255 -0.05220113 0.00524854
v 0.01402251 -0.05056163 0.00559845
v 0.01352983 -0.04881485 0.00650421
v 0.01107342 -0.04842929 0.00580108
v 0.00945686 -0.04706471 0.00619084
v 0.02710403 -0.06949463 0.01015050
v 0.02543838 -0.06356696 0.00906093
v 0.02477212 -0.06177324 0.00765689
v 0.02088676 -0.05623449 0.00655625
v 0.02296620 -0.05865183 0.00713757
v 0.02122340 -0.05865183 0.00590738
v 0.02655524 -0.07886557 0.00849621
v 0.02532441 -0.07886557 0.00721176
v 0.02535773 -0.07833249 0.00718408
v 0.02393052 -0.07587157 0.00586862
v 0.02397085 -0.07341064 0.00583651
v 0.02394981 -0.07094973 0.00584648
v 0.02385513 -0.06848880 0.00591513
v 0.02521395 -0.06602789 0.00727599
v 0.02498602 -0.06356696 0.00746201
v 0.02656401 -0.06860280 0.00922259
v 0.00945686 -0.06630617 0.00033552
v 0.00945686 -0.06525004 0.00042410
v 0.00968129 -0.06503212 0.00047393
v 0.01107342 -0.06356696 0.00095227
v 0.01599500 -0.06602789 0.00200752
v 0.01353333 -0.06356696 0.00154135
v 0.01773780 -0.06602789 0.00268296
v 0.01922286 -0.06848880 0.00312477
v 0.02091306 -0.06848880 0.00403274
v 0.02091306 -0.07094973 0.00390208
v 0.02091306 -0.07341064 0.00385890
v 0.02091306 -0.07587157 0.00390873
v 0.02091306 -0.07833249 0.00405600
v 0.01958579 -0.07886557 0.00337723
v 0.01917201 -0.07886557 0.00315134
v 0.01914220 -0.05576511 0.00562834
v 0.01750285 -0.05461847 0.00524522
v 0.01595116 -0.05377022 0.00496729
v 0.01333521 -0.05133612 0.00506695
v 0.01353333 -0.05372999 0.00419330
v 0.01238140 -0.04999167 0.00534820
v 0.00945686 -0.04849299 0.00540689
v 0.00945686 -0.04807054 0.00561506
v 0.01107342 -0.04965974 0.00519650
v 0.02319763 -0.06354014 0.00609673
v 0.02356583 -0.06101887 0.00692498
v 0.01969099 -0.05740796 0.00536702
v 0.02175290 -0.06111275 0.00559955
v 0.01999256 -0.05865183 0.00520093
v 0.02411813 -0.07886557 0.00624842
v 0.02381831 -0.07833249 0.00595389
v 0.02258748 -0.07833249 0.00506806
v 0.02270144 -0.07587157 0.00499165
v 0.02274177 -0.07341064 0.00496508
v 0.02271898 -0.07094973 0.00498501
v 0.02262430 -0.06848880 0.00504813
v 0.02243845 -0.06602789 0.00517325
v 0.02366752 -0.06602789 0.00604579
v 0.00945686 -0.06491477 0.00045842
v 0.00945686 -0.06464655 0.00049718
v 0.00945686 -0.06347644 0.00068542
v 0.00945686 -0.06195429 0.00096335
v 0.00945686 -0.06111275 0.00112058
v 0.01107342 -0.06111275 0.00141180
v 0.01618435 -0.06344626 0.00243936
v 0.01745902 -0.06418387 0.00280587
v 0.01353333 -0.06111275 0.00201527
v 0.01549179 -0.06111275 0.00263867
v 0.01896512 -0.06602789 0.00324546
v 0.02091306 -0.06602789 0.00427856
v 0.02123918 -0.07886557 0.00429960
v 0.02091306 -0.07886557 0.00410361
v 0.01837600 -0.05642895 0.00506473
v 0.01599500 -0.05619091 0.00415897
v 0.01350177 -0.05624120 0.00332408
v 0.01107342 -0.05126907 0.00451331
v 0.01160468 -0.05545665 0.00306830
v 0.01089985 -0.05393115 0.00344256
v 0.00945686 -0.04930100 0.00503262
v 0.00945686 -0.05126907 0.00418555
v 0.02203869 -0.06270195 0.00543457
v 0.02226136 -0.06434480 0.00529394
v 0.01845315 -0.05865183 0.00446348
v 0.02052207 -0.06111275 0.00489975
v 0.01845315 -0.06111275 0.00386001
v 0.02378149 -0.07886557 0.00598157
v 0.02255066 -0.07886557 0.00509352
v 0.00945686 -0.05949672 0.00149263
v 0.01107342 -0.05865183 0.00200863
v 0.01713290 -0.06254438 0.00294650
v 0.01834970 -0.06344626 0.00334401
v 0.01350177 -0.05869877 0.00260324
v 0.01500788 -0.05955037 0.00282137
v 0.01672262 -0.06111275 0.00310041
v 0.02109716 -0.06354014 0.00475248
v 0.01589505 -0.05869877 0.00338609
v 0.01430129 -0.05791087 0.00304504
v 0.01266018 -0.05709615 0.00280919
v 0.00945686 -0.05353888 0.00329418
v 0.01089985 -0.05624120 0.00266414
v 0.00996533 -0.05488333 0.00288338
v 0.00945686 -0.05429325 0.00300408
v 0.00945686 -0.05865183 0.00169858
v 0.00945686 -0.05703580 0.00215479
v 0.00945686 -0.05620767 0.00239175
v 0.00945686 -0.05475593 0.00283688
f 1 2 6
f 1 6 11
f 1 11 18
f 1 18 33
f 1 33 53
f 1 53 80
f 1 80 110
f 1 110 149
f 1 149 148
f 1 148 185
f 1 185 186
f 1 186 205
f 1 205 208
f 1 208 212
f 1 212 211
f 1 211 210
f 1 210 209
f 1 209 194
f 1 194 169
f 1 169 168
f 1 168 167
f 1 167 166
f 1 166 165
f 1 165 128
f 1 128 127
f 1 127 92
f 1 92 64
f 1 64 41
f 1 41 25
f 1 25 13
f 1 13 7
f 1 7 3
f 1 3 4
f 1 4 9
f 1 9 17
f 1 17 30
f 1 30 49
f 1 49 73
f 1 73 102
f 1 102 141
f 1 141 140
f 1 140 178
f 1 178 177
f 1 177 193
f 1 193 192
f 1 192 156
f 1 156 118
f 1 118 117
f 1 117 84
f 1 84 57
f 1 57 36
f 1 36 22
f 1 22 12
f 1 12 10
f 1 10 5
f 1 5 2
f 2 5 6
f 3 7 8
f 3 8 4
f 4 8 16
f 4 16 9
f 5 10 6
f 6 10 12
f 6 12 11
f 7 13 8
f 8 13 14
f 8 14 15
f 8 15 16
f 9 16 17
f 11 12 19
f 11 19 20
f 11 20 21
f 11 21 18
f 12 22 23
f 12 23 24
f 12 24 19
f 13 25 14
f 14 25 26
f 14 26 27
f 14 27 15
f 15 27 28
f 15 28 29
f 15 29 16
f 16 29 17
f 17 29 30
f 18 31 32
f 18 32 51
f 18 51 33
f 18 21 31
f 19 24 20
f 20 24 21
f 21 34 35
f 21 35 31
f 21 24 34
f 22 36 37
f 22 37 23
f 23 38 61
f 23 61 39
f 23 39 24
f 23 37 58
f 23 58 38
f 24 39 40
f 24 40 34
f 25 41 26
f 26 41 42
f 26 42 43
f 26 43 27
f 27 43 44
f 27 44 45
f 27 45 28
f 28 45 46
f 28 46 47
f 28 47 29
f 29 47 48
f 29 48 30
f 30 48 49
f 31 35 32
f 32 35 50
f 32 50 74
f 32 74 51
f 33 51 52
f 33 52 53
f 34 54 50
f 34 50 35
f 34 40 55
f 34 55 56
f 34 56 54
f 36 57 58
f 36 58 37
f 38 58 59
f 38 59 60
f 38 60 61
f 39 62 40
f 39 61 91
f 39 91 63
f 39 63 55
f 39 55 62
f 40 62 55
f 41 64 42
f 42 64 65
f 42 65 43
f 43 65 66
f 43 66 67
f 43 67 44
f 44 67 68
f 44 68 46
f 44 46 45
f 46 68 69
f 46 69 70
f 46 70 47
f 47 70 71
f 47 71 48
f 48 71 72
f 48 72 73
f 48 73 49
f 50 54 74
f 51 74 75
f 51 75 76
f 51 76 77
f 51 77 78
f 51 78 52
f 52 79 53
f 52 78 79
f 53 79 80
f 54 56 81
f 54 81 82
f 54 82 74
f 55 63 83
f 55 83 56
f 56 83 81
f 57 84 85
f 57 85 58
f 58 85 59
f 59 85 86
f 59 86 87
f 59 87 60
f 60 87 88
f 60 88 89
f 60 89 90
f 60 90 61
f 61 90 91
f 63 91 111
f 63 111 83
f 64 92 65
f 65 92 93
f 65 93 66
f 66 93 94
f 66 94 95
f 66 95 67
f 67 95 96
f 67 96 68
f 68 96 97
f 68 97 69
f 69 97 98
f 69 98 99
f 69 99 70
f 70 99 71
f 71 99 100
f 71 100 72
f 72 100 101
f 72 101 102
f 72 102 73
f 74 82 103
f 74 103 104
f 74 104 75
f 75 104 105
f 75 105 76
f 76 105 106
f 76 106 107
f 76 107 77
f 77 108 78
f 77 107 108
f 78 108 109
f 78 109 79
f 79 109 80
f 80 109 110
f 81 83 111
f 81 111 112
f 81 112 113
f 81 113 82
f 82 114 103
f 82 113 115
f 82 115 116
f 82 116 114
f 84 117 85
f 85 117 118
f 85 118 119
f 85 119 86
f 86 119 120
f 86 120 121
f 86 121 87
f 87 121 88
f 88 122 123
f 88 123 89
f 88 121 122
f 89 123 124
f 89 124 90
f 90 124 125
f 90 125 126
f 90 126 111
f 90 111 91
f 92 127 93
f 93 127 128
f 93 128 129
f 93 129 94
f 94 129 130
f 94 130 95
f 95 131 96
f 95 130 132
f 95 132 131
f 96 131 133
f 96 133 97
f 97 134 98
f 97 133 134
f 98 134 135
f 98 135 136
f 98 136 99
f 99 136 137
f 99 137 138
f 99 138 100
f 100 138 139
f 100 139 101
f 101 139 140
f 101 140 141
f 101 141 102
f 103 114 142
f 103 142 104
f 104 142 143
f 104 143 105
f 105 143 144
f 105 144 106
f 106 145 107
f 106 144 146
f 106 146 145
f 107 145 147
f 107 147 109
f 107 109 108
f 109 148 149
f 109 149 110
f 109 147 150
f 109 150 148
f 111 126 113
f 111 113 112
f 113 125 151
f 113 151 152
f 113 152 115
f 113 126 125
f 114 116 153
f 114 153 142
f 115 152 154
f 115 154 116
f 116 154 155
f 116 155 153
f 118 156 157
f 118 157 119
f 119 157 120
f 120 157 158
f 120 158 159
f 120 159 121
f 121 159 160
f 121 160 122
f 122 160 161
f 122 161 162
f 122 162 123
f 123 162 163
f 123 163 164
f 123 164 124
f 124 164 125
f 125 164 151
f 128 165 129
f 129 165 166
f 129 166 167
f 129 167 130
f 130 167 168
f 130 168 169
f 130 169 170
f 130 170 132
f 131 132 171
f 131 171 172
f 131 172 133
f 132 170 173
f 132 173 174
f 132 174 171
f 133 172 175
f 133 175 134
f 134 175 176
f 134 176 135
f 135 162 136
f 135 176 163
f 135 163 162
f 136 162 161
f 136 161 137
f 137 161 160
f 137 160 138
f 138 160 159
f 138 159 158
f 138 158 139
f 139 158 177
f 139 177 178
f 139 178 140
f 142 153 179
f 142 179 143
f 143 179 180
f 143 180 144
f 144 180 181
f 144 181 146
f 145 146 182
f 145 182 147
f 146 181 183
f 146 183 184
f 146 184 182
f 147 182 150
f 148 150 185
f 150 182 186
f 150 186 185
f 151 187 152
f 151 164 188
f 151 188 187
f 152 187 154
f 153 155 189
f 153 189 179
f 154 190 155
f 154 187 190
f 155 190 191
f 155 191 189
f 156 192 157
f 157 192 193
f 157 193 158
f 158 193 177
f 163 176 188
f 163 188 164
f 169 194 170
f 170 194 195
f 170 195 173
f 171 174 196
f 171 196 172
f 172 196 197
f 172 197 175
f 173 195 198
f 173 198 199
f 173 199 174
f 174 200 196
f 174 199 200
f 175 197 201
f 175 201 176
f 176 201 188
f 179 189 202
f 179 202 180
f 180 202 203
f 180 203 181
f 181 203 204
f 181 204 183
f 182 184 205
f 182 205 186
f 183 204 206
f 183 206 207
f 183 207 184
f 184 208 205
f 184 207 208
f 187 188 201
f 187 201 190
f 189 191 200
f 189 200 202
f 190 201 197
f 190 197 191
f 191 197 196
f 191 196 200
f 194 209 195
f 195 209 210
f 195 210 206
f 195 206 204
f 195 204 198
f 198 204 203
f 198 203 199
f 199 203 202
f 199 202 200
f 206 210 211
f 206 211 207
f 207 212 208
f 207 211 212

