# https://github.com/mikedh/trimesh
v -0.02736878 -0.07587148 0.00962552
v -0.02736878 -0.07587148 0.01071896
v -0.02731111 -0.07340983 0.00966804
v -0.02671633 -0.07340983 0.00843775
v -0.02668389 -0.07587148 0.00839524
v -0.02736157 -0.07833313 0.00969328
v -0.02731111 -0.07340983 0.01062197
v -0.02736157 -0.07833313 0.01075218
v -0.02583318 -0.07886193 0.01136466
v -0.02583318 -0.07833313 0.01134739
v -0.02719936 -0.07094817 0.00989523
v -0.02670191 -0.07094817 0.00866495
v -0.02537538 -0.06849017 0.00714635
v -0.02546911 -0.07094817 0.00707727
v -0.02548713 -0.07340983 0.00706664
v -0.02545469 -0.07587148 0.00709852
v -0.02658656 -0.07833313 0.00846300
v -0.02735076 -0.07886193 0.00972650
v -0.02583318 -0.07340983 0.01106971
v -0.02505456 -0.06356687 0.01060470
v -0.02719936 -0.07094817 0.01046786
v -0.02583318 -0.07587148 0.01122383
v -0.02735076 -0.07886193 0.01074421
v 0.00945686 -0.07886193 0.00469907
v 0.00368934 -0.04160893 0.01284207
v 0.00122733 -0.04160893 0.01297625
v -0.00123108 -0.04160893 0.01297758
v -0.00227645 -0.04160893 0.01293108
v -0.00369309 -0.04160893 0.01284207
v -0.02710203 -0.06949671 0.01015032
v -0.02656493 -0.06859957 0.00922296
v -0.02498607 -0.06356687 0.00746123
v -0.02521317 -0.06602852 0.00727656
v -0.02385420 -0.06849017 0.00591740
v -0.02394792 -0.07094817 0.00584831
v -0.02396955 -0.07340983 0.00583768
v -0.02392990 -0.07587148 0.00586957
v -0.02535736 -0.07833313 0.00718356
v -0.02532492 -0.07886193 0.00721146
v -0.02628737 -0.07886193 0.00821455
v -0.02655412 -0.07886193 0.00849621
v -0.02710203 -0.06949671 0.01034164
v -0.02480223 -0.06177989 0.01045590
v 0.00945686 -0.07886193 0.00019777
v 0.00945686 -0.04880790 0.00973314
v 0.00426249 -0.04160893 0.01271452
v -0.00608301 -0.04160893 0.01148955
v -0.02229697 -0.05714104 0.01037884
v -0.02487793 -0.06149543 0.00906087
v -0.02543666 -0.06356687 0.00906087
v -0.02476979 -0.06177259 0.00765654
v -0.02319454 -0.06354499 0.00609809
v -0.02366315 -0.06602852 0.00604760
v -0.02243395 -0.06602852 0.00517471
v -0.02262139 -0.06849017 0.00504849
v -0.02271872 -0.07094817 0.00498605
v -0.02274035 -0.07340983 0.00496612
v -0.02270069 -0.07587148 0.00499136
v -0.02258534 -0.07833313 0.00506842
v -0.02381815 -0.07833313 0.00595460
v -0.02377850 -0.07886193 0.00598250
v -0.02253488 -0.05667059 0.00906087
v 0.00893058 -0.07886193 0.00011673
v 0.00945686 -0.07858112 0.00018183
v 0.00945686 -0.04642648 0.00969860
v 0.00792126 -0.04388824 0.01053030
v 0.00606123 -0.04160893 0.01149619
v -0.00609743 -0.04160893 0.01147228
v -0.01984577 -0.05231620 0.00824644
v -0.02250964 -0.05669977 0.00748515
v -0.02296384 -0.05865085 0.00713838
v -0.02356222 -0.06101404 0.00692581
v -0.02225731 -0.06434730 0.00529561
v -0.02203743 -0.06270620 0.00543512
v -0.02091276 -0.06602852 0.00427923
v -0.02091276 -0.06849017 0.00403344
v -0.02091276 -0.07094817 0.00390457
v -0.02091276 -0.07340983 0.00386073
v -0.02091276 -0.07587148 0.00390988
v -0.02091276 -0.07833313 0.00405736
v -0.02222487 -0.07886193 0.00489703
v -0.02254929 -0.07886193 0.00509367
v -0.02351535 -0.07886193 0.00578852
v -0.01984577 -0.05231620 0.00766717
v 0.00860976 -0.07886193 0.00007023
v 0.00860976 -0.07833313 0.00003834
v 0.00945686 -0.07833313 0.00016854
v 0.00945686 -0.04461397 0.00864900
v 0.00745986 -0.04252430 0.01039080
v 0.00609367 -0.04160893 0.01146431
v -0.00598569 -0.04160893 0.00926547
v -0.00746361 -0.04252430 0.01007459
v -0.00746361 -0.04252430 0.01039080
v -0.01739817 -0.04988738 0.00816406
v -0.02037566 -0.05373120 0.00728586
v -0.02088392 -0.05623297 0.00655646
v -0.02121916 -0.05865085 0.00590943
v -0.02174905 -0.06110886 0.00560119
v -0.02109660 -0.06354499 0.00475487
v -0.02051985 -0.06110886 0.00490102
v -0.01896622 -0.06602852 0.00324558
v -0.01922215 -0.06849017 0.00312601
v -0.01936274 -0.07094817 0.00305958
v -0.01941681 -0.07340983 0.00303566
v -0.01936634 -0.07587148 0.00305825
v -0.01921495 -0.07833313 0.00312999
v -0.02091276 -0.07886193 0.00410519
v -0.01739817 -0.04988738 0.00766982
v -0.01831017 -0.05140448 0.00725397
v -0.01837144 -0.05377131 0.00603033
v 0.00614775 -0.07886193 -0.00021011
v 0.00614775 -0.07833313 -0.00023934
v 0.00860976 -0.07587148 -0.00005333
v 0.00945686 -0.07587148 0.00007687
v 0.00945686 -0.04461397 0.00829028
v 0.00745986 -0.04252430 0.01007459
v 0.00596391 -0.04160893 0.00921499
v -0.00596766 -0.04160893 0.00921499
v -0.01913925 -0.05576981 0.00562909
v -0.01969077 -0.05740727 0.00536736
v -0.01998996 -0.05865085 0.00520261
v -0.01834621 -0.06345016 0.00334523
v -0.01845075 -0.06110886 0.00386338
v -0.01745585 -0.06419048 0.00280582
v -0.01773341 -0.06602852 0.00268358
v -0.01799295 -0.06849017 0.00256932
v -0.01813353 -0.07094817 0.00250422
v -0.01818400 -0.07340983 0.00248031
v -0.01813353 -0.07587148 0.00250157
v -0.01798574 -0.07833313 0.00256667
v -0.01793888 -0.07886193 0.00258660
v -0.01890134 -0.07886193 0.00302902
v -0.01916808 -0.07886193 0.00315258
v -0.01594908 -0.05133519 0.00601439
v -0.01303648 -0.04713762 0.00741075
v -0.01599234 -0.04935493 0.00726593
v -0.01673851 -0.05297994 0.00555602
v -0.01749911 -0.05462104 0.00524513
v 0.00368934 -0.07886193 -0.00038947
v 0.00368934 -0.07833313 -0.00041870
v 0.00614775 -0.07587148 -0.00032304
v 0.00860976 -0.07340983 -0.00007592
v 0.00945686 -0.07340983 0.00005428
v 0.00945686 -0.04486561 0.00762598
v 0.00405702 -0.04160893 0.00823979
v -0.00369309 -0.04160893 0.00819728
v -0.00503404 -0.04260088 0.00779870
v -0.01001935 -0.04501513 0.00772297
v -0.01837144 -0.05642990 0.00506577
v -0.01845075 -0.05865085 0.00446657
v -0.01712782 -0.06254938 0.00294798
v -0.01671689 -0.06110886 0.00310209
v -0.01617979 -0.06345016 0.00243912
v -0.01599234 -0.06602852 0.00200733
v -0.01599234 -0.06849017 0.00178811
v -0.01599234 -0.07094817 0.00166322
v -0.01599234 -0.07340983 0.00161672
v -0.01599234 -0.07587148 0.00165658
v -0.01599234 -0.07833313 0.00178014
v -0.01599234 -0.07886193 0.00181999
v -0.01402057 -0.05056205 0.00559853
v -0.01509837 -0.05220315 0.00524778
v -0.01107192 -0.04842862 0.00580181
v -0.01352672 -0.04881519 0.00650331
v -0.01093134 -0.04632801 0.00712643
v -0.01594908 -0.05377131 0.00496745
v -0.01599234 -0.05618920 0.00415966
v 0.00122733 -0.07886193 -0.00048380
v 0.00122733 -0.07833313 -0.00051170
v 0.00368934 -0.07587148 -0.00049576
v 0.00614775 -0.07340983 -0.00033898
v 0.00860976 -0.07094817 -0.00003340
v 0.00945686 -0.07094817 0.00009414
v 0.00945686 -0.04525947 0.00735096
v 0.00860976 -0.04464679 0.00747850
v 0.00368934 -0.04160893 0.00819861
v 0.00503029 -0.04260088 0.00779870
v 0.00368934 -0.04388824 0.00692714
v -0.00123108 -0.04160893 0.00803785
v -0.00369309 -0.04388824 0.00692714
v -0.00631011 -0.04648483 0.00585495
v -0.00723291 -0.04762266 0.00539260
v -0.00861351 -0.04788523 0.00551749
v -0.00861351 -0.04634989 0.00639437
v -0.00861351 -0.04464679 0.00747850
v -0.01589141 -0.05869827 0.00338641
v -0.01548768 -0.06110886 0.00263974
v -0.01500465 -0.05955164 0.00282176
v -0.01353033 -0.06356687 0.00154099
v -0.01353033 -0.06602852 0.00121947
v -0.01353033 -0.06849017 0.00101885
v -0.01353033 -0.07094817 0.00090725
v -0.01353033 -0.07340983 0.00086473
v -0.01353033 -0.07587148 0.00089927
v -0.01353033 -0.07833313 0.00100822
v -0.01545884 -0.07886193 0.00164993
v -0.01238043 -0.04998949 0.00534876
v -0.01333207 -0.05133519 0.00506709
v -0.01353033 -0.05373120 0.00419420
v -0.01107192 -0.04966127 0.00519597
v -0.01349789 -0.05624391 0.00332397
v -0.01429813 -0.05791054 0.00304496
v -0.00123108 -0.07886193 -0.00048380
v -0.00123108 -0.07833313 -0.00051170
v 0.00122733 -0.07587148 -0.00058477
v 0.00368934 -0.07340983 -0.00050639
v 0.00614775 -0.07094817 -0.00029647
v 0.00860976 -0.06849017 0.00006624
v 0.00945686 -0.06849017 0.00019113
v 0.00945686 -0.04706468 0.00619109
v 0.00860976 -0.04634989 0.00639437
v 0.00214653 -0.04160893 0.00809498
v 0.00860976 -0.04788523 0.00551749
v 0.00722916 -0.04762266 0.00539260
v 0.00630635 -0.04648483 0.00585628
v 0.00368934 -0.04596696 0.00580580
v 0.00122733 -0.04581015 0.00572475
v 0.00122733 -0.04388824 0.00677036
v 0.00122733 -0.04160893 0.00803785
v -0.00123108 -0.04388824 0.00676903
v -0.00123108 -0.04581015 0.00572475
v -0.00369309 -0.04596696 0.00580580
v -0.00559277 -0.04740020 0.00528100
v -0.00631011 -0.04858908 0.00482529
v -0.00861351 -0.04911423 0.00494752
v -0.01353033 -0.06110886 0.00201530
v -0.01349789 -0.05869827 0.00260387
v -0.01107192 -0.06356687 0.00095109
v -0.01107192 -0.06110886 0.00141211
v -0.01099262 -0.06592275 0.00063621
v -0.01167391 -0.06849017 0.00056978
v -0.01195507 -0.07094817 0.00051797
v -0.01206321 -0.07340983 0.00049804
v -0.01198391 -0.07587148 0.00051265
v -0.01171716 -0.07833313 0.00056447
v -0.01353033 -0.07886193 0.00104542
v -0.01107192 -0.05126955 0.00451307
v -0.01089890 -0.05392813 0.00344354
v -0.01160181 -0.05545618 0.00306888
v -0.00861351 -0.05126955 0.00401219
v -0.01265799 -0.05709728 0.00280980
v -0.00315960 -0.07886193 -0.00041073
v -0.00369309 -0.07833313 -0.00041870
v -0.00369309 -0.07587148 -0.00049576
v -0.00123108 -0.07587148 -0.00058477
v 0.00122733 -0.07340983 -0.00059540
v 0.00368934 -0.07094817 -0.00046387
v 0.00368934 -0.06849017 -0.00036688
v 0.00614775 -0.06849017 -0.00019682
v 0.00614775 -0.06602852 -0.00002809
v 0.00875755 -0.06592275 0.00027085
v 0.00945686 -0.06630568 0.00033595
v 0.00945686 -0.04807122 0.00561448
v 0.00945686 -0.04849426 0.00540722
v 0.00945686 -0.04930022 0.00503255
v 0.00860976 -0.04911423 0.00494752
v 0.00630635 -0.04858908 0.00482662
v 0.00558902 -0.04740020 0.00528100
v 0.00368934 -0.04719597 0.00518135
v 0.00122733 -0.04704280 0.00510695
v -0.00123108 -0.04704280 0.00510695
v -0.00369309 -0.04719597 0.00518135
v -0.00369309 -0.04880790 0.00443335
v -0.00615150 -0.05126955 0.00363088
v -0.01107192 -0.05865085 0.00200998
v -0.00967690 -0.06503292 0.00047412
v -0.00861351 -0.06110886 0.00096969
v -0.00876131 -0.06343558 0.00057111
v -0.00861351 -0.05865085 0.00153700
v -0.01012028 -0.06667402 0.00039706
v -0.01044470 -0.06849017 0.00033728
v -0.01072226 -0.07094817 0.00028679
v -0.01083401 -0.07340983 0.00026553
v -0.01075471 -0.07587148 0.00027882
v -0.01048796 -0.07833313 0.00032665
v -0.01136390 -0.07886193 0.00052992
v -0.01163065 -0.07886193 0.00058174
v -0.00861351 -0.05331181 0.00320705
v -0.00996167 -0.05488362 0.00288287
v -0.01089890 -0.05624391 0.00266498
v -0.00615150 -0.05278301 0.00301573
v -0.00369309 -0.07886193 -0.00038947
v -0.00615150 -0.07833313 -0.00023934
v -0.00615150 -0.07587148 -0.00032304
v -0.00615150 -0.07340983 -0.00033898
v -0.00369309 -0.07340983 -0.00050639
v -0.00123108 -0.07340983 -0.00059540
v 0.00122733 -0.07094817 -0.00055289
v 0.00122733 -0.06849017 -0.00046254
v 0.00122733 -0.06602852 -0.00030975
v 0.00368934 -0.06602852 -0.00021011
v 0.00368934 -0.06356687 0.00003834
v 0.00624147 -0.06343558 0.00026553
v 0.00803661 -0.06416860 0.00036385
v 0.00945686 -0.06491622 0.00045818
v 0.00945686 -0.06524809 0.00042496
v 0.00945686 -0.05126955 0.00418490
v 0.00860976 -0.05126955 0.00401351
v 0.00614775 -0.05126955 0.00363221
v 0.00368934 -0.04880790 0.00443335
v 0.00122733 -0.04880790 0.00428986
v -0.00123108 -0.04880790 0.00428986
v -0.00381926 -0.05144095 0.00330670
v -0.00472043 -0.05254231 0.00292672
v -0.00861351 -0.05618920 0.00223053
v -0.00804037 -0.06416860 0.00036385
v -0.00876131 -0.06592275 0.00027085
v -0.00624522 -0.06115992 0.00063488
v -0.00712838 -0.06252750 0.00047811
v -0.00615150 -0.05865085 0.00117031
v -0.00615150 -0.05618920 0.00184657
v -0.00861351 -0.06849017 0.00006624
v -0.00861351 -0.07094817 -0.00003340
v -0.00861351 -0.07340983 -0.00007592
v -0.00861351 -0.07587148 -0.00005333
v -0.00861351 -0.07833313 0.00003834
v -0.01040145 -0.07886193 0.00034392
v -0.00615150 -0.05401566 0.00256667
v -0.00861351 -0.05454081 0.00276064
v -0.00562161 -0.07886193 -0.00024864
v -0.00615150 -0.07886193 -0.00020878
v -0.00808002 -0.07886193 0.00000778
v -0.00615150 -0.07094817 -0.00029647
v -0.00369309 -0.07094817 -0.00046387
v -0.00123108 -0.07094817 -0.00055289
v -0.00123108 -0.06849017 -0.00046254
v -0.00123108 -0.06602852 -0.00030975
v 0.00122733 -0.06356687 -0.00007060
v 0.00368934 -0.06159755 0.00032000
v 0.00548448 -0.06201329 0.00039175
v 0.00712462 -0.06252750 0.00047811
v 0.00875755 -0.06343558 0.00057111
v 0.00945686 -0.06464634 0.00049804
v 0.00945686 -0.05354156 0.00329341
v 0.00860976 -0.05331181 0.00320705
v 0.00614775 -0.05278665 0.00301573
v 0.00471668 -0.05254231 0.00292672
v 0.00381550 -0.05144095 0.00330670
v 0.00122733 -0.05105073 0.00332397
v -0.00123108 -0.05105073 0.00332397
v -0.00308029 -0.05237820 0.00286162
v -0.00381926 -0.05350874 0.00250289
v -0.00624522 -0.06343558 0.00026553
v -0.00615150 -0.06602852 -0.00002809
v -0.00548824 -0.06201329 0.00039175
v -0.00369309 -0.06036489 0.00053922
v -0.00369309 -0.05865085 0.00092053
v -0.00369309 -0.05618920 0.00158882
v -0.00615150 -0.06849017 -0.00019682
v -0.00861351 -0.07886193 0.00007023
v -0.00369309 -0.06849017 -0.00036688
v -0.00369309 -0.06602852 -0.00021011
v -0.00123108 -0.06356687 -0.00007060
v 0.00122733 -0.06126568 0.00026287
v 0.00122733 -0.06003668 0.00048076
v 0.00368934 -0.06036489 0.00053922
v 0.00624147 -0.06115992 0.00063488
v 0.00860976 -0.06110886 0.00096836
v 0.00945686 -0.06347569 0.00068537
v 0.00945686 -0.05429282 0.00300511
v 0.00860976 -0.05454081 0.00276064
v 0.00614775 -0.05401566 0.00256800
v 0.00307654 -0.05237820 0.00286162
v 0.00381550 -0.05350874 0.00250289
v 0.00122733 -0.05228339 0.00282442
v -0.00123108 -0.05228339 0.00282442
v -0.00123108 -0.05373120 0.00229563
v -0.00369309 -0.06356687 0.00003834
v -0.00369309 -0.06159755 0.00032000
v -0.00123108 -0.06003668 0.00048076
v -0.00123108 -0.05865085 0.00080361
v -0.00123108 -0.05618920 0.00147589
v -0.00123108 -0.06126568 0.00026287
v 0.00122733 -0.05865085 0.00080361
v 0.00368934 -0.05865085 0.00092186
v 0.00614775 -0.05865085 0.00117164
v 0.00945686 -0.06110886 0.00112115
v 0.00945686 -0.06195129 0.00096305
v 0.00860976 -0.05865085 0.00153567
v 0.00945686 -0.05949693 0.00149316
v 0.00945686 -0.05475598 0.00283770
v 0.00860976 -0.05618920 0.00223186
v 0.00614775 -0.05618920 0.00184922
v 0.00368934 -0.05618920 0.00159015
v 0.00122733 -0.05373120 0.00229563
v 0.00122733 -0.05618920 0.00147589
v 0.00945686 -0.05865085 0.00169776
v 0.00945686 -0.05621109 0.00239129
v 0.00945686 -0.05703528 0.00215480
f 1 2 7
f 1 7 3
f 1 3 4
f 1 4 5
f 1 5 6
f 1 6 8
f 1 8 2
f 2 8 9
f 2 9 10
f 2 10 7
f 3 7 21
f 3 21 11
f 3 11 12
f 3 12 4
f 4 12 13
f 4 13 14
f 4 14 15
f 4 15 5
f 5 15 16
f 5 16 17
f 5 17 6
f 6 17 18
f 6 18 23
f 6 23 8
f 7 19 20
f 7 20 21
f 7 10 22
f 7 22 19
f 8 23 9
f 9 23 18
f 9 18 41
f 9 41 40
f 9 40 39
f 9 39 61
f 9 61 83
f 9 83 82
f 9 82 81
f 9 81 107
f 9 107 133
f 9 133 132
f 9 132 131
f 9 131 160
f 9 160 196
f 9 196 236
f 9 236 277
f 9 277 276
f 9 276 317
f 9 317 350
f 9 350 322
f 9 322 321
f 9 321 320
f 9 320 282
f 9 282 242
f 9 242 203
f 9 203 168
f 9 168 139
f 9 139 111
f 9 111 85
f 9 85 63
f 9 63 44
f 9 44 24
f 9 24 25
f 9 25 26
f 9 26 27
f 9 27 28
f 9 28 29
f 9 29 10
f 10 29 22
f 11 21 42
f 11 42 30
f 11 30 12
f 12 30 31
f 12 31 32
f 12 32 33
f 12 33 13
f 13 34 35
f 13 35 14
f 13 33 34
f 14 35 36
f 14 36 15
f 15 36 16
f 16 36 37
f 16 37 38
f 16 38 17
f 17 38 39
f 17 39 40
f 17 40 41
f 17 41 18
f 19 22 20
f 20 42 21
f 20 22 29
f 20 29 43
f 20 43 42
f 24 44 64
f 24 64 87
f 24 87 114
f 24 114 143
f 24 143 173
f 24 173 209
f 24 209 252
f 24 252 296
f 24 296 295
f 24 295 333
f 24 333 359
f 24 359 378
f 24 378 377
f 24 377 380
f 24 380 387
f 24 387 389
f 24 389 388
f 24 388 381
f 24 381 360
f 24 360 334
f 24 334 297
f 24 297 255
f 24 255 254
f 24 254 253
f 24 253 210
f 24 210 174
f 24 174 144
f 24 144 115
f 24 115 88
f 24 88 65
f 24 65 45
f 24 45 46
f 24 46 25
f 25 46 67
f 25 67 90
f 25 90 117
f 25 117 145
f 25 145 176
f 25 176 212
f 25 212 219
f 25 219 179
f 25 179 146
f 25 146 118
f 25 118 91
f 25 91 68
f 25 68 47
f 25 47 29
f 25 29 28
f 25 28 27
f 25 27 26
f 29 47 48
f 29 48 43
f 30 42 49
f 30 49 50
f 30 50 51
f 30 51 31
f 31 51 32
f 32 52 53
f 32 53 33
f 32 51 52
f 33 53 34
f 34 53 54
f 34 54 55
f 34 55 35
f 35 55 56
f 35 56 57
f 35 57 36
f 36 57 58
f 36 58 37
f 37 58 59
f 37 59 60
f 37 60 38
f 38 60 39
f 39 60 61
f 42 43 49
f 43 48 62
f 43 62 49
f 44 63 64
f 45 65 46
f 46 65 66
f 46 66 67
f 47 68 69
f 47 69 48
f 48 69 62
f 49 51 50
f 49 62 70
f 49 70 51
f 51 70 71
f 51 71 72
f 51 72 52
f 52 73 53
f 52 72 74
f 52 74 73
f 53 73 54
f 54 73 75
f 54 75 76
f 54 76 55
f 55 76 77
f 55 77 56
f 56 77 78
f 56 78 57
f 57 78 79
f 57 79 58
f 58 79 59
f 59 79 80
f 59 80 81
f 59 81 82
f 59 82 60
f 60 82 83
f 60 83 61
f 62 69 84
f 62 84 70
f 63 85 86
f 63 86 64
f 64 86 87
f 65 88 66
f 66 88 89
f 66 89 90
f 66 90 67
f 68 91 92
f 68 92 93
f 68 93 94
f 68 94 69
f 69 94 108
f 69 108 84
f 70 84 95
f 70 95 96
f 70 96 97
f 70 97 71
f 71 97 98
f 71 98 72
f 72 98 74
f 73 74 99
f 73 99 75
f 74 98 100
f 74 100 99
f 75 99 101
f 75 101 102
f 75 102 76
f 76 102 103
f 76 103 77
f 77 103 104
f 77 104 78
f 78 104 79
f 79 104 105
f 79 105 80
f 80 105 106
f 80 106 107
f 80 107 81
f 84 108 109
f 84 109 110
f 84 110 95
f 85 111 86
f 86 111 112
f 86 112 113
f 86 113 114
f 86 114 87
f 88 115 116
f 88 116 89
f 89 116 90
f 90 116 117
f 91 118 108
f 91 108 92
f 92 108 94
f 92 94 93
f 95 110 119
f 95 119 96
f 96 119 120
f 96 120 97
f 97 121 98
f 97 120 121
f 98 121 100
f 99 122 101
f 99 100 122
f 100 121 123
f 100 123 122
f 101 122 124
f 101 124 125
f 101 125 102
f 102 125 126
f 102 126 103
f 103 126 127
f 103 127 104
f 104 127 128
f 104 128 129
f 104 129 105
f 105 129 130
f 105 130 106
f 106 131 132
f 106 132 133
f 106 133 107
f 106 130 131
f 108 134 109
f 108 118 135
f 108 135 136
f 108 136 134
f 109 134 137
f 109 137 110
f 110 138 119
f 110 137 138
f 111 139 140
f 111 140 112
f 112 140 141
f 112 141 113
f 113 141 142
f 113 142 143
f 113 143 114
f 115 144 117
f 115 117 116
f 117 144 145
f 118 146 147
f 118 147 148
f 118 148 135
f 119 149 120
f 119 138 149
f 120 149 150
f 120 150 121
f 121 150 123
f 122 123 151
f 122 151 124
f 123 152 151
f 123 150 152
f 124 151 153
f 124 153 154
f 124 154 125
f 125 154 155
f 125 155 126
f 126 155 156
f 126 156 127
f 127 156 157
f 127 157 128
f 128 157 158
f 128 158 129
f 129 158 130
f 130 158 159
f 130 159 131
f 131 159 160
f 134 136 161
f 134 161 162
f 134 162 137
f 135 163 164
f 135 164 136
f 135 148 165
f 135 165 163
f 136 164 161
f 137 166 138
f 137 162 166
f 138 166 167
f 138 167 149
f 139 168 140
f 140 168 169
f 140 169 170
f 140 170 141
f 141 170 171
f 141 171 142
f 142 171 207
f 142 207 172
f 142 172 173
f 142 173 143
f 144 174 175
f 144 175 145
f 145 175 177
f 145 177 178
f 145 178 176
f 146 179 180
f 146 180 147
f 147 180 181
f 147 181 182
f 147 182 183
f 147 183 184
f 147 184 185
f 147 185 148
f 148 185 165
f 149 167 186
f 149 186 150
f 150 186 152
f 151 152 187
f 151 187 153
f 152 186 188
f 152 188 187
f 153 189 154
f 153 187 189
f 154 189 190
f 154 190 155
f 155 190 191
f 155 191 156
f 156 191 192
f 156 192 157
f 157 192 193
f 157 193 194
f 157 194 158
f 158 195 159
f 158 194 195
f 159 195 196
f 159 196 160
f 161 197 198
f 161 198 162
f 161 164 163
f 161 163 197
f 162 198 199
f 162 199 166
f 163 165 185
f 163 185 184
f 163 184 183
f 163 183 200
f 163 200 197
f 166 199 201
f 166 201 167
f 167 201 202
f 167 202 186
f 168 203 204
f 168 204 169
f 169 204 245
f 169 245 205
f 169 205 170
f 170 205 246
f 170 246 206
f 170 206 171
f 171 206 247
f 171 247 207
f 172 207 249
f 172 249 208
f 172 208 209
f 172 209 173
f 174 210 175
f 175 211 177
f 175 210 211
f 176 178 212
f 177 211 213
f 177 213 214
f 177 214 215
f 177 215 178
f 178 215 216
f 178 216 217
f 178 217 218
f 178 218 212
f 179 219 220
f 179 220 180
f 180 220 221
f 180 221 222
f 180 222 181
f 181 222 223
f 181 223 182
f 182 223 224
f 182 224 225
f 182 225 183
f 183 225 200
f 186 202 188
f 187 226 189
f 187 188 226
f 188 202 227
f 188 227 226
f 189 228 190
f 189 226 229
f 189 229 228
f 190 228 230
f 190 230 231
f 190 231 191
f 191 231 232
f 191 232 192
f 192 232 233
f 192 233 193
f 193 233 234
f 193 234 194
f 194 234 195
f 195 234 235
f 195 235 236
f 195 236 196
f 197 237 198
f 197 200 237
f 198 237 238
f 198 238 199
f 199 238 239
f 199 239 201
f 200 225 240
f 200 240 237
f 201 241 202
f 201 239 241
f 202 241 227
f 203 242 243
f 203 243 204
f 204 243 244
f 204 244 245
f 205 245 287
f 205 287 246
f 206 246 288
f 206 288 247
f 207 247 248
f 207 248 249
f 208 249 250
f 208 250 251
f 208 251 252
f 208 252 209
f 210 253 211
f 211 253 213
f 212 218 219
f 213 253 254
f 213 254 255
f 213 255 256
f 213 256 214
f 214 256 257
f 214 257 258
f 214 258 215
f 215 258 216
f 216 258 259
f 216 259 217
f 217 221 220
f 217 220 218
f 217 259 260
f 217 260 261
f 217 261 221
f 218 220 219
f 221 261 262
f 221 262 222
f 222 262 223
f 223 262 263
f 223 263 224
f 224 263 264
f 224 264 225
f 225 264 240
f 226 227 265
f 226 265 229
f 227 241 265
f 228 266 230
f 228 229 267
f 228 267 268
f 228 268 266
f 229 265 269
f 229 269 267
f 230 270 231
f 230 266 270
f 231 270 271
f 231 271 232
f 232 271 272
f 232 272 273
f 232 273 233
f 233 273 274
f 233 274 234
f 234 274 275
f 234 275 235
f 235 275 276
f 235 276 277
f 235 277 236
f 237 240 278
f 237 278 238
f 238 279 239
f 238 278 279
f 239 280 241
f 239 279 280
f 240 264 281
f 240 281 278
f 241 280 265
f 242 282 243
f 243 282 283
f 243 283 284
f 243 284 244
f 244 284 285
f 244 285 286
f 244 286 287
f 244 287 245
f 246 287 325
f 246 325 288
f 247 288 289
f 247 289 248
f 248 290 291
f 248 291 249
f 248 289 290
f 249 291 250
f 250 291 292
f 250 292 293
f 250 293 294
f 250 294 251
f 251 294 295
f 251 295 296
f 251 296 252
f 255 297 298
f 255 298 256
f 256 298 299
f 256 299 257
f 257 300 258
f 257 299 300
f 258 300 259
f 259 300 260
f 260 300 301
f 260 301 302
f 260 302 261
f 261 302 263
f 261 263 262
f 263 302 303
f 263 303 264
f 264 303 304
f 264 304 281
f 265 280 305
f 265 305 269
f 266 268 306
f 266 306 307
f 266 307 270
f 267 308 309
f 267 309 268
f 267 269 310
f 267 310 308
f 268 309 306
f 269 305 311
f 269 311 310
f 270 307 312
f 270 312 271
f 271 312 313
f 271 313 272
f 272 313 314
f 272 314 273
f 273 315 274
f 273 314 315
f 274 315 275
f 275 316 317
f 275 317 276
f 275 315 316
f 278 281 318
f 278 318 319
f 278 319 279
f 279 319 305
f 279 305 280
f 281 304 318
f 282 320 283
f 283 320 321
f 283 321 322
f 283 322 316
f 283 316 315
f 283 315 284
f 284 315 314
f 284 314 285
f 285 314 313
f 285 313 323
f 285 323 324
f 285 324 286
f 286 324 325
f 286 325 287
f 288 325 326
f 288 326 289
f 289 326 327
f 289 327 290
f 290 327 353
f 290 353 328
f 290 328 291
f 291 328 292
f 292 328 329
f 292 329 330
f 292 330 293
f 293 330 331
f 293 331 294
f 294 331 332
f 294 332 295
f 295 332 333
f 297 334 335
f 297 335 298
f 298 335 336
f 298 336 299
f 299 336 337
f 299 337 300
f 300 337 338
f 300 338 301
f 301 338 339
f 301 339 340
f 301 340 302
f 302 340 303
f 303 341 304
f 303 340 341
f 304 341 342
f 304 342 318
f 305 319 311
f 306 309 343
f 306 343 344
f 306 344 307
f 307 344 312
f 308 345 309
f 308 310 346
f 308 346 345
f 309 345 343
f 310 347 346
f 310 311 348
f 310 348 347
f 311 319 318
f 311 318 348
f 312 344 349
f 312 349 323
f 312 323 313
f 316 322 350
f 316 350 317
f 318 342 348
f 323 349 351
f 323 351 324
f 324 351 326
f 324 326 325
f 326 351 327
f 327 352 353
f 327 351 352
f 328 353 373
f 328 373 354
f 328 354 329
f 329 354 355
f 329 355 356
f 329 356 330
f 330 356 357
f 330 357 331
f 331 357 358
f 331 358 332
f 332 359 333
f 332 358 359
f 334 360 335
f 335 360 361
f 335 361 362
f 335 362 336
f 336 362 337
f 337 363 338
f 337 362 364
f 337 364 363
f 338 363 339
f 339 363 365
f 339 365 366
f 339 366 340
f 340 366 341
f 341 366 367
f 341 367 342
f 342 367 348
f 343 368 344
f 343 345 368
f 344 368 352
f 344 352 349
f 345 346 369
f 345 369 368
f 346 347 370
f 346 370 369
f 347 371 370
f 347 348 371
f 348 367 372
f 348 372 371
f 349 352 351
f 352 368 353
f 353 368 369
f 353 369 373
f 354 373 370
f 354 370 355
f 355 370 371
f 355 371 374
f 355 374 375
f 355 375 356
f 356 375 376
f 356 376 357
f 357 376 358
f 358 377 378
f 358 378 359
f 358 376 379
f 358 379 380
f 358 380 377
f 360 381 361
f 361 381 382
f 361 382 383
f 361 383 362
f 362 383 384
f 362 384 364
f 363 364 385
f 363 385 365
f 364 384 385
f 365 385 367
f 365 367 366
f 367 385 386
f 367 386 372
f 369 370 373
f 371 372 386
f 371 386 374
f 374 386 384
f 374 384 375
f 375 384 376
f 376 384 383
f 376 383 379
f 379 387 380
f 379 383 382
f 379 382 387
f 381 388 382
f 382 388 389
f 382 389 387
f 384 386 385

