# https://github.com/mikedh/trimesh
v -0.02735163 -0.07887003 0.00972656
v -0.02735163 -0.07887003 0.01074318
v -0.02655366 -0.07887003 0.00849598
v -0.02730343 -0.08079543 0.00984460
v -0.02583334 -0.07887003 0.01136437
v -0.02730343 -0.08079543 0.01071220
v -0.02467387 -0.09309660 0.01280004
v -0.02466584 -0.09125143 0.01279119
v -0.02628856 -0.07887003 0.00821416
v -0.02643584 -0.08079543 0.00861550
v -0.02719097 -0.08325566 0.01006297
v -0.02363758 -0.07887003 0.01091139
v -0.02447036 -0.09125143 0.01279119
v 0.00000439 -0.12261941 0.01458688
v -0.02719097 -0.08325566 0.01054989
v -0.02463370 -0.09454065 0.01277643
v -0.02263609 -0.10048176 0.01308334
v -0.01599256 -0.11277847 0.01384470
v -0.01353438 -0.11523870 0.01403947
v -0.01107351 -0.11769894 0.01421358
v -0.00123274 -0.12261941 0.01458984
v -0.02532457 -0.07887003 0.00721229
v -0.02520674 -0.08079543 0.00731262
v -0.02500859 -0.08325566 0.00748083
v -0.02624036 -0.08325566 0.00883240
v -0.02709992 -0.08473982 0.01022971
v 0.00000439 -0.07887003 0.00393371
v 0.00000439 -0.12439774 0.01375912
v -0.02709992 -0.08473982 0.01037726
v -0.02475420 -0.09497743 0.01152078
v -0.02218087 -0.10427016 0.01279414
v -0.02237903 -0.10293754 0.01295940
v -0.02021272 -0.10785800 0.01320433
v -0.01857393 -0.11031824 0.01338730
v -0.01777595 -0.11277847 0.01325450
v -0.01596846 -0.11510945 0.01341976
v -0.01357722 -0.11772568 0.01363075
v -0.00861265 -0.12015917 0.01436261
v -0.00369092 -0.12261941 0.01442310
v -0.00123274 -0.12439328 0.01375912
v -0.02377950 -0.07887003 0.00598319
v -0.02364829 -0.08079543 0.00608352
v -0.02320110 -0.08334480 0.00610123
v -0.02476759 -0.08571590 0.00768888
v -0.02462835 -0.08704852 0.00780839
v -0.02615735 -0.08562230 0.00926915
v -0.02530850 -0.09063637 0.00945801
v -0.02501662 -0.09309660 0.00979148
v -0.02477295 -0.09498189 0.01008068
v 0.00000439 -0.07887003 -0.00048397
v 0.00000439 -0.12439774 0.01207704
v -0.02218087 -0.10427016 0.01258462
v -0.01987532 -0.10949816 0.01297415
v -0.01735019 -0.11420024 0.01292841
v -0.01513032 -0.11692343 0.01317482
v -0.01278460 -0.11936584 0.01326040
v -0.01102799 -0.12017701 0.01366617
v -0.00861265 -0.12208012 0.01357469
v -0.00619463 -0.12278878 0.01377831
v -0.00369092 -0.12421054 0.01350534
v -0.00123274 -0.12439328 0.01207704
v -0.02351440 -0.07887003 0.00578842
v -0.02241919 -0.08079543 0.00518346
v -0.02226388 -0.08258266 0.00528822
v -0.02207912 -0.08422282 0.00541217
v -0.02337248 -0.08571590 0.00662799
v -0.02350369 -0.08799340 0.00715032
v -0.02290119 -0.09063637 0.00725803
v -0.02440877 -0.08868868 0.00799431
v -0.02539151 -0.08799340 0.00891355
v -0.02413296 -0.09063637 0.00822744
v -0.02375004 -0.09309660 0.00856090
v -0.02340461 -0.09563706 0.00902421
v -0.02305382 -0.09802152 0.00945801
v -0.02259860 -0.10048176 0.00985197
v -0.02229869 -0.10209517 0.01013527
v -0.02242455 -0.10292416 0.01166685
v 0.00000439 -0.08079543 -0.00037921
v -0.00069986 -0.07887003 -0.00048397
v -0.00123274 -0.12310522 0.01084647
v 0.00000439 -0.12310522 0.01084647
v -0.02193452 -0.10373533 0.01094533
v -0.01987532 -0.10949816 0.01229394
v -0.01735019 -0.11420024 0.01251970
v -0.01513032 -0.11692343 0.01227476
v -0.01278460 -0.11936584 0.01226591
v -0.01017914 -0.12162106 0.01315712
v -0.00540201 -0.12400553 0.01312023
v -0.00369092 -0.12421054 0.01228214
v -0.02255040 -0.07887003 0.00509346
v -0.02091429 -0.07887003 0.00410487
v -0.02091429 -0.08079543 0.00427602
v -0.02112048 -0.08334480 0.00471277
v -0.02065187 -0.08571590 0.00479245
v -0.02188364 -0.08571590 0.00553758
v -0.02152750 -0.08817613 0.00576776
v -0.02083663 -0.09087704 0.00589761
v -0.02251827 -0.09309660 0.00754723
v -0.02225853 -0.09465653 0.00774347
v -0.02195059 -0.09629669 0.00796775
v -0.02159712 -0.09802152 0.00822744
v -0.02083663 -0.10060656 0.00850188
v -0.02103479 -0.10292416 0.00945506
v -0.02030108 -0.10539777 0.00979738
v -0.01989674 -0.10704239 0.01011462
v -0.01944152 -0.10868254 0.01065465
v 0.00000439 -0.08325566 -0.00019772
v -0.00123274 -0.08079543 -0.00037921
v -0.00123274 -0.07887003 -0.00048249
v -0.00369092 -0.12290020 0.01105156
v -0.00369092 -0.12167008 0.01010724
v -0.00123274 -0.12187064 0.00997739
v 0.00000439 -0.12187064 0.00997739
v -0.01728860 -0.11164641 0.01024446
v -0.01667272 -0.11328656 0.01087893
v -0.01429218 -0.11597410 0.01063399
v -0.01353973 -0.11768111 0.01144995
v -0.01168404 -0.11844325 0.01062662
v -0.01093159 -0.12003884 0.01153701
v -0.01017914 -0.12162106 0.01244887
v -0.00540201 -0.12400553 0.01253593
v -0.01916839 -0.07887003 0.00315316
v -0.01899969 -0.08079543 0.00323431
v -0.01870246 -0.08325566 0.00337891
v -0.01823653 -0.08556882 0.00349105
v -0.01845343 -0.08817613 0.00402371
v -0.02029841 -0.08817613 0.00500345
v -0.01996369 -0.09021741 0.00520117
v -0.01967984 -0.09186203 0.00537233
v -0.02091429 -0.09309660 0.00646125
v -0.02104282 -0.09550781 0.00714884
v -0.02036535 -0.09802152 0.00737312
v -0.01996636 -0.09987116 0.00764019
v -0.01958344 -0.10151131 0.00789397
v -0.01920856 -0.10293754 0.00813153
v -0.01838113 -0.10545125 0.00848860
v -0.01855518 -0.10786246 0.00952146
v -0.01770633 -0.11031824 0.00995526
v 0.00000439 -0.08449023 -0.00007673
v -0.00123274 -0.08325566 -0.00019772
v -0.00369092 -0.08079543 -0.00028330
v -0.00369092 -0.07887003 -0.00038954
v -0.00316073 -0.07887003 -0.00041019
v -0.00611162 -0.12260158 0.01148389
v -0.00517976 -0.12148289 0.01023118
v -0.00369092 -0.12015917 0.00922193
v -0.00123274 -0.12015917 0.00897700
v 0.00000439 -0.12101936 0.00947867
v -0.01649063 -0.10785800 0.00823187
v -0.01577834 -0.11011322 0.00872469
v -0.01590955 -0.11259128 0.00984902
v -0.01503125 -0.11433395 0.01012494
v -0.01265607 -0.11680309 0.01010429
v -0.01004258 -0.11907168 0.01020462
v -0.00861265 -0.12071629 0.01078450
v -0.00861265 -0.12208012 0.01201507
v -0.01890329 -0.07887003 0.00302922
v -0.01776792 -0.08079543 0.00266182
v -0.01747337 -0.08325566 0.00279609
v -0.01727521 -0.08465069 0.00288609
v -0.01697530 -0.08629084 0.00300856
v -0.01660309 -0.08817613 0.00316054
v -0.01869710 -0.09087704 0.00466408
v -0.01819369 -0.09309660 0.00486475
v -0.01942546 -0.09309660 0.00551545
v -0.01888990 -0.09556129 0.00581498
v -0.01826866 -0.09790565 0.00608352
v -0.01863819 -0.10060656 0.00706326
v -0.01797946 -0.10293754 0.00738197
v -0.01751086 -0.10466683 0.00765642
v -0.01701547 -0.10630699 0.00794562
v 0.00000439 -0.08571590 0.00004426
v -0.00123274 -0.08571590 0.00004426
v -0.00369092 -0.08325566 -0.00009886
v -0.00615179 -0.08079543 -0.00010034
v -0.00562159 -0.07887003 -0.00024936
v -0.00681855 -0.12116644 0.01043185
v -0.00606074 -0.12027060 0.00972803
v -0.00369092 -0.11823377 0.00817432
v -0.00123274 -0.11845662 0.00805923
v 0.00000439 -0.11931236 0.00851959
v 0.00000439 -0.12015917 0.00897700
v -0.01481435 -0.10915943 0.00780249
v -0.01413955 -0.11079958 0.00812710
v -0.01340584 -0.11266259 0.00855648
v -0.01349957 -0.11518968 0.00974279
v -0.01094766 -0.11765437 0.00982394
v -0.01164923 -0.11340690 0.00808874
v -0.01092892 -0.11507826 0.00855500
v -0.00861265 -0.11948618 0.00996854
v -0.00861265 -0.11586268 0.00811087
v -0.00861265 -0.11769894 0.00901979
v -0.01793930 -0.07887003 0.00258657
v -0.01599256 -0.07887003 0.00181930
v -0.01599256 -0.08079543 0.00196390
v -0.01599256 -0.08325566 0.00222211
v -0.01609164 -0.08556882 0.00256443
v -0.01537132 -0.08817613 0.00267510
v -0.01500179 -0.08992325 0.00281675
v -0.01589081 -0.09070322 0.00332432
v -0.01599256 -0.09309660 0.00383780
v -0.01765813 -0.09556129 0.00514067
v -0.01732609 -0.09700534 0.00531773
v -0.01689765 -0.09864550 0.00552578
v -0.01637548 -0.10048176 0.00578547
v -0.01575424 -0.10270577 0.00613959
v -0.01611306 -0.10545125 0.00718278
v -0.01526153 -0.10785800 0.00756789
v 0.00000439 -0.08687916 0.00018001
v -0.00123274 -0.08803351 0.00031576
v -0.00369092 -0.08761901 0.00036740
v -0.00369092 -0.08571590 0.00014460
v -0.00615179 -0.08325566 0.00009148
v -0.00861265 -0.08079543 0.00018591
v -0.00861265 -0.07887003 0.00007082
v -0.00807978 -0.07887003 0.00000885
v -0.00615179 -0.07887003 -0.00020952
v -0.00623748 -0.11760089 0.00832335
v -0.00547699 -0.11671841 0.00771101
v -0.00369092 -0.11700366 0.00757526
v 0.00000439 -0.11845662 0.00805923
v -0.00123274 -0.11722651 0.00747493
v -0.01353438 -0.10785800 0.00676964
v -0.01340584 -0.11011322 0.00752362
v -0.01250344 -0.11176674 0.00774052
v -0.01001044 -0.11415121 0.00776708
v -0.01092892 -0.11266259 0.00750296
v -0.00711578 -0.11633957 0.00788955
v -0.00861265 -0.11463256 0.00755461
v -0.01545969 -0.07887003 0.00164962
v -0.01353438 -0.08079543 0.00117745
v -0.01353438 -0.08325566 0.00141649
v -0.01353438 -0.08571590 0.00172192
v -0.01353438 -0.08817613 0.00207014
v -0.01367630 -0.09070322 0.00252312
v -0.01459209 -0.09156341 0.00296577
v -0.01415562 -0.09309660 0.00311480
v -0.01599256 -0.09556129 0.00437193
v -0.01604344 -0.09790565 0.00495181
v -0.01514371 -0.10048176 0.00519822
v -0.01477686 -0.10172971 0.00536495
v -0.01418775 -0.10336986 0.00560841
v -0.01343530 -0.10534875 0.00590204
v 0.00000439 -0.08803351 0.00031576
v -0.00123274 -0.08926362 0.00047069
v -0.00369092 -0.08884913 0.00052233
v -0.00521993 -0.08719115 0.00041904
v -0.00608484 -0.08568470 0.00033199
v -0.00767008 -0.08484679 0.00040871
v -0.00854035 -0.08302390 0.00035264
v -0.00985513 -0.08204783 0.00044855
v -0.01008810 -0.08079543 0.00040281
v -0.01040407 -0.07887003 0.00034379
v -0.00623748 -0.11540807 0.00729934
v -0.00369092 -0.11523870 0.00681538
v 0.00000439 -0.11722651 0.00747493
v -0.00123274 -0.11523870 0.00662356
v -0.01186345 -0.10613762 0.00551988
v -0.01107351 -0.11031824 0.00666192
v -0.00861265 -0.11277847 0.00680210
v -0.01353438 -0.07887003 0.00104466
v -0.01163317 -0.07887003 0.00058135
v -0.01131987 -0.08079543 0.00064480
v -0.01083519 -0.08302390 0.00074513
v -0.01107351 -0.08571590 0.00110073
v -0.01107351 -0.08817613 0.00142682
v -0.01107351 -0.09063637 0.00179864
v -0.01292920 -0.09309660 0.00271198
v -0.01248470 -0.09462087 0.00285216
v -0.01339781 -0.09548998 0.00334498
v -0.01353438 -0.09802152 0.00396174
v -0.01353438 -0.10048176 0.00456375
v -0.01343530 -0.10270577 0.00511411
v -0.01254896 -0.10449747 0.00527347
v 0.00000439 -0.08926362 0.00047069
v 0.00000439 -0.08995445 0.00056659
v -0.00123274 -0.09063637 0.00066250
v -0.00369092 -0.09063637 0.00076874
v -0.00615179 -0.09063637 0.00097826
v -0.00608484 -0.08807808 0.00062414
v -0.00686139 -0.08648695 0.00050757
v -0.00861265 -0.08817613 0.00096498
v -0.00854035 -0.08568470 0.00063889
v -0.00931155 -0.08368799 0.00052971
v -0.01136807 -0.07887003 0.00052971
v -0.00615179 -0.11277847 0.00622665
v -0.00359988 -0.11257791 0.00578252
v -0.00271890 -0.11162412 0.00534429
v 0.00000439 -0.11523870 0.00662356
v -0.00123274 -0.11295229 0.00574711
v -0.01022466 -0.10702010 0.00524691
v -0.01105477 -0.10784463 0.00579875
v -0.01105477 -0.10534875 0.00502411
v -0.00854571 -0.11020682 0.00583416
v -0.00931958 -0.10866026 0.00550955
v -0.00768079 -0.10931097 0.00529560
v -0.00861265 -0.09063637 0.00131320
v -0.00861265 -0.09309660 0.00170864
v -0.01107351 -0.09309660 0.00221621
v -0.01107887 -0.09548998 0.00265444
v -0.01190362 -0.09626103 0.00301889
v -0.01107351 -0.10048176 0.00375074
v -0.01107351 -0.10293754 0.00436603
v 0.00000439 -0.09063637 0.00066250
v -0.00123274 -0.09309660 0.00102990
v -0.00369092 -0.09309660 0.00113909
v -0.00615179 -0.09309660 0.00135894
v -0.00615179 -0.11096450 0.00557005
v -0.00436036 -0.11136562 0.00542987
v -0.00123274 -0.11172217 0.00531036
v -0.00359988 -0.11045640 0.00506247
v -0.00369092 -0.10785800 0.00429225
v -0.00123274 -0.11031824 0.00486770
v 0.00000439 -0.11295229 0.00574711
v 0.00000439 -0.11234169 0.00553021
v -0.00854571 -0.10784463 0.00505952
v -0.00861265 -0.10539777 0.00436751
v -0.00615179 -0.10973438 0.00515985
v -0.00615179 -0.10785800 0.00458736
v -0.00615179 -0.09556129 0.00177504
v -0.00861265 -0.09556129 0.00213801
v -0.01026215 -0.09729504 0.00280199
v -0.01107887 -0.09807501 0.00319448
v -0.00861265 -0.10293754 0.00373304
v -0.00949631 -0.09893520 0.00297905
v 0.00000439 -0.09309660 0.00102990
v -0.00123274 -0.09556129 0.00143862
v -0.00369092 -0.09556129 0.00154928
v 0.00000439 -0.11172217 0.00531036
v -0.00615179 -0.10539777 0.00391157
v -0.00369092 -0.10539777 0.00363565
v -0.00123274 -0.10785800 0.00414618
v 0.00000439 -0.11031824 0.00486770
v 0.00000439 -0.10909258 0.00450768
v -0.00369092 -0.09802152 0.00199784
v -0.00615179 -0.09802152 0.00223539
v -0.00785484 -0.09966614 0.00281970
v -0.00865014 -0.09807501 0.00263526
v -0.00865014 -0.10048176 0.00316054
v -0.00671144 -0.10130630 0.00299971
v 0.00000439 -0.09556129 0.00143862
v 0.00000439 -0.09679586 0.00166142
v -0.00123274 -0.09802152 0.00188275
v -0.00599648 -0.10274143 0.00323727
v -0.00506997 -0.10179210 0.00289052
v -0.00369092 -0.10326735 0.00311775
v -0.00123274 -0.10539777 0.00349991
v 0.00000439 -0.10785800 0.00414618
v -0.00123274 -0.10048176 0.00237557
v -0.00369092 -0.10048176 0.00249656
v -0.00599648 -0.10048176 0.00272674
v 0.00000439 -0.09802152 0.00188275
v -0.00369092 -0.10203724 0.00283445
v -0.00123274 -0.10354368 0.00305283
v 0.00000439 -0.10447519 0.00327710
v 0.00000439 -0.10539777 0.00349991
v 0.00000439 -0.10048176 0.00237557
v 0.00000439 -0.10140434 0.00257476
v -0.00123274 -0.10231356 0.00277248
v 0.00000439 -0.10354368 0.00305283
v 0.00000439 -0.10231356 0.00277248
f 1 2 5
f 1 5 12
f 1 12 27
f 1 27 50
f 1 50 79
f 1 79 109
f 1 109 143
f 1 143 142
f 1 142 176
f 1 176 217
f 1 217 216
f 1 216 215
f 1 215 253
f 1 253 285
f 1 285 262
f 1 262 261
f 1 261 230
f 1 230 194
f 1 194 193
f 1 193 157
f 1 157 122
f 1 122 91
f 1 91 90
f 1 90 62
f 1 62 41
f 1 41 22
f 1 22 9
f 1 9 3
f 1 3 4
f 1 4 6
f 1 6 2
f 2 6 7
f 2 7 8
f 2 8 5
f 3 9 10
f 3 10 4
f 4 10 11
f 4 11 15
f 4 15 6
f 5 8 13
f 5 13 14
f 5 14 12
f 6 15 16
f 6 16 7
f 7 16 17
f 7 17 8
f 8 17 18
f 8 18 19
f 8 19 20
f 8 20 21
f 8 21 13
f 9 22 23
f 9 23 10
f 10 23 24
f 10 24 25
f 10 25 11
f 11 25 26
f 11 26 29
f 11 29 15
f 12 14 27
f 13 21 14
f 14 21 28
f 14 28 51
f 14 51 81
f 14 81 113
f 14 113 148
f 14 148 182
f 14 182 181
f 14 181 221
f 14 221 256
f 14 256 289
f 14 289 314
f 14 314 315
f 14 315 329
f 14 329 333
f 14 333 334
f 14 334 348
f 14 348 356
f 14 356 355
f 14 355 360
f 14 360 361
f 14 361 358
f 14 358 357
f 14 357 352
f 14 352 342
f 14 342 341
f 14 341 326
f 14 326 304
f 14 304 276
f 14 276 275
f 14 275 244
f 14 244 209
f 14 209 172
f 14 172 139
f 14 139 107
f 14 107 78
f 14 78 50
f 14 50 27
f 15 29 16
f 16 29 30
f 16 30 31
f 16 31 32
f 16 32 17
f 17 32 33
f 17 33 18
f 18 33 34
f 18 34 35
f 18 35 36
f 18 36 37
f 18 37 19
f 19 37 20
f 20 37 38
f 20 38 21
f 21 38 39
f 21 39 40
f 21 40 28
f 22 41 23
f 23 41 42
f 23 42 24
f 24 42 43
f 24 43 44
f 24 44 25
f 25 44 45
f 25 45 46
f 25 46 26
f 26 46 47
f 26 47 48
f 26 48 49
f 26 49 29
f 28 40 61
f 28 61 51
f 29 49 30
f 30 49 31
f 31 52 83
f 31 83 53
f 31 53 33
f 31 33 32
f 31 49 52
f 33 53 35
f 33 35 34
f 35 54 36
f 35 53 54
f 36 54 55
f 36 55 37
f 37 56 57
f 37 57 38
f 37 55 56
f 38 57 58
f 38 58 39
f 39 59 60
f 39 60 40
f 39 58 59
f 40 60 89
f 40 89 61
f 41 62 42
f 42 63 64
f 42 64 43
f 42 62 63
f 43 64 65
f 43 65 66
f 43 66 44
f 44 66 45
f 45 67 68
f 45 68 69
f 45 69 47
f 45 47 70
f 45 70 46
f 45 66 67
f 46 70 47
f 47 69 48
f 48 69 71
f 48 71 49
f 49 71 72
f 49 72 73
f 49 73 74
f 49 74 75
f 49 75 76
f 49 76 77
f 49 77 52
f 50 78 108
f 50 108 79
f 51 61 80
f 51 80 81
f 52 77 82
f 52 82 83
f 53 83 84
f 53 84 54
f 54 84 85
f 54 85 55
f 55 85 86
f 55 86 56
f 56 86 120
f 56 120 87
f 56 87 57
f 57 87 58
f 58 87 88
f 58 88 60
f 58 60 59
f 60 88 121
f 60 121 89
f 61 89 80
f 62 90 63
f 63 90 91
f 63 91 92
f 63 92 64
f 64 92 93
f 64 93 65
f 65 93 94
f 65 94 95
f 65 95 66
f 66 95 67
f 67 95 96
f 67 96 68
f 68 97 98
f 68 98 71
f 68 71 69
f 68 96 97
f 71 98 99
f 71 99 72
f 72 99 100
f 72 100 73
f 73 100 74
f 74 100 75
f 75 100 101
f 75 101 76
f 76 101 102
f 76 102 103
f 76 103 104
f 76 104 105
f 76 105 106
f 76 106 82
f 76 82 77
f 78 107 140
f 78 140 108
f 79 108 109
f 80 89 110
f 80 110 111
f 80 111 112
f 80 112 113
f 80 113 81
f 82 106 83
f 83 106 84
f 84 114 115
f 84 115 85
f 84 106 114
f 85 115 116
f 85 116 117
f 85 117 86
f 86 117 118
f 86 118 119
f 86 119 120
f 87 120 121
f 87 121 88
f 89 121 110
f 91 122 92
f 92 122 123
f 92 123 124
f 92 124 93
f 93 124 94
f 94 124 125
f 94 125 126
f 94 126 127
f 94 127 95
f 95 127 96
f 96 127 128
f 96 128 97
f 97 128 129
f 97 129 130
f 97 130 98
f 98 130 99
f 99 130 131
f 99 131 100
f 100 131 132
f 100 132 101
f 101 132 133
f 101 133 102
f 102 134 103
f 102 133 134
f 103 134 104
f 104 135 105
f 104 134 135
f 105 135 136
f 105 136 137
f 105 137 138
f 105 138 114
f 105 114 106
f 107 139 140
f 108 140 141
f 108 141 142
f 108 142 143
f 108 143 109
f 110 121 144
f 110 144 145
f 110 145 111
f 111 145 146
f 111 146 112
f 112 146 147
f 112 147 148
f 112 148 113
f 114 138 149
f 114 149 150
f 114 150 151
f 114 151 152
f 114 152 116
f 114 116 115
f 116 153 118
f 116 118 117
f 116 152 153
f 118 154 119
f 118 153 154
f 119 154 120
f 120 155 156
f 120 156 121
f 120 154 155
f 121 156 144
f 122 157 123
f 123 157 158
f 123 158 159
f 123 159 124
f 124 160 125
f 124 159 160
f 125 160 161
f 125 161 126
f 126 161 162
f 126 162 163
f 126 163 128
f 126 128 127
f 128 163 129
f 129 164 165
f 129 165 130
f 129 163 164
f 130 165 131
f 131 165 166
f 131 166 132
f 132 166 167
f 132 167 133
f 133 167 168
f 133 168 134
f 134 168 169
f 134 169 170
f 134 170 135
f 135 170 136
f 136 171 137
f 136 170 171
f 137 171 138
f 138 171 149
f 139 172 173
f 139 173 140
f 140 173 174
f 140 174 141
f 141 174 175
f 141 175 176
f 141 176 142
f 144 156 177
f 144 177 145
f 145 177 178
f 145 178 146
f 146 178 179
f 146 179 147
f 147 179 180
f 147 180 181
f 147 181 182
f 147 182 148
f 149 171 183
f 149 183 150
f 150 184 151
f 150 183 184
f 151 184 152
f 152 184 185
f 152 185 186
f 152 186 153
f 153 187 154
f 153 186 188
f 153 188 189
f 153 189 187
f 154 190 177
f 154 177 155
f 154 187 191
f 154 191 192
f 154 192 190
f 155 177 156
f 157 193 158
f 158 193 194
f 158 194 195
f 158 195 159
f 159 195 196
f 159 196 160
f 160 197 161
f 160 196 197
f 161 198 162
f 161 197 198
f 162 198 199
f 162 199 200
f 162 200 201
f 162 201 163
f 163 201 164
f 164 201 202
f 164 202 165
f 165 202 166
f 166 202 203
f 166 203 167
f 167 203 204
f 167 204 168
f 168 204 169
f 169 204 205
f 169 205 170
f 170 205 206
f 170 206 207
f 170 207 171
f 171 207 208
f 171 208 183
f 172 209 173
f 173 209 210
f 173 210 211
f 173 211 212
f 173 212 174
f 174 212 213
f 174 213 175
f 175 213 214
f 175 214 215
f 175 215 216
f 175 216 217
f 175 217 176
f 177 190 178
f 178 190 218
f 178 218 179
f 179 218 219
f 179 219 220
f 179 220 180
f 180 221 181
f 180 220 222
f 180 222 256
f 180 256 221
f 183 208 223
f 183 223 224
f 183 224 225
f 183 225 184
f 184 225 185
f 185 188 186
f 185 225 188
f 187 189 226
f 187 226 191
f 188 225 227
f 188 227 226
f 188 226 189
f 190 192 228
f 190 228 218
f 191 228 192
f 191 226 229
f 191 229 228
f 194 230 231
f 194 231 195
f 195 232 196
f 195 231 232
f 196 232 233
f 196 233 197
f 197 233 198
f 198 233 234
f 198 234 199
f 199 235 236
f 199 236 200
f 199 234 235
f 200 236 201
f 201 237 238
f 201 238 202
f 201 236 237
f 202 238 203
f 203 239 204
f 203 238 239
f 204 240 241
f 204 241 205
f 204 239 240
f 205 241 206
f 206 241 207
f 207 242 208
f 207 241 242
f 208 242 243
f 208 243 223
f 209 244 210
f 210 244 275
f 210 275 245
f 210 245 246
f 210 246 211
f 211 246 247
f 211 247 212
f 212 248 213
f 212 247 248
f 213 248 249
f 213 249 250
f 213 250 214
f 214 250 251
f 214 251 252
f 214 252 215
f 215 252 253
f 218 228 219
f 219 228 254
f 219 254 255
f 219 255 220
f 220 255 222
f 222 255 257
f 222 257 289
f 222 289 256
f 223 243 258
f 223 258 259
f 223 259 225
f 223 225 224
f 225 259 227
f 226 227 259
f 226 259 260
f 226 260 229
f 228 229 254
f 229 260 254
f 230 261 231
f 231 261 262
f 231 262 263
f 231 263 232
f 232 264 265
f 232 265 233
f 232 263 264
f 233 265 266
f 233 266 234
f 234 266 267
f 234 267 235
f 235 267 268
f 235 268 236
f 236 268 269
f 236 269 237
f 237 269 270
f 237 270 238
f 238 270 271
f 238 271 240
f 238 240 239
f 240 272 241
f 240 271 272
f 241 272 273
f 241 273 274
f 241 274 242
f 242 274 243
f 243 274 258
f 245 275 276
f 245 276 277
f 245 277 278
f 245 278 246
f 246 278 247
f 247 278 279
f 247 279 280
f 247 280 281
f 247 281 248
f 248 281 249
f 249 281 282
f 249 282 283
f 249 283 284
f 249 284 250
f 250 284 251
f 251 284 264
f 251 264 263
f 251 263 252
f 252 263 262
f 252 262 285
f 252 285 253
f 254 260 286
f 254 286 255
f 255 286 287
f 255 287 288
f 255 288 257
f 257 288 290
f 257 290 314
f 257 314 289
f 258 291 292
f 258 292 259
f 258 274 293
f 258 293 291
f 259 294 260
f 259 292 295
f 259 295 294
f 260 294 296
f 260 296 286
f 264 284 265
f 265 284 283
f 265 283 282
f 265 282 266
f 266 282 297
f 266 297 267
f 267 297 298
f 267 298 299
f 267 299 268
f 268 299 269
f 269 299 300
f 269 300 301
f 269 301 270
f 270 301 271
f 271 302 272
f 271 301 302
f 272 302 303
f 272 303 274
f 272 274 273
f 274 303 293
f 276 304 277
f 277 304 326
f 277 326 305
f 277 305 278
f 278 305 306
f 278 306 279
f 279 297 282
f 279 282 281
f 279 281 280
f 279 306 307
f 279 307 297
f 286 296 308
f 286 308 309
f 286 309 287
f 287 309 288
f 288 310 290
f 288 309 311
f 288 311 312
f 288 312 313
f 288 313 310
f 290 310 315
f 290 315 314
f 291 316 295
f 291 295 292
f 291 293 303
f 291 303 317
f 291 317 316
f 294 295 296
f 295 316 296
f 296 318 308
f 296 316 317
f 296 317 319
f 296 319 318
f 297 307 298
f 298 307 320
f 298 320 321
f 298 321 299
f 299 321 322
f 299 322 300
f 300 322 301
f 301 322 323
f 301 323 302
f 302 324 303
f 302 323 325
f 302 325 324
f 303 324 317
f 305 326 341
f 305 341 327
f 305 327 306
f 306 327 328
f 306 328 307
f 307 328 320
f 308 318 309
f 309 318 319
f 309 319 311
f 310 313 333
f 310 333 329
f 310 329 315
f 311 319 312
f 312 319 330
f 312 330 331
f 312 331 332
f 312 332 313
f 313 332 334
f 313 334 333
f 317 330 319
f 317 324 330
f 320 328 335
f 320 335 336
f 320 336 321
f 321 336 337
f 321 337 338
f 321 338 322
f 322 338 325
f 322 325 323
f 324 325 339
f 324 339 337
f 324 337 340
f 324 340 330
f 325 337 339
f 325 338 337
f 327 341 342
f 327 342 343
f 327 343 328
f 328 343 335
f 330 340 344
f 330 344 345
f 330 345 331
f 331 345 346
f 331 346 347
f 331 347 332
f 332 348 334
f 332 347 356
f 332 356 348
f 335 343 349
f 335 349 350
f 335 350 345
f 335 345 336
f 336 345 351
f 336 351 340
f 336 340 337
f 340 345 344
f 340 351 345
f 342 352 343
f 343 352 357
f 343 357 349
f 345 353 346
f 345 350 353
f 346 354 347
f 346 353 354
f 347 354 355
f 347 355 356
f 349 357 358
f 349 358 359
f 349 359 350
f 350 359 353
f 353 359 354
f 354 359 361
f 354 361 360
f 354 360 355
f 358 361 359

