# https://github.com/mikedh/trimesh
v -0.00609494 -0.04160893 0.01147336
v -0.00598159 -0.04160893 0.00926636
v -0.00607824 -0.04160893 0.01149108
v -0.00514514 -0.04064889 0.01293260
v -0.00533964 -0.03896116 0.01319085
v -0.00500673 -0.03103537 0.01529658
v -0.00509025 -0.02911968 0.01538689
v -0.00515349 -0.02666041 0.01546791
v -0.00518452 -0.02420114 0.01551686
v -0.00520003 -0.02173748 0.01554133
v -0.00520958 -0.01927821 0.01555484
v -0.00521554 -0.01682332 0.01555568
v -0.00558186 0.00317087 0.01381624
v -0.00558186 0.00317087 0.01197721
v -0.00596607 -0.04160893 0.00921572
v -0.00369061 -0.04160893 0.01284229
v -0.00369061 -0.04100397 0.01310393
v -0.00369061 -0.03896116 0.01384831
v -0.00369061 -0.03650189 0.01452265
v -0.00485161 -0.03267489 0.01516239
v -0.00369061 -0.02911968 0.01587892
v -0.00369061 -0.02666041 0.01607051
v -0.00369061 -0.02420114 0.01618782
v -0.00369061 -0.02173748 0.01624605
v -0.00369061 -0.01927821 0.01627053
v -0.00521674 -0.01435967 0.01554555
v -0.00520958 -0.01190039 0.01552277
v -0.00519168 -0.00944112 0.01548732
v -0.00516065 -0.00698185 0.01543921
v -0.00510696 -0.00451819 0.01537507
v -0.00503059 -0.00205892 0.01530164
v -0.00496377 -0.00041502 0.01524594
v -0.00467979 0.00122449 0.01515226
v -0.00378726 0.00317087 0.01507883
v -0.00369061 0.00317087 0.01100326
v -0.00369061 -0.04160893 0.00819873
v -0.00227546 -0.04160893 0.01293091
v -0.00123020 -0.04114425 0.01319592
v -0.00123020 -0.03896116 0.01408885
v -0.00222415 -0.03525690 0.01520881
v -0.00321094 -0.03361739 0.01537676
v -0.00389465 -0.03174554 0.01553289
v -0.00123020 -0.02911968 0.01621314
v -0.00123020 -0.02666041 0.01643342
v -0.00123020 -0.02420114 0.01657099
v -0.00123020 -0.02173748 0.01663766
v -0.00123020 -0.01927821 0.01666045
v -0.00369061 -0.01682332 0.01625787
v -0.00369061 -0.01435967 0.01621567
v -0.00369061 -0.01190039 0.01614309
v -0.00369061 -0.00944112 0.01604181
v -0.00369061 -0.00698185 0.01591606
v -0.00369061 -0.00451819 0.01576077
v -0.00369061 -0.00205892 0.01558691
v -0.00379204 0.00040474 0.01537085
v -0.00303912 0.00240810 0.01528814
v -0.00379204 0.00308319 0.01508812
v -0.00254155 0.00317087 0.01525016
v -0.00154044 0.00317087 0.01081843
v -0.00123020 -0.04160893 0.00803837
v -0.00123020 0.00317087 0.01079396
v -0.00123020 -0.04160893 0.01297733
v 0.00123020 -0.04114425 0.01319592
v 0.00123020 -0.03896116 0.01408885
v -0.00133401 -0.03627393 0.01493958
v -0.00058468 -0.03530074 0.01521978
v -0.00133401 -0.03427933 0.01542064
v -0.00123020 -0.03157896 0.01590340
v 0.00123020 -0.02911968 0.01621314
v 0.00123020 -0.02666041 0.01643342
v 0.00123020 -0.02420114 0.01657099
v 0.00123020 -0.02173748 0.01663766
v 0.00123020 -0.01927821 0.01665960
v 0.00123020 -0.01682332 0.01663260
v -0.00123020 -0.01682332 0.01663260
v -0.00123020 -0.01435967 0.01656761
v -0.00123020 -0.01190039 0.01646802
v -0.00123020 -0.00944112 0.01633636
v -0.00123020 -0.00698185 0.01618022
v -0.00123020 -0.00451819 0.01599539
v -0.00123020 -0.00205892 0.01579621
v -0.00125646 0.00317087 0.01529996
v -0.00123020 0.00040035 0.01557172
v 0.00123020 -0.04160893 0.00803921
v 0.00123020 0.00317087 0.01079396
v 0.00030308 -0.04160893 0.01297733
v 0.00369061 -0.04100397 0.01310393
v 0.00123020 -0.04160893 0.01297648
v 0.00369061 -0.04160893 0.01284229
v 0.00369061 -0.03896116 0.01384831
v 0.00222773 -0.03525690 0.01520881
v 0.00133640 -0.03627393 0.01493958
v 0.00058706 -0.03530074 0.01521978
v 0.00133640 -0.03427933 0.01542064
v 0.00123020 -0.03157896 0.01590340
v 0.00389465 -0.03174554 0.01553289
v 0.00369061 -0.02911968 0.01587892
v 0.00369061 -0.02666041 0.01607051
v 0.00369061 -0.02420114 0.01618782
v 0.00369061 -0.02173748 0.01624605
v 0.00369061 -0.01927821 0.01627053
v 0.00369061 -0.01682332 0.01625787
v 0.00369061 -0.01435967 0.01621567
v 0.00123020 -0.01435967 0.01656761
v 0.00123020 -0.01190039 0.01646802
v 0.00123020 -0.00944112 0.01633636
v 0.00123020 -0.00698185 0.01618022
v 0.00123020 -0.00451819 0.01599624
v 0.00123020 -0.00205892 0.01579621
v -0.00118248 0.00308319 0.01530924
v -0.00110850 0.00317087 0.01530080
v 0.00123020 0.00040035 0.01557172
v 0.00110850 0.00317087 0.01530164
v 0.00214898 -0.04160893 0.00809576
v 0.00369061 0.00317087 0.01100326
v 0.00369061 -0.04160893 0.00819957
v 0.00426574 -0.04160893 0.01271401
v 0.00514514 -0.04064889 0.01293260
v 0.00369061 -0.03650189 0.01452265
v 0.00321094 -0.03361739 0.01537676
v 0.00485161 -0.03267489 0.01516239
v 0.00500673 -0.03103537 0.01529658
v 0.00509025 -0.02911968 0.01538689
v 0.00515349 -0.02666041 0.01546791
v 0.00518452 -0.02420114 0.01551686
v 0.00520003 -0.02173748 0.01554133
v 0.00520958 -0.01927821 0.01555484
v 0.00521554 -0.01682332 0.01555568
v 0.00521674 -0.01435967 0.01554555
v 0.00520958 -0.01190039 0.01552277
v 0.00519168 -0.00944112 0.01548732
v 0.00516065 -0.00698185 0.01543921
v 0.00369061 -0.01190039 0.01614309
v 0.00369061 -0.00944112 0.01604181
v 0.00369061 -0.00698185 0.01591606
v 0.00369061 -0.00451819 0.01576077
v 0.00369061 -0.00205892 0.01558691
v 0.00303912 0.00240810 0.01528814
v 0.00125765 0.00317087 0.01529996
v 0.00533486 0.00317087 0.01183965
v 0.00405812 -0.04160893 0.00824092
v 0.00606153 -0.04160893 0.01149784
v 0.00609494 -0.04160893 0.01146576
v 0.00533964 -0.03896116 0.01319085
v 0.00558186 0.00317087 0.01381624
v 0.00510696 -0.00451819 0.01537507
v 0.00503059 -0.00205892 0.01530164
v 0.00496377 -0.00041502 0.01524594
v 0.00379204 0.00040474 0.01537169
v 0.00379204 0.00308319 0.01508812
v 0.00378726 0.00317087 0.01507883
v 0.00362141 0.00317087 0.01509909
v 0.00467979 0.00122449 0.01515226
v 0.00558186 0.00317087 0.01197721
v 0.00596607 -0.04160893 0.00921572
v 0.00386721 0.00317087 0.01503241
f 1 2 15
f 1 15 36
f 1 36 60
f 1 60 84
f 1 84 114
f 1 114 116
f 1 116 141
f 1 141 155
f 1 155 143
f 1 143 142
f 1 142 117
f 1 117 89
f 1 89 88
f 1 88 86
f 1 86 62
f 1 62 37
f 1 37 16
f 1 16 3
f 1 3 4
f 1 4 5
f 1 5 6
f 1 6 7
f 1 7 8
f 1 8 9
f 1 9 10
f 1 10 11
f 1 11 12
f 1 12 13
f 1 13 14
f 1 14 2
f 2 14 15
f 3 16 4
f 4 16 17
f 4 17 18
f 4 18 19
f 4 19 20
f 4 20 5
f 5 20 6
f 6 20 21
f 6 21 22
f 6 22 7
f 7 22 23
f 7 23 8
f 8 23 9
f 9 23 24
f 9 24 10
f 10 24 25
f 10 25 11
f 11 25 12
f 12 25 26
f 12 26 13
f 13 26 27
f 13 27 28
f 13 28 29
f 13 29 30
f 13 30 31
f 13 31 32
f 13 32 33
f 13 33 34
f 13 34 58
f 13 58 82
f 13 82 111
f 13 111 113
f 13 113 139
f 13 139 152
f 13 152 151
f 13 151 156
f 13 156 145
f 13 145 154
f 13 154 140
f 13 140 115
f 13 115 85
f 13 85 61
f 13 61 59
f 13 59 35
f 13 35 14
f 14 35 15
f 15 35 36
f 16 37 17
f 17 37 38
f 17 38 39
f 17 39 18
f 18 39 40
f 18 40 19
f 19 40 41
f 19 41 20
f 20 41 42
f 20 42 21
f 21 42 43
f 21 43 44
f 21 44 22
f 22 44 45
f 22 45 23
f 23 45 46
f 23 46 24
f 24 46 25
f 25 47 48
f 25 48 26
f 25 46 47
f 26 48 27
f 27 48 49
f 27 49 28
f 28 49 29
f 29 49 50
f 29 50 30
f 30 50 31
f 31 50 51
f 31 51 32
f 32 51 52
f 32 52 53
f 32 53 54
f 32 54 55
f 32 55 33
f 33 55 56
f 33 56 57
f 33 57 34
f 34 57 56
f 34 56 58
f 35 59 36
f 36 59 61
f 36 61 60
f 37 62 38
f 38 63 64
f 38 64 39
f 38 62 86
f 38 86 63
f 39 64 92
f 39 92 65
f 39 65 40
f 40 65 66
f 40 66 67
f 40 67 68
f 40 68 41
f 41 68 42
f 42 68 43
f 43 68 95
f 43 95 69
f 43 69 70
f 43 70 44
f 44 70 71
f 44 71 45
f 45 71 72
f 45 72 46
f 46 72 47
f 47 72 73
f 47 73 74
f 47 74 75
f 47 75 48
f 48 75 49
f 49 75 76
f 49 76 50
f 50 77 51
f 50 76 77
f 51 77 52
f 52 77 78
f 52 78 53
f 53 78 79
f 53 79 54
f 54 79 80
f 54 80 56
f 54 56 55
f 56 80 81
f 56 81 58
f 58 81 83
f 58 83 82
f 60 61 85
f 60 85 84
f 63 87 64
f 63 86 88
f 63 88 89
f 63 89 87
f 64 90 91
f 64 91 92
f 64 87 90
f 65 92 93
f 65 93 66
f 66 93 94
f 66 94 67
f 67 94 95
f 67 95 68
f 69 95 96
f 69 96 97
f 69 97 70
f 70 97 98
f 70 98 71
f 71 99 72
f 71 98 99
f 72 99 100
f 72 100 101
f 72 101 73
f 73 101 102
f 73 102 74
f 74 102 103
f 74 103 104
f 74 104 76
f 74 76 75
f 76 104 105
f 76 105 77
f 77 105 106
f 77 106 78
f 78 106 107
f 78 107 79
f 79 107 108
f 79 108 80
f 80 108 81
f 81 108 109
f 81 109 112
f 81 112 83
f 82 110 111
f 82 83 110
f 83 112 113
f 83 113 111
f 83 111 110
f 84 85 114
f 85 115 116
f 85 116 114
f 87 89 117
f 87 117 118
f 87 118 90
f 90 118 119
f 90 119 91
f 91 94 93
f 91 93 92
f 91 119 120
f 91 120 95
f 91 95 94
f 95 120 96
f 96 120 121
f 96 121 97
f 97 121 122
f 97 122 98
f 98 122 123
f 98 123 99
f 99 123 124
f 99 124 125
f 99 125 100
f 100 125 126
f 100 126 101
f 101 126 127
f 101 127 128
f 101 128 129
f 101 129 102
f 102 129 130
f 102 130 103
f 103 130 131
f 103 131 132
f 103 132 133
f 103 133 104
f 104 133 105
f 105 133 134
f 105 134 135
f 105 135 106
f 106 135 136
f 106 136 107
f 107 136 137
f 107 137 108
f 108 137 138
f 108 138 109
f 109 138 112
f 112 138 139
f 112 139 113
f 115 140 141
f 115 141 116
f 117 142 118
f 118 142 143
f 118 143 144
f 118 144 121
f 118 121 119
f 119 121 120
f 121 144 122
f 122 144 143
f 122 143 123
f 123 143 124
f 124 143 125
f 125 143 126
f 126 143 127
f 127 143 128
f 128 143 145
f 128 145 129
f 129 145 130
f 130 145 131
f 131 145 132
f 132 145 146
f 132 146 133
f 133 146 147
f 133 147 134
f 134 147 148
f 134 148 135
f 135 148 136
f 136 148 137
f 137 148 149
f 137 149 138
f 138 150 151
f 138 151 152
f 138 152 139
f 138 149 153
f 138 153 150
f 140 154 155
f 140 155 141
f 143 155 154
f 143 154 145
f 145 156 153
f 145 153 148
f 145 148 147
f 145 147 146
f 148 153 149
f 150 153 151
f 151 153 156

