# https://github.com/mikedh/trimesh
v -0.01187944 0.09635672 0.00167976
v -0.01183525 0.09882487 0.00167976
v -0.01095150 0.09882487 -0.00014374
v -0.01094452 0.09635672 -0.00011659
v -0.01183060 0.09390027 0.00167976
v -0.00992821 0.06191958 0.00549920
v -0.00753744 0.02993890 0.01050023
v -0.00753046 0.03239535 0.01046191
v -0.01077475 0.09635672 0.00334198
v -0.01072359 0.09882487 0.00331803
v -0.01065614 0.10128132 0.00331164
v -0.01056312 0.10373778 0.00331324
v -0.01044683 0.10620592 0.00331164
v -0.01169338 0.10128132 0.00167976
v -0.01087941 0.10128132 -0.00014054
v -0.00860957 0.10128132 -0.00083353
v -0.00860957 0.09882487 -0.00082874
v -0.00860957 0.09635672 -0.00077445
v -0.01086545 0.09390027 -0.00006869
v -0.01170269 0.09143212 0.00167976
v -0.00988403 0.06004800 0.00544171
v -0.00750023 0.02747074 0.01048427
v -0.00558157 0.00317525 0.01381510
v -0.00564203 0.00532757 0.01371769
v -0.00569552 0.00779572 0.01361710
v -0.00571413 0.01025218 0.01351171
v -0.00747000 0.03485180 0.01038048
v -0.01029567 0.10866238 0.00327332
v -0.00569087 0.01270863 0.01338238
v -0.01146082 0.10373778 0.00167976
v -0.01054916 0.10620592 -0.00004953
v -0.01073754 0.10373778 -0.00011180
v -0.00860957 0.10373778 -0.00078882
v -0.00614903 0.10373778 -0.00093573
v -0.00614903 0.10128132 -0.00096287
v -0.00614903 0.09882487 -0.00095010
v -0.00614903 0.09635672 -0.00089421
v -0.00860957 0.09390027 -0.00067865
v -0.01073289 0.09143212 -0.00000162
v -0.01151663 0.08897566 0.00167976
v -0.00988403 0.06004800 0.00525170
v -0.00739093 0.02365739 0.01031501
v -0.00743279 0.02501429 0.01039325
v -0.00558157 0.00317525 0.01197564
v -0.00378616 0.00317525 0.01507813
v -0.00860957 0.11111884 0.00373159
v -0.01007705 0.11111884 0.00313121
v -0.00562576 0.01517678 0.01323867
v -0.00550715 0.01763324 0.01309177
v -0.01115383 0.10620592 0.00167976
v -0.01032590 0.10866238 0.00005746
v -0.00860957 0.10866238 -0.00054931
v -0.00860957 0.10620592 -0.00069621
v -0.00614903 0.11111884 -0.00072336
v -0.00614903 0.10866238 -0.00080958
v -0.00614903 0.10620592 -0.00087984
v -0.00368849 0.10620592 -0.00092774
v -0.00368849 0.10373778 -0.00097724
v -0.00368849 0.10128132 -0.00099960
v -0.00368849 0.09882487 -0.00098523
v -0.00368849 0.09635672 -0.00092934
v -0.00368849 0.09390027 -0.00083513
v -0.00614903 0.09390027 -0.00079840
v -0.00614903 0.09143212 -0.00067545
v -0.00860957 0.09143212 -0.00055091
v -0.01056312 0.08897566 0.00007662
v -0.01130035 0.08651921 0.00167976
v -0.01043521 0.07421355 0.00215400
v -0.01030497 0.07175709 0.00235519
v -0.00995845 0.06683249 0.00278312
v -0.00739093 0.02365739 0.01027190
v -0.01014682 0.06928895 0.00256436
v -0.00505597 0.01084875 0.01020962
v -0.00466991 0.00921111 0.01032619
v -0.00368849 0.00317525 0.01100162
v -0.00985147 0.06554578 0.00289968
v -0.00254194 0.00317525 0.01525058
v -0.00368849 0.11849990 0.00428886
v -0.00614903 0.11604345 0.00404615
v -0.00869329 0.11345832 0.00342980
v -0.00990961 0.11255762 0.00298590
v -0.01077940 0.10866238 0.00167976
v -0.01004682 0.11111884 0.00026344
v -0.00860957 0.11111884 -0.00029383
v -0.00614903 0.11358699 -0.00059562
v -0.00368849 0.11604345 -0.00061158
v -0.00368849 0.11358699 -0.00072016
v -0.00368849 0.11111884 -0.00080000
v -0.00368849 0.10866238 -0.00086707
v -0.00122794 0.10620592 -0.00094052
v -0.00122794 0.10866238 -0.00088144
v -0.00122794 0.10373778 -0.00098682
v -0.00122794 0.10128132 -0.00101077
v -0.00122794 0.09882487 -0.00099640
v -0.00122794 0.09635672 -0.00093892
v -0.00122794 0.09390027 -0.00084471
v -0.00368849 0.09143212 -0.00071378
v -0.00614903 0.08897566 -0.00053494
v -0.00860957 0.08897566 -0.00040081
v -0.01018636 0.08405106 0.00026024
v -0.01037939 0.08651921 0.00016444
v -0.00998170 0.08159461 0.00037042
v -0.00986309 0.08024941 0.00043589
v -0.00750023 0.06042232 0.00286774
v -0.00153958 0.00317525 0.01081799
v -0.00614903 0.06437604 0.00214761
v -0.00614903 0.06683249 0.00178355
v -0.00125585 0.00317525 0.01530008
v -0.00196983 0.00405256 0.01520747
v -0.00122794 0.11849990 0.00453156
v -0.00122794 0.12096805 0.00407968
v -0.00351871 0.12089786 0.00346493
v -0.00523737 0.12003225 0.00319029
v -0.00609554 0.11839462 0.00347132
v -0.00791187 0.11604345 0.00332282
v -0.00753977 0.11749392 0.00307532
v -0.00829095 0.11604345 0.00167976
v -0.00935843 0.11380924 0.00167976
v -0.00991658 0.11256931 0.00167976
v -0.01028404 0.11111884 0.00167976
v -0.00987472 0.11244064 0.00041673
v -0.00863282 0.11338813 0.00005266
v -0.00614903 0.11604345 -0.00030660
v -0.00368849 0.11849990 -0.00036089
v -0.00122794 0.11849990 -0.00051897
v -0.00122794 0.11604345 -0.00065629
v -0.00122794 0.11358699 -0.00074571
v -0.00122794 0.11111884 -0.00081757
v 0.00122794 0.10620592 -0.00094052
v 0.00122794 0.10866238 -0.00088144
v 0.00122794 0.10373778 -0.00098682
v 0.00122794 0.10128132 -0.00100918
v 0.00122794 0.09882487 -0.00099640
v 0.00122794 0.09635672 -0.00093892
v 0.00122794 0.09390027 -0.00084471
v -0.00122794 0.09143212 -0.00072336
v -0.00122794 0.08897566 -0.00058284
v -0.00368849 0.08897566 -0.00057167
v -0.00368849 0.08651921 -0.00042157
v -0.00614903 0.08651921 -0.00038165
v -0.00614903 0.08405106 -0.00021719
v -0.00860957 0.08651921 -0.00023635
v -0.00860957 0.08405106 -0.00005751
v -0.00860957 0.08159461 0.00014687
v -0.00849561 0.07931361 0.00035605
v -0.00759791 0.07765258 0.00041992
v -0.00614903 0.06928895 0.00142747
v -0.00122794 0.00317525 0.01079244
v 0.00110934 0.00317525 0.01530168
v -0.00033024 0.00412274 0.01521386
v 0.00122794 0.11849990 0.00453156
v 0.00122794 0.12096805 0.00407968
v -0.00122794 0.12250040 0.00325416
v -0.00258380 0.12227815 0.00301305
v -0.00530016 0.12010244 0.00167976
v -0.00653043 0.11873385 0.00167976
v -0.00754209 0.11750561 0.00167976
v -0.00743744 0.11735355 0.00040076
v -0.00775838 0.11604345 0.00020436
v -0.00601879 0.11830104 0.00015486
v -0.00510946 0.11991528 0.00032092
v -0.00347220 0.12082767 0.00018360
v -0.00122794 0.12096805 -0.00012457
v 0.00122794 0.11849990 -0.00051897
v 0.00122794 0.11604345 -0.00065629
v 0.00122794 0.11358699 -0.00074571
v 0.00122794 0.11111884 -0.00081757
v 0.00368849 0.10620592 -0.00092774
v 0.00368849 0.10373778 -0.00097724
v 0.00368849 0.10866238 -0.00086707
v 0.00368849 0.10128132 -0.00099960
v 0.00368849 0.09882487 -0.00098523
v 0.00368849 0.09635672 -0.00092934
v 0.00368849 0.09390027 -0.00083513
v 0.00122794 0.09143212 -0.00072336
v 0.00122794 0.08897566 -0.00058284
v -0.00122794 0.08651921 -0.00043115
v -0.00122794 0.08405106 -0.00027148
v -0.00368849 0.08405106 -0.00026030
v -0.00368849 0.08159461 -0.00007827
v -0.00614903 0.08159461 -0.00003037
v -0.00614903 0.07913816 0.00019637
v -0.00614903 0.07734845 0.00038479
v -0.00614903 0.07612022 0.00052850
v -0.00614903 0.07421355 0.00076482
v -0.00614903 0.07175709 0.00108736
v -0.00368849 0.06928895 0.00136041
v -0.00368849 0.06683249 0.00171010
v 0.00122794 0.00317525 0.01079244
v -0.00122794 0.06683249 0.00169253
v 0.00033257 0.00412274 0.01521386
v 0.00125585 0.00317525 0.01530008
v 0.00368849 0.11849990 0.00428886
v 0.00197215 0.00405256 0.01520747
v 0.00258380 0.12227815 0.00301305
v 0.00122794 0.12250040 0.00325416
v 0.00351871 0.12089786 0.00346493
v -0.00122794 0.12267586 0.00167976
v -0.00258845 0.12227815 0.00167976
v -0.00381872 0.12133066 0.00167976
v -0.00250705 0.12221967 0.00042152
v -0.00122794 0.12236003 0.00031773
v 0.00122794 0.12096805 -0.00012457
v 0.00368849 0.11604345 -0.00061158
v 0.00368849 0.11849990 -0.00036089
v 0.00368849 0.11358699 -0.00072016
v 0.00368849 0.11111884 -0.00080000
v 0.00614903 0.10620592 -0.00087984
v 0.00614903 0.10373778 -0.00093573
v 0.00614903 0.10128132 -0.00096287
v 0.00614903 0.09882487 -0.00095010
v 0.00614903 0.09635672 -0.00089421
v 0.00614903 0.09390027 -0.00079840
v 0.00368849 0.09143212 -0.00071378
v 0.00368849 0.08897566 -0.00057167
v 0.00122794 0.08651921 -0.00043115
v 0.00122794 0.08405106 -0.00027148
v -0.00122794 0.08159461 -0.00008945
v -0.00368849 0.07913816 0.00014528
v -0.00368849 0.07711450 0.00035924
v -0.00368849 0.07588628 0.00050135
v -0.00368849 0.07421355 0.00070734
v -0.00368849 0.07175709 0.00102509
v -0.00122794 0.06928895 0.00134444
v 0.00368849 0.00317525 0.01100162
v 0.00122794 0.06683249 0.00169253
v 0.00368849 0.06683249 0.00171010
v 0.00614903 0.06928895 0.00142747
v 0.00614903 0.06683249 0.00178355
v 0.00362104 0.00317525 0.01509889
v 0.00614903 0.11604345 0.00404615
v 0.00609554 0.11839462 0.00347132
v 0.00523737 0.12003225 0.00319029
v 0.00378616 0.00317525 0.01507813
v 0.00258845 0.12227815 0.00167976
v 0.00122794 0.12267586 0.00167976
v 0.00530016 0.12010244 0.00167976
v 0.00381872 0.12133066 0.00167976
v 0.00122794 0.12236003 0.00031773
v 0.00250705 0.12221967 0.00042152
v 0.00347220 0.12082767 0.00018360
v 0.00614903 0.11358699 -0.00059562
v 0.00614903 0.11111884 -0.00072336
v 0.00510946 0.11991528 0.00032092
v 0.00601879 0.11830104 0.00015486
v 0.00614903 0.11604345 -0.00030660
v 0.00614903 0.10866238 -0.00080958
v 0.00860957 0.10373778 -0.00078882
v 0.00860957 0.10128132 -0.00083353
v 0.00860957 0.09882487 -0.00082874
v 0.00860957 0.09635672 -0.00077445
v 0.00860957 0.09390027 -0.00067865
v 0.00614903 0.09143212 -0.00067545
v 0.00614903 0.08897566 -0.00053334
v 0.00368849 0.08651921 -0.00041997
v 0.00368849 0.08405106 -0.00026030
v 0.00122794 0.08159461 -0.00008945
v -0.00122794 0.07913816 0.00013410
v -0.00122794 0.07705602 0.00035285
v -0.00122794 0.07582779 0.00049497
v -0.00122794 0.07421355 0.00069296
v -0.00122794 0.07175709 0.00101072
v 0.00122794 0.06928895 0.00134444
v 0.00466991 0.00921111 0.01032619
v 0.00533505 0.00317525 0.01183831
v 0.00614903 0.06437604 0.00214761
v 0.00750023 0.06042232 0.00286774
v 0.00368849 0.06928895 0.00136041
v 0.00614903 0.07175709 0.00108736
v 0.00759791 0.07765258 0.00041992
v 0.00860957 0.11111884 0.00373159
v 0.00869329 0.11345832 0.00342980
v 0.00791187 0.11604345 0.00332282
v 0.00753977 0.11749392 0.00307532
v 0.00386524 0.00317525 0.01503182
v 0.00569087 0.01270863 0.01338238
v 0.00562576 0.01517678 0.01323867
v 0.00550715 0.01763324 0.01309177
v 0.01029567 0.10866238 0.00327332
v 0.00653043 0.11873385 0.00167976
v 0.00743744 0.11735355 0.00040076
v 0.00860957 0.11111884 -0.00029383
v 0.00860957 0.10866238 -0.00054931
v 0.00860957 0.10620592 -0.00069621
v 0.00775838 0.11604345 0.00020436
v 0.00863282 0.11338813 0.00005266
v 0.01073754 0.10373778 -0.00011180
v 0.01087941 0.10128132 -0.00014054
v 0.01095150 0.09882487 -0.00014374
v 0.01094452 0.09635672 -0.00011659
v 0.01086545 0.09390027 -0.00006869
v 0.01073289 0.09143212 -0.00000162
v 0.01056312 0.08897566 0.00007662
v 0.00860957 0.09143212 -0.00055091
v 0.00860957 0.08897566 -0.00040081
v 0.00614903 0.08651921 -0.00038006
v 0.00614903 0.08405106 -0.00021719
v 0.00368849 0.08159461 -0.00007667
v 0.00368849 0.07913816 0.00014528
v 0.00122794 0.07913816 0.00013410
v 0.00122794 0.07705602 0.00035285
v 0.00122794 0.07582779 0.00049497
v 0.00122794 0.07421355 0.00069296
v 0.00122794 0.07175709 0.00101072
v 0.00368849 0.07175709 0.00102509
v 0.00505597 0.01084875 0.01020962
v 0.00986309 0.08024941 0.00043589
v 0.00985147 0.06554578 0.00289968
v 0.00558157 0.00317525 0.01197564
v 0.00614903 0.07421355 0.00076482
v 0.00614903 0.07612022 0.00052850
v 0.00614903 0.07734845 0.00038479
v 0.00614903 0.07913816 0.00019637
v 0.00614903 0.08159461 -0.00003037
v 0.00860957 0.08159461 0.00014687
v 0.00849561 0.07931361 0.00035605
v 0.01007705 0.11111884 0.00313121
v 0.00990961 0.11255762 0.00298590
v 0.00829095 0.11604345 0.00167976
v 0.00754209 0.11750561 0.00167976
v 0.00558157 0.00317525 0.01381510
v 0.00564203 0.00532757 0.01371769
v 0.00569552 0.00779572 0.01361710
v 0.00571413 0.01025218 0.01351171
v 0.01044683 0.10620592 0.00331164
v 0.01169338 0.10128132 0.00167976
v 0.01146082 0.10373778 0.00167976
v 0.00987472 0.11244064 0.00041673
v 0.01004682 0.11111884 0.00026344
v 0.01032590 0.10866238 0.00005746
v 0.01054916 0.10620592 -0.00004953
v 0.01183525 0.09882487 0.00167976
v 0.01187944 0.09635672 0.00167976
v 0.01183060 0.09390027 0.00167976
v 0.01170269 0.09143212 0.00167976
v 0.01151663 0.08897566 0.00167976
v 0.01130035 0.08651921 0.00167976
v 0.01037939 0.08651921 0.00016444
v 0.01043521 0.07421355 0.00215400
v 0.01018636 0.08405106 0.00026024
v 0.00860957 0.08651921 -0.00023635
v 0.00998170 0.08159461 0.00037042
v 0.00860957 0.08405106 -0.00005751
v 0.00368849 0.07711450 0.00035924
v 0.00368849 0.07588628 0.00050135
v 0.00368849 0.07421355 0.00070734
v 0.01030497 0.07175709 0.00235519
v 0.01014682 0.06928895 0.00256436
v 0.00995845 0.06683249 0.00278312
v 0.00739093 0.02365739 0.01027190
v 0.01115383 0.10620592 0.00167976
v 0.01077940 0.10866238 0.00167976
v 0.01028404 0.11111884 0.00167976
v 0.00991658 0.11256931 0.00167976
v 0.00935843 0.11380924 0.00167976
v 0.00739093 0.02365739 0.01031501
v 0.00743279 0.02501429 0.01039325
v 0.00750023 0.02747074 0.01048427
v 0.00753744 0.02993890 0.01050023
v 0.00753046 0.03239535 0.01046191
v 0.00747000 0.03485180 0.01038048
v 0.01056312 0.10373778 0.00331324
v 0.01065614 0.10128132 0.00331164
v 0.01072359 0.09882487 0.00331803
v 0.01077475 0.09635672 0.00334198
v 0.00992821 0.06191958 0.00549920
v 0.00988403 0.06003630 0.00544171
v 0.00988403 0.06003630 0.00525170
f 1 2 3
f 1 3 4
f 1 4 5
f 1 5 6
f 1 6 7
f 1 7 8
f 1 8 2
f 2 9 10
f 2 10 11
f 2 11 12
f 2 12 13
f 2 13 14
f 2 14 15
f 2 15 3
f 2 8 9
f 3 15 16
f 3 16 17
f 3 17 4
f 4 17 18
f 4 18 19
f 4 19 5
f 5 19 20
f 5 20 21
f 5 21 6
f 6 21 22
f 6 22 7
f 7 22 23
f 7 23 24
f 7 24 25
f 7 25 8
f 8 25 26
f 8 26 27
f 8 27 13
f 8 13 12
f 8 12 11
f 8 11 10
f 8 10 9
f 13 28 14
f 13 27 26
f 13 26 29
f 13 29 28
f 14 28 30
f 14 30 31
f 14 31 32
f 14 32 15
f 15 32 33
f 15 33 16
f 16 33 34
f 16 34 35
f 16 35 17
f 17 35 36
f 17 36 18
f 18 36 37
f 18 37 63
f 18 63 38
f 18 38 19
f 19 38 39
f 19 39 20
f 20 39 40
f 20 40 41
f 20 41 21
f 21 41 71
f 21 71 42
f 21 42 43
f 21 43 22
f 22 43 23
f 23 44 75
f 23 75 105
f 23 105 148
f 23 148 189
f 23 189 225
f 23 225 265
f 23 265 309
f 23 309 321
f 23 321 275
f 23 275 234
f 23 234 230
f 23 230 192
f 23 192 149
f 23 149 108
f 23 108 77
f 23 77 45
f 23 45 24
f 23 43 42
f 23 42 71
f 23 71 44
f 24 45 25
f 25 45 26
f 26 45 29
f 28 46 47
f 28 47 30
f 28 29 48
f 28 48 49
f 28 49 45
f 28 45 46
f 29 45 48
f 30 47 50
f 30 50 51
f 30 51 31
f 31 51 52
f 31 52 53
f 31 53 32
f 32 53 33
f 33 53 54
f 33 54 55
f 33 55 56
f 33 56 34
f 34 56 57
f 34 57 58
f 34 58 35
f 35 58 59
f 35 59 36
f 36 60 61
f 36 61 37
f 36 59 60
f 37 61 62
f 37 62 63
f 38 63 64
f 38 64 65
f 38 65 66
f 38 66 39
f 39 66 67
f 39 67 40
f 40 67 68
f 40 68 69
f 40 69 41
f 41 70 71
f 41 69 72
f 41 72 70
f 44 73 74
f 44 74 75
f 44 71 76
f 44 76 73
f 45 49 48
f 45 77 78
f 45 78 79
f 45 79 46
f 46 79 80
f 46 80 47
f 47 80 81
f 47 81 50
f 50 82 83
f 50 83 51
f 50 81 82
f 51 83 84
f 51 84 52
f 52 84 85
f 52 85 53
f 53 85 54
f 54 85 86
f 54 86 87
f 54 87 55
f 55 87 88
f 55 88 56
f 56 88 89
f 56 89 57
f 57 90 58
f 57 89 91
f 57 91 90
f 58 90 92
f 58 92 93
f 58 93 59
f 59 93 94
f 59 94 60
f 60 94 61
f 61 94 95
f 61 95 96
f 61 96 62
f 62 96 136
f 62 136 97
f 62 97 63
f 63 97 64
f 64 97 98
f 64 98 65
f 65 98 99
f 65 99 100
f 65 100 101
f 65 101 66
f 66 101 68
f 66 68 67
f 68 101 100
f 68 100 69
f 69 100 102
f 69 102 103
f 69 103 72
f 70 76 71
f 70 72 103
f 70 103 76
f 73 76 74
f 74 76 103
f 74 103 104
f 74 104 75
f 75 104 106
f 75 106 107
f 75 107 105
f 77 108 109
f 77 109 110
f 77 110 78
f 78 110 111
f 78 111 112
f 78 112 113
f 78 113 114
f 78 114 79
f 79 114 115
f 79 115 80
f 80 115 81
f 81 115 116
f 81 116 117
f 81 117 118
f 81 118 119
f 81 119 120
f 81 120 82
f 82 120 121
f 82 121 83
f 83 121 122
f 83 122 84
f 84 122 123
f 84 123 85
f 85 123 124
f 85 124 86
f 86 124 125
f 86 125 126
f 86 126 87
f 87 127 88
f 87 126 127
f 88 128 89
f 88 127 128
f 89 128 91
f 90 129 131
f 90 131 92
f 90 91 130
f 90 130 129
f 91 128 167
f 91 167 130
f 92 131 93
f 93 131 132
f 93 132 133
f 93 133 94
f 94 133 134
f 94 134 95
f 95 134 135
f 95 135 96
f 96 135 175
f 96 175 136
f 97 136 137
f 97 137 138
f 97 138 98
f 98 138 139
f 98 139 140
f 98 140 99
f 99 140 141
f 99 141 142
f 99 142 103
f 99 103 102
f 99 102 100
f 103 142 143
f 103 143 144
f 103 144 145
f 103 145 146
f 103 146 104
f 104 107 106
f 104 146 147
f 104 147 107
f 105 107 148
f 107 147 148
f 108 149 150
f 108 150 110
f 108 110 109
f 110 151 152
f 110 152 111
f 110 150 191
f 110 191 151
f 111 152 196
f 111 196 153
f 111 153 154
f 111 154 112
f 112 154 113
f 113 154 155
f 113 155 116
f 113 116 114
f 114 116 115
f 116 155 156
f 116 156 157
f 116 157 117
f 117 121 118
f 117 157 158
f 117 158 121
f 118 121 119
f 119 121 120
f 121 158 159
f 121 159 122
f 122 159 123
f 123 159 160
f 123 160 124
f 124 160 161
f 124 161 162
f 124 162 163
f 124 163 125
f 125 163 203
f 125 203 164
f 125 164 165
f 125 165 126
f 126 165 166
f 126 166 127
f 127 166 167
f 127 167 128
f 129 168 169
f 129 169 131
f 129 130 168
f 130 167 170
f 130 170 168
f 131 169 171
f 131 171 132
f 132 171 133
f 133 172 173
f 133 173 134
f 133 171 172
f 134 173 174
f 134 174 135
f 135 174 214
f 135 214 175
f 136 175 176
f 136 176 137
f 137 176 216
f 137 216 177
f 137 177 139
f 137 139 138
f 139 178 179
f 139 179 140
f 139 177 178
f 140 179 141
f 141 143 142
f 141 179 180
f 141 180 181
f 141 181 143
f 143 181 144
f 144 181 146
f 144 146 145
f 146 181 182
f 146 182 183
f 146 183 184
f 146 184 185
f 146 185 186
f 146 186 147
f 147 186 187
f 147 187 188
f 147 188 148
f 148 188 190
f 148 190 226
f 148 226 189
f 149 191 150
f 149 192 151
f 149 151 191
f 151 193 152
f 151 192 194
f 151 194 193
f 152 195 196
f 152 193 197
f 152 197 195
f 153 196 236
f 153 236 198
f 153 198 154
f 154 198 199
f 154 199 200
f 154 200 155
f 155 161 158
f 155 158 156
f 155 200 201
f 155 201 161
f 156 158 157
f 158 161 160
f 158 160 159
f 161 201 162
f 162 201 163
f 163 201 202
f 163 202 239
f 163 239 203
f 164 204 165
f 164 203 205
f 164 205 204
f 165 204 206
f 165 206 166
f 166 206 207
f 166 207 167
f 167 207 170
f 168 208 209
f 168 209 169
f 168 170 208
f 169 210 171
f 169 209 210
f 170 207 208
f 171 210 211
f 171 211 172
f 172 211 212
f 172 212 173
f 173 212 174
f 174 213 214
f 174 212 213
f 175 214 176
f 176 214 215
f 176 215 255
f 176 255 216
f 177 216 217
f 177 217 178
f 178 217 257
f 178 257 218
f 178 218 180
f 178 180 179
f 180 218 258
f 180 258 219
f 180 219 181
f 181 219 182
f 182 219 183
f 183 219 220
f 183 220 221
f 183 221 184
f 184 221 222
f 184 222 185
f 185 222 223
f 185 223 186
f 186 223 187
f 187 223 224
f 187 224 190
f 187 190 188
f 189 226 227
f 189 227 228
f 189 228 229
f 189 229 225
f 190 224 263
f 190 263 226
f 192 230 194
f 193 231 232
f 193 232 233
f 193 233 197
f 193 194 230
f 193 230 234
f 193 234 231
f 195 235 236
f 195 236 196
f 195 197 233
f 195 233 237
f 195 237 238
f 195 238 235
f 198 236 239
f 198 239 202
f 198 202 201
f 198 201 199
f 199 201 200
f 203 239 240
f 203 240 241
f 203 241 205
f 204 205 242
f 204 242 243
f 204 243 206
f 205 241 244
f 205 244 245
f 205 245 246
f 205 246 242
f 206 243 247
f 206 247 207
f 207 247 208
f 208 248 209
f 208 247 248
f 209 248 249
f 209 249 210
f 210 249 250
f 210 250 211
f 211 250 251
f 211 251 212
f 212 251 252
f 212 252 213
f 213 252 253
f 213 253 214
f 214 253 254
f 214 254 215
f 215 254 255
f 216 255 256
f 216 256 217
f 217 256 257
f 218 257 300
f 218 300 258
f 219 258 259
f 219 259 220
f 220 259 260
f 220 260 221
f 221 260 261
f 221 261 222
f 222 261 262
f 222 262 223
f 223 262 224
f 224 262 304
f 224 304 263
f 225 264 265
f 225 229 266
f 225 266 267
f 225 267 264
f 226 263 268
f 226 268 227
f 227 268 228
f 228 268 269
f 228 269 270
f 228 270 267
f 228 267 229
f 229 267 266
f 231 271 272
f 231 272 273
f 231 273 232
f 231 234 271
f 232 273 274
f 232 274 233
f 233 274 237
f 234 275 276
f 234 276 277
f 234 277 278
f 234 278 279
f 234 279 271
f 235 238 240
f 235 240 236
f 236 240 239
f 237 274 280
f 237 280 281
f 237 281 244
f 237 244 240
f 237 240 238
f 240 244 241
f 242 282 283
f 242 283 284
f 242 284 243
f 242 246 282
f 243 284 248
f 243 248 247
f 244 281 245
f 245 281 285
f 245 285 246
f 246 285 286
f 246 286 282
f 248 287 288
f 248 288 249
f 248 284 287
f 249 288 289
f 249 289 250
f 250 289 290
f 250 290 251
f 251 290 291
f 251 291 252
f 252 291 292
f 252 292 293
f 252 293 294
f 252 294 253
f 253 294 254
f 254 294 295
f 254 295 296
f 254 296 255
f 255 296 256
f 256 297 298
f 256 298 257
f 256 296 297
f 257 298 299
f 257 299 300
f 258 300 301
f 258 301 259
f 259 301 302
f 259 302 260
f 260 302 303
f 260 303 261
f 261 303 304
f 261 304 262
f 263 304 305
f 263 305 268
f 264 306 265
f 264 267 307
f 264 307 308
f 264 308 306
f 265 306 309
f 267 270 307
f 268 305 269
f 269 305 310
f 269 310 270
f 270 310 311
f 270 311 312
f 270 312 313
f 270 313 314
f 270 314 315
f 270 315 316
f 270 316 307
f 271 279 317
f 271 317 272
f 272 317 318
f 272 318 273
f 273 318 274
f 274 319 320
f 274 320 280
f 274 318 319
f 275 321 322
f 275 322 323
f 275 323 324
f 275 324 276
f 276 324 325
f 276 325 279
f 276 279 277
f 277 279 278
f 279 325 326
f 279 326 327
f 279 327 317
f 280 320 281
f 281 320 319
f 281 319 328
f 281 328 285
f 282 286 329
f 282 329 330
f 282 330 283
f 283 330 331
f 283 331 284
f 284 331 287
f 285 328 286
f 286 328 329
f 287 331 326
f 287 326 288
f 288 326 332
f 288 332 289
f 289 332 333
f 289 333 290
f 290 333 334
f 290 334 291
f 291 334 335
f 291 335 292
f 292 335 336
f 292 336 337
f 292 337 293
f 293 338 294
f 293 337 339
f 293 339 338
f 294 338 340
f 294 340 295
f 295 341 297
f 295 297 296
f 295 340 342
f 295 342 307
f 295 307 341
f 297 343 314
f 297 314 298
f 297 341 343
f 298 314 299
f 299 314 313
f 299 313 312
f 299 312 344
f 299 344 301
f 299 301 300
f 301 344 345
f 301 345 302
f 302 345 303
f 303 346 305
f 303 305 304
f 303 345 346
f 305 346 310
f 306 308 309
f 307 316 315
f 307 315 343
f 307 343 341
f 307 342 347
f 307 347 348
f 307 348 349
f 307 349 308
f 308 350 309
f 308 349 350
f 309 350 356
f 309 356 321
f 310 346 311
f 311 346 345
f 311 345 312
f 312 345 344
f 314 343 315
f 317 327 351
f 317 351 318
f 318 351 352
f 318 352 353
f 318 353 354
f 318 354 355
f 318 355 319
f 319 355 328
f 321 356 357
f 321 357 358
f 321 358 359
f 321 359 322
f 322 359 323
f 323 359 360
f 323 360 324
f 324 360 361
f 324 361 325
f 325 362 332
f 325 332 326
f 325 361 360
f 325 360 362
f 326 331 327
f 327 331 330
f 327 330 351
f 328 355 354
f 328 354 353
f 328 353 352
f 328 352 329
f 329 352 351
f 329 351 330
f 332 362 363
f 332 363 364
f 332 364 365
f 332 365 360
f 332 360 333
f 333 360 359
f 333 359 366
f 333 366 334
f 334 366 367
f 334 367 335
f 335 368 336
f 335 367 368
f 336 347 339
f 336 339 337
f 336 368 347
f 338 339 340
f 339 347 340
f 340 347 342
f 347 368 348
f 348 368 349
f 349 368 350
f 350 368 367
f 350 367 356
f 356 367 357
f 357 367 358
f 358 367 366
f 358 366 359
f 360 365 364
f 360 364 363
f 360 363 362

