# https://github.com/mikedh/trimesh
v 0.00000707 -0.12439331 0.01207608
v 0.00123041 -0.12439776 0.01207608
v 0.00000707 -0.12439331 0.01375931
v 0.00000707 -0.12310524 0.01084722
v 0.00369316 -0.12421057 0.01228113
v 0.00123041 -0.12439776 0.01375931
v 0.00123041 -0.12310524 0.01084574
v 0.00000707 -0.12261944 0.01458691
v 0.00000707 -0.12249019 0.01041350
v 0.00540370 -0.12400555 0.01253635
v 0.00369316 -0.12421057 0.01350557
v 0.00369316 -0.12290023 0.01105080
v 0.00369316 -0.12261944 0.01441726
v 0.00123041 -0.12261944 0.01458396
v 0.00123041 -0.12187067 0.00997684
v 0.00369316 -0.12167011 0.01010666
v 0.02466670 -0.09125589 0.01279156
v 0.02447129 -0.09125589 0.01279156
v 0.02583383 -0.07887003 0.01136502
v 0.02532522 -0.07887003 0.01127356
v 0.02363609 -0.07887003 0.01091213
v 0.00000707 -0.07887003 0.00393432
v 0.00000707 -0.12187067 0.00997831
v 0.00540370 -0.12400555 0.01312054
v 0.00611308 -0.12260161 0.01148451
v 0.00861331 -0.12208015 0.01201559
v 0.01017930 -0.12162108 0.01244931
v 0.00861331 -0.12208015 0.01357491
v 0.00619339 -0.12278881 0.01377849
v 0.00518152 -0.12148292 0.01023057
v 0.00861331 -0.12015920 0.01436120
v 0.01107338 -0.11769897 0.01421368
v 0.00000707 -0.12101939 0.00947969
v 0.00000707 -0.12015920 0.00897664
v 0.00123041 -0.12015920 0.00897664
v 0.00369316 -0.12015920 0.00922152
v 0.02467205 -0.09309661 0.01280041
v 0.02735163 -0.07887003 0.01074395
v 0.02703308 -0.07887003 0.01089885
v 0.01353346 -0.11523873 0.01403813
v 0.01599085 -0.11277850 0.01384340
v 0.02263493 -0.10048177 0.01308366
v 0.00000707 -0.07887003 -0.00048397
v 0.01017930 -0.12162108 0.01315594
v 0.00682246 -0.12116647 0.01043121
v 0.00861331 -0.12071632 0.01078526
v 0.01004278 -0.11907171 0.01020402
v 0.01093151 -0.12003887 0.01153762
v 0.01278392 -0.11936586 0.01226638
v 0.01102788 -0.12017703 0.01366637
v 0.00606222 -0.12027063 0.00972900
v 0.01357629 -0.11772571 0.01363096
v 0.00000707 -0.11931238 0.00851932
v 0.00123041 -0.11845665 0.00806052
v 0.00369316 -0.11823380 0.00817559
v 0.02463458 -0.09454066 0.01277681
v 0.02730077 -0.08079543 0.01071297
v 0.02735163 -0.07887003 0.00972605
v 0.01596676 -0.11510948 0.01342001
v 0.01777635 -0.11277850 0.01325331
v 0.01857407 -0.11031826 0.01338755
v 0.02021233 -0.10785802 0.01320462
v 0.02237795 -0.10293755 0.01295826
v 0.00123041 -0.07887003 -0.00048397
v 0.00000707 -0.08079543 -0.00037923
v 0.01278392 -0.11936586 0.01325921
v 0.00861331 -0.11948621 0.00996799
v 0.00861331 -0.11769897 0.00901942
v 0.01094757 -0.11765440 0.00982489
v 0.01265543 -0.11680312 0.01010518
v 0.01168372 -0.11844328 0.01062593
v 0.01353881 -0.11768114 0.01145058
v 0.01513157 -0.11692346 0.01227523
v 0.00623890 -0.11760091 0.00832459
v 0.01513157 -0.11692346 0.01317512
v 0.00000707 -0.11845665 0.00806052
v 0.00123041 -0.11722653 0.00747486
v 0.00369316 -0.11700369 0.00757517
v 0.00547598 -0.11671843 0.00771089
v 0.02475236 -0.09497744 0.01152140
v 0.02710000 -0.08473983 0.01037662
v 0.02719102 -0.08325566 0.01054922
v 0.02217986 -0.10427018 0.01279451
v 0.02730077 -0.08079543 0.00984554
v 0.02674130 -0.07887003 0.00876273
v 0.01734804 -0.11420026 0.01292876
v 0.01987504 -0.10949818 0.01297301
v 0.00369316 -0.07887003 -0.00038956
v 0.00123041 -0.08079543 -0.00037923
v 0.00000707 -0.08325566 -0.00019778
v 0.00711692 -0.11633960 0.00788940
v 0.00861331 -0.11585825 0.00811215
v 0.01000798 -0.11414678 0.00776695
v 0.01092615 -0.11507828 0.00855620
v 0.01429370 -0.11597413 0.01063479
v 0.01164892 -0.11340247 0.00809003
v 0.01349866 -0.11518971 0.00974375
v 0.01503252 -0.11433397 0.01012583
v 0.01667347 -0.11328658 0.01087967
v 0.01734804 -0.11420026 0.01252012
v 0.00000707 -0.11722653 0.00747486
v 0.00000707 -0.11523873 0.00662218
v 0.00123041 -0.11523873 0.00662365
v 0.00369316 -0.11523873 0.00681543
v 0.00623890 -0.11540810 0.00729931
v 0.02477377 -0.09498190 0.01008010
v 0.02710000 -0.08473983 0.01022910
v 0.02719102 -0.08325566 0.01006240
v 0.02217986 -0.10427018 0.01258503
v 0.02643613 -0.08079543 0.00861521
v 0.02655391 -0.07887003 0.00849571
v 0.01987504 -0.10949818 0.01229441
v 0.00615324 -0.07887003 -0.00020958
v 0.00369316 -0.08079543 -0.00028481
v 0.00123041 -0.08325566 -0.00019778
v 0.00000707 -0.08449024 -0.00007681
v 0.00861331 -0.11277850 0.00680216
v 0.00861331 -0.11462813 0.00755600
v 0.01107338 -0.11031826 0.00666349
v 0.01092615 -0.11266262 0.00750436
v 0.01728648 -0.11164643 0.01024533
v 0.01250017 -0.11176231 0.00774040
v 0.01340764 -0.11266262 0.00855767
v 0.01413844 -0.11079516 0.00812838
v 0.01590787 -0.11259130 0.00984997
v 0.01944138 -0.10868256 0.01065396
v 0.00000707 -0.11295232 0.00574737
v 0.00123041 -0.11295232 0.00574737
v 0.00271609 -0.11162415 0.00534464
v 0.00615324 -0.11277850 0.00622829
v 0.00359947 -0.11257794 0.00578278
v 0.02242345 -0.10292418 0.01166744
v 0.02230032 -0.10209519 0.01013469
v 0.02259745 -0.10048177 0.00985292
v 0.02305520 -0.09802154 0.00945903
v 0.02340320 -0.09563707 0.00902532
v 0.02374852 -0.09309661 0.00856210
v 0.02412864 -0.09063638 0.00822870
v 0.02501737 -0.09309661 0.00979243
v 0.02530916 -0.09063638 0.00945903
v 0.02615773 -0.08562231 0.00927020
v 0.02623804 -0.08325566 0.00883206
v 0.02193358 -0.10373534 0.01094458
v 0.02500934 -0.08325566 0.00748223
v 0.02520476 -0.08079543 0.00731258
v 0.02532522 -0.07887003 0.00721227
v 0.00861331 -0.07887003 0.00006924
v 0.00615324 -0.08079543 -0.00010189
v 0.00369316 -0.08325566 -0.00010041
v 0.00123041 -0.08571590 0.00004416
v 0.00000707 -0.08571590 0.00004416
v 0.00767907 -0.10931099 0.00529595
v 0.00854371 -0.11020683 0.00583589
v 0.00932001 -0.10865582 0.00550986
v 0.01105465 -0.10784466 0.00579900
v 0.01186307 -0.10613318 0.00552019
v 0.01353346 -0.10785802 0.00677265
v 0.01577670 -0.11011324 0.00872585
v 0.01648876 -0.10785802 0.00823312
v 0.01770407 -0.11031826 0.00995618
v 0.01989646 -0.10704240 0.01011403
v 0.01340764 -0.11011324 0.00752502
v 0.01481302 -0.10915499 0.00780383
v 0.00000707 -0.11234171 0.00553051
v 0.00123041 -0.11172220 0.00531071
v 0.00435703 -0.11136564 0.00543167
v 0.00123041 -0.11031826 0.00486814
v 0.00369316 -0.10785802 0.00429280
v 0.00359947 -0.11045197 0.00506287
v 0.00615324 -0.11096452 0.00557182
v 0.02030067 -0.10539779 0.00979833
v 0.02103414 -0.10292418 0.00945608
v 0.02083605 -0.10060211 0.00850309
v 0.02159361 -0.09802154 0.00822870
v 0.02194964 -0.09629224 0.00796906
v 0.02225749 -0.09465208 0.00774335
v 0.02251715 -0.09309661 0.00754714
v 0.02289994 -0.09063638 0.00725948
v 0.02440704 -0.08868423 0.00799561
v 0.02462922 -0.08704407 0.00780973
v 0.02539214 -0.08798895 0.00891320
v 0.02476842 -0.08571590 0.00769024
v 0.02319976 -0.08334035 0.00610143
v 0.02364680 -0.08079543 0.00608372
v 0.02411793 -0.07887003 0.00624895
v 0.00893186 -0.07887003 0.00011645
v 0.01009096 -0.08079543 0.00040264
v 0.00861331 -0.08079543 0.00018431
v 0.00615324 -0.08325566 0.00008989
v 0.00369316 -0.08571590 0.00014448
v 0.00369316 -0.08762347 0.00036576
v 0.00123041 -0.08803352 0.00031560
v 0.00000707 -0.08687916 0.00017988
v 0.00615324 -0.10973440 0.00516023
v 0.00615324 -0.10785802 0.00458932
v 0.00861331 -0.10539779 0.00436951
v 0.00854371 -0.10784466 0.00505844
v 0.01022213 -0.10701566 0.00524727
v 0.01105465 -0.10534876 0.00502451
v 0.01254836 -0.10449303 0.00527383
v 0.01343441 -0.10534876 0.00590375
v 0.01525738 -0.10785802 0.00756927
v 0.01701343 -0.10630255 0.00794693
v 0.01855265 -0.10785802 0.00952247
v 0.01838133 -0.10544682 0.00849129
v 0.01920582 -0.10293755 0.00813428
v 0.00000707 -0.11172220 0.00531071
v 0.00000707 -0.11031826 0.00486814
v 0.00123041 -0.10785802 0.00414528
v 0.00369316 -0.10539779 0.00363633
v 0.00615324 -0.10539779 0.00391219
v 0.01957790 -0.10150687 0.00789530
v 0.01996606 -0.09986671 0.00764008
v 0.02036491 -0.09802154 0.00737454
v 0.02104217 -0.09550782 0.00714883
v 0.02091368 -0.09309661 0.00646433
v 0.02083605 -0.09087259 0.00590080
v 0.02152401 -0.08817613 0.00576950
v 0.02350224 -0.08798895 0.00715178
v 0.02337375 -0.08571590 0.00662956
v 0.02207813 -0.08421836 0.00541397
v 0.02226552 -0.08257821 0.00528858
v 0.02241810 -0.08079543 0.00518384
v 0.02378064 -0.07887003 0.00598341
v 0.01040683 -0.07887003 0.00034363
v 0.01163553 -0.07887003 0.00058114
v 0.01132234 -0.08079543 0.00064458
v 0.00985807 -0.08205229 0.00044690
v 0.00854103 -0.08302836 0.00035248
v 0.00767372 -0.08485571 0.00040707
v 0.00609167 -0.08569361 0.00033183
v 0.00522970 -0.08719561 0.00041887
v 0.00369316 -0.08885360 0.00052213
v 0.00123041 -0.08926363 0.00047050
v 0.00000707 -0.08803352 0.00031560
v 0.00861331 -0.10293755 0.00373369
v 0.01107338 -0.10293755 0.00436656
v 0.01353346 -0.10048177 0.00456424
v 0.01343441 -0.10270133 0.00511450
v 0.01477554 -0.10172972 0.00536529
v 0.01418662 -0.10336988 0.00561018
v 0.01611131 -0.10544682 0.00718424
v 0.01751134 -0.10466239 0.00765631
v 0.00000707 -0.10785802 0.00414528
v 0.00000707 -0.10539779 0.00349913
v 0.00123041 -0.10539779 0.00350061
v 0.00369316 -0.10326737 0.00311852
v 0.00506641 -0.10178766 0.00289134
v 0.00599262 -0.10274145 0.00323949
v 0.00670735 -0.10130631 0.00300051
v 0.01863563 -0.10060211 0.00706475
v 0.01797712 -0.10293755 0.00738339
v 0.01826890 -0.09790120 0.00608372
v 0.01888726 -0.09556130 0.00581523
v 0.01942264 -0.09309661 0.00551724
v 0.01967695 -0.09185312 0.00537414
v 0.01996338 -0.09021296 0.00520301
v 0.02029531 -0.08817613 0.00500533
v 0.02188004 -0.08571590 0.00553937
v 0.02111980 -0.08334035 0.00471177
v 0.02065134 -0.08571590 0.00479438
v 0.02091368 -0.08079543 0.00427657
v 0.02091368 -0.07887003 0.00410397
v 0.02254927 -0.07887003 0.00509385
v 0.01211470 -0.07887003 0.00069621
v 0.01353346 -0.08079543 0.00117713
v 0.01353346 -0.08325566 0.00141464
v 0.01083514 -0.08302836 0.00074342
v 0.00931466 -0.08369244 0.00052803
v 0.00854103 -0.08569361 0.00063720
v 0.00861331 -0.08817613 0.00096175
v 0.00686797 -0.08649587 0.00050591
v 0.00609167 -0.08808254 0.00062245
v 0.00615324 -0.09063638 0.00097798
v 0.00369316 -0.09063638 0.00076702
v 0.00000707 -0.08995446 0.00056639
v 0.00000707 -0.08926363 0.00047050
v 0.00123041 -0.09063638 0.00066228
v 0.00785307 -0.09966615 0.00281905
v 0.00865079 -0.10048177 0.00316131
v 0.00949401 -0.09893522 0.00297985
v 0.01107338 -0.10048177 0.00375287
v 0.01514228 -0.10048177 0.00519859
v 0.01353346 -0.09802154 0.00396235
v 0.01575529 -0.10270133 0.00614126
v 0.01689833 -0.09864551 0.00552609
v 0.01637365 -0.10048177 0.00578720
v 0.00000707 -0.10354370 0.00305214
v 0.00123041 -0.10354370 0.00305214
v 0.00369316 -0.10203725 0.00283528
v 0.00369316 -0.10048177 0.00249746
v 0.00369316 -0.09802154 0.00199736
v 0.00615324 -0.09802154 0.00223487
v 0.00599262 -0.10048177 0.00272612
v 0.01732395 -0.09700535 0.00531808
v 0.01765857 -0.09556130 0.00514106
v 0.01819127 -0.09309661 0.00486519
v 0.01869453 -0.09087259 0.00466603
v 0.01845361 -0.08817613 0.00402431
v 0.01870256 -0.08325566 0.00337964
v 0.01823678 -0.08556882 0.00349176
v 0.01899969 -0.08079543 0.00323359
v 0.01958594 -0.07887003 0.00337669
v 0.01353346 -0.07887003 0.00104289
v 0.01599085 -0.07887003 0.00181885
v 0.01599085 -0.08079543 0.00196343
v 0.01599085 -0.08325566 0.00222159
v 0.01353346 -0.08571590 0.00172001
v 0.01107338 -0.08571590 0.00109747
v 0.01107338 -0.08817613 0.00142497
v 0.00861331 -0.09063638 0.00131138
v 0.00615324 -0.09309661 0.00135858
v 0.00369316 -0.09309661 0.00113878
v 0.00123041 -0.09309661 0.00102961
v 0.00000707 -0.09063638 0.00066228
v 0.00861331 -0.09556130 0.00213750
v 0.00865079 -0.09807502 0.00263613
v 0.01026228 -0.09729505 0.00280135
v 0.01107874 -0.09807502 0.00319524
v 0.01190322 -0.09626104 0.00301821
v 0.01599085 -0.09556130 0.00437246
v 0.01604172 -0.09790120 0.00495370
v 0.01339694 -0.09548999 0.00334423
v 0.00000707 -0.10231358 0.00277332
v 0.00123041 -0.10231358 0.00277332
v 0.00123041 -0.10048177 0.00237649
v 0.00123041 -0.09802154 0.00188376
v 0.00369316 -0.09556130 0.00154889
v 0.00615324 -0.09556130 0.00177607
v 0.01599085 -0.09309661 0.00383843
v 0.01660119 -0.08817613 0.00316131
v 0.01697596 -0.08629085 0.00300788
v 0.01727577 -0.08465069 0.00288691
v 0.01747386 -0.08325566 0.00279545
v 0.01917102 -0.07887003 0.00315246
v 0.01776832 -0.08079543 0.00266121
v 0.01637633 -0.07887003 0.00196933
v 0.01608990 -0.08556882 0.00256384
v 0.01537249 -0.08817613 0.00267596
v 0.01353346 -0.08817613 0.00206964
v 0.01107338 -0.09063638 0.00179820
v 0.00861331 -0.09309661 0.00170821
v 0.00123041 -0.09556130 0.00143825
v 0.00000707 -0.09309661 0.00102961
v 0.01107338 -0.09309661 0.00221569
v 0.01107874 -0.09548999 0.00265383
v 0.01248679 -0.09462089 0.00285151
v 0.01415718 -0.09309661 0.00311410
v 0.00000707 -0.10140436 0.00257564
v 0.00000707 -0.10048177 0.00237649
v 0.00000707 -0.09925611 0.00213013
v 0.00000707 -0.09802154 0.00188376
v 0.00000707 -0.09679588 0.00166100
v 0.01459351 -0.09156342 0.00296658
v 0.01588913 -0.09070323 0.00332358
v 0.01500308 -0.08992326 0.00281758
v 0.01793964 -0.07887003 0.00258597
v 0.01367801 -0.09070323 0.00252253
v 0.01292848 -0.09309661 0.00271136
v 0.00000707 -0.09556130 0.00143825
f 1 2 6
f 1 6 3
f 1 3 8
f 1 8 22
f 1 22 43
f 1 43 65
f 1 65 90
f 1 90 116
f 1 116 151
f 1 151 193
f 1 193 235
f 1 235 277
f 1 277 276
f 1 276 315
f 1 315 344
f 1 344 360
f 1 360 353
f 1 353 352
f 1 352 351
f 1 351 350
f 1 350 349
f 1 349 324
f 1 324 288
f 1 288 245
f 1 245 244
f 1 244 208
f 1 208 207
f 1 207 164
f 1 164 127
f 1 127 102
f 1 102 101
f 1 101 76
f 1 76 53
f 1 53 34
f 1 34 33
f 1 33 23
f 1 23 9
f 1 9 4
f 1 4 2
f 2 5 11
f 2 11 6
f 2 4 7
f 2 7 5
f 3 6 8
f 4 9 7
f 5 10 24
f 5 24 11
f 5 7 12
f 5 12 10
f 6 11 13
f 6 13 14
f 6 14 8
f 7 9 15
f 7 15 16
f 7 16 12
f 8 14 17
f 8 17 18
f 8 18 19
f 8 19 20
f 8 20 21
f 8 21 22
f 9 23 15
f 10 12 25
f 10 25 26
f 10 26 27
f 10 27 44
f 10 44 24
f 11 24 28
f 11 28 29
f 11 29 13
f 12 16 30
f 12 30 25
f 13 29 28
f 13 28 31
f 13 31 14
f 14 31 32
f 14 32 17
f 15 23 33
f 15 33 34
f 15 34 35
f 15 35 36
f 15 36 16
f 16 36 30
f 17 37 38
f 17 38 39
f 17 39 19
f 17 19 18
f 17 32 40
f 17 40 41
f 17 41 42
f 17 42 37
f 19 39 38
f 19 38 58
f 19 58 85
f 19 85 111
f 19 111 146
f 19 146 185
f 19 185 224
f 19 224 264
f 19 264 263
f 19 263 303
f 19 303 335
f 19 335 357
f 19 357 337
f 19 337 305
f 19 305 304
f 19 304 265
f 19 265 226
f 19 226 225
f 19 225 186
f 19 186 147
f 19 147 113
f 19 113 88
f 19 88 64
f 19 64 43
f 19 43 22
f 19 22 21
f 19 21 20
f 24 44 28
f 25 30 45
f 25 45 26
f 26 45 46
f 26 46 27
f 27 46 47
f 27 47 48
f 27 48 49
f 27 49 66
f 27 66 44
f 28 44 50
f 28 50 31
f 30 36 51
f 30 51 45
f 31 50 52
f 31 52 32
f 32 52 40
f 34 53 35
f 35 53 54
f 35 54 55
f 35 55 36
f 36 55 51
f 37 56 38
f 37 42 56
f 38 57 84
f 38 84 58
f 38 56 57
f 40 52 41
f 41 52 59
f 41 59 60
f 41 60 61
f 41 61 62
f 41 62 42
f 42 62 63
f 42 63 56
f 43 64 89
f 43 89 65
f 44 66 50
f 45 51 67
f 45 67 47
f 45 47 46
f 47 67 68
f 47 68 69
f 47 69 70
f 47 70 71
f 47 71 48
f 48 71 49
f 49 71 72
f 49 72 73
f 49 73 75
f 49 75 66
f 50 66 52
f 51 55 74
f 51 74 67
f 52 66 75
f 52 75 59
f 53 76 54
f 54 76 101
f 54 101 77
f 54 77 78
f 54 78 55
f 55 78 79
f 55 79 74
f 56 80 81
f 56 81 82
f 56 82 57
f 56 63 83
f 56 83 80
f 57 82 108
f 57 108 84
f 58 84 85
f 59 86 60
f 59 75 86
f 60 86 87
f 60 87 62
f 60 62 61
f 62 83 63
f 62 87 83
f 64 88 114
f 64 114 89
f 65 89 115
f 65 115 90
f 67 74 91
f 67 91 68
f 68 91 92
f 68 92 69
f 69 92 93
f 69 93 94
f 69 94 70
f 70 95 71
f 70 94 96
f 70 96 97
f 70 97 98
f 70 98 95
f 71 95 72
f 72 95 73
f 73 95 99
f 73 99 100
f 73 100 86
f 73 86 75
f 74 79 91
f 77 101 102
f 77 102 103
f 77 103 104
f 77 104 78
f 78 104 79
f 79 104 105
f 79 105 91
f 80 106 81
f 80 83 106
f 81 107 108
f 81 108 82
f 81 106 107
f 83 87 112
f 83 112 109
f 83 109 106
f 84 108 110
f 84 110 111
f 84 111 85
f 86 100 112
f 86 112 87
f 88 113 114
f 89 114 115
f 90 115 116
f 91 105 117
f 91 117 118
f 91 118 92
f 92 118 93
f 93 118 117
f 93 117 119
f 93 119 120
f 93 120 96
f 93 96 94
f 95 98 121
f 95 121 99
f 96 120 122
f 96 122 123
f 96 123 97
f 97 123 98
f 98 123 124
f 98 124 125
f 98 125 121
f 99 121 100
f 100 121 126
f 100 126 112
f 102 127 128
f 102 128 103
f 103 128 129
f 103 129 104
f 104 130 105
f 104 129 131
f 104 131 130
f 105 130 117
f 106 109 132
f 106 132 133
f 106 133 134
f 106 134 135
f 106 135 136
f 106 136 137
f 106 137 138
f 106 138 139
f 106 139 107
f 107 139 140
f 107 140 141
f 107 141 142
f 107 142 110
f 107 110 108
f 109 112 143
f 109 143 132
f 110 142 144
f 110 144 145
f 110 145 111
f 111 145 146
f 112 126 143
f 113 147 148
f 113 148 114
f 114 148 149
f 114 149 115
f 115 149 150
f 115 150 116
f 116 150 151
f 117 130 152
f 117 152 153
f 117 153 119
f 119 122 120
f 119 153 154
f 119 154 155
f 119 155 156
f 119 156 157
f 119 157 122
f 121 125 158
f 121 158 159
f 121 159 160
f 121 160 161
f 121 161 126
f 122 157 162
f 122 162 163
f 122 163 124
f 122 124 123
f 124 158 125
f 124 163 158
f 126 161 133
f 126 133 143
f 127 164 128
f 128 164 165
f 128 165 129
f 129 166 131
f 129 165 167
f 129 167 168
f 129 168 169
f 129 169 166
f 130 131 166
f 130 166 170
f 130 170 152
f 132 143 133
f 133 161 171
f 133 171 172
f 133 172 173
f 133 173 174
f 133 174 134
f 134 174 175
f 134 175 135
f 135 175 136
f 136 175 137
f 137 175 176
f 137 176 177
f 137 177 138
f 138 178 179
f 138 179 139
f 138 177 178
f 139 179 140
f 140 179 180
f 140 180 181
f 140 181 141
f 141 181 180
f 141 180 142
f 142 180 182
f 142 182 144
f 144 182 183
f 144 183 184
f 144 184 145
f 145 184 185
f 145 185 146
f 147 186 187
f 147 187 188
f 147 188 148
f 148 188 189
f 148 189 149
f 149 189 190
f 149 190 150
f 150 191 192
f 150 192 193
f 150 193 151
f 150 190 191
f 152 170 194
f 152 194 195
f 152 195 196
f 152 196 197
f 152 197 154
f 152 154 153
f 154 197 198
f 154 198 155
f 155 198 156
f 156 198 199
f 156 199 200
f 156 200 201
f 156 201 157
f 157 201 202
f 157 202 163
f 157 163 162
f 158 163 159
f 159 163 203
f 159 203 160
f 160 203 204
f 160 204 161
f 161 204 205
f 161 205 206
f 161 206 171
f 163 202 203
f 164 207 165
f 165 207 208
f 165 208 167
f 166 169 195
f 166 195 194
f 166 194 170
f 167 208 244
f 167 244 209
f 167 209 168
f 168 209 210
f 168 210 211
f 168 211 195
f 168 195 169
f 171 206 212
f 171 212 172
f 172 212 173
f 173 212 213
f 173 213 174
f 174 213 214
f 174 214 175
f 175 215 176
f 175 214 215
f 176 216 177
f 176 215 216
f 177 216 217
f 177 217 178
f 178 217 218
f 178 218 219
f 178 219 180
f 178 180 179
f 180 219 220
f 180 220 182
f 182 220 183
f 183 220 221
f 183 221 222
f 183 222 184
f 184 222 223
f 184 223 224
f 184 224 185
f 186 225 187
f 187 225 226
f 187 226 227
f 187 227 228
f 187 228 188
f 188 228 229
f 188 229 189
f 189 230 231
f 189 231 190
f 189 229 230
f 190 231 232
f 190 232 191
f 191 232 233
f 191 233 234
f 191 234 192
f 192 235 193
f 192 234 277
f 192 277 235
f 195 211 196
f 196 211 236
f 196 236 237
f 196 237 198
f 196 198 197
f 198 237 199
f 199 237 200
f 200 237 238
f 200 238 239
f 200 239 240
f 200 240 241
f 200 241 201
f 201 241 202
f 202 241 242
f 202 242 203
f 203 242 243
f 203 243 205
f 203 205 204
f 205 243 206
f 206 243 212
f 209 244 245
f 209 245 246
f 209 246 210
f 210 246 247
f 210 247 248
f 210 248 211
f 211 248 249
f 211 249 250
f 211 250 236
f 212 251 213
f 212 243 252
f 212 252 251
f 213 251 253
f 213 253 214
f 214 253 254
f 214 254 215
f 215 254 255
f 215 255 216
f 216 255 256
f 216 256 217
f 217 257 218
f 217 256 257
f 218 257 258
f 218 258 259
f 218 259 219
f 219 259 220
f 220 259 221
f 221 260 222
f 221 259 261
f 221 261 260
f 222 260 262
f 222 262 223
f 223 262 263
f 223 263 264
f 223 264 224
f 226 265 227
f 227 266 267
f 227 267 268
f 227 268 228
f 227 265 266
f 228 268 269
f 228 269 229
f 229 269 230
f 230 269 270
f 230 270 271
f 230 271 272
f 230 272 231
f 231 272 232
f 232 272 273
f 232 273 274
f 232 274 275
f 232 275 233
f 233 275 234
f 234 276 277
f 234 275 278
f 234 278 276
f 236 250 279
f 236 279 280
f 236 280 281
f 236 281 282
f 236 282 237
f 237 282 238
f 238 283 240
f 238 240 239
f 238 282 284
f 238 284 283
f 240 285 242
f 240 242 241
f 240 283 286
f 240 286 287
f 240 287 285
f 242 285 243
f 243 285 287
f 243 287 252
f 245 288 289
f 245 289 246
f 246 289 247
f 247 289 290
f 247 290 248
f 248 290 291
f 248 291 292
f 248 292 293
f 248 293 294
f 248 294 250
f 248 250 249
f 250 294 279
f 251 252 286
f 251 286 253
f 252 287 286
f 253 295 254
f 253 286 295
f 254 295 296
f 254 296 255
f 255 297 256
f 255 296 297
f 256 297 298
f 256 298 257
f 257 298 299
f 257 299 258
f 258 299 261
f 258 261 259
f 260 261 300
f 260 300 262
f 261 301 300
f 261 299 301
f 262 300 302
f 262 302 303
f 262 303 263
f 265 304 266
f 266 304 305
f 266 305 306
f 266 306 267
f 267 306 307
f 267 307 308
f 267 308 309
f 267 309 268
f 268 309 269
f 269 309 270
f 270 309 271
f 271 309 310
f 271 310 311
f 271 311 274
f 271 274 272
f 272 274 273
f 274 311 312
f 274 312 313
f 274 313 275
f 275 313 314
f 275 314 278
f 276 278 315
f 278 314 344
f 278 344 315
f 279 293 316
f 279 316 317
f 279 317 281
f 279 281 280
f 279 294 293
f 281 317 318
f 281 318 319
f 281 319 282
f 282 319 320
f 282 320 284
f 283 284 321
f 283 321 322
f 283 322 286
f 284 320 323
f 284 323 321
f 286 322 295
f 288 324 325
f 288 325 289
f 289 325 290
f 290 325 291
f 291 325 326
f 291 326 292
f 292 327 328
f 292 328 329
f 292 329 293
f 292 326 327
f 293 329 316
f 295 322 321
f 295 321 296
f 296 321 330
f 296 330 297
f 297 330 299
f 297 299 298
f 299 331 332
f 299 332 301
f 299 330 331
f 300 301 333
f 300 333 334
f 300 334 302
f 301 332 333
f 302 335 303
f 302 334 336
f 302 336 335
f 305 337 306
f 306 337 336
f 306 336 334
f 306 334 307
f 307 334 333
f 307 333 338
f 307 338 308
f 308 338 339
f 308 339 340
f 308 340 310
f 308 310 309
f 310 340 341
f 310 341 311
f 311 341 342
f 311 342 312
f 312 342 329
f 312 329 328
f 312 328 313
f 313 328 343
f 313 343 314
f 314 343 360
f 314 360 344
f 316 318 317
f 316 329 342
f 316 342 345
f 316 345 318
f 318 345 346
f 318 346 320
f 318 320 319
f 320 346 347
f 320 347 323
f 321 323 348
f 321 348 330
f 323 347 348
f 324 349 325
f 325 349 326
f 326 350 351
f 326 351 327
f 326 349 350
f 327 352 353
f 327 353 343
f 327 343 328
f 327 351 352
f 330 348 354
f 330 354 355
f 330 355 331
f 331 339 332
f 331 355 356
f 331 356 339
f 332 339 338
f 332 338 333
f 335 336 357
f 336 337 357
f 339 356 340
f 340 356 358
f 340 358 341
f 341 358 359
f 341 359 347
f 341 347 345
f 341 345 342
f 343 353 360
f 345 347 346
f 347 359 354
f 347 354 348
f 354 358 356
f 354 356 355
f 354 359 358

