# https://github.com/mikedh/trimesh
v 0.00002202 -0.08801617 -0.00087407
v 0.00002202 -0.08801617 0.00087426
v 0.00002202 -0.08784385 -0.00139920
v 0.03584219 -0.08801617 -0.00087407
v 0.03584219 -0.08801617 0.00087426
v 0.00002202 -0.08765429 0.00195157
v 0.00002202 -0.08765429 -0.00195138
v 0.03933713 -0.08765429 -0.00195138
v 0.04109052 -0.08765429 -0.00195041
v 0.04283799 -0.08765429 -0.00194800
v 0.04458546 -0.08765429 -0.00194365
v 0.04283799 -0.08799895 -0.00087407
v 0.04283799 -0.08799895 0.00087426
v 0.04458546 -0.08765429 0.00194336
v 0.04283799 -0.08765429 0.00194819
v 0.04109052 -0.08765429 0.00195012
v 0.03933713 -0.08765429 0.00195109
v 0.03758966 -0.08765429 0.00195157
v 0.00002202 -0.08655144 0.00231921
v 0.00002202 -0.08712010 -0.00213061
v 0.03933713 -0.08655144 -0.00231902
v 0.04109052 -0.08655144 -0.00231853
v 0.04283799 -0.08655144 -0.00231757
v 0.04458546 -0.08655144 -0.00231564
v 0.04633293 -0.08655144 -0.00231080
v 0.04808040 -0.08655144 -0.00229969
v 0.04633293 -0.08763707 -0.00193495
v 0.04458546 -0.08798171 -0.00087407
v 0.04458546 -0.08798171 0.00087426
v 0.04633293 -0.08763707 0.00193466
v 0.04808040 -0.08655144 0.00229940
v 0.04633293 -0.08655144 0.00231100
v 0.04458546 -0.08655144 0.00231583
v 0.04283799 -0.08655144 0.00231776
v 0.04109052 -0.08655144 0.00231873
v 0.03059385 -0.08655144 0.00231921
v 0.05332873 -0.08479377 0.00246027
v 0.05332873 0.08480452 0.00246027
v 0.00002202 0.08654496 0.00231873
v 0.00002202 -0.08655144 -0.00231902
v 0.05332873 -0.08479377 -0.00246008
v 0.04982787 -0.08655144 -0.00227264
v 0.04808040 -0.08761983 -0.00191901
v 0.04633293 -0.08794723 -0.00087407
v 0.04633293 -0.08794723 0.00087426
v 0.04808040 -0.08761983 0.00191872
v 0.04982787 -0.08655144 0.00227235
v 0.05507620 -0.08479377 0.00241824
v 0.05682367 -0.08305333 0.00245061
v 0.05682367 -0.08129565 0.00246655
v 0.05682367 0.08130640 0.00246800
v 0.05507620 0.08480452 0.00241776
v 0.04982787 0.08654496 0.00227187
v 0.04808040 0.08654496 0.00229892
v 0.04633293 0.08654496 0.00231003
v 0.04458546 0.08654496 0.00231486
v 0.04283799 0.08654496 0.00231728
v 0.04109052 0.08654496 0.00231824
v 0.03758966 0.08654496 0.00231873
v 0.05682367 0.08304684 0.00245013
v 0.00002202 0.08766504 0.00195109
v 0.00002202 0.08654496 -0.00227409
v 0.05682367 0.08130640 -0.00246733
v 0.05682367 -0.08129565 -0.00246685
v 0.05682367 -0.08305333 -0.00245042
v 0.05507620 -0.08479377 -0.00241854
v 0.05158126 -0.08655144 -0.00221805
v 0.04982787 -0.08756814 -0.00188809
v 0.04808040 -0.08789554 -0.00087407
v 0.04808040 -0.08789554 0.00087426
v 0.04982787 -0.08756814 0.00188780
v 0.05158126 -0.08655144 0.00221824
v 0.05330503 -0.08667207 0.00206268
v 0.05507620 -0.08624127 0.00204143
v 0.05682367 -0.08479377 0.00220906
v 0.05869554 -0.08313949 0.00206848
v 0.05857114 -0.08129565 0.00230906
v 0.05857114 -0.07955521 0.00236317
v 0.05857114 -0.07779754 0.00237960
v 0.05857114 -0.07605710 0.00238443
v 0.05857114 -0.07429942 0.00238636
v 0.05857114 0.07431017 0.00238636
v 0.05857114 0.07605061 0.00238443
v 0.05857114 0.07780828 0.00237960
v 0.05857114 0.07954872 0.00236317
v 0.05682367 0.08480452 0.00220810
v 0.05507620 0.08623478 0.00204143
v 0.05329911 0.08666558 0.00206220
v 0.05158126 0.08654496 0.00221728
v 0.04982787 0.08757887 0.00188684
v 0.04808040 0.08761335 0.00191824
v 0.04633293 0.08763059 0.00193418
v 0.04458546 0.08764780 0.00194288
v 0.04283799 0.08766504 0.00194722
v 0.04109052 0.08766504 0.00194964
v 0.03933713 0.08766504 0.00195061
v 0.03758966 0.08766504 0.00195109
v 0.05857114 0.08130640 0.00230906
v 0.05869554 0.08313300 0.00206800
v 0.01486663 0.08802692 0.00087426
v 0.00002202 0.08800968 0.00087426
v 0.00002202 0.08764780 -0.00193157
v 0.03059385 0.08764780 -0.00192964
v 0.03234725 0.08764780 -0.00192819
v 0.04633293 0.08654496 -0.00222723
v 0.05332873 0.08480452 -0.00242578
v 0.05682367 0.08304684 -0.00244704
v 0.05857114 0.07954872 -0.00236298
v 0.05857114 0.07780828 -0.00237940
v 0.05857114 0.07605061 -0.00238472
v 0.05857114 0.07431017 -0.00238617
v 0.05857114 -0.07429942 -0.00238617
v 0.05857114 -0.07605710 -0.00238472
v 0.05857114 -0.07779754 -0.00237989
v 0.05869554 -0.08313949 -0.00206829
v 0.05682367 -0.08479377 -0.00220935
v 0.05857114 -0.07955521 -0.00236298
v 0.05857114 -0.08129565 -0.00230887
v 0.05507620 -0.08624127 -0.00204172
v 0.05330503 -0.08667207 -0.00206297
v 0.05158126 -0.08751644 -0.00183447
v 0.04982787 -0.08779215 -0.00087407
v 0.04982787 -0.08779215 0.00087426
v 0.05158126 -0.08751644 0.00183466
v 0.05270675 -0.08744751 0.00178394
v 0.05682367 -0.08587939 0.00187669
v 0.05809133 -0.08479377 0.00189940
v 0.05772406 -0.08568984 0.00176268
v 0.05957816 -0.08260529 0.00184529
v 0.05971440 -0.08129565 0.00192887
v 0.05982103 -0.07955521 0.00197814
v 0.05986842 -0.07779754 0.00199602
v 0.05989211 -0.07605710 0.00200278
v 0.05990396 -0.07429942 0.00200568
v 0.05990396 -0.07255898 0.00200616
v 0.05990396 0.07255249 0.00200616
v 0.05990396 0.07431017 0.00200568
v 0.05989211 0.07605061 0.00200278
v 0.05986842 0.07780828 0.00199602
v 0.05982103 0.07954872 0.00197766
v 0.05808540 0.08480452 0.00189891
v 0.05771814 0.08568335 0.00176220
v 0.05682367 0.08587290 0.00187621
v 0.05270083 0.08745827 0.00178345
v 0.05158126 0.08750996 0.00183370
v 0.04808040 0.08788906 0.00087426
v 0.04633293 0.08794075 0.00087426
v 0.04458546 0.08797523 0.00087426
v 0.04109052 0.08800968 0.00087426
v 0.05971440 0.08130640 0.00192887
v 0.05957816 0.08261604 0.00184481
v 0.04109052 0.08799244 -0.00087407
v 0.00002202 0.08800968 -0.00002188
v 0.00002202 0.08782012 -0.00141466
v 0.04283799 0.08764780 -0.00191708
v 0.04808040 0.08654496 -0.00222530
v 0.04982787 0.08654496 -0.00220935
v 0.05507620 0.08480452 -0.00240356
v 0.05869554 0.08313300 -0.00206781
v 0.05857114 0.08130640 -0.00230887
v 0.05682367 0.08480452 -0.00220549
v 0.05982103 0.07954872 -0.00197795
v 0.05986842 0.07780828 -0.00199582
v 0.05989211 0.07605061 -0.00200307
v 0.05990396 0.07431017 -0.00200549
v 0.05990396 0.07255249 -0.00200645
v 0.05990396 -0.07080131 -0.00200645
v 0.05990396 -0.07255898 -0.00200597
v 0.05990396 -0.07429942 -0.00200549
v 0.05989211 -0.07605710 -0.00200307
v 0.05986842 -0.07779754 -0.00199582
v 0.05809133 -0.08479377 -0.00189969
v 0.05957816 -0.08260529 -0.00184510
v 0.05772406 -0.08568984 -0.00176297
v 0.05682367 -0.08587939 -0.00187698
v 0.05982103 -0.07955521 -0.00197795
v 0.05971440 -0.08129565 -0.00192916
v 0.05270675 -0.08744751 -0.00178423
v 0.05158126 -0.08765429 -0.00087407
v 0.05158126 -0.08765429 0.00087426
v 0.05285484 -0.08748197 0.00087426
v 0.05373154 -0.08730966 0.00087426
v 0.05507620 -0.08687885 0.00087426
v 0.05682367 -0.08613787 0.00087426
v 0.05848821 -0.08479377 0.00087426
v 0.05934121 -0.08372538 0.00087426
v 0.05969663 -0.08284654 0.00087426
v 0.06011128 -0.08129565 0.00087426
v 0.06036008 -0.07955521 0.00087426
v 0.06047263 -0.07779754 0.00087426
v 0.06051409 -0.07605710 0.00087426
v 0.06053186 -0.07429942 0.00087426
v 0.06053779 -0.07080131 0.00087426
v 0.06053779 0.07081205 0.00087426
v 0.06053186 0.07431017 0.00087426
v 0.06051409 0.07605061 0.00087426
v 0.06047263 0.07780828 0.00087426
v 0.06035415 0.07954872 0.00087426
v 0.05682367 0.08613138 0.00087426
v 0.05507620 0.08687236 0.00087426
v 0.05934121 0.08373612 0.00087426
v 0.05848821 0.08480452 0.00087426
v 0.05771814 0.08568335 -0.00176249
v 0.05284892 0.08749272 0.00087426
v 0.05158126 0.08764780 0.00087426
v 0.04982787 0.08780291 0.00087426
v 0.05371969 0.08730317 0.00087426
v 0.04808040 0.08788906 -0.00087407
v 0.04633293 0.08794075 -0.00087407
v 0.04458546 0.08797523 -0.00087407
v 0.06011128 0.08130640 0.00087426
v 0.05969663 0.08285728 0.00087426
v 0.00002202 0.08799244 -0.00087407
v 0.04633293 0.08763059 -0.00191370
v 0.04808040 0.08761335 -0.00190404
v 0.05158126 0.08654496 -0.00217312
v 0.05329911 0.08666558 -0.00204462
v 0.05507620 0.08623478 -0.00203544
v 0.05957816 0.08261604 -0.00184510
v 0.05808540 0.08480452 -0.00189872
v 0.05971440 0.08130640 -0.00192916
v 0.05682367 0.08587290 -0.00187602
v 0.06035415 0.07954872 -0.00087407
v 0.06047263 0.07780828 -0.00087407
v 0.06051409 0.07605061 -0.00087407
v 0.06053186 0.07431017 -0.00087407
v 0.06053779 0.07081205 -0.00087407
v 0.06053779 -0.07080131 -0.00087407
v 0.06053186 -0.07429942 -0.00087407
v 0.06051409 -0.07605710 -0.00087407
v 0.06047263 -0.07779754 -0.00087407
v 0.05969663 -0.08284654 -0.00087407
v 0.05934121 -0.08372538 -0.00087407
v 0.06036008 -0.07955521 -0.00087407
v 0.06011128 -0.08129565 -0.00087407
v 0.05682367 -0.08613787 -0.00087407
v 0.05507620 -0.08687885 -0.00087407
v 0.05848821 -0.08479377 -0.00087407
v 0.05285484 -0.08748197 -0.00087407
v 0.05373154 -0.08730966 -0.00087407
v 0.05682367 0.08613138 -0.00087407
v 0.05507620 0.08687236 -0.00087407
v 0.05934121 0.08373612 -0.00087407
v 0.05848821 0.08480452 -0.00087407
v 0.05270083 0.08745827 -0.00178278
v 0.05284892 0.08749272 -0.00087407
v 0.05158126 0.08764780 -0.00087407
v 0.04982787 0.08780291 -0.00087407
v 0.05371969 0.08730317 -0.00087407
v 0.05158126 0.08750996 -0.00183060
v 0.04982787 0.08757887 -0.00187891
v 0.06011128 0.08130640 -0.00087407
v 0.05969663 0.08285728 -0.00087407
f 1 2 6
f 1 6 19
f 1 19 39
f 1 39 61
f 1 61 101
f 1 101 153
f 1 153 213
f 1 213 154
f 1 154 102
f 1 102 62
f 1 62 40
f 1 40 20
f 1 20 7
f 1 7 3
f 1 3 4
f 1 4 5
f 1 5 2
f 2 5 18
f 2 18 6
f 3 7 8
f 3 8 4
f 4 8 9
f 4 9 10
f 4 10 11
f 4 11 12
f 4 12 13
f 4 13 5
f 5 13 14
f 5 14 15
f 5 15 16
f 5 16 17
f 5 17 18
f 6 18 36
f 6 36 19
f 7 20 8
f 8 20 21
f 8 21 22
f 8 22 9
f 9 22 23
f 9 23 24
f 9 24 10
f 10 24 11
f 11 24 25
f 11 25 26
f 11 26 27
f 11 27 28
f 11 28 12
f 12 28 29
f 12 29 13
f 13 29 14
f 14 30 31
f 14 31 32
f 14 32 33
f 14 33 15
f 14 29 30
f 15 33 34
f 15 34 16
f 16 34 35
f 16 35 17
f 17 35 18
f 18 35 36
f 19 36 37
f 19 37 38
f 19 38 39
f 20 40 21
f 21 40 41
f 21 41 22
f 22 41 23
f 23 41 24
f 24 41 25
f 25 41 26
f 26 42 43
f 26 43 27
f 26 41 42
f 27 43 28
f 28 44 45
f 28 45 29
f 28 43 44
f 29 45 46
f 29 46 30
f 30 46 31
f 31 46 47
f 31 47 37
f 31 37 32
f 32 37 33
f 33 37 34
f 34 37 35
f 35 37 36
f 37 47 48
f 37 48 49
f 37 49 50
f 37 50 51
f 37 51 38
f 38 52 53
f 38 53 54
f 38 54 55
f 38 55 56
f 38 56 57
f 38 57 58
f 38 58 59
f 38 59 39
f 38 51 60
f 38 60 52
f 39 59 97
f 39 97 61
f 40 62 63
f 40 63 41
f 41 64 65
f 41 65 66
f 41 66 42
f 41 63 64
f 42 67 68
f 42 68 43
f 42 66 67
f 43 69 44
f 43 68 69
f 44 69 70
f 44 70 45
f 45 70 46
f 46 70 71
f 46 71 47
f 47 71 72
f 47 72 48
f 48 72 73
f 48 73 74
f 48 74 75
f 48 75 49
f 49 75 76
f 49 76 77
f 49 77 78
f 49 78 79
f 49 79 50
f 50 79 80
f 50 80 81
f 50 81 51
f 51 82 83
f 51 83 84
f 51 84 85
f 51 85 60
f 51 81 82
f 52 86 87
f 52 87 88
f 52 88 89
f 52 89 53
f 52 60 86
f 53 89 90
f 53 90 91
f 53 91 54
f 54 91 92
f 54 92 93
f 54 93 55
f 55 93 94
f 55 94 56
f 56 94 95
f 56 95 57
f 57 95 58
f 58 95 96
f 58 96 97
f 58 97 59
f 60 85 98
f 60 98 99
f 60 99 86
f 61 97 100
f 61 100 101
f 62 102 103
f 62 103 104
f 62 104 105
f 62 105 106
f 62 106 63
f 63 106 107
f 63 107 108
f 63 108 109
f 63 109 110
f 63 110 111
f 63 111 112
f 63 112 64
f 64 112 113
f 64 113 114
f 64 114 65
f 65 115 116
f 65 116 66
f 65 114 117
f 65 117 118
f 65 118 115
f 66 116 119
f 66 119 120
f 66 120 67
f 67 120 121
f 67 121 68
f 68 121 69
f 69 121 122
f 69 122 123
f 69 123 70
f 70 123 124
f 70 124 71
f 71 124 72
f 72 124 73
f 73 124 125
f 73 125 74
f 74 125 126
f 74 126 75
f 75 127 76
f 75 126 128
f 75 128 127
f 76 127 129
f 76 129 77
f 77 129 130
f 77 130 131
f 77 131 78
f 78 131 132
f 78 132 79
f 79 132 133
f 79 133 134
f 79 134 80
f 80 134 81
f 81 134 135
f 81 135 136
f 81 136 82
f 82 136 137
f 82 137 83
f 83 137 84
f 84 137 138
f 84 138 139
f 84 139 85
f 85 140 98
f 85 139 140
f 86 99 141
f 86 141 142
f 86 142 143
f 86 143 87
f 87 143 144
f 87 144 88
f 88 144 145
f 88 145 89
f 89 145 90
f 90 145 146
f 90 146 147
f 90 147 91
f 91 147 148
f 91 148 92
f 92 148 93
f 93 148 94
f 94 148 149
f 94 149 100
f 94 100 95
f 95 100 96
f 96 100 97
f 98 140 150
f 98 150 151
f 98 151 99
f 99 151 141
f 100 149 152
f 100 152 153
f 100 153 101
f 102 154 103
f 103 154 152
f 103 152 104
f 104 152 155
f 104 155 105
f 105 156 106
f 105 155 156
f 106 156 157
f 106 157 158
f 106 158 107
f 107 159 160
f 107 160 108
f 107 158 161
f 107 161 159
f 108 160 162
f 108 162 163
f 108 163 109
f 109 163 164
f 109 164 165
f 109 165 110
f 110 165 111
f 111 165 166
f 111 166 167
f 111 167 112
f 112 167 168
f 112 168 169
f 112 169 113
f 113 169 114
f 114 169 170
f 114 170 171
f 114 171 117
f 115 172 116
f 115 118 173
f 115 173 172
f 116 172 174
f 116 174 175
f 116 175 119
f 117 171 176
f 117 176 118
f 118 177 173
f 118 176 177
f 119 175 178
f 119 178 120
f 120 178 121
f 121 178 122
f 122 179 180
f 122 180 123
f 122 178 179
f 123 180 125
f 123 125 124
f 125 180 181
f 125 181 182
f 125 182 183
f 125 183 128
f 125 128 126
f 127 128 129
f 128 183 184
f 128 184 236
f 128 236 174
f 128 174 238
f 128 238 185
f 128 185 186
f 128 186 129
f 129 186 187
f 129 187 188
f 129 188 189
f 129 189 130
f 130 189 131
f 131 189 190
f 131 190 132
f 132 190 191
f 132 191 133
f 133 191 192
f 133 192 134
f 134 192 193
f 134 193 135
f 135 193 194
f 135 194 136
f 136 194 137
f 137 194 195
f 137 195 138
f 138 196 139
f 138 195 196
f 139 196 197
f 139 197 140
f 140 197 198
f 140 198 150
f 141 151 142
f 142 199 200
f 142 200 144
f 142 144 143
f 142 151 201
f 142 201 202
f 142 202 244
f 142 244 203
f 142 203 241
f 142 241 199
f 144 204 205
f 144 205 206
f 144 206 145
f 144 200 207
f 144 207 204
f 145 206 146
f 146 206 248
f 146 248 208
f 146 208 209
f 146 209 147
f 147 209 210
f 147 210 148
f 148 210 149
f 149 210 152
f 150 198 151
f 151 198 211
f 151 211 212
f 151 212 201
f 152 210 155
f 152 154 213
f 152 213 153
f 155 210 214
f 155 214 156
f 156 214 215
f 156 215 157
f 157 216 158
f 157 215 216
f 158 216 217
f 158 217 218
f 158 218 161
f 159 219 160
f 159 161 220
f 159 220 219
f 160 219 221
f 160 221 162
f 161 218 222
f 161 222 203
f 161 203 220
f 162 223 224
f 162 224 163
f 162 221 223
f 163 224 225
f 163 225 164
f 164 225 226
f 164 226 165
f 165 226 227
f 165 227 166
f 166 227 228
f 166 228 167
f 167 228 168
f 168 228 169
f 169 228 229
f 169 229 170
f 170 230 171
f 170 229 230
f 171 231 176
f 171 230 231
f 172 173 174
f 173 232 233
f 173 233 174
f 173 177 234
f 173 234 235
f 173 235 232
f 174 236 237
f 174 237 178
f 174 178 175
f 174 233 238
f 176 234 177
f 176 231 234
f 178 239 179
f 178 237 240
f 178 240 239
f 179 239 181
f 179 181 180
f 181 239 240
f 181 240 182
f 182 240 237
f 182 237 183
f 183 237 236
f 183 236 184
f 185 238 233
f 185 233 186
f 186 233 232
f 186 232 187
f 187 232 235
f 187 235 188
f 188 235 234
f 188 234 189
f 189 234 231
f 189 231 190
f 190 231 230
f 190 230 191
f 191 230 229
f 191 229 192
f 192 229 228
f 192 228 193
f 193 228 227
f 193 227 194
f 194 227 226
f 194 226 195
f 195 226 225
f 195 225 196
f 196 225 224
f 196 224 197
f 197 224 223
f 197 223 198
f 198 223 252
f 198 252 211
f 199 241 242
f 199 242 200
f 200 242 249
f 200 249 207
f 201 212 253
f 201 253 243
f 201 243 244
f 201 244 202
f 203 222 245
f 203 245 242
f 203 242 241
f 203 244 243
f 203 243 219
f 203 219 220
f 204 207 249
f 204 249 246
f 204 246 247
f 204 247 205
f 205 247 248
f 205 248 206
f 208 248 250
f 208 250 251
f 208 251 209
f 209 251 215
f 209 215 210
f 210 215 214
f 211 252 253
f 211 253 212
f 215 251 216
f 216 251 250
f 216 250 217
f 217 250 245
f 217 245 218
f 218 245 222
f 219 253 252
f 219 252 223
f 219 223 221
f 219 243 253
f 242 245 249
f 245 250 248
f 245 248 247
f 245 247 246
f 245 246 249

