# https://github.com/mikedh/trimesh
v -0.06053779 -0.07080200 -0.00087405
v -0.05990350 -0.07255960 -0.00200611
v -0.05990350 -0.07429997 -0.00200563
v -0.06053186 -0.07429997 -0.00087405
v -0.06053779 -0.07080200 0.00087405
v -0.06053779 0.07080556 -0.00087405
v -0.05857564 -0.07429997 -0.00238636
v -0.05990350 0.07256316 -0.00200611
v -0.05857564 -0.07605757 -0.00238443
v -0.05857564 -0.07779795 -0.00237960
v -0.05989164 -0.07605757 -0.00200273
v -0.06053186 -0.07429997 0.00087405
v -0.06051407 -0.07605757 -0.00087405
v -0.05990350 -0.07429997 0.00200563
v -0.05990350 -0.07255960 0.00200611
v -0.06053779 0.07080556 0.00087405
v -0.06053186 0.07430353 -0.00087405
v -0.05990350 0.07430353 -0.00200563
v -0.05682690 -0.08129592 -0.00246415
v -0.05857564 0.07430353 -0.00238636
v -0.05682690 0.08129947 -0.00246802
v -0.05986793 -0.07779795 -0.00199596
v -0.05682690 -0.08305352 -0.00245062
v -0.05857564 -0.07955555 -0.00236317
v -0.06051407 -0.07605757 0.00087405
v -0.05989164 -0.07605757 0.00200273
v -0.06047258 -0.07779795 -0.00087405
v -0.05857564 -0.07429997 0.00238636
v -0.05857564 -0.07779795 0.00237960
v -0.05857564 -0.07605757 0.00238443
v -0.05990350 0.07256316 0.00200611
v -0.05990350 0.07430353 0.00200563
v -0.06053186 0.07430353 0.00087405
v -0.06051407 0.07606113 -0.00087405
v -0.05989164 0.07606113 -0.00200273
v -0.05857564 0.07780150 -0.00237960
v -0.05857564 0.07606113 -0.00238443
v -0.05332941 -0.08479389 -0.00245642
v -0.05857564 0.07955910 -0.00236317
v -0.05682690 0.08305707 -0.00245014
v -0.05332941 0.08479744 -0.00246029
v -0.05982051 -0.07955555 -0.00197809
v -0.05869420 -0.08313967 -0.00206844
v -0.05857564 -0.08129592 -0.00230906
v -0.05507816 -0.08479389 -0.00241873
v -0.05682690 -0.08479389 -0.00220904
v -0.06047258 -0.07779795 0.00087405
v -0.05986793 -0.07779795 0.00199596
v -0.06035995 -0.07955555 -0.00087405
v -0.05682690 -0.08129592 0.00246415
v -0.05682690 0.08129947 0.00246802
v -0.05857564 0.07430353 0.00238636
v -0.05857564 -0.07955555 0.00236317
v -0.05682690 -0.08305352 0.00245062
v -0.05857564 0.07606113 0.00238443
v -0.05857564 0.07780150 0.00237960
v -0.05989164 0.07606113 0.00200273
v -0.06051407 0.07606113 0.00087405
v -0.06047258 0.07780150 -0.00087405
v -0.05986793 0.07780150 -0.00199596
v 0.00002202 -0.08655149 -0.00231920
v -0.03933948 -0.08655149 -0.00231920
v -0.04283697 -0.08655149 -0.00231824
v -0.04458571 -0.08655149 -0.00231630
v -0.04633445 -0.08655149 -0.00231099
v -0.04808319 -0.08655149 -0.00229988
v -0.04983193 -0.08655149 -0.00227282
v -0.05982051 0.07955910 -0.00197809
v -0.05857564 0.08129947 -0.00230906
v -0.05869420 0.08314323 -0.00206796
v -0.05682690 0.08479744 -0.00220807
v -0.05507816 0.08479744 -0.00241777
v -0.04983193 0.08653781 -0.00227185
v -0.04808319 0.08653781 -0.00229891
v -0.04633445 0.08653781 -0.00231002
v -0.04458571 0.08653781 -0.00231534
v -0.04283697 0.08653781 -0.00231727
v -0.04108823 0.08653781 -0.00231824
v -0.03234452 0.08653781 -0.00231872
v -0.01486303 0.08653781 -0.00231872
v -0.01137148 0.08653781 -0.00231824
v -0.00962274 0.08653781 -0.00231679
v -0.00787399 0.08653781 -0.00231389
v -0.00612525 0.08653781 -0.00230954
v -0.05971380 -0.08129592 -0.00192929
v -0.05957746 -0.08260550 -0.00184522
v -0.05808955 -0.08479389 -0.00189933
v -0.05158068 -0.08655149 -0.00221822
v -0.05330570 -0.08667211 -0.00206264
v -0.05507816 -0.08624133 -0.00204138
v -0.05682690 -0.08587947 -0.00187662
v -0.05772202 -0.08568992 -0.00176259
v -0.06035995 -0.07955555 0.00087405
v -0.05982051 -0.07955555 0.00197809
v -0.06011097 -0.08129592 -0.00087405
v -0.05332941 -0.08479389 0.00245642
v -0.05332941 0.08479744 0.00246029
v -0.05682690 0.08305707 0.00245014
v -0.05857564 0.07955910 0.00236317
v -0.05857564 -0.08129592 0.00230906
v -0.05869420 -0.08313967 0.00206844
v -0.05682690 -0.08479389 0.00220904
v -0.05507816 -0.08479389 0.00241873
v -0.05986793 0.07780150 0.00199596
v -0.06047258 0.07780150 0.00087405
v -0.06035995 0.07955910 -0.00087405
v 0.00002202 -0.08712012 -0.00213077
v -0.00437651 0.08653781 -0.00230326
v -0.00262777 0.08653781 -0.00229408
v -0.00087903 0.08653781 -0.00228200
v 0.00002202 0.08653781 -0.00227427
v -0.03759074 -0.08765431 -0.00195151
v -0.03933948 -0.08765431 -0.00195103
v -0.04108823 -0.08765431 -0.00195006
v -0.04283697 -0.08765431 -0.00194813
v -0.04458571 -0.08765431 -0.00194330
v -0.04633445 -0.08763707 -0.00193508
v -0.04808319 -0.08761983 -0.00191914
v -0.04983193 -0.08756814 -0.00188773
v -0.05971380 0.08129947 -0.00192880
v -0.05957746 0.08260905 -0.00184473
v -0.05808955 0.08479744 -0.00189885
v -0.05772202 0.08569347 -0.00176211
v -0.05682690 0.08588302 -0.00187614
v -0.05507816 0.08624488 -0.00204138
v -0.05329978 0.08667566 -0.00206216
v -0.05158068 0.08653781 -0.00221725
v -0.04983193 0.08757170 -0.00188677
v -0.04808319 0.08762339 -0.00191817
v -0.04633445 0.08764061 -0.00193412
v -0.04458571 0.08765785 -0.00194281
v -0.04283697 0.08765785 -0.00194716
v -0.04108823 0.08765785 -0.00194958
v -0.03933948 0.08765785 -0.00195055
v -0.03759074 0.08765785 -0.00195103
v -0.01311429 0.08765785 -0.00195103
v -0.00962274 0.08765785 -0.00195006
v -0.00787399 0.08765785 -0.00194861
v -0.00612525 0.08765785 -0.00194668
v -0.00437651 0.08765785 -0.00194378
v -0.00262777 0.08765785 -0.00193992
v -0.00087903 0.08765785 -0.00193508
v -0.05969602 -0.08284674 -0.00087405
v -0.05934035 -0.08372555 -0.00087405
v -0.05158068 -0.08751644 -0.00183459
v -0.05270698 -0.08744753 -0.00178385
v -0.05507816 -0.08687889 -0.00087405
v -0.05682690 -0.08613794 -0.00087405
v -0.05772202 -0.08568992 0.00176259
v -0.05848672 -0.08479389 -0.00087405
v -0.06011097 -0.08129592 0.00087405
v -0.05957746 -0.08260550 0.00184522
v -0.05971380 -0.08129592 0.00192929
v -0.04983193 -0.08655149 0.00227282
v -0.04808319 -0.08655149 0.00229988
v -0.04633445 -0.08655149 0.00231099
v -0.04458571 -0.08655149 0.00231630
v -0.04283697 -0.08655149 0.00231824
v -0.03933948 -0.08655149 0.00231920
v 0.00002202 -0.08655149 0.00231920
v -0.05507816 0.08479744 0.00241777
v 0.00002202 0.08653781 0.00231872
v -0.03234452 0.08653781 0.00231872
v -0.04108823 0.08653781 0.00231824
v -0.04283697 0.08653781 0.00231727
v -0.04458571 0.08653781 0.00231534
v -0.04633445 0.08653781 0.00231002
v -0.04808319 0.08653781 0.00229891
v -0.04983193 0.08653781 0.00227185
v -0.05682690 0.08479744 0.00220807
v -0.05869420 0.08314323 0.00206796
v -0.05857564 0.08129947 0.00230906
v -0.05982051 0.07955910 0.00197809
v -0.05808955 -0.08479389 0.00189933
v -0.05682690 -0.08587947 0.00187662
v -0.05507816 -0.08624133 0.00204138
v -0.05330570 -0.08667211 0.00206264
v -0.05158068 -0.08655149 0.00221822
v -0.06035995 0.07955910 0.00087405
v -0.06011097 0.08129947 -0.00087405
v 0.00002202 -0.08765431 -0.00195151
v 0.00002202 0.08708922 -0.00210516
v 0.00002202 -0.08784385 -0.00139925
v -0.03584200 -0.08801617 -0.00087405
v -0.04283697 -0.08799893 -0.00087405
v -0.04458571 -0.08798169 -0.00087405
v -0.04633445 -0.08794723 -0.00087405
v -0.04808319 -0.08789554 -0.00087405
v -0.05969602 0.08285030 -0.00087405
v -0.05934035 0.08372910 -0.00087405
v -0.05772202 0.08569347 0.00176211
v -0.05682690 0.08614149 -0.00087405
v -0.05507816 0.08688244 -0.00087405
v -0.05270105 0.08745107 -0.00178337
v -0.05848672 0.08479744 -0.00087405
v -0.05158068 0.08752001 -0.00183362
v -0.04808319 0.08789910 -0.00087405
v -0.04633445 0.08795080 -0.00087405
v -0.04458571 0.08798525 -0.00087405
v -0.04283697 0.08800249 -0.00087405
v 0.00002202 0.08800249 -0.00087405
v 0.00002202 0.08764061 -0.00193170
v -0.05969602 -0.08284674 0.00087405
v -0.05934035 -0.08372555 0.00087405
v -0.04983193 -0.08779215 -0.00087405
v -0.05158068 -0.08765431 -0.00087405
v -0.05285518 -0.08748199 -0.00087405
v -0.05373251 -0.08730967 -0.00087405
v -0.05507816 -0.08687889 0.00087405
v -0.05682690 -0.08613794 0.00087405
v -0.05848672 -0.08479389 0.00087405
v -0.05270698 -0.08744753 0.00178385
v -0.04983193 -0.08756814 0.00188773
v -0.04808319 -0.08761983 0.00191914
v -0.04633445 -0.08763707 0.00193508
v -0.04458571 -0.08765431 0.00194330
v -0.04283697 -0.08765431 0.00194813
v -0.04108823 -0.08765431 0.00195006
v -0.03933948 -0.08765431 0.00195103
v -0.03759074 -0.08765431 0.00195151
v 0.00002202 -0.08765431 0.00195151
v -0.05158068 0.08653781 0.00221725
v -0.05329978 0.08667566 0.00206216
v -0.05507816 0.08624488 0.00204138
v 0.00002202 0.08712368 0.00213028
v -0.03759074 0.08765785 0.00195103
v -0.03933948 0.08765785 0.00195055
v -0.04108823 0.08765785 0.00194958
v -0.04283697 0.08765785 0.00194716
v -0.04458571 0.08765785 0.00194281
v -0.04633445 0.08764061 0.00193412
v -0.04808319 0.08762339 0.00191817
v -0.04983193 0.08757170 0.00188677
v -0.05682690 0.08588302 0.00187614
v -0.05808955 0.08479744 0.00189885
v -0.05957746 0.08260905 0.00184473
v -0.05971380 0.08129947 0.00192880
v -0.05158068 -0.08751644 0.00183459
v -0.06011097 0.08129947 0.00087405
v 0.00002202 -0.08801617 -0.00087405
v -0.03584200 -0.08801617 0.00087405
v -0.04283697 -0.08799893 0.00087405
v -0.04458571 -0.08798169 0.00087405
v -0.04633445 -0.08794723 0.00087405
v -0.04808319 -0.08789554 0.00087405
v -0.05969602 0.08285030 0.00087405
v -0.05934035 0.08372910 0.00087405
v -0.05270105 0.08745107 0.00178337
v -0.05507816 0.08688244 0.00087405
v -0.05682690 0.08614149 0.00087405
v -0.05848672 0.08479744 0.00087405
v -0.05372066 0.08731323 -0.00087405
v -0.05284925 0.08748553 -0.00087405
v -0.05158068 0.08764061 -0.00087405
v -0.04983193 0.08779571 -0.00087405
v -0.04808319 0.08789910 0.00087405
v -0.04633445 0.08795080 0.00087405
v -0.04458571 0.08798525 0.00087405
v -0.04283697 0.08800249 0.00087405
v 0.00002202 0.08801971 0.00087405
v -0.04983193 -0.08779215 0.00087405
v -0.05158068 -0.08765431 0.00087405
v -0.05285518 -0.08748199 0.00087405
v -0.05373251 -0.08730967 0.00087405
v 0.00002202 -0.08801617 0.00087405
v -0.05158068 0.08752001 0.00183362
v 0.00002202 0.08765785 0.00195103
v 0.00002202 0.08784741 0.00139877
v -0.04983193 0.08779571 0.00087405
v -0.05158068 0.08764061 0.00087405
v -0.05284925 0.08748553 0.00087405
v -0.05372066 0.08731323 0.00087405
f 1 2 3
f 1 3 4
f 1 4 12
f 1 12 5
f 1 5 16
f 1 16 6
f 1 6 8
f 1 8 2
f 2 7 3
f 2 8 20
f 2 20 7
f 3 7 9
f 3 9 10
f 3 10 11
f 3 11 4
f 4 11 13
f 4 13 25
f 4 25 12
f 5 12 14
f 5 14 15
f 5 15 31
f 5 31 16
f 6 16 33
f 6 33 17
f 6 17 18
f 6 18 8
f 7 19 9
f 7 20 21
f 7 21 19
f 8 18 20
f 9 19 10
f 10 22 11
f 10 19 23
f 10 23 24
f 10 24 22
f 11 22 13
f 12 25 26
f 12 26 14
f 13 22 27
f 13 27 47
f 13 47 25
f 14 28 15
f 14 26 29
f 14 29 30
f 14 30 28
f 15 28 52
f 15 52 31
f 16 31 32
f 16 32 33
f 17 33 58
f 17 58 34
f 17 34 35
f 17 35 18
f 18 35 36
f 18 36 37
f 18 37 20
f 19 38 23
f 19 21 38
f 20 37 21
f 21 37 36
f 21 36 39
f 21 39 40
f 21 40 41
f 21 41 38
f 22 24 42
f 22 42 27
f 23 43 44
f 23 44 24
f 23 38 45
f 23 45 46
f 23 46 43
f 24 44 42
f 25 47 48
f 25 48 26
f 26 48 29
f 27 42 49
f 27 49 93
f 27 93 47
f 28 30 50
f 28 50 51
f 28 51 52
f 29 48 53
f 29 53 54
f 29 54 50
f 29 50 30
f 31 52 32
f 32 52 55
f 32 55 56
f 32 56 57
f 32 57 33
f 33 57 58
f 34 58 105
f 34 105 59
f 34 59 60
f 34 60 35
f 35 60 36
f 36 60 39
f 38 61 62
f 38 62 63
f 38 63 64
f 38 64 65
f 38 65 66
f 38 66 67
f 38 67 45
f 38 41 61
f 39 60 68
f 39 68 69
f 39 69 40
f 40 70 71
f 40 71 72
f 40 72 41
f 40 69 70
f 41 72 73
f 41 73 74
f 41 74 75
f 41 75 76
f 41 76 77
f 41 77 78
f 41 78 79
f 41 79 80
f 41 80 81
f 41 81 82
f 41 82 83
f 41 83 84
f 41 84 61
f 42 44 85
f 42 85 49
f 43 86 44
f 43 46 87
f 43 87 86
f 44 86 85
f 45 67 88
f 45 88 89
f 45 89 90
f 45 90 46
f 46 90 91
f 46 91 92
f 46 92 87
f 47 93 94
f 47 94 48
f 48 94 53
f 49 85 86
f 49 86 95
f 49 95 151
f 49 151 93
f 50 54 96
f 50 96 51
f 51 97 98
f 51 98 99
f 51 99 56
f 51 56 55
f 51 55 52
f 51 96 97
f 53 94 100
f 53 100 54
f 54 100 101
f 54 101 102
f 54 102 103
f 54 103 96
f 56 99 104
f 56 104 57
f 57 104 58
f 58 104 105
f 59 105 179
f 59 179 106
f 59 106 68
f 59 68 60
f 61 107 62
f 61 84 108
f 61 108 109
f 61 109 110
f 61 110 111
f 61 111 182
f 61 182 202
f 61 202 201
f 61 201 260
f 61 260 268
f 61 268 267
f 61 267 225
f 61 225 162
f 61 162 160
f 61 160 221
f 61 221 265
f 61 265 240
f 61 240 183
f 61 183 181
f 61 181 107
f 62 107 112
f 62 112 113
f 62 113 63
f 63 113 114
f 63 114 115
f 63 115 64
f 64 115 116
f 64 116 65
f 65 116 66
f 66 116 117
f 66 117 118
f 66 118 67
f 67 118 119
f 67 119 88
f 68 106 120
f 68 120 69
f 69 120 121
f 69 121 70
f 70 122 71
f 70 121 122
f 71 122 123
f 71 123 124
f 71 124 125
f 71 125 72
f 72 125 126
f 72 126 127
f 72 127 73
f 73 127 128
f 73 128 129
f 73 129 74
f 74 129 130
f 74 130 131
f 74 131 75
f 75 131 76
f 76 131 132
f 76 132 133
f 76 133 77
f 77 133 134
f 77 134 78
f 78 134 135
f 78 135 79
f 79 135 136
f 79 136 80
f 80 136 81
f 81 136 137
f 81 137 138
f 81 138 82
f 82 138 139
f 82 139 140
f 82 140 83
f 83 140 141
f 83 141 84
f 84 141 142
f 84 142 108
f 86 143 95
f 86 87 92
f 86 92 144
f 86 144 143
f 88 119 145
f 88 145 89
f 89 145 146
f 89 146 90
f 90 146 91
f 91 146 92
f 92 146 147
f 92 147 148
f 92 148 210
f 92 210 149
f 92 149 211
f 92 211 150
f 92 150 144
f 93 151 152
f 93 152 153
f 93 153 94
f 94 153 100
f 95 143 203
f 95 203 151
f 96 103 154
f 96 154 155
f 96 155 156
f 96 156 157
f 96 157 158
f 96 158 159
f 96 159 160
f 96 160 97
f 97 161 98
f 97 160 162
f 97 162 163
f 97 163 164
f 97 164 165
f 97 165 166
f 97 166 167
f 97 167 168
f 97 168 169
f 97 169 161
f 98 161 170
f 98 170 171
f 98 171 172
f 98 172 99
f 99 173 104
f 99 172 173
f 100 153 152
f 100 152 101
f 101 152 174
f 101 174 102
f 102 174 149
f 102 149 175
f 102 175 176
f 102 176 103
f 103 176 177
f 103 177 178
f 103 178 154
f 104 173 105
f 105 173 179
f 106 179 239
f 106 239 180
f 106 180 121
f 106 121 120
f 107 181 112
f 108 142 109
f 109 142 182
f 109 182 110
f 110 182 111
f 112 181 183
f 112 183 113
f 113 183 184
f 113 184 114
f 114 184 115
f 115 184 116
f 116 184 185
f 116 185 186
f 116 186 117
f 117 186 118
f 118 186 187
f 118 187 188
f 118 188 119
f 119 188 145
f 121 189 190
f 121 190 123
f 121 123 122
f 121 180 189
f 123 191 250
f 123 250 192
f 123 192 193
f 123 193 194
f 123 194 124
f 123 190 195
f 123 195 251
f 123 251 191
f 124 194 125
f 125 194 126
f 126 194 196
f 126 196 127
f 127 196 128
f 128 196 197
f 128 197 129
f 129 197 198
f 129 198 199
f 129 199 130
f 130 199 131
f 131 199 200
f 131 200 132
f 132 200 133
f 133 200 134
f 134 200 135
f 135 200 201
f 135 201 136
f 136 201 137
f 137 201 138
f 138 201 139
f 139 201 140
f 140 201 141
f 141 201 142
f 142 202 182
f 142 201 202
f 143 144 204
f 143 204 203
f 144 150 211
f 144 211 204
f 145 188 205
f 145 205 146
f 146 205 206
f 146 206 207
f 146 207 208
f 146 208 147
f 147 208 264
f 147 264 209
f 147 209 210
f 147 210 148
f 149 210 209
f 149 209 212
f 149 212 175
f 149 174 152
f 149 152 204
f 149 204 211
f 151 203 152
f 152 203 204
f 154 178 213
f 154 213 214
f 154 214 155
f 155 214 215
f 155 215 216
f 155 216 156
f 156 216 157
f 157 216 217
f 157 217 218
f 157 218 158
f 158 218 219
f 158 219 220
f 158 220 159
f 159 220 221
f 159 221 160
f 161 169 222
f 161 222 223
f 161 223 224
f 161 224 170
f 162 225 163
f 163 225 164
f 164 225 226
f 164 226 227
f 164 227 228
f 164 228 165
f 165 228 166
f 166 228 229
f 166 229 230
f 166 230 167
f 167 230 168
f 168 230 231
f 168 231 232
f 168 232 169
f 169 232 233
f 169 233 222
f 170 224 234
f 170 234 191
f 170 191 235
f 170 235 171
f 171 235 236
f 171 236 172
f 172 236 237
f 172 237 173
f 173 237 179
f 175 212 176
f 176 212 177
f 177 212 238
f 177 238 178
f 178 238 213
f 179 237 236
f 179 236 239
f 180 239 246
f 180 246 189
f 183 240 184
f 184 241 242
f 184 242 185
f 184 240 265
f 184 265 241
f 185 242 243
f 185 243 186
f 186 243 244
f 186 244 187
f 187 244 245
f 187 245 188
f 188 245 261
f 188 261 205
f 189 246 247
f 189 247 190
f 190 247 251
f 190 251 195
f 191 234 248
f 191 248 249
f 191 249 250
f 191 251 247
f 191 247 236
f 191 236 235
f 192 250 249
f 192 249 193
f 193 249 272
f 193 272 252
f 193 252 194
f 194 253 254
f 194 254 255
f 194 255 196
f 194 252 253
f 196 255 197
f 197 256 257
f 197 257 198
f 197 255 269
f 197 269 256
f 198 257 258
f 198 258 199
f 199 258 259
f 199 259 200
f 200 259 260
f 200 260 201
f 205 261 262
f 205 262 206
f 206 262 263
f 206 263 207
f 207 263 264
f 207 264 208
f 209 264 212
f 212 264 263
f 212 263 262
f 212 262 261
f 212 261 238
f 213 238 245
f 213 245 214
f 214 245 244
f 214 244 243
f 214 243 215
f 215 243 216
f 216 243 242
f 216 242 241
f 216 241 217
f 217 241 218
f 218 241 219
f 219 241 220
f 220 241 265
f 220 265 221
f 222 233 266
f 222 266 223
f 223 266 248
f 223 248 224
f 224 248 234
f 225 267 226
f 226 267 268
f 226 268 227
f 227 268 228
f 228 268 260
f 228 260 259
f 228 259 229
f 229 259 230
f 230 259 258
f 230 258 231
f 231 258 232
f 232 258 257
f 232 257 256
f 232 256 233
f 233 256 266
f 236 247 246
f 236 246 239
f 238 261 245
f 248 266 269
f 248 269 270
f 248 270 271
f 248 271 272
f 248 272 249
f 252 272 271
f 252 271 253
f 253 271 270
f 253 270 254
f 254 270 269
f 254 269 255
f 256 269 266

