# https://github.com/mikedh/trimesh
v 0.01990326 -0.04746407 0.00484072
v 0.01990326 -0.04105241 0.00484072
v 0.02143683 -0.04684916 0.00484072
v 0.01990326 -0.04746407 0.11083426
v 0.01990326 -0.04103523 0.00486229
v 0.02925578 -0.03494513 0.00484072
v 0.02423664 -0.04549295 0.00484072
v 0.02143683 -0.04684916 0.11083426
v 0.01990326 -0.04743584 0.11177226
v 0.02925578 -0.03492550 0.00625311
v 0.02925578 -0.03492795 0.00576794
v 0.02925578 -0.03493777 0.00486229
v 0.01990326 -0.04103523 0.11083426
v 0.02925578 -0.04239513 0.00484072
v 0.02680389 -0.04399436 0.00484072
v 0.02423664 -0.04549295 0.11083426
v 0.02417255 -0.04545858 0.11222509
v 0.02136359 -0.04681480 0.11222509
v 0.01990326 -0.04742111 0.11222509
v 0.02925578 -0.03492550 0.10943266
v 0.01990326 -0.04110273 0.11222509
v 0.02925578 -0.03492672 0.11083426
v 0.02860023 -0.04287256 0.00484072
v 0.02925578 -0.04239513 0.11083426
v 0.02750155 -0.04357583 0.00484072
v 0.02680389 -0.04399436 0.11083426
v 0.02674346 -0.04395754 0.11222509
v 0.02663817 -0.04389494 0.11302292
v 0.02399310 -0.04536162 0.11315230
v 0.02118505 -0.04673011 0.11310917
v 0.01990326 -0.04699522 0.11357278
v 0.01990326 -0.04114569 0.11239759
v 0.02925578 -0.03502123 0.11222509
v 0.02859107 -0.04287870 0.00484072
v 0.02859107 -0.04287870 0.11083426
v 0.02925578 -0.04235094 0.11166445
v 0.02750155 -0.04357583 0.11083426
v 0.02744112 -0.04354024 0.11222509
v 0.02830359 -0.04268601 0.11330324
v 0.02722871 -0.04313399 0.11362669
v 0.02611447 -0.04358074 0.11395014
v 0.02853705 -0.04284188 0.11222509
v 0.02518516 -0.04385935 0.11432749
v 0.02339614 -0.04504742 0.11407952
v 0.02055423 -0.04642328 0.11404717
v 0.02016328 -0.04688108 0.11359435
v 0.01990326 -0.04677062 0.11395014
v 0.01990326 -0.04159735 0.11364825
v 0.02066318 -0.04090758 0.11318465
v 0.02925578 -0.03522865 0.11301214
v 0.02923472 -0.04233621 0.11222509
v 0.02925578 -0.04232026 0.11222509
v 0.02925578 -0.04230553 0.11226822
v 0.02925578 -0.04175322 0.11362669
v 0.02925578 -0.04132488 0.11420889
v 0.02781925 -0.04235340 0.11423046
v 0.02688995 -0.04265041 0.11444609
v 0.02445820 -0.04406186 0.11445687
v 0.02246684 -0.04528185 0.11434906
v 0.01990326 -0.04658283 0.11424124
v 0.01990326 -0.04179250 0.11392857
v 0.02925578 -0.03559563 0.11362669
v 0.02925578 -0.03529002 0.11317387
v 0.02925578 -0.04116164 0.11438140
v 0.02864143 -0.04137152 0.11447843
v 0.02925578 -0.04087444 0.11451078
v 0.02731203 -0.04183300 0.11465094
v 0.02573084 -0.04312663 0.11453234
v 0.02166938 -0.04546472 0.11446765
v 0.02445820 -0.04314381 0.11479110
v 0.02298414 -0.04456507 0.11457547
v 0.01990326 -0.04628704 0.11444609
v 0.02925578 -0.03584846 0.11392857
v 0.01990326 -0.04223803 0.11445687
v 0.02925578 -0.04033932 0.11468328
v 0.02864143 -0.04035650 0.11482344
v 0.02585261 -0.04174954 0.11494204
v 0.02166938 -0.04453807 0.11482344
v 0.02016328 -0.04594829 0.11455391
v 0.01990326 -0.04611889 0.11453234
v 0.02925578 -0.03621176 0.11429515
v 0.01990326 -0.04240863 0.11453234
v 0.02925578 -0.03650509 0.11450000
v 0.02925578 -0.03974161 0.11486657
v 0.02724702 -0.04035650 0.11497438
v 0.02306379 -0.04314381 0.11496360
v 0.02027498 -0.04453807 0.11496360
v 0.01990326 -0.04490996 0.11492048
v 0.01990326 -0.04594461 0.11459703
v 0.01990326 -0.04313031 0.11479110
v 0.02925578 -0.03687698 0.11464016
v 0.02925578 -0.03896224 0.11495282
v 0.02864143 -0.03896224 0.11498517
v 0.02166938 -0.04314381 0.11497438
v 0.01990326 -0.04453807 0.11496360
v 0.01990326 -0.04351569 0.11488813
v 0.02027498 -0.04314381 0.11486657
v 0.02925578 -0.03752870 0.11480188
v 0.02925578 -0.03834611 0.11497438
f 1 2 6
f 1 6 14
f 1 14 23
f 1 23 34
f 1 34 25
f 1 25 15
f 1 15 7
f 1 7 3
f 1 3 8
f 1 8 4
f 1 4 9
f 1 9 19
f 1 19 31
f 1 31 47
f 1 47 60
f 1 60 72
f 1 72 80
f 1 80 89
f 1 89 88
f 1 88 95
f 1 95 96
f 1 96 90
f 1 90 82
f 1 82 74
f 1 74 61
f 1 61 48
f 1 48 32
f 1 32 21
f 1 21 13
f 1 13 5
f 1 5 2
f 2 5 6
f 3 7 16
f 3 16 8
f 4 8 9
f 5 10 11
f 5 11 12
f 5 12 6
f 5 13 20
f 5 20 10
f 6 12 11
f 6 11 10
f 6 10 20
f 6 20 22
f 6 22 33
f 6 33 50
f 6 50 63
f 6 63 62
f 6 62 73
f 6 73 81
f 6 81 83
f 6 83 91
f 6 91 98
f 6 98 99
f 6 99 92
f 6 92 84
f 6 84 75
f 6 75 66
f 6 66 64
f 6 64 55
f 6 55 54
f 6 54 53
f 6 53 52
f 6 52 36
f 6 36 24
f 6 24 14
f 7 15 26
f 7 26 16
f 8 16 17
f 8 17 18
f 8 18 19
f 8 19 9
f 13 21 22
f 13 22 20
f 14 24 23
f 15 25 37
f 15 37 26
f 16 26 17
f 17 27 28
f 17 28 29
f 17 29 30
f 17 30 18
f 17 26 27
f 18 30 19
f 19 30 31
f 21 32 33
f 21 33 22
f 23 24 35
f 23 35 34
f 24 36 35
f 25 34 35
f 25 35 37
f 26 37 38
f 26 38 27
f 27 38 28
f 28 39 40
f 28 40 41
f 28 41 29
f 28 38 42
f 28 42 39
f 29 41 43
f 29 43 44
f 29 44 30
f 30 44 45
f 30 45 46
f 30 46 31
f 31 46 47
f 32 48 49
f 32 49 50
f 32 50 33
f 35 36 51
f 35 51 42
f 35 42 37
f 36 52 51
f 37 42 38
f 39 42 51
f 39 51 52
f 39 52 53
f 39 53 54
f 39 54 55
f 39 55 56
f 39 56 40
f 40 56 41
f 41 56 43
f 43 56 57
f 43 57 58
f 43 58 59
f 43 59 44
f 44 59 45
f 45 47 46
f 45 59 60
f 45 60 47
f 48 61 62
f 48 62 63
f 48 63 49
f 49 63 50
f 55 64 56
f 56 64 57
f 57 65 66
f 57 66 67
f 57 67 68
f 57 68 58
f 57 64 65
f 58 69 59
f 58 68 70
f 58 70 71
f 58 71 69
f 59 69 72
f 59 72 60
f 61 73 62
f 61 74 73
f 64 66 65
f 66 75 76
f 66 76 67
f 67 70 68
f 67 76 77
f 67 77 70
f 69 71 78
f 69 78 79
f 69 79 80
f 69 80 72
f 70 77 78
f 70 78 71
f 73 74 81
f 74 82 83
f 74 83 81
f 75 84 76
f 76 84 77
f 77 85 86
f 77 86 78
f 77 84 85
f 78 86 87
f 78 87 88
f 78 88 89
f 78 89 79
f 79 89 80
f 82 90 91
f 82 91 83
f 84 92 85
f 85 93 94
f 85 94 87
f 85 87 86
f 85 92 93
f 87 94 95
f 87 95 88
f 90 96 97
f 90 97 91
f 91 97 98
f 92 99 93
f 93 99 94
f 94 99 96
f 94 96 95
f 96 99 97
f 97 99 98

