# https://github.com/mikedh/trimesh
v -0.05154106 -0.00066217 0.00346370
v -0.05154106 -0.00066217 0.00484085
v -0.05154106 -0.00028179 0.00346370
v -0.05153956 -0.00064617 0.00271674
v -0.05083290 -0.00828220 0.00346370
v -0.05154106 -0.00028712 0.00484085
v -0.05083290 -0.00828220 0.00484085
v -0.05153956 -0.00039377 0.00271674
v -0.05151555 0.00041498 0.00484085
v -0.05151555 0.00041498 0.00346370
v -0.05148930 0.00007549 0.00217892
v -0.05141128 -0.00119185 0.00217892
v -0.05095293 -0.00688866 0.00206976
v -0.05081639 -0.00828220 0.00206976
v -0.05062435 -0.00967752 0.00346370
v -0.05083065 -0.00829997 0.00484085
v -0.05098893 0.00565320 0.00484085
v -0.05103470 0.00565320 0.00206976
v -0.05113522 0.00008260 0.00075619
v -0.05109696 -0.00123807 0.00075619
v -0.05092742 -0.00401804 0.00075619
v -0.05090716 0.00434676 0.00075619
v -0.05091242 0.00426499 0.00075619
v -0.05107821 0.00147613 0.00075619
v -0.05092217 -0.00409980 0.00075619
v -0.05080664 -0.00549334 0.00075619
v -0.05036029 -0.00967752 0.00090054
v -0.05024851 -0.01079555 0.00113167
v -0.05060110 -0.00967752 0.00206976
v -0.05064911 -0.00688866 0.00075619
v -0.05062435 -0.00967752 0.00484085
v -0.05033104 -0.01107106 0.00346370
v -0.04524863 0.00565320 0.00484085
v -0.05079089 0.00565320 0.00075619
v -0.05038655 -0.00901630 0.00075619
v -0.05028152 -0.00967752 0.00075619
v -0.04995370 -0.01111372 0.00075619
v -0.04958312 -0.01240772 0.00075619
v -0.05011799 -0.01172517 0.00170548
v -0.05028152 -0.01118482 0.00213014
v -0.05033104 -0.01107106 0.00484085
v -0.05014799 -0.01178560 0.00263517
v -0.05015024 -0.01179271 0.00346370
v -0.04387806 -0.01250548 0.00484085
v -0.04420439 -0.01250548 0.00381758
v -0.04560270 0.00565320 0.00376640
v -0.04722457 0.00565320 0.00075619
v -0.04954711 -0.01250548 0.00075619
v -0.04987943 -0.01250548 0.00212334
v -0.05015024 -0.01179271 0.00484085
v -0.04986743 -0.01250548 0.00484085
v -0.04586151 -0.01250548 0.00075619
v -0.04591853 -0.01172695 0.00075619
f 1 2 6
f 1 6 3
f 1 3 8
f 1 8 4
f 1 4 5
f 1 5 7
f 1 7 2
f 2 7 16
f 2 16 31
f 2 31 41
f 2 41 50
f 2 50 51
f 2 51 44
f 2 44 33
f 2 33 17
f 2 17 9
f 2 9 6
f 3 6 9
f 3 9 10
f 3 10 8
f 4 8 11
f 4 11 12
f 4 12 13
f 4 13 5
f 5 14 15
f 5 15 16
f 5 16 7
f 5 13 14
f 8 10 11
f 9 17 18
f 9 18 10
f 10 18 11
f 11 19 20
f 11 20 21
f 11 21 12
f 11 18 22
f 11 22 23
f 11 23 24
f 11 24 19
f 12 21 25
f 12 25 13
f 13 26 14
f 13 25 26
f 14 27 28
f 14 28 29
f 14 29 15
f 14 26 30
f 14 30 27
f 15 31 16
f 15 29 32
f 15 32 41
f 15 41 31
f 17 33 46
f 17 46 47
f 17 47 34
f 17 34 18
f 18 34 22
f 19 24 23
f 19 23 22
f 19 22 34
f 19 34 47
f 19 47 53
f 19 53 52
f 19 52 48
f 19 48 38
f 19 38 37
f 19 37 36
f 19 36 35
f 19 35 30
f 19 30 26
f 19 26 25
f 19 25 21
f 19 21 20
f 27 30 35
f 27 35 36
f 27 36 28
f 28 37 38
f 28 38 39
f 28 39 29
f 28 36 37
f 29 39 40
f 29 40 32
f 32 40 42
f 32 42 43
f 32 43 50
f 32 50 41
f 33 44 45
f 33 45 46
f 38 48 39
f 39 42 40
f 39 48 49
f 39 49 42
f 42 49 43
f 43 49 50
f 44 51 49
f 44 49 48
f 44 48 52
f 44 52 45
f 45 52 53
f 45 53 47
f 45 47 46
f 49 51 50

