# https://github.com/mikedh/trimesh
v -0.00064298 0.07587448 0.02532851
v -0.00214441 0.07611461 0.02532851
v 0.00075395 0.07588732 0.02532851
v 0.00072081 0.08039448 0.04303887
v -0.00011021 0.08038934 0.04303887
v -0.00061621 0.08038677 0.04303887
v -0.00203607 0.08060635 0.04303887
v -0.00246178 0.07620835 0.02532851
v 0.00193164 0.07610690 0.02532851
v 0.00214705 0.08062561 0.04303887
v -0.00343045 0.08103010 0.04303887
v -0.00347251 0.07660513 0.02532851
v 0.00253451 0.07622119 0.02532851
v 0.00354142 0.08107633 0.04303887
v -0.00438764 0.08149879 0.04303887
v -0.00449726 0.07719453 0.02532851
v 0.00305326 0.07640866 0.02532851
v 0.00386261 0.08123941 0.04303887
v 0.00357456 0.07665136 0.02532851
v -0.00465275 0.08168370 0.04303887
v -0.00485923 0.07743594 0.02532851
v 0.00443871 0.08153603 0.04303887
v 0.00439028 0.07714316 0.02532851
v -0.00508483 0.08198546 0.04303887
v -0.00516131 0.07768633 0.02532851
v 0.00513590 0.08204967 0.04303887
v 0.00455215 0.07724204 0.02532851
v -0.00579986 0.08268144 0.04303887
v -0.00580623 0.07839387 0.02532851
v 0.00542268 0.08231548 0.04303887
v 0.00521620 0.07775182 0.02532851
v -0.00601654 0.08307694 0.04303887
v -0.00615037 0.07908727 0.02532851
v -0.00637851 0.08374852 0.04303887
v 0.00585093 0.08274565 0.04303887
v 0.00563553 0.07814347 0.02532851
v -0.00633008 0.07956624 0.02532851
v -0.00642950 0.08427885 0.04303887
v -0.00643205 0.08374852 0.04111285
v -0.00650215 0.08051518 0.02532851
v 0.00636713 0.08374852 0.04303887
v 0.00585348 0.07845037 0.02532851
v -0.00648558 0.08514304 0.04303887
v -0.00646391 0.08374852 0.03971905
v -0.00651617 0.08096076 0.02577578
v -0.00648303 0.08096076 0.02532851
v -0.00648430 0.08374852 0.03832350
v 0.00642066 0.08374852 0.04111285
v 0.00647419 0.08514304 0.04303887
v 0.00632252 0.07956624 0.02532851
v 0.00646527 0.08096076 0.02716959
v 0.00650478 0.08096076 0.02577578
v -0.00623321 0.08574913 0.04303887
v -0.00648303 0.08514304 0.04250666
v -0.00649577 0.08374852 0.03414209
v -0.00649577 0.08235528 0.02856513
v -0.00640783 0.08235528 0.02716959
v -0.00624851 0.08190970 0.02532851
v 0.00645252 0.08374852 0.03971905
v 0.00648694 0.08374852 0.03553589
v 0.00648566 0.08374852 0.03414209
v 0.00647164 0.08514304 0.04250666
v 0.00595927 0.08643869 0.04303887
v 0.00647292 0.08374852 0.03832350
v 0.00647164 0.08096076 0.02532851
v 0.00639644 0.08235528 0.02716959
v 0.00648566 0.08235528 0.02856513
v -0.00588143 0.08655297 0.04303887
v -0.00646901 0.08514304 0.04111285
v -0.00648175 0.08374852 0.03274828
v -0.00640783 0.08374852 0.03135447
v -0.00617203 0.08235528 0.02577578
v -0.00625870 0.08374852 0.02995893
v -0.00605350 0.08235785 0.02532851
v 0.00645762 0.08514304 0.04111285
v 0.00647037 0.08374852 0.03274828
v 0.00581142 0.08670449 0.04303887
v 0.00642831 0.08514304 0.03971905
v 0.00637478 0.08514304 0.03832350
v 0.00595035 0.08641044 0.04250666
v 0.00606378 0.08234886 0.02532851
v 0.00616830 0.08235528 0.02577578
v 0.00624987 0.08374852 0.02995893
v 0.00639772 0.08374852 0.03135447
v -0.00548887 0.08720400 0.04303887
v -0.00589928 0.08647592 0.04250666
v -0.00643842 0.08514304 0.03971905
v -0.00638616 0.08514304 0.03832350
v -0.00631096 0.08514304 0.03692970
v -0.00620900 0.08514304 0.03553589
v -0.00606370 0.08514304 0.03414209
v -0.00592859 0.08387436 0.02845591
v -0.00583682 0.08355719 0.02716959
v -0.00569152 0.08327084 0.02577578
v -0.00562780 0.08318224 0.02532851
v -0.00573996 0.08471800 0.02995893
v -0.00563544 0.08457419 0.02884770
v 0.00553611 0.08713595 0.04303887
v 0.00592358 0.08632697 0.04111285
v 0.00589299 0.08624350 0.03971905
v 0.00585730 0.08616004 0.03832350
v 0.00629958 0.08514304 0.03692970
v 0.00586495 0.08278545 0.02532851
v 0.00575024 0.08321305 0.02577578
v 0.00588789 0.08348913 0.02716959
v 0.00596819 0.08384740 0.02851485
v 0.00570945 0.08453695 0.02894652
v 0.00579230 0.08465637 0.02995893
v 0.00563425 0.08584287 0.03343651
v 0.00606633 0.08514304 0.03414209
v 0.00620271 0.08514304 0.03553589
v -0.00483629 0.08760977 0.04303887
v -0.00475854 0.08762005 0.04250666
v -0.00466040 0.08756098 0.04111285
v -0.00545573 0.08717318 0.04250666
v -0.00571064 0.08605731 0.03553589
v -0.00576417 0.08614206 0.03692970
v -0.00580623 0.08622424 0.03832350
v -0.00584320 0.08631028 0.03971905
v -0.00587379 0.08639246 0.04111285
v -0.00562270 0.08594816 0.03414209
v -0.00549779 0.08442266 0.02791676
v -0.00478658 0.08379218 0.02532851
v -0.00478021 0.08400149 0.02577578
v -0.00555132 0.08586983 0.03330823
v -0.00540730 0.08573757 0.03237902
v 0.00550552 0.08710770 0.04250666
v 0.00471147 0.08752374 0.04111285
v 0.00510403 0.08743128 0.04303887
v 0.00581524 0.08607914 0.03692970
v 0.00576426 0.08599824 0.03553589
v 0.00569416 0.08313344 0.02532851
v 0.00556798 0.08437644 0.02801731
v 0.00455852 0.08603805 0.03135447
v 0.00498168 0.08613179 0.03288176
v 0.00493579 0.08640530 0.03414209
v 0.00423351 0.08723225 0.03625187
v 0.00433930 0.08729774 0.03718107
v 0.00446293 0.08737222 0.03832350
v 0.00516012 0.08685730 0.03832350
v 0.00568524 0.08590065 0.03414209
v -0.00340368 0.08836739 0.04303887
v -0.00343045 0.08819660 0.04111285
v -0.00454696 0.08749164 0.03971905
v -0.00535759 0.08708972 0.04111285
v -0.00524415 0.08700754 0.03971905
v -0.00510905 0.08692150 0.03832350
v -0.00495737 0.08683932 0.03692970
v -0.00470629 0.08681492 0.03560004
v -0.00457755 0.08473085 0.02716959
v -0.00428695 0.08454722 0.02624038
v -0.00477894 0.08547947 0.02989479
v -0.00428313 0.08593789 0.03031605
v -0.00494973 0.08494786 0.02845591
v -0.00395939 0.08432893 0.02532851
v -0.00489492 0.08617802 0.03280549
v -0.00482482 0.08649005 0.03414209
v -0.00450745 0.08607529 0.03135447
v 0.00540866 0.08702423 0.04111285
v 0.00459803 0.08745568 0.03971905
v 0.00354142 0.08815038 0.04111285
v 0.00435969 0.08786788 0.04303887
v 0.00480834 0.08758409 0.04250666
v 0.00483893 0.08760207 0.04303887
v 0.00535130 0.08341209 0.02532851
v 0.00503648 0.08489521 0.02851485
v 0.00462735 0.08469361 0.02716959
v 0.00354142 0.08657865 0.03135447
v 0.00347642 0.08693948 0.03273614
v 0.00386516 0.08704221 0.03414209
v 0.00435459 0.08591221 0.03040273
v 0.00411625 0.08717062 0.03553589
v 0.00341906 0.08750833 0.03553589
v 0.00367780 0.08757767 0.03680141
v 0.00354142 0.08784733 0.03832350
v 0.00354142 0.08801169 0.03971905
v 0.00529522 0.08694076 0.03971905
v -0.00278169 0.08864860 0.04303887
v -0.00277787 0.08864732 0.04299033
v -0.00331701 0.08836739 0.04251879
v -0.00343045 0.08805921 0.03971905
v -0.00441186 0.08740946 0.03832350
v -0.00426019 0.08731572 0.03692970
v -0.00416205 0.08725665 0.03610624
v -0.00405753 0.08580434 0.02938511
v -0.00377968 0.08567465 0.02856513
v -0.00344829 0.08476680 0.02577578
v -0.00393135 0.08434690 0.02532851
v -0.00333358 0.08542169 0.02726320
v -0.00343045 0.08662616 0.03135447
v -0.00400782 0.08717575 0.03517704
v -0.00380262 0.08707945 0.03414209
v -0.00338074 0.08697415 0.03271707
v 0.00290541 0.08862035 0.04303887
v 0.00341651 0.08833400 0.04256734
v 0.00349044 0.08833272 0.04303887
v 0.00404232 0.08427243 0.02532851
v 0.00435714 0.08452154 0.02629932
v 0.00412772 0.08577995 0.02947353
v 0.00384477 0.08563613 0.02856513
v 0.00296787 0.08729003 0.03319208
v 0.00361407 0.08616646 0.02994680
v 0.00314758 0.08598540 0.02856513
v 0.00316797 0.08738249 0.03414209
v 0.00214705 0.08811442 0.03692970
v 0.00214705 0.08829933 0.03832350
v 0.00267981 0.08860238 0.04214087
v -0.00207686 0.08876931 0.04303887
v -0.00210108 0.08872950 0.04251879
v -0.00260963 0.08860880 0.04205939
v -0.00343045 0.08789484 0.03832350
v -0.00349800 0.08747495 0.03560004
v -0.00343045 0.08770865 0.03692970
v -0.00352731 0.08618957 0.02989479
v -0.00308249 0.08599439 0.02856513
v -0.00280464 0.08586983 0.02779021
v -0.00323161 0.08467050 0.02532851
v -0.00390458 0.08435975 0.02532851
v -0.00288238 0.08729646 0.03316261
v -0.00249619 0.08719630 0.03223167
v -0.00310543 0.08739277 0.03414209
v 0.00282511 0.08864475 0.04303887
v 0.00398369 0.08430710 0.02532851
v 0.00400281 0.08431609 0.02536838
v 0.00353887 0.08474369 0.02581045
v 0.00343181 0.08538701 0.02727360
v 0.00289394 0.08586213 0.02780755
v 0.00256765 0.08718859 0.03226287
v 0.00214705 0.08764573 0.03414209
v 0.00214705 0.08789741 0.03553589
v 0.00075267 0.08834171 0.03692970
v 0.00073483 0.08852790 0.03830617
v 0.00025814 0.08866273 0.03875864
v 0.00118857 0.08858697 0.03941047
v 0.00203743 0.08849195 0.03981266
v 0.00240961 0.08855743 0.04111285
v 0.00171242 0.08867300 0.04111285
v 0.00218783 0.08871794 0.04256734
v -0.00117192 0.08891056 0.04303887
v -0.00064170 0.08895550 0.04250666
v -0.00166135 0.08868199 0.04111285
v -0.00235854 0.08856771 0.04111285
v -0.00203607 0.08831988 0.03832350
v -0.00203607 0.08813368 0.03692970
v -0.00203607 0.08594303 0.02759431
v -0.00203607 0.08567850 0.02689741
v -0.00203607 0.08521752 0.02577578
v -0.00203607 0.08668523 0.02995893
v -0.00203607 0.08626662 0.02856513
v -0.00203607 0.08501463 0.02532851
v -0.00203607 0.08791667 0.03553589
v -0.00203607 0.08766499 0.03414209
v -0.00203352 0.08737736 0.03271707
v -0.00156703 0.08727335 0.03189882
v -0.00203352 0.08706917 0.03140301
v 0.00217254 0.08875261 0.04303887
v 0.00393144 0.08433535 0.02532851
v 0.00330435 0.08464995 0.02532851
v 0.00259442 0.08488622 0.02532851
v 0.00214705 0.08519697 0.02577578
v 0.00214705 0.08566823 0.02692515
v 0.00214705 0.08593275 0.02762205
v 0.00214705 0.08624607 0.02856513
v 0.00214705 0.08666469 0.02995893
v 0.00212028 0.08705762 0.03141861
v 0.00163849 0.08726564 0.03192656
v 0.00075267 0.08759308 0.03274828
v 0.00212028 0.08736580 0.03273614
v 0.00075267 0.08787301 0.03414209
v 0.00075267 0.08812341 0.03553589
v -0.00016629 0.08866273 0.03875864
v 0.00075267 0.08894523 0.04250666
v 0.00075267 0.08882838 0.04111285
v 0.00073483 0.08870382 0.03981266
v -0.00064170 0.08813368 0.03553589
v 0.00149957 0.08863705 0.04033967
v 0.00075267 0.08898247 0.04303887
v -0.00064170 0.08899274 0.04303887
v -0.00064170 0.08883736 0.04111285
v -0.00142811 0.08864475 0.04028073
v -0.00195068 0.08850350 0.03977626
v -0.00109672 0.08859339 0.03935152
v -0.00063533 0.08853560 0.03830617
v -0.00064170 0.08835198 0.03692970
v -0.00051424 0.08601237 0.02713838
v -0.00089406 0.08577225 0.02665124
v -0.00064170 0.08648876 0.02856513
v -0.00051424 0.08552184 0.02591100
v -0.00064170 0.08716805 0.03091934
v -0.00064170 0.08690609 0.02995893
v -0.00056905 0.08524833 0.02532851
v -0.00064170 0.08788329 0.03414209
v -0.00064170 0.08760207 0.03274828
v -0.00064170 0.08734397 0.03161624
v 0.00214705 0.08499408 0.02532851
v 0.00062394 0.08551414 0.02591100
v 0.00007333 0.08584415 0.02646575
v 0.00100376 0.08576582 0.02667031
v 0.00130711 0.08513533 0.02532851
v 0.00062394 0.08600852 0.02714878
v 0.00075267 0.08647849 0.02856513
v 0.00075267 0.08689582 0.02995893
v 0.00075267 0.08716291 0.03094014
v 0.00075267 0.08733883 0.03163705
v -0.00063533 0.08870767 0.03977626
v 0.00003382 0.08584415 0.02646575
v 0.00067492 0.08523934 0.02532851
f 1 2 8
f 1 8 12
f 1 12 16
f 1 16 21
f 1 21 25
f 1 25 29
f 1 29 33
f 1 33 37
f 1 37 40
f 1 40 46
f 1 46 58
f 1 58 74
f 1 74 95
f 1 95 123
f 1 123 155
f 1 155 188
f 1 188 218
f 1 218 217
f 1 217 250
f 1 250 291
f 1 291 307
f 1 307 299
f 1 299 295
f 1 295 259
f 1 259 258
f 1 258 257
f 1 257 223
f 1 223 197
f 1 197 165
f 1 165 132
f 1 132 103
f 1 103 81
f 1 81 65
f 1 65 50
f 1 50 42
f 1 42 36
f 1 36 31
f 1 31 27
f 1 27 23
f 1 23 19
f 1 19 17
f 1 17 13
f 1 13 9
f 1 9 3
f 1 3 4
f 1 4 5
f 1 5 6
f 1 6 7
f 1 7 2
f 2 7 8
f 3 9 10
f 3 10 4
f 4 10 14
f 4 14 18
f 4 18 22
f 4 22 26
f 4 26 30
f 4 30 35
f 4 35 41
f 4 41 49
f 4 49 63
f 4 63 77
f 4 77 98
f 4 98 129
f 4 129 164
f 4 164 162
f 4 162 196
f 4 196 194
f 4 194 222
f 4 222 256
f 4 256 277
f 4 277 278
f 4 278 239
f 4 239 208
f 4 208 178
f 4 178 142
f 4 142 112
f 4 112 85
f 4 85 68
f 4 68 53
f 4 53 43
f 4 43 38
f 4 38 34
f 4 34 32
f 4 32 28
f 4 28 24
f 4 24 20
f 4 20 15
f 4 15 11
f 4 11 7
f 4 7 6
f 4 6 5
f 7 11 8
f 8 11 12
f 9 13 10
f 10 13 14
f 11 15 12
f 12 15 16
f 13 17 14
f 14 17 19
f 14 19 18
f 15 20 21
f 15 21 16
f 18 19 22
f 19 23 22
f 20 24 21
f 21 24 25
f 22 23 27
f 22 27 26
f 24 28 25
f 25 28 29
f 26 27 31
f 26 31 30
f 28 32 29
f 29 32 34
f 29 34 33
f 30 31 36
f 30 36 35
f 33 34 37
f 34 38 39
f 34 39 40
f 34 40 37
f 35 36 42
f 35 42 41
f 38 43 44
f 38 44 39
f 39 44 40
f 40 45 46
f 40 44 47
f 40 47 45
f 41 48 49
f 41 42 50
f 41 50 51
f 41 51 52
f 41 52 48
f 43 47 44
f 43 53 54
f 43 54 55
f 43 55 45
f 43 45 47
f 45 56 57
f 45 57 46
f 45 55 56
f 46 57 58
f 48 59 49
f 48 52 59
f 49 60 61
f 49 61 62
f 49 62 63
f 49 59 64
f 49 64 52
f 49 52 60
f 50 65 52
f 50 52 51
f 52 65 66
f 52 66 67
f 52 67 61
f 52 61 60
f 52 64 59
f 53 68 69
f 53 69 54
f 54 69 70
f 54 70 55
f 55 70 56
f 56 70 71
f 56 71 57
f 57 72 58
f 57 71 73
f 57 73 72
f 58 72 74
f 61 75 62
f 61 67 76
f 61 76 75
f 62 75 63
f 63 75 78
f 63 78 79
f 63 79 80
f 63 80 77
f 65 81 82
f 65 82 66
f 66 82 83
f 66 83 84
f 66 84 67
f 67 84 76
f 68 85 86
f 68 86 87
f 68 87 69
f 69 87 70
f 70 87 88
f 70 88 71
f 71 88 89
f 71 89 90
f 71 90 91
f 71 91 73
f 72 73 92
f 72 92 93
f 72 93 94
f 72 94 95
f 72 95 74
f 73 96 97
f 73 97 92
f 73 91 96
f 75 76 78
f 76 84 79
f 76 79 78
f 77 80 99
f 77 99 100
f 77 100 101
f 77 101 98
f 79 102 100
f 79 100 99
f 79 99 80
f 79 84 102
f 81 103 82
f 82 104 105
f 82 105 106
f 82 106 83
f 82 103 104
f 83 106 107
f 83 107 108
f 83 108 109
f 83 109 110
f 83 110 84
f 84 110 111
f 84 111 102
f 85 112 113
f 85 113 114
f 85 114 115
f 85 115 116
f 85 116 117
f 85 117 118
f 85 118 119
f 85 119 120
f 85 120 86
f 86 120 88
f 86 88 87
f 88 120 119
f 88 119 89
f 89 119 118
f 89 118 117
f 89 117 116
f 89 116 90
f 90 116 91
f 91 116 121
f 91 121 96
f 92 97 93
f 93 97 94
f 94 97 122
f 94 122 95
f 95 122 124
f 95 124 123
f 96 125 97
f 96 121 125
f 97 125 126
f 97 126 122
f 98 127 128
f 98 128 129
f 98 101 130
f 98 130 131
f 98 131 127
f 100 102 101
f 101 102 130
f 102 111 131
f 102 131 130
f 103 132 104
f 104 132 107
f 104 107 105
f 105 107 106
f 107 132 133
f 107 133 134
f 107 134 109
f 107 109 108
f 109 134 135
f 109 135 136
f 109 136 137
f 109 137 138
f 109 138 139
f 109 139 140
f 109 140 141
f 109 141 110
f 110 141 111
f 111 141 131
f 112 142 113
f 113 142 114
f 114 143 144
f 114 144 115
f 114 142 143
f 115 144 145
f 115 145 116
f 116 145 146
f 116 146 121
f 121 146 147
f 121 147 148
f 121 148 149
f 121 149 125
f 122 150 151
f 122 151 124
f 122 126 152
f 122 152 153
f 122 153 154
f 122 154 150
f 123 124 151
f 123 151 155
f 125 156 126
f 125 149 157
f 125 157 156
f 126 156 158
f 126 158 152
f 127 159 160
f 127 160 128
f 127 131 141
f 127 141 159
f 128 160 161
f 128 161 162
f 128 162 163
f 128 163 129
f 129 163 164
f 132 165 133
f 133 166 134
f 133 165 167
f 133 167 166
f 134 168 169
f 134 169 170
f 134 170 135
f 134 166 171
f 134 171 168
f 135 170 172
f 135 172 136
f 136 172 137
f 137 172 173
f 137 173 174
f 137 174 175
f 137 175 138
f 138 175 139
f 139 175 176
f 139 176 160
f 139 160 177
f 139 177 140
f 140 177 141
f 141 177 159
f 142 178 179
f 142 179 180
f 142 180 143
f 143 181 144
f 143 180 179
f 143 179 181
f 144 181 182
f 144 182 146
f 144 146 145
f 146 182 147
f 147 182 148
f 148 182 183
f 148 183 149
f 149 184 157
f 149 183 184
f 150 154 185
f 150 185 186
f 150 186 151
f 151 187 188
f 151 188 155
f 151 186 189
f 151 189 187
f 152 158 153
f 153 185 154
f 153 158 190
f 153 190 185
f 156 157 191
f 156 191 192
f 156 192 158
f 157 184 191
f 158 192 193
f 158 193 190
f 159 177 160
f 160 176 161
f 161 176 194
f 161 194 195
f 161 195 196
f 161 196 162
f 162 164 163
f 165 197 198
f 165 198 167
f 166 199 171
f 166 167 199
f 167 198 200
f 167 200 199
f 168 201 169
f 168 171 199
f 168 199 202
f 168 202 203
f 168 203 201
f 169 201 170
f 170 204 172
f 170 201 204
f 172 204 173
f 173 204 205
f 173 205 175
f 173 175 174
f 175 205 206
f 175 206 207
f 175 207 176
f 176 207 194
f 178 208 179
f 179 209 210
f 179 210 181
f 179 208 209
f 181 210 211
f 181 211 182
f 182 211 183
f 183 211 184
f 184 212 191
f 184 211 213
f 184 213 212
f 185 190 214
f 185 214 215
f 185 215 186
f 186 215 216
f 186 216 189
f 187 189 216
f 187 216 217
f 187 217 218
f 187 218 188
f 190 193 219
f 190 219 220
f 190 220 215
f 190 215 214
f 191 221 192
f 191 212 221
f 192 221 219
f 192 219 193
f 194 196 195
f 194 207 222
f 197 223 224
f 197 224 198
f 198 225 226
f 198 226 200
f 198 224 225
f 199 200 203
f 199 203 202
f 200 226 227
f 200 227 203
f 201 203 228
f 201 228 229
f 201 229 230
f 201 230 204
f 203 227 228
f 204 230 205
f 205 231 232
f 205 232 206
f 205 230 231
f 206 233 234
f 206 234 235
f 206 235 236
f 206 236 207
f 206 232 233
f 207 236 237
f 207 237 238
f 207 238 222
f 208 239 209
f 209 239 240
f 209 240 241
f 209 241 210
f 210 241 242
f 210 242 243
f 210 243 211
f 211 243 244
f 211 244 213
f 212 213 221
f 213 244 221
f 215 220 216
f 216 245 246
f 216 246 247
f 216 247 217
f 216 220 248
f 216 248 249
f 216 249 245
f 217 247 250
f 219 221 251
f 219 251 252
f 219 252 220
f 220 252 253
f 220 253 254
f 220 254 255
f 220 255 248
f 221 244 251
f 222 238 256
f 223 257 224
f 224 257 225
f 225 227 226
f 225 257 258
f 225 258 227
f 227 258 259
f 227 259 260
f 227 260 261
f 227 261 262
f 227 262 263
f 227 263 264
f 227 264 228
f 228 265 266
f 228 266 267
f 228 267 268
f 228 268 229
f 228 264 265
f 229 269 230
f 229 268 267
f 229 267 269
f 230 269 270
f 230 270 231
f 231 233 232
f 231 270 233
f 233 271 240
f 233 240 272
f 233 272 273
f 233 273 274
f 233 274 234
f 233 270 275
f 233 275 271
f 234 274 276
f 234 276 235
f 235 276 236
f 236 276 237
f 237 276 273
f 237 273 272
f 237 272 238
f 238 272 277
f 238 277 256
f 239 278 240
f 240 271 279
f 240 279 241
f 240 278 277
f 240 277 272
f 241 279 280
f 241 280 242
f 242 280 281
f 242 281 243
f 243 281 282
f 243 282 283
f 243 283 284
f 243 284 244
f 244 284 251
f 245 285 286
f 245 286 246
f 245 249 287
f 245 287 285
f 246 286 247
f 247 286 288
f 247 288 250
f 248 255 289
f 248 289 290
f 248 290 287
f 248 287 249
f 250 288 291
f 251 275 292
f 251 292 252
f 251 284 275
f 252 292 293
f 252 293 253
f 253 293 254
f 254 294 289
f 254 289 255
f 254 293 294
f 259 295 260
f 260 296 297
f 260 297 298
f 260 298 261
f 260 295 299
f 260 299 296
f 261 298 262
f 262 298 297
f 262 297 300
f 262 300 301
f 262 301 263
f 263 301 264
f 264 301 302
f 264 302 303
f 264 303 265
f 265 303 266
f 266 303 304
f 266 304 267
f 267 304 294
f 267 294 293
f 267 293 292
f 267 292 269
f 269 292 275
f 269 275 270
f 271 275 284
f 271 284 283
f 271 283 282
f 271 282 305
f 271 305 279
f 273 276 274
f 279 305 280
f 280 305 282
f 280 282 281
f 285 306 286
f 285 287 306
f 286 306 288
f 287 290 302
f 287 302 301
f 287 301 297
f 287 297 306
f 288 306 291
f 289 294 304
f 289 304 303
f 289 303 302
f 289 302 290
f 291 306 297
f 291 297 307
f 296 299 307
f 296 307 297
f 297 301 300

