# https://github.com/mikedh/trimesh
v 0.04171592 -0.03061671 0.09967549
v 0.04142319 -0.03061671 0.11086677
v 0.04155736 -0.03083809 0.09967549
v 0.04171592 -0.03061671 0.01461962
v 0.04133903 -0.03061671 0.11221447
v 0.04066942 -0.03152990 0.11222525
v 0.04070845 -0.03158179 0.11083443
v 0.04085969 -0.03177204 0.09967549
v 0.04155736 -0.03083809 0.01461962
v 0.04168665 -0.03061671 0.01322880
v 0.04131342 -0.03061671 0.11234385
v 0.04058526 -0.03141575 0.11307700
v 0.04013885 -0.03222632 0.11222525
v 0.04017910 -0.03227936 0.11083443
v 0.04031936 -0.03246961 0.09967549
v 0.04032059 -0.03246961 0.09828467
v 0.04085969 -0.03177204 0.01461962
v 0.04084505 -0.03175243 0.01322880
v 0.04154150 -0.03081849 0.01322880
v 0.04140490 -0.03064208 0.00484072
v 0.04142319 -0.03061671 0.00485151
v 0.04083530 -0.03061671 0.11352982
v 0.03944118 -0.03307955 0.11222525
v 0.04074504 -0.03061671 0.11365920
v 0.04024984 -0.03096377 0.11400421
v 0.03977538 -0.03195998 0.11361607
v 0.03930091 -0.03291813 0.11322794
v 0.03948143 -0.03312683 0.11083443
v 0.03962170 -0.03330324 0.09967549
v 0.03962292 -0.03330439 0.09828467
v 0.04032059 -0.03246961 0.01461962
v 0.04030595 -0.03245001 0.01322880
v 0.04017910 -0.03227936 0.00484072
v 0.04070845 -0.03158179 0.00484072
v 0.04137806 -0.03061671 0.00484072
v 0.03882401 -0.03377713 0.11222525
v 0.03886548 -0.03382325 0.11083443
v 0.04037791 -0.03061671 0.11414437
v 0.03893989 -0.03250420 0.11415516
v 0.03795803 -0.03436055 0.11327106
v 0.03749210 -0.03524376 0.11222525
v 0.03812634 -0.03454619 0.11222525
v 0.03844834 -0.03343583 0.11371311
v 0.03902282 -0.03399966 0.09967549
v 0.03902282 -0.03400081 0.09828467
v 0.03962292 -0.03330439 0.01461962
v 0.03960950 -0.03328709 0.01322880
v 0.03948143 -0.03312683 0.00484072
v 0.03419891 -0.03061671 0.00484072
v 0.03816781 -0.03459231 0.11083443
v 0.03770189 -0.03547321 0.09967549
v 0.03932043 -0.03157487 0.11444626
v 0.03975342 -0.03061671 0.11456486
v 0.03801047 -0.03302536 0.11447860
v 0.03758358 -0.03395469 0.11420907
v 0.03660660 -0.03579029 0.11332497
v 0.03679565 -0.03599092 0.11222525
v 0.03709448 -0.03487710 0.11376702
v 0.03753235 -0.03528988 0.11083443
v 0.03902282 -0.03400081 0.01461962
v 0.03900941 -0.03398352 0.01322880
v 0.03886548 -0.03382325 0.00484072
v 0.03333536 -0.03106062 0.00484072
v 0.03373421 -0.03061671 0.00485151
v 0.03683590 -0.03603358 0.11083443
v 0.03616873 -0.03673000 0.11083443
v 0.03632607 -0.03688450 0.10044098
v 0.03702739 -0.03617309 0.09967549
v 0.03770189 -0.03547321 0.01461962
v 0.03844591 -0.03201993 0.11464032
v 0.03971683 -0.03061671 0.11457564
v 0.03707374 -0.03344737 0.11466188
v 0.03665417 -0.03446432 0.11448938
v 0.03622971 -0.03539366 0.11425219
v 0.03522590 -0.03714854 0.11330341
v 0.03612238 -0.03668734 0.11222525
v 0.03572720 -0.03628263 0.11377780
v 0.03831174 -0.03475834 0.01322880
v 0.03817757 -0.03458308 0.00484072
v 0.03768359 -0.03545592 0.01322880
v 0.03331951 -0.03106985 0.00484072
v 0.03372811 -0.03061671 0.00486229
v 0.02925791 -0.03494513 0.00484072
v 0.03542715 -0.03733072 0.11222525
v 0.03547228 -0.03737223 0.11083443
v 0.03488804 -0.03823353 0.09967549
v 0.03633339 -0.03689142 0.09967549
v 0.03702739 -0.03617309 0.01461962
v 0.03632607 -0.03688450 0.01360615
v 0.03840322 -0.03061671 0.11494221
v 0.03570402 -0.03486903 0.11467267
v 0.03700788 -0.03198995 0.11497456
v 0.03530152 -0.03584448 0.11448938
v 0.03481730 -0.03677266 0.11423063
v 0.03378299 -0.03849987 0.11326028
v 0.03337927 -0.03812745 0.11418750
v 0.03753357 -0.03528988 0.00484072
v 0.03616873 -0.03673000 0.00484072
v 0.03682737 -0.03604280 0.00484072
v 0.02925791 -0.03493821 0.00486229
v 0.02925791 -0.03492784 0.00576795
v 0.02925791 -0.03492553 0.00625311
v 0.03372689 -0.03061671 0.00625311
v 0.02925791 -0.04239591 0.00484072
v 0.03465752 -0.03802829 0.11222525
v 0.03470387 -0.03806980 0.11083443
v 0.03419281 -0.03884809 0.09828467
v 0.03419281 -0.03885962 0.09688307
v 0.03489048 -0.03823353 0.09828467
v 0.03400620 -0.03870165 0.11083443
v 0.03322681 -0.03939923 0.11083443
v 0.03633339 -0.03689142 0.01461962
v 0.03489048 -0.03823353 0.01461962
v 0.03548204 -0.03736416 0.00484072
v 0.03698592 -0.03061671 0.11494221
v 0.03429893 -0.03625496 0.11467267
v 0.03421965 -0.03477794 0.11498534
v 0.02925791 -0.03834537 0.11497456
v 0.03388789 -0.03719697 0.11447860
v 0.03244986 -0.03854600 0.11446782
v 0.03233277 -0.03982354 0.11318481
v 0.03395985 -0.03866015 0.11222525
v 0.03285602 -0.03898760 0.11369155
v 0.03189856 -0.03947533 0.11411203
v 0.02925791 -0.03492553 0.10943282
v 0.03372689 -0.03061671 0.10992878
v 0.03093744 -0.04119101 0.00484072
v 0.03337318 -0.03955373 0.01602122
v 0.03337805 -0.03955719 0.01741205
v 0.02925791 -0.04239591 0.11083443
v 0.03336220 -0.03954566 0.09828467
v 0.03337805 -0.03955719 0.09688307
v 0.03419281 -0.03885962 0.01741205
v 0.03317924 -0.03935657 0.11222525
v 0.03248279 -0.03994460 0.11222525
v 0.03253036 -0.03998265 0.11083443
v 0.03419281 -0.03885616 0.01602122
v 0.03419281 -0.03882848 0.01461962
v 0.03322681 -0.03939923 0.00484072
v 0.03399644 -0.03871088 0.00484072
v 0.03470387 -0.03806980 0.00484072
v 0.02925791 -0.03752673 0.11480205
v 0.03561498 -0.03061671 0.11459720
v 0.02925791 -0.03687643 0.11464032
v 0.03287920 -0.03762358 0.11465110
v 0.03282553 -0.03617309 0.11497456
v 0.03143141 -0.03756593 0.11496378
v 0.02925791 -0.03896108 0.11495299
v 0.03096915 -0.03983276 0.11442469
v 0.03143263 -0.03898990 0.11461876
v 0.03134604 -0.04029281 0.11356216
v 0.03079473 -0.04109762 0.11300153
v 0.02941281 -0.04110684 0.11436000
v 0.03034222 -0.04076209 0.11392874
v 0.02925791 -0.03492668 0.11083443
v 0.03372811 -0.03061671 0.11083443
v 0.03162657 -0.04068022 0.00484072
v 0.03253036 -0.03998265 0.00484072
v 0.03253890 -0.03997573 0.00484072
v 0.03092890 -0.04119678 0.11083443
v 0.02925791 -0.04235094 0.11166461
v 0.03162657 -0.04068022 0.11083443
v 0.03157412 -0.04064102 0.11222525
v 0.02925791 -0.03650516 0.11450017
v 0.03495269 -0.03061671 0.11423063
v 0.03473680 -0.03109291 0.11442469
v 0.03003608 -0.03896108 0.11492065
v 0.02925791 -0.03974052 0.11486674
v 0.02994094 -0.04032049 0.11453251
v 0.02925791 -0.04087393 0.11451095
v 0.02925791 -0.04033893 0.11468345
v 0.02925791 -0.04175368 0.11362686
v 0.02925791 -0.04230482 0.11226838
v 0.02925791 -0.04231981 0.11222525
v 0.03087645 -0.04115873 0.11222525
v 0.02925791 -0.04115988 0.11438157
v 0.02925791 -0.04132591 0.11420907
v 0.02925791 -0.03502123 0.11222525
v 0.03381227 -0.03061671 0.11222525
v 0.02925791 -0.03621229 0.11429531
v 0.03436235 -0.03061671 0.11355138
v 0.02925791 -0.03584794 0.11392874
v 0.02925791 -0.03522877 0.11301231
v 0.03385374 -0.03061671 0.11243010
v 0.02925791 -0.03559543 0.11362686
v 0.03433674 -0.03061671 0.11351904
v 0.02925791 -0.03528988 0.11317403
v 0.03344392 -0.03120475 0.11305544
f 1 2 3
f 1 3 9
f 1 9 4
f 1 4 10
f 1 10 21
f 1 21 35
f 1 35 49
f 1 49 64
f 1 64 82
f 1 82 103
f 1 103 126
f 1 126 156
f 1 156 179
f 1 179 184
f 1 184 186
f 1 186 181
f 1 181 165
f 1 165 143
f 1 143 115
f 1 115 90
f 1 90 71
f 1 71 53
f 1 53 38
f 1 38 24
f 1 24 22
f 1 22 11
f 1 11 5
f 1 5 2
f 2 5 6
f 2 6 7
f 2 7 3
f 3 7 8
f 3 8 17
f 3 17 9
f 4 9 10
f 5 11 12
f 5 12 6
f 6 12 13
f 6 13 14
f 6 14 7
f 7 14 8
f 8 14 15
f 8 15 16
f 8 16 31
f 8 31 17
f 9 17 18
f 9 18 19
f 9 19 10
f 10 19 20
f 10 20 21
f 11 22 12
f 12 23 13
f 12 22 24
f 12 24 25
f 12 25 26
f 12 26 27
f 12 27 23
f 13 23 14
f 14 23 28
f 14 28 15
f 15 29 30
f 15 30 16
f 15 28 29
f 16 30 46
f 16 46 31
f 17 31 32
f 17 32 18
f 18 32 33
f 18 33 34
f 18 34 19
f 19 34 20
f 20 34 33
f 20 33 48
f 20 48 62
f 20 62 79
f 20 79 97
f 20 97 99
f 20 99 98
f 20 98 114
f 20 114 141
f 20 141 140
f 20 140 139
f 20 139 159
f 20 159 158
f 20 158 157
f 20 157 127
f 20 127 104
f 20 104 83
f 20 83 81
f 20 81 63
f 20 63 49
f 20 49 35
f 20 35 21
f 23 36 37
f 23 37 28
f 23 27 36
f 24 38 25
f 25 38 39
f 25 39 26
f 26 39 27
f 27 40 41
f 27 41 42
f 27 42 36
f 27 39 43
f 27 43 40
f 28 37 44
f 28 44 29
f 29 44 30
f 30 44 45
f 30 45 60
f 30 60 46
f 31 46 47
f 31 47 32
f 32 47 48
f 32 48 33
f 36 42 50
f 36 50 37
f 37 50 51
f 37 51 44
f 38 52 39
f 38 53 52
f 39 52 54
f 39 54 55
f 39 55 43
f 40 56 57
f 40 57 41
f 40 43 55
f 40 55 58
f 40 58 56
f 41 57 59
f 41 59 50
f 41 50 42
f 44 51 45
f 45 51 69
f 45 69 60
f 46 60 61
f 46 61 47
f 47 61 48
f 48 61 62
f 49 63 64
f 50 59 51
f 51 59 65
f 51 65 66
f 51 66 67
f 51 67 68
f 51 68 88
f 51 88 69
f 52 53 70
f 52 70 54
f 53 71 70
f 54 70 72
f 54 72 73
f 54 73 74
f 54 74 55
f 55 74 58
f 56 75 76
f 56 76 57
f 56 58 74
f 56 74 77
f 56 77 75
f 57 76 66
f 57 66 65
f 57 65 59
f 60 69 61
f 61 69 78
f 61 78 62
f 62 78 80
f 62 80 79
f 63 81 64
f 64 81 83
f 64 83 82
f 66 76 84
f 66 84 85
f 66 85 86
f 66 86 67
f 67 86 87
f 67 87 68
f 68 87 112
f 68 112 88
f 69 88 89
f 69 89 80
f 69 80 78
f 70 71 90
f 70 90 72
f 72 91 73
f 72 90 92
f 72 92 91
f 73 93 74
f 73 91 93
f 74 94 77
f 74 93 94
f 75 95 76
f 75 77 94
f 75 94 96
f 75 96 95
f 76 95 84
f 79 80 97
f 80 89 98
f 80 98 99
f 80 99 97
f 82 83 100
f 82 100 101
f 82 101 102
f 82 102 103
f 83 104 130
f 83 130 161
f 83 161 174
f 83 174 173
f 83 173 172
f 83 172 177
f 83 177 176
f 83 176 170
f 83 170 171
f 83 171 168
f 83 168 148
f 83 148 118
f 83 118 142
f 83 142 144
f 83 144 164
f 83 164 180
f 83 180 182
f 83 182 185
f 83 185 187
f 83 187 183
f 83 183 178
f 83 178 155
f 83 155 125
f 83 125 102
f 83 102 101
f 83 101 100
f 84 95 105
f 84 105 106
f 84 106 85
f 85 106 86
f 86 107 108
f 86 108 109
f 86 109 87
f 86 106 110
f 86 110 111
f 86 111 107
f 87 109 113
f 87 113 112
f 88 112 89
f 89 112 113
f 89 113 114
f 89 114 98
f 90 115 92
f 91 116 93
f 91 92 117
f 91 117 116
f 92 115 118
f 92 118 117
f 93 116 119
f 93 119 94
f 94 119 120
f 94 120 96
f 95 121 122
f 95 122 105
f 95 96 123
f 95 123 121
f 96 120 124
f 96 124 123
f 102 125 126
f 102 126 103
f 104 127 128
f 104 128 129
f 104 129 132
f 104 132 130
f 105 122 110
f 105 110 106
f 107 111 131
f 107 131 132
f 107 132 108
f 108 132 129
f 108 129 133
f 108 133 113
f 108 113 109
f 110 122 111
f 111 122 134
f 111 134 135
f 111 135 136
f 111 136 131
f 113 133 137
f 113 137 138
f 113 138 139
f 113 139 140
f 113 140 141
f 113 141 114
f 115 142 118
f 115 143 144
f 115 144 142
f 116 145 119
f 116 117 146
f 116 146 147
f 116 147 145
f 117 118 146
f 118 148 147
f 118 147 146
f 119 145 120
f 120 149 124
f 120 145 150
f 120 150 149
f 121 123 124
f 121 124 151
f 121 151 152
f 121 152 135
f 121 135 134
f 121 134 122
f 124 149 153
f 124 153 154
f 124 154 151
f 125 155 126
f 126 155 156
f 127 157 128
f 128 137 129
f 128 157 158
f 128 158 159
f 128 159 139
f 128 139 138
f 128 138 137
f 129 137 133
f 130 132 160
f 130 160 161
f 131 136 132
f 132 136 162
f 132 162 160
f 135 152 163
f 135 163 162
f 135 162 136
f 143 164 144
f 143 165 166
f 143 166 164
f 145 147 167
f 145 167 150
f 147 148 167
f 148 168 167
f 149 150 169
f 149 169 170
f 149 170 153
f 150 167 168
f 150 168 171
f 150 171 169
f 151 154 152
f 152 154 172
f 152 172 173
f 152 173 174
f 152 174 175
f 152 175 163
f 153 170 176
f 153 176 177
f 153 177 172
f 153 172 154
f 155 178 179
f 155 179 156
f 160 162 175
f 160 175 161
f 161 175 174
f 162 163 175
f 164 166 180
f 165 181 182
f 165 182 180
f 165 180 166
f 169 171 170
f 178 183 184
f 178 184 179
f 181 185 182
f 181 186 185
f 183 187 188
f 183 188 184
f 184 188 186
f 185 186 187
f 186 188 187

