# https://github.com/mikedh/trimesh
v -0.00652522 0.07817068 0.02159119
v -0.00650097 0.07956565 0.02298537
v -0.00624571 0.07956565 0.02159119
v -0.00626230 0.07817068 0.02019701
v -0.00650735 0.07677572 0.02019701
v -0.00648821 0.07398947 0.01880397
v -0.00644609 0.06642313 0.01740864
v -0.00650225 0.08051282 0.02532736
v -0.00648310 0.08095877 0.02532736
v -0.00641418 0.08095877 0.02437955
v -0.00597768 0.08108960 0.02285915
v -0.00575305 0.08067314 0.02159119
v -0.00559733 0.08036172 0.02078222
v -0.00577219 0.07949747 0.02026930
v -0.00560244 0.07898702 0.01939607
v -0.00571986 0.07803432 0.01887971
v -0.00612956 0.07677572 0.01880397
v -0.00643333 0.07538444 0.01880397
v -0.00645630 0.07119955 0.01740864
v -0.00645758 0.06980642 0.01740864
v -0.00634526 0.06642313 0.01681655
v -0.00613594 0.06642313 0.01810401
v -0.00633122 0.07956565 0.02532736
v -0.00624954 0.08190779 0.02532736
v -0.00605298 0.08235742 0.02532736
v -0.00582197 0.08236111 0.02445069
v -0.00569178 0.08190042 0.02323896
v -0.00550671 0.08164243 0.02230951
v -0.00495534 0.08141577 0.02146841
v -0.00409127 0.08163506 0.02092221
v -0.00470646 0.08060312 0.02026930
v -0.00509319 0.07991577 0.01985162
v -0.00470646 0.07949747 0.01916199
v -0.00482388 0.07849132 0.01840121
v -0.00552586 0.07747965 0.01810172
v -0.00565987 0.07677572 0.01791812
v -0.00583090 0.07529414 0.01740061
v -0.00618061 0.07398947 0.01740864
v -0.00639504 0.07259451 0.01740864
v -0.00619593 0.06701650 0.01601446
v -0.00620231 0.06642313 0.01601446
v -0.00590493 0.06642313 0.01861235
v -0.00614998 0.07908469 0.02532736
v -0.00562797 0.08318297 0.02532736
v -0.00557564 0.08311110 0.02496132
v -0.00457755 0.08196860 0.02185166
v -0.00524379 0.08283101 0.02403187
v -0.00431463 0.08317560 0.02346846
v -0.00384111 0.08289919 0.02253785
v -0.00354756 0.08127388 0.02017635
v -0.00416402 0.08028985 0.01947295
v -0.00350161 0.08238690 0.02154529
v -0.00316211 0.08187462 0.02062731
v -0.00406830 0.07882486 0.01813959
v -0.00482388 0.07779476 0.01788599
v -0.00428144 0.07623948 0.01662607
v -0.00521061 0.07569771 0.01693015
v -0.00555904 0.07476896 0.01667541
v -0.00566753 0.07398947 0.01654919
v -0.00581559 0.07259451 0.01634608
v -0.00591514 0.07119955 0.01615675
v -0.00592407 0.06985802 0.01589398
v -0.00613467 0.06841146 0.01601446
v -0.00562031 0.06841146 0.01522385
v -0.00565732 0.06701650 0.01518713
v -0.00565987 0.06642313 0.01518369
v -0.00551948 0.06642313 0.01901281
v -0.00580537 0.07839366 0.02532736
v -0.00478559 0.08379108 0.02532736
v -0.00395981 0.08432916 0.02532736
v -0.00479708 0.08337831 0.02445069
v -0.00392407 0.08434206 0.02530900
v -0.00344800 0.08411172 0.02437496
v -0.00339695 0.08338567 0.02299570
v -0.00291067 0.08313138 0.02216837
v -0.00343014 0.08049624 0.01927100
v -0.00353352 0.07957486 0.01849989
v -0.00203511 0.08205152 0.02041388
v -0.00203511 0.08146000 0.01971736
v -0.00203511 0.08274808 0.02131694
v -0.00313913 0.07911601 0.01791353
v -0.00344035 0.07817437 0.01740061
v -0.00374156 0.07716822 0.01688769
v -0.00333824 0.07673334 0.01647460
v -0.00331399 0.07526466 0.01576087
v -0.00477793 0.07529414 0.01646427
v -0.00482388 0.07398947 0.01599381
v -0.00481750 0.07269955 0.01559219
v -0.00530761 0.07119955 0.01545909
v -0.00547991 0.07035925 0.01534778
v -0.00557053 0.06942866 0.01527320
v -0.00482388 0.06841146 0.01479126
v -0.00482388 0.06701650 0.01471552
v -0.00530250 0.06642313 0.01497830
v -0.00522720 0.06642313 0.01930886
v -0.00516211 0.07768419 0.02532736
v -0.00393173 0.08434575 0.02532736
v -0.00390493 0.08435865 0.02532736
v -0.00323230 0.08467007 0.02532736
v -0.00299491 0.08456319 0.02483625
v -0.00203511 0.08433838 0.02389532
v -0.00203511 0.08382425 0.02298537
v -0.00203511 0.08323457 0.02201460
v -0.00203511 0.08076159 0.01901281
v -0.00203511 0.08001712 0.01831515
v -0.00051246 0.08207548 0.02011209
v -0.00089280 0.08157241 0.01959114
v -0.00064137 0.08287339 0.02114023
v -0.00203511 0.07932056 0.01775748
v -0.00281112 0.07752572 0.01668000
v -0.00277155 0.07471920 0.01530418
v -0.00377985 0.07398947 0.01546023
v -0.00408999 0.07323579 0.01533286
v -0.00434781 0.07230520 0.01520779
v -0.00461074 0.07119955 0.01508157
v -0.00493875 0.06985802 0.01500468
v -0.00343014 0.06980642 0.01435063
v -0.00330761 0.06834881 0.01414867
v -0.00350671 0.06701650 0.01414752
v -0.00427634 0.06642313 0.01446996
v -0.00482388 0.06642313 0.01470749
v -0.00452905 0.06642313 0.01969097
v -0.00485962 0.07743358 0.02532736
v -0.00203511 0.08501467 0.02532736
v -0.00203511 0.08468113 0.02459298
v -0.00115190 0.08441577 0.02374270
v -0.00066817 0.08411172 0.02307832
v -0.00064137 0.08335435 0.02183789
v -0.00064137 0.08017007 0.01818548
v 0.00003636 0.08166086 0.01949590
v -0.00051246 0.08104906 0.01900363
v 0.00075238 0.08286786 0.02114826
v 0.00007210 0.08166086 0.01949590
v -0.00064137 0.07947167 0.01764158
v -0.00064137 0.07851159 0.01694506
v -0.00203511 0.07833837 0.01705981
v -0.00203511 0.07764181 0.01661000
v -0.00203511 0.07677572 0.01614183
v -0.00203511 0.07485373 0.01524795
v -0.00203511 0.07398947 0.01495534
v -0.00203511 0.07259451 0.01455488
v -0.00308170 0.07398947 0.01518484
v -0.00203511 0.07555029 0.01554630
v -0.00354756 0.07269955 0.01498403
v -0.00343014 0.07119955 0.01459045
v -0.00254054 0.06877080 0.01394786
v -0.00276134 0.06784205 0.01391344
v -0.00280857 0.06701650 0.01389738
v -0.00322209 0.06642313 0.01403737
v -0.00351820 0.06642313 0.01414408
v -0.00389089 0.06642313 0.01994801
v -0.00449714 0.07719218 0.02532736
v -0.00343014 0.06642313 0.02013275
v -0.00056862 0.08524870 0.02532736
v -0.00066817 0.08475300 0.02427628
v -0.00022146 0.08448948 0.02360386
v 0.00075238 0.08334882 0.02184593
v 0.00030822 0.08448948 0.02360386
v 0.00075238 0.08016270 0.01819122
v 0.00075238 0.07946614 0.01764732
v 0.00214613 0.08322351 0.02203067
v 0.00214613 0.08273703 0.02133301
v 0.00214613 0.08203862 0.02042765
v 0.00062347 0.08206995 0.02011783
v 0.00100126 0.08156503 0.01960032
v 0.00214613 0.08075054 0.01902429
v 0.00062347 0.08104354 0.01900822
v 0.00075238 0.07850238 0.01694966
v 0.00075238 0.07780582 0.01651017
v -0.00064137 0.07781319 0.01650558
v -0.00064137 0.07677572 0.01594103
v -0.00064137 0.07577326 0.01544991
v -0.00064137 0.07507670 0.01515615
v -0.00064137 0.07398947 0.01477175
v -0.00064137 0.07259451 0.01437587
v -0.00203511 0.07119955 0.01424276
v -0.00205936 0.06981380 0.01401097
v -0.00161137 0.06935495 0.01388820
v -0.00064137 0.06841146 0.01368738
v -0.00205936 0.06834881 0.01385492
v -0.00064137 0.06701650 0.01361395
v -0.00203511 0.06701650 0.01378377
v -0.00248055 0.06642313 0.01384115
v -0.00282133 0.06642313 0.01389393
v -0.00347353 0.07660434 0.02532736
v -0.00262860 0.06642313 0.02032782
v -0.00005553 0.08524501 0.02532736
v 0.00076514 0.08410250 0.02307832
v 0.00067452 0.08523949 0.02532736
v 0.00076514 0.08474747 0.02428546
v 0.00123866 0.08440840 0.02375647
v 0.00214613 0.08380214 0.02298537
v 0.00214613 0.08000422 0.01832777
v 0.00214613 0.07930582 0.01776780
v 0.00299488 0.08312400 0.02217869
v 0.00322973 0.08186725 0.02063649
v 0.00214613 0.08144710 0.01973113
v 0.00330503 0.08054047 0.01922854
v 0.00214613 0.07832363 0.01707014
v 0.00214613 0.07762523 0.01661918
v 0.00075238 0.07677572 0.01595021
v 0.00075238 0.07576405 0.01545450
v 0.00075238 0.07506564 0.01516074
v 0.00075238 0.07398947 0.01478093
v 0.00075238 0.07259451 0.01438390
v 0.00023802 0.07062829 0.01389967
v -0.00014488 0.07062829 0.01389967
v -0.00062222 0.07113505 0.01405343
v -0.00107404 0.07028554 0.01395360
v -0.00062222 0.06981380 0.01383426
v 0.00075238 0.06841146 0.01369427
v 0.00075238 0.06642313 0.01361395
v -0.00004788 0.06642313 0.01360936
v -0.00064137 0.06642313 0.01360706
v -0.00144290 0.06642313 0.01370345
v 0.00075238 0.06701650 0.01362198
v -0.00203511 0.06642313 0.01377574
v -0.00246140 0.07620631 0.02532736
v -0.00203511 0.06642313 0.02047125
v 0.00130758 0.08513445 0.02532736
v 0.00214613 0.08467192 0.02461478
v 0.00214613 0.08432732 0.02391712
v 0.00320803 0.07910680 0.01792042
v 0.00290171 0.07751466 0.01668688
v 0.00392405 0.08287154 0.02258375
v 0.00357689 0.08236847 0.02156939
v 0.00307274 0.08455582 0.02485116
v 0.00349137 0.08336172 0.02302323
v 0.00416017 0.08160558 0.02096008
v 0.00373260 0.08107302 0.02006964
v 0.00423419 0.08026036 0.01950279
v 0.00372111 0.07968358 0.01869726
v 0.00214613 0.07677572 0.01615905
v 0.00214613 0.07553002 0.01555548
v 0.00214613 0.07483345 0.01525598
v 0.00286470 0.07470630 0.01530877
v 0.00214613 0.07398947 0.01497141
v 0.00214613 0.07259451 0.01457094
v 0.00214613 0.07119955 0.01425883
v 0.00072302 0.07113505 0.01406031
v 0.00116719 0.07024868 0.01395934
v 0.00072302 0.06979352 0.01383771
v 0.00214740 0.06830642 0.01386410
v 0.00285576 0.06777202 0.01391918
v 0.00168282 0.06931994 0.01389278
v 0.00261198 0.06870077 0.01395245
v 0.00214613 0.06642313 0.01379066
v 0.00214613 0.06701650 0.01379869
v -0.00214360 0.07611417 0.02532736
v -0.00064137 0.06642313 0.02064108
v 0.00214613 0.08499440 0.02532736
v 0.00413719 0.07878985 0.01816598
v 0.00351945 0.07815226 0.01741668
v 0.00383215 0.07712768 0.01691179
v 0.00343649 0.07670754 0.01649525
v 0.00438480 0.08314980 0.02351321
v 0.00464645 0.08194095 0.02188953
v 0.00259412 0.08488568 0.02532736
v 0.00330503 0.08464980 0.02532736
v 0.00393170 0.08433469 0.02532736
v 0.00398403 0.08430705 0.02532736
v 0.00353860 0.08407671 0.02438414
v 0.00504083 0.08134391 0.02149136
v 0.00567516 0.08032117 0.02082697
v 0.00493489 0.08061602 0.02049765
v 0.00493489 0.07996737 0.01979998
v 0.00568027 0.07894095 0.01943623
v 0.00493489 0.07926896 0.01914822
v 0.00384491 0.07398947 0.01549236
v 0.00314804 0.07398947 0.01519287
v 0.00341352 0.07525545 0.01579070
v 0.00354115 0.07119955 0.01462717
v 0.00363304 0.07265532 0.01500239
v 0.00354115 0.06980642 0.01438735
v 0.00214740 0.06979352 0.01402015
v 0.00358965 0.06701650 0.01417621
v 0.00289278 0.06701650 0.01390540
v 0.00340841 0.06830642 0.01417506
v 0.00290426 0.06642313 0.01390082
v -0.00064392 0.07587277 0.02532736
v 0.00015889 0.06642313 0.02063649
v 0.00075366 0.07588567 0.02532736
v 0.00505104 0.07826282 0.01840809
v 0.00559348 0.07741331 0.01814877
v 0.00466431 0.07785926 0.01784124
v 0.00435289 0.07619709 0.01664787
v 0.00404274 0.08427204 0.02532736
v 0.00488384 0.08332855 0.02448741
v 0.00565729 0.08307794 0.02502328
v 0.00557689 0.08159268 0.02237721
v 0.00580918 0.08060680 0.02159119
v 0.00624057 0.07956565 0.02159119
v 0.00581939 0.07946982 0.02029569
v 0.00625717 0.07817068 0.02019701
v 0.00582322 0.07817068 0.01913559
v 0.00486470 0.07525545 0.01650788
v 0.00564070 0.07470446 0.01670410
v 0.00415761 0.07316024 0.01535352
v 0.00441926 0.07223149 0.01522844
v 0.00465793 0.07119955 0.01511140
v 0.00502296 0.06974745 0.01504485
v 0.00493489 0.06841146 0.01486240
v 0.00493489 0.06701650 0.01479011
v 0.00360114 0.06642313 0.01417277
v 0.00075238 0.06642313 0.02063305
v 0.00193170 0.07610496 0.02532736
v 0.00604274 0.07688075 0.01868923
v 0.00577216 0.07648456 0.01790321
v 0.00535098 0.08341332 0.02532736
v 0.00569431 0.08313322 0.02532736
v 0.00586406 0.08278494 0.02532736
v 0.00586533 0.08233346 0.02448741
v 0.00576195 0.08185435 0.02330666
v 0.00601594 0.08106012 0.02289931
v 0.00640267 0.08095877 0.02437955
v 0.00648946 0.07956565 0.02298537
v 0.00651371 0.07817068 0.02159119
v 0.00649584 0.07677572 0.02019701
v 0.00642181 0.07538444 0.01880397
v 0.00617803 0.07398947 0.01740864
v 0.00572749 0.07398947 0.01659968
v 0.00554625 0.07017129 0.01538565
v 0.00535481 0.07119955 0.01551531
v 0.00490426 0.07265532 0.01565071
v 0.00587555 0.07525545 0.01742700
v 0.00565091 0.06924254 0.01529959
v 0.00568282 0.06841146 0.01526746
v 0.00571601 0.06701650 0.01523418
v 0.00493489 0.06642313 0.01478322
v 0.00214613 0.06642313 0.02045634
v 0.00253413 0.07621921 0.02532736
v 0.00606317 0.08234636 0.02532736
v 0.00647159 0.08095877 0.02532736
v 0.00643458 0.06642313 0.01740864
v 0.00647669 0.07398947 0.01880397
v 0.00644351 0.07119955 0.01740864
v 0.00638225 0.07259451 0.01740864
v 0.00586661 0.07259451 0.01640346
v 0.00613592 0.06841146 0.01601446
v 0.00596616 0.07119955 0.01621298
v 0.00596744 0.06974745 0.01591578
v 0.00619207 0.06701650 0.01601446
v 0.00592405 0.06642313 0.01556580
v 0.00571856 0.06642313 0.01523074
v 0.00294766 0.06642313 0.02024979
v 0.00357433 0.07665041 0.02532736
v 0.00305232 0.07640717 0.02532736
v 0.00632226 0.07956565 0.02532736
v 0.00595595 0.06642313 0.01855841
v 0.00619718 0.06642313 0.01601446
v 0.00644606 0.06980642 0.01740864
v 0.00354115 0.06642313 0.02009603
v 0.00455200 0.07724009 0.02532736
v 0.00585385 0.07844894 0.02532736
v 0.00527695 0.06642313 0.01925608
v 0.00458008 0.06642313 0.01966228
v 0.00521569 0.07775054 0.02532736
v 0.00563560 0.07814120 0.02532736
v 0.00498084 0.06642313 0.01942935
f 1 2 3
f 1 3 4
f 1 4 5
f 1 5 6
f 1 6 7
f 1 7 8
f 1 8 2
f 2 8 9
f 2 9 10
f 2 10 3
f 3 10 11
f 3 11 12
f 3 12 13
f 3 13 14
f 3 14 4
f 4 14 15
f 4 15 16
f 4 16 17
f 4 17 18
f 4 18 5
f 5 18 6
f 6 19 20
f 6 20 7
f 6 18 19
f 7 20 21
f 7 21 41
f 7 41 66
f 7 66 94
f 7 94 121
f 7 121 120
f 7 120 150
f 7 150 149
f 7 149 184
f 7 184 183
f 7 183 217
f 7 217 215
f 7 215 214
f 7 214 213
f 7 213 212
f 7 212 247
f 7 247 279
f 7 279 304
f 7 304 329
f 7 329 344
f 7 344 343
f 7 343 350
f 7 350 334
f 7 334 349
f 7 349 355
f 7 355 359
f 7 359 356
f 7 356 352
f 7 352 345
f 7 345 330
f 7 330 305
f 7 305 281
f 7 281 250
f 7 250 219
f 7 219 186
f 7 186 153
f 7 153 151
f 7 151 122
f 7 122 95
f 7 95 67
f 7 67 42
f 7 42 22
f 7 22 23
f 7 23 8
f 8 23 43
f 8 43 68
f 8 68 96
f 8 96 123
f 8 123 152
f 8 152 185
f 8 185 218
f 8 218 249
f 8 249 280
f 8 280 282
f 8 282 306
f 8 306 331
f 8 331 347
f 8 347 346
f 8 346 353
f 8 353 357
f 8 357 358
f 8 358 354
f 8 354 348
f 8 348 333
f 8 333 332
f 8 332 311
f 8 311 310
f 8 310 309
f 8 309 287
f 8 287 261
f 8 261 260
f 8 260 259
f 8 259 258
f 8 258 251
f 8 251 220
f 8 220 189
f 8 189 187
f 8 187 154
f 8 154 124
f 8 124 99
f 8 99 98
f 8 98 97
f 8 97 70
f 8 70 69
f 8 69 44
f 8 44 25
f 8 25 24
f 8 24 9
f 9 24 10
f 10 24 11
f 11 24 25
f 11 25 26
f 11 26 27
f 11 27 28
f 11 28 12
f 12 28 13
f 13 28 29
f 13 29 30
f 13 30 31
f 13 31 32
f 13 32 15
f 13 15 14
f 15 32 33
f 15 33 34
f 15 34 35
f 15 35 16
f 16 35 17
f 17 36 37
f 17 37 38
f 17 38 18
f 17 35 36
f 18 38 39
f 18 39 19
f 19 39 63
f 19 63 40
f 19 40 41
f 19 41 20
f 20 41 21
f 22 42 23
f 23 42 43
f 25 44 45
f 25 45 26
f 26 45 27
f 27 45 28
f 28 46 30
f 28 30 29
f 28 45 47
f 28 47 48
f 28 48 49
f 28 49 46
f 30 50 51
f 30 51 31
f 30 46 49
f 30 49 52
f 30 52 53
f 30 53 50
f 31 51 32
f 32 51 33
f 33 54 34
f 33 51 54
f 34 54 35
f 35 54 55
f 35 55 56
f 35 56 57
f 35 57 58
f 35 58 36
f 36 58 37
f 37 58 38
f 38 58 59
f 38 59 60
f 38 60 39
f 39 60 61
f 39 61 62
f 39 62 63
f 40 63 64
f 40 64 65
f 40 65 41
f 41 65 66
f 42 67 68
f 42 68 43
f 44 69 45
f 45 69 70
f 45 70 71
f 45 71 48
f 45 48 47
f 48 71 72
f 48 72 73
f 48 73 74
f 48 74 49
f 49 74 75
f 49 75 52
f 50 53 76
f 50 76 51
f 51 76 77
f 51 77 54
f 52 75 53
f 53 78 79
f 53 79 76
f 53 75 80
f 53 80 78
f 54 77 81
f 54 81 82
f 54 82 83
f 54 83 55
f 55 83 56
f 56 84 85
f 56 85 86
f 56 86 58
f 56 58 57
f 56 83 84
f 58 87 88
f 58 88 89
f 58 89 90
f 58 90 59
f 58 86 87
f 59 90 60
f 60 90 61
f 61 90 91
f 61 91 62
f 62 91 63
f 63 91 64
f 64 91 92
f 64 92 93
f 64 93 65
f 65 93 94
f 65 94 66
f 67 95 68
f 68 95 96
f 70 97 72
f 70 72 71
f 72 97 98
f 72 98 99
f 72 99 100
f 72 100 73
f 73 100 74
f 74 100 75
f 75 100 101
f 75 101 102
f 75 102 103
f 75 103 80
f 76 104 105
f 76 105 81
f 76 81 77
f 76 79 104
f 78 106 107
f 78 107 79
f 78 80 108
f 78 108 106
f 79 107 104
f 80 103 108
f 81 109 110
f 81 110 82
f 81 105 109
f 82 110 83
f 83 110 84
f 84 110 111
f 84 111 85
f 85 111 112
f 85 112 86
f 86 112 113
f 86 113 87
f 87 113 88
f 88 113 114
f 88 114 89
f 89 114 90
f 90 114 115
f 90 115 116
f 90 116 91
f 91 116 92
f 92 116 117
f 92 117 118
f 92 118 119
f 92 119 93
f 93 119 120
f 93 120 121
f 93 121 94
f 95 122 96
f 96 122 123
f 99 124 100
f 100 124 125
f 100 125 101
f 101 125 126
f 101 126 102
f 102 126 127
f 102 127 103
f 103 127 128
f 103 128 108
f 104 129 105
f 104 107 130
f 104 130 131
f 104 131 129
f 105 129 109
f 106 130 107
f 106 108 130
f 108 128 157
f 108 157 132
f 108 132 133
f 108 133 130
f 109 134 135
f 109 135 136
f 109 136 110
f 109 129 134
f 110 136 137
f 110 137 138
f 110 138 111
f 111 139 140
f 111 140 141
f 111 141 142
f 111 142 113
f 111 113 112
f 111 138 143
f 111 143 139
f 113 144 114
f 113 142 144
f 114 145 115
f 114 144 145
f 115 145 117
f 115 117 116
f 117 146 147
f 117 147 118
f 117 145 146
f 118 147 119
f 119 147 148
f 119 148 149
f 119 149 150
f 119 150 120
f 122 151 123
f 123 151 153
f 123 153 152
f 124 154 125
f 125 154 155
f 125 155 126
f 126 156 127
f 126 155 156
f 127 156 128
f 128 156 158
f 128 158 157
f 129 131 130
f 129 130 133
f 129 133 159
f 129 159 160
f 129 160 134
f 132 157 161
f 132 161 162
f 132 162 163
f 132 163 164
f 132 164 133
f 133 164 163
f 133 163 165
f 133 165 166
f 133 166 167
f 133 167 159
f 134 160 135
f 135 160 168
f 135 168 169
f 135 169 170
f 135 170 137
f 135 137 136
f 137 170 171
f 137 171 138
f 138 171 172
f 138 172 143
f 139 173 174
f 139 174 140
f 139 143 172
f 139 172 173
f 140 174 141
f 141 175 176
f 141 176 145
f 141 145 144
f 141 144 142
f 141 174 175
f 145 176 146
f 146 176 177
f 146 177 178
f 146 178 179
f 146 179 180
f 146 180 147
f 147 180 181
f 147 181 182
f 147 182 148
f 148 182 183
f 148 183 184
f 148 184 149
f 152 153 185
f 153 186 185
f 154 187 158
f 154 158 156
f 154 156 155
f 157 158 188
f 157 188 161
f 158 187 189
f 158 189 190
f 158 190 191
f 158 191 192
f 158 192 188
f 159 167 166
f 159 166 193
f 159 193 194
f 159 194 160
f 160 194 168
f 161 188 192
f 161 192 195
f 161 195 162
f 162 195 196
f 162 196 163
f 163 196 197
f 163 197 165
f 165 197 166
f 166 198 193
f 166 197 198
f 168 194 199
f 168 199 200
f 168 200 169
f 169 200 201
f 169 201 171
f 169 171 170
f 171 201 202
f 171 202 172
f 172 202 173
f 173 203 174
f 173 202 203
f 174 203 204
f 174 204 205
f 174 205 175
f 175 205 206
f 175 206 207
f 175 207 208
f 175 208 176
f 176 208 207
f 176 207 209
f 176 209 177
f 177 209 178
f 178 209 210
f 178 210 179
f 179 211 181
f 179 181 180
f 179 210 207
f 179 207 206
f 179 206 211
f 181 212 213
f 181 213 214
f 181 214 215
f 181 215 182
f 181 211 216
f 181 216 212
f 182 215 217
f 182 217 183
f 185 186 219
f 185 219 218
f 189 220 221
f 189 221 190
f 190 221 191
f 191 221 222
f 191 222 192
f 192 222 195
f 193 198 223
f 193 223 194
f 194 223 224
f 194 224 199
f 195 225 226
f 195 226 196
f 195 222 227
f 195 227 228
f 195 228 225
f 196 226 229
f 196 229 230
f 196 230 198
f 196 198 197
f 198 231 232
f 198 232 223
f 198 230 231
f 199 224 200
f 200 224 233
f 200 233 201
f 201 233 202
f 202 234 235
f 202 235 203
f 202 233 234
f 203 235 204
f 204 235 236
f 204 236 237
f 204 237 238
f 204 238 205
f 205 238 239
f 205 239 240
f 205 240 206
f 206 240 239
f 206 239 241
f 206 241 242
f 206 242 211
f 207 210 209
f 211 243 244
f 211 244 216
f 211 242 245
f 211 245 246
f 211 246 243
f 212 216 248
f 212 248 247
f 216 244 248
f 218 219 249
f 219 250 249
f 220 251 221
f 221 227 222
f 221 251 227
f 223 252 253
f 223 253 224
f 223 232 252
f 224 253 254
f 224 254 255
f 224 255 236
f 224 236 233
f 225 228 256
f 225 256 257
f 225 257 229
f 225 229 226
f 227 251 258
f 227 258 259
f 227 259 260
f 227 260 261
f 227 261 262
f 227 262 228
f 228 262 256
f 229 263 264
f 229 264 265
f 229 265 231
f 229 231 230
f 229 257 263
f 231 266 267
f 231 267 268
f 231 268 252
f 231 252 232
f 231 265 264
f 231 264 266
f 233 236 234
f 234 236 235
f 236 269 270
f 236 270 238
f 236 238 237
f 236 255 271
f 236 271 269
f 238 272 239
f 238 270 273
f 238 273 272
f 239 272 274
f 239 274 246
f 239 246 275
f 239 275 241
f 241 275 245
f 241 245 242
f 243 246 244
f 244 276 277
f 244 277 248
f 244 246 274
f 244 274 278
f 244 278 276
f 245 275 246
f 247 248 277
f 247 277 279
f 249 250 280
f 250 281 282
f 250 282 280
f 252 268 283
f 252 283 284
f 252 284 285
f 252 285 254
f 252 254 253
f 254 285 286
f 254 286 255
f 255 286 271
f 256 262 261
f 256 261 287
f 256 287 288
f 256 288 289
f 256 289 290
f 256 290 257
f 257 290 263
f 263 290 264
f 264 290 291
f 264 291 292
f 264 292 293
f 264 293 267
f 264 267 266
f 267 293 294
f 267 294 295
f 267 295 284
f 267 284 283
f 267 283 268
f 269 271 296
f 269 296 297
f 269 297 298
f 269 298 270
f 270 298 273
f 271 286 296
f 272 273 299
f 272 299 300
f 272 300 274
f 273 298 299
f 274 301 302
f 274 302 278
f 274 300 301
f 276 278 302
f 276 302 303
f 276 303 304
f 276 304 279
f 276 279 277
f 281 305 282
f 282 305 306
f 284 286 285
f 284 295 307
f 284 307 308
f 284 308 297
f 284 297 286
f 286 297 296
f 287 309 289
f 287 289 288
f 289 309 310
f 289 310 311
f 289 311 312
f 289 312 313
f 289 313 290
f 290 313 291
f 291 313 314
f 291 314 292
f 292 314 315
f 292 315 316
f 292 316 317
f 292 317 294
f 292 294 293
f 294 317 318
f 294 318 319
f 294 319 307
f 294 307 295
f 297 320 321
f 297 321 322
f 297 322 323
f 297 323 324
f 297 324 299
f 297 299 298
f 297 308 325
f 297 325 320
f 299 323 300
f 299 324 323
f 300 323 322
f 300 322 301
f 301 326 302
f 301 322 326
f 302 326 327
f 302 327 303
f 303 328 329
f 303 329 304
f 303 327 328
f 305 330 331
f 305 331 306
f 307 319 320
f 307 320 325
f 307 325 308
f 311 332 312
f 312 332 314
f 312 314 313
f 314 332 315
f 315 333 316
f 315 332 333
f 316 333 317
f 317 334 335
f 317 335 318
f 317 333 334
f 318 335 319
f 319 335 336
f 319 336 337
f 319 337 320
f 320 337 338
f 320 338 321
f 321 338 322
f 322 338 326
f 326 339 327
f 326 338 340
f 326 340 341
f 326 341 339
f 327 339 342
f 327 342 328
f 328 342 343
f 328 343 344
f 328 344 329
f 330 345 346
f 330 346 347
f 330 347 331
f 333 348 334
f 334 350 351
f 334 351 335
f 334 348 349
f 335 351 336
f 336 351 350
f 336 350 342
f 336 342 339
f 336 339 337
f 337 339 341
f 337 341 340
f 337 340 338
f 342 350 343
f 345 352 346
f 346 352 353
f 348 354 349
f 349 354 355
f 352 356 357
f 352 357 353
f 354 358 355
f 355 358 359
f 356 359 358
f 356 358 357

