# https://github.com/mikedh/trimesh
v -0.01262036 0.04982632 0.00484083
v -0.01262036 0.04372444 0.00484083
v -0.01262036 0.04982632 0.00346369
v -0.01311729 0.04972185 0.00484083
v -0.01262036 0.04386622 0.00396512
v -0.03358122 0.03076892 0.00484083
v -0.01262036 0.04981699 0.00292587
v -0.01308079 0.04970693 0.00206975
v -0.01313414 0.04971812 0.00346369
v -0.01313414 0.04971812 0.00484083
v -0.01262036 0.04611408 0.00075619
v -0.03414272 0.03076892 0.00387995
v -0.03688847 0.03076892 0.00075619
v -0.04129906 0.03076892 0.00484083
v -0.01262036 0.04980207 0.00206975
v -0.01285058 0.04965843 0.00119484
v -0.01598095 0.04888987 0.00206975
v -0.01598095 0.04889546 0.00346369
v -0.01598095 0.04889546 0.00484083
v -0.01262036 0.04946815 0.00075619
v -0.04084986 0.03076892 0.00075619
v -0.04059438 0.03172029 0.00484083
v -0.04129906 0.03076892 0.00346369
v -0.01262036 0.04968268 0.00114446
v -0.01262036 0.04959873 0.00099091
v -0.01322678 0.04932824 0.00075619
v -0.01466704 0.04893650 0.00075619
v -0.01636838 0.04845895 0.00075619
v -0.01713203 0.04835075 0.00103650
v -0.01806131 0.04817913 0.00149754
v -0.01750823 0.04839925 0.00200537
v -0.01737628 0.04847387 0.00346369
v -0.01737628 0.04847387 0.00484083
v -0.01270178 0.04944950 0.00075619
v -0.04126537 0.03076892 0.00198858
v -0.04077687 0.03089950 0.00075619
v -0.04058315 0.03173149 0.00346369
v -0.04004691 0.03242916 0.00484083
v -0.04004691 0.03242916 0.00346369
v -0.04056911 0.03171283 0.00206975
v -0.01692427 0.04827240 0.00075619
v -0.01738189 0.04809891 0.00075619
v -0.02018940 0.04702442 0.00075619
v -0.02104008 0.04687891 0.00118685
v -0.01865089 0.04796833 0.00200537
v -0.01810342 0.04820151 0.00242723
v -0.02016414 0.04736020 0.00206975
v -0.01812027 0.04820711 0.00346369
v -0.01811185 0.04821084 0.00484083
v -0.04049892 0.03161583 0.00114886
v -0.04037539 0.03145167 0.00075619
v -0.03935908 0.03325183 0.00484083
v -0.03935065 0.03326115 0.00346369
v -0.03933662 0.03324436 0.00206975
v -0.04003287 0.03241051 0.00206975
v -0.02078740 0.04675766 0.00075619
v -0.02115519 0.04693301 0.00206975
v -0.02364545 0.04539961 0.00075619
v -0.02385882 0.04550968 0.00113886
v -0.02398516 0.04557683 0.00206975
v -0.02118045 0.04694607 0.00346369
v -0.02016414 0.04737326 0.00346369
v -0.02014729 0.04738072 0.00484083
v -0.03921028 0.03310446 0.00100891
v -0.03953033 0.03251497 0.00075619
v -0.03991777 0.03203369 0.00075619
v -0.03872458 0.03395883 0.00484083
v -0.03872458 0.03395883 0.00346369
v -0.03871054 0.03394204 0.00206975
v -0.02425187 0.04506010 0.00075619
v -0.02564720 0.04425609 0.00075619
v -0.02651191 0.04405090 0.00127562
v -0.02468423 0.04517389 0.00206975
v -0.02400762 0.04558989 0.00346369
v -0.02118045 0.04694607 0.00484083
v -0.02399639 0.04559549 0.00484083
v -0.03801428 0.03471247 0.00206975
v -0.03738259 0.03541015 0.00206975
v -0.03786267 0.03454644 0.00095613
v -0.03779529 0.03447183 0.00075619
v -0.03809850 0.03413791 0.00075619
v -0.03912325 0.03300745 0.00075619
v -0.03739663 0.03542507 0.00484083
v -0.03739663 0.03542507 0.00346369
v -0.02626205 0.04389979 0.00075619
v -0.02657087 0.04408447 0.00206975
v -0.02703411 0.04343343 0.00075619
v -0.02748612 0.04315548 0.00075619
v -0.02818519 0.04284209 0.00096092
v -0.03067826 0.04126019 0.00128241
v -0.02838171 0.04296894 0.00206975
v -0.02726433 0.04366661 0.00206975
v -0.02659333 0.04409753 0.00346369
v -0.02401885 0.04558429 0.00484083
v -0.03670036 0.03616192 0.00346369
v -0.03668352 0.03614700 0.00206975
v -0.03512254 0.03732410 0.00093693
v -0.03644769 0.03590262 0.00075619
v -0.03752016 0.03477030 0.00075619
v -0.03669194 0.03617125 0.00484083
v -0.02809254 0.04278053 0.00075619
v -0.03045927 0.04109789 0.00075619
v -0.03072598 0.04129563 0.00206975
v -0.03137452 0.04042260 0.00075619
v -0.03222239 0.03998795 0.00107528
v -0.03234311 0.04008309 0.00206975
v -0.03142225 0.04077890 0.00206975
v -0.03074564 0.04131056 0.00346369
v -0.02840137 0.04298199 0.00346369
v -0.02728679 0.04367967 0.00346369
v -0.02659333 0.04409753 0.00484083
v -0.03600972 0.03685960 0.00346369
v -0.03599287 0.03684468 0.00206975
v -0.03475195 0.03753676 0.00075619
v -0.03505236 0.03726254 0.00075619
v -0.03532469 0.03700884 0.00075619
v -0.03367948 0.03867468 0.00098811
v -0.03359245 0.03859446 0.00075619
v -0.03600972 0.03685960 0.00484083
v -0.03209324 0.03988535 0.00075619
v -0.03257052 0.03948242 0.00075619
v -0.03382828 0.03881086 0.00206975
v -0.03303937 0.03950853 0.00206975
v -0.03235995 0.04009801 0.00346369
v -0.03144190 0.04079196 0.00346369
v -0.03074564 0.04131056 0.00484083
v -0.02840979 0.04297640 0.00484083
v -0.02838733 0.04299132 0.00484083
v -0.02728679 0.04367967 0.00484083
v -0.03532188 0.03749012 0.00484083
v -0.03531345 0.03749758 0.00346369
v -0.03529661 0.03748266 0.00206975
v -0.03317975 0.03895450 0.00075619
v -0.03452735 0.03818033 0.00206975
v -0.03384513 0.03882578 0.00346369
v -0.03305622 0.03952346 0.00346369
v -0.03235995 0.04009801 0.00484083
v -0.03144190 0.04079196 0.00484083
v -0.03454420 0.03819526 0.00484083
v -0.03454420 0.03819526 0.00346369
v -0.03383670 0.03883511 0.00484083
v -0.03305622 0.03952346 0.00484083
f 1 2 5
f 1 5 11
f 1 11 20
f 1 20 25
f 1 25 24
f 1 24 15
f 1 15 7
f 1 7 3
f 1 3 4
f 1 4 10
f 1 10 19
f 1 19 33
f 1 33 49
f 1 49 63
f 1 63 75
f 1 75 76
f 1 76 94
f 1 94 111
f 1 111 129
f 1 129 128
f 1 128 127
f 1 127 126
f 1 126 138
f 1 138 137
f 1 137 142
f 1 142 141
f 1 141 139
f 1 139 130
f 1 130 119
f 1 119 100
f 1 100 83
f 1 83 67
f 1 67 52
f 1 52 38
f 1 38 22
f 1 22 14
f 1 14 6
f 1 6 2
f 2 6 5
f 3 7 8
f 3 8 9
f 3 9 4
f 4 9 10
f 5 6 12
f 5 12 13
f 5 13 11
f 6 14 23
f 6 23 35
f 6 35 21
f 6 21 13
f 6 13 12
f 7 15 8
f 8 15 16
f 8 16 17
f 8 17 9
f 9 17 18
f 9 18 19
f 9 19 10
f 11 13 21
f 11 21 36
f 11 36 51
f 11 51 66
f 11 66 65
f 11 65 82
f 11 82 81
f 11 81 80
f 11 80 99
f 11 99 98
f 11 98 116
f 11 116 115
f 11 115 114
f 11 114 118
f 11 118 133
f 11 133 121
f 11 121 120
f 11 120 104
f 11 104 102
f 11 102 101
f 11 101 88
f 11 88 87
f 11 87 85
f 11 85 71
f 11 71 70
f 11 70 58
f 11 58 56
f 11 56 43
f 11 43 42
f 11 42 41
f 11 41 28
f 11 28 27
f 11 27 26
f 11 26 34
f 11 34 20
f 14 22 23
f 15 24 16
f 16 24 25
f 16 25 26
f 16 26 27
f 16 27 28
f 16 28 29
f 16 29 30
f 16 30 17
f 17 30 31
f 17 31 32
f 17 32 18
f 18 32 33
f 18 33 19
f 20 34 25
f 21 35 36
f 22 37 23
f 22 38 39
f 22 39 37
f 23 37 40
f 23 40 35
f 25 34 26
f 28 41 29
f 29 41 42
f 29 42 43
f 29 43 44
f 29 44 30
f 30 45 46
f 30 46 31
f 30 44 47
f 30 47 45
f 31 46 32
f 32 46 48
f 32 48 49
f 32 49 33
f 35 40 50
f 35 50 36
f 36 50 51
f 37 39 55
f 37 55 40
f 38 52 39
f 39 52 53
f 39 53 54
f 39 54 55
f 40 55 50
f 43 56 44
f 44 57 47
f 44 56 58
f 44 58 59
f 44 59 60
f 44 60 57
f 45 47 46
f 46 47 48
f 47 57 61
f 47 61 62
f 47 62 48
f 48 62 63
f 48 63 49
f 50 55 54
f 50 54 64
f 50 64 65
f 50 65 66
f 50 66 51
f 52 67 68
f 52 68 53
f 53 68 69
f 53 69 54
f 54 69 64
f 57 60 61
f 58 70 59
f 59 70 71
f 59 71 72
f 59 72 60
f 60 72 73
f 60 73 74
f 60 74 61
f 61 75 63
f 61 63 62
f 61 74 76
f 61 76 75
f 64 69 77
f 64 77 78
f 64 78 79
f 64 79 80
f 64 80 81
f 64 81 82
f 64 82 65
f 67 83 84
f 67 84 68
f 68 84 78
f 68 78 77
f 68 77 69
f 71 85 72
f 72 86 73
f 72 85 87
f 72 87 88
f 72 88 89
f 72 89 90
f 72 90 91
f 72 91 92
f 72 92 86
f 73 86 93
f 73 93 74
f 74 94 76
f 74 93 94
f 78 84 95
f 78 95 96
f 78 96 79
f 79 96 97
f 79 97 98
f 79 98 99
f 79 99 80
f 83 100 84
f 84 100 95
f 86 92 110
f 86 110 93
f 88 101 89
f 89 101 102
f 89 102 90
f 90 103 91
f 90 102 104
f 90 104 105
f 90 105 106
f 90 106 107
f 90 107 103
f 91 103 108
f 91 108 109
f 91 109 110
f 91 110 92
f 93 111 94
f 93 110 129
f 93 129 111
f 95 100 112
f 95 112 113
f 95 113 96
f 96 113 97
f 97 114 115
f 97 115 116
f 97 116 98
f 97 113 117
f 97 117 118
f 97 118 114
f 100 119 112
f 103 107 108
f 104 120 105
f 105 120 121
f 105 121 117
f 105 117 122
f 105 122 123
f 105 123 106
f 106 124 125
f 106 125 107
f 106 123 136
f 106 136 124
f 107 125 108
f 108 126 127
f 108 127 109
f 108 125 138
f 108 138 126
f 109 127 128
f 109 128 110
f 110 128 129
f 112 119 130
f 112 130 131
f 112 131 132
f 112 132 113
f 113 132 117
f 117 121 133
f 117 133 118
f 117 132 134
f 117 134 122
f 122 135 136
f 122 136 123
f 122 134 140
f 122 140 135
f 124 137 138
f 124 138 125
f 124 136 142
f 124 142 137
f 130 139 140
f 130 140 131
f 131 140 134
f 131 134 132
f 135 141 136
f 135 140 141
f 136 141 142
f 139 141 140

