# https://github.com/mikedh/trimesh
v -0.03971628 -0.02239867 0.10967373
v -0.04362301 -0.01333957 0.11082740
v -0.03971725 -0.02239867 0.11082740
v -0.03971628 -0.02239867 0.00625329
v -0.04367946 -0.01333957 0.11222906
v -0.03972601 -0.02239867 0.11105382
v -0.04362301 -0.01333957 0.00486241
v -0.03972017 -0.02239867 0.00509962
v -0.03977467 -0.02239867 0.11222906
v -0.04415345 -0.01333957 0.11365227
v -0.04009293 -0.02239867 0.11331803
v -0.03972114 -0.02239867 0.00486241
v -0.03972601 -0.02239867 0.00484085
v -0.04362690 -0.01333957 0.00485163
v -0.04448923 -0.01333957 0.11418059
v -0.04057763 -0.02239867 0.11404042
v -0.04639296 -0.02239867 0.00484085
v -0.04347994 -0.01383887 0.00484085
v -0.04459629 -0.01333957 0.00484085
v -0.04471114 -0.01333957 0.11437466
v -0.04443278 -0.01415458 0.11441779
v -0.04159957 -0.02115354 0.11443935
v -0.04127449 -0.02239867 0.11457952
v -0.04646888 -0.02223904 0.00484085
v -0.04639296 -0.02239867 0.11082740
v -0.04965928 -0.01333957 0.00484085
v -0.04522600 -0.01333957 0.11464421
v -0.04247552 -0.02222751 0.11493533
v -0.04247552 -0.02239867 0.11493533
v -0.04708399 -0.02093893 0.00484085
v -0.04632483 -0.02239867 0.11222906
v -0.04739057 -0.02021260 0.11189482
v -0.04740906 -0.02025074 0.11082740
v -0.04965928 -0.01333957 0.11082740
v -0.04923104 -0.01525604 0.00484085
v -0.04665769 -0.01333957 0.11497845
v -0.04526298 -0.01525604 0.11489220
v -0.04387022 -0.02083339 0.11498923
v -0.04387022 -0.02222751 0.11493533
v -0.04388093 -0.02239867 0.11490298
v -0.04740906 -0.02025074 0.00484085
v -0.04640561 -0.02222751 0.11222906
v -0.04610779 -0.02239867 0.11316708
v -0.04733412 -0.02011239 0.11282207
v -0.04773511 -0.01943839 0.11082740
v -0.04761053 -0.01956432 0.11230452
v -0.04773122 -0.01944903 0.00484085
v -0.04923104 -0.01525604 0.11082740
v -0.04965052 -0.01333957 0.11126946
v -0.04922714 -0.01526934 0.00484085
v -0.04665769 -0.01386192 0.11497845
v -0.04810106 -0.01333957 0.11465499
v -0.04526298 -0.01804427 0.11497845
v -0.04526298 -0.01943839 0.11491376
v -0.04499047 -0.02222751 0.11455796
v -0.04495153 -0.02239867 0.11453639
v -0.04575449 -0.02239867 0.11370618
v -0.04614867 -0.02222751 0.11324256
v -0.04752780 -0.01918298 0.11323177
v -0.04879014 -0.01606839 0.11300535
v -0.04884367 -0.01621738 0.11222906
v -0.04887676 -0.01631049 0.11082740
v -0.04773511 -0.01943839 0.00484085
v -0.04916583 -0.01525604 0.11222906
v -0.04963105 -0.01333957 0.11218593
v -0.04887676 -0.01631049 0.00484085
v -0.04665769 -0.01525604 0.11494611
v -0.04812637 -0.01379896 0.11459030
v -0.04778475 -0.01525604 0.11457952
v -0.04665769 -0.01665104 0.11481672
v -0.04872007 -0.01333957 0.11436388
v -0.04632483 -0.01943839 0.11453639
v -0.04611752 -0.02046713 0.11442857
v -0.04587907 -0.02139743 0.11424528
v -0.04563186 -0.02239867 0.11388947
v -0.04568733 -0.02222751 0.11393260
v -0.04646206 -0.02089281 0.11371697
v -0.04707620 -0.01956432 0.11367384
v -0.04721830 -0.01842562 0.11416980
v -0.04892543 -0.01525604 0.11325334
v -0.04949869 -0.01386192 0.11222906
v -0.04945976 -0.01333957 0.11274659
v -0.04755700 -0.01665104 0.11446092
v -0.04880669 -0.01333957 0.11428841
v -0.04864026 -0.01422198 0.11420215
v -0.04740711 -0.01749621 0.11436388
v -0.04848258 -0.01525604 0.11394339
v -0.04905682 -0.01379896 0.11369540
v -0.04917264 -0.01333957 0.11366306
f 1 2 3
f 1 3 6
f 1 6 9
f 1 9 11
f 1 11 16
f 1 16 23
f 1 23 29
f 1 29 40
f 1 40 56
f 1 56 75
f 1 75 57
f 1 57 43
f 1 43 31
f 1 31 25
f 1 25 17
f 1 17 13
f 1 13 12
f 1 12 8
f 1 8 4
f 1 4 7
f 1 7 2
f 2 5 6
f 2 6 3
f 2 7 14
f 2 14 19
f 2 19 26
f 2 26 34
f 2 34 49
f 2 49 65
f 2 65 82
f 2 82 89
f 2 89 84
f 2 84 71
f 2 71 52
f 2 52 36
f 2 36 27
f 2 27 20
f 2 20 15
f 2 15 10
f 2 10 5
f 4 8 7
f 5 9 6
f 5 10 11
f 5 11 9
f 7 8 12
f 7 12 13
f 7 13 14
f 10 15 11
f 11 15 16
f 13 17 24
f 13 24 30
f 13 30 41
f 13 41 47
f 13 47 63
f 13 63 66
f 13 66 50
f 13 50 35
f 13 35 26
f 13 26 19
f 13 19 18
f 13 18 14
f 14 18 19
f 15 20 16
f 16 20 21
f 16 21 22
f 16 22 23
f 17 25 24
f 20 27 21
f 21 27 23
f 21 23 22
f 23 27 28
f 23 28 29
f 24 25 30
f 25 31 32
f 25 32 33
f 25 33 30
f 26 35 48
f 26 48 34
f 27 36 37
f 27 37 28
f 28 37 36
f 28 36 38
f 28 38 29
f 29 38 39
f 29 39 40
f 30 33 41
f 31 42 32
f 31 43 44
f 31 44 42
f 32 45 33
f 32 42 44
f 32 44 46
f 32 46 45
f 33 45 47
f 33 47 41
f 34 48 49
f 35 50 48
f 36 51 38
f 36 52 51
f 38 51 53
f 38 53 39
f 39 54 55
f 39 55 40
f 39 53 54
f 40 55 56
f 43 57 58
f 43 58 44
f 44 58 59
f 44 59 60
f 44 60 46
f 45 46 61
f 45 61 62
f 45 62 66
f 45 66 63
f 45 63 47
f 46 60 61
f 48 62 61
f 48 61 64
f 48 64 65
f 48 65 49
f 48 50 62
f 50 66 62
f 51 52 67
f 51 67 53
f 52 68 69
f 52 69 70
f 52 70 67
f 52 71 68
f 53 67 54
f 54 67 70
f 54 70 72
f 54 72 55
f 55 72 73
f 55 73 56
f 56 73 74
f 56 74 75
f 57 75 76
f 57 76 58
f 58 76 74
f 58 74 77
f 58 77 59
f 59 77 78
f 59 78 79
f 59 79 60
f 60 79 80
f 60 80 81
f 60 81 64
f 60 64 61
f 64 81 65
f 65 81 80
f 65 80 82
f 68 71 69
f 69 71 83
f 69 83 72
f 69 72 70
f 71 84 85
f 71 85 83
f 72 83 86
f 72 86 73
f 73 86 79
f 73 79 74
f 74 76 75
f 74 79 78
f 74 78 77
f 79 86 87
f 79 87 80
f 80 87 85
f 80 85 88
f 80 88 89
f 80 89 82
f 83 85 86
f 84 89 88
f 84 88 85
f 85 87 86

