# https://github.com/mikedh/trimesh
v 0.04019623 0.03257750 0.09967880
v 0.03953789 0.03337080 0.09967880
v 0.03940119 0.03319513 0.11082733
v 0.03990843 0.03257750 0.11082733
v 0.04019623 0.03257750 0.01462006
v 0.03894251 0.03406803 0.09827715
v 0.03894071 0.03406803 0.09967880
v 0.03953789 0.03337080 0.01462006
v 0.03877703 0.03389235 0.11082733
v 0.03935982 0.03314846 0.11222898
v 0.03824280 0.03484898 0.09967880
v 0.03982569 0.03257750 0.11222898
v 0.04016385 0.03257750 0.01322919
v 0.03952170 0.03335296 0.01322919
v 0.03824460 0.03484898 0.09827715
v 0.03894251 0.03406803 0.01462006
v 0.03744776 0.03535818 0.11082733
v 0.03740639 0.03531289 0.11222898
v 0.03873566 0.03384569 0.11222898
v 0.03924470 0.03301945 0.11314545
v 0.03761684 0.03554621 0.09827715
v 0.03760965 0.03554621 0.09967880
v 0.03946594 0.03257750 0.11332874
v 0.03990843 0.03257750 0.00485162
v 0.03940119 0.03319513 0.00484084
v 0.03892632 0.03405019 0.01322919
v 0.03824460 0.03484898 0.01462006
v 0.03674985 0.03610344 0.11082733
v 0.03670848 0.03605952 0.11222898
v 0.03789924 0.03446194 0.11321014
v 0.03839210 0.03353962 0.11364141
v 0.03888495 0.03260495 0.11408348
v 0.03691893 0.03620638 0.09549541
v 0.03691893 0.03620501 0.09688628
v 0.03761684 0.03554621 0.01462006
v 0.03691893 0.03618854 0.09827715
v 0.03459497 0.03814023 0.11082733
v 0.03536303 0.03744300 0.11082733
v 0.03606094 0.03680067 0.11082733
v 0.03892812 0.03257750 0.11405113
v 0.03876263 0.03257750 0.00484084
v 0.03877703 0.03389235 0.00484084
v 0.03822841 0.03482016 0.01322919
v 0.03601417 0.03675675 0.11222898
v 0.03654839 0.03589071 0.11325327
v 0.03617246 0.03549955 0.11419130
v 0.03753230 0.03405980 0.11413739
v 0.03795501 0.03313062 0.11446085
v 0.03885797 0.03257750 0.11411583
v 0.03614188 0.03690361 0.09549541
v 0.03691893 0.03620638 0.01741259
v 0.03614008 0.03690224 0.09688628
v 0.03389706 0.03877157 0.11082733
v 0.03744776 0.03535818 0.00484084
v 0.03743877 0.03536779 0.00484084
v 0.03674985 0.03610344 0.00484084
v 0.03606094 0.03680067 0.00484084
v 0.03536303 0.03744300 0.00484084
v 0.03459497 0.03814023 0.00484084
v 0.03691893 0.03619952 0.01602171
v 0.03454820 0.03809768 0.11222898
v 0.03531806 0.03740045 0.11222898
v 0.03183750 0.03257750 0.00484084
v 0.03370999 0.03860276 0.11317780
v 0.03515257 0.03725085 0.11323171
v 0.03566161 0.03638618 0.11370611
v 0.03474966 0.03688165 0.11415896
v 0.03524251 0.03595110 0.11448241
v 0.03660236 0.03457037 0.11447163
v 0.03704305 0.03357668 0.11463336
v 0.03821222 0.03257750 0.11453632
v 0.03310921 0.03946880 0.11082733
v 0.03614188 0.03690361 0.01880345
v 0.03614008 0.03690361 0.01741259
v 0.03385029 0.03872903 0.11222898
v 0.03389706 0.03877157 0.00484084
v 0.03613289 0.03689674 0.01602171
v 0.02182034 0.03997937 0.00484084
v 0.03183391 0.03257750 0.00486241
v 0.02182034 0.03997800 0.00485162
v 0.03225301 0.03992447 0.11309154
v 0.03278004 0.03909137 0.11359829
v 0.03330887 0.03823767 0.11410504
v 0.03422982 0.03774358 0.11367376
v 0.03237892 0.03865080 0.11445007
v 0.03381971 0.03730712 0.11446085
v 0.03283580 0.03775730 0.11462257
v 0.03425860 0.03638618 0.11464414
v 0.03566881 0.03499858 0.11465492
v 0.03701786 0.03257750 0.11485977
v 0.03241130 0.04005074 0.11082733
v 0.03236273 0.04001231 0.11222898
v 0.03306064 0.03942626 0.11222898
v 0.03310921 0.03946880 0.00484084
v 0.02182034 0.04643147 0.00484084
v 0.03182671 0.03257750 0.00625327
v 0.02182034 0.03997662 0.00569261
v 0.03070790 0.04118442 0.11274651
v 0.02821125 0.04278750 0.11321014
v 0.02977795 0.04154264 0.11337187
v 0.02932287 0.04120364 0.11430990
v 0.03180872 0.03957997 0.11401879
v 0.03088058 0.03993270 0.11438537
v 0.03137883 0.03912019 0.11456866
v 0.03003697 0.03912842 0.11487056
v 0.03142919 0.03773397 0.11493525
v 0.03282321 0.03633951 0.11495682
v 0.03421903 0.03494506 0.11496760
v 0.03561305 0.03355060 0.11496760
v 0.03561305 0.03257750 0.11495682
v 0.03149394 0.04074797 0.11082733
v 0.03077625 0.04125030 0.11181927
v 0.03241130 0.04005074 0.00484084
v 0.03148495 0.04075483 0.00484084
v 0.03131587 0.04079189 0.11226133
v 0.02191927 0.04654539 0.00484084
v 0.02182034 0.04659892 0.00485162
v 0.03182671 0.03257750 0.10944724
v 0.02182034 0.03997662 0.11082733
v 0.02909623 0.04241967 0.11222898
v 0.02839832 0.04291102 0.11222898
v 0.02653123 0.04398431 0.11281121
v 0.02387450 0.04546249 0.11303763
v 0.02560129 0.04427391 0.11332874
v 0.02771300 0.04245535 0.11414817
v 0.02876706 0.04199968 0.11376002
v 0.02678306 0.04275181 0.11441772
v 0.02839292 0.04152617 0.11448241
v 0.03003697 0.04024289 0.11451475
v 0.02724713 0.04195988 0.11462257
v 0.02877246 0.04065189 0.11468727
v 0.02585311 0.04191596 0.11490290
v 0.02724713 0.04052151 0.11496760
v 0.02864295 0.03912842 0.11497838
v 0.03003697 0.03773397 0.11497838
v 0.02445909 0.04191596 0.11498916
v 0.02182034 0.04331042 0.11497838
v 0.02306507 0.04191596 0.11491369
v 0.02182034 0.04185008 0.11467649
v 0.03421543 0.03257750 0.11469805
v 0.03079784 0.04126540 0.11082733
v 0.02845408 0.04294671 0.11082733
v 0.03079784 0.04126540 0.00484084
v 0.02405977 0.04556131 0.00484084
v 0.02182034 0.04659892 0.11082733
v 0.03182851 0.03257750 0.11083812
v 0.02182034 0.04002329 0.11174380
v 0.02734066 0.04364393 0.11082733
v 0.02661218 0.04404333 0.11188396
v 0.02714460 0.04367413 0.11230446
v 0.02598082 0.04437136 0.11230446
v 0.02469292 0.04513172 0.11222898
v 0.02182034 0.04606364 0.11361985
v 0.02306507 0.04565738 0.11335030
v 0.02306507 0.04520034 0.11404035
v 0.02447528 0.04471723 0.11365220
v 0.02399682 0.04552700 0.11222898
v 0.02182034 0.04654676 0.11222898
v 0.02507785 0.04394588 0.11426677
v 0.02414791 0.04422999 0.11446085
v 0.02585311 0.04301945 0.11453632
v 0.02455083 0.04341335 0.11466570
v 0.02306507 0.04331042 0.11494603
v 0.02182034 0.04482016 0.11466570
v 0.02182034 0.04151519 0.11454710
v 0.03342759 0.03257750 0.11445007
v 0.02845408 0.04294671 0.00484084
v 0.02474869 0.04516466 0.00484084
v 0.02405977 0.04556131 0.11082733
v 0.02182034 0.04655088 0.11215351
v 0.03192564 0.03257750 0.11222898
v 0.02182034 0.04004937 0.11222898
v 0.02664276 0.04406254 0.11082733
v 0.02734066 0.04364393 0.00484084
v 0.02733167 0.04364942 0.00484084
v 0.02475768 0.04515917 0.11082733
v 0.02182034 0.04595659 0.11378158
v 0.02232939 0.04537602 0.11429912
v 0.02306507 0.04450311 0.11457944
v 0.02182034 0.04486408 0.11464414
v 0.02182034 0.04067111 0.11373846
v 0.02207756 0.04106639 0.11441772
v 0.03331606 0.03263789 0.11442850
v 0.03325491 0.03257750 0.11430990
v 0.02664276 0.04406254 0.00484084
v 0.03226021 0.03257750 0.11325327
v 0.03199759 0.03272985 0.11310232
v 0.02236536 0.03982291 0.11291903
v 0.02182034 0.04049268 0.11350125
v 0.02182034 0.04054896 0.11358751
v 0.03268111 0.03257750 0.11377080
f 1 2 3
f 1 3 4
f 1 4 12
f 1 12 23
f 1 23 40
f 1 40 49
f 1 49 71
f 1 71 90
f 1 90 110
f 1 110 140
f 1 140 166
f 1 166 184
f 1 184 191
f 1 191 186
f 1 186 171
f 1 171 146
f 1 146 118
f 1 118 96
f 1 96 79
f 1 79 63
f 1 63 41
f 1 41 24
f 1 24 13
f 1 13 5
f 1 5 8
f 1 8 2
f 2 6 7
f 2 7 3
f 2 8 16
f 2 16 6
f 3 9 19
f 3 19 10
f 3 10 4
f 3 7 11
f 3 11 9
f 4 10 12
f 5 13 14
f 5 14 8
f 6 15 11
f 6 11 7
f 6 16 27
f 6 27 15
f 8 14 26
f 8 26 16
f 9 17 18
f 9 18 19
f 9 11 17
f 10 19 20
f 10 20 12
f 11 15 21
f 11 21 22
f 11 22 17
f 12 20 23
f 13 24 25
f 13 25 14
f 14 25 26
f 15 27 35
f 15 35 21
f 16 26 27
f 17 28 29
f 17 29 18
f 17 22 28
f 18 29 30
f 18 30 20
f 18 20 19
f 20 30 31
f 20 31 32
f 20 32 23
f 21 33 34
f 21 34 22
f 21 35 51
f 21 51 33
f 22 34 36
f 22 36 37
f 22 37 38
f 22 38 39
f 22 39 28
f 23 32 40
f 24 41 25
f 25 41 63
f 25 63 78
f 25 78 95
f 25 95 116
f 25 116 144
f 25 144 168
f 25 168 185
f 25 185 175
f 25 175 174
f 25 174 167
f 25 167 143
f 25 143 114
f 25 114 113
f 25 113 94
f 25 94 76
f 25 76 59
f 25 59 58
f 25 58 57
f 25 57 56
f 25 56 55
f 25 55 54
f 25 54 42
f 25 42 26
f 26 43 35
f 26 35 27
f 26 42 43
f 28 39 29
f 29 39 44
f 29 44 45
f 29 45 30
f 30 45 46
f 30 46 47
f 30 47 31
f 31 47 32
f 32 47 48
f 32 48 49
f 32 49 40
f 33 50 34
f 33 51 73
f 33 73 50
f 34 50 52
f 34 52 53
f 34 53 36
f 35 43 54
f 35 54 55
f 35 55 56
f 35 56 57
f 35 57 58
f 35 58 59
f 35 59 60
f 35 60 51
f 36 53 37
f 37 53 75
f 37 75 61
f 37 61 62
f 37 62 38
f 38 62 39
f 39 62 44
f 42 54 43
f 44 62 64
f 44 64 65
f 44 65 45
f 45 65 66
f 45 66 46
f 46 66 67
f 46 67 68
f 46 68 69
f 46 69 48
f 46 48 47
f 48 69 70
f 48 70 71
f 48 71 49
f 50 72 52
f 50 73 94
f 50 94 72
f 51 60 74
f 51 74 73
f 52 72 53
f 53 72 75
f 59 76 60
f 60 77 74
f 60 76 77
f 61 64 62
f 61 75 64
f 63 79 80
f 63 80 78
f 64 75 81
f 64 81 82
f 64 82 83
f 64 83 84
f 64 84 65
f 65 84 67
f 65 67 66
f 67 83 85
f 67 85 86
f 67 86 68
f 67 84 83
f 68 87 88
f 68 88 89
f 68 89 69
f 68 86 85
f 68 85 87
f 69 89 70
f 70 89 90
f 70 90 71
f 72 91 92
f 72 92 93
f 72 93 75
f 72 94 113
f 72 113 91
f 73 74 94
f 74 77 76
f 74 76 94
f 75 93 81
f 78 80 97
f 78 97 119
f 78 119 147
f 78 147 172
f 78 172 189
f 78 189 190
f 78 190 181
f 78 181 165
f 78 165 139
f 78 139 137
f 78 137 164
f 78 164 180
f 78 180 177
f 78 177 153
f 78 153 158
f 78 158 170
f 78 170 145
f 78 145 117
f 78 117 95
f 79 96 80
f 80 96 97
f 81 98 99
f 81 99 100
f 81 100 101
f 81 101 102
f 81 102 82
f 81 93 92
f 81 92 98
f 82 102 83
f 83 102 85
f 85 102 103
f 85 103 104
f 85 104 87
f 87 104 105
f 87 105 106
f 87 106 88
f 88 106 107
f 88 107 89
f 89 107 108
f 89 108 109
f 89 109 90
f 90 109 110
f 91 111 112
f 91 112 92
f 91 113 114
f 91 114 111
f 92 112 115
f 92 115 98
f 95 117 116
f 96 118 119
f 96 119 97
f 98 115 112
f 98 112 120
f 98 120 121
f 98 121 99
f 99 122 123
f 99 123 124
f 99 124 125
f 99 125 126
f 99 126 100
f 99 121 122
f 100 126 101
f 101 125 127
f 101 127 128
f 101 128 103
f 101 103 102
f 101 126 125
f 103 128 129
f 103 129 104
f 104 129 128
f 104 128 130
f 104 130 131
f 104 131 105
f 105 132 133
f 105 133 106
f 105 131 130
f 105 130 132
f 106 133 107
f 107 133 134
f 107 134 108
f 108 134 135
f 108 135 109
f 109 135 136
f 109 136 110
f 110 136 137
f 110 137 138
f 110 138 139
f 110 139 140
f 111 141 112
f 111 114 141
f 112 141 142
f 112 142 120
f 114 143 141
f 116 117 144
f 117 145 169
f 117 169 144
f 118 146 119
f 119 146 147
f 120 142 121
f 121 142 148
f 121 148 149
f 121 149 150
f 121 150 122
f 122 150 149
f 122 149 151
f 122 151 152
f 122 152 123
f 123 153 154
f 123 154 155
f 123 155 156
f 123 156 124
f 123 152 157
f 123 157 158
f 123 158 153
f 124 156 159
f 124 159 125
f 125 159 127
f 127 159 160
f 127 160 161
f 127 161 130
f 127 130 128
f 130 161 162
f 130 162 132
f 132 163 133
f 132 162 163
f 133 163 136
f 133 136 134
f 134 136 135
f 136 163 137
f 137 163 164
f 137 139 138
f 139 165 140
f 140 165 166
f 141 143 167
f 141 167 142
f 142 167 174
f 142 174 148
f 144 169 168
f 145 170 169
f 146 171 147
f 147 171 172
f 148 173 149
f 148 174 175
f 148 175 173
f 149 152 151
f 149 173 176
f 149 176 169
f 149 169 152
f 152 169 157
f 153 177 178
f 153 178 154
f 154 178 155
f 155 178 159
f 155 159 156
f 157 170 158
f 157 169 170
f 159 178 160
f 160 178 179
f 160 179 162
f 160 162 161
f 162 179 163
f 163 179 164
f 164 179 178
f 164 178 180
f 165 181 182
f 165 182 166
f 166 182 183
f 166 183 184
f 168 169 176
f 168 176 173
f 168 173 185
f 171 186 187
f 171 187 172
f 172 187 188
f 172 188 189
f 173 175 185
f 177 180 178
f 181 184 182
f 181 190 184
f 182 184 183
f 184 190 191
f 186 191 189
f 186 189 188
f 186 188 187
f 189 191 190

