# https://github.com/mikedh/trimesh
v 0.04981901 -0.01350500 0.09967536
v 0.04959367 -0.01350500 0.11222510
v 0.04956290 -0.01386139 0.11083428
v 0.04939414 -0.01525614 0.09967536
v 0.04981901 -0.01350500 0.01461960
v 0.04933260 -0.01350500 0.11316310
v 0.04952915 -0.01386139 0.11222510
v 0.04922241 -0.01525614 0.11083428
v 0.04902189 -0.01643882 0.09967536
v 0.04939414 -0.01525614 0.01461960
v 0.04981404 -0.01350500 0.01424224
v 0.04921050 -0.01350500 0.11356202
v 0.04917774 -0.01386139 0.11348655
v 0.04915689 -0.01525614 0.11222510
v 0.04897623 -0.01525614 0.11314154
v 0.04886108 -0.01595659 0.11292591
v 0.04889483 -0.01604987 0.11222510
v 0.04892759 -0.01614227 0.11083428
v 0.04773241 -0.01942456 0.11083428
v 0.04792598 -0.01943864 0.09967536
v 0.04902189 -0.01643882 0.01461960
v 0.04900899 -0.01640274 0.01322878
v 0.04922241 -0.01525614 0.00484072
v 0.04956290 -0.01386139 0.00484072
v 0.04979717 -0.01350500 0.01322878
v 0.04879258 -0.01350500 0.11424126
v 0.04873898 -0.01386139 0.11417657
v 0.04853449 -0.01525614 0.11384234
v 0.04747928 -0.01738479 0.11432751
v 0.04729266 -0.01831316 0.11410110
v 0.04759939 -0.01908313 0.11317388
v 0.04769866 -0.01933920 0.11222510
v 0.04744255 -0.02012150 0.11083428
v 0.04755770 -0.02034941 0.09967536
v 0.04792598 -0.01943864 0.01461960
v 0.04790017 -0.01943864 0.01322878
v 0.04773241 -0.01942456 0.00484072
v 0.04892759 -0.01614227 0.00484072
v 0.04893156 -0.01613083 0.00484072
v 0.04956488 -0.01384379 0.00484072
v 0.04961750 -0.01350500 0.00485150
v 0.04843621 -0.01350500 0.11446767
v 0.04783664 -0.01525614 0.11455392
v 0.04761031 -0.01665089 0.11442455
v 0.04618781 -0.02038285 0.11440298
v 0.04594759 -0.02131210 0.11418735
v 0.04648859 -0.02084219 0.11368062
v 0.04626623 -0.02194303 0.11326014
v 0.04612230 -0.02249478 0.11291513
v 0.04739292 -0.02003702 0.11222510
v 0.04628212 -0.02249478 0.11209573
v 0.04633076 -0.02249478 0.11115773
v 0.04646477 -0.02222727 0.11083428
v 0.04671393 -0.02222727 0.09967536
v 0.04725196 -0.02104635 0.09967536
v 0.04725494 -0.02104635 0.09828454
v 0.04755770 -0.02034941 0.01461960
v 0.04754480 -0.02032125 0.01322878
v 0.04744255 -0.02012150 0.00484072
v 0.04927204 -0.01350500 0.00484072
v 0.04811261 -0.01350500 0.11462939
v 0.04676853 -0.01525614 0.11493128
v 0.04676853 -0.01665089 0.11476956
v 0.04637742 -0.01943864 0.11451080
v 0.04503929 -0.02222727 0.11453236
v 0.04497874 -0.02249478 0.11450001
v 0.04560015 -0.02249478 0.11382078
v 0.04569843 -0.02249478 0.11368062
v 0.04625035 -0.02249478 0.11235448
v 0.04634565 -0.02233550 0.11221432
v 0.04626822 -0.02249478 0.11221432
v 0.04633870 -0.02249478 0.11083428
v 0.04658687 -0.02249478 0.09967536
v 0.04671691 -0.02222727 0.09828454
v 0.04725494 -0.02104635 0.01461960
v 0.04724203 -0.02101819 0.01322878
v 0.04646477 -0.02222727 0.00484072
v 0.04669110 -0.02222727 0.01322878
v 0.04362573 -0.01350500 0.00484072
v 0.04719538 -0.01350500 0.11487737
v 0.04537382 -0.01943864 0.11487737
v 0.04676853 -0.01386139 0.11497441
v 0.04537382 -0.01804389 0.11497441
v 0.04543934 -0.02084219 0.11461861
v 0.04485366 -0.02249478 0.11455392
v 0.04658885 -0.02249478 0.09865112
v 0.04671691 -0.02222727 0.01461960
v 0.04633870 -0.02249478 0.00484072
v 0.04656999 -0.02249478 0.01359535
v 0.04656305 -0.02249478 0.01322878
v 0.04322469 -0.01439465 0.00484072
v 0.04361679 -0.01350500 0.00486229
v 0.04676853 -0.01350500 0.11497441
v 0.04398110 -0.02222727 0.11489893
v 0.04399401 -0.02249478 0.11485581
v 0.04398110 -0.02083339 0.11498519
v 0.04371408 -0.02249478 0.11492050
v 0.04658885 -0.02249478 0.01461960
v 0.03969773 -0.02249478 0.00484072
v 0.03968681 -0.02249478 0.00486229
v 0.04322469 -0.01439289 0.00486229
v 0.04361679 -0.01350500 0.11083428
v 0.04258640 -0.02222727 0.11495284
v 0.04537382 -0.01665089 0.11497441
v 0.04573019 -0.01350500 0.11483424
v 0.04537382 -0.01525614 0.11492050
v 0.04258640 -0.02249478 0.11495284
v 0.03967886 -0.02249478 0.00585419
v 0.04322469 -0.01439289 0.11083428
v 0.04364260 -0.01350500 0.11230058
v 0.04231937 -0.02249478 0.11492050
v 0.04535596 -0.01350500 0.11472643
v 0.04537382 -0.01386139 0.11478034
v 0.03967886 -0.02249478 0.10943268
v 0.03967986 -0.02249478 0.11083428
v 0.04329417 -0.01457152 0.11287200
v 0.04378654 -0.01350500 0.11275340
v 0.03973147 -0.02249478 0.11222510
v 0.04119964 -0.02249478 0.11456471
v 0.04474447 -0.01350500 0.11446767
v 0.04109739 -0.02249478 0.11452158
v 0.04044124 -0.02142121 0.11302294
v 0.04018711 -0.02249478 0.11355124
v 0.04409427 -0.01350500 0.11363749
v 0.04010571 -0.02249478 0.11332482
v 0.04458961 -0.01350500 0.11438142
v 0.04101500 -0.02249478 0.11447845
v 0.04059510 -0.02249478 0.11416579
v 0.04429181 -0.01350500 0.11395016
f 1 2 3
f 1 3 4
f 1 4 10
f 1 10 5
f 1 5 11
f 1 11 25
f 1 25 41
f 1 41 60
f 1 60 79
f 1 79 92
f 1 92 102
f 1 102 110
f 1 110 117
f 1 117 124
f 1 124 129
f 1 129 126
f 1 126 120
f 1 120 112
f 1 112 105
f 1 105 93
f 1 93 80
f 1 80 61
f 1 61 42
f 1 42 26
f 1 26 12
f 1 12 6
f 1 6 2
f 2 6 7
f 2 7 3
f 3 7 8
f 3 8 4
f 4 8 9
f 4 9 21
f 4 21 10
f 5 10 11
f 6 12 13
f 6 13 7
f 7 14 8
f 7 13 15
f 7 15 16
f 7 16 14
f 8 14 17
f 8 17 18
f 8 18 9
f 9 18 19
f 9 19 20
f 9 20 35
f 9 35 21
f 10 21 22
f 10 22 23
f 10 23 24
f 10 24 25
f 10 25 11
f 12 26 13
f 13 26 27
f 13 27 28
f 13 28 15
f 14 16 17
f 15 28 29
f 15 29 30
f 15 30 31
f 15 31 16
f 16 31 32
f 16 32 17
f 17 32 18
f 18 32 19
f 19 32 33
f 19 33 34
f 19 34 20
f 20 34 57
f 20 57 35
f 21 35 36
f 21 36 22
f 22 36 37
f 22 37 38
f 22 38 39
f 22 39 23
f 23 39 38
f 23 38 37
f 23 37 59
f 23 59 77
f 23 77 88
f 23 88 99
f 23 99 91
f 23 91 79
f 23 79 60
f 23 60 40
f 23 40 24
f 24 40 41
f 24 41 25
f 26 42 43
f 26 43 44
f 26 44 29
f 26 29 27
f 27 29 28
f 29 44 45
f 29 45 30
f 30 45 46
f 30 46 31
f 31 46 47
f 31 47 48
f 31 48 49
f 31 49 50
f 31 50 32
f 32 50 33
f 33 50 51
f 33 51 52
f 33 52 53
f 33 53 54
f 33 54 55
f 33 55 34
f 34 55 56
f 34 56 75
f 34 75 57
f 35 57 58
f 35 58 36
f 36 58 37
f 37 58 59
f 40 60 41
f 42 61 43
f 43 61 62
f 43 62 63
f 43 63 64
f 43 64 44
f 44 64 45
f 45 64 65
f 45 65 66
f 45 66 46
f 46 66 67
f 46 67 68
f 46 68 48
f 46 48 47
f 48 68 49
f 49 69 50
f 49 68 67
f 49 67 66
f 49 66 85
f 49 85 95
f 49 95 97
f 49 97 107
f 49 107 111
f 49 111 119
f 49 119 121
f 49 121 127
f 49 127 128
f 49 128 123
f 49 123 125
f 49 125 118
f 49 118 115
f 49 115 114
f 49 114 108
f 49 108 100
f 49 100 99
f 49 99 88
f 49 88 90
f 49 90 89
f 49 89 98
f 49 98 86
f 49 86 73
f 49 73 72
f 49 72 52
f 49 52 51
f 49 51 71
f 49 71 69
f 50 70 51
f 50 69 70
f 51 70 71
f 52 72 53
f 53 72 54
f 54 73 74
f 54 74 56
f 54 56 55
f 54 72 73
f 56 74 87
f 56 87 75
f 57 75 76
f 57 76 58
f 58 76 59
f 59 76 78
f 59 78 77
f 61 80 62
f 62 81 63
f 62 80 82
f 62 82 83
f 62 83 81
f 63 81 64
f 64 81 84
f 64 84 65
f 65 84 81
f 65 81 85
f 65 85 66
f 69 71 70
f 73 86 74
f 74 86 98
f 74 98 87
f 75 87 76
f 76 87 78
f 77 78 88
f 78 87 89
f 78 89 90
f 78 90 88
f 79 91 92
f 80 93 82
f 81 83 94
f 81 94 95
f 81 95 85
f 82 93 96
f 82 96 83
f 83 96 97
f 83 97 94
f 87 98 89
f 91 99 100
f 91 100 101
f 91 101 92
f 92 101 109
f 92 109 102
f 93 103 104
f 93 104 96
f 93 105 106
f 93 106 103
f 94 97 95
f 96 104 103
f 96 103 107
f 96 107 97
f 100 108 101
f 101 108 114
f 101 114 109
f 102 109 110
f 103 106 111
f 103 111 107
f 105 111 106
f 105 112 113
f 105 113 111
f 109 114 115
f 109 115 110
f 110 116 117
f 110 115 118
f 110 118 116
f 111 113 119
f 112 119 113
f 112 120 121
f 112 121 119
f 116 118 122
f 116 122 123
f 116 123 124
f 116 124 117
f 118 125 122
f 120 126 127
f 120 127 121
f 122 125 123
f 123 128 129
f 123 129 124
f 126 129 128
f 126 128 127

