# https://github.com/mikedh/trimesh
v 0.00747243 0.05084246 0.08707220
v 0.00709092 0.05099352 0.08707220
v 0.00747243 0.04483090 0.08707220
v 0.00747243 0.05085458 0.02532851
v 0.00710862 0.05099917 0.02532851
v 0.00636134 0.05111388 0.08707220
v 0.00491398 0.05149919 0.02532851
v -0.01261756 0.04372099 0.08707220
v 0.00747243 0.04483090 0.02532851
v 0.00632988 0.05111873 0.08707220
v 0.00354135 0.05168983 0.02532851
v -0.01261756 0.04982626 0.08707220
v -0.01261756 0.04372099 0.02532851
v 0.00499264 0.05129402 0.08707220
v 0.00214709 0.05180454 0.02532851
v 0.00493561 0.05130129 0.08707220
v -0.00699920 0.05099756 0.08707220
v -0.00485766 0.05176334 0.02532851
v -0.01261756 0.04982626 0.02532851
v 0.00075086 0.05190794 0.02532851
v 0.00359838 0.05140307 0.08707220
v -0.00696774 0.05100321 0.08707220
v -0.00413792 0.05189178 0.02532851
v -0.00064341 0.05195479 0.02532851
v 0.00075086 0.05154362 0.08707220
v 0.00080985 0.05154120 0.08707220
v 0.00354135 0.05140711 0.08707220
v -0.00621849 0.05113084 0.08707220
v -0.00342997 0.05197175 0.02532851
v -0.00482423 0.05131421 0.08707220
v -0.00058441 0.05154928 0.08707220
v -0.00342997 0.05141761 0.08707220
v -0.00203767 0.05148627 0.08707220
v -0.00064341 0.05154928 0.08707220
f 1 2 6
f 1 6 10
f 1 10 14
f 1 14 16
f 1 16 21
f 1 21 27
f 1 27 26
f 1 26 25
f 1 25 31
f 1 31 34
f 1 34 33
f 1 33 32
f 1 32 30
f 1 30 28
f 1 28 22
f 1 22 17
f 1 17 12
f 1 12 8
f 1 8 3
f 1 3 9
f 1 9 4
f 1 4 5
f 1 5 2
f 2 5 7
f 2 7 6
f 3 8 13
f 3 13 9
f 4 9 13
f 4 13 19
f 4 19 18
f 4 18 23
f 4 23 29
f 4 29 24
f 4 24 20
f 4 20 15
f 4 15 11
f 4 11 7
f 4 7 5
f 6 7 10
f 7 11 10
f 8 12 19
f 8 19 13
f 10 11 14
f 11 15 16
f 11 16 14
f 12 17 18
f 12 18 19
f 15 20 21
f 15 21 16
f 17 22 18
f 18 22 23
f 20 24 25
f 20 25 26
f 20 26 27
f 20 27 21
f 22 28 23
f 23 28 30
f 23 30 29
f 24 29 25
f 25 29 31
f 29 30 32
f 29 32 33
f 29 33 34
f 29 34 31

