# https://github.com/mikedh/trimesh
v -0.01261756 0.04372019 0.08707334
v -0.01261756 0.04372019 0.09868097
v -0.01261756 0.04517706 0.08707334
v 0.00747243 0.04483064 0.08707334
v -0.01261756 0.04517706 0.09868097
v 0.00747243 0.04483064 0.09868097
v -0.01165396 0.04551788 0.08707334
v 0.00747243 0.04626576 0.08707334
v -0.01165396 0.04551788 0.09868097
v 0.00747243 0.04626576 0.09868097
v -0.01075723 0.04570476 0.09868097
v -0.01040129 0.04577893 0.08707334
v 0.00471733 0.04685444 0.08707334
v 0.00471733 0.04685444 0.09868097
v -0.01040129 0.04577893 0.09868097
v -0.01034426 0.04579046 0.08707334
v 0.00438302 0.04688081 0.09868097
v 0.00354135 0.04694706 0.08707334
v -0.00940426 0.04597801 0.09868097
v -0.00900702 0.04605679 0.08707334
v 0.00354135 0.04694706 0.09868097
v 0.00080985 0.04708154 0.08707334
v -0.00900702 0.04605679 0.09868097
v -0.00466888 0.04685741 0.08707334
v 0.00214709 0.04701562 0.09868097
v 0.00075086 0.04708418 0.08707334
v 0.00075086 0.04708418 0.09868097
v -0.00466888 0.04685741 0.09868097
v -0.00461775 0.04686169 0.08707334
v -0.00058441 0.04708715 0.08707334
v 0.00035559 0.04708517 0.09868097
v -0.00342997 0.04695299 0.09868097
v -0.00342997 0.04695299 0.08707334
v -0.00064341 0.04708715 0.08707334
v -0.00064341 0.04708715 0.09868097
v -0.00243294 0.04700211 0.09868097
v -0.00203767 0.04702155 0.08707334
v -0.00103868 0.04706869 0.09868097
v -0.00203767 0.04702155 0.09868097
f 1 2 5
f 1 5 3
f 1 3 7
f 1 7 12
f 1 12 16
f 1 16 20
f 1 20 24
f 1 24 29
f 1 29 33
f 1 33 37
f 1 37 34
f 1 34 30
f 1 30 26
f 1 26 22
f 1 22 18
f 1 18 13
f 1 13 8
f 1 8 4
f 1 4 6
f 1 6 2
f 2 6 10
f 2 10 14
f 2 14 17
f 2 17 21
f 2 21 25
f 2 25 27
f 2 27 31
f 2 31 35
f 2 35 38
f 2 38 39
f 2 39 36
f 2 36 32
f 2 32 28
f 2 28 23
f 2 23 19
f 2 19 15
f 2 15 11
f 2 11 9
f 2 9 5
f 3 5 9
f 3 9 7
f 4 8 10
f 4 10 6
f 7 9 11
f 7 11 12
f 8 13 14
f 8 14 10
f 11 15 12
f 12 15 16
f 13 17 14
f 13 18 17
f 15 19 16
f 16 19 20
f 17 18 21
f 18 22 21
f 19 23 20
f 20 23 28
f 20 28 24
f 21 22 25
f 22 26 27
f 22 27 25
f 24 28 29
f 26 30 31
f 26 31 27
f 28 32 29
f 29 32 33
f 30 34 35
f 30 35 31
f 32 36 33
f 33 36 37
f 34 38 35
f 34 37 38
f 36 39 37
f 37 39 38

