# https://github.com/mikedh/trimesh
v -0.03519972 -0.02896120 0.00484085
v -0.03564860 -0.02896120 0.00388516
v -0.04257981 -0.02896120 0.00484085
v -0.02105070 -0.04045653 0.00484085
v -0.02105070 -0.04053425 0.00442218
v -0.03694254 -0.02924734 0.00075619
v -0.03782553 -0.02896120 0.00075619
v -0.02105070 -0.04053778 0.00441299
v -0.02105070 -0.04075151 0.00389156
v -0.04257981 -0.02896120 0.00346370
v -0.04187173 -0.03002630 0.00484085
v -0.02105070 -0.04700611 0.00484085
v -0.02160916 -0.04179895 0.00075619
v -0.04218783 -0.02896120 0.00075619
v -0.02105070 -0.04256377 0.00075619
v -0.04256084 -0.02896120 0.00206976
v -0.04187173 -0.03002630 0.00346370
v -0.04065576 -0.03166369 0.00484085
v -0.02138578 -0.04687717 0.00484085
v -0.02105070 -0.04700611 0.00346370
v -0.04208668 -0.02912194 0.00075619
v -0.04182115 -0.02995918 0.00127922
v -0.04227002 -0.02896120 0.00101771
v -0.02105070 -0.04663518 0.00075619
v -0.04227845 -0.02896120 0.00104729
v -0.04185697 -0.03000687 0.00206976
v -0.04134066 -0.03070458 0.00206976
v -0.04064311 -0.03164427 0.00206976
v -0.04065576 -0.03166369 0.00346370
v -0.04012891 -0.03235963 0.00484085
v -0.02138578 -0.04687717 0.00346370
v -0.02418650 -0.04552062 0.00484085
v -0.02105070 -0.04698845 0.00206976
v -0.04201503 -0.02922262 0.00075619
v -0.04207403 -0.02914313 0.00075859
v -0.04110042 -0.03049615 0.00075619
v -0.04097819 -0.03066218 0.00075619
v -0.04054618 -0.03151532 0.00107249
v -0.04011416 -0.03234197 0.00206976
v -0.02105070 -0.04680298 0.00101411
v -0.02333722 -0.04555418 0.00075619
v -0.04012891 -0.03235963 0.00346370
v -0.03943137 -0.03319335 0.00484085
v -0.02136049 -0.04686480 0.00206976
v -0.02418650 -0.04552062 0.00346370
v -0.02416332 -0.04550826 0.00206976
v -0.02675541 -0.04402983 0.00484085
v -0.02105070 -0.04684891 0.00119325
v -0.04007623 -0.03185269 0.00075619
v -0.03926488 -0.03300258 0.00093853
v -0.03941661 -0.03317745 0.00206976
v -0.02117715 -0.04677825 0.00106849
v -0.02397787 -0.04540934 0.00102770
v -0.02425394 -0.04507904 0.00075619
v -0.03943137 -0.03319335 0.00346370
v -0.03881179 -0.03389105 0.00484085
v -0.02675541 -0.04402983 0.00346370
v -0.02673434 -0.04401570 0.00206976
v -0.02662054 -0.04394858 0.00114966
v -0.02745296 -0.04360061 0.00484085
v -0.03949037 -0.03258043 0.00075619
v -0.03895720 -0.03320747 0.00075619
v -0.03722914 -0.03507980 0.00075619
v -0.03657164 -0.03578456 0.00075619
v -0.03649366 -0.03586758 0.00075619
v -0.03745252 -0.03533945 0.00206976
v -0.03810160 -0.03464174 0.00206976
v -0.03879915 -0.03387338 0.00206976
v -0.02586398 -0.04414818 0.00075619
v -0.03881179 -0.03389105 0.00346370
v -0.03811425 -0.03465764 0.00484085
v -0.02745296 -0.04360061 0.00346370
v -0.02743188 -0.04359355 0.00206976
v -0.02921263 -0.04242423 0.00166989
v -0.02828116 -0.04266445 0.00075619
v -0.02702937 -0.04346460 0.00075619
v -0.02853194 -0.04291351 0.00484085
v -0.03584037 -0.03652466 0.00075619
v -0.03609537 -0.03676488 0.00206976
v -0.03746096 -0.03535534 0.00346370
v -0.03811425 -0.03465764 0.00346370
v -0.03746938 -0.03534651 0.00484085
v -0.02853194 -0.04291351 0.00346370
v -0.02923792 -0.04245249 0.00259958
v -0.02866049 -0.04280929 0.00210894
v -0.03086061 -0.04122842 0.00206976
v -0.03155815 -0.04071088 0.00206976
v -0.03076999 -0.04115953 0.00116326
v -0.02892181 -0.04222110 0.00075619
v -0.02924213 -0.04245602 0.00484085
v -0.03518497 -0.03714111 0.00075619
v -0.03375195 -0.03857184 0.00091294
v -0.03539782 -0.03740430 0.00206976
v -0.03395426 -0.03875554 0.00346370
v -0.03610590 -0.03677372 0.00346370
v -0.03745252 -0.03536417 0.00484085
v -0.02924213 -0.04245602 0.00346370
v -0.02993968 -0.04193849 0.00346370
v -0.03157501 -0.04072501 0.00346370
v -0.03246012 -0.04001318 0.00206976
v -0.03119779 -0.04058547 0.00075619
v -0.03003872 -0.04143508 0.00075619
v -0.03229996 -0.03988600 0.00098372
v -0.03158766 -0.04071618 0.00484085
v -0.03392686 -0.03830513 0.00075619
v -0.03393740 -0.03874142 0.00206976
v -0.03342319 -0.03875731 0.00075619
v -0.03255284 -0.03951860 0.00075619
v -0.03315766 -0.03943912 0.00206976
v -0.03317452 -0.03945325 0.00346370
v -0.03318506 -0.03944442 0.00484085
v -0.03395426 -0.03875554 0.00484085
v -0.03609747 -0.03678255 0.00484085
v -0.03247698 -0.04002731 0.00346370
v -0.03172464 -0.04018451 0.00075619
v -0.03247698 -0.04002731 0.00484085
v -0.03316609 -0.03946032 0.00484085
f 1 2 7
f 1 7 14
f 1 14 23
f 1 23 25
f 1 25 16
f 1 16 10
f 1 10 3
f 1 3 11
f 1 11 18
f 1 18 30
f 1 30 43
f 1 43 56
f 1 56 71
f 1 71 82
f 1 82 96
f 1 96 113
f 1 113 112
f 1 112 111
f 1 111 117
f 1 117 116
f 1 116 104
f 1 104 90
f 1 90 77
f 1 77 60
f 1 60 47
f 1 47 32
f 1 32 19
f 1 19 12
f 1 12 4
f 1 4 5
f 1 5 2
f 2 6 7
f 2 5 8
f 2 8 9
f 2 9 6
f 3 10 17
f 3 17 11
f 4 12 20
f 4 20 33
f 4 33 48
f 4 48 40
f 4 40 24
f 4 24 15
f 4 15 9
f 4 9 8
f 4 8 5
f 6 9 13
f 6 13 15
f 6 15 24
f 6 24 41
f 6 41 54
f 6 54 69
f 6 69 76
f 6 76 75
f 6 75 89
f 6 89 102
f 6 102 101
f 6 101 115
f 6 115 108
f 6 108 107
f 6 107 105
f 6 105 91
f 6 91 78
f 6 78 65
f 6 65 64
f 6 64 63
f 6 63 62
f 6 62 61
f 6 61 49
f 6 49 37
f 6 37 36
f 6 36 34
f 6 34 21
f 6 21 14
f 6 14 7
f 9 15 13
f 10 16 17
f 11 17 29
f 11 29 18
f 12 19 31
f 12 31 20
f 14 21 22
f 14 22 23
f 16 25 22
f 16 22 26
f 16 26 17
f 17 26 27
f 17 27 28
f 17 28 29
f 18 29 42
f 18 42 30
f 19 32 45
f 19 45 31
f 20 31 33
f 21 34 35
f 21 35 22
f 22 36 37
f 22 37 38
f 22 38 39
f 22 39 28
f 22 28 27
f 22 27 26
f 22 25 23
f 22 35 36
f 24 40 41
f 28 39 42
f 28 42 29
f 30 42 55
f 30 55 43
f 31 44 33
f 31 45 46
f 31 46 44
f 32 47 57
f 32 57 45
f 33 44 48
f 34 36 35
f 37 49 38
f 38 49 50
f 38 50 51
f 38 51 39
f 39 51 42
f 40 48 52
f 40 52 41
f 41 53 54
f 41 52 53
f 42 51 55
f 43 55 70
f 43 70 56
f 44 52 48
f 44 46 52
f 45 57 46
f 46 53 52
f 46 57 58
f 46 58 59
f 46 59 53
f 47 60 72
f 47 72 57
f 49 61 50
f 50 62 63
f 50 63 64
f 50 64 65
f 50 65 66
f 50 66 67
f 50 67 68
f 50 68 51
f 50 61 62
f 51 68 55
f 53 59 69
f 53 69 54
f 55 68 70
f 56 70 81
f 56 81 71
f 57 72 73
f 57 73 58
f 58 73 59
f 59 73 74
f 59 74 75
f 59 75 76
f 59 76 69
f 60 77 83
f 60 83 72
f 65 78 79
f 65 79 66
f 66 80 81
f 66 81 67
f 66 79 80
f 67 81 70
f 67 70 68
f 71 81 82
f 72 83 84
f 72 84 73
f 73 84 85
f 73 85 74
f 74 85 84
f 74 84 86
f 74 86 87
f 74 87 88
f 74 88 75
f 75 88 89
f 77 90 97
f 77 97 83
f 78 91 92
f 78 92 79
f 79 92 93
f 79 93 94
f 79 94 95
f 79 95 80
f 80 96 82
f 80 82 81
f 80 95 113
f 80 113 96
f 83 97 84
f 84 97 98
f 84 98 99
f 84 99 87
f 84 87 86
f 87 99 114
f 87 114 100
f 87 100 88
f 88 101 102
f 88 102 89
f 88 100 103
f 88 103 101
f 90 104 97
f 91 105 92
f 92 106 93
f 92 105 107
f 92 107 108
f 92 108 103
f 92 103 109
f 92 109 106
f 93 106 94
f 94 106 109
f 94 109 110
f 94 110 111
f 94 111 112
f 94 112 113
f 94 113 95
f 97 104 98
f 98 104 99
f 99 104 114
f 100 114 110
f 100 110 109
f 100 109 103
f 101 103 115
f 103 108 115
f 104 116 114
f 110 114 117
f 110 117 111
f 114 116 117

