# https://github.com/mikedh/trimesh
v -0.05103341 0.00565566 0.00206215
v -0.05103341 0.00565566 0.00206975
v -0.05103341 0.00566304 0.00206975
v -0.05093774 0.00705699 0.00206975
v -0.05079083 0.00565566 0.00075619
v -0.05098899 0.00565566 0.00484083
v -0.05098899 0.00566304 0.00484083
v -0.05093603 0.00705699 0.00484083
v -0.05081816 0.00843373 0.00484083
v -0.05081645 0.00845094 0.00346369
v -0.05079424 0.00845094 0.00206975
v -0.05078400 0.00574171 0.00075619
v -0.04805239 0.00565566 0.00075619
v -0.04524733 0.00565566 0.00484083
v -0.05081645 0.00845094 0.00484083
v -0.05058754 0.00982768 0.00484083
v -0.05058412 0.00984489 0.00346369
v -0.05056191 0.00984489 0.00206975
v -0.05023221 0.01089957 0.00116405
v -0.05034154 0.00984489 0.00093693
v -0.05061487 0.00713812 0.00075619
v -0.04722215 0.00565812 0.00075619
v -0.04560095 0.00565566 0.00376679
v -0.03358294 0.03076646 0.00484083
v -0.05058412 0.00984489 0.00484083
v -0.05030054 0.01116755 0.00346369
v -0.05028858 0.01112329 0.00206975
v -0.04990250 0.01125605 0.00075619
v -0.05011263 0.01043492 0.00075619
v -0.04914743 0.01542315 0.00206975
v -0.04879551 0.01624920 0.00126082
v -0.04893730 0.01542315 0.00097852
v -0.04902101 0.01470037 0.00075619
v -0.05024246 0.00984489 0.00075619
v -0.05028346 0.00961625 0.00075619
v -0.05037229 0.00906310 0.00075619
v -0.03689195 0.03076646 0.00075619
v -0.03414498 0.03076646 0.00387995
v -0.04129941 0.03076646 0.00484083
v -0.05030054 0.01116755 0.00484083
v -0.04917647 0.01540595 0.00484083
v -0.04917134 0.01542315 0.00346369
v -0.04882968 0.01634754 0.00206975
v -0.04758090 0.01972793 0.00211174
v -0.04732977 0.02027617 0.00167468
v -0.04753307 0.01934687 0.00100931
v -0.04746132 0.01917478 0.00075619
v -0.04867422 0.01582389 0.00075619
v -0.04881601 0.01542315 0.00075619
v -0.04888093 0.01522648 0.00075619
v -0.04085183 0.03076646 0.00075619
v -0.04129941 0.03076646 0.00346369
v -0.04180166 0.03009284 0.00484083
v -0.04917134 0.01542315 0.00484083
v -0.04884676 0.01636721 0.00484083
v -0.04884164 0.01637950 0.00346369
v -0.04765435 0.01960501 0.00346369
v -0.04736053 0.02031305 0.00260437
v -0.04635774 0.02239291 0.00206975
v -0.04597508 0.02312062 0.00133760
v -0.04728365 0.01958043 0.00075619
v -0.04614591 0.02239291 0.00102090
v -0.04633724 0.02166275 0.00075619
v -0.04086379 0.03075171 0.00075619
v -0.04177262 0.03005842 0.00145036
v -0.04126696 0.03076646 0.00198858
v -0.04129600 0.03076646 0.00325735
v -0.04179312 0.03008300 0.00238005
v -0.04180166 0.03009284 0.00346369
v -0.04297527 0.02840879 0.00484083
v -0.04765435 0.01960501 0.00484083
v -0.04735881 0.02032780 0.00484083
v -0.04736223 0.02031797 0.00346369
v -0.04703253 0.02101617 0.00346369
v -0.04638166 0.02239291 0.00346369
v -0.04600583 0.02318700 0.00346369
v -0.04599387 0.02316241 0.00206975
v -0.04584866 0.02270268 0.00075619
v -0.04599728 0.02239291 0.00075619
v -0.04564879 0.02385816 0.00206975
v -0.04495180 0.02513165 0.00206975
v -0.04332890 0.02753849 0.00106689
v -0.04481513 0.02490301 0.00093413
v -0.04535667 0.02369836 0.00075619
v -0.04608953 0.02219869 0.00075619
v -0.04157616 0.02979290 0.00075619
v -0.04136774 0.03063124 0.00197698
v -0.04207157 0.02909224 0.00075619
v -0.04297356 0.02838666 0.00206975
v -0.04218603 0.02950280 0.00197698
v -0.04297527 0.02840879 0.00346369
v -0.04342798 0.02772041 0.00484083
v -0.04600241 0.02319683 0.00484083
v -0.04566246 0.02388520 0.00346369
v -0.04496546 0.02515377 0.00346369
v -0.04342114 0.02769091 0.00206975
v -0.04292744 0.02786055 0.00075619
v -0.04323323 0.02738606 0.00075619
v -0.04476217 0.02481450 0.00075619
v -0.04511921 0.02414580 0.00075619
v -0.04343310 0.02771058 0.00346369
v -0.04496546 0.02515377 0.00484083
v -0.04566246 0.02388520 0.00484083
f 1 2 3
f 1 3 4
f 1 4 5
f 1 5 13
f 1 13 23
f 1 23 14
f 1 14 6
f 1 6 2
f 2 6 7
f 2 7 3
f 3 7 8
f 3 8 4
f 4 8 9
f 4 9 10
f 4 10 11
f 4 11 12
f 4 12 5
f 5 12 21
f 5 21 36
f 5 36 35
f 5 35 34
f 5 34 29
f 5 29 28
f 5 28 33
f 5 33 50
f 5 50 49
f 5 49 48
f 5 48 47
f 5 47 61
f 5 61 63
f 5 63 85
f 5 85 79
f 5 79 78
f 5 78 84
f 5 84 100
f 5 100 99
f 5 99 98
f 5 98 97
f 5 97 88
f 5 88 86
f 5 86 64
f 5 64 51
f 5 51 37
f 5 37 22
f 5 22 13
f 6 14 24
f 6 24 39
f 6 39 53
f 6 53 70
f 6 70 92
f 6 92 102
f 6 102 103
f 6 103 93
f 6 93 72
f 6 72 71
f 6 71 55
f 6 55 54
f 6 54 41
f 6 41 40
f 6 40 25
f 6 25 16
f 6 16 15
f 6 15 9
f 6 9 8
f 6 8 7
f 9 15 10
f 10 15 16
f 10 16 17
f 10 17 18
f 10 18 11
f 11 18 19
f 11 19 20
f 11 20 12
f 12 20 21
f 13 22 23
f 14 23 24
f 16 25 17
f 17 25 40
f 17 40 26
f 17 26 27
f 17 27 18
f 18 27 19
f 19 28 29
f 19 29 20
f 19 27 30
f 19 30 31
f 19 31 32
f 19 32 33
f 19 33 28
f 20 29 34
f 20 34 35
f 20 35 36
f 20 36 21
f 22 37 38
f 22 38 24
f 22 24 23
f 24 38 37
f 24 37 51
f 24 51 66
f 24 66 67
f 24 67 52
f 24 52 39
f 26 40 41
f 26 41 42
f 26 42 27
f 27 42 30
f 30 42 43
f 30 43 31
f 31 43 44
f 31 44 45
f 31 45 46
f 31 46 47
f 31 47 48
f 31 48 32
f 32 48 49
f 32 49 50
f 32 50 33
f 39 52 69
f 39 69 53
f 41 54 42
f 42 54 55
f 42 55 56
f 42 56 43
f 43 56 57
f 43 57 44
f 44 57 58
f 44 58 45
f 45 58 59
f 45 59 60
f 45 60 46
f 46 61 47
f 46 60 62
f 46 62 63
f 46 63 61
f 51 64 65
f 51 65 66
f 52 67 68
f 52 68 69
f 53 69 91
f 53 91 70
f 55 71 57
f 55 57 56
f 57 71 72
f 57 72 73
f 57 73 58
f 58 73 74
f 58 74 75
f 58 75 76
f 58 76 77
f 58 77 59
f 59 77 60
f 60 78 79
f 60 79 62
f 60 77 80
f 60 80 81
f 60 81 82
f 60 82 83
f 60 83 84
f 60 84 78
f 62 79 85
f 62 85 63
f 64 86 65
f 65 68 87
f 65 87 66
f 65 86 88
f 65 88 82
f 65 82 89
f 65 89 90
f 65 90 68
f 66 87 68
f 66 68 67
f 68 90 89
f 68 89 69
f 69 89 91
f 70 91 92
f 72 93 75
f 72 75 74
f 72 74 73
f 75 93 76
f 76 93 94
f 76 94 77
f 77 94 80
f 80 94 81
f 81 94 95
f 81 95 96
f 81 96 82
f 82 96 89
f 82 88 97
f 82 97 98
f 82 98 99
f 82 99 83
f 83 99 100
f 83 100 84
f 89 96 101
f 89 101 91
f 91 101 92
f 92 101 95
f 92 95 102
f 93 103 94
f 94 103 102
f 94 102 95
f 95 101 96

