# https://github.com/mikedh/trimesh
v -0.00647459 0.07119869 0.09549697
v -0.00638445 0.06562044 0.09689105
v -0.00638065 0.06701611 0.09689105
v -0.00634383 0.06841030 0.09689105
v -0.00645809 0.07172519 0.09549697
v -0.00614959 0.07172519 0.09403301
v -0.00647205 0.05670230 0.09410289
v -0.00646063 0.06004513 0.09549697
v -0.00578524 0.06562044 0.09788158
v -0.00645174 0.05865094 0.09549697
v -0.00636160 0.06422625 0.09689105
v -0.00578270 0.06701611 0.09787721
v -0.00575604 0.06841030 0.09783965
v -0.00624227 0.06980450 0.09689105
v -0.00591854 0.07172519 0.09688843
v -0.00568622 0.07172519 0.09318311
v -0.00591473 0.05670230 0.09278393
v -0.00624608 0.05670230 0.09344341
v -0.00645428 0.05670230 0.09494493
v -0.00482421 0.06562044 0.09855853
v -0.00576747 0.06422625 0.09785538
v -0.00636668 0.05670230 0.09549697
v -0.00630574 0.06283352 0.09689105
v -0.00482421 0.06701611 0.09855067
v -0.00482421 0.06841030 0.09846769
v -0.00569257 0.06980450 0.09776191
v -0.00560624 0.07083397 0.09767107
v -0.00594647 0.07125899 0.09700111
v -0.00546278 0.07172519 0.09754442
v -0.00495117 0.07172519 0.09258303
v -0.00538153 0.05670230 0.09206854
v -0.00557196 0.05670230 0.09225110
v -0.00407520 0.06562044 0.09896295
v -0.00482421 0.06422625 0.09850263
v -0.00572938 0.06283352 0.09780559
v -0.00601248 0.05670230 0.09612238
v -0.00619656 0.06143933 0.09689105
v -0.00406631 0.06701611 0.09895859
v -0.00394571 0.06841030 0.09891316
v -0.00482421 0.06980450 0.09829474
v -0.00492451 0.07125899 0.09794797
v -0.00541581 0.07172519 0.09756975
v -0.00396475 0.07172519 0.09206680
v -0.00467822 0.05670230 0.09168683
v -0.00337823 0.06562044 0.09921277
v -0.00336934 0.06701611 0.09920927
v -0.00399776 0.06422625 0.09893238
v -0.00330079 0.06422625 0.09918307
v -0.00482421 0.06283352 0.09839082
v -0.00566210 0.06143933 0.09772872
v -0.00578397 0.05670230 0.09649274
v -0.00593250 0.05999513 0.09700373
v -0.00558720 0.06042751 0.09765011
v -0.00324874 0.06841030 0.09916473
v -0.00299103 0.06980450 0.09907214
v -0.00368799 0.06980450 0.09881796
v -0.00332872 0.07111486 0.09868344
v -0.00477597 0.07172519 0.09788857
v -0.00323097 0.07172519 0.09171915
v -0.00355850 0.05670230 0.09123873
v -0.00203508 0.06562044 0.09953159
v -0.00203508 0.06701611 0.09952548
v -0.00383399 0.06283352 0.09887036
v -0.00313702 0.06283352 0.09912367
v -0.00203508 0.06422625 0.09947307
v -0.00482421 0.06143933 0.09822049
v -0.00514667 0.05670230 0.09697141
v -0.00546151 0.05949804 0.09754442
v -0.00492831 0.05999513 0.09792001
v -0.00203508 0.06841030 0.09943551
v -0.00203508 0.06980450 0.09925120
v -0.00279552 0.07059572 0.09900401
v -0.00337061 0.07172519 0.09850088
v -0.00199953 0.07172519 0.09133656
v -0.00203508 0.05670230 0.09092166
v -0.00064115 0.06562044 0.09969930
v -0.00064115 0.06701611 0.09969406
v -0.00064115 0.06422625 0.09964252
v -0.00064115 0.06841030 0.09960496
v -0.00341124 0.06131138 0.09881708
v -0.00293390 0.06169081 0.09905205
v -0.00203508 0.06283352 0.09935515
v -0.00064115 0.06283352 0.09952548
v -0.00480517 0.05670230 0.09718192
v -0.00430879 0.05760823 0.09767893
v -0.00456650 0.05865094 0.09780559
v -0.00343028 0.06004513 0.09858124
v -0.00064115 0.06980450 0.09942328
v -0.00203508 0.07084573 0.09905991
v -0.00203508 0.07154283 0.09890093
v -0.00203508 0.07172519 0.09885028
v -0.00279425 0.07172519 0.09865287
v -0.00129368 0.07172519 0.09122651
v -0.00064115 0.05670230 0.09077666
v -0.00064115 0.07172519 0.09112868
v 0.00075152 0.06562044 0.09969231
v 0.00075152 0.06701611 0.09968620
v 0.00075152 0.06841030 0.09959797
v 0.00075152 0.06422625 0.09963466
v -0.00270919 0.06076135 0.09897955
v -0.00216076 0.06131138 0.09913678
v -0.00064115 0.06143933 0.09934379
v 0.00075152 0.06283352 0.09951762
v -0.00408535 0.05670230 0.09754354
v -0.00343028 0.05865094 0.09828251
v -0.00402442 0.05670230 0.09757237
v 0.00075152 0.06980450 0.09941542
v 0.00048619 0.07172519 0.09906079
v -0.00007367 0.07172519 0.09906340
v -0.00039867 0.07172519 0.09906340
v -0.00066908 0.07127811 0.09913503
v -0.00108675 0.07172519 0.09898392
v -0.00121878 0.07172519 0.09896732
v -0.00139905 0.07172519 0.09894374
v 0.00024371 0.05670230 0.09078540
v 0.00075152 0.07172519 0.09113741
v 0.00214672 0.06562044 0.09951587
v 0.00214672 0.06701611 0.09950976
v 0.00214672 0.06841030 0.09942066
v 0.00214672 0.06422625 0.09945822
v -0.00177991 0.06044515 0.09903982
v -0.00244640 0.05670230 0.09806414
v -0.00203508 0.05865094 0.09863453
v -0.00216076 0.06000543 0.09890530
v 0.00075152 0.06143933 0.09933593
v -0.00061702 0.06000543 0.09909747
v -0.00013588 0.05924509 0.09900575
v 0.00022974 0.05924509 0.09900575
v 0.00214672 0.06283352 0.09933942
v -0.00361309 0.05670230 0.09773396
v -0.00352296 0.05718909 0.09788769
v -0.00335792 0.05670230 0.09782306
v 0.00214672 0.06980450 0.09923548
v 0.00214672 0.07081044 0.09905205
v 0.00076548 0.07126487 0.09913154
v 0.00119585 0.07172519 0.09897081
v 0.00075152 0.05670230 0.09079151
v 0.00209848 0.07172519 0.09135316
v 0.00214672 0.05670230 0.09094961
v 0.00147768 0.05670230 0.09086663
v 0.00335149 0.06422625 0.09917608
v 0.00342513 0.06562044 0.09920491
v 0.00341624 0.06701611 0.09920229
v 0.00330325 0.06841030 0.09915687
v 0.00306204 0.06980450 0.09906428
v 0.00288685 0.07057219 0.09899876
v 0.00319915 0.06283352 0.09911581
v -0.00106644 0.05951569 0.09894985
v -0.00203508 0.05670230 0.09814887
v -0.00203508 0.05725527 0.09829561
v -0.00064115 0.05725527 0.09847380
v -0.00061702 0.05872889 0.09883106
v 0.00071851 0.06002160 0.09909485
v 0.00185092 0.06047163 0.09903458
v 0.00278021 0.06079517 0.09897431
v 0.00224828 0.06133197 0.09912717
v -0.00064115 0.05670230 0.09832619
v 0.00116030 0.05954216 0.09894461
v 0.00075152 0.05670230 0.09832007
v 0.00075152 0.05725527 0.09846594
v 0.00071851 0.05872889 0.09882494
v 0.00214672 0.05865094 0.09861880
v 0.00301634 0.06172464 0.09904681
v 0.00214672 0.07150753 0.09889308
v 0.00140024 0.07172519 0.09894374
v 0.00299603 0.07172519 0.09163704
v 0.00362444 0.05670230 0.09128066
v 0.00270531 0.05670230 0.09104657
v 0.00404846 0.06422625 0.09890356
v 0.00412209 0.06562044 0.09893413
v 0.00411321 0.06701611 0.09893064
v 0.00400022 0.06841030 0.09888434
v 0.00375901 0.06980450 0.09878913
v 0.00342767 0.07110163 0.09865636
v 0.00347464 0.07172519 0.09846594
v 0.00214672 0.07172519 0.09883280
v 0.00389612 0.06283352 0.09884154
v -0.00119339 0.05670230 0.09825718
v 0.00224828 0.06002160 0.09889569
v 0.00350511 0.06133197 0.09879088
v 0.00214672 0.05725527 0.09827989
v 0.00343274 0.05670230 0.09780646
v 0.00354065 0.05865094 0.09824495
v 0.00354065 0.06004513 0.09854368
v 0.00214672 0.05670230 0.09813664
v 0.00329183 0.07172519 0.09173487
v 0.00429729 0.05670230 0.09154271
v 0.00361682 0.07172519 0.09184318
v 0.00493585 0.06283352 0.09830784
v 0.00493585 0.06422625 0.09841877
v 0.00493585 0.06562044 0.09847467
v 0.00493585 0.06701611 0.09846682
v 0.00493585 0.06841030 0.09838383
v 0.00493585 0.06980450 0.09821438
v 0.00500949 0.07119281 0.09790517
v 0.00483429 0.07172519 0.09784489
v 0.00389612 0.07172519 0.09827552
v 0.00493585 0.06143933 0.09814275
v 0.00501330 0.06007601 0.09787896
v 0.00410432 0.05670230 0.09753131
v 0.00360921 0.05723321 0.09786935
v 0.00437981 0.05768471 0.09765884
v 0.00461594 0.05865094 0.09777589
v 0.00473908 0.05670230 0.09173138
v 0.00503615 0.07172519 0.09266251
v 0.00543858 0.05670230 0.09210785
v 0.00515675 0.05670230 0.09195412
v 0.00566583 0.06056281 0.09762128
v 0.00572042 0.06143933 0.09767981
v 0.00578136 0.06283352 0.09775143
v 0.00581817 0.06422625 0.09780034
v 0.00583721 0.06562044 0.09782655
v 0.00583341 0.06701611 0.09782218
v 0.00580675 0.06841030 0.09778462
v 0.00574708 0.06980450 0.09771125
v 0.00568360 0.07072367 0.09763963
v 0.00552491 0.07165313 0.09750162
v 0.00550333 0.07172519 0.09748676
v 0.00552999 0.05963334 0.09750686
v 0.00490158 0.05670230 0.09711903
v 0.00561505 0.07172519 0.09312546
v 0.00600098 0.05670230 0.09282061
v 0.00574454 0.07172519 0.09324949
v 0.00583721 0.05670230 0.09644208
v 0.00597559 0.06007601 0.09698189
v 0.00619268 0.06143933 0.09689105
v 0.00629424 0.06283352 0.09689105
v 0.00635010 0.06422625 0.09689105
v 0.00637422 0.06562044 0.09689105
v 0.00636914 0.06701611 0.09689105
v 0.00633106 0.06841030 0.09689105
v 0.00623457 0.06980450 0.09689105
v 0.00598829 0.07119281 0.09697840
v 0.00596163 0.07172519 0.09684214
v 0.00555538 0.07172519 0.09743348
v 0.00649483 0.05670230 0.09410289
v 0.00595909 0.07172519 0.09360587
v 0.00615967 0.07172519 0.09404437
v 0.00635264 0.05670230 0.09549697
v 0.00644024 0.05865094 0.09549697
v 0.00646182 0.07119869 0.09549697
v 0.00645039 0.06004513 0.09549697
v 0.00644658 0.07172519 0.09549697
v 0.00615205 0.07172519 0.09641413
v 0.00642373 0.07172519 0.09497026
f 1 2 3
f 1 3 4
f 1 4 5
f 1 5 6
f 1 6 7
f 1 7 8
f 1 8 2
f 2 9 3
f 2 8 10
f 2 10 11
f 2 11 9
f 3 9 12
f 3 12 4
f 4 12 13
f 4 13 14
f 4 14 5
f 5 15 29
f 5 29 42
f 5 42 58
f 5 58 73
f 5 73 92
f 5 92 91
f 5 91 114
f 5 114 113
f 5 113 112
f 5 112 110
f 5 110 109
f 5 109 108
f 5 108 136
f 5 136 165
f 5 165 176
f 5 176 175
f 5 175 197
f 5 197 196
f 5 196 218
f 5 218 235
f 5 235 234
f 5 234 244
f 5 244 243
f 5 243 245
f 5 245 238
f 5 238 237
f 5 237 223
f 5 223 221
f 5 221 205
f 5 205 188
f 5 188 186
f 5 186 166
f 5 166 138
f 5 138 116
f 5 116 95
f 5 95 93
f 5 93 74
f 5 74 59
f 5 59 43
f 5 43 30
f 5 30 16
f 5 16 6
f 5 14 15
f 6 16 17
f 6 17 18
f 6 18 7
f 7 18 17
f 7 17 32
f 7 32 31
f 7 31 44
f 7 44 60
f 7 60 75
f 7 75 94
f 7 94 115
f 7 115 137
f 7 137 140
f 7 140 139
f 7 139 168
f 7 168 167
f 7 167 187
f 7 187 204
f 7 204 207
f 7 207 206
f 7 206 222
f 7 222 236
f 7 236 239
f 7 239 224
f 7 224 220
f 7 220 200
f 7 200 182
f 7 182 185
f 7 185 159
f 7 159 157
f 7 157 178
f 7 178 149
f 7 149 122
f 7 122 132
f 7 132 130
f 7 130 106
f 7 106 104
f 7 104 84
f 7 84 67
f 7 67 51
f 7 51 36
f 7 36 22
f 7 22 19
f 7 19 8
f 8 19 10
f 9 20 12
f 9 11 21
f 9 21 20
f 10 19 22
f 10 22 23
f 10 23 11
f 11 23 21
f 12 24 13
f 12 20 24
f 13 25 26
f 13 26 14
f 13 24 25
f 14 26 27
f 14 27 28
f 14 28 15
f 15 28 27
f 15 27 29
f 16 30 31
f 16 31 32
f 16 32 17
f 20 33 24
f 20 21 34
f 20 34 33
f 21 23 35
f 21 35 34
f 22 36 37
f 22 37 23
f 23 37 35
f 24 38 25
f 24 33 38
f 25 39 40
f 25 40 26
f 25 38 39
f 26 40 27
f 27 41 29
f 27 40 41
f 29 41 42
f 30 43 44
f 30 44 31
f 33 45 46
f 33 46 38
f 33 34 47
f 33 47 48
f 33 48 45
f 34 35 49
f 34 49 47
f 35 37 50
f 35 50 49
f 36 51 52
f 36 52 37
f 37 52 53
f 37 53 50
f 38 46 54
f 38 54 39
f 39 54 55
f 39 55 56
f 39 56 40
f 40 56 41
f 41 57 58
f 41 58 42
f 41 56 57
f 43 59 44
f 44 59 60
f 45 61 46
f 45 48 61
f 46 62 54
f 46 61 62
f 47 49 63
f 47 63 64
f 47 64 48
f 48 65 61
f 48 64 65
f 49 50 53
f 49 53 66
f 49 66 63
f 51 67 68
f 51 68 53
f 51 53 52
f 53 68 69
f 53 69 66
f 54 70 55
f 54 62 70
f 55 71 72
f 55 72 56
f 55 70 71
f 56 72 57
f 57 72 73
f 57 73 58
f 59 74 60
f 60 74 75
f 61 76 77
f 61 77 62
f 61 65 78
f 61 78 76
f 62 77 79
f 62 79 70
f 63 66 80
f 63 80 81
f 63 81 64
f 64 82 65
f 64 81 82
f 65 82 83
f 65 83 78
f 66 69 80
f 67 84 68
f 68 84 85
f 68 85 86
f 68 86 69
f 69 86 87
f 69 87 80
f 70 79 88
f 70 88 71
f 71 88 89
f 71 89 72
f 72 89 90
f 72 90 91
f 72 91 92
f 72 92 73
f 74 93 75
f 75 93 95
f 75 95 94
f 76 96 77
f 76 78 96
f 77 96 97
f 77 97 98
f 77 98 79
f 78 99 96
f 78 83 103
f 78 103 99
f 79 98 88
f 80 87 100
f 80 100 81
f 81 100 82
f 82 100 101
f 82 101 102
f 82 102 83
f 83 102 125
f 83 125 103
f 84 104 85
f 85 105 86
f 85 104 106
f 85 106 105
f 86 105 87
f 87 105 100
f 88 107 108
f 88 108 109
f 88 109 110
f 88 110 111
f 88 111 89
f 88 98 107
f 89 111 112
f 89 112 113
f 89 113 114
f 89 114 90
f 90 114 91
f 94 95 116
f 94 116 115
f 96 117 118
f 96 118 97
f 96 99 120
f 96 120 117
f 97 118 98
f 98 118 119
f 98 119 107
f 99 103 120
f 100 121 102
f 100 102 101
f 100 105 122
f 100 122 123
f 100 123 124
f 100 124 121
f 102 121 126
f 102 126 127
f 102 127 128
f 102 128 125
f 103 129 120
f 103 125 129
f 105 106 130
f 105 130 131
f 105 131 132
f 105 132 122
f 107 119 133
f 107 133 134
f 107 134 135
f 107 135 108
f 108 135 136
f 110 112 111
f 115 116 137
f 116 138 139
f 116 139 140
f 116 140 137
f 117 120 141
f 117 141 142
f 117 142 143
f 117 143 118
f 118 143 144
f 118 144 119
f 119 144 145
f 119 145 146
f 119 146 133
f 120 129 147
f 120 147 141
f 121 124 148
f 121 148 126
f 122 149 150
f 122 150 123
f 123 150 151
f 123 151 152
f 123 152 148
f 123 148 124
f 125 128 153
f 125 153 154
f 125 154 155
f 125 155 156
f 125 156 129
f 126 148 127
f 127 152 151
f 127 151 157
f 127 157 128
f 127 148 152
f 128 158 153
f 128 157 159
f 128 159 160
f 128 160 161
f 128 161 162
f 128 162 158
f 129 156 155
f 129 155 163
f 129 163 147
f 130 132 131
f 133 146 134
f 134 146 164
f 134 164 165
f 134 165 136
f 134 136 135
f 138 166 167
f 138 167 168
f 138 168 139
f 141 147 169
f 141 169 170
f 141 170 142
f 142 170 143
f 143 170 171
f 143 171 144
f 144 171 172
f 144 172 145
f 145 173 146
f 145 172 173
f 146 173 174
f 146 174 175
f 146 175 176
f 146 176 164
f 147 163 177
f 147 177 169
f 149 178 150
f 150 178 151
f 151 178 157
f 153 158 154
f 154 158 179
f 154 179 155
f 155 180 163
f 155 179 162
f 155 162 181
f 155 181 182
f 155 182 183
f 155 183 184
f 155 184 180
f 158 162 179
f 159 185 160
f 160 185 181
f 160 181 162
f 160 162 161
f 163 180 177
f 164 176 165
f 166 186 167
f 167 186 188
f 167 188 187
f 169 177 189
f 169 189 190
f 169 190 170
f 170 190 191
f 170 191 192
f 170 192 171
f 171 192 193
f 171 193 172
f 172 193 194
f 172 194 173
f 173 194 195
f 173 195 174
f 174 195 196
f 174 196 197
f 174 197 175
f 177 180 198
f 177 198 189
f 180 184 199
f 180 199 198
f 181 185 182
f 182 200 201
f 182 201 183
f 183 201 202
f 183 202 203
f 183 203 184
f 184 203 199
f 187 188 204
f 188 205 206
f 188 206 207
f 188 207 204
f 189 198 208
f 189 208 209
f 189 209 210
f 189 210 190
f 190 210 211
f 190 211 191
f 191 211 212
f 191 212 213
f 191 213 192
f 192 213 214
f 192 214 193
f 193 214 215
f 193 215 216
f 193 216 194
f 194 216 195
f 195 217 196
f 195 216 217
f 196 217 218
f 198 199 208
f 199 203 219
f 199 219 208
f 200 220 202
f 200 202 201
f 202 220 203
f 203 220 219
f 205 221 206
f 206 221 223
f 206 223 222
f 208 219 224
f 208 224 225
f 208 225 226
f 208 226 209
f 209 226 210
f 210 226 227
f 210 227 211
f 211 227 228
f 211 228 212
f 212 228 229
f 212 229 230
f 212 230 213
f 213 230 231
f 213 231 214
f 214 231 232
f 214 232 215
f 215 232 216
f 216 232 233
f 216 233 234
f 216 234 235
f 216 235 217
f 217 235 218
f 219 220 224
f 222 223 237
f 222 237 238
f 222 238 236
f 224 239 225
f 225 239 226
f 226 239 227
f 227 239 240
f 227 240 228
f 228 240 229
f 229 241 230
f 229 240 242
f 229 242 241
f 230 241 231
f 231 241 243
f 231 243 232
f 232 243 244
f 232 244 233
f 233 244 234
f 236 242 240
f 236 240 239
f 236 238 245
f 236 245 241
f 236 241 242
f 241 245 243

