# https://github.com/mikedh/trimesh
v 0.03118628 0.03318384 0.00484084
v 0.03118628 0.04097762 0.00484084
v 0.03118628 0.03319075 0.00480645
v 0.04528902 0.00565320 0.00484084
v 0.03150773 0.04073903 0.00484084
v 0.03118628 0.04097762 0.00346370
v 0.03118628 0.03368867 0.00389276
v 0.04567670 0.00565320 0.00376960
v 0.04968017 0.00565320 0.00484084
v 0.03147851 0.03498879 0.00075579
v 0.03241362 0.04005094 0.00346370
v 0.03149604 0.04074595 0.00346370
v 0.03241362 0.04005094 0.00484084
v 0.03118628 0.04094995 0.00206976
v 0.03118628 0.03634077 0.00075579
v 0.04702483 0.00591945 0.00075579
v 0.04720406 0.00565666 0.00075579
v 0.04815476 0.00565320 0.00075579
v 0.05106142 0.00565320 0.00347130
v 0.05106142 0.00565666 0.00484084
v 0.03311107 0.03946658 0.00346370
v 0.03239609 0.04003711 0.00206976
v 0.03147656 0.04073212 0.00206976
v 0.03311107 0.03946658 0.00484084
v 0.03118628 0.04093267 0.00177946
v 0.03118628 0.04036214 0.00075579
v 0.05080621 0.00565320 0.00075579
v 0.05108869 0.00565320 0.00206976
v 0.05106142 0.00566357 0.00484084
v 0.03389812 0.03876811 0.00346370
v 0.03388254 0.03875428 0.00206976
v 0.03309353 0.03945275 0.00206976
v 0.03229478 0.03995412 0.00112167
v 0.03389812 0.03876811 0.00484084
v 0.03118628 0.04064567 0.00091414
v 0.03118628 0.04055231 0.00075939
v 0.03130317 0.04046587 0.00075579
v 0.05080621 0.00566357 0.00075579
v 0.05096985 0.00705705 0.00206976
v 0.05097570 0.00705705 0.00346370
v 0.05097570 0.00705705 0.00484084
v 0.03459556 0.03813880 0.00346370
v 0.03534950 0.03742650 0.00206976
v 0.03375201 0.03863672 0.00103410
v 0.03269416 0.03937322 0.00075579
v 0.03134798 0.04043129 0.00075579
v 0.03459556 0.03813880 0.00484084
v 0.05052178 0.00806326 0.00075579
v 0.05050814 0.00845052 0.00083177
v 0.05039125 0.00984746 0.00105450
v 0.05078478 0.00845052 0.00206976
v 0.05080816 0.00845052 0.00346370
v 0.05097375 0.00707434 0.00484084
v 0.03536508 0.03744033 0.00346370
v 0.03604694 0.03678336 0.00206976
v 0.03519365 0.03728474 0.00097932
v 0.03473778 0.03754753 0.00075579
v 0.03405982 0.03816301 0.00075579
v 0.03315587 0.03897212 0.00075579
v 0.03536508 0.03744033 0.00484084
v 0.05046723 0.00845052 0.00075579
v 0.05043021 0.00867528 0.00075579
v 0.05022955 0.00984746 0.00075579
v 0.05030358 0.01073956 0.00125083
v 0.05055295 0.00984746 0.00206976
v 0.05080816 0.00845052 0.00484084
v 0.05057632 0.00984746 0.00346370
v 0.03605474 0.03680757 0.00484084
v 0.03606253 0.03679719 0.00346370
v 0.03675218 0.03610218 0.00346370
v 0.03673854 0.03608490 0.00206976
v 0.03658658 0.03592584 0.00095213
v 0.03544496 0.03689401 0.00075579
v 0.04989447 0.01120635 0.00075579
v 0.05033865 0.01088478 0.00206976
v 0.04909767 0.01442898 0.00075579
v 0.04898858 0.01542481 0.00109848
v 0.04886584 0.01613711 0.00135640
v 0.04952432 0.01402788 0.00206976
v 0.05057632 0.00984746 0.00484084
v 0.05035034 0.01092628 0.00346370
v 0.03607227 0.03679028 0.00484084
v 0.03675218 0.03610218 0.00484084
v 0.03745741 0.03534839 0.00484084
v 0.03744962 0.03535531 0.00346370
v 0.03743403 0.03534148 0.00206976
v 0.03681647 0.03553165 0.00075579
v 0.03621448 0.03615059 0.00075579
v 0.03793666 0.03449779 0.00100451
v 0.03751391 0.03477441 0.00075579
v 0.04880155 0.01542481 0.00075579
v 0.04771253 0.01846418 0.00075579
v 0.04760343 0.01925255 0.00107689
v 0.04888142 0.01617861 0.00206976
v 0.04913858 0.01542481 0.00206976
v 0.04768331 0.01945310 0.00206976
v 0.04953211 0.01402788 0.00346370
v 0.04916196 0.01542481 0.00346370
v 0.05035034 0.01092628 0.00484084
v 0.04952821 0.01404517 0.00484084
v 0.03877047 0.03389960 0.00484084
v 0.03808082 0.03466030 0.00346370
v 0.03806719 0.03464301 0.00206976
v 0.03928284 0.03305590 0.00106169
v 0.03823083 0.03398950 0.00075579
v 0.04727419 0.01956029 0.00075579
v 0.04640726 0.02148972 0.00075579
v 0.04626504 0.02210865 0.00099652
v 0.04637414 0.02234032 0.00206976
v 0.04889311 0.01621318 0.00346370
v 0.04769694 0.01948076 0.00346370
v 0.04916196 0.01542481 0.00484084
v 0.03878606 0.03388231 0.00484084
v 0.03877826 0.03388922 0.00346370
v 0.03876463 0.03387193 0.00206976
v 0.03876852 0.03339476 0.00075579
v 0.03938804 0.03317692 0.00206976
v 0.04057057 0.03155869 0.00121884
v 0.03967831 0.03232632 0.00075579
v 0.04600399 0.02234032 0.00075579
v 0.04504160 0.02427321 0.00075579
v 0.04488380 0.02483682 0.00098852
v 0.04638583 0.02236453 0.00346370
v 0.04500069 0.02503046 0.00206976
v 0.04501433 0.02505466 0.00346370
v 0.04889311 0.01621318 0.00484084
v 0.04769694 0.01948076 0.00484084
v 0.03940167 0.03319421 0.00346370
v 0.03940167 0.03319421 0.00484084
v 0.04009912 0.03234706 0.00346370
v 0.04008548 0.03232632 0.00206976
v 0.04083747 0.03078416 0.00075579
v 0.03990041 0.03204624 0.00075579
v 0.04062317 0.03163131 0.00206976
v 0.04234534 0.02929387 0.00206976
v 0.04339930 0.02747163 0.00113367
v 0.04213105 0.02900341 0.00075579
v 0.04458573 0.02507541 0.00075579
v 0.04359996 0.02672821 0.00075579
v 0.04638583 0.02236453 0.00484084
v 0.04347138 0.02758919 0.00206976
v 0.04501433 0.02505466 0.00484084
v 0.04348502 0.02760994 0.00346370
v 0.04009133 0.03235744 0.00484084
v 0.04063681 0.03164860 0.00346370
v 0.04235703 0.02931461 0.00346370
v 0.04304279 0.02828766 0.00206976
v 0.04292005 0.02786236 0.00075579
v 0.04217196 0.02894463 0.00075579
v 0.04348502 0.02760994 0.00484084
v 0.04305448 0.02830841 0.00346370
v 0.04304669 0.02832224 0.00484084
v 0.04063681 0.03164860 0.00484084
v 0.04235703 0.02931461 0.00484084
f 1 2 6
f 1 6 14
f 1 14 25
f 1 25 35
f 1 35 36
f 1 36 26
f 1 26 15
f 1 15 7
f 1 7 3
f 1 3 4
f 1 4 9
f 1 9 20
f 1 20 29
f 1 29 41
f 1 41 53
f 1 53 66
f 1 66 80
f 1 80 99
f 1 99 100
f 1 100 112
f 1 112 126
f 1 126 127
f 1 127 140
f 1 140 142
f 1 142 150
f 1 150 152
f 1 152 154
f 1 154 153
f 1 153 144
f 1 144 129
f 1 129 113
f 1 113 101
f 1 101 84
f 1 84 83
f 1 83 82
f 1 82 68
f 1 68 60
f 1 60 47
f 1 47 34
f 1 34 24
f 1 24 13
f 1 13 5
f 1 5 2
f 2 5 6
f 3 7 4
f 4 8 18
f 4 18 27
f 4 27 28
f 4 28 19
f 4 19 9
f 4 7 10
f 4 10 8
f 5 11 12
f 5 12 6
f 5 13 11
f 6 12 14
f 7 15 10
f 8 16 17
f 8 17 18
f 8 10 16
f 9 19 20
f 10 15 26
f 10 26 37
f 10 37 46
f 10 46 45
f 10 45 59
f 10 59 58
f 10 58 57
f 10 57 73
f 10 73 88
f 10 88 87
f 10 87 90
f 10 90 105
f 10 105 116
f 10 116 119
f 10 119 133
f 10 133 132
f 10 132 137
f 10 137 149
f 10 149 148
f 10 148 139
f 10 139 138
f 10 138 121
f 10 121 120
f 10 120 107
f 10 107 106
f 10 106 92
f 10 92 91
f 10 91 76
f 10 76 74
f 10 74 63
f 10 63 62
f 10 62 61
f 10 61 48
f 10 48 38
f 10 38 27
f 10 27 18
f 10 18 17
f 10 17 16
f 11 13 24
f 11 24 21
f 11 21 32
f 11 32 22
f 11 22 12
f 12 23 14
f 12 22 23
f 14 23 25
f 19 28 20
f 20 28 29
f 21 30 31
f 21 31 32
f 21 24 34
f 21 34 30
f 22 32 33
f 22 33 25
f 22 25 23
f 25 33 35
f 26 36 37
f 27 38 28
f 28 38 39
f 28 39 40
f 28 40 41
f 28 41 29
f 30 34 47
f 30 47 42
f 30 42 31
f 31 42 43
f 31 43 44
f 31 44 33
f 31 33 32
f 33 45 46
f 33 46 37
f 33 37 35
f 33 44 45
f 35 37 36
f 38 48 49
f 38 49 39
f 39 49 50
f 39 50 51
f 39 51 52
f 39 52 40
f 40 53 41
f 40 52 53
f 42 54 43
f 42 47 60
f 42 60 54
f 43 54 69
f 43 69 55
f 43 55 44
f 44 55 56
f 44 56 57
f 44 57 58
f 44 58 59
f 44 59 45
f 48 61 49
f 49 61 62
f 49 62 50
f 50 63 64
f 50 64 51
f 50 62 63
f 51 64 65
f 51 65 67
f 51 67 52
f 52 66 53
f 52 67 80
f 52 80 66
f 54 60 68
f 54 68 69
f 55 69 70
f 55 70 71
f 55 71 72
f 55 72 56
f 56 72 73
f 56 73 57
f 63 74 64
f 64 75 65
f 64 74 76
f 64 76 77
f 64 77 78
f 64 78 79
f 64 79 75
f 65 75 67
f 67 75 81
f 67 81 99
f 67 99 80
f 68 82 69
f 69 82 70
f 70 83 84
f 70 84 85
f 70 85 86
f 70 86 71
f 70 82 83
f 71 86 72
f 72 87 88
f 72 88 73
f 72 86 89
f 72 89 90
f 72 90 87
f 75 79 81
f 76 91 77
f 77 91 92
f 77 92 93
f 77 93 78
f 78 94 95
f 78 95 79
f 78 93 96
f 78 96 94
f 79 97 81
f 79 95 98
f 79 98 97
f 81 97 100
f 81 100 99
f 84 101 102
f 84 102 85
f 85 102 86
f 86 102 103
f 86 103 104
f 86 104 89
f 89 104 105
f 89 105 90
f 92 106 93
f 93 106 107
f 93 107 108
f 93 108 109
f 93 109 96
f 94 110 95
f 94 96 110
f 95 110 98
f 96 111 110
f 96 109 111
f 97 98 100
f 98 110 126
f 98 126 112
f 98 112 100
f 101 113 114
f 101 114 102
f 102 114 115
f 102 115 103
f 103 115 104
f 104 116 105
f 104 115 117
f 104 117 118
f 104 118 119
f 104 119 116
f 107 120 108
f 108 120 121
f 108 121 122
f 108 122 109
f 109 123 111
f 109 122 124
f 109 124 125
f 109 125 123
f 110 111 127
f 110 127 126
f 111 123 140
f 111 140 127
f 113 128 114
f 113 129 128
f 114 128 117
f 114 117 115
f 117 128 130
f 117 130 131
f 117 131 118
f 118 132 133
f 118 133 119
f 118 131 134
f 118 134 135
f 118 135 136
f 118 136 137
f 118 137 132
f 121 138 122
f 122 138 139
f 122 139 136
f 122 136 124
f 123 125 142
f 123 142 140
f 124 136 141
f 124 141 125
f 125 141 143
f 125 143 150
f 125 150 142
f 128 129 144
f 128 144 130
f 130 144 145
f 130 145 134
f 130 134 131
f 134 145 146
f 134 146 135
f 135 146 151
f 135 151 147
f 135 147 136
f 136 148 149
f 136 149 137
f 136 147 141
f 136 139 148
f 141 147 143
f 143 147 151
f 143 151 152
f 143 152 150
f 144 153 145
f 145 153 154
f 145 154 146
f 146 154 152
f 146 152 151

