# https://github.com/mikedh/trimesh
v -0.04965944 -0.01333869 0.00484085
v -0.05015034 -0.01179383 0.00484085
v -0.04910602 -0.01333869 0.00484085
v -0.04965944 -0.01333869 0.11083181
v -0.05033126 -0.01107067 0.00484085
v -0.05015034 -0.01179383 0.11083181
v -0.04840073 -0.01246680 0.00484085
v -0.04820070 -0.01333869 0.00485163
v -0.04965061 -0.01333869 0.11127384
v -0.05014814 -0.01178454 0.11157572
v -0.05062066 -0.00969498 0.00484085
v -0.05033126 -0.01107067 0.11083181
v -0.04967966 0.00565134 0.00484085
v -0.04778480 0.00565134 0.11322526
v -0.04778480 0.00555467 0.11310666
v -0.04778480 0.00334614 0.11282635
v -0.04778480 0.00184776 0.11271853
v -0.04778480 0.00042002 0.11266463
v -0.04778480 0.00008168 0.11266463
v -0.04778480 -0.01333869 0.11267541
v -0.04963186 -0.01333869 0.11219025
v -0.05026544 -0.01111900 0.11211478
v -0.05062434 -0.00967639 0.00484085
v -0.05062434 -0.00967639 0.11083181
v -0.05098948 0.00565134 0.00484085
v -0.04778480 0.00565134 0.11489636
v -0.04778480 -0.01333869 0.11470230
v -0.04946013 -0.01333869 0.11275088
v -0.05022205 -0.01068399 0.11308510
v -0.05007092 -0.01161351 0.11250291
v -0.05056109 -0.00967639 0.11222259
v -0.05083063 -0.00830071 0.00484085
v -0.05077731 -0.00828212 0.11222259
v -0.05083320 -0.00828212 0.11083181
v -0.05151569 0.00041445 0.00484085
v -0.05100860 0.00565134 0.11222259
v -0.04805287 0.00565134 0.11497183
v -0.04778480 -0.00967639 0.11493948
v -0.04778480 -0.01246680 0.11482089
v -0.04810141 -0.01333869 0.11465917
v -0.04917331 -0.01333869 0.11366729
v -0.04878132 -0.01329035 0.11434651
v -0.04987933 -0.00967639 0.11396917
v -0.05032097 -0.00967639 0.11326838
v -0.05083320 -0.00828212 0.00484085
v -0.05043276 -0.00828212 0.11345166
v -0.05067361 -0.00549357 0.11362416
v -0.05092109 -0.00688784 0.11222259
v -0.05153996 -0.00064521 0.11154337
v -0.05154070 -0.00066194 0.11083181
v -0.05154070 -0.00027340 0.00484085
v -0.05151569 0.00041445 0.11083181
v -0.05153996 -0.00039238 0.11154337
v -0.05143589 0.00007610 0.11209322
v -0.05077584 0.00426636 0.11362416
v -0.05065743 0.00565134 0.11362416
v -0.04806059 0.00565134 0.11497183
v -0.04805287 -0.00688784 0.11498261
v -0.04778480 -0.01107067 0.11490714
v -0.04805287 -0.00828212 0.11497183
v -0.04805287 -0.00967639 0.11495026
v -0.04805287 -0.01107067 0.11489636
v -0.04805287 -0.01246680 0.11477776
v -0.04905013 -0.01107067 0.11452979
v -0.04888502 -0.01246680 0.11442198
v -0.04872102 -0.01333869 0.11436807
v -0.04880706 -0.01333869 0.11428182
v -0.04999149 -0.00828212 0.11415245
v -0.05154070 -0.00066194 0.00484085
v -0.05046033 -0.00684322 0.11372120
v -0.05008085 -0.00727824 0.11426026
v -0.05016689 -0.00634872 0.11433573
v -0.05022536 -0.00549357 0.11438964
v -0.05078503 -0.00409929 0.11362416
v -0.05136492 -0.00119176 0.11209322
v -0.05154070 -0.00028269 0.11083181
v -0.05092219 -0.00131260 0.11362416
v -0.05095418 0.00008168 0.11362416
v -0.05091189 0.00147595 0.11362416
v -0.05028420 0.00426636 0.11443276
v -0.05021543 0.00565134 0.11437885
v -0.04944726 0.00565134 0.11472386
v -0.04944726 0.00426636 0.11479932
v -0.04944726 0.00287023 0.11483167
v -0.04944726 0.00147595 0.11485323
v -0.04944726 0.00008168 0.11486401
v -0.04944726 -0.00131260 0.11485323
v -0.04944726 -0.00270687 0.11483167
v -0.04944726 -0.00409929 0.11479932
v -0.04944726 -0.00549357 0.11473464
v -0.04918250 -0.00967639 0.11458370
v -0.05028971 -0.00409929 0.11443276
v -0.05032464 -0.00270687 0.11446511
v -0.05035921 -0.00131260 0.11448667
v -0.05037392 0.00008168 0.11449745
v -0.05035443 0.00147595 0.11448667
f 1 2 5
f 1 5 11
f 1 11 23
f 1 23 32
f 1 32 45
f 1 45 69
f 1 69 51
f 1 51 35
f 1 35 25
f 1 25 13
f 1 13 7
f 1 7 3
f 1 3 8
f 1 8 20
f 1 20 27
f 1 27 40
f 1 40 66
f 1 66 67
f 1 67 41
f 1 41 28
f 1 28 21
f 1 21 9
f 1 9 4
f 1 4 6
f 1 6 2
f 2 6 12
f 2 12 5
f 3 7 8
f 4 9 10
f 4 10 6
f 5 12 11
f 6 10 12
f 7 13 8
f 8 13 14
f 8 14 15
f 8 15 16
f 8 16 17
f 8 17 18
f 8 18 19
f 8 19 20
f 9 21 10
f 10 21 22
f 10 22 12
f 11 12 24
f 11 24 23
f 12 22 24
f 13 25 36
f 13 36 56
f 13 56 81
f 13 81 82
f 13 82 57
f 13 57 37
f 13 37 26
f 13 26 14
f 14 26 38
f 14 38 59
f 14 59 39
f 14 39 27
f 14 27 20
f 14 20 19
f 14 19 18
f 14 18 17
f 14 17 16
f 14 16 15
f 21 28 29
f 21 29 30
f 21 30 22
f 22 30 29
f 22 29 31
f 22 31 24
f 23 24 32
f 24 31 33
f 24 33 34
f 24 34 32
f 25 35 36
f 26 37 38
f 27 39 40
f 28 41 29
f 29 33 31
f 29 41 42
f 29 42 43
f 29 43 44
f 29 44 33
f 32 34 45
f 33 44 46
f 33 46 47
f 33 47 48
f 33 48 34
f 34 48 49
f 34 49 50
f 34 50 69
f 34 69 45
f 35 51 52
f 35 52 36
f 36 52 53
f 36 53 54
f 36 54 55
f 36 55 56
f 37 57 58
f 37 58 38
f 38 58 60
f 38 60 61
f 38 61 59
f 39 59 62
f 39 62 63
f 39 63 40
f 40 64 65
f 40 65 66
f 40 63 64
f 41 67 42
f 42 67 66
f 42 66 65
f 42 65 43
f 43 65 68
f 43 68 44
f 44 68 46
f 46 70 47
f 46 68 71
f 46 71 72
f 46 72 70
f 47 70 72
f 47 72 73
f 47 73 74
f 47 74 48
f 48 74 49
f 49 53 76
f 49 76 50
f 49 74 75
f 49 75 54
f 49 54 53
f 50 76 51
f 50 51 69
f 51 76 52
f 52 76 53
f 54 75 74
f 54 74 77
f 54 77 78
f 54 78 79
f 54 79 55
f 55 79 80
f 55 80 81
f 55 81 56
f 57 82 83
f 57 83 84
f 57 84 85
f 57 85 86
f 57 86 58
f 58 86 87
f 58 87 60
f 59 61 62
f 60 87 88
f 60 88 61
f 61 88 89
f 61 89 62
f 62 89 90
f 62 90 91
f 62 91 64
f 62 64 63
f 64 91 73
f 64 73 72
f 64 72 71
f 64 71 65
f 65 71 68
f 73 92 74
f 73 91 90
f 73 90 92
f 74 92 77
f 77 92 93
f 77 93 94
f 77 94 78
f 78 94 95
f 78 95 96
f 78 96 79
f 79 96 80
f 80 96 83
f 80 83 82
f 80 82 81
f 83 96 84
f 84 96 85
f 85 96 95
f 85 95 86
f 86 95 87
f 87 95 94
f 87 94 88
f 88 94 89
f 89 94 93
f 89 93 92
f 89 92 90

