# https://github.com/mikedh/trimesh
v -0.02155841 -0.04677230 0.00484085
v -0.02418633 -0.04552140 0.00484085
v -0.02155841 -0.04023139 0.00484085
v -0.02155841 -0.04677230 0.11082519
v -0.02675376 -0.04402938 0.00484085
v -0.02418633 -0.04552140 0.11082519
v -0.03002395 -0.03427555 0.00484085
v -0.02155841 -0.04022405 0.00486241
v -0.02155841 -0.04675639 0.11121334
v -0.02744161 -0.04360711 0.00484085
v -0.02675376 -0.04402938 0.11082519
v -0.02412169 -0.04548713 0.11222682
v -0.02669326 -0.04399388 0.11222682
v -0.03002395 -0.04187519 0.00484085
v -0.03002395 -0.03427311 0.00486241
v -0.03002395 -0.03426943 0.00568182
v -0.02155841 -0.04022283 0.00625325
v -0.02155841 -0.04670131 0.11222682
v -0.02852974 -0.04291312 0.00484085
v -0.02745072 -0.04360099 0.11082519
v -0.02852974 -0.04291312 0.11082519
v -0.02739023 -0.04357039 0.11222682
v -0.02392114 -0.04537942 0.11318639
v -0.02656812 -0.04391922 0.11306780
v -0.02992864 -0.04194618 0.00484085
v -0.03002395 -0.04187519 0.11082519
v -0.03002395 -0.03426943 0.11082519
v -0.02155841 -0.04022283 0.11082519
v -0.02155841 -0.04620927 0.11359610
v -0.02923996 -0.04245658 0.00484085
v -0.02923582 -0.04245290 0.11159070
v -0.02923996 -0.04245658 0.11082519
v -0.02863084 -0.04279194 0.11211900
v -0.02916289 -0.04237947 0.11251792
v -0.02157084 -0.04619458 0.11361766
v -0.02332528 -0.04506363 0.11411362
v -0.02511452 -0.04388250 0.11435082
v -0.02604353 -0.04360344 0.11399502
v -0.02823305 -0.04270994 0.11332656
v -0.02715818 -0.04315669 0.11366079
v -0.03002395 -0.04179686 0.11214056
v -0.03002395 -0.03435633 0.11222682
v -0.02155841 -0.04028403 0.11222682
v -0.02155841 -0.04619703 0.11361766
v -0.03002395 -0.04133542 0.11345593
v -0.02155841 -0.04548958 0.11448020
v -0.02239543 -0.04530108 0.11437239
v -0.02774824 -0.04238069 0.11426457
v -0.02434794 -0.04409180 0.11446942
v -0.02681840 -0.04267444 0.11445864
v -0.02985323 -0.04138682 0.11356375
v -0.03002395 -0.04114325 0.11373627
v -0.03002395 -0.03488509 0.11350984
v -0.02155841 -0.04074424 0.11358532
v -0.02155841 -0.04453855 0.11483599
v -0.02289765 -0.04457405 0.11458802
v -0.02934024 -0.04113591 0.11437239
v -0.02564491 -0.04314078 0.11455567
v -0.02722448 -0.04184948 0.11466349
v -0.02852974 -0.04141497 0.11450176
v -0.03002395 -0.04052393 0.11431848
v -0.03002395 -0.03489733 0.11353141
v -0.02155841 -0.04081401 0.11369314
v -0.02155841 -0.04314445 0.11496538
v -0.02295317 -0.04314445 0.11496538
v -0.02574187 -0.04174912 0.11495460
v -0.02434794 -0.04314445 0.11481443
v -0.02985323 -0.04033910 0.11455567
v -0.03002395 -0.04026199 0.11453411
v -0.02852974 -0.04035624 0.11485756
v -0.03002395 -0.03606133 0.11456645
v -0.02951510 -0.03571861 0.11401659
v -0.02213604 -0.04099026 0.11436160
v -0.02155841 -0.04164264 0.11450176
v -0.02992450 -0.03756803 0.11494381
v -0.02852974 -0.03896214 0.11497616
v -0.02434794 -0.04174912 0.11497616
v -0.02713580 -0.04035624 0.11498694
v -0.02155841 -0.04174300 0.11457723
v -0.03002395 -0.03617883 0.11460958
v -0.02992450 -0.03896214 0.11493303
v -0.03002395 -0.03905394 0.11488990
v -0.03002395 -0.03756803 0.11494381
v -0.03002395 -0.03896459 0.11491147
f 1 2 5
f 1 5 10
f 1 10 19
f 1 19 30
f 1 30 25
f 1 25 14
f 1 14 7
f 1 7 3
f 1 3 8
f 1 8 17
f 1 17 28
f 1 28 43
f 1 43 54
f 1 54 63
f 1 63 74
f 1 74 79
f 1 79 64
f 1 64 55
f 1 55 46
f 1 46 44
f 1 44 29
f 1 29 18
f 1 18 9
f 1 9 4
f 1 4 6
f 1 6 2
f 2 6 11
f 2 11 5
f 3 7 8
f 4 9 6
f 5 11 10
f 6 9 12
f 6 12 13
f 6 13 11
f 7 14 26
f 7 26 41
f 7 41 45
f 7 45 52
f 7 52 61
f 7 61 69
f 7 69 82
f 7 82 84
f 7 84 83
f 7 83 80
f 7 80 71
f 7 71 62
f 7 62 53
f 7 53 42
f 7 42 27
f 7 27 16
f 7 16 15
f 7 15 8
f 8 15 16
f 8 16 17
f 9 18 12
f 10 11 20
f 10 20 21
f 10 21 19
f 11 13 22
f 11 22 20
f 12 18 23
f 12 23 24
f 12 24 13
f 13 24 22
f 14 25 26
f 16 27 28
f 16 28 17
f 18 29 23
f 19 21 32
f 19 32 30
f 20 22 31
f 20 31 21
f 21 31 32
f 22 33 31
f 22 24 34
f 22 34 33
f 23 29 35
f 23 35 36
f 23 36 37
f 23 37 38
f 23 38 24
f 24 39 34
f 24 38 40
f 24 40 39
f 25 30 32
f 25 32 26
f 26 32 31
f 26 31 41
f 27 42 43
f 27 43 28
f 29 44 35
f 31 33 34
f 31 34 41
f 34 39 45
f 34 45 41
f 35 44 46
f 35 46 47
f 35 47 36
f 36 47 37
f 37 48 38
f 37 47 49
f 37 49 50
f 37 50 48
f 38 48 40
f 39 51 45
f 39 40 48
f 39 48 52
f 39 52 51
f 42 53 54
f 42 54 43
f 45 51 52
f 46 55 56
f 46 56 47
f 47 56 49
f 48 50 57
f 48 57 52
f 49 56 58
f 49 58 50
f 50 58 59
f 50 59 60
f 50 60 57
f 52 57 61
f 53 62 54
f 54 62 63
f 55 64 65
f 55 65 66
f 55 66 67
f 55 67 56
f 56 67 58
f 57 60 68
f 57 68 69
f 57 69 61
f 58 67 59
f 59 67 70
f 59 70 68
f 59 68 60
f 62 71 72
f 62 72 73
f 62 73 63
f 63 73 74
f 64 75 76
f 64 76 77
f 64 77 78
f 64 78 65
f 64 79 80
f 64 80 75
f 65 78 66
f 66 78 81
f 66 81 70
f 66 70 67
f 68 70 82
f 68 82 69
f 70 81 82
f 71 80 79
f 71 79 73
f 71 73 72
f 73 79 74
f 75 83 76
f 75 80 83
f 76 78 77
f 76 83 81
f 76 81 78
f 81 84 82
f 81 83 84

