# https://github.com/mikedh/trimesh
v -0.00683902 0.05225766 0.02019636
v -0.00677307 0.05225766 0.01880360
v -0.00656314 0.05225766 0.02160012
v -0.00644605 0.06642312 0.01740864
v -0.00657121 0.05225766 0.01774831
v -0.00634647 0.06642312 0.01681613
v -0.00620920 0.06562160 0.01601477
v -0.00604637 0.05225766 0.02293133
v -0.00613653 0.06642312 0.01810447
v -0.00610154 0.05225766 0.01651383
v -0.00618363 0.06422654 0.01601477
v -0.00620113 0.06642312 0.01601477
v -0.00596966 0.06642312 0.01565861
v -0.00566552 0.06562160 0.01517823
v -0.00553229 0.05225766 0.02368432
v -0.00590506 0.06642312 0.01861233
v -0.00592256 0.05225766 0.01632476
v -0.00564937 0.06422654 0.01519472
v -0.00560630 0.06283149 0.01523869
v -0.00566013 0.06642312 0.01518373
v -0.00530216 0.06642312 0.01497817
v -0.00482442 0.06562160 0.01469676
v -0.00483115 0.05225766 0.02433728
v -0.00522680 0.06642312 0.01930816
v -0.00552017 0.06642312 0.01901246
v -0.00483922 0.05225766 0.01577623
v -0.00555786 0.06187326 0.01528486
v -0.00482442 0.06283149 0.01482207
v -0.00482442 0.06422654 0.01473083
v -0.00482442 0.06642312 0.01470775
v -0.00353519 0.06562160 0.01413833
v -0.00343022 0.05225766 0.02482316
v -0.00343022 0.06642312 0.02013261
v -0.00389046 0.06642312 0.01994793
v -0.00452970 0.06642312 0.01969070
v -0.00205082 0.05225766 0.01490232
v -0.00329295 0.06296323 0.01417241
v -0.00273581 0.06351654 0.01392178
v -0.00348270 0.06422654 0.01415592
v -0.00427535 0.06642312 0.01447031
v -0.00351904 0.06642312 0.01414383
v -0.00283808 0.06562160 0.01388770
v -0.00334813 0.05225766 0.02482535
v -0.00064047 0.06642312 0.02064047
v -0.00123394 0.06642312 0.02056901
v -0.00203601 0.06642312 0.02047228
v -0.00062432 0.05225766 0.01470225
v -0.00241417 0.06258604 0.01396355
v -0.00278560 0.06422654 0.01390529
v -0.00203601 0.06422654 0.01379976
v -0.00064047 0.06422654 0.01363047
v -0.00064047 0.06283149 0.01372391
v -0.00198353 0.06296323 0.01387451
v -0.00282059 0.06642312 0.01389319
v -0.00203601 0.06562160 0.01376458
v -0.00064047 0.05225766 0.02475940
v 0.00075239 0.06642312 0.02063277
v 0.00015891 0.06642312 0.02063607
v 0.00038904 0.05225766 0.01471325
v -0.00148425 0.06197726 0.01390419
v -0.00009947 0.06061411 0.01390529
v 0.00019659 0.06061411 0.01390529
v -0.00064047 0.06562160 0.01359639
v 0.00075239 0.06422654 0.01363817
v 0.00075239 0.06283149 0.01373160
v -0.00248011 0.06642312 0.01384153
v -0.00203601 0.06642312 0.01377557
v -0.00064047 0.06642312 0.01360629
v -0.00047628 0.05225766 0.02475061
v 0.00155312 0.06642312 0.02053164
v 0.00075239 0.05225766 0.02468135
v 0.00073220 0.05225766 0.01472533
v 0.00075239 0.06562160 0.01360409
v 0.00214659 0.06562160 0.01377997
v 0.00226771 0.06413918 0.01383383
v 0.00281274 0.06361777 0.01392727
v 0.00185456 0.06283149 0.01387121
v 0.00075239 0.06642312 0.01361398
v 0.00214659 0.06642312 0.02045579
v 0.00214659 0.05225766 0.02450437
v 0.00162175 0.05225766 0.01489352
v 0.00255167 0.06283149 0.01396025
v 0.00134452 0.06642312 0.01368873
v 0.00214659 0.06642312 0.01379096
v 0.00290425 0.06642312 0.01390089
v 0.00291906 0.06562160 0.01389539
v 0.00289080 0.06454688 0.01390638
v 0.00342910 0.06413918 0.01413503
v 0.00354080 0.06283149 0.01427024
v 0.00354080 0.06143782 0.01441864
v 0.00354080 0.06642312 0.02009633
v 0.00354080 0.05225766 0.02426803
v 0.00453127 0.05225766 0.01588616
v 0.00360136 0.06642312 0.01417241
v 0.00361616 0.06562160 0.01416691
v 0.00493500 0.06422654 0.01480449
v 0.00493500 0.06283149 0.01489243
v 0.00568324 0.05225766 0.01629069
v 0.00457972 0.06642312 0.01966212
v 0.00399970 0.05225766 0.02411743
v 0.00452185 0.05225766 0.02394045
v 0.00493500 0.06642312 0.01478250
v 0.00493500 0.06562160 0.01477261
v 0.00570881 0.06422654 0.01524089
v 0.00566978 0.06283149 0.01528046
v 0.00563883 0.06208127 0.01531124
v 0.00645839 0.05225766 0.01739215
v 0.00498075 0.06642312 0.01942908
v 0.00484483 0.05225766 0.02378106
v 0.00571823 0.06642312 0.01523100
v 0.00572361 0.06562160 0.01522550
v 0.00618117 0.06422654 0.01601477
v 0.00690922 0.05225766 0.01880360
v 0.00620405 0.06562160 0.01601477
v 0.00527682 0.06642312 0.01925430
v 0.00618521 0.05225766 0.02246744
v 0.00592413 0.06642312 0.01556627
v 0.00619732 0.06642312 0.01601477
v 0.00687289 0.05225766 0.02010622
v 0.00643417 0.06642312 0.01740864
v 0.00595508 0.06642312 0.01855846
v 0.00665218 0.05225766 0.02130002
v 0.00686750 0.05225766 0.02019636
f 1 2 5
f 1 5 10
f 1 10 17
f 1 17 26
f 1 26 36
f 1 36 47
f 1 47 59
f 1 59 72
f 1 72 81
f 1 81 93
f 1 93 98
f 1 98 107
f 1 107 113
f 1 113 119
f 1 119 123
f 1 123 122
f 1 122 116
f 1 116 109
f 1 109 101
f 1 101 100
f 1 100 92
f 1 92 80
f 1 80 71
f 1 71 69
f 1 69 56
f 1 56 43
f 1 43 32
f 1 32 23
f 1 23 15
f 1 15 8
f 1 8 3
f 1 3 4
f 1 4 2
f 2 4 6
f 2 6 7
f 2 7 5
f 3 8 4
f 4 9 16
f 4 16 25
f 4 25 24
f 4 24 35
f 4 35 34
f 4 34 33
f 4 33 46
f 4 46 45
f 4 45 44
f 4 44 58
f 4 58 57
f 4 57 70
f 4 70 79
f 4 79 91
f 4 91 99
f 4 99 108
f 4 108 115
f 4 115 121
f 4 121 120
f 4 120 118
f 4 118 117
f 4 117 110
f 4 110 102
f 4 102 94
f 4 94 85
f 4 85 84
f 4 84 83
f 4 83 78
f 4 78 68
f 4 68 67
f 4 67 66
f 4 66 54
f 4 54 41
f 4 41 40
f 4 40 30
f 4 30 21
f 4 21 20
f 4 20 13
f 4 13 12
f 4 12 6
f 4 8 9
f 5 7 11
f 5 11 10
f 6 12 7
f 7 12 13
f 7 13 14
f 7 14 11
f 8 15 16
f 8 16 9
f 10 11 18
f 10 18 19
f 10 19 17
f 11 14 18
f 13 20 14
f 14 20 21
f 14 21 22
f 14 22 18
f 15 23 24
f 15 24 25
f 15 25 16
f 17 19 27
f 17 27 28
f 17 28 26
f 18 22 29
f 18 29 19
f 19 29 28
f 19 28 27
f 21 30 22
f 22 30 31
f 22 31 29
f 23 32 33
f 23 33 34
f 23 34 35
f 23 35 24
f 26 28 37
f 26 37 38
f 26 38 36
f 28 29 39
f 28 39 37
f 29 31 39
f 30 40 31
f 31 40 41
f 31 41 42
f 31 42 49
f 31 49 39
f 32 43 44
f 32 44 45
f 32 45 46
f 32 46 33
f 36 38 48
f 36 48 47
f 37 39 38
f 38 39 49
f 38 49 50
f 38 50 51
f 38 51 52
f 38 52 53
f 38 53 48
f 41 54 42
f 42 54 55
f 42 55 49
f 43 56 57
f 43 57 58
f 43 58 44
f 47 48 53
f 47 53 60
f 47 60 52
f 47 52 61
f 47 61 62
f 47 62 59
f 49 55 50
f 50 55 51
f 51 55 63
f 51 63 73
f 51 73 64
f 51 64 65
f 51 65 52
f 52 60 53
f 52 65 62
f 52 62 61
f 54 66 55
f 55 66 67
f 55 67 68
f 55 68 63
f 56 69 57
f 57 69 71
f 57 71 70
f 59 62 72
f 62 65 72
f 63 68 78
f 63 78 73
f 64 73 74
f 64 74 75
f 64 75 76
f 64 76 65
f 65 76 77
f 65 77 72
f 70 71 80
f 70 80 79
f 72 77 82
f 72 82 81
f 73 78 74
f 74 78 83
f 74 83 84
f 74 84 85
f 74 85 86
f 74 86 87
f 74 87 75
f 75 87 76
f 76 87 88
f 76 88 89
f 76 89 90
f 76 90 81
f 76 81 82
f 76 82 77
f 79 80 92
f 79 92 91
f 81 90 93
f 85 94 95
f 85 95 86
f 86 95 87
f 87 95 88
f 88 96 97
f 88 97 89
f 88 95 96
f 89 97 98
f 89 98 90
f 90 98 93
f 91 92 100
f 91 100 101
f 91 101 99
f 94 102 95
f 95 102 103
f 95 103 96
f 96 103 104
f 96 104 105
f 96 105 106
f 96 106 97
f 97 106 98
f 98 106 105
f 98 105 107
f 99 101 109
f 99 109 108
f 102 110 103
f 103 110 111
f 103 111 104
f 104 111 112
f 104 112 105
f 105 112 107
f 107 112 114
f 107 114 113
f 108 109 115
f 109 116 115
f 110 117 111
f 111 117 118
f 111 118 114
f 111 114 112
f 113 114 118
f 113 118 120
f 113 120 119
f 115 116 121
f 116 122 120
f 116 120 121
f 119 120 123
f 120 122 123

