# https://github.com/mikedh/trimesh
v 0.04658914 -0.02249557 0.09865235
v 0.04658662 -0.02249557 0.09967661
v 0.04623032 -0.02324130 0.09967661
v 0.04658914 -0.02249557 0.01461974
v 0.04633860 -0.02249557 0.11083567
v 0.04610316 -0.02299246 0.11083567
v 0.04576448 -0.02368969 0.11083567
v 0.04587149 -0.02393853 0.09967661
v 0.04587275 -0.02393853 0.09828577
v 0.04623032 -0.02324130 0.01461974
v 0.04621773 -0.02321586 0.01322890
v 0.04656270 -0.02249557 0.01322890
v 0.04633104 -0.02249557 0.11115912
v 0.04609308 -0.02297020 0.11174134
v 0.04503172 -0.02492595 0.11222651
v 0.04506697 -0.02498637 0.11083567
v 0.04528982 -0.02501738 0.09967661
v 0.04529108 -0.02501738 0.09828577
v 0.04587275 -0.02393853 0.01461974
v 0.04586142 -0.02391310 0.01322890
v 0.04576448 -0.02368969 0.00484073
v 0.04609938 -0.02300200 0.00484073
v 0.04633860 -0.02249557 0.00484073
v 0.04628194 -0.02249557 0.11209714
v 0.04626809 -0.02249557 0.11221573
v 0.04576826 -0.02351002 0.11221573
v 0.04350704 -0.02748274 0.11222651
v 0.04354355 -0.02754316 0.11083567
v 0.04602384 -0.02287320 0.11267935
v 0.04488945 -0.02468347 0.11327234
v 0.04340757 -0.02731737 0.11314296
v 0.04479251 -0.02591098 0.09967661
v 0.04529108 -0.02501738 0.01461974
v 0.04526590 -0.02501738 0.01322890
v 0.04506697 -0.02498637 0.00484073
v 0.03969846 -0.02249557 0.00484073
v 0.04625047 -0.02249557 0.11235590
v 0.04306386 -0.02817997 0.11222651
v 0.04308274 -0.02824040 0.11083567
v 0.04367952 -0.02773158 0.09967661
v 0.04437703 -0.02660742 0.09967661
v 0.04612204 -0.02249557 0.11291654
v 0.04569775 -0.02249557 0.11368205
v 0.04514000 -0.02365312 0.11369283
v 0.04456210 -0.02413808 0.11419957
v 0.04308652 -0.02679346 0.11407019
v 0.04264082 -0.02789456 0.11372517
v 0.04219387 -0.02892888 0.11336938
v 0.04184260 -0.02985826 0.11266857
v 0.04479251 -0.02591098 0.01461974
v 0.04477866 -0.02588793 0.01322890
v 0.04506194 -0.02499512 0.00484073
v 0.03395603 -0.03037582 0.00484073
v 0.03373444 -0.03061671 0.00485151
v 0.03372814 -0.03061671 0.00486229
v 0.03968714 -0.02249557 0.00486229
v 0.04228452 -0.02931606 0.11221573
v 0.04191059 -0.02992822 0.11174134
v 0.04206041 -0.03013970 0.09967661
v 0.04367952 -0.02773158 0.01461974
v 0.04437703 -0.02660742 0.01461974
v 0.04560080 -0.02249557 0.11381143
v 0.04481895 -0.02320870 0.11441520
v 0.04337232 -0.02586487 0.11438286
v 0.04186274 -0.02847254 0.11429660
v 0.04083537 -0.03061671 0.11353110
v 0.04074598 -0.03061671 0.11366048
v 0.04131254 -0.03061671 0.11234512
v 0.04133898 -0.03061671 0.11221573
v 0.04436192 -0.02658436 0.01322890
v 0.04354355 -0.02754316 0.00484073
v 0.03419902 -0.03061671 0.00484073
v 0.03372688 -0.03061671 0.00625313
v 0.03967958 -0.02249557 0.00585421
v 0.04142208 -0.03061671 0.11085724
v 0.04142334 -0.03061671 0.11083567
v 0.04171669 -0.03061671 0.09967661
v 0.04206041 -0.03013970 0.01461974
v 0.04204656 -0.03011982 0.01322890
v 0.04366441 -0.02771011 0.01322890
v 0.04497884 -0.02249557 0.11450146
v 0.04485420 -0.02249557 0.11455536
v 0.04404968 -0.02365312 0.11463083
v 0.04361280 -0.02501738 0.11450146
v 0.04215735 -0.02754237 0.11447989
v 0.04059489 -0.03003317 0.11438286
v 0.04037834 -0.03061671 0.11414566
v 0.04308274 -0.02824040 0.00484073
v 0.04137801 -0.03061671 0.00484073
v 0.03372688 -0.03061671 0.10993001
v 0.03967958 -0.02249557 0.11083567
v 0.04171669 -0.03061671 0.01461974
v 0.04168647 -0.03061671 0.01322890
v 0.04191562 -0.02995208 0.00484073
v 0.04192191 -0.02994333 0.00484073
v 0.04399302 -0.02249557 0.11484647
v 0.04258542 -0.02501738 0.11485726
v 0.04260683 -0.02636256 0.11458770
v 0.04131506 -0.02792636 0.11468474
v 0.03975387 -0.03061671 0.11456614
v 0.04089832 -0.02919998 0.11451224
v 0.04142334 -0.03061671 0.00485151
v 0.03372814 -0.03061671 0.11083567
v 0.03973120 -0.02249557 0.11222651
v 0.04371351 -0.02249557 0.11491116
v 0.04119042 -0.02641185 0.11496507
v 0.03979793 -0.02919998 0.11486804
v 0.03971861 -0.03061671 0.11457692
v 0.03381250 -0.03061671 0.11222651
v 0.03385404 -0.03061671 0.11243137
v 0.04010639 -0.02249557 0.11332625
v 0.04258542 -0.02249557 0.11495428
v 0.04258542 -0.02362291 0.11497585
v 0.03979793 -0.02780552 0.11498663
v 0.03840418 -0.03061671 0.11494350
v 0.03433625 -0.03061671 0.11350954
v 0.04018571 -0.02249557 0.11355266
v 0.03840292 -0.02919998 0.11497585
v 0.04231851 -0.02249557 0.11492194
v 0.03698651 -0.03061671 0.11494350
v 0.03436269 -0.03061671 0.11355266
v 0.04059364 -0.02249557 0.11416723
v 0.04119923 -0.02249557 0.11456614
v 0.03561543 -0.03061671 0.11458770
v 0.03495318 -0.03061671 0.11423191
v 0.04047907 -0.02290103 0.11432895
v 0.04101289 -0.02249557 0.11447989
v 0.04109599 -0.02249557 0.11452302
f 1 2 3
f 1 3 10
f 1 10 4
f 1 4 12
f 1 12 23
f 1 23 36
f 1 36 56
f 1 56 74
f 1 74 91
f 1 91 104
f 1 104 111
f 1 111 117
f 1 117 122
f 1 122 127
f 1 127 128
f 1 128 123
f 1 123 119
f 1 119 112
f 1 112 105
f 1 105 96
f 1 96 82
f 1 82 81
f 1 81 62
f 1 62 43
f 1 43 42
f 1 42 37
f 1 37 25
f 1 25 24
f 1 24 13
f 1 13 5
f 1 5 2
f 2 5 6
f 2 6 3
f 3 6 7
f 3 7 8
f 3 8 9
f 3 9 19
f 3 19 10
f 4 10 11
f 4 11 12
f 5 13 14
f 5 14 6
f 6 14 7
f 7 14 15
f 7 15 16
f 7 16 8
f 8 17 18
f 8 18 9
f 8 16 17
f 9 18 33
f 9 33 19
f 10 19 20
f 10 20 11
f 11 20 21
f 11 21 22
f 11 22 12
f 12 22 23
f 13 24 14
f 14 24 25
f 14 25 26
f 14 26 15
f 15 27 28
f 15 28 16
f 15 26 29
f 15 29 30
f 15 30 31
f 15 31 27
f 16 28 32
f 16 32 17
f 17 32 18
f 18 32 50
f 18 50 33
f 19 33 20
f 20 33 34
f 20 34 35
f 20 35 21
f 21 35 52
f 21 52 71
f 21 71 88
f 21 88 95
f 21 95 94
f 21 94 89
f 21 89 72
f 21 72 53
f 21 53 36
f 21 36 23
f 21 23 22
f 25 37 29
f 25 29 26
f 27 31 38
f 27 38 28
f 28 38 39
f 28 39 40
f 28 40 41
f 28 41 32
f 29 37 42
f 29 42 30
f 30 42 43
f 30 43 44
f 30 44 45
f 30 45 46
f 30 46 31
f 31 46 47
f 31 47 48
f 31 48 49
f 31 49 38
f 32 41 61
f 32 61 50
f 33 50 34
f 34 50 51
f 34 51 35
f 35 51 52
f 36 53 54
f 36 54 55
f 36 55 56
f 38 57 58
f 38 58 39
f 38 49 57
f 39 58 59
f 39 59 40
f 40 59 78
f 40 78 60
f 40 60 61
f 40 61 41
f 43 62 45
f 43 45 44
f 45 62 63
f 45 63 64
f 45 64 46
f 46 64 65
f 46 65 47
f 47 65 48
f 48 66 49
f 48 65 67
f 48 67 66
f 49 66 68
f 49 68 69
f 49 69 58
f 49 58 57
f 50 61 51
f 51 61 70
f 51 70 71
f 51 71 52
f 53 72 54
f 54 72 89
f 54 89 102
f 54 102 93
f 54 93 92
f 54 92 77
f 54 77 76
f 54 76 75
f 54 75 69
f 54 69 68
f 54 68 66
f 54 66 67
f 54 67 87
f 54 87 100
f 54 100 108
f 54 108 115
f 54 115 120
f 54 120 124
f 54 124 125
f 54 125 121
f 54 121 116
f 54 116 110
f 54 110 109
f 54 109 103
f 54 103 90
f 54 90 73
f 54 73 55
f 55 73 74
f 55 74 56
f 58 69 75
f 58 75 76
f 58 76 77
f 58 77 59
f 59 77 92
f 59 92 78
f 60 78 79
f 60 79 80
f 60 80 61
f 61 80 70
f 62 81 63
f 63 81 82
f 63 82 83
f 63 83 84
f 63 84 64
f 64 84 85
f 64 85 65
f 65 85 86
f 65 86 87
f 65 87 67
f 70 80 71
f 71 80 88
f 73 90 91
f 73 91 74
f 78 92 79
f 79 92 93
f 79 93 94
f 79 94 95
f 79 95 88
f 79 88 80
f 82 96 83
f 83 96 97
f 83 97 98
f 83 98 84
f 84 98 85
f 85 98 99
f 85 99 100
f 85 100 101
f 85 101 86
f 86 101 100
f 86 100 87
f 89 94 102
f 90 103 91
f 91 103 104
f 93 102 94
f 96 105 97
f 97 105 106
f 97 106 107
f 97 107 99
f 97 99 98
f 99 107 100
f 100 107 108
f 103 109 104
f 104 109 110
f 104 110 111
f 105 112 113
f 105 113 106
f 106 113 114
f 106 114 115
f 106 115 107
f 107 115 108
f 110 116 117
f 110 117 111
f 112 118 114
f 112 114 113
f 112 119 120
f 112 120 118
f 114 118 115
f 115 118 120
f 116 121 117
f 117 121 122
f 119 123 124
f 119 124 120
f 121 125 122
f 122 125 126
f 122 126 127
f 123 128 124
f 124 128 127
f 124 127 125
f 125 127 126

