# https://github.com/mikedh/trimesh
v 0.01990234 -0.04453984 0.11496368
v 0.01887988 -0.04453984 0.11497446
v 0.01609101 -0.04593288 0.11498524
v 0.01748544 -0.04593288 0.11493133
v 0.01990234 -0.04491072 0.11492055
v 0.01990234 -0.04351677 0.11488820
v 0.01054351 -0.04729788 0.11497446
v 0.01054351 -0.04732773 0.11497446
v 0.01190863 -0.04732773 0.11497446
v 0.01330306 -0.04732773 0.11493133
v 0.01469749 -0.04732773 0.11482351
v 0.01887988 -0.04593288 0.11478039
v 0.01990234 -0.04594555 0.11459710
v 0.01330306 -0.04593288 0.11490977
v 0.01990234 -0.04313142 0.11479117
v 0.01190863 -0.04593288 0.11479117
v 0.01054351 -0.04638245 0.11473726
v 0.01054351 -0.04792023 0.11484507
v 0.01054351 -0.04883475 0.11464022
v 0.01330306 -0.04840237 0.11456476
v 0.01469749 -0.04822507 0.11446772
v 0.01748544 -0.04703103 0.11456476
v 0.01887988 -0.04679313 0.11443538
v 0.01990234 -0.04611922 0.11453241
v 0.01054351 -0.04585690 0.11459710
v 0.01990234 -0.04241048 0.11453241
v 0.01054351 -0.04886279 0.11462944
v 0.01054351 -0.04945710 0.11434912
v 0.01054351 -0.04891254 0.11460788
v 0.01110513 -0.04938111 0.11428443
v 0.01557245 -0.04808757 0.11437069
v 0.01962382 -0.04665111 0.11433834
v 0.01990234 -0.04628747 0.11444616
v 0.01990234 -0.04223861 0.11445694
v 0.01105657 -0.04519837 0.11434912
v 0.01054351 -0.04527526 0.11427365
v 0.01054351 -0.04978274 0.11381005
v 0.01190863 -0.04926623 0.11414427
v 0.01190863 -0.04970857 0.11344347
v 0.01330306 -0.04909888 0.11384239
v 0.01459763 -0.04893425 0.11350816
v 0.01605894 -0.04836437 0.11368067
v 0.01650238 -0.04789852 0.11418740
v 0.01748544 -0.04772846 0.11389630
v 0.01748544 -0.04817622 0.11319550
v 0.01876994 -0.04749598 0.11350816
v 0.01990234 -0.04677052 0.11395021
v 0.01990234 -0.04658327 0.11424131
v 0.01990234 -0.04179356 0.11392864
v 0.01938011 -0.04235440 0.11439225
v 0.01990234 -0.04159908 0.11364832
v 0.01056092 -0.04491886 0.11370223
v 0.01054351 -0.04492519 0.11370223
v 0.01054351 -0.04982707 0.11373457
v 0.01330306 -0.04953398 0.11315237
v 0.01054351 -0.05026849 0.11224672
v 0.01054351 -0.05027483 0.11222515
v 0.01190863 -0.05004326 0.11222515
v 0.01406624 -0.04943719 0.11295830
v 0.01823213 -0.04804234 0.11295830
v 0.01990234 -0.04699575 0.11357285
v 0.01054351 -0.04491976 0.11369145
v 0.01990234 -0.04114498 0.11239766
v 0.01190863 -0.05008848 0.11083433
v 0.01054351 -0.05027392 0.00485150
v 0.01190863 -0.05008848 0.00484072
v 0.01330306 -0.04977731 0.11083433
v 0.01330306 -0.04971309 0.11222515
v 0.01421466 -0.04947881 0.11222515
v 0.01748544 -0.04839332 0.11222515
v 0.01834941 -0.04808396 0.11222515
v 0.01990234 -0.04742090 0.11222515
v 0.01054351 -0.04475784 0.11317393
v 0.01990234 -0.04110247 0.11222515
v 0.01054351 -0.04446295 0.11222515
v 0.01328565 -0.04978184 0.00484072
v 0.01054351 -0.04889717 0.00484072
v 0.01189122 -0.05009030 0.00484072
v 0.01433010 -0.04951137 0.11083433
v 0.01748544 -0.04845935 0.11083433
v 0.01844194 -0.04811742 0.11083433
v 0.01990234 -0.04743628 0.11177233
v 0.01990234 -0.04103463 0.11083433
v 0.01054351 -0.04443491 0.11083433
v 0.01433010 -0.04951137 0.00484072
v 0.01054351 -0.04445572 0.00484072
v 0.01748544 -0.04845935 0.00484072
v 0.01843003 -0.04812195 0.00484072
v 0.01990234 -0.04746342 0.11083433
v 0.01844194 -0.04811742 0.00484072
v 0.01990234 -0.04103463 0.00486228
v 0.01054351 -0.04443491 0.00623154
v 0.01054443 -0.04444396 0.00484072
v 0.01054351 -0.04444396 0.00485150
v 0.01990234 -0.04746342 0.00484072
v 0.01990234 -0.04105181 0.00484072
v 0.01054351 -0.04443581 0.00486228
f 1 2 3
f 1 3 4
f 1 4 5
f 1 5 13
f 1 13 24
f 1 24 33
f 1 33 48
f 1 48 47
f 1 47 61
f 1 61 72
f 1 72 82
f 1 82 89
f 1 89 95
f 1 95 96
f 1 96 91
f 1 91 83
f 1 83 74
f 1 74 63
f 1 63 51
f 1 51 49
f 1 49 34
f 1 34 26
f 1 26 15
f 1 15 6
f 1 6 2
f 2 7 3
f 2 6 7
f 3 7 8
f 3 8 9
f 3 9 10
f 3 10 4
f 4 10 11
f 4 11 12
f 4 12 5
f 5 12 13
f 6 14 7
f 6 15 16
f 6 16 14
f 7 14 16
f 7 16 17
f 7 17 25
f 7 25 36
f 7 36 53
f 7 53 62
f 7 62 73
f 7 73 75
f 7 75 84
f 7 84 92
f 7 92 97
f 7 97 94
f 7 94 86
f 7 86 77
f 7 77 65
f 7 65 57
f 7 57 56
f 7 56 54
f 7 54 37
f 7 37 28
f 7 28 29
f 7 29 27
f 7 27 19
f 7 19 18
f 7 18 8
f 8 18 9
f 9 18 19
f 9 19 10
f 10 19 11
f 11 19 20
f 11 20 21
f 11 21 22
f 11 22 12
f 12 22 23
f 12 23 24
f 12 24 13
f 15 25 16
f 15 26 25
f 16 25 17
f 19 27 20
f 20 28 21
f 20 27 29
f 20 29 28
f 21 23 22
f 21 28 30
f 21 30 31
f 21 31 23
f 23 31 32
f 23 32 24
f 24 32 33
f 25 26 34
f 25 34 35
f 25 35 36
f 28 37 30
f 30 38 31
f 30 37 39
f 30 39 38
f 31 38 40
f 31 40 41
f 31 41 42
f 31 42 43
f 31 43 32
f 32 43 44
f 32 44 45
f 32 45 46
f 32 46 47
f 32 47 48
f 32 48 33
f 34 49 50
f 34 50 36
f 34 36 35
f 36 50 49
f 36 49 51
f 36 51 52
f 36 52 53
f 37 54 39
f 38 39 40
f 39 55 40
f 39 54 56
f 39 56 57
f 39 57 58
f 39 58 55
f 40 55 59
f 40 59 41
f 41 59 42
f 42 59 45
f 42 45 43
f 43 45 44
f 45 59 60
f 45 60 46
f 46 60 61
f 46 61 47
f 51 62 52
f 51 63 62
f 52 62 53
f 55 58 59
f 57 64 58
f 57 65 66
f 57 66 64
f 58 64 67
f 58 67 68
f 58 68 59
f 59 68 69
f 59 69 70
f 59 70 60
f 60 70 71
f 60 71 72
f 60 72 61
f 62 63 73
f 63 74 75
f 63 75 73
f 64 66 76
f 64 76 67
f 65 77 78
f 65 78 66
f 66 78 77
f 66 77 86
f 66 86 93
f 66 93 96
f 66 96 95
f 66 95 90
f 66 90 88
f 66 88 87
f 66 87 85
f 66 85 76
f 67 79 69
f 67 69 68
f 67 76 79
f 69 79 70
f 70 79 80
f 70 80 81
f 70 81 71
f 71 81 72
f 72 81 82
f 74 83 75
f 75 83 84
f 76 85 79
f 79 85 87
f 79 87 80
f 80 87 88
f 80 88 81
f 81 89 82
f 81 88 90
f 81 90 95
f 81 95 89
f 83 91 92
f 83 92 84
f 86 94 93
f 91 96 93
f 91 93 97
f 91 97 92
f 93 94 97

