# https://github.com/mikedh/trimesh
v 0.04135625 -0.03070537 0.00484032
v 0.04070811 -0.03158265 0.00484032
v 0.04135625 -0.03070537 0.00346402
v 0.03365576 -0.03070537 0.00484032
v 0.04070811 -0.03158265 0.00346402
v 0.04017877 -0.03227858 0.00484032
v 0.04132915 -0.03070537 0.00206972
v 0.03414550 -0.03070537 0.00389786
v 0.03338483 -0.03114319 0.00400382
v 0.02006788 -0.04095329 0.00484032
v 0.04069353 -0.03156304 0.00206972
v 0.04017877 -0.03227858 0.00346402
v 0.04016418 -0.03226061 0.00206972
v 0.03947437 -0.03313625 0.00484032
v 0.04099988 -0.03070537 0.00086256
v 0.04061850 -0.03146175 0.00113526
v 0.03690893 -0.03070537 0.00075579
v 0.02027628 -0.04318159 0.00075579
v 0.02056596 -0.04085854 0.00393025
v 0.02006788 -0.04337600 0.00075579
v 0.02006788 -0.04739479 0.00484032
v 0.03948062 -0.03312645 0.00346402
v 0.03946603 -0.03311011 0.00206972
v 0.03886583 -0.03382402 0.00484032
v 0.03886583 -0.03382402 0.00346402
v 0.04093319 -0.03070537 0.00075579
v 0.03933474 -0.03295818 0.00098531
v 0.03962650 -0.03241417 0.00075579
v 0.04006415 -0.03186363 0.00075579
v 0.04049763 -0.03130166 0.00075579
v 0.02006788 -0.04705335 0.00075579
v 0.02142249 -0.04685568 0.00484032
v 0.02006788 -0.04739479 0.00346402
v 0.03885124 -0.03380768 0.00206972
v 0.03816768 -0.03459347 0.00484032
v 0.03816768 -0.03459347 0.00346402
v 0.03815309 -0.03457713 0.00206972
v 0.03751955 -0.03527471 0.00206972
v 0.03799471 -0.03440070 0.00093413
v 0.03820311 -0.03403803 0.00075579
v 0.03925763 -0.03287160 0.00075579
v 0.02006788 -0.04733924 0.00188179
v 0.02048468 -0.04690306 0.00075579
v 0.02124952 -0.04675930 0.00110127
v 0.02143708 -0.04684914 0.00484032
v 0.02143708 -0.04684914 0.00346402
v 0.02006788 -0.04738662 0.00206972
v 0.03753205 -0.03529104 0.00484032
v 0.03753205 -0.03529104 0.00346402
v 0.03682348 -0.03601965 0.00206972
v 0.03615243 -0.03671722 0.00206972
v 0.03658799 -0.03577133 0.00075579
v 0.03768836 -0.03460164 0.00075579
v 0.02104737 -0.04665801 0.00075579
v 0.02141207 -0.04683608 0.00206972
v 0.02388582 -0.04530044 0.00075579
v 0.02404837 -0.04539029 0.00105849
v 0.02421509 -0.04548014 0.00206972
v 0.02423802 -0.04549158 0.00484032
v 0.02423802 -0.04549158 0.00346402
v 0.03683599 -0.03603435 0.00484032
v 0.03683599 -0.03603435 0.00346402
v 0.03616909 -0.03673192 0.00346402
v 0.03589192 -0.03646891 0.00075579
v 0.03545427 -0.03735925 0.00206972
v 0.03382248 -0.03853711 0.00095372
v 0.02648044 -0.04379748 0.00075579
v 0.02669301 -0.04392491 0.00119404
v 0.02678471 -0.04398045 0.00206972
v 0.02680555 -0.04399352 0.00346402
v 0.02680555 -0.04399352 0.00484032
v 0.03616909 -0.03673192 0.00484032
v 0.03546053 -0.03738375 0.00484032
v 0.03547094 -0.03737395 0.00346402
v 0.03585232 -0.03650648 0.00075579
v 0.03398920 -0.03868904 0.00206972
v 0.03237199 -0.03985547 0.00102410
v 0.03340776 -0.03877236 0.00075579
v 0.03374745 -0.03846850 0.00075579
v 0.03404338 -0.03819895 0.00075579
v 0.03519585 -0.03712400 0.00075579
v 0.02714316 -0.04339233 0.00075579
v 0.02857489 -0.04286630 0.00206972
v 0.02748077 -0.04356223 0.00206972
v 0.02826853 -0.04266209 0.00075579
v 0.03083815 -0.04112972 0.00121563
v 0.02750370 -0.04357530 0.00346402
v 0.02681388 -0.04398862 0.00484032
v 0.03401421 -0.03869558 0.00484032
v 0.03470194 -0.03807152 0.00346402
v 0.03400379 -0.03870374 0.00346402
v 0.03322644 -0.03939805 0.00346402
v 0.03320977 -0.03938335 0.00206972
v 0.03168218 -0.04021324 0.00075579
v 0.03226571 -0.03976889 0.00075579
v 0.03266584 -0.03942092 0.00075579
v 0.03251162 -0.03996819 0.00206972
v 0.02859364 -0.04287773 0.00346402
v 0.03090900 -0.04118363 0.00206972
v 0.03092776 -0.04119670 0.00346402
v 0.03006497 -0.04139764 0.00075579
v 0.03064641 -0.04098759 0.00075579
v 0.03131539 -0.04048933 0.00075579
v 0.03160715 -0.04066576 0.00206972
v 0.02750370 -0.04357530 0.00484032
v 0.02857906 -0.04288753 0.00484032
v 0.03322644 -0.03939805 0.00484032
v 0.03252829 -0.03998290 0.00346402
v 0.02859364 -0.04287773 0.00484032
v 0.03162382 -0.04068047 0.00346402
v 0.03092776 -0.04119670 0.00484032
v 0.03252829 -0.03998290 0.00484032
v 0.03251788 -0.03999106 0.00484032
v 0.03162382 -0.04068047 0.00484032
f 1 2 5
f 1 5 3
f 1 3 7
f 1 7 15
f 1 15 26
f 1 26 17
f 1 17 8
f 1 8 4
f 1 4 10
f 1 10 21
f 1 21 32
f 1 32 45
f 1 45 59
f 1 59 71
f 1 71 88
f 1 88 105
f 1 105 106
f 1 106 109
f 1 109 111
f 1 111 114
f 1 114 113
f 1 113 112
f 1 112 107
f 1 107 89
f 1 89 73
f 1 73 72
f 1 72 61
f 1 61 48
f 1 48 35
f 1 35 24
f 1 24 14
f 1 14 6
f 1 6 2
f 2 6 12
f 2 12 5
f 3 5 7
f 4 8 9
f 4 9 10
f 5 11 7
f 5 12 13
f 5 13 11
f 6 14 12
f 7 11 16
f 7 16 15
f 8 17 9
f 9 17 18
f 9 18 19
f 9 19 10
f 10 19 20
f 10 20 31
f 10 31 42
f 10 42 47
f 10 47 33
f 10 33 21
f 11 13 16
f 12 14 22
f 12 22 23
f 12 23 13
f 13 23 16
f 14 24 25
f 14 25 22
f 15 16 26
f 16 23 27
f 16 27 28
f 16 28 29
f 16 29 30
f 16 30 26
f 17 26 30
f 17 30 29
f 17 29 28
f 17 28 41
f 17 41 40
f 17 40 53
f 17 53 52
f 17 52 64
f 17 64 75
f 17 75 81
f 17 81 80
f 17 80 79
f 17 79 78
f 17 78 96
f 17 96 95
f 17 95 94
f 17 94 103
f 17 103 102
f 17 102 101
f 17 101 85
f 17 85 82
f 17 82 67
f 17 67 56
f 17 56 54
f 17 54 43
f 17 43 31
f 17 31 20
f 17 20 18
f 18 20 19
f 21 33 32
f 22 25 34
f 22 34 23
f 23 34 27
f 24 35 36
f 24 36 25
f 25 36 37
f 25 37 34
f 27 34 37
f 27 37 38
f 27 38 39
f 27 39 40
f 27 40 41
f 27 41 28
f 31 43 44
f 31 44 42
f 32 33 46
f 32 46 45
f 33 47 46
f 35 48 49
f 35 49 36
f 36 49 38
f 36 38 37
f 38 49 50
f 38 50 39
f 39 50 51
f 39 51 52
f 39 52 53
f 39 53 40
f 42 44 47
f 43 54 44
f 44 55 47
f 44 54 56
f 44 56 57
f 44 57 58
f 44 58 55
f 45 46 60
f 45 60 59
f 46 47 55
f 46 55 58
f 46 58 60
f 48 61 62
f 48 62 49
f 49 62 50
f 50 62 63
f 50 63 51
f 51 64 52
f 51 63 74
f 51 74 65
f 51 65 66
f 51 66 64
f 56 67 57
f 57 67 68
f 57 68 58
f 58 68 69
f 58 69 70
f 58 70 60
f 59 60 70
f 59 70 71
f 61 72 63
f 61 63 62
f 63 72 73
f 63 73 74
f 64 66 75
f 65 74 76
f 65 76 66
f 66 76 77
f 66 77 78
f 66 78 79
f 66 79 80
f 66 80 81
f 66 81 75
f 67 82 68
f 68 83 84
f 68 84 69
f 68 82 85
f 68 85 86
f 68 86 83
f 69 84 87
f 69 87 70
f 70 87 88
f 70 88 71
f 73 89 90
f 73 90 74
f 74 90 76
f 76 90 91
f 76 91 92
f 76 92 93
f 76 93 77
f 77 94 95
f 77 95 96
f 77 96 78
f 77 93 97
f 77 97 86
f 77 86 94
f 83 98 87
f 83 87 84
f 83 86 99
f 83 99 100
f 83 100 98
f 85 101 86
f 86 102 103
f 86 103 94
f 86 97 104
f 86 104 99
f 86 101 102
f 87 105 88
f 87 98 106
f 87 106 105
f 89 107 92
f 89 92 91
f 89 91 90
f 92 107 112
f 92 112 108
f 92 108 97
f 92 97 93
f 97 108 110
f 97 110 104
f 98 109 106
f 98 100 111
f 98 111 109
f 99 104 110
f 99 110 100
f 100 110 114
f 100 114 111
f 108 112 113
f 108 113 110
f 110 113 114

