# https://github.com/mikedh/trimesh
v 0.04362555 -0.01350312 0.00484072
v 0.04474360 -0.01350312 0.00484072
v 0.04361700 -0.01350312 0.00486229
v 0.04528958 0.00565133 0.00484072
v 0.04535559 -0.01246607 0.00484072
v 0.04509889 -0.01350312 0.00485150
v 0.04528306 0.00565133 0.00486229
v 0.04361700 -0.01350312 0.11083226
v 0.04674091 0.00565133 0.00484072
v 0.04616519 -0.00939056 0.00484072
v 0.04510337 -0.01350312 0.00486229
v 0.04528306 0.00565133 0.11083226
v 0.04364185 -0.01350312 0.11230931
v 0.04684359 0.00428797 0.00484072
v 0.04674662 0.00565133 0.00486229
v 0.04636035 -0.00828225 0.00484072
v 0.04636321 -0.00828225 0.00486229
v 0.04616600 -0.00939431 0.00486229
v 0.04777909 -0.01350312 0.11260040
v 0.04531362 0.00565133 0.11221227
v 0.04378609 -0.01350312 0.11275134
v 0.04577403 0.00565133 0.11370010
v 0.04531402 0.00565133 0.11222305
v 0.04684440 0.00426547 0.00484072
v 0.04685052 0.00426547 0.00486229
v 0.04777909 0.00565133 0.11330119
v 0.04656571 -0.00688889 0.00484072
v 0.04656978 -0.00688889 0.00486229
v 0.04777909 0.00008165 0.11272978
v 0.04777909 -0.01350312 0.11472433
v 0.04676250 -0.00549366 0.00486229
v 0.04685377 -0.00409843 0.00486229
v 0.04687456 -0.00131171 0.00486229
v 0.04688148 0.00008165 0.00486229
v 0.04409412 -0.01350312 0.11363541
v 0.04429133 -0.01350312 0.11394807
v 0.04586775 0.00565133 0.11384026
v 0.04686600 0.00149938 0.00484072
v 0.04687252 0.00147688 0.00486229
v 0.04777909 0.00565133 0.11487527
v 0.04777909 0.00391104 0.11306400
v 0.04675680 -0.00549366 0.00484072
v 0.04777909 0.00147688 0.11279447
v 0.04777909 -0.01145528 0.11489683
v 0.04719603 -0.01350312 0.11488605
v 0.04684726 -0.00409843 0.00484072
v 0.04686804 -0.00131171 0.00484072
v 0.04687456 0.00008165 0.00484072
v 0.04687456 0.00010603 0.00484072
v 0.04777909 0.00287024 0.11293462
v 0.04458958 -0.01350312 0.11437933
v 0.04614970 0.00534940 0.11423917
v 0.04654452 0.00565133 0.11449792
v 0.04669243 0.00565133 0.11458417
v 0.04573085 -0.01350312 0.11483214
v 0.04676903 -0.01246607 0.11498308
v 0.04777909 -0.00866669 0.11495074
v 0.04777909 -0.01006192 0.11495074
v 0.04676903 -0.01350312 0.11497230
v 0.04474400 -0.01350312 0.11446558
v 0.04535681 -0.01350312 0.11472433
f 1 2 6
f 1 6 11
f 1 11 19
f 1 19 30
f 1 30 45
f 1 45 59
f 1 59 55
f 1 55 61
f 1 61 60
f 1 60 51
f 1 51 36
f 1 36 35
f 1 35 21
f 1 21 13
f 1 13 8
f 1 8 3
f 1 3 4
f 1 4 9
f 1 9 14
f 1 14 24
f 1 24 38
f 1 38 49
f 1 49 48
f 1 48 47
f 1 47 46
f 1 46 42
f 1 42 27
f 1 27 16
f 1 16 10
f 1 10 5
f 1 5 2
f 2 5 6
f 3 7 4
f 3 8 12
f 3 12 7
f 4 7 12
f 4 12 20
f 4 20 23
f 4 23 22
f 4 22 37
f 4 37 53
f 4 53 54
f 4 54 40
f 4 40 26
f 4 26 15
f 4 15 9
f 5 10 6
f 6 10 11
f 8 13 12
f 9 15 14
f 10 16 17
f 10 17 18
f 10 18 11
f 11 18 19
f 12 13 20
f 13 21 22
f 13 22 23
f 13 23 20
f 14 15 25
f 14 25 24
f 15 26 25
f 16 27 28
f 16 28 17
f 17 28 19
f 17 19 18
f 19 29 43
f 19 43 50
f 19 50 41
f 19 41 26
f 19 26 40
f 19 40 57
f 19 57 58
f 19 58 44
f 19 44 30
f 19 28 31
f 19 31 32
f 19 32 33
f 19 33 34
f 19 34 29
f 21 35 22
f 22 35 36
f 22 36 37
f 24 25 39
f 24 39 38
f 25 26 39
f 26 41 34
f 26 34 39
f 27 42 31
f 27 31 28
f 29 34 43
f 30 44 45
f 31 42 32
f 32 42 46
f 32 46 47
f 32 47 33
f 33 47 34
f 34 47 48
f 34 48 49
f 34 49 38
f 34 38 39
f 34 41 50
f 34 50 43
f 36 51 37
f 37 51 52
f 37 52 53
f 40 54 55
f 40 55 56
f 40 56 57
f 44 58 59
f 44 59 45
f 51 60 54
f 51 54 53
f 51 53 52
f 54 60 61
f 54 61 55
f 55 59 56
f 56 59 58
f 56 58 57

