# https://github.com/mikedh/trimesh
v -0.01261756 0.04839255 0.08707334
v -0.01261756 0.04839255 0.09868097
v -0.01261756 0.04982658 0.08707334
v 0.00747243 0.04933935 0.08707334
v -0.01261756 0.04982658 0.09868097
v 0.00747243 0.04933935 0.09868097
v -0.01188601 0.04997950 0.08707334
v -0.00647218 0.05670230 0.09410224
v -0.00624603 0.05670230 0.09344197
v -0.00591368 0.05670230 0.09278397
v -0.00557151 0.05670230 0.09225097
v -0.00538076 0.05670230 0.09206914
v -0.00467871 0.05670230 0.09168730
v -0.00355779 0.05670230 0.09123954
v -0.00203767 0.05670230 0.09092134
v 0.00747243 0.05084334 0.08707334
v -0.00644071 0.05119961 0.09868097
v -0.00064341 0.05670230 0.09832640
v -0.00119600 0.05670230 0.09825708
v -0.00203767 0.05670230 0.09814912
v -0.00244867 0.05670230 0.09806388
v -0.00335721 0.05670230 0.09782296
v -0.00361285 0.05670230 0.09773431
v -0.00402386 0.05670230 0.09757180
v -0.00408482 0.05670230 0.09754339
v -0.00480457 0.05670230 0.09718200
v -0.00514674 0.05670230 0.09697062
v -0.00578389 0.05670230 0.09649218
v -0.00601201 0.05670230 0.09612284
v -0.00636598 0.05670230 0.09549666
v -0.00645448 0.05670230 0.09494321
v 0.00747243 0.05089458 0.09868097
v -0.00699920 0.05099870 0.08707334
v -0.00621849 0.05113210 0.08707334
v -0.00064341 0.05670230 0.09077701
v 0.00747243 0.05156401 0.08999741
v 0.00709092 0.05099463 0.08707334
v 0.00362394 0.05670230 0.09128045
v 0.00429649 0.05670230 0.09154297
v 0.00473896 0.05670230 0.09173162
v 0.00515586 0.05670230 0.09195436
v 0.00543904 0.05670230 0.09210778
v 0.00599950 0.05670230 0.09282147
v 0.00649310 0.05670230 0.09410224
v -0.00521950 0.05145990 0.09868097
v -0.00117437 0.05184464 0.09868097
v -0.00071027 0.05186742 0.09868097
v 0.00075086 0.05184789 0.09868097
v 0.00161416 0.05182756 0.09868097
v 0.00209596 0.05180397 0.09868097
v 0.00075086 0.05670230 0.09831959
v -0.00382524 0.05163559 0.09868097
v 0.00735837 0.05094583 0.09868097
v 0.00747243 0.05169009 0.09549666
v 0.00635348 0.05670230 0.09549666
v 0.00583628 0.05670230 0.09644104
v 0.00490218 0.05670230 0.09711836
v 0.00410378 0.05670230 0.09753089
v 0.00343319 0.05670230 0.09780591
v 0.00214709 0.05670230 0.09813662
v -0.00482423 0.05131511 0.08707334
v 0.00024349 0.05670230 0.09078610
v 0.00075086 0.05154449 0.08707334
v -0.00058441 0.05155019 0.08707334
v -0.00064341 0.05155019 0.08707334
v -0.00197867 0.05148999 0.08707334
v -0.00342997 0.05141842 0.08707334
v 0.00747243 0.05183000 0.09122590
v 0.00636134 0.05111420 0.08707334
v 0.00214709 0.05670230 0.09094975
v 0.00270558 0.05670230 0.09104634
v 0.00747243 0.05190239 0.09418520
v 0.00747243 0.05204799 0.09270896
v 0.00354135 0.05166162 0.09868097
v 0.00493561 0.05150138 0.09868097
v 0.00632988 0.05123377 0.09868097
v 0.00716172 0.05102391 0.09868097
v 0.00726988 0.05098162 0.09868097
v 0.00075086 0.05670230 0.09079178
v 0.00080985 0.05154205 0.08707334
v 0.00632988 0.05111908 0.08707334
v 0.00147847 0.05670230 0.09086679
v 0.00499264 0.05129478 0.08707334
v 0.00493561 0.05130210 0.08707334
v 0.00359838 0.05140377 0.08707334
v 0.00354135 0.05140784 0.08707334
f 1 2 5
f 1 5 3
f 1 3 7
f 1 7 33
f 1 33 34
f 1 34 61
f 1 61 67
f 1 67 66
f 1 66 65
f 1 65 64
f 1 64 63
f 1 63 80
f 1 80 86
f 1 86 85
f 1 85 84
f 1 84 83
f 1 83 81
f 1 81 69
f 1 69 37
f 1 37 16
f 1 16 4
f 1 4 6
f 1 6 2
f 2 6 32
f 2 32 53
f 2 53 78
f 2 78 77
f 2 77 76
f 2 76 75
f 2 75 74
f 2 74 50
f 2 50 49
f 2 49 48
f 2 48 47
f 2 47 46
f 2 46 52
f 2 52 45
f 2 45 17
f 2 17 5
f 3 5 8
f 3 8 9
f 3 9 10
f 3 10 11
f 3 11 12
f 3 12 13
f 3 13 14
f 3 14 15
f 3 15 7
f 4 16 36
f 4 36 68
f 4 68 73
f 4 73 72
f 4 72 54
f 4 54 32
f 4 32 6
f 5 17 18
f 5 18 19
f 5 19 20
f 5 20 21
f 5 21 22
f 5 22 23
f 5 23 24
f 5 24 25
f 5 25 26
f 5 26 27
f 5 27 28
f 5 28 29
f 5 29 30
f 5 30 31
f 5 31 8
f 7 15 33
f 8 31 30
f 8 30 29
f 8 29 28
f 8 28 27
f 8 27 26
f 8 26 25
f 8 25 24
f 8 24 23
f 8 23 22
f 8 22 21
f 8 21 20
f 8 20 19
f 8 19 18
f 8 18 51
f 8 51 60
f 8 60 59
f 8 59 58
f 8 58 57
f 8 57 56
f 8 56 55
f 8 55 44
f 8 44 43
f 8 43 42
f 8 42 41
f 8 41 40
f 8 40 39
f 8 39 38
f 8 38 71
f 8 71 70
f 8 70 82
f 8 82 79
f 8 79 62
f 8 62 35
f 8 35 15
f 8 15 14
f 8 14 13
f 8 13 12
f 8 12 11
f 8 11 10
f 8 10 9
f 15 34 33
f 15 35 34
f 16 37 38
f 16 38 39
f 16 39 40
f 16 40 41
f 16 41 42
f 16 42 43
f 16 43 44
f 16 44 36
f 17 45 18
f 18 46 47
f 18 47 48
f 18 48 49
f 18 49 50
f 18 50 51
f 18 45 52
f 18 52 46
f 32 54 44
f 32 44 55
f 32 55 56
f 32 56 57
f 32 57 58
f 32 58 59
f 32 59 60
f 32 60 51
f 32 51 53
f 34 35 61
f 35 62 63
f 35 63 64
f 35 64 65
f 35 65 66
f 35 66 67
f 35 67 61
f 36 44 68
f 37 69 70
f 37 70 71
f 37 71 38
f 44 54 72
f 44 72 73
f 44 73 68
f 50 74 51
f 51 74 75
f 51 75 76
f 51 76 77
f 51 77 78
f 51 78 53
f 62 79 63
f 63 79 80
f 69 81 82
f 69 82 70
f 79 82 81
f 79 81 83
f 79 83 84
f 79 84 85
f 79 85 86
f 79 86 80

