# https://github.com/mikedh/trimesh
v -0.02503443 0.04122885 0.11496509
v -0.03720601 0.03045287 0.11495430
v -0.02574186 0.04052059 0.11495430
v -0.02503443 0.04047508 0.11481414
v -0.02503443 0.04191577 0.11495430
v -0.02713732 0.04052059 0.11497587
v -0.02853118 0.03912684 0.11498665
v -0.03550205 0.03355041 0.11497587
v -0.03689591 0.03215524 0.11496509
v -0.03829138 0.03045287 0.11494352
v -0.03688460 0.03045287 0.11488962
v -0.03579278 0.03045287 0.11462007
v -0.02503443 0.03979101 0.11460929
v -0.02503443 0.04275344 0.11478180
v -0.02574186 0.04191577 0.11491118
v -0.03271435 0.03633934 0.11497587
v -0.02992503 0.03912684 0.11490040
v -0.03132050 0.03773167 0.11495430
v -0.03558120 0.03502238 0.11466320
v -0.03695244 0.03360303 0.11465242
v -0.03829138 0.03076148 0.11494352
v -0.03859987 0.03045287 0.11492196
v -0.03564257 0.03045287 0.11455538
v -0.02503443 0.03945821 0.11449069
v -0.02503443 0.04326543 0.11462007
v -0.02715994 0.04197408 0.11463085
v -0.02853118 0.04052059 0.11480336
v -0.03416958 0.03640476 0.11466320
v -0.03129304 0.03913822 0.11459851
v -0.03274988 0.03777433 0.11464164
v -0.03516934 0.03598379 0.11449069
v -0.03652604 0.03460995 0.11447991
v -0.03832530 0.03217515 0.11463085
v -0.03788275 0.03317211 0.11446913
v -0.03967554 0.03045287 0.11462007
v -0.03496260 0.03045287 0.11412411
v -0.02503443 0.03915813 0.11423193
v -0.02574186 0.04306064 0.11454460
v -0.02503443 0.04393955 0.11429662
v -0.02671255 0.04277620 0.11442600
v -0.02853118 0.04147915 0.11445835
v -0.02980228 0.04046513 0.11450147
v -0.03374642 0.03734056 0.11447991
v -0.03081012 0.03996309 0.11440444
v -0.03230895 0.03868027 0.11445835
v -0.03609804 0.03554006 0.11423193
v -0.03967393 0.03069748 0.11456617
v -0.03920069 0.03172431 0.11444756
v -0.03881145 0.03265443 0.11413490
v -0.03987582 0.03045287 0.11455538
v -0.03479140 0.03045287 0.11393004
v -0.02503443 0.03883387 0.11386536
v -0.02503443 0.04396658 0.11427506
v -0.02764124 0.04247754 0.11417802
v -0.02925475 0.04123738 0.11432897
v -0.03467673 0.03691248 0.11419959
v -0.03174043 0.03961039 0.11407020
v -0.03323927 0.03826783 0.11415646
v -0.03559089 0.03642182 0.11374675
v -0.03647759 0.03592974 0.11330471
v -0.03696536 0.03502238 0.11374675
v -0.03745474 0.03410222 0.11417802
v -0.04005994 0.03045287 0.11447991
v -0.04037812 0.03045287 0.11427506
v -0.03832045 0.03358312 0.11369285
v -0.03917485 0.03306402 0.11319689
v -0.03965293 0.03211257 0.11359581
v -0.04013100 0.03111846 0.11399473
v -0.03451845 0.03045287 0.11359581
v -0.02503443 0.03865609 0.11360659
v -0.02503443 0.04427519 0.11382223
v -0.02574186 0.04423537 0.11327236
v -0.02705011 0.04325832 0.11356346
v -0.02814032 0.04281175 0.11325080
v -0.03063568 0.04122743 0.11293813
v -0.03508212 0.03728794 0.11327236
v -0.03270951 0.03912400 0.11364972
v -0.03218136 0.03995314 0.11313220
v -0.03363982 0.03863760 0.11321845
v -0.03782784 0.03450613 0.11325080
v -0.03596398 0.03681577 0.11222654
v -0.03665848 0.03611747 0.11222654
v -0.03735460 0.03537935 0.11222654
v -0.04088688 0.03045287 0.11360659
v -0.04046533 0.03157071 0.11306751
v -0.03798773 0.03468248 0.11222654
v -0.03868385 0.03391165 0.11222654
v -0.03930890 0.03321477 0.11222654
v -0.03437147 0.03045287 0.11339096
v -0.02503443 0.03833183 0.11311064
v -0.02503443 0.04449990 0.11348800
v -0.02646059 0.04401920 0.11294891
v -0.02834867 0.04294686 0.11222654
v -0.03069383 0.04127151 0.11222654
v -0.03139156 0.04075383 0.11222654
v -0.03231218 0.04005696 0.11222654
v -0.03300992 0.03947955 0.11222654
v -0.03379971 0.03878267 0.11222654
v -0.03526625 0.03745576 0.11222654
v -0.03601082 0.03685844 0.11083570
v -0.03670048 0.03616156 0.11083570
v -0.03739660 0.03542486 0.11083570
v -0.04108716 0.03045287 0.11321845
v -0.04000664 0.03237710 0.11222654
v -0.04054609 0.03167880 0.11222654
v -0.04143441 0.03045287 0.11229123
v -0.03802973 0.03472799 0.11083570
v -0.03872584 0.03395858 0.11083570
v -0.03935090 0.03326170 0.11083570
v -0.04004863 0.03242830 0.11083570
v -0.03397899 0.03045287 0.11236670
v -0.02503443 0.03827068 0.11294891
v -0.02503443 0.04482558 0.11260390
v -0.02503443 0.04492656 0.11222654
v -0.02653165 0.04406186 0.11222654
v -0.02722777 0.04364374 0.11222654
v -0.02728915 0.04368071 0.11083570
v -0.02840358 0.04298241 0.11083570
v -0.03074713 0.04130991 0.11083570
v -0.03144325 0.04079365 0.11083570
v -0.03236225 0.04009536 0.11083570
v -0.03305837 0.03952221 0.11083570
v -0.03384655 0.03882533 0.11083570
v -0.03531309 0.03749700 0.11083570
v -0.03532278 0.03748847 0.00484083
v -0.03601082 0.03685844 0.00484083
v -0.03670048 0.03616156 0.00484083
v -0.03670855 0.03615303 0.00484083
v -0.03739660 0.03542486 0.00484083
v -0.04058485 0.03173142 0.11083570
v -0.04152647 0.03045287 0.11123462
v -0.04147317 0.03045287 0.11200012
v -0.04145056 0.03045287 0.11217263
v -0.03802973 0.03472799 0.00484083
v -0.03872584 0.03395858 0.00484083
v -0.03935090 0.03326170 0.00484083
v -0.04004863 0.03242830 0.00484083
v -0.04057839 0.03173996 0.00484083
v -0.03394346 0.03045287 0.11222654
v -0.02503443 0.03813842 0.11222654
v -0.02503443 0.04496353 0.11127775
v -0.02659141 0.04409884 0.11083570
v -0.02660110 0.04409315 0.00484083
v -0.02728915 0.04368071 0.00484083
v -0.02838905 0.04299237 0.00484083
v -0.02841327 0.04297673 0.00484083
v -0.03075520 0.04130422 0.00484083
v -0.03144325 0.04079365 0.00484083
v -0.03235095 0.04010531 0.00484083
v -0.03305837 0.03952221 0.00484083
v -0.03384655 0.03882533 0.00484083
v -0.04153455 0.03045287 0.11083570
v -0.04058485 0.03173142 0.00484083
v -0.03385947 0.03045287 0.11083570
v -0.02503443 0.03805735 0.11083570
v -0.02503443 0.03811850 0.11189230
v -0.02503443 0.04498060 0.11083570
v -0.02659141 0.04409884 0.00484083
v -0.04153455 0.03045287 0.00484083
v -0.03385947 0.03045287 0.00495943
v -0.02503443 0.03805735 0.00585431
v -0.02503443 0.04498060 0.00485161
v -0.02574186 0.04456674 0.00484083
v -0.03387078 0.03045287 0.00484083
v -0.03386109 0.03045287 0.00486239
v -0.02503443 0.03806162 0.00486239
v -0.02503443 0.04407039 0.00484083
v -0.02572893 0.04457385 0.00484083
v -0.02503443 0.03806730 0.00484083
f 1 2 3
f 1 3 4
f 1 4 13
f 1 13 24
f 1 24 37
f 1 37 52
f 1 52 70
f 1 70 90
f 1 90 112
f 1 112 140
f 1 140 156
f 1 156 155
f 1 155 161
f 1 161 166
f 1 166 169
f 1 169 167
f 1 167 162
f 1 162 157
f 1 157 141
f 1 141 114
f 1 114 113
f 1 113 91
f 1 91 71
f 1 71 53
f 1 53 39
f 1 39 25
f 1 25 14
f 1 14 5
f 1 5 6
f 1 6 7
f 1 7 2
f 2 7 8
f 2 8 9
f 2 9 10
f 2 10 22
f 2 22 35
f 2 35 50
f 2 50 63
f 2 63 64
f 2 64 84
f 2 84 103
f 2 103 106
f 2 106 133
f 2 133 132
f 2 132 131
f 2 131 152
f 2 152 159
f 2 159 164
f 2 164 165
f 2 165 160
f 2 160 154
f 2 154 139
f 2 139 111
f 2 111 89
f 2 89 69
f 2 69 51
f 2 51 36
f 2 36 23
f 2 23 12
f 2 12 11
f 2 11 4
f 2 4 3
f 4 11 12
f 4 12 13
f 5 14 15
f 5 15 6
f 6 16 7
f 6 15 17
f 6 17 18
f 6 18 16
f 7 16 8
f 8 16 19
f 8 19 9
f 9 19 20
f 9 20 21
f 9 21 10
f 10 21 22
f 12 23 24
f 12 24 13
f 14 25 26
f 14 26 15
f 15 26 27
f 15 27 17
f 16 18 28
f 16 28 19
f 17 27 29
f 17 29 30
f 17 30 18
f 18 30 28
f 19 28 31
f 19 31 32
f 19 32 20
f 20 33 21
f 20 32 34
f 20 34 33
f 21 33 35
f 21 35 22
f 23 36 24
f 24 36 37
f 25 38 26
f 25 39 38
f 26 38 40
f 26 40 41
f 26 41 42
f 26 42 29
f 26 29 27
f 28 30 43
f 28 43 31
f 29 42 44
f 29 44 45
f 29 45 30
f 30 45 43
f 31 43 46
f 31 46 32
f 32 46 34
f 33 47 35
f 33 34 48
f 33 48 47
f 34 46 49
f 34 49 48
f 35 47 50
f 36 51 52
f 36 52 37
f 38 39 40
f 39 53 40
f 40 53 54
f 40 54 55
f 40 55 41
f 41 55 44
f 41 44 42
f 43 45 56
f 43 56 46
f 44 55 57
f 44 57 45
f 45 57 58
f 45 58 56
f 46 56 59
f 46 59 60
f 46 60 61
f 46 61 62
f 46 62 49
f 47 48 63
f 47 63 50
f 48 49 64
f 48 64 63
f 49 62 61
f 49 61 65
f 49 65 66
f 49 66 67
f 49 67 68
f 49 68 64
f 51 69 52
f 52 69 70
f 53 71 72
f 53 72 73
f 53 73 54
f 54 73 74
f 54 74 55
f 55 74 75
f 55 75 57
f 56 58 76
f 56 76 59
f 57 77 58
f 57 75 78
f 57 78 77
f 58 77 79
f 58 79 76
f 59 76 60
f 60 80 61
f 60 76 81
f 60 81 82
f 60 82 83
f 60 83 80
f 61 80 65
f 64 68 84
f 65 80 66
f 66 85 67
f 66 80 83
f 66 83 86
f 66 86 87
f 66 87 88
f 66 88 85
f 67 85 68
f 68 85 84
f 69 89 90
f 69 90 70
f 71 91 72
f 72 91 92
f 72 92 73
f 73 92 74
f 74 92 75
f 75 92 93
f 75 93 94
f 75 94 95
f 75 95 96
f 75 96 78
f 76 79 81
f 77 78 79
f 78 96 97
f 78 97 98
f 78 98 79
f 79 98 99
f 79 99 81
f 81 99 100
f 81 100 82
f 82 100 101
f 82 101 102
f 82 102 83
f 83 102 107
f 83 107 86
f 84 85 103
f 85 88 104
f 85 104 105
f 85 105 106
f 85 106 103
f 86 107 108
f 86 108 87
f 87 108 109
f 87 109 88
f 88 109 110
f 88 110 104
f 89 111 112
f 89 112 90
f 91 113 92
f 92 113 114
f 92 114 115
f 92 115 116
f 92 116 93
f 93 116 117
f 93 117 118
f 93 118 119
f 93 119 94
f 94 119 120
f 94 120 95
f 95 120 96
f 96 120 121
f 96 121 122
f 96 122 97
f 97 122 98
f 98 122 123
f 98 123 99
f 99 123 124
f 99 124 100
f 100 124 125
f 100 125 126
f 100 126 127
f 100 127 101
f 101 127 128
f 101 128 102
f 102 128 129
f 102 129 134
f 102 134 107
f 104 110 105
f 105 110 130
f 105 130 131
f 105 131 132
f 105 132 133
f 105 133 106
f 107 134 135
f 107 135 108
f 108 135 136
f 108 136 109
f 109 136 137
f 109 137 110
f 110 137 138
f 110 138 130
f 111 139 112
f 112 139 140
f 114 141 142
f 114 142 115
f 115 142 117
f 115 117 116
f 117 142 143
f 117 143 144
f 117 144 145
f 117 145 118
f 118 145 146
f 118 146 119
f 119 146 147
f 119 147 120
f 120 147 148
f 120 148 149
f 120 149 121
f 121 149 122
f 122 149 150
f 122 150 151
f 122 151 123
f 123 151 125
f 123 125 124
f 125 151 150
f 125 150 149
f 125 149 148
f 125 148 147
f 125 147 146
f 125 146 145
f 125 145 144
f 125 144 143
f 125 143 158
f 125 158 163
f 125 163 168
f 125 168 167
f 125 167 169
f 125 169 164
f 125 164 159
f 125 159 153
f 125 153 138
f 125 138 137
f 125 137 136
f 125 136 135
f 125 135 134
f 125 134 129
f 125 129 128
f 125 128 127
f 125 127 126
f 130 152 131
f 130 138 153
f 130 153 159
f 130 159 152
f 139 154 155
f 139 155 156
f 139 156 140
f 141 157 142
f 142 157 162
f 142 162 158
f 142 158 143
f 154 160 161
f 154 161 155
f 158 162 163
f 160 165 166
f 160 166 161
f 162 167 168
f 162 168 163
f 164 169 165
f 165 169 166

