# https://github.com/mikedh/trimesh
v 0.00950724 -0.04300619 0.05646918
v 0.01081720 -0.04291514 0.05646918
v 0.00943829 -0.04299861 0.05646918
v 0.00914968 -0.04275768 0.05481036
v 0.00955053 -0.04269319 0.05403742
v 0.01001231 -0.04279563 0.05452095
v 0.01020151 -0.04279563 0.05452095
v 0.01041155 -0.04284495 0.05525506
v 0.01095029 -0.04288289 0.05646918
v 0.00868470 -0.04286202 0.05646918
v 0.00879213 -0.04281270 0.05567153
v 0.00950564 -0.04233845 0.05137272
v 0.00950564 -0.04250918 0.05266448
v 0.00869753 -0.04154930 0.04642097
v 0.00950564 -0.04215634 0.05007743
v 0.01079957 -0.04219997 0.05137272
v 0.01131105 -0.04274820 0.05613742
v 0.00950564 -0.04196474 0.04878214
v 0.00950564 -0.04158345 0.04620921
v 0.00950564 -0.04138806 0.04489980
v 0.01037146 -0.04155499 0.04642097
v 0.01138320 -0.04277286 0.05646918
v 0.00108626 -0.04126286 0.05646918
v 0.00108626 -0.04075446 0.05266448
v 0.00108626 -0.03959919 0.04489980
v 0.00884023 -0.04020054 0.03775982
v 0.00108626 -0.04066530 0.05201154
v 0.00108626 -0.04057804 0.05137272
v 0.00108626 -0.04038834 0.05007743
v 0.00108626 -0.04014553 0.04846802
v 0.01079957 -0.04200268 0.05007743
v 0.01145214 -0.04149429 0.04811155
v 0.00950564 -0.04118318 0.04360804
v 0.00950564 -0.04096124 0.04231275
v 0.01028328 -0.04024227 0.03882570
v 0.01079957 -0.04093088 0.04360804
v 0.01200211 -0.04236690 0.05646918
v 0.01153552 -0.04154930 0.04878214
v 0.01169265 -0.04165553 0.05007743
v 0.01183375 -0.04175608 0.05137272
v 0.00108626 -0.03677458 0.05646918
v 0.00108626 -0.03949296 0.04424686
v 0.00891880 -0.04020054 0.03775982
v 0.00108626 -0.03938673 0.04360804
v 0.00108626 -0.03915530 0.04231275
v 0.00108626 -0.03885368 0.04063628
v 0.00108626 -0.03857102 0.03906923
v 0.00108626 -0.03845531 0.03843393
v 0.00108626 -0.03832821 0.03777747
v 0.00108626 -0.03820301 0.03713864
v 0.00108626 -0.03806453 0.03648570
v 0.00108626 -0.03792795 0.03584335
v 0.00773389 -0.03886316 0.03277983
v 0.00818445 -0.03905855 0.03322807
v 0.00859652 -0.03895422 0.03237748
v 0.01136075 -0.04015501 0.04055510
v 0.01150826 -0.04024038 0.04141981
v 0.01161890 -0.04032385 0.04231275
v 0.01176962 -0.04044335 0.04360804
v 0.00941104 -0.04027453 0.03841276
v 0.00950564 -0.04050027 0.03972569
v 0.00978142 -0.04016070 0.03796452
v 0.01006842 -0.03888782 0.03266336
v 0.01035543 -0.03899216 0.03352807
v 0.01079957 -0.03964852 0.03713864
v 0.01074826 -0.03995204 0.03841276
v 0.01050935 -0.04032574 0.03972569
v 0.01079957 -0.04069376 0.04231275
v 0.01276211 -0.04151326 0.05445389
v 0.01281502 -0.04157206 0.05525506
v 0.01289038 -0.04165933 0.05646918
v 0.01746644 -0.03696428 0.05007743
v 0.01746644 -0.03699652 0.05026449
v 0.01269156 -0.04143548 0.05359272
v 0.01746644 -0.03589437 0.04390098
v 0.01746644 -0.03287626 0.05646918
v 0.01746644 -0.02362843 0.02041281
v 0.00108626 -0.02883757 0.02041281
v 0.00920741 -0.03895422 0.03237748
v 0.00950564 -0.03973009 0.03584335
v 0.00941104 -0.04004878 0.03725158
v 0.00108626 -0.03708379 0.03196101
v 0.00108626 -0.03693772 0.03130807
v 0.00108626 -0.03679354 0.03066925
v 0.00821170 -0.03848566 0.03066925
v 0.00818445 -0.03877211 0.03195395
v 0.00821170 -0.03814800 0.02937396
v 0.00868951 -0.03762632 0.02736926
v 0.01087813 -0.04042249 0.04099981
v 0.01142649 -0.03888972 0.03523983
v 0.01155797 -0.03899785 0.03610453
v 0.01746644 -0.03453043 0.03719511
v 0.01746644 -0.03458924 0.03747747
v 0.01746644 -0.03584505 0.04363274
v 0.00958420 -0.03879297 0.03195395
v 0.00950564 -0.03848756 0.03066925
v 0.00950564 -0.03812334 0.02937396
v 0.01027045 -0.03766806 0.02853043
v 0.01050454 -0.03780274 0.02937396
v 0.01125974 -0.03879487 0.03455159
v 0.01061357 -0.03911736 0.03455159
v 0.01088134 -0.03795450 0.03065160
v 0.01079957 -0.03834528 0.03196101
v 0.01091661 -0.03925963 0.03574100
v 0.01746644 -0.03794881 0.05646918
v 0.01746644 -0.03717863 0.05134802
v 0.01746644 -0.03029825 0.02041281
v 0.00108626 -0.03435971 0.02041281
v 0.00895247 -0.03762632 0.02736926
v 0.00108626 -0.03587730 0.02678691
v 0.00108626 -0.03572175 0.02613044
v 0.00108626 -0.03526267 0.02419633
v 0.00108626 -0.03498571 0.02303515
v 0.00108626 -0.03448870 0.02095280
v 0.00741161 -0.03636483 0.02338104
v 0.00821170 -0.03667024 0.02419633
v 0.00821170 -0.03639897 0.02328221
v 0.01746644 -0.03296162 0.03066925
v 0.01746644 -0.03300336 0.03083160
v 0.01746644 -0.03328980 0.03198572
v 0.01136556 -0.03754475 0.03021043
v 0.01151628 -0.03767564 0.03107513
v 0.01746644 -0.03031911 0.02048339
v 0.01746644 -0.03092615 0.02280221
v 0.01746644 -0.03134918 0.02443633
v 0.00909517 -0.03637621 0.02336339
v 0.00981349 -0.03753147 0.02766926
v 0.00995619 -0.03625480 0.02372339
v 0.01029129 -0.03639518 0.02458456
v 0.01045805 -0.03522284 0.02160928
v 0.01023999 -0.03507297 0.02082222
v 0.01003636 -0.03499140 0.02041281
v 0.00687769 -0.03528923 0.02041281
v 0.00703482 -0.03530820 0.02041281
v 0.00821170 -0.03618841 0.02263633
v 0.00821170 -0.03583557 0.02160928
v 0.00821170 -0.03541633 0.02041281
v 0.00831272 -0.03539926 0.02041281
v 0.00943188 -0.03520007 0.02041281
v 0.00950564 -0.03562310 0.02160928
v 0.00951686 -0.03609925 0.02291868
f 1 2 9
f 1 9 22
f 1 22 37
f 1 37 71
f 1 71 105
f 1 105 76
f 1 76 41
f 1 41 23
f 1 23 10
f 1 10 3
f 1 3 4
f 1 4 5
f 1 5 6
f 1 6 7
f 1 7 8
f 1 8 2
f 2 8 7
f 2 7 9
f 3 10 11
f 3 11 4
f 4 12 13
f 4 13 5
f 4 11 14
f 4 14 12
f 5 13 6
f 6 13 12
f 6 12 15
f 6 15 7
f 7 16 17
f 7 17 9
f 7 15 18
f 7 18 19
f 7 19 20
f 7 20 21
f 7 21 16
f 9 17 22
f 10 23 11
f 11 23 24
f 11 24 14
f 12 14 15
f 14 25 26
f 14 26 20
f 14 20 19
f 14 19 18
f 14 18 15
f 14 24 27
f 14 27 28
f 14 28 29
f 14 29 30
f 14 30 25
f 16 31 32
f 16 32 17
f 16 21 31
f 17 32 22
f 20 33 21
f 20 26 33
f 21 33 34
f 21 34 35
f 21 35 36
f 21 36 32
f 21 32 31
f 22 32 38
f 22 38 39
f 22 39 40
f 22 40 37
f 23 41 78
f 23 78 108
f 23 108 114
f 23 114 113
f 23 113 112
f 23 112 111
f 23 111 110
f 23 110 84
f 23 84 83
f 23 83 82
f 23 82 52
f 23 52 51
f 23 51 50
f 23 50 49
f 23 49 48
f 23 48 47
f 23 47 46
f 23 46 45
f 23 45 44
f 23 44 42
f 23 42 25
f 23 25 30
f 23 30 29
f 23 29 28
f 23 28 27
f 23 27 24
f 25 42 26
f 26 43 33
f 26 42 44
f 26 44 45
f 26 45 46
f 26 46 47
f 26 47 48
f 26 48 49
f 26 49 50
f 26 50 51
f 26 51 52
f 26 52 53
f 26 53 54
f 26 54 55
f 26 55 79
f 26 79 43
f 32 36 56
f 32 56 57
f 32 57 58
f 32 58 59
f 32 59 38
f 33 43 34
f 34 43 60
f 34 60 61
f 34 61 62
f 34 62 35
f 35 62 63
f 35 63 64
f 35 64 65
f 35 65 66
f 35 66 56
f 35 56 67
f 35 67 36
f 36 67 68
f 36 68 56
f 37 69 70
f 37 70 71
f 37 40 69
f 38 59 39
f 39 72 73
f 39 73 74
f 39 74 40
f 39 59 75
f 39 75 72
f 40 74 69
f 41 76 77
f 41 77 78
f 43 62 60
f 43 79 80
f 43 80 81
f 43 81 62
f 52 82 53
f 53 82 83
f 53 83 84
f 53 84 85
f 53 85 86
f 53 86 55
f 53 55 54
f 55 86 85
f 55 85 87
f 55 87 88
f 55 88 109
f 55 109 79
f 56 68 89
f 56 89 67
f 56 66 65
f 56 65 90
f 56 90 91
f 56 91 57
f 57 91 92
f 57 92 93
f 57 93 94
f 57 94 58
f 58 94 59
f 59 94 75
f 60 62 61
f 62 81 80
f 62 80 63
f 63 80 79
f 63 79 95
f 63 95 96
f 63 96 97
f 63 97 98
f 63 98 99
f 63 99 64
f 64 100 90
f 64 90 101
f 64 101 65
f 64 99 102
f 64 102 103
f 64 103 100
f 65 101 104
f 65 104 90
f 67 89 68
f 69 105 70
f 69 74 106
f 69 106 105
f 70 105 71
f 72 75 94
f 72 94 93
f 72 93 92
f 72 92 120
f 72 120 119
f 72 119 118
f 72 118 125
f 72 125 124
f 72 124 123
f 72 123 107
f 72 107 77
f 72 77 76
f 72 76 105
f 72 105 106
f 72 106 73
f 73 106 74
f 77 107 132
f 77 132 139
f 77 139 138
f 77 138 137
f 77 137 134
f 77 134 133
f 77 133 108
f 77 108 78
f 79 109 96
f 79 96 95
f 84 110 85
f 85 110 111
f 85 111 112
f 85 112 113
f 85 113 114
f 85 114 108
f 85 108 87
f 87 108 115
f 87 115 88
f 88 115 116
f 88 116 117
f 88 117 109
f 90 118 119
f 90 119 120
f 90 120 91
f 90 104 101
f 90 100 102
f 90 102 121
f 90 121 122
f 90 122 123
f 90 123 124
f 90 124 125
f 90 125 118
f 91 120 92
f 96 109 97
f 97 109 126
f 97 126 127
f 97 127 98
f 98 127 128
f 98 128 129
f 98 129 99
f 99 121 102
f 99 129 121
f 100 103 102
f 107 129 130
f 107 130 131
f 107 131 132
f 107 123 121
f 107 121 129
f 108 133 115
f 109 117 126
f 115 133 134
f 115 134 135
f 115 135 117
f 115 117 116
f 117 135 126
f 121 123 122
f 126 128 127
f 126 135 136
f 126 136 137
f 126 137 138
f 126 138 139
f 126 139 140
f 126 140 141
f 126 141 128
f 128 141 140
f 128 140 132
f 128 132 131
f 128 131 129
f 129 131 130
f 132 140 139
f 134 137 136
f 134 136 135

