# https://github.com/mikedh/trimesh
v -0.00759137 0.00560142 0.00224492
v 0.01005048 0.00560142 0.00224184
v -0.00759137 0.00560142 0.00707463
v -0.00759137 0.01998382 -0.00067370
v 0.01005048 0.01943803 -0.00057587
v 0.01005048 0.00560142 0.00707463
v 0.01005048 0.01998874 0.00715936
v -0.00759137 0.02003791 0.00715936
v -0.00759137 0.02127701 -0.00069603
v -0.00731853 0.02127701 -0.00070374
v -0.00602336 0.02127701 -0.00070605
v 0.01005048 0.02073121 -0.00070220
v 0.01005048 0.01998382 -0.00068063
v 0.01005048 0.02889599 0.00715936
v -0.00759137 0.02899187 0.00715936
v -0.00759137 0.02257019 -0.00046572
v -0.00731853 0.02257019 -0.00050115
v -0.00602336 0.02257019 -0.00059898
v -0.00472993 0.02257019 -0.00067370
v -0.00343476 0.02257019 -0.00070451
v -0.00214133 0.02257019 -0.00070682
v 0.00173898 0.02257019 -0.00070913
v 0.00821135 0.02127701 -0.00070605
v 0.00950478 0.02127701 -0.00070374
v 0.01005048 0.02127701 -0.00068756
v 0.01005048 0.02852229 0.00652156
v 0.00950478 0.02862309 0.00636905
v 0.00944089 0.02910251 0.00715936
v -0.00736170 0.02906809 0.00715936
v -0.00731853 0.02862063 0.00637675
v -0.00759137 0.02864768 0.00657703
v -0.00759137 0.02356344 0.00000108
v -0.00731853 0.02360769 -0.00002665
v -0.00472993 0.02386584 -0.00034478
v -0.00343476 0.02386584 -0.00046341
v -0.00214133 0.02386584 -0.00050038
v 0.00044727 0.02386584 -0.00056123
v 0.00173898 0.02386584 -0.00056200
v 0.00432758 0.02257019 -0.00070682
v 0.00562275 0.02257019 -0.00070374
v 0.00691618 0.02257019 -0.00067370
v 0.00821135 0.02257019 -0.00059975
v 0.01005048 0.02202686 -0.00056971
v 0.01005048 0.02836495 0.00626968
v 0.00824243 0.02880011 0.00599315
v 0.00821135 0.02948604 0.00712701
v 0.00832187 0.02946883 0.00715936
v 0.00950478 0.02820760 0.00572201
v 0.00869487 0.02834282 0.00550632
v -0.00613734 0.02946391 0.00715936
v -0.00605099 0.02879765 0.00599854
v -0.00649998 0.02833544 0.00551557
v -0.00731853 0.02820023 0.00572971
v -0.00759137 0.02816089 0.00581521
v -0.00759137 0.02857146 0.00644992
v -0.00602336 0.02948112 0.00712701
v -0.00759137 0.02422970 0.00061346
v -0.00731853 0.02425674 0.00053566
v -0.00555538 0.02457389 0.00019596
v -0.00472993 0.02468945 0.00009967
v -0.00343476 0.02480254 0.00001186
v -0.00214133 0.02486400 -0.00002203
v 0.00044727 0.02499430 -0.00008134
v 0.00173898 0.02499676 -0.00008211
v 0.00303415 0.02386584 -0.00053119
v 0.00432758 0.02386584 -0.00049961
v 0.00562275 0.02386584 -0.00045955
v 0.00950478 0.02257019 -0.00050038
v 0.01005048 0.02257019 -0.00042720
v 0.01005048 0.02812401 0.00589686
v 0.00783316 0.02847804 0.00530682
v 0.00691618 0.02963355 0.00683353
v 0.00809219 0.02953275 0.00715936
v 0.00821135 0.02950325 0.00715936
v 0.01005048 0.02783882 0.00545780
v 0.01005048 0.02743808 0.00487392
v 0.01005048 0.02724877 0.00460200
v 0.00950651 0.02751184 0.00471370
v 0.00821135 0.02732007 0.00382016
v -0.00605099 0.02949095 0.00715936
v -0.00563654 0.02848050 0.00530220
v -0.00472993 0.02962863 0.00684431
v -0.00759137 0.02746513 0.00480690
v -0.00602336 0.02949833 0.00715936
v -0.00472993 0.02980564 0.00715936
v -0.00759137 0.02478041 0.00123739
v -0.00590248 0.02511723 0.00094930
v -0.00538441 0.02581054 0.00154396
v -0.00472993 0.02533604 0.00080988
v -0.00343476 0.02544913 0.00068124
v 0.00044727 0.02564090 0.00042243
v 0.00173898 0.02564336 0.00041934
v 0.00303415 0.02492792 -0.00005284
v 0.00691618 0.02386584 -0.00034555
v 0.00432758 0.02486154 -0.00002126
v 0.00562275 0.02479762 0.00001494
v 0.01005048 0.02317253 -0.00015298
v 0.00691618 0.02855671 0.00518973
v 0.00691618 0.02914922 0.00607634
v 0.00821135 0.02686524 0.00317389
v 0.00691618 0.02702505 0.00294897
v 0.00691618 0.02746758 0.00359524
v 0.00623924 0.02968518 0.00672954
v 0.00173898 0.03071776 0.00715936
v 0.00597849 0.02998758 0.00715936
v 0.00691618 0.02981548 0.00715936
v 0.01005048 0.02701030 0.00426385
v 0.00907652 0.02717502 0.00402891
v -0.00472993 0.02915168 0.00607634
v -0.00472993 0.02856409 0.00517818
v -0.00472993 0.02811909 0.00453114
v -0.00472993 0.02702751 0.00294666
v -0.00602336 0.02685295 0.00319007
v -0.00602336 0.02731270 0.00383634
v -0.00605099 0.02801092 0.00483540
v -0.00361263 0.03000233 0.00715936
v 0.00044727 0.03068826 0.00715936
v -0.00402018 0.02968272 0.00673416
v -0.00759137 0.02671527 0.00375931
v -0.00759137 0.02541225 0.00200691
v -0.00624786 0.02566056 0.00172729
v -0.00589903 0.02612769 0.00217252
v -0.00472993 0.02645467 0.00219408
v -0.00472993 0.02588183 0.00145692
v -0.00343476 0.02598509 0.00132828
v -0.00214133 0.02605639 0.00124201
v 0.00044727 0.02619898 0.00106947
v 0.00173898 0.02620144 0.00106639
v 0.00562275 0.02544667 0.00068740
v 0.00691618 0.02468945 0.00009890
v 0.00950478 0.02360769 -0.00002588
v 0.01005048 0.02351673 0.00003112
v 0.01005048 0.02691441 0.00412982
v 0.01005048 0.02646696 0.00350512
v 0.01005048 0.02611048 0.00301598
v 0.01005048 0.02589658 0.00272404
v 0.00950478 0.02599247 0.00260080
v 0.00809392 0.02613998 0.00216944
v 0.00758449 0.02581545 0.00153857
v 0.00691618 0.02645221 0.00219408
v 0.00611491 0.02708405 0.00286732
v 0.00525147 0.02713322 0.00279645
v 0.00303415 0.02725861 0.00261929
v 0.00173898 0.02733482 0.00252223
v 0.00044727 0.02733728 0.00252223
v -0.00399600 0.02709143 0.00285576
v -0.00731853 0.02598017 0.00261081
v -0.00759137 0.02593346 0.00267320
v -0.00214133 0.02719715 0.00271095
v -0.00313428 0.02714060 0.00278644
v -0.00731853 0.02547372 0.00196377
v -0.00351247 0.02672019 0.00229037
v -0.00214133 0.02670298 0.00206391
v -0.00084616 0.02677428 0.00196839
v 0.00044727 0.02684558 0.00187519
v 0.00303415 0.02613014 0.00115266
v 0.00173898 0.02684803 0.00187519
v 0.00691618 0.02533604 0.00080988
v 0.00562275 0.02598263 0.00133444
v 0.00691618 0.02588183 0.00145692
v 0.00775200 0.02457881 0.00019288
v 0.01005048 0.02389288 0.00035541
v 0.01005048 0.02566056 0.00242671
v 0.00950478 0.02547617 0.00195376
v 0.00844793 0.02566302 0.00172190
v 0.00809910 0.02511969 0.00094545
v 0.01005048 0.02473124 0.00129285
v 0.01005048 0.02455177 0.00108564
v 0.00565901 0.02671282 0.00229654
v 0.00303415 0.02677674 0.00197224
v 0.00432758 0.02670298 0.00207546
v 0.01005048 0.02420512 0.00069202
v 0.01005048 0.02535325 0.00204311
v 0.01005048 0.02503610 0.00165565
f 1 2 6
f 1 6 3
f 1 3 8
f 1 8 15
f 1 15 31
f 1 31 55
f 1 55 54
f 1 54 83
f 1 83 119
f 1 119 148
f 1 148 120
f 1 120 86
f 1 86 57
f 1 57 32
f 1 32 16
f 1 16 9
f 1 9 4
f 1 4 5
f 1 5 2
f 2 5 13
f 2 13 12
f 2 12 25
f 2 25 43
f 2 43 69
f 2 69 97
f 2 97 132
f 2 132 162
f 2 162 172
f 2 172 168
f 2 168 167
f 2 167 174
f 2 174 173
f 2 173 163
f 2 163 136
f 2 136 135
f 2 135 134
f 2 134 133
f 2 133 107
f 2 107 77
f 2 77 76
f 2 76 75
f 2 75 70
f 2 70 44
f 2 44 26
f 2 26 14
f 2 14 7
f 2 7 6
f 3 6 7
f 3 7 8
f 4 9 10
f 4 10 11
f 4 11 12
f 4 12 13
f 4 13 5
f 7 14 28
f 7 28 47
f 7 47 74
f 7 74 73
f 7 73 106
f 7 106 105
f 7 105 104
f 7 104 117
f 7 117 116
f 7 116 85
f 7 85 84
f 7 84 80
f 7 80 50
f 7 50 29
f 7 29 15
f 7 15 8
f 9 16 17
f 9 17 18
f 9 18 19
f 9 19 10
f 10 19 20
f 10 20 21
f 10 21 11
f 11 21 22
f 11 22 23
f 11 23 12
f 12 23 24
f 12 24 25
f 14 26 27
f 14 27 28
f 15 29 30
f 15 30 31
f 16 32 33
f 16 33 34
f 16 34 17
f 17 34 35
f 17 35 18
f 18 35 19
f 19 35 36
f 19 36 20
f 20 36 37
f 20 37 21
f 21 37 38
f 21 38 22
f 22 38 39
f 22 39 23
f 23 39 24
f 24 39 40
f 24 40 41
f 24 41 25
f 25 41 42
f 25 42 43
f 26 44 27
f 27 45 46
f 27 46 47
f 27 47 28
f 27 44 48
f 27 48 49
f 27 49 45
f 29 50 30
f 30 51 52
f 30 52 53
f 30 53 54
f 30 54 55
f 30 55 31
f 30 50 56
f 30 56 51
f 32 57 58
f 32 58 59
f 32 59 60
f 32 60 33
f 33 60 34
f 34 60 61
f 34 61 35
f 35 61 62
f 35 62 63
f 35 63 36
f 36 63 37
f 37 63 64
f 37 64 38
f 38 65 41
f 38 41 40
f 38 40 39
f 38 64 65
f 41 65 66
f 41 66 67
f 41 67 42
f 42 68 43
f 42 67 68
f 43 68 69
f 44 70 48
f 45 49 71
f 45 71 72
f 45 72 46
f 46 72 73
f 46 73 74
f 46 74 47
f 48 70 75
f 48 75 49
f 49 75 76
f 49 76 77
f 49 77 78
f 49 78 79
f 49 79 71
f 50 80 56
f 51 81 52
f 51 56 82
f 51 82 81
f 52 81 83
f 52 83 53
f 53 83 54
f 56 80 84
f 56 84 85
f 56 85 82
f 57 86 58
f 58 86 87
f 58 87 59
f 59 87 88
f 59 88 89
f 59 89 60
f 60 89 90
f 60 90 61
f 61 90 91
f 61 91 62
f 62 91 63
f 63 91 92
f 63 92 64
f 64 93 67
f 64 67 66
f 64 66 65
f 64 92 93
f 67 94 68
f 67 93 95
f 67 95 96
f 67 96 94
f 68 94 69
f 69 94 97
f 71 98 99
f 71 99 72
f 71 79 100
f 71 100 101
f 71 101 102
f 71 102 98
f 72 103 104
f 72 104 105
f 72 105 106
f 72 106 73
f 72 99 103
f 77 107 108
f 77 108 78
f 78 108 79
f 79 108 100
f 81 82 109
f 81 109 110
f 81 110 111
f 81 111 112
f 81 112 113
f 81 113 114
f 81 114 115
f 81 115 83
f 82 85 116
f 82 116 117
f 82 117 118
f 82 118 109
f 83 114 113
f 83 113 119
f 83 115 114
f 86 120 121
f 86 121 88
f 86 88 87
f 88 121 122
f 88 122 113
f 88 113 112
f 88 112 123
f 88 123 124
f 88 124 89
f 89 124 90
f 90 124 125
f 90 125 126
f 90 126 127
f 90 127 91
f 91 127 128
f 91 128 92
f 92 128 129
f 92 129 96
f 92 96 95
f 92 95 93
f 94 96 130
f 94 130 131
f 94 131 97
f 96 129 130
f 97 131 132
f 98 104 99
f 98 102 104
f 99 104 103
f 100 108 107
f 100 107 133
f 100 133 134
f 100 134 135
f 100 135 136
f 100 136 137
f 100 137 138
f 100 138 139
f 100 139 101
f 101 139 140
f 101 140 141
f 101 141 104
f 101 104 102
f 104 141 142
f 104 142 143
f 104 143 144
f 104 144 145
f 104 145 117
f 109 118 117
f 109 117 110
f 110 117 146
f 110 146 111
f 111 146 112
f 112 146 123
f 113 122 147
f 113 147 148
f 113 148 119
f 117 145 149
f 117 149 150
f 117 150 146
f 120 148 147
f 120 147 151
f 120 151 121
f 121 151 147
f 121 147 122
f 123 146 124
f 124 146 125
f 125 146 152
f 125 152 153
f 125 153 154
f 125 154 155
f 125 155 126
f 126 155 127
f 127 155 128
f 128 156 129
f 128 155 157
f 128 157 156
f 129 158 130
f 129 156 159
f 129 159 160
f 129 160 158
f 130 161 131
f 130 158 161
f 131 161 132
f 132 161 162
f 136 163 137
f 137 163 164
f 137 164 165
f 137 165 138
f 138 165 139
f 139 166 161
f 139 161 158
f 139 158 160
f 139 160 140
f 139 165 167
f 139 167 168
f 139 168 166
f 140 160 159
f 140 159 141
f 141 159 169
f 141 169 142
f 142 169 170
f 142 170 143
f 143 170 144
f 144 170 157
f 144 157 145
f 145 157 155
f 145 155 149
f 146 150 152
f 149 155 154
f 149 154 153
f 149 153 152
f 149 152 150
f 156 157 159
f 157 170 159
f 159 170 171
f 159 171 169
f 161 172 162
f 161 166 172
f 163 173 164
f 164 173 174
f 164 174 165
f 165 174 167
f 166 168 172
f 169 171 170

