# https://github.com/mikedh/trimesh
v -0.02786232 0.01605335 0.03618726
v -0.03159438 0.00560142 0.03618726
v -0.03577156 0.01605335 0.03618726
v -0.03523678 0.01605335 0.10467668
v -0.03826939 0.00560142 0.10572704
v -0.03814874 0.00560142 0.10457596
v -0.03813406 0.00560142 0.10443207
v -0.03660960 0.00560142 0.03618726
v -0.03677428 0.00560142 0.03681316
v -0.03682971 0.00560142 0.03705777
v -0.03596069 0.01605335 0.03709374
v -0.03536395 0.01605335 0.10576301
v -0.03829221 0.00560142 0.10587093
v -0.03807210 0.00560142 0.04358297
v -0.03620689 0.01605335 0.03843187
v -0.03558243 0.01605335 0.10702201
v -0.03848298 0.00560142 0.10702201
v -0.03826776 0.00560142 0.04478441
v -0.03648895 0.01605335 0.04007216
v -0.03559221 0.01605335 0.10705798
v -0.03880743 0.00560142 0.10823064
v -0.03851232 0.00560142 0.10714431
v -0.03930960 0.00560142 0.05138875
v -0.03663080 0.01605335 0.04097145
v -0.03604710 0.01605335 0.10843208
v -0.03908461 0.00560142 0.10887813
v -0.03948732 0.00560142 0.05266933
v -0.03702700 0.01605335 0.04361175
v -0.03682482 0.01605335 0.04225203
v -0.03637482 0.01605335 0.10900043
v -0.03645308 0.01549883 0.10894288
v -0.03915798 0.00560142 0.10893568
v -0.03964548 0.00560142 0.05382760
v -0.03719656 0.01605335 0.04485635
v -0.03693243 0.01605335 0.10930979
v -0.03973189 0.00560142 0.10929539
v -0.04015743 0.00560142 0.05766215
v -0.03720308 0.01605335 0.04490671
v -0.03696993 0.01605335 0.10932417
v -0.03696504 0.01599810 0.10931698
v -0.03837863 0.01351301 0.10956158
v -0.03986395 0.00560142 0.10933856
v -0.04063352 0.00560142 0.06141036
v -0.03785526 0.01605335 0.05007220
v -0.03771504 0.01605335 0.10951122
v -0.03837863 0.01480722 0.10966230
v -0.04096776 0.00560142 0.10966950
v -0.04066124 0.00560142 0.06165496
v -0.03815852 0.01605335 0.05262616
v -0.03801667 0.01605335 0.05138155
v -0.03837863 0.01605335 0.10967669
v -0.03967319 0.01221879 0.10968389
v -0.04096776 0.00704296 0.10966950
v -0.04111287 0.00560142 0.10964072
v -0.04093678 0.00560142 0.06417296
v -0.03873406 0.01605335 0.05779884
v -0.03859711 0.01605335 0.05655423
v -0.03845363 0.01605335 0.05525926
v -0.03830363 0.01605335 0.05391393
v -0.03816341 0.01605335 0.05266933
v -0.03842754 0.01605335 0.10966950
v -0.03967319 0.01351301 0.10964072
v -0.04096776 0.00963139 0.10964072
v -0.04096776 0.00833718 0.10966230
v -0.04236341 0.00560142 0.10928101
v -0.04451722 0.00560142 0.09781335
v -0.03886613 0.01605335 0.05903625
v -0.03967319 0.01480722 0.10949684
v -0.03973841 0.01605335 0.10924504
v -0.04096776 0.01092458 0.10952561
v -0.04198841 0.00963139 0.10918748
v -0.04210091 0.00833718 0.10924504
v -0.04218407 0.00704296 0.10928820
v -0.04237483 0.00574466 0.10926662
v -0.04255580 0.00560142 0.10917309
v -0.04451722 0.00560142 0.09796443
v -0.04397592 0.00833718 0.09925220
v -0.04370363 0.00963139 0.09925220
v -0.04342320 0.01092458 0.09925220
v -0.04427102 0.00675957 0.09796443
v -0.04293407 0.01296361 0.09846083
v -0.03946613 0.01605335 0.06561181
v -0.03934548 0.01605335 0.06428087
v -0.04104928 0.01221470 0.10926662
v -0.04027971 0.01605335 0.10889252
v -0.04035635 0.01558989 0.10898604
v -0.04180744 0.01092458 0.10908676
v -0.04274820 0.00833718 0.10871986
v -0.04283135 0.00704296 0.10885654
v -0.04288352 0.00617333 0.10892849
v -0.04291124 0.00560142 0.10895726
v -0.04366124 0.00963139 0.10184213
v -0.04371342 0.00963139 0.10054717
v -0.04425635 0.00560142 0.10184213
v -0.04397265 0.00704296 0.10313710
v -0.04379331 0.00833718 0.10313710
v -0.04351776 0.00963139 0.10443207
v -0.04359276 0.00963139 0.10313710
v -0.04312320 0.01221879 0.09925220
v -0.04342646 0.01092458 0.10054717
v -0.04293407 0.01295542 0.09925220
v -0.04243678 0.01480722 0.09796443
v -0.04208135 0.01605335 0.09666946
v -0.04166885 0.01178091 0.10900043
v -0.04055689 0.01605335 0.10835295
v -0.04153515 0.01264338 0.10885654
v -0.04263570 0.00963139 0.10847525
v -0.04296178 0.00963139 0.10782777
v -0.04305146 0.00833718 0.10807237
v -0.04312646 0.00704296 0.10820906
v -0.04315254 0.00574466 0.10842489
v -0.04317211 0.00560142 0.10841050
v -0.04421233 0.00560142 0.10247523
v -0.04416994 0.00560142 0.10305796
v -0.04370526 0.00833718 0.10443207
v -0.04336450 0.00963139 0.10572704
v -0.04305635 0.01093583 0.10562632
v -0.04319168 0.01092458 0.10443207
v -0.04291613 0.01288687 0.09995724
v -0.04209113 0.01605335 0.09796443
v -0.04100037 0.01605335 0.10702201
v -0.04159059 0.01409208 0.10754000
v -0.04174222 0.01322961 0.10799323
v -0.04290961 0.01028105 0.10766949
v -0.04331070 0.00833718 0.10702201
v -0.04346233 0.00704296 0.10702201
v -0.04363026 0.00560142 0.10702201
v -0.04322102 0.00560142 0.10827381
v -0.04405417 0.00560142 0.10428099
v -0.04386668 0.00704296 0.10443207
v -0.04353896 0.00833718 0.10572704
v -0.04313298 0.00963139 0.10702201
v -0.04296994 0.01045600 0.10702201
v -0.04291613 0.01159471 0.10512272
v -0.04283950 0.01137372 0.10598603
v -0.04160200 0.01541801 0.10485653
v -0.04140472 0.01605335 0.10442488
v -0.04235037 0.01221879 0.10702201
v -0.04124330 0.01605335 0.10572704
v -0.04153515 0.01522771 0.10572704
v -0.04274331 0.01110158 0.10702201
v -0.04386016 0.00560142 0.10572704
v -0.04403787 0.00560142 0.10444646
v -0.04264874 0.01210318 0.10562632
v -0.04125309 0.01605335 0.10566229
f 1 2 8
f 1 8 3
f 1 3 11
f 1 11 15
f 1 15 19
f 1 19 24
f 1 24 29
f 1 29 28
f 1 28 34
f 1 34 38
f 1 38 44
f 1 44 50
f 1 50 49
f 1 49 60
f 1 60 59
f 1 59 58
f 1 58 57
f 1 57 56
f 1 56 67
f 1 67 83
f 1 83 82
f 1 82 103
f 1 103 120
f 1 120 137
f 1 137 145
f 1 145 139
f 1 139 121
f 1 121 105
f 1 105 85
f 1 85 69
f 1 69 61
f 1 61 51
f 1 51 45
f 1 45 39
f 1 39 35
f 1 35 30
f 1 30 25
f 1 25 20
f 1 20 16
f 1 16 12
f 1 12 4
f 1 4 5
f 1 5 6
f 1 6 7
f 1 7 2
f 2 7 6
f 2 6 5
f 2 5 13
f 2 13 17
f 2 17 22
f 2 22 21
f 2 21 26
f 2 26 32
f 2 32 36
f 2 36 42
f 2 42 47
f 2 47 54
f 2 54 65
f 2 65 75
f 2 75 91
f 2 91 112
f 2 112 128
f 2 128 127
f 2 127 142
f 2 142 143
f 2 143 129
f 2 129 114
f 2 114 113
f 2 113 94
f 2 94 76
f 2 76 66
f 2 66 55
f 2 55 48
f 2 48 43
f 2 43 37
f 2 37 33
f 2 33 27
f 2 27 23
f 2 23 18
f 2 18 14
f 2 14 10
f 2 10 9
f 2 9 8
f 3 8 9
f 3 9 10
f 3 10 11
f 4 12 5
f 5 12 13
f 10 14 11
f 11 14 15
f 12 16 17
f 12 17 13
f 14 18 19
f 14 19 15
f 16 20 21
f 16 21 22
f 16 22 17
f 18 23 19
f 19 23 24
f 20 25 21
f 21 25 26
f 23 27 28
f 23 28 29
f 23 29 24
f 25 30 31
f 25 31 26
f 26 31 32
f 27 33 28
f 28 33 34
f 30 35 36
f 30 36 32
f 30 32 31
f 33 37 34
f 34 37 38
f 35 39 40
f 35 40 36
f 36 40 39
f 36 39 41
f 36 41 42
f 37 43 38
f 38 43 44
f 39 45 46
f 39 46 41
f 41 46 47
f 41 47 42
f 43 48 60
f 43 60 49
f 43 49 50
f 43 50 44
f 45 51 46
f 46 51 47
f 47 51 52
f 47 52 53
f 47 53 54
f 48 55 56
f 48 56 57
f 48 57 58
f 48 58 59
f 48 59 60
f 51 61 62
f 51 62 52
f 52 62 63
f 52 63 64
f 52 64 53
f 53 64 54
f 54 64 65
f 55 66 67
f 55 67 56
f 61 68 62
f 61 69 68
f 62 68 70
f 62 70 63
f 63 70 71
f 63 71 72
f 63 72 73
f 63 73 65
f 63 65 64
f 65 73 74
f 65 74 75
f 66 76 77
f 66 77 78
f 66 78 79
f 66 79 80
f 66 80 81
f 66 81 82
f 66 82 83
f 66 83 67
f 68 69 84
f 68 84 70
f 69 85 86
f 69 86 84
f 70 84 87
f 70 87 71
f 71 87 88
f 71 88 89
f 71 89 90
f 71 90 72
f 72 90 91
f 72 91 75
f 72 75 73
f 73 75 74
f 76 92 93
f 76 93 77
f 76 94 95
f 76 95 96
f 76 96 97
f 76 97 98
f 76 98 92
f 77 93 78
f 78 93 79
f 79 99 81
f 79 81 80
f 79 93 100
f 79 100 99
f 81 99 101
f 81 101 102
f 81 102 103
f 81 103 82
f 84 86 104
f 84 104 87
f 85 105 106
f 85 106 86
f 86 106 104
f 87 104 107
f 87 107 88
f 88 107 108
f 88 108 109
f 88 109 89
f 89 109 110
f 89 110 90
f 90 110 111
f 90 111 112
f 90 112 91
f 92 100 93
f 92 98 100
f 94 113 95
f 95 113 114
f 95 114 115
f 95 115 96
f 96 115 97
f 97 115 116
f 97 116 117
f 97 117 118
f 97 118 100
f 97 100 98
f 99 100 101
f 100 119 101
f 100 118 119
f 101 120 102
f 101 119 120
f 102 120 103
f 104 106 107
f 105 121 122
f 105 122 123
f 105 123 106
f 106 123 124
f 106 124 107
f 107 124 108
f 108 124 125
f 108 125 126
f 108 126 127
f 108 127 109
f 109 127 110
f 110 128 112
f 110 112 111
f 110 127 128
f 114 129 130
f 114 130 115
f 115 130 131
f 115 131 116
f 116 131 125
f 116 125 132
f 116 132 124
f 116 124 133
f 116 133 117
f 117 134 118
f 117 133 135
f 117 135 134
f 118 134 120
f 118 120 119
f 120 134 136
f 120 136 137
f 121 138 124
f 121 124 122
f 121 139 140
f 121 140 138
f 122 124 123
f 124 138 141
f 124 141 133
f 124 132 125
f 125 131 142
f 125 142 126
f 126 142 127
f 129 143 130
f 130 143 131
f 131 143 142
f 133 141 140
f 133 140 135
f 134 135 144
f 134 144 140
f 134 140 139
f 134 139 136
f 135 140 144
f 136 139 145
f 136 145 137
f 138 140 141

