# https://github.com/mikedh/trimesh
v -0.00722687 -0.04294105 0.05659980
v 0.00108626 -0.04128023 0.05659980
v -0.00866856 -0.04292787 0.05659980
v -0.00797712 -0.04278664 0.05459138
v -0.00794851 -0.04278664 0.05459138
v -0.00766399 -0.04283184 0.05525377
v -0.00743828 -0.04264353 0.05407776
v -0.00731747 -0.04244016 0.05266443
v -0.00671982 -0.04277534 0.05596220
v 0.00108626 -0.03679111 0.05659980
v 0.00108626 -0.04127458 0.05655020
v -0.00880208 -0.04289774 0.05659980
v -0.00914382 -0.04276028 0.05606493
v -0.00867174 -0.04291657 0.05651833
v -0.00861292 -0.04238367 0.05266443
v -0.00861292 -0.04219914 0.05137153
v -0.00818376 -0.04154573 0.04648332
v -0.00731747 -0.04132165 0.04489996
v -0.00731747 -0.04208804 0.05007864
v -0.00731747 -0.04227069 0.05137153
v -0.00731747 -0.04170579 0.04748930
v -0.00661332 -0.04151372 0.04667105
v -0.01515217 -0.03297046 0.05659980
v 0.00108626 -0.02883723 0.02041285
v -0.01515217 -0.02370601 0.02041285
v 0.00108626 -0.04084148 0.05330556
v -0.00972876 -0.04253243 0.05659980
v -0.00955550 -0.04167001 0.05007864
v -0.00938225 -0.04156268 0.04878220
v -0.00928211 -0.04150242 0.04805605
v -0.00861292 -0.04200331 0.05007864
v -0.00904686 -0.04142898 0.04719176
v -0.00861292 -0.04117101 0.04489996
v -0.00861292 -0.04095446 0.04360707
v -0.00809315 -0.04023515 0.03885700
v -0.00731747 -0.04089609 0.04231063
v -0.00731747 -0.04111640 0.04360707
v -0.00653544 -0.04024268 0.03879678
v 0.00108626 -0.03959869 0.04489996
v 0.00108626 -0.03999601 0.04748930
v 0.00108626 -0.04019372 0.04878928
v 0.00108626 -0.04038956 0.05007864
v 0.00108626 -0.04057786 0.05137153
v 0.00108626 -0.04066636 0.05201267
v 0.00108626 -0.04075486 0.05266443
v -0.01515217 -0.03806591 0.05659980
v 0.00108626 -0.03436013 0.02041285
v -0.01515217 -0.03035871 0.02041285
v -0.00984161 -0.04246464 0.05659980
v -0.00970969 -0.04176981 0.05137153
v -0.01055531 -0.04149112 0.05329848
v -0.01046947 -0.04141015 0.05243419
v -0.01035662 -0.04131224 0.05137153
v -0.00966041 -0.04048182 0.04360707
v -0.00949510 -0.04035943 0.04231063
v -0.00935840 -0.04026339 0.04132236
v -0.00920899 -0.04017489 0.04045807
v -0.00861292 -0.04071720 0.04231063
v -0.00856047 -0.03997906 0.03843194
v -0.00861292 -0.03968719 0.03713904
v -0.00822032 -0.03899989 0.03348705
v -0.00793420 -0.03889821 0.03262276
v -0.00731747 -0.03969661 0.03584614
v -0.00731747 -0.03996964 0.03713904
v -0.00731747 -0.04014665 0.03806001
v -0.00731747 -0.04044040 0.03972483
v -0.00871147 -0.04042722 0.04093980
v 0.00108626 -0.03845570 0.03843194
v 0.00108626 -0.03891139 0.04095397
v 0.00108626 -0.03915618 0.04231063
v 0.00108626 -0.03938779 0.04360707
v 0.00108626 -0.03949324 0.04424466
v -0.00650047 -0.03894528 0.03241377
v 0.00108626 -0.03820337 0.03713904
v -0.01076671 -0.04178111 0.05659980
v -0.01515217 -0.03787573 0.05533878
v -0.01060617 -0.04154573 0.05396087
v -0.01070154 -0.04164930 0.05525377
v -0.01079214 -0.04175286 0.05655020
v -0.00530675 -0.03633918 0.02345913
v -0.00472498 -0.03525080 0.02041285
v 0.00108626 -0.03498717 0.02303407
v -0.00602520 -0.03841804 0.03066747
v -0.00602520 -0.03809039 0.02937457
v -0.00847782 -0.03462187 0.02041285
v -0.00806454 -0.03507756 0.02080957
v -0.00830933 -0.03523385 0.02161011
v -0.00869717 -0.03544851 0.02286050
v -0.00923442 -0.03759139 0.03007238
v -0.00929482 -0.03892833 0.03508457
v -0.01515217 -0.03299306 0.03059309
v -0.01515217 -0.03766671 0.05396087
v -0.01515217 -0.03746899 0.05266443
v -0.01515217 -0.03725998 0.05130777
v -0.01515217 -0.03723362 0.05114483
v -0.01515217 -0.03705473 0.05007864
v -0.01515217 -0.03681559 0.04870427
v -0.01515217 -0.03615276 0.04489996
v -0.01052828 -0.04016736 0.04568279
v -0.01045199 -0.04008074 0.04489996
v -0.01515217 -0.03592115 0.04361415
v -0.01515217 -0.03459174 0.03718863
v -0.00958888 -0.03916748 0.03713904
v -0.00941086 -0.03901872 0.03584614
v -0.00861292 -0.03939532 0.03584614
v -0.00863677 -0.03909592 0.03461346
v -0.00908342 -0.03881347 0.03422028
v -0.00872737 -0.03798871 0.03056829
v -0.00838086 -0.03781547 0.02937457
v -0.00811382 -0.03767801 0.02850674
v -0.00731747 -0.03812617 0.02937457
v -0.00731747 -0.03849147 0.03066747
v -0.00742874 -0.03880029 0.03197454
v -0.00707110 -0.03894528 0.03241377
v -0.00731747 -0.03940286 0.03454970
v -0.00658471 -0.03761964 0.02738741
v 0.00108626 -0.03557091 0.02549234
v 0.00108626 -0.03587784 0.02678524
v 0.00108626 -0.03679299 0.03066747
v 0.00108626 -0.03708298 0.03196391
v 0.00108626 -0.03722232 0.03260150
v 0.00108626 -0.03736543 0.03325681
v 0.00108626 -0.03792845 0.03584614
v -0.00602520 -0.03662540 0.02419590
v -0.00602520 -0.03637496 0.02335640
v -0.00602520 -0.03616783 0.02271173
v -0.00602520 -0.03580252 0.02161011
v -0.00602520 -0.03539014 0.02041285
v -0.00734768 -0.03516418 0.02041285
v -0.00723959 -0.03519996 0.02041285
v -0.00731747 -0.03562740 0.02161011
v -0.00777207 -0.03626386 0.02370354
v -0.00812653 -0.03640132 0.02456429
v -0.01515217 -0.03329999 0.03181868
v -0.01515217 -0.03301189 0.03066747
v -0.00760835 -0.03753867 0.02764244
v -0.00691056 -0.03636931 0.02338474
v -0.00674843 -0.03761964 0.02738741
v -0.00733178 -0.03610757 0.02293134
f 1 2 10
f 1 10 23
f 1 23 46
f 1 46 75
f 1 75 49
f 1 49 27
f 1 27 12
f 1 12 3
f 1 3 4
f 1 4 5
f 1 5 6
f 1 6 7
f 1 7 8
f 1 8 9
f 1 9 2
f 2 9 11
f 2 11 26
f 2 26 45
f 2 45 44
f 2 44 43
f 2 43 42
f 2 42 41
f 2 41 40
f 2 40 39
f 2 39 72
f 2 72 71
f 2 71 70
f 2 70 69
f 2 69 68
f 2 68 74
f 2 74 123
f 2 123 122
f 2 122 121
f 2 121 120
f 2 120 119
f 2 119 118
f 2 118 117
f 2 117 82
f 2 82 47
f 2 47 24
f 2 24 10
f 3 12 13
f 3 13 14
f 3 14 4
f 4 14 13
f 4 13 15
f 4 15 16
f 4 16 17
f 4 17 18
f 4 18 5
f 5 19 20
f 5 20 6
f 5 18 21
f 5 21 19
f 6 20 8
f 6 8 7
f 8 20 9
f 9 20 22
f 9 22 11
f 10 24 25
f 10 25 23
f 11 22 26
f 12 27 13
f 13 27 28
f 13 28 29
f 13 29 30
f 13 30 31
f 13 31 16
f 13 16 15
f 16 31 17
f 17 32 33
f 17 33 34
f 17 34 35
f 17 35 36
f 17 36 37
f 17 37 18
f 17 31 32
f 18 37 22
f 18 22 21
f 19 21 22
f 19 22 20
f 22 37 38
f 22 38 39
f 22 39 40
f 22 40 41
f 22 41 42
f 22 42 43
f 22 43 44
f 22 44 45
f 22 45 26
f 23 25 48
f 23 48 91
f 23 91 135
f 23 135 134
f 23 134 102
f 23 102 101
f 23 101 98
f 23 98 97
f 23 97 96
f 23 96 95
f 23 95 94
f 23 94 93
f 23 93 92
f 23 92 76
f 23 76 46
f 24 47 81
f 24 81 128
f 24 128 130
f 24 130 129
f 24 129 85
f 24 85 48
f 24 48 25
f 27 49 50
f 27 50 28
f 28 50 51
f 28 51 52
f 28 52 53
f 28 53 54
f 28 54 29
f 29 54 30
f 30 54 55
f 30 55 56
f 30 56 57
f 30 57 34
f 30 34 32
f 30 32 31
f 32 34 33
f 34 57 58
f 34 58 35
f 35 57 59
f 35 59 60
f 35 60 61
f 35 61 62
f 35 62 63
f 35 63 64
f 35 64 65
f 35 65 66
f 35 66 36
f 35 58 67
f 35 67 57
f 36 66 38
f 36 38 37
f 38 68 69
f 38 69 70
f 38 70 71
f 38 71 72
f 38 72 39
f 38 66 65
f 38 65 64
f 38 64 73
f 38 73 74
f 38 74 68
f 46 76 51
f 46 51 77
f 46 77 78
f 46 78 79
f 46 79 75
f 47 80 81
f 47 82 73
f 47 73 83
f 47 83 84
f 47 84 80
f 48 85 86
f 48 86 87
f 48 87 88
f 48 88 89
f 48 89 90
f 48 90 91
f 49 75 78
f 49 78 77
f 49 77 51
f 49 51 50
f 51 76 92
f 51 92 93
f 51 93 94
f 51 94 95
f 51 95 96
f 51 96 97
f 51 97 98
f 51 98 99
f 51 99 52
f 52 99 53
f 53 99 54
f 54 99 100
f 54 100 101
f 54 101 55
f 55 101 102
f 55 102 56
f 56 102 103
f 56 103 104
f 56 104 57
f 57 67 58
f 57 104 90
f 57 90 60
f 57 60 59
f 60 90 105
f 60 105 61
f 61 105 106
f 61 106 107
f 61 107 62
f 62 107 108
f 62 108 109
f 62 109 110
f 62 110 111
f 62 111 112
f 62 112 113
f 62 113 114
f 62 114 115
f 62 115 63
f 63 115 114
f 63 114 73
f 63 73 64
f 73 114 112
f 73 112 116
f 73 116 84
f 73 84 83
f 73 82 117
f 73 117 118
f 73 118 119
f 73 119 120
f 73 120 121
f 73 121 122
f 73 122 123
f 73 123 74
f 75 79 78
f 80 116 124
f 80 124 125
f 80 125 126
f 80 126 127
f 80 127 81
f 80 84 116
f 81 127 128
f 85 129 86
f 86 129 130
f 86 130 131
f 86 131 132
f 86 132 133
f 86 133 87
f 87 133 88
f 88 133 89
f 89 110 109
f 89 109 108
f 89 108 107
f 89 107 90
f 89 133 110
f 90 107 106
f 90 106 105
f 90 104 134
f 90 134 135
f 90 135 91
f 98 101 99
f 99 101 100
f 102 134 104
f 102 104 103
f 110 133 132
f 110 132 136
f 110 136 111
f 111 136 137
f 111 137 138
f 111 138 112
f 112 114 113
f 112 138 116
f 116 138 125
f 116 125 124
f 125 138 137
f 125 137 126
f 126 137 127
f 127 137 128
f 128 137 130
f 130 137 131
f 131 139 132
f 131 137 139
f 132 137 136
f 132 139 137

