# https://github.com/mikedh/trimesh
v 0.03952563 -0.02208061 0.07108493
v 0.03215601 -0.02208061 0.07108493
v 0.02979376 -0.03526687 0.07108493
v 0.02964909 -0.03510873 0.06819321
v 0.02959943 -0.03505544 0.06722103
v 0.02955192 -0.03500387 0.06635798
v 0.02959079 -0.03376277 0.05954780
v 0.02954113 -0.03366822 0.05868474
v 0.03937880 -0.02208061 0.07001851
v 0.01746644 -0.03456381 0.07108493
v 0.01956094 -0.02208061 0.02041281
v 0.01746644 -0.02362941 0.02041281
v 0.02899051 -0.03591321 0.07108493
v 0.02904017 -0.03544049 0.06683415
v 0.02884800 -0.03545080 0.06560901
v 0.02874004 -0.03537001 0.06431443
v 0.02862991 -0.03528750 0.06301985
v 0.02840751 -0.03512076 0.06043069
v 0.02832545 -0.03505887 0.05947340
v 0.02949362 -0.03493855 0.06560901
v 0.03921253 -0.02208061 0.06889258
v 0.02872924 -0.03417876 0.05654695
v 0.02861912 -0.03406359 0.05525237
v 0.02850467 -0.03395014 0.05395779
v 0.02838807 -0.03383497 0.05266321
v 0.02831034 -0.03376105 0.05181504
v 0.02826931 -0.03242197 0.04557031
v 0.01746644 -0.03963995 0.07108493
v 0.02739480 -0.02208061 0.02041281
v 0.01746644 -0.03029903 0.02041281
v 0.02834489 -0.03634983 0.07108493
v 0.02832329 -0.03633779 0.07078237
v 0.02827363 -0.03631201 0.07013756
v 0.02823908 -0.03500043 0.05861034
v 0.03903115 -0.02208061 0.06778152
v 0.02746390 -0.03405671 0.05007901
v 0.02821965 -0.03367338 0.05095199
v 0.02740992 -0.03281389 0.04361108
v 0.02725229 -0.03267294 0.04231650
v 0.02699750 -0.03244603 0.04030271
v 0.02716376 -0.03137511 0.03713818
v 0.03681358 -0.02208061 0.05574838
v 0.03704894 -0.02208061 0.05689912
v 0.03747216 -0.02208061 0.05897739
v 0.03768593 -0.02208061 0.06004876
v 0.03787810 -0.02208061 0.06114990
v 0.01746644 -0.03963307 0.07099565
v 0.02448842 -0.02738881 0.02041281
v 0.02757618 -0.02208061 0.02100305
v 0.02572784 -0.02861787 0.02599289
v 0.02558749 -0.02833940 0.02512984
v 0.02124086 -0.02931922 0.02041281
v 0.02184762 -0.02985554 0.02221827
v 0.02234641 -0.02995180 0.02295733
v 0.02339798 -0.03121181 0.02844317
v 0.01746644 -0.03066345 0.02180659
v 0.01746644 -0.03961416 0.07078237
v 0.01746644 -0.03938382 0.06819321
v 0.01746644 -0.03926865 0.06690359
v 0.02762585 -0.03605244 0.06560901
v 0.02762585 -0.03590977 0.06431443
v 0.02773597 -0.03526859 0.05908155
v 0.02747902 -0.03523077 0.05784153
v 0.02700182 -0.03502965 0.05451828
v 0.02713137 -0.03382981 0.04748986
v 0.02702341 -0.03375589 0.04666152
v 0.02604742 -0.03265231 0.03843276
v 0.02582285 -0.03251651 0.03713818
v 0.02685930 -0.03233430 0.03944461
v 0.02705364 -0.03123244 0.03620073
v 0.02687010 -0.03367682 0.04579847
v 0.03658901 -0.02208061 0.05467204
v 0.02386654 -0.02802139 0.02041281
v 0.02452512 -0.02744210 0.02060625
v 0.02438261 -0.02854052 0.02227283
v 0.03055167 -0.02208061 0.03069008
v 0.02637778 -0.02919717 0.02937566
v 0.02587899 -0.03007900 0.02937566
v 0.02574080 -0.02990882 0.02857709
v 0.02457047 -0.02873820 0.02313589
v 0.03079135 -0.02208061 0.03147873
v 0.03151255 -0.02208061 0.03388437
v 0.03240001 -0.02208061 0.03689017
v 0.02249540 -0.02895651 0.02041281
v 0.02271133 -0.02972489 0.02256052
v 0.02317558 -0.02988476 0.02342357
v 0.02379529 -0.03135448 0.02931118
v 0.01746644 -0.03296001 0.03067024
v 0.01746644 -0.03134761 0.02443543
v 0.01746644 -0.03092302 0.02280356
v 0.01746644 -0.03914660 0.06571317
v 0.01746644 -0.03897642 0.06431443
v 0.01746644 -0.03852261 0.06061421
v 0.01746644 -0.03833868 0.05913611
v 0.01746644 -0.03819257 0.05806969
v 0.01746644 -0.03815991 0.05784153
v 0.02583797 -0.03378339 0.04387892
v 0.02569761 -0.03243916 0.03645865
v 0.02629357 -0.03350836 0.04351188
v 0.02669520 -0.03220194 0.03843276
v 0.03399572 -0.02208061 0.04302579
v 0.03545755 -0.02208061 0.04932508
v 0.03568643 -0.02208061 0.05040142
v 0.02579478 -0.03122728 0.03227235
v 0.02564147 -0.03110523 0.03140929
v 0.02693272 -0.03106569 0.03533767
v 0.02356856 -0.02828268 0.02041281
v 0.02354265 -0.02887916 0.02160819
v 0.02326842 -0.02867632 0.02067073
v 0.02318421 -0.02861959 0.02041281
v 0.02428544 -0.02977646 0.02501079
v 0.02404792 -0.02961144 0.02419734
v 0.02696943 -0.02980740 0.03265427
v 0.02607764 -0.03032997 0.03067024
v 0.02546873 -0.03097631 0.03067024
v 0.02450785 -0.02993633 0.02587385
v 0.03267856 -0.02208061 0.03788219
v 0.02278690 -0.02881556 0.02041281
v 0.02457479 -0.03123759 0.02969807
v 0.02425953 -0.03109836 0.02883502
v 0.02374347 -0.03170172 0.03067024
v 0.01746644 -0.03328833 0.03198466
v 0.01746644 -0.03300126 0.03083392
v 0.01746644 -0.03717837 0.05134383
v 0.02557669 -0.03371636 0.04301587
v 0.02503687 -0.03277780 0.03713818
v 0.02499369 -0.03254402 0.03595272
v 0.02453376 -0.03247697 0.03497559
v 0.02482094 -0.03136651 0.03067024
v 0.01746644 -0.03453115 0.03719274
v 0.01746644 -0.03699616 0.05026254
v 0.01746644 -0.03589430 0.04390372
v 0.01746644 -0.03584617 0.04363588
v 0.02503687 -0.03301845 0.03843276
f 1 2 10
f 1 10 28
f 1 28 31
f 1 31 13
f 1 13 3
f 1 3 4
f 1 4 5
f 1 5 6
f 1 6 7
f 1 7 8
f 1 8 9
f 1 9 21
f 1 21 35
f 1 35 46
f 1 46 45
f 1 45 44
f 1 44 43
f 1 43 42
f 1 42 72
f 1 72 103
f 1 103 102
f 1 102 101
f 1 101 117
f 1 117 83
f 1 83 82
f 1 82 81
f 1 81 76
f 1 76 49
f 1 49 29
f 1 29 11
f 1 11 2
f 2 11 12
f 2 12 10
f 3 13 4
f 4 13 5
f 5 13 6
f 6 13 14
f 6 14 15
f 6 15 16
f 6 16 17
f 6 17 18
f 6 18 19
f 6 19 20
f 6 20 8
f 6 8 7
f 8 21 9
f 8 20 22
f 8 22 23
f 8 23 24
f 8 24 25
f 8 25 26
f 8 26 27
f 8 27 21
f 10 12 30
f 10 30 56
f 10 56 90
f 10 90 89
f 10 89 88
f 10 88 123
f 10 123 122
f 10 122 130
f 10 130 133
f 10 133 132
f 10 132 131
f 10 131 124
f 10 124 96
f 10 96 95
f 10 95 94
f 10 94 93
f 10 93 92
f 10 92 91
f 10 91 59
f 10 59 58
f 10 58 57
f 10 57 47
f 10 47 28
f 11 29 48
f 11 48 73
f 11 73 107
f 11 107 110
f 11 110 118
f 11 118 84
f 11 84 52
f 11 52 30
f 11 30 12
f 13 31 32
f 13 32 33
f 13 33 15
f 13 15 14
f 15 33 16
f 16 33 17
f 17 33 18
f 18 33 19
f 19 34 20
f 19 33 34
f 20 34 22
f 21 27 35
f 22 34 23
f 23 34 24
f 24 26 25
f 24 34 26
f 26 34 36
f 26 36 37
f 26 37 27
f 27 38 39
f 27 39 40
f 27 40 41
f 27 41 42
f 27 42 43
f 27 43 44
f 27 44 45
f 27 45 46
f 27 46 35
f 27 37 38
f 28 47 33
f 28 33 32
f 28 32 31
f 29 49 50
f 29 50 51
f 29 51 48
f 30 52 53
f 30 53 54
f 30 54 55
f 30 55 56
f 33 47 57
f 33 57 58
f 33 58 59
f 33 59 60
f 33 60 61
f 33 61 62
f 33 62 34
f 34 62 63
f 34 63 64
f 34 64 65
f 34 65 36
f 36 65 37
f 37 65 66
f 37 66 38
f 38 66 39
f 39 66 40
f 40 67 68
f 40 68 69
f 40 69 70
f 40 70 41
f 40 66 71
f 40 71 67
f 41 70 72
f 41 72 42
f 48 51 50
f 48 50 74
f 48 74 75
f 48 75 73
f 49 76 50
f 50 77 78
f 50 78 79
f 50 79 80
f 50 80 74
f 50 76 81
f 50 81 82
f 50 82 83
f 50 83 77
f 52 84 53
f 53 85 86
f 53 86 54
f 53 84 85
f 54 86 55
f 55 87 88
f 55 88 89
f 55 89 90
f 55 90 56
f 55 86 87
f 59 91 60
f 60 91 64
f 60 64 61
f 61 64 63
f 61 63 62
f 64 91 92
f 64 92 93
f 64 93 94
f 64 94 95
f 64 95 96
f 64 96 97
f 64 97 66
f 64 66 65
f 66 97 71
f 67 71 68
f 68 98 69
f 68 71 99
f 68 99 97
f 68 97 98
f 69 98 100
f 69 100 70
f 70 101 102
f 70 102 103
f 70 103 72
f 70 100 104
f 70 104 105
f 70 105 106
f 70 106 101
f 71 97 99
f 73 75 107
f 74 80 75
f 75 108 109
f 75 109 110
f 75 110 107
f 75 80 111
f 75 111 112
f 75 112 108
f 77 113 78
f 77 83 113
f 78 113 106
f 78 106 114
f 78 114 105
f 78 105 79
f 79 105 115
f 79 115 116
f 79 116 80
f 80 116 111
f 83 117 113
f 84 118 86
f 84 86 85
f 86 118 110
f 86 110 109
f 86 109 112
f 86 112 111
f 86 111 119
f 86 119 120
f 86 120 87
f 87 120 119
f 87 119 121
f 87 121 122
f 87 122 123
f 87 123 88
f 96 124 97
f 97 125 98
f 97 124 125
f 98 125 126
f 98 126 127
f 98 127 128
f 98 128 119
f 98 119 129
f 98 129 105
f 98 105 104
f 98 104 100
f 101 106 113
f 101 113 117
f 105 129 119
f 105 119 115
f 105 114 106
f 108 112 109
f 111 116 119
f 115 119 116
f 119 128 121
f 121 128 130
f 121 130 122
f 124 131 125
f 125 132 133
f 125 133 134
f 125 134 126
f 125 131 132
f 126 134 133
f 126 133 128
f 126 128 127
f 128 133 130

