# https://github.com/mikedh/trimesh
v 0.02089858 0.01586094 0.01162163
v 0.01005048 0.02361218 0.01162163
v 0.02089858 0.02566324 0.01162163
v 0.02089858 0.02652321 0.03618738
v 0.01005048 0.03182330 0.03618738
v 0.01005048 0.03108290 0.01162163
v 0.02074461 0.02578740 0.01162163
v 0.02089858 0.02569773 0.01167694
v 0.02089858 0.03265798 0.03618738
v 0.01005048 0.03935150 0.03618738
v 0.01005048 0.03110129 0.01165289
v 0.01044125 0.03095413 0.01162163
v 0.02049932 0.02596906 0.01162163
v 0.02065117 0.02591387 0.01170820
v 0.02089858 0.02581730 0.01187412
v 0.01157320 0.03884334 0.03618738
v 0.02089858 0.03263959 0.03609601
v 0.01156259 0.03883644 0.03611284
v 0.01087662 0.03916066 0.03618738
v 0.01029789 0.03880195 0.03367213
v 0.01005048 0.03915146 0.03517503
v 0.01032444 0.03105761 0.01173946
v 0.01005048 0.03126685 0.01201118
v 0.01092228 0.03073569 0.01162163
v 0.01020870 0.03230847 0.01442303
v 0.01987175 0.02636225 0.01162163
v 0.02089858 0.02677384 0.01374973
v 0.02089858 0.02600585 0.01221318
v 0.01150843 0.03887553 0.03618738
v 0.02089858 0.03152668 0.03091402
v 0.01141711 0.03873297 0.03524958
v 0.02089858 0.03147150 0.03066394
v 0.02089858 0.03123236 0.02958185
v 0.02089858 0.03038388 0.02574405
v 0.02089858 0.03008726 0.02444796
v 0.01091166 0.03904799 0.03574493
v 0.01056230 0.03890542 0.03454742
v 0.01005048 0.03881345 0.03355671
v 0.01005048 0.03890312 0.03394626
v 0.01086918 0.03775343 0.03066153
v 0.01044125 0.03759477 0.02937024
v 0.01020657 0.03747980 0.02864645
v 0.01005048 0.03757178 0.02880756
v 0.01005048 0.03771894 0.02937024
v 0.01005048 0.03233607 0.01436532
v 0.01177284 0.03033790 0.01162163
v 0.02065117 0.02717624 0.01430040
v 0.01906048 0.02703367 0.01208092
v 0.01882474 0.02695320 0.01162163
v 0.01005048 0.03242804 0.01458415
v 0.01005048 0.03349266 0.01725088
v 0.01034143 0.03368351 0.01808048
v 0.02028588 0.02699688 0.01343954
v 0.02089858 0.02710725 0.01445670
v 0.02089858 0.02984353 0.02341396
v 0.02089858 0.02978144 0.02315186
v 0.02089858 0.02965728 0.02263246
v 0.02089858 0.02938595 0.02161289
v 0.02089858 0.02903414 0.02031439
v 0.01134596 0.03739242 0.03022629
v 0.01023206 0.03620364 0.02470766
v 0.01005048 0.03749820 0.02855026
v 0.01005048 0.03623813 0.02459704
v 0.01017366 0.03487919 0.02092997
v 0.02089858 0.02724522 0.01479575
v 0.01005048 0.03489759 0.02085062
v 0.02089858 0.02866164 0.01898222
v 0.02089858 0.02850758 0.01845080
v 0.02089858 0.02843630 0.01822717
v 0.01005048 0.03591851 0.02368809
v 0.02089858 0.02822936 0.01761158
v 0.01005048 0.03497347 0.02105502
f 1 2 6
f 1 6 12
f 1 12 24
f 1 24 46
f 1 46 49
f 1 49 26
f 1 26 13
f 1 13 7
f 1 7 3
f 1 3 8
f 1 8 15
f 1 15 28
f 1 28 27
f 1 27 54
f 1 54 65
f 1 65 71
f 1 71 69
f 1 69 68
f 1 68 67
f 1 67 59
f 1 59 58
f 1 58 57
f 1 57 56
f 1 56 55
f 1 55 35
f 1 35 34
f 1 34 33
f 1 33 32
f 1 32 30
f 1 30 17
f 1 17 9
f 1 9 4
f 1 4 5
f 1 5 2
f 2 5 10
f 2 10 21
f 2 21 39
f 2 39 38
f 2 38 44
f 2 44 43
f 2 43 62
f 2 62 63
f 2 63 70
f 2 70 72
f 2 72 66
f 2 66 51
f 2 51 50
f 2 50 45
f 2 45 23
f 2 23 11
f 2 11 6
f 3 7 8
f 4 9 16
f 4 16 29
f 4 29 19
f 4 19 10
f 4 10 5
f 6 11 12
f 7 13 14
f 7 14 15
f 7 15 8
f 9 17 18
f 9 18 16
f 10 19 20
f 10 20 21
f 11 22 12
f 11 23 22
f 12 22 25
f 12 25 24
f 13 26 27
f 13 27 14
f 14 28 15
f 14 27 28
f 16 18 29
f 17 30 18
f 18 31 29
f 18 30 32
f 18 32 33
f 18 33 34
f 18 34 35
f 18 35 31
f 19 29 31
f 19 31 36
f 19 36 37
f 19 37 20
f 20 38 39
f 20 39 21
f 20 37 31
f 20 31 40
f 20 40 41
f 20 41 42
f 20 42 43
f 20 43 44
f 20 44 38
f 22 23 45
f 22 45 25
f 24 25 46
f 25 47 48
f 25 48 49
f 25 49 46
f 25 45 50
f 25 50 51
f 25 51 52
f 25 52 47
f 26 49 53
f 26 53 27
f 27 53 54
f 31 37 36
f 31 35 55
f 31 55 56
f 31 56 57
f 31 57 58
f 31 58 59
f 31 59 60
f 31 60 40
f 40 60 41
f 41 60 61
f 41 61 42
f 42 62 43
f 42 61 63
f 42 63 62
f 47 52 64
f 47 64 65
f 47 65 54
f 47 54 53
f 47 53 48
f 48 53 49
f 51 66 64
f 51 64 52
f 59 67 60
f 60 67 68
f 60 68 69
f 60 69 61
f 61 70 63
f 61 69 71
f 61 71 65
f 61 65 64
f 61 64 70
f 64 66 72
f 64 72 70

