# https://github.com/mikedh/trimesh
v 0.00980186 0.07205275 0.09507502
v 0.00979187 0.07205275 0.09537503
v 0.00971026 0.07205275 0.09408067
v 0.00912403 0.07822388 0.07911614
v 0.00921063 0.07951686 0.07911614
v 0.00977355 0.07304706 0.09408067
v 0.00974690 0.07434127 0.09408067
v 0.00973691 0.07304706 0.09537503
v 0.00967196 0.07205275 0.09636938
v 0.00966030 0.07205275 0.09378065
v 0.00893916 0.07745572 0.07911614
v 0.00911237 0.08010189 0.07911614
v 0.00923894 0.07951686 0.07984690
v 0.00949709 0.07822388 0.08631874
v 0.00968362 0.07563548 0.09149193
v 0.00967862 0.07563548 0.09278630
v 0.00950708 0.07563548 0.09408067
v 0.00951541 0.07434127 0.09537503
v 0.00963199 0.07692968 0.09019756
v 0.00956371 0.07205275 0.09668440
v 0.00916566 0.07205275 0.09253771
v 0.00846950 0.07703292 0.07911614
v 0.00928724 0.07951686 0.08114127
v 0.00902410 0.08059598 0.07911614
v 0.00938051 0.07951686 0.08373001
v 0.00942381 0.07951686 0.08502438
v 0.00953206 0.07822388 0.08761311
v 0.00960201 0.07692968 0.09149193
v 0.00907406 0.07661381 0.09408067
v 0.00908239 0.07555190 0.09528717
v 0.00950375 0.07822388 0.09019756
v 0.00921229 0.07827182 0.09151979
v 0.00905408 0.07787237 0.09251414
v 0.00890419 0.07506396 0.09607794
v 0.00907240 0.07434127 0.09630295
v 0.00926725 0.07306673 0.09673155
v 0.00955371 0.07822388 0.08890534
v 0.00919731 0.07205275 0.09751588
v 0.00903909 0.07205275 0.09238127
v 0.00816306 0.07677482 0.07911614
v 0.00891085 0.08087867 0.07911614
v 0.00903909 0.08065006 0.07984690
v 0.00906240 0.08066481 0.08114127
v 0.00910904 0.08066849 0.08373001
v 0.00913069 0.08065374 0.08502438
v 0.00940882 0.07951686 0.08631874
v 0.00889919 0.07633604 0.09479857
v 0.00864438 0.07592676 0.09566005
v 0.00912736 0.07923540 0.09019756
v 0.00909738 0.08053084 0.08631874
v 0.00899745 0.07904121 0.09110619
v 0.00875929 0.07873394 0.09196767
v 0.00778167 0.07657325 0.09632867
v 0.00816639 0.07558508 0.09663511
v 0.00768841 0.07524217 0.09746874
v 0.00898579 0.07264762 0.09747088
v 0.00911237 0.07205275 0.09765518
v 0.00833460 0.07205275 0.09186052
v 0.00714380 0.07631146 0.07911614
v 0.00727537 0.07636923 0.07911614
v 0.00874097 0.08124370 0.07911614
v 0.00877761 0.08129777 0.07984690
v 0.00877761 0.08131130 0.08114127
v 0.00876262 0.08131498 0.08373001
v 0.00873931 0.08130023 0.08502438
v 0.00817805 0.07688666 0.09532146
v 0.00759348 0.08020145 0.09219055
v 0.00897414 0.08031575 0.08761311
v 0.00888254 0.08019161 0.08834387
v 0.00875763 0.08004904 0.08920535
v 0.00861107 0.07988189 0.09019756
v 0.00862606 0.08117856 0.08631874
v 0.00773837 0.08036737 0.09149193
v 0.00740861 0.07610498 0.09719229
v 0.00771172 0.07778265 0.09498286
v 0.00738196 0.07743605 0.09584435
v 0.00753852 0.07366405 0.09859167
v 0.00776502 0.07280125 0.09885311
v 0.00790658 0.07205275 0.09913813
v 0.00858942 0.07205275 0.09831736
v 0.00878261 0.07205275 0.09808378
v 0.00821136 0.07205275 0.09177909
v 0.00660420 0.07624140 0.07911614
v 0.00837624 0.08171074 0.07911614
v 0.00772505 0.08251824 0.07911614
v 0.00756183 0.08275053 0.07938616
v 0.00801817 0.08223309 0.07982976
v 0.00801817 0.08222940 0.08106198
v 0.00811476 0.08206963 0.08373001
v 0.00809145 0.08205733 0.08502438
v 0.00812309 0.08208438 0.08243564
v 0.00797820 0.08194795 0.08631874
v 0.00731868 0.08127442 0.09019756
v 0.00688066 0.08104459 0.09148550
v 0.00691730 0.08044234 0.09250128
v 0.00691730 0.07993228 0.09314846
v 0.00726372 0.07864422 0.09444712
v 0.00778833 0.08172918 0.08761311
v 0.00765010 0.08156202 0.08855389
v 0.00796487 0.08062671 0.09019756
v 0.00751187 0.08140962 0.08941537
v 0.00654424 0.07645403 0.09744731
v 0.00695228 0.07565883 0.09771733
v 0.00696394 0.07694443 0.09669083
v 0.00626611 0.08016335 0.09343348
v 0.00640101 0.07893797 0.09481143
v 0.00651926 0.07771505 0.09618723
v 0.00721708 0.07208962 0.09971674
v 0.00728703 0.07205275 0.09967602
v 0.00686734 0.07205275 0.09136764
v 0.00593136 0.07620576 0.07911614
v 0.00754185 0.08272718 0.07911614
v 0.00733367 0.08290171 0.07911614
v 0.00704554 0.08317087 0.07982976
v 0.00756516 0.08275422 0.08024979
v 0.00756516 0.08275422 0.08057766
v 0.00751686 0.08270382 0.08502438
v 0.00738863 0.08259567 0.08631874
v 0.00650261 0.08289064 0.08732809
v 0.00667082 0.08169722 0.09019756
v 0.00642599 0.08153498 0.09104833
v 0.00562158 0.08138012 0.09195696
v 0.00562158 0.07726890 0.09700157
v 0.00562158 0.07662118 0.09757589
v 0.00560659 0.07554207 0.09827236
v 0.00602629 0.07491033 0.09856595
v 0.00635438 0.07245466 0.09993747
v 0.00574982 0.08067710 0.09291488
v 0.00303347 0.08117978 0.09306489
v 0.00303347 0.08053207 0.09386637
v 0.00562158 0.07785394 0.09635438
v 0.00661086 0.07205275 0.10004033
v 0.00718211 0.07205275 0.09975531
v 0.00623613 0.07205275 0.09133121
v 0.00562158 0.07619347 0.07911614
v 0.00693729 0.08319791 0.07911614
v 0.00627277 0.08353344 0.07911614
v 0.00551000 0.08394395 0.07985762
v 0.00562158 0.08387881 0.08114127
v 0.00689898 0.08322618 0.08243564
v 0.00704221 0.08315612 0.08106198
v 0.00686900 0.08316350 0.08502438
v 0.00674243 0.08305411 0.08631874
v 0.00562158 0.08347568 0.08631874
v 0.00613287 0.08272595 0.08819172
v 0.00562158 0.08163454 0.09130977
v 0.00494208 0.08145141 0.09212411
v 0.00351312 0.07753438 0.09727373
v 0.00264875 0.07763393 0.09737873
v 0.00306178 0.07703292 0.09776019
v 0.00199756 0.07619470 0.09855952
v 0.00303347 0.07604475 0.09847166
v 0.00432753 0.07583213 0.09834737
v 0.00562158 0.07258371 0.10001462
v 0.00562158 0.07205275 0.10031892
v 0.00593635 0.07205275 0.10025249
v 0.00173941 0.08130392 0.09322990
v 0.00407937 0.08153253 0.09225912
v 0.00303347 0.08162962 0.09241770
v 0.00173941 0.08065620 0.09401209
v 0.00233065 0.07886054 0.09601150
v 0.00306178 0.07805919 0.09677227
v 0.00562158 0.07205275 0.09129692
v 0.00489211 0.07618118 0.07911614
v 0.00551000 0.08388987 0.07911614
v 0.00495207 0.08404228 0.08029693
v 0.00505866 0.08403121 0.07911614
v 0.00500370 0.08405211 0.07917186
v 0.00500370 0.08405211 0.07943545
v 0.00303347 0.08436061 0.08114127
v 0.00562158 0.08381736 0.08243564
v 0.00562158 0.08369076 0.08502438
v 0.00361138 0.08403367 0.08541654
v 0.00274868 0.08411110 0.08594801
v 0.00312174 0.08394026 0.08635518
v 0.00208083 0.08400663 0.08680949
v 0.00303347 0.08354942 0.08761311
v 0.00432753 0.08329501 0.08761311
v 0.00566988 0.08300126 0.08770098
v 0.00303347 0.08204873 0.09149193
v 0.00183601 0.07845372 0.09658154
v 0.00173941 0.07771136 0.09746017
v 0.00163449 0.07680554 0.09817807
v 0.00113652 0.07629179 0.09861524
v 0.00163449 0.07571291 0.09888954
v 0.00173941 0.07447032 0.09960316
v 0.00173941 0.07304706 0.10043464
v 0.00250053 0.07373165 0.09992675
v 0.00303347 0.07539827 0.09885097
v 0.00297351 0.07311466 0.10019891
v 0.00328995 0.07205275 0.10075180
v 0.00044702 0.08128303 0.09319990
v 0.00044702 0.08063531 0.09399066
v 0.00082008 0.07892814 0.09609079
v 0.00173941 0.08173041 0.09258271
v 0.00044702 0.08171197 0.09255271
v 0.00173941 0.08225153 0.09149193
v 0.00146795 0.07892814 0.09609079
v 0.00173941 0.08010558 0.09465927
v 0.00183601 0.07937552 0.09549933
v 0.00508031 0.07205275 0.09129049
v 0.00432753 0.07617258 0.07911614
v 0.00303347 0.08440977 0.07984690
v 0.00491876 0.08405703 0.07911614
v 0.00246888 0.08443558 0.07911614
v 0.00173941 0.08454742 0.07911614
v 0.00173941 0.08460887 0.07984690
v 0.00173941 0.08455849 0.08114127
v 0.00312174 0.08414306 0.08500080
v 0.00422760 0.08394395 0.08500080
v 0.00173941 0.08435200 0.08502438
v 0.00168612 0.08416518 0.08635518
v 0.00121979 0.08406194 0.08700664
v 0.00168612 0.08380753 0.08750811
v 0.00267540 0.08280830 0.08969824
v 0.00044702 0.07769170 0.09743874
v 0.00106491 0.07629179 0.09861524
v 0.00173442 0.07205275 0.10100896
v 0.00173941 0.07205644 0.10100682
v 0.00302514 0.07205275 0.10079895
v -0.00350509 0.08063408 0.09289988
v -0.00398308 0.08014000 0.09340562
v -0.00312037 0.08023832 0.09352349
v -0.00214109 0.08034771 0.09365421
v -0.00084703 0.08049274 0.09382351
v -0.00084703 0.08159398 0.09236199
v -0.00177968 0.08150918 0.09222269
v -0.00218272 0.08106917 0.09270701
v -0.00084703 0.07994826 0.09447069
v -0.00343514 0.07782567 0.09631795
v -0.00214109 0.07796701 0.09648082
v 0.00044702 0.08008592 0.09463784
v -0.00084703 0.07875115 0.09588292
v -0.00080373 0.07801740 0.09675512
v 0.00041205 0.07842299 0.09658154
v 0.00044702 0.08221712 0.09149193
v 0.00173941 0.08325691 0.08890534
v 0.00100995 0.08406194 0.08700664
v 0.00432753 0.07205275 0.09128192
v 0.00359806 0.07617380 0.07911614
v 0.00303347 0.07205275 0.09128406
v 0.00120314 0.07205275 0.09128834
v -0.00138331 0.07205275 0.09129477
v -0.00214109 0.07205275 0.09129692
v 0.00117649 0.08453144 0.07911614
v 0.00044702 0.08457078 0.07984690
v 0.00044702 0.08452284 0.08114127
v 0.00044702 0.08431636 0.08502438
v 0.00052530 0.08415043 0.08629303
v -0.00034407 0.07760689 0.09734873
v -0.00343514 0.07658185 0.09754374
v 0.00055861 0.07680554 0.09814592
v 0.00020220 0.07615537 0.09853595
v 0.00055861 0.07568832 0.09887668
v 0.00044702 0.07444328 0.09958602
v 0.00044702 0.07379556 0.09996532
v 0.00044702 0.07304706 0.10040250
v 0.00044702 0.07205275 0.10097467
v -0.00264239 0.08142805 0.09207054
v -0.00343514 0.08134202 0.09188195
v -0.00350509 0.07974670 0.09400566
v -0.00440610 0.08047061 0.09254200
v -0.00414463 0.07891708 0.09478571
v -0.00343514 0.07901417 0.09489929
v -0.00214109 0.07980569 0.09430140
v -0.00423123 0.07769416 0.09616366
v -0.00343514 0.07722957 0.09696514
v -0.00214109 0.07739058 0.09712800
v -0.00120677 0.07750611 0.09724372
v -0.00218272 0.08170583 0.09158194
v 0.00044702 0.08261042 0.09048044
v 0.00014724 0.08398082 0.08670663
v -0.00214109 0.08365512 0.08631874
v -0.00342515 0.08296316 0.08766669
v -0.00214109 0.08323478 0.08761311
v -0.00084703 0.08348182 0.08761311
v -0.00125007 0.08270751 0.08943680
v -0.00038570 0.08278617 0.08964038
v 0.00044702 0.08322249 0.08890534
v 0.00044702 0.08286114 0.08983539
v 0.00044702 0.07618241 0.07911614
v -0.00343348 0.07205275 0.09133335
v -0.00214109 0.07618978 0.07911614
v 0.00044702 0.08450932 0.07911614
v -0.00084703 0.08433725 0.07984690
v -0.00084703 0.08429301 0.08114127
v -0.00187295 0.08411479 0.07911614
v -0.00155818 0.08405825 0.08329498
v -0.00214109 0.08386406 0.08502438
v -0.00043233 0.08408652 0.08584300
v -0.00424289 0.07642822 0.09742802
v -0.00373992 0.07487837 0.09854452
v -0.00335853 0.07552240 0.09823593
v -0.00214109 0.07578173 0.09831522
v -0.00084703 0.07598945 0.09843737
v -0.00343514 0.07318595 0.09960530
v -0.00343514 0.07253823 0.09998675
v -0.00214109 0.07274348 0.10010676
v -0.00304210 0.07205275 0.10033392
v -0.00343514 0.08160873 0.09123477
v -0.00416628 0.08151778 0.09100119
v -0.00471754 0.08078894 0.09144050
v -0.00526881 0.08001586 0.09187767
v -0.00534042 0.07882121 0.09336919
v -0.00507228 0.07853484 0.09408067
v -0.00509393 0.07726275 0.09563434
v -0.00442442 0.07921082 0.09408067
v -0.00466758 0.07684610 0.09658583
v -0.00085702 0.08389847 0.08629303
v -0.00343514 0.08339333 0.08631874
v -0.00384818 0.08269768 0.08813386
v -0.00298547 0.08278986 0.08835887
v -0.00214109 0.08287098 0.08857103
v -0.00214109 0.08262393 0.08921821
v -0.00403138 0.07205275 0.09138050
v -0.00325861 0.07622543 0.07911614
v -0.00197621 0.08413323 0.07984690
v -0.00185463 0.08411110 0.08114127
v -0.00167809 0.08407914 0.08243564
v -0.00240589 0.08399066 0.07911614
v -0.00262240 0.08401646 0.07984690
v -0.00232429 0.08396238 0.08243564
v -0.00204949 0.08394764 0.08372786
v -0.00343514 0.08359367 0.08502438
v -0.00250083 0.08399434 0.08114127
v -0.00546533 0.07639995 0.09614651
v -0.00517221 0.07563548 0.09708514
v -0.00537539 0.07498653 0.09731444
v -0.00452601 0.07563548 0.09767446
v -0.00434781 0.07401557 0.09880168
v -0.00410632 0.07242270 0.09991818
v -0.00343514 0.07205275 0.10026106
v -0.00433782 0.08166281 0.09019756
v -0.00498568 0.08104582 0.09019756
v -0.00422290 0.08286483 0.08727238
v -0.00544701 0.08024447 0.09101619
v -0.00558191 0.07915306 0.09250771
v -0.00668277 0.07888512 0.09086832
v -0.00651956 0.07736723 0.09316132
v -0.00659117 0.07616889 0.09458855
v -0.00565686 0.07687069 0.09527217
v -0.00540204 0.07761181 0.09477071
v -0.00438112 0.08300126 0.08631874
v -0.00472920 0.07205275 0.09144693
v -0.00352175 0.07624263 0.07911614
v -0.00343514 0.08373870 0.07911614
v -0.00343514 0.08380753 0.07984690
v -0.00343514 0.08376942 0.08114127
v -0.00447772 0.08309467 0.08502438
v -0.00343514 0.08365266 0.08373001
v -0.00570515 0.07563548 0.09643796
v -0.00636800 0.07569693 0.09543289
v -0.00658784 0.07482552 0.09590435
v -0.00609154 0.07447401 0.09675298
v -0.00645794 0.07327690 0.09705514
v -0.00667778 0.07241410 0.09732516
v -0.00621978 0.07205275 0.09810306
v -0.00558691 0.07205275 0.09885954
v -0.00545700 0.07255544 0.09870524
v -0.00521051 0.07341824 0.09844166
v -0.00492572 0.07205275 0.09949172
v -0.00460929 0.07205275 0.09974245
v -0.00425288 0.07205275 0.10002319
v -0.00558358 0.08039933 0.09019756
v -0.00521551 0.08127442 0.08890534
v -0.00502898 0.08235477 0.08631874
v -0.00644461 0.07855942 0.09173194
v -0.00674440 0.07899205 0.09019756
v -0.00678936 0.07816612 0.09137835
v -0.00674273 0.07769785 0.09229769
v -0.00533709 0.08141208 0.08812100
v -0.00577510 0.08062794 0.08890534
v -0.00601326 0.08079632 0.08756811
v -0.00668277 0.08018055 0.08701736
v -0.00682933 0.07530609 0.09504073
v -0.00679436 0.07650442 0.09372707
v -0.00512391 0.08247030 0.08502438
v -0.00570682 0.07205275 0.09184124
v -0.00472920 0.07637045 0.07911614
v -0.00443608 0.07633850 0.07911614
v -0.00448105 0.08315243 0.07911614
v -0.00451935 0.08319053 0.07984690
v -0.00451935 0.08317456 0.08114127
v -0.00450769 0.08314752 0.08243564
v -0.00678437 0.07396272 0.09619151
v -0.00674773 0.07205275 0.09743874
v -0.00559024 0.08170705 0.08631874
v -0.00546033 0.08155711 0.08725952
v -0.00570016 0.08182259 0.08502438
v -0.00690928 0.07822388 0.09019756
v -0.00679602 0.07914322 0.08890534
v -0.00686764 0.07693337 0.09275201
v -0.00623810 0.08088604 0.08631874
v -0.00634802 0.08092537 0.08502438
v -0.00671109 0.08023955 0.08631874
v -0.00693259 0.07569693 0.09412781
v -0.00693592 0.07437322 0.09543289
v -0.00513890 0.08249243 0.08373001
v -0.00572681 0.08184594 0.08373001
v -0.00629805 0.07205275 0.09237056
v -0.00528379 0.07664085 0.07911614
v -0.00686264 0.07205275 0.09305203
v -0.00512891 0.08247153 0.07911614
v -0.00516721 0.08251455 0.07984690
v -0.00516721 0.08251701 0.08114127
v -0.00515389 0.08250717 0.08243564
v -0.00702586 0.07205275 0.09666297
v -0.00685265 0.07292662 0.09664154
v -0.00700587 0.07692968 0.09149193
v -0.00694592 0.07822388 0.08890534
v -0.00672275 0.08027888 0.08502438
v -0.00573513 0.08185946 0.08243564
v -0.00574179 0.08187052 0.08114127
v -0.00637467 0.08088850 0.08373001
v -0.00708915 0.07563548 0.09278630
v -0.00715743 0.07434127 0.09408067
v -0.00715410 0.07304706 0.09537503
v -0.00582673 0.07693828 0.07911614
v -0.00712745 0.07205275 0.09408067
v -0.00612818 0.07750242 0.07911614
v -0.00537873 0.08219007 0.07911614
v -0.00573846 0.08186806 0.07984690
v -0.00570182 0.08182504 0.07911614
v -0.00721239 0.07205275 0.09537503
v -0.00679936 0.07951686 0.08502438
v -0.00691594 0.07822388 0.08761311
v -0.00702086 0.07692968 0.09019756
v -0.00637300 0.08081106 0.08114127
v -0.00634635 0.08081106 0.07984690
v -0.00670109 0.08024078 0.08373001
v -0.00708415 0.07563548 0.09149193
v -0.00718907 0.07304706 0.09408067
v -0.00654454 0.07878680 0.07911614
v -0.00649291 0.07822388 0.07911614
v -0.00602825 0.08127197 0.07911614
v -0.00629472 0.08081106 0.07911614
v -0.00688096 0.07822388 0.08631874
v -0.00668277 0.08019899 0.08272709
v -0.00666778 0.08008837 0.08186346
v -0.00675605 0.07951686 0.08373001
v -0.00668444 0.07877327 0.08143915
v -0.00658451 0.07951686 0.07911614
v -0.00646793 0.08008100 0.07911614
v -0.00668444 0.07922557 0.08143915
v -0.00661449 0.07951686 0.07984690
f 1 2 9
f 1 9 20
f 1 20 38
f 1 38 57
f 1 57 81
f 1 81 80
f 1 80 79
f 1 79 109
f 1 109 133
f 1 133 132
f 1 132 156
f 1 156 155
f 1 155 191
f 1 191 220
f 1 220 218
f 1 218 258
f 1 258 299
f 1 299 332
f 1 332 363
f 1 363 362
f 1 362 361
f 1 361 358
f 1 358 357
f 1 357 386
f 1 386 407
f 1 407 424
f 1 424 419
f 1 419 402
f 1 402 400
f 1 400 378
f 1 378 344
f 1 344 315
f 1 315 282
f 1 282 244
f 1 244 243
f 1 243 242
f 1 242 241
f 1 241 239
f 1 239 201
f 1 201 163
f 1 163 134
f 1 134 110
f 1 110 82
f 1 82 58
f 1 58 39
f 1 39 21
f 1 21 10
f 1 10 3
f 1 3 4
f 1 4 5
f 1 5 6
f 1 6 7
f 1 7 2
f 2 7 8
f 2 8 9
f 3 10 11
f 3 11 4
f 4 11 22
f 4 22 40
f 4 40 60
f 4 60 59
f 4 59 83
f 4 83 111
f 4 111 135
f 4 135 164
f 4 164 202
f 4 202 240
f 4 240 281
f 4 281 283
f 4 283 316
f 4 316 345
f 4 345 380
f 4 380 379
f 4 379 401
f 4 401 418
f 4 418 420
f 4 420 434
f 4 434 433
f 4 433 442
f 4 442 443
f 4 443 436
f 4 436 435
f 4 435 423
f 4 423 421
f 4 421 403
f 4 403 381
f 4 381 346
f 4 346 320
f 4 320 287
f 4 287 284
f 4 284 245
f 4 245 206
f 4 206 205
f 4 205 204
f 4 204 167
f 4 167 165
f 4 165 137
f 4 137 136
f 4 136 113
f 4 113 112
f 4 112 85
f 4 85 84
f 4 84 61
f 4 61 41
f 4 41 24
f 4 24 12
f 4 12 5
f 5 12 13
f 5 13 14
f 5 14 6
f 6 15 7
f 6 14 15
f 7 16 17
f 7 17 18
f 7 18 8
f 7 15 19
f 7 19 16
f 8 18 9
f 9 18 20
f 10 21 11
f 11 21 22
f 12 23 13
f 12 24 25
f 12 25 23
f 13 23 14
f 14 23 25
f 14 25 26
f 14 26 27
f 14 27 19
f 14 19 15
f 16 28 17
f 16 19 28
f 17 29 30
f 17 30 18
f 17 28 31
f 17 31 32
f 17 32 33
f 17 33 29
f 18 30 34
f 18 34 35
f 18 35 36
f 18 36 20
f 19 27 37
f 19 37 28
f 20 36 38
f 21 39 40
f 21 40 22
f 24 41 42
f 24 42 25
f 25 42 26
f 26 42 43
f 26 43 44
f 26 44 45
f 26 45 46
f 26 46 37
f 26 37 27
f 28 37 31
f 29 33 47
f 29 47 30
f 30 47 48
f 30 48 34
f 31 49 32
f 31 37 46
f 31 46 50
f 31 50 49
f 32 49 51
f 32 51 33
f 33 51 52
f 33 52 47
f 34 48 53
f 34 53 54
f 34 54 55
f 34 55 56
f 34 56 35
f 35 56 57
f 35 57 38
f 35 38 36
f 39 58 59
f 39 59 60
f 39 60 40
f 41 61 62
f 41 62 42
f 42 62 43
f 43 62 44
f 44 62 45
f 45 62 63
f 45 63 64
f 45 64 65
f 45 65 50
f 45 50 46
f 47 66 53
f 47 53 48
f 47 52 67
f 47 67 66
f 49 50 68
f 49 68 69
f 49 69 70
f 49 70 71
f 49 71 51
f 50 65 72
f 50 72 68
f 51 71 73
f 51 73 67
f 51 67 52
f 53 74 54
f 53 66 75
f 53 75 76
f 53 76 74
f 54 74 55
f 55 74 77
f 55 77 78
f 55 78 79
f 55 79 80
f 55 80 81
f 55 81 56
f 56 81 57
f 58 82 59
f 59 82 83
f 61 84 62
f 62 84 85
f 62 85 86
f 62 86 87
f 62 87 63
f 63 87 88
f 63 88 64
f 64 89 90
f 64 90 65
f 64 88 91
f 64 91 89
f 65 90 92
f 65 92 72
f 66 67 75
f 67 73 93
f 67 93 94
f 67 94 95
f 67 95 96
f 67 96 97
f 67 97 76
f 67 76 75
f 68 72 69
f 69 72 92
f 69 92 70
f 70 92 98
f 70 98 71
f 71 98 99
f 71 99 100
f 71 100 73
f 73 100 101
f 73 101 93
f 74 102 103
f 74 103 77
f 74 76 104
f 74 104 102
f 76 97 105
f 76 105 106
f 76 106 107
f 76 107 104
f 77 103 108
f 77 108 109
f 77 109 79
f 77 79 78
f 82 110 83
f 83 110 111
f 85 112 86
f 86 112 113
f 86 113 114
f 86 114 115
f 86 115 87
f 87 115 116
f 87 116 88
f 88 116 91
f 89 117 90
f 89 91 116
f 89 116 117
f 90 117 92
f 92 117 118
f 92 118 98
f 93 101 119
f 93 119 120
f 93 120 121
f 93 121 94
f 94 121 95
f 95 121 122
f 95 122 105
f 95 105 96
f 96 105 97
f 98 118 99
f 99 118 101
f 99 101 100
f 101 118 119
f 102 104 107
f 102 107 123
f 102 123 124
f 102 124 125
f 102 125 126
f 102 126 127
f 102 127 103
f 103 127 108
f 105 122 128
f 105 128 129
f 105 129 130
f 105 130 131
f 105 131 106
f 106 131 107
f 107 131 123
f 108 127 132
f 108 132 133
f 108 133 109
f 110 134 135
f 110 135 111
f 113 136 114
f 114 136 137
f 114 137 138
f 114 138 139
f 114 139 140
f 114 140 141
f 114 141 116
f 114 116 115
f 116 141 117
f 117 142 118
f 117 141 140
f 117 140 142
f 118 142 143
f 118 143 119
f 119 143 144
f 119 144 145
f 119 145 121
f 119 121 120
f 121 146 122
f 121 145 146
f 122 147 128
f 122 146 147
f 123 148 124
f 123 131 148
f 124 148 149
f 124 149 150
f 124 150 151
f 124 151 152
f 124 152 153
f 124 153 125
f 125 153 152
f 125 152 126
f 126 152 154
f 126 154 127
f 127 154 155
f 127 155 156
f 127 156 132
f 128 147 129
f 129 157 130
f 129 147 158
f 129 158 159
f 129 159 157
f 130 157 160
f 130 160 161
f 130 161 149
f 130 149 162
f 130 162 131
f 131 162 148
f 134 163 135
f 135 163 164
f 137 165 138
f 138 166 139
f 138 165 167
f 138 167 168
f 138 168 169
f 138 169 166
f 139 166 170
f 139 170 171
f 139 171 142
f 139 142 140
f 142 172 143
f 142 171 172
f 143 172 144
f 144 172 173
f 144 173 174
f 144 174 175
f 144 175 176
f 144 176 177
f 144 177 178
f 144 178 179
f 144 179 145
f 145 179 177
f 145 177 146
f 146 177 147
f 147 180 158
f 147 177 180
f 148 162 149
f 149 161 181
f 149 181 182
f 149 182 183
f 149 183 150
f 150 183 151
f 151 183 184
f 151 184 185
f 151 185 186
f 151 186 187
f 151 187 188
f 151 188 152
f 152 188 189
f 152 189 154
f 154 188 190
f 154 190 191
f 154 191 155
f 154 189 188
f 157 192 193
f 157 193 194
f 157 194 160
f 157 159 195
f 157 195 196
f 157 196 192
f 158 180 159
f 159 180 197
f 159 197 195
f 160 194 198
f 160 198 199
f 160 199 200
f 160 200 161
f 161 200 181
f 163 201 202
f 163 202 164
f 166 169 203
f 166 203 170
f 167 204 168
f 168 204 205
f 168 205 206
f 168 206 207
f 168 207 203
f 168 203 169
f 170 203 207
f 170 207 208
f 170 208 209
f 170 209 173
f 170 173 210
f 170 210 172
f 170 172 171
f 172 210 173
f 173 209 211
f 173 211 174
f 174 211 212
f 174 212 176
f 174 176 175
f 176 212 213
f 176 213 214
f 176 214 177
f 177 179 178
f 177 214 215
f 177 215 180
f 180 215 197
f 181 198 182
f 181 200 198
f 182 198 194
f 182 194 216
f 182 216 217
f 182 217 184
f 182 184 183
f 184 217 218
f 184 218 219
f 184 219 187
f 184 187 186
f 184 186 185
f 187 219 188
f 188 219 220
f 188 220 190
f 190 220 191
f 192 221 222
f 192 222 223
f 192 223 224
f 192 224 225
f 192 225 193
f 192 196 226
f 192 226 227
f 192 227 228
f 192 228 221
f 193 225 229
f 193 229 230
f 193 230 231
f 193 231 232
f 193 232 194
f 194 232 233
f 194 233 234
f 194 234 235
f 194 235 216
f 195 197 196
f 196 197 236
f 196 236 226
f 197 215 237
f 197 237 214
f 197 214 213
f 197 213 238
f 197 238 236
f 198 200 199
f 201 239 202
f 202 239 241
f 202 241 242
f 202 242 243
f 202 243 244
f 202 244 240
f 206 245 207
f 207 245 246
f 207 246 247
f 207 247 208
f 208 247 248
f 208 248 211
f 208 211 209
f 211 248 249
f 211 249 238
f 211 238 212
f 212 238 213
f 214 237 215
f 216 235 250
f 216 250 251
f 216 251 252
f 216 252 217
f 217 252 251
f 217 251 253
f 217 253 254
f 217 254 255
f 217 255 256
f 217 256 257
f 217 257 258
f 217 258 218
f 218 220 219
f 221 228 259
f 221 259 260
f 221 260 222
f 222 261 223
f 222 260 262
f 222 262 263
f 222 263 230
f 222 230 264
f 222 264 261
f 223 261 264
f 223 264 230
f 223 230 265
f 223 265 224
f 224 265 225
f 225 265 230
f 225 230 229
f 226 236 227
f 227 259 228
f 227 236 259
f 230 263 266
f 230 266 267
f 230 267 268
f 230 268 269
f 230 269 250
f 230 250 231
f 231 250 234
f 231 234 233
f 231 233 232
f 234 250 235
f 236 270 259
f 236 238 271
f 236 271 270
f 238 249 272
f 238 272 273
f 238 273 274
f 238 274 275
f 238 275 276
f 238 276 277
f 238 277 270
f 238 270 278
f 238 278 279
f 238 279 280
f 238 280 271
f 240 244 281
f 244 282 283
f 244 283 281
f 245 284 246
f 246 285 286
f 246 286 247
f 246 284 287
f 246 287 285
f 247 286 288
f 247 288 248
f 248 289 290
f 248 290 249
f 248 288 289
f 249 290 272
f 250 269 251
f 251 269 268
f 251 268 267
f 251 267 291
f 251 291 292
f 251 292 293
f 251 293 294
f 251 294 295
f 251 295 253
f 253 295 296
f 253 296 297
f 253 297 298
f 253 298 254
f 254 298 255
f 255 298 256
f 256 298 257
f 257 298 258
f 258 298 297
f 258 297 299
f 259 270 300
f 259 300 260
f 260 300 301
f 260 301 262
f 262 301 302
f 262 302 303
f 262 303 304
f 262 304 305
f 262 305 306
f 262 306 307
f 262 307 263
f 263 306 266
f 263 307 306
f 266 308 291
f 266 291 267
f 266 306 308
f 270 271 278
f 270 277 300
f 271 280 278
f 272 290 309
f 272 309 273
f 273 309 290
f 273 290 310
f 273 310 274
f 274 311 300
f 274 300 312
f 274 312 275
f 274 310 311
f 275 312 313
f 275 313 276
f 276 313 314
f 276 314 300
f 276 300 277
f 278 280 279
f 282 315 283
f 283 315 316
f 285 317 318
f 285 318 286
f 285 287 317
f 286 318 319
f 286 319 288
f 287 320 321
f 287 321 317
f 288 319 322
f 288 322 323
f 288 323 289
f 289 324 310
f 289 310 290
f 289 323 322
f 289 322 325
f 289 325 324
f 291 308 326
f 291 326 327
f 291 327 328
f 291 328 329
f 291 329 330
f 291 330 331
f 291 331 292
f 292 331 296
f 292 296 294
f 292 294 293
f 294 296 295
f 296 331 297
f 297 331 332
f 297 332 299
f 300 314 313
f 300 313 312
f 300 311 301
f 301 333 334
f 301 334 302
f 301 311 335
f 301 335 333
f 302 334 336
f 302 336 303
f 303 337 304
f 303 336 338
f 303 338 337
f 304 337 339
f 304 339 340
f 304 340 341
f 304 341 342
f 304 342 306
f 304 306 305
f 306 342 326
f 306 326 308
f 310 343 335
f 310 335 311
f 310 324 343
f 315 344 316
f 316 344 345
f 317 321 325
f 317 325 318
f 318 325 322
f 318 322 319
f 320 346 321
f 321 347 348
f 321 348 325
f 321 346 347
f 324 349 343
f 324 325 350
f 324 350 349
f 325 348 350
f 326 351 327
f 326 342 341
f 326 341 340
f 326 340 352
f 326 352 353
f 326 353 351
f 327 351 328
f 328 351 353
f 328 353 354
f 328 354 355
f 328 355 356
f 328 356 357
f 328 357 358
f 328 358 359
f 328 359 360
f 328 360 329
f 329 360 330
f 330 360 361
f 330 361 362
f 330 362 363
f 330 363 331
f 331 363 332
f 333 335 334
f 334 364 336
f 334 335 365
f 334 365 364
f 335 343 366
f 335 366 365
f 336 364 338
f 337 338 367
f 337 367 339
f 338 368 369
f 338 369 370
f 338 370 340
f 338 340 339
f 338 339 367
f 338 364 371
f 338 371 372
f 338 372 373
f 338 373 374
f 338 374 368
f 340 375 352
f 340 370 376
f 340 376 375
f 343 349 377
f 343 377 366
f 344 378 379
f 344 379 380
f 344 380 345
f 346 381 347
f 347 382 383
f 347 383 384
f 347 384 349
f 347 349 348
f 347 381 382
f 348 349 350
f 349 384 377
f 352 375 353
f 353 375 385
f 353 385 356
f 353 356 355
f 353 355 354
f 356 385 386
f 356 386 357
f 358 361 359
f 359 361 360
f 364 365 371
f 365 366 371
f 366 387 388
f 366 388 371
f 366 377 389
f 366 389 387
f 368 390 369
f 368 374 391
f 368 391 390
f 369 390 392
f 369 392 370
f 370 392 376
f 371 388 372
f 372 388 373
f 373 388 374
f 374 388 387
f 374 387 393
f 374 393 389
f 374 389 394
f 374 394 395
f 374 395 391
f 375 376 396
f 375 396 397
f 375 397 385
f 376 392 396
f 377 384 383
f 377 383 398
f 377 398 399
f 377 399 389
f 378 400 379
f 379 400 402
f 379 402 401
f 381 403 404
f 381 404 382
f 382 404 405
f 382 405 383
f 383 405 406
f 383 406 398
f 385 407 408
f 385 408 386
f 385 397 407
f 386 408 407
f 387 389 393
f 389 399 394
f 390 409 392
f 390 391 395
f 390 395 410
f 390 410 409
f 392 409 396
f 394 411 395
f 394 399 412
f 394 412 413
f 394 413 414
f 394 414 411
f 395 411 410
f 396 409 415
f 396 415 416
f 396 416 397
f 397 416 417
f 397 417 407
f 398 406 399
f 399 406 405
f 399 405 412
f 401 402 418
f 402 419 420
f 402 420 418
f 403 421 404
f 404 422 413
f 404 413 405
f 404 421 423
f 404 423 422
f 405 413 412
f 407 417 424
f 409 410 415
f 410 411 425
f 410 425 426
f 410 426 427
f 410 427 415
f 411 414 428
f 411 428 429
f 411 429 430
f 411 430 425
f 413 422 414
f 414 422 428
f 415 427 416
f 416 427 431
f 416 431 432
f 416 432 424
f 416 424 417
f 419 424 432
f 419 432 433
f 419 433 434
f 419 434 420
f 422 429 428
f 422 423 435
f 422 435 436
f 422 436 429
f 425 437 426
f 425 430 438
f 425 438 439
f 425 439 440
f 425 440 437
f 426 437 427
f 427 437 431
f 429 436 439
f 429 439 438
f 429 438 430
f 431 437 432
f 432 437 441
f 432 441 442
f 432 442 433
f 436 443 439
f 437 440 444
f 437 444 441
f 439 444 440
f 439 443 442
f 439 442 445
f 439 445 444
f 441 444 442
f 442 444 445

