# https://github.com/mikedh/trimesh
v 0.01005048 0.04198456 0.10964489
v 0.00432758 0.04327946 0.10945935
v 0.00303415 0.04327946 0.10952635
v 0.00173898 0.04327946 0.10958304
v 0.00950478 0.04198456 0.10966035
v 0.01005048 0.04069179 0.10951088
v 0.01005048 0.04303939 0.10920680
v 0.00950478 0.04308400 0.10922742
v 0.00821135 0.04316899 0.10927380
v 0.00562275 0.04327946 0.10938204
v 0.00630141 0.04392850 0.10896457
v 0.00303415 0.04407722 0.10907280
v 0.00173898 0.04414202 0.10910888
v 0.00044727 0.04413671 0.10910888
v 0.00044727 0.04327946 0.10957789
v -0.00731853 0.04198456 0.10966035
v -0.00602336 0.04198456 0.10966550
v 0.00691618 0.04198456 0.10967066
v 0.00821135 0.04198456 0.10966550
v -0.00759137 0.04171262 0.10963973
v -0.00759137 0.04069179 0.10947996
v -0.00759137 0.04050589 0.10938204
v 0.01005048 0.03988978 0.10906764
v 0.01005048 0.04371074 0.10850586
v 0.00950478 0.04373092 0.10865017
v 0.00821135 0.04381697 0.10880995
v 0.00716485 0.04388070 0.10890272
v 0.00680566 0.04338144 0.10924803
v 0.00173898 0.04469334 0.10831516
v 0.00044727 0.04468378 0.10831516
v -0.00411861 0.04392850 0.10896457
v -0.00214133 0.04327946 0.10945419
v -0.00084616 0.04327946 0.10952119
v -0.00759137 0.04198456 0.10965004
v -0.00759137 0.03992271 0.10904703
v -0.00759137 0.03979736 0.10887179
v 0.01005048 0.03939264 0.10827908
v 0.01005048 0.04386477 0.10820693
v 0.00950478 0.04403898 0.10800077
v 0.00821135 0.04411334 0.10816054
v 0.00182705 0.04514055 0.10700606
v 0.00038856 0.04513311 0.10700606
v -0.00602336 0.04382334 0.10882025
v -0.00498205 0.04388283 0.10890787
v -0.00602336 0.04412077 0.10817601
v -0.00731853 0.04309569 0.10923772
v -0.00462286 0.04338250 0.10924803
v -0.00343476 0.04327946 0.10937688
v -0.00759137 0.04286199 0.10932019
v -0.00759137 0.03947018 0.10829970
v 0.01005048 0.03913557 0.10748538
v 0.01005048 0.04400499 0.10790800
v 0.00303415 0.04501095 0.10702152
v 0.00145577 0.04525421 0.10656281
v 0.00078056 0.04525421 0.10656281
v 0.00562102 0.04626443 0.09914110
v -0.00472993 0.04457542 0.10702152
v -0.00214133 0.04485586 0.10702152
v -0.00084616 0.04499608 0.10702152
v -0.00731853 0.04404960 0.10802654
v -0.00335878 0.04626443 0.09908440
v -0.00731853 0.04374261 0.10867594
v -0.00759137 0.04358115 0.10877902
v -0.00759137 0.04307020 0.10922226
v -0.00602336 0.04317642 0.10927380
v -0.00759137 0.03905802 0.10702152
v 0.01005048 0.03900491 0.10702152
v 0.01005048 0.04419513 0.10705760
v 0.00950478 0.04427162 0.10702152
v 0.00802830 0.04626443 0.09780622
v 0.00177352 0.04626443 0.10045536
v 0.00047145 0.04626443 0.10043990
v -0.00731853 0.04429286 0.10702152
v -0.00759137 0.04403154 0.10798016
v -0.00557092 0.04626443 0.09749698
v -0.00759137 0.04372880 0.10859863
v -0.00759137 0.03882539 0.10568148
v 0.01005048 0.03888594 0.10631542
v 0.01005048 0.04430349 0.10647520
v 0.00813536 0.04626443 0.09759491
v 0.01005048 0.04443946 0.10572787
v -0.00759137 0.04448938 0.10572787
v -0.00759137 0.04425037 0.10703698
v -0.00759137 0.04420576 0.10725345
v -0.00596119 0.04626443 0.09676512
v -0.00759137 0.03875103 0.10499085
v 0.01005048 0.03872978 0.10518671
v 0.00929410 0.04626443 0.09520347
v 0.01005048 0.04626443 0.09262133
v 0.01001249 0.04626443 0.09279141
v 0.00970856 0.04626443 0.09386343
v 0.00938735 0.04626443 0.09499215
v -0.00759137 0.04467209 0.10443423
v -0.00719074 0.04626443 0.09408506
v 0.01005048 0.03865968 0.10443423
v -0.00759137 0.03871279 0.10443423
v 0.01005048 0.04626443 0.08399874
v -0.00759137 0.04626443 0.09279141
v 0.01005048 0.03541340 0.05702286
v -0.00759137 0.03549413 0.05702286
v 0.00996241 0.04626443 0.08365342
v 0.01005048 0.04389239 0.06486204
v -0.00759137 0.04626443 0.08378227
v 0.01005048 0.04281525 0.05702286
v -0.00759137 0.04287899 0.05702286
v 0.00993823 0.04626443 0.08359672
v 0.01005048 0.04293635 0.05784749
v 0.00898154 0.04626443 0.08162276
v 0.00941498 0.04626443 0.08240616
v -0.00720455 0.04626443 0.08267932
v -0.00759137 0.04385096 0.06457858
v 0.00985189 0.04281738 0.05702286
v 0.01005048 0.04285881 0.05731663
v -0.00753784 0.04288217 0.05702286
v -0.00759137 0.04299265 0.05784749
v 0.00947543 0.04282056 0.05702286
v 0.00950478 0.04293954 0.05784749
v 0.00691618 0.04626443 0.08098882
v 0.00826143 0.04626443 0.08121044
v -0.00712684 0.04626443 0.08254532
v -0.00759137 0.04302877 0.05812065
v -0.00731853 0.04289492 0.05702286
v -0.00731853 0.04300858 0.05784749
v -0.00606999 0.04626443 0.08128259
v -0.00602163 0.04626443 0.08124136
v -0.00599400 0.04626443 0.08122074
v 0.00562275 0.04626443 0.08096305
v -0.00687990 0.04626443 0.08221546
v -0.00472993 0.04626443 0.08091151
v -0.00469193 0.04626443 0.08091151
v -0.00340541 0.04626443 0.08091666
f 1 2 3
f 1 3 4
f 1 4 5
f 1 5 6
f 1 6 23
f 1 23 37
f 1 37 51
f 1 51 67
f 1 67 78
f 1 78 87
f 1 87 95
f 1 95 99
f 1 99 104
f 1 104 113
f 1 113 107
f 1 107 102
f 1 102 97
f 1 97 89
f 1 89 81
f 1 81 79
f 1 79 68
f 1 68 52
f 1 52 38
f 1 38 24
f 1 24 7
f 1 7 8
f 1 8 9
f 1 9 2
f 2 9 10
f 2 10 11
f 2 11 12
f 2 12 13
f 2 13 3
f 3 13 4
f 4 13 14
f 4 14 15
f 4 15 16
f 4 16 17
f 4 17 18
f 4 18 19
f 4 19 5
f 5 19 6
f 6 19 18
f 6 18 20
f 6 20 21
f 6 21 22
f 6 22 23
f 7 24 25
f 7 25 26
f 7 26 27
f 7 27 11
f 7 11 8
f 8 11 9
f 9 11 28
f 9 28 10
f 10 28 11
f 11 27 29
f 11 29 13
f 11 13 12
f 13 29 14
f 14 29 30
f 14 30 31
f 14 31 32
f 14 32 33
f 14 33 15
f 15 33 34
f 15 34 16
f 16 34 20
f 16 20 17
f 17 20 18
f 20 34 49
f 20 49 64
f 20 64 63
f 20 63 76
f 20 76 74
f 20 74 84
f 20 84 83
f 20 83 82
f 20 82 93
f 20 93 98
f 20 98 103
f 20 103 111
f 20 111 121
f 20 121 115
f 20 115 105
f 20 105 100
f 20 100 96
f 20 96 86
f 20 86 77
f 20 77 66
f 20 66 50
f 20 50 36
f 20 36 35
f 20 35 22
f 20 22 21
f 22 35 23
f 23 35 36
f 23 36 37
f 24 38 25
f 25 38 39
f 25 39 26
f 26 39 40
f 26 40 27
f 27 40 29
f 29 40 41
f 29 41 42
f 29 42 30
f 30 43 44
f 30 44 31
f 30 42 45
f 30 45 43
f 31 44 46
f 31 46 47
f 31 47 32
f 32 47 48
f 32 48 46
f 32 46 49
f 32 49 34
f 32 34 33
f 36 50 37
f 37 50 51
f 38 52 39
f 39 52 53
f 39 53 41
f 39 41 40
f 41 54 55
f 41 55 42
f 41 53 56
f 41 56 54
f 42 57 58
f 42 58 59
f 42 59 60
f 42 60 45
f 42 55 61
f 42 61 57
f 43 62 63
f 43 63 64
f 43 64 46
f 43 46 44
f 43 45 60
f 43 60 62
f 46 64 49
f 46 48 65
f 46 65 47
f 47 65 48
f 50 66 51
f 51 66 67
f 52 68 69
f 52 69 53
f 53 69 70
f 53 70 56
f 54 56 71
f 54 71 55
f 55 71 72
f 55 72 61
f 56 70 80
f 56 80 88
f 56 88 92
f 56 92 91
f 56 91 90
f 56 90 89
f 56 89 97
f 56 97 101
f 56 101 106
f 56 106 109
f 56 109 108
f 56 108 119
f 56 119 118
f 56 118 127
f 56 127 131
f 56 131 130
f 56 130 129
f 56 129 126
f 56 126 125
f 56 125 124
f 56 124 128
f 56 128 120
f 56 120 110
f 56 110 103
f 56 103 98
f 56 98 94
f 56 94 85
f 56 85 75
f 56 75 61
f 56 61 72
f 56 72 71
f 57 73 74
f 57 74 58
f 57 61 73
f 58 74 59
f 59 74 60
f 60 74 62
f 61 75 73
f 62 76 63
f 62 74 76
f 66 77 67
f 67 77 78
f 68 79 70
f 68 70 69
f 70 79 81
f 70 81 80
f 73 82 83
f 73 83 84
f 73 84 74
f 73 75 82
f 75 85 82
f 77 86 87
f 77 87 78
f 80 81 88
f 81 89 90
f 81 90 91
f 81 91 92
f 81 92 88
f 82 85 94
f 82 94 93
f 86 95 87
f 86 96 95
f 93 94 98
f 95 96 99
f 96 100 99
f 97 102 101
f 99 100 105
f 99 105 114
f 99 114 122
f 99 122 116
f 99 116 112
f 99 112 104
f 101 102 106
f 102 107 108
f 102 108 109
f 102 109 106
f 103 110 111
f 104 112 113
f 105 115 114
f 107 113 116
f 107 116 117
f 107 117 118
f 107 118 119
f 107 119 108
f 110 120 121
f 110 121 111
f 112 116 113
f 114 115 123
f 114 123 122
f 115 121 124
f 115 124 125
f 115 125 126
f 115 126 123
f 116 122 117
f 117 122 118
f 118 122 127
f 120 128 121
f 121 128 124
f 122 123 129
f 122 129 130
f 122 130 131
f 122 131 127
f 123 126 129

