# https://github.com/mikedh/trimesh
v 0.01005048 0.00560142 0.00224229
v 0.02244679 0.00560142 -0.00069208
v 0.01005048 0.00560142 0.00707455
v 0.01005048 0.01943742 -0.00057563
v 0.02259397 0.00560142 -0.00069621
v 0.01005048 0.01998328 -0.00068051
v 0.01005048 0.02073267 -0.00070199
v 0.02394555 0.00560142 0.00773030
v 0.01005048 0.02156301 0.00773030
v 0.02244679 0.00704238 -0.00070612
v 0.02374032 0.00560142 -0.00068217
v 0.01005048 0.02127621 -0.00068712
v 0.01209442 0.01998328 -0.00070612
v 0.03122579 0.00560142 0.00773030
v 0.01005048 0.02923041 0.00773030
v 0.02115326 0.01092581 -0.00070694
v 0.02244679 0.00833763 -0.00070529
v 0.02388750 0.00560142 -0.00065656
v 0.02374032 0.00574945 -0.00067886
v 0.01080089 0.02127621 -0.00066482
v 0.01005048 0.02202560 -0.00056985
v 0.01468355 0.01868803 -0.00068795
v 0.01597708 0.01739741 -0.00070447
v 0.03119262 0.00560142 0.00765432
v 0.03120506 0.00572170 0.00773030
v 0.01033033 0.02913558 0.00773030
v 0.01079053 0.02874931 0.00732397
v 0.01005048 0.02904306 0.00740738
v 0.01985974 0.01351399 -0.00069043
v 0.02244679 0.00963056 -0.00067308
v 0.01727268 0.01610217 -0.00070447
v 0.01856621 0.01480923 -0.00070364
v 0.02503592 0.00560142 -0.00038155
v 0.02374032 0.00704238 -0.00060784
v 0.01209442 0.02127621 -0.00056076
v 0.01339002 0.01998328 -0.00064252
v 0.01005048 0.02257145 -0.00042697
v 0.01597708 0.01868803 -0.00058967
v 0.01727268 0.01739741 -0.00060619
v 0.03111178 0.00560142 0.00748667
v 0.03110348 0.00574945 0.00751723
v 0.03099569 0.00672551 0.00773030
v 0.01081333 0.02896673 0.00773030
v 0.01121548 0.02830986 0.00686147
v 0.01035106 0.02846713 0.00660545
v 0.01005048 0.02852265 0.00652121
v 0.01186225 0.02857584 0.00772452
v 0.01408861 0.02712794 0.00667813
v 0.01339002 0.02726441 0.00646092
v 0.02115326 0.01222105 -0.00064500
v 0.01985974 0.01480923 -0.00059214
v 0.02244679 0.01092581 -0.00056902
v 0.02374032 0.00833763 -0.00051369
v 0.01856621 0.01610217 -0.00060536
v 0.02514372 0.00560142 -0.00032786
v 0.02503592 0.00574945 -0.00036916
v 0.01080089 0.02257145 -0.00032703
v 0.01339002 0.02127621 -0.00030309
v 0.01468355 0.01998328 -0.00047817
v 0.01005048 0.02317282 -0.00015277
v 0.01600817 0.02004110 -0.00011643
v 0.01737633 0.01879443 -0.00017260
v 0.01866986 0.01749687 -0.00017260
v 0.01996131 0.01620393 -0.00017177
v 0.03083193 0.00560142 0.00691598
v 0.03078632 0.00574945 0.00686973
v 0.03092728 0.00704238 0.00773030
v 0.01186432 0.02857816 0.00773030
v 0.01209649 0.02747026 0.00602237
v 0.01079053 0.02801380 0.00613469
v 0.01166532 0.02718114 0.00531128
v 0.01005048 0.02836305 0.00626931
v 0.01187676 0.02857353 0.00773030
v 0.01458612 0.02727829 0.00746437
v 0.01501730 0.02719964 0.00773030
v 0.01495304 0.02689202 0.00709603
v 0.01569308 0.02602930 0.00639815
v 0.01465038 0.02644100 0.00610661
v 0.01434980 0.02599229 0.00516510
v 0.01335064 0.02616807 0.00475299
v 0.01339002 0.02685733 0.00581342
v 0.01302933 0.02810169 0.00773030
v 0.01422335 0.02757203 0.00773030
v 0.01252767 0.02702155 0.00555492
v 0.02121753 0.01484855 -0.00012222
v 0.02115326 0.01351399 -0.00048808
v 0.02374032 0.00963056 -0.00035429
v 0.02244679 0.01222105 -0.00031217
v 0.02589620 0.00560142 0.00007187
v 0.02588376 0.00574945 0.00008095
v 0.02479961 0.00833763 -0.00003715
v 0.01080089 0.02339255 0.00010903
v 0.01202601 0.02260384 -0.00003963
v 0.01339002 0.02213431 0.00011151
v 0.01456332 0.02124845 0.00003057
v 0.01005048 0.02351745 0.00003057
v 0.01701563 0.01964790 0.00005535
v 0.01559565 0.02079743 0.00012720
v 0.01830709 0.01843361 0.00005370
v 0.01959854 0.01713836 0.00005452
v 0.02082988 0.01584080 0.00005535
v 0.03079669 0.00560142 0.00684826
v 0.03033856 0.00574945 0.00607606
v 0.02966692 0.00670469 0.00526503
v 0.03064329 0.00704238 0.00715218
v 0.03065572 0.00799069 0.00773030
v 0.01080089 0.02733611 0.00509408
v 0.01005048 0.02784033 0.00545747
v 0.01005048 0.02812482 0.00589684
v 0.01289458 0.02586970 0.00404933
v 0.01458197 0.02740781 0.00773030
v 0.01561638 0.02687121 0.00773030
v 0.01719805 0.02598535 0.00773030
v 0.01702600 0.02603624 0.00765019
v 0.01767898 0.02570317 0.00773030
v 0.01655543 0.02576331 0.00678714
v 0.01521216 0.02573324 0.00553510
v 0.01676688 0.02459990 0.00531707
v 0.01474159 0.02543487 0.00475299
v 0.01375694 0.02567542 0.00430205
v 0.02197623 0.01444610 0.00012060
v 0.02242399 0.01340065 0.00002149
v 0.02458816 0.00963056 0.00008921
v 0.02377556 0.01087724 -0.00005532
v 0.02331122 0.01222105 0.00010573
v 0.02596876 0.00560142 0.00014537
v 0.02575939 0.00661680 0.00018419
v 0.02653053 0.00574945 0.00077883
v 0.02654297 0.00560142 0.00076396
v 0.01154716 0.02325840 0.00021557
v 0.01005048 0.02389214 0.00035597
v 0.01404922 0.02193308 0.00024530
v 0.01240951 0.02305948 0.00040883
v 0.01787798 0.01929633 0.00028329
v 0.01645801 0.02051063 0.00036175
v 0.02046090 0.01670353 0.00028742
v 0.02169224 0.01530883 0.00034854
v 0.03043184 0.00560142 0.00620324
v 0.02976228 0.00574945 0.00511885
v 0.03036344 0.00560142 0.00608679
v 0.02985556 0.00560142 0.00524191
v 0.02933732 0.00574945 0.00447136
v 0.02820134 0.00599925 0.00293604
v 0.02853301 0.00704238 0.00378092
v 0.02923160 0.00710021 0.00481328
v 0.02952389 0.00756742 0.00549629
v 0.02979337 0.00833763 0.00635355
v 0.02997165 0.00710021 0.00598686
v 0.02992397 0.00964213 0.00730580
v 0.03045879 0.00823355 0.00748502
v 0.03055000 0.00834688 0.00773030
v 0.01080089 0.02688277 0.00444658
v 0.01005048 0.02724822 0.00460185
v 0.01005048 0.02743788 0.00487357
v 0.01209442 0.02601311 0.00385277
v 0.01307286 0.02468548 0.00261807
v 0.01209442 0.02488902 0.00236618
v 0.01209442 0.02553433 0.00320610
v 0.01820759 0.02536548 0.00773030
v 0.01897666 0.02436630 0.00695893
v 0.01811430 0.02463228 0.00654846
v 0.01738255 0.02558290 0.00727937
v 0.01762923 0.02432466 0.00568541
v 0.01468355 0.02475024 0.00385029
v 0.01915700 0.02317976 0.00547563
v 0.01829465 0.02346194 0.00512959
v 0.01789664 0.02190995 0.00286006
v 0.01393521 0.02445419 0.00291374
v 0.02311014 0.01289181 0.00023952
v 0.02444720 0.01041465 0.00019823
v 0.02630250 0.00696374 0.00093244
v 0.02699487 0.00644565 0.00152708
v 0.02523493 0.00963056 0.00076974
v 0.02707572 0.00574945 0.00142632
v 0.02660516 0.00560142 0.00083746
v 0.01005048 0.02420439 0.00069211
v 0.01005048 0.02455364 0.00108605
v 0.01090039 0.02412344 0.00093657
v 0.01139790 0.02449351 0.00156837
v 0.01209442 0.02436398 0.00171951
v 0.01202601 0.02364235 0.00086389
v 0.01491365 0.02166016 0.00052693
v 0.01351233 0.02286520 0.00086389
v 0.01402642 0.02321214 0.00155433
v 0.01456332 0.02227540 0.00093492
v 0.01316199 0.02346887 0.00127188
v 0.01737633 0.02004110 0.00057813
v 0.01795054 0.02065865 0.00151964
v 0.01845634 0.01987226 0.00127436
v 0.01866986 0.01879443 0.00053354
v 0.01601439 0.02130165 0.00087545
v 0.01727268 0.02088301 0.00128427
v 0.02103925 0.01728176 0.00128179
v 0.02182283 0.01677523 0.00152542
v 0.02121753 0.01620393 0.00057731
v 0.02205915 0.01610217 0.00127931
v 0.02298576 0.01528107 0.00166583
v 0.02248203 0.01486243 0.00086472
v 0.02284066 0.01375453 0.00051702
v 0.02977264 0.00560142 0.00510564
v 0.02934561 0.00560142 0.00445897
v 0.02858483 0.00560142 0.00337211
v 0.02860971 0.00564074 0.00341588
v 0.02823450 0.00560142 0.00288896
v 0.02782820 0.00560142 0.00235792
v 0.02779089 0.00564074 0.00231910
v 0.02805416 0.00704238 0.00313425
v 0.02704048 0.00916797 0.00275847
v 0.02688915 0.01003070 0.00296164
v 0.02836925 0.00796756 0.00399895
v 0.02836510 0.01054649 0.00529394
v 0.02821170 0.01140921 0.00551611
v 0.02868019 0.01095819 0.00599842
v 0.02939329 0.00833763 0.00570689
v 0.02949901 0.01008159 0.00683091
v 0.02975399 0.01091424 0.00773030
v 0.03014370 0.00966063 0.00773030
v 0.01005048 0.02700998 0.00426406
v 0.01115330 0.02570317 0.00298229
v 0.01029094 0.02585583 0.00277747
v 0.01005048 0.02646644 0.00350590
v 0.01354964 0.02396153 0.00208620
v 0.01005048 0.02535392 0.00204326
v 0.01920261 0.02469242 0.00773030
v 0.01947209 0.02450507 0.00773030
v 0.02046090 0.02317744 0.00678466
v 0.01959854 0.02350357 0.00633869
v 0.01863462 0.02391296 0.00601164
v 0.01924614 0.02195159 0.00410136
v 0.01738669 0.02160002 0.00214401
v 0.01643313 0.02180356 0.00167821
v 0.01703429 0.02218057 0.00254127
v 0.01548579 0.02331622 0.00272378
v 0.01468355 0.02357064 0.00243555
v 0.02345840 0.01340065 0.00092914
v 0.02465450 0.01200364 0.00126775
v 0.02423162 0.01127737 0.00040470
v 0.02551685 0.01114322 0.00173024
v 0.02568269 0.01028050 0.00154690
v 0.02684355 0.00730837 0.00170712
v 0.02733069 0.00694293 0.00216053
v 0.02779296 0.00560142 0.00231250
v 0.02716278 0.00560142 0.00150643
v 0.02708816 0.00560142 0.00141145
v 0.01005048 0.02473174 0.00129335
v 0.01053348 0.02464616 0.00139163
v 0.01005048 0.02503705 0.00165592
v 0.01468355 0.02300397 0.00178806
v 0.01557078 0.02207649 0.00138998
v 0.01927309 0.02068872 0.00278325
v 0.01881496 0.02022845 0.00192020
v 0.01924199 0.01936572 0.00152130
v 0.02053552 0.01806816 0.00152377
v 0.02309563 0.01675210 0.00283941
v 0.02010642 0.01893089 0.00192185
v 0.02139580 0.01763564 0.00192515
v 0.02185393 0.01809592 0.00278820
v 0.02313916 0.01808898 0.00408567
v 0.02270591 0.01610217 0.00195819
v 0.02325525 0.01441835 0.00138007
v 0.02474986 0.01351399 0.00242316
v 0.02418394 0.01351399 0.00177649
v 0.02438709 0.01286636 0.00154855
v 0.02718351 0.00833763 0.00257513
v 0.02600400 0.01079628 0.00217457
v 0.02673161 0.01092581 0.00318545
v 0.02821585 0.00883029 0.00421286
v 0.02789039 0.01095819 0.00482979
v 0.02704255 0.01171683 0.00404190
v 0.02804794 0.01222105 0.00574322
v 0.02848326 0.01222105 0.00639072
v 0.02935805 0.01092581 0.00707290
v 0.02921087 0.00964213 0.00612809
v 0.02974984 0.01092581 0.00773030
v 0.01005048 0.02589746 0.00272378
v 0.01005048 0.02611025 0.00301532
v 0.02004423 0.02405867 0.00773030
v 0.02070758 0.02353364 0.00773030
v 0.02076769 0.02343649 0.00764772
v 0.02088171 0.02338792 0.00773030
v 0.02144141 0.02287676 0.00773030
v 0.02203635 0.02231934 0.00773030
v 0.02221877 0.02214587 0.00773030
v 0.02209646 0.02220601 0.00764937
v 0.02276396 0.02159539 0.00773030
v 0.02256288 0.02139648 0.00722569
v 0.02174821 0.02187063 0.00678714
v 0.02181869 0.02064940 0.00540874
v 0.02051894 0.02193540 0.00541617
v 0.02010849 0.02153063 0.00455312
v 0.01968975 0.02110968 0.00366612
v 0.02513957 0.01238990 0.00207051
v 0.02587340 0.01191575 0.00259247
v 0.02666527 0.00833763 0.00192846
v 0.02184563 0.01938191 0.00408732
v 0.02056454 0.01939348 0.00278407
v 0.01968975 0.01981212 0.00235214
v 0.02436636 0.01801265 0.00545581
v 0.02431039 0.01662026 0.00423268
v 0.02562672 0.01277847 0.00291126
v 0.02449281 0.01433045 0.00271388
v 0.02309978 0.01934259 0.00542113
v 0.02337133 0.01858857 0.00490660
v 0.02735557 0.01217711 0.00476372
v 0.02833193 0.01298201 0.00662362
v 0.02939329 0.01187411 0.00773030
v 0.02330085 0.02102410 0.00773030
v 0.02431661 0.01925933 0.00682679
v 0.02336926 0.01961552 0.00607606
v 0.02096255 0.02109117 0.00498093
v 0.02140824 0.02024464 0.00454569
v 0.02716900 0.01318092 0.00518327
v 0.02682904 0.01257956 0.00432022
v 0.02407822 0.01877361 0.00596291
v 0.02466901 0.01839660 0.00631887
v 0.02553136 0.01780449 0.00698288
v 0.02508775 0.01747836 0.00599925
v 0.02550649 0.01647224 0.00568046
v 0.02578012 0.01560951 0.00530468
v 0.02464413 0.01715224 0.00509573
v 0.02762505 0.01351399 0.00607440
v 0.02721875 0.01454324 0.00638741
v 0.02808110 0.01384474 0.00703243
v 0.02813915 0.01445767 0.00773030
v 0.02839827 0.01399739 0.00773030
v 0.02851228 0.01345385 0.00742638
v 0.02880872 0.01314623 0.00773030
v 0.02459646 0.01957851 0.00773030
v 0.02458816 0.01956232 0.00768984
v 0.02505873 0.01871810 0.00733636
v 0.02690573 0.01404365 0.00552519
v 0.02561635 0.01829946 0.00773030
v 0.02585267 0.01797102 0.00773030
v 0.02651395 0.01704816 0.00773030
v 0.02687464 0.01650924 0.00773030
v 0.02580707 0.01694407 0.00654351
v 0.02694512 0.01540597 0.00677062
v 0.02766029 0.01484855 0.00733305
v 0.02736179 0.01575522 0.00773030
v 0.02783857 0.01497345 0.00773030
v 0.02866361 0.01345385 0.00773030
v 0.02717315 0.01605359 0.00773030
v 0.02723741 0.01585468 0.00763285
f 1 2 5
f 1 5 11
f 1 11 18
f 1 18 33
f 1 33 55
f 1 55 89
f 1 89 126
f 1 126 129
f 1 129 175
f 1 175 244
f 1 244 243
f 1 243 242
f 1 242 205
f 1 205 204
f 1 204 202
f 1 202 201
f 1 201 200
f 1 200 141
f 1 141 140
f 1 140 138
f 1 138 102
f 1 102 65
f 1 65 40
f 1 40 24
f 1 24 14
f 1 14 8
f 1 8 3
f 1 3 9
f 1 9 15
f 1 15 28
f 1 28 46
f 1 46 72
f 1 72 109
f 1 109 108
f 1 108 154
f 1 154 153
f 1 153 218
f 1 218 221
f 1 221 276
f 1 276 275
f 1 275 223
f 1 223 247
f 1 247 245
f 1 245 177
f 1 177 176
f 1 176 131
f 1 131 96
f 1 96 60
f 1 60 37
f 1 37 21
f 1 21 12
f 1 12 7
f 1 7 6
f 1 6 4
f 1 4 2
f 2 4 6
f 2 6 7
f 2 7 5
f 3 8 9
f 5 10 11
f 5 7 10
f 7 12 13
f 7 13 10
f 8 14 25
f 8 25 42
f 8 42 67
f 8 67 106
f 8 106 151
f 8 151 217
f 8 217 216
f 8 216 274
f 8 274 306
f 8 306 327
f 8 327 341
f 8 341 325
f 8 325 324
f 8 324 340
f 8 340 339
f 8 339 342
f 8 342 335
f 8 335 334
f 8 334 333
f 8 333 332
f 8 332 328
f 8 328 307
f 8 307 285
f 8 285 283
f 8 283 282
f 8 282 281
f 8 281 280
f 8 280 278
f 8 278 277
f 8 277 225
f 8 225 224
f 8 224 159
f 8 159 115
f 8 115 113
f 8 113 112
f 8 112 75
f 8 75 111
f 8 111 83
f 8 83 82
f 8 82 73
f 8 73 68
f 8 68 43
f 8 43 26
f 8 26 15
f 8 15 9
f 10 16 17
f 10 17 11
f 10 13 16
f 11 17 19
f 11 19 18
f 12 20 13
f 12 21 20
f 13 20 22
f 13 22 23
f 13 23 16
f 14 24 25
f 15 26 27
f 15 27 28
f 16 29 30
f 16 30 17
f 16 23 31
f 16 31 32
f 16 32 29
f 17 30 19
f 18 19 34
f 18 34 33
f 19 30 34
f 20 21 35
f 20 35 36
f 20 36 22
f 21 37 35
f 22 38 39
f 22 39 23
f 22 36 38
f 23 39 31
f 24 40 41
f 24 41 25
f 25 41 42
f 26 43 27
f 27 44 45
f 27 45 46
f 27 46 28
f 27 43 47
f 27 47 48
f 27 48 49
f 27 49 44
f 29 50 30
f 29 32 51
f 29 51 50
f 30 50 52
f 30 52 53
f 30 53 34
f 31 39 32
f 32 39 54
f 32 54 51
f 33 34 53
f 33 53 56
f 33 56 55
f 35 37 57
f 35 57 58
f 35 58 59
f 35 59 38
f 35 38 36
f 37 60 57
f 38 59 61
f 38 61 62
f 38 62 39
f 39 62 63
f 39 63 64
f 39 64 54
f 40 65 66
f 40 66 41
f 41 66 67
f 41 67 42
f 43 68 47
f 44 69 45
f 44 49 69
f 45 69 70
f 45 70 46
f 46 70 71
f 46 71 72
f 47 68 73
f 47 73 48
f 48 74 75
f 48 75 76
f 48 76 77
f 48 77 78
f 48 78 79
f 48 79 80
f 48 80 81
f 48 81 49
f 48 73 82
f 48 82 83
f 48 83 74
f 49 81 84
f 49 84 69
f 50 51 52
f 51 54 64
f 51 64 85
f 51 85 86
f 51 86 52
f 52 87 53
f 52 86 88
f 52 88 87
f 53 87 56
f 55 56 90
f 55 90 89
f 56 87 91
f 56 91 90
f 57 60 92
f 57 92 93
f 57 93 58
f 58 93 94
f 58 94 95
f 58 95 61
f 58 61 59
f 60 96 92
f 61 97 62
f 61 95 98
f 61 98 97
f 62 97 99
f 62 99 64
f 62 64 63
f 64 99 100
f 64 100 101
f 64 101 85
f 65 102 66
f 66 102 103
f 66 103 104
f 66 104 105
f 66 105 67
f 67 105 106
f 69 84 70
f 70 84 71
f 71 107 108
f 71 108 109
f 71 109 72
f 71 84 110
f 71 110 107
f 74 111 75
f 74 83 111
f 75 112 76
f 76 112 113
f 76 113 114
f 76 114 77
f 77 114 115
f 77 115 116
f 77 116 117
f 77 117 79
f 77 79 78
f 79 117 118
f 79 118 119
f 79 119 120
f 79 120 80
f 80 84 81
f 80 120 110
f 80 110 84
f 85 121 122
f 85 122 88
f 85 88 86
f 85 101 121
f 87 123 91
f 87 88 124
f 87 124 123
f 88 122 125
f 88 125 124
f 89 90 126
f 90 127 128
f 90 128 129
f 90 129 126
f 90 91 123
f 90 123 127
f 92 130 93
f 92 96 131
f 92 131 130
f 93 130 94
f 94 132 98
f 94 98 95
f 94 130 133
f 94 133 132
f 97 134 99
f 97 98 135
f 97 135 134
f 98 132 135
f 99 134 100
f 100 136 101
f 100 134 136
f 101 137 121
f 101 136 137
f 102 138 103
f 103 139 104
f 103 138 140
f 103 140 141
f 103 141 139
f 104 139 142
f 104 142 143
f 104 143 144
f 104 144 145
f 104 145 146
f 104 146 147
f 104 147 148
f 104 148 105
f 105 148 149
f 105 149 150
f 105 150 151
f 105 151 106
f 107 152 153
f 107 153 154
f 107 154 108
f 107 110 155
f 107 155 152
f 110 120 156
f 110 156 157
f 110 157 158
f 110 158 155
f 113 115 114
f 115 159 160
f 115 160 161
f 115 161 162
f 115 162 116
f 116 162 161
f 116 161 117
f 117 161 163
f 117 163 118
f 118 164 119
f 118 163 165
f 118 165 166
f 118 166 167
f 118 167 164
f 119 164 120
f 120 164 168
f 120 168 156
f 121 137 169
f 121 169 125
f 121 125 122
f 123 124 170
f 123 170 127
f 124 125 170
f 125 169 170
f 127 171 172
f 127 172 128
f 127 170 173
f 127 173 171
f 128 172 174
f 128 174 175
f 128 175 129
f 130 131 176
f 130 176 177
f 130 177 178
f 130 178 179
f 130 179 180
f 130 180 181
f 130 181 133
f 132 182 135
f 132 133 183
f 132 183 184
f 132 184 185
f 132 185 182
f 133 181 186
f 133 186 183
f 134 135 187
f 134 187 188
f 134 188 189
f 134 189 190
f 134 190 136
f 135 182 191
f 135 191 192
f 135 192 188
f 135 188 187
f 136 190 193
f 136 193 194
f 136 194 195
f 136 195 137
f 137 195 194
f 137 194 196
f 137 196 197
f 137 197 198
f 137 198 199
f 137 199 169
f 139 141 200
f 139 200 142
f 142 200 201
f 142 201 202
f 142 202 203
f 142 203 143
f 143 203 202
f 143 202 204
f 143 204 205
f 143 205 206
f 143 206 174
f 143 174 172
f 143 172 207
f 143 207 144
f 144 207 208
f 144 208 209
f 144 209 210
f 144 210 145
f 145 210 211
f 145 211 146
f 146 211 212
f 146 212 213
f 146 213 214
f 146 214 215
f 146 215 147
f 147 215 149
f 147 149 148
f 149 215 216
f 149 216 150
f 150 216 217
f 150 217 151
f 152 218 153
f 152 155 218
f 155 158 219
f 155 219 220
f 155 220 221
f 155 221 218
f 156 168 222
f 156 222 186
f 156 186 180
f 156 180 157
f 157 180 179
f 157 179 223
f 157 223 220
f 157 220 219
f 157 219 158
f 159 224 160
f 160 224 225
f 160 225 226
f 160 226 227
f 160 227 165
f 160 165 228
f 160 228 161
f 161 228 163
f 163 228 165
f 164 167 168
f 165 227 226
f 165 226 229
f 165 229 167
f 165 167 166
f 167 229 188
f 167 188 230
f 167 230 231
f 167 231 232
f 167 232 233
f 167 233 168
f 168 233 234
f 168 234 184
f 168 184 222
f 169 199 235
f 169 235 236
f 169 236 237
f 169 237 170
f 170 237 238
f 170 238 239
f 170 239 173
f 171 173 239
f 171 239 172
f 172 239 240
f 172 240 241
f 172 241 207
f 174 206 242
f 174 242 243
f 174 243 244
f 174 244 175
f 177 245 246
f 177 246 179
f 177 179 178
f 179 246 247
f 179 247 223
f 180 186 181
f 182 185 191
f 183 186 184
f 184 186 222
f 184 234 248
f 184 248 231
f 184 231 249
f 184 249 191
f 184 191 185
f 188 192 231
f 188 231 230
f 188 229 250
f 188 250 251
f 188 251 252
f 188 252 189
f 189 252 253
f 189 253 194
f 189 194 193
f 189 193 190
f 191 249 231
f 191 231 192
f 194 254 196
f 194 253 251
f 194 251 255
f 194 255 256
f 194 256 257
f 194 257 258
f 194 258 254
f 196 254 259
f 196 259 197
f 197 260 198
f 197 259 254
f 197 254 261
f 197 261 262
f 197 262 263
f 197 263 260
f 198 260 235
f 198 235 199
f 205 242 206
f 207 241 264
f 207 264 208
f 208 264 239
f 208 239 265
f 208 265 209
f 209 265 266
f 209 266 210
f 210 266 267
f 210 267 211
f 211 267 268
f 211 268 212
f 212 269 270
f 212 270 271
f 212 271 213
f 212 268 266
f 212 266 269
f 213 271 272
f 213 272 215
f 213 215 273
f 213 273 214
f 214 273 215
f 215 272 216
f 216 272 274
f 220 223 275
f 220 275 276
f 220 276 221
f 225 277 226
f 226 278 279
f 226 279 280
f 226 280 281
f 226 281 282
f 226 282 283
f 226 283 284
f 226 284 285
f 226 285 286
f 226 286 287
f 226 287 288
f 226 288 289
f 226 289 229
f 226 277 278
f 229 289 290
f 229 290 291
f 229 291 250
f 231 248 232
f 232 248 234
f 232 234 233
f 235 263 236
f 235 260 263
f 236 292 293
f 236 293 238
f 236 238 237
f 236 263 292
f 238 293 265
f 238 265 239
f 239 264 294
f 239 294 240
f 240 294 264
f 240 264 241
f 245 247 246
f 250 291 295
f 250 295 258
f 250 258 296
f 250 296 297
f 250 297 251
f 251 297 255
f 251 253 252
f 254 258 298
f 254 298 299
f 254 299 300
f 254 300 301
f 254 301 261
f 255 297 256
f 256 297 296
f 256 296 257
f 257 296 258
f 258 302 303
f 258 303 298
f 258 295 288
f 258 288 302
f 261 263 262
f 261 301 300
f 261 300 292
f 261 292 263
f 265 293 266
f 266 268 267
f 266 293 269
f 269 293 304
f 269 304 270
f 270 304 305
f 270 305 271
f 271 305 306
f 271 306 274
f 271 274 272
f 278 280 279
f 283 285 284
f 285 307 308
f 285 308 286
f 286 308 309
f 286 309 287
f 287 309 288
f 288 310 289
f 288 309 302
f 288 295 311
f 288 311 310
f 289 310 290
f 290 310 311
f 290 311 291
f 291 311 295
f 292 300 293
f 293 300 312
f 293 312 313
f 293 313 304
f 298 303 302
f 298 302 314
f 298 314 308
f 298 308 315
f 298 315 316
f 298 316 317
f 298 317 318
f 298 318 319
f 298 319 320
f 298 320 299
f 299 320 319
f 299 319 300
f 300 319 312
f 302 309 308
f 302 308 314
f 304 313 305
f 305 312 321
f 305 321 322
f 305 322 323
f 305 323 324
f 305 324 325
f 305 325 326
f 305 326 327
f 305 327 306
f 305 313 312
f 307 328 329
f 307 329 308
f 308 329 330
f 308 330 315
f 312 331 321
f 312 319 331
f 315 330 316
f 316 330 332
f 316 332 333
f 316 333 334
f 316 334 335
f 316 335 336
f 316 336 317
f 317 336 337
f 317 337 318
f 318 337 322
f 318 322 319
f 319 322 331
f 321 331 322
f 322 337 323
f 323 337 338
f 323 338 339
f 323 339 340
f 323 340 324
f 325 341 326
f 326 341 327
f 328 332 329
f 329 332 330
f 335 342 336
f 336 342 343
f 336 343 337
f 337 343 338
f 338 343 339
f 339 343 342

