# https://github.com/mikedh/trimesh
v 0.01005048 0.04626686 0.09262226
v 0.01001249 0.04626686 0.09279361
v 0.01005048 0.04626686 0.08400414
v 0.01005048 0.04704001 0.09149529
v 0.00985534 0.06026997 0.09796273
v 0.00985361 0.06010410 0.09796273
v 0.00982771 0.05881003 0.09796273
v 0.00974827 0.05751459 0.09796273
v 0.00970856 0.04626686 0.09386566
v 0.01005048 0.04652046 0.08502347
v 0.00996241 0.04626686 0.08365485
v 0.00960667 0.06026997 0.09537488
v 0.00985879 0.06026997 0.09666880
v 0.01005048 0.04724975 0.09020137
v 0.00947888 0.06026997 0.09925885
v 0.00947025 0.06010410 0.09925885
v 0.00939426 0.05881003 0.09925885
v 0.00960840 0.05622052 0.09796273
v 0.00938735 0.04626686 0.09499483
v 0.01005048 0.04701533 0.08761132
v 0.00941498 0.04626686 0.08240266
v 0.00910760 0.06026997 0.09440169
v 0.01005048 0.04716338 0.08891403
v 0.00898154 0.06026997 0.10007168
v 0.00897636 0.06010410 0.10006509
v 0.00891937 0.05881003 0.09998820
v 0.00887792 0.05805196 0.09993108
v 0.00918876 0.05757902 0.09933794
v 0.00942707 0.05492644 0.09796273
v 0.00929410 0.04626686 0.09520352
v 0.00898154 0.04626686 0.08161839
v 0.00821135 0.06026997 0.09386127
v 0.00855672 0.06026997 0.10063626
v 0.00848765 0.06010410 0.10071095
v 0.00843930 0.05881003 0.10063406
v 0.00779171 0.05881003 0.10148423
v 0.00770192 0.05751459 0.10137000
v 0.00841512 0.05757902 0.10043855
v 0.00799549 0.05616980 0.10066262
v 0.00880021 0.05718970 0.09982124
v 0.00802830 0.04626686 0.09780895
v 0.00912141 0.05622052 0.09902819
v 0.00871042 0.05622052 0.09967625
v 0.00813536 0.04626686 0.09759806
v 0.00826143 0.04626686 0.08120979
v 0.00698871 0.06026997 0.09360205
v 0.00792641 0.06026997 0.10142711
v 0.00784007 0.06010410 0.10152377
v 0.00691618 0.05881003 0.10209714
v 0.00691618 0.05751459 0.10189723
v 0.00761730 0.05656734 0.10126235
v 0.00793159 0.05492644 0.10042317
v 0.00752577 0.05570508 0.10116789
v 0.00562102 0.04626686 0.09914022
v 0.00739108 0.05492644 0.10107123
v 0.00693000 0.05351037 0.10094601
v 0.00625651 0.05299905 0.10119645
v 0.00691618 0.04626686 0.08099011
v 0.00582652 0.06026997 0.09354273
v 0.00784352 0.06026997 0.10152377
v 0.00691618 0.06010410 0.10215646
v 0.00610973 0.05881003 0.10245962
v 0.00565383 0.05745701 0.10238273
v 0.00650864 0.05385993 0.10130190
v 0.00674349 0.05492644 0.10142931
v 0.00177352 0.04626686 0.10045612
v 0.00562275 0.05622052 0.10212351
v 0.00562275 0.05492644 0.10182694
v 0.00574536 0.05351037 0.10145348
v 0.00432758 0.05363237 0.10184890
v 0.00291499 0.05375164 0.10223994
v 0.00579889 0.04626686 0.08096594
v 0.00562275 0.06026997 0.09353394
v 0.00567628 0.06026997 0.09353614
v 0.00703707 0.06026997 0.10207517
v 0.00691618 0.06026997 0.10215646
v 0.00628932 0.06026997 0.10243765
v 0.00619607 0.06010410 0.10247719
v 0.00555022 0.06010410 0.10261340
v 0.00546215 0.05881003 0.10259582
v 0.00524283 0.05785044 0.10254969
v 0.00487328 0.05698819 0.10247060
v 0.00363856 0.05562283 0.10248378
v 0.00240383 0.05426296 0.10249697
v 0.00173898 0.05335547 0.10240250
v 0.00081165 0.05392710 0.10256507
v 0.00047145 0.04626686 0.10044074
v 0.00432758 0.05492644 0.10215866
v 0.00562275 0.04626686 0.08096374
v 0.00432758 0.06026997 0.09351856
v 0.00619607 0.06026997 0.10247719
v 0.00555022 0.06026997 0.10261340
v 0.00448473 0.06026997 0.10283747
v 0.00432758 0.06010410 0.10287042
v 0.00303415 0.05881003 0.10310548
v 0.00303415 0.05751459 0.10295170
v 0.00400984 0.05648509 0.10256287
v 0.00269050 0.05492644 0.10255847
v 0.00173898 0.05751459 0.10318677
v 0.00173898 0.05492644 0.10272324
v 0.00173898 0.05400250 0.10254969
v 0.00044727 0.05751459 0.10313185
v -0.00291324 0.05804785 0.10251893
v -0.00338123 0.05757628 0.10231243
v 0.00040756 0.05355012 0.10238053
v -0.00394765 0.05312379 0.10116349
v -0.00335878 0.04626686 0.09908530
v -0.00343476 0.04626686 0.08091322
v 0.00188232 0.06026997 0.09351637
v -0.00472993 0.04626686 0.08090663
v 0.00432758 0.06026997 0.10287042
v 0.00303415 0.06010410 0.10313624
v 0.00173898 0.05881003 0.10333395
v 0.00044727 0.05881003 0.10329001
v -0.00371106 0.05881003 0.10241568
v -0.00348484 0.05358576 0.10138757
v -0.00420668 0.05398605 0.10126894
v -0.00557092 0.04626686 0.09749700
v -0.00069765 0.06026997 0.09351417
v -0.00343476 0.06026997 0.09354273
v -0.00214133 0.06026997 0.09351417
v -0.00599400 0.04626686 0.08122077
v -0.00475065 0.06026997 0.09362182
v 0.00319993 0.06026997 0.10310109
v 0.00303415 0.06026997 0.10313185
v 0.00190476 0.06026997 0.10331858
v 0.00173898 0.06010410 0.10334933
v 0.00044727 0.06010410 0.10329880
v -0.00377668 0.06010410 0.10243545
v -0.00472993 0.05881003 0.10182474
v -0.00480764 0.05761192 0.10158968
v -0.00453133 0.05622052 0.10152597
v -0.00436555 0.05492644 0.10137659
v -0.00501141 0.05492644 0.10079223
v -0.00478691 0.05351037 0.10059013
v -0.00689026 0.05751459 0.09893592
v -0.00596119 0.04626686 0.09676766
v -0.00536887 0.05303469 0.09989154
v -0.00602163 0.04626686 0.08123835
v -0.00603545 0.06026997 0.09410512
v -0.00500795 0.06026997 0.09371848
v 0.00173898 0.06026997 0.10334274
v 0.00061306 0.06026997 0.10329880
v 0.00044727 0.06026997 0.10329221
v -0.00377496 0.06026997 0.10243545
v -0.00472993 0.06026997 0.10187526
v -0.00472993 0.06010410 0.10187526
v -0.00544140 0.06010410 0.10128652
v -0.00541723 0.05881003 0.10125576
v -0.00538787 0.05810816 0.10121402
v -0.00517892 0.05622052 0.10094821
v -0.00643609 0.05751459 0.09958398
v -0.00654488 0.05881003 0.09973995
v -0.00698006 0.05881003 0.09909189
v -0.00722182 0.05751459 0.09796273
v -0.00696279 0.05492644 0.09782653
v -0.00685917 0.05363237 0.09762003
v -0.00719074 0.04626686 0.09408754
v -0.00606999 0.04626686 0.08128228
v -0.00673829 0.06026997 0.09463016
v -0.00616669 0.06026997 0.09419738
v -0.00544140 0.06026997 0.10128652
v -0.00658460 0.06026997 0.09979268
v -0.00657942 0.06010410 0.09978829
v -0.00695243 0.06026997 0.09923029
v -0.00700251 0.06010410 0.09914242
v -0.00731162 0.05881003 0.09796273
v -0.00759137 0.04626686 0.09279361
v -0.00687990 0.04626686 0.08221373
v -0.00677628 0.06026997 0.09470045
v -0.00712684 0.04626686 0.08254326
v -0.00720455 0.04626686 0.08267946
v -0.00700251 0.06026997 0.09914681
v -0.00733579 0.06010410 0.09796273
v -0.00733579 0.06026997 0.09796273
v -0.00759137 0.04627508 0.09278702
v -0.00759137 0.04626686 0.08378666
v -0.00706467 0.06026997 0.09536389
v -0.00729262 0.06026997 0.09811870
v -0.00733579 0.06026997 0.09666880
v -0.00759137 0.04718121 0.09021894
v -0.00759137 0.04707702 0.09135909
v -0.00759137 0.04706331 0.09149529
v -0.00759137 0.04627919 0.08381741
v -0.00711475 0.06026997 0.09554184
v -0.00759137 0.04681930 0.08580553
v -0.00759137 0.04710307 0.08752125
v -0.00759137 0.04715653 0.08889646
v -0.00759137 0.04718121 0.09020137
f 1 2 9
f 1 9 19
f 1 19 30
f 1 30 44
f 1 44 41
f 1 41 54
f 1 54 66
f 1 66 87
f 1 87 107
f 1 107 118
f 1 118 137
f 1 137 158
f 1 158 168
f 1 168 177
f 1 177 172
f 1 172 171
f 1 171 169
f 1 169 159
f 1 159 139
f 1 139 122
f 1 122 110
f 1 110 108
f 1 108 89
f 1 89 72
f 1 72 58
f 1 58 45
f 1 45 31
f 1 31 21
f 1 21 11
f 1 11 3
f 1 3 10
f 1 10 20
f 1 20 23
f 1 23 14
f 1 14 4
f 1 4 5
f 1 5 6
f 1 6 7
f 1 7 8
f 1 8 2
f 2 8 9
f 3 11 12
f 3 12 13
f 3 13 10
f 4 14 13
f 4 13 5
f 5 13 12
f 5 12 22
f 5 22 32
f 5 32 46
f 5 46 59
f 5 59 74
f 5 74 73
f 5 73 90
f 5 90 109
f 5 109 119
f 5 119 121
f 5 121 120
f 5 120 123
f 5 123 141
f 5 141 140
f 5 140 161
f 5 161 160
f 5 160 170
f 5 170 178
f 5 178 185
f 5 185 180
f 5 180 175
f 5 175 179
f 5 179 173
f 5 173 165
f 5 165 163
f 5 163 162
f 5 162 146
f 5 146 145
f 5 145 144
f 5 144 143
f 5 143 142
f 5 142 126
f 5 126 125
f 5 125 124
f 5 124 111
f 5 111 93
f 5 93 92
f 5 92 91
f 5 91 77
f 5 77 76
f 5 76 75
f 5 75 60
f 5 60 47
f 5 47 33
f 5 33 24
f 5 24 15
f 5 15 6
f 6 15 7
f 7 15 16
f 7 16 17
f 7 17 8
f 8 17 18
f 8 18 19
f 8 19 9
f 10 13 20
f 11 21 12
f 12 21 22
f 13 14 23
f 13 23 20
f 15 24 16
f 16 24 25
f 16 25 17
f 17 25 26
f 17 26 27
f 17 27 28
f 17 28 18
f 18 28 29
f 18 29 19
f 19 29 30
f 21 31 22
f 22 31 32
f 24 33 25
f 25 33 34
f 25 34 35
f 25 35 26
f 26 35 27
f 27 35 36
f 27 36 37
f 27 37 38
f 27 38 39
f 27 39 40
f 27 40 28
f 28 41 42
f 28 42 29
f 28 40 43
f 28 43 41
f 29 42 44
f 29 44 30
f 31 45 32
f 32 45 46
f 33 47 48
f 33 48 34
f 34 48 36
f 34 36 35
f 36 48 49
f 36 49 37
f 37 49 50
f 37 50 51
f 37 51 38
f 38 51 39
f 39 52 40
f 39 51 53
f 39 53 52
f 40 52 43
f 41 44 42
f 41 43 52
f 41 52 53
f 41 53 55
f 41 55 56
f 41 56 57
f 41 57 54
f 45 58 46
f 46 58 59
f 47 60 48
f 48 60 61
f 48 61 49
f 49 61 62
f 49 62 50
f 50 62 63
f 50 63 64
f 50 64 65
f 50 65 53
f 50 53 51
f 53 65 55
f 54 57 66
f 55 65 64
f 55 64 56
f 56 64 57
f 57 64 67
f 57 67 68
f 57 68 69
f 57 69 70
f 57 70 71
f 57 71 66
f 58 72 73
f 58 73 74
f 58 74 59
f 60 75 61
f 61 75 76
f 61 76 77
f 61 77 78
f 61 78 62
f 62 78 79
f 62 79 80
f 62 80 81
f 62 81 63
f 63 81 82
f 63 82 83
f 63 83 84
f 63 84 67
f 63 67 64
f 66 71 85
f 66 85 86
f 66 86 87
f 67 84 88
f 67 88 68
f 68 88 84
f 68 84 70
f 68 70 69
f 70 84 71
f 71 84 85
f 72 89 73
f 73 89 90
f 77 91 78
f 78 91 92
f 78 92 79
f 79 92 93
f 79 93 94
f 79 94 80
f 80 94 95
f 80 95 81
f 81 95 96
f 81 96 97
f 81 97 82
f 82 97 83
f 83 97 98
f 83 98 84
f 84 98 96
f 84 96 99
f 84 99 100
f 84 100 101
f 84 101 85
f 85 101 86
f 86 101 100
f 86 100 99
f 86 99 102
f 86 102 103
f 86 103 104
f 86 104 105
f 86 105 87
f 87 105 106
f 87 106 107
f 89 108 90
f 90 108 110
f 90 110 109
f 93 111 94
f 94 111 112
f 94 112 95
f 95 112 113
f 95 113 99
f 95 99 96
f 96 98 97
f 99 113 114
f 99 114 102
f 102 114 103
f 103 114 115
f 103 115 104
f 104 116 105
f 104 115 117
f 104 117 106
f 104 106 116
f 105 116 106
f 106 117 118
f 106 118 107
f 109 110 119
f 110 120 121
f 110 121 119
f 110 122 123
f 110 123 120
f 111 124 112
f 112 124 125
f 112 125 126
f 112 126 127
f 112 127 113
f 113 127 114
f 114 127 128
f 114 128 129
f 114 129 115
f 115 129 130
f 115 130 131
f 115 131 132
f 115 132 133
f 115 133 117
f 117 133 134
f 117 134 135
f 117 135 118
f 118 136 137
f 118 135 138
f 118 138 136
f 122 139 140
f 122 140 141
f 122 141 123
f 126 142 127
f 127 142 143
f 127 143 128
f 128 143 144
f 128 144 145
f 128 145 129
f 129 145 146
f 129 146 147
f 129 147 130
f 130 147 148
f 130 148 149
f 130 149 150
f 130 150 131
f 131 150 132
f 132 150 133
f 133 150 134
f 134 150 151
f 134 151 138
f 134 138 135
f 136 152 153
f 136 153 154
f 136 154 155
f 136 155 156
f 136 156 157
f 136 157 137
f 136 138 152
f 137 157 158
f 138 151 150
f 138 150 152
f 139 159 160
f 139 160 161
f 139 161 140
f 146 162 148
f 146 148 147
f 148 162 163
f 148 163 149
f 149 163 164
f 149 164 153
f 149 153 150
f 150 153 152
f 153 164 154
f 154 165 166
f 154 166 167
f 154 167 155
f 154 164 163
f 154 163 165
f 155 158 156
f 155 167 168
f 155 168 158
f 156 158 157
f 159 169 160
f 160 169 171
f 160 171 172
f 160 172 170
f 165 173 166
f 166 173 174
f 166 174 167
f 167 174 168
f 168 175 176
f 168 176 183
f 168 183 182
f 168 182 181
f 168 181 189
f 168 189 188
f 168 188 187
f 168 187 186
f 168 186 184
f 168 184 177
f 168 174 175
f 170 172 178
f 172 177 178
f 173 179 174
f 174 179 175
f 175 180 189
f 175 189 181
f 175 181 182
f 175 182 183
f 175 183 176
f 177 184 180
f 177 180 185
f 177 185 178
f 180 184 186
f 180 186 187
f 180 187 188
f 180 188 189

