# https://github.com/mikedh/trimesh
v 0.00163080 0.03940262 0.01534687
v 0.00060297 0.03940262 0.01536727
v 0.00107130 0.04005535 0.01577516
v 0.00112103 0.04005535 0.01577516
v 0.00212952 0.04125679 0.01715386
v 0.00198170 0.03990831 0.01590977
v 0.00260752 0.03940262 0.01566911
v 0.00056015 0.03940262 0.01537135
v 0.00056291 0.03943490 0.01539582
v -0.00128829 0.04644630 0.02232192
v -0.00017895 0.04392148 0.01967467
v 0.00068310 0.04407211 0.01954006
v 0.00044686 0.04875236 0.02387193
v 0.00044686 0.04945887 0.02452049
v 0.00173856 0.04947681 0.02450010
v 0.00173856 0.04877029 0.02385562
v 0.00303302 0.04927956 0.02468773
v 0.00303440 0.04108464 0.01730886
v 0.00303440 0.03940262 0.01581187
v 0.00379699 0.04915045 0.02481010
v 0.00465904 0.04898547 0.02495286
v 0.00045791 0.03940262 0.01540398
v -0.00084622 0.03940262 0.01586082
v -0.00141815 0.04778762 0.02357825
v -0.00182984 0.04019880 0.01694175
v -0.00093049 0.04840448 0.02398614
v -0.00084760 0.04924010 0.02472444
v -0.00084760 0.04988924 0.02533221
v 0.00044686 0.05010442 0.02513234
v 0.00173856 0.05012594 0.02511194
v 0.00303302 0.04992869 0.02529550
v 0.00432748 0.04082642 0.01754136
v 0.00497540 0.04004817 0.01708044
v 0.00437445 0.03940262 0.01630135
v 0.00473226 0.05031602 0.02622142
v 0.00520473 0.04812474 0.02456944
v 0.00517434 0.04677984 0.02332127
v 0.00513842 0.04543494 0.02207311
v 0.00510112 0.04408646 0.02082086
v -0.00216002 0.03940262 0.01638701
v -0.00240316 0.04892091 0.02501405
v -0.00153973 0.04912175 0.02483457
v -0.00220975 0.03940262 0.01640740
v -0.00278031 0.04133210 0.01838163
v -0.00160742 0.05043796 0.02610313
v -0.00084760 0.05056707 0.02598077
v 0.00044686 0.05077150 0.02577682
v 0.00173856 0.05143857 0.02639274
v 0.00303302 0.05060293 0.02594405
v 0.00386882 0.05046307 0.02607866
v 0.00501961 0.04139307 0.01832860
v 0.00516743 0.04056462 0.01782689
v 0.00516052 0.03940262 0.01680306
v 0.00524065 0.04945170 0.02581761
v 0.00488560 0.05554857 0.03134462
v 0.00610270 0.04875236 0.02644577
v 0.00516052 0.04293164 0.01989493
v -0.00281899 0.04267700 0.01962980
v -0.00247085 0.05025505 0.02627853
v -0.00221666 0.03940262 0.01641148
v -0.00269189 0.03998003 0.01714162
v -0.00320857 0.03940262 0.01743939
v -0.00299720 0.04047137 0.01800229
v -0.00250815 0.05157126 0.02755525
v -0.00254545 0.05288388 0.02883197
v -0.00258137 0.05419650 0.03010869
v -0.00261453 0.05550912 0.03138541
v -0.00168202 0.05305244 0.02866473
v -0.00084760 0.05187969 0.02725748
v -0.00084760 0.05449417 0.02981500
v 0.00044686 0.05208053 0.02705761
v 0.00044686 0.05403511 0.02897473
v 0.00173856 0.05601122 0.03088369
v 0.00303302 0.05517559 0.03041461
v 0.00530282 0.04321855 0.02036401
v 0.00576838 0.03940262 0.01781057
v 0.00525723 0.05076073 0.02708617
v 0.00618835 0.05542305 0.03276410
v 0.00612066 0.05010801 0.02771025
v 0.00303302 0.05648462 0.03172804
v 0.00482896 0.05682892 0.03265805
v 0.00531249 0.05722701 0.03351871
v 0.00532630 0.05596459 0.03220936
v 0.00530696 0.05468425 0.03092856
v 0.00528900 0.05337880 0.02964369
v 0.00527380 0.05206977 0.02836289
v 0.00303302 0.05583548 0.03106317
v 0.00633894 0.04924728 0.02730643
v 0.00618006 0.03940262 0.01854479
v 0.00611237 0.03970388 0.01867939
v 0.00587614 0.03940262 0.01799821
v -0.00285215 0.04402190 0.02088204
v -0.00384682 0.04723890 0.02544234
v -0.00389794 0.04857304 0.02670682
v -0.00322101 0.04847979 0.02546681
v -0.00296957 0.04939073 0.02587471
v -0.00224567 0.03940262 0.01643596
v -0.00327350 0.03940262 0.01755360
v -0.00304141 0.05592515 0.03225015
v -0.00303174 0.05718397 0.03356358
v -0.00300549 0.05970162 0.03621900
v -0.00255927 0.05678946 0.03269884
v -0.00175109 0.05565616 0.03123449
v -0.00171932 0.05435789 0.02994961
v -0.00298615 0.05070694 0.02714327
v -0.00300135 0.05201956 0.02841591
v -0.00301516 0.05333218 0.02969263
v -0.00302898 0.05464121 0.03097343
v -0.00084760 0.05514331 0.03045132
v 0.00044686 0.05533698 0.03025961
v 0.00044686 0.05598970 0.03090817
v 0.00173856 0.05666035 0.03154041
v 0.00574904 0.05633758 0.03313937
v 0.00617316 0.05671056 0.03407346
v 0.00641906 0.05584983 0.03362477
v 0.00666497 0.05496758 0.03321687
v 0.00641354 0.05456231 0.03235621
v 0.00303302 0.05709072 0.03237252
v 0.00432886 0.06061256 0.03663505
v 0.00456924 0.05934298 0.03532570
v 0.00525584 0.06098196 0.03752019
v 0.00527519 0.05973389 0.03618637
v 0.00611928 0.06053725 0.03800559
v 0.00663596 0.05365137 0.03194015
v 0.00653649 0.04970634 0.02811407
v 0.00649090 0.04837578 0.02684143
v 0.00647570 0.03940262 0.01911585
v -0.00404023 0.04772306 0.02621734
v -0.00406786 0.04907872 0.02746143
v -0.00389656 0.04975655 0.02777552
v -0.00326521 0.04979599 0.02673946
v -0.00331771 0.03940262 0.01763518
v -0.00346691 0.05494247 0.03195239
v -0.00390484 0.05524373 0.03293950
v -0.00346829 0.05623358 0.03324950
v -0.00388274 0.05781518 0.03556228
v -0.00386893 0.05908835 0.03687979
v -0.00385235 0.06035793 0.03820546
v -0.00298891 0.06095686 0.03754874
v -0.00169722 0.05692933 0.03254792
v -0.00214068 0.06056953 0.03668400
v -0.00084760 0.05579604 0.03109988
v -0.00084760 0.05644517 0.03176883
v 0.00044686 0.05663525 0.03156488
v -0.00389103 0.05392394 0.03165870
v 0.00044686 0.05723418 0.03221344
v 0.00173856 0.05725570 0.03218897
v 0.00639558 0.05967651 0.03755690
v 0.00664701 0.05882295 0.03712861
v 0.00666911 0.05625509 0.03452214
v 0.00730322 0.05875122 0.03847875
v 0.00724934 0.05622281 0.03584373
v 0.00723691 0.05493171 0.03455477
v 0.00720237 0.05363702 0.03326174
v 0.00271528 0.06084209 0.03638624
v 0.00432886 0.06118639 0.03728361
v 0.00519368 0.06220492 0.03887849
v 0.00605573 0.06179248 0.03935981
v 0.00627677 0.06464367 0.04294115
v 0.00637762 0.06092817 0.03886625
v 0.00704764 0.04975655 0.02937447
v 0.00699515 0.04845827 0.02808144
v 0.00715126 0.05234234 0.03196462
v 0.00692331 0.04716717 0.02678840
v 0.00699238 0.03940262 0.02031099
v -0.00390484 0.03940262 0.01872834
v -0.00423640 0.04686232 0.02584208
v -0.00426403 0.04821439 0.02707801
v -0.00423640 0.04975655 0.02841999
v -0.00408582 0.05040568 0.02872184
v -0.00410378 0.05173624 0.02998632
v -0.00386478 0.05127000 0.02912158
v -0.00387721 0.05259697 0.03038606
v -0.00413417 0.05437941 0.03251936
v -0.00413832 0.05567768 0.03380424
v -0.00389517 0.05654201 0.03425293
v -0.00412036 0.05822761 0.03642295
v -0.00410654 0.05949719 0.03774046
v -0.00425574 0.05999570 0.03855217
v -0.00408720 0.06075602 0.03906612
v -0.00405266 0.06199332 0.04042442
v -0.00384682 0.06168848 0.03972284
v -0.00339369 0.06128681 0.03855625
v -0.00214068 0.06114694 0.03732848
v -0.00397806 0.06446435 0.04314918
v -0.00293504 0.06217982 0.03891112
v -0.00084760 0.05770041 0.03311897
v -0.00084760 0.05705486 0.03241739
v -0.00143888 0.05944340 0.03521557
v -0.00129796 0.06069505 0.03654940
v -0.00412036 0.05305961 0.03125080
v 0.00044686 0.05787973 0.03291910
v 0.00044686 0.05847149 0.03356766
v 0.00173856 0.06095686 0.03625979
v 0.00663043 0.06010329 0.03843388
v 0.00727421 0.06005667 0.03974731
v 0.00749663 0.05914573 0.03933126
v 0.00750354 0.05776138 0.03808309
v 0.00732532 0.03940262 0.02160402
v 0.00252187 0.06207940 0.03774046
v 0.00338530 0.06196464 0.03787506
v 0.00432886 0.06183552 0.03803006
v 0.00510941 0.06342430 0.04026126
v 0.00621460 0.06586305 0.04432800
v 0.00645498 0.06491624 0.04360603
v 0.00737229 0.06431731 0.04462577
v 0.00709876 0.06392639 0.04365497
v 0.00762234 0.06345299 0.04411998
v -0.00422950 0.03940262 0.01937282
v -0.00446435 0.04857304 0.02796723
v -0.00459283 0.04975655 0.02937447
v -0.00467986 0.05234234 0.03196462
v -0.00459974 0.03940262 0.02031507
v -0.00425713 0.05223833 0.03075725
v -0.00428337 0.05355095 0.03203805
v -0.00430271 0.05485998 0.03332700
v -0.00430271 0.05615467 0.03463228
v -0.00429304 0.05743860 0.03593755
v -0.00413003 0.05695444 0.03511359
v -0.00427785 0.05871895 0.03723874
v -0.00472269 0.06009971 0.03972284
v -0.00426127 0.06103934 0.03972284
v -0.00428199 0.06236631 0.04128917
v -0.00424746 0.06360003 0.04264747
v -0.00214068 0.06179607 0.03807085
v -0.00109765 0.06193953 0.03790769
v -0.00421015 0.06482658 0.04401392
v -0.00391590 0.06568731 0.04455235
v -0.00351526 0.06533226 0.04354076
v -0.00311601 0.06497362 0.04253733
v -0.00286320 0.06339919 0.04029390
v 0.00044686 0.06158089 0.03701848
v 0.00044686 0.06093534 0.03628426
v 0.00091381 0.06338485 0.03901718
v 0.00132826 0.06338485 0.03901718
v 0.00173856 0.06160241 0.03699400
v 0.00762925 0.06219058 0.04278615
v 0.00761544 0.06089589 0.04148496
v 0.00759886 0.05959403 0.04019600
v 0.00758366 0.05827782 0.03894783
v 0.00748420 0.03940262 0.02288074
v 0.00173856 0.06216189 0.03763848
v 0.00219031 0.06329877 0.03911915
v 0.00303302 0.06490906 0.04132588
v 0.00432886 0.06237348 0.03867454
v 0.00431919 0.06545778 0.04239865
v 0.00474745 0.06586663 0.04303089
v 0.00500027 0.06464367 0.04164404
v 0.00609856 0.06706449 0.04574341
v 0.00625328 0.06979373 0.04944712
v 0.00632512 0.06859946 0.04802356
v 0.00638867 0.06740161 0.04660407
v 0.00644807 0.06620017 0.04519275
v 0.00691088 0.06527129 0.04491130
v 0.00571865 0.06560124 0.04352445
v 0.00534979 0.06618582 0.04389563
v 0.00758919 0.06467236 0.04549051
v 0.00769971 0.06620734 0.04777066
v 0.00780746 0.06661260 0.04875777
v 0.00802850 0.06786425 0.05136832
v 0.00769280 0.06264605 0.04365497
v -0.00471993 0.05363702 0.03326174
v -0.00490505 0.03940262 0.02160810
v -0.00474479 0.05493171 0.03455477
v -0.00475308 0.05622281 0.03584373
v -0.00475585 0.05752109 0.03713677
v -0.00475170 0.05880860 0.03842572
v -0.00452790 0.06275364 0.04225588
v -0.00456382 0.06149482 0.04091798
v -0.00538304 0.06722946 0.04941449
v -0.00448369 0.06401246 0.04358971
v -0.00275130 0.06461857 0.04167667
v -0.00214068 0.06233762 0.03871941
v -0.00023560 0.06205071 0.03776901
v -0.00073846 0.06242011 0.03837270
v -0.00440771 0.06526770 0.04495209
v -0.00414937 0.06602443 0.04541301
v -0.00305384 0.06616430 0.04392826
v -0.00408582 0.06722229 0.04683250
v -0.00401813 0.06842014 0.04825198
v 0.00044686 0.06214037 0.03766703
v 0.00044686 0.06450380 0.04052232
v 0.00044686 0.06568372 0.04195812
v 0.00044686 0.06620375 0.04260260
v 0.00173856 0.06622168 0.04257812
v -0.00224843 0.06425275 0.04106890
v -0.00188924 0.06473333 0.04153798
v 0.00173856 0.06570524 0.04193364
v 0.00173856 0.06505969 0.04114640
v 0.00767622 0.06135495 0.04233746
v 0.00783924 0.06268909 0.04489906
v 0.00755880 0.03940262 0.02363128
v 0.00303302 0.06555462 0.04210904
v 0.00506796 0.06855643 0.04678355
v 0.00523789 0.06737292 0.04533959
v 0.00388264 0.06597781 0.04289220
v 0.00257989 0.06726891 0.04418524
v 0.00432886 0.06705014 0.04447893
v 0.00470877 0.06974352 0.04822751
v 0.00646603 0.07009140 0.05031186
v 0.00693850 0.06920198 0.05002226
v 0.00741098 0.06828028 0.04973265
v 0.00652268 0.06888996 0.04878225
v 0.00539123 0.07004119 0.04908817
v 0.00604606 0.07095931 0.05093187
v 0.00628644 0.07241539 0.05328136
v 0.00657932 0.06784632 0.04754632
v 0.00719270 0.06785708 0.04875777
v 0.00767484 0.06741954 0.04917791
v 0.00777016 0.06785708 0.05012831
v 0.00818461 0.06915894 0.05395847
v 0.00803127 0.06657315 0.05007528
v 0.00816251 0.07045363 0.05525151
v -0.00505010 0.05752109 0.03842572
v -0.00507773 0.05880860 0.03972284
v -0.00504734 0.03940262 0.02290114
v -0.00537890 0.06464009 0.04682434
v -0.00508879 0.06009971 0.04101587
v -0.00508879 0.06139798 0.04230891
v -0.00539271 0.06596346 0.04808474
v -0.00542587 0.06989415 0.05318346
v -0.00445192 0.06917329 0.05011199
v -0.00424331 0.06875010 0.04911672
v -0.00470611 0.06782839 0.04883119
v -0.00574914 0.07092345 0.05701770
v -0.00562204 0.07175549 0.05701770
v -0.00295161 0.06735140 0.04536814
v -0.00281761 0.06853491 0.04681210
v -0.00246118 0.06583794 0.04306760
v -0.00392419 0.06961083 0.04970002
v -0.00159913 0.06594912 0.04292484
v -0.00084760 0.06604595 0.04280655
v 0.00044686 0.06684930 0.04345510
v 0.00103123 0.06852774 0.04552314
v 0.00117905 0.06852774 0.04552314
v 0.00173856 0.06687082 0.04342655
v 0.00303302 0.06608182 0.04275760
v 0.00801607 0.06527488 0.04878225
v 0.00762234 0.03940262 0.02430838
v 0.00173856 0.06735140 0.04407103
v 0.00203834 0.06845242 0.04562920
v 0.00303302 0.06994795 0.04794198
v 0.00303302 0.06946737 0.04729342
v 0.00292112 0.07064012 0.04890462
v 0.00429709 0.07017389 0.04870883
v 0.00432886 0.07088400 0.04976120
v 0.00518401 0.07119243 0.05058923
v 0.00756570 0.07240104 0.05589191
v 0.00728388 0.07048591 0.05256754
v 0.00736815 0.06952117 0.05136832
v 0.00762373 0.06860305 0.05059331
v 0.00606540 0.07358097 0.05477427
v 0.00639005 0.07383919 0.05563493
v 0.00645084 0.07264851 0.05395847
v 0.00775082 0.06887203 0.05136832
v 0.00807686 0.07174832 0.05654454
v 0.00817494 0.06786425 0.05266136
v 0.00832414 0.07045363 0.05654454
v 0.00816251 0.07174832 0.05701770
v -0.00518273 0.03940262 0.02419825
v -0.00575190 0.07045363 0.05654454
v -0.00475308 0.07048591 0.05261649
v -0.00555849 0.07175908 0.05657717
v -0.00548527 0.07133230 0.05554111
v -0.00544521 0.07247277 0.05701770
v -0.00543692 0.07249429 0.05701770
v -0.00525318 0.07219662 0.05616928
v -0.00508602 0.07175908 0.05516993
v -0.00415904 0.06991567 0.05056476
v -0.00576986 0.07045363 0.05701770
v -0.00554882 0.07209620 0.05701770
v -0.00306075 0.07001609 0.04912488
v -0.00204673 0.06932392 0.04760342
v -0.00214068 0.06701428 0.04452787
v -0.00289083 0.07116732 0.05062187
v -0.00241559 0.06971484 0.04826014
v -0.00207436 0.06629341 0.04354076
v -0.00406510 0.07107766 0.05205359
v -0.00393800 0.07223607 0.05353833
v -0.00077023 0.06674530 0.04371616
v -0.00084760 0.06942792 0.04735053
v -0.00084760 0.06990850 0.04799908
v 0.00044686 0.06958214 0.04714250
v 0.00044686 0.07005913 0.04779106
v 0.00075217 0.07118167 0.04930844
v 0.00173856 0.07008423 0.04775842
v 0.00173856 0.06960724 0.04710987
v 0.00761544 0.03940262 0.02508747
v 0.00834348 0.07045363 0.05701770
v 0.00241549 0.07110994 0.04941857
v 0.00432886 0.07131078 0.05040568
v 0.00473088 0.07233649 0.05210661
v 0.00520335 0.07377104 0.05448466
v 0.00687357 0.07298921 0.05533309
v 0.00724658 0.07325102 0.05654454
v 0.00735019 0.07339806 0.05701770
v 0.00757261 0.07308605 0.05701770
v 0.00770385 0.07260547 0.05654454
v 0.00765274 0.07123546 0.05441531
v 0.00753807 0.06976504 0.05206990
v 0.00772319 0.07006989 0.05293465
v 0.00571312 0.07509084 0.05701770
v 0.00636104 0.07475731 0.05701770
v 0.00776049 0.07169811 0.05537795
v 0.00777016 0.07277403 0.05701770
v -0.00513990 0.03940262 0.02549129
v -0.00573809 0.06962876 0.05701770
v -0.00449889 0.07178418 0.05396663
v -0.00465085 0.07358097 0.05701770
v -0.00476275 0.07308963 0.05647112
v -0.00438837 0.07281706 0.05525151
v -0.00418114 0.07253733 0.05439900
v -0.00307595 0.07260188 0.05299991
v -0.00288806 0.07374594 0.05451729
v -0.00243632 0.07231497 0.05213925
v -0.00214068 0.07084814 0.04981423
v -0.00204673 0.07012727 0.04872922
v -0.00407477 0.07368139 0.05591230
v -0.00382886 0.07346620 0.05525151
v -0.00084760 0.07045004 0.04878225
v 0.00037226 0.07077282 0.04883935
v 0.00173856 0.07116374 0.04932883
v 0.00173856 0.07072978 0.04868435
v -0.00214068 0.07342316 0.05371373
v -0.00084760 0.07357380 0.05349347
v -0.00007120 0.07365987 0.05335478
v 0.00039575 0.07335503 0.05273070
v 0.00079224 0.07375670 0.05320386
v 0.00151890 0.07375670 0.05320386
v 0.00750906 0.03940262 0.02573603
v 0.00827717 0.06915894 0.05654454
v 0.00822329 0.06915894 0.05701770
v 0.00238095 0.07368856 0.05330991
v 0.00432886 0.07345903 0.05365663
v 0.00432886 0.07388581 0.05430518
v 0.00455266 0.07489000 0.05605914
v 0.00562056 0.07510519 0.05698507
v 0.00562056 0.07512312 0.05701770
v -0.00469368 0.03940262 0.02678432
v -0.00545764 0.06834842 0.05701770
v -0.00553225 0.06856360 0.05701770
v -0.00565520 0.06914818 0.05701770
v -0.00431515 0.07403644 0.05701770
v -0.00427232 0.07395036 0.05677296
v -0.00214068 0.07384636 0.05436229
v -0.00373630 0.07463178 0.05701770
v -0.00302345 0.07511953 0.05696467
v -0.00214620 0.07542796 0.05701770
v -0.00214068 0.07525940 0.05672402
v -0.00214068 0.07487924 0.05607954
v -0.00214068 0.07438790 0.05525151
v 0.00039575 0.07408665 0.05385649
v 0.00044686 0.07477882 0.05494966
v 0.00173856 0.07518409 0.05556151
v 0.00173856 0.07480034 0.05491703
v 0.00186566 0.07410100 0.05383202
v 0.00706975 0.03940262 0.02678024
v 0.00781161 0.06799336 0.05701770
v 0.00303302 0.07467840 0.05512506
v 0.00303302 0.07402927 0.05407676
v 0.00420315 0.07456364 0.05537795
v 0.00303302 0.07551762 0.05654454
v 0.00428051 0.07551403 0.05701770
v -0.00422259 0.03940262 0.02756749
v -0.00479453 0.06769211 0.05701770
v -0.00084760 0.07398981 0.05413794
v -0.00304694 0.07513387 0.05701770
v -0.00139743 0.07559294 0.05701770
v -0.00091253 0.07536341 0.05643849
v -0.00138776 0.07496173 0.05593677
v 0.00044686 0.07572205 0.05654454
v 0.00173856 0.07576508 0.05654454
v 0.00647570 0.03940262 0.02760420
v 0.00723967 0.06744106 0.05701770
v 0.00303302 0.07579377 0.05701770
v -0.00343514 0.03940262 0.02772657
v -0.00387031 0.06710035 0.05701770
v -0.00411760 0.06716849 0.05701770
v -0.00013613 0.07586909 0.05701770
v 0.00044686 0.07599461 0.05701770
v 0.00098288 0.07601254 0.05701770
v 0.00173856 0.07603765 0.05701770
v 0.00562194 0.03940262 0.02776328
v 0.00715954 0.06739802 0.05701770
v 0.00696475 0.06732271 0.05701770
v 0.00647570 0.06713980 0.05701770
v 0.00611652 0.06705373 0.05701770
v -0.00004909 0.06697124 0.05701770
v -0.00084760 0.06697483 0.05701770
v -0.00214068 0.06698917 0.05701770
v -0.00332185 0.06705373 0.05701770
v -0.00353875 0.06707166 0.05701770
v 0.00562056 0.06701069 0.05701770
v 0.00516052 0.06698917 0.05701770
v 0.00432886 0.06695690 0.05701770
v 0.00303302 0.06696048 0.05701770
f 1 2 3
f 1 3 4
f 1 4 5
f 1 5 6
f 1 6 7
f 1 7 19
f 1 19 34
f 1 34 53
f 1 53 76
f 1 76 91
f 1 91 89
f 1 89 127
f 1 127 165
f 1 165 199
f 1 199 241
f 1 241 292
f 1 292 339
f 1 339 388
f 1 388 430
f 1 430 457
f 1 457 473
f 1 473 483
f 1 483 476
f 1 476 464
f 1 464 439
f 1 439 406
f 1 406 360
f 1 360 316
f 1 316 263
f 1 263 213
f 1 213 209
f 1 209 166
f 1 166 132
f 1 132 98
f 1 98 62
f 1 62 97
f 1 97 60
f 1 60 43
f 1 43 40
f 1 40 23
f 1 23 22
f 1 22 8
f 1 8 2
f 2 8 3
f 3 8 9
f 3 9 10
f 3 10 11
f 3 11 12
f 3 12 13
f 3 13 14
f 3 14 15
f 3 15 4
f 4 15 16
f 4 16 17
f 4 17 5
f 5 18 19
f 5 19 7
f 5 7 6
f 5 17 20
f 5 20 21
f 5 21 18
f 8 22 9
f 9 22 23
f 9 23 10
f 10 24 11
f 10 23 25
f 10 25 24
f 11 24 12
f 12 24 26
f 12 26 13
f 13 26 27
f 13 27 14
f 14 27 28
f 14 28 29
f 14 29 30
f 14 30 15
f 15 30 31
f 15 31 17
f 15 17 16
f 17 31 20
f 18 32 19
f 18 21 32
f 19 33 34
f 19 32 33
f 20 31 35
f 20 35 21
f 21 36 37
f 21 37 38
f 21 38 39
f 21 39 33
f 21 33 32
f 21 35 36
f 23 40 25
f 24 25 41
f 24 41 42
f 24 42 26
f 25 40 43
f 25 43 44
f 25 44 41
f 26 42 27
f 27 42 28
f 28 45 46
f 28 46 29
f 28 42 45
f 29 46 47
f 29 47 30
f 30 47 48
f 30 48 49
f 30 49 31
f 31 49 50
f 31 50 35
f 33 51 52
f 33 52 53
f 33 53 34
f 33 39 51
f 35 54 36
f 35 50 55
f 35 55 54
f 36 54 56
f 36 56 37
f 37 56 38
f 38 56 39
f 39 57 51
f 39 56 57
f 41 44 58
f 41 58 59
f 41 59 42
f 42 59 45
f 43 60 61
f 43 61 44
f 44 61 62
f 44 62 63
f 44 63 58
f 45 59 64
f 45 64 65
f 45 65 66
f 45 66 67
f 45 67 68
f 45 68 46
f 46 68 69
f 46 69 47
f 47 69 70
f 47 70 71
f 47 71 48
f 48 71 72
f 48 72 73
f 48 73 74
f 48 74 49
f 49 74 55
f 49 55 50
f 51 57 75
f 51 75 52
f 52 75 56
f 52 56 53
f 53 56 76
f 54 55 77
f 54 77 78
f 54 78 79
f 54 79 56
f 55 80 81
f 55 81 82
f 55 82 83
f 55 83 84
f 55 84 85
f 55 85 86
f 55 86 77
f 55 74 87
f 55 87 80
f 56 79 88
f 56 88 89
f 56 89 90
f 56 90 91
f 56 91 76
f 56 75 57
f 58 92 59
f 58 63 93
f 58 93 94
f 58 94 95
f 58 95 92
f 59 96 64
f 59 92 96
f 60 97 61
f 61 97 62
f 62 98 63
f 63 98 93
f 64 96 65
f 65 96 66
f 66 96 67
f 67 99 100
f 67 100 101
f 67 101 102
f 67 102 103
f 67 103 104
f 67 104 68
f 67 96 105
f 67 105 106
f 67 106 107
f 67 107 108
f 67 108 99
f 68 104 69
f 69 104 70
f 70 104 109
f 70 109 71
f 71 109 72
f 72 109 110
f 72 110 73
f 73 110 111
f 73 111 112
f 73 112 87
f 73 87 74
f 77 86 78
f 78 83 113
f 78 113 114
f 78 114 115
f 78 115 116
f 78 116 117
f 78 117 79
f 78 86 85
f 78 85 84
f 78 84 83
f 79 117 88
f 80 87 112
f 80 112 118
f 80 118 81
f 81 118 119
f 81 119 120
f 81 120 121
f 81 121 122
f 81 122 82
f 82 122 123
f 82 123 83
f 83 123 113
f 88 117 124
f 88 124 125
f 88 125 126
f 88 126 89
f 89 91 90
f 89 126 127
f 92 95 96
f 93 128 94
f 93 98 128
f 94 128 129
f 94 129 130
f 94 130 95
f 95 130 131
f 95 131 96
f 96 131 105
f 98 132 128
f 99 108 133
f 99 133 134
f 99 134 135
f 99 135 136
f 99 136 137
f 99 137 100
f 100 137 138
f 100 138 101
f 101 138 139
f 101 139 102
f 102 140 103
f 102 139 141
f 102 141 140
f 103 142 109
f 103 109 104
f 103 140 143
f 103 143 144
f 103 144 142
f 105 131 145
f 105 145 106
f 106 145 134
f 106 134 133
f 106 133 107
f 107 133 108
f 109 142 111
f 109 111 110
f 111 142 144
f 111 144 112
f 112 144 146
f 112 146 147
f 112 147 118
f 113 123 114
f 114 123 148
f 114 148 115
f 115 148 149
f 115 149 150
f 115 150 116
f 116 150 151
f 116 151 152
f 116 152 153
f 116 153 154
f 116 154 124
f 116 124 117
f 118 147 155
f 118 155 119
f 119 155 156
f 119 156 121
f 119 121 120
f 121 156 157
f 121 157 158
f 121 158 123
f 121 123 122
f 123 158 159
f 123 159 160
f 123 160 148
f 124 154 125
f 125 161 162
f 125 162 126
f 125 154 163
f 125 163 161
f 126 162 164
f 126 164 127
f 127 164 165
f 128 132 166
f 128 166 167
f 128 167 168
f 128 168 129
f 129 168 169
f 129 169 170
f 129 170 130
f 130 170 171
f 130 171 172
f 130 172 131
f 131 172 173
f 131 173 145
f 134 145 174
f 134 174 175
f 134 175 176
f 134 176 135
f 135 176 136
f 136 177 137
f 136 176 177
f 137 177 178
f 137 178 138
f 138 178 179
f 138 179 180
f 138 180 181
f 138 181 182
f 138 182 183
f 138 183 139
f 139 184 141
f 139 183 185
f 139 185 186
f 139 186 184
f 140 187 188
f 140 188 144
f 140 144 143
f 140 141 189
f 140 189 187
f 141 184 190
f 141 190 189
f 144 188 146
f 145 173 191
f 145 191 174
f 146 188 187
f 146 187 192
f 146 192 147
f 147 192 193
f 147 193 194
f 147 194 155
f 148 160 195
f 148 195 149
f 149 195 196
f 149 196 150
f 150 196 151
f 151 196 197
f 151 197 152
f 152 197 153
f 153 197 198
f 153 198 154
f 154 199 165
f 154 165 163
f 154 198 199
f 155 194 200
f 155 200 201
f 155 201 156
f 156 201 202
f 156 202 157
f 157 202 203
f 157 203 204
f 157 204 159
f 157 159 158
f 159 204 205
f 159 205 206
f 159 206 207
f 159 207 160
f 160 207 208
f 160 208 195
f 161 163 165
f 161 165 162
f 162 165 164
f 166 209 167
f 167 209 168
f 168 210 211
f 168 211 212
f 168 212 169
f 168 209 213
f 168 213 210
f 169 212 214
f 169 214 171
f 169 171 170
f 171 214 191
f 171 191 172
f 172 191 173
f 174 191 215
f 174 215 216
f 174 216 175
f 175 216 217
f 175 217 218
f 175 218 219
f 175 219 176
f 176 219 177
f 177 220 178
f 177 219 220
f 178 220 179
f 179 221 222
f 179 222 180
f 179 220 221
f 180 222 223
f 180 223 181
f 181 223 224
f 181 224 185
f 181 185 182
f 182 185 183
f 184 186 225
f 184 225 226
f 184 226 190
f 185 224 227
f 185 227 228
f 185 228 229
f 185 229 230
f 185 230 186
f 186 231 225
f 186 230 231
f 187 193 192
f 187 189 193
f 189 190 193
f 190 226 232
f 190 232 233
f 190 233 193
f 191 214 215
f 193 233 194
f 194 233 234
f 194 234 235
f 194 235 236
f 194 236 200
f 195 208 196
f 196 208 237
f 196 237 197
f 197 237 238
f 197 238 239
f 197 239 198
f 198 239 240
f 198 240 199
f 199 240 241
f 200 236 242
f 200 242 243
f 200 243 244
f 200 244 201
f 201 245 202
f 201 244 246
f 201 246 247
f 201 247 245
f 202 245 248
f 202 248 203
f 203 248 204
f 204 249 250
f 204 250 251
f 204 251 252
f 204 252 253
f 204 253 254
f 204 254 205
f 204 248 255
f 204 255 256
f 204 256 249
f 205 254 206
f 206 254 257
f 206 257 208
f 206 208 207
f 208 257 258
f 208 258 259
f 208 259 260
f 208 260 261
f 208 261 237
f 210 213 211
f 211 213 212
f 212 262 214
f 212 213 262
f 213 263 262
f 214 262 215
f 215 262 216
f 216 262 264
f 216 264 265
f 216 265 266
f 216 266 217
f 217 266 267
f 217 267 218
f 218 220 219
f 218 267 220
f 220 267 221
f 221 268 269
f 221 269 222
f 221 267 270
f 221 270 268
f 222 269 268
f 222 268 271
f 222 271 223
f 223 271 224
f 224 271 227
f 225 231 272
f 225 272 273
f 225 273 226
f 226 274 232
f 226 273 275
f 226 275 274
f 227 276 277
f 227 277 228
f 227 271 276
f 228 278 229
f 228 277 279
f 228 279 280
f 228 280 278
f 229 278 230
f 230 278 231
f 231 278 272
f 232 281 234
f 232 234 233
f 232 274 281
f 234 282 283
f 234 283 284
f 234 284 285
f 234 285 235
f 234 281 274
f 234 274 275
f 234 275 286
f 234 286 287
f 234 287 282
f 235 243 242
f 235 242 236
f 235 285 288
f 235 288 289
f 235 289 243
f 237 261 290
f 237 290 238
f 238 290 239
f 239 290 240
f 240 290 291
f 240 291 241
f 241 291 292
f 243 289 288
f 243 288 293
f 243 293 244
f 244 293 246
f 245 247 248
f 246 293 247
f 247 294 295
f 247 295 248
f 247 293 296
f 247 296 297
f 247 297 298
f 247 298 299
f 247 299 294
f 248 295 256
f 248 256 255
f 249 256 250
f 250 300 301
f 250 301 302
f 250 302 303
f 250 303 251
f 250 256 295
f 250 295 294
f 250 294 304
f 250 304 305
f 250 305 306
f 250 306 300
f 251 303 307
f 251 307 252
f 252 307 308
f 252 308 254
f 252 254 253
f 254 308 257
f 257 308 302
f 257 302 309
f 257 309 258
f 258 309 310
f 258 310 259
f 259 310 260
f 260 311 312
f 260 312 261
f 260 310 313
f 260 313 311
f 261 291 290
f 261 312 291
f 262 263 314
f 262 314 315
f 262 315 264
f 263 316 317
f 263 317 315
f 263 315 314
f 264 315 318
f 264 318 265
f 265 318 266
f 266 318 319
f 266 319 267
f 267 319 320
f 267 320 270
f 268 270 271
f 270 321 322
f 270 322 323
f 270 323 324
f 270 324 276
f 270 276 271
f 270 320 325
f 270 325 326
f 270 326 321
f 272 278 327
f 272 327 328
f 272 328 329
f 272 329 287
f 272 287 286
f 272 286 273
f 273 286 275
f 276 324 277
f 277 324 279
f 278 280 330
f 278 330 327
f 279 324 323
f 279 323 280
f 280 323 330
f 282 287 331
f 282 331 283
f 283 331 332
f 283 332 284
f 284 332 333
f 284 333 334
f 284 334 285
f 285 334 335
f 285 335 336
f 285 336 337
f 285 337 288
f 287 329 331
f 288 337 293
f 291 312 338
f 291 338 292
f 292 338 339
f 293 337 296
f 294 299 304
f 296 337 297
f 297 337 336
f 297 336 340
f 297 340 341
f 297 341 342
f 297 342 343
f 297 343 299
f 297 299 298
f 299 342 344
f 299 344 345
f 299 345 346
f 299 346 347
f 299 347 304
f 299 343 342
f 300 306 348
f 300 348 349
f 300 349 301
f 301 349 350
f 301 350 351
f 301 351 302
f 302 308 303
f 302 351 309
f 303 308 307
f 304 347 305
f 305 352 306
f 305 347 352
f 306 352 353
f 306 353 354
f 306 354 348
f 309 351 355
f 309 355 310
f 310 355 356
f 310 356 313
f 311 357 312
f 311 313 358
f 311 358 357
f 312 357 338
f 313 356 359
f 313 359 358
f 315 317 320
f 315 320 318
f 316 360 317
f 317 361 320
f 317 360 361
f 318 320 319
f 320 361 325
f 321 362 322
f 321 326 363
f 321 363 364
f 321 364 365
f 321 365 366
f 321 366 367
f 321 367 368
f 321 368 362
f 322 369 323
f 322 362 369
f 323 369 330
f 325 361 370
f 325 370 407
f 325 407 442
f 325 442 441
f 325 441 440
f 325 440 465
f 325 465 478
f 325 478 477
f 325 477 492
f 325 492 491
f 325 491 490
f 325 490 489
f 325 489 488
f 325 488 496
f 325 496 495
f 325 495 494
f 325 494 493
f 325 493 487
f 325 487 486
f 325 486 485
f 325 485 484
f 325 484 474
f 325 474 458
f 325 458 432
f 325 432 389
f 325 389 359
f 325 359 405
f 325 405 397
f 325 397 396
f 325 396 403
f 325 403 402
f 325 402 438
f 325 438 463
f 325 463 475
f 325 475 482
f 325 482 481
f 325 481 480
f 325 480 479
f 325 479 468
f 325 468 448
f 325 448 467
f 325 467 446
f 325 446 443
f 325 443 409
f 325 409 366
f 325 366 365
f 325 365 371
f 325 371 326
f 326 371 363
f 327 330 372
f 327 372 328
f 328 373 374
f 328 374 329
f 328 372 375
f 328 375 376
f 328 376 373
f 329 377 331
f 329 374 377
f 330 369 378
f 330 378 379
f 330 379 372
f 331 377 332
f 332 377 380
f 332 380 333
f 333 380 374
f 333 374 373
f 333 373 381
f 333 381 334
f 334 381 382
f 334 382 383
f 334 383 384
f 334 384 385
f 334 385 335
f 335 386 387
f 335 387 340
f 335 340 336
f 335 385 386
f 338 357 339
f 339 357 358
f 339 358 389
f 339 389 388
f 340 387 341
f 341 387 342
f 342 390 344
f 342 387 386
f 342 386 390
f 344 390 346
f 344 346 345
f 346 390 391
f 346 391 392
f 346 392 347
f 347 392 393
f 347 393 352
f 348 394 395
f 348 395 396
f 348 396 397
f 348 397 398
f 348 398 399
f 348 399 351
f 348 351 400
f 348 400 349
f 348 354 394
f 349 400 350
f 350 400 351
f 351 399 401
f 351 401 355
f 352 393 402
f 352 402 403
f 352 403 353
f 353 403 394
f 353 394 354
f 355 401 356
f 356 401 404
f 356 404 405
f 356 405 359
f 358 359 389
f 360 406 407
f 360 407 370
f 360 370 361
f 362 368 408
f 362 408 369
f 363 371 364
f 364 371 365
f 366 409 410
f 366 410 367
f 367 410 411
f 367 411 412
f 367 412 368
f 368 412 408
f 369 408 412
f 369 412 378
f 372 379 375
f 373 376 382
f 373 382 381
f 374 380 377
f 375 379 413
f 375 413 414
f 375 414 415
f 375 415 416
f 375 416 376
f 376 416 417
f 376 417 382
f 378 412 379
f 379 412 418
f 379 418 419
f 379 419 413
f 382 417 420
f 382 420 421
f 382 421 384
f 382 384 383
f 384 421 385
f 385 422 423
f 385 423 386
f 385 421 420
f 385 420 416
f 385 416 424
f 385 424 425
f 385 425 426
f 385 426 427
f 385 427 428
f 385 428 429
f 385 429 422
f 386 423 390
f 388 389 431
f 388 431 432
f 388 432 430
f 389 432 431
f 390 422 433
f 390 433 434
f 390 434 391
f 390 423 422
f 391 434 392
f 392 434 435
f 392 435 393
f 393 435 436
f 393 436 437
f 393 437 402
f 394 403 395
f 395 403 396
f 397 405 398
f 398 404 399
f 398 405 404
f 399 404 401
f 402 437 438
f 406 439 440
f 406 440 441
f 406 441 442
f 406 442 407
f 409 443 444
f 409 444 410
f 410 444 418
f 410 418 411
f 411 418 412
f 413 419 414
f 414 445 424
f 414 424 415
f 414 419 446
f 414 446 447
f 414 447 448
f 414 448 449
f 414 449 450
f 414 450 451
f 414 451 445
f 415 424 416
f 416 420 417
f 418 444 446
f 418 446 419
f 422 429 433
f 424 445 425
f 425 445 426
f 426 445 428
f 426 428 427
f 428 445 452
f 428 452 453
f 428 453 454
f 428 454 455
f 428 455 429
f 429 455 456
f 429 456 433
f 430 432 458
f 430 458 457
f 433 456 455
f 433 455 459
f 433 459 460
f 433 460 435
f 433 435 434
f 435 460 459
f 435 459 461
f 435 461 436
f 436 461 459
f 436 459 462
f 436 462 463
f 436 463 437
f 437 463 438
f 439 464 440
f 440 464 465
f 443 446 444
f 445 466 452
f 445 451 453
f 445 453 466
f 446 467 447
f 447 467 448
f 448 468 449
f 449 468 469
f 449 469 450
f 450 469 470
f 450 470 451
f 451 470 453
f 452 466 453
f 453 470 469
f 453 469 471
f 453 471 454
f 454 459 455
f 454 471 472
f 454 472 462
f 454 462 459
f 457 458 473
f 458 474 473
f 462 472 475
f 462 475 463
f 464 476 477
f 464 477 478
f 464 478 465
f 468 479 469
f 469 479 471
f 471 479 480
f 471 480 481
f 471 481 472
f 472 481 482
f 472 482 475
f 473 474 484
f 473 484 485
f 473 485 486
f 473 486 487
f 473 487 483
f 476 483 488
f 476 488 489
f 476 489 490
f 476 490 491
f 476 491 492
f 476 492 477
f 483 487 493
f 483 493 494
f 483 494 495
f 483 495 496
f 483 496 488

