# https://github.com/mikedh/trimesh
v -0.01979936 0.02577119 0.03618727
v -0.02786338 0.01605335 0.03618727
v -0.02688129 0.02577119 0.03618727
v -0.02903097 0.02577119 0.10443506
v -0.03536215 0.01605335 0.10575914
v -0.03523338 0.01605335 0.10467253
v -0.03577026 0.01605335 0.03618727
v -0.02710390 0.02577119 0.03714435
v -0.03448482 0.01870064 0.03618727
v -0.03460703 0.01886045 0.03714435
v -0.03478599 0.01904214 0.03843245
v -0.03509153 0.01930088 0.04053371
v -0.03520938 0.01939124 0.04139724
v -0.03639879 0.01929422 0.04570770
v -0.02921865 0.02577119 0.10572316
v -0.03537742 0.01605335 0.10585269
v -0.03577462 0.01610186 0.03618727
v -0.03595794 0.01605335 0.03709397
v -0.03597322 0.01610186 0.03714435
v -0.02730686 0.02577119 0.03806545
v -0.03648827 0.01938934 0.04657123
v -0.03485583 0.01834869 0.03618727
v -0.03517882 0.01809090 0.03635997
v -0.03527485 0.01821266 0.03714435
v -0.03651228 0.01817366 0.04257740
v -0.03661048 0.01834203 0.04361364
v -0.03773224 0.01933892 0.05330678
v -0.02951983 0.02577119 0.10701846
v -0.03558039 0.01605335 0.10701846
v -0.03569605 0.01644621 0.03618727
v -0.03648390 0.01689900 0.04011634
v -0.03620019 0.01605335 0.03838927
v -0.03621328 0.01610186 0.03843245
v -0.02831950 0.02577119 0.04270693
v -0.03657120 0.01947400 0.04749234
v -0.02864905 0.02577119 0.04424690
v -0.02851374 0.02577119 0.04361364
v -0.03788938 0.01953964 0.05525692
v -0.03515481 0.01804905 0.03618727
v -0.03568078 0.01739650 0.03714435
v -0.03642716 0.01801671 0.04171387
v -0.03525084 0.01784453 0.03618727
v -0.03544507 0.01742028 0.03618727
v -0.03773443 0.01805095 0.04941369
v -0.03778899 0.01816985 0.05008293
v -0.03756420 0.01903548 0.05137823
v -0.03765804 0.01920480 0.05245045
v -0.03788938 0.01838864 0.05137823
v -0.03852446 0.01869018 0.05655222
v -0.03883873 0.01884809 0.05914282
v -0.03892602 0.01907258 0.06043812
v -0.03898713 0.01923619 0.06136641
v -0.03904387 0.01936746 0.06222994
v -0.02974680 0.02577119 0.10777405
v -0.03559130 0.01605335 0.10706163
v -0.03666941 0.01750970 0.04221760
v -0.03623729 0.01735655 0.03969896
v -0.03595794 0.01739650 0.03843245
v -0.03638133 0.01610186 0.03941112
v -0.03649045 0.01610186 0.04005877
v -0.03664322 0.01610186 0.04102304
v -0.03773443 0.01676393 0.04812559
v -0.03715172 0.01739650 0.04490894
v -0.03694658 0.01739650 0.04361364
v -0.03648827 0.01605335 0.04006596
v -0.03799632 0.01966520 0.05655222
v -0.03759257 0.02053273 0.05914282
v -0.03746381 0.02042999 0.05784752
v -0.02867087 0.02577119 0.04436203
v -0.03903514 0.01807473 0.05841601
v -0.03877326 0.01857984 0.05793387
v -0.03907661 0.01820124 0.05914282
v -0.03918573 0.01875867 0.06176939
v -0.03934286 0.01869018 0.06302152
v -0.03948254 0.01869018 0.06431681
v -0.03961567 0.01869018 0.06561211
v -0.03916609 0.01957864 0.06431681
v -0.03908970 0.01944832 0.06302152
v -0.03877544 0.02035104 0.06561211
v -0.03809889 0.01978315 0.05784752
v -0.02981227 0.02577119 0.10794676
v -0.03604524 0.01605335 0.10842890
v -0.03684182 0.01610186 0.04231834
v -0.03773443 0.01673634 0.04812559
v -0.03663013 0.01605335 0.04097267
v -0.03767986 0.02059646 0.06004233
v -0.02973370 0.02577119 0.05006134
v -0.02955911 0.02577119 0.04910426
v -0.02936706 0.02577119 0.04806083
v -0.02901787 0.02577119 0.04620423
v -0.03903514 0.01768377 0.05841601
v -0.03922720 0.01739650 0.06043812
v -0.03934941 0.01739650 0.06173341
v -0.03959166 0.01739650 0.06431681
v -0.03970515 0.01739650 0.06561211
v -0.03973133 0.01869018 0.06690741
v -0.03924029 0.01970325 0.06561211
v -0.03886710 0.02045568 0.06690741
v -0.03775843 0.02065258 0.06090586
v -0.03001305 0.02577119 0.10837853
v -0.03637479 0.01605335 0.10900458
v -0.03682436 0.01605335 0.04224638
v -0.03703606 0.01610186 0.04361364
v -0.03721065 0.01610186 0.04490894
v -0.03720192 0.01605335 0.04490894
v -0.03777808 0.01651185 0.04878763
v -0.03902423 0.01682100 0.05851676
v -0.03896531 0.01730994 0.05793387
v -0.03035569 0.02577119 0.05359463
v -0.03019638 0.02577119 0.05268072
v -0.03908752 0.01730994 0.05902768
v -0.04034023 0.01818127 0.07370772
v -0.04207961 0.01605335 0.09667047
v -0.04034023 0.01792158 0.07370772
v -0.04013290 0.01869018 0.07208140
v -0.04026821 0.01901646 0.07466480
v -0.04029876 0.01920290 0.07565067
v -0.04032495 0.01935034 0.07651420
v -0.03930140 0.01980884 0.06690741
v -0.03900241 0.02060597 0.06903026
v -0.03802469 0.02084568 0.06431681
v -0.03174807 0.02577119 0.06248900
v -0.03158876 0.02577119 0.06140959
v -0.03119592 0.02577119 0.05885497
v -0.03104097 0.02577119 0.05784752
v -0.03089475 0.02577119 0.05690483
v -0.03071143 0.02577119 0.05573187
v -0.03053247 0.02577119 0.05464526
v -0.03024439 0.02577119 0.10868076
v -0.03045390 0.02577119 0.10888225
v -0.03085328 0.02577119 0.10914131
v -0.03696840 0.01605335 0.10932841
v -0.03702732 0.01605335 0.04361364
v -0.03719537 0.01605335 0.04485856
v -0.03785664 0.01605335 0.05008293
v -0.03787192 0.01605335 0.05020526
v -0.03802469 0.01610186 0.05137823
v -0.03801596 0.01605335 0.05137823
v -0.03816436 0.01605335 0.05267353
v -0.03830403 0.01605335 0.05391845
v -0.03844807 0.01605335 0.05521375
v -0.03859648 0.01605335 0.05655222
v -0.03873397 0.01605335 0.05779715
v -0.03886492 0.01605335 0.05903488
v -0.03906133 0.01663265 0.05938029
v -0.04207306 0.01610186 0.09667047
v -0.04023547 0.01864357 0.07331194
v -0.04209270 0.01605335 0.09795857
v -0.03946508 0.01605335 0.06561211
v -0.04123283 0.01869018 0.09148928
v -0.04034896 0.01939980 0.07725540
v -0.04018091 0.02038814 0.08242939
v -0.04013508 0.02030824 0.08113409
v -0.03985355 0.01998482 0.07466480
v -0.03975752 0.01998482 0.07336951
v -0.03904824 0.02065544 0.06989379
v -0.03964622 0.01998482 0.07208140
v -0.03191175 0.02577119 0.06361879
v -0.03675671 0.02577119 0.09797297
v -0.03116755 0.02577119 0.10929242
v -0.03320156 0.02386586 0.10957308
v -0.03708407 0.01739650 0.10958747
v -0.03837824 0.01605335 0.10968102
v -0.03934505 0.01605335 0.06428083
v -0.03946071 0.01605335 0.06556174
v -0.04178935 0.01719198 0.09667047
v -0.04175225 0.01718532 0.09537517
v -0.04140306 0.01605335 0.10442787
v -0.04207743 0.01610186 0.09795857
v -0.04126120 0.01869018 0.09278458
v -0.04076143 0.01998482 0.09019398
v -0.04050609 0.01974130 0.08242939
v -0.04046899 0.01966044 0.08113409
v -0.04042971 0.01957388 0.07983880
v -0.04022238 0.02045758 0.08372469
v -0.03920756 0.02081525 0.07336951
v -0.03915081 0.02075817 0.07208140
v -0.03776280 0.02454980 0.09720298
v -0.03676325 0.02577119 0.09894444
v -0.03185501 0.02577119 0.10950111
v -0.03259048 0.02577119 0.10968821
v -0.03320156 0.02516050 0.10970260
v -0.03578990 0.02127755 0.10969541
v -0.03837824 0.01610186 0.10968102
v -0.03842625 0.01605335 0.10967382
v -0.04174788 0.01709876 0.09795857
v -0.04150564 0.01774560 0.09795857
v -0.04113680 0.01869018 0.09795857
v -0.04152964 0.01783977 0.09667047
v -0.04124374 0.01869018 0.09407988
v -0.04139651 0.01605335 0.10448543
v -0.04028567 0.01924190 0.10474449
v -0.04077671 0.01998482 0.09148928
v -0.04039479 0.02074390 0.09019398
v -0.04033804 0.02065734 0.08789123
v -0.04031622 0.02062500 0.08702770
v -0.04056720 0.01987733 0.08501999
v -0.04053665 0.01981074 0.08372469
v -0.04040788 0.02076863 0.09148928
v -0.04026166 0.02052512 0.08501999
v -0.03925993 0.02086376 0.07466480
v -0.03886492 0.02303829 0.09537517
v -0.03891729 0.02305826 0.09667047
v -0.03776280 0.02454980 0.09762036
v -0.03649482 0.02577119 0.10277996
v -0.03320156 0.02577119 0.10963784
v -0.03449573 0.02386586 0.10965223
v -0.03708407 0.01869018 0.10968821
v -0.03708407 0.01998482 0.10962345
v -0.03837824 0.01739650 0.10962345
v -0.03973788 0.01605430 0.10924205
v -0.03973788 0.01605335 0.10924205
v -0.04104296 0.01869018 0.09925387
v -0.04056502 0.01986306 0.09925387
v -0.04059775 0.01993725 0.09795857
v -0.04074179 0.01998482 0.09278458
v -0.04117609 0.01869018 0.09667047
v -0.04125248 0.01605335 0.10566559
v -0.04124374 0.01605335 0.10572316
v -0.04043407 0.01837152 0.10572316
v -0.04020710 0.01901836 0.10572316
v -0.03974443 0.01998482 0.10572316
v -0.04001505 0.01986781 0.10436310
v -0.04032932 0.01935890 0.10388096
v -0.04039260 0.02075341 0.09278458
v -0.03930576 0.02241047 0.09667047
v -0.03927085 0.02232391 0.09795857
v -0.03886273 0.02297075 0.09795857
v -0.03642934 0.02577119 0.10360751
v -0.03399377 0.02577119 0.10942915
v -0.03578990 0.02257218 0.10952990
v -0.03837824 0.01869018 0.10944354
v -0.03904169 0.01937032 0.10897580
v -0.04027912 0.01605335 0.10889664
v -0.04050609 0.01974035 0.10054917
v -0.04025730 0.02051085 0.09925387
v -0.04029658 0.02058409 0.09795857
v -0.04032932 0.02064688 0.09624590
v -0.04036860 0.02071632 0.09407988
v -0.04101459 0.01605335 0.10694650
v -0.04098404 0.01610186 0.10701846
v -0.04035550 0.01814512 0.10655791
v -0.04010016 0.01862169 0.10700407
v -0.03939961 0.02009896 0.10710482
v -0.03920974 0.02092178 0.10572316
v -0.03931667 0.02108920 0.10443506
v -0.03910280 0.02075437 0.10673062
v -0.04011762 0.02024070 0.10184446
v -0.04019400 0.02038814 0.10054917
v -0.03997795 0.02132130 0.09537517
v -0.04002159 0.02115769 0.09667047
v -0.03989283 0.02127755 0.09795857
v -0.03964186 0.02127755 0.10054917
v -0.03941052 0.02140406 0.10195960
v -0.03907443 0.02199858 0.10160699
v -0.03633986 0.02577119 0.10443506
v -0.03641407 0.02577119 0.10375143
v -0.03442807 0.02577119 0.10924925
v -0.03459830 0.02524706 0.10932121
v -0.03716045 0.02132130 0.10929242
v -0.03834550 0.01987542 0.10915570
v -0.04021146 0.01645382 0.10881029
v -0.03649045 0.02331510 0.10899738
v -0.03509807 0.02573695 0.10891823
v -0.03764058 0.02178265 0.10885346
v -0.03921192 0.01966710 0.10831376
v -0.03961130 0.01869018 0.10831376
v -0.04042316 0.01704359 0.10794676
v -0.04055629 0.01605430 0.10835693
v -0.04055629 0.01605335 0.10835693
v -0.04099932 0.01605335 0.10702565
v -0.04027257 0.01790636 0.10742144
v -0.03900895 0.02060692 0.10759415
v -0.03769296 0.02316005 0.10619091
v -0.03809889 0.02266635 0.10574475
v -0.03778244 0.02329988 0.10532738
v -0.03890638 0.02173604 0.10443506
v -0.03939524 0.02121001 0.10313976
v -0.03801596 0.02237337 0.10701846
v -0.03852883 0.02257218 0.10313976
v -0.03784791 0.02340071 0.10443506
v -0.03613035 0.02577119 0.10572316
v -0.03505661 0.02577119 0.10892543
v -0.03508716 0.02577119 0.10888944
v -0.03548218 0.02577119 0.10814825
v -0.03787410 0.02214983 0.10798993
v -0.03646426 0.02455741 0.10774527
v -0.03587065 0.02577119 0.10697528
v -0.03607361 0.02577119 0.10600381
v -0.03567641 0.02577119 0.10760854
f 1 2 7
f 1 7 17
f 1 17 30
f 1 30 43
f 1 43 42
f 1 42 39
f 1 39 22
f 1 22 9
f 1 9 3
f 1 3 8
f 1 8 20
f 1 20 34
f 1 34 37
f 1 37 36
f 1 36 69
f 1 69 90
f 1 90 89
f 1 89 88
f 1 88 87
f 1 87 110
f 1 110 109
f 1 109 128
f 1 128 127
f 1 127 126
f 1 126 125
f 1 125 124
f 1 124 123
f 1 123 122
f 1 122 158
f 1 158 159
f 1 159 179
f 1 179 205
f 1 205 229
f 1 229 257
f 1 257 256
f 1 256 282
f 1 282 289
f 1 289 288
f 1 288 290
f 1 290 285
f 1 285 284
f 1 284 283
f 1 283 258
f 1 258 230
f 1 230 206
f 1 206 181
f 1 181 180
f 1 180 160
f 1 160 131
f 1 131 130
f 1 130 129
f 1 129 100
f 1 100 81
f 1 81 54
f 1 54 28
f 1 28 15
f 1 15 4
f 1 4 5
f 1 5 6
f 1 6 2
f 2 6 5
f 2 5 16
f 2 16 29
f 2 29 55
f 2 55 82
f 2 82 101
f 2 101 132
f 2 132 163
f 2 163 185
f 2 185 212
f 2 212 234
f 2 234 270
f 2 270 271
f 2 271 240
f 2 240 219
f 2 219 218
f 2 218 191
f 2 191 168
f 2 168 148
f 2 148 113
f 2 113 149
f 2 149 165
f 2 165 164
f 2 164 144
f 2 144 143
f 2 143 142
f 2 142 141
f 2 141 140
f 2 140 139
f 2 139 138
f 2 138 136
f 2 136 135
f 2 135 105
f 2 105 134
f 2 134 133
f 2 133 102
f 2 102 85
f 2 85 65
f 2 65 32
f 2 32 18
f 2 18 7
f 3 9 10
f 3 10 11
f 3 11 12
f 3 12 13
f 3 13 14
f 3 14 8
f 4 15 5
f 5 15 16
f 7 18 19
f 7 19 17
f 8 14 21
f 8 21 20
f 9 22 10
f 10 22 23
f 10 23 11
f 11 23 24
f 11 24 12
f 12 24 14
f 12 14 13
f 14 24 25
f 14 25 26
f 14 26 27
f 14 27 21
f 15 28 29
f 15 29 16
f 17 19 31
f 17 31 30
f 18 32 19
f 19 33 31
f 19 32 33
f 20 21 34
f 21 35 36
f 21 36 37
f 21 37 34
f 21 27 38
f 21 38 35
f 22 39 23
f 23 40 41
f 23 41 24
f 23 39 42
f 23 42 43
f 23 43 40
f 24 41 25
f 25 44 26
f 25 41 44
f 26 44 45
f 26 45 46
f 26 46 47
f 26 47 27
f 27 47 45
f 27 45 48
f 27 48 49
f 27 49 50
f 27 50 51
f 27 51 52
f 27 52 53
f 27 53 38
f 28 54 55
f 28 55 29
f 30 31 40
f 30 40 43
f 31 56 41
f 31 41 57
f 31 57 58
f 31 58 40
f 31 33 59
f 31 59 60
f 31 60 61
f 31 61 62
f 31 62 63
f 31 63 64
f 31 64 56
f 32 65 33
f 33 65 59
f 35 38 66
f 35 66 67
f 35 67 68
f 35 68 36
f 36 68 67
f 36 67 69
f 38 53 66
f 40 58 41
f 41 58 57
f 41 56 64
f 41 64 44
f 44 64 63
f 44 63 62
f 44 62 70
f 44 70 45
f 45 70 71
f 45 71 48
f 45 47 46
f 48 71 49
f 49 71 50
f 50 70 51
f 50 71 70
f 51 70 52
f 52 70 53
f 53 70 72
f 53 72 73
f 53 73 74
f 53 74 75
f 53 75 76
f 53 76 77
f 53 77 78
f 53 78 79
f 53 79 80
f 53 80 66
f 54 81 82
f 54 82 55
f 59 65 60
f 60 65 61
f 61 83 84
f 61 84 62
f 61 65 85
f 61 85 83
f 62 84 91
f 62 91 70
f 66 80 67
f 67 80 86
f 67 86 87
f 67 87 88
f 67 88 89
f 67 89 90
f 67 90 69
f 70 91 92
f 70 92 93
f 70 93 94
f 70 94 95
f 70 95 96
f 70 96 76
f 70 76 75
f 70 75 72
f 72 75 74
f 72 74 73
f 76 96 97
f 76 97 77
f 77 97 98
f 77 98 79
f 77 79 78
f 79 98 99
f 79 99 86
f 79 86 80
f 81 100 82
f 82 100 101
f 83 85 102
f 83 102 103
f 83 103 84
f 84 103 104
f 84 104 105
f 84 105 106
f 84 106 107
f 84 107 108
f 84 108 91
f 86 99 109
f 86 109 110
f 86 110 87
f 91 108 107
f 91 107 111
f 91 111 92
f 92 111 107
f 92 107 93
f 93 107 94
f 94 107 95
f 95 112 96
f 95 107 113
f 95 113 114
f 95 114 112
f 96 112 115
f 96 115 116
f 96 116 117
f 96 117 118
f 96 118 97
f 97 118 119
f 97 119 120
f 97 120 98
f 98 120 99
f 99 120 121
f 99 121 122
f 99 122 123
f 99 123 124
f 99 124 125
f 99 125 126
f 99 126 127
f 99 127 128
f 99 128 109
f 100 129 101
f 101 129 130
f 101 130 131
f 101 131 132
f 102 133 103
f 103 133 134
f 103 134 104
f 104 134 105
f 105 135 106
f 106 135 136
f 106 136 137
f 106 137 107
f 107 138 139
f 107 139 140
f 107 140 141
f 107 141 142
f 107 142 143
f 107 143 144
f 107 144 145
f 107 145 113
f 107 137 138
f 112 114 113
f 112 113 146
f 112 146 116
f 112 116 147
f 112 147 115
f 113 148 146
f 113 145 149
f 115 147 116
f 116 146 117
f 117 146 118
f 118 146 150
f 118 150 151
f 118 151 152
f 118 152 153
f 118 153 154
f 118 154 155
f 118 155 119
f 119 156 120
f 119 155 157
f 119 157 156
f 120 158 122
f 120 122 121
f 120 156 159
f 120 159 158
f 131 160 132
f 132 160 161
f 132 161 162
f 132 162 163
f 136 138 137
f 144 164 145
f 145 164 165
f 145 165 149
f 146 148 166
f 146 166 167
f 146 167 150
f 148 168 169
f 148 169 166
f 150 167 166
f 150 166 170
f 150 170 171
f 150 171 172
f 150 172 173
f 150 173 174
f 150 174 151
f 151 174 152
f 152 174 173
f 152 173 172
f 152 172 175
f 152 175 176
f 152 176 177
f 152 177 153
f 153 177 155
f 153 155 154
f 155 177 156
f 155 156 157
f 156 177 159
f 159 177 176
f 159 176 178
f 159 178 179
f 160 180 161
f 161 181 162
f 161 180 181
f 162 181 163
f 163 181 182
f 163 182 183
f 163 183 208
f 163 208 184
f 163 184 185
f 166 169 186
f 166 186 187
f 166 187 188
f 166 188 189
f 166 189 190
f 166 190 170
f 168 191 192
f 168 192 186
f 168 186 169
f 170 190 193
f 170 193 171
f 171 194 195
f 171 195 196
f 171 196 197
f 171 197 198
f 171 198 172
f 171 193 199
f 171 199 194
f 172 198 196
f 172 196 200
f 172 200 175
f 175 200 176
f 176 200 201
f 176 201 178
f 178 202 203
f 178 203 204
f 178 204 179
f 178 201 200
f 178 200 196
f 178 196 202
f 179 204 205
f 181 206 182
f 182 206 207
f 182 207 183
f 183 207 209
f 183 209 210
f 183 210 208
f 184 208 210
f 184 210 185
f 185 210 211
f 185 211 212
f 186 213 187
f 186 192 213
f 187 213 188
f 188 213 214
f 188 214 215
f 188 215 216
f 188 216 217
f 188 217 189
f 189 217 193
f 189 193 190
f 191 218 192
f 192 218 219
f 192 219 220
f 192 220 221
f 192 221 222
f 192 222 223
f 192 223 224
f 192 224 213
f 193 217 216
f 193 216 225
f 193 225 199
f 194 199 203
f 194 203 202
f 194 202 195
f 195 202 196
f 196 198 197
f 199 225 203
f 203 225 226
f 203 226 227
f 203 227 228
f 203 228 229
f 203 229 205
f 203 205 204
f 206 230 207
f 207 230 231
f 207 231 209
f 209 231 232
f 209 232 210
f 210 232 211
f 211 232 233
f 211 233 234
f 211 234 212
f 213 235 214
f 213 224 235
f 214 235 236
f 214 236 237
f 214 237 215
f 215 237 238
f 215 238 239
f 215 239 216
f 216 239 225
f 219 240 220
f 220 240 241
f 220 241 242
f 220 242 221
f 221 242 243
f 221 243 244
f 221 244 222
f 222 245 246
f 222 246 223
f 222 244 247
f 222 247 245
f 223 246 248
f 223 248 249
f 223 249 224
f 224 249 235
f 225 239 250
f 225 250 226
f 226 251 237
f 226 237 252
f 226 252 227
f 226 250 251
f 227 252 236
f 227 236 253
f 227 253 254
f 227 254 255
f 227 255 228
f 228 255 256
f 228 256 257
f 228 257 229
f 230 258 259
f 230 259 231
f 231 259 260
f 231 260 232
f 232 260 261
f 232 261 233
f 233 262 234
f 233 261 260
f 233 260 258
f 233 258 263
f 233 263 264
f 233 264 265
f 233 265 266
f 233 266 267
f 233 267 268
f 233 268 262
f 234 262 269
f 234 269 270
f 235 249 236
f 236 249 253
f 236 252 237
f 237 251 238
f 238 251 250
f 238 250 239
f 240 271 241
f 241 271 272
f 241 272 242
f 242 272 243
f 243 272 266
f 243 266 244
f 244 266 273
f 244 273 247
f 245 247 274
f 245 274 275
f 245 275 276
f 245 276 246
f 246 276 277
f 246 277 278
f 246 278 249
f 246 249 248
f 247 273 279
f 247 279 274
f 249 278 254
f 249 254 253
f 254 278 255
f 255 278 280
f 255 280 256
f 256 280 281
f 256 281 276
f 256 276 282
f 258 260 259
f 258 283 264
f 258 264 263
f 262 268 269
f 264 283 284
f 264 284 285
f 264 285 286
f 264 286 265
f 265 286 266
f 266 286 273
f 266 272 267
f 267 272 268
f 268 272 271
f 268 271 269
f 269 271 270
f 273 286 287
f 273 287 288
f 273 288 279
f 274 279 288
f 274 288 289
f 274 289 275
f 275 289 276
f 276 289 282
f 276 281 277
f 277 281 278
f 278 281 280
f 285 290 287
f 285 287 286
f 287 290 288

