# https://github.com/mikedh/trimesh
v -0.01378960 -0.03095747 0.02041161
v -0.01378960 -0.03091296 0.02023602
v -0.00847762 -0.03462215 0.02041161
v -0.01378960 -0.02456612 0.02041161
v -0.01378960 -0.03059974 0.01903280
v -0.00821989 -0.03387866 0.01795943
v -0.00794322 -0.03371546 0.01709628
v -0.00761122 -0.03490405 0.01994418
v -0.00734766 -0.03516451 0.02041161
v -0.01378960 -0.03023212 0.01764780
v -0.01378960 -0.02952325 0.01507566
v -0.01378960 -0.02918365 0.01384772
v -0.01378960 -0.02883746 0.01261359
v -0.01378960 -0.02882592 0.01257401
v -0.01378960 -0.02858853 0.01178382
v -0.01378960 -0.02839236 0.01117171
v -0.01378960 -0.02837423 0.01111730
v -0.01378960 -0.02797528 0.00995365
v -0.01378960 -0.01854899 0.00778094
v 0.00108626 -0.02883581 0.02041161
v -0.00810048 -0.03250379 0.01432257
v -0.00731854 -0.03313518 0.01513502
v -0.00743358 -0.03358852 0.01635184
v -0.00707974 -0.03385394 0.01673148
v -0.01195633 -0.02860007 0.00919685
v -0.00723554 -0.03517770 0.02034978
v -0.00723991 -0.03519913 0.02041161
v -0.01378960 -0.02748732 0.00875043
v 0.00108626 -0.02377813 0.00778094
v -0.01378960 -0.02698946 0.00778094
v 0.00108626 -0.03436003 0.02041161
v -0.00758210 -0.03231256 0.01346066
v -0.00927413 -0.02984801 0.00929825
v -0.00721807 -0.03261589 0.01387245
v -0.00644632 -0.03369073 0.01586833
v -0.00674919 -0.03504087 0.01960411
v -0.01243103 -0.02815497 0.00872570
v -0.01150638 -0.02840390 0.00833370
v -0.00602549 -0.03539036 0.02041161
v -0.01378960 -0.02719553 0.00813955
v -0.01328723 -0.02733071 0.00787121
v -0.01374737 -0.02749721 0.00872570
v 0.00108626 -0.03084042 0.00778094
v -0.01337751 -0.02722685 0.00778094
v -0.00472371 -0.03525024 0.02041161
v 0.00108626 -0.03418199 0.01965728
v -0.00861159 -0.02996340 0.00904845
v -0.00778742 -0.02979525 0.00811235
v -0.00765636 -0.03105803 0.01077599
v -0.01064435 -0.02858689 0.00794541
v -0.00861159 -0.02965348 0.00840171
v -0.00672007 -0.03244444 0.01316388
v -0.00601967 -0.03349455 0.01521911
v -0.00558429 -0.03375338 0.01570633
v -0.00602549 -0.03290603 0.01384277
v -0.00602549 -0.03507220 0.01951384
v -0.01244559 -0.02769503 0.00778094
v -0.01207427 -0.02786977 0.00778094
v -0.01126612 -0.02822916 0.00778094
v -0.00504406 -0.03375338 0.01570633
v 0.00108626 -0.03149159 0.00940954
v 0.00108626 -0.03168117 0.00995983
v -0.00515036 -0.03506725 0.01952373
v -0.01312269 -0.02736697 0.00778094
v 0.00108626 -0.03104814 0.00823230
v 0.00044556 -0.03104979 0.00822488
v 0.00044556 -0.03084537 0.00778094
v 0.00108626 -0.03364457 0.01740666
v 0.00108626 -0.03403032 0.01901796
v 0.00108626 -0.03234718 0.01222282
v 0.00108626 -0.03242960 0.01254310
v 0.00108626 -0.03251203 0.01286956
v 0.00108626 -0.03275766 0.01384277
v 0.00108626 -0.03291757 0.01448086
v 0.00108626 -0.03324068 0.01577559
v -0.00864799 -0.02928421 0.00778094
v -0.00814271 -0.02947214 0.00778094
v -0.00757336 -0.02966997 0.00778094
v -0.00692538 -0.02990406 0.00788728
v -0.01080598 -0.02843192 0.00778094
v -0.01017111 -0.02868909 0.00778094
v -0.00973863 -0.02886384 0.00778094
v -0.00602549 -0.03222189 0.01234401
v -0.00602549 -0.03252192 0.01299075
v -0.00602549 -0.03007551 0.00778094
v -0.00509066 -0.03107616 0.00944046
v -0.00473099 -0.03234553 0.01209298
v -0.00473099 -0.03261589 0.01273972
v -0.00343649 -0.03210155 0.01125332
v -0.00084894 -0.03129706 0.00892603
v 0.00044556 -0.03131025 0.00887286
v -0.00422863 -0.03116683 0.00924879
v -0.00473099 -0.03197461 0.01125332
v 0.00108626 -0.03130696 0.00887904
v 0.00108626 -0.03187735 0.01059916
v 0.00108626 -0.03207517 0.01125332
v 0.00108626 -0.03221035 0.01173312
v -0.00084894 -0.03102341 0.00827929
v -0.00084894 -0.03077613 0.00778094
v -0.00651912 -0.02995352 0.00778094
v -0.00586823 -0.03011177 0.00778094
v -0.00468876 -0.03083877 0.00875662
v -0.00343649 -0.03122123 0.00912636
v -0.00343649 -0.03157896 0.00995983
v -0.00214344 -0.03127234 0.00899652
v -0.00468876 -0.03035411 0.00778094
v -0.00416892 -0.03044478 0.00778094
v -0.00343649 -0.03091790 0.00847838
v -0.00214344 -0.03098220 0.00834978
v -0.00214344 -0.03068216 0.00778094
v -0.00343649 -0.03054863 0.00778094
f 1 2 3
f 1 3 9
f 1 9 27
f 1 27 39
f 1 39 45
f 1 45 31
f 1 31 20
f 1 20 4
f 1 4 19
f 1 19 30
f 1 30 40
f 1 40 28
f 1 28 18
f 1 18 17
f 1 17 16
f 1 16 15
f 1 15 14
f 1 14 13
f 1 13 12
f 1 12 11
f 1 11 10
f 1 10 5
f 1 5 2
f 2 5 3
f 3 6 7
f 3 7 8
f 3 8 9
f 3 5 10
f 3 10 11
f 3 11 12
f 3 12 13
f 3 13 14
f 3 14 15
f 3 15 16
f 3 16 17
f 3 17 18
f 3 18 6
f 4 20 19
f 6 18 7
f 7 21 22
f 7 22 23
f 7 23 24
f 7 24 8
f 7 18 25
f 7 25 21
f 8 26 9
f 8 24 26
f 9 26 27
f 18 28 25
f 19 29 43
f 19 43 67
f 19 67 99
f 19 99 110
f 19 110 111
f 19 111 107
f 19 107 106
f 19 106 101
f 19 101 85
f 19 85 100
f 19 100 78
f 19 78 77
f 19 77 76
f 19 76 82
f 19 82 81
f 19 81 80
f 19 80 59
f 19 59 58
f 19 58 57
f 19 57 64
f 19 64 44
f 19 44 30
f 19 20 29
f 20 31 46
f 20 46 69
f 20 69 68
f 20 68 75
f 20 75 74
f 20 74 73
f 20 73 72
f 20 72 71
f 20 71 70
f 20 70 97
f 20 97 96
f 20 96 95
f 20 95 62
f 20 62 61
f 20 61 94
f 20 94 65
f 20 65 43
f 20 43 29
f 21 32 22
f 21 25 33
f 21 33 32
f 22 32 34
f 22 34 35
f 22 35 24
f 22 24 23
f 24 35 36
f 24 36 26
f 25 28 37
f 25 37 38
f 25 38 33
f 26 36 27
f 27 36 39
f 28 40 41
f 28 41 42
f 28 42 37
f 30 44 40
f 31 45 46
f 32 33 47
f 32 47 48
f 32 48 49
f 32 49 34
f 33 38 50
f 33 50 51
f 33 51 47
f 34 52 35
f 34 49 48
f 34 48 52
f 35 53 54
f 35 54 36
f 35 52 55
f 35 55 53
f 36 56 39
f 36 54 56
f 37 42 41
f 37 41 57
f 37 57 38
f 38 57 58
f 38 58 59
f 38 59 50
f 39 56 54
f 39 54 60
f 39 60 61
f 39 61 62
f 39 62 63
f 39 63 45
f 40 44 41
f 41 44 64
f 41 64 57
f 43 65 66
f 43 66 67
f 45 68 69
f 45 69 46
f 45 63 70
f 45 70 71
f 45 71 72
f 45 72 73
f 45 73 74
f 45 74 75
f 45 75 68
f 47 51 48
f 48 51 76
f 48 76 77
f 48 77 78
f 48 78 79
f 48 79 52
f 50 59 80
f 50 80 81
f 50 81 82
f 50 82 51
f 51 82 76
f 52 83 84
f 52 84 55
f 52 79 85
f 52 85 86
f 52 86 83
f 53 55 87
f 53 87 54
f 54 87 88
f 54 88 89
f 54 89 90
f 54 90 91
f 54 91 60
f 55 84 92
f 55 92 93
f 55 93 87
f 60 91 94
f 60 94 61
f 62 95 63
f 63 95 96
f 63 96 97
f 63 97 70
f 65 94 91
f 65 91 66
f 66 91 90
f 66 90 98
f 66 98 67
f 67 98 99
f 78 100 79
f 79 100 85
f 83 86 84
f 84 86 92
f 85 101 86
f 86 101 102
f 86 102 92
f 87 93 92
f 87 92 103
f 87 103 104
f 87 104 88
f 88 104 89
f 89 104 105
f 89 105 90
f 90 105 98
f 92 102 106
f 92 106 107
f 92 107 108
f 92 108 103
f 98 109 99
f 98 105 109
f 99 109 110
f 101 106 102
f 103 108 109
f 103 109 105
f 103 105 104
f 107 111 108
f 108 111 110
f 108 110 109

