# https://github.com/mikedh/trimesh
v 0.00108626 -0.04343091 0.10962183
v -0.00214203 -0.04213689 0.10964781
v -0.00343748 -0.04213689 0.10966340
v -0.00473134 -0.04213689 0.10966859
v 0.00044569 -0.04343091 0.10962183
v 0.00044569 -0.04436853 0.10914897
v 0.00108626 -0.04390483 0.10938280
v 0.00108626 -0.04279092 0.10960624
v -0.01508382 -0.03954884 0.10968418
v 0.00108626 -0.04213689 0.10958546
v -0.00602520 -0.04213689 0.10966859
v -0.01120065 -0.04084286 0.10967899
v -0.00731747 -0.04213689 0.10966340
v -0.00861292 -0.04213689 0.10965301
v -0.00084817 -0.04343091 0.10958546
v 0.00108626 -0.04436598 0.10914897
v -0.00214203 -0.04343091 0.10952310
v -0.00343748 -0.04343091 0.10945035
v -0.00084817 -0.04429700 0.10911260
v -0.00537986 -0.04407856 0.10896191
v 0.00055854 -0.04506344 0.10819287
v -0.01378837 -0.03954884 0.10965301
v -0.01515217 -0.03816285 0.10931525
v -0.01515217 -0.03954884 0.10967899
v -0.01249451 -0.04084286 0.10965820
v 0.00108626 -0.04170512 0.10935163
v -0.01515217 -0.03796868 0.10921133
v -0.00990678 -0.04213689 0.10955948
v -0.00731747 -0.04331594 0.10926849
v 0.00108626 -0.04505961 0.10819287
v -0.00473134 -0.04343091 0.10937241
v -0.00624297 -0.04402874 0.10889956
v -0.00589804 -0.04353055 0.10924251
v -0.00861292 -0.04320992 0.10921133
v 0.00106560 -0.04537514 0.10767845
v 0.00108626 -0.04537514 0.10767845
v -0.01378837 -0.04084286 0.10953349
v -0.01515217 -0.04091312 0.10926849
v 0.00108626 -0.04126697 0.10911260
v -0.01456882 -0.03765572 0.10890475
v -0.01515217 -0.03736319 0.10859298
v -0.01125310 -0.04223908 0.10929447
v -0.00990678 -0.04302597 0.10911260
v -0.00731747 -0.04396231 0.10880083
v 0.00020249 -0.04533426 0.10746021
v 0.00055854 -0.04544539 0.10702373
v 0.00044569 -0.04566127 0.10572987
v -0.00731747 -0.04425995 0.10815130
v -0.00861292 -0.04417692 0.10795904
v 0.00108626 -0.04565744 0.10572987
v -0.01509018 -0.04092845 0.10927369
v -0.01515217 -0.04099743 0.10921652
v -0.01466260 -0.04155055 0.10900868
v 0.00108626 -0.04072151 0.10831758
v -0.01515217 -0.03724183 0.10840072
v -0.01085572 -0.04286629 0.10901907
v -0.00861292 -0.04385756 0.10860337
v -0.00731747 -0.04456142 0.10702373
v -0.00214203 -0.04515286 0.10702373
v -0.00092606 -0.04529082 0.10702373
v -0.00054617 -0.04541218 0.10659764
v -0.00214203 -0.04543389 0.10543369
v -0.00293679 -0.04538918 0.10517388
v 0.00044569 -0.04580563 0.10443082
v 0.00108626 -0.04580563 0.10443082
v -0.00092606 -0.04550287 0.10582341
v -0.00935840 -0.04411305 0.10777718
v -0.00861292 -0.04439663 0.10702373
v -0.01515217 -0.04172812 0.10845788
v -0.01171883 -0.04273855 0.10890995
v 0.00108626 -0.04028719 0.10698735
v -0.01515217 -0.03681901 0.10708608
v -0.00861292 -0.04463551 0.10572987
v -0.00731747 -0.04479519 0.10572987
v -0.00602520 -0.04494209 0.10572987
v -0.00473134 -0.04508899 0.10572987
v -0.00084817 -0.04567405 0.10443082
v -0.00861292 -0.04481690 0.10443082
v -0.00861292 -0.04521163 0.10054926
v -0.00602520 -0.04576475 0.09796155
v -0.00473134 -0.04587716 0.09796155
v -0.00214203 -0.04596275 0.09925541
v 0.00044569 -0.04594997 0.10184312
v 0.00108626 -0.04591548 0.10248225
v -0.01249451 -0.04291228 0.10797463
v -0.01316687 -0.04279348 0.10769924
v -0.01023263 -0.04396487 0.10702373
v -0.00958570 -0.04419097 0.10702373
v -0.01515217 -0.04177027 0.10836435
v 0.00108626 -0.04009047 0.10579223
v -0.01515217 -0.03656608 0.10566232
v -0.01515217 -0.03679985 0.10702373
v -0.00997831 -0.04429444 0.10575066
v -0.00990678 -0.04451416 0.10443082
v -0.00990678 -0.04478752 0.10184312
v -0.00990678 -0.04491782 0.10054926
v -0.00862087 -0.04531509 0.09933335
v -0.00819488 -0.04540963 0.09895403
v -0.00731747 -0.04559358 0.09796155
v -0.00731747 -0.04564084 0.09666770
v -0.00602520 -0.04580818 0.09666770
v -0.00343748 -0.04591420 0.09796155
v -0.00084817 -0.04601129 0.09925541
v 0.00044569 -0.04602023 0.10054926
v 0.00108626 -0.04598318 0.10118840
v -0.01515217 -0.04222247 0.10702373
v -0.01508382 -0.04224802 0.10702373
v -0.01400295 -0.04263125 0.10702373
v -0.01249451 -0.04316521 0.10702373
v -0.01045834 -0.04404407 0.10619753
v 0.00108626 -0.04001766 0.10512712
v -0.01515217 -0.03656225 0.10563115
v -0.01068723 -0.04412582 0.10533496
v -0.01085095 -0.04418458 0.10443082
v -0.01104487 -0.04425356 0.10313697
v -0.01130714 -0.04429189 0.10189508
v -0.01318117 -0.04409516 0.09742115
v -0.00990678 -0.04502768 0.09925541
v -0.00901507 -0.04533298 0.09796155
v -0.00836814 -0.04543645 0.09796155
v -0.00922489 -0.04536747 0.09586748
v -0.00929164 -0.04538152 0.09500492
v -0.00934569 -0.04539685 0.09407999
v -0.00861292 -0.04557185 0.09149228
v -0.00731747 -0.04566894 0.09537385
v -0.00861292 -0.04556036 0.09019843
v 0.00044569 -0.04600490 0.09925541
v -0.00812336 -0.04538663 0.08539195
v -0.00791036 -0.04538663 0.08539195
v 0.00108626 -0.04600746 0.10054926
v 0.00108626 -0.04599852 0.09925541
v -0.01515217 -0.04223652 0.10695098
v -0.01515217 -0.04247668 0.10566752
v -0.01426522 -0.04272322 0.10604164
v -0.01249451 -0.04341047 0.10572987
v -0.01115137 -0.04388311 0.10575066
v 0.00108626 -0.03994229 0.10443082
v -0.01515217 -0.03643451 0.10443082
v -0.01498527 -0.04253800 0.10565713
v -0.01448775 -0.04280242 0.10517908
v -0.01515217 -0.04265296 0.10443082
v -0.01249451 -0.04373749 0.10313697
v -0.01180784 -0.04406451 0.10236274
v -0.01120065 -0.04469938 0.09796155
v -0.01515217 -0.04268106 0.10414503
v -0.01515217 -0.04277559 0.10313697
v -0.01515217 -0.04282541 0.10245627
v -0.01515217 -0.04286757 0.10184312
v -0.01515217 -0.04303108 0.09929178
v -0.01515217 -0.04309367 0.09789401
v -0.01318117 -0.04409516 0.09710418
v -0.01011183 -0.04522695 0.09149228
v -0.01120065 -0.04482329 0.09407999
v -0.01120065 -0.04480796 0.09537385
v -0.01120065 -0.04476836 0.09666770
v -0.00990678 -0.04510049 0.09796155
v -0.00990678 -0.04514903 0.09666770
v -0.00979711 -0.04522312 0.09541022
v -0.00999262 -0.04521035 0.09407999
v -0.00941563 -0.04541729 0.09278614
v -0.00946490 -0.04543518 0.09149228
v -0.00944106 -0.04543006 0.09019843
v -0.00929482 -0.04538408 0.08798485
v -0.00919151 -0.04536492 0.08712228
v -0.00861292 -0.04550543 0.08890458
v -0.00835701 -0.04541090 0.08631687
v -0.00861292 -0.04526144 0.08372396
v -0.00861292 -0.04519502 0.08243531
v -0.00861292 -0.04512221 0.08114145
v -0.00861292 -0.04473898 0.07467218
v -0.00861292 -0.04465084 0.07337833
v -0.00783724 -0.04410794 0.06596855
v -0.00731747 -0.04326612 0.05914074
v 0.00108626 -0.04160420 0.05914074
v -0.01515217 -0.04258526 0.10490888
v 0.00108626 -0.03679218 0.05659980
v -0.01515217 -0.03297143 0.05659980
v -0.01515217 -0.03923588 0.06559442
v -0.01070631 -0.04293144 0.06431615
v -0.01078260 -0.04301319 0.06561001
v -0.01054100 -0.04407089 0.07412138
v -0.00990678 -0.04487183 0.08243531
v -0.00990678 -0.04494337 0.08372396
v -0.01008799 -0.04520779 0.09019843
v -0.01006256 -0.04522568 0.09278614
v -0.01000375 -0.04517458 0.08890458
v -0.00979870 -0.04518097 0.08757435
v -0.00990678 -0.04501107 0.08501782
v -0.00900394 -0.04534831 0.08631687
v -0.00990678 -0.04479391 0.08114145
v -0.00983367 -0.04433021 0.07337833
v -0.00857796 -0.04532532 0.08498145
v -0.00972240 -0.04427656 0.07208447
v -0.00960478 -0.04422291 0.07079062
v -0.00948080 -0.04416926 0.06949677
v -0.00935046 -0.04411560 0.06820291
v -0.00927575 -0.04408495 0.06747025
v -0.00861292 -0.04454992 0.07208447
v -0.00818694 -0.04410794 0.06596855
v -0.00731747 -0.04311539 0.05784688
v 0.00108626 -0.04151095 0.05833013
v 0.00108626 -0.04155822 0.05874063
v 0.00108626 -0.04128102 0.05659980
v -0.01515217 -0.03806832 0.05659980
v -0.01515217 -0.03910814 0.06454479
v -0.01062206 -0.04284841 0.06302230
v -0.01025171 -0.04391632 0.07079062
v -0.01036933 -0.04397764 0.07208447
v -0.01048219 -0.04403768 0.07337833
v -0.01002918 -0.04432893 0.07459943
v -0.00990678 -0.04446689 0.07596604
v -0.00978757 -0.04378220 0.06698700
v -0.00990678 -0.04358037 0.06561001
v -0.00961590 -0.04297104 0.05914074
v -0.00946172 -0.04288673 0.05784688
v -0.00933774 -0.04282286 0.05693235
v -0.00905004 -0.04404790 0.06660768
v -0.00861292 -0.04444645 0.07079062
v -0.01012773 -0.04385501 0.06949677
v -0.00861610 -0.04413860 0.06698700
v -0.00861610 -0.04400575 0.06556844
v -0.00861292 -0.04386778 0.06431615
v -0.00861292 -0.04327251 0.05914074
v -0.00861292 -0.04311028 0.05784688
v -0.00722687 -0.04294038 0.05659980
v 0.00108626 -0.04146752 0.05800277
v -0.01076671 -0.04178177 0.05659980
v -0.01049331 -0.04273983 0.06139589
v -0.01515217 -0.03823949 0.05773257
v -0.01515217 -0.03908003 0.06431615
v -0.01515217 -0.03892035 0.06302230
v -0.01515217 -0.03844771 0.05922907
v -0.01056961 -0.04279859 0.06225846
v -0.01039794 -0.04267340 0.06043459
v -0.01026284 -0.04258781 0.05914074
v -0.01010865 -0.04249967 0.05784688
v -0.00984161 -0.04246518 0.05659980
v -0.00972876 -0.04253289 0.05659980
v -0.00880208 -0.04289823 0.05659980
v -0.00866856 -0.04292761 0.05659980
v -0.00859067 -0.04292889 0.05659980
v -0.01515217 -0.03825610 0.05784688
f 1 2 3
f 1 3 4
f 1 4 11
f 1 11 5
f 1 5 6
f 1 6 7
f 1 7 16
f 1 16 30
f 1 30 36
f 1 36 50
f 1 50 65
f 1 65 84
f 1 84 105
f 1 105 130
f 1 130 131
f 1 131 174
f 1 174 202
f 1 202 201
f 1 201 226
f 1 226 203
f 1 203 176
f 1 176 137
f 1 137 111
f 1 111 90
f 1 90 71
f 1 71 54
f 1 54 39
f 1 39 26
f 1 26 10
f 1 10 8
f 1 8 2
f 2 9 3
f 2 8 10
f 2 10 9
f 3 9 4
f 4 9 12
f 4 12 11
f 5 11 13
f 5 13 14
f 5 14 15
f 5 15 6
f 6 16 7
f 6 15 17
f 6 17 18
f 6 18 19
f 6 19 20
f 6 20 21
f 6 21 16
f 9 10 22
f 9 22 23
f 9 23 24
f 9 24 25
f 9 25 14
f 9 14 12
f 10 26 27
f 10 27 23
f 10 23 22
f 11 12 13
f 12 14 13
f 14 18 17
f 14 17 15
f 14 25 28
f 14 28 29
f 14 29 18
f 16 21 30
f 18 29 31
f 18 31 19
f 19 31 20
f 20 32 21
f 20 31 33
f 20 33 29
f 20 29 34
f 20 34 32
f 21 32 35
f 21 35 36
f 21 36 30
f 23 27 41
f 23 41 55
f 23 55 72
f 23 72 92
f 23 92 91
f 23 91 112
f 23 112 138
f 23 138 177
f 23 177 204
f 23 204 229
f 23 229 242
f 23 242 232
f 23 232 231
f 23 231 230
f 23 230 205
f 23 205 178
f 23 178 150
f 23 150 149
f 23 149 148
f 23 148 147
f 23 147 146
f 23 146 145
f 23 145 141
f 23 141 175
f 23 175 133
f 23 133 132
f 23 132 106
f 23 106 89
f 23 89 69
f 23 69 52
f 23 52 38
f 23 38 24
f 24 37 25
f 24 38 37
f 25 37 28
f 26 39 27
f 27 39 40
f 27 40 41
f 28 37 42
f 28 42 43
f 28 43 34
f 28 34 29
f 29 33 31
f 32 44 35
f 32 34 44
f 34 43 44
f 35 45 46
f 35 46 47
f 35 47 36
f 35 44 48
f 35 48 49
f 35 49 45
f 36 47 50
f 37 38 51
f 37 51 42
f 38 52 53
f 38 53 51
f 39 54 40
f 40 54 55
f 40 55 41
f 42 51 53
f 42 53 56
f 42 56 43
f 43 56 57
f 43 57 44
f 44 57 49
f 44 49 48
f 45 49 58
f 45 58 59
f 45 59 60
f 45 60 61
f 45 61 47
f 45 47 46
f 47 62 63
f 47 63 64
f 47 64 65
f 47 65 50
f 47 61 66
f 47 66 62
f 49 57 67
f 49 67 68
f 49 68 58
f 52 69 53
f 53 69 70
f 53 70 56
f 54 71 55
f 55 71 72
f 56 70 57
f 57 70 67
f 58 68 73
f 58 73 74
f 58 74 59
f 59 74 61
f 59 61 60
f 61 74 75
f 61 75 76
f 61 76 63
f 61 63 62
f 61 62 66
f 63 77 64
f 63 76 75
f 63 75 74
f 63 74 78
f 63 78 79
f 63 79 80
f 63 80 77
f 64 77 80
f 64 80 81
f 64 81 82
f 64 82 83
f 64 83 84
f 64 84 65
f 67 70 85
f 67 85 86
f 67 86 87
f 67 87 88
f 67 88 73
f 67 73 68
f 69 89 86
f 69 86 85
f 69 85 70
f 71 90 91
f 71 91 92
f 71 92 72
f 73 88 93
f 73 93 94
f 73 94 78
f 73 78 74
f 78 94 95
f 78 95 79
f 79 95 96
f 79 96 97
f 79 97 98
f 79 98 80
f 80 98 99
f 80 99 100
f 80 100 101
f 80 101 81
f 81 101 102
f 81 102 103
f 81 103 82
f 82 103 104
f 82 104 83
f 83 104 84
f 84 104 105
f 86 89 106
f 86 106 107
f 86 107 108
f 86 108 109
f 86 109 87
f 87 109 110
f 87 110 88
f 88 110 93
f 90 111 112
f 90 112 91
f 93 110 113
f 93 113 94
f 94 114 95
f 94 113 114
f 95 114 115
f 95 115 116
f 95 116 117
f 95 117 96
f 96 117 118
f 96 118 97
f 97 118 119
f 97 119 98
f 98 119 120
f 98 120 99
f 99 120 100
f 100 120 121
f 100 121 122
f 100 122 123
f 100 123 124
f 100 124 125
f 100 125 101
f 101 125 124
f 101 124 126
f 101 126 102
f 102 126 103
f 103 127 104
f 103 126 128
f 103 128 129
f 103 129 127
f 104 130 105
f 104 127 131
f 104 131 130
f 106 132 107
f 107 132 133
f 107 133 134
f 107 134 135
f 107 135 136
f 107 136 108
f 108 136 110
f 108 110 109
f 110 136 113
f 111 137 112
f 112 137 138
f 113 136 135
f 113 135 139
f 113 139 140
f 113 140 114
f 114 140 141
f 114 141 142
f 114 142 115
f 115 142 143
f 115 143 116
f 116 143 117
f 117 144 118
f 117 143 141
f 117 141 145
f 117 145 146
f 117 146 147
f 117 147 148
f 117 148 149
f 117 149 150
f 117 150 151
f 117 151 152
f 117 152 153
f 117 153 154
f 117 154 155
f 117 155 144
f 118 144 156
f 118 156 119
f 119 156 121
f 119 121 120
f 121 156 122
f 122 156 157
f 122 157 158
f 122 158 123
f 123 158 159
f 123 159 160
f 123 160 124
f 124 160 161
f 124 161 162
f 124 162 126
f 126 162 163
f 126 163 164
f 126 164 165
f 126 165 128
f 127 129 131
f 128 165 166
f 128 166 167
f 128 167 168
f 128 168 169
f 128 169 170
f 128 170 129
f 129 170 131
f 131 170 171
f 131 171 172
f 131 172 173
f 131 173 174
f 133 175 140
f 133 140 139
f 133 139 134
f 134 139 135
f 137 176 177
f 137 177 138
f 140 175 141
f 141 143 142
f 144 155 156
f 150 178 179
f 150 179 180
f 150 180 181
f 150 181 151
f 151 181 182
f 151 182 183
f 151 183 184
f 151 184 152
f 152 184 162
f 152 162 161
f 152 161 185
f 152 185 154
f 152 154 153
f 154 185 159
f 154 159 155
f 155 159 157
f 155 157 156
f 157 159 158
f 159 185 160
f 160 185 161
f 162 184 163
f 163 186 187
f 163 187 188
f 163 188 183
f 163 183 182
f 163 182 164
f 163 184 186
f 164 189 165
f 164 182 190
f 164 190 191
f 164 191 170
f 164 170 169
f 164 169 168
f 164 168 189
f 165 189 166
f 166 189 192
f 166 192 167
f 167 192 189
f 167 189 168
f 170 191 193
f 170 193 194
f 170 194 195
f 170 195 196
f 170 196 197
f 170 197 171
f 171 198 199
f 171 199 172
f 171 197 198
f 172 199 200
f 172 200 173
f 173 200 201
f 173 201 202
f 173 202 174
f 176 203 225
f 176 225 241
f 176 241 240
f 176 240 239
f 176 239 238
f 176 238 237
f 176 237 227
f 176 227 204
f 176 204 177
f 178 205 206
f 178 206 179
f 179 206 207
f 179 207 208
f 179 208 209
f 179 209 180
f 180 209 181
f 181 209 193
f 181 193 191
f 181 191 210
f 181 210 190
f 181 190 182
f 183 188 184
f 184 188 186
f 186 188 187
f 190 210 211
f 190 211 191
f 191 211 210
f 193 209 194
f 194 209 195
f 195 209 208
f 195 208 196
f 196 208 197
f 197 212 213
f 197 213 214
f 197 214 215
f 197 215 216
f 197 216 217
f 197 217 218
f 197 218 198
f 197 208 207
f 197 207 219
f 197 219 212
f 198 218 199
f 199 220 217
f 199 217 221
f 199 221 222
f 199 222 223
f 199 223 200
f 199 218 220
f 200 223 224
f 200 224 225
f 200 225 201
f 201 225 226
f 203 226 225
f 204 227 228
f 204 228 229
f 205 230 206
f 206 230 231
f 206 231 232
f 206 232 233
f 206 233 213
f 206 213 207
f 207 213 219
f 212 219 213
f 213 233 228
f 213 228 214
f 214 228 234
f 214 234 235
f 214 235 215
f 215 235 236
f 215 236 216
f 216 236 237
f 216 237 238
f 216 238 239
f 216 239 224
f 216 224 223
f 216 223 217
f 217 222 221
f 217 220 218
f 217 223 222
f 224 239 240
f 224 240 241
f 224 241 225
f 227 237 236
f 227 236 235
f 227 235 234
f 227 234 228
f 228 242 229
f 228 233 242
f 232 242 233

