# https://github.com/mikedh/trimesh
v -0.03045422 0.00560393 0.01162144
v -0.03031770 0.00560393 0.01114988
v -0.02371129 0.00560393 0.01162144
v -0.02921216 0.01129402 0.01162144
v -0.03010510 0.00560393 0.01049330
v -0.02961723 0.00704335 0.00995904
v -0.02168371 0.00560393 0.00769198
v -0.00759137 0.02370809 0.01162144
v -0.02879590 0.01092603 0.01028983
v -0.02864372 0.01017252 0.00938631
v -0.02875786 0.00930887 0.00911091
v -0.02931510 0.00833757 0.00995904
v -0.02897717 0.01215767 0.01162144
v -0.02869967 0.01164449 0.01054176
v -0.03002229 0.00560393 0.01024021
v -0.02914278 0.00704335 0.00866512
v -0.02986788 0.00560393 0.00979826
v -0.02985221 0.00587679 0.00991980
v -0.02899955 0.00560393 0.00769198
v -0.00759137 0.02164283 0.00769198
v -0.00759137 0.03117305 0.01162144
v -0.02852287 0.01092603 0.00964325
v -0.02805738 0.01092603 0.00866512
v -0.02845126 0.00969689 0.00867358
v -0.02856763 0.00860794 0.00824817
v -0.02868624 0.00774679 0.00798623
v -0.02885185 0.00824245 0.00867358
v -0.02886975 0.01247560 0.01162144
v -0.02885185 0.01213514 0.01129873
v -0.02877352 0.01275347 0.01162144
v -0.02870414 0.01293871 0.01162144
v -0.02826327 0.01213514 0.01004981
v -0.02742404 0.01167202 0.00794085
v -0.02877128 0.00704335 0.00780238
v -0.02941134 0.00574912 0.00866512
v -0.02944267 0.00560393 0.00867358
v -0.02897717 0.00574912 0.00769198
v -0.00759137 0.02929554 0.00769198
v -0.00759137 0.03114801 0.01154221
v -0.00766522 0.03115552 0.01162144
v -0.02755832 0.01092603 0.00771622
v -0.02756951 0.01085093 0.00769198
v -0.02831027 0.00850029 0.00769198
v -0.02835950 0.00834258 0.00769198
v -0.02860567 0.00749645 0.00769198
v -0.02860344 0.01315901 0.01162144
v -0.02760308 0.01215016 0.00871666
v -0.02722486 0.01253568 0.00831971
v -0.02645725 0.01345691 0.00769198
v -0.02717563 0.01191735 0.00769198
v -0.02735243 0.01145924 0.00769198
v -0.02754489 0.01092603 0.00769198
v -0.02871757 0.00704335 0.00769198
v -0.02882723 0.00651514 0.00769198
v -0.00782188 0.02921794 0.00769198
v -0.00759137 0.02957341 0.00815316
v -0.00759137 0.03095025 0.01111141
v -0.00828514 0.02980873 0.00906514
v -0.00804344 0.03104287 0.01162144
v -0.00782412 0.03111046 0.01162144
v -0.02838188 0.01363214 0.01162144
v -0.02744418 0.01299629 0.00918246
v -0.02632521 0.01371976 0.00769198
v -0.00862530 0.02894507 0.00769198
v -0.00761823 0.02959344 0.00820240
v -0.00759137 0.02961597 0.00823278
v -0.00759137 0.03041203 0.00994558
v -0.00867454 0.02945325 0.00864627
v -0.00914674 0.02964601 0.00941747
v -0.00824261 0.03096777 0.01162144
v -0.02779554 0.01476365 0.01162144
v -0.02614617 0.01555971 0.00918630
v -0.02632521 0.01475364 0.00871897
v -0.02614617 0.01428551 0.00789969
v -0.02622450 0.01392002 0.00769198
v -0.00963014 0.02857708 0.00769198
v -0.00990765 0.02853202 0.00779237
v -0.01055889 0.02839684 0.00801508
v -0.01107585 0.02851951 0.00878551
v -0.01186361 0.02840185 0.00929708
v -0.00858502 0.03080756 0.01162144
v -0.02739942 0.01547460 0.01162144
v -0.02724724 0.01570991 0.01162144
v -0.02591119 0.01649346 0.00995904
v -0.02476984 0.01672126 0.00805239
v -0.02591343 0.01514916 0.00832317
v -0.02608575 0.01418037 0.00769198
v -0.00990765 0.02847445 0.00769198
v -0.01088115 0.02808643 0.00769198
v -0.01114747 0.02796627 0.00769198
v -0.01142050 0.02820909 0.00843434
v -0.00873720 0.03073496 0.01162144
v -0.01237610 0.02791620 0.00878551
v -0.01443948 0.02710011 0.00931131
v -0.01534585 0.02690485 0.00995904
v -0.01661477 0.02693990 0.01162144
v -0.02701450 0.01603535 0.01162144
v -0.02607232 0.01673378 0.01063254
v -0.02500035 0.01702166 0.00891513
v -0.02467808 0.01648845 0.00769198
v -0.02507420 0.01587513 0.00769198
v -0.02358596 0.01817070 0.00785622
v -0.02353897 0.01810060 0.00769198
v -0.02563368 0.01495390 0.00769198
v -0.01239848 0.02739050 0.00769198
v -0.01319295 0.02712765 0.00796585
v -0.01369201 0.02725031 0.00879397
v -0.01405680 0.02689484 0.00844857
v -0.01507058 0.02645675 0.00868050
v -0.01606871 0.02602117 0.00891206
v -0.01645140 0.02626149 0.00990211
v -0.01680947 0.02683976 0.01162144
v -0.02686455 0.01623561 0.01162144
v -0.02628269 0.01697410 0.01162144
v -0.02111751 0.02349530 0.01162144
v -0.02348302 0.01931973 0.00934170
v -0.02331294 0.01909443 0.00866512
v -0.02335993 0.01834343 0.00769198
v -0.02240209 0.01957257 0.00769198
v -0.01275879 0.02721276 0.00769198
v -0.01306091 0.02705005 0.00769198
v -0.01570169 0.02578836 0.00804931
v -0.01693032 0.02573829 0.00943286
v -0.01725258 0.02596360 0.01029560
v -0.01768003 0.02633159 0.01162144
v -0.02052446 0.02412364 0.01162144
v -0.02109961 0.02345274 0.01150759
v -0.02227005 0.02071409 0.00918399
v -0.02261470 0.01999313 0.00871743
v -0.02202612 0.02043372 0.00832087
v -0.02077063 0.02178552 0.00822548
v -0.02117570 0.02093438 0.00769198
v -0.01484679 0.02604621 0.00769198
v -0.01546670 0.02569073 0.00769198
v -0.01639097 0.02507992 0.00769198
v -0.01712502 0.02459176 0.00769198
v -0.01718320 0.02463182 0.00782276
v -0.01645140 0.02556807 0.00855434
v -0.01911231 0.02533526 0.01162144
v -0.01839841 0.02586096 0.01162144
v -0.01763751 0.02482708 0.00875166
v -0.01797991 0.02614384 0.01162144
v -0.01986426 0.02473696 0.01162144
v -0.01975237 0.02334009 0.00910822
v -0.02067216 0.02298712 0.00995904
v -0.02088477 0.02319490 0.01064485
v -0.02103471 0.02207090 0.00908822
v -0.02026262 0.02257157 0.00866666
v -0.01944800 0.02306973 0.00824548
v -0.01992245 0.02222360 0.00769198
v -0.02056250 0.02157774 0.00769198
v -0.01732196 0.02444657 0.00769198
v -0.01804705 0.02430138 0.00837818
v -0.01837155 0.02455171 0.00924092
v -0.01954871 0.02445909 0.01069370
v -0.01984412 0.02471693 0.01155682
v -0.01859982 0.02345024 0.00769198
v -0.01924659 0.02286446 0.00769198
v -0.01784116 0.02404604 0.00769198
v -0.01891090 0.02382074 0.00874320
f 1 2 5
f 1 5 15
f 1 15 17
f 1 17 36
f 1 36 19
f 1 19 7
f 1 7 3
f 1 3 8
f 1 8 21
f 1 21 40
f 1 40 60
f 1 60 59
f 1 59 70
f 1 70 81
f 1 81 92
f 1 92 96
f 1 96 112
f 1 112 125
f 1 125 142
f 1 142 140
f 1 140 139
f 1 139 143
f 1 143 126
f 1 126 115
f 1 115 114
f 1 114 113
f 1 113 97
f 1 97 83
f 1 83 82
f 1 82 71
f 1 71 61
f 1 61 46
f 1 46 31
f 1 31 30
f 1 30 28
f 1 28 13
f 1 13 4
f 1 4 2
f 2 4 6
f 2 6 5
f 3 7 8
f 4 9 10
f 4 10 11
f 4 11 12
f 4 12 6
f 4 13 14
f 4 14 9
f 5 6 15
f 6 12 16
f 6 16 17
f 6 17 18
f 6 18 15
f 7 19 37
f 7 37 54
f 7 54 53
f 7 53 45
f 7 45 44
f 7 44 43
f 7 43 42
f 7 42 52
f 7 52 51
f 7 51 50
f 7 50 49
f 7 49 63
f 7 63 75
f 7 75 87
f 7 87 104
f 7 104 101
f 7 101 100
f 7 100 103
f 7 103 118
f 7 118 119
f 7 119 132
f 7 132 151
f 7 151 150
f 7 150 158
f 7 158 157
f 7 157 159
f 7 159 152
f 7 152 136
f 7 136 135
f 7 135 134
f 7 134 133
f 7 133 121
f 7 121 120
f 7 120 105
f 7 105 90
f 7 90 89
f 7 89 88
f 7 88 76
f 7 76 64
f 7 64 55
f 7 55 38
f 7 38 20
f 7 20 8
f 8 20 38
f 8 38 56
f 8 56 66
f 8 66 67
f 8 67 57
f 8 57 39
f 8 39 21
f 9 14 10
f 10 14 22
f 10 22 23
f 10 23 24
f 10 24 25
f 10 25 11
f 11 25 26
f 11 26 27
f 11 27 16
f 11 16 12
f 13 28 29
f 13 29 14
f 14 29 30
f 14 30 31
f 14 31 32
f 14 32 33
f 14 33 23
f 14 23 22
f 15 18 17
f 16 34 35
f 16 35 17
f 16 27 26
f 16 26 34
f 17 35 36
f 19 36 37
f 21 39 40
f 23 41 42
f 23 42 24
f 23 33 41
f 24 42 43
f 24 43 44
f 24 44 25
f 25 44 26
f 26 45 34
f 26 44 45
f 28 30 29
f 31 46 47
f 31 47 33
f 31 33 32
f 33 47 48
f 33 48 49
f 33 49 50
f 33 50 51
f 33 51 52
f 33 52 41
f 34 53 54
f 34 54 35
f 34 45 53
f 35 54 37
f 35 37 36
f 38 55 56
f 39 57 58
f 39 58 59
f 39 59 60
f 39 60 40
f 41 52 42
f 46 48 47
f 46 61 48
f 48 61 62
f 48 62 49
f 49 62 61
f 49 61 63
f 55 64 56
f 56 64 65
f 56 65 66
f 57 67 58
f 58 66 65
f 58 65 68
f 58 68 69
f 58 69 59
f 58 67 66
f 59 69 70
f 61 71 72
f 61 72 73
f 61 73 74
f 61 74 75
f 61 75 63
f 64 76 77
f 64 77 68
f 64 68 65
f 68 77 78
f 68 78 69
f 69 78 79
f 69 79 80
f 69 80 70
f 70 80 81
f 71 82 72
f 72 82 83
f 72 83 84
f 72 84 85
f 72 85 86
f 72 86 74
f 72 74 73
f 74 87 75
f 74 86 87
f 76 88 77
f 77 88 89
f 77 89 78
f 78 89 90
f 78 90 91
f 78 91 79
f 79 91 80
f 80 92 81
f 80 91 93
f 80 93 94
f 80 94 95
f 80 95 96
f 80 96 92
f 83 97 98
f 83 98 84
f 84 98 99
f 84 99 85
f 85 100 101
f 85 101 86
f 85 99 102
f 85 102 103
f 85 103 100
f 86 104 87
f 86 101 104
f 90 105 91
f 91 105 93
f 93 105 106
f 93 106 107
f 93 107 94
f 94 107 106
f 94 106 108
f 94 108 109
f 94 109 110
f 94 110 95
f 95 111 112
f 95 112 96
f 95 110 111
f 97 113 98
f 98 113 114
f 98 114 115
f 98 115 116
f 98 116 99
f 99 116 117
f 99 117 102
f 102 118 103
f 102 117 119
f 102 119 118
f 105 120 106
f 106 109 108
f 106 120 121
f 106 121 122
f 106 122 109
f 109 122 110
f 110 122 123
f 110 123 124
f 110 124 111
f 111 125 112
f 111 124 125
f 115 126 127
f 115 127 128
f 115 128 116
f 116 128 129
f 116 129 117
f 117 129 119
f 119 129 128
f 119 128 130
f 119 130 131
f 119 131 132
f 121 133 122
f 122 134 135
f 122 135 136
f 122 136 137
f 122 137 138
f 122 138 123
f 122 133 134
f 123 139 140
f 123 140 124
f 123 138 137
f 123 137 141
f 123 141 139
f 124 140 142
f 124 142 125
f 126 143 144
f 126 144 145
f 126 145 146
f 126 146 127
f 127 146 128
f 128 146 147
f 128 147 130
f 130 147 131
f 131 147 145
f 131 145 148
f 131 148 149
f 131 149 150
f 131 150 151
f 131 151 132
f 136 152 137
f 137 152 153
f 137 153 141
f 139 141 154
f 139 154 155
f 139 155 156
f 139 156 143
f 141 153 154
f 143 156 144
f 144 157 149
f 144 149 148
f 144 148 145
f 144 156 155
f 144 155 157
f 145 147 146
f 149 157 158
f 149 158 150
f 152 159 153
f 153 159 157
f 153 157 154
f 154 157 160
f 154 160 155
f 155 160 157

