# https://github.com/mikedh/trimesh
v 0.04190337 -0.02208266 0.09470269
v 0.04189619 -0.02208266 0.09342881
v 0.04187227 -0.02208266 0.09601059
v 0.04115466 -0.02328227 0.09666832
v 0.04112118 -0.02326583 0.09537554
v 0.04184835 -0.02208266 0.09218518
v 0.04184835 -0.02208266 0.09666832
v 0.04153261 -0.02263522 0.09666832
v 0.04177420 -0.02208266 0.09796110
v 0.04149912 -0.02254484 0.09796110
v 0.04109487 -0.02319188 0.09796110
v 0.03754271 -0.02757948 0.10443255
v 0.03710497 -0.02822653 0.10443255
v 0.03715042 -0.02829637 0.10313977
v 0.03719108 -0.02835389 0.10184699
v 0.03722457 -0.02839702 0.10055043
v 0.03606205 -0.02987394 0.09925765
v 0.03605008 -0.02986161 0.09856969
v 0.03086657 -0.03502978 0.08296186
v 0.02995281 -0.03545087 0.07467220
v 0.02990019 -0.03539130 0.07337564
v 0.02984039 -0.03532146 0.07208287
v 0.02979255 -0.03526600 0.07108493
v 0.04174071 -0.02208266 0.09100580
v 0.04138669 -0.02208266 0.10164665
v 0.04136517 -0.02208266 0.10184699
v 0.03863825 -0.02598343 0.10390712
v 0.03825314 -0.02649286 0.10437585
v 0.03858802 -0.02590332 0.10477275
v 0.03744464 -0.02743570 0.10572910
v 0.03701407 -0.02808274 0.10572910
v 0.03636822 -0.02892083 0.10572910
v 0.03645912 -0.02902148 0.10443255
v 0.03605487 -0.02986777 0.10014597
v 0.03648065 -0.02931522 0.10056555
v 0.03551427 -0.03052099 0.09925765
v 0.03366763 -0.03269219 0.09796110
v 0.03247401 -0.03407256 0.09666832
v 0.03115122 -0.03537692 0.09149343
v 0.03109142 -0.03534611 0.09020065
v 0.03039773 -0.03577132 0.08502576
v 0.03035946 -0.03571174 0.08372921
v 0.02962032 -0.03635469 0.08114365
v 0.02958444 -0.03632593 0.08030448
v 0.02953660 -0.03629306 0.07944263
v 0.02925195 -0.03609792 0.07467220
v 0.02916584 -0.03603835 0.07337564
v 0.02907016 -0.03596851 0.07208287
v 0.02899361 -0.03591305 0.07108493
v 0.03952330 -0.02208266 0.07108493
v 0.03953527 -0.02208266 0.07116053
v 0.03968118 -0.02208266 0.07231345
v 0.04121447 -0.02208266 0.08527525
v 0.04123599 -0.02208266 0.08549827
v 0.04125992 -0.02208266 0.10273908
v 0.04115466 -0.02208266 0.10362740
v 0.04007826 -0.02362325 0.10443255
v 0.04105659 -0.02208266 0.10443255
v 0.03999932 -0.02350000 0.10547206
v 0.03736331 -0.02730629 0.10653048
v 0.03692796 -0.02780338 0.10698408
v 0.03622470 -0.02876061 0.10702188
v 0.03575826 -0.02956787 0.10572910
v 0.03586111 -0.02966852 0.10443255
v 0.03310072 -0.03333924 0.09796110
v 0.03486603 -0.03127896 0.09925765
v 0.03245248 -0.03402326 0.09796110
v 0.03182338 -0.03471961 0.09666832
v 0.03056756 -0.03602397 0.09149343
v 0.03056039 -0.03599316 0.09020065
v 0.03047906 -0.03588224 0.08761132
v 0.02967055 -0.03639577 0.08243643
v 0.02832384 -0.03763440 0.09186010
v 0.02860610 -0.03647793 0.07467220
v 0.02851999 -0.03643685 0.07337564
v 0.02842192 -0.03638961 0.07208287
v 0.02834537 -0.03635058 0.07108493
v 0.03215587 -0.02208266 0.07108493
v 0.04102550 -0.02208266 0.10462911
v 0.04083892 -0.02208266 0.10575556
v 0.04033898 -0.02284679 0.10583495
v 0.03991081 -0.02336032 0.10633391
v 0.03962856 -0.02396629 0.10583495
v 0.03727002 -0.02716250 0.10739233
v 0.03611228 -0.02863736 0.10786105
v 0.03559799 -0.02940765 0.10702188
v 0.03511241 -0.03021287 0.10572910
v 0.03069673 -0.03485518 0.10443255
v 0.03106750 -0.03522287 0.09925765
v 0.03179228 -0.03467031 0.09796110
v 0.03114404 -0.03528038 0.09796110
v 0.03042643 -0.03592743 0.09796110
v 0.03054125 -0.03601165 0.09278621
v 0.02991932 -0.03660324 0.09149343
v 0.02991215 -0.03659091 0.09020065
v 0.02987388 -0.03656010 0.08890787
v 0.02975188 -0.03646355 0.08502576
v 0.02971122 -0.03643069 0.08372921
v 0.02834776 -0.03765289 0.09278621
v 0.01986086 -0.04201379 0.09925765
v 0.01803335 -0.04283338 0.09826350
v 0.02882139 -0.03731190 0.09145185
v 0.01746644 -0.04305728 0.09793086
v 0.01746644 -0.03964128 0.07108493
v 0.01746644 -0.03456350 0.07108493
v 0.03410776 -0.02208266 0.10443255
v 0.04074563 -0.02208266 0.10619783
v 0.04057101 -0.02208266 0.10702188
v 0.03983666 -0.02324118 0.10702188
v 0.03877938 -0.02490913 0.10702188
v 0.03868131 -0.02475712 0.10782325
v 0.03482776 -0.02992940 0.10785727
v 0.03754510 -0.02629977 0.10808407
v 0.03637540 -0.02788760 0.10830332
v 0.03583480 -0.02831075 0.10872668
v 0.03533008 -0.02913856 0.10829198
v 0.03495215 -0.03005264 0.10702188
v 0.03057952 -0.03473809 0.10572910
v 0.03005089 -0.03549196 0.10443255
v 0.02966816 -0.03639372 0.10055043
v 0.03038577 -0.03586991 0.09925765
v 0.02960358 -0.03634236 0.10144253
v 0.02973992 -0.03645123 0.09925765
v 0.02978059 -0.03648615 0.09796110
v 0.02986431 -0.03656421 0.09407898
v 0.02989301 -0.03658680 0.09278621
v 0.02898644 -0.03721125 0.09407898
v 0.02899600 -0.03723385 0.09278621
v 0.02833820 -0.03765084 0.09407898
v 0.02762537 -0.03803496 0.09537554
v 0.02585527 -0.03899012 0.09796110
v 0.02585767 -0.03898807 0.09693671
v 0.02074352 -0.04161118 0.10055043
v 0.02135827 -0.04127430 0.09925765
v 0.01868877 -0.04255813 0.09925765
v 0.01804053 -0.04283543 0.09925765
v 0.01746644 -0.04306550 0.09925765
v 0.01746644 -0.03640193 0.10443255
v 0.01746644 -0.03642042 0.10473117
v 0.03426563 -0.02208266 0.10572910
v 0.04036530 -0.02208266 0.10768717
v 0.04009021 -0.02234970 0.10803494
v 0.03982709 -0.02208266 0.10883631
v 0.03731307 -0.02593619 0.10894971
v 0.03453832 -0.02964182 0.10872290
v 0.02964663 -0.03509346 0.10784593
v 0.03041447 -0.03457376 0.10702188
v 0.03615294 -0.02744597 0.10903287
v 0.03497128 -0.02877909 0.10906311
v 0.02993128 -0.03537076 0.10572910
v 0.02976624 -0.03521260 0.10702188
v 0.02932849 -0.03613900 0.10443255
v 0.02953182 -0.03628690 0.10230438
v 0.02822338 -0.03757689 0.09796110
v 0.02902710 -0.03665459 0.10186211
v 0.02788371 -0.03736737 0.10184699
v 0.02891946 -0.03686616 0.10055043
v 0.02757514 -0.03798566 0.09796110
v 0.02891946 -0.03710238 0.09796110
v 0.02879746 -0.03724412 0.09667966
v 0.02895773 -0.03718455 0.09537554
v 0.02831188 -0.03763235 0.09537554
v 0.02774737 -0.03795690 0.09667966
v 0.02650351 -0.03863271 0.09796110
v 0.02125302 -0.04119830 0.10313977
v 0.02133196 -0.04123527 0.10184699
v 0.01986086 -0.04199735 0.10055043
v 0.02068372 -0.04157831 0.10184699
v 0.02049714 -0.04148588 0.10501090
v 0.01746644 -0.04304701 0.09948068
v 0.01746644 -0.03652312 0.10564216
v 0.03451680 -0.02208266 0.10702188
v 0.04021221 -0.02208266 0.10811054
v 0.03974098 -0.02208266 0.10893080
v 0.03896118 -0.02272560 0.10913493
v 0.03917407 -0.02208266 0.10922943
v 0.03757141 -0.02507346 0.10908957
v 0.03643520 -0.02660789 0.10916517
v 0.03367480 -0.03007113 0.10906311
v 0.02978537 -0.03394315 0.10905933
v 0.03194537 -0.03222590 0.10871534
v 0.02890989 -0.03538103 0.10829198
v 0.02820903 -0.03627252 0.10748305
v 0.02884291 -0.03592538 0.10704078
v 0.02915866 -0.03601781 0.10572910
v 0.03064889 -0.03351589 0.10870778
v 0.02933567 -0.03480588 0.10870778
v 0.03539706 -0.02788760 0.10922943
v 0.03410058 -0.02920429 0.10924455
v 0.03280650 -0.03049634 0.10924455
v 0.02851042 -0.03645945 0.10572910
v 0.02868265 -0.03656626 0.10443255
v 0.02826165 -0.03759948 0.09711815
v 0.02633129 -0.03817875 0.10313977
v 0.02296332 -0.04011373 0.10443255
v 0.02723786 -0.03776587 0.10184699
v 0.02752730 -0.03728109 0.10446279
v 0.02702976 -0.03763851 0.10405076
v 0.02231747 -0.04050401 0.10443255
v 0.02104970 -0.04121679 0.10451949
v 0.02215242 -0.04041362 0.10572910
v 0.02115495 -0.04099289 0.10572910
v 0.02115495 -0.04073613 0.10702188
v 0.02032491 -0.04142426 0.10572910
v 0.01967907 -0.04165226 0.10572910
v 0.01746644 -0.04243488 0.10567240
v 0.01746644 -0.04257045 0.10450815
v 0.01746644 -0.04257867 0.10443255
v 0.01746644 -0.03676346 0.10702188
v 0.03466271 -0.02208266 0.10770607
v 0.03870762 -0.02208266 0.10942977
v 0.03680357 -0.02542882 0.10934661
v 0.03799241 -0.02397450 0.10922187
v 0.03021594 -0.03308042 0.10924077
v 0.02847215 -0.03515508 0.10904421
v 0.02890989 -0.03437451 0.10922943
v 0.02697713 -0.03631155 0.10896483
v 0.02771627 -0.03611230 0.10844696
v 0.02734551 -0.03654161 0.10809919
v 0.02579308 -0.03767343 0.10784971
v 0.02181993 -0.04020616 0.10770229
v 0.02427175 -0.03882785 0.10702188
v 0.02660398 -0.03737353 0.10702188
v 0.02771627 -0.03667513 0.10704078
v 0.02835733 -0.03636496 0.10662120
v 0.03538749 -0.02660789 0.10959231
v 0.03409341 -0.02790198 0.10964524
v 0.03279932 -0.02919608 0.10964524
v 0.02891946 -0.03307631 0.10964146
v 0.02682405 -0.03750910 0.10572910
v 0.02452531 -0.03898601 0.10549474
v 0.02694604 -0.03758716 0.10491261
v 0.02438418 -0.03889769 0.10636037
v 0.02465448 -0.03906612 0.10443255
v 0.02374312 -0.03963101 0.10443255
v 0.02498936 -0.03862654 0.10584629
v 0.02193714 -0.04028011 0.10702188
v 0.01985129 -0.04132977 0.10711260
v 0.01917913 -0.04147766 0.10760401
v 0.01941355 -0.04155777 0.10674216
v 0.01856677 -0.04204049 0.10572910
v 0.01746644 -0.04218017 0.10703322
v 0.01746644 -0.03719687 0.10839026
v 0.03469381 -0.02208266 0.10780057
v 0.03797806 -0.02208266 0.10963012
v 0.03797806 -0.02272560 0.10955830
v 0.02762537 -0.03544471 0.10918029
v 0.02762537 -0.03437041 0.10959987
v 0.02252558 -0.03834924 0.10931638
v 0.02106644 -0.03953241 0.10918407
v 0.02057608 -0.04022876 0.10898751
v 0.02300637 -0.03884428 0.10890435
v 0.02337474 -0.03907434 0.10803872
v 0.02106644 -0.04038076 0.10820504
v 0.02258538 -0.03987750 0.10702188
v 0.03668397 -0.02401970 0.10967170
v 0.03538749 -0.02531379 0.10969816
v 0.02633129 -0.03437041 0.10969816
v 0.02503720 -0.03566450 0.10967548
v 0.01986086 -0.04087375 0.10831466
v 0.01831561 -0.04162761 0.10801604
v 0.01746644 -0.04213292 0.10720710
v 0.01746644 -0.03755635 0.10899507
v 0.03509088 -0.02208266 0.10854146
v 0.03732742 -0.02208266 0.10968304
v 0.02646046 -0.03579391 0.10935795
v 0.02115495 -0.03825474 0.10964524
v 0.02374312 -0.03696065 0.10956585
v 0.01986086 -0.03954884 0.10948270
v 0.01986086 -0.04036227 0.10907067
v 0.01746644 -0.04145917 0.10891569
v 0.01772478 -0.04142220 0.10887789
v 0.02244903 -0.03696065 0.10970194
v 0.01867441 -0.04129690 0.10839404
v 0.01746644 -0.04175497 0.10832600
v 0.01746644 -0.03801031 0.10925211
v 0.03565540 -0.02208266 0.10912737
v 0.03532291 -0.02208266 0.10882497
v 0.01746644 -0.03935165 0.10966036
v 0.01746644 -0.03954884 0.10967548
v 0.03663135 -0.02208266 0.10951294
v 0.01746644 -0.03817258 0.10933149
v 0.01856677 -0.03954884 0.10964524
v 0.01746644 -0.04073407 0.10932771
v 0.01746644 -0.04088402 0.10926345
v 0.01856677 -0.04060877 0.10919919
v 0.01746644 -0.04163172 0.10859438
v 0.03595201 -0.02208266 0.10927101
f 1 2 6
f 1 6 24
f 1 24 54
f 1 54 53
f 1 53 52
f 1 52 51
f 1 51 50
f 1 50 78
f 1 78 106
f 1 106 140
f 1 140 172
f 1 172 210
f 1 210 244
f 1 244 264
f 1 264 278
f 1 278 277
f 1 277 288
f 1 288 281
f 1 281 265
f 1 265 245
f 1 245 211
f 1 211 176
f 1 176 174
f 1 174 143
f 1 143 173
f 1 173 141
f 1 141 108
f 1 108 107
f 1 107 80
f 1 80 79
f 1 79 58
f 1 58 56
f 1 56 55
f 1 55 26
f 1 26 25
f 1 25 9
f 1 9 7
f 1 7 3
f 1 3 4
f 1 4 2
f 2 5 6
f 2 4 5
f 3 7 8
f 3 8 4
f 4 8 9
f 4 9 10
f 4 10 11
f 4 11 12
f 4 12 13
f 4 13 14
f 4 14 15
f 4 15 16
f 4 16 17
f 4 17 18
f 4 18 5
f 5 18 19
f 5 19 6
f 6 19 20
f 6 20 21
f 6 21 22
f 6 22 23
f 6 23 24
f 7 9 8
f 9 25 10
f 10 25 26
f 10 26 11
f 11 26 27
f 11 27 12
f 12 27 28
f 12 28 29
f 12 29 30
f 12 30 31
f 12 31 13
f 13 31 32
f 13 32 33
f 13 33 14
f 14 33 34
f 14 34 15
f 15 34 35
f 15 35 16
f 16 35 34
f 16 34 17
f 17 34 36
f 17 36 37
f 17 37 38
f 17 38 18
f 18 38 39
f 18 39 40
f 18 40 19
f 19 40 41
f 19 41 42
f 19 42 20
f 20 42 43
f 20 43 44
f 20 44 21
f 21 44 45
f 21 45 46
f 21 46 22
f 22 46 23
f 23 46 47
f 23 47 48
f 23 48 49
f 23 49 77
f 23 77 104
f 23 104 105
f 23 105 78
f 23 78 50
f 23 50 51
f 23 51 52
f 23 52 53
f 23 53 54
f 23 54 24
f 26 55 29
f 26 29 27
f 27 29 28
f 29 56 57
f 29 57 58
f 29 58 59
f 29 59 30
f 29 55 56
f 30 59 60
f 30 60 31
f 31 60 61
f 31 61 62
f 31 62 32
f 32 63 64
f 32 64 33
f 32 62 63
f 33 64 65
f 33 65 66
f 33 66 34
f 34 66 36
f 36 66 37
f 37 65 38
f 37 66 65
f 38 65 67
f 38 67 68
f 38 68 69
f 38 69 70
f 38 70 39
f 39 70 40
f 40 70 71
f 40 71 41
f 41 43 42
f 41 71 43
f 43 71 70
f 43 70 72
f 43 72 73
f 43 73 44
f 44 74 75
f 44 75 45
f 44 73 74
f 45 75 46
f 46 75 76
f 46 76 77
f 46 77 47
f 47 77 48
f 48 77 49
f 56 58 57
f 58 79 59
f 59 79 80
f 59 80 81
f 59 81 82
f 59 82 83
f 59 83 60
f 60 82 84
f 60 84 61
f 60 83 82
f 61 84 85
f 61 85 62
f 62 85 86
f 62 86 63
f 63 87 88
f 63 88 64
f 63 86 117
f 63 117 87
f 64 88 67
f 64 67 65
f 67 89 90
f 67 90 68
f 67 88 89
f 68 90 91
f 68 91 92
f 68 92 93
f 68 93 69
f 69 93 94
f 69 94 95
f 69 95 70
f 70 95 96
f 70 96 97
f 70 97 98
f 70 98 72
f 72 98 73
f 73 99 100
f 73 100 101
f 73 101 74
f 73 98 97
f 73 97 96
f 73 96 95
f 73 95 102
f 73 102 99
f 74 101 75
f 75 101 76
f 76 101 103
f 76 103 77
f 77 103 104
f 78 105 106
f 80 107 82
f 80 82 81
f 82 107 108
f 82 108 109
f 82 109 110
f 82 110 84
f 84 111 85
f 84 110 109
f 84 109 108
f 84 108 111
f 85 112 86
f 85 111 113
f 85 113 114
f 85 114 115
f 85 115 116
f 85 116 112
f 86 112 117
f 87 118 88
f 87 117 118
f 88 118 119
f 88 119 89
f 89 120 121
f 89 121 90
f 89 119 122
f 89 122 120
f 90 121 91
f 91 121 92
f 92 121 123
f 92 123 124
f 92 124 125
f 92 125 126
f 92 126 93
f 93 126 94
f 94 126 127
f 94 127 128
f 94 128 95
f 95 128 99
f 95 99 102
f 99 128 129
f 99 129 130
f 99 130 131
f 99 131 132
f 99 132 133
f 99 133 134
f 99 134 100
f 100 134 133
f 100 133 135
f 100 135 101
f 101 135 136
f 101 136 137
f 101 137 103
f 103 137 170
f 103 170 208
f 103 208 207
f 103 207 206
f 103 206 242
f 103 242 262
f 103 262 275
f 103 275 287
f 103 287 271
f 103 271 285
f 103 285 284
f 103 284 280
f 103 280 279
f 103 279 282
f 103 282 276
f 103 276 263
f 103 263 243
f 103 243 209
f 103 209 171
f 103 171 139
f 103 139 138
f 103 138 105
f 103 105 104
f 105 138 106
f 106 138 139
f 106 139 140
f 108 141 111
f 111 141 142
f 111 142 143
f 111 143 144
f 111 144 113
f 112 116 145
f 112 145 146
f 112 146 147
f 112 147 117
f 113 144 114
f 114 144 115
f 115 144 148
f 115 148 149
f 115 149 145
f 115 145 116
f 117 147 118
f 118 150 119
f 118 147 151
f 118 151 150
f 119 150 152
f 119 152 153
f 119 153 122
f 120 154 123
f 120 123 121
f 120 122 154
f 122 153 155
f 122 155 156
f 122 156 157
f 122 157 158
f 122 158 154
f 123 154 159
f 123 159 124
f 124 159 160
f 124 160 161
f 124 161 127
f 124 127 125
f 125 127 126
f 127 129 128
f 127 161 162
f 127 162 129
f 129 162 163
f 129 163 130
f 130 163 164
f 130 164 131
f 131 133 132
f 131 164 165
f 131 165 166
f 131 166 133
f 133 167 135
f 133 166 168
f 133 168 167
f 135 167 136
f 136 167 169
f 136 169 137
f 137 169 170
f 139 171 140
f 140 171 172
f 141 173 142
f 142 173 143
f 143 174 144
f 144 174 175
f 144 175 176
f 144 176 177
f 144 177 178
f 144 178 148
f 145 149 179
f 145 179 180
f 145 180 181
f 145 181 146
f 146 182 183
f 146 183 184
f 146 184 185
f 146 185 151
f 146 151 147
f 146 181 186
f 146 186 187
f 146 187 182
f 148 178 188
f 148 188 149
f 149 188 189
f 149 189 190
f 149 190 179
f 150 185 152
f 150 151 185
f 152 185 191
f 152 191 192
f 152 192 153
f 153 192 155
f 154 158 163
f 154 163 193
f 154 193 159
f 155 192 156
f 156 194 195
f 156 195 196
f 156 196 158
f 156 158 157
f 156 192 197
f 156 197 198
f 156 198 194
f 158 164 163
f 158 196 195
f 158 195 199
f 158 199 164
f 159 193 160
f 160 193 161
f 161 193 162
f 162 193 163
f 164 199 200
f 164 200 165
f 165 200 169
f 165 169 166
f 166 169 168
f 167 168 169
f 169 200 199
f 169 199 201
f 169 201 202
f 169 202 203
f 169 203 204
f 169 204 205
f 169 205 206
f 169 206 207
f 169 207 208
f 169 208 170
f 171 209 172
f 172 209 210
f 174 176 175
f 176 211 212
f 176 212 213
f 176 213 177
f 177 213 178
f 178 213 212
f 178 212 188
f 179 190 214
f 179 214 180
f 180 215 187
f 180 187 186
f 180 186 181
f 180 214 216
f 180 216 215
f 182 187 217
f 182 217 218
f 182 218 183
f 183 218 219
f 183 219 220
f 183 220 221
f 183 221 222
f 183 222 223
f 183 223 224
f 183 224 225
f 183 225 185
f 183 185 184
f 185 225 191
f 187 215 217
f 188 212 226
f 188 226 227
f 188 227 189
f 189 227 228
f 189 228 190
f 190 228 229
f 190 229 214
f 191 230 231
f 191 231 232
f 191 232 192
f 191 225 223
f 191 223 222
f 191 222 233
f 191 233 230
f 192 232 197
f 194 198 234
f 194 234 235
f 194 235 195
f 195 235 232
f 195 232 201
f 195 201 199
f 197 234 198
f 197 232 234
f 201 232 231
f 201 231 236
f 201 236 233
f 201 233 237
f 201 237 203
f 201 203 202
f 203 237 221
f 203 221 238
f 203 238 204
f 204 238 239
f 204 239 240
f 204 240 205
f 205 241 206
f 205 240 241
f 206 241 240
f 206 240 242
f 209 243 244
f 209 244 210
f 211 245 246
f 211 246 212
f 212 246 226
f 214 229 216
f 215 216 247
f 215 247 217
f 216 229 248
f 216 248 247
f 217 247 249
f 217 249 250
f 217 250 251
f 217 251 252
f 217 252 220
f 217 220 219
f 217 219 218
f 220 253 221
f 220 252 253
f 221 254 239
f 221 239 238
f 221 237 255
f 221 255 222
f 221 253 252
f 221 252 254
f 222 255 233
f 223 225 224
f 226 246 256
f 226 256 227
f 227 256 257
f 227 257 258
f 227 258 228
f 228 258 229
f 229 258 259
f 229 259 248
f 230 233 236
f 230 236 231
f 232 235 234
f 233 255 237
f 239 254 260
f 239 260 261
f 239 261 262
f 239 262 242
f 239 242 240
f 243 263 264
f 243 264 244
f 245 265 256
f 245 256 246
f 247 248 266
f 247 266 249
f 248 259 267
f 248 267 268
f 248 268 266
f 249 266 268
f 249 268 269
f 249 269 250
f 250 269 251
f 251 269 270
f 251 270 271
f 251 271 272
f 251 272 260
f 251 260 254
f 251 254 252
f 256 265 257
f 257 273 258
f 257 265 273
f 258 273 259
f 259 273 267
f 260 274 261
f 260 272 274
f 261 275 262
f 261 274 272
f 261 272 275
f 263 276 277
f 263 277 278
f 263 278 264
f 265 279 280
f 265 280 273
f 265 281 282
f 265 282 279
f 267 273 283
f 267 283 269
f 267 269 268
f 269 284 285
f 269 285 286
f 269 286 270
f 269 283 284
f 270 286 271
f 271 287 272
f 271 286 285
f 272 287 275
f 273 280 283
f 276 282 288
f 276 288 277
f 280 284 283
f 281 288 282

