# https://github.com/mikedh/trimesh
v 0.04430822 0.01603021 0.09673484
v 0.04253666 0.01781513 0.07232588
v 0.04253666 0.01817060 0.07232588
v 0.04257148 0.01834078 0.07336931
v 0.04261066 0.01853459 0.07466459
v 0.04294799 0.01869058 0.08113383
v 0.04301981 0.01869058 0.08242912
v 0.04429080 0.01610206 0.09667007
v 0.04427122 0.01603021 0.09795816
v 0.04177929 0.01603021 0.06568394
v 0.04201869 0.01739632 0.06561198
v 0.04211662 0.01739632 0.06690727
v 0.04241914 0.01898743 0.07336931
v 0.04246919 0.01918124 0.07466459
v 0.04196863 0.01869058 0.06690727
v 0.04249531 0.01929185 0.07547774
v 0.04262807 0.01879268 0.07593109
v 0.04280000 0.01869058 0.07855045
v 0.04252360 0.01937032 0.07634127
v 0.04308945 0.01869058 0.08372440
v 0.04348555 0.01869058 0.09148893
v 0.04397088 0.01725356 0.09537479
v 0.04398394 0.01721196 0.09667007
v 0.04425163 0.01610206 0.09795816
v 0.04426469 0.01603021 0.09803013
v 0.04166612 0.01603021 0.06438865
v 0.04129614 0.01645753 0.05914274
v 0.04124608 0.01662487 0.05820006
v 0.04189681 0.01739632 0.06431669
v 0.04142019 0.01965773 0.06561198
v 0.04184675 0.01869058 0.06561198
v 0.04148548 0.01975321 0.06690727
v 0.04189681 0.01998484 0.07336931
v 0.04199910 0.01998484 0.07466459
v 0.04228420 0.02030816 0.08113383
v 0.04233208 0.02038002 0.08242912
v 0.04259325 0.01950457 0.07855045
v 0.04294582 0.01998484 0.09019364
v 0.04350514 0.01869058 0.09278421
v 0.04376630 0.01789266 0.09407950
v 0.04267377 0.01966151 0.08113383
v 0.04271077 0.01973241 0.08242912
v 0.04274341 0.01979292 0.08372440
v 0.04375107 0.01790022 0.09537479
v 0.04347902 0.01869058 0.09407950
v 0.04343985 0.01869058 0.09537479
v 0.04372713 0.01785957 0.09667007
v 0.04334409 0.01869058 0.09795816
v 0.04370101 0.01774706 0.09795816
v 0.04392953 0.01709946 0.09795816
v 0.04377718 0.01603021 0.10313931
v 0.04390124 0.01603021 0.10184402
v 0.04165959 0.01603021 0.06431669
v 0.04105891 0.01603021 0.05792661
v 0.04153989 0.01603021 0.06302140
v 0.04117208 0.01739632 0.05751644
v 0.04125261 0.01739632 0.05816408
v 0.04136360 0.01739632 0.05914274
v 0.04150071 0.01739632 0.06043803
v 0.04163565 0.01739632 0.06173331
v 0.04176840 0.01739632 0.06302140
v 0.04104585 0.01603021 0.05780428
v 0.04090874 0.01603021 0.05655217
v 0.04077381 0.01603021 0.05532884
v 0.04063017 0.01603021 0.05403355
v 0.04048435 0.01603021 0.05274546
v 0.04032765 0.01603021 0.05137102
v 0.04034289 0.01610206 0.05137822
v 0.04018619 0.01610206 0.05008293
v 0.03995550 0.01648684 0.04787375
v 0.04123302 0.01809686 0.05834398
v 0.04134401 0.01954239 0.06431669
v 0.04089133 0.02030533 0.06561198
v 0.04098274 0.02040081 0.06690727
v 0.04170311 0.01869058 0.06431669
v 0.04121996 0.01934952 0.06231619
v 0.04126349 0.01941854 0.06302140
v 0.04128090 0.01822355 0.05914274
v 0.04105891 0.02048117 0.06820255
v 0.04118732 0.02060880 0.07033977
v 0.04123520 0.02065229 0.07120330
v 0.04154424 0.01983452 0.06820255
v 0.04127655 0.02069011 0.07208122
v 0.04237561 0.02044052 0.08372440
v 0.04133531 0.02074589 0.07336931
v 0.03902402 0.02568846 0.09795816
v 0.04256495 0.02071091 0.09019364
v 0.04296323 0.01998484 0.09148893
v 0.04251272 0.02063906 0.08815716
v 0.04253231 0.02066458 0.08889836
v 0.04241696 0.02049725 0.08501969
v 0.04248660 0.02060124 0.08729364
v 0.04293058 0.01998484 0.09278421
v 0.04279782 0.01991488 0.09795816
v 0.04339415 0.01869058 0.09667007
v 0.04276518 0.01984775 0.09925345
v 0.04325051 0.01869058 0.09925345
v 0.04312645 0.01869058 0.10054874
v 0.04300022 0.01869058 0.10184402
v 0.04344203 0.01739632 0.10184402
v 0.04366619 0.01635448 0.10313931
v 0.04363137 0.01603399 0.10449936
v 0.04363137 0.01603021 0.10450656
v 0.03995550 0.01692456 0.04787375
v 0.04017967 0.01603021 0.05014770
v 0.04000338 0.01603021 0.04873727
v 0.03952023 0.01610206 0.04490898
v 0.03934177 0.01610206 0.04361369
v 0.04095227 0.01859320 0.05789063
v 0.04101103 0.01887020 0.05914274
v 0.04116338 0.01922379 0.06145267
v 0.04017967 0.01739632 0.05008293
v 0.03993156 0.01807039 0.04935613
v 0.03999032 0.01818857 0.05008293
v 0.03987497 0.02060786 0.06127277
v 0.03995767 0.02065891 0.06213629
v 0.04026889 0.01972863 0.05784745
v 0.03354395 0.02568846 0.05920031
v 0.04155294 0.01869058 0.06302140
v 0.03990762 0.01932022 0.05337872
v 0.03997944 0.01940814 0.05424224
v 0.04006214 0.01950268 0.05525688
v 0.04016661 0.01961896 0.05655217
v 0.03993373 0.02453223 0.09726015
v 0.03907190 0.02568846 0.09923187
v 0.04107850 0.02302999 0.09667007
v 0.04256930 0.02072792 0.09148893
v 0.04254754 0.02070145 0.09278421
v 0.04246919 0.02056248 0.09795816
v 0.04243002 0.02049441 0.09925345
v 0.04271077 0.01973052 0.10054874
v 0.04257366 0.01946581 0.10313931
v 0.04252796 0.01937883 0.10398844
v 0.04248007 0.01926727 0.10485197
v 0.04286311 0.01869058 0.10313931
v 0.04316998 0.01739632 0.10443460
v 0.04342679 0.01610206 0.10572989
v 0.04345073 0.01603021 0.10572989
v 0.03913501 0.01610206 0.04231841
v 0.03868233 0.01691133 0.04006605
v 0.03938747 0.01739632 0.04490898
v 0.03950717 0.01603021 0.04490898
v 0.03932871 0.01603021 0.04361369
v 0.03912195 0.01603021 0.04231121
v 0.04009043 0.01838616 0.05137822
v 0.03917201 0.01739632 0.04361369
v 0.03860616 0.01799854 0.04175712
v 0.03869321 0.01815548 0.04262064
v 0.03879115 0.01830863 0.04361369
v 0.03965081 0.02047077 0.05914274
v 0.03225554 0.02568846 0.05139261
v 0.03268211 0.02568846 0.05396879
v 0.03864098 0.01935331 0.04675836
v 0.03894785 0.01963220 0.05008293
v 0.03103025 0.02568846 0.04480104
v 0.03994462 0.02454641 0.09795816
v 0.03993591 0.02453885 0.09872814
v 0.03854957 0.02568846 0.10443460
v 0.04105674 0.02297137 0.09795816
v 0.04148113 0.02238333 0.09667007
v 0.04211009 0.02127815 0.09667007
v 0.04206004 0.02127815 0.09795816
v 0.04145066 0.02232471 0.09795816
v 0.04235820 0.02037812 0.10054874
v 0.04219062 0.01987990 0.10442740
v 0.04192728 0.01998484 0.10572989
v 0.04240390 0.01905456 0.10572989
v 0.04263242 0.01840696 0.10572989
v 0.04269554 0.01877755 0.10442740
v 0.04320698 0.01603021 0.10702517
v 0.04343767 0.01603021 0.10580185
v 0.03890867 0.01603021 0.04102312
v 0.03891738 0.01610206 0.04102312
v 0.03871497 0.01610206 0.03985736
v 0.03860180 0.01610206 0.03920972
v 0.03846252 0.01610206 0.03843255
v 0.03822094 0.01610206 0.03714446
v 0.03802072 0.01610206 0.03619458
v 0.03786620 0.01739632 0.03714446
v 0.03814477 0.01739632 0.03843255
v 0.03877374 0.01716091 0.04102312
v 0.03888037 0.01749842 0.04223925
v 0.03735475 0.01807323 0.03640326
v 0.03842769 0.01913492 0.04490898
v 0.03744616 0.01818006 0.03714446
v 0.03854522 0.01925687 0.04589484
v 0.02916511 0.02568846 0.03619458
v 0.02968526 0.02568846 0.03841815
v 0.03091055 0.02568846 0.04419657
v 0.03095190 0.02568846 0.04440526
v 0.03837764 0.02568846 0.10572989
v 0.03996638 0.02329564 0.10531251
v 0.04148548 0.02105409 0.10443460
v 0.04138319 0.02090188 0.10572989
v 0.04128090 0.02074021 0.10668696
v 0.04158341 0.02008978 0.10708274
v 0.04229508 0.01863574 0.10702517
v 0.04246701 0.01792574 0.10745693
v 0.04254972 0.01816777 0.10659341
v 0.04261501 0.01706354 0.10796066
v 0.04275865 0.01603021 0.10835644
v 0.03871280 0.01603021 0.03986456
v 0.03860833 0.01603021 0.03927448
v 0.03845599 0.01603021 0.03843255
v 0.03822747 0.01603021 0.03720922
v 0.03821441 0.01603021 0.03714446
v 0.03817306 0.01603021 0.03694297
v 0.03801636 0.01603021 0.03619458
v 0.03762897 0.01741901 0.03619458
v 0.03744616 0.01778772 0.03619458
v 0.03708923 0.01824813 0.03619458
v 0.03734822 0.01935047 0.04159880
v 0.02207454 0.02568846 0.03619458
v 0.03811647 0.02568846 0.10698919
v 0.04118732 0.02059179 0.10755048
v 0.04139407 0.01964544 0.10831326
v 0.04180541 0.01869058 0.10831326
v 0.04274994 0.01605857 0.10835644
v 0.04122214 0.01935709 0.10896810
v 0.04240390 0.01646131 0.10882418
v 0.04273688 0.01603021 0.10839961
v 0.03005524 0.01603021 0.03619458
v 0.03128924 0.02568846 0.10443460
v 0.03742222 0.01603021 0.10443460
v 0.03756803 0.01603021 0.10574428
v 0.03771385 0.02568846 0.10817654
v 0.03865186 0.02455776 0.10774478
v 0.04005343 0.02214225 0.10798224
v 0.03982274 0.02177260 0.10884577
v 0.03735475 0.02568846 0.10886736
v 0.03723287 0.02568846 0.10896810
v 0.03867580 0.02331455 0.10899689
v 0.03753974 0.02488203 0.10907604
v 0.03891520 0.02257241 0.10911202
v 0.03934394 0.02131597 0.10928473
v 0.04052788 0.01986666 0.10914800
v 0.04056488 0.01869058 0.10944304
v 0.04133749 0.01869058 0.10904006
v 0.04196645 0.01603021 0.10922716
v 0.03138282 0.02568846 0.10508944
v 0.03147641 0.02568846 0.10572989
v 0.03779220 0.01603021 0.10701798
v 0.03664961 0.02568846 0.10926314
v 0.03797283 0.02379387 0.10919837
v 0.03678890 0.02525263 0.10932790
v 0.03797719 0.02257241 0.10952939
v 0.03927212 0.01998484 0.10962294
v 0.04056488 0.01739632 0.10962294
v 0.04192728 0.01603021 0.10924875
v 0.04157688 0.01739632 0.10916959
v 0.03158087 0.02568846 0.10618324
v 0.03825794 0.01603021 0.10842840
v 0.03204008 0.02568752 0.10792467
v 0.03177457 0.02568846 0.10701798
v 0.03538950 0.02568846 0.10964453
v 0.03668225 0.02386667 0.10965172
v 0.03797719 0.02127815 0.10969490
v 0.03927212 0.01869058 0.10968771
v 0.04056488 0.01610206 0.10967331
v 0.04056488 0.01603021 0.10967331
v 0.03828405 0.01603021 0.10847157
v 0.03246665 0.02568846 0.10866587
v 0.03204008 0.02568846 0.10792467
v 0.03403798 0.02568846 0.10947902
v 0.03538950 0.02515998 0.10969490
v 0.03668225 0.02257241 0.10967331
v 0.03927212 0.01739632 0.10958696
v 0.03915678 0.01603021 0.10931351
v 0.03852563 0.01637528 0.10903287
v 0.03911325 0.01603021 0.10929192
v 0.03306732 0.02568846 0.10912641
v 0.03538950 0.02386667 0.10956537
f 1 2 3
f 1 3 4
f 1 4 5
f 1 5 6
f 1 6 7
f 1 7 8
f 1 8 9
f 1 9 25
f 1 25 52
f 1 52 51
f 1 51 103
f 1 103 138
f 1 138 171
f 1 171 170
f 1 170 201
f 1 201 221
f 1 221 239
f 1 239 249
f 1 249 260
f 1 260 268
f 1 268 270
f 1 270 261
f 1 261 252
f 1 252 242
f 1 242 225
f 1 225 224
f 1 224 222
f 1 222 208
f 1 208 207
f 1 207 206
f 1 206 205
f 1 205 204
f 1 204 203
f 1 203 202
f 1 202 172
f 1 172 144
f 1 144 143
f 1 143 142
f 1 142 106
f 1 106 105
f 1 105 67
f 1 67 66
f 1 66 65
f 1 65 64
f 1 64 63
f 1 63 62
f 1 62 54
f 1 54 55
f 1 55 53
f 1 53 26
f 1 26 10
f 1 10 11
f 1 11 12
f 1 12 2
f 2 12 11
f 2 11 3
f 3 13 14
f 3 14 4
f 3 11 15
f 3 15 13
f 4 14 5
f 5 14 16
f 5 16 17
f 5 17 18
f 5 18 6
f 6 18 16
f 6 16 7
f 7 16 19
f 7 19 20
f 7 20 8
f 8 21 22
f 8 22 23
f 8 23 24
f 8 24 9
f 8 20 21
f 9 24 25
f 10 26 27
f 10 27 28
f 10 28 11
f 11 28 29
f 11 29 31
f 11 31 15
f 13 15 14
f 14 15 30
f 14 30 16
f 15 31 30
f 16 18 17
f 16 30 32
f 16 32 19
f 19 32 33
f 19 33 34
f 19 34 35
f 19 35 36
f 19 36 37
f 19 37 21
f 19 21 20
f 21 38 39
f 21 39 40
f 21 40 22
f 21 37 41
f 21 41 42
f 21 42 43
f 21 43 38
f 22 40 23
f 23 40 39
f 23 39 44
f 23 44 45
f 23 45 46
f 23 46 47
f 23 47 48
f 23 48 49
f 23 49 50
f 23 50 24
f 24 50 51
f 24 51 52
f 24 52 25
f 26 53 27
f 27 54 28
f 27 53 55
f 27 55 54
f 28 56 57
f 28 57 58
f 28 58 59
f 28 59 60
f 28 60 61
f 28 61 29
f 28 54 62
f 28 62 63
f 28 63 64
f 28 64 65
f 28 65 66
f 28 66 67
f 28 67 68
f 28 68 69
f 28 69 70
f 28 70 56
f 29 61 71
f 29 71 31
f 30 31 72
f 30 72 73
f 30 73 74
f 30 74 32
f 31 75 76
f 31 76 77
f 31 77 72
f 31 71 78
f 31 78 75
f 32 74 79
f 32 79 80
f 32 80 81
f 32 81 82
f 32 82 33
f 33 81 35
f 33 35 34
f 33 82 81
f 35 81 83
f 35 83 36
f 36 84 41
f 36 41 37
f 36 83 85
f 36 85 86
f 36 86 84
f 38 87 88
f 38 88 39
f 38 43 89
f 38 89 90
f 38 90 87
f 39 45 44
f 39 88 45
f 41 84 42
f 42 84 91
f 42 91 92
f 42 92 89
f 42 89 43
f 45 88 93
f 45 93 46
f 46 94 95
f 46 95 47
f 46 93 94
f 47 95 48
f 48 95 94
f 48 94 96
f 48 96 97
f 48 97 49
f 49 97 50
f 50 97 98
f 50 98 99
f 50 99 100
f 50 100 51
f 51 100 99
f 51 99 101
f 51 101 102
f 51 102 103
f 56 71 57
f 56 70 104
f 56 104 71
f 57 71 58
f 58 71 59
f 59 71 60
f 60 71 61
f 67 105 69
f 67 69 68
f 69 105 106
f 69 106 70
f 70 106 107
f 70 107 108
f 70 108 104
f 71 109 110
f 71 110 111
f 71 111 76
f 71 76 78
f 71 104 112
f 71 112 113
f 71 113 114
f 71 114 109
f 72 77 73
f 73 115 116
f 73 116 74
f 73 77 117
f 73 117 115
f 74 116 118
f 74 118 86
f 74 86 79
f 75 119 76
f 75 78 119
f 76 111 120
f 76 120 121
f 76 121 122
f 76 122 123
f 76 123 117
f 76 117 77
f 76 119 78
f 79 86 80
f 80 86 81
f 81 86 83
f 83 86 85
f 84 92 91
f 84 86 124
f 84 124 92
f 86 125 124
f 86 118 152
f 86 152 151
f 86 151 155
f 86 155 190
f 86 190 189
f 86 189 188
f 86 188 187
f 86 187 213
f 86 213 223
f 86 223 240
f 86 240 241
f 86 241 251
f 86 251 254
f 86 254 263
f 86 263 262
f 86 262 271
f 86 271 264
f 86 264 255
f 86 255 243
f 86 243 231
f 86 231 230
f 86 230 226
f 86 226 214
f 86 214 191
f 86 191 158
f 86 158 125
f 87 124 126
f 87 126 127
f 87 127 88
f 87 90 124
f 88 127 93
f 89 92 124
f 89 124 90
f 93 127 128
f 93 128 129
f 93 129 94
f 94 129 96
f 96 129 130
f 96 130 131
f 96 131 97
f 97 131 132
f 97 132 133
f 97 133 98
f 98 133 99
f 99 133 134
f 99 134 135
f 99 135 101
f 101 135 136
f 101 136 102
f 102 136 134
f 102 134 137
f 102 137 138
f 102 138 103
f 104 108 139
f 104 139 140
f 104 140 141
f 104 141 113
f 104 113 112
f 106 142 107
f 107 142 143
f 107 143 108
f 108 143 144
f 108 144 139
f 109 114 110
f 110 114 145
f 110 145 120
f 110 120 111
f 113 141 146
f 113 146 147
f 113 147 148
f 113 148 149
f 113 149 114
f 114 149 120
f 114 120 145
f 115 117 123
f 115 123 150
f 115 150 151
f 115 151 152
f 115 152 116
f 116 152 118
f 120 149 153
f 120 153 121
f 121 153 154
f 121 154 122
f 122 151 123
f 122 154 155
f 122 155 151
f 123 151 150
f 124 125 156
f 124 156 126
f 125 157 156
f 125 158 157
f 126 156 157
f 126 157 159
f 126 159 160
f 126 160 127
f 127 160 161
f 127 161 128
f 128 161 129
f 129 161 160
f 129 160 162
f 129 162 130
f 130 162 163
f 130 163 159
f 130 159 164
f 130 164 131
f 131 164 132
f 132 164 133
f 133 164 165
f 133 165 134
f 134 166 167
f 134 167 168
f 134 168 137
f 134 136 169
f 134 169 135
f 134 165 166
f 135 169 136
f 137 168 170
f 137 170 171
f 137 171 138
f 139 144 172
f 139 172 173
f 139 173 140
f 140 173 174
f 140 174 175
f 140 175 176
f 140 176 177
f 140 177 178
f 140 178 179
f 140 179 180
f 140 180 147
f 140 147 181
f 140 181 146
f 140 146 141
f 146 181 182
f 146 182 147
f 147 182 181
f 147 180 179
f 147 179 183
f 147 183 148
f 148 184 149
f 148 183 185
f 148 185 184
f 149 184 186
f 149 186 153
f 153 186 187
f 153 187 188
f 153 188 189
f 153 189 190
f 153 190 155
f 153 155 154
f 157 158 159
f 158 191 192
f 158 192 159
f 159 163 160
f 159 192 193
f 159 193 164
f 160 163 162
f 164 193 165
f 165 193 194
f 165 194 166
f 166 194 195
f 166 195 196
f 166 196 167
f 167 196 197
f 167 197 198
f 167 198 199
f 167 199 168
f 168 199 170
f 170 199 198
f 170 198 200
f 170 200 201
f 172 202 173
f 173 202 174
f 174 202 175
f 175 203 176
f 175 202 203
f 176 203 204
f 176 204 205
f 176 205 177
f 177 205 206
f 177 206 207
f 177 207 208
f 177 208 178
f 178 208 222
f 178 222 213
f 178 213 187
f 178 187 211
f 178 211 210
f 178 210 209
f 178 209 179
f 179 209 183
f 183 209 210
f 183 210 211
f 183 211 187
f 183 187 185
f 184 185 212
f 184 212 187
f 184 187 186
f 185 187 212
f 191 194 192
f 191 214 194
f 192 194 193
f 194 214 195
f 195 214 215
f 195 215 196
f 196 215 216
f 196 216 197
f 197 216 198
f 198 216 217
f 198 217 200
f 200 218 201
f 200 217 219
f 200 219 220
f 200 220 218
f 201 218 220
f 201 220 221
f 213 222 224
f 213 224 225
f 213 225 223
f 214 226 227
f 214 227 215
f 215 227 228
f 215 228 216
f 216 228 229
f 216 229 219
f 216 219 217
f 219 229 230
f 219 230 231
f 219 231 232
f 219 232 233
f 219 233 234
f 219 234 235
f 219 235 236
f 219 236 237
f 219 237 238
f 219 238 239
f 219 239 220
f 220 239 221
f 223 225 240
f 225 241 240
f 225 242 241
f 226 228 227
f 226 230 228
f 228 230 229
f 231 233 232
f 231 243 233
f 233 244 234
f 233 243 244
f 234 244 235
f 235 245 246
f 235 246 237
f 235 237 236
f 235 244 245
f 237 246 247
f 237 247 248
f 237 248 249
f 237 249 250
f 237 250 238
f 238 250 239
f 239 250 249
f 241 242 251
f 242 252 253
f 242 253 254
f 242 254 251
f 243 255 245
f 243 245 244
f 245 255 256
f 245 256 246
f 246 256 247
f 247 256 257
f 247 257 248
f 248 257 258
f 248 258 259
f 248 259 249
f 249 259 260
f 252 261 262
f 252 262 253
f 253 263 254
f 253 262 263
f 255 264 265
f 255 265 256
f 256 265 257
f 257 265 258
f 258 265 260
f 258 260 259
f 260 265 266
f 260 266 267
f 260 267 268
f 261 269 262
f 261 270 269
f 262 269 271
f 264 268 272
f 264 272 265
f 264 271 268
f 265 272 266
f 266 272 267
f 267 272 268
f 268 271 270
f 269 270 271

