# https://github.com/mikedh/trimesh
v 0.02089858 0.03265707 0.03618738
v 0.02466937 0.03232069 0.03618738
v 0.02089858 0.03264117 0.03609601
v 0.02089858 0.02652286 0.03618738
v 0.02525124 0.03217502 0.03618738
v 0.02446493 0.03102022 0.02988724
v 0.02374327 0.03131157 0.03066394
v 0.02310374 0.03098579 0.02871618
v 0.02089858 0.03152875 0.03091402
v 0.02089858 0.01586217 0.01162163
v 0.02590300 0.00560407 0.01162163
v 0.03379055 0.00560407 0.03618738
v 0.02605152 0.03173535 0.03618738
v 0.02573176 0.03102022 0.03246982
v 0.02361921 0.03106524 0.02942074
v 0.02553605 0.03089308 0.03160655
v 0.02530715 0.03074211 0.03066394
v 0.02444221 0.02972769 0.02602540
v 0.02330119 0.02978066 0.02452009
v 0.02291328 0.02965618 0.02365923
v 0.02089858 0.02984423 0.02341396
v 0.02089858 0.03008526 0.02444796
v 0.02089858 0.03038455 0.02574405
v 0.02205183 0.02973034 0.02337549
v 0.02089858 0.02965883 0.02263246
v 0.02089858 0.02566206 0.01162163
v 0.03264429 0.00560407 0.01162163
v 0.03874953 0.00560407 0.03618738
v 0.02636954 0.03153405 0.03618738
v 0.02687103 0.03113941 0.03618738
v 0.02689375 0.03087984 0.03543954
v 0.02607424 0.03009585 0.03066394
v 0.02585233 0.02986012 0.02937024
v 0.02571254 0.02971710 0.02865366
v 0.02454880 0.02854111 0.02320957
v 0.02433737 0.02834776 0.02234630
v 0.02384112 0.02887219 0.02282723
v 0.02346195 0.02863911 0.02160808
v 0.02416438 0.02956613 0.02516454
v 0.02373628 0.02942310 0.02413054
v 0.02320683 0.02846960 0.02078089
v 0.02246945 0.02952375 0.02292582
v 0.02202912 0.02849873 0.01937177
v 0.02161325 0.02834246 0.01851091
v 0.02089858 0.02843782 0.01822717
v 0.02089858 0.02850668 0.01845080
v 0.02089858 0.02866030 0.01898222
v 0.02089858 0.02903375 0.02031439
v 0.02089858 0.02938602 0.02161289
v 0.02089858 0.02581303 0.01187412
v 0.02183691 0.02583687 0.01314377
v 0.02131096 0.02533363 0.01162163
v 0.03147181 0.01092515 0.01162163
v 0.03216551 0.01290631 0.01445910
v 0.03340089 0.01385187 0.01849167
v 0.03462928 0.01480802 0.02257234
v 0.03484595 0.01480802 0.02321919
v 0.03604114 0.01547018 0.02741287
v 0.03290813 0.00560407 0.01255223
v 0.03781295 0.00560407 0.03196244
v 0.03734291 0.01551520 0.03254917
v 0.03802264 0.01610320 0.03618738
v 0.02710168 0.03087719 0.03618738
v 0.03722409 0.01787512 0.03553573
v 0.03599221 0.01799961 0.03143823
v 0.02698112 0.02969591 0.03259005
v 0.03584718 0.01784069 0.03066394
v 0.02573351 0.02846430 0.02597009
v 0.02558498 0.02822592 0.02510923
v 0.03349874 0.01680243 0.02213469
v 0.02451560 0.02726183 0.02065104
v 0.02432514 0.02701551 0.01978777
v 0.02321382 0.02593487 0.01554840
v 0.02323829 0.02722475 0.01809972
v 0.02299366 0.02701816 0.01723886
v 0.02185089 0.02713469 0.01570951
v 0.02089858 0.02724064 0.01479575
v 0.02089858 0.02822857 0.01761158
v 0.02089858 0.02600373 0.01221318
v 0.02111176 0.02608319 0.01264601
v 0.02151540 0.02693340 0.01484625
v 0.02206581 0.02602492 0.01384352
v 0.02298142 0.02568855 0.01468514
v 0.02271233 0.02544752 0.01384352
v 0.02315616 0.02458143 0.01307884
v 0.02235937 0.02507672 0.01267967
v 0.02203087 0.02471915 0.01162163
v 0.03114156 0.01215675 0.01162163
v 0.03176537 0.01340955 0.01395413
v 0.03202048 0.01376976 0.01480537
v 0.03220046 0.01426241 0.01566863
v 0.03356514 0.01448754 0.01935494
v 0.03477081 0.01551785 0.02346446
v 0.03602017 0.01670973 0.02876908
v 0.03614248 0.01576152 0.02807655
v 0.03635042 0.01620914 0.02926925
v 0.03677328 0.01610320 0.03066394
v 0.03659679 0.01480802 0.02937024
v 0.03393033 0.00560407 0.01643090
v 0.03362804 0.00560407 0.01527668
v 0.03326634 0.00560407 0.01390363
v 0.03754910 0.00560407 0.03084188
v 0.03712100 0.01600785 0.03205382
v 0.03724681 0.01637600 0.03293632
v 0.03735514 0.01679978 0.03379718
v 0.03741281 0.01600785 0.03332106
v 0.03794924 0.01610320 0.03584112
v 0.03752114 0.00560407 0.03072405
v 0.03718915 0.00560407 0.02937265
v 0.03654962 0.00560407 0.02678526
v 0.03744601 0.01698519 0.03454742
v 0.03762948 0.01741956 0.03618738
v 0.03708780 0.01824858 0.03618738
v 0.03744601 0.01778772 0.03618738
v 0.03631023 0.01719443 0.03066394
v 0.03616170 0.01695605 0.02963235
v 0.03484944 0.01688454 0.02583303
v 0.03469218 0.01666470 0.02496976
v 0.03373987 0.01611114 0.02166579
v 0.03358087 0.01568471 0.02062939
v 0.03217075 0.01548077 0.01703687
v 0.03092664 0.01554434 0.01435330
v 0.02089858 0.02710556 0.01445670
v 0.02089858 0.02677183 0.01374973
v 0.02111176 0.02669502 0.01385794
v 0.02328721 0.02347695 0.01162163
v 0.02321557 0.02356436 0.01162163
v 0.02288357 0.02430067 0.01221558
v 0.02855373 0.01690043 0.01162163
v 0.02270010 0.02410203 0.01162163
v 0.03095110 0.01266529 0.01162163
v 0.03109788 0.01345723 0.01257147
v 0.03094760 0.01433127 0.01301632
v 0.03175488 0.01473916 0.01519733
v 0.03198553 0.01512586 0.01617361
v 0.03340438 0.01535099 0.01976613
v 0.03430951 0.01601050 0.02298113
v 0.03454366 0.01640779 0.02419306
v 0.03526007 0.00560407 0.02161530
v 0.03496826 0.00560407 0.02046829
v 0.03396703 0.00560407 0.01657278
v 0.03756308 0.01742486 0.03591566
v 0.03113108 0.01478154 0.01389161
v 0.03071171 0.01519472 0.01349244
v 0.02963884 0.01556023 0.01175629
v 0.02946935 0.01570061 0.01162163
v 0.02906571 0.01624092 0.01162163
v 0.03074317 0.01316588 0.01162163
v 0.03072919 0.01384922 0.01215306
v 0.03017528 0.01442132 0.01162163
v 0.03000054 0.01477624 0.01162163
v 0.03047757 0.01478154 0.01257147
v 0.02969650 0.01532980 0.01162163
v 0.03056319 0.01359760 0.01162163
f 1 2 3
f 1 3 9
f 1 9 23
f 1 23 22
f 1 22 21
f 1 21 25
f 1 25 49
f 1 49 48
f 1 48 47
f 1 47 46
f 1 46 45
f 1 45 78
f 1 78 77
f 1 77 123
f 1 123 124
f 1 124 79
f 1 79 50
f 1 50 26
f 1 26 10
f 1 10 4
f 1 4 12
f 1 12 28
f 1 28 62
f 1 62 112
f 1 112 114
f 1 114 113
f 1 113 63
f 1 63 30
f 1 30 29
f 1 29 13
f 1 13 5
f 1 5 2
f 2 5 6
f 2 6 7
f 2 7 8
f 2 8 3
f 3 8 9
f 4 10 11
f 4 11 12
f 5 13 14
f 5 14 6
f 6 8 15
f 6 15 7
f 6 14 16
f 6 16 17
f 6 17 18
f 6 18 19
f 6 19 20
f 6 20 8
f 7 15 8
f 8 21 22
f 8 22 23
f 8 23 9
f 8 20 24
f 8 24 25
f 8 25 21
f 10 26 52
f 10 52 87
f 10 87 130
f 10 130 127
f 10 127 126
f 10 126 129
f 10 129 147
f 10 147 146
f 10 146 153
f 10 153 151
f 10 151 150
f 10 150 154
f 10 154 148
f 10 148 131
f 10 131 88
f 10 88 53
f 10 53 27
f 10 27 11
f 11 27 59
f 11 59 101
f 11 101 100
f 11 100 99
f 11 99 141
f 11 141 140
f 11 140 139
f 11 139 110
f 11 110 109
f 11 109 108
f 11 108 102
f 11 102 60
f 11 60 28
f 11 28 12
f 13 29 14
f 14 30 31
f 14 31 32
f 14 32 33
f 14 33 16
f 14 29 30
f 16 33 17
f 17 33 34
f 17 34 18
f 18 34 35
f 18 35 36
f 18 36 37
f 18 37 38
f 18 38 39
f 18 39 40
f 18 40 19
f 19 40 41
f 19 41 20
f 20 42 24
f 20 41 43
f 20 43 44
f 20 44 45
f 20 45 46
f 20 46 42
f 24 42 46
f 24 46 47
f 24 47 48
f 24 48 49
f 24 49 25
f 26 50 51
f 26 51 52
f 27 53 54
f 27 54 55
f 27 55 56
f 27 56 57
f 27 57 58
f 27 58 59
f 28 60 61
f 28 61 62
f 30 63 31
f 31 63 64
f 31 64 65
f 31 65 66
f 31 66 32
f 32 66 65
f 32 65 33
f 33 65 67
f 33 67 34
f 34 68 35
f 34 67 68
f 35 68 69
f 35 69 70
f 35 70 71
f 35 71 36
f 36 71 72
f 36 72 73
f 36 73 74
f 36 74 75
f 36 75 41
f 36 41 38
f 36 38 37
f 38 41 40
f 38 40 39
f 41 75 76
f 41 76 43
f 43 76 77
f 43 77 44
f 44 77 78
f 44 78 45
f 50 79 51
f 51 79 80
f 51 80 81
f 51 81 76
f 51 76 82
f 51 82 83
f 51 83 84
f 51 84 85
f 51 85 86
f 51 86 87
f 51 87 52
f 53 88 54
f 54 88 89
f 54 89 90
f 54 90 91
f 54 91 92
f 54 92 55
f 55 92 56
f 56 92 93
f 56 93 57
f 57 93 58
f 58 93 94
f 58 94 95
f 58 95 96
f 58 96 97
f 58 97 61
f 58 61 98
f 58 98 99
f 58 99 100
f 58 100 101
f 58 101 59
f 60 102 61
f 61 97 103
f 61 103 104
f 61 104 105
f 61 105 106
f 61 106 107
f 61 107 62
f 61 102 108
f 61 108 109
f 61 109 110
f 61 110 98
f 62 107 105
f 62 105 111
f 62 111 112
f 63 113 64
f 64 113 114
f 64 114 115
f 64 115 65
f 65 115 116
f 65 116 67
f 67 116 117
f 67 117 68
f 68 117 70
f 68 70 69
f 70 117 118
f 70 118 119
f 70 119 120
f 70 120 121
f 70 121 122
f 70 122 72
f 70 72 71
f 72 85 73
f 72 122 85
f 73 85 83
f 73 83 75
f 73 75 74
f 75 83 82
f 75 82 76
f 76 81 123
f 76 123 77
f 79 124 125
f 79 125 81
f 79 81 80
f 81 125 124
f 81 124 123
f 83 85 84
f 85 126 127
f 85 127 128
f 85 128 86
f 85 122 129
f 85 129 126
f 86 128 130
f 86 130 87
f 88 131 89
f 89 131 132
f 89 132 90
f 90 133 91
f 90 132 133
f 91 133 134
f 91 134 135
f 91 135 136
f 91 136 92
f 92 136 93
f 93 136 120
f 93 120 137
f 93 137 138
f 93 138 118
f 93 118 94
f 94 118 116
f 94 116 96
f 94 96 95
f 96 116 97
f 97 116 105
f 97 105 104
f 97 104 103
f 98 110 139
f 98 139 140
f 98 140 141
f 98 141 99
f 105 116 115
f 105 115 114
f 105 114 142
f 105 142 111
f 105 107 106
f 111 142 112
f 112 142 114
f 116 118 117
f 118 138 119
f 119 138 137
f 119 137 120
f 120 136 121
f 121 136 135
f 121 135 122
f 122 135 134
f 122 134 143
f 122 143 144
f 122 144 145
f 122 145 146
f 122 146 147
f 122 147 129
f 127 130 128
f 131 148 149
f 131 149 132
f 132 149 133
f 133 149 150
f 133 150 151
f 133 151 152
f 133 152 144
f 133 144 143
f 133 143 134
f 144 152 145
f 145 152 151
f 145 151 153
f 145 153 146
f 148 154 149
f 149 154 150

