# https://github.com/mikedh/trimesh
v 0.01005048 0.03831903 0.03187589
v 0.00941326 0.03851402 0.03187589
v 0.01005048 0.03077557 0.03187589
v 0.01005048 0.03785315 0.02991125
v 0.00732545 0.03940262 0.02160199
v 0.00748433 0.03940262 0.02287864
v 0.00756031 0.03940262 0.02362918
v 0.00762248 0.03940262 0.02430613
v 0.00761730 0.03940262 0.02508610
v -0.00609071 0.03854527 0.03187589
v 0.00751023 0.03940262 0.02573363
v 0.00706988 0.03940262 0.02677665
v 0.00647755 0.03940262 0.02760261
v 0.00562275 0.03940262 0.02776265
v -0.00759137 0.03085892 0.03187589
v 0.01005048 0.02419663 0.01308486
v 0.01005048 0.03772067 0.02937042
v 0.01005048 0.03757183 0.02880936
v 0.01005048 0.03749890 0.02855182
v 0.01005048 0.03623818 0.02459678
v 0.01005048 0.03591816 0.02368620
v 0.01005048 0.03497300 0.02105380
v 0.01005048 0.03489857 0.02084961
v 0.01005048 0.03345924 0.01716683
v 0.00699389 0.03940262 0.02030879
v -0.00707849 0.03852593 0.03187589
v -0.00343476 0.03940262 0.02772218
v -0.00759137 0.03839494 0.03187589
v -0.00759137 0.02429486 0.01308486
v 0.01005048 0.03171776 0.01308486
v 0.01005048 0.03242924 0.01458410
v 0.01005048 0.03233547 0.01436519
v 0.00647583 0.03940262 0.01911676
v -0.00724600 0.03851699 0.03187589
v -0.00422222 0.03940262 0.02756766
v -0.00759137 0.03817614 0.03093772
v -0.00514092 0.03940262 0.02548897
v -0.00518237 0.03940262 0.02419392
v -0.00504767 0.03940262 0.02290072
v -0.00490434 0.03940262 0.02160751
v -0.00759137 0.03182046 0.01308486
v 0.00499071 0.03538976 0.01308486
v 0.00484220 0.03868519 0.01584419
v 0.00516512 0.03939667 0.01679892
v 0.00576781 0.03940262 0.01780883
v 0.00587660 0.03940262 0.01799463
v 0.00618053 0.03940262 0.01854466
v 0.00640848 0.03940262 0.01898615
v -0.00469539 0.03940262 0.02678217
v -0.00759137 0.03810916 0.03068202
v -0.00759137 0.03602533 0.02372116
v -0.00759137 0.03609529 0.02392719
v -0.00759137 0.03626199 0.02445882
v -0.00759137 0.03739917 0.02812872
v -0.00759137 0.03751825 0.02851503
v -0.00759137 0.03776384 0.02937042
v -0.00460041 0.03940262 0.02031431
v -0.00247807 0.03727860 0.01465400
v -0.00214133 0.03569192 0.01308486
v -0.00759137 0.03220002 0.01389243
v -0.00422913 0.03940262 0.01937245
v -0.00390102 0.03940262 0.01872125
v -0.00386476 0.03940262 0.01865319
v -0.00327416 0.03940262 0.01755314
v -0.00320854 0.03940262 0.01743541
v -0.00297886 0.03911386 0.01676213
v -0.00259204 0.03862565 0.01589938
v 0.00440011 0.03576634 0.01308486
v 0.00457798 0.03598961 0.01335528
v 0.00437421 0.03940262 0.01629856
v 0.00515994 0.03940262 0.01680076
v -0.00759137 0.03494323 0.02076867
v -0.00759137 0.03237268 0.01428057
v -0.00759137 0.03343096 0.01690745
v -0.00759137 0.03364232 0.01744460
v -0.00141431 0.03606849 0.01308486
v -0.00173033 0.03885487 0.01568967
v -0.00161463 0.03750783 0.01444245
v -0.00149374 0.03616078 0.01319524
v -0.00224667 0.03940262 0.01643469
v -0.00221731 0.03940262 0.01641077
v -0.00221040 0.03940262 0.01640709
v 0.00384924 0.03600747 0.01308486
v 0.00371627 0.03617566 0.01318236
v 0.00398048 0.03886976 0.01567679
v 0.00337780 0.03940262 0.01593433
v -0.00066484 0.03638405 0.01308486
v -0.00219831 0.03940262 0.01640158
v -0.00084616 0.03940262 0.01585891
v -0.00084616 0.03831308 0.01488027
v 0.00319302 0.03628432 0.01308486
v 0.00303415 0.03635130 0.01308486
v 0.00303415 0.03696603 0.01363305
v 0.00303415 0.03940262 0.01581108
v 0.00044727 0.03682463 0.01308486
v 0.00044727 0.03720269 0.01342334
v 0.00045764 0.03940262 0.01540270
v 0.00173898 0.03684844 0.01308486
v 0.00260933 0.03940262 0.01566760
v 0.00055952 0.03940262 0.01536775
v 0.00060442 0.03940262 0.01536591
v 0.00163192 0.03940262 0.01534751
v 0.00173898 0.03721311 0.01341231
f 1 2 10
f 1 10 26
f 1 26 34
f 1 34 28
f 1 28 15
f 1 15 3
f 1 3 16
f 1 16 30
f 1 30 32
f 1 32 31
f 1 31 24
f 1 24 23
f 1 23 22
f 1 22 21
f 1 21 20
f 1 20 19
f 1 19 18
f 1 18 17
f 1 17 4
f 1 4 5
f 1 5 6
f 1 6 7
f 1 7 8
f 1 8 9
f 1 9 2
f 2 9 11
f 2 11 12
f 2 12 13
f 2 13 14
f 2 14 10
f 3 15 16
f 4 17 5
f 5 17 18
f 5 18 19
f 5 19 20
f 5 20 21
f 5 21 22
f 5 22 23
f 5 23 24
f 5 24 25
f 5 25 33
f 5 33 48
f 5 48 47
f 5 47 46
f 5 46 45
f 5 45 71
f 5 71 70
f 5 70 86
f 5 86 94
f 5 94 99
f 5 99 102
f 5 102 101
f 5 101 100
f 5 100 97
f 5 97 89
f 5 89 88
f 5 88 82
f 5 82 81
f 5 81 80
f 5 80 65
f 5 65 64
f 5 64 63
f 5 63 62
f 5 62 61
f 5 61 57
f 5 57 40
f 5 40 39
f 5 39 38
f 5 38 37
f 5 37 49
f 5 49 35
f 5 35 27
f 5 27 14
f 5 14 13
f 5 13 12
f 5 12 11
f 5 11 9
f 5 9 8
f 5 8 7
f 5 7 6
f 10 14 27
f 10 27 26
f 15 28 36
f 15 36 50
f 15 50 56
f 15 56 55
f 15 55 54
f 15 54 53
f 15 53 52
f 15 52 51
f 15 51 72
f 15 72 75
f 15 75 74
f 15 74 73
f 15 73 60
f 15 60 41
f 15 41 29
f 15 29 16
f 16 29 41
f 16 41 59
f 16 59 76
f 16 76 87
f 16 87 95
f 16 95 98
f 16 98 92
f 16 92 91
f 16 91 83
f 16 83 68
f 16 68 42
f 16 42 30
f 24 31 25
f 25 31 32
f 25 32 30
f 25 30 33
f 26 27 35
f 26 35 34
f 28 34 37
f 28 37 38
f 28 38 39
f 28 39 40
f 28 40 36
f 30 42 43
f 30 43 44
f 30 44 45
f 30 45 46
f 30 46 47
f 30 47 48
f 30 48 33
f 34 35 49
f 34 49 37
f 36 40 50
f 40 51 52
f 40 52 53
f 40 53 54
f 40 54 55
f 40 55 56
f 40 56 50
f 40 57 51
f 41 58 59
f 41 60 57
f 41 57 61
f 41 61 62
f 41 62 63
f 41 63 64
f 41 64 65
f 41 65 66
f 41 66 67
f 41 67 58
f 42 68 69
f 42 69 43
f 43 70 71
f 43 71 44
f 43 69 68
f 43 68 70
f 44 71 45
f 51 57 72
f 57 60 73
f 57 73 74
f 57 74 75
f 57 75 72
f 58 67 59
f 59 67 77
f 59 77 78
f 59 78 79
f 59 79 76
f 65 80 66
f 66 80 67
f 67 80 81
f 67 81 82
f 67 82 77
f 68 83 84
f 68 84 70
f 70 84 85
f 70 85 86
f 76 79 87
f 77 82 88
f 77 88 89
f 77 89 90
f 77 90 87
f 77 87 78
f 78 87 79
f 83 91 84
f 84 91 92
f 84 92 85
f 85 92 93
f 85 93 86
f 86 93 94
f 87 90 96
f 87 96 95
f 89 97 96
f 89 96 90
f 92 98 93
f 93 98 94
f 94 98 99
f 95 96 100
f 95 100 101
f 95 101 102
f 95 102 98
f 96 97 100
f 98 102 103
f 98 103 99
f 99 103 102

