# https://github.com/mikedh/trimesh
v -0.00759423 0.04198534 0.10965173
v -0.01120362 0.04069022 0.10968051
v -0.00990721 0.04069022 0.10966612
v -0.00759423 0.04171290 0.10963733
v -0.00759423 0.04286133 0.10931351
v -0.00861365 0.04198534 0.10963014
v -0.01767425 0.03810208 0.10968771
v -0.02026136 0.03680696 0.10969490
v -0.02414203 0.03422091 0.10970210
v -0.03259154 0.02577119 0.10968771
v -0.01249717 0.04069022 0.10963014
v -0.01508428 0.03939510 0.10967332
v -0.00759423 0.04069022 0.10947902
v -0.00759423 0.04306880 0.10921997
v -0.00861365 0.04297659 0.10916959
v -0.00990721 0.04198534 0.10950061
v -0.01638069 0.03939510 0.10960855
v -0.01896781 0.03810208 0.10961575
v -0.02284847 0.03551603 0.10965173
v -0.02672914 0.03292788 0.10960855
v -0.02802555 0.03163276 0.10961575
v -0.02931910 0.03033974 0.10961575
v -0.03190622 0.02774950 0.10961575
v -0.03320262 0.02577119 0.10963733
v -0.03185482 0.02577119 0.10950061
v -0.03116949 0.02577119 0.10929193
v -0.00759423 0.04050371 0.10937828
v -0.00759423 0.04358014 0.10878101
v -0.00990721 0.04279427 0.10906885
v -0.01116364 0.04205450 0.10924875
v -0.01379073 0.04069022 0.10947902
v -0.01767425 0.03939510 0.10942145
v -0.02155777 0.03680696 0.10952220
v -0.02543558 0.03422091 0.10955818
v -0.02668345 0.03419366 0.10919118
v -0.02799699 0.03290064 0.10920557
v -0.03058696 0.03031459 0.10921277
v -0.03188337 0.02902157 0.10921277
v -0.03320262 0.02645647 0.10956537
v -0.03317978 0.02770549 0.10919838
v -0.03399361 0.02577119 0.10942865
v -0.03084967 0.02577119 0.10914081
v -0.00759423 0.03992111 0.10904726
v -0.01070676 0.04267062 0.10898969
v -0.00759423 0.04372684 0.10860110
v -0.01501575 0.04074681 0.10922716
v -0.01453602 0.04136293 0.10898249
v -0.01638069 0.04038216 0.10916240
v -0.02028992 0.03816704 0.10927753
v -0.01767425 0.04015164 0.10903287
v -0.01832817 0.04004685 0.10896090
v -0.01884216 0.03935109 0.10914081
v -0.02422769 0.03561662 0.10932071
v -0.02543558 0.03522683 0.10914800
v -0.02622085 0.03496068 0.10901847
v -0.02754867 0.03374310 0.10904006
v -0.02884509 0.03245217 0.10904006
v -0.03143791 0.02986822 0.10904006
v -0.03273432 0.02857519 0.10904006
v -0.03442765 0.02577119 0.10924875
v -0.03393935 0.02724444 0.10901847
v -0.03420492 0.02645647 0.10914081
v -0.03044990 0.02577119 0.10888175
v -0.00759423 0.03979537 0.10887455
v -0.00867933 0.04367025 0.10829167
v -0.01156913 0.04253231 0.10882418
v -0.00759423 0.04403071 0.10797505
v -0.00829098 0.04398460 0.10785271
v -0.01539839 0.04121623 0.10878820
v -0.01599805 0.04142999 0.10792467
v -0.01767425 0.04059382 0.10831326
v -0.01860801 0.04020822 0.10831326
v -0.02111516 0.03887747 0.10796785
v -0.02074109 0.03864276 0.10883138
v -0.02471599 0.03611539 0.10891053
v -0.02668345 0.03514929 0.10823410
v -0.02708608 0.03460651 0.10860830
v -0.02841105 0.03331349 0.10860830
v -0.02970746 0.03202256 0.10861550
v -0.03230028 0.02943860 0.10862269
v -0.03359669 0.02810786 0.10862989
v -0.03505586 0.02577119 0.10892493
v -0.03508727 0.02577119 0.10889614
v -0.03024144 0.02577119 0.10868026
v -0.00759423 0.03946845 0.10829887
v -0.00990721 0.04329723 0.10831326
v -0.00915335 0.04390497 0.10756487
v -0.01216593 0.04274188 0.10796066
v -0.00759423 0.04420675 0.10725544
v -0.00867933 0.04408101 0.10708274
v -0.01302830 0.04259099 0.10745693
v -0.01686042 0.04127910 0.10736338
v -0.01758573 0.04109468 0.10696760
v -0.01906489 0.04038635 0.10705395
v -0.01955890 0.04000913 0.10750011
v -0.02352809 0.03747547 0.10773038
v -0.02508435 0.03634591 0.10804701
v -0.02548413 0.03588067 0.10841401
v -0.02741161 0.03489990 0.10774477
v -0.02791133 0.03410774 0.10817654
v -0.03129799 0.03102293 0.10775917
v -0.03388510 0.02843897 0.10776636
v -0.03413067 0.02770549 0.10824130
v -0.03485883 0.02650258 0.10841401
v -0.03533000 0.02610231 0.10805421
v -0.03548134 0.02577119 0.10814775
v -0.03001014 0.02577119 0.10837802
v -0.00759423 0.03905560 0.10701797
v -0.00861365 0.04434715 0.10572988
v -0.00759423 0.04706104 0.09148890
v -0.00944176 0.04398880 0.10670135
v -0.00988722 0.04375827 0.10708274
v -0.00759423 0.04425075 0.10703237
v -0.00970732 0.04408310 0.10572988
v -0.01709458 0.04136083 0.10649986
v -0.01794267 0.04120156 0.10572988
v -0.01896781 0.04070279 0.10572988
v -0.01985588 0.04019145 0.10572988
v -0.01970453 0.04009924 0.10663658
v -0.02018712 0.03971364 0.10705395
v -0.02594672 0.03607767 0.10726983
v -0.02660921 0.03569416 0.10691003
v -0.02685764 0.03579685 0.10572988
v -0.02751155 0.03499421 0.10701797
v -0.02815690 0.03435503 0.10701797
v -0.03334255 0.02918712 0.10701797
v -0.03259440 0.02972990 0.10775917
v -0.03397933 0.02853956 0.10701797
v -0.03477031 0.02786267 0.10572988
v -0.03467608 0.02762376 0.10690284
v -0.03505586 0.02696572 0.10725544
v -0.03567837 0.02577119 0.10760805
v -0.02981026 0.02577119 0.10794626
v -0.02974458 0.02577119 0.10777356
v -0.02951613 0.02577119 0.10701797
v -0.00759423 0.03882299 0.10567951
v -0.00759423 0.04448966 0.10572988
v -0.00759423 0.04707571 0.09135217
v -0.01815969 0.04127910 0.10443459
v -0.01729446 0.04143209 0.10572988
v -0.01053828 0.04391964 0.10501747
v -0.01035553 0.04385677 0.10572988
v -0.01896781 0.04087254 0.10443459
v -0.02001579 0.04028366 0.10443459
v -0.02066399 0.03989387 0.10443459
v -0.02226309 0.03878736 0.10526933
v -0.02050123 0.03979118 0.10572988
v -0.02452467 0.03728896 0.10572988
v -0.02620943 0.03624113 0.10572988
v -0.02609521 0.03616987 0.10640631
v -0.02767717 0.03514929 0.10572988
v -0.02702897 0.03591630 0.10443459
v -0.02832252 0.03452059 0.10572988
v -0.02961894 0.03322756 0.10572988
v -0.03350246 0.02934639 0.10572988
v -0.03412496 0.02869884 0.10572988
v -0.03521292 0.02721510 0.10572988
v -0.03514724 0.02710823 0.10639192
v -0.03486454 0.02800517 0.10443459
v -0.03531001 0.02735761 0.10443459
v -0.03586969 0.02577119 0.10697480
v -0.02921631 0.02577119 0.10572988
v -0.00759423 0.03874964 0.10498869
v -0.00759423 0.04717840 0.09021520
v -0.01837957 0.04136712 0.10159935
v -0.01896781 0.04095637 0.10313930
v -0.02358234 0.03879365 0.09764871
v -0.02527853 0.03776677 0.09795815
v -0.02155777 0.03934271 0.10443459
v -0.02638076 0.03634801 0.10443459
v -0.02779711 0.03526874 0.10443459
v -0.02844531 0.03463794 0.10443459
v -0.02735164 0.03614263 0.10105245
v -0.03360525 0.02944699 0.10443459
v -0.03421920 0.02879943 0.10443459
v -0.03569550 0.02645647 0.10572988
v -0.03589539 0.02645647 0.10443459
v -0.03632372 0.02577119 0.10453534
v -0.03612954 0.02577119 0.10572988
v -0.03491023 0.02807642 0.10313930
v -0.03536141 0.02742886 0.10313930
v -0.03608671 0.02634331 0.10315370
v -0.03643223 0.02577119 0.10357826
v -0.03642937 0.02577119 0.10360705
v -0.02903069 0.02577119 0.10443459
v -0.00759423 0.03190730 0.03618726
v -0.00759423 0.04717840 0.09019361
v -0.01842811 0.04139227 0.10054872
v -0.01887357 0.04108001 0.10195915
v -0.02358234 0.03879365 0.09713060
v -0.02534135 0.03781916 0.09667005
v -0.02592673 0.03735602 0.09795815
v -0.02742018 0.03619712 0.10018892
v -0.02558407 0.03714645 0.10184402
v -0.02662919 0.03649889 0.10184402
v -0.02881082 0.03500469 0.09925343
v -0.03019861 0.03380387 0.09795815
v -0.03084681 0.03312069 0.09795815
v -0.03261724 0.03105646 0.09925343
v -0.03378801 0.02962721 0.10054872
v -0.03433913 0.02897965 0.10054872
v -0.03633800 0.02577119 0.10443459
v -0.03495307 0.02813301 0.10184402
v -0.03540138 0.02748545 0.10184402
v -0.03676347 0.02577119 0.09894401
v -0.03649505 0.02577119 0.10277950
v -0.01979876 0.02577119 0.03618726
v -0.00759423 0.03943911 0.03618726
v -0.00759423 0.04715534 0.08889832
v -0.02602382 0.03743356 0.09278419
v -0.02603810 0.03743146 0.09407948
v -0.02602097 0.03741470 0.09537476
v -0.02598670 0.03738746 0.09667005
v -0.02672914 0.03681534 0.09795815
v -0.02746872 0.03623484 0.09925343
v -0.02811692 0.03565225 0.09925343
v -0.02888506 0.03506337 0.09795815
v -0.02953041 0.03445143 0.09795815
v -0.03023573 0.03385836 0.09667005
v -0.03142363 0.03247312 0.09795815
v -0.03323689 0.03033974 0.09925343
v -0.03381942 0.02965446 0.09925343
v -0.03498733 0.02817701 0.10054872
v -0.03612098 0.02665766 0.09925343
v -0.03675491 0.02577119 0.09797254
v -0.02687762 0.02577119 0.03618726
v -0.00766561 0.03941815 0.03618726
v -0.00797401 0.04004476 0.03906569
v -0.00759423 0.03999027 0.03860514
v -0.00759423 0.04710086 0.08751668
v -0.02672914 0.03697251 0.09148890
v -0.02672914 0.03699347 0.09278419
v -0.02740590 0.03618454 0.08268813
v -0.02744302 0.03621389 0.08372436
v -0.02672914 0.03696623 0.09407948
v -0.02672914 0.03692431 0.09537476
v -0.02672914 0.03687192 0.09667005
v -0.02750870 0.03626837 0.09795815
v -0.02815690 0.03571092 0.09795815
v -0.02955897 0.03450592 0.09667005
v -0.02827683 0.03579475 0.09278419
v -0.02830254 0.03580942 0.09148890
v -0.02891933 0.03516186 0.09148890
v -0.03658072 0.02599543 0.09795815
v -0.03547277 0.02752945 0.09925343
v -0.02887079 0.03513881 0.09019361
v -0.02871088 0.03492505 0.08501965
v -0.02868517 0.03488733 0.08414893
v -0.02772001 0.03522683 0.07466454
v -0.02766575 0.03516815 0.07336925
v -0.02760293 0.03509899 0.07208116
v -0.02753725 0.03502983 0.07079306
v -0.02741447 0.03490829 0.06848313
v -0.02736878 0.03485799 0.06762680
v -0.02769431 0.03406583 0.06561191
v -0.02738305 0.03358383 0.05973274
v -0.02732880 0.03347485 0.05886921
v -0.03191192 0.02577119 0.06361860
v -0.02512719 0.03037746 0.03618726
v -0.02695758 0.02577119 0.03652548
v -0.00866505 0.03911428 0.03618726
v -0.00759423 0.04006152 0.03898653
v -0.00861365 0.03935738 0.03714434
v -0.00906483 0.03995255 0.04077115
v -0.00927042 0.04004895 0.04163467
v -0.00814820 0.04010763 0.03972772
v -0.00861365 0.04065250 0.04361359
v -0.00805682 0.04136293 0.04668630
v -0.02737163 0.03615940 0.08183180
v -0.00759423 0.04268529 0.05553024
v -0.00820245 0.04268948 0.05551585
v -0.00861365 0.04292839 0.05784737
v -0.00861365 0.04310023 0.05914266
v -0.00929041 0.04264757 0.05709898
v -0.00938464 0.04270206 0.05784737
v -0.00927613 0.04393221 0.06746849
v -0.02606951 0.03486218 0.05983348
v -0.02615232 0.03491876 0.06069701
v -0.02647214 0.03515138 0.06431662
v -0.02602382 0.03615311 0.07156304
v -0.02612948 0.03618664 0.07241937
v -0.02620086 0.03622017 0.07336925
v -0.02760578 0.03634172 0.08889832
v -0.02764576 0.03637315 0.09019361
v -0.02765719 0.03638573 0.09148890
v -0.02829397 0.03578637 0.09019361
v -0.02762863 0.03636896 0.09278419
v -0.02754011 0.03629352 0.09667005
v -0.02759722 0.03634591 0.09407948
v -0.02817118 0.03562710 0.08631494
v -0.02781138 0.03533161 0.07725512
v -0.02693188 0.03587439 0.07466454
v -0.02684907 0.03581571 0.07336925
v -0.02667488 0.03529808 0.06690720
v -0.02658351 0.03523102 0.06561191
v -0.02732309 0.03480979 0.06690720
v -0.02722886 0.03471339 0.06561191
v -0.02660349 0.03406792 0.05784737
v -0.02649213 0.03395685 0.05655208
v -0.02637505 0.03384578 0.05525679
v -0.02625512 0.03373471 0.05396870
v -0.02615803 0.03364250 0.05291808
v -0.02607522 0.03356706 0.05205455
v -0.02612091 0.03233062 0.04661434
v -0.03174916 0.02577119 0.06248882
v -0.02490445 0.03082384 0.03618726
v -0.02710036 0.02577119 0.03714434
v -0.02730595 0.02577119 0.03806543
v -0.02831681 0.02577119 0.04270689
v -0.02534706 0.03033974 0.03714434
v -0.02314830 0.03220488 0.03618726
v -0.02337960 0.03224260 0.03664781
v -0.02359662 0.03234110 0.03751134
v -0.00759423 0.04130635 0.04624015
v -0.00861365 0.04041778 0.04231830
v -0.00862507 0.04019565 0.04113095
v -0.02475311 0.03356077 0.04692377
v -0.00932182 0.04137550 0.04920492
v -0.00915335 0.04129796 0.04834139
v -0.00827670 0.04142789 0.04749226
v -0.00861365 0.04174853 0.05008284
v -0.00861365 0.04195391 0.05137812
v -0.00759423 0.04136922 0.04664312
v -0.02787992 0.03564386 0.08232833
v -0.00759423 0.04262242 0.05508409
v -0.00862793 0.04252602 0.05515605
v -0.00906483 0.04257841 0.05623546
v -0.00862793 0.04274816 0.05662404
v -0.02488161 0.03363622 0.04778730
v -0.02483021 0.03488523 0.05576052
v -0.02597528 0.03481398 0.05914266
v -0.00953028 0.04279217 0.05914266
v -0.02518715 0.03383531 0.05008284
v -0.02501582 0.03372424 0.04878755
v -0.02599527 0.03349581 0.05137812
v -0.02515574 0.03259886 0.04361359
v -0.02499583 0.03246055 0.04231830
v -0.02604095 0.03220698 0.04575801
v -0.02617802 0.03118848 0.04361359
v -0.03070975 0.02577119 0.05573173
v -0.03104099 0.02577119 0.05784737
v -0.03143791 0.02577119 0.06043795
v -0.03158640 0.02577119 0.06140942
v -0.02480737 0.03100406 0.03618726
v -0.02483021 0.03103550 0.03633838
v -0.02851099 0.02577119 0.04361359
v -0.02864520 0.02577119 0.04424684
v -0.02866804 0.02577119 0.04436198
v -0.02881368 0.02577119 0.04513195
v -0.02901642 0.02577119 0.04620417
v -0.02611234 0.03104388 0.04280043
v -0.02418200 0.03153427 0.03618726
v -0.02407349 0.03187586 0.03710116
v -0.02440759 0.03198274 0.03843243
v -0.02462747 0.03215458 0.03972772
v -0.02475311 0.03225308 0.04048331
v -0.02375938 0.03243540 0.03843243
v -0.02487304 0.03235158 0.04133964
v -0.00867933 0.04151591 0.04878035
v -0.02578681 0.03471339 0.05784737
v -0.02492444 0.03115495 0.03714434
v -0.03052985 0.02577119 0.05464513
v -0.02462747 0.03116334 0.03618726
v -0.02936479 0.02577119 0.04806074
v -0.02949900 0.02577119 0.04878755
v -0.02973030 0.02577119 0.05006844
v -0.03004155 0.02577119 0.05181708
v -0.03019290 0.02577119 0.05268061
v -0.03035281 0.02577119 0.05359451
f 1 2 3
f 1 3 4
f 1 4 13
f 1 13 27
f 1 27 43
f 1 43 64
f 1 64 85
f 1 85 108
f 1 108 136
f 1 136 163
f 1 163 186
f 1 186 208
f 1 208 229
f 1 229 262
f 1 262 314
f 1 314 323
f 1 323 325
f 1 325 270
f 1 270 230
f 1 230 209
f 1 209 187
f 1 187 164
f 1 164 138
f 1 138 110
f 1 110 137
f 1 137 113
f 1 113 89
f 1 89 67
f 1 67 45
f 1 45 28
f 1 28 14
f 1 14 5
f 1 5 6
f 1 6 2
f 2 7 8
f 2 8 9
f 2 9 10
f 2 10 3
f 2 6 11
f 2 11 12
f 2 12 7
f 3 10 4
f 4 10 13
f 5 14 6
f 6 14 15
f 6 15 16
f 6 16 11
f 7 12 17
f 7 17 18
f 7 18 8
f 8 18 19
f 8 19 9
f 9 19 20
f 9 20 21
f 9 21 22
f 9 22 23
f 9 23 10
f 10 23 24
f 10 24 41
f 10 41 60
f 10 60 82
f 10 82 83
f 10 83 106
f 10 106 132
f 10 132 161
f 10 161 179
f 10 179 178
f 10 178 202
f 10 202 184
f 10 184 183
f 10 183 206
f 10 206 205
f 10 205 225
f 10 225 258
f 10 258 305
f 10 305 343
f 10 343 342
f 10 342 341
f 10 341 340
f 10 340 362
f 10 362 369
f 10 369 368
f 10 368 367
f 10 367 366
f 10 366 365
f 10 365 364
f 10 364 350
f 10 350 349
f 10 349 348
f 10 348 347
f 10 347 346
f 10 346 309
f 10 309 308
f 10 308 307
f 10 307 260
f 10 260 226
f 10 226 207
f 10 207 185
f 10 185 162
f 10 162 135
f 10 135 134
f 10 134 133
f 10 133 107
f 10 107 84
f 10 84 63
f 10 63 42
f 10 42 26
f 10 26 25
f 10 25 13
f 11 16 31
f 11 31 17
f 11 17 12
f 13 25 26
f 13 26 27
f 14 28 15
f 15 28 29
f 15 29 16
f 16 30 31
f 16 29 30
f 17 31 32
f 17 32 18
f 18 32 33
f 18 33 19
f 19 33 34
f 19 34 20
f 20 34 35
f 20 35 36
f 20 36 21
f 21 36 37
f 21 37 38
f 21 38 22
f 22 38 23
f 23 39 24
f 23 38 40
f 23 40 39
f 24 39 41
f 26 42 43
f 26 43 27
f 28 44 29
f 28 45 44
f 29 44 30
f 30 46 31
f 30 44 47
f 30 47 46
f 31 46 48
f 31 48 32
f 32 49 33
f 32 48 50
f 32 50 51
f 32 51 52
f 32 52 49
f 33 49 53
f 33 53 34
f 34 53 54
f 34 54 35
f 35 54 55
f 35 55 56
f 35 56 36
f 36 56 37
f 37 56 57
f 37 57 58
f 37 58 59
f 37 59 38
f 38 59 40
f 39 60 41
f 39 40 61
f 39 61 62
f 39 62 60
f 40 59 61
f 42 63 43
f 43 63 64
f 44 45 65
f 44 65 66
f 44 66 47
f 45 67 68
f 45 68 65
f 46 47 48
f 47 66 69
f 47 69 51
f 47 51 48
f 48 51 50
f 49 52 51
f 49 51 54
f 49 54 53
f 51 69 70
f 51 70 71
f 51 71 72
f 51 72 73
f 51 73 74
f 51 74 75
f 51 75 54
f 54 75 55
f 55 75 76
f 55 76 77
f 55 77 56
f 56 77 78
f 56 78 79
f 56 79 80
f 56 80 57
f 57 80 58
f 58 80 59
f 59 80 81
f 59 81 61
f 60 62 82
f 61 81 83
f 61 83 82
f 61 82 62
f 63 84 64
f 64 84 85
f 65 86 66
f 65 68 87
f 65 87 86
f 66 86 87
f 66 87 88
f 66 88 70
f 66 70 69
f 67 89 68
f 68 89 90
f 68 90 87
f 70 88 87
f 70 87 91
f 70 91 92
f 70 92 72
f 70 72 71
f 72 92 93
f 72 93 94
f 72 94 95
f 72 95 73
f 73 95 96
f 73 96 97
f 73 97 75
f 73 75 74
f 75 97 98
f 75 98 76
f 76 98 97
f 76 97 99
f 76 99 77
f 77 99 100
f 77 100 78
f 78 100 79
f 79 100 99
f 79 99 80
f 80 99 101
f 80 101 102
f 80 102 81
f 81 102 103
f 81 103 83
f 83 103 104
f 83 104 105
f 83 105 106
f 84 107 85
f 85 107 108
f 87 90 109
f 87 109 110
f 87 110 111
f 87 111 112
f 87 112 91
f 89 113 90
f 90 113 109
f 91 112 92
f 92 112 111
f 92 111 114
f 92 114 115
f 92 115 93
f 93 115 116
f 93 116 94
f 94 116 117
f 94 117 118
f 94 118 119
f 94 119 95
f 95 119 120
f 95 120 121
f 95 121 96
f 96 121 97
f 97 121 99
f 99 121 122
f 99 122 123
f 99 123 124
f 99 124 125
f 99 125 101
f 101 125 126
f 101 126 127
f 101 127 102
f 102 127 126
f 102 126 128
f 102 128 129
f 102 129 130
f 102 130 131
f 102 131 105
f 102 105 103
f 103 105 104
f 105 131 132
f 105 132 106
f 107 133 108
f 108 133 134
f 108 134 135
f 108 135 136
f 109 113 137
f 109 137 110
f 110 138 139
f 110 139 116
f 110 116 140
f 110 140 141
f 110 141 114
f 110 114 111
f 114 141 142
f 114 142 115
f 115 142 140
f 115 140 116
f 116 139 117
f 117 139 143
f 117 143 144
f 117 144 118
f 118 144 145
f 118 145 146
f 118 146 147
f 118 147 119
f 119 147 120
f 120 147 148
f 120 148 149
f 120 149 150
f 120 150 121
f 121 150 123
f 121 123 122
f 123 151 124
f 123 150 149
f 123 149 152
f 123 152 151
f 124 151 153
f 124 153 125
f 125 153 126
f 126 153 154
f 126 154 155
f 126 155 128
f 128 155 156
f 128 156 129
f 129 157 158
f 129 158 131
f 129 131 130
f 129 156 159
f 129 159 160
f 129 160 157
f 131 158 161
f 131 161 132
f 135 162 136
f 136 162 163
f 138 164 139
f 139 165 143
f 139 164 165
f 140 142 141
f 143 166 167
f 143 167 144
f 143 165 166
f 144 167 168
f 144 168 145
f 145 169 146
f 145 168 169
f 146 149 148
f 146 148 147
f 146 169 170
f 146 170 149
f 149 170 152
f 151 152 171
f 151 171 172
f 151 172 153
f 152 170 173
f 152 173 171
f 153 172 154
f 154 172 155
f 155 172 174
f 155 174 156
f 156 174 175
f 156 175 159
f 157 176 158
f 157 160 177
f 157 177 178
f 157 178 176
f 158 176 179
f 158 179 161
f 159 175 180
f 159 180 181
f 159 181 160
f 160 181 182
f 160 182 183
f 160 183 184
f 160 184 177
f 162 185 186
f 162 186 163
f 164 187 190
f 164 190 167
f 164 167 188
f 164 188 165
f 165 188 167
f 165 167 189
f 165 189 166
f 166 189 167
f 167 190 191
f 167 191 168
f 168 191 192
f 168 192 193
f 168 193 194
f 168 194 169
f 169 194 173
f 169 173 195
f 169 195 170
f 170 195 173
f 171 173 193
f 171 193 196
f 171 196 172
f 172 196 197
f 172 197 174
f 173 194 193
f 174 197 198
f 174 198 175
f 175 198 199
f 175 199 200
f 175 200 201
f 175 201 180
f 176 178 179
f 177 202 178
f 177 184 202
f 180 201 203
f 180 203 181
f 181 203 204
f 181 204 205
f 181 205 182
f 182 205 206
f 182 206 183
f 185 207 186
f 186 207 226
f 186 226 259
f 186 259 306
f 186 306 344
f 186 344 363
f 186 363 352
f 186 352 311
f 186 311 261
f 186 261 227
f 186 227 208
f 187 209 210
f 187 210 190
f 190 210 211
f 190 211 191
f 191 212 213
f 191 213 192
f 191 211 212
f 192 214 215
f 192 215 193
f 192 213 214
f 193 215 216
f 193 216 196
f 196 216 217
f 196 217 218
f 196 218 197
f 197 218 219
f 197 219 198
f 198 219 220
f 198 220 199
f 199 220 221
f 199 221 200
f 200 221 201
f 201 221 222
f 201 222 223
f 201 223 203
f 203 223 205
f 203 205 204
f 205 223 224
f 205 224 225
f 208 227 228
f 208 228 229
f 209 230 210
f 210 231 232
f 210 232 211
f 210 230 233
f 210 233 234
f 210 234 231
f 211 232 235
f 211 235 212
f 212 236 213
f 212 235 236
f 213 237 214
f 213 236 237
f 214 238 215
f 214 237 238
f 215 238 239
f 215 239 217
f 215 217 216
f 217 240 218
f 217 239 241
f 217 241 240
f 218 240 219
f 219 222 220
f 219 240 242
f 219 242 243
f 219 243 222
f 220 222 221
f 222 244 245
f 222 245 223
f 222 243 246
f 222 246 247
f 222 247 248
f 222 248 244
f 223 245 224
f 224 245 225
f 225 245 244
f 225 244 249
f 225 249 250
f 225 250 251
f 225 251 252
f 225 252 253
f 225 253 254
f 225 254 255
f 225 255 256
f 225 256 257
f 225 257 258
f 226 260 259
f 227 261 228
f 228 262 229
f 228 261 263
f 228 263 264
f 228 264 265
f 228 265 266
f 228 266 267
f 228 267 268
f 228 268 262
f 230 269 233
f 230 270 271
f 230 271 272
f 230 272 273
f 230 273 274
f 230 274 275
f 230 275 276
f 230 276 277
f 230 277 278
f 230 278 279
f 230 279 280
f 230 280 281
f 230 281 282
f 230 282 269
f 231 283 284
f 231 284 232
f 231 234 283
f 232 284 285
f 232 285 235
f 233 269 286
f 233 286 234
f 234 286 283
f 235 285 287
f 235 287 236
f 236 288 238
f 236 238 237
f 236 287 289
f 236 289 288
f 238 288 239
f 239 288 289
f 239 289 287
f 239 287 241
f 240 241 242
f 241 287 285
f 241 285 242
f 242 285 284
f 242 284 286
f 242 286 243
f 243 286 246
f 244 248 249
f 246 286 247
f 247 286 248
f 248 286 290
f 248 290 291
f 248 291 249
f 249 291 269
f 249 269 250
f 250 269 292
f 250 292 251
f 251 292 252
f 252 292 253
f 253 292 293
f 253 293 254
f 254 293 294
f 254 294 295
f 254 295 296
f 254 296 256
f 254 256 255
f 256 296 297
f 256 297 298
f 256 298 299
f 256 299 300
f 256 300 301
f 256 301 302
f 256 302 303
f 256 303 257
f 257 303 304
f 257 304 305
f 257 305 258
f 259 260 307
f 259 307 308
f 259 308 309
f 259 309 310
f 259 310 306
f 261 311 312
f 261 312 313
f 261 313 263
f 262 268 314
f 263 313 265
f 263 265 264
f 265 267 315
f 265 315 316
f 265 316 266
f 265 313 317
f 265 317 318
f 265 318 319
f 265 319 267
f 266 316 315
f 266 315 267
f 267 319 268
f 268 319 320
f 268 320 321
f 268 321 322
f 268 322 271
f 268 271 323
f 268 323 314
f 269 291 324
f 269 324 286
f 269 282 292
f 270 325 271
f 271 325 323
f 271 322 326
f 271 326 327
f 271 327 328
f 271 328 272
f 272 328 274
f 272 274 273
f 274 328 327
f 274 327 322
f 274 322 321
f 274 321 319
f 274 319 318
f 274 318 329
f 274 329 330
f 274 330 331
f 274 331 277
f 274 277 275
f 275 277 332
f 275 332 276
f 276 332 277
f 277 331 303
f 277 303 302
f 277 302 301
f 277 301 300
f 277 300 299
f 277 299 298
f 277 298 297
f 277 297 278
f 278 297 279
f 279 297 296
f 279 296 295
f 279 295 280
f 280 295 281
f 281 295 293
f 281 293 292
f 281 292 282
f 283 286 284
f 286 324 290
f 290 324 291
f 293 295 294
f 303 333 334
f 303 334 329
f 303 329 335
f 303 335 304
f 303 331 333
f 304 335 336
f 304 336 337
f 304 337 338
f 304 338 339
f 304 339 340
f 304 340 341
f 304 341 342
f 304 342 343
f 304 343 305
f 306 310 345
f 306 345 344
f 309 346 310
f 310 346 347
f 310 347 348
f 310 348 349
f 310 349 350
f 310 350 351
f 310 351 345
f 311 352 312
f 312 352 313
f 313 352 353
f 313 353 354
f 313 354 355
f 313 355 356
f 313 356 357
f 313 357 317
f 317 329 318
f 317 357 356
f 317 356 358
f 317 358 337
f 317 337 336
f 317 336 329
f 319 321 359
f 319 359 320
f 320 359 321
f 322 327 326
f 329 334 330
f 329 336 335
f 330 334 333
f 330 333 360
f 330 360 331
f 331 360 333
f 337 358 338
f 338 358 361
f 338 361 351
f 338 351 339
f 339 351 340
f 340 351 362
f 344 345 363
f 345 351 361
f 345 361 356
f 345 356 355
f 345 355 354
f 345 354 363
f 350 364 351
f 351 364 365
f 351 365 366
f 351 366 367
f 351 367 368
f 351 368 369
f 351 369 362
f 352 363 354
f 352 354 353
f 356 361 358

