# https://github.com/mikedh/trimesh
v 0.03657123 -0.00951839 0.05739673
v 0.03727804 0.00560142 0.05739673
v 0.04124999 -0.00951839 0.05739673
v 0.03977933 -0.00951839 0.10440014
v 0.04032908 0.00560142 0.10443084
v 0.04224943 0.00560142 0.05739673
v 0.04468294 -0.00195405 0.05739673
v 0.04511758 -0.00141976 0.05832800
v 0.04131453 -0.00951839 0.05784701
v 0.03986755 -0.00951839 0.10518813
v 0.04046356 0.00560142 0.10572540
v 0.04044850 0.00560142 0.10558213
v 0.04440323 0.00190435 0.05739673
v 0.04232581 0.00560142 0.05790841
v 0.04511542 0.00125314 0.05960209
v 0.04505302 -0.00098908 0.05739673
v 0.04529724 -0.00072415 0.05914157
v 0.04544140 -0.00072415 0.06043614
v 0.04558448 -0.00072415 0.06173070
v 0.04586850 -0.00072415 0.06431983
v 0.04600621 -0.00072415 0.06561439
v 0.04640534 -0.00140496 0.07124293
v 0.04516491 -0.00151892 0.05914157
v 0.04147914 -0.00951839 0.05904947
v 0.04143395 -0.00951839 0.05869129
v 0.04505841 -0.00101720 0.05746325
v 0.03994071 -0.00951839 0.10572540
v 0.04014189 -0.00951839 0.10708137
v 0.04065290 0.00560142 0.10687670
v 0.04475502 0.00120726 0.05739673
v 0.04506809 0.00109922 0.05874246
v 0.04243770 0.00560142 0.05881410
v 0.04593843 0.00057086 0.06561439
v 0.04279272 0.00560142 0.06170000
v 0.04281746 0.00560142 0.06192514
v 0.04672378 0.00560142 0.09796314
v 0.04516061 0.00133011 0.06043614
v 0.04638920 0.00121318 0.07274217
v 0.04512080 -0.00032455 0.05739673
v 0.04515200 -0.00064127 0.05787771
v 0.04512080 -0.00024759 0.05739673
v 0.04511973 0.00004545 0.05739673
v 0.04612562 -0.00072415 0.06690896
v 0.04636876 -0.00117112 0.07038330
v 0.04641287 0.00003805 0.06986138
v 0.04641287 -0.00030827 0.06986138
v 0.04523699 -0.00166692 0.06043614
v 0.04665278 -0.00072415 0.07337666
v 0.04674207 -0.00072415 0.07467122
v 0.04689484 -0.00072415 0.07726035
v 0.04704653 -0.00072415 0.07984948
v 0.04712184 -0.00072415 0.08114404
v 0.04643869 -0.00147748 0.07208210
v 0.04597501 -0.00951839 0.09925770
v 0.04595026 -0.00951839 0.09899162
v 0.04023118 -0.00951839 0.10736791
v 0.04099932 0.00560142 0.10822754
v 0.04067657 0.00560142 0.10701997
v 0.04501214 0.00083430 0.05784701
v 0.04498094 0.00069666 0.05739673
v 0.04521332 0.00062858 0.05916204
v 0.04514985 0.00018753 0.05784701
v 0.04579857 0.00057086 0.06431983
v 0.04605785 0.00057086 0.06690896
v 0.04667752 0.00560142 0.09925770
v 0.04695831 0.00445293 0.09796314
v 0.04751236 0.00057086 0.09019576
v 0.04738541 0.00057086 0.08760663
v 0.04732086 0.00057086 0.08631206
v 0.04725631 0.00057086 0.08502262
v 0.04719069 0.00057086 0.08372805
v 0.04712291 0.00057086 0.08243860
v 0.04704868 0.00057086 0.08114404
v 0.04523161 0.00144555 0.06173070
v 0.04666353 0.00057086 0.07467122
v 0.04653874 0.00069666 0.07325385
v 0.04650216 0.00045246 0.07208210
v 0.04636230 0.00109922 0.07208210
v 0.04507024 0.00027930 0.05739673
v 0.04644729 -0.00073303 0.07080288
v 0.04655057 -0.00072415 0.07208210
v 0.04631066 0.00086390 0.07078753
v 0.04644945 0.00021713 0.07078753
v 0.04649033 -0.00158404 0.07337666
v 0.04719284 -0.00072415 0.08243860
v 0.04734453 -0.00201621 0.09149032
v 0.04740585 -0.00201621 0.09278488
v 0.04721221 -0.00331122 0.09537401
v 0.04696907 -0.00460475 0.09666857
v 0.04618910 -0.00848683 0.09925770
v 0.04597823 -0.00951839 0.10028619
v 0.04055931 -0.00951839 0.10831453
v 0.04127581 0.00560142 0.10887739
v 0.04714335 0.00315940 0.09796314
v 0.04619340 0.00560142 0.10443595
v 0.04718208 0.00315940 0.09666857
v 0.04753172 0.00057086 0.09149032
v 0.04754248 -0.00072415 0.09019576
v 0.04748869 -0.00072415 0.08890119
v 0.04743275 -0.00072415 0.08760663
v 0.04737466 -0.00072415 0.08631206
v 0.04725631 -0.00072415 0.08372805
v 0.04741554 -0.00201621 0.09407945
v 0.04723480 -0.00331122 0.09666857
v 0.04756185 -0.00072415 0.09149032
v 0.04696692 -0.00460475 0.09796314
v 0.04591368 -0.00951839 0.10184683
v 0.04063569 -0.00951839 0.10845780
v 0.04104666 -0.00951839 0.10907182
v 0.04192345 0.00560142 0.10929185
v 0.04717455 0.00057086 0.10055226
v 0.04729181 0.00057086 0.09925770
v 0.04726600 0.00186439 0.09796314
v 0.04731441 0.00186439 0.09666857
v 0.04638059 0.00372625 0.10491182
v 0.04678726 0.00057086 0.10443084
v 0.04604601 0.00560142 0.10572540
v 0.04734238 0.00186439 0.09537401
v 0.04750160 0.00057086 0.09278488
v 0.04753711 -0.00072415 0.09278488
v 0.04738649 -0.00201621 0.09537401
v 0.04734561 -0.00201621 0.09666857
v 0.04728644 -0.00201621 0.09796314
v 0.04715411 -0.00331122 0.09796314
v 0.04576737 -0.00951839 0.10443084
v 0.04578674 -0.00951839 0.10416988
v 0.04584698 -0.00951839 0.10314139
v 0.04586097 -0.00951839 0.10287532
v 0.04119297 -0.00951839 0.10915881
v 0.04186105 -0.00951839 0.10951699
v 0.04315420 0.00560142 0.10966538
v 0.04707342 -0.00072415 0.10184683
v 0.04720037 -0.00072415 0.10055226
v 0.04730688 -0.00072415 0.09925770
v 0.04736067 0.00057086 0.09796314
v 0.04743167 0.00057086 0.09537401
v 0.04643008 0.00286340 0.10530582
v 0.04661190 0.00057086 0.10572540
v 0.04681307 -0.00072415 0.10443084
v 0.04694325 -0.00072415 0.10314139
v 0.04581578 0.00560142 0.10701997
v 0.04749945 -0.00072415 0.09407945
v 0.04737358 -0.00072415 0.09796314
v 0.04694432 -0.00201621 0.10184683
v 0.04648925 -0.00469355 0.10321815
v 0.04607076 -0.00719329 0.10443084
v 0.04590938 -0.00848683 0.10443084
v 0.04564581 -0.00951839 0.10546444
v 0.04212463 -0.00951839 0.10956304
v 0.04315420 -0.00589976 0.10967050
v 0.04444841 -0.00072415 0.10960398
v 0.04444841 0.00057086 0.10959886
v 0.04444841 0.00186439 0.10954769
v 0.04444841 0.00315940 0.10948117
v 0.04444841 0.00445293 0.10940954
v 0.04455061 0.00560142 0.10928162
v 0.04663126 -0.00072415 0.10572540
v 0.04644299 0.00057086 0.10666178
v 0.04649571 -0.00201028 0.10577145
v 0.04668290 -0.00201621 0.10443084
v 0.04681415 -0.00201621 0.10314139
v 0.04632358 0.00057086 0.10730651
v 0.04536071 0.00560142 0.10841686
v 0.04643331 -0.00432059 0.10421081
v 0.04638920 -0.00395206 0.10507556
v 0.04574048 -0.00848683 0.10572540
v 0.04561138 -0.00951839 0.10572540
v 0.04315420 -0.00951839 0.10965003
v 0.04315420 -0.00848683 0.10966026
v 0.04444841 -0.00201621 0.10956304
v 0.04534995 -0.00072415 0.10913323
v 0.04534027 0.00057086 0.10912811
v 0.04475610 0.00560142 0.10916393
v 0.04645267 -0.00072415 0.10671295
v 0.04641394 -0.00157664 0.10650316
v 0.04581578 -0.00589976 0.10701997
v 0.04551240 -0.00848683 0.10701997
v 0.04644084 -0.00308922 0.10536722
v 0.04633326 -0.00072415 0.10735768
v 0.04592122 0.00057086 0.10831453
v 0.04526066 0.00560142 0.10862154
v 0.04604601 -0.00589976 0.10572540
v 0.04542957 -0.00951839 0.10675901
v 0.04338765 -0.00951839 0.10956304
v 0.04444841 -0.00331122 0.10949652
v 0.04528433 -0.00201621 0.10909741
v 0.04594058 -0.00072415 0.10831453
v 0.04511220 0.00532170 0.10897461
v 0.04627732 -0.00201028 0.10696880
v 0.04611702 -0.00331122 0.10701997
v 0.04523484 -0.00951839 0.10770562
v 0.04538330 -0.00951839 0.10701997
v 0.04581148 -0.00201621 0.10831453
v 0.04524560 -0.00848683 0.10808939
v 0.04518105 -0.00951839 0.10792053
v 0.04444841 -0.00460475 0.10941977
v 0.04421388 -0.00951839 0.10920486
v 0.04429672 -0.00848683 0.10925091
v 0.04456568 -0.00592048 0.10927138
v 0.04511542 -0.00550460 0.10897972
v 0.04507454 -0.00636744 0.10893878
v 0.04502613 -0.00719329 0.10887227
v 0.04532198 -0.00719329 0.10822243
v 0.04494329 -0.00848683 0.10873411
v 0.04486153 -0.00951839 0.10857037
v 0.04437848 -0.00719329 0.10929185
v 0.04434621 -0.00951839 0.10910253
f 1 2 6
f 1 6 13
f 1 13 30
f 1 30 60
f 1 60 79
f 1 79 42
f 1 42 41
f 1 41 39
f 1 39 16
f 1 16 7
f 1 7 3
f 1 3 9
f 1 9 25
f 1 25 24
f 1 24 55
f 1 55 54
f 1 54 91
f 1 91 107
f 1 107 128
f 1 128 127
f 1 127 126
f 1 126 125
f 1 125 148
f 1 148 167
f 1 167 183
f 1 183 192
f 1 192 191
f 1 191 195
f 1 195 205
f 1 205 207
f 1 207 197
f 1 197 184
f 1 184 168
f 1 168 149
f 1 149 130
f 1 130 129
f 1 129 109
f 1 109 108
f 1 108 92
f 1 92 56
f 1 56 28
f 1 28 27
f 1 27 10
f 1 10 4
f 1 4 5
f 1 5 2
f 2 5 12
f 2 12 11
f 2 11 29
f 2 29 58
f 2 58 57
f 2 57 93
f 2 93 110
f 2 110 131
f 2 131 156
f 2 156 173
f 2 173 181
f 2 181 163
f 2 163 141
f 2 141 117
f 2 117 95
f 2 95 65
f 2 65 36
f 2 36 35
f 2 35 34
f 2 34 32
f 2 32 14
f 2 14 6
f 3 7 8
f 3 8 9
f 4 10 11
f 4 11 12
f 4 12 5
f 6 14 15
f 6 15 13
f 7 16 8
f 8 17 18
f 8 18 19
f 8 19 20
f 8 20 21
f 8 21 22
f 8 22 23
f 8 23 24
f 8 24 25
f 8 25 9
f 8 16 26
f 8 26 17
f 10 27 11
f 11 27 28
f 11 28 29
f 13 15 31
f 13 31 30
f 14 32 15
f 15 33 31
f 15 32 34
f 15 34 35
f 15 35 36
f 15 36 37
f 15 37 38
f 15 38 33
f 16 39 40
f 16 40 26
f 17 26 40
f 17 40 39
f 17 39 18
f 18 39 19
f 19 39 20
f 20 39 41
f 20 41 42
f 20 42 21
f 21 43 44
f 21 44 22
f 21 42 45
f 21 45 46
f 21 46 43
f 22 47 23
f 22 44 48
f 22 48 49
f 22 49 50
f 22 50 51
f 22 51 52
f 22 52 53
f 22 53 54
f 22 54 55
f 22 55 47
f 23 47 55
f 23 55 24
f 28 56 57
f 28 57 58
f 28 58 29
f 30 31 59
f 30 59 60
f 31 61 62
f 31 62 59
f 31 33 63
f 31 63 61
f 33 42 62
f 33 62 63
f 33 38 64
f 33 64 45
f 33 45 42
f 36 65 66
f 36 66 67
f 36 67 68
f 36 68 69
f 36 69 70
f 36 70 71
f 36 71 72
f 36 72 73
f 36 73 38
f 36 38 74
f 36 74 37
f 37 74 38
f 38 73 75
f 38 75 76
f 38 76 77
f 38 77 78
f 38 78 64
f 42 79 62
f 43 46 44
f 44 46 80
f 44 80 81
f 44 81 48
f 45 82 83
f 45 83 75
f 45 75 73
f 45 73 49
f 45 49 46
f 45 64 82
f 46 49 48
f 46 48 81
f 46 81 80
f 49 73 50
f 50 73 51
f 51 73 52
f 52 84 53
f 52 73 72
f 52 72 85
f 52 85 84
f 53 84 54
f 54 85 86
f 54 86 87
f 54 87 88
f 54 88 89
f 54 89 90
f 54 90 91
f 54 84 85
f 56 92 57
f 57 92 93
f 59 62 79
f 59 79 60
f 61 63 62
f 64 78 82
f 65 94 66
f 65 95 94
f 66 94 96
f 66 96 67
f 67 97 105
f 67 105 98
f 67 98 99
f 67 99 100
f 67 100 101
f 67 101 102
f 67 102 68
f 67 96 97
f 68 102 85
f 68 85 69
f 69 85 70
f 70 85 71
f 71 85 72
f 75 83 77
f 75 77 76
f 77 83 82
f 77 82 78
f 85 102 86
f 86 102 87
f 87 103 104
f 87 104 88
f 87 102 101
f 87 101 100
f 87 100 99
f 87 99 98
f 87 98 105
f 87 105 103
f 88 104 89
f 89 104 90
f 90 104 91
f 91 104 106
f 91 106 107
f 92 108 93
f 93 108 109
f 93 109 110
f 94 111 112
f 94 112 113
f 94 113 114
f 94 114 96
f 94 95 115
f 94 115 116
f 94 116 111
f 95 117 115
f 96 114 118
f 96 118 97
f 97 118 114
f 97 114 119
f 97 119 120
f 97 120 105
f 103 105 120
f 103 120 121
f 103 121 104
f 104 122 123
f 104 123 124
f 104 124 106
f 104 121 122
f 106 124 125
f 106 125 126
f 106 126 127
f 106 127 128
f 106 128 107
f 109 129 110
f 110 129 130
f 110 130 131
f 111 132 133
f 111 133 112
f 111 116 132
f 112 134 135
f 112 135 113
f 112 133 134
f 113 135 114
f 114 135 136
f 114 136 119
f 115 137 116
f 115 117 137
f 116 137 138
f 116 138 139
f 116 139 140
f 116 140 132
f 117 141 137
f 119 136 120
f 120 136 135
f 120 135 142
f 120 142 121
f 121 142 122
f 122 143 123
f 122 142 143
f 123 143 134
f 123 134 133
f 123 133 124
f 124 133 144
f 124 144 145
f 124 145 146
f 124 146 147
f 124 147 125
f 125 147 148
f 130 149 131
f 131 149 150
f 131 150 151
f 131 151 152
f 131 152 153
f 131 153 154
f 131 154 155
f 131 155 156
f 132 144 133
f 132 140 161
f 132 161 144
f 134 143 135
f 135 143 142
f 137 141 138
f 138 157 139
f 138 141 158
f 138 158 157
f 139 157 159
f 139 159 160
f 139 160 161
f 139 161 140
f 141 162 158
f 141 163 162
f 144 161 145
f 145 161 164
f 145 164 146
f 146 165 166
f 146 166 147
f 146 164 165
f 147 166 148
f 148 166 167
f 149 168 169
f 149 169 150
f 150 169 151
f 151 169 168
f 151 168 170
f 151 170 171
f 151 171 152
f 152 171 172
f 152 172 153
f 153 172 154
f 154 172 155
f 155 172 173
f 155 173 156
f 157 158 174
f 157 174 175
f 157 175 159
f 158 162 179
f 158 179 174
f 159 175 176
f 159 176 177
f 159 177 178
f 159 178 160
f 160 178 165
f 160 165 161
f 161 165 164
f 162 163 180
f 162 180 179
f 163 181 180
f 165 178 166
f 166 182 177
f 166 177 183
f 166 183 167
f 166 178 182
f 168 184 185
f 168 185 170
f 170 185 171
f 171 185 186
f 171 186 187
f 171 187 172
f 172 187 180
f 172 180 188
f 172 188 173
f 173 188 181
f 174 179 175
f 175 179 189
f 175 189 190
f 175 190 176
f 176 190 191
f 176 191 177
f 177 192 183
f 177 182 178
f 177 191 192
f 179 190 189
f 179 180 187
f 179 187 193
f 179 193 194
f 179 194 195
f 179 195 191
f 179 191 190
f 180 181 188
f 184 196 185
f 184 197 198
f 184 198 196
f 185 196 186
f 186 196 199
f 186 199 200
f 186 200 187
f 187 200 201
f 187 201 202
f 187 202 193
f 193 203 194
f 193 202 203
f 194 203 202
f 194 202 204
f 194 204 195
f 195 204 205
f 196 198 206
f 196 206 199
f 197 207 202
f 197 202 201
f 197 201 198
f 198 199 206
f 198 201 200
f 198 200 199
f 202 207 204
f 204 207 205

