# https://github.com/mikedh/trimesh
v 0.03907010 0.02569057 0.09923222
v 0.03902465 0.02569057 0.09795851
v 0.03880874 0.02606624 0.09925380
v 0.03705591 0.02801422 0.10443498
v 0.03749625 0.02736630 0.10443498
v 0.03855022 0.02569057 0.10443498
v 0.03069800 0.03456519 0.07725540
v 0.03083152 0.03481422 0.08085344
v 0.03086277 0.03487332 0.08171697
v 0.03832863 0.02671205 0.09925380
v 0.03354457 0.02569057 0.05920044
v 0.02957869 0.03230696 0.05450860
v 0.02954460 0.03353738 0.05863195
v 0.02960142 0.03362180 0.05949548
v 0.02973210 0.03379908 0.06173346
v 0.02987414 0.03400380 0.06431685
v 0.02993948 0.03410299 0.06561214
v 0.02957017 0.03487332 0.06749752
v 0.03059573 0.03439213 0.07466481
v 0.03717807 0.02820206 0.10054910
v 0.03765250 0.02755625 0.10054910
v 0.03714682 0.02814507 0.10184439
v 0.03640819 0.02879721 0.10443498
v 0.03630876 0.02868536 0.10572308
v 0.03695648 0.02787915 0.10572308
v 0.03741102 0.02723123 0.10572308
v 0.03789681 0.02645668 0.10572308
v 0.03837693 0.02569057 0.10572308
v 0.02989119 0.03516878 0.07336952
v 0.02994801 0.03522577 0.07466481
v 0.02999914 0.03527431 0.07596011
v 0.03032585 0.03535029 0.08122763
v 0.03025198 0.03560144 0.08372467
v 0.03029744 0.03564998 0.08501997
v 0.03034005 0.03569852 0.08631526
v 0.03088266 0.03490286 0.08242938
v 0.03768375 0.02753936 0.09925380
v 0.03268094 0.02569057 0.05396889
v 0.02833438 0.03110187 0.04259909
v 0.02841961 0.03126227 0.04361374
v 0.02852188 0.03146488 0.04490903
v 0.02832302 0.03234495 0.04655693
v 0.02827757 0.03358170 0.05198277
v 0.02858722 0.03384973 0.05525699
v 0.02870938 0.03395525 0.05655228
v 0.02882586 0.03405867 0.05784758
v 0.02943097 0.03475091 0.06561214
v 0.02951335 0.03482267 0.06663399
v 0.02878324 0.03520044 0.06561214
v 0.02901620 0.03518778 0.06700099
v 0.02891677 0.03559088 0.07079332
v 0.02901336 0.03587158 0.07466481
v 0.02960994 0.03490920 0.06820273
v 0.02975199 0.03504005 0.07079332
v 0.03649910 0.02890485 0.10184439
v 0.03598490 0.02963508 0.09925380
v 0.03243663 0.03386661 0.09667041
v 0.03359855 0.03246314 0.09795851
v 0.03645364 0.02885631 0.10313969
v 0.03302753 0.03311106 0.09795851
v 0.03238265 0.03380330 0.09795851
v 0.03579740 0.02944514 0.10443498
v 0.03514968 0.03011205 0.10443498
v 0.03567808 0.02933117 0.10572308
v 0.03615535 0.02852285 0.10701838
v 0.03606444 0.02842788 0.10773798
v 0.03685989 0.02763011 0.10691763
v 0.03724909 0.02697375 0.10728463
v 0.03734000 0.02711938 0.10642110
v 0.03811556 0.02569057 0.10698959
v 0.02946506 0.03611429 0.08113408
v 0.02953040 0.03614594 0.08205518
v 0.02982017 0.03510547 0.07208142
v 0.02957585 0.03617127 0.08291871
v 0.03009005 0.03566264 0.08246536
v 0.03005028 0.03532074 0.07725540
v 0.03038550 0.03574284 0.08761056
v 0.03095936 0.03500417 0.08501997
v 0.03240253 0.03387505 0.09537512
v 0.03099630 0.03505060 0.08631526
v 0.03103323 0.03509492 0.08761056
v 0.03110709 0.03517723 0.09019395
v 0.03225197 0.02569057 0.05139270
v 0.02825768 0.03094780 0.04173556
v 0.02823779 0.03223309 0.04570060
v 0.02719235 0.03245681 0.04231844
v 0.02816961 0.03349728 0.05111924
v 0.02706166 0.03362391 0.04784503
v 0.02719519 0.03370199 0.04878772
v 0.02737985 0.03380752 0.05008301
v 0.02822359 0.03485010 0.05992724
v 0.02832586 0.03490497 0.06079077
v 0.02841677 0.03496618 0.06173346
v 0.02854177 0.03504638 0.06302156
v 0.02866393 0.03512658 0.06431685
v 0.02881165 0.03587580 0.07336232
v 0.02891677 0.03547481 0.06949803
v 0.01005327 0.04716059 0.08889865
v 0.02891677 0.03570485 0.07208142
v 0.03117243 0.03516034 0.09407983
v 0.03176333 0.03451242 0.09667041
v 0.03108152 0.03507592 0.09795851
v 0.03172924 0.03444911 0.09795851
v 0.03114970 0.03519411 0.09148924
v 0.03117527 0.03518356 0.09278453
v 0.03100766 0.03501683 0.09925380
v 0.03087414 0.03488598 0.10131189
v 0.03332014 0.03215078 0.10313969
v 0.03451616 0.03075786 0.10443498
v 0.03503320 0.02998542 0.10572308
v 0.03551899 0.02917077 0.10701838
v 0.03423207 0.03047083 0.10701838
v 0.03165254 0.03307096 0.10701838
v 0.03477468 0.02972583 0.10774518
v 0.03527184 0.02892807 0.10817694
v 0.03577183 0.02810920 0.10860151
v 0.03632296 0.02770609 0.10822732
v 0.03751898 0.02611267 0.10805461
v 0.03761841 0.02650944 0.10691763
v 0.03771500 0.02569057 0.10817694
v 0.01005327 0.04724923 0.09019395
v 0.02960426 0.03619237 0.08372467
v 0.03047641 0.03582515 0.09019395
v 0.03043096 0.03578505 0.08889865
v 0.03106732 0.03513924 0.08889865
v 0.03152754 0.02569057 0.04749242
v 0.02815257 0.03211280 0.04490903
v 0.03102755 0.02569057 0.04480109
v 0.02762700 0.03033787 0.03714446
v 0.02703041 0.03104700 0.03630252
v 0.02713837 0.03116941 0.03714446
v 0.02694235 0.03225631 0.04046905
v 0.02706451 0.03235128 0.04133258
v 0.02689974 0.03355004 0.04698150
v 0.01153053 0.04138629 0.04914752
v 0.01150212 0.04265892 0.05702722
v 0.02809575 0.03479945 0.05914287
v 0.01161860 0.04272012 0.05784758
v 0.01178053 0.04280876 0.05914287
v 0.01209586 0.04345668 0.06561214
v 0.01005327 0.04701286 0.08761056
v 0.01005042 0.04716059 0.08889865
v 0.03114686 0.03513291 0.09537512
v 0.03048778 0.03584203 0.09148924
v 0.03045937 0.03583148 0.09278453
v 0.03111561 0.03510336 0.09667041
v 0.03032869 0.03572384 0.09795851
v 0.03028607 0.03566475 0.09925380
v 0.03009858 0.03567741 0.10052752
v 0.03000767 0.03526376 0.10443498
v 0.03074630 0.03475513 0.10313969
v 0.03322923 0.03206003 0.10443498
v 0.03065539 0.03466227 0.10443498
v 0.03116959 0.03388772 0.10572308
v 0.03036278 0.03436891 0.10701838
v 0.03219231 0.03231962 0.10775957
v 0.03398207 0.03022602 0.10818414
v 0.03447923 0.02942825 0.10860871
v 0.03490820 0.02856506 0.10904047
v 0.03613262 0.02724600 0.10901888
v 0.03729170 0.02574545 0.10891814
v 0.03705875 0.02650944 0.10842161
v 0.03735420 0.02569057 0.10886777
v 0.02982869 0.03635699 0.09019395
v 0.02978324 0.03632533 0.08889865
v 0.01005327 0.04703818 0.09148924
v 0.01274927 0.04392732 0.10508983
v 0.02010149 0.04119212 0.10572308
v 0.02033160 0.04127232 0.10443498
v 0.02043955 0.04131031 0.10313969
v 0.02049353 0.04133142 0.10239129
v 0.02104750 0.04108449 0.10190916
v 0.02123500 0.04106972 0.10054910
v 0.02321794 0.04010944 0.09925380
v 0.02574065 0.03877983 0.09795851
v 0.02574065 0.03877772 0.09719573
v 0.02817813 0.03741224 0.09407983
v 0.03090823 0.02569057 0.04419662
v 0.02968380 0.02569057 0.03841817
v 0.02916108 0.02569057 0.03618738
v 0.02738269 0.03038852 0.03618738
v 0.02709860 0.03088027 0.03618738
v 0.02686848 0.03114197 0.03618738
v 0.02636849 0.03153452 0.03618738
v 0.02658155 0.03199250 0.03843256
v 0.02577190 0.03233018 0.03755464
v 0.01148223 0.04006512 0.04155566
v 0.01135723 0.04131031 0.04828399
v 0.01125780 0.04259138 0.05616370
v 0.01080042 0.04293328 0.05784758
v 0.01080042 0.04310423 0.05914287
v 0.01133735 0.04390832 0.06645409
v 0.01149928 0.04394631 0.06731762
v 0.01039701 0.04268002 0.05558081
v 0.01005327 0.04268002 0.05558081
v 0.01005327 0.03872918 0.10519057
v 0.01005327 0.03888536 0.10631316
v 0.01005327 0.03900355 0.10701838
v 0.01005327 0.03913440 0.10748612
v 0.01005327 0.03939188 0.10827769
v 0.01005327 0.03988784 0.10906926
v 0.01005327 0.04068983 0.10950822
v 0.01005327 0.04198356 0.10964494
v 0.01005327 0.04303880 0.10920598
v 0.01005327 0.04370994 0.10850077
v 0.01005327 0.04386401 0.10820573
v 0.01005327 0.04400541 0.10791069
v 0.01005327 0.04419535 0.10706155
v 0.01005327 0.04430299 0.10647867
v 0.01005327 0.04135463 0.04674403
v 0.01005327 0.04021919 0.04038270
v 0.01005327 0.04012211 0.03985019
v 0.01005327 0.04000181 0.03923852
v 0.01005327 0.03994060 0.03893629
v 0.01005327 0.03956283 0.03714446
v 0.01005327 0.03934967 0.03618738
v 0.01005327 0.03182577 0.03618738
v 0.03042528 0.03580826 0.09407983
v 0.02984005 0.03636121 0.09148924
v 0.02981165 0.03634011 0.09278453
v 0.02968380 0.03625147 0.09795851
v 0.02963835 0.03621770 0.09925380
v 0.02959290 0.03618393 0.10007416
v 0.02918665 0.03591168 0.10443498
v 0.02987983 0.03515190 0.10572308
v 0.02951335 0.03613117 0.10093769
v 0.03052755 0.03453353 0.10572308
v 0.02971505 0.03500417 0.10701838
v 0.02960994 0.03490920 0.10777396
v 0.03089971 0.03361757 0.10776677
v 0.03060709 0.03332000 0.10863030
v 0.03318946 0.03072620 0.10861591
v 0.03361844 0.02986301 0.10904047
v 0.03148209 0.03160839 0.10921318
v 0.03406730 0.02901671 0.10920598
v 0.03535990 0.02770609 0.10919159
v 0.03538831 0.02645668 0.10956579
v 0.03640251 0.02645668 0.10914841
v 0.03723205 0.02569057 0.10896851
v 0.01080042 0.04434520 0.10572308
v 0.01137428 0.04391466 0.10760845
v 0.01165553 0.04399697 0.10674493
v 0.01209018 0.04406028 0.10560075
v 0.01251632 0.04384712 0.10595336
v 0.01546232 0.04267791 0.10661540
v 0.01926343 0.04135463 0.10646428
v 0.01856741 0.04173874 0.10572308
v 0.01976058 0.04108660 0.10694642
v 0.02125773 0.04038803 0.10706875
v 0.02115546 0.04070460 0.10572308
v 0.02115546 0.04086922 0.10443498
v 0.02316113 0.04007990 0.10019649
v 0.02386567 0.03974855 0.09925380
v 0.02570088 0.03876084 0.09868532
v 0.02638837 0.03841683 0.09795851
v 0.02751337 0.03780268 0.09667041
v 0.02817245 0.03739324 0.09537512
v 0.02207591 0.02569057 0.03618738
v 0.02605031 0.03173924 0.03618738
v 0.02625485 0.03188064 0.03713007
v 0.02550202 0.03223309 0.03669111
v 0.01151064 0.03887692 0.03618738
v 0.01087712 0.03915972 0.03618738
v 0.01080042 0.03940032 0.03714446
v 0.01125780 0.03997226 0.04069213
v 0.01081746 0.04019386 0.04108791
v 0.01080042 0.04043024 0.04231844
v 0.01080042 0.04067083 0.04361374
v 0.01080042 0.04089454 0.04490903
v 0.01021804 0.04135463 0.04674403
v 0.01080042 0.04174929 0.05008301
v 0.01081746 0.04274334 0.05658107
v 0.01080042 0.04195401 0.05137830
v 0.03147356 0.02569057 0.10572308
v 0.03157868 0.02569057 0.10618363
v 0.03177186 0.02569057 0.10701838
v 0.03203606 0.02569057 0.10792508
v 0.03246220 0.02569057 0.10866628
v 0.03306446 0.02569057 0.10912683
v 0.03403889 0.02569057 0.10947943
v 0.03409286 0.02645668 0.10968093
v 0.01080042 0.04068983 0.10956579
v 0.01209586 0.04068983 0.10965934
v 0.01338847 0.04068983 0.10968093
v 0.01080042 0.04198356 0.10963055
v 0.01080042 0.04297549 0.10917000
v 0.01209586 0.04280665 0.10907645
v 0.01088565 0.04367828 0.10828489
v 0.01051065 0.04397586 0.10783153
v 0.01088565 0.04407717 0.10711912
v 0.01039417 0.04011789 0.03997252
v 0.03128607 0.02569057 0.10443498
v 0.03137982 0.02569057 0.10508983
v 0.02816109 0.03737636 0.09667041
v 0.02891677 0.03678964 0.09795851
v 0.02810427 0.03734681 0.09795851
v 0.02745939 0.03776891 0.09795851
v 0.02445373 0.03878828 0.10526973
v 0.02853893 0.03632745 0.10443498
v 0.02841393 0.03625147 0.10550000
v 0.02887415 0.03586947 0.10585261
v 0.02891677 0.03557822 0.10701838
v 0.02815541 0.03609107 0.10701838
v 0.02570940 0.03747344 0.10771640
v 0.02725769 0.03634011 0.10804022
v 0.02689405 0.03611006 0.10890375
v 0.02886847 0.03514557 0.10824890
v 0.02926903 0.03461795 0.10863749
v 0.02974346 0.03375476 0.10904047
v 0.03103607 0.03245681 0.10904047
v 0.03018948 0.03290423 0.10921318
v 0.03150481 0.03033787 0.10961616
v 0.03409286 0.02775041 0.10960896
v 0.03538831 0.02569057 0.10964494
v 0.03664966 0.02569057 0.10926355
v 0.01436289 0.04274756 0.10796826
v 0.01816968 0.04142639 0.10791789
v 0.01522652 0.04259349 0.10747173
v 0.01209018 0.04377325 0.10711912
v 0.01209586 0.04332161 0.10831367
v 0.01377199 0.04253651 0.10883179
v 0.01474925 0.04284886 0.10703277
v 0.01903331 0.04127443 0.10732781
v 0.02080603 0.04020864 0.10831367
v 0.02175773 0.04001447 0.10753649
v 0.02190261 0.04010733 0.10667297
v 0.02205602 0.04020230 0.10572308
v 0.02219238 0.04028883 0.10443498
v 0.02524918 0.03217822 0.03618738
v 0.02632872 0.03422117 0.10970251
v 0.02244806 0.03680864 0.10969532
v 0.01986001 0.03810237 0.10968812
v 0.01727196 0.03939610 0.10967373
v 0.01468391 0.04068983 0.10963055
v 0.01209586 0.04198356 0.10950822
v 0.01336006 0.04205743 0.10924916
v 0.01290836 0.04267580 0.10899730
v 0.02826904 0.03616072 0.10636353
v 0.02330317 0.03888114 0.10797545
v 0.02293670 0.03864687 0.10883898
v 0.02051910 0.04004824 0.10896851
v 0.02447362 0.03750088 0.10899010
v 0.02840540 0.03495140 0.10901169
v 0.02886847 0.03420007 0.10919879
v 0.02891677 0.03292744 0.10961616
v 0.03021221 0.03163371 0.10961616
v 0.01757878 0.04121112 0.10878141
v 0.02503611 0.03551490 0.10964494
v 0.02115546 0.03810237 0.10961616
v 0.01856741 0.03939610 0.10960896
v 0.01597936 0.04068983 0.10947224
v 0.01719810 0.04074470 0.10922757
v 0.02103330 0.03935600 0.10914841
v 0.02248215 0.03816990 0.10928514
v 0.02374351 0.03773725 0.10910524
v 0.02762416 0.03521522 0.10914122
v 0.01986001 0.03939610 0.10942186
v 0.02762416 0.03422117 0.10955859
v 0.02374351 0.03680864 0.10952261
v 0.02640826 0.03561410 0.10932112
f 1 2 3
f 1 3 4
f 1 4 5
f 1 5 6
f 1 6 28
f 1 28 70
f 1 70 120
f 1 120 163
f 1 163 239
f 1 239 315
f 1 315 314
f 1 314 280
f 1 280 279
f 1 279 278
f 1 278 277
f 1 277 276
f 1 276 275
f 1 275 274
f 1 274 293
f 1 293 292
f 1 292 258
f 1 258 180
f 1 180 179
f 1 179 178
f 1 178 128
f 1 128 126
f 1 126 83
f 1 83 38
f 1 38 11
f 1 11 2
f 2 7 8
f 2 8 9
f 2 9 10
f 2 10 3
f 2 11 12
f 2 12 13
f 2 13 14
f 2 14 15
f 2 15 16
f 2 16 17
f 2 17 18
f 2 18 19
f 2 19 7
f 3 10 20
f 3 20 21
f 3 21 22
f 3 22 4
f 4 23 24
f 4 24 25
f 4 25 26
f 4 26 5
f 4 22 23
f 5 26 6
f 6 26 27
f 6 27 28
f 7 19 29
f 7 29 8
f 8 29 9
f 9 29 30
f 9 30 31
f 9 31 32
f 9 32 33
f 9 33 34
f 9 34 35
f 9 35 36
f 9 36 37
f 9 37 10
f 10 37 20
f 11 38 39
f 11 39 40
f 11 40 41
f 11 41 12
f 12 41 42
f 12 42 13
f 13 42 43
f 13 43 44
f 13 44 45
f 13 45 46
f 13 46 47
f 13 47 14
f 14 47 48
f 14 48 15
f 15 48 16
f 16 48 18
f 16 18 17
f 18 48 49
f 18 49 50
f 18 50 51
f 18 51 52
f 18 52 53
f 18 53 19
f 19 53 54
f 19 54 29
f 20 55 22
f 20 22 21
f 20 37 56
f 20 56 57
f 20 57 58
f 20 58 55
f 22 55 59
f 22 59 23
f 23 59 60
f 23 60 61
f 23 61 62
f 23 62 24
f 24 62 63
f 24 63 64
f 24 64 65
f 24 65 25
f 25 65 66
f 25 66 67
f 25 67 68
f 25 68 69
f 25 69 26
f 26 69 27
f 27 69 28
f 28 69 70
f 29 52 71
f 29 71 72
f 29 72 30
f 29 54 73
f 29 73 52
f 30 72 74
f 30 74 31
f 31 74 75
f 31 75 76
f 31 76 32
f 32 75 33
f 32 76 75
f 33 75 74
f 33 74 34
f 34 74 35
f 35 74 77
f 35 77 36
f 36 77 78
f 36 78 37
f 37 79 56
f 37 78 80
f 37 80 81
f 37 81 82
f 37 82 79
f 38 83 39
f 39 83 84
f 39 84 85
f 39 85 42
f 39 42 40
f 40 42 41
f 42 85 86
f 42 86 87
f 42 87 43
f 43 87 88
f 43 88 89
f 43 89 90
f 43 90 91
f 43 91 44
f 44 91 92
f 44 92 45
f 45 92 46
f 46 92 47
f 47 92 93
f 47 93 94
f 47 94 95
f 47 95 48
f 48 95 49
f 49 96 51
f 49 51 97
f 49 97 50
f 49 95 98
f 49 98 96
f 50 97 51
f 51 96 99
f 51 99 52
f 52 73 54
f 52 54 53
f 52 99 96
f 52 96 98
f 52 98 71
f 55 58 60
f 55 60 59
f 56 79 57
f 57 100 101
f 57 101 102
f 57 102 103
f 57 103 61
f 57 61 60
f 57 60 58
f 57 79 104
f 57 104 105
f 57 105 100
f 61 103 106
f 61 106 107
f 61 107 108
f 61 108 109
f 61 109 63
f 61 63 62
f 63 109 64
f 64 109 110
f 64 110 111
f 64 111 65
f 65 111 66
f 66 68 67
f 66 111 112
f 66 112 113
f 66 113 114
f 66 114 157
f 66 157 115
f 66 115 116
f 66 116 117
f 66 117 118
f 66 118 68
f 68 118 70
f 68 70 119
f 68 119 69
f 69 119 70
f 70 118 120
f 71 98 72
f 72 98 121
f 72 121 74
f 74 122 123
f 74 123 124
f 74 124 77
f 74 121 122
f 77 124 78
f 78 124 123
f 78 123 80
f 79 82 104
f 80 123 81
f 81 123 125
f 81 125 82
f 82 125 123
f 82 123 104
f 83 126 84
f 84 127 85
f 84 126 128
f 84 128 129
f 84 129 130
f 84 130 131
f 84 131 127
f 85 127 131
f 85 131 132
f 85 132 133
f 85 133 86
f 86 133 88
f 86 88 87
f 88 134 135
f 88 135 136
f 88 136 89
f 88 133 132
f 88 132 134
f 89 136 90
f 90 136 137
f 90 137 91
f 91 137 136
f 91 136 138
f 91 138 139
f 91 139 140
f 91 140 92
f 92 140 141
f 92 141 98
f 92 98 93
f 93 98 94
f 94 98 95
f 98 141 142
f 98 142 121
f 100 143 101
f 100 105 144
f 100 144 145
f 100 145 143
f 101 143 146
f 101 146 102
f 102 146 147
f 102 147 148
f 102 148 106
f 102 106 103
f 104 123 144
f 104 144 105
f 106 148 107
f 107 148 149
f 107 149 150
f 107 150 151
f 107 151 152
f 107 152 109
f 107 109 108
f 109 152 110
f 110 152 153
f 110 153 154
f 110 154 112
f 110 112 111
f 112 154 113
f 113 154 155
f 113 155 114
f 114 155 156
f 114 156 157
f 115 157 232
f 115 232 158
f 115 158 116
f 116 158 159
f 116 159 160
f 116 160 117
f 117 160 161
f 117 161 162
f 117 162 118
f 118 162 161
f 118 161 163
f 118 163 120
f 121 164 165
f 121 165 122
f 121 142 166
f 121 166 167
f 121 167 168
f 121 168 169
f 121 169 170
f 121 170 171
f 121 171 172
f 121 172 173
f 121 173 174
f 121 174 175
f 121 175 176
f 121 176 177
f 121 177 164
f 122 165 123
f 123 165 164
f 123 164 144
f 128 178 129
f 129 179 180
f 129 180 181
f 129 181 130
f 129 178 179
f 130 181 182
f 130 182 183
f 130 183 184
f 130 184 185
f 130 185 132
f 130 132 131
f 132 185 186
f 132 186 134
f 134 186 187
f 134 187 135
f 135 187 188
f 135 188 136
f 136 189 190
f 136 190 191
f 136 191 141
f 136 141 192
f 136 192 138
f 136 188 189
f 138 192 193
f 138 193 139
f 139 193 140
f 140 193 141
f 141 193 192
f 141 191 190
f 141 190 194
f 141 194 195
f 141 195 142
f 142 196 197
f 142 197 198
f 142 198 199
f 142 199 200
f 142 200 201
f 142 201 202
f 142 202 203
f 142 203 204
f 142 204 205
f 142 205 206
f 142 206 207
f 142 207 208
f 142 208 209
f 142 209 166
f 142 195 210
f 142 210 211
f 142 211 212
f 142 212 213
f 142 213 214
f 142 214 215
f 142 215 216
f 142 216 217
f 142 217 196
f 143 145 218
f 143 218 147
f 143 147 146
f 144 164 219
f 144 219 145
f 145 219 220
f 145 220 221
f 145 221 218
f 147 222 148
f 147 218 221
f 147 221 222
f 148 222 223
f 148 223 149
f 149 223 150
f 150 224 225
f 150 225 153
f 150 153 151
f 150 223 226
f 150 226 224
f 151 153 152
f 153 225 227
f 153 227 154
f 154 227 155
f 155 227 228
f 155 228 229
f 155 229 230
f 155 230 156
f 156 230 157
f 157 231 232
f 157 230 231
f 158 232 159
f 159 233 234
f 159 234 235
f 159 235 236
f 159 236 160
f 159 232 231
f 159 231 233
f 160 236 237
f 160 237 238
f 160 238 161
f 161 238 239
f 161 239 163
f 164 177 219
f 166 209 240
f 166 240 241
f 166 241 242
f 166 242 243
f 166 243 167
f 167 243 244
f 167 244 245
f 167 245 246
f 167 246 247
f 167 247 168
f 168 247 246
f 168 246 248
f 168 248 249
f 168 249 250
f 168 250 169
f 169 250 251
f 169 251 170
f 170 251 171
f 171 251 172
f 172 251 174
f 172 174 173
f 174 251 252
f 174 252 253
f 174 253 254
f 174 254 175
f 175 255 256
f 175 256 176
f 175 254 255
f 176 256 177
f 177 256 257
f 177 257 219
f 180 258 217
f 180 217 216
f 180 216 263
f 180 263 262
f 180 262 329
f 180 329 259
f 180 259 184
f 180 184 183
f 180 183 182
f 180 182 181
f 184 259 186
f 184 186 260
f 184 260 185
f 185 260 186
f 186 259 261
f 186 261 262
f 186 262 187
f 187 262 263
f 187 263 264
f 187 264 265
f 187 265 266
f 187 266 267
f 187 267 268
f 187 268 188
f 188 268 269
f 188 269 270
f 188 270 271
f 188 271 189
f 189 272 190
f 189 271 273
f 189 273 194
f 189 194 272
f 190 272 194
f 194 273 270
f 194 270 210
f 194 210 195
f 196 274 197
f 196 217 274
f 197 275 276
f 197 276 198
f 197 274 275
f 198 276 277
f 198 277 199
f 199 277 200
f 200 277 278
f 200 278 201
f 201 279 280
f 201 280 202
f 201 278 279
f 202 280 281
f 202 281 282
f 202 282 203
f 203 282 283
f 203 283 284
f 203 284 285
f 203 285 204
f 204 285 286
f 204 286 205
f 205 286 287
f 205 287 288
f 205 288 206
f 206 288 289
f 206 289 207
f 207 289 208
f 208 289 241
f 208 241 290
f 208 290 209
f 209 290 240
f 210 270 211
f 211 270 291
f 211 291 212
f 212 291 213
f 213 291 214
f 214 291 215
f 215 291 264
f 215 264 216
f 216 264 263
f 217 258 292
f 217 292 293
f 217 293 274
f 219 257 294
f 219 294 220
f 220 294 221
f 221 294 295
f 221 295 222
f 222 295 296
f 222 296 223
f 223 296 297
f 223 297 298
f 223 298 299
f 223 299 226
f 224 299 300
f 224 300 301
f 224 301 225
f 224 226 299
f 225 301 228
f 225 228 227
f 228 301 302
f 228 302 229
f 229 302 303
f 229 303 304
f 229 304 305
f 229 305 306
f 229 306 307
f 229 307 308
f 229 308 231
f 229 231 230
f 231 308 309
f 231 309 310
f 231 310 233
f 233 310 234
f 234 311 346
f 234 346 312
f 234 312 313
f 234 313 235
f 234 310 309
f 234 309 311
f 235 313 236
f 236 313 237
f 237 313 314
f 237 314 315
f 237 315 238
f 238 315 239
f 240 290 241
f 241 316 317
f 241 317 318
f 241 318 319
f 241 319 242
f 241 289 288
f 241 288 320
f 241 320 321
f 241 321 316
f 242 319 244
f 242 244 243
f 244 319 245
f 245 319 322
f 245 322 323
f 245 323 246
f 246 323 248
f 248 323 324
f 248 324 249
f 249 324 325
f 249 325 326
f 249 326 250
f 250 326 327
f 250 327 251
f 251 327 328
f 251 328 252
f 252 254 253
f 252 328 254
f 254 297 255
f 254 328 297
f 255 297 256
f 256 297 296
f 256 296 294
f 256 294 257
f 259 329 261
f 261 329 262
f 264 291 265
f 265 291 266
f 266 291 267
f 267 291 268
f 268 291 270
f 268 270 269
f 270 273 271
f 280 314 281
f 281 330 284
f 281 284 283
f 281 283 282
f 281 314 313
f 281 313 330
f 284 330 331
f 284 331 332
f 284 332 333
f 284 333 334
f 284 334 285
f 285 334 335
f 285 335 286
f 286 335 287
f 287 335 336
f 287 336 337
f 287 337 288
f 288 337 321
f 288 321 320
f 294 296 295
f 297 328 298
f 298 328 327
f 298 327 326
f 298 326 300
f 298 300 299
f 300 326 338
f 300 338 301
f 301 338 303
f 301 303 302
f 303 325 304
f 303 338 325
f 304 325 339
f 304 339 305
f 305 339 306
f 306 340 341
f 306 341 342
f 306 342 343
f 306 343 308
f 306 308 307
f 306 339 340
f 308 343 309
f 309 343 344
f 309 344 311
f 311 345 346
f 311 344 345
f 312 346 330
f 312 330 313
f 316 321 317
f 317 324 323
f 317 323 318
f 317 321 347
f 317 347 341
f 317 341 324
f 318 323 319
f 319 323 322
f 321 337 341
f 321 341 347
f 324 339 325
f 324 341 339
f 325 338 326
f 330 348 331
f 330 346 345
f 330 345 358
f 330 358 348
f 331 348 349
f 331 349 350
f 331 350 332
f 332 350 333
f 333 350 334
f 334 350 335
f 335 350 351
f 335 351 336
f 336 351 352
f 336 352 341
f 336 341 337
f 339 341 340
f 341 353 354
f 341 354 355
f 341 355 356
f 341 356 342
f 341 352 357
f 341 357 353
f 342 356 343
f 343 356 344
f 344 356 358
f 344 358 345
f 348 358 349
f 349 358 359
f 349 359 357
f 349 357 350
f 350 357 351
f 351 357 352
f 353 357 354
f 354 357 359
f 354 359 360
f 354 360 356
f 354 356 355
f 356 360 358
f 358 360 359

