# https://github.com/mikedh/trimesh
v -0.02787900 -0.02222189 0.05522266
v -0.03417242 -0.02222189 0.05522266
v -0.03405244 -0.00958520 0.05522266
v -0.03757232 -0.00958520 0.10456629
v -0.03184141 -0.02222189 0.10443297
v -0.03653926 -0.02084131 0.05522266
v -0.03445600 -0.02222189 0.05655051
v -0.03457598 -0.00958520 0.05522266
v -0.03770944 -0.00958520 0.10572882
v -0.03192087 -0.02222189 0.10509423
v -0.03716097 -0.02038112 0.05522266
v -0.03500915 -0.02222189 0.05917954
v -0.03768139 -0.02075101 0.06002211
v -0.03759258 -0.02069163 0.05914221
v -0.03745702 -0.02059390 0.05784636
v -0.03875185 -0.00959138 0.05522266
v -0.03875808 -0.00958520 0.05525999
v -0.03199722 -0.02222189 0.10571816
v -0.03789486 -0.00958520 0.10689135
v -0.03718434 -0.02036133 0.05522266
v -0.03814729 -0.02105656 0.06561079
v -0.03804133 -0.02099347 0.06432028
v -0.03793381 -0.02092544 0.06302443
v -0.03782942 -0.02085368 0.06172858
v -0.03776242 -0.02080544 0.06088601
v -0.03627593 -0.02222189 0.06693331
v -0.03879392 -0.02053452 0.06561079
v -0.03812859 -0.01994691 0.05784636
v -0.03802575 -0.01983434 0.05655051
v -0.03791823 -0.01971187 0.05522266
v -0.03720615 -0.02034278 0.05522266
v -0.03870355 -0.01754699 0.05522266
v -0.03894195 -0.00958520 0.05657717
v -0.03793070 -0.00958520 0.10710466
v -0.03224809 -0.02222189 0.10701934
v -0.03823921 -0.02111100 0.06690664
v -0.03901362 -0.02076956 0.06894908
v -0.03896687 -0.02072132 0.06820249
v -0.03888585 -0.02063596 0.06690664
v -0.03709708 -0.02222189 0.07337523
v -0.03727471 -0.02184458 0.06949301
v -0.03919437 -0.01976754 0.06432028
v -0.03911646 -0.01964012 0.06302443
v -0.03906036 -0.01954610 0.06208587
v -0.03838880 -0.01884097 0.05522266
v -0.03900739 -0.01944219 0.06122197
v -0.03886871 -0.01909828 0.05914221
v -0.03906036 -0.01829418 0.05823565
v -0.03887806 -0.01754699 0.05655051
v -0.03912736 -0.00958520 0.05793702
v -0.03835296 -0.00958520 0.10831519
v -0.03247246 -0.02222189 0.10788324
v -0.03252544 -0.02202767 0.10776059
v -0.03837945 -0.02149944 0.07337523
v -0.03837945 -0.02130893 0.07078886
v -0.03850099 -0.02113203 0.06942369
v -0.03905569 -0.02081162 0.06981298
v -0.03933304 -0.01998897 0.06690664
v -0.03926916 -0.01988753 0.06561079
v -0.03980361 -0.02013494 0.07337523
v -0.03934863 -0.02222189 0.09149047
v -0.03969765 -0.01884097 0.06561079
v -0.03956209 -0.01884097 0.06432028
v -0.03859136 -0.01884097 0.05655051
v -0.03941874 -0.01884097 0.06302443
v -0.03911490 -0.01845129 0.05914221
v -0.03881106 -0.01877169 0.05781969
v -0.03919281 -0.01754699 0.05914221
v -0.03907595 -0.01754699 0.05809700
v -0.03899492 -0.01754699 0.05744640
v -0.04379250 -0.00958520 0.09924424
v -0.03914762 -0.00958520 0.05809166
v -0.03885157 -0.00958520 0.10907777
v -0.03284175 -0.02222189 0.10857649
v -0.03265321 -0.02222189 0.10822453
v -0.03909932 -0.02085492 0.07078886
v -0.03921774 -0.02096626 0.07337523
v -0.04020405 -0.02059885 0.08243552
v -0.04015887 -0.02052462 0.08114500
v -0.04032559 -0.01949909 0.07523635
v -0.04029754 -0.01937291 0.07437245
v -0.03998436 -0.02001248 0.07475107
v -0.03948730 -0.02222189 0.09278632
v -0.03981452 -0.01884097 0.06690664
v -0.03930344 -0.00958520 0.05933952
v -0.03928007 -0.00958520 0.05914221
v -0.04092237 -0.01884097 0.08372603
v -0.04133216 -0.01884097 0.09149047
v -0.04160484 -0.01815192 0.09407684
v -0.04294018 -0.01312322 0.09841767
v -0.04374575 -0.00978313 0.09925490
v -0.04375978 -0.00978313 0.10055075
v -0.04379562 -0.00958520 0.10055075
v -0.04034740 -0.01833624 0.07235668
v -0.04038169 -0.01853788 0.07337523
v -0.03967272 -0.00958520 0.10952038
v -0.03341671 -0.02222189 0.10914176
v -0.03927072 -0.02101451 0.07467108
v -0.04024457 -0.02066194 0.08372603
v -0.04054685 -0.01995186 0.08243552
v -0.04050945 -0.01987763 0.08114500
v -0.04025859 -0.01918488 0.07337523
v -0.03954339 -0.02222189 0.09407684
v -0.04042220 -0.02092915 0.09019462
v -0.04033182 -0.02079802 0.08674968
v -0.04030689 -0.02076090 0.08588578
v -0.04082732 -0.02013494 0.09019462
v -0.04136333 -0.01884097 0.09278632
v -0.04134619 -0.01884097 0.09407684
v -0.04159238 -0.01812965 0.09537269
v -0.04181987 -0.01743318 0.09666854
v -0.04213617 -0.01625301 0.09666854
v -0.04294018 -0.01312322 0.09887628
v -0.04343724 -0.01107710 0.09925490
v -0.04343256 -0.01107710 0.10055075
v -0.04338114 -0.01107710 0.10184660
v -0.04331259 -0.01107710 0.10313712
v -0.04368966 -0.00978313 0.10184660
v -0.04356813 -0.00958520 0.10443297
v -0.04354164 -0.00978313 0.10443297
v -0.04096755 -0.00958520 0.10964837
v -0.03967272 -0.01107710 0.10965370
v -0.03445600 -0.02222189 0.10954705
v -0.04057957 -0.02001495 0.08372603
v -0.03956053 -0.02222189 0.09537269
v -0.04042843 -0.02095017 0.09149047
v -0.04084757 -0.02013494 0.09149047
v -0.04038948 -0.02087843 0.08890410
v -0.04076655 -0.02013494 0.08890410
v -0.04130879 -0.01884097 0.09537269
v -0.04081486 -0.02013494 0.09278632
v -0.04156900 -0.01808017 0.09666854
v -0.04121063 -0.01884097 0.09796439
v -0.04153784 -0.01796883 0.09796439
v -0.04176689 -0.01732184 0.09796439
v -0.04210657 -0.01625301 0.09796439
v -0.04323156 -0.01107710 0.10443297
v -0.04354631 -0.00958520 0.10463028
v -0.04339361 -0.00978313 0.10572882
v -0.04096755 -0.00978313 0.10964303
v -0.03967272 -0.01366630 0.10964837
v -0.03967272 -0.01237108 0.10968037
v -0.04202243 -0.00958520 0.10920575
v -0.03579135 -0.02143016 0.10970170
v -0.03579135 -0.02222189 0.10961104
v -0.03955586 -0.02222189 0.09666854
v -0.04040662 -0.02092791 0.09278632
v -0.04068397 -0.02013494 0.09666854
v -0.04126360 -0.01884097 0.09666854
v -0.04031469 -0.02077328 0.09844433
v -0.04058113 -0.02025989 0.09799105
v -0.04060450 -0.02007062 0.09925490
v -0.04111090 -0.01884097 0.09925490
v -0.04086160 -0.01884097 0.10184660
v -0.04130256 -0.01754699 0.10184660
v -0.04236678 -0.01366630 0.10443297
v -0.04274853 -0.01254180 0.10443297
v -0.04296356 -0.01189481 0.10443297
v -0.04292772 -0.01177976 0.10518489
v -0.04307263 -0.01110308 0.10565950
v -0.04342010 -0.00958520 0.10572882
v -0.04298070 -0.01064166 0.10701934
v -0.04291681 -0.01045238 0.10769659
v -0.04316145 -0.00978313 0.10701934
v -0.04318949 -0.00958520 0.10701934
v -0.04338582 -0.00958520 0.10592613
v -0.04096755 -0.01107710 0.10953638
v -0.03837945 -0.01754699 0.10963770
v -0.03837945 -0.01625301 0.10968037
v -0.04200529 -0.00978313 0.10919509
v -0.04267062 -0.00958520 0.10855516
v -0.03708462 -0.02013494 0.10963770
v -0.03717499 -0.02149820 0.10931241
v -0.03693659 -0.02222189 0.10920575
v -0.03998124 -0.02146727 0.09666854
v -0.03954184 -0.02222189 0.09706849
v -0.03949509 -0.02222189 0.09796972
v -0.04028508 -0.02071761 0.09925490
v -0.04054685 -0.01995062 0.10055075
v -0.04047985 -0.01981083 0.10184660
v -0.04035831 -0.01956466 0.10413967
v -0.04031157 -0.01946445 0.10500358
v -0.04053906 -0.01895725 0.10451829
v -0.04162042 -0.01562335 0.10511023
v -0.04284981 -0.01155214 0.10604878
v -0.04238548 -0.01237108 0.10701934
v -0.04160640 -0.01428978 0.10762727
v -0.04044557 -0.01726123 0.10798989
v -0.04175598 -0.01342754 0.10801656
v -0.04154875 -0.01283004 0.10888046
v -0.04265193 -0.00978313 0.10851783
v -0.04297602 -0.00978313 0.10787257
v -0.04299005 -0.00958520 0.10790457
v -0.03967272 -0.01496027 0.10952038
v -0.04181987 -0.01107710 0.10909376
v -0.04105793 -0.01238840 0.10927508
v -0.03837945 -0.01884097 0.10947239
v -0.04294330 -0.00958520 0.10800589
v -0.04167808 -0.01196780 0.10900844
v -0.03835919 -0.02004093 0.10917376
v -0.03905413 -0.01954734 0.10898178
v -0.03791512 -0.02111223 0.10906177
v -0.03766737 -0.02197447 0.10889112
v -0.03758790 -0.02222189 0.10873647
v -0.03946393 -0.02222189 0.09833768
v -0.03984879 -0.02143016 0.09925490
v -0.04021652 -0.02059761 0.10055075
v -0.04005136 -0.02005206 0.10451829
v -0.03981140 -0.02013494 0.10572882
v -0.03954495 -0.02013494 0.10701934
v -0.04024457 -0.01927518 0.10572882
v -0.04046894 -0.01862819 0.10572882
v -0.04084290 -0.01754699 0.10572882
v -0.04154096 -0.01539325 0.10597413
v -0.04168898 -0.01452977 0.10676337
v -0.04147084 -0.01496027 0.10712599
v -0.04055620 -0.01763359 0.10707266
v -0.04029599 -0.01812347 0.10754195
v -0.03967272 -0.01884097 0.10831519
v -0.04023678 -0.01666125 0.10885380
v -0.04036922 -0.01579901 0.10899778
v -0.03975219 -0.01623941 0.10925908
v -0.03941718 -0.01754699 0.10918976
v -0.03917879 -0.01884097 0.10906177
v -0.03919748 -0.02004093 0.10819254
v -0.03902920 -0.02078812 0.10768060
v -0.03782319 -0.02222189 0.10830986
v -0.03873783 -0.02222189 0.10443297
v -0.03934239 -0.02127553 0.10443297
v -0.04014017 -0.02045906 0.10184660
v -0.03923955 -0.02112337 0.10572882
v -0.03910244 -0.02090317 0.10701934
v -0.04014329 -0.01881499 0.10707266
v -0.04037857 -0.01836470 0.10667804
v -0.03827505 -0.02222189 0.10701934
v -0.03795096 -0.02222189 0.10805922
v -0.03854150 -0.02222189 0.10576615
v -0.03883287 -0.02177035 0.10572882
f 1 2 6
f 1 6 11
f 1 11 20
f 1 20 31
f 1 31 30
f 1 30 45
f 1 45 32
f 1 32 16
f 1 16 8
f 1 8 3
f 1 3 4
f 1 4 5
f 1 5 10
f 1 10 18
f 1 18 35
f 1 35 52
f 1 52 75
f 1 75 74
f 1 74 97
f 1 97 123
f 1 123 145
f 1 145 174
f 1 174 204
f 1 204 227
f 1 227 236
f 1 236 235
f 1 235 237
f 1 237 228
f 1 228 205
f 1 205 177
f 1 177 176
f 1 176 146
f 1 146 125
f 1 125 103
f 1 103 83
f 1 83 61
f 1 61 40
f 1 40 26
f 1 26 12
f 1 12 7
f 1 7 2
f 2 7 6
f 3 8 17
f 3 17 33
f 3 33 50
f 3 50 72
f 3 72 86
f 3 86 85
f 3 85 71
f 3 71 93
f 3 93 119
f 3 119 138
f 3 138 161
f 3 161 166
f 3 166 165
f 3 165 193
f 3 193 198
f 3 198 171
f 3 171 143
f 3 143 121
f 3 121 96
f 3 96 73
f 3 73 51
f 3 51 34
f 3 34 19
f 3 19 9
f 3 9 4
f 4 9 5
f 5 9 10
f 6 7 12
f 6 12 13
f 6 13 14
f 6 14 15
f 6 15 11
f 8 16 17
f 9 18 10
f 9 19 18
f 11 15 20
f 12 21 22
f 12 22 23
f 12 23 24
f 12 24 25
f 12 25 13
f 12 26 21
f 13 25 27
f 13 27 28
f 13 28 29
f 13 29 14
f 14 29 30
f 14 30 15
f 15 30 31
f 15 31 20
f 16 32 17
f 17 32 33
f 18 19 34
f 18 34 35
f 21 26 36
f 21 36 37
f 21 37 22
f 22 37 38
f 22 38 39
f 22 39 23
f 23 39 24
f 24 39 25
f 25 39 27
f 26 40 41
f 26 41 36
f 27 42 43
f 27 43 44
f 27 44 28
f 27 39 42
f 28 44 29
f 29 44 30
f 30 44 46
f 30 46 47
f 30 47 45
f 32 45 48
f 32 48 49
f 32 49 50
f 32 50 33
f 34 51 52
f 34 52 53
f 34 53 35
f 35 53 52
f 36 41 54
f 36 54 55
f 36 55 56
f 36 56 57
f 36 57 37
f 37 58 59
f 37 59 38
f 37 57 60
f 37 60 58
f 38 59 39
f 39 59 42
f 40 54 41
f 40 61 54
f 42 59 62
f 42 62 43
f 43 62 44
f 44 62 63
f 44 63 46
f 45 47 64
f 45 64 48
f 46 63 65
f 46 65 66
f 46 66 48
f 46 48 47
f 47 48 67
f 47 67 64
f 48 68 69
f 48 69 70
f 48 70 49
f 48 64 67
f 48 66 63
f 48 63 62
f 48 62 71
f 48 71 68
f 49 70 72
f 49 72 50
f 51 73 74
f 51 74 75
f 51 75 52
f 54 57 56
f 54 56 55
f 54 61 57
f 57 61 76
f 57 76 77
f 57 77 78
f 57 78 79
f 57 79 60
f 58 60 80
f 58 80 59
f 59 80 81
f 59 81 62
f 60 79 82
f 60 82 80
f 61 83 77
f 61 77 76
f 62 81 84
f 62 84 71
f 63 66 65
f 68 71 69
f 69 85 86
f 69 86 70
f 69 71 85
f 70 86 72
f 71 87 88
f 71 88 89
f 71 89 90
f 71 90 91
f 71 91 92
f 71 92 93
f 71 84 94
f 71 94 95
f 71 95 81
f 71 81 80
f 71 80 87
f 73 96 97
f 73 97 74
f 77 83 98
f 77 98 99
f 77 99 78
f 78 99 100
f 78 100 101
f 78 101 80
f 78 80 79
f 79 80 82
f 80 101 88
f 80 88 87
f 81 95 94
f 81 94 102
f 81 102 84
f 83 103 104
f 83 104 105
f 83 105 106
f 83 106 99
f 83 99 98
f 84 102 94
f 88 101 100
f 88 100 107
f 88 107 108
f 88 108 89
f 89 109 110
f 89 110 111
f 89 111 112
f 89 112 90
f 89 108 109
f 90 113 92
f 90 92 114
f 90 114 91
f 90 112 113
f 91 114 92
f 92 115 116
f 92 116 117
f 92 117 118
f 92 118 93
f 92 113 115
f 93 118 120
f 93 120 119
f 96 121 122
f 96 122 123
f 96 123 97
f 99 106 100
f 100 106 105
f 100 105 124
f 100 124 107
f 103 125 126
f 103 126 104
f 104 126 127
f 104 127 107
f 104 107 128
f 104 128 105
f 105 128 107
f 105 107 129
f 105 129 124
f 107 127 108
f 107 124 129
f 108 127 109
f 109 130 110
f 109 127 131
f 109 131 130
f 110 130 132
f 110 132 111
f 111 132 133
f 111 133 134
f 111 134 135
f 111 135 136
f 111 136 113
f 111 113 112
f 113 136 116
f 113 116 115
f 116 136 117
f 117 137 120
f 117 120 118
f 117 136 137
f 119 120 138
f 120 137 139
f 120 139 138
f 121 140 141
f 121 141 142
f 121 142 122
f 121 143 140
f 122 142 144
f 122 144 123
f 123 144 145
f 125 146 126
f 126 147 131
f 126 131 127
f 126 146 147
f 130 148 149
f 130 149 132
f 130 131 148
f 131 147 150
f 131 150 151
f 131 151 148
f 132 149 133
f 133 151 152
f 133 152 153
f 133 153 134
f 133 149 151
f 134 153 135
f 135 153 154
f 135 154 155
f 135 155 156
f 135 156 157
f 135 157 158
f 135 158 137
f 135 137 136
f 137 158 159
f 137 159 160
f 137 160 139
f 138 139 161
f 139 160 162
f 139 162 163
f 139 163 164
f 139 164 165
f 139 165 166
f 139 166 161
f 140 143 167
f 140 167 141
f 141 167 168
f 141 168 169
f 141 169 142
f 142 169 144
f 143 170 167
f 143 171 170
f 144 169 168
f 144 168 172
f 144 172 145
f 145 172 173
f 145 173 174
f 146 175 147
f 146 176 150
f 146 150 175
f 147 175 150
f 148 151 149
f 150 176 177
f 150 177 178
f 150 178 152
f 150 152 151
f 152 178 179
f 152 179 153
f 153 179 180
f 153 180 181
f 153 181 154
f 154 156 155
f 154 181 182
f 154 182 183
f 154 183 156
f 156 183 184
f 156 184 159
f 156 159 157
f 157 159 158
f 159 184 185
f 159 185 160
f 160 185 162
f 162 185 186
f 162 186 163
f 163 186 187
f 163 187 188
f 163 188 189
f 163 189 190
f 163 190 191
f 163 191 192
f 163 192 164
f 164 192 165
f 165 192 193
f 167 194 168
f 167 170 195
f 167 195 196
f 167 196 194
f 168 194 197
f 168 197 172
f 170 171 195
f 171 198 192
f 171 192 191
f 171 191 199
f 171 199 195
f 172 197 173
f 173 197 200
f 173 200 201
f 173 201 174
f 174 201 202
f 174 202 203
f 174 203 204
f 177 205 178
f 178 206 207
f 178 207 179
f 178 205 206
f 179 207 180
f 180 207 181
f 181 207 208
f 181 208 182
f 182 184 183
f 182 208 209
f 182 209 210
f 182 210 211
f 182 211 212
f 182 212 213
f 182 213 184
f 184 213 214
f 184 214 185
f 185 214 186
f 186 214 215
f 186 215 187
f 187 215 216
f 187 216 217
f 187 217 218
f 187 218 188
f 188 219 220
f 188 220 190
f 188 190 189
f 188 218 219
f 190 220 221
f 190 221 199
f 190 199 191
f 192 198 193
f 194 196 222
f 194 222 197
f 195 199 196
f 196 199 222
f 197 222 223
f 197 223 224
f 197 224 201
f 197 201 200
f 199 221 222
f 201 221 220
f 201 220 219
f 201 219 225
f 201 225 203
f 201 203 202
f 201 224 221
f 203 225 226
f 203 226 227
f 203 227 204
f 205 207 206
f 205 228 229
f 205 229 207
f 207 230 208
f 207 229 230
f 208 229 231
f 208 231 209
f 208 230 229
f 209 231 232
f 209 232 210
f 210 232 226
f 210 226 233
f 210 233 211
f 211 233 218
f 211 218 234
f 211 234 212
f 212 234 217
f 212 217 216
f 212 216 215
f 212 215 213
f 213 215 214
f 217 234 218
f 218 233 225
f 218 225 219
f 221 224 223
f 221 223 222
f 225 233 226
f 226 232 235
f 226 235 236
f 226 236 227
f 228 237 229
f 229 237 238
f 229 238 231
f 231 238 237
f 231 237 235
f 231 235 232

