# https://github.com/mikedh/trimesh
v 0.01005048 0.02156314 0.00773069
v 0.01005048 0.02361105 0.01162125
v 0.01005048 0.02922846 0.00773069
v 0.02394610 0.00560142 0.00773069
v 0.01005048 0.03108430 0.01162125
v 0.02590117 0.00560142 0.01162125
v 0.01005048 0.02937064 0.00797675
v 0.01033135 0.02913616 0.00773069
v 0.03122676 0.00560142 0.00773069
v 0.01023183 0.03102443 0.01162125
v 0.01047511 0.02979968 0.00907262
v 0.01005048 0.03009402 0.00946076
v 0.03264219 0.00560142 0.01162125
v 0.01005048 0.02956021 0.00831804
v 0.01081349 0.02896654 0.00773069
v 0.03120022 0.00574859 0.00773069
v 0.03164917 0.00560142 0.00867381
v 0.01044194 0.03095459 0.01162125
v 0.01005048 0.02983709 0.00890387
v 0.01133764 0.02965001 0.00940476
v 0.01086436 0.02945794 0.00865095
v 0.03258027 0.00560142 0.01139918
v 0.03147225 0.01092699 0.01162125
v 0.01186401 0.02857742 0.00773069
v 0.03099675 0.00672391 0.00773069
v 0.03096136 0.00704319 0.00780001
v 0.03161821 0.00574859 0.00866504
v 0.03170004 0.00560142 0.00879417
v 0.01092186 0.03073508 0.01162125
v 0.01404909 0.02840031 0.00929811
v 0.01174458 0.02982961 0.01026751
v 0.01339003 0.02824566 0.00834318
v 0.01272433 0.02838784 0.00803427
v 0.01187728 0.02857243 0.00773069
v 0.03253604 0.00560142 0.01125330
v 0.03229497 0.00560142 0.01047435
v 0.03223083 0.00574859 0.01037493
v 0.03202073 0.00574859 0.00972777
v 0.03134397 0.01092699 0.01125330
v 0.03114271 0.01215673 0.01162125
v 0.03092598 0.00704319 0.00773069
v 0.03132849 0.00704319 0.00866504
v 0.03087069 0.00773165 0.00799351
v 0.03203621 0.00560142 0.00967978
v 0.01177333 0.03033847 0.01162125
v 0.01588253 0.02726286 0.00878198
v 0.01456219 0.02791889 0.00878617
v 0.01458209 0.02740754 0.00773069
v 0.01422381 0.02757217 0.00773069
v 0.01882619 0.02695106 0.01162125
v 0.01664332 0.02711070 0.00929164
v 0.01302953 0.02810098 0.00773069
v 0.03113608 0.00970223 0.00986718
v 0.03149215 0.00833779 0.00995898
v 0.03098790 0.01092699 0.01027627
v 0.03089059 0.01164787 0.01053529
v 0.03095251 0.01266559 0.01162125
v 0.03065616 0.00799107 0.00773069
v 0.03083309 0.01017866 0.00937467
v 0.03055000 0.00834777 0.00773069
v 0.03063846 0.00970223 0.00868104
v 0.01538712 0.02713066 0.00795923
v 0.01501778 0.02720050 0.00773069
v 0.01987229 0.02635989 0.01162125
v 0.01864484 0.02626759 0.00989042
v 0.01826665 0.02601566 0.00891378
v 0.01726479 0.02645717 0.00867114
v 0.01625187 0.02689868 0.00842888
v 0.02960785 0.01166284 0.00794514
v 0.03056327 0.01359850 0.01162125
v 0.03070703 0.01092699 0.00962988
v 0.03024037 0.01092699 0.00866504
v 0.03014306 0.00966232 0.00773069
v 0.02975382 0.01091451 0.00773069
v 0.01561492 0.02687124 0.00773069
v 0.01788847 0.02578867 0.00805103
v 0.02050039 0.02596577 0.01162125
v 0.01987893 0.02618777 0.01126701
v 0.01946093 0.02597325 0.01027627
v 0.01912919 0.02574876 0.00941391
v 0.02974939 0.01092699 0.00773069
v 0.02973834 0.01095692 0.00773069
v 0.02939332 0.01187486 0.00773069
v 0.02880945 0.01314701 0.00773069
v 0.02940880 0.01252590 0.00834051
v 0.02964545 0.01431938 0.01045111
v 0.03017624 0.01442165 0.01162125
v 0.01719844 0.02598573 0.00773069
v 0.01864484 0.02557664 0.00855534
v 0.01937468 0.02463625 0.00782248
v 0.01920217 0.02469362 0.00773069
v 0.01820694 0.02536462 0.00773069
v 0.01767836 0.02570136 0.00773069
v 0.02074588 0.02578368 0.01162125
v 0.02032346 0.02566894 0.01084535
v 0.01987893 0.02545691 0.00989042
v 0.01982806 0.02483830 0.00875037
v 0.02866349 0.01345382 0.00773069
v 0.02833838 0.01429194 0.00789600
v 0.02852637 0.01475840 0.00871152
v 0.02917879 0.01477336 0.00999555
v 0.02942207 0.01518245 0.01089258
v 0.02999931 0.01477586 0.01162125
v 0.02839809 0.01399760 0.00773069
v 0.01947199 0.02450654 0.00773069
v 0.02130984 0.02533219 0.01162125
v 0.02056011 0.02455643 0.00923869
v 0.02023721 0.02429951 0.00837594
v 0.02813712 0.01445657 0.00773069
v 0.02783855 0.01497291 0.00773069
v 0.02810173 0.01515501 0.00831119
v 0.02834280 0.01556908 0.00917432
v 0.02969410 0.01533211 0.01162125
v 0.02004480 0.02406004 0.00773069
v 0.02202862 0.02471857 0.01162125
v 0.02201977 0.02470859 0.01159002
v 0.02193131 0.02332669 0.00912365
v 0.02079454 0.02346388 0.00773069
v 0.02070828 0.02353372 0.00773069
v 0.02736084 0.01575616 0.00773069
v 0.02695612 0.01671900 0.00805636
v 0.02854185 0.01584596 0.00995898
v 0.02946852 0.01570128 0.01162125
v 0.02718612 0.01703330 0.00891911
v 0.02809068 0.01649450 0.00995898
v 0.02269653 0.02410245 0.01162125
v 0.02284913 0.02298745 0.00995898
v 0.02244662 0.02257088 0.00867266
v 0.02163053 0.02306727 0.00826091
v 0.02088521 0.02338655 0.00773069
v 0.02717285 0.01605299 0.00773069
v 0.02687428 0.01650947 0.00773069
v 0.02651379 0.01704826 0.00773069
v 0.02585251 0.01797369 0.00773069
v 0.02577953 0.01817823 0.00784648
v 0.02669957 0.01743739 0.00855877
v 0.02825212 0.01672648 0.01064461
v 0.02906379 0.01624007 0.01162125
v 0.02599848 0.01845511 0.00866504
v 0.02686986 0.01789636 0.00957122
v 0.02321184 0.02356366 0.01162125
v 0.02306587 0.02318950 0.01065680
v 0.02322511 0.02207449 0.00908442
v 0.02295971 0.02178514 0.00822167
v 0.02221882 0.02214683 0.00773069
v 0.02203526 0.02231895 0.00773069
v 0.02144033 0.02287520 0.00773069
v 0.02561587 0.01830295 0.00773069
v 0.02550087 0.01910365 0.00866504
v 0.02567116 0.01932067 0.00934001
v 0.02855069 0.01689860 0.01162125
v 0.02328703 0.02347635 0.01162125
v 0.02344627 0.02233890 0.00995898
v 0.02479315 0.01998917 0.00873246
v 0.02456535 0.01961501 0.00773069
v 0.02330030 0.02102435 0.00773069
v 0.02276509 0.02159557 0.00773069
v 0.02462507 0.01954267 0.00773069
v 0.02459632 0.01957759 0.00773069
f 1 2 5
f 1 5 12
f 1 12 19
f 1 19 14
f 1 14 7
f 1 7 3
f 1 3 8
f 1 8 15
f 1 15 24
f 1 24 34
f 1 34 52
f 1 52 49
f 1 49 48
f 1 48 63
f 1 63 75
f 1 75 88
f 1 88 93
f 1 93 92
f 1 92 91
f 1 91 105
f 1 105 114
f 1 114 119
f 1 119 118
f 1 118 130
f 1 130 147
f 1 147 146
f 1 146 145
f 1 145 157
f 1 157 156
f 1 156 155
f 1 155 159
f 1 159 158
f 1 158 148
f 1 148 134
f 1 134 133
f 1 133 132
f 1 132 131
f 1 131 120
f 1 120 110
f 1 110 109
f 1 109 104
f 1 104 98
f 1 98 84
f 1 84 83
f 1 83 82
f 1 82 81
f 1 81 74
f 1 74 73
f 1 73 60
f 1 60 58
f 1 58 41
f 1 41 25
f 1 25 16
f 1 16 9
f 1 9 4
f 1 4 2
f 2 4 6
f 2 6 13
f 2 13 23
f 2 23 40
f 2 40 57
f 2 57 70
f 2 70 87
f 2 87 103
f 2 103 113
f 2 113 123
f 2 123 138
f 2 138 151
f 2 151 152
f 2 152 141
f 2 141 126
f 2 126 115
f 2 115 106
f 2 106 94
f 2 94 77
f 2 77 64
f 2 64 50
f 2 50 45
f 2 45 29
f 2 29 18
f 2 18 10
f 2 10 5
f 3 7 8
f 4 9 17
f 4 17 28
f 4 28 44
f 4 44 36
f 4 36 35
f 4 35 22
f 4 22 13
f 4 13 6
f 5 10 11
f 5 11 12
f 7 14 8
f 8 14 15
f 9 16 17
f 10 18 11
f 11 19 12
f 11 18 20
f 11 20 21
f 11 21 14
f 11 14 19
f 13 22 23
f 14 21 15
f 15 21 24
f 16 25 26
f 16 26 27
f 16 27 17
f 17 27 28
f 18 29 30
f 18 30 31
f 18 31 20
f 20 31 30
f 20 30 32
f 20 32 33
f 20 33 21
f 21 33 34
f 21 34 24
f 22 35 23
f 23 35 36
f 23 36 37
f 23 37 38
f 23 38 39
f 23 39 40
f 25 41 26
f 26 42 27
f 26 41 43
f 26 43 42
f 27 44 28
f 27 42 44
f 29 45 30
f 30 46 47
f 30 47 48
f 30 48 49
f 30 49 32
f 30 45 50
f 30 50 51
f 30 51 46
f 32 49 33
f 33 49 52
f 33 52 34
f 36 44 38
f 36 38 37
f 38 44 42
f 38 42 53
f 38 53 54
f 38 54 39
f 39 54 53
f 39 53 55
f 39 55 56
f 39 56 40
f 40 56 57
f 41 58 43
f 42 43 59
f 42 59 53
f 43 58 60
f 43 60 61
f 43 61 59
f 46 51 62
f 46 62 47
f 47 62 63
f 47 63 48
f 50 64 65
f 50 65 51
f 51 65 66
f 51 66 67
f 51 67 68
f 51 68 62
f 53 59 55
f 55 59 56
f 56 69 70
f 56 70 57
f 56 59 71
f 56 71 72
f 56 72 69
f 59 72 71
f 59 61 72
f 60 73 61
f 61 73 74
f 61 74 72
f 62 75 63
f 62 68 76
f 62 76 75
f 64 77 78
f 64 78 79
f 64 79 65
f 65 79 66
f 66 79 80
f 66 80 76
f 66 76 67
f 67 76 68
f 69 72 74
f 69 74 81
f 69 81 82
f 69 82 83
f 69 83 84
f 69 84 85
f 69 85 86
f 69 86 70
f 70 86 87
f 75 76 88
f 76 80 89
f 76 89 90
f 76 90 91
f 76 91 92
f 76 92 93
f 76 93 88
f 77 94 95
f 77 95 80
f 77 80 79
f 77 79 78
f 80 95 96
f 80 96 97
f 80 97 90
f 80 90 89
f 84 98 86
f 84 86 85
f 86 99 100
f 86 100 101
f 86 101 102
f 86 102 103
f 86 103 87
f 86 98 104
f 86 104 99
f 90 97 105
f 90 105 91
f 94 106 107
f 94 107 95
f 95 107 97
f 95 97 96
f 97 107 108
f 97 108 105
f 99 109 110
f 99 110 111
f 99 111 100
f 99 104 109
f 100 111 112
f 100 112 101
f 101 112 102
f 102 112 113
f 102 113 103
f 105 108 114
f 106 115 116
f 106 116 117
f 106 117 107
f 107 118 119
f 107 119 108
f 107 117 118
f 108 119 114
f 110 120 111
f 111 120 121
f 111 121 112
f 112 122 123
f 112 123 113
f 112 121 124
f 112 124 125
f 112 125 122
f 115 126 116
f 116 126 127
f 116 127 117
f 117 127 128
f 117 128 129
f 117 129 130
f 117 130 118
f 120 131 121
f 121 131 132
f 121 132 133
f 121 133 134
f 121 134 135
f 121 135 136
f 121 136 124
f 122 125 123
f 123 125 137
f 123 137 138
f 124 136 139
f 124 139 140
f 124 140 125
f 125 140 137
f 126 141 142
f 126 142 127
f 127 142 143
f 127 143 128
f 128 143 144
f 128 144 129
f 129 144 145
f 129 145 146
f 129 146 147
f 129 147 130
f 134 148 135
f 135 148 149
f 135 149 139
f 135 139 136
f 137 140 150
f 137 150 138
f 138 150 151
f 139 149 150
f 139 150 140
f 141 152 142
f 142 153 143
f 142 152 153
f 143 153 150
f 143 150 154
f 143 154 155
f 143 155 144
f 144 156 157
f 144 157 145
f 144 155 156
f 148 158 149
f 149 158 159
f 149 159 155
f 149 155 154
f 149 154 150
f 150 153 152
f 150 152 151

