# https://github.com/mikedh/trimesh
v 0.04511933 0.00004545 0.05739673
v 0.04511933 -0.00032455 0.05739673
v 0.04510268 -0.00003743 0.05713969
v 0.04506937 0.00027930 0.05739673
v 0.04505271 -0.00098908 0.05739673
v 0.04510268 -0.00015435 0.05713969
v 0.04417670 0.00057086 0.05137272
v 0.04453476 0.00057086 0.05396116
v 0.04492780 0.00046430 0.05664373
v 0.04380864 -0.00003447 0.04808558
v 0.04497943 0.00069666 0.05739673
v 0.04468299 -0.00195405 0.05739673
v 0.04399350 -0.00176608 0.05137272
v 0.04390023 -0.00157960 0.05007669
v 0.04383362 -0.00144196 0.04922233
v 0.04425164 -0.00072415 0.05137272
v 0.04380864 -0.00015731 0.04808558
v 0.04386359 0.00022602 0.04878428
v 0.04396019 0.00065818 0.05001153
v 0.04378532 0.00114806 0.04953366
v 0.04471296 0.00057086 0.05525357
v 0.04250960 -0.00005963 0.04035285
v 0.04296926 0.00057086 0.04360740
v 0.04318243 0.00057086 0.04489981
v 0.04338562 0.00057086 0.04619584
v 0.04475460 0.00120726 0.05739673
v 0.04385027 0.00130347 0.05039889
v 0.04124887 -0.00951839 0.05739673
v 0.04061101 -0.00951839 0.05266513
v 0.04109565 -0.00951839 0.05624551
v 0.04092744 -0.00951839 0.05499654
v 0.04042948 -0.00951839 0.05137272
v 0.04023462 -0.00951839 0.05007669
v 0.04406345 -0.00072415 0.05007669
v 0.03943022 -0.00951839 0.04491791
v 0.04273943 -0.00184008 0.04360740
v 0.04262618 -0.00162104 0.04231137
v 0.04254624 -0.00145676 0.04144976
v 0.04304087 -0.00072415 0.04360740
v 0.04376367 -0.00102016 0.04835710
v 0.04325071 -0.00072415 0.04489981
v 0.04250960 -0.00010995 0.04035285
v 0.04387026 -0.00064275 0.04878790
v 0.04372703 0.00087278 0.04878428
v 0.04249961 0.00118654 0.04170318
v 0.04257788 0.00133898 0.04256479
v 0.04202163 0.00057086 0.03843414
v 0.04230975 0.00045098 0.03984240
v 0.04257122 0.00023785 0.04101896
v 0.04183677 -0.00072415 0.03713811
v 0.04155864 -0.00072415 0.03584570
v 0.04130050 0.00034738 0.03482119
v 0.04176848 0.00057086 0.03713811
v 0.04269613 0.00068186 0.04220639
v 0.04440319 0.00190435 0.05739673
v 0.04391855 0.00141742 0.05137272
v 0.04400849 0.00155211 0.05266513
v 0.04144539 0.00560142 0.05141616
v 0.04266781 0.00148551 0.04360740
v 0.04042115 0.00560142 0.04489981
v 0.03657234 -0.00951839 0.05739673
v 0.03921038 -0.00951839 0.04360740
v 0.04246463 -0.00097280 0.04058454
v 0.04281104 -0.00072415 0.04231137
v 0.03897389 -0.00951839 0.04231137
v 0.03826442 -0.00951839 0.03842690
v 0.03801127 -0.00951839 0.03713811
v 0.04135212 -0.00165952 0.03584570
v 0.04125720 -0.00146564 0.03500944
v 0.04208658 -0.00072415 0.03843414
v 0.04258288 -0.00061463 0.04101896
v 0.04121056 0.00121022 0.03520493
v 0.04130883 0.00137894 0.03606653
v 0.04142207 0.00155655 0.03713811
v 0.04020298 0.00560142 0.04358568
v 0.03923203 0.00560142 0.03841966
v 0.04131049 -0.00072415 0.03477412
v 0.04115893 -0.00072415 0.03412611
v 0.04065098 -0.00072415 0.03196123
v 0.04034621 -0.00072415 0.03066882
v 0.04027792 0.00057086 0.03066882
v 0.04058769 0.00057086 0.03196123
v 0.04114395 0.00069518 0.03445555
v 0.04143540 0.00069518 0.03571900
v 0.04224979 0.00560142 0.05739673
v 0.04161693 0.00560142 0.05266513
v 0.04023462 0.00560142 0.04377393
v 0.03727682 0.00560142 0.05739673
v 0.02810696 -0.00951839 0.02041281
v 0.03773148 -0.00951839 0.03584570
v 0.03688045 -0.00951839 0.03197933
v 0.03658400 -0.00951839 0.03066882
v 0.03626757 -0.00951839 0.02931487
v 0.04009806 -0.00174092 0.03066882
v 0.03998647 -0.00151448 0.02979635
v 0.03994151 0.00125906 0.02994116
v 0.04003144 0.00140855 0.03066882
v 0.03781308 0.00560142 0.03196485
v 0.03896723 0.00560142 0.03706933
v 0.03900720 0.00560142 0.03726844
v 0.04005309 -0.00072415 0.02957552
v 0.04001978 0.00057086 0.02968413
v 0.02919615 0.00560142 0.02041281
v 0.03410751 -0.00951839 0.02041281
v 0.03501183 -0.00951839 0.02411627
v 0.03463211 -0.00951839 0.02255234
v 0.03440229 -0.00951839 0.02161471
v 0.03873407 -0.00161216 0.02577070
v 0.03860417 -0.00116816 0.02490909
v 0.03856420 0.00090682 0.02504304
v 0.03869243 0.00134342 0.02590826
v 0.03495521 0.00560142 0.02041281
v 0.03497020 0.00560142 0.02046711
v 0.03526165 0.00560142 0.02161471
v 0.03655236 0.00560142 0.02678797
v 0.03752164 0.00560142 0.03072674
v 0.03754995 0.00560142 0.03084621
v 0.03864580 -0.00030531 0.02477152
v 0.03864580 0.00004397 0.02477152
v 0.03982659 0.00057086 0.02903611
v 0.03677885 -0.00202064 0.02041281
v 0.03746501 -0.00168172 0.02188623
v 0.03730680 -0.00112080 0.02102462
v 0.03801460 -0.00072415 0.02290350
v 0.03845428 -0.00073155 0.02428280
v 0.03954014 0.00057086 0.02808038
v 0.03840931 0.00051314 0.02428280
v 0.03796131 0.00057086 0.02290350
v 0.03743004 0.00141447 0.02196949
v 0.03667227 0.00186439 0.02041281
v 0.03734677 -0.00025795 0.02091602
v 0.03734677 0.00003213 0.02091602
v 0.03711027 -0.00073895 0.02041281
v 0.03752663 -0.00070343 0.02151697
v 0.03711860 -0.00070343 0.02041281
v 0.03712027 -0.00070343 0.02041642
v 0.03750665 0.00050722 0.02156765
v 0.03727848 0.00089498 0.02110788
v 0.03671890 0.00174303 0.02041281
v 0.03708862 0.00050722 0.02041281
v 0.03709029 0.00050722 0.02041642
f 1 2 6
f 1 6 3
f 1 3 4
f 1 4 11
f 1 11 26
f 1 26 55
f 1 55 85
f 1 85 88
f 1 88 61
f 1 61 28
f 1 28 12
f 1 12 5
f 1 5 2
f 2 5 6
f 3 7 8
f 3 8 9
f 3 9 4
f 3 6 17
f 3 17 10
f 3 10 7
f 4 9 11
f 5 12 13
f 5 13 14
f 5 14 15
f 5 15 16
f 5 16 6
f 6 16 17
f 7 10 18
f 7 18 19
f 7 19 20
f 7 20 8
f 8 20 11
f 8 11 21
f 8 21 9
f 9 21 11
f 10 17 42
f 10 42 22
f 10 22 23
f 10 23 24
f 10 24 25
f 10 25 18
f 11 20 27
f 11 27 26
f 12 28 13
f 13 29 14
f 13 28 30
f 13 30 31
f 13 31 29
f 14 29 32
f 14 32 33
f 14 33 15
f 15 34 16
f 15 33 35
f 15 35 36
f 15 36 37
f 15 37 38
f 15 38 39
f 15 39 40
f 15 40 34
f 16 34 17
f 17 41 39
f 17 39 42
f 17 34 43
f 17 43 41
f 18 44 20
f 18 20 19
f 18 25 44
f 20 44 24
f 20 24 45
f 20 45 46
f 20 46 27
f 22 47 48
f 22 48 49
f 22 49 23
f 22 42 50
f 22 50 51
f 22 51 52
f 22 52 53
f 22 53 47
f 23 49 54
f 23 54 45
f 23 45 24
f 24 44 25
f 26 27 56
f 26 56 57
f 26 57 55
f 27 58 56
f 27 46 59
f 27 59 60
f 27 60 58
f 28 61 89
f 28 89 104
f 28 104 107
f 28 107 106
f 28 106 105
f 28 105 93
f 28 93 92
f 28 92 91
f 28 91 90
f 28 90 67
f 28 67 66
f 28 66 65
f 28 65 62
f 28 62 35
f 28 35 33
f 28 33 32
f 28 32 29
f 28 29 31
f 28 31 30
f 34 40 43
f 35 62 37
f 35 37 36
f 37 62 38
f 38 63 64
f 38 64 39
f 38 62 65
f 38 65 66
f 38 66 67
f 38 67 68
f 38 68 69
f 38 69 50
f 38 50 63
f 39 41 40
f 39 64 42
f 40 41 43
f 42 70 50
f 42 64 71
f 42 71 70
f 45 54 49
f 45 49 48
f 45 48 47
f 45 47 53
f 45 53 72
f 45 72 73
f 45 73 74
f 45 74 46
f 46 75 59
f 46 74 76
f 46 76 75
f 50 69 51
f 50 70 63
f 51 69 77
f 51 77 52
f 52 77 78
f 52 78 79
f 52 79 80
f 52 80 81
f 52 81 82
f 52 82 83
f 52 83 72
f 52 72 84
f 52 84 53
f 53 84 72
f 55 57 85
f 56 58 86
f 56 86 85
f 56 85 57
f 58 60 87
f 58 87 75
f 58 75 76
f 58 76 100
f 58 100 99
f 58 99 98
f 58 98 117
f 58 117 116
f 58 116 115
f 58 115 114
f 58 114 113
f 58 113 112
f 58 112 103
f 58 103 88
f 58 88 85
f 58 85 86
f 59 75 87
f 59 87 60
f 61 88 89
f 63 70 71
f 63 71 64
f 67 90 68
f 68 90 91
f 68 91 69
f 69 78 77
f 69 91 92
f 69 92 93
f 69 93 94
f 69 94 95
f 69 95 80
f 69 80 79
f 69 79 78
f 72 83 82
f 72 82 96
f 72 96 97
f 72 97 98
f 72 98 73
f 73 98 99
f 73 99 74
f 74 99 100
f 74 100 76
f 80 95 101
f 80 101 102
f 80 102 81
f 81 102 96
f 81 96 82
f 88 103 89
f 89 103 112
f 89 112 130
f 89 130 139
f 89 139 140
f 89 140 135
f 89 135 133
f 89 133 121
f 89 121 104
f 93 105 94
f 94 105 106
f 94 106 95
f 95 106 107
f 95 107 104
f 95 104 108
f 95 108 109
f 95 109 101
f 96 102 110
f 96 110 111
f 96 111 112
f 96 112 113
f 96 113 114
f 96 114 115
f 96 115 97
f 97 116 117
f 97 117 98
f 97 115 116
f 101 109 118
f 101 118 119
f 101 119 102
f 102 119 120
f 102 120 110
f 104 121 122
f 104 122 108
f 108 122 109
f 109 122 123
f 109 123 124
f 109 124 125
f 109 125 118
f 110 120 126
f 110 126 119
f 110 119 127
f 110 127 128
f 110 128 129
f 110 129 111
f 111 129 112
f 112 129 130
f 118 125 124
f 118 124 131
f 118 131 132
f 118 132 119
f 119 132 128
f 119 128 127
f 119 126 120
f 121 133 123
f 121 123 122
f 123 134 124
f 123 133 135
f 123 135 136
f 123 136 131
f 123 131 134
f 124 134 131
f 128 132 137
f 128 137 138
f 128 138 129
f 129 138 139
f 129 139 130
f 131 136 132
f 132 136 135
f 132 135 140
f 132 140 141
f 132 141 137
f 137 141 138
f 138 141 139
f 139 141 140

