# https://github.com/mikedh/trimesh
v 0.00432796 0.07205160 0.09128394
v 0.00303360 0.07205160 0.09128631
v 0.00507963 0.07205160 0.09129221
v 0.00562232 0.06026998 0.09353423
v 0.00432796 0.06026998 0.09352006
v -0.00069779 0.06026998 0.09351652
v -0.00214047 0.06026998 0.09351652
v 0.00249428 0.07205160 0.09128749
v 0.00562232 0.07205160 0.09129929
v 0.00567625 0.06026998 0.09353659
v -0.00339438 0.06026998 0.09354367
v -0.00214047 0.07205160 0.09129929
v -0.00138205 0.07205160 0.09129693
v 0.00044657 0.07205160 0.09129221
v 0.00623748 0.07205160 0.09133353
v 0.00698915 0.06026998 0.09360388
v -0.00343483 0.06026998 0.09354485
v -0.00343483 0.07205160 0.09133471
v 0.00686780 0.07205160 0.09136895
v 0.00821104 0.06026998 0.09386244
v -0.00475109 0.06026998 0.09362396
v -0.00403144 0.07205160 0.09138312
v 0.00821104 0.07205160 0.09178099
v 0.00910765 0.06026998 0.09440435
v -0.00500727 0.06026998 0.09371959
v -0.00472918 0.07205160 0.09144923
v 0.00833407 0.07205160 0.09186245
v 0.00903855 0.07205160 0.09238193
v 0.00916495 0.07205160 0.09254014
v 0.00960652 0.06026998 0.09537719
v -0.00603534 0.06026998 0.09410683
v -0.00570670 0.07205160 0.09184239
v 0.00966045 0.07205160 0.09378216
v 0.00985764 0.06026998 0.09667116
v -0.00616680 0.06026998 0.09420010
v -0.00673814 0.06026998 0.09463103
v -0.00629826 0.07205160 0.09237131
v 0.00971101 0.07205160 0.09408322
v 0.00986269 0.06139912 0.09667116
v 0.00987449 0.06269320 0.09796395
v 0.00986606 0.06139912 0.09796395
v 0.00985427 0.06026998 0.09796395
v 0.00980033 0.07205160 0.09507613
v -0.00677690 0.06026998 0.09470187
v -0.00686117 0.07205160 0.09305253
v 0.00986606 0.06657427 0.09667116
v 0.00987955 0.06398727 0.09796395
v 0.00958798 0.06398727 0.09925792
v 0.00957281 0.06269320 0.09925792
v 0.00952731 0.06139912 0.09925792
v 0.00947843 0.06026998 0.09925792
v 0.00979191 0.07205160 0.09537719
v 0.00980876 0.07175173 0.09537719
v 0.00985595 0.06916358 0.09667116
v 0.00986606 0.06786950 0.09667116
v -0.00706510 0.06026998 0.09536420
v -0.00711397 0.06026998 0.09554248
v -0.00712746 0.07205160 0.09408322
v 0.00987449 0.06528135 0.09796395
v 0.00907900 0.06398727 0.10015993
v 0.00906552 0.06269320 0.10015875
v 0.00984753 0.06657427 0.09796395
v 0.00978348 0.06786950 0.09796395
v 0.00951551 0.06528135 0.09925792
v 0.00902338 0.06139912 0.10012214
v 0.00898125 0.06026998 0.10007138
v 0.00967225 0.07205160 0.09637010
v 0.00981719 0.07045765 0.09667116
v -0.00733476 0.06026998 0.09667116
v -0.00733644 0.06139912 0.09667116
v -0.00722858 0.07175173 0.09537719
v -0.00721173 0.07205160 0.09537719
v 0.00900821 0.06528135 0.10007728
v 0.00851103 0.06398727 0.10080691
v 0.00851440 0.06269320 0.10080573
v 0.00792621 0.06026998 0.10142792
v 0.00849081 0.06026998 0.10071954
v 0.00967730 0.06916358 0.09796395
v 0.00927956 0.06786950 0.09913514
v 0.00855654 0.06026998 0.10063572
v 0.00956438 0.07205160 0.09668533
v 0.00965202 0.07175173 0.09667116
v -0.00733476 0.06026998 0.09796395
v -0.00733644 0.06139912 0.09796395
v -0.00733813 0.06269320 0.09796395
v -0.00733644 0.06398727 0.09796395
v -0.00731116 0.06657427 0.09667116
v -0.00730274 0.06786950 0.09667116
v -0.00728757 0.06916358 0.09667116
v -0.00724880 0.07045765 0.09667116
v -0.00708701 0.07175173 0.09667116
v -0.00702634 0.07205160 0.09666408
v 0.00917844 0.06916358 0.09897457
v 0.00891552 0.06622250 0.09997220
v 0.00844025 0.06528135 0.10072427
v 0.00786385 0.06398727 0.10153182
v 0.00786722 0.06269320 0.10153300
v 0.00786048 0.06139912 0.10153064
v 0.00784363 0.06026998 0.10152473
v 0.00933855 0.07057529 0.09808792
v 0.00919698 0.07205160 0.09751531
v 0.00917675 0.07175173 0.09774790
v -0.00729262 0.06026998 0.09811980
v -0.00703139 0.06398727 0.09925792
v -0.00732802 0.06528135 0.09796395
v -0.00729431 0.06657427 0.09796395
v -0.00721678 0.06786950 0.09796395
v -0.00710555 0.06916358 0.09796395
v -0.00692353 0.07039767 0.09800055
v -0.00680724 0.07175173 0.09753184
v -0.00674825 0.07205160 0.09743857
v 0.00903181 0.07022236 0.09879866
v 0.00859193 0.06916358 0.09962156
v 0.00874361 0.06786950 0.09978212
v 0.00883125 0.06708521 0.09987421
v 0.00779307 0.06528135 0.10144917
v 0.00691668 0.06398727 0.10215755
v 0.00691668 0.06269320 0.10216581
v 0.00691668 0.06139912 0.10216345
v 0.00691668 0.06026998 0.10215755
v 0.00703802 0.06026998 0.10207609
v 0.00911271 0.07205160 0.09765463
v 0.00884979 0.07108508 0.09860149
v -0.00700274 0.06026998 0.09914694
v -0.00669937 0.06398727 0.09993679
v -0.00669600 0.06474388 0.09993443
v -0.00694881 0.06521791 0.09933584
v -0.00697240 0.06657427 0.09905486
v -0.00690330 0.06786950 0.09890964
v -0.00679713 0.06916358 0.09875970
v -0.00671623 0.06992710 0.09866052
v -0.00654264 0.07078982 0.09845745
v -0.00631174 0.07175173 0.09817883
v -0.00621905 0.07205160 0.09810326
v 0.00762453 0.07122579 0.09997220
v 0.00776105 0.07045765 0.10011388
v 0.00794475 0.06916358 0.10030868
v 0.00757060 0.06724668 0.10120596
v 0.00764981 0.06657427 0.10128861
v 0.00691668 0.06528135 0.10198872
v 0.00615321 0.06398727 0.10247278
v 0.00619703 0.06269320 0.10247986
v 0.00619871 0.06139912 0.10247868
v 0.00619703 0.06026998 0.10247868
v 0.00628804 0.06026998 0.10243854
v 0.00878238 0.07205160 0.09808438
v 0.00859024 0.07205160 0.09831696
v 0.00790599 0.07205160 0.09913868
v 0.00797509 0.07169406 0.09927445
v -0.00695218 0.06026998 0.09922959
v -0.00668252 0.06319261 0.09991907
v -0.00544209 0.06026998 0.10128742
v -0.00548086 0.06398727 0.10132166
v -0.00545726 0.06497917 0.10128979
v -0.00535445 0.06584189 0.10117645
v -0.00555164 0.06916358 0.10009617
v -0.00544378 0.07003437 0.09997693
v -0.00530726 0.07089708 0.09983171
v -0.00566456 0.07175173 0.09895096
v -0.00558703 0.07205160 0.09885887
v -0.00599152 0.07205160 0.09837599
v 0.00728577 0.07205160 0.09967705
v 0.00718297 0.07205160 0.09975497
v 0.00683747 0.07169406 0.10013159
v 0.00691668 0.07045765 0.10062627
v 0.00735993 0.06810940 0.10109380
v 0.00692342 0.06775416 0.10137125
v 0.00649871 0.06884409 0.10128388
v 0.00568973 0.06529634 0.10237951
v 0.00530210 0.06487421 0.10255070
v 0.00550603 0.06398727 0.10259084
v 0.00432796 0.06269320 0.10283995
v 0.00303360 0.06139912 0.10310914
v 0.00303360 0.06026998 0.10313275
v 0.00320045 0.06026998 0.10310087
v 0.00554985 0.06269320 0.10260855
v 0.00448470 0.06026998 0.10283877
v 0.00555153 0.06139912 0.10261563
v -0.00658308 0.06026998 0.09979393
v -0.00472918 0.06026998 0.10187656
v -0.00472918 0.06398727 0.10190962
v -0.00484547 0.06535862 0.10166051
v -0.00524659 0.06657427 0.10107964
v -0.00502581 0.06786950 0.10090963
v -0.00481682 0.07046226 0.10033348
v -0.00437189 0.07175173 0.10011034
v -0.00501907 0.07175173 0.09959794
v -0.00492637 0.07205160 0.09949169
v 0.00660994 0.07205160 0.10004068
v 0.00562232 0.07175173 0.10049050
v 0.00565771 0.07043343 0.10104658
v 0.00692342 0.06923047 0.10098873
v 0.00611445 0.06970681 0.10117291
v 0.00562232 0.06657427 0.10206782
v 0.00471054 0.06573693 0.10244681
v 0.00429931 0.06529634 0.10262626
v 0.00303360 0.06528135 0.10285294
v 0.00303360 0.06398727 0.10302650
v 0.00432796 0.06398727 0.10279981
v 0.00303360 0.06269320 0.10306900
v 0.00173924 0.06026998 0.10334409
v 0.00190609 0.06026998 0.10331811
v -0.00377358 0.06026998 0.10243618
v -0.00375167 0.06398727 0.10243500
v -0.00459941 0.06657427 0.10154480
v -0.00438031 0.06786950 0.10137715
v -0.00419829 0.06875990 0.10126263
v -0.00467020 0.06917972 0.10080455
v -0.00379044 0.06962261 0.10115047
v -0.00338932 0.07038153 0.10100880
v -0.00343483 0.07175173 0.10043265
v -0.00425223 0.07205160 0.10002415
v -0.00460952 0.07205160 0.09974198
v 0.00593580 0.07205160 0.10025319
v 0.00456560 0.07084864 0.10112450
v 0.00562232 0.07205160 0.10031813
v 0.00303360 0.07187052 0.10090372
v 0.00370269 0.07111161 0.10120360
v 0.00525154 0.06998592 0.10124728
v 0.00303360 0.06696411 0.10242673
v 0.00432796 0.06786950 0.10196511
v 0.00303360 0.06631707 0.10259675
v 0.00384763 0.06604603 0.10252354
v 0.00562232 0.06786950 0.10173606
v 0.00173924 0.06528135 0.10304775
v 0.00173924 0.06398727 0.10322130
v 0.00173924 0.06269320 0.10326498
v 0.00173924 0.06139912 0.10330748
v 0.00044657 0.06026998 0.10329332
v 0.00044657 0.06398727 0.10317998
v -0.00299832 0.06478425 0.10253063
v -0.00343145 0.06524214 0.10233937
v -0.00343483 0.06657427 0.10199816
v -0.00152531 0.06594915 0.10249875
v -0.00084779 0.06617290 0.10256015
v 0.00043140 0.06662963 0.10266522
v 0.00085105 0.06738278 0.10253653
v -0.00139216 0.07103895 0.10118117
v -0.00343483 0.07205160 0.10026264
v -0.00052926 0.07121426 0.10125437
v -0.00091521 0.07168829 0.10092733
v 0.00044657 0.07202392 0.10099109
v 0.00302517 0.07205160 0.10080101
v 0.00175778 0.07205160 0.10100526
v 0.00303360 0.07122348 0.10125909
v 0.00173924 0.07045765 0.10167703
v 0.00303360 0.07045765 0.10149286
v 0.00421167 0.07043343 0.10130160
v 0.00303360 0.06786950 0.10218707
v 0.00232069 0.06719247 0.10248576
v 0.00182857 0.06668615 0.10268057
v 0.00145779 0.06738278 0.10253653
v 0.00044657 0.06528135 0.10301233
v 0.00044657 0.07045765 0.10164161
v 0.00044657 0.07205160 0.10097456
v 0.00044657 0.07137688 0.10133465
v 0.00173924 0.07140802 0.10135118
v 0.00173419 0.07205160 0.10100880
v 0.00048365 0.07205160 0.10097574
v 0.00173924 0.06916358 0.10202532
f 1 2 8
f 1 8 14
f 1 14 13
f 1 13 12
f 1 12 18
f 1 18 22
f 1 22 26
f 1 26 32
f 1 32 37
f 1 37 45
f 1 45 58
f 1 58 72
f 1 72 92
f 1 92 111
f 1 111 134
f 1 134 161
f 1 161 160
f 1 160 188
f 1 188 213
f 1 213 212
f 1 212 239
f 1 239 255
f 1 255 259
f 1 259 258
f 1 258 244
f 1 244 243
f 1 243 216
f 1 216 214
f 1 214 189
f 1 189 163
f 1 163 162
f 1 162 148
f 1 148 147
f 1 147 146
f 1 146 122
f 1 122 101
f 1 101 81
f 1 81 67
f 1 67 52
f 1 52 43
f 1 43 38
f 1 38 33
f 1 33 29
f 1 29 28
f 1 28 27
f 1 27 23
f 1 23 19
f 1 19 15
f 1 15 9
f 1 9 3
f 1 3 4
f 1 4 5
f 1 5 6
f 1 6 7
f 1 7 2
f 2 7 8
f 3 9 4
f 4 10 16
f 4 16 20
f 4 20 24
f 4 24 30
f 4 30 34
f 4 34 42
f 4 42 51
f 4 51 66
f 4 66 80
f 4 80 77
f 4 77 76
f 4 76 99
f 4 99 121
f 4 121 120
f 4 120 145
f 4 145 144
f 4 144 177
f 4 177 175
f 4 175 174
f 4 174 202
f 4 202 201
f 4 201 229
f 4 229 203
f 4 203 180
f 4 180 152
f 4 152 179
f 4 179 150
f 4 150 124
f 4 124 103
f 4 103 83
f 4 83 69
f 4 69 57
f 4 57 56
f 4 56 44
f 4 44 36
f 4 36 35
f 4 35 31
f 4 31 25
f 4 25 21
f 4 21 17
f 4 17 11
f 4 11 7
f 4 7 6
f 4 6 5
f 4 9 10
f 7 11 12
f 7 12 13
f 7 13 14
f 7 14 8
f 9 15 16
f 9 16 10
f 11 17 18
f 11 18 12
f 15 19 16
f 16 19 20
f 17 21 18
f 18 21 22
f 19 23 20
f 20 23 24
f 21 25 26
f 21 26 22
f 23 27 24
f 24 28 29
f 24 29 30
f 24 27 28
f 25 31 26
f 26 31 32
f 29 33 30
f 30 33 34
f 31 35 32
f 32 35 36
f 32 36 37
f 33 38 34
f 34 39 40
f 34 40 41
f 34 41 42
f 34 38 43
f 34 43 39
f 36 44 45
f 36 45 37
f 39 46 47
f 39 47 40
f 39 43 46
f 40 47 48
f 40 48 41
f 41 48 42
f 42 48 49
f 42 49 50
f 42 50 51
f 43 52 53
f 43 53 54
f 43 54 55
f 43 55 46
f 44 56 45
f 45 56 57
f 45 57 58
f 46 55 47
f 47 59 48
f 47 55 59
f 48 60 61
f 48 61 49
f 48 59 62
f 48 62 63
f 48 63 64
f 48 64 60
f 49 61 50
f 50 61 51
f 51 61 65
f 51 65 66
f 52 67 68
f 52 68 53
f 53 68 54
f 54 59 55
f 54 68 62
f 54 62 59
f 57 69 58
f 58 69 70
f 58 70 71
f 58 71 72
f 60 64 73
f 60 73 95
f 60 95 74
f 60 74 75
f 60 75 61
f 61 75 76
f 61 76 77
f 61 77 65
f 62 68 63
f 63 78 64
f 63 68 78
f 64 79 73
f 64 78 79
f 65 77 80
f 65 80 66
f 67 81 82
f 67 82 68
f 68 82 78
f 69 83 84
f 69 84 70
f 70 84 85
f 70 85 86
f 70 86 87
f 70 87 71
f 71 87 88
f 71 88 89
f 71 89 90
f 71 90 72
f 72 91 92
f 72 90 91
f 73 79 93
f 73 93 94
f 73 94 95
f 74 95 116
f 74 116 96
f 74 96 97
f 74 97 75
f 75 97 98
f 75 98 99
f 75 99 76
f 78 82 100
f 78 100 93
f 78 93 79
f 81 101 102
f 81 102 82
f 82 102 100
f 83 103 104
f 83 104 84
f 84 104 85
f 85 104 86
f 86 105 88
f 86 88 87
f 86 104 105
f 88 105 89
f 89 105 106
f 89 106 90
f 90 106 107
f 90 107 108
f 90 108 91
f 91 108 109
f 91 109 110
f 91 110 92
f 92 110 111
f 93 100 112
f 93 112 113
f 93 113 114
f 93 114 115
f 93 115 94
f 94 115 95
f 95 115 116
f 96 116 117
f 96 117 118
f 96 118 97
f 97 118 119
f 97 119 120
f 97 120 98
f 98 120 121
f 98 121 99
f 100 102 112
f 101 122 102
f 102 122 123
f 102 123 112
f 103 124 104
f 104 106 105
f 104 124 125
f 104 125 126
f 104 126 127
f 104 127 128
f 104 128 106
f 106 128 107
f 107 128 108
f 108 128 129
f 108 129 130
f 108 130 109
f 109 130 131
f 109 131 110
f 110 131 132
f 110 132 111
f 111 132 133
f 111 133 134
f 112 123 135
f 112 135 136
f 112 136 113
f 113 136 137
f 113 137 138
f 113 138 114
f 114 138 139
f 114 139 116
f 114 116 115
f 116 139 140
f 116 140 117
f 117 140 141
f 117 141 142
f 117 142 118
f 118 142 143
f 118 143 144
f 118 144 119
f 119 144 145
f 119 145 120
f 122 146 123
f 123 146 147
f 123 147 148
f 123 148 149
f 123 149 135
f 124 150 151
f 124 151 125
f 125 151 152
f 125 152 153
f 125 153 126
f 126 130 129
f 126 129 128
f 126 128 127
f 126 153 154
f 126 154 130
f 130 154 131
f 131 154 155
f 131 155 156
f 131 156 157
f 131 157 158
f 131 158 132
f 132 158 159
f 132 159 133
f 133 159 160
f 133 160 161
f 133 161 134
f 135 149 148
f 135 148 162
f 135 162 163
f 135 163 164
f 135 164 165
f 135 165 166
f 135 166 136
f 136 166 138
f 136 138 137
f 138 166 140
f 138 140 139
f 140 166 167
f 140 167 168
f 140 168 169
f 140 169 141
f 141 169 170
f 141 170 171
f 141 171 172
f 141 172 173
f 141 173 174
f 141 174 175
f 141 175 176
f 141 176 142
f 142 176 175
f 142 175 177
f 142 177 178
f 142 178 144
f 142 144 143
f 144 178 177
f 150 179 151
f 151 179 152
f 152 180 153
f 153 180 181
f 153 181 154
f 154 181 182
f 154 182 155
f 155 182 183
f 155 183 157
f 155 157 156
f 157 183 184
f 157 184 185
f 157 185 158
f 158 185 186
f 158 186 187
f 158 187 160
f 158 160 159
f 160 187 188
f 163 189 164
f 164 189 190
f 164 190 191
f 164 191 165
f 165 192 166
f 165 191 193
f 165 193 168
f 165 168 192
f 166 192 168
f 166 168 167
f 168 193 169
f 169 193 194
f 169 194 195
f 169 195 170
f 170 195 196
f 170 196 197
f 170 197 198
f 170 198 199
f 170 199 171
f 171 199 172
f 172 199 200
f 172 200 173
f 173 200 201
f 173 201 202
f 173 202 174
f 180 203 181
f 181 203 204
f 181 204 182
f 182 204 205
f 182 205 183
f 183 205 206
f 183 206 184
f 184 206 207
f 184 207 208
f 184 208 185
f 185 208 207
f 185 207 186
f 186 207 209
f 186 209 210
f 186 210 211
f 186 211 212
f 186 212 213
f 186 213 188
f 186 188 187
f 189 214 190
f 190 215 191
f 190 214 216
f 190 216 217
f 190 217 218
f 190 218 215
f 191 215 193
f 193 215 218
f 193 218 219
f 193 219 220
f 193 220 221
f 193 221 222
f 193 222 223
f 193 223 224
f 193 224 194
f 194 224 223
f 194 223 195
f 195 223 197
f 195 197 196
f 197 222 225
f 197 225 226
f 197 226 198
f 197 223 222
f 198 226 227
f 198 227 228
f 198 228 200
f 198 200 199
f 200 228 201
f 201 228 230
f 201 230 229
f 203 229 204
f 204 231 232
f 204 232 205
f 204 229 230
f 204 230 231
f 205 232 206
f 206 232 207
f 207 232 209
f 209 232 233
f 209 233 234
f 209 234 235
f 209 235 236
f 209 236 237
f 209 237 238
f 209 238 210
f 210 238 211
f 211 239 212
f 211 238 240
f 211 240 241
f 211 241 242
f 211 242 239
f 216 243 217
f 217 243 244
f 217 244 245
f 217 245 218
f 218 245 246
f 218 246 247
f 218 247 248
f 218 248 219
f 219 248 247
f 219 247 249
f 219 249 220
f 220 249 250
f 220 250 222
f 220 222 221
f 222 250 225
f 225 250 251
f 225 251 252
f 225 252 237
f 225 237 253
f 225 253 226
f 226 253 230
f 226 230 227
f 227 230 228
f 230 253 231
f 231 253 234
f 231 234 232
f 232 234 233
f 234 253 235
f 235 253 236
f 236 253 237
f 237 252 246
f 237 246 254
f 237 254 238
f 238 254 240
f 239 242 255
f 240 254 256
f 240 256 242
f 240 242 241
f 242 256 257
f 242 257 258
f 242 258 259
f 242 259 255
f 244 258 245
f 245 258 257
f 245 257 246
f 246 257 256
f 246 256 254
f 246 252 260
f 246 260 250
f 246 250 247
f 247 250 249
f 250 260 251
f 251 260 252

