# https://github.com/mikedh/trimesh
v 0.04672289 0.00560244 0.09796395
v 0.04669352 0.00574842 0.09796395
v 0.04637043 0.00755733 0.09925171
v 0.04647650 0.00691115 0.09925171
v 0.04665762 0.00574842 0.09925171
v 0.04667720 0.00560244 0.09925171
v 0.04281803 0.00560244 0.06192822
v 0.04104590 0.01602919 0.05780595
v 0.04105896 0.01602919 0.05792825
v 0.04154034 0.01602919 0.06302174
v 0.04165946 0.01602919 0.06431670
v 0.04166598 0.01602919 0.06438864
v 0.04178021 0.01602919 0.06568359
v 0.04646833 0.00676415 0.09796395
v 0.04620399 0.00833724 0.09925171
v 0.04591353 0.00963063 0.10054667
v 0.04584663 0.00963063 0.10184162
v 0.04615503 0.00833724 0.10054667
v 0.04569813 0.00963063 0.10443153
v 0.04588415 0.00833724 0.10443153
v 0.04603101 0.00704283 0.10443153
v 0.04617625 0.00574842 0.10443153
v 0.04619256 0.00560244 0.10443153
v 0.04279192 0.00560244 0.06170520
v 0.04032955 0.01602919 0.05137433
v 0.04048457 0.01602919 0.05274123
v 0.04062980 0.01602919 0.05403619
v 0.04077339 0.01602919 0.05533114
v 0.04090883 0.01602919 0.05655416
v 0.04430785 0.01602919 0.09674094
v 0.04511232 0.01292281 0.09849633
v 0.04589884 0.00963063 0.09925171
v 0.04511232 0.01292281 0.09875532
v 0.04557575 0.01092402 0.10054667
v 0.04552353 0.01092402 0.10184162
v 0.04545500 0.01092402 0.10313658
v 0.04537177 0.01092402 0.10443153
v 0.04554964 0.00963063 0.10572649
v 0.04573893 0.00833724 0.10572649
v 0.04602939 0.00574842 0.10572649
v 0.04604570 0.00560244 0.10572649
v 0.04243782 0.00560244 0.05881313
v 0.04017290 0.01602919 0.05007938
v 0.04427032 0.01602919 0.09796395
v 0.04512701 0.01167127 0.10443153
v 0.04509763 0.01157940 0.10509340
v 0.04523144 0.01092198 0.10560419
v 0.04516943 0.01049017 0.10676245
v 0.04508784 0.01023803 0.10762576
v 0.04527713 0.00973680 0.10712216
v 0.04551211 0.00833724 0.10702144
v 0.04581562 0.00560244 0.10702144
v 0.04232523 0.00560244 0.05791386
v 0.04000319 0.01602919 0.04874126
v 0.04426379 0.01602919 0.09803589
v 0.04491161 0.01231745 0.10443153
v 0.04419362 0.01480726 0.10313658
v 0.04388848 0.01570661 0.10313658
v 0.04450529 0.01351285 0.10443153
v 0.04379057 0.01542282 0.10497830
v 0.04394885 0.01458778 0.10572649
v 0.04386074 0.01433053 0.10668332
v 0.04377752 0.01409063 0.10754662
v 0.04495077 0.01092198 0.10712216
v 0.04487082 0.00973680 0.10832359
v 0.04517270 0.00937543 0.10789914
v 0.04392601 0.01322803 0.10799266
v 0.04371877 0.01262881 0.10885596
v 0.04524613 0.00833724 0.10809338
v 0.04531792 0.00704283 0.10822288
v 0.04536035 0.00560244 0.10841712
v 0.04163335 0.00560244 0.05279879
v 0.03951692 0.01602919 0.04497869
v 0.03984981 0.01602919 0.04754702
v 0.04377752 0.01602919 0.10313658
v 0.04363392 0.01602919 0.10448909
v 0.04363229 0.01602919 0.10450347
v 0.04345116 0.01602919 0.10572649
v 0.04343810 0.01602919 0.10579843
v 0.04320639 0.01602919 0.10702144
v 0.04275928 0.01602919 0.10835957
v 0.04494588 0.00833724 0.10874086
v 0.04385095 0.01176519 0.10899985
v 0.04254389 0.01559738 0.10899266
v 0.04502420 0.00704283 0.10887036
v 0.04526081 0.00560244 0.10861856
v 0.04507152 0.00618534 0.10893510
v 0.04147017 0.00560244 0.05160455
v 0.03950713 0.01602919 0.04490675
v 0.04273644 0.01602919 0.10839554
v 0.04398312 0.01092402 0.10907898
v 0.04417404 0.00963063 0.10918690
v 0.04323413 0.01220516 0.10925884
v 0.04196623 0.01602919 0.10923006
v 0.04429806 0.00833724 0.10925165
v 0.04475496 0.00560244 0.10916532
v 0.04437638 0.00704283 0.10929481
v 0.04144406 0.00560244 0.05142470
v 0.03932763 0.01602919 0.04361180
v 0.04315417 0.01092402 0.10951783
v 0.04315417 0.00963063 0.10964013
v 0.04192707 0.01602919 0.10925165
v 0.04186017 0.01480726 0.10949625
v 0.04456404 0.00575148 0.10926603
v 0.04455098 0.00560244 0.10928042
v 0.04042093 0.00560244 0.04490675
v 0.03912202 0.01602919 0.04230965
v 0.04186017 0.01351285 0.10964013
v 0.04186017 0.01221843 0.10968330
v 0.04315417 0.00833724 0.10966172
v 0.04056616 0.01602919 0.10967610
v 0.04315417 0.00704283 0.10966891
v 0.04315417 0.00560244 0.10966891
v 0.04023491 0.00560244 0.04377726
v 0.03890826 0.01602919 0.04102189
v 0.03915629 0.01602919 0.10931639
v 0.04056616 0.01480726 0.10966172
v 0.04056616 0.01351285 0.10956099
v 0.04192217 0.00560244 0.10929481
v 0.04020227 0.00560244 0.04359022
v 0.03871245 0.01602919 0.03986362
v 0.03911387 0.01602919 0.10928762
v 0.03864391 0.01551163 0.10893510
v 0.04127436 0.00560244 0.10887755
v 0.03923136 0.00560244 0.03842478
v 0.03821802 0.01602919 0.03714421
v 0.03845626 0.01602919 0.03843198
v 0.03860801 0.01602919 0.03927370
v 0.03828492 0.01602919 0.10846748
v 0.03825881 0.01602919 0.10843151
v 0.04099695 0.00560244 0.10823007
v 0.03900780 0.00560244 0.03726652
v 0.03801731 0.01602919 0.03618739
v 0.03779538 0.01602919 0.10702144
v 0.04067549 0.00560244 0.10702144
v 0.03896701 0.00560244 0.03707227
v 0.03005418 0.01602919 0.03618739
v 0.03874835 0.00560244 0.03618739
v 0.03778233 0.01602919 0.10694950
v 0.03757020 0.01602919 0.10574088
v 0.04065101 0.00560244 0.10687756
v 0.03742334 0.01602919 0.10443153
v 0.03379261 0.00560244 0.03618739
v 0.04032792 0.00560244 0.10443153
v 0.04046172 0.00560244 0.10572649
v 0.03755714 0.01602919 0.10562577
f 1 2 3
f 1 3 4
f 1 4 5
f 1 5 6
f 1 6 23
f 1 23 41
f 1 41 52
f 1 52 71
f 1 71 86
f 1 86 96
f 1 96 105
f 1 105 113
f 1 113 119
f 1 119 124
f 1 124 131
f 1 131 135
f 1 135 141
f 1 141 145
f 1 145 144
f 1 144 143
f 1 143 138
f 1 138 136
f 1 136 132
f 1 132 125
f 1 125 120
f 1 120 114
f 1 114 106
f 1 106 98
f 1 98 88
f 1 88 72
f 1 72 53
f 1 53 42
f 1 42 24
f 1 24 7
f 1 7 8
f 1 8 9
f 1 9 10
f 1 10 11
f 1 11 12
f 1 12 13
f 1 13 2
f 2 14 15
f 2 15 3
f 2 13 14
f 3 15 16
f 3 16 17
f 3 17 18
f 3 18 19
f 3 19 4
f 4 19 5
f 5 19 20
f 5 20 6
f 6 20 21
f 6 21 22
f 6 22 23
f 7 24 25
f 7 25 26
f 7 26 27
f 7 27 28
f 7 28 29
f 7 29 8
f 8 29 28
f 8 28 27
f 8 27 26
f 8 26 25
f 8 25 43
f 8 43 54
f 8 54 74
f 8 74 73
f 8 73 89
f 8 89 99
f 8 99 107
f 8 107 115
f 8 115 121
f 8 121 128
f 8 128 127
f 8 127 126
f 8 126 133
f 8 133 137
f 8 137 142
f 8 142 146
f 8 146 140
f 8 140 139
f 8 139 134
f 8 134 130
f 8 130 129
f 8 129 122
f 8 122 116
f 8 116 111
f 8 111 102
f 8 102 94
f 8 94 90
f 8 90 81
f 8 81 80
f 8 80 79
f 8 79 78
f 8 78 77
f 8 77 76
f 8 76 75
f 8 75 55
f 8 55 44
f 8 44 30
f 8 30 13
f 8 13 12
f 8 12 11
f 8 11 10
f 8 10 9
f 13 30 14
f 14 30 15
f 15 30 31
f 15 31 32
f 15 32 16
f 16 32 31
f 16 31 33
f 16 33 34
f 16 34 35
f 16 35 17
f 17 35 36
f 17 36 19
f 17 19 18
f 19 36 37
f 19 37 38
f 19 38 39
f 19 39 20
f 20 39 21
f 21 39 40
f 21 40 22
f 22 40 41
f 22 41 23
f 24 42 43
f 24 43 25
f 30 44 33
f 30 33 31
f 33 44 35
f 33 35 34
f 35 44 36
f 36 44 37
f 37 45 46
f 37 46 47
f 37 47 38
f 37 44 45
f 38 48 49
f 38 49 50
f 38 50 51
f 38 51 39
f 38 47 48
f 39 51 40
f 40 51 41
f 41 51 52
f 42 53 43
f 43 53 54
f 44 55 46
f 44 46 45
f 46 55 56
f 46 56 57
f 46 57 58
f 46 58 59
f 46 59 60
f 46 60 61
f 46 61 47
f 47 61 48
f 48 61 62
f 48 62 63
f 48 63 64
f 48 64 49
f 49 65 66
f 49 66 50
f 49 64 63
f 49 63 67
f 49 67 68
f 49 68 65
f 50 66 51
f 51 66 69
f 51 69 52
f 52 69 70
f 52 70 71
f 53 72 73
f 53 73 74
f 53 74 54
f 55 75 58
f 55 58 57
f 55 57 56
f 58 75 60
f 58 60 59
f 60 75 76
f 60 76 77
f 60 77 78
f 60 78 61
f 61 78 79
f 61 79 62
f 62 79 80
f 62 80 63
f 63 80 81
f 63 81 67
f 65 82 66
f 65 68 83
f 65 83 82
f 66 82 69
f 67 81 68
f 68 84 83
f 68 81 84
f 69 82 85
f 69 85 70
f 70 85 71
f 71 85 87
f 71 87 86
f 72 88 89
f 72 89 73
f 81 90 84
f 82 83 91
f 82 91 92
f 82 92 85
f 83 84 93
f 83 93 91
f 84 94 93
f 84 90 94
f 85 92 95
f 85 95 87
f 86 87 96
f 87 95 97
f 87 97 96
f 88 98 99
f 88 99 89
f 91 93 100
f 91 100 92
f 92 100 101
f 92 101 95
f 93 94 102
f 93 102 103
f 93 103 100
f 95 101 97
f 96 97 104
f 96 104 105
f 97 101 105
f 97 105 104
f 98 106 99
f 99 106 107
f 100 103 108
f 100 108 101
f 101 108 109
f 101 109 110
f 101 110 105
f 102 111 103
f 103 111 108
f 105 110 112
f 105 112 113
f 106 114 107
f 107 114 115
f 108 111 109
f 109 112 110
f 109 111 113
f 109 113 112
f 111 116 117
f 111 117 113
f 113 117 118
f 113 118 119
f 114 120 121
f 114 121 115
f 116 122 123
f 116 123 119
f 116 119 118
f 116 118 117
f 119 123 124
f 120 125 126
f 120 126 127
f 120 127 128
f 120 128 121
f 122 129 123
f 123 129 130
f 123 130 124
f 124 130 131
f 125 132 126
f 126 132 133
f 130 134 131
f 131 134 135
f 132 136 133
f 133 136 138
f 133 138 143
f 133 143 137
f 134 139 135
f 135 139 140
f 135 140 141
f 137 143 144
f 137 144 145
f 137 145 142
f 140 145 141
f 140 146 145
f 142 145 146

