# https://github.com/mikedh/trimesh
v 0.01746644 -0.03954838 0.10967342
v 0.01746644 -0.03935427 0.10966300
v 0.01727083 -0.03954838 0.10967863
v 0.01468136 -0.04084285 0.10965779
v 0.01597530 -0.04084285 0.10953798
v 0.01746644 -0.04073358 0.10932962
v 0.01597530 -0.03954838 0.10965258
v 0.01746644 -0.03817421 0.10933483
v 0.01338743 -0.04084285 0.10968383
v 0.00303598 -0.04213731 0.10962653
v 0.00432991 -0.04213731 0.10964737
v 0.00562384 -0.04213731 0.10966300
v 0.01079957 -0.04213731 0.10965258
v 0.01209350 -0.04213731 0.10955361
v 0.01343233 -0.04223630 0.10929316
v 0.01728205 -0.04093155 0.10927233
v 0.01746644 -0.04088527 0.10926191
v 0.00108626 -0.04213731 0.10958486
v 0.01746644 -0.03801224 0.10925149
v 0.00691777 -0.04213731 0.10966820
v 0.00821170 -0.04213731 0.10966820
v 0.00950564 -0.04213731 0.10966300
v 0.00108626 -0.04279162 0.10960570
v 0.00108626 -0.04343050 0.10962133
v 0.00174204 -0.04343050 0.10962133
v 0.00303598 -0.04343050 0.10957966
v 0.00432991 -0.04343050 0.10951715
v 0.00562384 -0.04343050 0.10944943
v 0.00950564 -0.04332637 0.10927754
v 0.01079957 -0.04320939 0.10920982
v 0.01209350 -0.04301401 0.10910564
v 0.01302988 -0.04286103 0.10901709
v 0.01685876 -0.04155114 0.10900667
v 0.01746644 -0.04113593 0.10911085
v 0.00108626 -0.04170540 0.10935567
v 0.01746644 -0.03779114 0.10912648
v 0.00108626 -0.04126705 0.10911606
v 0.00108626 -0.04390483 0.10938171
v 0.00174204 -0.04436246 0.10914731
v 0.00691777 -0.04343050 0.10937651
v 0.00809947 -0.04353462 0.10924628
v 0.00759440 -0.04407966 0.10896500
v 0.00845702 -0.04403467 0.10890770
v 0.00950564 -0.04397296 0.10881915
v 0.01079957 -0.04385599 0.10859516
v 0.01389410 -0.04273506 0.10890249
v 0.01746644 -0.04145987 0.10891291
v 0.01746644 -0.03755847 0.10899104
v 0.00108626 -0.04099582 0.10872018
v 0.00108626 -0.04436503 0.10914731
v 0.00108626 -0.04506047 0.10819407
v 0.00162660 -0.04505533 0.10819407
v 0.00111833 -0.04537541 0.10767839
v 0.00950564 -0.04427120 0.10817324
v 0.01079957 -0.04417607 0.10794925
v 0.01151949 -0.04410408 0.10775131
v 0.01746644 -0.04163213 0.10859516
v 0.01468136 -0.04290603 0.10796488
v 0.01746644 -0.03719982 0.10839201
v 0.00108626 -0.04072073 0.10831388
v 0.00108626 -0.04537541 0.10767839
v 0.00108626 -0.04565693 0.10572503
v 0.00174204 -0.04565307 0.10572503
v 0.00162660 -0.04544226 0.10700643
v 0.00309210 -0.04528415 0.10700643
v 0.00562384 -0.04500648 0.10702206
v 0.00821170 -0.04472497 0.10702206
v 0.00950564 -0.04458357 0.10702206
v 0.01079957 -0.04439589 0.10702206
v 0.01534677 -0.04279033 0.10768881
v 0.01079957 -0.04463756 0.10572503
v 0.01173594 -0.04417864 0.10702206
v 0.01746644 -0.04175424 0.10832430
v 0.01746644 -0.03676533 0.10702206
v 0.00108626 -0.04028752 0.10698560
v 0.00108626 -0.04050220 0.10764714
v 0.00108626 -0.04580476 0.10443321
v 0.00174204 -0.04580476 0.10443321
v 0.00511877 -0.04538699 0.10516767
v 0.00309210 -0.04549368 0.10581358
v 0.00269927 -0.04540626 0.10655846
v 0.00303598 -0.04568264 0.10443321
v 0.00821170 -0.04495764 0.10572503
v 0.00950564 -0.04481624 0.10572503
v 0.01238211 -0.04395368 0.10702206
v 0.01727083 -0.04225044 0.10702206
v 0.01746644 -0.04217973 0.10703247
v 0.01746644 -0.04213346 0.10720958
v 0.01215122 -0.04428276 0.10572503
v 0.01079957 -0.04482395 0.10443321
v 0.01209350 -0.04448587 0.10443321
v 0.01262101 -0.04403724 0.10615737
v 0.01746644 -0.03652495 0.10564169
v 0.00108626 -0.04008956 0.10579274
v 0.00108626 -0.04591531 0.10248506
v 0.00174204 -0.04588061 0.10314139
v 0.00691777 -0.04586518 0.09796369
v 0.00821170 -0.04576362 0.09796369
v 0.00598139 -0.04534071 0.10477179
v 0.00950564 -0.04499748 0.10443321
v 0.00558055 -0.04525458 0.10565210
v 0.00432991 -0.04555281 0.10443321
v 0.00432991 -0.04531757 0.10606361
v 0.01285511 -0.04411822 0.10529269
v 0.01644669 -0.04272220 0.10604277
v 0.01746644 -0.04238412 0.10594381
v 0.01079957 -0.04495764 0.10314139
v 0.01209350 -0.04489336 0.10055254
v 0.01667437 -0.04280190 0.10517809
v 0.01535639 -0.04409123 0.09741675
v 0.01746644 -0.03642211 0.10473012
v 0.00108626 -0.04001757 0.10513121
v 0.00108626 -0.04598344 0.10118803
v 0.00174204 -0.04594616 0.10184436
v 0.00174204 -0.04599501 0.10055254
v 0.00821170 -0.04584076 0.09666666
v 0.00950564 -0.04560423 0.09796369
v 0.01038429 -0.04541398 0.09903152
v 0.01013737 -0.04537156 0.09989100
v 0.00986800 -0.04534199 0.10055254
v 0.00892681 -0.04537927 0.10127138
v 0.00558055 -0.04542426 0.10438112
v 0.00950564 -0.04512860 0.10314139
v 0.01079957 -0.04509133 0.10184436
v 0.00813795 -0.04528286 0.10306846
v 0.01746644 -0.04243426 0.10567294
v 0.01079957 -0.04522244 0.10055254
v 0.01209350 -0.04501805 0.09925551
v 0.01746644 -0.04257952 0.10443321
v 0.01338743 -0.04469283 0.09796369
v 0.01338743 -0.04474553 0.09666666
v 0.01162531 -0.04543454 0.09148896
v 0.01535639 -0.04409123 0.09722402
v 0.01746644 -0.04306542 0.09925551
v 0.01746644 -0.04304743 0.09947949
v 0.00108626 -0.03994302 0.10443321
v 0.01746644 -0.03287679 0.05647439
v 0.00108626 -0.04600658 0.10055254
v 0.00174204 -0.04599116 0.09925551
v 0.00303598 -0.04596545 0.09925551
v 0.00691777 -0.04586518 0.09666666
v 0.00821170 -0.04581504 0.09537484
v 0.00950564 -0.04571992 0.09278599
v 0.00950564 -0.04573277 0.09407781
v 0.00950564 -0.04570321 0.09537484
v 0.00950564 -0.04566336 0.09666666
v 0.01055906 -0.04544483 0.09796369
v 0.01080919 -0.04531500 0.09938052
v 0.01120522 -0.04532785 0.09796369
v 0.00941585 -0.04527772 0.10176102
v 0.01209350 -0.04509133 0.09796369
v 0.01146658 -0.04537927 0.09492687
v 0.01150987 -0.04539341 0.09407781
v 0.01157240 -0.04541527 0.09278599
v 0.01079957 -0.04556695 0.09278599
v 0.01079957 -0.04559009 0.09148896
v 0.01160928 -0.04542812 0.09019714
v 0.01227308 -0.04520059 0.09148896
v 0.01746644 -0.04305643 0.09793244
v 0.01746644 -0.04305771 0.09805224
v 0.01225544 -0.04518002 0.09019714
v 0.01209350 -0.04480981 0.08243580
v 0.01209350 -0.04472882 0.08114398
v 0.01199730 -0.04436503 0.07466926
v 0.00108626 -0.03677562 0.05647439
v 0.01746644 -0.03795054 0.05647439
v 0.00108626 -0.04599887 0.09925551
v 0.01022395 -0.04538184 0.08417559
v 0.01079957 -0.04557209 0.09019714
v 0.01079957 -0.04552967 0.09407781
v 0.01067611 -0.04546668 0.09666666
v 0.01140404 -0.04536513 0.09579156
v 0.01147299 -0.04538184 0.08805105
v 0.01191392 -0.04431876 0.07337744
v 0.01264346 -0.04401153 0.07466926
v 0.01256008 -0.04395754 0.07337744
v 0.01246228 -0.04389712 0.07208562
v 0.01235806 -0.04383928 0.07078859
v 0.01289198 -0.04294330 0.06561089
v 0.01281502 -0.04286232 0.06431907
v 0.01276371 -0.04280833 0.06348564
v 0.01746644 -0.03914731 0.06571507
v 0.01217367 -0.04514146 0.08890011
v 0.01209350 -0.04488436 0.08372762
v 0.00108626 -0.04126319 0.05647439
v 0.01746644 -0.03796339 0.05655252
v 0.01289038 -0.04165912 0.05647439
v 0.01011011 -0.04538184 0.08417559
v 0.00108626 -0.04160385 0.05914137
v 0.00950564 -0.04333409 0.05914137
v 0.00950564 -0.04347292 0.06043319
v 0.00950564 -0.04374801 0.06302204
v 0.00950564 -0.04388427 0.06431907
v 0.00992412 -0.04411694 0.06587654
v 0.00950564 -0.04462470 0.07337744
v 0.01079957 -0.04475325 0.07466926
v 0.01079957 -0.04499106 0.07855513
v 0.01079957 -0.04514917 0.08114398
v 0.01079957 -0.04522244 0.08243580
v 0.01071298 -0.04529700 0.08373804
v 0.01037307 -0.04540113 0.08501944
v 0.01079957 -0.04551681 0.08890011
v 0.01137679 -0.04536256 0.08718637
v 0.01181451 -0.04426477 0.07208562
v 0.01171029 -0.04420949 0.07078859
v 0.01160286 -0.04415422 0.06949677
v 0.01151307 -0.04411051 0.06846539
v 0.01224903 -0.04378143 0.06949677
v 0.01209350 -0.04362589 0.06690792
v 0.01209350 -0.04349348 0.06561089
v 0.01269958 -0.04274406 0.06262095
v 0.01746644 -0.03834004 0.05914137
v 0.01746644 -0.03836446 0.05933410
v 0.01746644 -0.03852386 0.06061550
v 0.01746644 -0.03897763 0.06431907
v 0.01185941 -0.04303200 0.06043319
v 0.01173755 -0.04295487 0.05914137
v 0.00868470 -0.04286232 0.05647439
v 0.00108626 -0.04127477 0.05655252
v 0.01746644 -0.03816135 0.05784955
v 0.01238532 -0.04249725 0.05914137
v 0.01224582 -0.04240726 0.05784955
v 0.01200211 -0.04236613 0.05647439
v 0.00108626 -0.04155885 0.05874028
v 0.00950564 -0.04318369 0.05784955
v 0.01036826 -0.04411694 0.06587654
v 0.01079957 -0.04466069 0.07337744
v 0.01123729 -0.04534328 0.08631647
v 0.01101923 -0.04531371 0.08501944
v 0.01058952 -0.04543069 0.08631647
v 0.01088615 -0.04544868 0.08761350
v 0.01142328 -0.04407323 0.06760592
v 0.01746644 -0.03819349 0.05807874
v 0.01159805 -0.04287132 0.05784955
v 0.00943829 -0.04299858 0.05647439
v 0.00108626 -0.04151129 0.05833398
v 0.00108626 -0.04142517 0.05768286
v 0.01149704 -0.04281219 0.05700570
v 0.01138320 -0.04277362 0.05647439
v 0.01079957 -0.04310913 0.05784955
v 0.01079957 -0.04326982 0.05914137
v 0.00950564 -0.04301786 0.05655252
v 0.01079957 -0.04356804 0.06173022
v 0.01079957 -0.04386499 0.06431907
v 0.01079957 -0.04399739 0.06551192
v 0.01126776 -0.04404367 0.06690792
v 0.01062159 -0.04416193 0.06690792
v 0.01079957 -0.04455657 0.07208562
v 0.01079957 -0.04341893 0.06043319
v 0.01091501 -0.04420692 0.06810077
v 0.00950724 -0.04300758 0.05647439
v 0.01095029 -0.04288417 0.05647439
v 0.01081720 -0.04291631 0.05647439
v 0.01084767 -0.04292145 0.05656294
f 1 2 3
f 1 3 4
f 1 4 5
f 1 5 6
f 1 6 17
f 1 17 34
f 1 34 47
f 1 47 57
f 1 57 73
f 1 73 88
f 1 88 87
f 1 87 106
f 1 106 126
f 1 126 129
f 1 129 135
f 1 135 134
f 1 134 160
f 1 160 159
f 1 159 182
f 1 182 215
f 1 215 214
f 1 214 213
f 1 213 212
f 1 212 233
f 1 233 220
f 1 220 186
f 1 186 166
f 1 166 137
f 1 137 111
f 1 111 93
f 1 93 74
f 1 74 59
f 1 59 48
f 1 48 36
f 1 36 19
f 1 19 8
f 1 8 2
f 2 7 3
f 2 8 7
f 3 9 4
f 3 7 10
f 3 10 11
f 3 11 12
f 3 12 9
f 4 9 13
f 4 13 14
f 4 14 5
f 5 14 15
f 5 15 16
f 5 16 17
f 5 17 6
f 7 18 10
f 7 8 18
f 8 19 18
f 9 12 20
f 9 20 21
f 9 21 22
f 9 22 13
f 10 18 23
f 10 23 24
f 10 24 11
f 11 24 12
f 12 24 20
f 13 22 25
f 13 25 26
f 13 26 27
f 13 27 28
f 13 28 29
f 13 29 14
f 14 29 30
f 14 30 15
f 15 30 31
f 15 31 32
f 15 32 33
f 15 33 16
f 16 33 17
f 17 33 34
f 18 35 37
f 18 37 49
f 18 49 60
f 18 60 76
f 18 76 75
f 18 75 94
f 18 94 112
f 18 112 136
f 18 136 165
f 18 165 185
f 18 185 219
f 18 219 237
f 18 237 236
f 18 236 224
f 18 224 189
f 18 189 167
f 18 167 138
f 18 138 113
f 18 113 95
f 18 95 77
f 18 77 62
f 18 62 61
f 18 61 51
f 18 51 50
f 18 50 38
f 18 38 24
f 18 24 23
f 18 19 35
f 19 36 37
f 19 37 35
f 20 24 25
f 20 25 21
f 21 25 22
f 24 38 25
f 25 38 39
f 25 39 26
f 26 39 27
f 27 39 28
f 28 40 29
f 28 39 40
f 29 40 41
f 29 41 42
f 29 42 43
f 29 43 30
f 30 43 44
f 30 44 31
f 31 44 32
f 32 44 45
f 32 45 46
f 32 46 33
f 33 46 47
f 33 47 34
f 36 48 37
f 37 48 49
f 38 50 39
f 39 50 51
f 39 51 52
f 39 52 42
f 39 42 40
f 40 42 41
f 42 52 43
f 43 52 53
f 43 53 44
f 44 54 55
f 44 55 45
f 44 53 54
f 45 55 56
f 45 56 46
f 46 57 47
f 46 56 58
f 46 58 57
f 48 59 60
f 48 60 49
f 51 61 53
f 51 53 52
f 53 61 62
f 53 62 63
f 53 63 64
f 53 64 65
f 53 65 66
f 53 66 67
f 53 67 68
f 53 68 54
f 54 68 55
f 55 68 69
f 55 69 56
f 56 70 58
f 56 69 71
f 56 71 72
f 56 72 70
f 57 58 73
f 58 70 73
f 59 74 75
f 59 75 76
f 59 76 60
f 62 77 78
f 62 78 63
f 63 79 80
f 63 80 81
f 63 81 64
f 63 78 82
f 63 82 79
f 64 81 65
f 65 81 83
f 65 83 66
f 66 83 67
f 67 83 84
f 67 84 68
f 68 84 71
f 68 71 69
f 70 72 85
f 70 85 86
f 70 86 87
f 70 87 88
f 70 88 73
f 71 89 72
f 71 84 90
f 71 90 91
f 71 91 89
f 72 89 92
f 72 92 85
f 74 93 75
f 75 93 94
f 77 95 96
f 77 96 78
f 78 96 97
f 78 97 98
f 78 98 82
f 79 99 100
f 79 100 84
f 79 84 83
f 79 83 101
f 79 101 80
f 79 82 102
f 79 102 99
f 80 103 81
f 80 101 103
f 81 103 83
f 82 98 102
f 83 103 101
f 84 100 90
f 85 92 86
f 86 92 89
f 86 89 104
f 86 104 105
f 86 105 106
f 86 106 87
f 89 91 104
f 90 100 107
f 90 107 108
f 90 108 91
f 91 109 104
f 91 108 110
f 91 110 109
f 93 111 94
f 94 111 112
f 95 113 96
f 96 113 114
f 96 114 97
f 97 115 116
f 97 116 98
f 97 114 115
f 98 116 117
f 98 117 118
f 98 118 119
f 98 119 120
f 98 120 121
f 98 121 102
f 99 102 122
f 99 122 100
f 100 122 123
f 100 123 127
f 100 127 124
f 100 124 107
f 102 121 125
f 102 125 122
f 104 126 106
f 104 106 105
f 104 109 126
f 107 124 108
f 108 124 127
f 108 127 128
f 108 128 110
f 109 110 129
f 109 129 126
f 110 128 130
f 110 130 131
f 110 131 132
f 110 132 133
f 110 133 134
f 110 134 135
f 110 135 129
f 111 136 112
f 111 137 136
f 113 138 115
f 113 115 114
f 115 138 139
f 115 139 140
f 115 140 116
f 116 141 142
f 116 142 143
f 116 143 144
f 116 144 145
f 116 145 146
f 116 146 117
f 116 140 139
f 116 139 141
f 117 147 118
f 117 146 147
f 118 148 127
f 118 127 119
f 118 147 149
f 118 149 148
f 119 127 120
f 120 127 123
f 120 123 150
f 120 150 121
f 121 150 125
f 122 125 123
f 123 125 150
f 127 148 128
f 128 148 149
f 128 149 151
f 128 151 130
f 130 151 131
f 131 151 152
f 131 152 153
f 131 153 154
f 131 154 132
f 132 154 155
f 132 155 156
f 132 156 157
f 132 157 158
f 132 158 133
f 133 159 160
f 133 160 134
f 133 158 161
f 133 161 162
f 133 162 163
f 133 163 164
f 133 164 159
f 136 137 165
f 137 166 187
f 137 187 223
f 137 223 239
f 137 239 252
f 137 252 253
f 137 253 251
f 137 251 235
f 137 235 218
f 137 218 185
f 137 185 165
f 138 167 139
f 139 167 141
f 141 167 142
f 142 167 143
f 143 168 169
f 143 169 156
f 143 156 144
f 143 167 168
f 144 156 155
f 144 155 145
f 145 155 170
f 145 170 146
f 146 170 147
f 147 170 171
f 147 171 172
f 147 172 149
f 149 172 151
f 151 172 152
f 152 172 170
f 152 170 155
f 152 155 153
f 153 155 154
f 156 169 157
f 157 161 158
f 157 169 173
f 157 173 161
f 159 164 174
f 159 174 175
f 159 175 176
f 159 176 177
f 159 177 178
f 159 178 179
f 159 179 180
f 159 180 181
f 159 181 182
f 161 173 183
f 161 183 184
f 161 184 162
f 162 184 173
f 162 173 174
f 162 174 164
f 162 164 163
f 166 186 187
f 167 188 168
f 167 189 190
f 167 190 191
f 167 191 192
f 167 192 193
f 167 193 194
f 167 194 195
f 167 195 188
f 168 188 196
f 168 196 197
f 168 197 198
f 168 198 199
f 168 199 200
f 168 200 201
f 168 201 169
f 169 201 202
f 169 202 203
f 169 203 173
f 170 172 171
f 173 203 174
f 173 184 183
f 174 196 204
f 174 204 176
f 174 176 175
f 174 203 196
f 176 204 205
f 176 205 177
f 177 205 206
f 177 206 178
f 178 206 207
f 178 207 208
f 178 208 209
f 178 209 179
f 179 209 210
f 179 210 180
f 180 210 181
f 181 211 212
f 181 212 213
f 181 213 214
f 181 214 215
f 181 215 182
f 181 210 216
f 181 216 217
f 181 217 211
f 185 218 219
f 186 220 221
f 186 221 222
f 186 222 187
f 187 222 223
f 188 195 196
f 189 224 190
f 190 224 218
f 190 218 225
f 190 225 226
f 190 226 194
f 190 194 191
f 191 194 192
f 192 194 193
f 194 226 227
f 194 227 196
f 194 196 195
f 196 227 207
f 196 207 206
f 196 206 205
f 196 205 204
f 196 203 197
f 197 203 198
f 198 203 199
f 199 203 228
f 199 228 229
f 199 229 200
f 200 229 228
f 200 228 201
f 201 228 230
f 201 230 202
f 202 230 231
f 202 231 203
f 203 231 228
f 207 227 232
f 207 232 209
f 207 209 208
f 209 232 210
f 210 232 217
f 210 217 216
f 211 217 221
f 211 221 220
f 211 220 233
f 211 233 212
f 217 234 221
f 217 232 234
f 218 235 225
f 218 224 236
f 218 236 237
f 218 237 219
f 221 234 222
f 222 234 238
f 222 238 223
f 223 238 239
f 225 240 241
f 225 241 226
f 225 235 242
f 225 242 240
f 226 243 244
f 226 244 245
f 226 245 246
f 226 246 247
f 226 247 248
f 226 248 227
f 226 241 249
f 226 249 243
f 227 248 232
f 228 231 230
f 232 247 246
f 232 246 238
f 232 238 234
f 232 248 250
f 232 250 247
f 235 251 242
f 238 241 240
f 238 240 239
f 238 246 241
f 239 240 252
f 240 242 251
f 240 251 253
f 240 253 254
f 240 254 252
f 241 246 249
f 243 246 244
f 243 249 246
f 244 246 245
f 247 250 248
f 252 254 253

