# https://github.com/mikedh/trimesh
v 0.00173898 0.03684883 0.01308303
v 0.00303415 0.03635207 0.01308303
v 0.01005048 0.02889583 0.00716013
v 0.00944089 0.02910213 0.00716013
v 0.00832187 0.02947015 0.00716013
v 0.00821135 0.02950316 0.00716013
v 0.00809219 0.02953286 0.00716013
v 0.00691618 0.02981672 0.00716013
v 0.00597849 0.02998836 0.00716013
v 0.00581788 0.03001641 0.00716013
v 0.00173898 0.03071616 0.00716013
v 0.00162328 0.03071451 0.00716013
v 0.00044727 0.03682407 0.01308303
v 0.00384924 0.03600715 0.01308303
v 0.01005048 0.02904436 0.00740827
v 0.01005048 0.01998894 0.00716013
v 0.00440011 0.03576620 0.01308303
v 0.00044727 0.03068810 0.00716013
v -0.00361263 0.03000156 0.00716013
v -0.00472993 0.02980517 0.00716013
v -0.00602336 0.02949821 0.00716013
v -0.00605099 0.02948995 0.00716013
v -0.00613734 0.02946355 0.00716013
v -0.00726154 0.02910047 0.00716013
v -0.00736170 0.02906747 0.00716013
v -0.00759137 0.02899155 0.00716013
v -0.00066484 0.03638343 0.01308303
v 0.01005048 0.02937113 0.00797702
v 0.01005048 0.02419731 0.01308303
v -0.00759137 0.02004010 0.00716013
v 0.00499071 0.03538827 0.01308303
v 0.01005048 0.02956092 0.00831792
v -0.00759137 0.02915329 0.00743494
v -0.00214133 0.03569194 0.01308303
v -0.00141431 0.03606821 0.01308303
v 0.01005048 0.03171626 0.01308303
v -0.00759137 0.02429468 0.01308303
v 0.01005048 0.03126737 0.01200930
v 0.01005048 0.03009563 0.00946122
v 0.01005048 0.02983653 0.00890407
v -0.00759137 0.02957412 0.00815327
v -0.00759137 0.02961538 0.00823270
v -0.00759137 0.02987448 0.00878754
v -0.00759137 0.03041250 0.00994591
v -0.00759137 0.03095216 0.01111124
v -0.00759137 0.03115020 0.01154200
v -0.00759137 0.03159579 0.01255950
v -0.00759137 0.03182024 0.01308303
f 1 2 3
f 1 3 4
f 1 4 5
f 1 5 6
f 1 6 7
f 1 7 8
f 1 8 9
f 1 9 10
f 1 10 11
f 1 11 12
f 1 12 13
f 1 13 27
f 1 27 35
f 1 35 34
f 1 34 48
f 1 48 37
f 1 37 29
f 1 29 36
f 1 36 31
f 1 31 17
f 1 17 14
f 1 14 2
f 2 14 3
f 3 15 28
f 3 28 32
f 3 32 40
f 3 40 39
f 3 39 38
f 3 38 36
f 3 36 29
f 3 29 16
f 3 16 30
f 3 30 26
f 3 26 25
f 3 25 24
f 3 24 23
f 3 23 22
f 3 22 21
f 3 21 20
f 3 20 19
f 3 19 18
f 3 18 12
f 3 12 11
f 3 11 10
f 3 10 9
f 3 9 8
f 3 8 7
f 3 7 6
f 3 6 5
f 3 5 4
f 3 14 17
f 3 17 15
f 12 18 13
f 13 18 19
f 13 19 20
f 13 20 21
f 13 21 22
f 13 22 23
f 13 23 24
f 13 24 25
f 13 25 26
f 13 26 27
f 15 17 28
f 16 29 30
f 17 31 32
f 17 32 28
f 26 30 37
f 26 37 48
f 26 48 47
f 26 47 46
f 26 46 45
f 26 45 44
f 26 44 43
f 26 43 42
f 26 42 41
f 26 41 33
f 26 33 34
f 26 34 35
f 26 35 27
f 29 37 30
f 31 36 38
f 31 38 39
f 31 39 40
f 31 40 32
f 33 41 34
f 34 41 42
f 34 42 43
f 34 43 44
f 34 44 45
f 34 45 46
f 34 46 47
f 34 47 48

