# https://github.com/mikedh/trimesh
v -0.03492517 0.00054041 0.02041161
v -0.03453399 0.00186572 0.02041161
v -0.03492370 0.00054368 0.02040914
v -0.03401045 0.00056982 0.01793222
v -0.03377221 -0.00072444 0.01728795
v -0.03492370 -0.00068522 0.02041161
v -0.03393397 0.00144247 0.01813502
v -0.03276042 0.00559979 0.02041161
v -0.03208100 0.00559979 0.01771334
v -0.03175305 0.00559979 0.01642975
v -0.03072361 0.00559979 0.01255299
v -0.03031772 0.00559979 0.01115068
v -0.03010595 0.00559979 0.01049405
v -0.03377074 0.00056982 0.01728424
v -0.03258542 0.00133461 0.01442026
v -0.03345455 -0.00072444 0.01642975
v -0.03258983 -0.00150067 0.01440790
v -0.03492223 -0.00069012 0.02040914
v -0.03345455 0.00056982 0.01642975
v -0.03492223 -0.00069175 0.02041161
v -0.03002360 0.00559979 0.01024054
v -0.02986771 0.00559979 0.00979908
v -0.02700883 0.00559979 0.02041161
v -0.03263248 0.00056982 0.01431763
v -0.03296190 0.00056982 0.01513502
v -0.02944418 0.00559979 0.00867376
v -0.03000595 0.00398196 0.00922158
v -0.03008536 0.00315834 0.00905835
v -0.03296484 -0.00072444 0.01513502
v -0.03393250 -0.00158891 0.01813997
v -0.03263542 -0.00072444 0.01430774
v -0.03136775 -0.00201870 0.01165769
v -0.03009272 -0.00331132 0.00904104
v -0.03047361 -0.00331132 0.00995983
v -0.03130451 -0.00283578 0.01179372
v -0.02993242 -0.00507132 0.00941078
v -0.02985007 -0.00589984 0.00968036
v -0.02963389 -0.01109323 0.01254805
v -0.02991036 -0.01109323 0.01338646
v -0.03459134 -0.00189450 0.02041161
v -0.02181313 0.00559979 0.00778094
v -0.02537497 -0.01109323 0.02041161
v -0.01990133 -0.01109323 0.00778217
v -0.03014860 0.00186408 0.00891738
v -0.03183246 0.00056982 0.01254805
v -0.03141627 -0.00072444 0.01156124
v -0.03185746 -0.00072444 0.01254805
v -0.03235012 -0.00072444 0.01366223
v -0.02903828 0.00559979 0.00778094
v -0.02977948 0.00315834 0.00841161
v -0.02984565 0.00186408 0.00827063
v -0.02933829 -0.00848673 0.00995983
v -0.02918682 -0.01107525 0.01125332
v -0.03063391 -0.00201870 0.00995983
v -0.03108833 -0.00201870 0.01100971
v -0.03015890 -0.00201870 0.00890006
v -0.02978977 -0.00331132 0.00839306
v -0.02972653 -0.00462519 0.00873065
v -0.03001330 -0.00420848 0.00920550
v -0.02946035 -0.00589984 0.00866511
v -0.02917505 -0.00719247 0.00866511
v -0.02917652 -0.01109323 0.01123725
v -0.03009125 -0.01109323 0.01403321
v -0.03038537 -0.01109323 0.01512389
v -0.03073244 -0.01109323 0.01642975
v -0.03110303 -0.01109323 0.01784690
v -0.03138098 -0.01109323 0.01894376
v -0.03174275 -0.01109323 0.02041161
v -0.01990280 -0.01108996 0.00778094
v -0.01993957 -0.01109323 0.00778094
v -0.02987360 0.00056982 0.00822364
v -0.03016772 0.00056982 0.00887038
v -0.03017507 -0.00072444 0.00885802
v -0.02922652 0.00446241 0.00778094
v -0.02943976 0.00315834 0.00778094
v -0.02953094 0.00237395 0.00778094
v -0.02958683 0.00186408 0.00778094
v -0.02963977 0.00115976 0.00778094
v -0.02896475 -0.00987904 0.00985101
v -0.02881475 -0.01107525 0.01023189
v -0.02987801 -0.00072444 0.00821127
v -0.02985301 -0.00201870 0.00825332
v -0.02952653 -0.00271158 0.00778094
v -0.02946182 -0.00331132 0.00778094
v -0.02936329 -0.00404833 0.00778094
v -0.02911329 -0.00560569 0.00778094
v -0.02905887 -0.00589984 0.00778094
v -0.02880151 -0.00717123 0.00778094
v -0.02879710 -0.00719247 0.00778094
v -0.02878387 -0.00724967 0.00778094
v -0.02869710 -0.00793111 0.00796519
v -0.02865886 -0.01037583 0.00934771
v -0.02881181 -0.01109323 0.01023807
v -0.02763384 -0.01109323 0.00778094
v -0.02966183 0.00056982 0.00778094
v -0.02854563 -0.01107525 0.00958514
v -0.02966918 -0.00072444 0.00778094
v -0.02960006 -0.00201870 0.00778094
v -0.02854857 -0.00810924 0.00778094
v -0.02847504 -0.00987904 0.00866635
v -0.02810591 -0.01107525 0.00866511
v -0.02854269 -0.01109323 0.00959133
v -0.02807797 -0.01109323 0.00862306
v -0.02763972 -0.01107525 0.00778094
v -0.02841033 -0.00856680 0.00778094
v -0.02767943 -0.01094942 0.00778094
v -0.02810003 -0.01109323 0.00866635
f 1 2 3
f 1 3 4
f 1 4 5
f 1 5 6
f 1 6 20
f 1 20 40
f 1 40 68
f 1 68 42
f 1 42 23
f 1 23 8
f 1 8 2
f 2 7 3
f 2 8 9
f 2 9 10
f 2 10 11
f 2 11 12
f 2 12 13
f 2 13 7
f 3 7 4
f 4 14 5
f 4 7 15
f 4 15 14
f 5 16 17
f 5 17 18
f 5 18 6
f 5 14 19
f 5 19 16
f 6 18 20
f 7 13 21
f 7 21 22
f 7 22 15
f 8 23 41
f 8 41 49
f 8 49 26
f 8 26 22
f 8 22 21
f 8 21 13
f 8 13 12
f 8 12 11
f 8 11 10
f 8 10 9
f 14 15 19
f 15 24 25
f 15 25 19
f 15 22 26
f 15 26 27
f 15 27 28
f 15 28 24
f 16 29 17
f 16 19 29
f 17 30 18
f 17 29 31
f 17 31 32
f 17 32 33
f 17 33 34
f 17 34 35
f 17 35 36
f 17 36 37
f 17 37 30
f 18 30 38
f 18 38 39
f 18 39 40
f 18 40 20
f 19 25 29
f 23 42 43
f 23 43 41
f 24 44 45
f 24 45 46
f 24 46 47
f 24 47 48
f 24 48 31
f 24 31 25
f 24 28 44
f 25 31 29
f 26 49 27
f 27 49 28
f 28 49 50
f 28 50 51
f 28 51 44
f 30 37 52
f 30 52 53
f 30 53 38
f 31 48 54
f 31 54 55
f 31 55 32
f 32 55 33
f 33 55 54
f 33 54 56
f 33 56 57
f 33 57 58
f 33 58 59
f 33 59 34
f 34 59 35
f 35 59 36
f 36 59 60
f 36 60 61
f 36 61 37
f 37 61 52
f 38 53 62
f 38 62 93
f 38 93 102
f 38 102 107
f 38 107 103
f 38 103 94
f 38 94 70
f 38 70 43
f 38 43 42
f 38 42 68
f 38 68 67
f 38 67 66
f 38 66 65
f 38 65 64
f 38 64 63
f 38 63 39
f 39 63 40
f 40 63 64
f 40 64 65
f 40 65 66
f 40 66 67
f 40 67 68
f 41 43 69
f 41 69 70
f 41 70 94
f 41 94 104
f 41 104 106
f 41 106 105
f 41 105 99
f 41 99 90
f 41 90 89
f 41 89 88
f 41 88 87
f 41 87 86
f 41 86 85
f 41 85 84
f 41 84 83
f 41 83 98
f 41 98 97
f 41 97 95
f 41 95 78
f 41 78 77
f 41 77 76
f 41 76 75
f 41 75 74
f 41 74 49
f 43 70 69
f 44 51 71
f 44 71 72
f 44 72 45
f 45 72 46
f 46 73 56
f 46 56 54
f 46 54 47
f 46 72 71
f 46 71 73
f 47 54 48
f 49 74 50
f 50 74 75
f 50 75 76
f 50 76 77
f 50 77 51
f 51 77 78
f 51 78 71
f 52 79 53
f 52 61 79
f 53 79 80
f 53 80 62
f 56 73 81
f 56 81 82
f 56 82 57
f 57 82 83
f 57 83 84
f 57 84 85
f 57 85 86
f 57 86 58
f 58 86 87
f 58 87 60
f 58 60 59
f 60 87 88
f 60 88 89
f 60 89 61
f 61 89 90
f 61 90 91
f 61 91 92
f 61 92 79
f 62 80 93
f 71 78 95
f 71 95 81
f 71 81 73
f 79 92 80
f 80 92 96
f 80 96 102
f 80 102 93
f 81 97 82
f 81 95 97
f 82 97 98
f 82 98 83
f 90 99 91
f 91 99 100
f 91 100 92
f 92 100 101
f 92 101 96
f 94 103 104
f 96 101 102
f 99 105 100
f 100 105 106
f 100 106 101
f 101 103 107
f 101 107 102
f 101 106 104
f 101 104 103

