# https://github.com/mikedh/trimesh
v 0.00108626 -0.03084109 0.00777994
v 0.00108626 -0.03065203 0.00737024
v 0.00174279 -0.03083752 0.00777994
v 0.00108626 -0.02377803 0.00777994
v 0.00174279 -0.03064846 0.00737024
v 0.00108626 -0.03009198 0.00628074
v 0.00174279 -0.03009198 0.00628490
v 0.00231800 -0.03081255 0.00777994
v 0.02398942 0.00560142 0.00777994
v 0.00108626 0.00560142 0.00707439
v 0.00357986 -0.03073407 0.00777994
v 0.00108626 -0.02972099 0.00563420
v 0.00303777 -0.03003133 0.00639792
v 0.00432975 -0.03045940 0.00737024
v 0.00432975 -0.03067700 0.00777994
v 0.00174279 -0.02971742 0.00563835
v 0.03125037 0.00560142 0.00777994
v 0.00108626 0.00560142 0.00226517
v 0.00108626 -0.02918591 0.00478155
v 0.00174279 -0.02918591 0.00478155
v 0.00562473 -0.02990292 0.00661732
v 0.00562473 -0.03033098 0.00737024
v 0.00562473 -0.03054501 0.00777994
v 0.00432975 -0.02958187 0.00586107
v 0.03119314 0.00560142 0.00765445
v 0.03127446 0.00546587 0.00777994
v 0.02244748 0.00560142 -0.00069249
v 0.00108626 -0.02272214 -0.00070744
v 0.00108626 -0.02865796 0.00397628
v 0.00174279 -0.02865796 0.00397379
v 0.00562473 -0.02951052 0.00596994
v 0.00281793 -0.02859732 0.00406021
v 0.00432975 -0.02893620 0.00484056
v 0.00642883 -0.02986011 0.00668879
v 0.00729014 -0.02980660 0.00679848
v 0.00687153 -0.03034525 0.00777994
v 0.03152743 0.00389630 0.00777994
v 0.03111183 0.00560142 0.00748658
v 0.02259204 0.00560142 -0.00069664
v 0.00303777 -0.02272214 -0.00070911
v 0.00108626 -0.02336424 -0.00065011
v 0.02373946 0.00445278 -0.00070579
v 0.02373946 0.00315789 -0.00070744
v 0.00108626 -0.02842966 0.00364885
v 0.00174279 -0.02820493 0.00332724
v 0.00562473 -0.02734523 0.00271476
v 0.00688358 -0.02949269 0.00618518
v 0.00562473 -0.02886486 0.00495690
v 0.00691971 -0.02878281 0.00507823
v 0.00367924 -0.02854738 0.00413501
v 0.00821169 -0.02969602 0.00700208
v 0.00821169 -0.03001350 0.00764946
v 0.00821169 -0.03007414 0.00777994
v 0.00795871 -0.02867580 0.00523696
v 0.03162983 0.00315789 0.00777994
v 0.03084380 0.00496646 0.00675361
v 0.03079863 0.00560142 0.00684834
v 0.03083175 0.00560142 0.00691566
v 0.02373946 0.00560142 -0.00068252
v 0.00562473 -0.02272214 -0.00070662
v 0.00174279 -0.02401703 -0.00059110
v 0.00108626 -0.02401703 -0.00059110
v 0.02373946 0.00186300 -0.00070828
v 0.02373946 -0.00201812 -0.00070828
v 0.02115250 -0.01107880 -0.00070828
v 0.01209664 -0.02013592 -0.00070828
v 0.00950667 -0.02142725 -0.00070744
v 0.02503444 0.00056811 -0.00057448
v 0.02503444 -0.00072322 -0.00057697
v 0.00108626 -0.02787674 0.00287432
v 0.00108626 -0.02755570 0.00243055
v 0.00174279 -0.02755570 0.00243138
v 0.00303777 -0.02748792 0.00252362
v 0.00432975 -0.02741657 0.00261753
v 0.00562473 -0.02685296 0.00206822
v 0.00647400 -0.02728816 0.00279039
v 0.00562473 -0.02787318 0.00348846
v 0.00562473 -0.02842966 0.00430952
v 0.00691971 -0.02834048 0.00443086
v 0.00976567 -0.02966391 0.00777994
v 0.00920852 -0.02982444 0.00777994
v 0.00900976 -0.02988151 0.00777994
v 0.00872065 -0.02995286 0.00777994
v 0.00832010 -0.02902538 0.00595747
v 0.00950667 -0.02883989 0.00626994
v 0.00953076 -0.02952836 0.00741843
v 0.00839539 -0.03003133 0.00777994
v 0.00832010 -0.02824417 0.00479651
v 0.00882304 -0.02853311 0.00544805
v 0.00733531 -0.02720968 0.00290258
v 0.00821169 -0.02707413 0.00309289
v 0.03177438 0.00186300 0.00777994
v 0.03140998 0.00315789 0.00737024
v 0.03089500 0.00410320 0.00666302
v 0.03055469 0.00450273 0.00616938
v 0.03036195 0.00560142 0.00608711
v 0.03043121 0.00560142 0.00620346
v 0.02388702 0.00560142 -0.00065675
v 0.00691971 -0.02272214 -0.00068833
v 0.00562473 -0.02401703 -0.00049969
v 0.00174279 -0.02522275 -0.00011076
v 0.00108626 -0.02522631 -0.00011076
v 0.02373946 -0.00331301 -0.00070744
v 0.01985751 -0.01366502 -0.00069581
v 0.01856253 -0.01495635 -0.00070744
v 0.01597858 -0.01754613 -0.00070744
v 0.02244748 -0.00848902 -0.00070662
v 0.02244748 -0.00978391 -0.00067753
v 0.01080166 -0.02142725 -0.00068335
v 0.01468360 -0.01884103 -0.00069830
v 0.02619692 0.00056811 -0.00009497
v 0.02620294 -0.00072322 -0.00009746
v 0.02503444 0.00315789 -0.00051299
v 0.02503444 -0.00201812 -0.00054789
v 0.02373946 -0.00590280 -0.00068418
v 0.02373946 -0.00460790 -0.00070579
v 0.00108626 -0.02730956 0.00210395
v 0.00174279 -0.02706699 0.00178400
v 0.00303777 -0.02699565 0.00187708
v 0.00432975 -0.02692430 0.00197099
v 0.00562473 -0.02620730 0.00124383
v 0.00691971 -0.02610028 0.00137513
v 0.00691068 -0.02682442 0.00229343
v 0.01087092 -0.02898258 0.00727550
v 0.01084081 -0.02927866 0.00777994
v 0.00950667 -0.02841896 0.00562256
v 0.01180753 -0.02738090 0.00524693
v 0.01087092 -0.02825130 0.00609044
v 0.01048544 -0.02866510 0.00653172
v 0.01080166 -0.02755570 0.00500843
v 0.00770574 -0.02600753 0.00149065
v 0.00816952 -0.02636425 0.00213802
v 0.00950667 -0.02620016 0.00252196
v 0.01040413 -0.02604677 0.00272474
v 0.01209664 -0.02575426 0.00311948
v 0.01209664 -0.02622870 0.00376519
v 0.03185268 0.00056811 0.00777994
v 0.03165091 0.00056811 0.00737024
v 0.03109376 0.00056811 0.00632977
v 0.03155454 0.00186300 0.00737024
v 0.03102751 0.00186300 0.00644280
v 0.03056372 0.00315789 0.00592007
v 0.02985600 0.00560142 0.00524195
v 0.02503444 0.00560142 -0.00038168
v 0.02503444 0.00445278 -0.00048057
v 0.00821169 -0.02272214 -0.00062517
v 0.00950667 -0.02272214 -0.00053542
v 0.00691971 -0.02401703 -0.00040661
v 0.00562473 -0.02501228 -0.00002184
v 0.00174279 -0.02587198 0.00033800
v 0.00108626 -0.02587198 0.00033634
v 0.01985751 -0.01495635 -0.00061022
v 0.01856253 -0.01625124 -0.00062268
v 0.02115250 -0.01237370 -0.00065509
v 0.01727056 -0.01754613 -0.00062185
v 0.01597858 -0.01884103 -0.00061271
v 0.02373946 -0.00719412 -0.00061770
v 0.02373946 -0.00848902 -0.00052462
v 0.02244748 -0.01107880 -0.00058279
v 0.01338861 -0.02013592 -0.00065758
v 0.01209664 -0.02142725 -0.00058944
v 0.02684441 0.00056811 0.00038371
v 0.02685043 -0.00072322 0.00037623
v 0.02599815 0.00445278 -0.00000356
v 0.02613367 -0.00201812 -0.00006921
v 0.02503444 -0.00460790 -0.00048140
v 0.02503444 -0.00331301 -0.00051548
v 0.00108626 -0.02706699 0.00178400
v 0.00108626 -0.02642133 0.00098371
v 0.00174279 -0.02641776 0.00098454
v 0.00303777 -0.02634999 0.00107097
v 0.00562473 -0.02566152 0.00059728
v 0.00691971 -0.02555093 0.00072776
v 0.01134977 -0.02851170 0.00678103
v 0.01209664 -0.02837972 0.00702369
v 0.01209664 -0.02875071 0.00767024
v 0.01208460 -0.02881135 0.00777994
v 0.01218097 -0.02693500 0.00480150
v 0.01266884 -0.02722752 0.00547131
v 0.01218097 -0.02771265 0.00597160
v 0.00787740 -0.02477328 0.00015849
v 0.00822373 -0.02531550 0.00089562
v 0.01080166 -0.02482322 0.00136267
v 0.01153950 -0.02469480 0.00151142
v 0.00857007 -0.02585771 0.00166932
v 0.00950667 -0.02569362 0.00187459
v 0.01202135 -0.02503725 0.00215132
v 0.01240081 -0.02453428 0.00169093
v 0.01299410 -0.02606818 0.00398625
v 0.03184967 -0.00072322 0.00777994
v 0.03165693 -0.00072322 0.00737024
v 0.03110280 -0.00072322 0.00631731
v 0.03069623 0.00056811 0.00568240
v 0.03062998 0.00186300 0.00579625
v 0.02984395 0.00445278 0.00500676
v 0.02977167 0.00560142 0.00510566
v 0.02514286 0.00560142 -0.00032766
v 0.01080166 -0.02272214 -0.00039415
v 0.00950667 -0.02382798 -0.00005674
v 0.00691971 -0.02490527 0.00005212
v 0.02115250 -0.01366502 -0.00051299
v 0.01985751 -0.01625124 -0.00030772
v 0.01856253 -0.01754613 -0.00030772
v 0.01727056 -0.01884103 -0.00030606
v 0.01468360 -0.02013592 -0.00052213
v 0.02373946 -0.00978391 -0.00037171
v 0.02503444 -0.00590280 -0.00038667
v 0.02244748 -0.01237370 -0.00034927
v 0.01338861 -0.02142725 -0.00035675
v 0.02739854 0.00056811 0.00103108
v 0.02664564 0.00445278 0.00064548
v 0.02740456 -0.00072322 0.00102360
v 0.02733831 -0.00201812 0.00110504
v 0.02678116 -0.00201812 0.00045767
v 0.02600116 -0.00460790 -0.00000522
v 0.02589576 0.00560142 0.00007207
v 0.01338861 -0.02749149 0.00633310
v 0.01418367 -0.02732740 0.00659238
v 0.01299711 -0.02845463 0.00777994
v 0.01241888 -0.02868293 0.00777994
v 0.01341271 -0.02640706 0.00472006
v 0.01338861 -0.02708126 0.00568572
v 0.00874173 -0.02461276 0.00030143
v 0.01080166 -0.02361037 0.00006043
v 0.01165394 -0.02346055 0.00017262
v 0.01080166 -0.02425961 0.00071612
v 0.01251826 -0.02324652 0.00036625
v 0.01338861 -0.02362464 0.00128039
v 0.01350908 -0.02434165 0.00215132
v 0.01315371 -0.02488743 0.00255354
v 0.01385842 -0.02587198 0.00424803
v 0.03183160 -0.00131894 0.00777994
v 0.03156959 -0.00201812 0.00737024
v 0.03070527 -0.00072322 0.00567076
v 0.03103955 -0.00201812 0.00642368
v 0.03064504 -0.00201812 0.00577630
v 0.03011500 -0.00072322 0.00478155
v 0.03009693 0.00056811 0.00478155
v 0.02941028 0.00445278 0.00435939
v 0.02939522 0.00560142 0.00453224
v 0.01209062 -0.02277922 -0.00008583
v 0.02123381 -0.01502413 -0.00014400
v 0.02077605 -0.01625124 0.00008952
v 0.02051705 -0.01691117 0.00024492
v 0.01973404 -0.01742128 0.00011694
v 0.01843905 -0.01871617 0.00011943
v 0.01727056 -0.01976493 0.00009118
v 0.01605688 -0.02022510 -0.00014982
v 0.02482363 -0.00848902 -0.00004760
v 0.02460679 -0.00978391 0.00007705
v 0.02379366 -0.01105740 -0.00007170
v 0.02589877 -0.00590280 0.00006874
v 0.02512178 -0.00722979 -0.00010993
v 0.02335698 -0.01237370 0.00007788
v 0.02243845 -0.01357941 -0.00001021
v 0.01460530 -0.02142725 -0.00001852
v 0.01338861 -0.02234759 0.00007290
v 0.02804603 0.00056811 0.00183636
v 0.02805206 -0.00072322 0.00182555
v 0.02725699 0.00315789 0.00120560
v 0.02596803 0.00560142 0.00014520
v 0.02654325 0.00560142 0.00076432
v 0.02708835 0.00560142 0.00141087
v 0.02718472 0.00445278 0.00129203
v 0.02798580 -0.00201812 0.00191198
v 0.02718773 -0.00460790 0.00128788
v 0.02664865 -0.00460790 0.00064049
v 0.01441557 -0.02618946 0.00511065
v 0.01473178 -0.02663893 0.00603476
v 0.01781565 -0.02593975 0.00777994
v 0.01504800 -0.02708482 0.00701538
v 0.01541843 -0.02729529 0.00777994
v 0.01464445 -0.02751646 0.00741677
v 0.01347294 -0.02824060 0.00777994
v 0.01412344 -0.02212999 0.00020836
v 0.01338861 -0.02299325 0.00063302
v 0.01409634 -0.02340704 0.00150893
v 0.01498476 -0.02185888 0.00047761
v 0.01459024 -0.02373523 0.00221863
v 0.01401804 -0.02465200 0.00285604
v 0.01468360 -0.02497661 0.00375605
v 0.01478298 -0.02566865 0.00472006
v 0.03178342 -0.00201812 0.00777994
v 0.03173523 -0.00253893 0.00777994
v 0.03165091 -0.00331301 0.00777994
v 0.03142805 -0.00331301 0.00737024
v 0.02992225 -0.00200741 0.00467435
v 0.03084380 -0.00512515 0.00675277
v 0.03055770 -0.00466141 0.00616772
v 0.03057276 -0.00331301 0.00591010
v 0.02976866 -0.00590280 0.00510400
v 0.02984696 -0.00460790 0.00499097
v 0.02992527 -0.00331301 0.00488626
v 0.02918743 -0.00072322 0.00340370
v 0.02958496 -0.00157221 0.00410426
v 0.02917538 0.00056811 0.00341865
v 0.02880797 0.00445278 0.00348846
v 0.02827491 0.00513412 0.00283277
v 0.02858511 0.00560142 0.00337211
v 0.02200478 -0.01463530 0.00010448
v 0.02171868 -0.01549856 0.00032304
v 0.01792407 -0.01949383 0.00024825
v 0.02142354 -0.01625124 0.00057900
v 0.02186625 -0.01697538 0.00147984
v 0.02098084 -0.01737491 0.00104936
v 0.01928531 -0.01956160 0.00148317
v 0.01653573 -0.02071381 0.00030891
v 0.01567742 -0.02099562 0.00009866
v 0.02577830 -0.00682313 0.00016764
v 0.02445923 -0.01061150 0.00018758
v 0.02654626 -0.00590280 0.00076017
v 0.02426347 -0.01147476 0.00036875
v 0.02314015 -0.01309070 0.00021417
v 0.02852789 0.00056811 0.00248374
v 0.02853993 -0.00072322 0.00247293
v 0.02790449 0.00315789 0.00203248
v 0.02847669 -0.00201812 0.00255936
v 0.02779306 0.00560142 0.00231254
v 0.02783221 0.00445278 0.00213221
v 0.02791051 -0.00331301 0.00201254
v 0.02783522 -0.00460790 0.00211559
v 0.02781715 -0.00582788 0.00231337
v 0.02709136 -0.00590280 0.00140671
v 0.01683689 -0.02479825 0.00525524
v 0.01527688 -0.02592549 0.00547630
v 0.01575874 -0.02622156 0.00633892
v 0.01752353 -0.02610741 0.00777994
v 0.01662005 -0.02595759 0.00672618
v 0.01727056 -0.02575783 0.00701871
v 0.01819210 -0.02483036 0.00648102
v 0.01905342 -0.02456995 0.00688325
v 0.01815596 -0.02572572 0.00777994
v 0.01528893 -0.02736307 0.00777994
v 0.01463842 -0.02769482 0.00777994
v 0.01565032 -0.02227267 0.00134023
v 0.01650862 -0.02200513 0.00162278
v 0.01495765 -0.02313594 0.00180312
v 0.01609302 -0.02150216 0.00082499
v 0.01557503 -0.02352120 0.00266573
v 0.01643634 -0.02325365 0.00298818
v 0.01544252 -0.02473404 0.00404692
v 0.03143407 -0.00464357 0.00777994
v 0.03110581 -0.00590280 0.00751151
v 0.03078959 -0.00590280 0.00686413
v 0.02949461 -0.00331301 0.00423972
v 0.03034689 -0.00590280 0.00607631
v 0.02967229 -0.00691588 0.00525192
v 0.02935005 -0.00590280 0.00445662
v 0.02942534 -0.00460790 0.00434360
v 0.02919646 -0.00200741 0.00359899
v 0.02831406 0.00445278 0.00277958
v 0.02845561 0.00186300 0.00258014
v 0.02823576 0.00560142 0.00288845
v 0.02250771 -0.01505266 0.00083662
v 0.02211018 -0.01625124 0.00122555
v 0.02286609 -0.01395397 0.00048759
v 0.01838786 -0.01995756 0.00105269
v 0.01798732 -0.02084580 0.00148566
v 0.01727056 -0.02041416 0.00057235
v 0.02275768 -0.01625124 0.00191281
v 0.02312208 -0.01693971 0.00280784
v 0.02318231 -0.01829168 0.00403445
v 0.02189636 -0.01828811 0.00274551
v 0.02144462 -0.01783865 0.00188290
v 0.02058030 -0.01827028 0.00148151
v 0.01885164 -0.02042486 0.00188456
v 0.01727056 -0.02109907 0.00121890
v 0.02701306 -0.00665904 0.00150311
v 0.02632039 -0.00717272 0.00090975
v 0.02561267 -0.00768640 0.00031722
v 0.02525429 -0.00978391 0.00074521
v 0.02499830 -0.01097179 0.00095047
v 0.02553738 -0.01133207 0.00171669
v 0.02462486 -0.01237370 0.00128621
v 0.02400448 -0.01237370 0.00063883
v 0.02897963 -0.00331301 0.00348846
v 0.02883507 -0.00460790 0.00348846
v 0.02840140 -0.00331301 0.00265992
v 0.02832611 -0.00460790 0.00276296
v 0.02828395 -0.00534988 0.00282363
v 0.02822070 -0.00620958 0.00290756
v 0.01630685 -0.02445937 0.00439263
v 0.01856253 -0.02360324 0.00513558
v 0.01923411 -0.02338564 0.00540732
v 0.01770121 -0.02452714 0.00561841
v 0.01859867 -0.02427744 0.00606052
v 0.01955033 -0.02363534 0.00607631
v 0.02050501 -0.02336780 0.00672535
v 0.01996593 -0.02410265 0.00723561
v 0.01942987 -0.02483036 0.00774586
v 0.01944492 -0.02483749 0.00777994
v 0.01727056 -0.02174830 0.00189204
v 0.01796925 -0.02211572 0.00279371
v 0.01727056 -0.02234045 0.00253859
v 0.01604183 -0.02276495 0.00214467
v 0.01735187 -0.02303605 0.00344691
v 0.03122627 -0.00590280 0.00777994
v 0.03097631 -0.00721196 0.00777994
v 0.03066009 -0.00719412 0.00712176
v 0.02998851 -0.00728687 0.00596578
v 0.02954279 -0.00777914 0.00546134
v 0.02925970 -0.00728687 0.00480482
v 0.02855198 -0.00719412 0.00374857
v 0.02862426 -0.00582788 0.00339871
v 0.02301065 -0.01547359 0.00163608
v 0.02442007 -0.01306573 0.00151475
v 0.01930338 -0.02087433 0.00274717
v 0.01840894 -0.02129169 0.00233914
v 0.02334192 -0.01625124 0.00255936
v 0.02453150 -0.01453899 0.00267487
v 0.02425745 -0.01540225 0.00299898
v 0.02404062 -0.01633685 0.00345356
v 0.02434177 -0.01682556 0.00419401
v 0.02339613 -0.01743912 0.00355661
v 0.02409482 -0.01754613 0.00449900
v 0.02438996 -0.01819893 0.00542478
v 0.02409181 -0.01914781 0.00607631
v 0.02315219 -0.01954734 0.00536245
v 0.02186323 -0.02084580 0.00536079
v 0.02102300 -0.01870904 0.00231420
v 0.01972500 -0.02000394 0.00231504
v 0.02807916 -0.00719412 0.00310203
v 0.02736240 -0.00713348 0.00214800
v 0.02686248 -0.00751874 0.00168594
v 0.02569398 -0.01046881 0.00153220
v 0.02602224 -0.01097179 0.00216628
v 0.02588371 -0.01212399 0.00257930
v 0.02534463 -0.01248428 0.00216628
v 0.01783975 -0.02332143 0.00419651
v 0.01927929 -0.02214069 0.00406188
v 0.01968886 -0.02256518 0.00496106
v 0.02019782 -0.02308243 0.00607631
v 0.02179397 -0.02206935 0.00673117
v 0.02261011 -0.02159491 0.00716663
v 0.02285405 -0.02183748 0.00777994
v 0.02214030 -0.02240823 0.00759461
v 0.02154401 -0.02312523 0.00777994
v 0.02088748 -0.02370669 0.00777994
v 0.02013458 -0.02430598 0.00777994
v 0.02055319 -0.02212285 0.00537824
v 0.02216138 -0.02114901 0.00607631
v 0.01883357 -0.02173760 0.00319926
v 0.03097029 -0.00724050 0.00777994
v 0.03083778 -0.00778271 0.00777994
v 0.03074442 -0.00811803 0.00777994
v 0.03049144 -0.00842124 0.00746497
v 0.02981986 -0.00848902 0.00630318
v 0.02874171 -0.00853896 0.00469180
v 0.02966326 -0.00942719 0.00656246
v 0.02942233 -0.00848902 0.00565580
v 0.02822070 -0.01159248 0.00550040
v 0.02837731 -0.01072922 0.00527934
v 0.02838333 -0.00814300 0.00398459
v 0.02674201 -0.01107880 0.00317017
v 0.02689560 -0.01020484 0.00295327
v 0.02414602 -0.01392900 0.00181226
v 0.02566386 -0.01298369 0.00286352
v 0.02473930 -0.01356514 0.00222362
v 0.02580842 -0.01580177 0.00526605
v 0.02460077 -0.01754613 0.00514638
v 0.02545305 -0.01366502 0.00312862
v 0.02596502 -0.01366502 0.00377517
v 0.02666371 -0.01375777 0.00473585
v 0.02694078 -0.01425004 0.00547796
v 0.02555545 -0.01799560 0.00693976
v 0.02461884 -0.01849858 0.00607631
v 0.02436285 -0.01946172 0.00675776
v 0.02553135 -0.01666504 0.00564583
v 0.02526031 -0.01755684 0.00607631
v 0.02344432 -0.01984698 0.00607631
v 0.02307992 -0.02077088 0.00673865
v 0.02280887 -0.02049264 0.00607631
v 0.02719977 -0.00848902 0.00254939
v 0.02704919 -0.00934158 0.00274468
v 0.02669081 -0.00848902 0.00190201
v 0.02705221 -0.01190996 0.00402947
v 0.02686549 -0.01276965 0.00427462
v 0.02345335 -0.02117755 0.00777994
v 0.02220655 -0.02247601 0.00777994
v 0.03060588 -0.00858176 0.00777994
v 0.02995538 -0.00983028 0.00728879
v 0.03053662 -0.00880650 0.00777994
v 0.02977167 -0.01107880 0.00767356
v 0.02951569 -0.01029045 0.00680347
v 0.02850681 -0.01237370 0.00635720
v 0.02807314 -0.01237370 0.00570982
v 0.02790449 -0.01112874 0.00482144
v 0.02719375 -0.01338678 0.00513724
v 0.02725398 -0.01473518 0.00634141
v 0.02765452 -0.01371496 0.00603642
v 0.02577529 -0.01838799 0.00777994
v 0.02508865 -0.01891237 0.00728048
v 0.02694078 -0.01676849 0.00777994
v 0.02668780 -0.01713947 0.00777994
v 0.02462185 -0.01976850 0.00762038
v 0.02408880 -0.02047124 0.00777994
v 0.02697390 -0.01559844 0.00672784
v 0.02738047 -0.01235586 0.00473585
v 0.02835322 -0.01317988 0.00659488
v 0.02982588 -0.01107880 0.00777994
v 0.02970542 -0.01143552 0.00777994
v 0.02959399 -0.01175300 0.00777994
v 0.02938017 -0.01107880 0.00702619
v 0.02811530 -0.01403958 0.00698962
v 0.02720279 -0.01625124 0.00768104
v 0.02526633 -0.01905149 0.00777994
v 0.02713653 -0.01646171 0.00777994
v 0.02467606 -0.01981131 0.00777994
v 0.02927175 -0.01249498 0.00777994
v 0.02874171 -0.01363292 0.00777994
v 0.02854897 -0.01363292 0.00740098
v 0.02838634 -0.01434636 0.00777994
v 0.02950063 -0.01199200 0.00777994
v 0.02833515 -0.01444267 0.00777994
v 0.02790750 -0.01519178 0.00777994
v 0.02855198 -0.01401461 0.00777994
f 1 2 5
f 1 5 3
f 1 3 8
f 1 8 11
f 1 11 15
f 1 15 23
f 1 23 36
f 1 36 53
f 1 53 87
f 1 87 83
f 1 83 82
f 1 82 81
f 1 81 80
f 1 80 125
f 1 125 177
f 1 177 220
f 1 220 219
f 1 219 274
f 1 274 334
f 1 334 333
f 1 333 272
f 1 272 327
f 1 327 270
f 1 270 332
f 1 332 391
f 1 391 439
f 1 439 438
f 1 438 437
f 1 437 479
f 1 479 435
f 1 435 478
f 1 478 496
f 1 496 508
f 1 508 506
f 1 506 491
f 1 491 494
f 1 494 493
f 1 493 507
f 1 507 515
f 1 515 514
f 1 514 512
f 1 512 516
f 1 516 510
f 1 510 509
f 1 509 513
f 1 513 502
f 1 502 501
f 1 501 500
f 1 500 482
f 1 482 480
f 1 480 445
f 1 445 444
f 1 444 443
f 1 443 398
f 1 398 397
f 1 397 342
f 1 342 285
f 1 285 284
f 1 284 283
f 1 283 232
f 1 232 190
f 1 190 137
f 1 137 92
f 1 92 55
f 1 55 37
f 1 37 26
f 1 26 17
f 1 17 9
f 1 9 4
f 1 4 10
f 1 10 18
f 1 18 28
f 1 28 41
f 1 41 62
f 1 62 102
f 1 102 151
f 1 151 169
f 1 169 168
f 1 168 117
f 1 117 71
f 1 71 70
f 1 70 44
f 1 44 29
f 1 29 19
f 1 19 12
f 1 12 6
f 1 6 2
f 2 6 7
f 2 7 5
f 3 5 8
f 4 9 10
f 5 11 8
f 5 7 11
f 6 12 7
f 7 13 14
f 7 14 15
f 7 15 11
f 7 12 16
f 7 16 13
f 9 17 25
f 9 25 38
f 9 38 58
f 9 58 57
f 9 57 97
f 9 97 96
f 9 96 143
f 9 143 196
f 9 196 240
f 9 240 299
f 9 299 353
f 9 353 318
f 9 318 263
f 9 263 262
f 9 262 261
f 9 261 216
f 9 216 197
f 9 197 144
f 9 144 98
f 9 98 59
f 9 59 39
f 9 39 27
f 9 27 18
f 9 18 10
f 12 19 20
f 12 20 16
f 13 16 21
f 13 21 14
f 14 22 15
f 14 21 22
f 15 22 23
f 16 20 24
f 16 24 21
f 17 26 25
f 18 27 28
f 19 29 30
f 19 30 20
f 20 31 24
f 20 30 32
f 20 32 33
f 20 33 31
f 21 24 31
f 21 31 34
f 21 34 22
f 22 34 35
f 22 35 23
f 23 35 36
f 25 26 37
f 25 37 38
f 27 39 28
f 28 40 41
f 28 39 42
f 28 42 43
f 28 43 40
f 29 44 30
f 30 44 45
f 30 45 46
f 30 46 32
f 31 47 34
f 31 33 48
f 31 48 49
f 31 49 47
f 32 50 48
f 32 48 33
f 32 46 50
f 34 47 35
f 35 51 52
f 35 52 53
f 35 53 36
f 35 47 49
f 35 49 54
f 35 54 51
f 37 55 56
f 37 56 57
f 37 57 58
f 37 58 38
f 39 59 42
f 40 60 61
f 40 61 62
f 40 62 41
f 40 43 63
f 40 63 64
f 40 64 65
f 40 65 66
f 40 66 67
f 40 67 60
f 42 59 68
f 42 68 69
f 42 69 43
f 43 69 63
f 44 70 45
f 45 70 71
f 45 71 72
f 45 72 73
f 45 73 74
f 45 74 46
f 46 75 76
f 46 76 77
f 46 77 50
f 46 74 120
f 46 120 75
f 48 50 78
f 48 78 49
f 49 78 77
f 49 77 76
f 49 76 79
f 49 79 54
f 50 77 78
f 51 80 81
f 51 81 82
f 51 82 83
f 51 83 52
f 51 54 84
f 51 84 85
f 51 85 86
f 51 86 80
f 52 87 53
f 52 83 87
f 54 88 89
f 54 89 84
f 54 79 90
f 54 90 91
f 54 91 88
f 55 92 140
f 55 140 93
f 55 93 56
f 56 93 94
f 56 94 95
f 56 95 96
f 56 96 97
f 56 97 57
f 59 98 68
f 60 99 61
f 60 67 99
f 61 99 100
f 61 100 101
f 61 101 102
f 61 102 62
f 63 69 64
f 64 69 103
f 64 103 65
f 65 104 105
f 65 105 106
f 65 106 66
f 65 103 107
f 65 107 108
f 65 108 104
f 66 109 67
f 66 106 110
f 66 110 109
f 67 109 99
f 68 111 112
f 68 112 69
f 68 98 113
f 68 113 111
f 69 112 114
f 69 114 115
f 69 115 116
f 69 116 103
f 71 117 72
f 72 117 118
f 72 118 73
f 73 118 119
f 73 119 120
f 73 120 74
f 75 120 121
f 75 121 76
f 76 121 122
f 76 122 123
f 76 123 90
f 76 90 79
f 80 86 124
f 80 124 125
f 84 89 85
f 85 89 126
f 85 126 127
f 85 127 128
f 85 128 129
f 85 129 86
f 86 129 124
f 88 130 89
f 88 91 130
f 89 130 127
f 89 127 126
f 90 123 122
f 90 122 131
f 90 131 132
f 90 132 91
f 91 132 133
f 91 133 134
f 91 134 135
f 91 135 136
f 91 136 130
f 92 137 138
f 92 138 139
f 92 139 140
f 93 140 141
f 93 141 94
f 94 141 95
f 95 142 143
f 95 143 96
f 95 141 142
f 98 144 145
f 98 145 113
f 99 146 100
f 99 109 146
f 100 146 147
f 100 147 148
f 100 148 149
f 100 149 101
f 101 149 150
f 101 150 102
f 102 150 151
f 103 116 107
f 104 152 153
f 104 153 105
f 104 108 154
f 104 154 152
f 105 153 106
f 106 153 155
f 106 155 156
f 106 156 110
f 107 116 115
f 107 115 108
f 108 115 157
f 108 157 158
f 108 158 159
f 108 159 154
f 109 110 160
f 109 160 161
f 109 161 147
f 109 147 146
f 110 156 160
f 111 162 163
f 111 163 112
f 111 113 145
f 111 145 164
f 111 164 162
f 112 163 165
f 112 165 166
f 112 166 167
f 112 167 114
f 114 167 115
f 115 167 166
f 115 166 157
f 117 168 118
f 118 168 169
f 118 169 170
f 118 170 171
f 118 171 121
f 118 121 119
f 119 121 120
f 121 171 172
f 121 172 122
f 122 172 173
f 122 173 131
f 124 129 174
f 124 174 175
f 124 175 176
f 124 176 125
f 125 176 177
f 127 130 136
f 127 136 178
f 127 178 179
f 127 179 128
f 128 179 129
f 129 179 180
f 129 180 174
f 131 173 181
f 131 181 182
f 131 182 183
f 131 183 184
f 131 184 185
f 131 185 132
f 132 185 186
f 132 186 187
f 132 187 133
f 133 187 134
f 134 187 135
f 135 187 188
f 135 188 189
f 135 189 136
f 136 189 178
f 137 190 191
f 137 191 138
f 138 191 192
f 138 192 139
f 139 192 193
f 139 193 141
f 139 141 140
f 141 193 194
f 141 194 142
f 142 195 196
f 142 196 143
f 142 194 195
f 144 197 164
f 144 164 145
f 147 198 148
f 147 161 198
f 148 198 199
f 148 199 200
f 148 200 149
f 149 200 172
f 149 172 150
f 150 172 171
f 150 171 170
f 150 170 169
f 150 169 151
f 152 154 159
f 152 159 201
f 152 201 202
f 152 202 153
f 153 202 203
f 153 203 155
f 155 203 204
f 155 204 156
f 156 204 205
f 156 205 161
f 156 161 160
f 157 166 158
f 158 206 159
f 158 166 207
f 158 207 206
f 159 208 201
f 159 206 208
f 161 205 209
f 161 209 198
f 162 210 212
f 162 212 163
f 162 164 211
f 162 211 210
f 163 212 213
f 163 213 214
f 163 214 215
f 163 215 165
f 164 197 216
f 164 216 211
f 165 215 166
f 166 215 207
f 172 200 173
f 173 200 181
f 174 180 217
f 174 217 175
f 175 217 176
f 176 217 218
f 176 218 219
f 176 219 220
f 176 220 177
f 178 189 179
f 179 189 221
f 179 221 222
f 179 222 217
f 179 217 180
f 181 223 182
f 181 200 224
f 181 224 225
f 181 225 223
f 182 223 226
f 182 226 183
f 183 226 184
f 184 187 185
f 184 226 225
f 184 225 188
f 184 188 187
f 185 187 186
f 188 225 227
f 188 227 228
f 188 228 229
f 188 229 230
f 188 230 189
f 189 230 231
f 189 231 221
f 190 232 191
f 191 232 233
f 191 233 192
f 192 234 193
f 192 233 235
f 192 235 236
f 192 236 234
f 193 234 237
f 193 237 238
f 193 238 195
f 193 195 194
f 195 239 240
f 195 240 196
f 195 238 239
f 198 241 224
f 198 224 199
f 198 209 241
f 199 224 200
f 201 208 242
f 201 242 202
f 202 243 244
f 202 244 245
f 202 245 203
f 202 242 243
f 203 245 204
f 204 245 246
f 204 246 247
f 204 247 248
f 204 248 205
f 205 248 209
f 206 207 249
f 206 249 250
f 206 250 251
f 206 251 208
f 207 215 252
f 207 252 253
f 207 253 249
f 208 251 254
f 208 254 255
f 208 255 242
f 209 248 256
f 209 256 257
f 209 257 241
f 210 258 259
f 210 259 212
f 210 211 260
f 210 260 258
f 211 216 261
f 211 261 262
f 211 262 263
f 211 263 264
f 211 264 260
f 212 259 213
f 213 265 266
f 213 266 267
f 213 267 214
f 213 259 265
f 214 267 215
f 215 267 252
f 217 222 218
f 218 222 221
f 218 221 231
f 218 231 268
f 218 268 269
f 218 269 270
f 218 270 271
f 218 271 272
f 218 272 273
f 218 273 274
f 218 274 219
f 223 225 226
f 224 241 225
f 225 241 257
f 225 257 275
f 225 275 227
f 227 275 276
f 227 276 228
f 228 277 229
f 228 276 275
f 228 275 278
f 228 278 277
f 229 277 279
f 229 279 280
f 229 280 230
f 230 280 231
f 231 280 281
f 231 281 282
f 231 282 268
f 232 283 233
f 233 283 284
f 233 284 285
f 233 285 286
f 233 286 235
f 234 236 287
f 234 287 237
f 235 286 288
f 235 288 289
f 235 289 290
f 235 290 236
f 236 290 291
f 236 291 292
f 236 292 293
f 236 293 287
f 237 294 238
f 237 287 295
f 237 295 294
f 238 294 296
f 238 296 239
f 239 297 298
f 239 298 240
f 239 296 297
f 240 298 299
f 242 255 300
f 242 300 243
f 243 300 301
f 243 301 244
f 244 302 246
f 244 246 245
f 244 301 303
f 244 303 304
f 244 304 305
f 244 305 306
f 244 306 302
f 246 302 247
f 247 307 308
f 247 308 248
f 247 302 307
f 248 308 256
f 249 253 252
f 249 252 309
f 249 309 250
f 250 310 251
f 250 309 310
f 251 310 254
f 252 311 309
f 252 267 311
f 254 310 312
f 254 312 313
f 254 313 300
f 254 300 255
f 256 308 257
f 257 308 275
f 258 314 315
f 258 315 259
f 258 260 264
f 258 264 316
f 258 316 314
f 259 315 317
f 259 317 265
f 263 318 264
f 264 319 316
f 264 318 298
f 264 298 319
f 265 317 378
f 265 378 320
f 265 320 266
f 266 321 322
f 266 322 323
f 266 323 267
f 266 320 321
f 267 323 311
f 268 282 324
f 268 324 325
f 268 325 269
f 269 325 326
f 269 326 270
f 270 327 271
f 270 326 328
f 270 328 329
f 270 329 330
f 270 330 331
f 270 331 332
f 271 327 272
f 272 333 273
f 273 334 274
f 273 333 334
f 275 308 307
f 275 307 278
f 277 335 336
f 277 336 337
f 277 337 279
f 277 278 338
f 277 338 335
f 278 307 338
f 279 337 339
f 279 339 280
f 280 339 340
f 280 340 281
f 281 340 341
f 281 341 282
f 282 341 324
f 285 342 343
f 285 343 344
f 285 344 288
f 285 288 286
f 287 293 345
f 287 345 295
f 288 344 346
f 288 346 289
f 289 346 291
f 289 291 290
f 291 346 347
f 291 347 348
f 291 348 292
f 292 348 349
f 292 349 293
f 293 349 345
f 294 315 314
f 294 314 296
f 294 295 350
f 294 350 317
f 294 317 315
f 295 345 350
f 296 314 297
f 297 351 298
f 297 314 352
f 297 352 351
f 298 351 319
f 298 318 353
f 298 353 299
f 300 313 301
f 301 354 355
f 301 355 304
f 301 304 303
f 301 313 356
f 301 356 354
f 302 306 357
f 302 357 358
f 302 358 359
f 302 359 307
f 304 355 360
f 304 360 361
f 304 361 362
f 304 362 363
f 304 363 364
f 304 364 365
f 304 365 305
f 305 365 306
f 306 366 358
f 306 358 357
f 306 365 366
f 307 359 358
f 307 358 367
f 307 367 336
f 307 336 338
f 309 368 369
f 309 369 370
f 309 370 310
f 309 311 368
f 310 370 371
f 310 371 372
f 310 372 312
f 311 323 368
f 312 372 373
f 312 373 374
f 312 374 375
f 312 375 313
f 313 375 356
f 314 316 352
f 316 319 351
f 316 351 352
f 317 350 376
f 317 376 377
f 317 377 378
f 320 378 379
f 320 379 321
f 321 379 380
f 321 380 322
f 322 380 381
f 322 381 323
f 323 381 368
f 324 341 382
f 324 382 383
f 324 383 384
f 324 384 385
f 324 385 325
f 325 385 330
f 325 330 326
f 326 330 328
f 328 330 329
f 330 385 386
f 330 386 331
f 331 386 384
f 331 384 387
f 331 387 388
f 331 388 389
f 331 389 390
f 331 390 332
f 332 390 391
f 335 338 336
f 336 367 392
f 336 392 393
f 336 393 394
f 336 394 395
f 336 395 337
f 337 395 339
f 339 395 394
f 339 394 340
f 340 394 393
f 340 393 396
f 340 396 382
f 340 382 341
f 342 397 343
f 343 397 398
f 343 398 399
f 343 399 344
f 344 399 347
f 344 347 346
f 345 349 376
f 345 376 350
f 347 399 400
f 347 400 401
f 347 401 402
f 347 402 403
f 347 403 381
f 347 381 348
f 348 404 380
f 348 380 377
f 348 377 349
f 348 381 404
f 349 377 376
f 354 405 355
f 354 356 406
f 354 406 405
f 355 405 360
f 356 375 406
f 358 407 408
f 358 408 393
f 358 393 392
f 358 392 367
f 358 366 407
f 360 405 361
f 361 405 409
f 361 409 410
f 361 410 411
f 361 411 412
f 361 412 413
f 361 413 414
f 361 414 362
f 362 414 415
f 362 415 416
f 362 416 417
f 362 417 418
f 362 418 419
f 362 419 407
f 362 407 363
f 363 420 364
f 363 407 421
f 363 421 420
f 364 420 421
f 364 421 366
f 364 366 365
f 366 421 407
f 368 381 422
f 368 422 423
f 368 423 424
f 368 424 425
f 368 425 369
f 369 425 371
f 369 371 370
f 371 425 372
f 372 425 373
f 373 425 424
f 373 424 426
f 373 426 427
f 373 427 428
f 373 428 374
f 374 428 406
f 374 406 375
f 377 380 379
f 377 379 378
f 380 404 381
f 381 403 422
f 382 396 429
f 382 429 383
f 383 429 384
f 384 388 387
f 384 386 385
f 384 429 393
f 384 393 430
f 384 430 431
f 384 431 432
f 384 432 388
f 388 433 434
f 388 434 435
f 388 435 436
f 388 436 437
f 388 437 438
f 388 438 439
f 388 439 389
f 388 432 440
f 388 440 419
f 388 419 418
f 388 418 441
f 388 441 433
f 389 439 390
f 390 439 391
f 393 429 396
f 393 408 442
f 393 442 430
f 398 443 399
f 399 443 444
f 399 444 445
f 399 445 446
f 399 446 400
f 400 446 447
f 400 447 401
f 401 448 402
f 401 447 449
f 401 449 450
f 401 450 451
f 401 451 452
f 401 452 448
f 402 448 403
f 403 448 453
f 403 453 454
f 403 454 455
f 403 455 422
f 405 406 456
f 405 456 410
f 405 410 409
f 406 428 457
f 406 457 458
f 406 458 456
f 407 419 430
f 407 430 442
f 407 442 408
f 410 456 458
f 410 458 457
f 410 457 411
f 411 413 412
f 411 457 413
f 413 459 460
f 413 460 416
f 413 416 415
f 413 415 414
f 413 457 461
f 413 461 462
f 413 462 463
f 413 463 464
f 413 464 459
f 416 465 466
f 416 466 467
f 416 467 417
f 416 460 459
f 416 459 468
f 416 468 469
f 416 469 465
f 417 467 418
f 418 467 470
f 418 470 471
f 418 471 472
f 418 472 441
f 419 440 430
f 422 473 423
f 422 455 474
f 422 474 473
f 423 473 475
f 423 475 424
f 424 475 426
f 426 454 427
f 426 475 473
f 426 473 474
f 426 474 455
f 426 455 454
f 427 454 476
f 427 476 477
f 427 477 457
f 427 457 428
f 430 440 431
f 431 440 432
f 433 441 472
f 433 472 471
f 433 471 434
f 434 471 435
f 435 479 436
f 435 471 467
f 435 467 478
f 436 479 437
f 445 480 446
f 446 481 447
f 446 480 482
f 446 482 483
f 446 483 481
f 447 481 483
f 447 483 449
f 448 452 453
f 449 484 450
f 449 483 484
f 450 484 485
f 450 485 451
f 451 485 486
f 451 486 476
f 451 476 454
f 451 454 487
f 451 487 452
f 452 487 454
f 452 454 453
f 457 477 488
f 457 488 463
f 457 463 462
f 457 462 461
f 459 464 489
f 459 489 468
f 463 488 464
f 464 488 490
f 464 490 489
f 465 491 492
f 465 492 467
f 465 467 466
f 465 469 493
f 465 493 494
f 465 494 491
f 467 492 495
f 467 495 496
f 467 496 478
f 467 471 470
f 468 497 469
f 468 489 497
f 469 497 493
f 476 486 498
f 476 498 477
f 477 499 488
f 477 498 499
f 482 500 483
f 483 500 501
f 483 501 502
f 483 502 503
f 483 503 484
f 484 503 485
f 485 503 502
f 485 502 499
f 485 499 486
f 486 499 498
f 488 499 490
f 489 490 504
f 489 504 505
f 489 505 497
f 490 499 504
f 491 506 492
f 492 506 495
f 493 497 507
f 495 508 496
f 495 506 508
f 497 505 507
f 499 509 510
f 499 510 511
f 499 511 512
f 499 512 504
f 499 502 513
f 499 513 509
f 504 512 514
f 504 514 515
f 504 515 505
f 505 515 507
f 510 516 511
f 511 516 512

