# https://github.com/mikedh/trimesh
v -0.03188417 -0.01366580 0.02041161
v -0.03174248 -0.01109323 0.02041161
v -0.03138115 -0.01109323 0.01894376
v -0.03110307 -0.01109323 0.01784690
v -0.03073289 -0.01109323 0.01642975
v -0.03038751 -0.01109323 0.01513502
v -0.03008818 -0.01109323 0.01402579
v -0.02990929 -0.01109323 0.01338646
v -0.03128197 -0.01321079 0.01830444
v -0.03185406 -0.01366580 0.02031269
v -0.03123237 -0.01407220 0.01844541
v -0.03166986 -0.01504833 0.02041161
v -0.02537324 -0.01109323 0.02041161
v -0.02962766 -0.01109323 0.01253074
v -0.03143429 -0.01365024 0.01893263
v -0.02998545 -0.01308245 0.01443758
v -0.03139001 -0.01470221 0.01930856
v -0.02918309 -0.01109323 0.01125456
v -0.03159192 -0.01506389 0.02020510
v -0.03124477 -0.01556557 0.01970304
v -0.03149097 -0.01553446 0.02041161
v -0.01990555 -0.01109323 0.00779083
v -0.01379137 -0.02456470 0.02041161
v -0.02985083 -0.01394581 0.01476157
v -0.02881114 -0.01109323 0.01023807
v -0.02880760 -0.01109323 0.01022941
v -0.02871550 -0.01183214 0.01050394
v -0.03003150 -0.01445721 0.01562472
v -0.02982781 -0.01532056 0.01610947
v -0.03001202 -0.01567446 0.01697138
v -0.03123591 -0.01605753 0.02041161
v -0.01990201 -0.01109323 0.00778217
v -0.01379137 -0.03095820 0.02041161
v -0.01379137 -0.01855037 0.00778094
v -0.02894575 -0.01364052 0.01254433
v -0.02878103 -0.01452721 0.01297344
v -0.02854192 -0.01109323 0.00959133
v -0.02809204 -0.01109323 0.00864903
v -0.02744200 -0.01186130 0.00791078
v -0.02856494 -0.01405664 0.01211029
v -0.02961172 -0.01491805 0.01516965
v -0.02898472 -0.01495889 0.01385637
v -0.02876686 -0.01573668 0.01429537
v -0.02896346 -0.01598364 0.01513502
v -0.03102514 -0.01638615 0.02041161
v -0.01993920 -0.01109323 0.00778094
v -0.02031647 -0.02893398 0.02041161
v -0.01379137 -0.03059847 0.01903280
v -0.01379137 -0.02698948 0.00778094
v -0.02833823 -0.01495889 0.01254433
v -0.02855432 -0.01539057 0.01343469
v -0.02748097 -0.01451748 0.01040625
v -0.02726134 -0.01538084 0.01084030
v -0.02763329 -0.01109323 0.00778094
v -0.02752171 -0.01142768 0.00778094
v -0.02731271 -0.01198964 0.00778094
v -0.02673529 -0.01324773 0.00778094
v -0.02724186 -0.01272466 0.00829660
v -0.02725957 -0.01405275 0.00954310
v -0.02747743 -0.01575613 0.01170345
v -0.02589575 -0.01662338 0.00970015
v -0.02610475 -0.01692866 0.01056206
v -0.02471790 -0.01809730 0.00948498
v -0.02352234 -0.01952262 0.00925744
v -0.02987918 -0.01680421 0.01853939
v -0.02218685 -0.02723060 0.01969686
v -0.02207350 -0.02765645 0.02041161
v -0.02032355 -0.02887953 0.02026817
v -0.01959913 -0.02854314 0.01838235
v -0.01379137 -0.02839341 0.01117171
v -0.01379137 -0.02858786 0.01178382
v -0.01379137 -0.02879786 0.01248251
v -0.01379137 -0.02882509 0.01257401
v -0.01379137 -0.02883676 0.01261359
v -0.01379137 -0.02918482 0.01384772
v -0.01379137 -0.02954066 0.01513626
v -0.01379137 -0.03023096 0.01764780
v -0.01379137 -0.03059458 0.01901796
v -0.02059632 -0.02880370 0.02041161
v -0.01379137 -0.02719560 0.00813955
v -0.01577334 -0.02598612 0.00797756
v -0.01545275 -0.02604640 0.00778094
v -0.02655463 -0.01363274 0.00778094
v -0.02620393 -0.01435609 0.00778094
v -0.02617383 -0.01449221 0.00785142
v -0.02638283 -0.01493750 0.00868366
v -0.02703463 -0.01495305 0.00996849
v -0.02617914 -0.01576002 0.00912760
v -0.02480292 -0.01691894 0.00799982
v -0.02498181 -0.01716395 0.00866511
v -0.02451067 -0.01781146 0.00866511
v -0.02380573 -0.01882260 0.00876156
v -0.02280146 -0.02007486 0.00876527
v -0.02107808 -0.02227408 0.00901630
v -0.02100369 -0.02477276 0.01300683
v -0.02106568 -0.02613390 0.01546520
v -0.02330271 -0.01924067 0.00839429
v -0.02086377 -0.02721505 0.01714945
v -0.02109934 -0.02741922 0.01801260
v -0.02169269 -0.02803562 0.02041161
v -0.01379137 -0.02797534 0.00995365
v -0.01379137 -0.02838369 0.01114203
v -0.02079646 -0.02848285 0.01980691
v -0.01972843 -0.02733172 0.01560864
v -0.01855058 -0.02737449 0.01418778
v -0.02137387 -0.02829813 0.02041161
v -0.01379137 -0.02748727 0.00875043
v -0.01454236 -0.02730838 0.00919685
v -0.01415092 -0.02709643 0.00833370
v -0.01501881 -0.02681059 0.00872570
v -0.01607444 -0.02617085 0.00866511
v -0.01701141 -0.02594918 0.00933164
v -0.01672270 -0.02575473 0.00866511
v -0.01722927 -0.02486610 0.00778094
v -0.01597172 -0.02572362 0.00778094
v -0.02608881 -0.01456221 0.00778094
v -0.02572394 -0.01520195 0.00778094
v -0.02594357 -0.01535556 0.00826568
v -0.02495170 -0.01645809 0.00778094
v -0.02450181 -0.01714061 0.00778094
v -0.02362861 -0.01837731 0.00779083
v -0.02261548 -0.01965679 0.00778094
v -0.02235158 -0.01996791 0.00778094
v -0.02081949 -0.02198435 0.00815316
v -0.02066539 -0.02313744 0.00972364
v -0.02075218 -0.02450442 0.01214368
v -0.02084251 -0.02588890 0.01460205
v -0.02308485 -0.01906372 0.00778094
v -0.02063705 -0.02703226 0.01642975
v -0.02028636 -0.02663169 0.01510534
v -0.01995337 -0.02624669 0.01384277
v -0.01941316 -0.02713143 0.01474549
v -0.01820166 -0.02719365 0.01332587
v -0.01540493 -0.02707893 0.00972982
v -0.01637732 -0.02662586 0.00996231
v -0.01773052 -0.02569056 0.00984112
v -0.01767738 -0.02507221 0.00870344
v -0.01726292 -0.02484276 0.00778094
v -0.01896150 -0.02631669 0.01259875
v -0.01852579 -0.02610863 0.01162925
v -0.01970009 -0.02603474 0.01306371
v -0.02517133 -0.01610420 0.00778094
v -0.02364278 -0.01834814 0.00778094
v -0.02361267 -0.01838898 0.00778094
v -0.02108163 -0.02139322 0.00778094
v -0.02066894 -0.02183657 0.00778094
v -0.02024385 -0.02226630 0.00778094
v -0.01950171 -0.02326772 0.00818036
v -0.02031115 -0.02277187 0.00859833
v -0.01980105 -0.02352634 0.00904351
v -0.02022614 -0.02527249 0.01260369
v -0.02059986 -0.02566334 0.01384277
v -0.01811132 -0.02449858 0.00829660
v -0.01787753 -0.02436441 0.00778094
v -0.01903766 -0.02341939 0.00778094
v -0.01869051 -0.02371106 0.00778094
v -0.01836283 -0.02398329 0.00778094
v -0.01981345 -0.02267853 0.00778094
f 1 2 3
f 1 3 4
f 1 4 5
f 1 5 6
f 1 6 7
f 1 7 8
f 1 8 9
f 1 9 10
f 1 10 11
f 1 11 12
f 1 12 21
f 1 21 31
f 1 31 45
f 1 45 67
f 1 67 100
f 1 100 106
f 1 106 79
f 1 79 47
f 1 47 33
f 1 33 23
f 1 23 13
f 1 13 2
f 2 13 22
f 2 22 32
f 2 32 46
f 2 46 54
f 2 54 38
f 2 38 37
f 2 37 26
f 2 26 25
f 2 25 18
f 2 18 14
f 2 14 8
f 2 8 7
f 2 7 6
f 2 6 5
f 2 5 4
f 2 4 3
f 8 14 11
f 8 11 9
f 9 11 15
f 9 15 10
f 10 15 11
f 11 16 17
f 11 17 12
f 11 14 18
f 11 18 16
f 12 19 20
f 12 20 21
f 12 17 19
f 13 23 22
f 16 24 17
f 16 18 25
f 16 25 26
f 16 26 27
f 16 27 24
f 17 24 28
f 17 28 20
f 17 20 19
f 20 29 30
f 20 30 31
f 20 31 21
f 20 28 29
f 22 23 32
f 23 33 48
f 23 48 78
f 23 78 77
f 23 77 76
f 23 76 75
f 23 75 74
f 23 74 73
f 23 73 72
f 23 72 71
f 23 71 70
f 23 70 102
f 23 102 101
f 23 101 107
f 23 107 80
f 23 80 49
f 23 49 34
f 23 34 32
f 24 35 36
f 24 36 28
f 24 27 35
f 26 37 27
f 27 37 38
f 27 38 39
f 27 39 40
f 27 40 35
f 28 36 41
f 28 41 29
f 29 42 43
f 29 43 30
f 29 41 42
f 30 43 44
f 30 44 45
f 30 45 31
f 32 34 46
f 33 47 48
f 34 49 82
f 34 82 115
f 34 115 114
f 34 114 138
f 34 138 154
f 34 154 157
f 34 157 156
f 34 156 155
f 34 155 158
f 34 158 147
f 34 147 146
f 34 146 145
f 34 145 123
f 34 123 122
f 34 122 128
f 34 128 144
f 34 144 143
f 34 143 120
f 34 120 119
f 34 119 142
f 34 142 117
f 34 117 116
f 34 116 84
f 34 84 83
f 34 83 57
f 34 57 56
f 34 56 55
f 34 55 54
f 34 54 46
f 35 40 36
f 36 50 51
f 36 51 42
f 36 42 41
f 36 40 52
f 36 52 53
f 36 53 50
f 38 54 55
f 38 55 39
f 39 55 56
f 39 56 57
f 39 57 58
f 39 58 40
f 40 58 59
f 40 59 52
f 42 51 43
f 43 51 60
f 43 60 61
f 43 61 62
f 43 62 63
f 43 63 64
f 43 64 44
f 44 65 45
f 44 64 65
f 45 65 66
f 45 66 67
f 47 68 69
f 47 69 70
f 47 70 71
f 47 71 72
f 47 72 73
f 47 73 74
f 47 74 75
f 47 75 76
f 47 76 77
f 47 77 78
f 47 78 48
f 47 79 68
f 49 80 81
f 49 81 82
f 50 53 51
f 51 53 60
f 52 59 83
f 52 83 84
f 52 84 85
f 52 85 86
f 52 86 87
f 52 87 53
f 53 88 60
f 53 87 86
f 53 86 88
f 57 83 59
f 57 59 58
f 60 88 61
f 61 89 90
f 61 90 63
f 61 63 62
f 61 88 89
f 63 90 91
f 63 91 92
f 63 92 64
f 64 93 94
f 64 94 95
f 64 95 96
f 64 96 66
f 64 66 65
f 64 92 97
f 64 97 93
f 66 96 98
f 66 98 99
f 66 99 100
f 66 100 67
f 68 79 69
f 69 101 102
f 69 102 70
f 69 79 103
f 69 103 104
f 69 104 105
f 69 105 101
f 79 106 103
f 80 107 108
f 80 108 109
f 80 109 81
f 81 109 110
f 81 110 111
f 81 111 112
f 81 112 113
f 81 113 114
f 81 114 115
f 81 115 82
f 84 116 85
f 85 116 117
f 85 117 118
f 85 118 86
f 86 118 88
f 88 118 89
f 89 119 120
f 89 120 121
f 89 121 91
f 89 91 90
f 89 118 119
f 91 121 97
f 91 97 92
f 93 97 122
f 93 122 94
f 94 122 123
f 94 123 124
f 94 124 125
f 94 125 95
f 95 126 127
f 95 127 96
f 95 125 126
f 96 127 98
f 97 121 128
f 97 128 122
f 98 104 103
f 98 103 106
f 98 106 99
f 98 127 129
f 98 129 104
f 99 106 100
f 101 105 108
f 101 108 107
f 104 129 130
f 104 130 131
f 104 131 132
f 104 132 105
f 105 132 133
f 105 133 108
f 108 133 134
f 108 134 110
f 108 110 109
f 110 134 111
f 111 134 135
f 111 135 112
f 112 136 137
f 112 137 138
f 112 138 113
f 112 135 133
f 112 133 132
f 112 132 139
f 112 139 140
f 112 140 141
f 112 141 136
f 113 138 114
f 117 142 118
f 118 142 119
f 120 143 121
f 121 143 144
f 121 144 128
f 123 145 124
f 124 146 147
f 124 147 148
f 124 148 149
f 124 149 125
f 124 145 146
f 125 149 150
f 125 150 141
f 125 141 151
f 125 151 126
f 126 151 152
f 126 152 127
f 127 152 141
f 127 141 131
f 127 131 130
f 127 130 129
f 131 141 132
f 132 141 139
f 133 135 134
f 136 141 137
f 137 153 138
f 137 141 153
f 138 153 154
f 139 141 140
f 141 152 151
f 141 150 148
f 141 148 155
f 141 155 156
f 141 156 157
f 141 157 153
f 147 158 148
f 148 150 149
f 148 158 155
f 153 157 154

