# https://github.com/mikedh/trimesh
v -0.00759137 0.03943968 0.03618726
v -0.00786463 0.03935686 0.03618726
v -0.00759137 0.03190640 0.03618726
v -0.00759137 0.03869795 0.03287367
v -0.00761453 0.03868874 0.03284962
v -0.00807305 0.03879549 0.03371289
v -0.00829535 0.03889672 0.03454730
v -0.00866356 0.03911391 0.03618726
v -0.02491996 0.02063686 0.03618726
v -0.00759137 0.02371054 0.01162144
v -0.00759137 0.03868138 0.03280393
v -0.00759137 0.03776296 0.02937010
v -0.00799894 0.03747032 0.02867276
v -0.00820041 0.03758259 0.02937010
v -0.02231245 0.03104319 0.02982699
v -0.02252086 0.03114995 0.03066621
v -0.02314842 0.03220273 0.03618726
v -0.00868208 0.03902556 0.03584100
v -0.03077874 0.02063686 0.03618726
v -0.02472543 0.02063686 0.03579050
v -0.01354742 0.02063686 0.01162144
v -0.00759137 0.03117387 0.01162144
v -0.00759137 0.03751817 0.02851646
v -0.00759137 0.03739853 0.02812691
v -0.00759137 0.03626109 0.02445742
v -0.00759137 0.03609544 0.02392600
v -0.00765621 0.03605495 0.02386588
v -0.00803136 0.03619667 0.02472674
v -0.02226150 0.02973826 0.02600361
v -0.02316927 0.03074871 0.03066621
v -0.02338000 0.03090147 0.03156795
v -0.02089059 0.02968857 0.02356049
v -0.02355368 0.03103215 0.03242881
v -0.02418124 0.03153278 0.03618726
v -0.03101958 0.02084484 0.03618726
v -0.03124884 0.02063686 0.03618005
v -0.02331052 0.02063686 0.01162144
v -0.00766548 0.03115547 0.01162144
v -0.00759137 0.03220089 0.01389383
v -0.00759137 0.03602550 0.02372401
v -0.00798042 0.03487517 0.02093943
v -0.02351199 0.02971065 0.02867757
v -0.02200909 0.02957261 0.02514034
v -0.02234487 0.02854008 0.02322865
v -0.02363704 0.02985606 0.02937010
v -0.00800357 0.03229843 0.01444449
v -0.01847760 0.02718545 0.01428098
v -0.01966557 0.02713944 0.01570452
v -0.02101796 0.02847750 0.02077591
v -0.02126805 0.02865603 0.02160792
v -0.02156910 0.02944562 0.02407268
v -0.02480648 0.03100270 0.03618726
v -0.02462817 0.03116099 0.03618726
v -0.02384546 0.03010085 0.03066621
v -0.02485512 0.02980820 0.03360227
v -0.02475785 0.02959286 0.03274141
v -0.03089685 0.02063686 0.03497773
v -0.02096006 0.02457742 0.01308827
v -0.02111753 0.02349887 0.01162144
v -0.02336379 0.02063686 0.01175851
v -0.02231013 0.02724803 0.02067973
v -0.02212719 0.02699956 0.01981887
v -0.00782526 0.03111130 0.01162144
v -0.00759137 0.03237206 0.01428098
v -0.00813557 0.03106160 0.01172725
v -0.00759137 0.03494327 0.02076870
v -0.00759137 0.03364202 0.01744308
v -0.00777895 0.03350214 0.01725552
v -0.02351662 0.02842965 0.02606613
v -0.02164552 0.02889898 0.02283910
v -0.02213877 0.02833946 0.02236538
v -0.00759137 0.03343036 0.01690685
v -0.00824209 0.03096773 0.01162144
v -0.00858482 0.03080761 0.01162144
v -0.00873766 0.03073583 0.01162144
v -0.01811635 0.02699956 0.01341771
v -0.01934137 0.02693698 0.01484126
v -0.01987630 0.02602960 0.01384333
v -0.02022829 0.02643452 0.01519474
v -0.02079796 0.02701612 0.01724831
v -0.03056570 0.02063686 0.03390526
v -0.02070765 0.02431791 0.01222501
v -0.02102027 0.02593389 0.01555063
v -0.02079333 0.02568910 0.01468736
v -0.02052239 0.02412465 0.01162144
v -0.02345410 0.02063686 0.01199897
v -0.00804294 0.03104319 0.01162144
v -0.02371346 0.02063686 0.01278048
v -0.02390798 0.02063686 0.01337924
v -0.02104343 0.02722410 0.01811157
v -0.01661344 0.02694066 0.01162144
v -0.01681028 0.02684127 0.01162144
v -0.01767868 0.02633329 0.01162144
v -0.01798204 0.02614555 0.01162144
v -0.01893380 0.02669955 0.01384574
v -0.01964705 0.02583818 0.01314358
v -0.02052471 0.02544247 0.01384333
v -0.02017735 0.02507989 0.01268429
v -0.01986472 0.02473939 0.01162144
v -0.01839887 0.02586211 0.01162144
v -0.01891296 0.02607561 0.01264822
v -0.01930895 0.02558235 0.01228031
v -0.01911443 0.02533756 0.01162144
f 1 2 8
f 1 8 17
f 1 17 34
f 1 34 53
f 1 53 52
f 1 52 35
f 1 35 19
f 1 19 9
f 1 9 3
f 1 3 10
f 1 10 22
f 1 22 39
f 1 39 64
f 1 64 72
f 1 72 67
f 1 67 66
f 1 66 40
f 1 40 26
f 1 26 25
f 1 25 24
f 1 24 23
f 1 23 12
f 1 12 11
f 1 11 4
f 1 4 5
f 1 5 6
f 1 6 7
f 1 7 2
f 2 7 8
f 3 9 10
f 4 11 5
f 5 11 12
f 5 12 13
f 5 13 6
f 6 13 14
f 6 14 15
f 6 15 7
f 7 15 16
f 7 16 17
f 7 17 18
f 7 18 8
f 8 18 17
f 9 19 36
f 9 36 57
f 9 57 81
f 9 81 89
f 9 89 88
f 9 88 86
f 9 86 60
f 9 60 37
f 9 37 21
f 9 21 20
f 9 20 10
f 10 21 37
f 10 37 59
f 10 59 85
f 10 85 99
f 10 99 103
f 10 103 100
f 10 100 94
f 10 94 93
f 10 93 92
f 10 92 91
f 10 91 75
f 10 75 74
f 10 74 73
f 10 73 87
f 10 87 63
f 10 63 38
f 10 38 22
f 10 20 21
f 12 23 13
f 13 15 14
f 13 23 24
f 13 24 25
f 13 25 26
f 13 26 27
f 13 27 28
f 13 28 15
f 15 29 30
f 15 30 31
f 15 31 16
f 15 28 32
f 15 32 29
f 16 31 33
f 16 33 17
f 17 33 34
f 19 35 36
f 22 38 39
f 26 40 27
f 27 40 41
f 27 41 28
f 28 41 32
f 29 42 30
f 29 32 43
f 29 43 44
f 29 44 42
f 30 42 31
f 31 42 45
f 31 45 33
f 32 41 46
f 32 46 47
f 32 47 48
f 32 48 49
f 32 49 50
f 32 50 51
f 32 51 43
f 33 52 53
f 33 53 34
f 33 45 54
f 33 54 52
f 35 52 36
f 36 52 55
f 36 55 56
f 36 56 45
f 36 45 57
f 37 58 59
f 37 60 61
f 37 61 62
f 37 62 58
f 38 63 39
f 39 63 65
f 39 65 64
f 40 66 41
f 41 66 67
f 41 67 68
f 41 68 46
f 42 69 45
f 42 44 69
f 43 51 70
f 43 70 71
f 43 71 44
f 44 71 61
f 44 61 69
f 45 69 57
f 45 56 54
f 46 68 72
f 46 72 64
f 46 64 65
f 46 65 73
f 46 73 74
f 46 74 75
f 46 75 76
f 46 76 47
f 47 76 77
f 47 77 48
f 48 77 78
f 48 78 79
f 48 79 80
f 48 80 49
f 49 71 50
f 49 80 71
f 50 71 70
f 50 70 51
f 52 56 55
f 52 54 56
f 57 69 81
f 58 82 59
f 58 62 83
f 58 83 84
f 58 84 82
f 59 82 85
f 60 86 61
f 61 71 62
f 61 86 69
f 62 71 83
f 63 87 65
f 65 87 73
f 67 72 68
f 69 86 88
f 69 88 89
f 69 89 81
f 71 80 90
f 71 90 83
f 75 91 76
f 76 91 92
f 76 92 93
f 76 93 94
f 76 94 95
f 76 95 77
f 77 95 96
f 77 96 78
f 78 84 79
f 78 96 84
f 79 84 80
f 80 84 83
f 80 83 90
f 82 84 97
f 82 97 98
f 82 98 99
f 82 99 85
f 84 96 97
f 94 100 101
f 94 101 95
f 95 101 96
f 96 101 100
f 96 100 102
f 96 102 103
f 96 103 99
f 96 99 98
f 96 98 97
f 100 103 102

