# https://github.com/mikedh/trimesh
v 0.02157616 -0.01194417 0.00778077
v 0.02951930 -0.01194417 0.00778077
v 0.02722005 -0.01194417 0.02040292
v 0.02919670 0.00560142 0.02041157
v 0.02399106 0.00560142 0.00778077
v 0.02959386 -0.01175009 0.00778077
v 0.02963038 -0.01186516 0.00791060
v 0.02954973 -0.01194417 0.00783023
v 0.02722461 -0.01194417 0.02041157
v 0.03495471 0.00560142 0.02041157
v 0.03124944 0.00560142 0.00778077
v 0.02970798 -0.01143237 0.00778077
v 0.03090097 -0.01183425 0.01050971
v 0.03080511 -0.01194417 0.01039966
v 0.02966233 -0.01194417 0.00804290
v 0.03029231 -0.01107513 0.00866610
v 0.03395041 -0.01194417 0.02041157
v 0.03667268 0.00186423 0.02041157
v 0.03396715 0.00560142 0.01657102
v 0.03164964 0.00560142 0.00867475
v 0.03127530 0.00546746 0.00778077
v 0.02982819 -0.01107513 0.00778077
v 0.03150204 -0.01194417 0.01212087
v 0.03093749 -0.01194417 0.01068653
v 0.03073359 -0.01107513 0.00959594
v 0.03084163 -0.01036754 0.00935606
v 0.03099988 -0.01107513 0.01024387
v 0.03076859 -0.00880465 0.00821972
v 0.03066207 -0.00987463 0.00865744
v 0.03394280 -0.01194417 0.02037942
v 0.03677920 -0.00202239 0.02041157
v 0.03671833 0.00174229 0.02041157
v 0.03258090 0.00560142 0.01139999
v 0.03290806 0.00560142 0.01255240
v 0.03326718 0.00560142 0.01390266
v 0.03362781 0.00560142 0.01527517
v 0.03393062 0.00560142 0.01643006
v 0.03169985 0.00560142 0.00879469
v 0.03219135 0.00400590 0.00922499
v 0.03189767 0.00444385 0.00874276
v 0.03196767 0.00315919 0.00841880
v 0.03152790 0.00389770 0.00778077
v 0.03060729 -0.00857966 0.00778077
v 0.03095880 -0.00950365 0.00908280
v 0.03153399 -0.00848692 0.00995947
v 0.03193419 -0.01194417 0.01329183
v 0.03074424 -0.00811423 0.00778077
v 0.03088728 -0.00794076 0.00796130
v 0.03392606 -0.01194417 0.02031265
v 0.03382411 -0.01194417 0.01992068
v 0.03354564 -0.01194417 0.01890181
v 0.03274372 -0.01194417 0.01600223
v 0.03239830 -0.01194417 0.01477315
v 0.03223396 -0.01194417 0.01421425
v 0.03217157 -0.01194417 0.01400282
v 0.03712005 -0.00070338 0.02041157
v 0.03707744 0.00054350 0.02041157
v 0.03610509 0.00138849 0.01817723
v 0.03229635 0.00560142 0.01047509
v 0.03253677 0.00560142 0.01125409
v 0.03203614 0.00560142 0.00968003
v 0.03211070 0.00486807 0.00944014
v 0.03263416 0.00315919 0.00995947
v 0.03226744 0.00315919 0.00906549
v 0.03477059 0.00132151 0.01441951
v 0.03162985 0.00315919 0.00778077
v 0.03234048 0.00186423 0.00891216
v 0.03203462 0.00186423 0.00826547
v 0.03106075 -0.00841822 0.00865744
v 0.03136356 -0.00719367 0.00866610
v 0.03612792 -0.00164283 0.01811911
v 0.03083859 -0.00778104 0.00778077
v 0.03098010 -0.00719367 0.00778077
v 0.03660268 -0.00072399 0.01901804
v 0.03596054 -0.00072399 0.01728076
v 0.03564555 -0.00072399 0.01643006
v 0.03561816 0.00057098 0.01643006
v 0.03708810 0.00050571 0.02041157
v 0.03205897 0.00560142 0.00974927
v 0.03354412 0.00186423 0.01167820
v 0.03326870 0.00186423 0.01103152
v 0.03280763 0.00186423 0.00995947
v 0.03656768 0.00057098 0.01901804
v 0.03513579 0.00057098 0.01513544
v 0.03481624 0.00057098 0.01431936
v 0.03169681 0.00256495 0.00778077
v 0.03403714 0.00057098 0.01254869
v 0.03359890 0.00057098 0.01156692
v 0.03330522 0.00057098 0.01092023
v 0.03286545 0.00057098 0.00995947
v 0.03206353 0.00057098 0.00821478
v 0.03177441 0.00186423 0.00778077
v 0.03185202 0.00057098 0.00778077
v 0.03162833 -0.00589870 0.00866610
v 0.03220200 -0.00417952 0.00920150
v 0.03477363 -0.00149856 0.01441828
v 0.03122813 -0.00589870 0.00778077
v 0.03515101 -0.00072399 0.01513544
v 0.03481928 -0.00072399 0.01431812
v 0.03452712 -0.00072399 0.01367143
v 0.03235417 -0.00072399 0.00887136
v 0.03206049 -0.00072399 0.00822467
v 0.03185050 -0.00072399 0.00778077
v 0.03197984 -0.00331049 0.00839036
v 0.03227961 -0.00331049 0.00903705
v 0.03266307 -0.00331049 0.00995947
v 0.03165116 -0.00331049 0.00778077
v 0.03280002 -0.00201896 0.00995947
v 0.03233743 -0.00201896 0.00891093
v 0.03203766 -0.00201896 0.00826424
v 0.03183072 -0.00131823 0.00778077
v 0.03173485 -0.00253935 0.00778077
v 0.03178507 -0.00201896 0.00778077
f 1 2 8
f 1 8 15
f 1 15 14
f 1 14 24
f 1 24 23
f 1 23 46
f 1 46 55
f 1 55 54
f 1 54 53
f 1 53 52
f 1 52 51
f 1 51 50
f 1 50 49
f 1 49 30
f 1 30 17
f 1 17 9
f 1 9 3
f 1 3 4
f 1 4 5
f 1 5 11
f 1 11 21
f 1 21 42
f 1 42 66
f 1 66 86
f 1 86 92
f 1 92 93
f 1 93 103
f 1 103 111
f 1 111 113
f 1 113 112
f 1 112 107
f 1 107 97
f 1 97 73
f 1 73 72
f 1 72 47
f 1 47 43
f 1 43 22
f 1 22 12
f 1 12 6
f 1 6 2
f 2 6 7
f 2 7 8
f 3 9 4
f 4 10 19
f 4 19 37
f 4 37 36
f 4 36 35
f 4 35 34
f 4 34 33
f 4 33 60
f 4 60 59
f 4 59 79
f 4 79 61
f 4 61 38
f 4 38 20
f 4 20 11
f 4 11 5
f 4 9 17
f 4 17 31
f 4 31 56
f 4 56 78
f 4 78 57
f 4 57 32
f 4 32 18
f 4 18 10
f 6 12 7
f 7 13 14
f 7 14 15
f 7 15 8
f 7 12 16
f 7 16 13
f 10 18 19
f 11 20 21
f 12 22 16
f 13 23 24
f 13 24 14
f 13 16 25
f 13 25 26
f 13 26 27
f 13 27 23
f 16 22 28
f 16 28 29
f 16 29 26
f 16 26 25
f 17 30 31
f 18 32 33
f 18 33 34
f 18 34 35
f 18 35 36
f 18 36 37
f 18 37 19
f 20 38 39
f 20 39 40
f 20 40 21
f 21 40 41
f 21 41 42
f 22 43 28
f 23 27 26
f 23 26 44
f 23 44 45
f 23 45 46
f 26 29 28
f 26 28 44
f 28 43 47
f 28 47 48
f 28 48 44
f 30 49 31
f 31 49 50
f 31 50 51
f 31 51 52
f 31 52 53
f 31 53 54
f 31 54 55
f 31 55 56
f 32 57 58
f 32 58 59
f 32 59 60
f 32 60 33
f 38 61 62
f 38 62 39
f 39 63 64
f 39 64 40
f 39 62 65
f 39 65 63
f 40 64 41
f 41 66 42
f 41 64 67
f 41 67 68
f 41 68 66
f 44 48 69
f 44 69 70
f 44 70 45
f 45 70 71
f 45 71 46
f 46 71 55
f 47 72 48
f 48 72 73
f 48 73 70
f 48 70 69
f 55 71 56
f 56 71 74
f 56 74 75
f 56 75 76
f 56 76 77
f 56 77 78
f 57 78 58
f 58 78 65
f 58 65 61
f 58 61 79
f 58 79 59
f 61 65 62
f 63 65 64
f 64 65 80
f 64 80 81
f 64 81 82
f 64 82 67
f 65 78 83
f 65 83 77
f 65 77 84
f 65 84 85
f 65 85 80
f 66 68 86
f 67 82 87
f 67 87 88
f 67 88 89
f 67 89 90
f 67 90 91
f 67 91 68
f 68 92 86
f 68 91 93
f 68 93 92
f 70 73 94
f 70 94 95
f 70 95 96
f 70 96 71
f 71 96 76
f 71 76 75
f 71 75 74
f 73 97 95
f 73 95 94
f 76 96 98
f 76 98 84
f 76 84 77
f 77 83 78
f 80 85 81
f 81 85 82
f 82 85 87
f 84 98 85
f 85 98 99
f 85 99 87
f 87 99 88
f 88 99 100
f 88 100 101
f 88 101 102
f 88 102 89
f 89 102 90
f 90 102 91
f 91 102 103
f 91 103 93
f 95 97 104
f 95 104 105
f 95 105 106
f 95 106 96
f 96 106 105
f 96 105 99
f 96 99 98
f 97 107 104
f 99 105 108
f 99 108 109
f 99 109 100
f 100 109 101
f 101 109 102
f 102 109 110
f 102 110 103
f 103 110 111
f 104 107 112
f 104 112 113
f 104 113 110
f 104 110 109
f 104 109 105
f 105 109 108
f 110 113 111

