# https://github.com/mikedh/trimesh
v -0.03905974 -0.00958519 0.05748881
v -0.04268413 -0.00135415 0.05748881
v -0.03436763 -0.00958519 0.05748881
v -0.03912869 -0.00958519 0.05793830
v -0.04290608 -0.00135713 0.05851548
v -0.04286190 -0.00110293 0.05784636
v -0.04283497 -0.00097062 0.05748881
v -0.03509488 0.00560142 0.05748881
v -0.03813532 0.00560142 0.10443480
v -0.03757399 -0.00958519 0.10456760
v -0.03914916 -0.00958519 0.05809154
v -0.04419250 -0.00131550 0.07156597
v -0.04379170 -0.00072386 0.06561025
v -0.04365164 -0.00072386 0.06431797
v -0.04304722 -0.00084575 0.05902627
v -0.04297180 -0.00045628 0.05784636
v -0.03928168 -0.00958519 0.05914375
v -0.03930431 -0.00958519 0.05933785
v -0.04379278 -0.00958519 0.09924525
v -0.04289100 -0.00065548 0.05748881
v -0.04013391 0.00560142 0.05748881
v -0.03827000 0.00560142 0.10572707
v -0.03771190 -0.00958519 0.10572707
v -0.04422590 -0.00141510 0.07242919
v -0.04451895 -0.00072386 0.07467152
v -0.04443168 -0.00072386 0.07337924
v -0.04431317 -0.00082048 0.07203078
v -0.04427223 -0.00049344 0.07078958
v -0.04416125 -0.00114009 0.07078958
v -0.04391238 -0.00072386 0.06690764
v -0.04423129 -0.00025559 0.06978845
v -0.04380787 0.00057093 0.06561025
v -0.04294809 -0.00031654 0.05748881
v -0.04379494 -0.00958519 0.10055285
v -0.04420543 -0.00785039 0.09859655
v -0.04244926 0.00178544 0.05748881
v -0.04291900 0.00123988 0.05841333
v -0.04015762 0.00560142 0.05766248
v -0.03848332 0.00560142 0.10701935
v -0.03789614 -0.00958519 0.10689165
v -0.04490143 -0.00072386 0.08114313
v -0.04454050 0.00057093 0.07467152
v -0.04412355 -0.00070156 0.06941047
v -0.04423129 0.00013686 0.06978845
v -0.04366780 0.00057093 0.06431797
v -0.04294271 0.00025132 0.05748881
v -0.04392854 0.00057093 0.06690764
v -0.04420651 0.00122501 0.07138719
v -0.04419358 -0.00776417 0.09955172
v -0.04420543 -0.00785039 0.09868850
v -0.04356868 -0.00958519 0.10443480
v -0.04479369 -0.00460524 0.09796319
v -0.04501887 -0.00331046 0.09666580
v -0.04534640 -0.00072386 0.09019930
v -0.04528930 -0.00072386 0.08890191
v -0.04522896 -0.00072386 0.08760963
v -0.04516755 -0.00072386 0.08631225
v -0.04504149 -0.00072386 0.08372769
v -0.04497470 -0.00072386 0.08243541
v -0.04285544 0.00086527 0.05748881
v -0.04295887 0.00131867 0.05914375
v -0.04264427 0.00209762 0.06043603
v -0.04063275 0.00560142 0.06141162
v -0.04296534 0.00050255 0.05792809
v -0.04310001 0.00057093 0.05914375
v -0.03851349 0.00560142 0.10714705
v -0.03793277 -0.00958519 0.10710107
v -0.04492083 0.00057093 0.08114313
v -0.04445431 0.00057093 0.07337924
v -0.04435411 0.00057093 0.07208186
v -0.04426038 0.00056944 0.07088663
v -0.04416987 0.00099906 0.07052397
v -0.04323792 0.00178842 0.06431797
v -0.04316573 0.00168585 0.06302569
v -0.04309570 0.00157287 0.06172830
v -0.04302782 0.00145097 0.06043603
v -0.04423344 0.00128002 0.07208186
v -0.04451680 0.00560142 0.09781506
v -0.04371413 -0.00848812 0.10443480
v -0.04497254 -0.00331046 0.09796319
v -0.04342108 -0.00958519 0.10572707
v -0.04356868 -0.00848812 0.10572707
v -0.04508998 -0.00201716 0.09796319
v -0.04513523 -0.00201716 0.09666580
v -0.04516432 -0.00201716 0.09537352
v -0.04535933 -0.00072386 0.09149158
v -0.04537334 0.00057093 0.09149158
v -0.04535502 0.00057093 0.09019930
v -0.04529900 0.00057093 0.08890191
v -0.04523974 0.00057093 0.08760963
v -0.04517941 0.00057093 0.08631225
v -0.04505873 0.00057093 0.08372769
v -0.04499301 0.00057093 0.08243541
v -0.04271969 0.00221952 0.06172830
v -0.04066076 0.00560142 0.06165169
v -0.03880870 0.00560142 0.10822991
v -0.03835404 -0.00958519 0.10831674
v -0.04428192 0.00137664 0.07337924
v -0.04279079 0.00233250 0.06302569
v -0.04093658 0.00560142 0.06417495
v -0.04474413 0.00445232 0.09666580
v -0.04502749 0.00315902 0.09666580
v -0.04451788 0.00560142 0.09796319
v -0.04419896 -0.00392738 0.10501709
v -0.04500486 -0.00072386 0.10055285
v -0.04511907 -0.00072386 0.09925546
v -0.04338552 -0.00958519 0.10592628
v -0.04334243 -0.00848812 0.10701935
v -0.04424853 -0.00306369 0.10533377
v -0.04518587 -0.00072386 0.09796319
v -0.04525698 -0.00072386 0.09537352
v -0.04532701 -0.00072386 0.09278386
v -0.04535179 0.00057093 0.09278386
v -0.04521280 0.00186423 0.09408124
v -0.04519125 0.00186423 0.09278386
v -0.03884102 0.00560142 0.10830652
v -0.03908667 0.00560142 0.10887860
v -0.03885180 -0.00958519 0.10907780
v -0.04499194 0.00315902 0.09537352
v -0.04515032 0.00186423 0.09666580
v -0.04508890 0.00186423 0.09796319
v -0.04495207 0.00315902 0.09796319
v -0.04475598 0.00445232 0.09796319
v -0.04518910 0.00186423 0.09537352
v -0.04425715 0.00560142 0.10184513
v -0.04461700 -0.00072386 0.10443480
v -0.04488743 0.00057093 0.10184513
v -0.04501240 0.00057093 0.10055285
v -0.04512123 0.00057093 0.09925546
v -0.04519018 0.00057093 0.09796319
v -0.04318944 -0.00958519 0.10701935
v -0.04414402 -0.00072386 0.10735136
v -0.04407937 -0.00197553 0.10694784
v -0.04426361 -0.00072386 0.10670267
v -0.04421944 -0.00151767 0.10646260
v -0.04444030 -0.00072386 0.10572707
v -0.04429593 -0.00197553 0.10575262
v -0.04299012 -0.00958519 0.10790811
v -0.04306769 -0.00848812 0.10810732
v -0.04531623 0.00057093 0.09408124
v -0.03915994 0.00560142 0.10893479
v -0.03973312 0.00560142 0.10929233
v -0.03967386 -0.00958519 0.10952219
v -0.04474198 0.00186423 0.10184513
v -0.04423344 0.00531303 0.10279519
v -0.04416987 0.00560142 0.10305568
v -0.04421297 0.00560142 0.10247850
v -0.04462562 0.00057093 0.10443480
v -0.04475706 0.00057093 0.10313741
v -0.04414617 0.00057093 0.10736158
v -0.04375076 -0.00072386 0.10831674
v -0.04426576 0.00057093 0.10671288
v -0.04444461 0.00057093 0.10572707
v -0.04294379 -0.00958519 0.10800516
v -0.04276817 -0.00848812 0.10875601
v -0.04284574 -0.00719333 0.10887860
v -0.03986456 0.00560142 0.10933830
v -0.04096782 0.00560142 0.10966520
v -0.04096782 -0.00589855 0.10967031
v -0.04096782 -0.00848812 0.10966520
v -0.04096782 -0.00958519 0.10964988
v -0.04461161 0.00186423 0.10313741
v -0.04445862 0.00315902 0.10313741
v -0.04429270 0.00451475 0.10318849
v -0.04405352 0.00560142 0.10428156
v -0.04448017 0.00186423 0.10443480
v -0.04424853 0.00289441 0.10533888
v -0.04419681 0.00375661 0.10502220
v -0.04363010 0.00560142 0.10701935
v -0.04376477 0.00445232 0.10701935
v -0.04408153 0.00183301 0.10695295
v -0.04422159 0.00137962 0.10647792
v -0.04375399 0.00057093 0.10831674
v -0.04317327 0.00560142 0.10841379
v -0.04322068 0.00560142 0.10827077
v -0.04289100 -0.00638465 0.10893989
v -0.04292870 -0.00552096 0.10898075
v -0.04316250 -0.00072386 0.10912888
v -0.04316358 0.00057093 0.10913399
v -0.04429916 0.00183301 0.10575262
v -0.04267013 -0.00958519 0.10855170
v -0.04202260 -0.00958519 0.10920550
v -0.04111435 0.00560142 0.10963966
v -0.04226179 0.00057093 0.10960391
v -0.04226179 -0.00072386 0.10960391
v -0.04226179 -0.00201716 0.10955283
v -0.04226179 -0.00331046 0.10949154
v -0.04226179 -0.00460524 0.10942003
v -0.04212065 -0.00848812 0.10925658
v -0.04424098 0.00412528 0.10415897
v -0.04403735 0.00560142 0.10444501
v -0.04417203 0.00224330 0.10620210
v -0.04399641 0.00445232 0.10572707
v -0.04386066 0.00560142 0.10572707
v -0.04388113 0.00560142 0.10558406
v -0.04365703 0.00560142 0.10687633
v -0.04292547 0.00530857 0.10897565
v -0.04291146 0.00560142 0.10896033
v -0.04219822 -0.00719333 0.10929744
v -0.04238030 -0.00593125 0.10927190
v -0.04226179 0.00186423 0.10955283
v -0.04226179 0.00315902 0.10948643
v -0.04226179 0.00445232 0.10941492
v -0.04236307 0.00560142 0.10928212
v -0.04255592 0.00560142 0.10916975
f 1 2 7
f 1 7 20
f 1 20 33
f 1 33 46
f 1 46 60
f 1 60 36
f 1 36 21
f 1 21 8
f 1 8 3
f 1 3 10
f 1 10 23
f 1 23 40
f 1 40 67
f 1 67 97
f 1 97 118
f 1 118 143
f 1 143 161
f 1 161 182
f 1 182 181
f 1 181 154
f 1 154 138
f 1 138 131
f 1 131 107
f 1 107 81
f 1 81 51
f 1 51 34
f 1 34 19
f 1 19 18
f 1 18 17
f 1 17 11
f 1 11 4
f 1 4 5
f 1 5 2
f 2 5 6
f 2 6 7
f 3 8 9
f 3 9 10
f 4 11 5
f 5 12 13
f 5 13 14
f 5 14 15
f 5 15 16
f 5 16 6
f 5 11 17
f 5 17 18
f 5 18 19
f 5 19 12
f 6 16 20
f 6 20 7
f 8 21 38
f 8 38 63
f 8 63 95
f 8 95 100
f 8 100 78
f 8 78 103
f 8 103 125
f 8 125 147
f 8 147 146
f 8 146 165
f 8 165 191
f 8 191 195
f 8 195 194
f 8 194 196
f 8 196 169
f 8 169 175
f 8 175 174
f 8 174 198
f 8 198 205
f 8 205 204
f 8 204 183
f 8 183 158
f 8 158 157
f 8 157 142
f 8 142 141
f 8 141 117
f 8 117 116
f 8 116 96
f 8 96 66
f 8 66 39
f 8 39 22
f 8 22 9
f 9 22 10
f 10 22 23
f 12 24 25
f 12 25 26
f 12 26 27
f 12 27 28
f 12 28 29
f 12 29 30
f 12 30 13
f 12 19 24
f 13 30 31
f 13 31 32
f 13 32 33
f 13 33 14
f 14 33 16
f 14 16 15
f 16 33 20
f 19 34 35
f 19 35 24
f 21 36 37
f 21 37 38
f 22 39 40
f 22 40 23
f 24 41 25
f 24 35 41
f 25 42 31
f 25 31 26
f 25 41 42
f 26 31 28
f 26 28 27
f 28 31 29
f 29 31 43
f 29 43 30
f 30 43 31
f 31 42 44
f 31 44 32
f 32 45 46
f 32 46 33
f 32 44 47
f 32 47 48
f 32 48 37
f 32 37 45
f 34 49 50
f 34 50 35
f 34 51 49
f 35 50 52
f 35 52 53
f 35 53 54
f 35 54 55
f 35 55 56
f 35 56 57
f 35 57 58
f 35 58 59
f 35 59 41
f 36 60 37
f 37 61 62
f 37 62 63
f 37 63 38
f 37 60 64
f 37 64 65
f 37 65 45
f 37 48 61
f 39 66 67
f 39 67 40
f 41 68 42
f 41 59 68
f 42 48 69
f 42 69 44
f 42 68 48
f 44 69 70
f 44 70 71
f 44 71 72
f 44 72 47
f 45 65 46
f 46 65 64
f 46 64 60
f 47 72 48
f 48 73 74
f 48 74 75
f 48 75 76
f 48 76 61
f 48 72 71
f 48 71 70
f 48 70 69
f 48 68 77
f 48 77 78
f 48 78 73
f 49 52 50
f 49 51 52
f 51 79 80
f 51 80 52
f 51 81 82
f 51 82 79
f 52 80 53
f 53 80 83
f 53 83 84
f 53 84 85
f 53 85 86
f 53 86 54
f 54 86 87
f 54 87 88
f 54 88 89
f 54 89 55
f 55 89 90
f 55 90 91
f 55 91 92
f 55 92 56
f 56 92 57
f 57 92 58
f 58 92 93
f 58 93 59
f 59 93 68
f 61 76 94
f 61 94 62
f 62 95 63
f 62 94 95
f 66 96 67
f 67 96 97
f 68 98 77
f 68 93 98
f 73 78 74
f 74 78 99
f 74 99 75
f 75 99 94
f 75 94 76
f 77 98 78
f 78 100 99
f 78 98 93
f 78 93 92
f 78 92 101
f 78 101 102
f 78 102 103
f 79 82 104
f 79 104 80
f 80 105 106
f 80 106 83
f 80 104 105
f 81 107 108
f 81 108 82
f 82 108 109
f 82 109 104
f 83 106 110
f 83 110 84
f 84 110 111
f 84 111 112
f 84 112 86
f 84 86 85
f 86 112 113
f 86 113 87
f 87 113 114
f 87 114 88
f 88 114 115
f 88 115 89
f 89 115 90
f 90 115 91
f 91 115 92
f 92 115 101
f 94 99 100
f 94 100 95
f 96 116 97
f 97 116 117
f 97 117 118
f 101 115 119
f 101 119 102
f 102 120 121
f 102 121 122
f 102 122 123
f 102 123 103
f 102 119 115
f 102 115 114
f 102 114 124
f 102 124 120
f 103 123 125
f 104 109 126
f 104 126 105
f 105 127 128
f 105 128 106
f 105 126 127
f 106 129 130
f 106 130 110
f 106 128 129
f 107 131 108
f 108 132 133
f 108 133 134
f 108 134 135
f 108 135 136
f 108 136 137
f 108 137 109
f 108 131 138
f 108 138 139
f 108 139 132
f 109 136 126
f 109 137 136
f 110 130 140
f 110 140 111
f 111 140 113
f 111 113 112
f 113 140 124
f 113 124 114
f 117 141 118
f 118 142 143
f 118 141 142
f 120 130 121
f 120 124 140
f 120 140 130
f 121 129 122
f 121 130 129
f 122 129 128
f 122 128 144
f 122 144 145
f 122 145 146
f 122 146 123
f 123 146 147
f 123 147 125
f 126 136 148
f 126 148 149
f 126 149 127
f 127 144 128
f 127 149 162
f 127 162 144
f 132 150 152
f 132 152 134
f 132 134 133
f 132 139 151
f 132 151 150
f 134 152 153
f 134 153 136
f 134 136 135
f 136 153 148
f 138 154 155
f 138 155 139
f 139 155 156
f 139 156 151
f 142 157 143
f 143 157 158
f 143 158 159
f 143 159 160
f 143 160 161
f 144 162 163
f 144 163 164
f 144 164 145
f 145 164 165
f 145 165 146
f 148 166 162
f 148 162 149
f 148 153 167
f 148 167 168
f 148 168 166
f 150 169 170
f 150 170 171
f 150 171 172
f 150 172 152
f 150 151 173
f 150 173 174
f 150 174 175
f 150 175 169
f 151 156 176
f 151 176 177
f 151 177 178
f 151 178 179
f 151 179 173
f 152 172 153
f 153 172 180
f 153 180 167
f 154 181 155
f 155 181 182
f 155 182 156
f 156 182 176
f 158 183 184
f 158 184 159
f 159 184 185
f 159 185 160
f 160 185 161
f 161 185 186
f 161 186 187
f 161 187 188
f 161 188 189
f 161 189 182
f 162 166 190
f 162 190 163
f 163 190 191
f 163 191 164
f 164 191 165
f 166 168 190
f 167 180 192
f 167 192 193
f 167 193 194
f 167 194 168
f 168 194 195
f 168 195 191
f 168 191 190
f 169 196 170
f 170 196 192
f 170 192 171
f 171 192 172
f 172 192 180
f 173 179 197
f 173 197 198
f 173 198 174
f 176 182 189
f 176 189 177
f 177 189 199
f 177 199 200
f 177 200 188
f 177 188 178
f 178 188 187
f 178 187 186
f 178 186 185
f 178 185 179
f 179 185 184
f 179 184 201
f 179 201 202
f 179 202 203
f 179 203 197
f 183 204 203
f 183 203 202
f 183 202 201
f 183 201 184
f 188 200 199
f 188 199 189
f 192 196 193
f 193 196 194
f 197 203 204
f 197 204 205
f 197 205 198

