# https://github.com/mikedh/trimesh
v -0.01724175 -0.02222189 0.02041626
v -0.02508719 -0.02222189 0.02041626
v -0.02589785 -0.00958520 0.02041626
v -0.03405071 -0.00958520 0.05521926
v -0.02787921 -0.02222189 0.05521926
v -0.03385700 -0.01820387 0.03128240
v -0.03246309 -0.01812347 0.02761946
v -0.03151768 -0.01717216 0.02290365
v -0.03134713 -0.01699526 0.02205180
v -0.03038908 -0.01713999 0.02041626
v -0.02588100 -0.02222189 0.02300927
v -0.03386121 -0.01949538 0.03645480
v -0.03190721 -0.00958520 0.02041626
v -0.03457290 -0.00958520 0.05521926
v -0.03417073 -0.02222189 0.05521926
v -0.03410124 -0.01757173 0.03077810
v -0.03396859 -0.01710659 0.02937426
v -0.03369486 -0.01801831 0.03042033
v -0.03478346 -0.01921456 0.03843109
v -0.03530354 -0.01839315 0.03713969
v -0.03519826 -0.01826449 0.03628784
v -0.03253679 -0.01686908 0.02489015
v -0.03241045 -0.01662785 0.02419845
v -0.03159980 -0.01628889 0.02161566
v -0.03114499 -0.01674537 0.02118973
v -0.03102497 -0.01638538 0.02041626
v -0.02740545 -0.02222189 0.02799427
v -0.03509930 -0.01945950 0.04049937
v -0.02860775 -0.02222189 0.03194002
v -0.02977635 -0.02222189 0.03591644
v -0.03369276 -0.01496027 0.02668925
v -0.03387595 -0.01496027 0.02733665
v -0.03386542 -0.01425885 0.02737072
v -0.03193248 -0.00958520 0.02051507
v -0.03188405 -0.01366630 0.02041626
v -0.03334744 -0.01496027 0.02548985
v -0.03861564 -0.00958520 0.05421408
v -0.03875251 -0.00959138 0.05521926
v -0.03653953 -0.02084131 0.05521926
v -0.03375172 -0.02222189 0.05275231
v -0.03507403 -0.01807399 0.03542577
v -0.03386121 -0.01691980 0.02868938
v -0.03518352 -0.01698660 0.03373912
v -0.03632896 -0.01937044 0.04490170
v -0.03644688 -0.01821254 0.04161358
v -0.03574571 -0.01754699 0.03713969
v -0.03541303 -0.01760513 0.03585170
v -0.03259996 -0.01570623 0.02342157
v -0.03217673 -0.01618374 0.02295476
v -0.03141451 -0.01588313 0.02056959
v -0.03123553 -0.01605508 0.02041626
v -0.03521932 -0.01954610 0.04136143
v -0.03641740 -0.01946693 0.04563088
v -0.03044383 -0.02222189 0.03843109
v -0.03534355 -0.01963393 0.04231209
v -0.03386963 -0.01566788 0.02736732
v -0.03406966 -0.01496027 0.02807946
v -0.03439392 -0.01496027 0.02937426
v -0.03282315 -0.00958520 0.02409964
v -0.03251994 -0.00958520 0.02286957
v -0.03167139 -0.01504811 0.02041626
v -0.03212620 -0.01496027 0.02160884
v -0.03245467 -0.01496027 0.02253906
v -0.03267155 -0.01496027 0.02318646
v -0.03297265 -0.01496027 0.02419845
v -0.03858406 -0.00958520 0.05396193
v -0.03870197 -0.01754699 0.05521926
v -0.03843877 -0.00958520 0.05285453
v -0.03776498 -0.01710164 0.04788316
v -0.03716068 -0.02038112 0.05521926
v -0.03646583 -0.02080049 0.05444237
v -0.03637107 -0.02075101 0.05358030
v -0.03258100 -0.02222189 0.04738228
v -0.03427180 -0.01625301 0.02937426
v -0.03578151 -0.01625301 0.03584488
v -0.03507824 -0.01652641 0.03287705
v -0.03461501 -0.01625301 0.03066907
v -0.03651005 -0.01711897 0.03998144
v -0.03651636 -0.01832882 0.04231209
v -0.03776077 -0.01825459 0.04925293
v -0.03702381 -0.01754699 0.04360690
v -0.03679641 -0.01754699 0.04231209
v -0.03657743 -0.01754947 0.04111610
v -0.03635423 -0.01798120 0.04074811
v -0.03602576 -0.01754699 0.03843109
v -0.03149031 -0.01553428 0.02041626
v -0.03664060 -0.01853541 0.04360690
v -0.03551621 -0.01974527 0.04360690
v -0.03649952 -0.01954981 0.04649295
v -0.03775235 -0.01951394 0.05318846
v -0.03767654 -0.01939641 0.05232298
v -0.03112393 -0.02222189 0.04105136
v -0.03515194 -0.01566541 0.03256357
v -0.03515194 -0.01555036 0.03256357
v -0.03444656 -0.00958520 0.03086670
v -0.03440024 -0.00958520 0.03066907
v -0.03413704 -0.00958520 0.02955145
v -0.03289474 -0.00958520 0.02439267
v -0.03838824 -0.01884097 0.05521926
v -0.03836718 -0.01754699 0.05266713
v -0.03823242 -0.00958520 0.05137232
v -0.03776498 -0.01669465 0.04788316
v -0.03768918 -0.01796512 0.04839086
v -0.03782604 -0.01753957 0.04880656
v -0.03801134 -0.01754699 0.05007752
v -0.03819452 -0.01754699 0.05137232
v -0.03713751 -0.01625301 0.04360690
v -0.03694169 -0.01625301 0.04231209
v -0.03673745 -0.01625301 0.04101729
v -0.03723227 -0.01754699 0.04490170
v -0.03720700 -0.02034278 0.05521926
v -0.03682378 -0.01985289 0.05007752
v -0.03624685 -0.02069287 0.05266713
v -0.03523195 -0.01615900 0.03328594
v -0.03605313 -0.01625301 0.03713969
v -0.03495401 -0.01615900 0.03206269
v -0.03653531 -0.01625301 0.03980085
v -0.03642372 -0.01625301 0.03915345
v -0.03629528 -0.01625301 0.03843109
v -0.03627632 -0.01754947 0.03962026
v -0.03782604 -0.01839562 0.05007752
v -0.03791659 -0.01971187 0.05521926
v -0.03781552 -0.01959063 0.05395852
v -0.03837771 -0.01886076 0.05521926
v -0.03792711 -0.01860469 0.05137232
v -0.03608261 -0.00958520 0.03842768
v -0.03586784 -0.00958520 0.03733050
v -0.03582994 -0.00958520 0.03713969
v -0.03559411 -0.00958520 0.03604251
v -0.03469502 -0.00958520 0.03197750
v -0.03807029 -0.00958520 0.05027514
v -0.03804082 -0.00958520 0.05007752
v -0.03724279 -0.00958520 0.04491533
v -0.03705750 -0.00958520 0.04380453
v -0.03702381 -0.00958520 0.04360690
v -0.03682799 -0.00958520 0.04250972
v -0.03679220 -0.00958520 0.04231209
f 1 2 10
f 1 10 26
f 1 26 51
f 1 51 86
f 1 86 61
f 1 61 35
f 1 35 13
f 1 13 3
f 1 3 4
f 1 4 5
f 1 5 15
f 1 15 40
f 1 40 73
f 1 73 92
f 1 92 54
f 1 54 30
f 1 30 29
f 1 29 27
f 1 27 11
f 1 11 2
f 2 6 7
f 2 7 8
f 2 8 9
f 2 9 10
f 2 11 12
f 2 12 6
f 3 13 34
f 3 34 60
f 3 60 59
f 3 59 98
f 3 98 97
f 3 97 96
f 3 96 95
f 3 95 130
f 3 130 129
f 3 129 128
f 3 128 127
f 3 127 126
f 3 126 137
f 3 137 136
f 3 136 135
f 3 135 134
f 3 134 133
f 3 133 132
f 3 132 131
f 3 131 101
f 3 101 68
f 3 68 66
f 3 66 37
f 3 37 14
f 3 14 4
f 4 14 38
f 4 38 67
f 4 67 99
f 4 99 124
f 4 124 122
f 4 122 111
f 4 111 70
f 4 70 39
f 4 39 15
f 4 15 5
f 6 16 17
f 6 17 18
f 6 18 8
f 6 8 7
f 6 12 19
f 6 19 20
f 6 20 21
f 6 21 16
f 8 18 9
f 9 22 23
f 9 23 24
f 9 24 25
f 9 25 10
f 9 18 22
f 10 25 26
f 11 27 12
f 12 28 19
f 12 27 29
f 12 29 30
f 12 30 28
f 13 31 32
f 13 32 33
f 13 33 34
f 13 35 36
f 13 36 31
f 14 37 38
f 15 39 40
f 16 21 41
f 16 41 17
f 17 42 18
f 17 41 43
f 17 43 42
f 18 42 22
f 19 28 20
f 20 28 44
f 20 44 45
f 20 45 21
f 21 45 46
f 21 46 47
f 21 47 43
f 21 43 41
f 22 48 23
f 22 42 48
f 23 48 49
f 23 49 24
f 24 50 25
f 24 49 50
f 25 50 26
f 26 50 51
f 28 52 53
f 28 53 44
f 28 30 52
f 30 54 55
f 30 55 52
f 31 36 56
f 31 56 32
f 32 56 57
f 32 57 33
f 33 57 58
f 33 58 59
f 33 59 60
f 33 60 34
f 35 61 62
f 35 62 63
f 35 63 64
f 35 64 65
f 35 65 36
f 36 65 56
f 37 66 38
f 38 66 68
f 38 68 69
f 38 69 67
f 39 70 71
f 39 71 40
f 40 71 72
f 40 72 73
f 42 43 74
f 42 74 56
f 42 56 48
f 43 75 76
f 43 76 77
f 43 77 74
f 43 47 46
f 43 46 78
f 43 78 75
f 44 53 79
f 44 79 45
f 45 79 80
f 45 80 81
f 45 81 82
f 45 82 83
f 45 83 78
f 45 78 84
f 45 84 46
f 46 84 85
f 46 85 78
f 48 64 63
f 48 63 62
f 48 62 61
f 48 61 86
f 48 86 50
f 48 50 49
f 48 56 64
f 50 86 51
f 52 55 53
f 53 87 79
f 53 55 88
f 53 88 89
f 53 89 90
f 53 90 91
f 53 91 87
f 54 92 88
f 54 88 55
f 56 74 77
f 56 77 93
f 56 93 58
f 56 58 57
f 56 65 64
f 58 93 94
f 58 94 95
f 58 95 96
f 58 96 97
f 58 97 98
f 58 98 59
f 67 69 100
f 67 100 80
f 67 80 99
f 68 101 102
f 68 102 69
f 69 103 104
f 69 104 105
f 69 105 106
f 69 106 100
f 69 102 107
f 69 107 108
f 69 108 109
f 69 109 78
f 69 78 110
f 69 110 103
f 70 72 71
f 70 111 112
f 70 112 72
f 72 113 92
f 72 92 73
f 72 112 89
f 72 89 113
f 75 93 114
f 75 114 76
f 75 78 115
f 75 115 93
f 76 114 93
f 76 93 116
f 76 116 77
f 77 116 93
f 78 109 117
f 78 117 118
f 78 118 119
f 78 119 115
f 78 85 120
f 78 120 84
f 78 83 82
f 78 82 81
f 78 81 110
f 79 87 80
f 80 91 121
f 80 121 99
f 80 100 106
f 80 106 105
f 80 105 103
f 80 103 110
f 80 110 81
f 80 87 91
f 84 120 85
f 88 92 113
f 88 113 89
f 89 112 122
f 89 122 123
f 89 123 90
f 90 123 124
f 90 124 99
f 90 99 125
f 90 125 91
f 91 125 121
f 93 115 94
f 94 115 126
f 94 126 127
f 94 127 128
f 94 128 129
f 94 129 130
f 94 130 95
f 99 121 125
f 101 131 107
f 101 107 102
f 103 105 104
f 107 131 132
f 107 132 108
f 108 132 133
f 108 133 109
f 109 133 117
f 111 122 112
f 115 119 126
f 117 133 134
f 117 134 135
f 117 135 118
f 118 135 119
f 119 135 136
f 119 136 137
f 119 137 126
f 122 124 123

