# https://github.com/mikedh/trimesh
v 0.04597915 -0.00951840 0.10028538
v 0.04592046 -0.00978277 0.09925673
v 0.04597452 -0.00951840 0.09925673
v 0.04591428 -0.00951840 0.10184425
v 0.04587413 -0.00978277 0.10184425
v 0.04592509 -0.00978277 0.10055050
v 0.04564863 -0.01107761 0.10055050
v 0.04563782 -0.01107761 0.09925673
v 0.04252723 -0.01953644 0.07627654
v 0.04250098 -0.01943561 0.07541757
v 0.04594980 -0.00951840 0.09899161
v 0.04247781 -0.01924624 0.07466994
v 0.04193879 -0.01884168 0.06690737
v 0.04182449 -0.01884168 0.06561360
v 0.04122987 -0.01825145 0.05836005
v 0.04584632 -0.00951840 0.10313802
v 0.04580771 -0.00978277 0.10313802
v 0.04514049 -0.01317664 0.09925673
v 0.04534437 -0.01237121 0.09925673
v 0.04542159 -0.01107761 0.10443178
v 0.04513277 -0.01316188 0.09840836
v 0.04263998 -0.01979098 0.07985029
v 0.04237742 -0.02053124 0.08114406
v 0.04212258 -0.02013529 0.07466994
v 0.04202219 -0.02013529 0.07337618
v 0.04377672 -0.01800552 0.09408168
v 0.04145228 -0.01991518 0.06561360
v 0.04147699 -0.00951840 0.05904935
v 0.04137968 -0.01978606 0.06431984
v 0.04124841 -0.01955243 0.06207167
v 0.04119589 -0.01943684 0.06120739
v 0.04169167 -0.01884168 0.06431984
v 0.04106307 -0.01904335 0.05913949
v 0.04099665 -0.01874577 0.05789345
v 0.04076807 -0.01884168 0.05655197
v 0.04061671 -0.01884168 0.05553392
v 0.04080514 -0.01782475 0.05553392
v 0.04084993 -0.01754685 0.05553392
v 0.04099665 -0.00951840 0.05553392
v 0.04109550 -0.00951840 0.05624973
v 0.04143220 -0.00951840 0.05869410
v 0.04578609 -0.00951840 0.10416666
v 0.04573203 -0.00978277 0.10443178
v 0.04511733 -0.01308564 0.10007859
v 0.04430648 -0.01625325 0.09796297
v 0.04465553 -0.01495965 0.09796297
v 0.04526869 -0.01111573 0.10567782
v 0.04511887 -0.01179327 0.10521652
v 0.04268014 -0.01988443 0.08114406
v 0.04145228 -0.02103048 0.07337618
v 0.04139050 -0.02096900 0.07208242
v 0.04242066 -0.02061608 0.08243782
v 0.04132872 -0.02090506 0.07078865
v 0.04126694 -0.02083988 0.06949489
v 0.04122833 -0.02079930 0.06868894
v 0.04151405 -0.02002585 0.06690737
v 0.04398986 -0.01740544 0.09666921
v 0.04348481 -0.01884168 0.09278261
v 0.04344157 -0.01884168 0.09148885
v 0.04117890 -0.02074151 0.06782467
v 0.04112176 -0.02067265 0.06690737
v 0.04103218 -0.02056198 0.06561360
v 0.04032326 -0.02001109 0.05784573
v 0.04022287 -0.01988936 0.05655197
v 0.04014101 -0.01978729 0.05553392
v 0.03631224 -0.00951840 0.05553392
v 0.04576756 -0.00951840 0.10443178
v 0.04564554 -0.00951840 0.10546573
v 0.04557913 -0.00978277 0.10572554
v 0.04395742 -0.01731690 0.09796297
v 0.04517911 -0.01067551 0.10701931
v 0.04504165 -0.01157193 0.10608080
v 0.04380452 -0.01561628 0.10509987
v 0.04271720 -0.01996928 0.08243782
v 0.04056574 -0.02164777 0.07337618
v 0.04056574 -0.02154694 0.07208242
v 0.04246082 -0.02069109 0.08372628
v 0.04150479 -0.02108213 0.07466994
v 0.04184766 -0.02207938 0.09218345
v 0.04174109 -0.02207938 0.09100104
v 0.04123605 -0.02207938 0.08549195
v 0.04121597 -0.02207938 0.08527455
v 0.04056574 -0.02144119 0.07078865
v 0.04047462 -0.02118542 0.06690737
v 0.04038504 -0.02113254 0.06561360
v 0.04374583 -0.01805224 0.09666921
v 0.04348481 -0.01884168 0.09408168
v 0.04371803 -0.01796371 0.09796297
v 0.04302456 -0.02013529 0.09148885
v 0.04301375 -0.02013529 0.09019509
v 0.04028465 -0.02106614 0.06431984
v 0.03993714 -0.02079807 0.05965912
v 0.03986146 -0.02073782 0.05879484
v 0.03976570 -0.02065789 0.05784573
v 0.03953248 -0.02043532 0.05553392
v 0.03020073 -0.02207938 0.05553392
v 0.03977806 -0.00951840 0.10439997
v 0.04561156 -0.00951840 0.10572554
v 0.04542931 -0.00951840 0.10675949
v 0.04534900 -0.00978277 0.10701931
v 0.04511115 -0.01047753 0.10772451
v 0.04248862 -0.01943807 0.10489838
v 0.04327939 -0.01884168 0.09925673
v 0.04495361 -0.01132231 0.10701931
v 0.04264616 -0.01858960 0.10572554
v 0.04241912 -0.01923641 0.10572554
v 0.04274809 -0.02004429 0.08372628
v 0.04248862 -0.02074520 0.08472311
v 0.03978269 -0.02200683 0.07208242
v 0.03969775 -0.02196502 0.07078865
v 0.03960662 -0.02192321 0.06949489
v 0.04117736 -0.02205848 0.08463297
v 0.04251179 -0.02078824 0.08558739
v 0.04217046 -0.02163547 0.09148885
v 0.04189709 -0.02207938 0.09342950
v 0.03968230 -0.02207938 0.07231572
v 0.03950777 -0.02187894 0.06820113
v 0.03939657 -0.02183345 0.06690737
v 0.04337670 -0.01884168 0.09796297
v 0.04341994 -0.01884168 0.09666921
v 0.04298903 -0.02013529 0.09278261
v 0.04261836 -0.02097146 0.09278261
v 0.04263380 -0.02098744 0.09148885
v 0.04262299 -0.02096408 0.09019509
v 0.04295351 -0.02013529 0.08890133
v 0.04008541 -0.02092104 0.06173232
v 0.03999120 -0.02084480 0.06043325
v 0.03768838 -0.02207938 0.06005679
v 0.03911857 -0.02106245 0.05784573
v 0.03888535 -0.02094071 0.05553392
v 0.03410982 -0.02207938 0.10443178
v 0.03676786 -0.02207938 0.05553392
v 0.03986609 -0.00951840 0.10519001
v 0.04538298 -0.00951840 0.10701931
v 0.04379371 -0.01429071 0.10762907
v 0.04523471 -0.00951840 0.10770330
v 0.04516366 -0.00978277 0.10787828
v 0.04484087 -0.00978277 0.10852516
v 0.04373965 -0.01284340 0.10888572
v 0.04394507 -0.01342749 0.10802144
v 0.04262608 -0.01723944 0.10797902
v 0.04199902 -0.02013529 0.10572554
v 0.04224614 -0.02004060 0.10445299
v 0.04242530 -0.02061485 0.10055050
v 0.04271566 -0.01996805 0.10055050
v 0.04272493 -0.02022874 0.09914538
v 0.04231719 -0.01879988 0.10705112
v 0.04173646 -0.02013529 0.10701931
v 0.03953557 -0.02207938 0.07115982
v 0.03937958 -0.02207938 0.07002512
v 0.04221525 -0.02161826 0.09278261
v 0.04190327 -0.02207938 0.09470205
v 0.03921278 -0.02207938 0.06889573
v 0.03787989 -0.02207938 0.06115437
v 0.03903208 -0.02207938 0.06778755
v 0.04282841 -0.02013529 0.09796297
v 0.04294888 -0.02013529 0.09408168
v 0.04259365 -0.02093703 0.09408168
v 0.04220289 -0.02154202 0.09537544
v 0.04187237 -0.02207938 0.09601172
v 0.04222143 -0.02158383 0.09408168
v 0.03750458 -0.02207938 0.05913949
v 0.03681574 -0.02207938 0.05575132
v 0.03747369 -0.02207938 0.05898572
v 0.03426735 -0.02207938 0.10572554
v 0.03994023 -0.00951840 0.10572554
v 0.04247472 -0.01810266 0.10750181
v 0.04518065 -0.00951840 0.10792070
v 0.04486095 -0.00951840 0.10856758
v 0.04401920 -0.01107761 0.10909781
v 0.04386939 -0.01198141 0.10901297
v 0.04255504 -0.01578967 0.10899706
v 0.04124223 -0.01955120 0.10898646
v 0.04241758 -0.01665166 0.10884330
v 0.04184457 -0.01884168 0.10831306
v 0.04144146 -0.02114115 0.10572554
v 0.04154803 -0.02130961 0.10443178
v 0.04130246 -0.02092350 0.10701931
v 0.04227239 -0.02030006 0.10313802
v 0.04234962 -0.02045746 0.10184425
v 0.04177971 -0.02143012 0.10184425
v 0.04247781 -0.02072307 0.09950064
v 0.04250870 -0.02078578 0.09864166
v 0.04122524 -0.02080299 0.10770330
v 0.04252260 -0.02080914 0.09796297
v 0.04257048 -0.02089399 0.09537544
v 0.04217972 -0.02149898 0.09666921
v 0.04184766 -0.02207938 0.09666921
v 0.03446968 -0.02207938 0.10677010
v 0.04014101 -0.00951840 0.10708293
v 0.04138741 -0.02004429 0.10820702
v 0.04434663 -0.00951840 0.10910311
v 0.04419373 -0.00978277 0.10919325
v 0.04315429 -0.01107761 0.10954320
v 0.04324696 -0.01239580 0.10927809
v 0.04193570 -0.01623357 0.10925688
v 0.03985837 -0.02198224 0.10889632
v 0.04097194 -0.02041442 0.10856758
v 0.04135961 -0.01884168 0.10906069
v 0.04056574 -0.01884168 0.10946897
v 0.04055184 -0.02004429 0.10918264
v 0.04011012 -0.02112025 0.10906599
v 0.04103063 -0.02178918 0.10572554
v 0.04089317 -0.02157153 0.10701931
v 0.04074645 -0.02207938 0.10619745
v 0.04105843 -0.02207938 0.10443178
v 0.04155885 -0.02153587 0.10314332
v 0.04136579 -0.02207938 0.10184425
v 0.04191871 -0.02143012 0.10055050
v 0.04177507 -0.02207938 0.09796297
v 0.04036651 -0.02207938 0.10768740
v 0.04057038 -0.02207938 0.10701931
v 0.04021360 -0.02207938 0.10811158
v 0.03451910 -0.02207938 0.10701931
v 0.03466428 -0.02207938 0.10770860
v 0.04022905 -0.00951840 0.10736395
v 0.04421381 -0.00951840 0.10920385
v 0.04338751 -0.00951840 0.10956441
v 0.04315429 -0.00978277 0.10964394
v 0.04186002 -0.01366604 0.10964925
v 0.04056574 -0.01754685 0.10963334
v 0.04186002 -0.01495965 0.10951669
v 0.03974099 -0.02207938 0.10892814
v 0.03982748 -0.02207938 0.10883800
v 0.03927147 -0.02013529 0.10964394
v 0.03870928 -0.02207938 0.10942655
v 0.03936568 -0.02150267 0.10931520
v 0.03917417 -0.02207938 0.10923036
v 0.04083912 -0.02207938 0.10575736
v 0.04102600 -0.02207938 0.10462796
v 0.04115419 -0.02207938 0.10362583
v 0.04118817 -0.02203757 0.10357281
v 0.03469672 -0.02207938 0.10779874
v 0.04055802 -0.00951840 0.10831306
v 0.04315429 -0.00951840 0.10964925
v 0.04186002 -0.01237121 0.10968106
v 0.04056574 -0.01625325 0.10968106
v 0.03797874 -0.02207938 0.10962804
v 0.03797874 -0.02143012 0.10969697
v 0.03509211 -0.02207938 0.10854107
v 0.04063370 -0.00951840 0.10845623
v 0.04212413 -0.00951840 0.10956441
v 0.04186002 -0.01107761 0.10964925
v 0.03732851 -0.02207938 0.10968106
v 0.03532532 -0.02207938 0.10882739
v 0.04104608 -0.00951840 0.10907130
v 0.04186002 -0.00951840 0.10951669
v 0.03663195 -0.02207938 0.10951139
v 0.03565738 -0.02207938 0.10912962
v 0.04119126 -0.00951840 0.10915613
v 0.03595393 -0.02207938 0.10926748
f 1 2 3
f 1 3 11
f 1 11 28
f 1 28 41
f 1 41 40
f 1 40 39
f 1 39 66
f 1 66 97
f 1 97 133
f 1 133 166
f 1 166 190
f 1 190 216
f 1 216 234
f 1 234 241
f 1 241 246
f 1 246 250
f 1 250 247
f 1 247 242
f 1 242 235
f 1 235 218
f 1 218 217
f 1 217 192
f 1 192 169
f 1 169 168
f 1 168 136
f 1 136 134
f 1 134 99
f 1 99 98
f 1 98 68
f 1 68 67
f 1 67 42
f 1 42 16
f 1 16 4
f 1 4 5
f 1 5 6
f 1 6 2
f 2 6 7
f 2 7 8
f 2 8 9
f 2 9 10
f 2 10 3
f 3 10 12
f 3 12 13
f 3 13 14
f 3 14 15
f 3 15 11
f 4 16 17
f 4 17 5
f 5 17 7
f 5 7 6
f 7 18 19
f 7 19 8
f 7 17 43
f 7 43 20
f 7 20 18
f 8 19 21
f 8 21 9
f 9 22 23
f 9 23 24
f 9 24 25
f 9 25 10
f 9 21 26
f 9 26 22
f 10 25 27
f 10 27 14
f 10 14 13
f 10 13 12
f 11 15 28
f 14 27 29
f 14 29 30
f 14 30 31
f 14 31 32
f 14 32 15
f 15 32 31
f 15 31 33
f 15 33 34
f 15 34 35
f 15 35 36
f 15 36 37
f 15 37 38
f 15 38 39
f 15 39 40
f 15 40 41
f 15 41 28
f 16 42 43
f 16 43 17
f 18 44 45
f 18 45 46
f 18 46 21
f 18 21 19
f 18 20 44
f 20 43 47
f 20 47 48
f 20 48 45
f 20 45 44
f 21 46 26
f 22 49 23
f 22 26 49
f 23 50 51
f 23 51 25
f 23 25 24
f 23 49 52
f 23 52 50
f 25 51 53
f 25 53 54
f 25 54 55
f 25 55 56
f 25 56 27
f 26 46 57
f 26 57 58
f 26 58 59
f 26 59 49
f 27 56 60
f 27 60 61
f 27 61 29
f 29 61 62
f 29 62 30
f 30 62 63
f 30 63 64
f 30 64 65
f 30 65 31
f 31 65 36
f 31 36 35
f 31 35 33
f 33 35 34
f 36 65 95
f 36 95 130
f 36 130 132
f 36 132 96
f 36 96 66
f 36 66 39
f 36 39 38
f 36 38 37
f 42 67 43
f 43 67 68
f 43 68 69
f 43 69 47
f 45 48 70
f 45 70 57
f 45 57 46
f 47 69 71
f 47 71 72
f 47 72 48
f 48 72 73
f 48 73 70
f 49 59 74
f 49 74 52
f 50 75 76
f 50 76 51
f 50 52 77
f 50 77 78
f 50 78 79
f 50 79 80
f 50 80 81
f 50 81 82
f 50 82 75
f 51 76 83
f 51 83 84
f 51 84 53
f 52 74 77
f 53 84 54
f 54 84 55
f 55 60 56
f 55 84 85
f 55 85 60
f 57 86 87
f 57 87 58
f 57 70 88
f 57 88 86
f 58 89 90
f 58 90 59
f 58 87 89
f 59 90 74
f 60 85 91
f 60 91 92
f 60 92 61
f 61 92 62
f 62 92 93
f 62 93 63
f 63 93 64
f 64 93 65
f 65 93 94
f 65 94 95
f 66 96 97
f 68 98 69
f 69 98 99
f 69 99 100
f 69 100 101
f 69 101 71
f 70 73 102
f 70 102 103
f 70 103 88
f 71 101 104
f 71 104 72
f 72 104 105
f 72 105 73
f 73 105 106
f 73 106 102
f 74 90 107
f 74 107 108
f 74 108 77
f 75 109 110
f 75 110 111
f 75 111 76
f 75 82 112
f 75 112 109
f 76 111 84
f 76 84 83
f 77 108 78
f 78 108 113
f 78 113 79
f 79 113 114
f 79 114 115
f 79 115 152
f 79 152 160
f 79 160 188
f 79 188 210
f 79 210 208
f 79 208 231
f 79 231 206
f 79 206 230
f 79 230 229
f 79 229 205
f 79 205 212
f 79 212 211
f 79 211 213
f 79 213 224
f 79 224 223
f 79 223 228
f 79 228 226
f 79 226 238
f 79 238 244
f 79 244 248
f 79 248 251
f 79 251 249
f 79 249 245
f 79 245 240
f 79 240 233
f 79 233 215
f 79 215 214
f 79 214 189
f 79 189 165
f 79 165 131
f 79 131 96
f 79 96 132
f 79 132 163
f 79 163 164
f 79 164 162
f 79 162 128
f 79 128 154
f 79 154 155
f 79 155 153
f 79 153 150
f 79 150 149
f 79 149 116
f 79 116 82
f 79 82 81
f 79 81 80
f 82 116 112
f 84 111 117
f 84 117 85
f 85 117 118
f 85 118 91
f 86 88 119
f 86 119 120
f 86 120 89
f 86 89 87
f 88 103 119
f 89 120 121
f 89 121 122
f 89 122 123
f 89 123 90
f 90 123 124
f 90 124 113
f 90 113 125
f 90 125 107
f 91 118 126
f 91 126 127
f 91 127 92
f 92 128 129
f 92 129 130
f 92 130 93
f 92 127 118
f 92 118 128
f 93 130 94
f 94 130 95
f 96 131 97
f 97 131 133
f 99 134 100
f 100 134 101
f 101 135 104
f 101 134 136
f 101 136 137
f 101 137 138
f 101 138 139
f 101 139 140
f 101 140 141
f 101 141 135
f 102 106 142
f 102 142 143
f 102 143 144
f 102 144 145
f 102 145 103
f 103 145 146
f 103 146 119
f 104 135 106
f 104 106 105
f 106 135 147
f 106 147 148
f 106 148 142
f 107 113 108
f 107 125 113
f 109 112 116
f 109 116 110
f 110 116 149
f 110 149 111
f 111 150 117
f 111 149 150
f 113 124 114
f 114 124 151
f 114 151 115
f 115 151 152
f 117 150 153
f 117 153 118
f 118 154 128
f 118 127 126
f 118 153 155
f 118 155 154
f 119 146 156
f 119 156 120
f 120 157 121
f 120 156 157
f 121 157 158
f 121 158 122
f 122 158 159
f 122 159 160
f 122 160 161
f 122 161 123
f 123 161 152
f 123 152 151
f 123 151 124
f 128 162 130
f 128 130 129
f 130 163 132
f 130 162 164
f 130 164 163
f 131 165 133
f 133 165 166
f 135 167 147
f 135 141 167
f 136 168 137
f 137 168 169
f 137 169 138
f 138 169 170
f 138 170 171
f 138 171 139
f 139 171 172
f 139 172 173
f 139 173 174
f 139 174 141
f 139 141 140
f 141 174 173
f 141 173 175
f 141 175 167
f 142 176 177
f 142 177 143
f 142 148 178
f 142 178 176
f 143 177 179
f 143 179 180
f 143 180 144
f 144 181 182
f 144 182 145
f 144 180 177
f 144 177 181
f 145 182 146
f 146 183 156
f 146 182 183
f 147 167 184
f 147 184 148
f 148 184 178
f 152 161 160
f 156 183 185
f 156 185 186
f 156 186 158
f 156 158 157
f 158 186 187
f 158 187 159
f 159 187 160
f 160 187 188
f 165 189 190
f 165 190 166
f 167 175 191
f 167 191 184
f 169 192 170
f 170 192 193
f 170 193 194
f 170 194 195
f 170 195 171
f 171 195 196
f 171 196 172
f 172 196 173
f 173 197 198
f 173 198 184
f 173 184 191
f 173 191 175
f 173 196 199
f 173 199 200
f 173 200 201
f 173 201 202
f 173 202 197
f 176 203 177
f 176 178 204
f 176 204 205
f 176 205 203
f 177 203 206
f 177 206 207
f 177 207 181
f 177 180 179
f 178 184 204
f 181 207 208
f 181 208 209
f 181 209 182
f 182 209 210
f 182 210 183
f 183 210 188
f 183 188 185
f 184 211 212
f 184 212 204
f 184 198 197
f 184 197 213
f 184 213 211
f 185 188 187
f 185 187 186
f 189 214 190
f 190 214 215
f 190 215 216
f 192 217 193
f 193 217 218
f 193 218 194
f 194 218 219
f 194 219 220
f 194 220 221
f 194 221 222
f 194 222 195
f 195 222 196
f 196 222 200
f 196 200 199
f 197 202 223
f 197 223 224
f 197 224 213
f 200 222 221
f 200 221 225
f 200 225 226
f 200 226 227
f 200 227 201
f 201 227 228
f 201 228 202
f 202 228 223
f 203 205 229
f 203 229 230
f 203 230 206
f 204 212 205
f 206 231 232
f 206 232 207
f 207 232 208
f 208 232 231
f 208 210 209
f 215 233 234
f 215 234 216
f 218 235 219
f 219 235 236
f 219 236 220
f 220 236 237
f 220 237 221
f 221 237 225
f 225 238 226
f 225 237 239
f 225 239 238
f 226 228 227
f 233 240 241
f 233 241 234
f 235 242 243
f 235 243 236
f 236 244 239
f 236 239 237
f 236 243 244
f 238 239 244
f 240 245 246
f 240 246 241
f 242 247 243
f 243 247 244
f 244 247 248
f 245 249 246
f 246 249 250
f 247 250 249
f 247 249 251
f 247 251 248

