# https://github.com/mikedh/trimesh
v 0.01005048 0.04281506 0.05701770
v 0.01005048 0.03541350 0.05701770
v 0.01005048 0.04267980 0.05557801
v 0.00985189 0.04281744 0.05701770
v -0.00759137 0.03549418 0.05701770
v 0.01005048 0.03077416 0.03187589
v -0.00759137 0.04268692 0.05552632
v -0.00731853 0.04283049 0.05655011
v -0.00731853 0.04289456 0.05701770
v 0.00947543 0.04282100 0.05701770
v 0.01005048 0.04135445 0.04674047
v -0.00731853 0.04190381 0.05007762
v -0.00731853 0.04209603 0.05137212
v -0.00759137 0.04287795 0.05701770
v -0.00759137 0.03085960 0.03187589
v 0.01005048 0.03831931 0.03187589
v -0.00759137 0.04262285 0.05507842
v -0.00753784 0.04288151 0.05701770
v 0.00950478 0.04083238 0.04361005
v -0.00731853 0.04090001 0.04361005
v -0.00731853 0.04110884 0.04490209
v -0.00731853 0.04127376 0.04597017
v -0.00731853 0.04170566 0.04878312
v 0.01005048 0.04021894 0.04037627
v 0.00978454 0.04003859 0.03910884
v 0.00950478 0.04060931 0.04231555
v -0.00759137 0.04136987 0.04663957
v -0.00759137 0.03839524 0.03187589
v 0.00941326 0.03851390 0.03187589
v 0.01005048 0.03853763 0.03257482
v -0.00731853 0.04067575 0.04231555
v -0.00759137 0.04006113 0.03898087
v -0.00759137 0.04130699 0.04623104
v 0.01005048 0.04012283 0.03984715
v 0.00950478 0.03968144 0.03713756
v 0.00941326 0.03994604 0.03855757
v 0.00892110 0.04004452 0.03907439
v 0.00941326 0.04013351 0.03961581
v 0.01005048 0.04000180 0.03923927
v 0.01005048 0.03994010 0.03893165
v 0.01005048 0.03890308 0.03394808
v 0.00950478 0.03941210 0.03584552
v -0.00655179 0.04007774 0.03888243
v -0.00759137 0.03868238 0.03280616
v -0.00724600 0.03851627 0.03187589
v 0.00889519 0.03875358 0.03258959
v 0.00975863 0.03869900 0.03281354
v -0.00609071 0.03854593 0.03187589
v 0.01005048 0.03881409 0.03355677
v -0.00731853 0.04007181 0.03892180
v -0.00759137 0.03999113 0.03860433
v -0.00731853 0.03972534 0.03713756
v 0.00950478 0.03912259 0.03455103
v 0.00939772 0.03884375 0.03324914
v -0.00731853 0.03995078 0.03827455
v -0.00759137 0.03869900 0.03287507
v -0.00723563 0.03856254 0.03205801
v -0.00707849 0.03852695 0.03187589
v -0.00675038 0.03876188 0.03255267
v -0.00658287 0.03876188 0.03255267
v -0.00731853 0.03944058 0.03584552
v -0.00723563 0.03885087 0.03327129
f 1 2 6
f 1 6 16
f 1 16 30
f 1 30 49
f 1 49 41
f 1 41 40
f 1 40 39
f 1 39 34
f 1 34 24
f 1 24 11
f 1 11 3
f 1 3 4
f 1 4 10
f 1 10 9
f 1 9 18
f 1 18 14
f 1 14 5
f 1 5 2
f 2 5 6
f 3 7 8
f 3 8 9
f 3 9 10
f 3 10 4
f 3 11 12
f 3 12 13
f 3 13 7
f 5 14 7
f 5 7 17
f 5 17 27
f 5 27 33
f 5 33 32
f 5 32 51
f 5 51 56
f 5 56 44
f 5 44 28
f 5 28 15
f 5 15 6
f 6 15 28
f 6 28 45
f 6 45 58
f 6 58 48
f 6 48 29
f 6 29 16
f 7 14 18
f 7 18 9
f 7 9 8
f 7 13 17
f 11 19 20
f 11 20 21
f 11 21 22
f 11 22 23
f 11 23 12
f 11 24 25
f 11 25 26
f 11 26 19
f 12 23 27
f 12 27 13
f 13 27 17
f 16 29 30
f 19 26 20
f 20 26 31
f 20 31 32
f 20 32 33
f 20 33 21
f 21 33 22
f 22 33 27
f 22 27 23
f 24 34 25
f 25 35 36
f 25 36 37
f 25 37 38
f 25 38 26
f 25 34 39
f 25 39 40
f 25 40 41
f 25 41 42
f 25 42 35
f 26 38 37
f 26 37 43
f 26 43 31
f 28 44 45
f 29 46 47
f 29 47 30
f 29 48 46
f 30 47 49
f 31 43 50
f 31 50 32
f 32 50 51
f 35 52 43
f 35 43 37
f 35 37 36
f 35 42 46
f 35 46 52
f 41 49 47
f 41 47 42
f 42 47 53
f 42 53 54
f 42 54 46
f 43 52 55
f 43 55 50
f 44 56 57
f 44 57 45
f 45 57 59
f 45 59 58
f 46 54 47
f 46 48 60
f 46 60 52
f 47 54 53
f 48 58 59
f 48 59 60
f 50 55 51
f 51 55 52
f 51 52 61
f 51 61 56
f 52 60 59
f 52 59 61
f 56 61 62
f 56 62 59
f 56 59 57
f 59 62 61

