# https://github.com/mikedh/trimesh
v -0.02589910 -0.00958519 0.02041285
v -0.03190944 -0.00958519 0.02041285
v -0.02700903 0.00560142 0.02041285
v -0.03509403 0.00560142 0.05748881
v -0.03436799 -0.00958519 0.05748881
v -0.03652443 -0.00154443 0.02583488
v -0.03526094 -0.00162322 0.02192260
v -0.03459164 -0.00189526 0.02041285
v -0.03282576 -0.00958519 0.02409649
v -0.03777791 -0.00145970 0.02986330
v -0.03276233 0.00560142 0.02041285
v -0.04013297 0.00560142 0.05748881
v -0.03905809 -0.00958519 0.05748881
v -0.03639925 -0.00112522 0.02497476
v -0.03510739 -0.00109847 0.02106248
v -0.03492212 -0.00069264 0.02041285
v -0.03407924 -0.00958519 0.02929714
v -0.03904807 -0.00141362 0.03510024
v -0.03813175 -0.00072386 0.03066898
v -0.03785301 -0.00072386 0.02961288
v -0.03307278 0.00560142 0.02161412
v -0.03453489 0.00186572 0.02041285
v -0.03526261 0.00147029 0.02191534
v -0.03539447 0.00188653 0.02296418
v -0.03653111 0.00140935 0.02581311
v -0.03778625 0.00132461 0.02983790
v -0.03750752 0.00216452 0.03066898
v -0.04244798 0.00178544 0.05748881
v -0.03998275 0.00560142 0.05635287
v -0.04149327 0.00232804 0.05266560
v -0.04268332 -0.00135415 0.05748881
v -0.03894125 -0.00958519 0.05657425
v -0.03646435 -0.00026154 0.02475701
v -0.03624904 -0.00070602 0.02427432
v -0.03580840 -0.00072386 0.02290248
v -0.03765940 -0.00072386 0.02896689
v -0.03533438 -0.00068967 0.02153790
v -0.03492379 -0.00068520 0.02041285
v -0.03440304 -0.00958519 0.03066898
v -0.03962224 -0.00072386 0.03713986
v -0.03934350 -0.00072386 0.03584423
v -0.03911150 -0.00072386 0.03482442
v -0.03896128 -0.00072386 0.03417843
v -0.03843886 -0.00072386 0.03196098
v -0.03469512 -0.00958519 0.03197550
v -0.03555136 -0.00958519 0.03584423
v -0.03582843 -0.00958519 0.03713986
v -0.03586682 -0.00958519 0.03733221
v -0.04033660 -0.00140470 0.04156749
v -0.03814344 0.00057093 0.03066898
v -0.03785969 0.00057093 0.02959111
v -0.03336988 0.00560142 0.02277183
v -0.03492379 0.00054120 0.02041285
v -0.03511073 0.00095743 0.02105159
v -0.03640593 0.00099163 0.02494936
v -0.03905809 0.00128150 0.03506032
v -0.03788807 0.00151638 0.03066898
v -0.03763937 0.00237263 0.03174686
v -0.03537110 0.00560142 0.03070890
v -0.03407089 0.00560142 0.02552640
v -0.04285524 0.00086527 0.05748881
v -0.04140481 0.00218681 0.05136997
v -0.04178202 0.00154016 0.05136997
v -0.03964560 0.00560142 0.05382332
v -0.04283521 -0.00097062 0.05748881
v -0.04162346 -0.00138686 0.04937391
v -0.04167353 -0.00148497 0.05007798
v -0.03843886 -0.00958519 0.05285432
v -0.03646435 0.00012794 0.02475701
v -0.03516247 -0.00023627 0.02090642
v -0.03987426 -0.00072386 0.03843185
v -0.04032992 -0.00013667 0.04032267
v -0.03935852 0.00057093 0.03584423
v -0.03911984 0.00057093 0.03479539
v -0.03896629 0.00057093 0.03414576
v -0.03608380 -0.00958519 0.03843185
v -0.03679315 -0.00958519 0.04231148
v -0.03705853 -0.00958519 0.04380308
v -0.03724380 -0.00958519 0.04491724
v -0.04082230 -0.00072386 0.04360710
v -0.04059364 -0.00072386 0.04231148
v -0.04025648 -0.00100035 0.04070737
v -0.03516247 0.00009523 0.02090642
v -0.03533605 0.00054417 0.02153427
v -0.03581340 0.00057093 0.02290248
v -0.03625571 0.00056350 0.02427432
v -0.03914488 0.00144502 0.03584423
v -0.03963559 0.00057093 0.03713986
v -0.04034828 0.00127407 0.04150942
v -0.03565985 0.00560142 0.03195372
v -0.03562814 0.00560142 0.03181581
v -0.03875432 0.00209167 0.03584423
v -0.03677479 0.00560142 0.03680960
v -0.04292200 0.00002537 0.05709686
v -0.04294203 0.00025132 0.05748881
v -0.04169189 0.00137218 0.05007798
v -0.04163514 0.00125920 0.04929407
v -0.04204907 0.00057093 0.05136997
v -0.03948871 0.00560142 0.05266560
v -0.03930845 0.00560142 0.05138086
v -0.04025482 0.00241574 0.04489910
v -0.04015133 0.00225520 0.04360710
v -0.04289029 -0.00065548 0.05748881
v -0.04292200 -0.00016491 0.05709686
v -0.04277178 -0.00064656 0.05661780
v -0.04203071 -0.00072386 0.05136997
v -0.03804162 -0.00958519 0.05007798
v -0.03823190 -0.00958519 0.05136997
v -0.03826027 -0.00958519 0.05156958
v -0.04184544 -0.00072386 0.05007798
v -0.04155502 -0.00103009 0.04851016
v -0.04103427 -0.00072386 0.04489910
v -0.04015300 -0.00063020 0.03982547
v -0.04038834 -0.00063020 0.04108843
v -0.04162847 -0.00016640 0.04804562
v -0.04032992 -0.00000883 0.04032267
v -0.03928008 0.00167693 0.03713986
v -0.03890119 0.00232506 0.03713986
v -0.03988595 0.00057093 0.03843185
v -0.04026650 0.00085486 0.04064567
v -0.04061033 0.00057093 0.04231148
v -0.04083732 0.00057093 0.04360710
v -0.04041839 0.00140935 0.04231148
v -0.03682987 0.00560142 0.03705276
v -0.04294870 -0.00031654 0.05748881
v -0.04162847 0.00002685 0.04804562
v -0.04186381 0.00057093 0.05007798
v -0.04052855 0.00160706 0.04360710
v -0.04104930 0.00057093 0.04489910
v -0.04156504 0.00088905 0.04843395
v -0.03927674 0.00560142 0.05117762
v -0.03826695 0.00560142 0.04477934
v -0.03807166 0.00560142 0.04357444
v -0.03898632 0.00245439 0.03802175
v -0.04167687 -0.00064804 0.04887671
v -0.04039502 0.00048174 0.04105577
v -0.04168354 0.00050255 0.04883316
f 1 2 8
f 1 8 16
f 1 16 38
f 1 38 53
f 1 53 22
f 1 22 11
f 1 11 3
f 1 3 4
f 1 4 5
f 1 5 13
f 1 13 32
f 1 32 68
f 1 68 109
f 1 109 108
f 1 108 107
f 1 107 79
f 1 79 78
f 1 78 77
f 1 77 76
f 1 76 48
f 1 48 47
f 1 47 46
f 1 46 45
f 1 45 39
f 1 39 17
f 1 17 9
f 1 9 2
f 2 6 7
f 2 7 8
f 2 9 10
f 2 10 6
f 3 11 21
f 3 21 52
f 3 52 60
f 3 60 59
f 3 59 91
f 3 91 90
f 3 90 93
f 3 93 124
f 3 124 133
f 3 133 132
f 3 132 131
f 3 131 100
f 3 100 99
f 3 99 64
f 3 64 29
f 3 29 12
f 3 12 4
f 4 12 28
f 4 28 61
f 4 61 95
f 4 95 125
f 4 125 103
f 4 103 65
f 4 65 31
f 4 31 13
f 4 13 5
f 6 14 7
f 6 10 14
f 7 15 8
f 7 14 15
f 8 15 16
f 9 17 10
f 10 17 18
f 10 18 19
f 10 19 20
f 10 20 14
f 11 22 23
f 11 23 24
f 11 24 25
f 11 25 26
f 11 26 27
f 11 27 21
f 12 29 30
f 12 30 28
f 13 31 32
f 14 33 34
f 14 34 35
f 14 35 15
f 14 20 36
f 14 36 33
f 15 35 37
f 15 37 38
f 15 38 16
f 17 39 18
f 18 40 41
f 18 41 42
f 18 42 43
f 18 43 44
f 18 44 19
f 18 39 45
f 18 45 46
f 18 46 47
f 18 47 48
f 18 48 49
f 18 49 40
f 19 50 51
f 19 51 20
f 19 44 50
f 20 51 33
f 20 33 36
f 21 27 52
f 22 53 54
f 22 54 23
f 23 54 55
f 23 55 25
f 23 25 24
f 25 55 26
f 26 51 50
f 26 50 56
f 26 56 57
f 26 57 27
f 26 55 51
f 27 57 58
f 27 58 59
f 27 59 60
f 27 60 52
f 28 30 62
f 28 62 63
f 28 63 61
f 29 64 30
f 30 64 62
f 31 65 66
f 31 66 67
f 31 67 32
f 32 67 66
f 32 66 68
f 33 69 83
f 33 83 70
f 33 70 35
f 33 35 34
f 33 51 69
f 35 70 37
f 37 70 38
f 38 70 83
f 38 83 53
f 40 49 71
f 40 71 72
f 40 72 41
f 41 73 42
f 41 72 73
f 42 73 74
f 42 74 43
f 43 74 44
f 44 74 75
f 44 75 50
f 48 76 49
f 49 76 77
f 49 77 78
f 49 78 79
f 49 79 66
f 49 66 80
f 49 80 81
f 49 81 82
f 49 82 71
f 50 75 56
f 51 55 69
f 53 83 54
f 54 83 84
f 54 84 85
f 54 85 55
f 55 85 86
f 55 86 69
f 56 87 58
f 56 58 57
f 56 75 74
f 56 74 73
f 56 73 88
f 56 88 89
f 56 89 87
f 58 90 91
f 58 91 59
f 58 87 92
f 58 92 93
f 58 93 90
f 61 94 95
f 61 63 96
f 61 96 97
f 61 97 98
f 61 98 94
f 62 96 63
f 62 64 99
f 62 99 100
f 62 100 101
f 62 101 102
f 62 102 96
f 65 103 104
f 65 104 105
f 65 105 106
f 65 106 66
f 66 107 108
f 66 108 109
f 66 109 68
f 66 106 110
f 66 110 111
f 66 111 112
f 66 112 80
f 66 79 107
f 69 86 85
f 69 85 83
f 71 82 113
f 71 113 72
f 72 113 82
f 72 82 114
f 72 114 81
f 72 81 80
f 72 80 115
f 72 115 126
f 72 126 116
f 72 116 73
f 73 116 88
f 80 112 115
f 81 114 82
f 83 85 84
f 87 117 118
f 87 118 92
f 87 89 117
f 88 119 120
f 88 120 89
f 88 116 119
f 89 120 121
f 89 121 122
f 89 122 97
f 89 97 123
f 89 123 118
f 89 118 117
f 92 118 124
f 92 124 93
f 94 104 125
f 94 125 95
f 94 98 126
f 94 126 115
f 94 115 104
f 96 102 97
f 97 127 98
f 97 102 128
f 97 128 123
f 97 122 129
f 97 129 130
f 97 130 127
f 98 127 126
f 100 131 101
f 101 131 102
f 102 123 128
f 102 131 132
f 102 132 133
f 102 133 134
f 102 134 118
f 102 118 123
f 103 125 104
f 104 106 105
f 104 115 106
f 106 115 110
f 110 135 111
f 110 115 135
f 111 115 112
f 111 135 115
f 116 126 122
f 116 122 121
f 116 121 136
f 116 136 120
f 116 120 119
f 118 134 133
f 118 133 124
f 120 136 121
f 122 126 129
f 126 127 137
f 126 137 130
f 126 130 129
f 127 130 137

