# https://github.com/mikedh/trimesh
v 0.00108626 -0.03436026 0.02041157
v 0.00108626 -0.03418221 0.01965731
v 0.00687741 -0.03528900 0.02041157
v 0.00108626 -0.02883590 0.02041157
v 0.00108626 -0.03380044 0.01805481
v 0.00703385 -0.03530986 0.02041157
v 0.00108626 -0.03364485 0.01740689
v 0.00108626 -0.03324063 0.01577471
v 0.00108626 -0.03291822 0.01448134
v 0.00108626 -0.03275781 0.01384207
v 0.00108626 -0.03251239 0.01287018
v 0.00108626 -0.03234877 0.01222350
v 0.01522840 -0.02502467 0.02041157
v 0.01522840 -0.01903032 0.00778077
v 0.00108626 -0.02377992 0.00778077
v 0.00821063 -0.03541573 0.02041157
v 0.00727336 -0.03508208 0.01948049
v 0.00108626 -0.03221083 0.01173384
v 0.01522840 -0.03133501 0.02041157
v 0.01522840 -0.02739546 0.00778077
v 0.00108626 -0.03084096 0.00778077
v 0.00831169 -0.03539968 0.02041157
v 0.00821063 -0.03538204 0.02031265
v 0.00894577 -0.03504519 0.01959178
v 0.00691756 -0.03375874 0.01569187
v 0.00108626 -0.03207448 0.01125409
v 0.00108626 -0.03187718 0.01059998
v 0.00108626 -0.03168149 0.00995947
v 0.00108626 -0.03130774 0.00887878
v 0.01066526 -0.03459285 0.02041157
v 0.01522840 -0.03060036 0.01765542
v 0.01522840 -0.02784139 0.00872792
v 0.01461785 -0.02815097 0.00872298
v 0.01463447 -0.02769381 0.00778077
v 0.00139638 -0.03083936 0.00778077
v 0.00108626 -0.03104789 0.00823209
v 0.00943171 -0.03519918 0.02041157
v 0.00821063 -0.03508689 0.01947183
v 0.00980828 -0.03489922 0.01995531
v 0.00942894 -0.03517993 0.02035717
v 0.00821063 -0.03485270 0.01882391
v 0.00776899 -0.03375713 0.01569929
v 0.00863012 -0.03368656 0.01588105
v 0.00922543 -0.03385177 0.01674289
v 0.00174110 -0.03104628 0.00823827
v 0.00174110 -0.03130454 0.00888619
v 0.01003672 -0.03499065 0.02041157
v 0.01522840 -0.02880382 0.01133693
v 0.01522840 -0.02918718 0.01259445
v 0.01522840 -0.03039183 0.01690364
v 0.01522840 -0.02806916 0.00927940
v 0.01414437 -0.02860010 0.00919161
v 0.01371381 -0.02840922 0.00832853
v 0.01347153 -0.02824079 0.00778077
v 0.00174110 -0.03083615 0.00778077
v 0.00952586 -0.03516710 0.02041157
v 0.01008794 -0.03369939 0.01713857
v 0.00433002 -0.03165262 0.00995947
v 0.00433002 -0.03127406 0.00899624
v 0.00562448 -0.03210015 0.01125409
v 0.00562448 -0.03156600 0.00995947
v 0.00691756 -0.03233434 0.01211716
v 0.00820371 -0.03348925 0.01521458
v 0.00892500 -0.03245144 0.01315087
v 0.00950509 -0.03311391 0.01513544
v 0.00959646 -0.03356786 0.01635958
v 0.00231565 -0.03081209 0.00778077
v 0.00303556 -0.03101581 0.00829391
v 0.00303556 -0.03129010 0.00894184
v 0.01522840 -0.02833864 0.00995947
v 0.01522840 -0.02840922 0.01015978
v 0.01522840 -0.02849744 0.01041821
v 0.01522840 -0.02859850 0.01071621
v 0.01145024 -0.02984324 0.00930908
v 0.01332478 -0.02875570 0.00872298
v 0.01026930 -0.03249474 0.01433791
v 0.01285130 -0.02859529 0.00792915
v 0.01299667 -0.02845574 0.00778077
v 0.00433002 -0.03098052 0.00834956
v 0.00562448 -0.03121471 0.00913720
v 0.00821063 -0.03289576 0.01384207
v 0.00636793 -0.03115696 0.00926704
v 0.00978752 -0.03231188 0.01347607
v 0.00941510 -0.03261344 0.01388164
v 0.00684695 -0.03082653 0.00876749
v 0.00821063 -0.03007423 0.00778077
v 0.00839476 -0.03003252 0.00778077
v 0.00902745 -0.03117942 0.01051342
v 0.00947740 -0.03083776 0.01003366
v 0.00988997 -0.03106714 0.01076196
v 0.00357827 -0.03073670 0.00778077
v 0.01079955 -0.02996676 0.00905683
v 0.01079955 -0.02965076 0.00841014
v 0.01041882 -0.03125962 0.01162503
v 0.01079955 -0.03037739 0.00995947
v 0.01241658 -0.02868512 0.00778077
v 0.00433002 -0.03067735 0.00778077
v 0.00562448 -0.03054421 0.00778077
v 0.00562448 -0.03091475 0.00849051
v 0.00687048 -0.03034531 0.00778077
v 0.00871872 -0.02995553 0.00778077
v 0.00911329 -0.02990901 0.00788340
v 0.00952862 -0.03014320 0.00859315
v 0.00997580 -0.02979191 0.00811215
v 0.01208155 -0.02881344 0.00778077
v 0.00900946 -0.02988334 0.00778077
v 0.00976260 -0.02966680 0.00778077
v 0.01083831 -0.02928022 0.00778077
f 1 2 3
f 1 3 6
f 1 6 16
f 1 16 22
f 1 22 37
f 1 37 56
f 1 56 47
f 1 47 30
f 1 30 19
f 1 19 13
f 1 13 4
f 1 4 15
f 1 15 21
f 1 21 36
f 1 36 29
f 1 29 28
f 1 28 27
f 1 27 26
f 1 26 18
f 1 18 12
f 1 12 11
f 1 11 10
f 1 10 9
f 1 9 8
f 1 8 7
f 1 7 5
f 1 5 2
f 2 5 3
f 3 5 7
f 3 7 8
f 3 8 9
f 3 9 10
f 3 10 11
f 3 11 12
f 3 12 6
f 4 13 14
f 4 14 15
f 6 12 17
f 6 17 16
f 12 18 17
f 13 19 31
f 13 31 50
f 13 50 49
f 13 49 48
f 13 48 73
f 13 73 72
f 13 72 71
f 13 71 70
f 13 70 51
f 13 51 32
f 13 32 20
f 13 20 14
f 14 20 34
f 14 34 54
f 14 54 78
f 14 78 96
f 14 96 105
f 14 105 108
f 14 108 107
f 14 107 106
f 14 106 101
f 14 101 87
f 14 87 86
f 14 86 100
f 14 100 98
f 14 98 97
f 14 97 91
f 14 91 67
f 14 67 55
f 14 55 35
f 14 35 21
f 14 21 15
f 16 17 23
f 16 23 24
f 16 24 22
f 17 25 23
f 17 18 26
f 17 26 27
f 17 27 28
f 17 28 29
f 17 29 25
f 19 30 31
f 20 32 33
f 20 33 34
f 21 35 36
f 22 24 37
f 23 25 38
f 23 38 24
f 24 39 40
f 24 40 37
f 24 38 41
f 24 41 42
f 24 42 43
f 24 43 44
f 24 44 39
f 25 42 38
f 25 29 42
f 29 36 45
f 29 45 46
f 29 46 42
f 30 47 48
f 30 48 49
f 30 49 50
f 30 50 31
f 32 51 52
f 32 52 33
f 33 52 53
f 33 53 34
f 34 53 54
f 35 55 45
f 35 45 36
f 37 40 56
f 38 42 41
f 39 47 56
f 39 56 40
f 39 44 57
f 39 57 47
f 42 58 59
f 42 59 60
f 42 60 61
f 42 61 62
f 42 62 63
f 42 63 43
f 42 46 58
f 43 63 64
f 43 64 65
f 43 65 44
f 44 65 66
f 44 66 57
f 45 55 67
f 45 67 68
f 45 68 59
f 45 59 69
f 45 69 46
f 46 69 58
f 47 57 52
f 47 52 70
f 47 70 71
f 47 71 72
f 47 72 73
f 47 73 48
f 51 70 52
f 52 74 75
f 52 75 53
f 52 57 76
f 52 76 74
f 53 75 74
f 53 74 77
f 53 77 78
f 53 78 54
f 57 66 65
f 57 65 76
f 58 69 59
f 59 68 79
f 59 79 80
f 59 80 61
f 59 61 60
f 61 80 62
f 62 81 63
f 62 80 82
f 62 82 81
f 63 81 64
f 64 83 84
f 64 84 65
f 64 81 82
f 64 82 85
f 64 85 86
f 64 86 87
f 64 87 88
f 64 88 89
f 64 89 90
f 64 90 83
f 65 84 83
f 65 83 76
f 67 91 79
f 67 79 68
f 74 92 93
f 74 93 77
f 74 76 94
f 74 94 95
f 74 95 92
f 76 83 94
f 77 96 78
f 77 93 96
f 79 91 97
f 79 97 98
f 79 98 99
f 79 99 80
f 80 99 82
f 82 99 100
f 82 100 85
f 83 90 94
f 85 100 86
f 87 101 88
f 88 101 102
f 88 102 103
f 88 103 89
f 89 103 104
f 89 104 90
f 90 104 92
f 90 92 95
f 90 95 94
f 92 104 93
f 93 104 105
f 93 105 96
f 98 100 99
f 101 106 102
f 102 106 104
f 102 104 103
f 104 106 107
f 104 107 108
f 104 108 105

