# https://github.com/mikedh/trimesh
v 0.00432759 0.06696304 0.05701770
v 0.00173915 0.06696992 0.05701770
v 0.00562181 0.06701296 0.05701770
v 0.00562181 0.07619293 0.07911614
v 0.00489198 0.07617916 0.07911614
v 0.00432759 0.07617055 0.07911614
v 0.00359776 0.07617227 0.07911614
v -0.00084774 0.06697681 0.05701770
v 0.00230354 0.07617571 0.07911614
v 0.00611661 0.06705943 0.05701770
v 0.00660523 0.07623940 0.07911614
v 0.00593261 0.07620498 0.07911614
v -0.00214196 0.06699575 0.05701770
v -0.00028336 0.07618260 0.07911614
v -0.00214196 0.07618776 0.07911614
v 0.00647689 0.06714378 0.05701770
v 0.00714333 0.07630998 0.07911614
v -0.00332176 0.06705943 0.05701770
v -0.00325991 0.07622391 0.07911614
v 0.00716034 0.06740198 0.05701770
v 0.00727476 0.07636851 0.07911614
v -0.00353824 0.06707665 0.05701770
v -0.00352277 0.07624112 0.07911614
v 0.00723920 0.06744674 0.05701770
v 0.00816232 0.07677302 0.07911614
v -0.00386914 0.06710591 0.05701770
v -0.00443661 0.07633752 0.07911614
v 0.00781131 0.06799585 0.05701770
v 0.00894009 0.07745468 0.07911614
v 0.00847002 0.07703123 0.07911614
v -0.00411654 0.06717305 0.05701770
v -0.00472886 0.07636851 0.07911614
v 0.00822262 0.06916465 0.05701770
v 0.00912409 0.07822240 0.07911614
v -0.00479380 0.06769634 0.05701770
v -0.00528396 0.07663876 0.07911614
v -0.00582670 0.07693655 0.07911614
v 0.00834323 0.07045910 0.05701770
v 0.00837570 0.07045910 0.05784618
v 0.00912409 0.07822240 0.07725586
v 0.00921068 0.07951686 0.07911614
v -0.00542313 0.06843824 0.05733785
v -0.00545715 0.06835389 0.05701770
v -0.00612822 0.07750115 0.07911614
v 0.00816386 0.07175356 0.05701770
v 0.00831694 0.07175356 0.05784618
v 0.00843291 0.07175356 0.05913973
v 0.00853960 0.07304802 0.06172898
v 0.00886896 0.07624457 0.06991207
v 0.00910399 0.07822240 0.07596231
v 0.00911172 0.08010212 0.07911614
v 0.00905451 0.07822240 0.07466877
v 0.00918749 0.07951686 0.07855157
v 0.00898493 0.08041884 0.07725586
v -0.00553291 0.06856734 0.05701770
v -0.00649314 0.07822240 0.07911614
v 0.00776957 0.07277604 0.05701770
v 0.00788863 0.07308244 0.05786781
v 0.00823963 0.07304802 0.05913973
v 0.00839425 0.07434075 0.06172898
v 0.00844374 0.07304802 0.06043327
v 0.00856589 0.07434075 0.06302253
v 0.00864320 0.07434075 0.06431607
v 0.00886896 0.07671105 0.06991207
v 0.00902513 0.08059614 0.07911614
v 0.00901276 0.08055483 0.07855157
v 0.00913027 0.07951686 0.07725586
v 0.00899575 0.07822240 0.07337306
v 0.00894782 0.08031728 0.07596231
v -0.00565507 0.06915260 0.05701770
v -0.00654417 0.07878700 0.07911614
v -0.00649778 0.07822240 0.07725586
v -0.00573856 0.06963113 0.05701770
v 0.00757164 0.07309105 0.05701770
v 0.00764432 0.07380541 0.05831341
v 0.00781131 0.07406361 0.05913973
v 0.00799532 0.07444059 0.06035324
v 0.00823035 0.07563521 0.06302253
v 0.00850868 0.07563521 0.06431607
v 0.00886741 0.07888856 0.07136352
v 0.00877000 0.07692794 0.06819671
v 0.00874526 0.07563521 0.06690533
v 0.00883958 0.07705532 0.06948377
v 0.00885813 0.07757345 0.07013919
v 0.00891071 0.08087845 0.07911614
v 0.00893390 0.07822240 0.07207951
v 0.00906533 0.07951686 0.07596231
v 0.00890298 0.08023294 0.07496295
v 0.00874062 0.08124337 0.07911614
v -0.00658592 0.07951686 0.07911614
v -0.00647768 0.07822240 0.07596231
v -0.00580041 0.07045910 0.05784618
v -0.00576949 0.07045910 0.05701770
v 0.00735208 0.07340089 0.05701770
v 0.00744949 0.07353688 0.05745033
v 0.00772318 0.07520659 0.06073178
v 0.00786080 0.07563693 0.06181551
v 0.00792728 0.07696237 0.06436366
v 0.00832313 0.07692794 0.06561178
v 0.00860764 0.07692794 0.06690533
v 0.00887978 0.07822240 0.07105852
v 0.00838652 0.07822240 0.06819671
v 0.00779585 0.07915365 0.06819671
v 0.00840353 0.07939808 0.07087465
v 0.00884576 0.08009351 0.07409987
v 0.00843600 0.08072180 0.07458657
v 0.00806490 0.08203175 0.07855157
v 0.00871124 0.08120034 0.07855157
v 0.00837570 0.08171158 0.07911614
v -0.00646840 0.08008146 0.07911614
v -0.00656272 0.07951686 0.07855157
v -0.00643593 0.07822240 0.07466877
v -0.00595040 0.07304802 0.06172898
v -0.00585144 0.07175356 0.05913973
v -0.00574784 0.07092559 0.05701770
v 0.00636092 0.07475904 0.05701770
v 0.00627279 0.07499142 0.05719292
v 0.00723765 0.07563693 0.06035324
v 0.00740929 0.07606899 0.06144345
v 0.00759329 0.07632030 0.06230653
v 0.00774173 0.07651482 0.06302253
v 0.00798140 0.07827920 0.06691182
v 0.00726703 0.07980088 0.06819671
v 0.00790718 0.08058237 0.07207951
v 0.00792728 0.07955300 0.06959409
v 0.00764741 0.07897119 0.06734877
v 0.00802315 0.08090082 0.07338387
v 0.00769380 0.08160830 0.07466877
v 0.00761030 0.08151190 0.07382082
v 0.00749897 0.08267726 0.07855157
v 0.00754227 0.08272718 0.07911614
v 0.00772472 0.08251889 0.07911614
v -0.00629367 0.08081131 0.07911614
v -0.00650396 0.07951686 0.07725586
v -0.00637872 0.07822240 0.07337306
v -0.00623182 0.07692794 0.06949026
v -0.00614059 0.07563521 0.06690533
v -0.00604627 0.07434075 0.06431607
v -0.00597514 0.07434075 0.06302253
v -0.00586227 0.07304802 0.06043327
v -0.00574320 0.07175356 0.05784618
v -0.00562260 0.07175872 0.05701770
v 0.00571304 0.07509470 0.05701770
v 0.00603002 0.07748910 0.06123146
v 0.00635010 0.07636506 0.05963508
v 0.00653720 0.07660261 0.06043327
v 0.00690521 0.07690384 0.06176792
v 0.00724848 0.07716205 0.06302253
v 0.00762112 0.07765091 0.06482441
v 0.00778503 0.07786264 0.06561178
v 0.00737682 0.08122960 0.07207951
v 0.00695159 0.07954784 0.06684043
v 0.00643205 0.08030351 0.06719519
v 0.00750979 0.08139313 0.07295774
v 0.00746959 0.07874741 0.06648568
v 0.00737063 0.08253611 0.07725586
v 0.00691139 0.08209716 0.07341848
v 0.00706602 0.08225552 0.07466877
v 0.00722838 0.08239495 0.07596231
v 0.00685263 0.08321948 0.07855157
v 0.00733352 0.08290275 0.07911614
v 0.00658204 0.08297849 0.07596231
v 0.00672429 0.08310071 0.07725586
v -0.00602926 0.08127091 0.07911614
v -0.00625347 0.08081131 0.07855157
v -0.00643284 0.07951686 0.07596231
v -0.00631377 0.07822240 0.07207951
v -0.00615605 0.07692794 0.06819671
v -0.00606637 0.07563521 0.06561178
v -0.00591175 0.07563521 0.06431607
v -0.00580969 0.07434075 0.06172898
v -0.00554992 0.07209955 0.05701770
v 0.00562181 0.07512741 0.05701770
v 0.00489816 0.07626350 0.05852107
v 0.00516721 0.07762337 0.06099136
v 0.00608414 0.07880938 0.06377313
v 0.00640113 0.07770772 0.06209238
v 0.00728868 0.07850987 0.06561178
v 0.00649390 0.08164445 0.07078597
v 0.00673048 0.08187855 0.07207951
v 0.00664234 0.07927931 0.06561178
v 0.00642896 0.07902455 0.06463622
v 0.00613981 0.08012449 0.06633210
v 0.00633309 0.08150502 0.07001157
v 0.00631144 0.08277882 0.07388139
v 0.00641968 0.08285456 0.07466877
v 0.00551048 0.08385638 0.07866405
v 0.00627279 0.08353277 0.07911614
v 0.00693768 0.08319883 0.07911614
v -0.00570145 0.08182519 0.07911614
v -0.00567208 0.08179248 0.07855157
v -0.00609884 0.08081131 0.07725586
v -0.00619007 0.07951686 0.07337306
v -0.00633697 0.07951686 0.07466877
v -0.00620554 0.07822240 0.07078597
v -0.00599834 0.07692794 0.06690533
v -0.00565197 0.07568513 0.06303983
v -0.00553137 0.07524446 0.06172898
v -0.00550044 0.07390008 0.05945554
v -0.00553137 0.07273817 0.05784618
v -0.00544168 0.07250235 0.05703501
v -0.00544478 0.07247481 0.05701770
v 0.00558470 0.07513946 0.05701770
v 0.00441109 0.07667146 0.05902724
v 0.00432759 0.07735656 0.06017370
v 0.00427966 0.07551816 0.05701770
v 0.00432759 0.07771804 0.06082047
v 0.00432759 0.07818969 0.06172898
v 0.00522133 0.07892815 0.06355682
v 0.00527699 0.08023121 0.06612444
v 0.00567438 0.08043434 0.06682097
v 0.00562181 0.08159453 0.06977363
v 0.00557233 0.08248963 0.07216604
v 0.00596972 0.08268242 0.07301830
v 0.00557233 0.08284767 0.07341848
v 0.00562181 0.08307833 0.07466877
v 0.00562181 0.08357064 0.07725586
v 0.00505897 0.08403024 0.07911614
v 0.00551048 0.08388909 0.07911614
v -0.00512934 0.08247242 0.07911614
v -0.00509996 0.08243971 0.07855157
v -0.00497780 0.08230028 0.07725586
v -0.00554838 0.08165305 0.07725586
v -0.00581742 0.08072352 0.07466877
v -0.00569836 0.08055655 0.07337306
v -0.00597205 0.07951686 0.07207951
v -0.00602308 0.07822240 0.06949026
v -0.00562569 0.07794871 0.06690533
v -0.00558549 0.07660777 0.06431607
v -0.00545096 0.07638227 0.06348111
v -0.00540612 0.07503102 0.06101299
v -0.00465000 0.07358508 0.05701770
v -0.00543704 0.07249718 0.05701770
v -0.00521129 0.07476248 0.06014990
v -0.00503347 0.07433559 0.05907051
v 0.00238239 0.07757517 0.05978866
v 0.00361940 0.07566619 0.05701770
v 0.00303337 0.07785575 0.06056522
v 0.00296688 0.07853397 0.06183065
v 0.00432759 0.07902627 0.06336430
v 0.00432759 0.08000400 0.06527650
v 0.00432759 0.08033278 0.06592327
v 0.00303337 0.08102820 0.06690533
v 0.00432759 0.08076139 0.06690533
v 0.00437707 0.08126747 0.06823132
v 0.00484095 0.08143100 0.06891487
v 0.00510691 0.08277710 0.07265706
v 0.00303337 0.08332104 0.07337306
v 0.00491826 0.08405778 0.07911614
v -0.00448145 0.08315235 0.07911614
v -0.00445208 0.08312137 0.07855157
v -0.00412427 0.08278915 0.07509707
v -0.00456495 0.08220561 0.07466660
v -0.00536746 0.08144649 0.07536529
v -0.00529943 0.08137075 0.07466877
v -0.00516181 0.08120378 0.07337306
v -0.00551590 0.08033105 0.07207951
v -0.00560559 0.07916570 0.06949026
v -0.00573083 0.07831191 0.06816210
v -0.00547725 0.07770944 0.06600763
v -0.00546642 0.07897979 0.06857093
v -0.00532417 0.07880250 0.06771001
v -0.00527469 0.07614817 0.06262019
v -0.00530097 0.07747705 0.06514455
v -0.00422632 0.07647178 0.06076639
v -0.00471803 0.07562144 0.06045707
v -0.00508450 0.07588997 0.06172898
v -0.00431446 0.07404124 0.05701770
v -0.00415210 0.07508093 0.05834153
v 0.00151958 0.07763886 0.05967834
v 0.00186594 0.07793149 0.06030565
v 0.00173915 0.07861831 0.06157107
v 0.00249063 0.07889200 0.06233249
v 0.00303337 0.07579529 0.05701770
v 0.00173915 0.07603973 0.05701770
v 0.00173915 0.07621358 0.05731189
v 0.00299317 0.07984563 0.06440909
v 0.00253393 0.08019507 0.06490228
v 0.00299317 0.08042573 0.06555338
v 0.00173915 0.08067360 0.06561178
v 0.00179945 0.08126403 0.06696806
v 0.00227106 0.08144305 0.06759320
v 0.00303337 0.08137075 0.06778788
v 0.00303337 0.08200765 0.06949026
v 0.00432759 0.08261357 0.07180263
v 0.00343385 0.08270308 0.07156469
v 0.00257104 0.08278915 0.07133540
v 0.00301482 0.08295267 0.07202976
v 0.00432759 0.08285111 0.07244940
v 0.00173915 0.08317301 0.07207951
v 0.00173915 0.08352416 0.07337306
v 0.00240250 0.08404918 0.07659394
v 0.00303337 0.08356719 0.07466877
v 0.00303337 0.08430049 0.07855157
v 0.00303337 0.08434869 0.07911614
v -0.00343618 0.08373761 0.07911614
v -0.00343618 0.08368425 0.07855157
v -0.00396655 0.08270480 0.07423398
v -0.00451547 0.08195257 0.07337306
v -0.00433147 0.08173740 0.07207951
v -0.00497935 0.08097828 0.07207951
v -0.00539839 0.08018990 0.07136784
v -0.00516490 0.07859593 0.06690533
v -0.00494224 0.07945317 0.06816210
v -0.00410571 0.08018818 0.06748721
v -0.00444434 0.07954268 0.06699618
v -0.00512934 0.07725328 0.06431607
v -0.00476751 0.07697614 0.06293168
v -0.00407788 0.07757173 0.06238224
v -0.00443816 0.07674376 0.06172898
v -0.00494688 0.07817420 0.06559015
v -0.00425879 0.07780239 0.06324533
v -0.00400366 0.07620842 0.05990331
v -0.00433301 0.07532881 0.05913973
v -0.00388614 0.07481584 0.05747845
v -0.00373616 0.07463682 0.05701770
v 0.00079902 0.07763886 0.05967834
v 0.00068924 0.07895398 0.06221136
v 0.00173915 0.07992654 0.06413437
v 0.00098303 0.07601563 0.05701770
v 0.00173915 0.08025531 0.06478114
v 0.00044648 0.08063057 0.06561178
v 0.00087943 0.08149985 0.06743962
v 0.00140825 0.08149985 0.06743962
v 0.00173915 0.08284939 0.07117316
v 0.00044648 0.08313342 0.07207951
v 0.00044648 0.08348457 0.07337306
v 0.00078511 0.08410253 0.07631274
v 0.00173915 0.08376859 0.07466877
v 0.00173915 0.08409048 0.07637547
v 0.00173915 0.08450017 0.07855157
v 0.00173915 0.08454837 0.07911614
v -0.00240637 0.08399065 0.07911614
v -0.00183735 0.08410770 0.07886738
v -0.00349494 0.08292857 0.07466660
v -0.00221773 0.08396655 0.07848235
v -0.00303570 0.08282013 0.07337306
v -0.00280067 0.08275472 0.07271763
v -0.00368204 0.08259807 0.07337306
v -0.00417684 0.08155666 0.07114721
v -0.00471649 0.08079410 0.07082706
v -0.00508604 0.07981293 0.06949026
v -0.00424952 0.07908307 0.06561178
v -0.00337743 0.08033794 0.06699618
v -0.00377018 0.07999195 0.06662412
v -0.00410417 0.07889373 0.06491093
v -0.00397119 0.08140001 0.07028412
v -0.00380110 0.07739099 0.06172898
v -0.00373925 0.07866479 0.06405001
v -0.00284860 0.07760099 0.06103462
v -0.00441497 0.07822928 0.06441558
v -0.00342691 0.07691417 0.06046788
v -0.00314085 0.07649416 0.05942526
v -0.00304653 0.07513774 0.05701770
v 0.00044648 0.07599841 0.05701770
v 0.00044648 0.07657334 0.05799544
v 0.00040009 0.07727394 0.05920462
v -0.00084774 0.07696409 0.05913973
v -0.00006379 0.07754591 0.05984058
v -0.00214196 0.07768190 0.06088753
v 0.00040009 0.07791428 0.06033593
v 0.00033360 0.07864929 0.06175926
v -0.00017357 0.07886446 0.06238657
v 0.00044648 0.07990588 0.06417547
v 0.00044648 0.08023466 0.06482441
v -0.00214196 0.08029491 0.06599682
v 0.00044802 0.08123132 0.06696806
v -0.00212032 0.08122616 0.06827026
v -0.00084774 0.08157387 0.06853416
v -0.00214196 0.08257914 0.07189781
v 0.00044648 0.08218151 0.06949026
v 0.00044648 0.08258775 0.07058047
v 0.00044648 0.08282873 0.07122724
v -0.00214196 0.08281668 0.07254458
v -0.00084774 0.08324702 0.07337306
v -0.00084774 0.08349490 0.07466877
v 0.00044648 0.08373072 0.07466877
v 0.00039081 0.08395622 0.07591472
v -0.00052612 0.08410598 0.07758898
v 0.00044648 0.08446230 0.07855157
v 0.00117631 0.08453116 0.07911614
v -0.00187291 0.08411458 0.07911614
v 0.00044648 0.08450878 0.07911614
v -0.00214196 0.08374966 0.07725586
v -0.00331403 0.08236397 0.07220281
v -0.00214196 0.08325735 0.07466877
v -0.00214196 0.08300776 0.07337306
v -0.00253781 0.08140862 0.06897543
v -0.00310838 0.08157043 0.06983636
v -0.00290736 0.08020712 0.06617203
v -0.00214196 0.07731869 0.06024075
v -0.00260120 0.07623940 0.05856217
v -0.00287644 0.07890405 0.06360224
v -0.00214196 0.07943940 0.06431607
v -0.00214196 0.07811740 0.06172898
v -0.00214506 0.07543209 0.05701770
v -0.00139667 0.07559734 0.05701770
v -0.00215897 0.07662499 0.05905104
v -0.00084774 0.07838765 0.06172898
v -0.00084774 0.07879389 0.06252285
v -0.00214196 0.07996613 0.06535004
v -0.00214196 0.08069082 0.06690533
v -0.00084774 0.08094902 0.06690533
v -0.00212032 0.08166510 0.06944050
f 1 2 8
f 1 8 13
f 1 13 18
f 1 18 22
f 1 22 26
f 1 26 31
f 1 31 35
f 1 35 43
f 1 43 55
f 1 55 70
f 1 70 73
f 1 73 93
f 1 93 115
f 1 115 142
f 1 142 172
f 1 172 202
f 1 202 233
f 1 233 232
f 1 232 268
f 1 268 316
f 1 316 354
f 1 354 396
f 1 396 397
f 1 397 355
f 1 355 320
f 1 320 275
f 1 275 274
f 1 274 237
f 1 237 206
f 1 206 203
f 1 203 173
f 1 173 143
f 1 143 116
f 1 116 94
f 1 94 74
f 1 74 57
f 1 57 45
f 1 45 38
f 1 38 33
f 1 33 28
f 1 28 24
f 1 24 20
f 1 20 16
f 1 16 10
f 1 10 3
f 1 3 4
f 1 4 5
f 1 5 6
f 1 6 7
f 1 7 9
f 1 9 2
f 2 9 14
f 2 14 8
f 3 10 11
f 3 11 12
f 3 12 4
f 4 12 11
f 4 11 17
f 4 17 21
f 4 21 25
f 4 25 30
f 4 30 29
f 4 29 34
f 4 34 41
f 4 41 51
f 4 51 65
f 4 65 85
f 4 85 89
f 4 89 109
f 4 109 132
f 4 132 131
f 4 131 161
f 4 161 189
f 4 189 188
f 4 188 219
f 4 219 218
f 4 218 249
f 4 249 295
f 4 295 332
f 4 332 381
f 4 381 383
f 4 383 382
f 4 382 333
f 4 333 296
f 4 296 250
f 4 250 220
f 4 220 190
f 4 190 164
f 4 164 133
f 4 133 110
f 4 110 90
f 4 90 71
f 4 71 56
f 4 56 44
f 4 44 37
f 4 37 36
f 4 36 32
f 4 32 27
f 4 27 23
f 4 23 19
f 4 19 15
f 4 15 14
f 4 14 9
f 4 9 7
f 4 7 6
f 4 6 5
f 8 14 15
f 8 15 13
f 10 16 17
f 10 17 11
f 13 15 19
f 13 19 18
f 16 20 17
f 17 20 21
f 18 19 23
f 18 23 22
f 20 24 25
f 20 25 21
f 22 23 26
f 23 27 26
f 24 28 29
f 24 29 30
f 24 30 25
f 26 27 32
f 26 32 31
f 28 33 29
f 29 33 34
f 31 32 36
f 31 36 37
f 31 37 35
f 33 38 39
f 33 39 34
f 34 40 41
f 34 39 40
f 35 42 43
f 35 37 42
f 37 44 43
f 37 43 42
f 38 45 46
f 38 46 47
f 38 47 39
f 39 47 48
f 39 48 49
f 39 49 50
f 39 50 40
f 40 50 41
f 41 50 52
f 41 52 53
f 41 53 54
f 41 54 51
f 43 44 56
f 43 56 55
f 45 57 58
f 45 58 59
f 45 59 46
f 46 59 60
f 46 60 61
f 46 61 47
f 47 61 62
f 47 62 48
f 48 62 63
f 48 63 64
f 48 64 49
f 49 64 52
f 49 52 50
f 51 54 66
f 51 66 65
f 52 67 53
f 52 64 68
f 52 68 67
f 53 67 69
f 53 69 54
f 54 69 66
f 55 56 70
f 56 71 72
f 56 72 73
f 56 73 70
f 57 74 75
f 57 75 76
f 57 76 58
f 58 76 77
f 58 77 78
f 58 78 59
f 59 78 60
f 60 78 79
f 60 79 62
f 60 62 61
f 62 79 80
f 62 80 81
f 62 81 63
f 63 81 82
f 63 82 64
f 64 83 84
f 64 84 68
f 64 82 83
f 65 66 85
f 66 69 85
f 67 68 86
f 67 86 80
f 67 80 87
f 67 87 69
f 68 84 86
f 69 87 88
f 69 88 89
f 69 89 85
f 71 90 72
f 72 90 91
f 72 91 92
f 72 92 73
f 73 92 93
f 74 94 95
f 74 95 75
f 75 96 76
f 75 95 96
f 76 96 97
f 76 97 78
f 76 78 77
f 78 97 98
f 78 98 99
f 78 99 80
f 78 80 100
f 78 100 79
f 79 100 80
f 80 86 101
f 80 101 84
f 80 84 81
f 80 99 102
f 80 102 103
f 80 103 104
f 80 104 105
f 80 105 88
f 80 88 87
f 81 84 82
f 82 84 83
f 84 101 86
f 88 106 107
f 88 107 108
f 88 108 89
f 88 105 106
f 89 108 107
f 89 107 109
f 90 110 111
f 90 111 112
f 90 112 91
f 91 112 92
f 92 113 114
f 92 114 93
f 92 112 113
f 93 114 115
f 94 116 117
f 94 117 95
f 95 117 96
f 96 117 118
f 96 118 119
f 96 119 120
f 96 120 97
f 97 120 121
f 97 121 98
f 98 122 99
f 98 121 122
f 99 122 102
f 102 122 103
f 103 123 124
f 103 124 125
f 103 125 104
f 103 122 126
f 103 126 123
f 104 125 105
f 105 125 124
f 105 124 127
f 105 127 106
f 106 128 107
f 106 127 129
f 106 129 128
f 107 130 131
f 107 131 132
f 107 132 109
f 107 128 130
f 110 133 134
f 110 134 111
f 111 134 135
f 111 135 112
f 112 135 136
f 112 136 137
f 112 137 138
f 112 138 113
f 113 138 139
f 113 139 114
f 114 139 115
f 115 139 140
f 115 140 141
f 115 141 142
f 116 143 117
f 117 143 144
f 117 144 145
f 117 145 146
f 117 146 118
f 118 146 119
f 119 147 120
f 119 146 147
f 120 147 148
f 120 148 121
f 121 148 149
f 121 149 150
f 121 150 122
f 122 150 126
f 123 151 124
f 123 126 152
f 123 152 153
f 123 153 151
f 124 151 154
f 124 154 127
f 126 150 155
f 126 155 152
f 127 154 129
f 128 156 130
f 128 129 156
f 129 154 157
f 129 157 158
f 129 158 159
f 129 159 156
f 130 160 161
f 130 161 131
f 130 156 162
f 130 162 163
f 130 163 160
f 133 164 165
f 133 165 166
f 133 166 134
f 134 166 167
f 134 167 135
f 135 167 136
f 136 167 168
f 136 168 169
f 136 169 139
f 136 139 137
f 137 139 138
f 139 169 170
f 139 170 171
f 139 171 140
f 140 171 141
f 141 171 142
f 142 171 172
f 143 173 144
f 144 173 174
f 144 174 175
f 144 175 176
f 144 176 177
f 144 177 145
f 145 177 146
f 146 177 147
f 147 177 148
f 148 177 178
f 148 178 155
f 148 155 149
f 149 155 150
f 151 179 180
f 151 180 154
f 151 153 179
f 152 155 181
f 152 181 153
f 153 181 182
f 153 182 183
f 153 183 184
f 153 184 179
f 154 180 157
f 155 178 181
f 156 159 162
f 157 185 158
f 157 180 185
f 158 185 159
f 159 185 186
f 159 186 162
f 160 187 188
f 160 188 189
f 160 189 161
f 160 163 187
f 162 186 187
f 162 187 163
f 164 190 165
f 165 190 191
f 165 191 192
f 165 192 193
f 165 193 194
f 165 194 166
f 166 194 167
f 167 195 168
f 167 194 195
f 168 195 196
f 168 196 170
f 168 170 169
f 170 197 171
f 170 196 197
f 171 197 198
f 171 198 199
f 171 199 200
f 171 200 172
f 172 200 201
f 172 201 202
f 173 203 174
f 174 204 205
f 174 205 175
f 174 203 206
f 174 206 204
f 175 205 207
f 175 207 208
f 175 208 209
f 175 209 183
f 175 183 176
f 176 183 177
f 177 183 182
f 177 182 178
f 178 182 181
f 179 184 185
f 179 185 180
f 183 210 211
f 183 211 184
f 183 209 210
f 184 212 213
f 184 213 214
f 184 214 185
f 184 211 212
f 185 214 215
f 185 215 216
f 185 216 217
f 185 217 187
f 185 187 186
f 187 218 219
f 187 219 188
f 187 217 218
f 190 220 221
f 190 221 191
f 191 221 222
f 191 222 223
f 191 223 224
f 191 224 192
f 192 224 193
f 193 225 226
f 193 226 227
f 193 227 195
f 193 195 194
f 193 224 225
f 195 227 196
f 196 228 229
f 196 229 197
f 196 227 228
f 197 229 198
f 198 229 230
f 198 230 231
f 198 231 199
f 199 231 201
f 199 201 200
f 201 232 233
f 201 233 202
f 201 231 234
f 201 234 235
f 201 235 232
f 204 236 205
f 204 206 236
f 205 236 207
f 206 237 236
f 207 236 238
f 207 238 239
f 207 239 208
f 208 239 240
f 208 240 210
f 208 210 209
f 210 241 242
f 210 242 243
f 210 243 244
f 210 244 211
f 210 240 241
f 211 244 245
f 211 245 212
f 212 245 246
f 212 246 247
f 212 247 213
f 213 247 214
f 214 247 215
f 215 248 216
f 215 247 248
f 216 249 217
f 216 248 249
f 217 249 218
f 220 250 251
f 220 251 221
f 221 251 252
f 221 252 222
f 222 252 253
f 222 253 223
f 223 253 254
f 223 254 224
f 224 254 255
f 224 255 225
f 225 256 301
f 225 301 257
f 225 257 258
f 225 258 226
f 225 255 256
f 226 258 259
f 226 259 227
f 227 259 228
f 228 260 230
f 228 230 229
f 228 259 258
f 228 258 261
f 228 261 262
f 228 262 260
f 230 263 231
f 230 260 264
f 230 264 263
f 231 265 266
f 231 266 234
f 231 263 267
f 231 267 265
f 232 235 268
f 234 266 269
f 234 269 268
f 234 268 235
f 236 270 271
f 236 271 272
f 236 272 273
f 236 273 238
f 236 237 274
f 236 274 275
f 236 275 276
f 236 276 270
f 238 273 239
f 239 273 241
f 239 241 240
f 241 277 278
f 241 278 242
f 241 273 277
f 242 278 279
f 242 279 243
f 243 279 280
f 243 280 281
f 243 281 282
f 243 282 283
f 243 283 245
f 243 245 244
f 245 283 246
f 246 283 284
f 246 284 285
f 246 285 247
f 247 285 286
f 247 286 287
f 247 287 288
f 247 288 289
f 247 289 248
f 248 289 288
f 248 288 290
f 248 290 291
f 248 291 292
f 248 292 293
f 248 293 249
f 249 294 295
f 249 293 292
f 249 292 294
f 250 296 251
f 251 296 297
f 251 297 252
f 252 297 298
f 252 298 299
f 252 299 253
f 253 255 254
f 253 299 255
f 255 299 256
f 256 299 300
f 256 300 301
f 257 301 302
f 257 302 261
f 257 261 258
f 260 262 303
f 260 303 264
f 261 302 304
f 261 304 262
f 262 304 305
f 262 305 306
f 262 306 303
f 263 264 307
f 263 307 308
f 263 308 309
f 263 309 310
f 263 310 267
f 264 303 311
f 264 311 312
f 264 312 307
f 265 313 269
f 265 269 314
f 265 314 266
f 265 267 310
f 265 310 309
f 265 309 313
f 266 314 269
f 268 315 316
f 268 269 315
f 269 313 315
f 270 317 318
f 270 318 272
f 270 272 271
f 270 276 275
f 270 275 317
f 272 318 319
f 272 319 273
f 273 319 278
f 273 278 277
f 275 320 317
f 278 319 321
f 278 321 280
f 278 280 279
f 280 322 323
f 280 323 324
f 280 324 281
f 280 321 318
f 280 318 322
f 281 324 282
f 282 325 287
f 282 287 283
f 282 324 325
f 283 287 284
f 284 287 286
f 284 286 285
f 287 325 290
f 287 290 288
f 290 325 323
f 290 323 326
f 290 326 327
f 290 327 291
f 291 327 328
f 291 328 329
f 291 329 292
f 292 329 330
f 292 330 331
f 292 331 294
f 294 331 332
f 294 332 295
f 296 333 334
f 296 334 297
f 297 335 298
f 297 334 336
f 297 336 337
f 297 337 335
f 298 337 338
f 298 338 339
f 298 339 340
f 298 340 300
f 298 300 299
f 298 335 337
f 300 340 301
f 301 340 341
f 301 341 302
f 302 341 342
f 302 342 304
f 303 306 343
f 303 343 311
f 304 342 341
f 304 341 305
f 305 344 345
f 305 345 346
f 305 346 343
f 305 343 306
f 305 341 340
f 305 340 347
f 305 347 344
f 307 312 308
f 308 312 309
f 309 348 313
f 309 312 343
f 309 343 346
f 309 346 349
f 309 349 350
f 309 350 348
f 311 343 351
f 311 351 312
f 312 351 343
f 313 348 352
f 313 352 353
f 313 353 354
f 313 354 315
f 315 354 316
f 317 320 355
f 317 355 356
f 317 356 357
f 317 357 358
f 317 358 359
f 317 359 360
f 317 360 361
f 317 361 318
f 318 361 362
f 318 362 363
f 318 363 364
f 318 364 365
f 318 365 322
f 318 321 319
f 322 365 366
f 322 366 367
f 322 367 323
f 323 367 368
f 323 368 369
f 323 369 370
f 323 370 371
f 323 371 372
f 323 372 373
f 323 373 326
f 323 325 324
f 326 373 374
f 326 374 338
f 326 338 327
f 327 338 375
f 327 375 386
f 327 386 376
f 327 376 377
f 327 377 328
f 328 330 329
f 328 377 378
f 328 378 379
f 328 379 380
f 328 380 331
f 328 331 330
f 331 380 332
f 332 380 381
f 333 382 334
f 334 380 379
f 334 379 336
f 334 382 383
f 334 383 380
f 336 379 384
f 336 384 338
f 336 338 337
f 338 385 339
f 338 384 386
f 338 386 387
f 338 387 375
f 338 374 373
f 338 373 370
f 338 370 388
f 338 388 389
f 338 389 347
f 338 347 385
f 339 385 347
f 339 347 340
f 344 390 345
f 344 347 390
f 345 349 346
f 345 390 350
f 345 350 349
f 347 389 390
f 348 350 352
f 350 360 391
f 350 391 392
f 350 392 354
f 350 354 353
f 350 353 352
f 350 390 393
f 350 393 394
f 350 394 395
f 350 395 360
f 354 392 396
f 355 397 356
f 356 358 357
f 356 397 358
f 358 398 359
f 358 397 398
f 359 391 360
f 359 398 391
f 360 395 399
f 360 399 362
f 360 362 361
f 362 399 400
f 362 400 363
f 363 400 364
f 364 400 394
f 364 394 401
f 364 401 366
f 364 366 365
f 366 390 402
f 366 402 403
f 366 403 367
f 366 401 390
f 367 403 368
f 368 388 404
f 368 404 369
f 368 403 402
f 368 402 388
f 369 404 370
f 370 373 372
f 370 372 371
f 370 404 388
f 375 387 386
f 376 386 384
f 376 384 377
f 377 384 378
f 378 384 379
f 380 383 381
f 388 402 390
f 388 390 389
f 390 401 394
f 390 394 393
f 391 398 392
f 392 398 396
f 394 400 395
f 395 400 399
f 396 398 397

