# https://github.com/mikedh/trimesh
v 0.01522978 -0.03133461 0.02041157
v 0.01522978 -0.03059999 0.01765542
v 0.02249483 -0.02895422 0.02041157
v 0.01522978 -0.02502299 0.02041157
v 0.01522978 -0.03039119 0.01690364
v 0.01522978 -0.02918771 0.01259445
v 0.01522978 -0.02880427 0.01133693
v 0.02182149 -0.02855750 0.01834168
v 0.02278735 -0.02881376 0.02041157
v 0.02722290 -0.01194607 0.02041157
v 0.02157497 -0.01194607 0.00778077
v 0.01522978 -0.01903216 0.00778077
v 0.01522978 -0.02859926 0.01071621
v 0.02298603 -0.02848157 0.01980445
v 0.02318472 -0.02861824 0.02041157
v 0.01522978 -0.02840943 0.01015978
v 0.01522978 -0.02833920 0.00995947
v 0.01522978 -0.02806965 0.00927940
v 0.02074710 -0.02738249 0.01417469
v 0.02191716 -0.02733693 0.01560284
v 0.03394892 -0.01194607 0.02041157
v 0.02951888 -0.01194607 0.00778077
v 0.01522978 -0.02739388 0.00778077
v 0.02304491 -0.02721165 0.01715711
v 0.02327855 -0.02741856 0.01802019
v 0.02386726 -0.02802029 0.02041157
v 0.01522978 -0.02783996 0.00872792
v 0.02039755 -0.02719646 0.01331285
v 0.02160993 -0.02713192 0.01473976
v 0.02214160 -0.02624545 0.01384207
v 0.02247275 -0.02663079 0.01510206
v 0.02282046 -0.02702562 0.01643006
v 0.03402434 -0.01366586 0.02041157
v 0.03392684 -0.01194607 0.02031265
v 0.02955015 -0.01194607 0.00783023
v 0.02950048 -0.01199352 0.00778077
v 0.01529049 -0.02736541 0.00778077
v 0.02303019 -0.02588858 0.01460252
v 0.02324544 -0.02612966 0.01546559
v 0.02435479 -0.02720026 0.01974139
v 0.02448724 -0.02738629 0.02041157
v 0.01546343 -0.02732364 0.00787969
v 0.01592887 -0.02748499 0.00873410
v 0.01671995 -0.02730086 0.00921139
v 0.02116839 -0.02693071 0.01378272
v 0.01758278 -0.02708257 0.00973567
v 0.01825060 -0.02617332 0.00866610
v 0.01918334 -0.02593604 0.00935235
v 0.02188956 -0.02603095 0.01306679
v 0.03401699 -0.01376647 0.02041157
v 0.03399491 -0.01366586 0.02031265
v 0.03217175 -0.01194607 0.01400282
v 0.03239803 -0.01194607 0.01477315
v 0.03274206 -0.01194607 0.01600223
v 0.03354418 -0.01194607 0.01890181
v 0.03382381 -0.01194607 0.01992068
v 0.02966237 -0.01194607 0.00804290
v 0.02943425 -0.01273004 0.00827784
v 0.02874251 -0.01363739 0.00778077
v 0.02927051 -0.01249276 0.00778077
v 0.01541743 -0.02729707 0.00778077
v 0.02278919 -0.02566269 0.01384207
v 0.02294740 -0.02451236 0.01214807
v 0.02311481 -0.02339241 0.01056906
v 0.02318656 -0.02477242 0.01301115
v 0.02449644 -0.02091331 0.00911371
v 0.02570698 -0.01952191 0.00926085
v 0.03208528 -0.01681883 0.01851355
v 0.03321671 -0.01638603 0.02041157
v 0.01720012 -0.02681112 0.00873410
v 0.01632625 -0.02709206 0.00834832
v 0.01795992 -0.02598539 0.00797737
v 0.01889818 -0.02574242 0.00866610
v 0.01944825 -0.02483886 0.00778077
v 0.01986219 -0.02506095 0.00870196
v 0.02208457 -0.02491479 0.01148036
v 0.02241756 -0.02527545 0.01260681
v 0.02062016 -0.02475154 0.00915823
v 0.02155657 -0.02446301 0.00995947
v 0.02179390 -0.02465853 0.01061729
v 0.03383301 -0.01503829 0.02041157
v 0.03356074 -0.01468142 0.01934200
v 0.03362328 -0.01366586 0.01911202
v 0.03193442 -0.01194607 0.01329183
v 0.03341356 -0.01366586 0.01846533
v 0.03080484 -0.01194607 0.01039966
v 0.03048657 -0.01230863 0.01003119
v 0.03073309 -0.01269966 0.01086088
v 0.02982427 -0.01232761 0.00869207
v 0.03074965 -0.01407778 0.01211221
v 0.02838745 -0.01434733 0.00778077
v 0.01752575 -0.02610878 0.00778077
v 0.02199259 -0.02353857 0.00903210
v 0.02285541 -0.02313045 0.00970599
v 0.02326383 -0.02226865 0.00901974
v 0.02425728 -0.02063238 0.00825063
v 0.02499133 -0.02007619 0.00875636
v 0.02548621 -0.01922958 0.00839901
v 0.02717139 -0.01715671 0.00866610
v 0.02829178 -0.01692893 0.01056288
v 0.03115071 -0.01599879 0.01513544
v 0.03219750 -0.01567989 0.01697040
v 0.03356441 -0.01581846 0.02041157
v 0.01781827 -0.02593983 0.00778077
v 0.01815677 -0.02572533 0.00778077
v 0.02013631 -0.02430735 0.00778077
v 0.02029453 -0.02450097 0.00829515
v 0.02115552 -0.02401882 0.00866362
v 0.02169271 -0.02327092 0.00816903
v 0.03342644 -0.01554511 0.01971666
v 0.03375943 -0.01505157 0.02021373
v 0.03221590 -0.01445553 0.01563128
v 0.03216439 -0.01305653 0.01446032
v 0.03150209 -0.01194607 0.01212087
v 0.03093730 -0.01194607 0.01068653
v 0.03094282 -0.01321408 0.01172395
v 0.03096857 -0.01451247 0.01297405
v 0.02835617 -0.01448400 0.00785372
v 0.03114151 -0.01365447 0.01254499
v 0.02833594 -0.01444604 0.00778077
v 0.02250035 -0.02276978 0.00859438
v 0.02300627 -0.02198392 0.00815666
v 0.02467490 -0.01981234 0.00778077
v 0.02526729 -0.01905494 0.00778077
v 0.02577505 -0.01839057 0.00778077
v 0.02699110 -0.01692133 0.00799592
v 0.02808390 -0.01661382 0.00970105
v 0.03095385 -0.01573873 0.01431317
v 0.03201537 -0.01531733 0.01610733
v 0.02088876 -0.02370562 0.00778077
v 0.02154737 -0.02312476 0.00778077
v 0.03179829 -0.01491490 0.01517377
v 0.03203561 -0.01391833 0.01476821
v 0.02855486 -0.01493388 0.00869207
v 0.03117094 -0.01495097 0.01386680
v 0.03072757 -0.01537617 0.01345134
v 0.02835617 -0.01575202 0.00914091
v 0.02812805 -0.01534580 0.00827784
v 0.02790728 -0.01519394 0.00778077
v 0.02285725 -0.02183585 0.00778077
v 0.02345700 -0.02117907 0.00778077
v 0.02409171 -0.02047293 0.00778077
v 0.02220967 -0.02247556 0.00778077
v 0.02668939 -0.01714153 0.00778077
v 0.02693959 -0.01677327 0.00778077
v 0.02713644 -0.01646576 0.00778077
v 0.02782265 -0.01621139 0.00869207
f 1 2 3
f 1 3 9
f 1 9 15
f 1 15 26
f 1 26 41
f 1 41 69
f 1 69 103
f 1 103 81
f 1 81 50
f 1 50 33
f 1 33 21
f 1 21 10
f 1 10 4
f 1 4 12
f 1 12 23
f 1 23 27
f 1 27 18
f 1 18 17
f 1 17 16
f 1 16 13
f 1 13 7
f 1 7 6
f 1 6 5
f 1 5 2
f 2 5 3
f 3 5 6
f 3 6 7
f 3 7 8
f 3 8 9
f 4 10 11
f 4 11 12
f 7 13 8
f 8 14 15
f 8 15 9
f 8 13 16
f 8 16 17
f 8 17 18
f 8 18 19
f 8 19 20
f 8 20 14
f 10 21 34
f 10 34 56
f 10 56 55
f 10 55 54
f 10 54 53
f 10 53 52
f 10 52 84
f 10 84 114
f 10 114 115
f 10 115 86
f 10 86 57
f 10 57 35
f 10 35 22
f 10 22 11
f 11 22 36
f 11 36 60
f 11 60 59
f 11 59 91
f 11 91 120
f 11 120 139
f 11 139 146
f 11 146 145
f 11 145 144
f 11 144 125
f 11 125 124
f 11 124 123
f 11 123 142
f 11 142 141
f 11 141 140
f 11 140 143
f 11 143 131
f 11 131 130
f 11 130 106
f 11 106 74
f 11 74 105
f 11 105 104
f 11 104 92
f 11 92 61
f 11 61 37
f 11 37 23
f 11 23 12
f 14 20 15
f 15 20 24
f 15 24 25
f 15 25 26
f 18 27 28
f 18 28 19
f 19 28 29
f 19 29 20
f 20 29 30
f 20 30 31
f 20 31 32
f 20 32 24
f 21 33 34
f 22 35 36
f 23 37 27
f 24 32 38
f 24 38 39
f 24 39 25
f 25 39 40
f 25 40 26
f 26 40 41
f 27 37 42
f 27 42 43
f 27 43 44
f 27 44 28
f 28 45 29
f 28 44 46
f 28 46 47
f 28 47 48
f 28 48 45
f 29 45 49
f 29 49 30
f 30 49 38
f 30 38 31
f 31 38 32
f 33 50 51
f 33 51 52
f 33 52 53
f 33 53 54
f 33 54 55
f 33 55 56
f 33 56 34
f 35 57 58
f 35 58 59
f 35 59 60
f 35 60 36
f 37 61 42
f 38 49 62
f 38 62 63
f 38 63 64
f 38 64 65
f 38 65 39
f 39 65 66
f 39 66 67
f 39 67 40
f 40 67 68
f 40 68 41
f 41 68 69
f 42 61 70
f 42 70 71
f 42 71 44
f 42 44 43
f 44 71 70
f 44 70 46
f 45 48 49
f 46 70 47
f 47 72 48
f 47 70 72
f 48 72 73
f 48 73 74
f 48 74 75
f 48 75 49
f 49 76 77
f 49 77 62
f 49 75 78
f 49 78 79
f 49 79 80
f 49 80 76
f 50 81 82
f 50 82 83
f 50 83 51
f 51 83 52
f 52 83 85
f 52 85 82
f 52 82 84
f 57 86 87
f 57 87 88
f 57 88 89
f 57 89 58
f 58 90 59
f 58 89 90
f 59 90 91
f 61 92 72
f 61 72 70
f 62 77 63
f 63 93 94
f 63 94 64
f 63 77 76
f 63 76 93
f 64 94 95
f 64 95 66
f 64 66 65
f 66 95 96
f 66 96 97
f 66 97 67
f 67 98 99
f 67 99 100
f 67 100 101
f 67 101 68
f 67 97 98
f 68 101 102
f 68 102 69
f 69 102 103
f 72 92 104
f 72 104 105
f 72 105 74
f 72 74 73
f 74 106 107
f 74 107 75
f 75 107 78
f 76 80 93
f 78 107 108
f 78 108 79
f 79 108 109
f 79 109 93
f 79 93 80
f 81 103 110
f 81 110 111
f 81 111 82
f 82 112 113
f 82 113 84
f 82 85 83
f 82 111 110
f 82 110 112
f 84 113 114
f 86 115 116
f 86 116 88
f 86 88 87
f 88 116 89
f 89 116 90
f 90 117 118
f 90 118 91
f 90 116 119
f 90 119 117
f 91 118 120
f 93 109 121
f 93 121 94
f 94 121 122
f 94 122 95
f 95 122 96
f 96 122 123
f 96 123 97
f 97 123 98
f 98 123 124
f 98 124 125
f 98 125 126
f 98 126 99
f 99 126 127
f 99 127 100
f 100 127 128
f 100 128 101
f 101 128 102
f 102 110 103
f 102 128 129
f 102 129 110
f 106 130 107
f 107 130 108
f 108 130 109
f 109 130 131
f 109 131 122
f 109 122 121
f 110 129 112
f 112 129 132
f 112 132 117
f 112 117 119
f 112 119 133
f 112 133 113
f 113 133 115
f 113 115 114
f 115 133 116
f 116 133 119
f 117 134 118
f 117 132 135
f 117 135 136
f 117 136 137
f 117 137 138
f 117 138 134
f 118 134 138
f 118 138 120
f 120 138 139
f 122 140 141
f 122 141 142
f 122 142 123
f 122 131 143
f 122 143 140
f 125 144 126
f 126 144 145
f 126 145 146
f 126 146 138
f 126 138 147
f 126 147 127
f 127 147 137
f 127 137 128
f 128 137 136
f 128 136 135
f 128 135 132
f 128 132 129
f 137 147 138
f 138 146 139

