# https://github.com/mikedh/trimesh
v -0.02967037 -0.00072397 0.00777970
v -0.02966134 0.00057108 0.00777970
v -0.02946565 0.00057108 0.00737005
v -0.02947167 -0.00072397 0.00737005
v -0.02960112 -0.00201902 0.00777970
v -0.02963725 0.00115973 0.00777970
v -0.02958607 0.00186256 0.00777970
v -0.02891169 0.00057108 0.00631975
v -0.02891169 -0.00072397 0.00631975
v -0.02938135 -0.00201902 0.00737005
v -0.02946264 -0.00331406 0.00777970
v -0.02936931 0.00186256 0.00737005
v -0.02952887 0.00237273 0.00777970
v -0.02884244 0.00186256 0.00643692
v -0.02845106 0.00186256 0.00578962
v -0.02851730 0.00057108 0.00567246
v -0.02851429 -0.00072397 0.00567246
v -0.02884847 -0.00201902 0.00642944
v -0.02924286 -0.00331406 0.00737005
v -0.02866181 -0.00516923 0.00674187
v -0.02936328 -0.00405256 0.00777970
v -0.02943855 0.00315760 0.00777970
v -0.02921877 0.00315760 0.00737005
v -0.02876116 0.00315760 0.00657152
v -0.02836074 0.00447762 0.00617351
v -0.02837580 0.00315760 0.00592423
v -0.02758099 0.00560142 0.00510327
v -0.02765023 0.00445265 0.00500106
v -0.02773152 0.00315760 0.00489637
v -0.02772851 0.00182688 0.00467783
v -0.02792721 0.00057108 0.00478170
v -0.02792420 -0.00072397 0.00478170
v -0.02766529 -0.00460911 0.00499608
v -0.02845106 -0.00201902 0.00578214
v -0.02838483 -0.00331406 0.00590512
v -0.02877320 -0.00331406 0.00655241
v -0.02837881 -0.00468760 0.00616354
v -0.02817409 -0.00590059 0.00607629
v -0.02861063 -0.00590059 0.00684823
v -0.02892975 -0.00590059 0.00749552
v -0.02911340 -0.00560805 0.00777970
v -0.02903814 0.00560142 0.00777970
v -0.02891470 0.00560142 0.00750134
v -0.02860461 0.00560142 0.00686318
v -0.02864976 0.00492714 0.00676347
v -0.02816806 0.00560142 0.00608709
v -0.02716251 0.00560142 0.00445597
v -0.02723176 0.00445265 0.00435460
v -0.02730100 0.00315760 0.00424907
v -0.02739433 0.00137022 0.00411030
v -0.02699994 0.00057108 0.00340318
v -0.02699693 -0.00072397 0.00340734
v -0.02723176 -0.00460911 0.00434878
v -0.02716251 -0.00590059 0.00444932
v -0.02759002 -0.00590059 0.00509662
v -0.02749368 -0.00690309 0.00524287
v -0.02847515 -0.00719564 0.00711745
v -0.02905921 -0.00590059 0.00777970
v -0.02879126 -0.00719564 0.00776391
v -0.02180961 0.00560142 0.00777970
v -0.02609073 0.00514477 0.00283067
v -0.02663264 0.00445265 0.00348877
v -0.02641587 0.00560142 0.00338823
v -0.02677715 0.00315760 0.00348877
v -0.02700295 0.00182688 0.00360261
v -0.02628341 0.00186256 0.00256976
v -0.02635265 0.00057108 0.00247337
v -0.02634964 -0.00072397 0.00247337
v -0.02627739 -0.00201902 0.00256893
v -0.02603051 -0.00618957 0.00291459
v -0.02663565 -0.00460911 0.00348877
v -0.02609374 -0.00532620 0.00282652
v -0.02643695 -0.00581497 0.00340318
v -0.02636771 -0.00719564 0.00374719
v -0.02707219 -0.00727769 0.00479998
v -0.02735218 -0.00776646 0.00547054
v -0.02762916 -0.00849069 0.00631560
v -0.02780679 -0.00727769 0.00597159
v -0.02829752 -0.00841577 0.00746727
v -0.02854740 -0.00811252 0.00777970
v -0.02879729 -0.00719564 0.00777970
v -0.02878223 -0.00725272 0.00777970
v 0.00108626 0.00560142 0.00707424
v 0.00108626 -0.02377438 0.00777970
v -0.02499485 0.00445265 0.00129677
v -0.02564214 0.00445265 0.00212604
v -0.02613288 0.00445265 0.00277334
v -0.02639480 0.00560142 0.00335914
v -0.02565117 0.00560142 0.00236369
v -0.02560902 0.00560142 0.00230968
v -0.02620814 0.00315760 0.00267030
v -0.02571741 0.00315760 0.00202300
v -0.02586493 0.00057108 0.00182608
v -0.02586493 -0.00072397 0.00182690
v -0.02579568 -0.00201902 0.00192246
v -0.02565418 -0.00460911 0.00212189
v -0.02620513 -0.00331406 0.00266864
v -0.02562709 -0.00581497 0.00231466
v -0.02490454 -0.00590059 0.00140728
v -0.02482325 -0.00664622 0.00150783
v -0.02588901 -0.00719564 0.00310072
v -0.02613288 -0.00460911 0.00276918
v -0.02500690 -0.00460911 0.00128264
v -0.02472089 -0.01023169 0.00293869
v -0.02619911 -0.00816603 0.00397652
v -0.02636168 -0.00978573 0.00502682
v -0.02604256 -0.01160879 0.00549048
v -0.02652125 -0.01113786 0.00598406
v -0.02722875 -0.00849069 0.00566830
v -0.02732810 -0.01028163 0.00680502
v -0.02758400 -0.01107721 0.00767500
v -0.02776163 -0.00982498 0.00729028
v -0.02840891 -0.00856917 0.00777970
v -0.02767733 -0.01095235 0.00777970
v 0.00108626 0.00560142 0.00226481
v 0.00108626 -0.03083827 0.00777970
v -0.02490153 0.00560142 0.00141144
v -0.02484131 0.00560142 0.00133749
v -0.02445294 0.00445265 0.00065031
v -0.02514539 0.00186256 0.00111397
v -0.02521764 0.00057108 0.00102422
v -0.02522065 -0.00072397 0.00102256
v -0.02435961 -0.00590059 0.00075999
v -0.02446499 -0.00460911 0.00063535
v -0.02358889 -0.00681747 0.00017086
v -0.02413080 -0.00716353 0.00091371
v -0.02385684 -0.00849069 0.00112809
v -0.02363104 -0.00978573 0.00138817
v -0.02351061 -0.01047785 0.00152777
v -0.02467272 -0.00750959 0.00168731
v -0.02517248 -0.00712429 0.00214848
v -0.02501894 -0.00849069 0.00254483
v -0.02486841 -0.00936832 0.00273761
v -0.02604557 -0.00902940 0.00418924
v -0.02384781 -0.01097732 0.00216177
v -0.02457036 -0.01107721 0.00314975
v -0.02503098 -0.01107721 0.00379621
v -0.02487142 -0.01191560 0.00401807
v -0.02589202 -0.01237226 0.00570071
v -0.02632254 -0.01237226 0.00634717
v -0.02591009 -0.00978573 0.00437953
v -0.02719563 -0.01107721 0.00702771
v -0.02705112 -0.00982498 0.00611285
v -0.02763819 -0.01107721 0.00777970
v -0.02752078 -0.01142684 0.00777970
v 0.00108626 -0.02272193 -0.00070744
v -0.02025913 0.00560142 -0.00069082
v 0.00044500 -0.03084541 0.00777970
v 0.00108626 -0.03065276 0.00737005
v -0.02435660 0.00560142 0.00076414
v -0.02370932 0.00560142 0.00007114
v -0.02380867 0.00445265 -0.00000114
v -0.02466369 0.00057108 0.00037693
v -0.02466670 -0.00072397 0.00037527
v -0.02371233 -0.00590059 0.00006865
v -0.02381770 -0.00460911 -0.00000779
v -0.02342331 -0.00768083 0.00031876
v -0.02242378 -0.00978573 0.00007364
v -0.02227625 -0.01061342 0.00018498
v -0.02307106 -0.00978573 0.00074171
v -0.02335105 -0.01134122 0.00170891
v -0.02450412 -0.00849069 0.00189753
v -0.02370329 -0.01211182 0.00257142
v -0.02467272 -0.01277540 0.00428314
v -0.02520259 -0.01235799 0.00474181
v -0.02616599 -0.01317497 0.00659147
v -0.02731304 -0.01199052 0.00777970
v 0.00108626 -0.02336410 -0.00065010
v -0.00084958 -0.02272193 -0.00070910
v -0.02155370 0.00315760 -0.00070744
v -0.02155370 0.00445265 -0.00070577
v -0.02155370 0.00560142 -0.00068251
v -0.00084958 -0.03077405 0.00777970
v 0.00044500 -0.03065632 0.00737005
v 0.00108626 -0.03009264 0.00628070
v -0.02284827 0.00560142 -0.00038254
v -0.02284827 0.00445265 -0.00047727
v -0.02401640 0.00057108 -0.00009670
v -0.02401941 -0.00072397 -0.00009753
v -0.02284827 -0.00590059 -0.00038587
v -0.02263753 -0.00849069 -0.00004768
v -0.02284827 -0.00460911 -0.00048475
v -0.02155370 -0.00978573 -0.00037672
v -0.02160488 -0.01105937 -0.00007344
v -0.02116533 -0.01237226 0.00007946
v -0.02207153 -0.01147679 0.00037444
v -0.02243883 -0.01237226 0.00129345
v -0.02315235 -0.01247572 0.00216177
v -0.02346846 -0.01297162 0.00287471
v -0.02500690 -0.01337833 0.00514648
v -0.02546451 -0.01370655 0.00603973
v -0.02592514 -0.01403834 0.00698782
v -0.02620212 -0.01435229 0.00777970
v -0.02636168 -0.01362806 0.00739913
v -0.02655436 -0.01363163 0.00777970
v -0.02673500 -0.01324276 0.00777970
v 0.00108626 -0.02401698 -0.00059111
v 0.00044500 -0.02401698 -0.00059194
v -0.00343872 -0.02272193 -0.00070661
v -0.00731943 -0.02142689 -0.00070744
v -0.00990857 -0.02013541 -0.00070827
v -0.01896456 -0.01107721 -0.00070827
v -0.02155370 -0.00201902 -0.00070827
v -0.02155370 0.00186256 -0.00070827
v -0.02284827 0.00057108 -0.00057698
v -0.02284827 0.00315760 -0.00051300
v -0.00214415 -0.03068130 0.00777970
v -0.00084958 -0.03057070 0.00737005
v 0.00044500 -0.03009264 0.00627738
v 0.00044500 -0.02972160 0.00563008
v 0.00108626 -0.02972160 0.00563424
v -0.02284827 -0.00072397 -0.00057781
v -0.02284827 -0.00331406 -0.00051632
v -0.02155370 -0.00849069 -0.00052546
v -0.02155370 -0.00590059 -0.00068417
v -0.02155370 -0.00719564 -0.00061687
v -0.02025913 -0.01107721 -0.00058363
v -0.02025913 -0.01237226 -0.00034764
v -0.02025311 -0.01357812 -0.00001028
v -0.01981958 -0.01464127 0.00010355
v -0.02095158 -0.01308935 0.00021573
v -0.02181262 -0.01237226 0.00064615
v -0.02145435 -0.01350676 0.00100262
v -0.02222808 -0.01306081 0.00151863
v -0.02196014 -0.01392418 0.00181693
v -0.02254119 -0.01356028 0.00222658
v -0.02233647 -0.01452354 0.00268027
v -0.02093652 -0.01694238 0.00280574
v -0.02214981 -0.01681752 0.00419755
v -0.02362201 -0.01580431 0.00527112
v -0.02474497 -0.01423812 0.00548716
v -0.02506109 -0.01473759 0.00634967
v -0.02478712 -0.01560096 0.00672691
v -0.02501593 -0.01625026 0.00768248
v -0.02572343 -0.01520138 0.00777970
v -0.02608772 -0.01455921 0.00777970
v 0.00108626 -0.02522640 -0.00011083
v -0.00084958 -0.02401698 -0.00056119
v -0.00473329 -0.02272193 -0.00068915
v 0.00044500 -0.02522640 -0.00011166
v -0.00861400 -0.02142689 -0.00068168
v -0.01249772 -0.01884036 -0.00069747
v -0.01379229 -0.01754531 -0.00070744
v -0.01637541 -0.01495879 -0.00070744
v -0.01766998 -0.01366374 -0.00069664
v -0.02025913 -0.00978573 -0.00067918
v -0.02025913 -0.00849069 -0.00070661
v -0.02155370 -0.00460911 -0.00070661
v -0.00289681 -0.03060281 0.00777970
v -0.00343872 -0.03033167 0.00737005
v -0.00214415 -0.03046367 0.00737005
v -0.00084958 -0.03003913 0.00638540
v -0.00084958 -0.02965739 0.00573810
v 0.00044500 -0.02918647 0.00478170
v 0.00108626 -0.02918647 0.00478170
v -0.01896456 -0.01237226 -0.00065509
v -0.01766998 -0.01495879 -0.00061105
v -0.01896456 -0.01366374 -0.00051466
v -0.01904885 -0.01502657 -0.00014573
v -0.01858823 -0.01625026 0.00009109
v -0.01953658 -0.01550463 0.00031876
v -0.02068062 -0.01394915 0.00048661
v -0.02032235 -0.01505868 0.00083394
v -0.02109609 -0.01461273 0.00134995
v -0.02082814 -0.01547609 0.00163413
v -0.02056923 -0.01625026 0.00190917
v -0.01967507 -0.01697093 0.00148539
v -0.02099372 -0.01828738 0.00403885
v -0.02221002 -0.01820532 0.00541404
v -0.02190595 -0.01754531 0.00449420
v -0.02242378 -0.01754531 0.00514066
v -0.02334804 -0.01666767 0.00563756
v -0.02308310 -0.01756315 0.00607213
v -0.02364910 -0.01714217 0.00650090
v -0.02494970 -0.01645362 0.00777970
v -0.02516947 -0.01610042 0.00777970
v 0.00108626 -0.02587214 0.00033621
v -0.00214415 -0.02401698 -0.00052962
v -0.00343872 -0.02401698 -0.00049721
v -0.00602486 -0.02272193 -0.00062684
v 0.00044500 -0.02587214 0.00033538
v -0.00343872 -0.02500878 -0.00001943
v -0.00990857 -0.02142689 -0.00058944
v -0.01120314 -0.02013541 -0.00065758
v -0.01379229 -0.01884036 -0.00061437
v -0.01508385 -0.01754531 -0.00062268
v -0.01637541 -0.01625026 -0.00062185
v -0.00343872 -0.03054573 0.00777970
v -0.00214415 -0.02997134 0.00650256
v -0.00509156 -0.02980723 0.00679588
v -0.00423052 -0.02985718 0.00669367
v -0.00343872 -0.02989999 0.00661972
v -0.00214415 -0.02958247 0.00585526
v -0.00473329 -0.02877976 0.00508748
v 0.00044500 -0.02865846 0.00397819
v 0.00108626 -0.02865846 0.00397569
v -0.01766998 -0.01625026 -0.00030527
v -0.01754655 -0.01742044 0.00011934
v -0.01832329 -0.01690671 0.00024814
v -0.01923552 -0.01625026 0.00057968
v -0.01992194 -0.01625026 0.00122697
v -0.01878994 -0.01737050 0.00105331
v -0.01839254 -0.01826597 0.00148373
v -0.01925358 -0.01783429 0.00188009
v -0.01971119 -0.01829451 0.00274259
v -0.02014171 -0.01872263 0.00360759
v -0.01970517 -0.01957885 0.00403885
v -0.02056923 -0.01915074 0.00450583
v -0.02095760 -0.01953961 0.00536834
v -0.02140618 -0.01867981 0.00495952
v -0.02337514 -0.01800197 0.00692717
v -0.02189691 -0.01915431 0.00607629
v -0.02217389 -0.01945756 0.00676098
v -0.02244184 -0.01850500 0.00607629
v -0.02450111 -0.01713860 0.00777970
v 0.00108626 -0.02642156 0.00098351
v 0.00044500 -0.02642156 0.00098185
v -0.00473329 -0.02401698 -0.00040830
v -0.00731943 -0.02272193 -0.00053460
v -0.00084958 -0.02635020 0.00106826
v -0.00343872 -0.02565808 0.00060294
v -0.00473329 -0.02490532 0.00005120
v -0.01120314 -0.02142689 -0.00035845
v -0.01249772 -0.02013541 -0.00052048
v -0.00861400 -0.02272193 -0.00039002
v -0.01508385 -0.01884036 -0.00031025
v -0.00417031 -0.03044227 0.00777970
v -0.00602486 -0.02970020 0.00700195
v -0.00614528 -0.02902949 0.00595165
v -0.00579304 -0.02867630 0.00523788
v -0.00468813 -0.02948971 0.00618764
v -0.00468813 -0.03035308 0.00777970
v -0.00586830 -0.03011048 0.00777970
v -0.00602486 -0.03001415 0.00764924
v -0.00343872 -0.02950398 0.00597242
v -0.00513973 -0.02721714 0.00289382
v -0.00473329 -0.02833737 0.00444018
v -0.00427869 -0.02728136 0.00280076
v -0.00343872 -0.02733130 0.00272847
v 0.00044500 -0.02820180 0.00333172
v 0.00108626 -0.02820180 0.00333006
v -0.01625499 -0.01871549 0.00011685
v -0.01574017 -0.01950037 0.00024481
v -0.01620682 -0.01996416 0.00104915
v -0.01710097 -0.01956459 0.00148124
v -0.01883811 -0.01871192 0.00230968
v -0.01667045 -0.02042795 0.00187427
v -0.01842264 -0.01958956 0.00274010
v -0.01928368 -0.01915788 0.00317717
v -0.01713108 -0.02088461 0.00273761
v -0.01754655 -0.02130915 0.00361673
v -0.01840458 -0.02086677 0.00404466
v -0.01882306 -0.02128775 0.00493210
v -0.01967507 -0.02084536 0.00535920
v -0.01832329 -0.02337481 0.00671528
v -0.01997011 -0.02114861 0.00607629
v -0.02061740 -0.02048503 0.00607629
v -0.02124963 -0.01983572 0.00607629
v -0.02290548 -0.01891528 0.00727533
v -0.02361297 -0.01838727 0.00777970
v -0.02042170 -0.02159456 0.00716980
v -0.02066858 -0.02183716 0.00777970
v -0.02107802 -0.02139121 0.00777970
v -0.02243883 -0.01976081 0.00762432
v 0.00108626 -0.02706730 0.00178369
v 0.00044500 -0.02706730 0.00178369
v -0.00608808 -0.02411687 -0.00012412
v -0.00084958 -0.02699951 0.00187842
v -0.00214415 -0.02627528 0.00115883
v -0.00473329 -0.02555462 0.00072758
v -0.00343872 -0.02620036 0.00125024
v -0.00473329 -0.02610047 0.00137405
v -0.00569670 -0.02477688 0.00015507
v -0.01241944 -0.02142689 -0.00001859
v -0.01386454 -0.02022103 -0.00014988
v -0.00990255 -0.02278258 -0.00008341
v -0.01120314 -0.02235090 0.00007032
v -0.00731943 -0.02382789 -0.00005599
v -0.00861400 -0.02360670 0.00006367
v -0.01508385 -0.01976794 0.00008694
v -0.00757533 -0.02966809 0.00777970
v -0.00734351 -0.02953253 0.00742074
v -0.00731943 -0.02884397 0.00626159
v -0.00652161 -0.02995350 0.00777970
v -0.00665709 -0.02854073 0.00543730
v -0.00602486 -0.02754179 0.00372226
v -0.00602486 -0.03007480 0.00777970
v -0.00602486 -0.02708513 0.00307580
v -0.00598873 -0.02637518 0.00213601
v -0.00553111 -0.02601128 0.00148456
v -0.00471824 -0.02682826 0.00229971
v -0.00343872 -0.02684967 0.00208200
v -0.00214415 -0.02740622 0.00262626
v -0.00214415 -0.02692459 0.00197896
v -0.00084958 -0.02748114 0.00252572
v 0.00044500 -0.02755606 0.00243016
v 0.00108626 -0.02787715 0.00287388
v -0.01434323 -0.02070979 0.00031378
v -0.01508385 -0.02041368 0.00057137
v -0.01580640 -0.02084893 0.00147958
v -0.01663734 -0.02174797 0.00318963
v -0.01710399 -0.02214754 0.00405214
v -0.01796503 -0.02173013 0.00450417
v -0.01837748 -0.02213328 0.00536667
v -0.01703775 -0.02337837 0.00541653
v -0.01754956 -0.02357816 0.00620093
v -0.01686314 -0.02456283 0.00688562
v -0.01724549 -0.02483396 0.00774812
v -0.01729366 -0.02481613 0.00777970
v -0.01787471 -0.02436304 0.00777970
v -0.01836243 -0.02398130 0.00777970
v -0.01856113 -0.02357459 0.00737005
v -0.01903380 -0.02341762 0.00777970
v -0.01940712 -0.02306443 0.00777970
v -0.01981055 -0.02267912 0.00777970
v -0.02024107 -0.02226527 0.00777970
v -0.02308310 -0.01906155 0.00777970
v -0.02234851 -0.01996773 0.00777970
v -0.02261344 -0.01965378 0.00777970
v 0.00108626 -0.02730989 0.00210361
v -0.00604593 -0.02531916 0.00089211
v -0.00656075 -0.02461277 0.00029882
v -0.00946902 -0.02345686 0.00017584
v -0.01348219 -0.02099521 0.00009940
v -0.01033307 -0.02325351 0.00036114
v -0.01193774 -0.02212971 0.00020742
v -0.00814434 -0.02947187 0.00777970
v -0.00868023 -0.02898668 0.00727865
v -0.00829186 -0.02866559 0.00653081
v -0.00868023 -0.02824818 0.00609042
v -0.01046855 -0.02722070 0.00548051
v -0.00960450 -0.02737768 0.00524370
v -0.00731943 -0.02842656 0.00561429
v -0.00861400 -0.02755606 0.00499442
v -0.00861400 -0.02710297 0.00434712
v -0.00740373 -0.02774871 0.00467451
v -0.00702740 -0.02737411 0.00396406
v -0.00789145 -0.02722784 0.00417179
v -0.00740373 -0.02692459 0.00351536
v -0.00990857 -0.02623247 0.00375882
v -0.00864712 -0.02641442 0.00340567
v -0.00823466 -0.02605409 0.00271850
v -0.00731943 -0.02621464 0.00251409
v -0.00639516 -0.02586144 0.00166487
v -0.00934257 -0.02469126 0.00151447
v 0.00108626 -0.02755606 0.00243099
v -0.01279878 -0.02185857 0.00047913
v -0.01390067 -0.02149824 0.00082813
v -0.01431614 -0.02200127 0.00162748
v -0.01508385 -0.02109867 0.00121866
v -0.01508385 -0.02174797 0.00190169
v -0.01577329 -0.02210830 0.00280242
v -0.01637541 -0.02359600 0.00515146
v -0.01464731 -0.02479829 0.00526115
v -0.01551136 -0.02452358 0.00562094
v -0.01640853 -0.02426671 0.00606133
v -0.01599908 -0.02483040 0.00648345
v -0.01530363 -0.02569376 0.00711412
v -0.01596898 -0.02572230 0.00777970
v -0.01722742 -0.02486607 0.00777970
v -0.01868758 -0.02371016 0.00777970
v -0.00861400 -0.02425601 0.00071844
v -0.00983632 -0.02399557 0.00093781
v -0.01020361 -0.02453072 0.00169728
v -0.01120314 -0.02362454 0.00127350
v -0.01120314 -0.02300021 0.00062704
v -0.00865013 -0.02928279 0.00777970
v -0.00973998 -0.02886538 0.00777970
v -0.00990857 -0.02874765 0.00768663
v -0.01120314 -0.02748471 0.00634551
v -0.00998685 -0.02770590 0.00597741
v -0.01120314 -0.02707800 0.00569905
v -0.01122723 -0.02640372 0.00471689
v -0.01081176 -0.02606836 0.00398733
v -0.00998685 -0.02693530 0.00479998
v -0.00990857 -0.02575798 0.00311236
v -0.00909871 -0.02590068 0.00291958
v -0.00982729 -0.02503732 0.00215512
v -0.00731943 -0.02569733 0.00186679
v -0.01191365 -0.02341048 0.00150617
v -0.01345811 -0.02227241 0.00134164
v -0.01277470 -0.02313578 0.00180696
v -0.01384648 -0.02275761 0.00214848
v -0.01508385 -0.02232593 0.00254898
v -0.01337381 -0.02351394 0.00266947
v -0.01182635 -0.02465202 0.00285809
v -0.01249772 -0.02497310 0.00376630
v -0.01260008 -0.02566879 0.00471689
v -0.01309984 -0.02592922 0.00546805
v -0.01379229 -0.02571517 0.00577882
v -0.01443958 -0.02596133 0.00671860
v -0.01544814 -0.02604696 0.00777970
v -0.01096530 -0.02488391 0.00255979
v -0.01131755 -0.02434163 0.00215512
v -0.01080875 -0.02843013 0.00777970
v -0.01199494 -0.02732416 0.00659978
v -0.01167581 -0.02587214 0.00424159
v -0.01240439 -0.02373157 0.00222077
v -0.01223880 -0.02618966 0.00510410
v -0.01254589 -0.02663918 0.00603391
v -0.01379229 -0.02616112 0.00642611
v -0.01285598 -0.02708870 0.00700694
v -0.01337983 -0.02722784 0.00777970
v -0.01126938 -0.02823034 0.00777970
v -0.01207623 -0.02787001 0.00777970
v -0.01245557 -0.02751325 0.00741077
v -0.01312393 -0.02736698 0.00777970
v -0.01244955 -0.02769520 0.00777970
f 1 2 3
f 1 3 4
f 1 4 5
f 1 5 11
f 1 11 21
f 1 21 41
f 1 41 58
f 1 58 81
f 1 81 82
f 1 82 80
f 1 80 113
f 1 113 114
f 1 114 144
f 1 144 145
f 1 145 167
f 1 167 196
f 1 196 195
f 1 195 193
f 1 193 236
f 1 236 235
f 1 235 276
f 1 276 275
f 1 275 315
f 1 315 360
f 1 360 417
f 1 417 419
f 1 419 418
f 1 418 363
f 1 363 362
f 1 362 416
f 1 416 415
f 1 415 414
f 1 414 413
f 1 413 461
f 1 461 411
f 1 411 410
f 1 410 409
f 1 409 460
f 1 460 459
f 1 459 492
f 1 492 503
f 1 503 507
f 1 507 508
f 1 508 505
f 1 505 504
f 1 504 495
f 1 495 468
f 1 468 467
f 1 467 427
f 1 427 381
f 1 381 384
f 1 384 387
f 1 387 333
f 1 333 332
f 1 332 327
f 1 327 288
f 1 288 249
f 1 249 207
f 1 207 173
f 1 173 148
f 1 148 116
f 1 116 84
f 1 84 60
f 1 60 42
f 1 42 22
f 1 22 13
f 1 13 7
f 1 7 6
f 1 6 2
f 2 6 3
f 3 6 7
f 3 7 8
f 3 8 4
f 4 8 9
f 4 9 5
f 5 10 19
f 5 19 11
f 5 9 10
f 7 12 8
f 7 13 12
f 8 12 14
f 8 14 15
f 8 15 16
f 8 16 9
f 9 16 17
f 9 17 34
f 9 34 18
f 9 18 10
f 10 18 19
f 11 19 20
f 11 20 21
f 12 13 22
f 12 22 23
f 12 23 14
f 14 23 24
f 14 24 25
f 14 25 26
f 14 26 15
f 15 26 27
f 15 27 28
f 15 28 29
f 15 29 16
f 16 29 30
f 16 30 31
f 16 31 32
f 16 32 17
f 17 32 33
f 17 33 34
f 18 34 35
f 18 35 36
f 18 36 19
f 19 36 20
f 20 36 37
f 20 37 38
f 20 38 39
f 20 39 21
f 21 39 40
f 21 40 41
f 22 42 43
f 22 43 44
f 22 44 45
f 22 45 23
f 23 45 24
f 24 45 46
f 24 46 25
f 25 46 27
f 25 27 26
f 27 46 44
f 27 44 43
f 27 43 42
f 27 42 60
f 27 60 83
f 27 83 115
f 27 115 147
f 27 147 172
f 27 172 176
f 27 176 151
f 27 151 150
f 27 150 118
f 27 118 117
f 27 117 90
f 27 90 89
f 27 89 88
f 27 88 63
f 27 63 47
f 27 47 28
f 28 47 48
f 28 48 29
f 29 49 30
f 29 48 49
f 30 49 50
f 30 50 31
f 31 50 51
f 31 51 32
f 32 51 52
f 32 52 53
f 32 53 33
f 33 53 54
f 33 54 55
f 33 55 34
f 34 55 35
f 35 37 36
f 35 55 37
f 37 55 38
f 38 55 56
f 38 56 39
f 39 56 57
f 39 57 40
f 40 58 41
f 40 57 59
f 40 59 58
f 44 46 45
f 47 61 62
f 47 62 48
f 47 63 61
f 48 62 64
f 48 64 65
f 48 65 49
f 49 65 51
f 49 51 50
f 51 65 66
f 51 66 67
f 51 67 68
f 51 68 52
f 52 68 69
f 52 69 53
f 53 69 54
f 54 70 56
f 54 56 55
f 54 69 71
f 54 71 72
f 54 72 73
f 54 73 70
f 56 70 74
f 56 74 75
f 56 75 76
f 56 76 77
f 56 77 78
f 56 78 57
f 57 78 77
f 57 77 79
f 57 79 80
f 57 80 59
f 58 59 81
f 59 80 82
f 59 82 81
f 60 84 83
f 61 85 86
f 61 86 87
f 61 87 62
f 61 63 88
f 61 88 89
f 61 89 90
f 61 90 85
f 62 87 91
f 62 91 66
f 62 66 64
f 64 66 65
f 66 91 92
f 66 92 93
f 66 93 67
f 67 93 94
f 67 94 68
f 68 94 95
f 68 95 69
f 69 95 96
f 69 96 97
f 69 97 71
f 70 73 72
f 70 72 98
f 70 98 99
f 70 99 100
f 70 100 101
f 70 101 74
f 71 97 102
f 71 102 72
f 72 102 96
f 72 96 103
f 72 103 98
f 74 101 104
f 74 104 105
f 74 105 75
f 75 105 106
f 75 106 76
f 76 106 107
f 76 107 108
f 76 108 109
f 76 109 110
f 76 110 77
f 77 110 111
f 77 111 112
f 77 112 79
f 79 113 80
f 79 112 111
f 79 111 114
f 79 114 113
f 83 84 116
f 83 116 149
f 83 149 175
f 83 175 211
f 83 211 255
f 83 255 296
f 83 296 341
f 83 341 397
f 83 397 446
f 83 446 420
f 83 420 365
f 83 365 316
f 83 316 277
f 83 277 237
f 83 237 197
f 83 197 168
f 83 168 146
f 83 146 115
f 85 90 117
f 85 117 118
f 85 118 119
f 85 119 120
f 85 120 93
f 85 93 92
f 85 92 86
f 86 92 91
f 86 91 87
f 93 120 121
f 93 121 122
f 93 122 94
f 94 122 103
f 94 103 95
f 95 103 96
f 96 102 97
f 98 103 99
f 99 123 100
f 99 103 124
f 99 124 123
f 100 125 126
f 100 126 127
f 100 127 128
f 100 128 129
f 100 129 130
f 100 130 131
f 100 131 101
f 100 123 125
f 101 131 132
f 101 132 133
f 101 133 104
f 103 122 124
f 104 134 105
f 104 133 135
f 104 135 136
f 104 136 134
f 105 134 106
f 106 134 107
f 107 137 136
f 107 136 138
f 107 138 139
f 107 139 140
f 107 140 108
f 107 134 141
f 107 141 137
f 108 140 142
f 108 142 143
f 108 143 109
f 109 143 110
f 110 143 142
f 110 142 111
f 111 144 114
f 111 142 140
f 111 140 145
f 111 145 144
f 115 146 147
f 116 148 149
f 118 150 119
f 119 150 151
f 119 151 152
f 119 152 153
f 119 153 121
f 119 121 120
f 121 153 154
f 121 154 122
f 122 154 124
f 123 124 155
f 123 155 125
f 124 156 155
f 124 154 156
f 125 157 126
f 125 155 158
f 125 158 159
f 125 159 157
f 126 157 160
f 126 160 127
f 127 160 128
f 128 160 129
f 129 159 161
f 129 161 135
f 129 135 162
f 129 162 130
f 129 160 159
f 130 162 131
f 131 162 132
f 132 162 133
f 133 162 135
f 134 136 141
f 135 161 136
f 136 161 163
f 136 163 138
f 136 137 141
f 138 163 164
f 138 164 165
f 138 165 139
f 139 166 140
f 139 165 166
f 140 166 167
f 140 167 145
f 146 168 169
f 146 169 170
f 146 170 171
f 146 171 147
f 147 171 172
f 148 173 174
f 148 174 149
f 149 174 175
f 151 176 152
f 152 176 177
f 152 177 178
f 152 178 153
f 153 178 154
f 154 178 179
f 154 179 156
f 155 156 180
f 155 180 181
f 155 181 158
f 156 182 180
f 156 179 182
f 157 159 160
f 158 181 183
f 158 183 184
f 158 184 159
f 159 184 185
f 159 185 186
f 159 186 161
f 161 186 187
f 161 187 188
f 161 188 163
f 163 188 189
f 163 189 164
f 164 189 190
f 164 190 166
f 164 166 165
f 166 190 191
f 166 191 192
f 166 192 193
f 166 193 194
f 166 194 195
f 166 195 196
f 166 196 167
f 168 197 198
f 168 198 169
f 169 198 199
f 169 199 200
f 169 200 201
f 169 201 202
f 169 202 203
f 169 203 204
f 169 204 170
f 170 204 212
f 170 212 205
f 170 205 171
f 171 205 172
f 172 205 206
f 172 206 177
f 172 177 176
f 173 207 208
f 173 208 174
f 174 208 209
f 174 209 175
f 175 209 210
f 175 210 211
f 177 206 178
f 178 206 205
f 178 205 179
f 179 205 212
f 179 212 213
f 179 213 182
f 180 214 183
f 180 183 181
f 180 182 214
f 182 213 215
f 182 215 216
f 182 216 214
f 183 214 217
f 183 217 218
f 183 218 184
f 184 218 185
f 185 218 219
f 185 219 220
f 185 220 221
f 185 221 186
f 186 221 222
f 186 222 187
f 187 222 223
f 187 223 224
f 187 224 188
f 188 224 225
f 188 225 189
f 189 225 226
f 189 226 227
f 189 227 228
f 189 228 229
f 189 229 230
f 189 230 190
f 190 231 191
f 190 230 231
f 191 231 232
f 191 232 192
f 192 232 233
f 192 233 234
f 192 234 235
f 192 235 236
f 192 236 193
f 193 195 194
f 197 237 240
f 197 240 198
f 198 238 239
f 198 239 199
f 198 240 238
f 199 239 200
f 200 241 201
f 200 239 241
f 201 241 242
f 201 242 243
f 201 243 202
f 202 243 244
f 202 244 245
f 202 245 246
f 202 246 247
f 202 247 248
f 202 248 203
f 203 248 212
f 203 212 204
f 207 249 250
f 207 250 251
f 207 251 208
f 208 251 209
f 209 251 252
f 209 252 210
f 210 253 254
f 210 254 255
f 210 255 211
f 210 252 253
f 212 248 215
f 212 215 213
f 214 246 217
f 214 216 246
f 215 248 247
f 215 247 246
f 215 246 216
f 217 256 257
f 217 257 258
f 217 258 218
f 217 246 256
f 218 258 259
f 218 259 219
f 219 259 220
f 220 259 260
f 220 260 261
f 220 261 221
f 221 261 262
f 221 262 223
f 221 223 222
f 223 262 263
f 223 263 264
f 223 264 224
f 224 264 265
f 224 265 225
f 225 227 226
f 225 265 228
f 225 228 227
f 228 265 266
f 228 266 267
f 228 267 268
f 228 268 269
f 228 269 270
f 228 270 229
f 229 270 269
f 229 269 271
f 229 271 230
f 230 271 269
f 230 269 272
f 230 272 232
f 230 232 231
f 232 272 233
f 233 272 273
f 233 273 274
f 233 274 234
f 234 274 275
f 234 275 276
f 234 276 235
f 237 277 281
f 237 281 240
f 238 278 239
f 238 240 278
f 239 278 279
f 239 279 280
f 239 280 241
f 240 281 282
f 240 282 279
f 240 279 278
f 241 283 284
f 241 284 242
f 241 280 319
f 241 319 283
f 242 285 243
f 242 284 285
f 243 285 286
f 243 286 244
f 244 286 287
f 244 287 257
f 244 257 245
f 245 256 246
f 245 257 256
f 249 288 250
f 250 289 252
f 250 252 251
f 250 288 290
f 250 290 291
f 250 291 292
f 250 292 289
f 252 289 253
f 253 293 254
f 253 289 292
f 253 292 291
f 253 291 293
f 254 293 294
f 254 294 295
f 254 295 296
f 254 296 255
f 257 287 297
f 257 297 258
f 258 297 259
f 259 297 260
f 260 297 298
f 260 298 299
f 260 299 261
f 261 299 300
f 261 300 267
f 261 267 301
f 261 301 265
f 261 265 263
f 261 263 262
f 263 265 264
f 265 301 266
f 266 301 267
f 267 300 299
f 267 299 302
f 267 302 303
f 267 303 304
f 267 304 305
f 267 305 268
f 268 305 306
f 268 306 307
f 268 307 308
f 268 308 309
f 268 309 310
f 268 310 269
f 269 311 273
f 269 273 272
f 269 310 312
f 269 312 313
f 269 313 314
f 269 314 311
f 273 311 274
f 274 311 275
f 275 311 315
f 277 316 317
f 277 317 281
f 279 318 280
f 279 282 318
f 280 318 319
f 281 317 320
f 281 320 321
f 281 321 282
f 282 321 322
f 282 322 318
f 283 323 324
f 283 324 285
f 283 285 284
f 283 319 325
f 283 325 323
f 285 326 286
f 285 324 326
f 286 326 287
f 287 326 297
f 288 327 290
f 290 328 329
f 290 329 330
f 290 330 294
f 290 294 331
f 290 331 291
f 290 327 332
f 290 332 333
f 290 333 334
f 290 334 328
f 291 331 335
f 291 335 293
f 293 335 294
f 294 330 336
f 294 336 337
f 294 337 338
f 294 338 295
f 294 335 331
f 295 338 339
f 295 339 340
f 295 340 296
f 296 340 341
f 297 326 342
f 297 342 298
f 298 342 343
f 298 343 299
f 299 343 344
f 299 344 302
f 302 344 345
f 302 345 303
f 303 345 304
f 304 346 305
f 304 345 347
f 304 347 346
f 305 346 348
f 305 348 306
f 306 348 349
f 306 349 350
f 306 350 307
f 307 350 351
f 307 351 352
f 307 352 353
f 307 353 354
f 307 354 308
f 308 354 309
f 309 313 312
f 309 312 310
f 309 354 355
f 309 355 356
f 309 356 357
f 309 357 358
f 309 358 313
f 311 314 313
f 311 313 359
f 311 359 360
f 311 360 315
f 313 358 355
f 313 355 361
f 313 361 362
f 313 362 363
f 313 363 364
f 313 364 359
f 316 365 317
f 317 365 366
f 317 366 320
f 318 322 367
f 318 367 325
f 318 325 319
f 320 366 368
f 320 368 369
f 320 369 321
f 321 370 322
f 321 369 371
f 321 371 372
f 321 372 370
f 322 370 373
f 322 373 367
f 323 374 375
f 323 375 324
f 323 325 376
f 323 376 377
f 323 377 374
f 324 375 326
f 325 367 378
f 325 378 379
f 325 379 376
f 326 375 380
f 326 380 342
f 328 381 382
f 328 382 383
f 328 383 329
f 328 334 384
f 328 384 381
f 329 383 385
f 329 385 330
f 330 385 386
f 330 386 336
f 333 387 334
f 334 387 384
f 336 388 389
f 336 389 390
f 336 390 372
f 336 372 391
f 336 391 338
f 336 338 337
f 336 386 388
f 338 391 392
f 338 392 339
f 339 393 340
f 339 392 394
f 339 394 393
f 340 393 395
f 340 395 396
f 340 396 397
f 340 397 341
f 342 380 343
f 343 380 398
f 343 398 399
f 343 399 400
f 343 400 344
f 344 400 345
f 345 400 347
f 346 347 348
f 347 400 350
f 347 350 348
f 348 350 349
f 350 400 401
f 350 401 402
f 350 402 351
f 351 403 353
f 351 353 352
f 351 402 403
f 353 403 404
f 353 404 354
f 354 404 355
f 355 358 357
f 355 357 356
f 355 404 402
f 355 402 405
f 355 405 406
f 355 406 407
f 355 407 408
f 355 408 409
f 355 409 410
f 355 410 411
f 355 411 412
f 355 412 413
f 355 413 414
f 355 414 415
f 355 415 416
f 355 416 362
f 355 362 361
f 359 364 417
f 359 417 360
f 363 418 364
f 364 418 419
f 364 419 417
f 365 420 366
f 366 420 396
f 366 396 368
f 367 373 378
f 368 394 371
f 368 371 369
f 368 396 395
f 368 395 393
f 368 393 394
f 370 372 390
f 370 390 373
f 371 394 392
f 371 392 391
f 371 391 372
f 373 390 421
f 373 421 422
f 373 422 423
f 373 423 379
f 373 379 378
f 374 424 375
f 374 377 424
f 375 424 380
f 376 379 423
f 376 423 377
f 377 423 425
f 377 425 426
f 377 426 424
f 380 424 398
f 381 427 428
f 381 428 382
f 382 428 383
f 383 429 430
f 383 430 431
f 383 431 432
f 383 432 433
f 383 433 385
f 383 428 429
f 385 433 432
f 385 432 434
f 385 434 435
f 385 435 436
f 385 436 437
f 385 437 388
f 385 388 386
f 388 437 438
f 388 438 439
f 388 439 440
f 388 440 441
f 388 441 442
f 388 442 443
f 388 443 389
f 389 443 444
f 389 444 390
f 390 444 445
f 390 445 421
f 396 420 446
f 396 446 397
f 398 424 426
f 398 426 447
f 398 447 448
f 398 448 449
f 398 449 450
f 398 450 400
f 398 400 399
f 400 450 451
f 400 451 452
f 400 452 401
f 401 452 402
f 402 404 403
f 402 452 405
f 405 452 453
f 405 453 454
f 405 454 455
f 405 455 456
f 405 456 407
f 405 407 406
f 407 456 457
f 407 457 458
f 407 458 459
f 407 459 460
f 407 460 408
f 408 460 409
f 411 461 412
f 412 461 413
f 421 445 462
f 421 462 422
f 422 462 423
f 423 462 445
f 423 445 463
f 423 463 425
f 425 463 464
f 425 464 465
f 425 465 466
f 425 466 426
f 426 466 447
f 427 467 428
f 428 467 468
f 428 468 469
f 428 469 470
f 428 470 471
f 428 471 429
f 429 471 431
f 429 431 430
f 431 472 473
f 431 473 474
f 431 474 475
f 431 475 432
f 431 471 470
f 431 470 472
f 432 475 434
f 434 475 435
f 435 475 440
f 435 440 438
f 435 438 436
f 436 438 437
f 438 440 439
f 440 474 476
f 440 476 477
f 440 477 441
f 440 475 474
f 441 477 442
f 442 477 478
f 442 478 479
f 442 479 443
f 443 479 444
f 444 479 445
f 445 464 463
f 445 479 478
f 445 478 464
f 447 466 480
f 447 480 448
f 448 480 481
f 448 481 449
f 449 481 480
f 449 480 482
f 449 482 483
f 449 483 484
f 449 484 452
f 449 452 451
f 449 451 450
f 452 484 485
f 452 485 486
f 452 486 487
f 452 487 454
f 452 454 453
f 454 487 488
f 454 488 489
f 454 489 455
f 455 489 457
f 455 457 456
f 457 489 490
f 457 490 491
f 457 491 458
f 458 491 492
f 458 492 459
f 464 478 476
f 464 476 474
f 464 474 493
f 464 493 494
f 464 494 465
f 465 480 466
f 465 494 480
f 468 495 469
f 469 495 496
f 469 496 470
f 470 496 472
f 472 496 473
f 473 497 474
f 473 496 497
f 474 497 493
f 476 478 477
f 480 494 486
f 480 486 498
f 480 498 482
f 482 498 485
f 482 485 483
f 483 485 484
f 485 498 486
f 486 494 493
f 486 493 497
f 486 497 487
f 487 497 488
f 488 497 499
f 488 499 489
f 489 499 500
f 489 500 501
f 489 501 490
f 490 501 491
f 491 501 492
f 492 501 502
f 492 502 503
f 495 504 496
f 496 504 505
f 496 505 506
f 496 506 507
f 496 507 502
f 496 502 500
f 496 500 499
f 496 499 497
f 500 502 501
f 502 507 503
f 505 508 506
f 506 508 507

