# https://github.com/mikedh/trimesh
v -0.01354528 0.02063686 0.01162144
v -0.02371858 0.00560142 0.01163587
v -0.02371406 0.00560142 0.01162144
v -0.02331445 0.02063686 0.01162144
v -0.02472778 0.02063686 0.03579050
v -0.03159352 0.00560142 0.03618726
v -0.03045337 0.00560142 0.01162144
v -0.02345443 0.02063686 0.01199897
v -0.02628335 0.01697072 0.01162144
v -0.02732868 0.01669256 0.01330469
v -0.03132711 0.01682060 0.02210328
v -0.03148966 0.01699279 0.02290162
v -0.03383769 0.01802744 0.03134431
v -0.02492195 0.02063686 0.03618726
v -0.03660792 0.00560142 0.03618726
v -0.03136549 0.01448198 0.01936920
v -0.02997022 0.01287777 0.01448056
v -0.02921162 0.01129417 0.01162144
v -0.03072204 0.00560142 0.01255444
v -0.03396413 0.01585366 0.02830725
v -0.03290526 0.01480724 0.02419291
v -0.03263433 0.01480724 0.02328877
v -0.03257788 0.01550338 0.02348595
v -0.02350184 0.02063686 0.01213844
v -0.03379254 0.01931081 0.03618726
v -0.02686585 0.01623484 0.01162144
v -0.02873750 0.01554165 0.01436754
v -0.02892037 0.01577713 0.01513703
v -0.02998376 0.01548130 0.01703429
v -0.03139258 0.01569029 0.02062442
v -0.03155965 0.01611416 0.02164640
v -0.03237921 0.01640556 0.02419291
v -0.03251467 0.01667195 0.02494797
v -0.03266819 0.01690007 0.02581123
v -0.03370900 0.01787437 0.03066621
v -0.03397542 0.01697072 0.02961778
v -0.03412217 0.01722827 0.03066621
v -0.03515395 0.01804804 0.03618726
v -0.03395735 0.01815548 0.03220758
v -0.03077848 0.02063686 0.03618726
v -0.03577482 0.01610091 0.03618726
v -0.03570258 0.01610091 0.03584100
v -0.03520813 0.01610091 0.03359506
v -0.03653116 0.00560142 0.03584100
v -0.03121874 0.01534443 0.01976356
v -0.03001085 0.01425680 0.01567567
v -0.02983249 0.01373875 0.01481240
v -0.02897682 0.01215661 0.01162144
v -0.03171318 0.00560142 0.01628404
v -0.03402960 0.00560142 0.02537118
v -0.03406798 0.00560142 0.02552268
v -0.03537069 0.00560142 0.03070468
v -0.03453759 0.01610091 0.03066621
v -0.03413346 0.01621129 0.02925949
v -0.03383769 0.01671610 0.02875452
v -0.03175156 0.00560142 0.01643073
v -0.03208119 0.00560142 0.01771480
v -0.03214215 0.01600083 0.02299299
v -0.02371632 0.02063686 0.01278048
v -0.03419441 0.01896494 0.03618726
v -0.03125937 0.02062802 0.03618726
v -0.03124809 0.02063686 0.03618005
v -0.03089814 0.02063686 0.03497773
v -0.03056400 0.02063686 0.03390526
v -0.02701486 0.01603468 0.01162144
v -0.02851624 0.01518107 0.01350428
v -0.02894295 0.01477339 0.01389864
v -0.02956608 0.01473660 0.01520195
v -0.02980089 0.01512072 0.01617343
v -0.02724514 0.01570648 0.01162144
v -0.02743931 0.01554312 0.01178015
v -0.03515846 0.01678380 0.03383312
v -0.03525103 0.01784347 0.03618726
v -0.03485593 0.01834828 0.03618726
v -0.03409959 0.01829677 0.03325360
v -0.03569580 0.01644530 0.03618726
v -0.03506364 0.01610091 0.03294821
v -0.03565968 0.00560142 0.03195029
v -0.02876233 0.01431862 0.01301614
v -0.02892263 0.01347530 0.01257128
v -0.02873976 0.01302053 0.01176091
v -0.02877362 0.01275414 0.01162144
v -0.03562807 0.00560142 0.03181322
v -0.03483786 0.01610091 0.03195990
v -0.03448566 0.01870003 0.03618726
v -0.02739867 0.01547247 0.01162144
v -0.03524652 0.01697660 0.03454730
v -0.03537069 0.01742696 0.03589390
v -0.03544519 0.01741960 0.03618726
v -0.02779377 0.01476162 0.01162144
v -0.02853882 0.01388151 0.01215287
v -0.02838304 0.01362837 0.01162144
v -0.02860429 0.01315593 0.01162144
v -0.02870589 0.01293811 0.01162144
f 1 2 3
f 1 3 7
f 1 7 18
f 1 18 48
f 1 48 82
f 1 82 94
f 1 94 93
f 1 93 92
f 1 92 90
f 1 90 86
f 1 86 70
f 1 70 65
f 1 65 26
f 1 26 9
f 1 9 4
f 1 4 8
f 1 8 24
f 1 24 59
f 1 59 64
f 1 64 63
f 1 63 62
f 1 62 40
f 1 40 14
f 1 14 5
f 1 5 6
f 1 6 2
f 2 6 15
f 2 15 44
f 2 44 78
f 2 78 83
f 2 83 52
f 2 52 51
f 2 51 50
f 2 50 57
f 2 57 56
f 2 56 49
f 2 49 19
f 2 19 7
f 2 7 3
f 4 9 10
f 4 10 11
f 4 11 12
f 4 12 13
f 4 13 8
f 5 14 6
f 6 14 40
f 6 40 61
f 6 61 25
f 6 25 60
f 6 60 85
f 6 85 74
f 6 74 38
f 6 38 73
f 6 73 89
f 6 89 76
f 6 76 41
f 6 41 15
f 7 16 17
f 7 17 18
f 7 19 20
f 7 20 21
f 7 21 22
f 7 22 23
f 7 23 16
f 8 13 25
f 8 25 24
f 9 26 10
f 10 26 27
f 10 27 28
f 10 28 11
f 11 29 30
f 11 30 31
f 11 31 32
f 11 32 33
f 11 33 34
f 11 34 12
f 11 28 29
f 12 34 35
f 12 35 13
f 13 35 36
f 13 36 37
f 13 37 38
f 13 38 39
f 13 39 25
f 15 41 42
f 15 42 43
f 15 43 44
f 16 45 46
f 16 46 17
f 16 23 45
f 17 46 47
f 17 47 48
f 17 48 18
f 19 49 20
f 20 50 51
f 20 51 52
f 20 52 53
f 20 53 54
f 20 54 55
f 20 55 23
f 20 23 21
f 20 49 56
f 20 56 57
f 20 57 50
f 21 23 22
f 23 33 32
f 23 32 58
f 23 58 30
f 23 30 45
f 23 55 33
f 24 25 59
f 25 39 60
f 25 61 62
f 25 62 63
f 25 63 64
f 25 64 59
f 26 65 27
f 27 66 67
f 27 67 68
f 27 68 69
f 27 69 29
f 27 29 28
f 27 65 70
f 27 70 71
f 27 71 66
f 29 69 45
f 29 45 30
f 30 58 31
f 31 58 32
f 33 55 36
f 33 36 34
f 34 36 35
f 36 55 72
f 36 72 37
f 37 72 38
f 38 72 73
f 38 74 39
f 39 74 75
f 39 75 60
f 40 62 61
f 41 76 72
f 41 72 42
f 42 72 43
f 43 72 77
f 43 77 44
f 44 77 78
f 45 69 46
f 46 68 79
f 46 79 80
f 46 80 47
f 46 69 68
f 47 80 81
f 47 81 82
f 47 82 48
f 52 83 53
f 53 83 84
f 53 84 72
f 53 72 54
f 54 72 55
f 60 75 85
f 66 79 67
f 66 71 79
f 67 79 68
f 70 86 71
f 71 86 79
f 72 84 77
f 72 76 87
f 72 87 73
f 73 88 89
f 73 87 88
f 74 85 75
f 76 89 87
f 77 84 78
f 78 84 83
f 79 86 90
f 79 90 91
f 79 91 81
f 79 81 80
f 81 91 92
f 81 92 93
f 81 93 94
f 81 94 82
f 87 89 88
f 90 92 91

