# https://github.com/mikedh/trimesh
v 0.04099819 -0.00951840 0.05553049
v 0.03631027 -0.00951840 0.05553049
v 0.04084920 -0.01754685 0.05553049
v 0.04081563 -0.01754685 0.05525546
v 0.04065405 -0.01754685 0.05395939
v 0.04048617 -0.01754685 0.05266675
v 0.04092894 -0.00951840 0.05499762
v 0.03020169 -0.02207938 0.05553049
v 0.02810745 -0.00951840 0.02041624
v 0.01956048 -0.02207938 0.02041624
v 0.04080513 -0.01782475 0.05553049
v 0.03993638 -0.01823792 0.04931485
v 0.04031410 -0.01754685 0.05137068
v 0.04060998 -0.00951840 0.05266675
v 0.03676563 -0.02207938 0.05553049
v 0.03410480 -0.00951840 0.02041624
v 0.02739607 -0.02207938 0.02041624
v 0.04061627 -0.01884168 0.05553049
v 0.03987972 -0.01754685 0.04837631
v 0.03997625 -0.01754685 0.04902263
v 0.04013153 -0.01754685 0.05007805
v 0.03999933 -0.01838179 0.05007805
v 0.03882000 -0.01854902 0.04360801
v 0.03869829 -0.01832892 0.04231194
v 0.03863324 -0.01820841 0.04162437
v 0.03915156 -0.01754685 0.04360801
v 0.03935721 -0.01754685 0.04490064
v 0.04042951 -0.00951840 0.05137068
v 0.03885778 -0.02092596 0.05525546
v 0.03888506 -0.02094071 0.05553049
v 0.03658936 -0.02207938 0.05467446
v 0.03402296 -0.01366604 0.02041624
v 0.03463151 -0.00951840 0.02255115
v 0.03617806 -0.01495965 0.02816517
v 0.03601648 -0.01495965 0.02751885
v 0.03582343 -0.01495965 0.02678659
v 0.03547508 -0.01495965 0.02549052
v 0.03511205 -0.01495965 0.02419788
v 0.03251628 -0.01722837 0.02041624
v 0.03354242 -0.01700703 0.02203891
v 0.03372079 -0.01720255 0.02290181
v 0.03346687 -0.01820718 0.02479951
v 0.03469656 -0.01815430 0.02752916
v 0.03486654 -0.01830309 0.02839207
v 0.03605635 -0.01821702 0.03124205
v 0.03611301 -0.01953644 0.03627163
v 0.03625151 -0.01962129 0.03713797
v 0.03055213 -0.02207938 0.03068855
v 0.04014202 -0.01978729 0.05553049
v 0.04001612 -0.01962375 0.05395939
v 0.03994897 -0.01953152 0.05312055
v 0.03987762 -0.01940979 0.05225765
v 0.04009796 -0.01861297 0.05137068
v 0.03867311 -0.01707466 0.04008077
v 0.03980418 -0.01925977 0.05137068
v 0.03862695 -0.01949095 0.04553665
v 0.03852622 -0.01936429 0.04467374
v 0.03750218 -0.01843344 0.03713797
v 0.03739516 -0.01828588 0.03625100
v 0.03792817 -0.01754685 0.03713797
v 0.03819886 -0.01754685 0.03843060
v 0.03892912 -0.01754685 0.04231194
v 0.04038964 -0.00951840 0.05110597
v 0.03953138 -0.02043532 0.05553049
v 0.03872977 -0.02084849 0.05395939
v 0.03568703 -0.02207938 0.05040121
v 0.03401667 -0.01376564 0.02041624
v 0.03483296 -0.01495965 0.02325591
v 0.03501133 -0.00951840 0.02411537
v 0.03647394 -0.01495965 0.02937529
v 0.03674464 -0.01625325 0.03066793
v 0.03640679 -0.01625325 0.02937529
v 0.03612770 -0.01625325 0.02838863
v 0.03478050 -0.01569744 0.02344156
v 0.03321716 -0.01638359 0.02041624
v 0.03333887 -0.01674511 0.02117601
v 0.03359698 -0.01588189 0.02058126
v 0.03378374 -0.01628891 0.02160918
v 0.03461472 -0.01663075 0.02419788
v 0.03473223 -0.01688160 0.02486827
v 0.03590527 -0.01802396 0.03037914
v 0.03614659 -0.01710417 0.02937529
v 0.03628508 -0.01757390 0.03075387
v 0.03727555 -0.01808421 0.03538810
v 0.03708459 -0.01926838 0.03843060
v 0.03615708 -0.01832400 0.03196056
v 0.03722309 -0.01939872 0.03943445
v 0.03734690 -0.01950324 0.04029735
v 0.03239876 -0.02207938 0.03689044
v 0.03151322 -0.02207938 0.03388576
v 0.03079136 -0.02207938 0.03147926
v 0.04011894 -0.01976024 0.05525546
v 0.03892703 -0.01980205 0.04878198
v 0.03880742 -0.01968154 0.04748935
v 0.03868780 -0.01955612 0.04619327
v 0.03736159 -0.01697383 0.03377575
v 0.03790718 -0.01625325 0.03584533
v 0.03816739 -0.01625325 0.03713797
v 0.03839822 -0.01625325 0.03843060
v 0.03856819 -0.01625325 0.03945852
v 0.03943065 -0.00951840 0.04491783
v 0.04023436 -0.00951840 0.05007805
v 0.03865003 -0.02079930 0.05318587
v 0.03853252 -0.02073782 0.05232297
v 0.03774770 -0.01981558 0.04360801
v 0.03758822 -0.01969999 0.04231194
v 0.03759242 -0.01761079 0.03583158
v 0.03545830 -0.02207938 0.04932516
v 0.03383410 -0.01503834 0.02041624
v 0.03462312 -0.01495965 0.02260616
v 0.03427897 -0.01495965 0.02160918
v 0.03619485 -0.00951840 0.02902463
v 0.03626410 -0.00951840 0.02931341
v 0.03658306 -0.00951840 0.03066793
v 0.03687894 -0.00951840 0.03197775
v 0.03773091 -0.00951840 0.03584533
v 0.03675723 -0.01495965 0.03066793
v 0.03740355 -0.01625325 0.03355916
v 0.03725876 -0.01625325 0.03291284
v 0.03704472 -0.01625325 0.03196056
v 0.03604166 -0.01691111 0.02870835
v 0.03437340 -0.01617824 0.02296713
v 0.03356340 -0.01581672 0.02041624
v 0.03267786 -0.02207938 0.03788054
v 0.03247011 -0.02207938 0.03713797
v 0.03739726 -0.01533346 0.03357291
v 0.03801000 -0.00951840 0.03713797
v 0.03821355 -0.00951840 0.03816588
v 0.03826392 -0.00951840 0.03842372
v 0.03916205 -0.00951840 0.04334329
v 0.03921032 -0.00951840 0.04360801
v 0.03399568 -0.02207938 0.04302013
v 0.03795335 -0.00951840 0.03687325
f 1 2 8
f 1 8 15
f 1 15 30
f 1 30 64
f 1 64 49
f 1 49 18
f 1 18 11
f 1 11 3
f 1 3 4
f 1 4 5
f 1 5 6
f 1 6 7
f 1 7 14
f 1 14 28
f 1 28 63
f 1 63 102
f 1 102 101
f 1 101 131
f 1 131 130
f 1 130 129
f 1 129 128
f 1 128 127
f 1 127 133
f 1 133 116
f 1 116 115
f 1 115 114
f 1 114 113
f 1 113 112
f 1 112 69
f 1 69 33
f 1 33 16
f 1 16 9
f 1 9 2
f 2 9 10
f 2 10 8
f 3 11 4
f 4 11 5
f 5 11 12
f 5 12 6
f 6 12 13
f 6 13 7
f 7 13 14
f 8 10 17
f 8 17 48
f 8 48 91
f 8 91 90
f 8 90 89
f 8 89 125
f 8 125 124
f 8 124 132
f 8 132 108
f 8 108 66
f 8 66 31
f 8 31 15
f 9 16 32
f 9 32 67
f 9 67 109
f 9 109 123
f 9 123 75
f 9 75 39
f 9 39 17
f 9 17 10
f 11 18 12
f 12 19 20
f 12 20 21
f 12 21 13
f 12 18 22
f 12 22 23
f 12 23 24
f 12 24 25
f 12 25 26
f 12 26 27
f 12 27 19
f 13 21 28
f 13 28 14
f 15 29 30
f 15 31 29
f 16 33 34
f 16 34 35
f 16 35 36
f 16 36 37
f 16 37 38
f 16 38 32
f 17 39 40
f 17 40 41
f 17 41 42
f 17 42 43
f 17 43 44
f 17 44 45
f 17 45 46
f 17 46 47
f 17 47 48
f 18 49 50
f 18 50 51
f 18 51 52
f 18 52 53
f 18 53 22
f 19 27 54
f 19 54 20
f 20 54 21
f 21 54 28
f 22 53 52
f 22 52 55
f 22 55 23
f 23 56 24
f 23 55 52
f 23 52 56
f 24 56 25
f 25 56 57
f 25 57 58
f 25 58 59
f 25 59 60
f 25 60 61
f 25 61 54
f 25 54 62
f 25 62 26
f 26 62 54
f 26 54 27
f 28 54 63
f 29 64 30
f 29 31 65
f 29 65 64
f 31 66 65
f 32 38 68
f 32 68 67
f 33 69 70
f 33 70 34
f 34 70 71
f 34 71 35
f 35 71 72
f 35 72 36
f 36 72 37
f 37 72 38
f 38 72 73
f 38 73 74
f 38 74 68
f 39 75 76
f 39 76 40
f 40 76 77
f 40 77 78
f 40 78 79
f 40 79 80
f 40 80 41
f 41 80 81
f 41 81 43
f 41 43 42
f 43 81 45
f 43 45 44
f 45 81 82
f 45 82 83
f 45 83 84
f 45 84 59
f 45 59 85
f 45 85 86
f 45 86 46
f 46 86 85
f 46 85 87
f 46 87 88
f 46 88 47
f 47 88 89
f 47 89 90
f 47 90 91
f 47 91 48
f 49 64 92
f 49 92 50
f 50 92 93
f 50 93 94
f 50 94 51
f 51 94 95
f 51 95 56
f 51 56 52
f 54 61 60
f 54 60 96
f 54 96 97
f 54 97 98
f 54 98 99
f 54 99 100
f 54 100 101
f 54 101 102
f 54 102 63
f 56 95 103
f 56 103 104
f 56 104 105
f 56 105 106
f 56 106 88
f 56 88 58
f 56 58 57
f 58 88 87
f 58 87 85
f 58 85 59
f 59 84 107
f 59 107 60
f 60 107 96
f 64 65 103
f 64 103 93
f 64 93 92
f 65 66 108
f 65 108 103
f 67 68 110
f 67 110 111
f 67 111 109
f 68 74 110
f 69 112 70
f 70 112 113
f 70 113 114
f 70 114 115
f 70 115 116
f 70 116 117
f 70 117 97
f 70 97 118
f 70 118 119
f 70 119 120
f 70 120 71
f 71 120 96
f 71 96 72
f 72 96 121
f 72 121 73
f 73 121 74
f 74 80 79
f 74 79 122
f 74 122 77
f 74 77 123
f 74 123 109
f 74 109 111
f 74 111 110
f 74 121 80
f 75 123 76
f 76 123 77
f 77 122 78
f 78 122 79
f 80 121 81
f 81 121 82
f 82 121 96
f 82 96 84
f 82 84 83
f 84 96 107
f 88 124 125
f 88 125 89
f 88 106 124
f 93 103 94
f 94 103 95
f 96 120 119
f 96 119 118
f 96 118 97
f 97 117 126
f 97 126 127
f 97 127 98
f 98 127 128
f 98 128 129
f 98 129 130
f 98 130 131
f 98 131 99
f 99 131 101
f 99 101 100
f 103 108 132
f 103 132 104
f 104 132 124
f 104 124 105
f 105 124 106
f 116 133 126
f 116 126 117
f 126 133 127

