# https://github.com/mikedh/trimesh
v -0.01515428 -0.03463708 0.07119585
v -0.02990425 -0.02222484 0.07119585
v -0.01515428 -0.03975437 0.07119585
v -0.01515428 -0.02370579 0.02041285
v -0.01515640 -0.02370236 0.02041285
v -0.03680650 -0.02222484 0.07119585
v -0.01724234 -0.02222484 0.02041285
v -0.02578537 -0.03633255 0.07119585
v -0.02584896 -0.03627935 0.07056454
v -0.01515428 -0.03970975 0.07069379
v -0.01515428 -0.03035895 0.02041285
v -0.02738162 -0.03502148 0.06623486
v -0.02748761 -0.03512273 0.06819341
v -0.02755757 -0.03518965 0.06949082
v -0.02764872 -0.03527717 0.07119585
v -0.03627654 -0.02222484 0.06692582
v -0.02739222 -0.03374473 0.05838080
v -0.02743674 -0.03380479 0.05913638
v -0.02508581 -0.02222484 0.02041285
v -0.02631957 -0.03615407 0.07119585
v -0.01515428 -0.03948666 0.06819341
v -0.02543771 -0.03596531 0.06560853
v -0.02094149 -0.02985958 0.02349980
v -0.02026102 -0.02973259 0.02259012
v -0.02026102 -0.02938938 0.02161084
v -0.02031614 -0.02893634 0.02041285
v -0.01515428 -0.03299138 0.03059331
v -0.02200354 -0.03108827 0.02887337
v -0.02730742 -0.03495284 0.06536992
v -0.02612454 -0.03504722 0.05956388
v -0.02632593 -0.03518451 0.06172623
v -0.02656547 -0.03534581 0.06431111
v -0.02681774 -0.03534238 0.06572286
v -0.02673082 -0.03552257 0.06690097
v -0.02673082 -0.03564269 0.06819341
v -0.02673082 -0.03576110 0.06949082
v -0.02736042 -0.03548138 0.07119585
v -0.03500674 -0.02222484 0.05917117
v -0.02604611 -0.03369325 0.05087967
v -0.02613514 -0.03377047 0.05173964
v -0.02634501 -0.03395581 0.05396164
v -0.02658667 -0.03417203 0.05654652
v -0.02682622 -0.03417889 0.05790856
v -0.02609487 -0.03244396 0.04548621
v -0.02588076 -0.02222484 0.02301264
v -0.02246143 -0.02715507 0.02041285
v -0.02351924 -0.02730437 0.02347991
v -0.02664603 -0.03596531 0.07119585
v -0.02660151 -0.03596531 0.07091250
v -0.01515428 -0.03936997 0.06690097
v -0.02543771 -0.03582974 0.06431111
v -0.01515428 -0.03923955 0.06563338
v -0.01515428 -0.03936139 0.06681646
v -0.02207350 -0.02976863 0.02503581
v -0.02180640 -0.02960732 0.02419573
v -0.02144602 -0.02936020 0.02300270
v -0.02108140 -0.02867035 0.02067134
v -0.02059596 -0.02880592 0.02041285
v -0.02236604 -0.03121869 0.02973334
v -0.01515428 -0.03301026 0.03066787
v -0.02156685 -0.03129935 0.02933069
v -0.02662695 -0.03454785 0.05913141
v -0.02601643 -0.03499059 0.05869894
v -0.02543771 -0.03568731 0.06301867
v -0.03375179 -0.02222484 0.05275371
v -0.02529144 -0.03402445 0.05007438
v -0.02508369 -0.03267563 0.04231476
v -0.02482507 -0.03374473 0.04671900
v -0.02493107 -0.03381166 0.04748949
v -0.02511125 -0.03391977 0.04878194
v -0.02600583 -0.03230839 0.04462624
v -0.02500526 -0.03139202 0.03714002
v -0.02482083 -0.03245425 0.04026176
v -0.02491835 -0.03253663 0.04102232
v -0.02740282 -0.02222484 0.02799351
v -0.02207350 -0.02765787 0.02041285
v -0.02235544 -0.02745710 0.02056198
v -0.02327334 -0.02816754 0.02419573
v -0.02343021 -0.02842152 0.02503581
v -0.02860690 -0.02222484 0.03194043
v -0.02522572 -0.03517592 0.05784394
v -0.02500526 -0.03509870 0.05654652
v -0.02486111 -0.03504550 0.05567661
v -0.01515428 -0.03923440 0.06558864
v -0.02231516 -0.02992822 0.02590075
v -0.02220493 -0.02855022 0.02225209
v -0.02153081 -0.02880249 0.02173512
v -0.02137395 -0.02830140 0.02041285
v -0.02343869 -0.03109685 0.03143837
v -0.02325214 -0.03097158 0.03066787
v -0.01515428 -0.03459247 0.03718973
v -0.02225793 -0.03244396 0.03512680
v -0.02349592 -0.03243023 0.03649380
v -0.01515428 -0.03334146 0.03199014
v -0.02552886 -0.03521883 0.05913141
v -0.03258163 -0.02222484 0.04738013
v -0.02488231 -0.03124444 0.03616572
v -0.02609275 -0.03115177 0.04162380
v -0.02386054 -0.03262758 0.03843246
v -0.02366339 -0.03252118 0.03735874
v -0.02463429 -0.03366923 0.04585903
v -0.02357436 -0.03374988 0.04409932
v -0.02414460 -0.03407250 0.04748949
v -0.02414460 -0.03426298 0.04878194
v -0.02467880 -0.03234614 0.03940179
v -0.02169404 -0.02803712 0.02041285
v -0.02235332 -0.02869266 0.02290328
v -0.02356588 -0.02991621 0.02855026
v -0.02356588 -0.02865147 0.02590075
v -0.02977494 -0.02222484 0.03591717
v -0.01515428 -0.03823737 0.05772463
v -0.01515428 -0.03825453 0.05784394
v -0.01515428 -0.03841241 0.05898725
v -0.01515428 -0.03844502 0.05922585
v -0.01515428 -0.03859431 0.06041391
v -0.01515428 -0.03885687 0.06252158
v -0.01515428 -0.03891865 0.06301867
v -0.01515428 -0.03907824 0.06431111
v -0.02360191 -0.03121869 0.03230331
v -0.02475724 -0.03108999 0.03530078
v -0.02393049 -0.03032463 0.03066787
v -0.02372063 -0.03008438 0.02937543
v -0.01515428 -0.03592069 0.04361714
v -0.01515428 -0.03615407 0.04490461
v -0.02450921 -0.03221744 0.03843246
v -0.03112317 -0.02222484 0.04105214
v -0.02481447 -0.02988189 0.03250712
v -0.01515428 -0.03683020 0.04878194
v -0.01515428 -0.03705501 0.05007438
v -0.01515428 -0.03726093 0.05130717
v -0.01515428 -0.03743769 0.05245545
v -0.01515428 -0.03804860 0.05647693
v -0.02471060 -0.02963992 0.03164218
v -0.03044481 -0.02222484 0.03843246
f 1 2 6
f 1 6 15
f 1 15 37
f 1 37 48
f 1 48 20
f 1 20 8
f 1 8 3
f 1 3 10
f 1 10 21
f 1 21 50
f 1 50 53
f 1 53 52
f 1 52 84
f 1 84 118
f 1 118 117
f 1 117 116
f 1 116 115
f 1 115 114
f 1 114 113
f 1 113 112
f 1 112 111
f 1 111 132
f 1 132 131
f 1 131 130
f 1 130 129
f 1 129 128
f 1 128 124
f 1 124 123
f 1 123 91
f 1 91 94
f 1 94 60
f 1 60 27
f 1 27 11
f 1 11 4
f 1 4 5
f 1 5 2
f 2 5 7
f 2 7 19
f 2 19 45
f 2 45 75
f 2 75 80
f 2 80 110
f 2 110 134
f 2 134 126
f 2 126 96
f 2 96 65
f 2 65 38
f 2 38 16
f 2 16 6
f 3 8 9
f 3 9 10
f 4 11 26
f 4 26 58
f 4 58 88
f 4 88 106
f 4 106 76
f 4 76 46
f 4 46 19
f 4 19 7
f 4 7 5
f 6 12 13
f 6 13 14
f 6 14 15
f 6 16 17
f 6 17 18
f 6 18 12
f 8 20 9
f 9 21 10
f 9 20 22
f 9 22 21
f 11 23 24
f 11 24 25
f 11 25 26
f 11 27 28
f 11 28 23
f 12 29 30
f 12 30 31
f 12 31 32
f 12 32 33
f 12 33 34
f 12 34 35
f 12 35 36
f 12 36 37
f 12 37 13
f 12 18 17
f 12 17 29
f 13 37 14
f 14 37 15
f 16 38 17
f 17 39 40
f 17 40 41
f 17 41 42
f 17 42 43
f 17 43 29
f 17 38 44
f 17 44 39
f 19 46 47
f 19 47 45
f 20 48 49
f 20 49 36
f 20 36 35
f 20 35 34
f 20 34 32
f 20 32 22
f 21 22 50
f 22 51 52
f 22 52 53
f 22 53 50
f 22 32 31
f 22 31 30
f 22 30 51
f 23 54 55
f 23 55 56
f 23 56 57
f 23 57 58
f 23 58 26
f 23 26 25
f 23 25 24
f 23 28 59
f 23 59 54
f 27 60 61
f 27 61 28
f 28 61 59
f 29 43 42
f 29 42 62
f 29 62 30
f 30 62 42
f 30 42 41
f 30 41 40
f 30 40 63
f 30 63 64
f 30 64 51
f 32 34 33
f 36 49 48
f 36 48 37
f 38 65 44
f 39 66 63
f 39 63 40
f 39 44 67
f 39 67 68
f 39 68 69
f 39 69 70
f 39 70 66
f 44 71 72
f 44 72 73
f 44 73 74
f 44 74 67
f 44 65 71
f 45 47 75
f 46 76 77
f 46 77 47
f 47 77 78
f 47 78 79
f 47 79 80
f 47 80 75
f 51 64 52
f 52 64 81
f 52 81 82
f 52 82 83
f 52 83 84
f 54 59 85
f 54 85 86
f 54 86 87
f 54 87 55
f 55 87 57
f 55 57 56
f 57 87 86
f 57 86 88
f 57 88 58
f 59 89 90
f 59 90 85
f 59 61 91
f 59 91 92
f 59 92 93
f 59 93 89
f 60 94 61
f 61 94 91
f 63 82 81
f 63 81 95
f 63 95 64
f 63 66 70
f 63 70 69
f 63 69 68
f 63 68 83
f 63 83 82
f 64 95 81
f 65 96 97
f 65 97 72
f 65 72 98
f 65 98 71
f 67 74 68
f 68 74 73
f 68 73 99
f 68 99 100
f 68 100 101
f 68 101 102
f 68 102 103
f 68 103 104
f 68 104 83
f 71 98 72
f 72 97 73
f 73 97 105
f 73 105 93
f 73 93 100
f 73 100 99
f 76 106 86
f 76 86 77
f 77 86 79
f 77 79 78
f 79 86 107
f 79 107 108
f 79 108 109
f 79 109 110
f 79 110 80
f 83 111 112
f 83 112 113
f 83 113 114
f 83 114 115
f 83 115 116
f 83 116 117
f 83 117 118
f 83 118 84
f 83 104 111
f 85 107 86
f 85 90 108
f 85 108 107
f 86 106 88
f 89 119 120
f 89 120 121
f 89 121 122
f 89 122 108
f 89 108 90
f 89 93 119
f 91 123 93
f 91 93 92
f 93 123 124
f 93 124 102
f 93 102 101
f 93 101 100
f 93 105 125
f 93 125 119
f 96 126 127
f 96 127 97
f 97 125 105
f 97 127 120
f 97 120 119
f 97 119 125
f 102 104 103
f 102 124 128
f 102 128 129
f 102 129 130
f 102 130 131
f 102 131 132
f 102 132 111
f 102 111 104
f 108 122 109
f 109 122 133
f 109 133 110
f 110 133 127
f 110 127 134
f 120 127 122
f 120 122 121
f 122 127 133
f 126 134 127

