# https://github.com/mikedh/trimesh
v -0.01515217 -0.03954781 0.10967985
v -0.03445479 -0.02222516 0.10954416
v -0.03449540 -0.02272570 0.10966100
v -0.03320044 -0.02531419 0.10969869
v -0.02026274 -0.03695932 0.10970246
v -0.01638023 -0.03954781 0.10964215
v -0.01515217 -0.04091253 0.10926900
v -0.01515217 -0.03816061 0.10931423
v -0.03579037 -0.02222516 0.10961200
v -0.03341308 -0.02222516 0.10914461
v -0.03449540 -0.02401892 0.10967231
v -0.02802536 -0.03178439 0.10964592
v -0.02673278 -0.03307761 0.10964592
v -0.02414524 -0.03437083 0.10969869
v -0.03190786 -0.02790267 0.10963838
v -0.03061290 -0.02919590 0.10964215
v -0.02285028 -0.03566610 0.10967608
v -0.01896777 -0.03825458 0.10964969
v -0.01767281 -0.03954781 0.10948761
v -0.01515217 -0.04099630 0.10921623
v -0.01767281 -0.04036092 0.10906923
v -0.01840391 -0.04023426 0.10899384
v -0.01515217 -0.03796652 0.10920869
v -0.03693481 -0.02222516 0.10920492
v -0.03579037 -0.02272570 0.10955923
v -0.01543171 -0.03752727 0.10902023
v -0.01515217 -0.03736179 0.10859053
v -0.03283966 -0.02222516 0.10857546
v -0.03320044 -0.02660741 0.10959315
v -0.02803491 -0.03308578 0.10924638
v -0.02543782 -0.03437083 0.10959692
v -0.02672322 -0.03438105 0.10923130
v -0.03320283 -0.02788837 0.10922754
v -0.03191025 -0.02919998 0.10923884
v -0.03061768 -0.03049525 0.10924261
v -0.02155531 -0.03695932 0.10956677
v -0.02034158 -0.03835265 0.10932177
v -0.01888893 -0.03953759 0.10918984
v -0.01552728 -0.04141716 0.10886946
v -0.01515217 -0.04172770 0.10845861
v -0.02478317 -0.03630556 0.10895615
v -0.02082660 -0.03884910 0.10890715
v -0.01926643 -0.03996254 0.10858677
v -0.01888893 -0.04038544 0.10822114
v -0.01767281 -0.04086554 0.10831538
v -0.03580709 -0.02397602 0.10922377
v -0.03461964 -0.02543472 0.10935192
v -0.03758707 -0.02222516 0.10873753
v -0.03676995 -0.02272570 0.10913331
v -0.01515217 -0.03724125 0.10840207
v -0.03265091 -0.02222516 0.10822492
v -0.03425887 -0.02660741 0.10917477
v -0.03148258 -0.03006622 0.10906169
v -0.02889982 -0.03265879 0.10906169
v -0.02760724 -0.03395610 0.10906169
v -0.02543782 -0.03543319 0.10917477
v -0.02426709 -0.03579072 0.10935192
v -0.02628599 -0.03514513 0.10903907
v -0.03397455 -0.02744708 0.10903907
v -0.03277276 -0.02876891 0.10905792
v -0.01611503 -0.04162555 0.10800630
v -0.01515217 -0.04177060 0.10836815
v -0.02714851 -0.03482029 0.10872999
v -0.02672322 -0.03537395 0.10830784
v -0.02552144 -0.03609717 0.10844353
v -0.02514633 -0.03653642 0.10809299
v -0.02359811 -0.03767028 0.10784045
v -0.02118976 -0.03907792 0.10804399
v -0.01964393 -0.04021383 0.10772360
v -0.01697754 -0.04147232 0.10757661
v -0.03513333 -0.02594548 0.10895238
v -0.03651430 -0.02351430 0.10901269
v -0.03782360 -0.02222516 0.10830784
v -0.01515217 -0.03681835 0.10708660
v -0.03247172 -0.02222516 0.10788568
v -0.02976233 -0.03222772 0.10872246
v -0.02847214 -0.03352298 0.10872623
v -0.03363528 -0.02830923 0.10870361
v -0.03234509 -0.02963106 0.10871115
v -0.01515217 -0.04222210 0.10702629
v -0.02797040 -0.03431567 0.10829653
v -0.02746866 -0.03510223 0.10786684
v -0.02600884 -0.03626470 0.10744468
v -0.01976817 -0.04029146 0.10702253
v -0.01896777 -0.04074297 0.10702253
v -0.01765130 -0.04132318 0.10709414
v -0.01720691 -0.04155404 0.10671345
v -0.01515217 -0.04223640 0.10695468
v -0.03649280 -0.02475849 0.10782538
v -0.03536031 -0.02631117 0.10808922
v -0.03492307 -0.02668913 0.10843976
v -0.03419436 -0.02788837 0.10828899
v -0.03795023 -0.02222516 0.10806284
v -0.03789528 -0.02234161 0.10802891
v -0.01515217 -0.03679792 0.10702253
v -0.03224713 -0.02222516 0.10702253
v -0.03263419 -0.02992321 0.10784799
v -0.03005143 -0.03251783 0.10785930
v -0.03391959 -0.02862590 0.10784045
v -0.02875885 -0.03381309 0.10786307
v -0.02824517 -0.03458739 0.10702253
v -0.02759768 -0.03521868 0.10702253
v -0.02664677 -0.03592556 0.10701499
v -0.02694781 -0.03601545 0.10572967
v -0.02615698 -0.03635663 0.10658153
v -0.02630033 -0.03644857 0.10572967
v -0.02397799 -0.03790932 0.10572967
v -0.02062590 -0.04001770 0.10572967
v -0.01997842 -0.04042425 0.10572967
v -0.01896777 -0.04099630 0.10572967
v -0.01810765 -0.04141307 0.10572967
v -0.01746255 -0.04164393 0.10572967
v -0.01638023 -0.04203006 0.10572967
v -0.01515217 -0.04247544 0.10566560
v -0.03827517 -0.02222516 0.10702253
v -0.03509271 -0.02717332 0.10742584
v -0.01515217 -0.03656298 0.10566183
v -0.03212289 -0.02222516 0.10638552
v -0.03275604 -0.03004579 0.10702253
v -0.03017806 -0.03264449 0.10702253
v -0.02888787 -0.03394180 0.10702253
v -0.03474149 -0.02781074 0.10700745
v -0.03403189 -0.02874644 0.10702253
v -0.03340113 -0.02939203 0.10702253
v -0.02841002 -0.03475287 0.10572967
v -0.02776254 -0.03536986 0.10572967
v -0.02711267 -0.03613190 0.10443306
v -0.02646519 -0.03654663 0.10443306
v -0.02475211 -0.03758244 0.10473083
v -0.02233898 -0.03898598 0.10549598
v -0.02011460 -0.04050802 0.10443306
v -0.01885787 -0.04121490 0.10445567
v -0.01828923 -0.04147845 0.10490044
v -0.01515217 -0.04258576 0.10490798
v -0.03548454 -0.02668913 0.10700745
v -0.03854037 -0.02222516 0.10576737
v -0.03518350 -0.02731837 0.10656268
v -0.03482750 -0.02810085 0.10572967
v -0.01515217 -0.03643222 0.10443306
v -0.03199626 -0.02222516 0.10571837
v -0.03356121 -0.02955342 0.10572967
v -0.03098562 -0.03215621 0.10572967
v -0.03418002 -0.02890579 0.10572967
v -0.02853665 -0.03488158 0.10443306
v -0.02788917 -0.03548427 0.10443306
v -0.02732292 -0.03627491 0.10219789
v -0.02537570 -0.03798899 0.09796126
v -0.02432682 -0.03863663 0.09796126
v -0.02179901 -0.03996662 0.09925788
v -0.02115392 -0.04032823 0.09925788
v -0.02026274 -0.04072458 0.10055073
v -0.01913502 -0.04124554 0.10184358
v -0.01835374 -0.04150501 0.10404105
v -0.01515217 -0.04286769 0.10184358
v -0.01515217 -0.04282479 0.10245797
v -0.01515217 -0.04277575 0.10314020
v -0.01638023 -0.04221189 0.10443306
v -0.01515217 -0.04265318 0.10443306
v -0.01581876 -0.04281866 0.09888473
v -0.03873629 -0.02222516 0.10443306
v -0.03780927 -0.02349591 0.10545075
v -0.03526712 -0.02745321 0.10572967
v -0.03492307 -0.02823569 0.10443306
v -0.03183857 -0.02222516 0.10443306
v -0.03191981 -0.02222516 0.10509644
v -0.01515217 -0.03463642 0.07119962
v -0.03367589 -0.02966579 0.10443306
v -0.03303080 -0.03033181 0.10443306
v -0.03239765 -0.03097944 0.10443306
v -0.02982445 -0.03358019 0.10443306
v -0.03427559 -0.02901815 0.10443306
v -0.03120304 -0.03237277 0.10314020
v -0.02867284 -0.03502051 0.10249943
v -0.02739938 -0.03632803 0.10133473
v -0.02810898 -0.03579889 0.10055073
v -0.02746150 -0.03637502 0.10055073
v -0.02673278 -0.03697771 0.09925788
v -0.02602318 -0.03756813 0.09796126
v -0.02542348 -0.03801964 0.09666841
v -0.02611875 -0.03762943 0.09407894
v -0.02367934 -0.03899824 0.09796126
v -0.02026274 -0.04077157 0.09925788
v -0.01919714 -0.04128845 0.10055073
v -0.02611397 -0.03762534 0.09278609
v -0.01840869 -0.04153157 0.10314020
v -0.01515217 -0.04303113 0.09929180
v -0.01515217 -0.04268178 0.10414659
v -0.01854966 -0.04159286 0.10055073
v -0.01581876 -0.04281866 0.09827788
v -0.01515217 -0.04309447 0.09789342
v -0.01848754 -0.04156630 0.10184358
v -0.03535314 -0.02758805 0.10443306
v -0.03946262 -0.02222516 0.09833818
v -0.03891548 -0.02319763 0.09796126
v -0.03501386 -0.02836848 0.10184358
v -0.03777821 -0.02473602 0.09892996
v -0.03666960 -0.02628666 0.09925788
v -0.02990329 -0.02222516 0.07119962
v -0.01515217 -0.03975415 0.07119962
v -0.03090677 -0.03332890 0.09796126
v -0.03026168 -0.03402148 0.09796126
v -0.03125082 -0.03242385 0.10238635
v -0.03432099 -0.02907740 0.10314020
v -0.02948518 -0.03427481 0.10195666
v -0.02996303 -0.03372115 0.10246551
v -0.02871823 -0.03506545 0.10184358
v -0.02888787 -0.03523502 0.09925788
v -0.02818782 -0.03588266 0.09925788
v -0.02754034 -0.03643631 0.09925788
v -0.02673278 -0.03707781 0.09796126
v -0.02607096 -0.03759469 0.09666841
v -0.02609963 -0.03761717 0.09509664
v -0.02774104 -0.03657932 0.09149324
v -0.01917802 -0.04128641 0.09925788
v -0.02609247 -0.03761104 0.09210762
v -0.02772909 -0.03657523 0.09020038
v -0.01767281 -0.04198511 0.09925788
v -0.02737787 -0.03631373 0.08048327
v -0.02633617 -0.03642201 0.07467109
v -0.02624060 -0.03638115 0.07337824
v -0.02613786 -0.03633620 0.07208162
v -0.02608530 -0.03631373 0.07143331
v -0.03949368 -0.02222516 0.09797257
v -0.03930493 -0.02255000 0.09796126
v -0.03895371 -0.02326505 0.09666841
v -0.03834446 -0.02401892 0.09796126
v -0.03436638 -0.02912644 0.10184358
v -0.03504970 -0.02842569 0.10055073
v -0.03619892 -0.02693429 0.09925788
v -0.03680818 -0.02222516 0.07119962
v -0.02578425 -0.03633211 0.07119962
v -0.03387181 -0.02987213 0.09889226
v -0.03030946 -0.03408481 0.09666841
v -0.02961420 -0.03466911 0.09796126
v -0.02896671 -0.03529427 0.09796126
v -0.02823083 -0.03594190 0.09796126
v -0.02758335 -0.03647104 0.09796126
v -0.02673278 -0.03712685 0.09666841
v -0.02771476 -0.03655685 0.09278609
v -0.02676623 -0.03718405 0.09407894
v -0.02836224 -0.03605018 0.09278609
v -0.02838852 -0.03606040 0.09149324
v -0.02750928 -0.03641179 0.08372859
v -0.02746389 -0.03637706 0.08243574
v -0.02740893 -0.03633620 0.08114289
v -0.02837657 -0.03603997 0.09020038
v -0.02781749 -0.03544545 0.07467109
v -0.02776015 -0.03538825 0.07337824
v -0.02769325 -0.03532287 0.07208162
v -0.02698126 -0.03609104 0.07467109
v -0.02688808 -0.03603384 0.07337824
v -0.02664677 -0.03596642 0.07119962
v -0.02632183 -0.03615438 0.07119962
v -0.03954146 -0.02222516 0.09706795
v -0.03933360 -0.02261742 0.09666841
v -0.03387181 -0.02987213 0.09854172
v -0.03956058 -0.02222516 0.09537556
v -0.03954146 -0.02222516 0.09407894
v -0.03948651 -0.02222516 0.09278609
v -0.02867045 -0.03501438 0.08051719
v -0.03555144 -0.02775966 0.09925788
v -0.02764786 -0.03527588 0.07119962
v -0.03693003 -0.02222516 0.07208162
v -0.02965242 -0.03473040 0.09666841
v -0.03025929 -0.03409094 0.09537556
v -0.02970499 -0.03470180 0.09407894
v -0.02905034 -0.03540255 0.09278609
v -0.02968348 -0.03473857 0.09537556
v -0.02900494 -0.03532287 0.09666841
v -0.02832879 -0.03602771 0.09407894
v -0.02768131 -0.03653642 0.09407894
v -0.02903600 -0.03535148 0.09537556
v -0.02905751 -0.03538008 0.09407894
v -0.02901211 -0.03541481 0.09149324
v -0.02828817 -0.03594803 0.08761468
v -0.02824278 -0.03590104 0.08631806
v -0.02819977 -0.03585201 0.08502521
v -0.02815676 -0.03579889 0.08372859
v -0.02811137 -0.03574577 0.08243574
v -0.02896194 -0.03539233 0.09020038
v -0.02884008 -0.03525341 0.08631806
v -0.02880186 -0.03520438 0.08502521
v -0.02876363 -0.03515330 0.08372859
v -0.02678534 -0.03596846 0.07208162
v -0.02735876 -0.03548222 0.07119962
v -0.03955580 -0.02222516 0.09666841
v -0.02869434 -0.03505319 0.08138035
v -0.03934794 -0.02222516 0.09149324
v -0.03709728 -0.02222516 0.07337824
f 1 2 3
f 1 3 4
f 1 4 5
f 1 5 6
f 1 6 7
f 1 7 20
f 1 20 40
f 1 40 62
f 1 62 80
f 1 80 88
f 1 88 114
f 1 114 134
f 1 134 158
f 1 158 187
f 1 187 156
f 1 156 155
f 1 155 154
f 1 154 186
f 1 186 190
f 1 190 199
f 1 199 166
f 1 166 139
f 1 139 117
f 1 117 95
f 1 95 74
f 1 74 50
f 1 50 27
f 1 27 23
f 1 23 8
f 1 8 2
f 2 9 3
f 2 8 10
f 2 10 28
f 2 28 51
f 2 51 75
f 2 75 96
f 2 96 118
f 2 118 140
f 2 140 165
f 2 165 164
f 2 164 198
f 2 198 230
f 2 230 263
f 2 263 289
f 2 289 288
f 2 288 259
f 2 259 258
f 2 258 257
f 2 257 286
f 2 286 254
f 2 254 223
f 2 223 193
f 2 193 160
f 2 160 136
f 2 136 115
f 2 115 93
f 2 93 73
f 2 73 48
f 2 48 24
f 2 24 9
f 3 11 4
f 3 9 11
f 4 12 13
f 4 13 14
f 4 14 5
f 4 11 15
f 4 15 16
f 4 16 12
f 5 14 17
f 5 17 18
f 5 18 6
f 6 18 19
f 6 19 7
f 7 19 21
f 7 21 22
f 7 22 20
f 8 23 10
f 9 24 25
f 9 25 11
f 10 26 27
f 10 27 28
f 10 23 26
f 11 25 29
f 11 29 15
f 12 16 30
f 12 30 13
f 13 31 17
f 13 17 14
f 13 30 32
f 13 32 31
f 15 29 33
f 15 33 34
f 15 34 35
f 15 35 16
f 16 35 30
f 17 31 18
f 18 31 36
f 18 36 19
f 19 36 37
f 19 37 38
f 19 38 22
f 19 22 21
f 20 22 39
f 20 39 40
f 22 38 41
f 22 41 42
f 22 42 43
f 22 43 44
f 22 44 45
f 22 45 39
f 23 27 26
f 24 46 47
f 24 47 25
f 24 48 49
f 24 49 46
f 25 47 29
f 27 50 28
f 28 50 51
f 29 47 52
f 29 52 33
f 30 35 53
f 30 53 54
f 30 54 55
f 30 55 32
f 31 32 56
f 31 56 57
f 31 57 36
f 32 55 58
f 32 58 56
f 33 52 59
f 33 59 60
f 33 60 34
f 34 60 53
f 34 53 35
f 36 57 37
f 37 57 56
f 37 56 41
f 37 41 38
f 39 45 61
f 39 61 62
f 39 62 40
f 41 56 58
f 41 58 63
f 41 63 64
f 41 64 65
f 41 65 66
f 41 66 67
f 41 67 42
f 42 67 68
f 42 68 69
f 42 69 43
f 43 69 44
f 44 69 70
f 44 70 45
f 45 70 61
f 46 49 71
f 46 71 52
f 46 52 47
f 48 71 72
f 48 72 49
f 48 73 71
f 49 72 71
f 50 74 75
f 50 75 51
f 52 71 59
f 53 60 76
f 53 76 77
f 53 77 54
f 54 77 55
f 55 77 63
f 55 63 58
f 59 71 78
f 59 78 60
f 60 78 79
f 60 79 76
f 61 70 80
f 61 80 62
f 63 77 81
f 63 81 82
f 63 82 64
f 64 82 66
f 64 66 65
f 66 82 83
f 66 83 67
f 67 83 69
f 67 69 68
f 69 83 84
f 69 84 85
f 69 85 86
f 69 86 70
f 70 86 87
f 70 87 88
f 70 88 80
f 71 73 89
f 71 89 90
f 71 90 91
f 71 91 92
f 71 92 78
f 73 93 94
f 73 94 89
f 74 95 75
f 75 95 96
f 76 79 97
f 76 97 98
f 76 98 77
f 77 98 81
f 78 92 99
f 78 99 79
f 79 99 97
f 81 98 100
f 81 100 82
f 82 100 101
f 82 101 102
f 82 102 103
f 82 103 83
f 83 103 104
f 83 104 105
f 83 105 84
f 84 105 106
f 84 106 107
f 84 107 108
f 84 108 109
f 84 109 110
f 84 110 85
f 85 110 111
f 85 111 86
f 86 111 87
f 87 111 112
f 87 112 113
f 87 113 88
f 88 113 114
f 89 94 115
f 89 115 116
f 89 116 90
f 90 116 99
f 90 99 92
f 90 92 91
f 93 115 94
f 95 117 96
f 96 117 118
f 97 99 119
f 97 119 120
f 97 120 98
f 98 120 121
f 98 121 101
f 98 101 100
f 99 116 122
f 99 122 123
f 99 123 124
f 99 124 119
f 101 121 125
f 101 125 102
f 102 125 126
f 102 126 104
f 102 104 103
f 104 126 127
f 104 127 106
f 104 106 105
f 106 127 128
f 106 128 129
f 106 129 130
f 106 130 107
f 107 130 108
f 108 130 109
f 109 130 131
f 109 131 110
f 110 131 132
f 110 132 133
f 110 133 111
f 111 133 112
f 112 133 113
f 113 133 114
f 114 133 134
f 115 135 116
f 115 136 135
f 116 135 137
f 116 137 138
f 116 138 122
f 117 139 140
f 117 140 118
f 119 124 141
f 119 141 142
f 119 142 125
f 119 125 120
f 120 125 121
f 122 138 123
f 123 138 143
f 123 143 141
f 123 141 124
f 125 142 144
f 125 144 126
f 126 144 145
f 126 145 127
f 127 145 146
f 127 146 128
f 128 146 129
f 129 131 130
f 129 146 147
f 129 147 131
f 131 147 148
f 131 148 149
f 131 149 132
f 132 149 150
f 132 150 151
f 132 151 152
f 132 152 153
f 132 153 133
f 133 154 155
f 133 155 156
f 133 156 157
f 133 157 158
f 133 158 134
f 133 153 159
f 133 159 154
f 135 136 137
f 136 160 161
f 136 161 137
f 137 161 162
f 137 162 138
f 138 162 163
f 138 163 143
f 139 164 165
f 139 165 140
f 139 166 164
f 141 143 167
f 141 167 168
f 141 168 169
f 141 169 170
f 141 170 144
f 141 144 142
f 143 163 171
f 143 171 167
f 144 170 172
f 144 172 173
f 144 173 145
f 145 174 146
f 145 173 175
f 145 175 174
f 146 174 147
f 147 176 177
f 147 177 178
f 147 178 179
f 147 179 148
f 147 174 176
f 148 179 180
f 148 180 181
f 148 181 150
f 148 150 149
f 150 182 183
f 150 183 151
f 150 181 184
f 150 184 182
f 151 183 152
f 152 185 153
f 152 183 185
f 153 185 159
f 154 159 186
f 156 187 157
f 157 187 158
f 159 188 189
f 159 189 190
f 159 190 186
f 159 185 191
f 159 191 188
f 160 192 161
f 160 193 194
f 160 194 192
f 161 192 162
f 162 192 163
f 163 195 171
f 163 192 194
f 163 194 196
f 163 196 197
f 163 197 195
f 164 166 198
f 166 199 231
f 166 231 253
f 166 253 252
f 166 252 285
f 166 285 262
f 166 262 230
f 166 230 198
f 167 171 200
f 167 200 201
f 167 201 168
f 168 201 202
f 168 202 169
f 169 202 172
f 169 172 170
f 171 195 203
f 171 203 200
f 172 202 201
f 172 201 204
f 172 204 205
f 172 205 173
f 173 205 204
f 173 204 206
f 173 206 175
f 174 175 176
f 175 207 208
f 175 208 176
f 175 206 207
f 176 208 209
f 176 209 178
f 176 178 177
f 178 210 211
f 178 211 179
f 178 209 210
f 179 211 212
f 179 212 180
f 180 212 213
f 180 213 184
f 180 184 181
f 182 214 183
f 182 184 215
f 182 215 214
f 183 214 188
f 183 188 191
f 183 191 185
f 184 213 216
f 184 216 215
f 188 214 217
f 188 217 189
f 189 217 214
f 189 214 215
f 189 215 218
f 189 218 219
f 189 219 220
f 189 220 190
f 190 220 221
f 190 221 222
f 190 222 199
f 193 223 224
f 193 224 194
f 194 224 225
f 194 225 226
f 194 226 196
f 195 227 203
f 195 197 228
f 195 228 227
f 196 226 197
f 197 226 225
f 197 225 229
f 197 229 228
f 199 222 231
f 200 228 232
f 200 232 233
f 200 233 201
f 200 203 227
f 200 227 228
f 201 233 234
f 201 234 207
f 201 207 206
f 201 206 204
f 207 234 235
f 207 235 208
f 208 235 236
f 208 236 209
f 209 236 237
f 209 237 210
f 210 237 238
f 210 238 211
f 211 238 239
f 211 239 213
f 211 213 240
f 211 240 212
f 212 240 213
f 213 239 241
f 213 241 242
f 213 242 216
f 215 216 243
f 215 243 244
f 215 244 245
f 215 245 218
f 216 246 243
f 216 242 246
f 218 245 247
f 218 247 248
f 218 248 249
f 218 249 250
f 218 250 220
f 218 220 219
f 220 250 221
f 221 250 222
f 222 250 251
f 222 251 252
f 222 252 253
f 222 253 231
f 223 254 224
f 224 254 255
f 224 255 225
f 225 256 229
f 225 255 257
f 225 257 258
f 225 258 259
f 225 259 260
f 225 260 256
f 228 229 261
f 228 261 256
f 228 256 232
f 229 256 261
f 230 262 263
f 232 256 233
f 233 264 234
f 233 256 265
f 233 265 266
f 233 266 267
f 233 267 268
f 233 268 264
f 234 264 235
f 235 264 269
f 235 269 236
f 236 269 270
f 236 270 237
f 237 270 241
f 237 241 271
f 237 271 238
f 238 271 239
f 239 271 241
f 241 270 272
f 241 272 273
f 241 273 242
f 242 274 246
f 242 273 267
f 242 267 274
f 243 246 244
f 244 246 275
f 244 275 276
f 244 276 277
f 244 277 245
f 245 277 278
f 245 278 279
f 245 279 247
f 246 280 281
f 246 281 282
f 246 282 283
f 246 283 275
f 246 274 280
f 247 279 260
f 247 260 248
f 248 260 259
f 248 259 249
f 249 262 250
f 249 259 262
f 250 262 251
f 251 284 252
f 251 262 285
f 251 285 284
f 252 284 285
f 254 286 255
f 255 286 257
f 256 260 287
f 256 287 283
f 256 283 282
f 256 282 280
f 256 280 274
f 256 274 266
f 256 266 265
f 259 288 262
f 260 279 278
f 260 278 277
f 260 277 287
f 262 289 263
f 262 288 289
f 264 268 273
f 264 273 272
f 264 272 269
f 266 274 267
f 267 273 268
f 269 272 270
f 275 283 277
f 275 277 276
f 277 283 287
f 280 282 281

