# https://github.com/mikedh/trimesh
v -0.02899983 0.00560142 0.00769198
v -0.02891391 0.00560142 0.00750124
v -0.02168416 0.00560142 0.00769198
v -0.02897678 0.00574986 0.00769198
v -0.02890553 0.00574986 0.00753249
v -0.02860376 0.00560142 0.00686325
v -0.02859538 0.00574986 0.00688463
v -0.00759347 0.00560142 0.00707455
v -0.00759347 0.02164430 0.00769198
v -0.02882590 0.00651524 0.00769198
v -0.02875045 0.00688866 0.00769198
v -0.02871902 0.00704405 0.00769198
v -0.02816788 0.00560142 0.00608713
v -0.02814274 0.00574986 0.00607645
v -0.02845917 0.00704405 0.00715429
v -0.02748263 0.00672167 0.00526004
v -0.00759347 0.00560142 0.00224519
v -0.00759347 0.02929580 0.00769198
v -0.02860586 0.00749864 0.00769198
v -0.02758112 0.00560142 0.00510301
v -0.02757274 0.00574986 0.00511617
v -0.02845079 0.00803441 0.00769198
v -0.02827895 0.00824083 0.00748069
v -0.02778649 0.00710899 0.00598108
v -0.02761255 0.00833824 0.00634036
v -0.02734223 0.00758446 0.00548614
v -0.02704675 0.00710899 0.00481033
v -0.02634473 0.00704405 0.00378263
v -0.02601782 0.00601195 0.00293005
v -0.02715362 0.00574986 0.00446913
v -0.02025916 0.00560142 -0.00069073
v -0.00759347 0.01998365 -0.00067346
v -0.00759347 0.02915200 0.00743465
v -0.00860563 0.02874843 0.00732119
v -0.00862659 0.02894558 0.00769198
v -0.02753502 0.00560142 0.00502984
v -0.02835858 0.00834288 0.00769198
v -0.02831038 0.00849828 0.00769198
v -0.02774248 0.00964867 0.00730475
v -0.02746167 0.00922887 0.00658701
v -0.02721020 0.00833824 0.00569332
v -0.02648932 0.01094750 0.00600410
v -0.02601782 0.01139282 0.00552560
v -0.02617499 0.01053002 0.00530197
v -0.02633635 0.00963244 0.00507670
v -0.02586694 0.00704405 0.00313641
v -0.02453205 0.01092663 0.00320383
v -0.02469341 0.01000585 0.00297609
v -0.02484639 0.00914306 0.00276562
v -0.02481076 0.00645958 0.00152170
v -0.02489040 0.00574986 0.00142551
v -0.02560708 0.00564781 0.00231754
v -0.02565109 0.00560142 0.00236441
v -0.02639712 0.00560142 0.00335922
v -0.02642646 0.00564781 0.00341266
v -0.02709495 0.00560142 0.00435732
v -0.02716200 0.00560142 0.00445597
v -0.02155423 0.00560142 -0.00068250
v -0.02025916 0.00574986 -0.00069484
v -0.00861401 0.01998365 -0.00070059
v -0.00759347 0.02127784 -0.00069566
v -0.00759347 0.02864638 0.00657632
v -0.00990908 0.02847243 0.00769198
v -0.00963037 0.02857680 0.00769198
v -0.00816975 0.02846779 0.00660591
v -0.00903313 0.02831472 0.00685667
v -0.01120206 0.02727101 0.00644724
v -0.02756855 0.01085241 0.00769198
v -0.02755178 0.01090343 0.00769198
v -0.02731289 0.01009167 0.00682872
v -0.02702370 0.00964867 0.00612413
v -0.02629234 0.01222082 0.00639873
v -0.02484848 0.01171057 0.00405230
v -0.02568881 0.01094750 0.00483499
v -0.02585646 0.01222082 0.00575169
v -0.02514606 0.00695128 0.00216051
v -0.02498889 0.00833824 0.00258064
v -0.02367915 0.01192626 0.00259955
v -0.02388661 0.01092663 0.00233892
v -0.02357647 0.00662425 0.00018076
v -0.02434345 0.00574986 0.00077847
v -0.02465988 0.00732237 0.00170586
v -0.02349264 0.01027026 0.00155047
v -0.02383422 0.00833824 0.00115584
v -0.02411713 0.00697447 0.00092892
v -0.02435602 0.00560142 0.00076367
v -0.02484010 0.00560142 0.00133753
v -0.02490087 0.00560142 0.00141071
v -0.02560918 0.00560142 0.00231015
v -0.02284720 0.00560142 -0.00038242
v -0.02155423 0.00574986 -0.00068004
v -0.02025916 0.00833824 -0.00070553
v -0.02025916 0.00704405 -0.00070553
v -0.00990908 0.01998365 -0.00070553
v -0.00861401 0.02127784 -0.00066606
v -0.00759347 0.02257203 -0.00046546
v -0.00759347 0.02856985 0.00644970
v -0.01088143 0.02808742 0.00769198
v -0.01191036 0.02713185 0.00667087
v -0.00948997 0.02718288 0.00531184
v -0.01035125 0.02702748 0.00554533
v -0.00991537 0.02747744 0.00601643
v -0.01120206 0.02686049 0.00580020
v -0.02717039 0.01092663 0.00706879
v -0.02735061 0.01146008 0.00769198
v -0.02614355 0.01298388 0.00662565
v -0.02516073 0.01217443 0.00475771
v -0.02465150 0.01257336 0.00431045
v -0.02344863 0.01278906 0.00289963
v -0.02310915 0.01230200 0.00217860
v -0.02240085 0.01222082 0.00133178
v -0.02204879 0.01127453 0.00039863
v -0.02336900 0.01092663 0.00169188
v -0.02261459 0.00833824 -0.00003711
v -0.02369591 0.00574986 0.00008046
v -0.02313220 0.00975536 0.00092563
v -0.02225625 0.01041173 0.00020131
v -0.02239665 0.00963244 0.00009279
v -0.02370849 0.00560142 0.00007141
v -0.02284720 0.00574986 -0.00037009
v -0.02155423 0.00833824 -0.00051314
v -0.02155423 0.00704405 -0.00060851
v -0.02025916 0.00963244 -0.00067100
v -0.01896619 0.01092663 -0.00070717
v -0.01638024 0.01480920 -0.00070471
v -0.01379010 0.01739759 -0.00070388
v -0.01249713 0.01868946 -0.00068909
v -0.00990908 0.02127784 -0.00056165
v -0.01120206 0.01998365 -0.00064222
v -0.00861401 0.02257203 -0.00033227
v -0.00759347 0.02356471 0.00000153
v -0.00759347 0.02815932 0.00581500
v -0.01114757 0.02796682 0.00769198
v -0.01306084 0.02705068 0.00769198
v -0.01275908 0.02721303 0.00769198
v -0.01240283 0.02728261 0.00746836
v -0.01116224 0.02616933 0.00475688
v -0.01156669 0.02567299 0.00430881
v -0.01215136 0.02599074 0.00517207
v -0.01246150 0.02643837 0.00610769
v -0.01349672 0.02602321 0.00640695
v -0.01546657 0.02569154 0.00769198
v -0.01483999 0.02603249 0.00765663
v -0.00861401 0.02733364 0.00510548
v -0.00990908 0.02600697 0.00386073
v -0.01070540 0.02587013 0.00404901
v -0.02717458 0.01191699 0.00769198
v -0.02645579 0.01345703 0.00769198
v -0.02632377 0.01345471 0.00742889
v -0.02622528 0.01391858 0.00769198
v -0.02608697 0.01418066 0.00769198
v -0.02589837 0.01384668 0.00703590
v -0.02503709 0.01454248 0.00637982
v -0.02544153 0.01351965 0.00607151
v -0.02498470 0.01319262 0.00517290
v -0.02250143 0.01338745 0.00224355
v -0.02220386 0.01287023 0.00154472
v -0.02442518 0.01357995 0.00475771
v -0.02373573 0.01351501 0.00382867
v -0.02212632 0.01662988 0.00423071
v -0.02204250 0.01520581 0.00303364
v -0.02231493 0.01434301 0.00270725
v -0.02177636 0.01222082 0.00068392
v -0.02092556 0.01289575 0.00023749
v -0.02113092 0.01222082 0.00010348
v -0.02265022 0.01087560 0.00085822
v -0.02155423 0.00963244 -0.00034953
v -0.02159195 0.01087560 -0.00005356
v -0.02025916 0.01092663 -0.00056905
v -0.01896619 0.01222082 -0.00064551
v -0.01767321 0.01351501 -0.00068991
v -0.01767321 0.01480920 -0.00059289
v -0.01638024 0.01610339 -0.00060604
v -0.01508517 0.01739759 -0.00060522
v -0.01379010 0.01868946 -0.00059042
v -0.01120206 0.02127784 -0.00030103
v -0.01249713 0.01998365 -0.00048025
v -0.00984203 0.02260218 -0.00004205
v -0.00861401 0.02339540 0.00010594
v -0.00759347 0.02423036 0.00061321
v -0.00759347 0.02746352 0.00480704
v -0.01239864 0.02738930 0.00769198
v -0.01484627 0.02604640 0.00769198
v -0.01088982 0.02468959 0.00261106
v -0.01175110 0.02445534 0.00291196
v -0.01249713 0.02475453 0.00384100
v -0.01254952 0.02543642 0.00475688
v -0.01458223 0.02460145 0.00531349
v -0.01301474 0.02572633 0.00554451
v -0.01436010 0.02575880 0.00679337
v -0.01593179 0.02463393 0.00654590
v -0.01679517 0.02437184 0.00695944
v -0.01639072 0.02507924 0.00769198
v -0.00759347 0.02671437 0.00375961
v -0.00759347 0.02593276 0.00267354
v -0.00808383 0.02584694 0.00278618
v -0.00990908 0.02553383 0.00321452
v -0.00759347 0.02655434 0.00353598
v -0.00990908 0.02488673 0.00235865
v -0.02563433 0.01495532 0.00769198
v -0.02505176 0.01585754 0.00763443
v -0.02475628 0.01540527 0.00677117
v -0.02331452 0.01646985 0.00568839
v -0.02359323 0.01560706 0.00530197
v -0.02472484 0.01405542 0.00551738
v -0.02193143 0.01373303 0.00184481
v -0.02079563 0.01527771 0.00166804
v -0.02106806 0.01441491 0.00138029
v -0.02142850 0.01331323 0.00103087
v -0.02325584 0.01506897 0.00443871
v -0.02245324 0.01714014 0.00509397
v -0.02217243 0.01800061 0.00546558
v -0.02190838 0.01749964 0.00471002
v -0.02090669 0.01674817 0.00284208
v -0.02165272 0.01625879 0.00336908
v -0.02117912 0.01588538 0.00253048
v -0.02065103 0.01375854 0.00051784
v -0.01950266 0.01530322 0.00035341
v -0.01978765 0.01444043 0.00012238
v -0.02025916 0.01222082 -0.00031500
v -0.02023611 0.01340136 0.00002126
v -0.01896619 0.01351501 -0.00048683
v -0.01902905 0.01484631 -0.00012180
v -0.01777799 0.01620776 -0.00017359
v -0.01518785 0.01879151 -0.00017195
v -0.01382363 0.02004395 -0.00011851
v -0.01237349 0.02125001 0.00003030
v -0.01120206 0.02212904 0.00011334
v -0.00936423 0.02326320 0.00021200
v -0.00871670 0.02412831 0.00093550
v -0.00759347 0.02478004 0.00123723
v -0.00990908 0.02436720 0.00171161
v -0.01097154 0.02347194 0.00127752
v -0.01136132 0.02396364 0.00208405
v -0.01183492 0.02320985 0.00155787
v -0.01249713 0.02357631 0.00243347
v -0.01331231 0.02332350 0.00271876
v -0.01249713 0.02422340 0.00319479
v -0.01417569 0.02305445 0.00304598
v -0.01318238 0.02453651 0.00410409
v -0.01404576 0.02426283 0.00445022
v -0.01508307 0.02386390 0.00478401
v -0.01611829 0.02346498 0.00511781
v -0.01698167 0.02318666 0.00546558
v -0.01544351 0.02432777 0.00568345
v -0.01645568 0.02391957 0.00600574
v -0.01732115 0.02444838 0.00769198
v -0.01712417 0.02459218 0.00769198
v -0.01740707 0.02350905 0.00632803
v -0.01827045 0.02317042 0.00679090
v -0.01772770 0.02390565 0.00730639
v -0.00759347 0.02560805 0.00225670
v -0.00759347 0.02541322 0.00200759
v -0.00921754 0.02449708 0.00156527
v -0.02507481 0.01587610 0.00769198
v -0.02467874 0.01648840 0.00769198
v -0.02361419 0.01693604 0.00655165
v -0.02289540 0.01746717 0.00600821
v -0.02029269 0.01485791 0.00086726
v -0.02059655 0.01623096 0.00213749
v -0.01987357 0.01610339 0.00127834
v -0.02333966 0.01779651 0.00699233
v -0.02247628 0.01839722 0.00632885
v -0.02213471 0.01926002 0.00682214
v -0.02189371 0.01877295 0.00596874
v -0.02118541 0.01858973 0.00490240
v -0.02095489 0.01809339 0.00408189
v -0.02121055 0.01739759 0.00377194
v -0.01964096 0.01678064 0.00151923
v -0.01902905 0.01620776 0.00057375
v -0.01827884 0.01670874 0.00028353
v -0.01863928 0.01584595 0.00005333
v -0.01741546 0.01713782 0.00005415
v -0.01612039 0.01842737 0.00005497
v -0.01482322 0.01965198 0.00005497
v -0.01341499 0.02080006 0.00012567
v -0.01186007 0.02193189 0.00024653
v -0.01022761 0.02305445 0.00041425
v -0.00984203 0.02364589 0.00086726
v -0.00835626 0.02464784 0.00139097
v -0.01249713 0.02300111 0.00178643
v -0.01272345 0.02166285 0.00052606
v -0.01383201 0.02130335 0.00087301
v -0.01338775 0.02207569 0.00138851
v -0.01425113 0.02180665 0.00167380
v -0.01378172 0.02256507 0.00219587
v -0.01485885 0.02219166 0.00253624
v -0.01572223 0.02191798 0.00284948
v -0.01472054 0.02340004 0.00390760
v -0.01558392 0.02312403 0.00425455
v -0.01704873 0.02194581 0.00411067
v -0.01777171 0.02291298 0.00596874
v -0.01784086 0.02404713 0.00769198
v -0.01956133 0.02187159 0.00678761
v -0.02037861 0.02139845 0.00722253
v -0.01990920 0.02220790 0.00765005
v -0.01992387 0.02222413 0.00769198
v -0.01924700 0.02286427 0.00769198
v -0.01858689 0.02343715 0.00765334
v -0.01832075 0.02192726 0.00542694
v -0.01963049 0.02064930 0.00540885
v -0.02354084 0.01809803 0.00769198
v -0.02287026 0.01871497 0.00733928
v -0.02085011 0.02057276 0.00679501
v -0.02118960 0.01962647 0.00607645
v -0.02091927 0.01935047 0.00541379
v -0.02240294 0.01957313 0.00769198
v -0.02116445 0.02092298 0.00765828
v -0.02056302 0.02157935 0.00769198
v -0.01966402 0.01809107 0.00279193
v -0.01707388 0.02067713 0.00279357
v -0.01885302 0.01728626 0.00127505
v -0.01921137 0.01764112 0.00192866
v -0.01791630 0.01893299 0.00192949
v -0.01705292 0.01936207 0.00152334
v -0.01648292 0.01879151 0.00053757
v -0.01568660 0.01929017 0.00028682
v -0.01427837 0.02051478 0.00035670
v -0.01520881 0.02160487 0.00214078
v -0.01508517 0.02088123 0.00128492
v -0.01575785 0.02065162 0.00152581
v -0.01859736 0.02345106 0.00769198
v -0.02055464 0.02027357 0.00607645
v -0.02335853 0.01834156 0.00769198
v -0.02117703 0.02093226 0.00769198
v -0.01661914 0.02022486 0.00193113
v -0.01626498 0.01987000 0.00128163
v -0.01518785 0.02004395 0.00058197
f 1 2 6
f 1 6 13
f 1 13 20
f 1 20 36
f 1 36 57
f 1 57 56
f 1 56 54
f 1 54 53
f 1 53 89
f 1 89 88
f 1 88 87
f 1 87 86
f 1 86 119
f 1 119 90
f 1 90 58
f 1 58 31
f 1 31 17
f 1 17 8
f 1 8 3
f 1 3 9
f 1 9 18
f 1 18 35
f 1 35 64
f 1 64 63
f 1 63 98
f 1 98 133
f 1 133 182
f 1 182 135
f 1 135 134
f 1 134 183
f 1 183 142
f 1 142 193
f 1 193 248
f 1 248 247
f 1 247 293
f 1 293 322
f 1 322 298
f 1 298 297
f 1 297 309
f 1 309 325
f 1 325 307
f 1 307 324
f 1 324 302
f 1 302 256
f 1 256 255
f 1 255 200
f 1 200 151
f 1 151 150
f 1 150 148
f 1 148 147
f 1 147 105
f 1 105 69
f 1 69 68
f 1 68 38
f 1 38 37
f 1 37 22
f 1 22 19
f 1 19 12
f 1 12 11
f 1 11 10
f 1 10 4
f 1 4 5
f 1 5 2
f 2 5 7
f 2 7 6
f 3 8 9
f 4 10 5
f 5 10 11
f 5 11 12
f 5 12 7
f 6 7 14
f 6 14 13
f 7 12 15
f 7 15 16
f 7 16 14
f 8 17 32
f 8 32 61
f 8 61 96
f 8 96 131
f 8 131 180
f 8 180 231
f 8 231 253
f 8 253 252
f 8 252 195
f 8 195 198
f 8 198 194
f 8 194 181
f 8 181 132
f 8 132 97
f 8 97 62
f 8 62 33
f 8 33 18
f 8 18 9
f 12 19 15
f 13 14 21
f 13 21 20
f 14 16 21
f 15 19 22
f 15 22 23
f 15 23 24
f 15 24 16
f 16 24 25
f 16 25 26
f 16 26 27
f 16 27 28
f 16 28 29
f 16 29 30
f 16 30 21
f 17 31 32
f 18 33 34
f 18 34 35
f 20 21 36
f 21 30 36
f 22 37 23
f 23 25 24
f 23 37 38
f 23 38 39
f 23 39 25
f 25 39 40
f 25 40 26
f 26 40 41
f 26 41 42
f 26 42 43
f 26 43 44
f 26 44 27
f 27 44 45
f 27 45 28
f 28 46 29
f 28 45 44
f 28 44 47
f 28 47 48
f 28 48 49
f 28 49 46
f 29 46 50
f 29 50 51
f 29 51 52
f 29 52 53
f 29 53 54
f 29 54 55
f 29 55 30
f 30 55 54
f 30 54 56
f 30 56 57
f 30 57 36
f 31 58 59
f 31 59 32
f 32 59 60
f 32 60 61
f 33 62 34
f 34 63 64
f 34 64 35
f 34 62 65
f 34 65 66
f 34 66 67
f 34 67 63
f 38 68 39
f 39 68 69
f 39 69 40
f 40 69 70
f 40 70 41
f 41 70 71
f 41 71 42
f 42 71 72
f 42 72 43
f 43 73 47
f 43 47 74
f 43 74 44
f 43 72 75
f 43 75 73
f 44 74 47
f 46 76 50
f 46 49 77
f 46 77 76
f 47 73 78
f 47 78 79
f 47 79 48
f 48 79 49
f 49 79 77
f 50 80 81
f 50 81 51
f 50 76 82
f 50 82 83
f 50 83 84
f 50 84 85
f 50 85 80
f 51 81 86
f 51 86 87
f 51 87 88
f 51 88 89
f 51 89 52
f 52 89 53
f 58 90 91
f 58 91 92
f 58 92 93
f 58 93 59
f 59 93 60
f 60 94 61
f 60 93 94
f 61 94 95
f 61 95 96
f 62 97 65
f 63 67 99
f 63 99 98
f 65 97 100
f 65 100 101
f 65 101 102
f 65 102 66
f 66 102 67
f 67 102 101
f 67 101 103
f 67 103 99
f 69 104 70
f 69 105 104
f 70 104 72
f 70 72 71
f 72 104 105
f 72 105 106
f 72 106 75
f 73 75 107
f 73 107 108
f 73 108 78
f 75 106 107
f 76 77 82
f 77 79 82
f 78 108 109
f 78 109 110
f 78 110 111
f 78 111 112
f 78 112 113
f 78 113 79
f 79 113 83
f 79 83 82
f 80 114 115
f 80 115 81
f 80 85 116
f 80 116 117
f 80 117 118
f 80 118 114
f 81 115 86
f 83 113 117
f 83 117 116
f 83 116 84
f 84 116 85
f 86 115 119
f 90 119 120
f 90 120 121
f 90 121 122
f 90 122 91
f 91 122 123
f 91 123 92
f 92 123 124
f 92 124 93
f 93 124 94
f 94 124 125
f 94 125 126
f 94 126 127
f 94 127 95
f 95 128 96
f 95 127 129
f 95 129 128
f 96 128 130
f 96 130 131
f 97 132 100
f 98 99 133
f 99 134 135
f 99 135 136
f 99 136 133
f 99 103 137
f 99 137 138
f 99 138 139
f 99 139 140
f 99 140 141
f 99 141 142
f 99 142 143
f 99 143 134
f 100 132 144
f 100 144 145
f 100 145 146
f 100 146 101
f 101 146 137
f 101 137 103
f 105 147 106
f 106 148 149
f 106 149 150
f 106 150 151
f 106 151 152
f 106 152 153
f 106 153 154
f 106 154 155
f 106 155 108
f 106 108 107
f 106 147 148
f 108 155 109
f 109 156 157
f 109 157 110
f 109 155 158
f 109 158 159
f 109 159 160
f 109 160 161
f 109 161 162
f 109 162 156
f 110 157 111
f 111 163 112
f 111 157 163
f 112 163 164
f 112 164 165
f 112 165 117
f 112 117 166
f 112 166 113
f 113 166 117
f 114 120 115
f 114 118 167
f 114 167 120
f 115 120 119
f 117 165 168
f 117 168 118
f 118 168 167
f 120 167 121
f 121 167 169
f 121 169 123
f 121 123 122
f 123 169 170
f 123 170 171
f 123 171 124
f 124 171 125
f 125 172 173
f 125 173 126
f 125 171 172
f 126 174 127
f 126 173 174
f 127 174 175
f 127 175 129
f 128 176 130
f 128 129 175
f 128 175 177
f 128 177 176
f 130 178 179
f 130 179 131
f 130 176 178
f 131 179 180
f 132 181 144
f 133 136 182
f 134 143 183
f 135 182 136
f 137 146 138
f 138 146 184
f 138 184 185
f 138 185 186
f 138 186 187
f 138 187 139
f 139 187 188
f 139 188 189
f 139 189 141
f 139 141 140
f 141 190 142
f 141 189 191
f 141 191 190
f 142 190 191
f 142 191 192
f 142 192 193
f 142 183 143
f 144 181 194
f 144 194 145
f 145 195 196
f 145 196 197
f 145 197 146
f 145 194 198
f 145 198 195
f 146 197 199
f 146 199 184
f 148 150 149
f 151 200 152
f 152 200 201
f 152 201 153
f 153 201 202
f 153 202 203
f 153 203 204
f 153 204 205
f 153 205 154
f 154 205 155
f 155 205 158
f 156 206 157
f 156 162 206
f 157 206 207
f 157 207 208
f 157 208 209
f 157 209 164
f 157 164 163
f 158 205 210
f 158 210 159
f 159 210 160
f 160 204 211
f 160 211 212
f 160 212 213
f 160 213 214
f 160 214 215
f 160 215 161
f 160 210 205
f 160 205 204
f 161 215 214
f 161 214 162
f 162 214 216
f 162 216 207
f 162 207 206
f 164 209 217
f 164 217 218
f 164 218 219
f 164 219 165
f 165 220 168
f 165 219 221
f 165 221 220
f 167 168 220
f 167 220 169
f 169 220 222
f 169 222 172
f 169 172 170
f 170 172 171
f 172 223 224
f 172 224 173
f 172 222 223
f 173 224 174
f 174 225 175
f 174 224 225
f 175 225 226
f 175 226 177
f 176 227 228
f 176 228 178
f 176 177 226
f 176 226 227
f 178 229 179
f 178 228 229
f 179 229 180
f 180 229 230
f 180 230 231
f 184 199 232
f 184 232 233
f 184 233 234
f 184 234 185
f 185 234 235
f 185 235 236
f 185 236 237
f 185 237 238
f 185 238 186
f 186 238 239
f 186 239 240
f 186 240 187
f 187 240 188
f 188 191 189
f 188 240 241
f 188 241 242
f 188 242 243
f 188 243 244
f 188 244 245
f 188 245 191
f 191 245 246
f 191 246 192
f 192 247 248
f 192 248 193
f 192 246 244
f 192 244 249
f 192 249 250
f 192 250 251
f 192 251 247
f 195 252 199
f 195 199 196
f 196 199 197
f 199 253 254
f 199 254 232
f 199 252 253
f 200 255 201
f 201 255 256
f 201 256 257
f 201 257 202
f 202 257 258
f 202 258 203
f 203 258 212
f 203 212 204
f 204 212 211
f 207 218 259
f 207 259 208
f 207 216 214
f 207 214 260
f 207 260 261
f 207 261 218
f 208 259 209
f 209 259 217
f 212 258 262
f 212 262 263
f 212 263 264
f 212 264 265
f 212 265 266
f 212 266 267
f 212 267 268
f 212 268 213
f 213 268 214
f 214 269 260
f 214 268 267
f 214 267 269
f 217 259 218
f 218 261 269
f 218 269 270
f 218 270 271
f 218 271 272
f 218 272 219
f 219 272 223
f 219 223 221
f 220 221 223
f 220 223 222
f 223 272 224
f 224 273 225
f 224 272 273
f 225 274 275
f 225 275 226
f 225 273 274
f 226 275 276
f 226 276 227
f 227 276 228
f 228 276 277
f 228 277 278
f 228 278 229
f 229 278 279
f 229 279 232
f 229 232 254
f 229 254 230
f 230 254 280
f 230 280 231
f 231 280 253
f 232 279 233
f 233 235 234
f 233 279 278
f 233 278 277
f 233 277 235
f 235 281 237
f 235 237 236
f 235 277 282
f 235 282 283
f 235 283 284
f 235 284 285
f 235 285 281
f 237 281 286
f 237 286 287
f 237 287 288
f 237 288 239
f 237 239 238
f 239 288 240
f 240 288 241
f 241 288 289
f 241 289 290
f 241 290 242
f 242 290 243
f 243 290 244
f 244 290 288
f 244 288 291
f 244 291 292
f 244 292 250
f 244 250 249
f 244 246 245
f 247 251 293
f 250 294 295
f 250 295 296
f 250 296 297
f 250 297 298
f 250 298 299
f 250 299 251
f 250 292 300
f 250 300 301
f 250 301 294
f 251 299 293
f 253 280 254
f 256 302 262
f 256 262 257
f 257 262 258
f 260 269 261
f 262 302 303
f 262 303 263
f 263 303 264
f 264 304 305
f 264 305 306
f 264 306 265
f 264 303 307
f 264 307 308
f 264 308 309
f 264 309 304
f 265 306 266
f 266 306 267
f 267 310 269
f 267 306 301
f 267 301 311
f 267 311 310
f 269 312 271
f 269 271 270
f 269 310 313
f 269 313 314
f 269 314 315
f 269 315 312
f 271 312 316
f 271 316 317
f 271 317 274
f 271 274 273
f 271 273 272
f 274 317 275
f 275 317 318
f 275 318 276
f 276 318 277
f 277 318 282
f 281 285 286
f 282 318 283
f 283 285 284
f 283 318 285
f 285 319 288
f 285 288 287
f 285 287 286
f 285 318 320
f 285 320 319
f 288 290 289
f 288 319 321
f 288 321 291
f 291 300 292
f 291 321 311
f 291 311 301
f 291 301 300
f 293 299 322
f 294 301 323
f 294 323 304
f 294 304 295
f 295 309 296
f 295 304 309
f 296 309 297
f 298 322 299
f 301 306 323
f 302 324 303
f 303 324 307
f 304 323 306
f 304 306 305
f 307 325 308
f 308 325 309
f 310 311 313
f 311 321 326
f 311 326 314
f 311 314 313
f 312 315 327
f 312 327 316
f 314 326 315
f 315 326 321
f 315 321 327
f 316 327 317
f 317 327 321
f 317 321 328
f 317 328 318
f 318 328 321
f 318 321 320
f 319 320 321

