mtllib material.mtl
usemtl Coaster.001
v 0.04623100 0.00000000 -0.03150100
v 0.03522100 0.00000000 -0.03867600
v 0.02282800 0.00000000 -0.04421200
v 0.00952700 0.00000000 -0.04789400
v -0.00417100 0.00000000 -0.04958200
v -0.01774000 0.00000000 -0.04921100
v -0.03065700 0.00000000 -0.04679500
v 0.04814700 0.00000000 -0.01880400
v 0.03556100 0.00000000 -0.02500100
v 0.02157200 0.00000000 -0.03005700
v 0.00671900 0.00000000 -0.03378000
v -0.00842800 0.00000000 -0.03602500
v -0.02328600 0.00000000 -0.03670600
v -0.03728600 0.00000000 -0.03579800
v 0.04813600 0.00000000 -0.00499800
v 0.03439900 0.00000000 -0.00969100
v 0.01931800 0.00000000 -0.01389800
v 0.00347200 0.00000000 -0.01745700
v -0.01252900 0.00000000 -0.02023300
v -0.02807200 0.00000000 -0.02211700
v -0.04255900 0.00000000 -0.02303800
v 0.04623600 0.00000000 0.00919700
v 0.03184800 0.00000000 0.00633500
v 0.01623600 0.00000000 0.00323000
v -0.00000000 0.00000000 0.00000000
v -0.01623600 0.00000000 -0.00323000
v -0.03184800 0.00000000 -0.00633500
v -0.04623600 0.00000000 -0.00919700
v 0.04255900 0.00000000 0.02303800
v 0.02807200 0.00000000 0.02211700
v 0.01252900 0.00000000 0.02023300
v -0.00347200 0.00000000 0.01745700
v -0.01931800 0.00000000 0.01389800
v -0.03439900 0.00000000 0.00969100
v -0.04813600 0.00000000 0.00499800
v 0.03728600 0.00000000 0.03579800
v 0.02328600 0.00000000 0.03670600
v 0.00842800 0.00000000 0.03602500
v -0.00671900 0.00000000 0.03378000
v -0.02157200 0.00000000 0.03005700
v -0.03556100 0.00000000 0.02500100
v -0.04814700 0.00000000 0.01880400
v 0.03065700 0.00000000 0.04679500
v 0.01774000 0.00000000 0.04921100
v 0.00417100 0.00000000 0.04958200
v -0.00952700 0.00000000 0.04789400
v -0.02282800 0.00000000 0.04421200
v -0.03522100 0.00000000 0.03867600
v -0.04623100 0.00000000 0.03150100
v 0.04623100 0.00500000 -0.03150100
v 0.04814700 0.00500000 -0.01880400
v 0.04813600 0.00500000 -0.00499800
v 0.04623600 0.00500000 0.00919700
v 0.04255900 0.00500000 0.02303800
v 0.03728600 0.00500000 0.03579800
v 0.03065700 0.00500000 0.04679500
v 0.03522100 0.00500000 -0.03867600
v 0.03556100 0.00500000 -0.02500100
v 0.03439900 0.00500000 -0.00969100
v 0.03184800 0.00500000 0.00633500
v 0.02807200 0.00500000 0.02211700
v 0.02328600 0.00500000 0.03670600
v 0.01774000 0.00500000 0.04921100
v 0.02282800 0.00500000 -0.04421200
v 0.02157200 0.00500000 -0.03005700
v 0.01931800 0.00500000 -0.01389800
v 0.01623600 0.00500000 0.00323000
v 0.01252900 0.00500000 0.02023300
v 0.00842800 0.00500000 0.03602500
v 0.00417100 0.00500000 0.04958200
v 0.00952700 0.00500000 -0.04789400
v 0.00671900 0.00500000 -0.03378000
v 0.00347200 0.00500000 -0.01745700
v -0.00000000 0.00500000 0.00000000
v -0.00347200 0.00500000 0.01745700
v -0.00671900 0.00500000 0.03378000
v -0.00952700 0.00500000 0.04789400
v -0.00417100 0.00500000 -0.04958200
v -0.00842800 0.00500000 -0.03602500
v -0.01252900 0.00500000 -0.02023300
v -0.01623600 0.00500000 -0.00323000
v -0.01931800 0.00500000 0.01389800
v -0.02157200 0.00500000 0.03005700
v -0.02282800 0.00500000 0.04421200
v -0.01774000 0.00500000 -0.04921100
v -0.02328600 0.00500000 -0.03670600
v -0.02807200 0.00500000 -0.02211700
v -0.03184800 0.00500000 -0.00633500
v -0.03439900 0.00500000 0.00969100
v -0.03556100 0.00500000 0.02500100
v -0.03522100 0.00500000 0.03867600
v -0.03065700 0.00500000 -0.04679500
v -0.03728600 0.00500000 -0.03579800
v -0.04255900 0.00500000 -0.02303800
v -0.04623600 0.00500000 -0.00919700
v -0.04813600 0.00500000 0.00499800
v -0.04814700 0.00500000 0.01880400
v -0.04623100 0.00500000 0.03150100
v 0.00000000 0.00100000 -0.06000000
v -0.00045300 0.00000000 -0.05886900
v -0.00013300 0.00029300 -0.05966900
v -0.01244200 0.00000000 -0.05767100
v -0.01170500 0.00100000 -0.05884700
v -0.01192100 0.00029300 -0.05850300
v -0.02415300 0.00000000 -0.05409500
v -0.02296100 0.00100000 -0.05543300
v -0.02331000 0.00029300 -0.05504100
v -0.03306200 0.00000000 -0.04931600
v -0.03333400 0.00100000 -0.04988800
v -0.03327600 0.00029300 -0.04970400
v -0.04070100 0.00000000 -0.04306700
v -0.04242600 0.00100000 -0.04242600
v -0.04192100 0.00029300 -0.04261400
v -0.04849500 0.00000000 -0.03360600
v -0.04988800 0.00100000 -0.03333400
v -0.04948000 0.00029300 -0.03341400
v -0.05420200 0.00000000 -0.02296800
v -0.05543300 0.00100000 -0.02296100
v -0.05507200 0.00029300 -0.02296300
v -0.05769500 0.00000000 -0.01147600
v -0.05884700 0.00100000 -0.01170500
v -0.05851000 0.00029300 -0.01163800
v -0.05886600 0.00000000 0.00047800
v -0.06000000 0.00100000 0.00000000
v -0.05966800 0.00029300 0.00014000
v -0.05766400 0.00000000 0.01249000
v -0.05884700 0.00100000 0.01170500
v -0.05850100 0.00029300 0.01193500
v -0.05408400 0.00000000 0.02421300
v -0.05543300 0.00100000 0.02296100
v -0.05503800 0.00029300 0.02332800
v -0.04941800 0.00000000 0.03291000
v -0.04988800 0.00100000 0.03333400
v -0.04976400 0.00029300 0.03318600
v -0.04301600 0.00000000 0.04073400
v -0.04242600 0.00100000 0.04242600
v -0.04259900 0.00029300 0.04193100
v -0.03356500 0.00000000 0.04852000
v -0.03333400 0.00100000 0.04988800
v -0.03340200 0.00029300 0.04948700
v -0.02294700 0.00000000 0.05421500
v -0.02296100 0.00100000 0.05543300
v -0.02295700 0.00029300 0.05507600
v -0.01147700 0.00000000 0.05770100
v -0.01170500 0.00100000 0.05884700
v -0.01163900 0.00029300 0.05851100
v 0.00045300 0.00000000 0.05886900
v 0.00000000 0.00100000 0.06000000
v 0.00013300 0.00029300 0.05966900
v 0.01244200 0.00000000 0.05767100
v 0.01170500 0.00100000 0.05884700
v 0.01192100 0.00029300 0.05850300
v 0.02415300 0.00000000 0.05409500
v 0.02296100 0.00100000 0.05543300
v 0.02331000 0.00029300 0.05504100
v 0.03306200 0.00000000 0.04931600
v 0.03333400 0.00100000 0.04988800
v 0.03327600 0.00029300 0.04970400
v 0.04070100 0.00000000 0.04306700
v 0.04242600 0.00100000 0.04242600
v 0.04192100 0.00029300 0.04261400
v 0.04849500 0.00000000 0.03360600
v 0.04988800 0.00100000 0.03333400
v 0.04948000 0.00029300 0.03341400
v 0.05420200 0.00000000 0.02296800
v 0.05543300 0.00100000 0.02296100
v 0.05507200 0.00029300 0.02296300
v 0.05769500 0.00000000 0.01147600
v 0.05884700 0.00100000 0.01170500
v 0.05851000 0.00029300 0.01163800
v 0.05886600 0.00000000 -0.00047800
v 0.06000000 0.00100000 0.00000000
v 0.05966800 0.00029300 -0.00014000
v 0.05766400 0.00000000 -0.01249000
v 0.05884700 0.00100000 -0.01170500
v 0.05850100 0.00029300 -0.01193500
v 0.05408400 0.00000000 -0.02421300
v 0.05543300 0.00100000 -0.02296100
v 0.05503800 0.00029300 -0.02332800
v 0.04941800 0.00000000 -0.03291000
v 0.04988800 0.00100000 -0.03333400
v 0.04976400 0.00029300 -0.03318600
v 0.04301600 0.00000000 -0.04073400
v 0.04242600 0.00100000 -0.04242600
v 0.04259900 0.00029300 -0.04193100
v 0.03356500 0.00000000 -0.04852000
v 0.03333400 0.00100000 -0.04988800
v 0.03340200 0.00029300 -0.04948700
v 0.02294700 0.00000000 -0.05421500
v 0.02296100 0.00100000 -0.05543300
v 0.02295700 0.00029300 -0.05507600
v 0.01147700 0.00000000 -0.05770100
v 0.01170500 0.00100000 -0.05884700
v 0.01163900 0.00029300 -0.05851100
v -0.01170500 0.00400000 -0.05884700
v -0.01244200 0.00500000 -0.05767100
v -0.01192100 0.00470700 -0.05850300
v -0.01192100 0.00470700 -0.05850300
v -0.00045300 0.00500000 -0.05886900
v 0.00000000 0.00400000 -0.06000000
v -0.00013300 0.00470700 -0.05966900
v -0.00013300 0.00470700 -0.05966900
v -0.02296100 0.00400000 -0.05543300
v -0.02415300 0.00500000 -0.05409500
v -0.02331000 0.00470700 -0.05504100
v -0.02331000 0.00470700 -0.05504100
v -0.03333400 0.00400000 -0.04988800
v -0.03306200 0.00500000 -0.04931600
v -0.03327600 0.00470700 -0.04970400
v -0.03327600 0.00470700 -0.04970400
v -0.04242600 0.00400000 -0.04242600
v -0.04070100 0.00500000 -0.04306700
v -0.04192100 0.00470700 -0.04261400
v -0.04192100 0.00470700 -0.04261400
v -0.04988800 0.00400000 -0.03333400
v -0.04849500 0.00500000 -0.03360600
v -0.04948000 0.00470700 -0.03341400
v -0.04948000 0.00470700 -0.03341400
v -0.05543300 0.00400000 -0.02296100
v -0.05420200 0.00500000 -0.02296800
v -0.05507200 0.00470700 -0.02296300
v -0.05507200 0.00470700 -0.02296300
v -0.05884700 0.00400000 -0.01170500
v -0.05769500 0.00500000 -0.01147600
v -0.05851000 0.00470700 -0.01163800
v -0.05851000 0.00470700 -0.01163800
v -0.06000000 0.00400000 0.00000000
v -0.05886600 0.00500000 0.00047800
v -0.05966800 0.00470700 0.00014000
v -0.05966800 0.00470700 0.00014000
v -0.05884700 0.00400000 0.01170500
v -0.05766400 0.00500000 0.01249000
v -0.05850100 0.00470700 0.01193500
v -0.05850100 0.00470700 0.01193500
v -0.05543300 0.00400000 0.02296100
v -0.05408400 0.00500000 0.02421300
v -0.05503800 0.00470700 0.02332800
v -0.05503800 0.00470700 0.02332800
v -0.04988800 0.00400000 0.03333400
v -0.04941800 0.00500000 0.03291000
v -0.04976400 0.00470700 0.03318600
v -0.04976400 0.00470700 0.03318600
v -0.04242600 0.00400000 0.04242600
v -0.04301600 0.00500000 0.04073400
v -0.04259900 0.00470700 0.04193100
v -0.04259900 0.00470700 0.04193100
v -0.03333400 0.00400000 0.04988800
v -0.03356500 0.00500000 0.04852000
v -0.03340200 0.00470700 0.04948700
v -0.03340200 0.00470700 0.04948700
v -0.02296100 0.00400000 0.05543300
v -0.02294700 0.00500000 0.05421500
v -0.02295700 0.00470700 0.05507600
v -0.02295700 0.00470700 0.05507600
v -0.01170500 0.00400000 0.05884700
v -0.01147700 0.00500000 0.05770100
v -0.01163900 0.00470700 0.05851100
v -0.01163900 0.00470700 0.05851100
v 0.00000000 0.00400000 0.06000000
v 0.00045300 0.00500000 0.05886900
v 0.00013300 0.00470700 0.05966900
v 0.00013300 0.00470700 0.05966900
v 0.01170500 0.00400000 0.05884700
v 0.01244200 0.00500000 0.05767100
v 0.01192100 0.00470700 0.05850300
v 0.01192100 0.00470700 0.05850300
v 0.02296100 0.00400000 0.05543300
v 0.02415300 0.00500000 0.05409500
v 0.02331000 0.00470700 0.05504100
v 0.02331000 0.00470700 0.05504100
v 0.03333400 0.00400000 0.04988800
v 0.03306200 0.00500000 0.04931600
v 0.03327600 0.00470700 0.04970400
v 0.03327600 0.00470700 0.04970400
v 0.04242600 0.00400000 0.04242600
v 0.04070100 0.00500000 0.04306700
v 0.04192100 0.00470700 0.04261400
v 0.04192100 0.00470700 0.04261400
v 0.04988800 0.00400000 0.03333400
v 0.04849500 0.00500000 0.03360600
v 0.04948000 0.00470700 0.03341400
v 0.04948000 0.00470700 0.03341400
v 0.05543300 0.00400000 0.02296100
v 0.05420200 0.00500000 0.02296800
v 0.05507200 0.00470700 0.02296300
v 0.05507200 0.00470700 0.02296300
v 0.05884700 0.00400000 0.01170500
v 0.05769500 0.00500000 0.01147600
v 0.05851000 0.00470700 0.01163800
v 0.05851000 0.00470700 0.01163800
v 0.06000000 0.00400000 0.00000000
v 0.05886600 0.00500000 -0.00047800
v 0.05966800 0.00470700 -0.00014000
v 0.05966800 0.00470700 -0.00014000
v 0.05884700 0.00400000 -0.01170500
v 0.05766400 0.00500000 -0.01249000
v 0.05850100 0.00470700 -0.01193500
v 0.05850100 0.00470700 -0.01193500
v 0.05543300 0.00400000 -0.02296100
v 0.05408400 0.00500000 -0.02421300
v 0.05503800 0.00470700 -0.02332800
v 0.05503800 0.00470700 -0.02332800
v 0.04988800 0.00400000 -0.03333400
v 0.04941800 0.00500000 -0.03291000
v 0.04976400 0.00470700 -0.03318600
v 0.04976400 0.00470700 -0.03318600
v 0.04242600 0.00400000 -0.04242600
v 0.04301600 0.00500000 -0.04073400
v 0.04259900 0.00470700 -0.04193100
v 0.04259900 0.00470700 -0.04193100
v 0.03333400 0.00400000 -0.04988800
v 0.03356500 0.00500000 -0.04852000
v 0.03340200 0.00470700 -0.04948700
v 0.03340200 0.00470700 -0.04948700
v 0.02296100 0.00400000 -0.05543300
v 0.02294700 0.00500000 -0.05421500
v 0.02295700 0.00470700 -0.05507600
v 0.02295700 0.00470700 -0.05507600
v 0.01170500 0.00400000 -0.05884700
v 0.01147700 0.00500000 -0.05770100
v 0.01163900 0.00470700 -0.05851100
v 0.01163900 0.00470700 -0.05851100
vn -0.00000000 -1.00000000 -0.00000000
vn -0.00000000 -1.00000000 -0.00000000
vn -0.00000000 -1.00000000 -0.00000000
vn -0.00000000 -1.00000000 -0.00000000
vn -0.00000000 -1.00000000 -0.00000000
vn -0.00000000 -1.00000000 -0.00000000
vn -0.00000000 -1.00000000 -0.00000000
vn -0.00000000 -1.00000000 -0.00000000
vn -0.00000000 -1.00000000 -0.00000000
vn -0.00000000 -1.00000000 -0.00000000
vn -0.00000000 -1.00000000 -0.00000000
vn -0.00000000 -1.00000000 -0.00000000
vn -0.00000000 -1.00000000 -0.00000000
vn -0.00000000 -1.00000000 -0.00000000
vn -0.00000000 -1.00000000 -0.00000000
vn -0.00000000 -1.00000000 -0.00000000
vn -0.00000000 -1.00000000 -0.00000000
vn -0.00000000 -1.00000000 -0.00000000
vn -0.00000000 -1.00000000 -0.00000000
vn -0.00000000 -1.00000000 -0.00000000
vn -0.00000000 -1.00000000 -0.00000000
vn -0.00000000 -1.00000000 -0.00000000
vn -0.00000000 -1.00000000 -0.00000000
vn -0.00000000 -1.00000000 -0.00000000
vn -0.00000000 -1.00000000 -0.00000000
vn -0.00000000 -1.00000000 -0.00000000
vn -0.00000000 -1.00000000 -0.00000000
vn -0.00000000 -1.00000000 -0.00000000
vn -0.00000000 -1.00000000 -0.00000000
vn -0.00000000 -1.00000000 -0.00000000
vn -0.00000000 -1.00000000 -0.00000000
vn -0.00000000 -1.00000000 -0.00000000
vn -0.00000000 -1.00000000 -0.00000000
vn -0.00000000 -1.00000000 -0.00000000
vn -0.00000000 -1.00000000 -0.00000000
vn -0.00000000 -1.00000000 -0.00000000
vn -0.00000000 -1.00000000 -0.00000000
vn -0.00000000 -1.00000000 -0.00000000
vn -0.00000000 -1.00000000 -0.00000000
vn -0.00000000 -1.00000000 -0.00000000
vn -0.00000000 -1.00000000 -0.00000000
vn -0.00000000 -1.00000000 -0.00000000
vn -0.00000000 -1.00000000 -0.00000000
vn -0.00000000 -1.00000000 -0.00000000
vn -0.00000000 -1.00000000 -0.00000000
vn -0.00000000 -1.00000000 -0.00000000
vn -0.00000000 -1.00000000 -0.00000000
vn -0.00000000 -1.00000000 -0.00000000
vn -0.00000000 -1.00000000 -0.00000000
vn -0.00000000 1.00000000 -0.00000000
vn -0.00000000 1.00000000 -0.00000000
vn -0.00000000 1.00000000 -0.00000000
vn -0.00000000 1.00000000 -0.00000000
vn -0.00000000 1.00000000 -0.00000000
vn -0.00000000 1.00000000 -0.00000000
vn -0.00000000 1.00000000 -0.00000000
vn -0.00000000 1.00000000 -0.00000000
vn -0.00000000 1.00000000 -0.00000000
vn -0.00000000 1.00000000 -0.00000000
vn -0.00000000 1.00000000 -0.00000000
vn -0.00000000 1.00000000 -0.00000000
vn -0.00000000 1.00000000 -0.00000000
vn -0.00000000 1.00000000 -0.00000000
vn -0.00000000 1.00000000 -0.00000000
vn -0.00000000 1.00000000 -0.00000000
vn -0.00000000 1.00000000 -0.00000000
vn -0.00000000 1.00000000 -0.00000000
vn -0.00000000 1.00000000 -0.00000000
vn -0.00000000 1.00000000 -0.00000000
vn -0.00000000 1.00000000 -0.00000000
vn -0.00000000 1.00000000 -0.00000000
vn -0.00000000 1.00000000 -0.00000000
vn -0.00000000 1.00000000 -0.00000000
vn -0.00000000 1.00000000 -0.00000000
vn -0.00000000 1.00000000 -0.00000000
vn -0.00000000 1.00000000 -0.00000000
vn -0.00000000 1.00000000 -0.00000000
vn -0.00000000 1.00000000 -0.00000000
vn -0.00000000 1.00000000 -0.00000000
vn -0.00000000 1.00000000 -0.00000000
vn -0.00000000 1.00000000 -0.00000000
vn -0.00000000 1.00000000 -0.00000000
vn -0.00000000 1.00000000 -0.00000000
vn -0.00000000 1.00000000 -0.00000000
vn -0.00000000 1.00000000 -0.00000000
vn -0.00000000 1.00000000 -0.00000000
vn -0.00000000 1.00000000 -0.00000000
vn -0.00000000 1.00000000 -0.00000000
vn -0.00000000 1.00000000 -0.00000000
vn -0.00000000 1.00000000 -0.00000000
vn -0.00000000 1.00000000 -0.00000000
vn -0.00000000 1.00000000 -0.00000000
vn -0.00000000 1.00000000 -0.00000000
vn -0.00000000 1.00000000 -0.00000000
vn -0.00000000 1.00000000 -0.00000000
vn -0.00000000 1.00000000 -0.00000000
vn -0.00000000 1.00000000 -0.00000000
vn -0.00000000 1.00000000 -0.00000000
vn -0.00000000 -0.08940000 -0.99600000
vn -0.00000000 -0.99960000 -0.02730000
vn -0.00020000 -0.75120000 -0.66000000
vn -0.00670000 -0.99940000 -0.03330000
vn -0.19450000 -0.08000000 -0.97760000
vn -0.13730000 -0.71300000 -0.68760000
vn -0.01990000 -0.99860000 -0.04870000
vn -0.38180000 -0.06150000 -0.92220000
vn -0.30090000 -0.61290000 -0.73060000
vn -0.07850000 -0.99000000 -0.11760000
vn -0.55490000 -0.04820000 -0.83050000
vn -0.47650000 -0.51360000 -0.71360000
vn -0.03500000 -0.99880000 -0.03460000
vn -0.70600000 -0.06000000 -0.70560000
vn -0.56370000 -0.60640000 -0.56080000
vn -0.02510000 -0.99950000 -0.01680000
vn -0.82880000 -0.07970000 -0.55380000
vn -0.58360000 -0.71200000 -0.39060000
vn -0.02170000 -0.99970000 -0.00900000
vn -0.92010000 -0.08970000 -0.38120000
vn -0.60850000 -0.75240000 -0.25230000
vn -0.02130000 -0.99980000 -0.00420000
vn -0.97650000 -0.09290000 -0.19420000
vn -0.63320000 -0.76370000 -0.12590000
vn -0.02350000 -0.99970000 -0.00000000
vn -0.99600000 -0.08970000 -0.00000000
vn -0.65870000 -0.75240000 0.00030000
vn -0.02970000 -0.99950000 0.00600000
vn -0.97770000 -0.07970000 0.19450000
vn -0.68860000 -0.71200000 0.13750000
vn -0.04560000 -0.99880000 0.01860000
vn -0.92230000 -0.06000000 0.38180000
vn -0.73540000 -0.60640000 0.30240000
vn -0.11750000 -0.99000000 0.07870000
vn -0.83050000 -0.04820000 0.55490000
vn -0.71330000 -0.51360000 0.47690000
vn -0.03700000 -0.99860000 0.03740000
vn -0.70560000 -0.06150000 0.70590000
vn -0.55760000 -0.61290000 0.55980000
vn -0.01890000 -0.99940000 0.02820000
vn -0.55380000 -0.08000000 0.82880000
vn -0.39000000 -0.71300000 0.58270000
vn -0.01050000 -0.99960000 0.02520000
vn -0.38120000 -0.08940000 0.92020000
vn -0.25280000 -0.75120000 0.60970000
vn -0.00500000 -0.99970000 0.02500000
vn -0.19420000 -0.09240000 0.97660000
vn -0.12630000 -0.76190000 0.63520000
vn -0.00000000 -0.99960000 0.02730000
vn -0.00000000 -0.08940000 0.99600000
vn 0.00030000 -0.75120000 0.66000000
vn 0.00670000 -0.99940000 0.03330000
vn 0.19450000 -0.08000000 0.97760000
vn 0.13730000 -0.71300000 0.68760000
vn 0.01990000 -0.99860000 0.04870000
vn 0.38180000 -0.06150000 0.92220000
vn 0.30090000 -0.61290000 0.73060000
vn 0.07850000 -0.99000000 0.11760000
vn 0.55490000 -0.04820000 0.83050000
vn 0.47650000 -0.51360000 0.71360000
vn 0.03500000 -0.99880000 0.03460000
vn 0.70600000 -0.06000000 0.70560000
vn 0.56370000 -0.60640000 0.56080000
vn 0.02510000 -0.99950000 0.01680000
vn 0.82880000 -0.07970000 0.55380000
vn 0.58360000 -0.71200000 0.39060000
vn 0.02170000 -0.99970000 0.00900000
vn 0.92010000 -0.08970000 0.38120000
vn 0.60850000 -0.75240000 0.25230000
vn 0.02130000 -0.99980000 0.00420000
vn 0.97650000 -0.09290000 0.19430000
vn 0.63320000 -0.76370000 0.12590000
vn 0.02350000 -0.99970000 -0.00000000
vn 0.99600000 -0.08970000 -0.00000000
vn 0.65870000 -0.75240000 -0.00030000
vn 0.02970000 -0.99950000 -0.00600000
vn 0.97770000 -0.07970000 -0.19450000
vn 0.68860000 -0.71200000 -0.13750000
vn 0.04560000 -0.99880000 -0.01860000
vn 0.92230000 -0.06000000 -0.38180000
vn 0.73540000 -0.60640000 -0.30240000
vn 0.11750000 -0.99000000 -0.07870000
vn 0.83050000 -0.04820000 -0.55500000
vn 0.71330000 -0.51360000 -0.47690000
vn 0.03700000 -0.99860000 -0.03740000
vn 0.70560000 -0.06150000 -0.70590000
vn 0.55760000 -0.61290000 -0.55980000
vn 0.01890000 -0.99940000 -0.02820000
vn 0.55380000 -0.08000000 -0.82880000
vn 0.39000000 -0.71300000 -0.58270000
vn 0.01050000 -0.99960000 -0.02520000
vn 0.38120000 -0.08940000 -0.92020000
vn 0.25280000 -0.75120000 -0.60970000
vn 0.00500000 -0.99970000 -0.02500000
vn 0.19430000 -0.09240000 -0.97660000
vn 0.12630000 -0.76190000 -0.63520000
vn -0.19450000 0.08000000 -0.97760000
vn -0.00670000 0.99940000 -0.03330000
vn -0.13730000 0.71300000 -0.68760000
vn -0.13730000 0.71300000 -0.68760000
vn -0.00000000 0.99960000 -0.02730000
vn -0.00000000 0.08940000 -0.99600000
vn -0.00020000 0.75120000 -0.66000000
vn -0.00020000 0.75120000 -0.66000000
vn -0.38180000 0.06150000 -0.92220000
vn -0.01990000 0.99860000 -0.04870000
vn -0.30090000 0.61290000 -0.73060000
vn -0.30090000 0.61290000 -0.73060000
vn -0.55490000 0.04820000 -0.83050000
vn -0.07840000 0.99000000 -0.11760000
vn -0.47650000 0.51360000 -0.71360000
vn -0.47650000 0.51360000 -0.71360000
vn -0.70600000 0.06000000 -0.70570000
vn -0.03500000 0.99880000 -0.03460000
vn -0.56370000 0.60640000 -0.56080000
vn -0.56370000 0.60640000 -0.56080000
vn -0.82880000 0.07970000 -0.55390000
vn -0.02510000 0.99950000 -0.01690000
vn -0.58360000 0.71200000 -0.39060000
vn -0.58360000 0.71200000 -0.39060000
vn -0.92010000 0.08970000 -0.38120000
vn -0.02170000 0.99970000 -0.00900000
vn -0.60850000 0.75240000 -0.25230000
vn -0.60850000 0.75240000 -0.25230000
vn -0.97650000 0.09290000 -0.19420000
vn -0.02130000 0.99980000 -0.00420000
vn -0.63320000 0.76370000 -0.12590000
vn -0.63320000 0.76370000 -0.12590000
vn -0.99600000 0.08970000 -0.00000000
vn -0.02350000 0.99970000 -0.00000000
vn -0.65870000 0.75240000 0.00030000
vn -0.65870000 0.75240000 0.00030000
vn -0.97770000 0.07970000 0.19450000
vn -0.02970000 0.99950000 0.00600000
vn -0.68860000 0.71200000 0.13750000
vn -0.68860000 0.71200000 0.13750000
vn -0.92230000 0.06000000 0.38180000
vn -0.04560000 0.99880000 0.01860000
vn -0.73540000 0.60640000 0.30240000
vn -0.73540000 0.60640000 0.30240000
vn -0.83050000 0.04820000 0.55500000
vn -0.11750000 0.99000000 0.07860000
vn -0.71330000 0.51360000 0.47690000
vn -0.71330000 0.51360000 0.47690000
vn -0.70560000 0.06150000 0.70590000
vn -0.03700000 0.99860000 0.03740000
vn -0.55760000 0.61290000 0.55980000
vn -0.55760000 0.61290000 0.55980000
vn -0.55380000 0.08000000 0.82880000
vn -0.01890000 0.99940000 0.02820000
vn -0.39000000 0.71300000 0.58270000
vn -0.39000000 0.71300000 0.58270000
vn -0.38120000 0.08940000 0.92020000
vn -0.01050000 0.99960000 0.02520000
vn -0.25280000 0.75120000 0.60970000
vn -0.25280000 0.75120000 0.60970000
vn -0.19430000 0.09240000 0.97660000
vn -0.00500000 0.99970000 0.02500000
vn -0.12630000 0.76190000 0.63520000
vn -0.12630000 0.76190000 0.63520000
vn -0.00000000 0.08940000 0.99600000
vn -0.00000000 0.99960000 0.02730000
vn 0.00020000 0.75120000 0.66000000
vn 0.00020000 0.75120000 0.66000000
vn 0.19450000 0.08000000 0.97760000
vn 0.00670000 0.99940000 0.03330000
vn 0.13730000 0.71300000 0.68760000
vn 0.13730000 0.71300000 0.68760000
vn 0.38180000 0.06150000 0.92220000
vn 0.01990000 0.99860000 0.04870000
vn 0.30090000 0.61290000 0.73060000
vn 0.30090000 0.61290000 0.73060000
vn 0.55490000 0.04820000 0.83050000
vn 0.07840000 0.99000000 0.11760000
vn 0.47650000 0.51360000 0.71360000
vn 0.47650000 0.51360000 0.71360000
vn 0.70600000 0.06000000 0.70570000
vn 0.03500000 0.99880000 0.03460000
vn 0.56370000 0.60640000 0.56080000
vn 0.56370000 0.60640000 0.56080000
vn 0.82880000 0.07970000 0.55390000
vn 0.02510000 0.99950000 0.01690000
vn 0.58360000 0.71200000 0.39060000
vn 0.58360000 0.71200000 0.39060000
vn 0.92010000 0.08970000 0.38120000
vn 0.02170000 0.99970000 0.00900000
vn 0.60850000 0.75240000 0.25230000
vn 0.60850000 0.75240000 0.25230000
vn 0.97650000 0.09290000 0.19420000
vn 0.02130000 0.99980000 0.00420000
vn 0.63320000 0.76370000 0.12590000
vn 0.63320000 0.76370000 0.12590000
vn 0.99600000 0.08970000 -0.00000000
vn 0.02350000 0.99970000 -0.00000000
vn 0.65870000 0.75240000 -0.00030000
vn 0.65870000 0.75240000 -0.00030000
vn 0.97770000 0.07970000 -0.19450000
vn 0.02970000 0.99950000 -0.00590000
vn 0.68860000 0.71200000 -0.13750000
vn 0.68860000 0.71200000 -0.13750000
vn 0.92230000 0.06000000 -0.38180000
vn 0.04560000 0.99880000 -0.01860000
vn 0.73540000 0.60640000 -0.30240000
vn 0.73540000 0.60640000 -0.30240000
vn 0.83050000 0.04820000 -0.55490000
vn 0.11750000 0.99000000 -0.07860000
vn 0.71330000 0.51360000 -0.47690000
vn 0.71330000 0.51360000 -0.47690000
vn 0.70560000 0.06150000 -0.70590000
vn 0.03700000 0.99860000 -0.03740000
vn 0.55760000 0.61290000 -0.55980000
vn 0.55760000 0.61290000 -0.55980000
vn 0.55380000 0.08000000 -0.82880000
vn 0.01890000 0.99940000 -0.02820000
vn 0.39000000 0.71300000 -0.58270000
vn 0.39000000 0.71300000 -0.58270000
vn 0.38120000 0.08940000 -0.92020000
vn 0.01050000 0.99960000 -0.02520000
vn 0.25280000 0.75120000 -0.60970000
vn 0.25280000 0.75120000 -0.60970000
vn 0.19430000 0.09240000 -0.97660000
vn 0.00500000 0.99970000 -0.02500000
vn 0.12630000 0.76190000 -0.63520000
vn 0.12630000 0.76190000 -0.63520000
vt 0.64353200 0.60502900
vt 0.64612200 0.57110400
vt 0.64330900 0.53610000
vt 0.63519500 0.50134400
vt 0.62209600 0.46815700
vt 0.60451200 0.43780400
vt 0.58312200 0.41142800
vt 0.61706200 0.62522400
vt 0.61548100 0.58887200
vt 0.60960700 0.55079500
vt 0.59966700 0.51242800
vt 0.58604300 0.47522700
vt 0.56925900 0.44060400
vt 0.54995600 0.40986600
vt 0.58558000 0.64242000
vt 0.57919900 0.60525600
vt 0.57006800 0.56570100
vt 0.55854200 0.52524000
vt 0.54506500 0.48540300
vt 0.53015800 0.44769600
vt 0.51438900 0.41354600
vt 0.55078900 0.65569100
vt 0.53951200 0.61930400
vt 0.52726600 0.57988800
vt 0.51452700 0.53893300
vt 0.50178900 0.49798300
vt 0.48954400 0.45858600
vt 0.47826700 0.42222800
vt 0.51463400 0.66436200
vt 0.49887500 0.63018600
vt 0.48397700 0.59246200
vt 0.47051300 0.55261900
vt 0.45899900 0.51216200
vt 0.44988200 0.47262200
vt 0.44351500 0.43548700
vt 0.47904800 0.66802100
vt 0.45975800 0.63726000
vt 0.44299000 0.60262200
vt 0.42938500 0.56541300
vt 0.41946600 0.52704700
vt 0.41361500 0.48898200
vt 0.41205600 0.45265200
vt 0.44587200 0.66643500
vt 0.42449600 0.64003900
vt 0.40693100 0.60967100
vt 0.39385400 0.57647600
vt 0.38576300 0.54171900
vt 0.38297500 0.50672300
vt 0.38558900 0.47281500
vt 0.74773000 0.41405400
vt 0.73337500 0.44420800
vt 0.72297600 0.47857600
vt 0.71698600 0.51534000
vt 0.71568600 0.55256600
vt 0.71917600 0.58830300
vt 0.72737000 0.62067800
vt 0.78054800 0.40450900
vt 0.76937800 0.43828900
vt 0.76070800 0.47726900
vt 0.75495700 0.51908100
vt 0.75243600 0.56121100
vt 0.75333200 0.60113500
vt 0.75769400 0.63644500
vt 0.81557200 0.40008900
vt 0.80801100 0.43626600
vt 0.80141800 0.47818700
vt 0.79615700 0.52314100
vt 0.79254300 0.56825800
vt 0.79082700 0.61065900
vt 0.79118300 0.64761600
vt 0.85145900 0.40096700
vt 0.84778800 0.43821700
vt 0.84354400 0.48129300
vt 0.83900500 0.52736300
vt 0.83446500 0.57343300
vt 0.83022100 0.61650900
vt 0.82655000 0.65375900
vt 0.88682700 0.40711000
vt 0.88718200 0.44406700
vt 0.88546600 0.48646800
vt 0.88185200 0.53158500
vt 0.87659100 0.57653900
vt 0.86999900 0.61846000
vt 0.86243700 0.65463700
vt 0.92031500 0.41828100
vt 0.92467700 0.45359100
vt 0.92557300 0.49351400
vt 0.92305200 0.53564400
vt 0.91730100 0.57745600
vt 0.90863100 0.61643700
vt 0.89746100 0.65021700
vt 0.95063900 0.43404800
vt 0.95883300 0.46642300
vt 0.96232300 0.50216000
vt 0.96102400 0.53938600
vt 0.95503300 0.57615000
vt 0.94463400 0.61051800
vt 0.93028000 0.64067200
vt 0.65202900 0.46414300
vt 0.64776500 0.46512900
vt 0.65009000 0.46480500
vt 0.63024700 0.43939900
vt 0.63487900 0.43874800
vt 0.63289100 0.43946000
vt 0.60769600 0.41723000
vt 0.61315500 0.41711400
vt 0.61099600 0.41783500
vt 0.58589700 0.40286400
vt 0.58762900 0.40009200
vt 0.58662200 0.40169800
vt 0.56230700 0.39317000
vt 0.55917000 0.38856800
vt 0.55983500 0.39077000
vt 0.53119200 0.38700900
vt 0.52898900 0.38279800
vt 0.52955900 0.38485000
vt 0.49989200 0.38705300
vt 0.49822900 0.38295600
vt 0.49879700 0.38493900
vt 0.46930400 0.39321600
vt 0.46802400 0.38906100
vt 0.46862800 0.39102300
vt 0.44047600 0.40533200
vt 0.43948400 0.40089500
vt 0.44016100 0.40291000
vt 0.41455000 0.42308900
vt 0.41397000 0.41834100
vt 0.41466900 0.42036900
vt 0.39235800 0.44589900
vt 0.39232500 0.44031400
vt 0.39303100 0.44251100
vt 0.37842400 0.46733400
vt 0.37541700 0.46603500
vt 0.37716200 0.46678700
vt 0.36864200 0.49158800
vt 0.36407900 0.49460000
vt 0.36626800 0.49396500
vt 0.36269100 0.52268200
vt 0.35850800 0.52478300
vt 0.36054900 0.52423800
vt 0.36291500 0.55382900
vt 0.35884700 0.55544300
vt 0.36081800 0.55488500
vt 0.36918600 0.58416300
vt 0.36508700 0.58544000
vt 0.36702700 0.58483600
vt 0.38125900 0.61268200
vt 0.37699500 0.61366400
vt 0.37893300 0.61300300
vt 0.39875900 0.63842600
vt 0.39412700 0.63907300
vt 0.39611500 0.63836300
vt 0.42129600 0.66061300
vt 0.41583700 0.66072600
vt 0.41799700 0.66000600
vt 0.44309000 0.67499900
vt 0.44135500 0.67777100
vt 0.44236300 0.67616500
vt 0.46667900 0.68471500
vt 0.46981400 0.68932000
vt 0.46915000 0.68711700
vt 0.49780200 0.69090400
vt 0.50000300 0.69511700
vt 0.49943400 0.69306500
vt 0.52912200 0.69088600
vt 0.53078100 0.69498900
vt 0.53021600 0.69300300
vt 0.55974600 0.68474400
vt 0.56101600 0.68891400
vt 0.56041700 0.68694300
vt 0.58862600 0.67261300
vt 0.58961800 0.67705500
vt 0.58894000 0.67503800
vt 0.61458900 0.65482000
vt 0.61518600 0.65957000
vt 0.61447800 0.65754200
vt 0.63678300 0.63196600
vt 0.63682200 0.63755400
vt 0.63611300 0.63535700
vt 0.65070500 0.61050600
vt 0.65371500 0.61180300
vt 0.65196800 0.61105300
vt 0.66047100 0.58623400
vt 0.66503300 0.58321700
vt 0.66284400 0.58385400
vt 0.66640000 0.55512600
vt 0.67058300 0.55302100
vt 0.66854100 0.55356800
vt 0.66615300 0.52397300
vt 0.67022100 0.52235500
vt 0.66824900 0.52291400
vt 0.65985900 0.49364000
vt 0.66395700 0.49235900
vt 0.66201800 0.49296500
vt 0.64102300 0.43366900
vt 0.91352100 0.39322500
vt 0.91292300 0.39062800
vt 0.64215300 0.43174300
vt 0.88458500 0.38118700
vt 0.65903200 0.46034500
vt 0.88443200 0.37882500
vt 0.66073600 0.45900900
vt 0.61820400 0.41094200
vt 0.93996200 0.41097100
vt 0.61848800 0.40854600
vt 0.93870200 0.40783100
vt 0.59136200 0.39303400
vt 0.95853100 0.42958700
vt 0.95953800 0.42863400
vt 0.59217000 0.39118900
vt 0.56143100 0.38090900
vt 0.97281900 0.45091300
vt 0.97568600 0.45286700
vt 0.56329900 0.37934000
vt 0.52972400 0.37483700
vt 0.98507700 0.48033800
vt 0.98752800 0.48151800
vt 0.53072100 0.37281500
vt 0.49741200 0.37499100
vt 0.99125000 0.51112500
vt 0.49757600 0.37281500
vt 0.99354700 0.51178200
vt 0.46567600 0.38138300
vt 0.99126600 0.54236600
vt 0.46504300 0.37931100
vt 0.99354700 0.54259100
vt 0.43566100 0.39383700
vt 0.98515200 0.57300300
vt 0.98753300 0.57280700
vt 0.43429500 0.39212400
vt 0.40881800 0.41217400
vt 0.97309000 0.60199300
vt 0.97572400 0.60131400
vt 0.40684000 0.41107100
vt 0.38609200 0.43528100
vt 0.95532500 0.62846000
vt 0.38365500 0.43505100
vt 0.95851800 0.62710300
vt 0.36831800 0.46234400
vt 0.93714900 0.64658700
vt 0.93795100 0.64771800
vt 0.36660000 0.46128400
vt 0.35640500 0.49239200
vt 0.91530400 0.66122100
vt 0.91345500 0.66405400
vt 0.35480700 0.49058000
vt 0.35055900 0.52410000
vt 0.88590800 0.67346400
vt 0.34853100 0.52315700
vt 0.88481400 0.67589500
vt 0.35092400 0.55630400
vt 0.85517900 0.67962400
vt 0.34876000 0.55617400
vt 0.85456700 0.68191100
vt 0.35748300 0.58781100
vt 0.82400000 0.67964000
vt 0.82377600 0.68191100
vt 0.35543200 0.58845000
vt 0.36998900 0.61745700
vt 0.79342400 0.67353900
vt 0.36828300 0.61879200
vt 0.79357800 0.67590100
vt 0.38797900 0.64414800
vt 0.76448900 0.66150100
vt 0.38684600 0.64607300
vt 0.76508600 0.66409800
vt 0.41078300 0.66689500
vt 0.73804700 0.64375500
vt 0.73930700 0.64689500
vt 0.41049700 0.66929100
vt 0.43761600 0.68482800
vt 0.71947800 0.62513900
vt 0.71847100 0.62609100
vt 0.43680600 0.68667200
vt 0.46754600 0.69698000
vt 0.70519000 0.60381300
vt 0.70232300 0.60185900
vt 0.46567600 0.69854800
vt 0.49926000 0.70308200
vt 0.69293200 0.57438700
vt 0.49826100 0.70510400
vt 0.69048100 0.57320800
vt 0.53158800 0.70296000
vt 0.68676000 0.54360100
vt 0.53142100 0.70513700
vt 0.68446300 0.54294400
vt 0.56335700 0.69660900
vt 0.68674300 0.51236000
vt 0.56398700 0.69868700
vt 0.68446300 0.51213500
vt 0.59348500 0.68419300
vt 0.69285700 0.48172300
vt 0.69047600 0.48191900
vt 0.59485400 0.68591000
vt 0.62035700 0.66574100
vt 0.70491900 0.45273300
vt 0.70228500 0.45341200
vt 0.62234100 0.66684300
vt 0.64306500 0.64258400
vt 0.72268400 0.42626600
vt 0.71949100 0.42762300
vt 0.64550400 0.64281000
vt 0.66082000 0.61548900
vt 0.74086000 0.40813900
vt 0.74005800 0.40700800
vt 0.66254000 0.61654800
vt 0.67271200 0.58542000
vt 0.76270500 0.39350500
vt 0.76455400 0.39067100
vt 0.67431200 0.58723100
vt 0.67853400 0.55369900
vt 0.79210200 0.38126100
vt 0.68056300 0.55463900
vt 0.79319500 0.37883100
vt 0.67814500 0.52148900
vt 0.82283000 0.37510200
vt 0.82344200 0.37281500
vt 0.68030800 0.52161600
vt 0.67156100 0.48998300
vt 0.85400900 0.37508500
vt 0.85423300 0.37281500
vt 0.67361100 0.48934200
f 181/181/181 184/184/184 307/307/307
f 178/178/178 181/181/181 303/303/303
f 175/175/175 178/178/178 299/299/299
f 172/172/172 175/175/175 295/295/295
f 169/169/169 172/172/172 291/291/291
f 166/166/166 169/169/169 287/287/287
f 163/163/163 166/166/166 283/283/283
f 157/157/157 160/160/160 275/275/275
f 187/187/187 190/190/190 315/315/315
f 2/2/2 1/1/1 8/8/8
f 9/9/9 8/8/8 15/15/15
f 16/16/16 15/15/15 22/22/22
f 23/23/23 22/22/22 29/29/29
f 30/30/30 29/29/29 36/36/36
f 37/37/37 36/36/36 43/43/43
f 154/154/154 157/157/157 271/271/271
f 190/190/190 193/193/193 319/319/319
f 3/3/3 2/2/2 9/9/9
f 10/10/10 9/9/9 16/16/16
f 17/17/17 16/16/16 23/23/23
f 24/24/24 23/23/23 30/30/30
f 31/31/31 30/30/30 37/37/37
f 38/38/38 37/37/37 44/44/44
f 151/151/151 154/154/154 267/267/267
f 196/196/196 85/85/85 78/78/78
f 4/4/4 3/3/3 10/10/10
f 11/11/11 10/10/10 17/17/17
f 18/18/18 17/17/17 24/24/24
f 25/25/25 24/24/24 31/31/31
f 32/32/32 31/31/31 38/38/38
f 39/39/39 38/38/38 45/45/45
f 148/148/148 151/151/151 263/263/263
f 102/102/102 100/100/100 5/5/5
f 5/5/5 4/4/4 11/11/11
f 12/12/12 11/11/11 18/18/18
f 19/19/19 18/18/18 25/25/25
f 26/26/26 25/25/25 32/32/32
f 33/33/33 32/32/32 39/39/39
f 40/40/40 39/39/39 46/46/46
f 145/145/145 148/148/148 259/259/259
f 193/193/193 99/99/99 200/200/200
f 6/6/6 5/5/5 12/12/12
f 13/13/13 12/12/12 19/19/19
f 20/20/20 19/19/19 26/26/26
f 27/27/27 26/26/26 33/33/33
f 34/34/34 33/33/33 40/40/40
f 41/41/41 40/40/40 47/47/47
f 142/142/142 145/145/145 255/255/255
f 106/106/106 109/109/109 207/207/207
f 7/7/7 6/6/6 13/13/13
f 14/14/14 13/13/13 20/20/20
f 21/21/21 20/20/20 27/27/27
f 28/28/28 27/27/27 34/34/34
f 35/35/35 34/34/34 41/41/41
f 42/42/42 41/41/41 48/48/48
f 139/139/139 142/142/142 251/251/251
f 109/109/109 112/112/112 211/211/211
f 115/115/115 118/118/118 219/219/219
f 118/118/118 121/121/121 223/223/223
f 121/121/121 124/124/124 227/227/227
f 124/124/124 127/127/127 231/231/231
f 127/127/127 130/130/130 235/235/235
f 130/130/130 133/133/133 239/239/239
f 133/133/133 136/136/136 243/243/243
f 312/312/312 57/57/57 50/50/50
f 308/308/308 50/50/50 300/300/300
f 50/50/50 51/51/51 296/296/296
f 51/51/51 52/52/52 292/292/292
f 52/52/52 53/53/53 288/288/288
f 53/53/53 54/54/54 284/284/284
f 54/54/54 55/55/55 280/280/280
f 55/55/55 56/56/56 276/276/276
f 316/316/316 64/64/64 57/57/57
f 57/57/57 58/58/58 51/51/51
f 58/58/58 59/59/59 52/52/52
f 59/59/59 60/60/60 53/53/53
f 60/60/60 61/61/61 54/54/54
f 61/61/61 62/62/62 55/55/55
f 62/62/62 63/63/63 56/56/56
f 56/56/56 268/268/268 272/272/272
f 320/320/320 71/71/71 64/64/64
f 64/64/64 65/65/65 58/58/58
f 65/65/65 66/66/66 59/59/59
f 66/66/66 67/67/67 60/60/60
f 67/67/67 68/68/68 61/61/61
f 68/68/68 69/69/69 62/62/62
f 69/69/69 70/70/70 63/63/63
f 63/63/63 264/264/264 268/268/268
f 71/71/71 72/72/72 65/65/65
f 72/72/72 73/73/73 66/66/66
f 73/73/73 74/74/74 67/67/67
f 74/74/74 75/75/75 68/68/68
f 75/75/75 76/76/76 69/69/69
f 76/76/76 77/77/77 70/70/70
f 70/70/70 260/260/260 264/264/264
f 208/208/208 212/212/212 92/92/92
f 78/78/78 79/79/79 72/72/72
f 79/79/79 80/80/80 73/73/73
f 80/80/80 81/81/81 74/74/74
f 81/81/81 82/82/82 75/75/75
f 82/82/82 83/83/83 76/76/76
f 83/83/83 84/84/84 77/77/77
f 77/77/77 256/256/256 260/260/260
f 204/204/204 92/92/92 85/85/85
f 85/85/85 86/86/86 79/79/79
f 86/86/86 87/87/87 80/80/80
f 87/87/87 88/88/88 81/81/81
f 88/88/88 89/89/89 82/82/82
f 89/89/89 90/90/90 83/83/83
f 90/90/90 91/91/91 84/84/84
f 84/84/84 252/252/252 256/256/256
f 199/199/199 78/78/78 71/71/71
f 92/92/92 93/93/93 86/86/86
f 93/93/93 94/94/94 87/87/87
f 94/94/94 95/95/95 88/88/88
f 95/95/95 96/96/96 89/89/89
f 96/96/96 97/97/97 90/90/90
f 97/97/97 98/98/98 91/91/91
f 91/91/91 248/248/248 252/252/252
f 212/212/212 216/216/216 93/93/93
f 216/216/216 220/220/220 94/94/94
f 220/220/220 224/224/224 95/95/95
f 224/224/224 228/228/228 96/96/96
f 228/228/228 232/232/232 97/97/97
f 232/232/232 236/236/236 98/98/98
f 236/236/236 240/240/240 244/244/244
f 98/98/98 244/244/244 248/248/248
f 47/47/47 46/46/46 144/144/144
f 105/105/105 102/102/102 6/6/6
f 186/186/186 183/183/183 1/1/1
f 46/46/46 45/45/45 147/147/147
f 108/108/108 105/105/105 7/7/7
f 189/189/189 186/186/186 2/2/2
f 45/45/45 44/44/44 150/150/150
f 112/112/112 115/115/115 215/215/215
f 192/192/192 189/189/189 3/3/3
f 44/44/44 43/43/43 153/153/153
f 111/111/111 7/7/7 14/14/14
f 103/103/103 106/106/106 203/203/203
f 43/43/43 159/159/159 156/156/156
f 114/114/114 14/14/14 21/21/21
f 160/160/160 163/163/163 279/279/279
f 117/117/117 21/21/21 28/28/28
f 36/36/36 162/162/162 159/159/159
f 120/120/120 28/28/28 35/35/35
f 29/29/29 165/165/165 162/162/162
f 123/123/123 35/35/35 42/42/42
f 22/22/22 168/168/168 165/165/165
f 126/126/126 42/42/42 49/49/49
f 15/15/15 171/171/171 168/168/168
f 129/129/129 49/49/49 135/135/135
f 8/8/8 174/174/174 171/171/171
f 136/136/136 139/139/139 247/247/247
f 1/1/1 177/177/177 174/174/174
f 49/49/49 48/48/48 138/138/138
f 183/183/183 180/180/180 177/177/177
f 48/48/48 47/47/47 141/141/141
f 100/100/100 192/192/192 4/4/4
f 184/184/184 187/187/187 311/311/311
f 103/103/103 99/99/99 101/101/101
f 104/104/104 101/101/101 100/100/100
f 106/106/106 103/103/103 104/104/104
f 107/107/107 104/104/104 102/102/102
f 109/109/109 106/106/106 107/107/107
f 110/110/110 107/107/107 105/105/105
f 112/112/112 109/109/109 110/110/110
f 113/113/113 110/110/110 108/108/108
f 115/115/115 112/112/112 113/113/113
f 116/116/116 113/113/113 111/111/111
f 118/118/118 115/115/115 116/116/116
f 119/119/119 116/116/116 114/114/114
f 121/121/121 118/118/118 119/119/119
f 122/122/122 119/119/119 117/117/117
f 124/124/124 121/121/121 122/122/122
f 125/125/125 122/122/122 120/120/120
f 127/127/127 124/124/124 125/125/125
f 128/128/128 125/125/125 123/123/123
f 130/130/130 127/127/127 128/128/128
f 131/131/131 128/128/128 126/126/126
f 133/133/133 130/130/130 131/131/131
f 134/134/134 131/131/131 129/129/129
f 136/136/136 133/133/133 134/134/134
f 137/137/137 134/134/134 132/132/132
f 139/139/139 136/136/136 137/137/137
f 140/140/140 137/137/137 135/135/135
f 142/142/142 139/139/139 140/140/140
f 143/143/143 140/140/140 138/138/138
f 145/145/145 142/142/142 143/143/143
f 146/146/146 143/143/143 141/141/141
f 148/148/148 145/145/145 146/146/146
f 149/149/149 146/146/146 144/144/144
f 151/151/151 148/148/148 149/149/149
f 152/152/152 149/149/149 147/147/147
f 154/154/154 151/151/151 152/152/152
f 155/155/155 152/152/152 150/150/150
f 157/157/157 154/154/154 155/155/155
f 158/158/158 155/155/155 153/153/153
f 160/160/160 157/157/157 158/158/158
f 161/161/161 158/158/158 156/156/156
f 163/163/163 160/160/160 161/161/161
f 164/164/164 161/161/161 159/159/159
f 166/166/166 163/163/163 164/164/164
f 167/167/167 164/164/164 162/162/162
f 169/169/169 166/166/166 167/167/167
f 170/170/170 167/167/167 165/165/165
f 172/172/172 169/169/169 170/170/170
f 173/173/173 170/170/170 168/168/168
f 175/175/175 172/172/172 173/173/173
f 176/176/176 173/173/173 171/171/171
f 178/178/178 175/175/175 176/176/176
f 179/179/179 176/176/176 174/174/174
f 181/181/181 178/178/178 179/179/179
f 182/182/182 179/179/179 177/177/177
f 184/184/184 181/181/181 182/182/182
f 185/185/185 182/182/182 180/180/180
f 187/187/187 184/184/184 185/185/185
f 188/188/188 185/185/185 183/183/183
f 190/190/190 187/187/187 188/188/188
f 191/191/191 188/188/188 186/186/186
f 193/193/193 190/190/190 191/191/191
f 194/194/194 191/191/191 189/189/189
f 99/99/99 193/193/193 194/194/194
f 101/101/101 194/194/194 192/192/192
f 196/196/196 199/199/199 201/201/201
f 198/198/198 202/202/202 200/200/200
f 204/204/204 196/196/196 197/197/197
f 205/205/205 198/198/198 195/195/195
f 208/208/208 204/204/204 206/206/206
f 210/210/210 205/205/205 203/203/203
f 212/212/212 208/208/208 209/209/209
f 214/214/214 210/210/210 207/207/207
f 216/216/216 212/212/212 213/213/213
f 218/218/218 214/214/214 211/211/211
f 220/220/220 216/216/216 217/217/217
f 221/221/221 218/218/218 215/215/215
f 224/224/224 220/220/220 222/222/222
f 225/225/225 221/221/221 219/219/219
f 228/228/228 224/224/224 226/226/226
f 230/230/230 225/225/225 223/223/223
f 232/232/232 228/228/228 229/229/229
f 234/234/234 230/230/230 227/227/227
f 236/236/236 232/232/232 233/233/233
f 237/237/237 234/234/234 231/231/231
f 240/240/240 236/236/236 238/238/238
f 242/242/242 237/237/237 235/235/235
f 244/244/244 240/240/240 241/241/241
f 246/246/246 242/242/242 239/239/239
f 248/248/248 244/244/244 245/245/245
f 249/249/249 246/246/246 243/243/243
f 252/252/252 248/248/248 250/250/250
f 253/253/253 249/249/249 247/247/247
f 256/256/256 252/252/252 254/254/254
f 258/258/258 253/253/253 251/251/251
f 260/260/260 256/256/256 257/257/257
f 261/261/261 258/258/258 255/255/255
f 264/264/264 260/260/260 262/262/262
f 265/265/265 261/261/261 259/259/259
f 268/268/268 264/264/264 266/266/266
f 270/270/270 265/265/265 263/263/263
f 272/272/272 268/268/268 269/269/269
f 274/274/274 270/270/270 267/267/267
f 276/276/276 272/272/272 273/273/273
f 278/278/278 274/274/274 271/271/271
f 280/280/280 276/276/276 277/277/277
f 281/281/281 278/278/278 275/275/275
f 284/284/284 280/280/280 282/282/282
f 285/285/285 281/281/281 279/279/279
f 288/288/288 284/284/284 286/286/286
f 289/289/289 285/285/285 283/283/283
f 292/292/292 288/288/288 290/290/290
f 294/294/294 289/289/289 287/287/287
f 296/296/296 292/292/292 293/293/293
f 298/298/298 294/294/294 291/291/291
f 300/300/300 296/296/296 297/297/297
f 302/302/302 298/298/298 295/295/295
f 304/304/304 300/300/300 301/301/301
f 306/306/306 302/302/302 299/299/299
f 308/308/308 304/304/304 305/305/305
f 310/310/310 306/306/306 303/303/303
f 312/312/312 308/308/308 309/309/309
f 313/313/313 310/310/310 307/307/307
f 316/316/316 312/312/312 314/314/314
f 318/318/318 313/313/313 311/311/311
f 320/320/320 316/316/316 317/317/317
f 322/322/322 318/318/318 315/315/315
f 199/199/199 320/320/320 321/321/321
f 202/202/202 322/322/322 319/319/319
f 99/99/99 103/103/103 195/195/195
f 307/307/307 303/303/303 181/181/181
f 303/303/303 299/299/299 178/178/178
f 299/299/299 295/295/295 175/175/175
f 295/295/295 291/291/291 172/172/172
f 291/291/291 287/287/287 169/169/169
f 287/287/287 283/283/283 166/166/166
f 283/283/283 279/279/279 163/163/163
f 275/275/275 271/271/271 157/157/157
f 315/315/315 311/311/311 187/187/187
f 8/8/8 9/9/9 2/2/2
f 15/15/15 16/16/16 9/9/9
f 22/22/22 23/23/23 16/16/16
f 29/29/29 30/30/30 23/23/23
f 36/36/36 37/37/37 30/30/30
f 43/43/43 44/44/44 37/37/37
f 271/271/271 267/267/267 154/154/154
f 319/319/319 315/315/315 190/190/190
f 9/9/9 10/10/10 3/3/3
f 16/16/16 17/17/17 10/10/10
f 23/23/23 24/24/24 17/17/17
f 30/30/30 31/31/31 24/24/24
f 37/37/37 38/38/38 31/31/31
f 44/44/44 45/45/45 38/38/38
f 267/267/267 263/263/263 151/151/151
f 78/78/78 199/199/199 196/196/196
f 10/10/10 11/11/11 4/4/4
f 17/17/17 18/18/18 11/11/11
f 24/24/24 25/25/25 18/18/18
f 31/31/31 32/32/32 25/25/25
f 38/38/38 39/39/39 32/32/32
f 45/45/45 46/46/46 39/39/39
f 263/263/263 259/259/259 148/148/148
f 5/5/5 6/6/6 102/102/102
f 11/11/11 12/12/12 5/5/5
f 18/18/18 19/19/19 12/12/12
f 25/25/25 26/26/26 19/19/19
f 32/32/32 33/33/33 26/26/26
f 39/39/39 40/40/40 33/33/33
f 46/46/46 47/47/47 40/40/40
f 259/259/259 255/255/255 145/145/145
f 200/200/200 319/319/319 193/193/193
f 12/12/12 13/13/13 6/6/6
f 19/19/19 20/20/20 13/13/13
f 26/26/26 27/27/27 20/20/20
f 33/33/33 34/34/34 27/27/27
f 40/40/40 41/41/41 34/34/34
f 47/47/47 48/48/48 41/41/41
f 255/255/255 251/251/251 142/142/142
f 207/207/207 203/203/203 106/106/106
f 13/13/13 14/14/14 7/7/7
f 20/20/20 21/21/21 14/14/14
f 27/27/27 28/28/28 21/21/21
f 34/34/34 35/35/35 28/28/28
f 41/41/41 42/42/42 35/35/35
f 48/48/48 49/49/49 42/42/42
f 251/251/251 247/247/247 139/139/139
f 211/211/211 207/207/207 109/109/109
f 219/219/219 215/215/215 115/115/115
f 223/223/223 219/219/219 118/118/118
f 227/227/227 223/223/223 121/121/121
f 231/231/231 227/227/227 124/124/124
f 235/235/235 231/231/231 127/127/127
f 239/239/239 235/235/235 130/130/130
f 243/243/243 239/239/239 133/133/133
f 50/50/50 308/308/308 312/312/312
f 300/300/300 304/304/304 308/308/308
f 296/296/296 300/300/300 50/50/50
f 292/292/292 296/296/296 51/51/51
f 288/288/288 292/292/292 52/52/52
f 284/284/284 288/288/288 53/53/53
f 280/280/280 284/284/284 54/54/54
f 276/276/276 280/280/280 55/55/55
f 57/57/57 312/312/312 316/316/316
f 51/51/51 50/50/50 57/57/57
f 52/52/52 51/51/51 58/58/58
f 53/53/53 52/52/52 59/59/59
f 54/54/54 53/53/53 60/60/60
f 55/55/55 54/54/54 61/61/61
f 56/56/56 55/55/55 62/62/62
f 272/272/272 276/276/276 56/56/56
f 64/64/64 316/316/316 320/320/320
f 58/58/58 57/57/57 64/64/64
f 59/59/59 58/58/58 65/65/65
f 60/60/60 59/59/59 66/66/66
f 61/61/61 60/60/60 67/67/67
f 62/62/62 61/61/61 68/68/68
f 63/63/63 62/62/62 69/69/69
f 268/268/268 56/56/56 63/63/63
f 65/65/65 64/64/64 71/71/71
f 66/66/66 65/65/65 72/72/72
f 67/67/67 66/66/66 73/73/73
f 68/68/68 67/67/67 74/74/74
f 69/69/69 68/68/68 75/75/75
f 70/70/70 69/69/69 76/76/76
f 264/264/264 63/63/63 70/70/70
f 92/92/92 204/204/204 208/208/208
f 72/72/72 71/71/71 78/78/78
f 73/73/73 72/72/72 79/79/79
f 74/74/74 73/73/73 80/80/80
f 75/75/75 74/74/74 81/81/81
f 76/76/76 75/75/75 82/82/82
f 77/77/77 76/76/76 83/83/83
f 260/260/260 70/70/70 77/77/77
f 85/85/85 196/196/196 204/204/204
f 79/79/79 78/78/78 85/85/85
f 80/80/80 79/79/79 86/86/86
f 81/81/81 80/80/80 87/87/87
f 82/82/82 81/81/81 88/88/88
f 83/83/83 82/82/82 89/89/89
f 84/84/84 83/83/83 90/90/90
f 256/256/256 77/77/77 84/84/84
f 71/71/71 320/320/320 199/199/199
f 86/86/86 85/85/85 92/92/92
f 87/87/87 86/86/86 93/93/93
f 88/88/88 87/87/87 94/94/94
f 89/89/89 88/88/88 95/95/95
f 90/90/90 89/89/89 96/96/96
f 91/91/91 90/90/90 97/97/97
f 252/252/252 84/84/84 91/91/91
f 93/93/93 92/92/92 212/212/212
f 94/94/94 93/93/93 216/216/216
f 95/95/95 94/94/94 220/220/220
f 96/96/96 95/95/95 224/224/224
f 97/97/97 96/96/96 228/228/228
f 98/98/98 97/97/97 232/232/232
f 244/244/244 98/98/98 236/236/236
f 248/248/248 91/91/91 98/98/98
f 144/144/144 141/141/141 47/47/47
f 6/6/6 7/7/7 105/105/105
f 1/1/1 2/2/2 186/186/186
f 147/147/147 144/144/144 46/46/46
f 7/7/7 111/111/111 108/108/108
f 2/2/2 3/3/3 189/189/189
f 150/150/150 147/147/147 45/45/45
f 215/215/215 211/211/211 112/112/112
f 3/3/3 4/4/4 192/192/192
f 153/153/153 150/150/150 44/44/44
f 14/14/14 114/114/114 111/111/111
f 203/203/203 195/195/195 103/103/103
f 156/156/156 153/153/153 43/43/43
f 21/21/21 117/117/117 114/114/114
f 279/279/279 275/275/275 160/160/160
f 28/28/28 120/120/120 117/117/117
f 159/159/159 43/43/43 36/36/36
f 35/35/35 123/123/123 120/120/120
f 162/162/162 36/36/36 29/29/29
f 42/42/42 126/126/126 123/123/123
f 165/165/165 29/29/29 22/22/22
f 49/49/49 129/129/129 126/126/126
f 168/168/168 22/22/22 15/15/15
f 135/135/135 132/132/132 129/129/129
f 171/171/171 15/15/15 8/8/8
f 247/247/247 243/243/243 136/136/136
f 174/174/174 8/8/8 1/1/1
f 138/138/138 135/135/135 49/49/49
f 177/177/177 1/1/1 183/183/183
f 141/141/141 138/138/138 48/48/48
f 4/4/4 5/5/5 100/100/100
f 311/311/311 307/307/307 184/184/184
f 101/101/101 104/104/104 103/103/103
f 100/100/100 102/102/102 104/104/104
f 104/104/104 107/107/107 106/106/106
f 102/102/102 105/105/105 107/107/107
f 107/107/107 110/110/110 109/109/109
f 105/105/105 108/108/108 110/110/110
f 110/110/110 113/113/113 112/112/112
f 108/108/108 111/111/111 113/113/113
f 113/113/113 116/116/116 115/115/115
f 111/111/111 114/114/114 116/116/116
f 116/116/116 119/119/119 118/118/118
f 114/114/114 117/117/117 119/119/119
f 119/119/119 122/122/122 121/121/121
f 117/117/117 120/120/120 122/122/122
f 122/122/122 125/125/125 124/124/124
f 120/120/120 123/123/123 125/125/125
f 125/125/125 128/128/128 127/127/127
f 123/123/123 126/126/126 128/128/128
f 128/128/128 131/131/131 130/130/130
f 126/126/126 129/129/129 131/131/131
f 131/131/131 134/134/134 133/133/133
f 129/129/129 132/132/132 134/134/134
f 134/134/134 137/137/137 136/136/136
f 132/132/132 135/135/135 137/137/137
f 137/137/137 140/140/140 139/139/139
f 135/135/135 138/138/138 140/140/140
f 140/140/140 143/143/143 142/142/142
f 138/138/138 141/141/141 143/143/143
f 143/143/143 146/146/146 145/145/145
f 141/141/141 144/144/144 146/146/146
f 146/146/146 149/149/149 148/148/148
f 144/144/144 147/147/147 149/149/149
f 149/149/149 152/152/152 151/151/151
f 147/147/147 150/150/150 152/152/152
f 152/152/152 155/155/155 154/154/154
f 150/150/150 153/153/153 155/155/155
f 155/155/155 158/158/158 157/157/157
f 153/153/153 156/156/156 158/158/158
f 158/158/158 161/161/161 160/160/160
f 156/156/156 159/159/159 161/161/161
f 161/161/161 164/164/164 163/163/163
f 159/159/159 162/162/162 164/164/164
f 164/164/164 167/167/167 166/166/166
f 162/162/162 165/165/165 167/167/167
f 167/167/167 170/170/170 169/169/169
f 165/165/165 168/168/168 170/170/170
f 170/170/170 173/173/173 172/172/172
f 168/168/168 171/171/171 173/173/173
f 173/173/173 176/176/176 175/175/175
f 171/171/171 174/174/174 176/176/176
f 176/176/176 179/179/179 178/178/178
f 174/174/174 177/177/177 179/179/179
f 179/179/179 182/182/182 181/181/181
f 177/177/177 180/180/180 182/182/182
f 182/182/182 185/185/185 184/184/184
f 180/180/180 183/183/183 185/185/185
f 185/185/185 188/188/188 187/187/187
f 183/183/183 186/186/186 188/188/188
f 188/188/188 191/191/191 190/190/190
f 186/186/186 189/189/189 191/191/191
f 191/191/191 194/194/194 193/193/193
f 189/189/189 192/192/192 194/194/194
f 194/194/194 101/101/101 99/99/99
f 192/192/192 100/100/100 101/101/101
f 201/201/201 197/197/197 196/196/196
f 200/200/200 195/195/195 198/198/198
f 197/197/197 206/206/206 204/204/204
f 195/195/195 203/203/203 205/205/205
f 206/206/206 209/209/209 208/208/208
f 203/203/203 207/207/207 210/210/210
f 209/209/209 213/213/213 212/212/212
f 207/207/207 211/211/211 214/214/214
f 213/213/213 217/217/217 216/216/216
f 211/211/211 215/215/215 218/218/218
f 217/217/217 222/222/222 220/220/220
f 215/215/215 219/219/219 221/221/221
f 222/222/222 226/226/226 224/224/224
f 219/219/219 223/223/223 225/225/225
f 226/226/226 229/229/229 228/228/228
f 223/223/223 227/227/227 230/230/230
f 229/229/229 233/233/233 232/232/232
f 227/227/227 231/231/231 234/234/234
f 233/233/233 238/238/238 236/236/236
f 231/231/231 235/235/235 237/237/237
f 238/238/238 241/241/241 240/240/240
f 235/235/235 239/239/239 242/242/242
f 241/241/241 245/245/245 244/244/244
f 239/239/239 243/243/243 246/246/246
f 245/245/245 250/250/250 248/248/248
f 243/243/243 247/247/247 249/249/249
f 250/250/250 254/254/254 252/252/252
f 247/247/247 251/251/251 253/253/253
f 254/254/254 257/257/257 256/256/256
f 251/251/251 255/255/255 258/258/258
f 257/257/257 262/262/262 260/260/260
f 255/255/255 259/259/259 261/261/261
f 262/262/262 266/266/266 264/264/264
f 259/259/259 263/263/263 265/265/265
f 266/266/266 269/269/269 268/268/268
f 263/263/263 267/267/267 270/270/270
f 269/269/269 273/273/273 272/272/272
f 267/267/267 271/271/271 274/274/274
f 273/273/273 277/277/277 276/276/276
f 271/271/271 275/275/275 278/278/278
f 277/277/277 282/282/282 280/280/280
f 275/275/275 279/279/279 281/281/281
f 282/282/282 286/286/286 284/284/284
f 279/279/279 283/283/283 285/285/285
f 286/286/286 290/290/290 288/288/288
f 283/283/283 287/287/287 289/289/289
f 290/290/290 293/293/293 292/292/292
f 287/287/287 291/291/291 294/294/294
f 293/293/293 297/297/297 296/296/296
f 291/291/291 295/295/295 298/298/298
f 297/297/297 301/301/301 300/300/300
f 295/295/295 299/299/299 302/302/302
f 301/301/301 305/305/305 304/304/304
f 299/299/299 303/303/303 306/306/306
f 305/305/305 309/309/309 308/308/308
f 303/303/303 307/307/307 310/310/310
f 309/309/309 314/314/314 312/312/312
f 307/307/307 311/311/311 313/313/313
f 314/314/314 317/317/317 316/316/316
f 311/311/311 315/315/315 318/318/318
f 317/317/317 321/321/321 320/320/320
f 315/315/315 319/319/319 322/322/322
f 321/321/321 201/201/201 199/199/199
f 319/319/319 200/200/200 202/202/202
f 195/195/195 200/200/200 99/99/99

