# https://github.com/mikedh/trimesh
v 0.00073536 0.06348733 0.00651994
v 0.00151613 0.06348733 0.00634309
v 0.00150922 0.06496651 0.00633712
v 0.00073536 0.06496651 0.00650441
v -0.00073536 0.06348733 0.00651994
v 0.00073536 0.02963998 0.00651994
v 0.00441513 0.07379815 0.00188116
v 0.00151613 0.02963998 0.00634309
v 0.00442303 0.01883610 0.00189431
v 0.00149244 0.06582212 0.00631919
v 0.00060309 0.06635869 0.00637655
v 0.00002468 0.06718530 0.00630127
v -0.00073536 0.06496651 0.00650441
v -0.00150922 0.06496651 0.00633712
v -0.00151613 0.06348733 0.00634309
v -0.00073536 0.02963998 0.00651994
v 0.00073536 0.02816080 0.00651277
v 0.00151415 0.02816080 0.00634190
v 0.00470434 0.07379815 0.00114507
v 0.00465893 0.07526284 0.00103036
v 0.00436084 0.07526284 0.00176645
v 0.00354849 0.07674202 0.00255153
v 0.00442303 0.01854606 0.00189431
v 0.00283879 0.07674202 0.00328761
v 0.00183001 0.07820671 0.00353019
v 0.00073536 0.07820671 0.00383370
v -0.00002468 0.06718530 0.00630127
v -0.00060309 0.06635869 0.00637655
v -0.00149244 0.06582212 0.00631919
v -0.00441513 0.07379815 0.00188116
v -0.00442303 0.01885060 0.00189431
v -0.00151613 0.02963998 0.00634309
v -0.00151415 0.02816080 0.00634190
v -0.00073536 0.02816080 0.00651277
v 0.00149836 0.02739220 0.00632636
v 0.00073536 -0.03953389 0.00409420
v 0.00282991 -0.03953389 0.00328164
v 0.00286347 -0.03806920 0.00330315
v 0.00356231 -0.03806920 0.00256706
v 0.00430655 -0.03659001 0.00164815
v 0.00504191 0.07379815 -0.00032471
v 0.00470434 0.07231896 0.00114507
v 0.00495209 0.07526284 -0.00032471
v 0.00459477 0.07674202 0.00086546
v 0.00428484 0.07674202 0.00160154
v 0.00338858 0.07820671 0.00237467
v 0.00464709 0.01932916 0.00128249
v 0.00461254 -0.03659001 0.00091206
v 0.00256636 0.07820671 0.00311076
v 0.00155561 0.07900432 0.00339396
v 0.00073536 0.07913483 0.00347880
v -0.00073536 0.07820671 0.00383370
v -0.00183001 0.07820671 0.00353019
v -0.00283879 0.07674202 0.00328761
v -0.00354849 0.07674202 0.00255153
v -0.00436084 0.07526284 0.00176645
v -0.00465893 0.07526284 0.00103036
v -0.00470434 0.07379815 0.00114507
v -0.00442303 0.01854606 0.00189431
v -0.00149836 0.02739220 0.00632636
v -0.00430655 -0.03659001 0.00164815
v -0.00356231 -0.03806920 0.00256706
v -0.00286347 -0.03806920 0.00330315
v -0.00282991 -0.03953389 0.00328164
v -0.00073536 -0.03953389 0.00409420
v 0.00203730 -0.04101307 0.00363534
v 0.00209356 -0.03953389 0.00366283
v 0.00073536 -0.04101307 0.00403923
v 0.00277364 -0.04101307 0.00324579
v 0.00346755 -0.04247776 0.00246191
v 0.00350999 -0.04101307 0.00250970
v 0.00354257 -0.03953389 0.00254555
v 0.00429866 -0.03806920 0.00163142
v 0.00460563 -0.03806920 0.00089533
v 0.00492840 0.07379815 -0.00179688
v 0.00504191 0.07231896 -0.00032471
v 0.00503204 0.01932916 -0.00032471
v 0.00482476 0.07674202 -0.00032471
v 0.00483858 0.07526284 -0.00179688
v 0.00452173 0.07784417 0.00068024
v 0.00415454 0.07827922 0.00116061
v 0.00314873 0.07917833 0.00211059
v 0.00486029 -0.03659001 -0.00032471
v 0.00203730 0.07958439 0.00250970
v 0.00153686 0.08045450 0.00192657
v 0.00073536 0.07987443 0.00278215
v -0.00073536 0.07913483 0.00347880
v -0.00155561 0.07900432 0.00339396
v -0.00256636 0.07820671 0.00311076
v -0.00338858 0.07820671 0.00237587
v -0.00428484 0.07674202 0.00160154
v -0.00459477 0.07674202 0.00086546
v -0.00495209 0.07526284 -0.00032471
v -0.00504191 0.07379815 -0.00032471
v -0.00470434 0.07231896 0.00114507
v -0.00464709 0.01934367 0.00128249
v -0.00461254 -0.03659001 0.00091206
v -0.00209356 -0.03953389 0.00366283
v -0.00203730 -0.04101307 0.00363534
v -0.00460563 -0.03806920 0.00089533
v -0.00429866 -0.03806920 0.00163142
v -0.00354257 -0.03953389 0.00254555
v -0.00350999 -0.04101307 0.00250970
v -0.00346755 -0.04247776 0.00246191
v -0.00277364 -0.04101307 0.00324579
v -0.00073536 -0.04101307 0.00403923
v 0.00196425 -0.04247776 0.00359830
v 0.00073536 -0.04247776 0.00396873
v 0.00187838 -0.04395695 0.00355648
v 0.00270060 -0.04247776 0.00319799
v 0.00341820 -0.04395695 0.00240694
v 0.00424634 -0.04101307 0.00152029
v 0.00427891 -0.03953389 0.00158959
v 0.00458984 -0.03953389 0.00085351
v 0.00484746 -0.03806920 -0.00032471
v 0.00459181 0.07379815 -0.00286038
v 0.00454542 0.07526284 -0.00277435
v 0.00492840 0.07231896 -0.00179688
v 0.00492050 0.01932916 -0.00179688
v 0.00470927 0.07674202 -0.00179688
v 0.00454246 0.07791668 -0.00179688
v 0.00460070 0.07810520 -0.00032471
v 0.00444474 0.07758313 -0.00258674
v 0.00437565 0.07883029 -0.00032471
v 0.00343103 0.07948288 0.00114627
v 0.00260880 0.08022247 0.00114627
v 0.00474579 -0.03659001 -0.00179688
v 0.00187246 0.08059951 0.00114627
v 0.00073536 0.08086055 0.00114627
v 0.00073536 0.08052701 0.00204606
v -0.00073536 0.07987443 0.00278215
v -0.00153784 0.08045450 0.00192657
v -0.00203730 0.07958439 0.00250970
v -0.00314873 0.07917833 0.00211059
v -0.00415454 0.07827922 0.00116180
v -0.00452173 0.07784417 0.00068024
v -0.00482476 0.07674202 -0.00032471
v -0.00483858 0.07526284 -0.00179688
v -0.00492840 0.07379815 -0.00179688
v -0.00504191 0.07231896 -0.00032471
v -0.00503204 0.01932916 -0.00032471
v -0.00486029 -0.03659001 -0.00032471
v -0.00196425 -0.04247776 0.00359830
v -0.00484746 -0.03806920 -0.00032471
v -0.00458984 -0.03953389 0.00085351
v -0.00427891 -0.03953389 0.00158959
v -0.00341820 -0.04395695 0.00240694
v -0.00424634 -0.04101307 0.00152029
v -0.00270060 -0.04247776 0.00319799
v -0.00187937 -0.04395695 0.00355648
v -0.00073536 -0.04247776 0.00396873
v 0.00073536 -0.04395695 0.00388509
v 0.00177770 -0.04542164 0.00350629
v 0.00261473 -0.04395695 0.00314303
v 0.00335897 -0.04542164 0.00234241
v 0.00456220 -0.04101307 0.00078420
v 0.00420390 -0.04247776 0.00142947
v 0.00452667 -0.04247776 0.00069339
v 0.00481489 -0.03953389 -0.00032471
v 0.00473296 -0.03806920 -0.00179688
v 0.00413184 0.07379815 -0.00359647
v 0.00459181 0.07231896 -0.00286038
v 0.00407262 0.07526284 -0.00351044
v 0.00458786 0.01932916 -0.00285560
v 0.00449804 -0.03659001 -0.00268592
v 0.00430853 0.07864177 -0.00179688
v 0.00313195 0.07794568 -0.00417722
v 0.00370543 0.07825022 -0.00328937
v 0.00329876 0.07933786 -0.00301095
v 0.00398773 0.07674202 -0.00338736
v 0.00346854 0.07977291 -0.00171802
v 0.00297895 0.08045450 -0.00117551
v 0.00352184 0.07983092 -0.00026496
v 0.00292170 0.08041100 0.00026440
v 0.00449113 -0.03806920 -0.00267278
v 0.00234131 0.08068653 -0.00026496
v 0.00073536 0.08112158 -0.00032471
v -0.00073536 0.08086055 0.00114627
v -0.00073536 0.08052701 0.00204606
v -0.00187246 0.08059951 0.00114627
v -0.00260880 0.08022247 0.00114627
v -0.00343103 0.07948288 0.00114627
v -0.00437565 0.07883029 -0.00032471
v -0.00460070 0.07810520 -0.00032471
v -0.00470927 0.07674202 -0.00179688
v -0.00454246 0.07791668 -0.00179688
v -0.00454542 0.07526284 -0.00277435
v -0.00444474 0.07758313 -0.00258674
v -0.00459181 0.07379815 -0.00286038
v -0.00492840 0.07231896 -0.00179688
v -0.00492050 0.01932916 -0.00179688
v -0.00474579 -0.03659001 -0.00179688
v -0.00473296 -0.03806920 -0.00179688
v -0.00481588 -0.03953389 -0.00032471
v -0.00456220 -0.04101307 0.00078420
v -0.00335897 -0.04542164 0.00234241
v -0.00452667 -0.04247776 0.00069339
v -0.00420390 -0.04247776 0.00142947
v -0.00261473 -0.04395695 0.00314303
v -0.00177770 -0.04542164 0.00350629
v -0.00073536 -0.04395695 0.00388509
v 0.00073536 -0.04542164 0.00378710
v 0.00147270 -0.04910511 0.00335573
v 0.00153784 -0.04836552 0.00338799
v 0.00166221 -0.04690083 0.00344893
v 0.00251405 -0.04542164 0.00307850
v 0.00321980 -0.04836552 0.00218826
v 0.00329185 -0.04690083 0.00226832
v 0.00415356 -0.04395695 0.00132193
v 0.00448521 -0.04395695 0.00058584
v 0.00476159 -0.04101307 -0.00032471
v 0.00470039 -0.03953389 -0.00179688
v 0.00447435 -0.03953389 -0.00264171
v 0.00339549 0.07379815 -0.00442098
v 0.00333627 0.07526284 -0.00436602
v 0.00413184 0.07231896 -0.00359647
v 0.00325138 0.07674202 -0.00428715
v 0.00412197 0.01932916 -0.00359169
v 0.00401142 -0.03659001 -0.00342201
v 0.00234625 0.07835173 -0.00453331
v 0.00292861 0.07893180 -0.00399200
v 0.00220707 0.07674202 -0.00495752
v 0.00236007 0.07980191 -0.00340289
v 0.00277266 0.08030948 -0.00215656
v 0.00225248 0.08065753 -0.00171802
v 0.00297895 0.08045450 -0.00071665
v 0.00400254 -0.03806920 -0.00340887
v -0.00073536 0.08112158 -0.00032471
v 0.00073536 0.08104907 -0.00179688
v -0.00234131 0.08068653 -0.00026496
v -0.00292170 0.08041100 0.00026559
v -0.00430951 0.07864177 -0.00179688
v -0.00352184 0.07983092 -0.00026496
v -0.00297895 0.08045450 -0.00117551
v -0.00346854 0.07977291 -0.00171802
v -0.00407262 0.07526284 -0.00351044
v -0.00413184 0.07379815 -0.00359647
v -0.00329876 0.07933786 -0.00301095
v -0.00370642 0.07825022 -0.00328937
v -0.00313195 0.07794568 -0.00417722
v -0.00398773 0.07674202 -0.00338736
v -0.00459181 0.07231896 -0.00286038
v -0.00458786 0.01932916 -0.00285560
v -0.00449804 -0.03659001 -0.00268592
v -0.00449113 -0.03806920 -0.00267278
v -0.00447435 -0.03953389 -0.00264290
v -0.00470039 -0.03953389 -0.00179688
v -0.00476159 -0.04101307 -0.00032471
v -0.00329185 -0.04690083 0.00226832
v -0.00448521 -0.04395695 0.00058704
v -0.00415454 -0.04395695 0.00132193
v -0.00321980 -0.04836552 0.00218826
v -0.00251405 -0.04542164 0.00307850
v -0.00166320 -0.04690083 0.00344893
v -0.00153784 -0.04836552 0.00338799
v -0.00147270 -0.04910511 0.00335573
v -0.00073536 -0.04542164 0.00378710
v 0.00023986 -0.05101936 0.00339874
v 0.00073536 -0.04690083 0.00367478
v 0.00220707 -0.05130940 0.00262203
v 0.00206099 -0.04969969 0.00290882
v 0.00227419 -0.04836552 0.00292435
v 0.00239856 -0.04690083 0.00300441
v 0.00073536 -0.04836552 0.00355409
v 0.00073240 -0.04969969 0.00343579
v 0.00122198 -0.05009124 0.00330434
v 0.00073536 -0.05573246 0.00274152
v 0.00152995 -0.05963346 0.00192418
v 0.00164543 -0.05867634 0.00200544
v 0.00180731 -0.05719715 0.00212135
v 0.00195734 -0.05573246 0.00222650
v 0.00313984 -0.04984471 0.00209984
v 0.00415652 -0.04552315 0.00104709
v 0.00444671 -0.04511710 0.00049024
v 0.00385645 -0.04836552 0.00114627
v 0.00399069 -0.04690083 0.00114627
v 0.00464511 -0.04101307 -0.00179688
v 0.00469052 -0.04247776 -0.00032471
v 0.00444770 -0.04658179 -0.00120180
v 0.00449113 -0.04542164 -0.00138582
v 0.00453851 -0.04395695 -0.00159613
v 0.00442500 -0.04192669 -0.00255089
v 0.00444671 -0.04101307 -0.00259033
v 0.00398082 -0.03953389 -0.00337780
v 0.00231466 0.07379815 -0.00515707
v 0.00339549 0.07231896 -0.00442098
v 0.00338661 0.01932916 -0.00441023
v 0.00327507 -0.03659001 -0.00430985
v 0.00326718 -0.03806920 -0.00430149
v 0.00068206 0.07811970 -0.00524072
v 0.00194747 0.07927985 -0.00428118
v 0.00108774 0.07674202 -0.00541040
v 0.00210343 0.07526284 -0.00515827
v 0.00154278 0.07478427 -0.00550719
v 0.00179152 0.08057052 -0.00281259
v 0.00324546 -0.03953389 -0.00428237
v -0.00073536 0.08104907 -0.00179688
v -0.00225248 0.08065753 -0.00171802
v 0.00073536 0.08068653 -0.00304680
v -0.00297895 0.08045450 -0.00071665
v -0.00277266 0.08030948 -0.00215656
v -0.00325138 0.07674202 -0.00428715
v -0.00333627 0.07526284 -0.00436602
v -0.00339549 0.07379815 -0.00442098
v -0.00413184 0.07231896 -0.00359647
v -0.00292861 0.07893180 -0.00399200
v -0.00236007 0.07980191 -0.00340289
v -0.00234625 0.07835173 -0.00453331
v -0.00220707 0.07674202 -0.00495752
v -0.00412296 0.01932916 -0.00359169
v -0.00401142 -0.03659001 -0.00342201
v -0.00400254 -0.03806920 -0.00340887
v -0.00398181 -0.03953389 -0.00337899
v -0.00444671 -0.04101307 -0.00259033
v -0.00442500 -0.04192669 -0.00255089
v -0.00464610 -0.04101307 -0.00179688
v -0.00453851 -0.04395695 -0.00159613
v -0.00449113 -0.04542164 -0.00138582
v -0.00444770 -0.04658179 -0.00120180
v -0.00469052 -0.04247776 -0.00032471
v -0.00444671 -0.04511710 0.00049024
v -0.00415652 -0.04552315 0.00104709
v -0.00399069 -0.04690083 0.00114627
v -0.00385645 -0.04836552 0.00114627
v -0.00313984 -0.04984471 0.00209984
v -0.00239856 -0.04690083 0.00300441
v -0.00122198 -0.05009124 0.00330434
v -0.00023986 -0.05101936 0.00339874
v -0.00073240 -0.04969969 0.00343579
v -0.00073536 -0.04836552 0.00355409
v -0.00073536 -0.04690083 0.00367478
v -0.00227419 -0.04836552 0.00292435
v -0.00206099 -0.04969969 0.00290882
v -0.00220707 -0.05130940 0.00262203
v -0.00195734 -0.05573246 0.00222650
v -0.00180830 -0.05719715 0.00212135
v -0.00164543 -0.05867634 0.00200544
v -0.00152995 -0.05963346 0.00192418
v -0.00073536 -0.05573246 0.00274152
v 0.00073536 -0.05278858 0.00309642
v 0.00073240 -0.05142541 0.00325774
v 0.00001283 -0.06237431 0.00188594
v 0.00073536 -0.05425327 0.00292196
v 0.00298586 -0.05236803 0.00192896
v 0.00233638 -0.05283209 0.00233285
v 0.00305200 -0.05130940 0.00200185
v 0.00073536 -0.05719715 0.00253838
v 0.00078768 -0.06012652 0.00206518
v 0.00131279 -0.06061959 0.00182619
v 0.00181225 -0.06308490 0.00080571
v 0.00269271 -0.05573246 0.00157406
v 0.00283089 -0.05425327 0.00174613
v 0.00073536 -0.05867634 0.00231851
v 0.00291282 -0.05335416 0.00184651
v 0.00441019 -0.04608873 0.00034924
v 0.00370839 -0.04984471 0.00114627
v 0.00455233 -0.04243426 -0.00190084
v 0.00460859 -0.04395695 -0.00032471
v 0.00430853 -0.04542164 -0.00212191
v 0.00444770 -0.04658179 -0.00063301
v 0.00414270 -0.04984471 -0.00032471
v 0.00399661 -0.05130940 -0.00032471
v 0.00383276 -0.05278858 -0.00032471
v 0.00297797 -0.05961896 -0.00116117
v 0.00384757 -0.05130940 -0.00179688
v 0.00400056 -0.04984471 -0.00179688
v 0.00414073 -0.04836552 -0.00179688
v 0.00427694 -0.04700234 -0.00173355
v 0.00436380 -0.04395695 -0.00233222
v 0.00439736 -0.04289832 -0.00246247
v 0.00394529 -0.04101307 -0.00332641
v 0.00367187 -0.04542164 -0.00326906
v 0.00379131 -0.04395695 -0.00326906
v 0.00399069 -0.04243426 -0.00313164
v 0.00320894 -0.04101307 -0.00424891
v 0.00157930 0.07379815 -0.00552272
v 0.00231466 0.07231896 -0.00515707
v 0.00231466 0.01932916 -0.00514632
v 0.00220707 -0.03659001 -0.00499814
v 0.00220707 -0.03806920 -0.00498380
v 0.00015596 0.07756863 -0.00550241
v -0.00068206 0.07811970 -0.00524072
v 0.00073536 0.07952638 -0.00448790
v 0.00073536 0.08026598 -0.00378288
v 0.00073536 0.07379815 -0.00568763
v 0.00077583 0.07526284 -0.00559203
v 0.00220707 -0.03953389 -0.00494676
v -0.00073536 0.08068653 -0.00304680
v -0.00179152 0.08057052 -0.00281259
v -0.00231466 0.07379815 -0.00515707
v -0.00339549 0.07231896 -0.00442098
v -0.00194747 0.07927985 -0.00428118
v -0.00108774 0.07674202 -0.00541040
v -0.00154278 0.07478427 -0.00550719
v -0.00210343 0.07526284 -0.00515827
v -0.00338661 0.01932916 -0.00441023
v -0.00327507 -0.03659001 -0.00430985
v -0.00326718 -0.03806920 -0.00430149
v -0.00324546 -0.03953389 -0.00428237
v -0.00320894 -0.04101307 -0.00424891
v -0.00394529 -0.04101307 -0.00332641
v -0.00399069 -0.04243426 -0.00313164
v -0.00379131 -0.04395695 -0.00326906
v -0.00367187 -0.04542164 -0.00326906
v -0.00439736 -0.04289832 -0.00246247
v -0.00455233 -0.04243426 -0.00190084
v -0.00436380 -0.04395695 -0.00233222
v -0.00430853 -0.04542164 -0.00212191
v -0.00444770 -0.04658179 -0.00063301
v -0.00460859 -0.04395695 -0.00032471
v -0.00427694 -0.04700234 -0.00173355
v -0.00414073 -0.04836552 -0.00179688
v -0.00400056 -0.04984471 -0.00179688
v -0.00384757 -0.05130940 -0.00179688
v -0.00297797 -0.05961896 -0.00116117
v -0.00383375 -0.05278858 -0.00032471
v -0.00399661 -0.05130940 -0.00032471
v -0.00414369 -0.04984471 -0.00032471
v -0.00441019 -0.04608873 0.00034924
v -0.00370839 -0.04984471 0.00114627
v -0.00305200 -0.05130940 0.00200185
v -0.00298586 -0.05236803 0.00192896
v -0.00073536 -0.05278858 0.00309762
v -0.00073240 -0.05142541 0.00325774
v -0.00073536 -0.05425327 0.00292196
v -0.00001283 -0.06237431 0.00188594
v -0.00233638 -0.05283209 0.00233285
v -0.00291282 -0.05335416 0.00184651
v -0.00283089 -0.05425327 0.00174613
v -0.00181225 -0.06308490 0.00080571
v -0.00131279 -0.06061959 0.00182619
v -0.00078768 -0.06012652 0.00206518
v -0.00073536 -0.05867634 0.00231851
v -0.00073536 -0.05719715 0.00253838
v -0.00269369 -0.05573246 0.00157406
v 0.00031487 -0.06578225 0.00058345
v 0.00059619 -0.06295439 0.00155136
v 0.00099496 -0.06162022 0.00171267
v 0.00025861 -0.06162022 0.00195286
v 0.00354553 -0.05130940 0.00114627
v 0.00329975 -0.05283209 0.00127293
v 0.00164938 -0.06414354 0.00061571
v 0.00227913 -0.06308490 -0.00032471
v 0.00291874 -0.05925641 0.00022138
v 0.00299771 -0.05828479 0.00050936
v 0.00254366 -0.05719715 0.00139004
v 0.00307667 -0.05719715 0.00065395
v 0.00317637 -0.05573246 0.00083797
v 0.00327014 -0.05425327 0.00101005
v 0.00427694 -0.04836552 -0.00032471
v 0.00438256 -0.04700234 -0.00021477
v 0.00449409 -0.04552315 -0.00021477
v 0.00366299 -0.05425327 -0.00032471
v 0.00297797 -0.05961896 -0.00076086
v 0.00168491 -0.06456409 -0.00142406
v 0.00189911 -0.06317192 -0.00192235
v 0.00229295 -0.06162022 -0.00179688
v 0.00263743 -0.06012652 -0.00170965
v 0.00275094 -0.05867634 -0.00210876
v 0.00286347 -0.05748719 -0.00235731
v 0.00305101 -0.05867634 -0.00137268
v 0.00367878 -0.05278858 -0.00179688
v 0.00348532 -0.05573246 -0.00032471
v 0.00295033 -0.05651556 -0.00254253
v 0.00300659 -0.05573246 -0.00261781
v 0.00310826 -0.05425327 -0.00275523
v 0.00320302 -0.05278858 -0.00288189
v 0.00328889 -0.05130940 -0.00299780
v 0.00336983 -0.04984471 -0.00310654
v 0.00344386 -0.04836552 -0.00320572
v 0.00310727 -0.04395695 -0.00415451
v 0.00316255 -0.04247776 -0.00420589
v 0.00298586 -0.04655278 -0.00404338
v 0.00304213 -0.04542164 -0.00409476
v 0.00342214 -0.04698784 -0.00340887
v 0.00220707 -0.04101307 -0.00488582
v 0.00157930 0.07231896 -0.00552272
v 0.00157831 0.01932916 -0.00552153
v 0.00119632 -0.03659001 -0.00542832
v 0.00115782 -0.03806920 -0.00542235
v -0.00015596 0.07756863 -0.00550241
v -0.00073536 0.07952638 -0.00448790
v -0.00073536 0.08026598 -0.00378288
v -0.00073536 0.07379815 -0.00568763
v 0.00073536 0.07231896 -0.00568763
v 0.00106010 -0.03953389 -0.00540562
v -0.00157930 0.07379815 -0.00552272
v -0.00231466 0.07231896 -0.00515707
v -0.00231466 0.01932916 -0.00514632
v -0.00077583 0.07526284 -0.00559203
v -0.00220707 -0.03659001 -0.00499814
v -0.00220707 -0.03806920 -0.00498380
v -0.00220707 -0.03953389 -0.00494676
v -0.00220707 -0.04101307 -0.00488582
v -0.00316255 -0.04247776 -0.00420589
v -0.00310727 -0.04395695 -0.00415451
v -0.00304213 -0.04542164 -0.00409476
v -0.00298586 -0.04656729 -0.00404338
v -0.00342214 -0.04698784 -0.00340887
v -0.00344386 -0.04836552 -0.00320572
v -0.00336983 -0.04984471 -0.00310654
v -0.00328889 -0.05130940 -0.00299780
v -0.00320302 -0.05278858 -0.00288189
v -0.00449409 -0.04552315 -0.00021477
v -0.00427694 -0.04836552 -0.00032471
v -0.00438256 -0.04700234 -0.00021477
v -0.00310826 -0.05425327 -0.00275523
v -0.00300659 -0.05573246 -0.00261781
v -0.00295132 -0.05651556 -0.00254253
v -0.00367878 -0.05278858 -0.00179688
v -0.00275094 -0.05867634 -0.00210876
v -0.00263743 -0.06012652 -0.00170965
v -0.00229295 -0.06162022 -0.00179688
v -0.00189911 -0.06317192 -0.00192235
v -0.00168491 -0.06456409 -0.00142406
v -0.00227913 -0.06308490 -0.00032471
v -0.00297797 -0.05961896 -0.00076086
v -0.00348532 -0.05573246 -0.00032471
v -0.00366299 -0.05425327 -0.00032471
v -0.00350210 -0.05425327 -0.00179688
v -0.00305002 -0.05867634 -0.00137268
v -0.00286445 -0.05748719 -0.00235731
v -0.00299771 -0.05828479 0.00050936
v -0.00307667 -0.05719715 0.00065395
v -0.00317637 -0.05573246 0.00083797
v -0.00354553 -0.05130940 0.00114627
v -0.00329975 -0.05283209 0.00127293
v -0.00059619 -0.06295439 0.00155136
v -0.00031586 -0.06578225 0.00058345
v -0.00025861 -0.06162022 0.00195286
v -0.00099496 -0.06162022 0.00171267
v -0.00327014 -0.05425327 0.00101005
v -0.00291874 -0.05925641 0.00022138
v -0.00164938 -0.06414354 0.00061571
v -0.00254366 -0.05719715 0.00139004
v 0.00077780 -0.06459310 0.00087382
v 0.00030500 -0.06700040 -0.00057206
v 0.00129700 -0.06511516 -0.00000446
v 0.00174907 -0.06459310 -0.00042628
v 0.00149046 -0.06534719 -0.00098551
v 0.00149046 -0.06534719 -0.00108947
v 0.00255945 -0.06162022 -0.00032471
v 0.00283089 -0.06012652 -0.00029125
v 0.00306187 -0.05873435 -0.00029125
v 0.00328790 -0.05719715 -0.00032471
v 0.00141446 -0.06370848 -0.00249712
v 0.00156153 -0.06272236 -0.00261184
v 0.00311714 -0.05708114 -0.00183871
v 0.00331554 -0.05573246 -0.00179688
v 0.00350210 -0.05425327 -0.00179688
v 0.00248246 -0.05278858 -0.00361798
v 0.00262065 -0.05130940 -0.00373389
v 0.00169380 -0.06162022 -0.00272655
v 0.00186061 -0.06014103 -0.00287353
v 0.00201459 -0.05867634 -0.00300856
v 0.00275094 -0.04984471 -0.00384263
v 0.00286939 -0.04836552 -0.00394181
v 0.00293059 -0.04753891 -0.00399439
v 0.00220707 -0.04395695 -0.00471136
v 0.00220707 -0.04247776 -0.00480576
v 0.00220707 -0.04542164 -0.00460142
v 0.00073536 0.01932916 -0.00568524
v 0.00045997 -0.03659001 -0.00555140
v 0.00032376 -0.03953389 -0.00552989
v 0.00042148 -0.03806920 -0.00554543
v -0.00073536 0.07231896 -0.00568763
v 0.00089625 -0.04101307 -0.00537694
v 0.00016089 -0.04101307 -0.00550241
v -0.00157930 0.07231896 -0.00552272
v -0.00157831 0.01932916 -0.00552153
v -0.00119632 -0.03659001 -0.00542832
v -0.00115782 -0.03806920 -0.00542235
v -0.00106010 -0.03953389 -0.00540562
v -0.00220707 -0.04247776 -0.00480576
v -0.00220707 -0.04395695 -0.00471136
v -0.00220707 -0.04542164 -0.00460142
v -0.00293157 -0.04753891 -0.00399439
v -0.00286939 -0.04836552 -0.00394181
v -0.00275094 -0.04984471 -0.00384263
v -0.00262065 -0.05130940 -0.00373389
v -0.00311813 -0.05708114 -0.00183871
v -0.00331554 -0.05573246 -0.00179688
v -0.00248246 -0.05278858 -0.00361798
v -0.00201459 -0.05867634 -0.00300856
v -0.00186061 -0.06014103 -0.00287353
v -0.00169380 -0.06162022 -0.00272655
v -0.00156153 -0.06272236 -0.00261184
v -0.00141446 -0.06370848 -0.00249712
v -0.00149046 -0.06534719 -0.00108947
v -0.00149046 -0.06534719 -0.00098551
v -0.00174907 -0.06459310 -0.00042628
v -0.00255945 -0.06162022 -0.00032471
v -0.00306187 -0.05873435 -0.00029125
v -0.00328889 -0.05719715 -0.00032471
v -0.00283089 -0.06012652 -0.00029125
v -0.00077780 -0.06459310 0.00087382
v -0.00030500 -0.06700040 -0.00057206
v -0.00129700 -0.06511516 -0.00000446
v 0.00030500 -0.06700040 -0.00129740
v 0.00084789 -0.06317192 -0.00281737
v 0.00073536 -0.06162022 -0.00315434
v 0.00073536 -0.06014103 -0.00342679
v 0.00125949 -0.05610951 -0.00395137
v 0.00043332 -0.06412904 -0.00268592
v 0.00150132 -0.05512338 -0.00402187
v 0.00159608 -0.05425327 -0.00407684
v 0.00174611 -0.05278858 -0.00416527
v 0.00188430 -0.05130940 -0.00424533
v 0.00234723 -0.04698784 -0.00438633
v 0.00201459 -0.04984471 -0.00432180
v 0.00213304 -0.04836552 -0.00439111
v 0.00073536 -0.04395695 -0.00524789
v 0.00073536 -0.04542164 -0.00514871
v 0.00073536 -0.04690083 -0.00503638
v -0.00073536 0.01932916 -0.00568524
v -0.00046096 -0.03659001 -0.00555140
v -0.00032376 -0.03953389 -0.00552989
v -0.00042148 -0.03806920 -0.00554543
v 0.00061395 -0.04241975 -0.00535663
v 0.00004244 -0.04188319 -0.00548329
v -0.00016089 -0.04101307 -0.00550241
v -0.00089625 -0.04101307 -0.00537694
v -0.00073536 -0.04395695 -0.00524789
v -0.00073536 -0.04542164 -0.00514871
v -0.00073536 -0.04690083 -0.00503638
v -0.00201459 -0.04984471 -0.00432180
v -0.00213304 -0.04836552 -0.00439111
v -0.00234723 -0.04698784 -0.00438633
v -0.00188430 -0.05130940 -0.00424533
v -0.00174611 -0.05278858 -0.00416527
v -0.00159608 -0.05425327 -0.00407684
v -0.00150231 -0.05512338 -0.00402187
v -0.00125949 -0.05610951 -0.00395137
v -0.00073536 -0.06014103 -0.00342679
v -0.00073536 -0.06162022 -0.00315434
v -0.00084887 -0.06317192 -0.00281737
v -0.00043332 -0.06412904 -0.00268592
v -0.00030500 -0.06700040 -0.00129740
v 0.00027835 -0.05690711 -0.00406370
v 0.00073536 -0.05867634 -0.00367892
v 0.00075609 -0.05731316 -0.00389043
v 0.00075609 -0.05565995 -0.00412344
v 0.00073536 -0.05425327 -0.00430388
v 0.00073536 -0.05278858 -0.00447476
v 0.00073536 -0.05130940 -0.00463249
v 0.00073536 -0.04984471 -0.00477947
v 0.00073536 -0.04836552 -0.00491450
v -0.00004244 -0.04188319 -0.00548329
v -0.00061395 -0.04241975 -0.00535663
v -0.00073536 -0.04836552 -0.00491450
v -0.00073536 -0.04984471 -0.00477947
v -0.00073536 -0.05130940 -0.00463249
v -0.00073536 -0.05278858 -0.00447476
v -0.00073536 -0.05425327 -0.00430388
v -0.00075609 -0.05565995 -0.00412344
v -0.00027835 -0.05690711 -0.00406370
v -0.00075609 -0.05731316 -0.00389043
v -0.00073536 -0.05867634 -0.00367892
f 1 2 3
f 1 3 4
f 1 4 13
f 1 13 5
f 1 5 16
f 1 16 6
f 1 6 8
f 1 8 2
f 2 7 3
f 2 8 23
f 2 23 9
f 2 9 7
f 3 7 10
f 3 10 4
f 4 10 11
f 4 11 12
f 4 12 27
f 4 27 13
f 5 13 14
f 5 14 15
f 5 15 32
f 5 32 16
f 6 16 34
f 6 34 17
f 6 17 18
f 6 18 8
f 7 19 20
f 7 20 21
f 7 21 22
f 7 22 10
f 7 9 19
f 8 18 23
f 9 23 42
f 9 42 19
f 10 22 24
f 10 24 25
f 10 25 26
f 10 26 11
f 11 26 12
f 12 26 52
f 12 52 27
f 13 27 28
f 13 28 29
f 13 29 14
f 14 29 30
f 14 30 15
f 15 30 31
f 15 31 59
f 15 59 32
f 16 32 33
f 16 33 34
f 17 35 18
f 17 34 65
f 17 65 36
f 17 36 35
f 18 35 37
f 18 37 38
f 18 38 39
f 18 39 40
f 18 40 23
f 19 41 20
f 19 42 76
f 19 76 41
f 20 41 43
f 20 43 44
f 20 44 21
f 21 44 45
f 21 45 22
f 22 45 46
f 22 46 24
f 23 47 42
f 23 40 48
f 23 48 47
f 24 46 49
f 24 49 25
f 25 49 50
f 25 50 26
f 26 50 51
f 26 51 87
f 26 87 52
f 27 52 28
f 28 52 29
f 29 52 53
f 29 53 54
f 29 54 55
f 29 55 30
f 30 55 56
f 30 56 57
f 30 57 58
f 30 58 31
f 31 58 95
f 31 95 59
f 32 59 33
f 33 60 34
f 33 59 61
f 33 61 62
f 33 62 63
f 33 63 64
f 33 64 60
f 34 60 65
f 35 36 66
f 35 66 67
f 35 67 37
f 36 65 106
f 36 106 68
f 36 68 66
f 37 67 66
f 37 66 69
f 37 69 70
f 37 70 71
f 37 71 72
f 37 72 38
f 38 72 39
f 39 72 73
f 39 73 40
f 40 73 74
f 40 74 48
f 41 75 79
f 41 79 43
f 41 76 118
f 41 118 75
f 42 47 77
f 42 77 76
f 43 78 44
f 43 79 78
f 44 78 80
f 44 80 45
f 45 80 81
f 45 81 46
f 46 81 82
f 46 82 49
f 47 48 77
f 48 74 83
f 48 83 77
f 49 82 50
f 50 82 84
f 50 84 85
f 50 85 86
f 50 86 51
f 51 86 131
f 51 131 87
f 52 87 88
f 52 88 53
f 53 88 89
f 53 89 54
f 54 89 90
f 54 90 55
f 55 90 91
f 55 91 56
f 56 91 92
f 56 92 57
f 57 93 94
f 57 94 58
f 57 92 93
f 58 94 140
f 58 140 95
f 59 95 96
f 59 96 97
f 59 97 61
f 60 64 98
f 60 98 99
f 60 99 65
f 61 97 100
f 61 100 101
f 61 101 62
f 62 101 102
f 62 102 63
f 63 102 64
f 64 102 103
f 64 103 104
f 64 104 105
f 64 105 99
f 64 99 98
f 65 99 106
f 66 68 107
f 66 107 69
f 68 106 151
f 68 151 108
f 68 108 109
f 68 109 107
f 69 107 110
f 69 110 111
f 69 111 70
f 70 111 112
f 70 112 113
f 70 113 71
f 71 113 72
f 72 113 73
f 73 113 114
f 73 114 74
f 74 114 115
f 74 115 83
f 75 116 117
f 75 117 79
f 75 118 162
f 75 162 116
f 76 77 119
f 76 119 118
f 77 83 119
f 78 79 120
f 78 120 121
f 78 121 122
f 78 122 80
f 79 117 123
f 79 123 120
f 80 122 124
f 80 124 81
f 81 124 125
f 81 125 82
f 82 125 126
f 82 126 85
f 82 85 84
f 83 115 160
f 83 160 127
f 83 127 119
f 85 128 129
f 85 129 130
f 85 130 86
f 85 126 128
f 86 130 179
f 86 179 131
f 87 131 88
f 88 131 132
f 88 132 133
f 88 133 134
f 88 134 89
f 89 134 90
f 90 134 135
f 90 135 91
f 91 135 136
f 91 136 92
f 92 137 93
f 92 136 137
f 93 137 138
f 93 138 139
f 93 139 94
f 94 139 190
f 94 190 140
f 95 140 141
f 95 141 96
f 96 141 97
f 97 142 100
f 97 141 142
f 99 105 143
f 99 143 106
f 100 144 145
f 100 145 101
f 100 142 144
f 101 145 146
f 101 146 102
f 102 146 103
f 103 146 104
f 104 147 105
f 104 146 148
f 104 148 147
f 105 147 149
f 105 149 150
f 105 150 143
f 106 143 150
f 106 150 151
f 107 109 110
f 108 151 201
f 108 201 152
f 108 152 153
f 108 153 109
f 109 154 110
f 109 153 154
f 110 154 155
f 110 155 111
f 111 155 112
f 112 156 113
f 112 155 157
f 112 157 158
f 112 158 156
f 113 156 114
f 114 156 159
f 114 159 115
f 115 159 212
f 115 212 160
f 116 161 117
f 116 162 216
f 116 216 161
f 117 161 163
f 117 163 123
f 118 119 164
f 118 164 162
f 119 127 165
f 119 165 164
f 120 123 121
f 121 123 166
f 121 166 124
f 121 124 122
f 123 167 168
f 123 168 169
f 123 169 166
f 123 163 170
f 123 170 167
f 124 166 171
f 124 171 172
f 124 172 173
f 124 173 174
f 124 174 125
f 125 174 126
f 126 174 128
f 127 160 175
f 127 175 165
f 128 176 177
f 128 177 129
f 128 174 176
f 129 177 228
f 129 228 178
f 129 178 179
f 129 179 130
f 131 179 132
f 132 179 178
f 132 178 180
f 132 180 181
f 132 181 134
f 132 134 133
f 134 182 135
f 134 181 182
f 135 182 183
f 135 183 136
f 136 183 184
f 136 184 137
f 137 185 138
f 137 184 186
f 137 186 185
f 138 187 139
f 138 185 188
f 138 188 187
f 139 187 189
f 139 189 242
f 139 242 190
f 140 190 191
f 140 191 141
f 141 191 142
f 142 192 193
f 142 193 144
f 142 191 192
f 144 193 194
f 144 194 145
f 145 194 195
f 145 195 146
f 146 195 148
f 147 196 149
f 147 148 196
f 148 195 197
f 148 197 198
f 148 198 196
f 149 196 199
f 149 199 150
f 150 199 200
f 150 200 151
f 151 200 201
f 152 201 257
f 152 257 202
f 152 202 203
f 152 203 204
f 152 204 205
f 152 205 153
f 153 205 206
f 153 206 154
f 154 206 207
f 154 207 208
f 154 208 155
f 155 208 157
f 156 158 159
f 157 208 209
f 157 209 210
f 157 210 158
f 158 210 211
f 158 211 159
f 159 211 212
f 160 212 213
f 160 213 175
f 161 214 215
f 161 215 163
f 161 216 286
f 161 286 214
f 162 164 216
f 163 215 217
f 163 217 170
f 164 218 216
f 164 165 218
f 165 175 219
f 165 219 218
f 166 169 171
f 167 220 221
f 167 221 168
f 167 170 217
f 167 217 222
f 167 222 220
f 168 221 169
f 169 221 223
f 169 223 224
f 169 224 171
f 171 224 172
f 172 224 225
f 172 225 176
f 172 176 226
f 172 226 173
f 173 226 174
f 174 226 176
f 175 213 227
f 175 227 219
f 176 225 177
f 177 225 229
f 177 229 297
f 177 297 228
f 178 228 180
f 180 228 230
f 180 230 231
f 180 231 181
f 181 231 182
f 182 231 183
f 183 232 186
f 183 186 184
f 183 231 233
f 183 233 234
f 183 234 235
f 183 235 232
f 185 186 188
f 186 232 188
f 187 236 237
f 187 237 189
f 187 188 236
f 188 232 238
f 188 238 239
f 188 239 240
f 188 240 241
f 188 241 236
f 189 237 305
f 189 305 242
f 190 242 243
f 190 243 191
f 191 243 244
f 191 244 192
f 192 244 245
f 192 245 193
f 193 245 246
f 193 246 247
f 193 247 194
f 194 247 316
f 194 316 248
f 194 248 197
f 194 197 195
f 196 198 249
f 196 249 199
f 197 250 198
f 197 248 250
f 198 250 251
f 198 251 249
f 199 249 252
f 199 252 253
f 199 253 254
f 199 254 200
f 200 254 201
f 201 254 255
f 201 255 256
f 201 256 257
f 202 257 328
f 202 328 258
f 202 258 259
f 202 259 203
f 203 260 261
f 203 261 262
f 203 262 263
f 203 263 206
f 203 206 204
f 203 259 264
f 203 264 265
f 203 265 258
f 203 258 266
f 203 266 267
f 203 267 268
f 203 268 269
f 203 269 270
f 203 270 271
f 203 271 260
f 204 206 205
f 206 263 272
f 206 272 207
f 207 272 209
f 207 209 208
f 209 273 274
f 209 274 210
f 209 272 275
f 209 275 276
f 209 276 273
f 210 274 211
f 211 277 212
f 211 274 278
f 211 278 279
f 211 279 280
f 211 280 281
f 211 281 277
f 212 277 282
f 212 282 283
f 212 283 213
f 213 283 284
f 213 284 227
f 214 285 215
f 214 286 377
f 214 377 285
f 215 285 217
f 216 218 286
f 217 285 222
f 218 287 286
f 218 219 288
f 218 288 287
f 219 227 289
f 219 289 288
f 220 290 291
f 220 291 221
f 220 222 292
f 220 292 290
f 221 291 223
f 222 285 293
f 222 293 294
f 222 294 292
f 223 295 224
f 223 291 295
f 224 295 225
f 225 295 229
f 227 284 296
f 227 296 289
f 228 297 298
f 228 298 230
f 229 295 299
f 229 299 388
f 229 388 297
f 230 298 234
f 230 234 300
f 230 300 231
f 231 300 233
f 232 235 238
f 233 300 234
f 234 301 235
f 234 298 301
f 235 301 238
f 236 241 302
f 236 302 303
f 236 303 237
f 237 303 304
f 237 304 391
f 237 391 305
f 238 306 239
f 238 301 307
f 238 307 306
f 239 306 240
f 240 306 308
f 240 308 309
f 240 309 302
f 240 302 241
f 242 305 243
f 243 305 310
f 243 310 244
f 244 311 245
f 244 310 311
f 245 312 246
f 245 311 312
f 246 313 314
f 246 314 247
f 246 312 313
f 247 314 315
f 247 315 316
f 248 316 317
f 248 317 318
f 248 318 319
f 248 319 320
f 248 320 321
f 248 321 250
f 249 251 252
f 250 321 251
f 251 321 322
f 251 322 323
f 251 323 324
f 251 324 325
f 251 325 252
f 252 325 253
f 253 325 326
f 253 326 256
f 253 256 255
f 253 255 254
f 256 327 328
f 256 328 329
f 256 329 330
f 256 330 331
f 256 331 257
f 256 326 332
f 256 332 333
f 256 333 334
f 256 334 335
f 256 335 336
f 256 336 337
f 256 337 338
f 256 338 339
f 256 339 327
f 257 331 328
f 258 340 341
f 258 341 266
f 258 265 264
f 258 264 259
f 258 328 426
f 258 426 342
f 258 342 267
f 258 267 343
f 258 343 340
f 260 344 262
f 260 262 261
f 260 271 345
f 260 345 344
f 262 344 263
f 263 344 346
f 263 346 272
f 266 341 340
f 266 340 343
f 266 343 267
f 267 342 347
f 267 347 268
f 268 348 349
f 268 349 350
f 268 350 351
f 268 351 352
f 268 352 269
f 268 347 353
f 268 353 348
f 269 352 354
f 269 354 270
f 270 354 271
f 271 354 344
f 271 344 345
f 272 346 275
f 273 276 274
f 274 276 275
f 274 275 355
f 274 355 278
f 275 346 356
f 275 356 355
f 277 281 357
f 277 357 282
f 278 355 358
f 278 358 279
f 279 359 280
f 279 358 360
f 279 360 361
f 279 361 362
f 279 362 363
f 279 363 364
f 279 364 365
f 279 365 366
f 279 366 367
f 279 367 368
f 279 368 359
f 280 359 369
f 280 369 281
f 281 369 370
f 281 370 357
f 282 371 283
f 282 357 370
f 282 370 372
f 282 372 373
f 282 373 374
f 282 374 371
f 283 371 284
f 284 371 375
f 284 375 296
f 285 376 294
f 285 294 293
f 285 377 477
f 285 477 376
f 286 287 378
f 286 378 377
f 287 288 378
f 288 289 379
f 288 379 378
f 289 296 380
f 289 380 379
f 290 292 381
f 290 381 481
f 290 481 382
f 290 382 482
f 290 482 383
f 290 383 291
f 291 383 384
f 291 384 295
f 292 294 381
f 294 376 385
f 294 385 386
f 294 386 381
f 295 384 299
f 296 387 380
f 296 375 387
f 297 388 389
f 297 389 298
f 298 389 301
f 299 384 483
f 299 483 388
f 301 389 307
f 302 309 390
f 302 390 303
f 303 390 304
f 304 390 488
f 304 488 391
f 305 391 310
f 306 307 392
f 306 392 308
f 307 389 392
f 308 392 382
f 308 382 393
f 308 393 309
f 309 393 394
f 309 394 395
f 309 395 390
f 310 391 396
f 310 396 397
f 310 397 311
f 311 397 398
f 311 398 312
f 312 398 399
f 312 399 313
f 313 399 400
f 313 400 401
f 313 401 314
f 314 401 315
f 315 401 402
f 315 402 403
f 315 403 404
f 315 404 405
f 315 405 406
f 315 406 316
f 316 406 317
f 317 406 405
f 317 405 407
f 317 407 318
f 318 407 408
f 318 408 319
f 319 409 410
f 319 410 320
f 319 408 411
f 319 411 412
f 319 412 413
f 319 413 414
f 319 414 415
f 319 415 416
f 319 416 417
f 319 417 418
f 319 418 409
f 320 410 419
f 320 419 321
f 321 419 324
f 321 324 323
f 321 323 322
f 324 420 421
f 324 421 325
f 324 419 420
f 325 421 326
f 326 421 422
f 326 422 332
f 327 423 424
f 327 424 328
f 327 339 425
f 327 425 423
f 328 331 330
f 328 330 329
f 328 424 423
f 328 423 425
f 328 425 339
f 328 339 426
f 332 422 334
f 332 334 333
f 334 422 427
f 334 427 335
f 335 427 422
f 335 422 428
f 335 428 336
f 336 428 337
f 337 428 429
f 337 429 338
f 338 430 431
f 338 431 432
f 338 432 433
f 338 433 434
f 338 434 339
f 338 429 435
f 338 435 430
f 339 434 426
f 342 426 529
f 342 529 436
f 342 436 437
f 342 437 438
f 342 438 349
f 342 349 439
f 342 439 353
f 342 353 347
f 344 440 356
f 344 356 346
f 344 354 441
f 344 441 440
f 348 439 349
f 348 353 439
f 349 438 437
f 349 437 442
f 349 442 350
f 350 442 443
f 350 443 444
f 350 444 445
f 350 445 446
f 350 446 351
f 351 446 445
f 351 445 352
f 352 445 354
f 354 445 447
f 354 447 448
f 354 448 449
f 354 449 441
f 355 362 361
f 355 361 450
f 355 450 451
f 355 451 360
f 355 360 452
f 355 452 358
f 355 356 448
f 355 448 447
f 355 447 445
f 355 445 363
f 355 363 362
f 356 440 448
f 358 452 360
f 359 368 367
f 359 367 366
f 359 366 369
f 360 451 450
f 360 450 361
f 363 445 453
f 363 453 364
f 364 454 443
f 364 443 455
f 364 455 456
f 364 456 457
f 364 457 458
f 364 458 459
f 364 459 460
f 364 460 461
f 364 461 462
f 364 462 365
f 364 453 463
f 364 463 454
f 365 462 464
f 365 464 465
f 365 465 466
f 365 466 366
f 366 466 467
f 366 467 369
f 369 467 468
f 369 468 370
f 370 468 469
f 370 469 470
f 370 470 372
f 371 374 373
f 371 373 471
f 371 471 472
f 371 472 375
f 372 473 474
f 372 474 373
f 372 470 475
f 372 475 473
f 373 474 471
f 375 476 387
f 375 472 476
f 376 477 485
f 376 485 385
f 377 378 478
f 377 478 477
f 378 379 478
f 379 380 479
f 379 479 478
f 380 387 480
f 380 480 479
f 381 386 385
f 381 385 484
f 381 484 481
f 382 392 482
f 382 481 393
f 383 482 483
f 383 483 384
f 385 485 566
f 385 566 484
f 387 486 480
f 387 476 486
f 388 483 389
f 389 483 392
f 390 395 394
f 390 394 487
f 390 487 569
f 390 569 488
f 391 488 489
f 391 489 396
f 392 483 482
f 393 481 394
f 394 481 490
f 394 490 484
f 394 484 487
f 396 489 397
f 397 491 398
f 397 489 491
f 398 492 399
f 398 491 492
f 399 492 493
f 399 493 400
f 400 493 494
f 400 494 495
f 400 495 401
f 401 495 496
f 401 496 403
f 401 403 402
f 403 496 497
f 403 497 404
f 404 497 498
f 404 498 499
f 404 499 500
f 404 500 405
f 405 500 501
f 405 501 502
f 405 502 407
f 407 502 503
f 407 503 413
f 407 413 408
f 408 413 412
f 408 412 411
f 409 419 504
f 409 504 410
f 409 418 505
f 409 505 506
f 409 506 419
f 410 504 419
f 413 503 507
f 413 507 414
f 414 507 508
f 414 508 509
f 414 509 510
f 414 510 415
f 415 511 512
f 415 512 513
f 415 513 514
f 415 514 515
f 415 515 516
f 415 516 517
f 415 517 518
f 415 518 519
f 415 519 416
f 415 510 520
f 415 520 521
f 415 521 522
f 415 522 511
f 416 519 523
f 416 523 419
f 416 419 417
f 417 419 418
f 418 419 505
f 419 506 505
f 419 523 524
f 419 524 525
f 419 525 420
f 420 526 422
f 420 422 421
f 420 525 526
f 422 526 527
f 422 527 428
f 426 528 529
f 426 434 433
f 426 433 530
f 426 530 431
f 426 431 531
f 426 531 528
f 428 527 532
f 428 532 525
f 428 525 524
f 428 524 523
f 428 523 429
f 429 523 435
f 430 533 516
f 430 516 534
f 430 534 431
f 430 435 535
f 430 535 523
f 430 523 533
f 431 530 432
f 431 534 528
f 431 528 531
f 432 530 433
f 435 523 535
f 436 536 437
f 436 529 597
f 436 597 537
f 436 537 442
f 436 442 536
f 437 536 442
f 440 441 449
f 440 449 448
f 442 537 538
f 442 538 539
f 442 539 443
f 443 539 540
f 443 540 541
f 443 541 455
f 443 454 542
f 443 542 444
f 444 542 543
f 444 543 454
f 444 454 544
f 444 544 545
f 444 545 463
f 444 463 445
f 445 463 453
f 454 463 545
f 454 545 544
f 454 543 542
f 455 546 456
f 455 541 546
f 456 546 547
f 456 547 460
f 456 460 459
f 456 459 457
f 457 459 458
f 460 464 461
f 460 547 464
f 461 464 548
f 461 548 549
f 461 549 550
f 461 550 462
f 462 550 464
f 464 551 552
f 464 552 465
f 464 550 549
f 464 549 548
f 464 547 553
f 464 553 554
f 464 554 555
f 464 555 551
f 465 552 556
f 465 556 466
f 466 556 467
f 467 556 557
f 467 557 558
f 467 558 468
f 468 558 469
f 469 558 470
f 470 558 475
f 471 474 559
f 471 559 560
f 471 560 472
f 472 560 476
f 473 561 474
f 473 475 558
f 473 558 561
f 474 561 559
f 476 560 486
f 477 478 485
f 478 562 485
f 478 479 562
f 479 480 565
f 479 565 563
f 479 563 562
f 480 486 564
f 480 564 565
f 481 484 490
f 484 566 569
f 484 569 487
f 485 562 615
f 485 615 566
f 486 560 567
f 486 567 568
f 486 568 564
f 488 569 570
f 488 570 489
f 489 570 491
f 491 571 492
f 491 570 571
f 492 572 493
f 492 571 572
f 493 572 573
f 493 573 494
f 494 573 574
f 494 574 495
f 495 574 496
f 496 574 575
f 496 575 497
f 497 575 498
f 498 575 576
f 498 576 577
f 498 577 499
f 499 577 500
f 500 577 501
f 501 577 502
f 502 577 503
f 503 577 578
f 503 578 579
f 503 579 507
f 507 579 508
f 508 579 580
f 508 580 509
f 509 522 521
f 509 521 581
f 509 581 582
f 509 582 520
f 509 520 510
f 509 580 583
f 509 583 584
f 509 584 585
f 509 585 586
f 509 586 587
f 509 587 522
f 511 514 513
f 511 513 512
f 511 522 514
f 514 587 588
f 514 588 515
f 514 522 587
f 515 589 516
f 515 588 589
f 516 589 590
f 516 590 591
f 516 591 534
f 516 533 592
f 516 592 517
f 517 533 593
f 517 593 594
f 517 594 518
f 517 592 595
f 517 595 533
f 518 594 533
f 518 533 523
f 518 523 519
f 520 582 521
f 521 582 581
f 525 532 526
f 526 532 527
f 528 534 596
f 528 596 529
f 529 596 534
f 529 534 597
f 533 595 592
f 533 594 593
f 534 591 598
f 534 598 597
f 537 597 638
f 537 638 599
f 537 599 541
f 537 541 540
f 537 540 538
f 538 540 539
f 541 599 546
f 546 600 601
f 546 601 602
f 546 602 603
f 546 603 547
f 546 599 604
f 546 604 600
f 547 603 605
f 547 605 553
f 551 555 605
f 551 605 552
f 552 605 606
f 552 606 556
f 553 605 554
f 554 605 555
f 556 606 607
f 556 607 557
f 557 607 608
f 557 608 558
f 558 609 561
f 558 608 610
f 558 610 611
f 558 611 609
f 559 612 560
f 559 561 613
f 559 613 612
f 560 612 567
f 561 609 611
f 561 611 610
f 561 610 614
f 561 614 613
f 562 563 616
f 562 616 615
f 563 565 618
f 563 618 616
f 564 617 618
f 564 618 565
f 564 568 621
f 564 621 617
f 566 615 570
f 566 570 569
f 567 619 620
f 567 620 568
f 567 612 619
f 568 620 648
f 568 648 621
f 570 615 571
f 571 616 572
f 571 615 616
f 572 616 618
f 572 618 617
f 572 617 573
f 573 617 621
f 573 621 622
f 573 622 574
f 574 623 575
f 574 622 623
f 575 623 624
f 575 624 576
f 576 624 625
f 576 625 626
f 576 626 627
f 576 627 628
f 576 628 577
f 577 628 627
f 577 627 626
f 577 626 629
f 577 629 578
f 578 629 630
f 578 630 579
f 579 630 631
f 579 631 580
f 580 631 632
f 580 632 583
f 583 632 584
f 584 632 585
f 585 632 586
f 586 632 587
f 587 632 633
f 587 633 588
f 588 633 634
f 588 634 635
f 588 635 636
f 588 636 637
f 588 637 638
f 588 638 589
f 589 638 597
f 589 597 590
f 590 598 591
f 590 597 598
f 599 638 637
f 599 637 604
f 600 604 601
f 601 604 639
f 601 639 602
f 602 639 640
f 602 640 603
f 603 641 639
f 603 639 642
f 603 642 605
f 603 640 641
f 604 637 656
f 604 656 639
f 605 642 643
f 605 643 644
f 605 644 645
f 605 645 646
f 605 646 606
f 606 646 607
f 607 646 647
f 607 647 608
f 608 647 610
f 610 647 614
f 612 613 620
f 612 620 619
f 613 614 620
f 614 647 620
f 620 647 650
f 620 650 648
f 621 648 622
f 622 648 649
f 622 649 623
f 623 649 648
f 623 648 624
f 624 648 625
f 625 650 626
f 625 648 650
f 626 650 629
f 629 650 630
f 630 650 651
f 630 651 631
f 631 651 632
f 632 651 652
f 632 652 653
f 632 653 654
f 632 654 655
f 632 655 633
f 633 655 656
f 633 656 657
f 633 657 658
f 633 658 634
f 634 658 656
f 634 656 635
f 635 637 636
f 635 656 637
f 639 656 652
f 639 652 645
f 639 645 644
f 639 644 643
f 639 643 642
f 639 641 640
f 645 652 651
f 645 651 646
f 646 651 650
f 646 650 647
f 652 656 653
f 653 656 654
f 654 656 655
f 656 658 657

