# https://github.com/mikedh/trimesh
v -0.00407094 0.09073533 -0.00065843
v -0.00407094 0.09073533 0.00065871
v -0.00398965 0.09190547 -0.00043903
v -0.00368202 0.09073533 -0.00161513
v -0.00370115 0.08882915 -0.00161513
v -0.00370115 0.05627305 -0.00161513
v -0.00370115 0.01416716 -0.00161435
v -0.00370115 -0.06619450 -0.00161278
v -0.00370115 -0.08535069 -0.00161199
v -0.00406776 -0.08535069 -0.00065529
v -0.00370115 0.06967295 0.00161541
v -0.00370115 0.08882915 0.00161541
v -0.00368202 0.09073533 0.00161541
v -0.00398965 0.09190547 0.00043853
v -0.00406776 -0.08535069 0.00065479
v -0.00370115 -0.08535069 0.00161227
v -0.00370115 -0.05279460 0.00161306
v -0.00299583 0.09224518 -0.00102904
v -0.00232477 0.09198096 -0.00287036
v -0.00193426 0.09171674 -0.00384117
v -0.00275514 0.09073533 -0.00287036
v -0.00277427 0.08882915 -0.00287036
v -0.00277427 0.07542925 -0.00287036
v -0.00277347 0.05053563 -0.00287036
v -0.00277188 0.00076726 -0.00287036
v -0.00277108 -0.02408861 -0.00287036
v -0.00276948 -0.07195079 -0.00287036
v -0.00276869 -0.08535069 -0.00287036
v -0.00256626 -0.08710589 -0.00300435
v -0.00367405 -0.08725688 -0.00148663
v -0.00400479 -0.08725688 -0.00052993
v -0.00288584 -0.08342564 0.00287064
v -0.00288584 0.08882915 0.00287064
v -0.00286672 0.09073533 0.00287064
v -0.00200837 0.09179222 0.00389629
v -0.00238056 0.09203758 0.00287064
v -0.00299583 0.09224518 0.00102854
v -0.00400479 -0.08725688 0.00052942
v -0.00367405 -0.08725688 0.00148691
v -0.00286353 -0.08535069 0.00287064
v -0.00095637 0.09273588 -0.00095696
v -0.00095637 0.09232067 -0.00287036
v -0.00095637 0.09179222 -0.00389445
v -0.00095637 0.09073533 -0.00396105
v -0.00194462 0.09073533 -0.00384822
v -0.00194063 -0.03365727 -0.00384587
v -0.00193904 -0.07576316 -0.00384509
v -0.00194382 0.06776677 -0.00384822
v -0.00193904 -0.08342564 -0.00384430
v -0.00193824 -0.08535069 -0.00384430
v -0.00193027 -0.08636984 -0.00383882
v -0.00256307 -0.08916306 -0.00258123
v -0.00229050 -0.09108812 -0.00229054
v -0.00206815 -0.09254134 -0.00206802
v -0.00353060 -0.08916306 -0.00092718
v -0.00390358 -0.08852137 -0.00026979
v -0.00205540 -0.08342564 0.00393077
v -0.00205540 0.09073533 0.00393077
v -0.00095637 0.09184884 0.00393547
v -0.00095637 0.09237729 0.00287064
v -0.00095637 0.09073533 0.00404360
v -0.00095637 0.09273588 0.00095645
v -0.00390358 -0.08852137 0.00026929
v -0.00259495 -0.08720026 0.00300462
v -0.00353060 -0.08916306 0.00092746
v -0.00206815 -0.09254134 0.00206751
v -0.00229050 -0.09108812 0.00229082
v -0.00256307 -0.08916306 0.00258073
v -0.00203308 -0.08535069 0.00391353
v -0.00197889 -0.08653970 0.00387357
v 0.00095637 0.09273588 -0.00095696
v 0.00095637 0.09232067 -0.00287036
v 0.00095637 0.09179222 -0.00389445
v 0.00095637 0.09073533 -0.00396105
v 0.00095637 -0.01642613 -0.00395870
v -0.00095637 -0.05088841 -0.00395791
v -0.00095637 -0.08535069 -0.00395713
v -0.00091732 -0.08710589 -0.00391012
v -0.00025344 -0.08846476 -0.00387878
v -0.00152939 -0.08765321 -0.00373147
v -0.00183543 -0.09382471 -0.00183530
v -0.00300061 -0.09108812 -0.00095696
v -0.00198765 -0.09618385 -0.00017655
v -0.00095637 -0.08535069 0.00402558
v -0.00095637 -0.08342564 0.00404360
v 0.00095637 0.09179222 0.00389394
v 0.00095637 0.09232067 0.00287064
v 0.00095637 0.09273588 0.00095645
v 0.00095637 0.09073533 0.00396054
v -0.00198765 -0.09618385 0.00017604
v -0.00300061 -0.09108812 0.00095645
v -0.00183463 -0.09382471 0.00183480
v -0.00091732 -0.08720026 0.00393077
v -0.00017613 -0.09618385 0.00198759
v -0.00152939 -0.08780420 0.00373175
v -0.00025344 -0.08846476 0.00387827
v 0.00299583 0.09224518 -0.00102904
v 0.00232477 0.09198096 -0.00287036
v 0.00193426 0.09171674 -0.00384117
v 0.00194462 0.09073533 -0.00384822
v 0.00194382 0.06586059 -0.00384822
v 0.00095637 -0.08535069 -0.00395713
v -0.00091732 -0.08912531 -0.00354499
v 0.00025344 -0.08846476 -0.00387878
v -0.00017613 -0.09618385 -0.00198731
v -0.00071090 -0.09873172 -0.00071092
v -0.00238216 -0.09310754 -0.00110113
v -0.00038414 -0.10003397 -0.00038419
v 0.00095637 -0.08535069 0.00395663
v 0.00025344 -0.08846476 0.00387827
v 0.00091732 -0.08710589 0.00390961
v 0.00095637 -0.07385698 0.00395741
v 0.00095637 0.03330449 0.00395976
v 0.00095637 0.06967295 0.00396054
v 0.00193426 0.09171674 0.00384145
v 0.00232477 0.09198096 0.00287064
v 0.00299583 0.09224518 0.00102854
v 0.00194462 0.09073533 0.00384850
v -0.00038414 -0.10003397 0.00038368
v -0.00071090 -0.09873172 0.00071042
v -0.00238216 -0.09310754 0.00110062
v 0.00017613 -0.09618385 0.00198759
v 0.00398965 0.09190547 -0.00043903
v 0.00368202 0.09073533 -0.00161513
v 0.00275514 0.09073533 -0.00287036
v 0.00277427 0.08882915 -0.00287036
v 0.00277427 0.07542925 -0.00287036
v 0.00277347 0.05053563 -0.00287036
v 0.00277188 0.00076726 -0.00287036
v 0.00277108 -0.02408861 -0.00287036
v 0.00276948 -0.07195079 -0.00287036
v 0.00194063 -0.03365727 -0.00384587
v 0.00193904 -0.07576316 -0.00384509
v 0.00193824 -0.08535069 -0.00384430
v 0.00193027 -0.08636984 -0.00383882
v 0.00091732 -0.08710589 -0.00391012
v 0.00152939 -0.08765321 -0.00373147
v 0.00091732 -0.08912531 -0.00354499
v 0.00017613 -0.09618385 -0.00198731
v 0.00038414 -0.10003397 -0.00038419
v 0.00193027 -0.08636984 0.00383910
v 0.00193824 -0.08535069 0.00384458
v 0.00152939 -0.08765321 0.00373097
v 0.00091732 -0.08912531 0.00354527
v 0.00193904 -0.08342564 0.00384458
v 0.00193904 -0.06238213 0.00384536
v 0.00194063 -0.02601367 0.00384615
v 0.00194302 0.04479821 0.00384771
v 0.00194382 0.07924161 0.00384850
v 0.00368202 0.09073533 0.00161541
v 0.00398965 0.09190547 0.00043853
v 0.00275514 0.09073533 0.00287064
v 0.00277347 0.05053563 0.00287064
v 0.00277427 0.07542925 0.00287064
v 0.00277427 0.08882915 0.00287064
v 0.00276948 -0.07195079 0.00287064
v 0.00277108 -0.02408861 0.00287064
v 0.00277188 0.00076726 0.00287064
v 0.00038414 -0.10003397 0.00038368
v 0.00071090 -0.09873172 0.00071042
v 0.00183543 -0.09382471 0.00183480
v 0.00407094 0.09073533 -0.00065843
v 0.00370115 0.08882915 -0.00161513
v 0.00370115 0.05627305 -0.00161513
v 0.00370115 0.01416716 -0.00161435
v 0.00370115 -0.06619450 -0.00161278
v 0.00370115 -0.08535069 -0.00161199
v 0.00276869 -0.08535069 -0.00287036
v 0.00193904 -0.08342564 -0.00384430
v 0.00256626 -0.08710589 -0.00300435
v 0.00256307 -0.08916306 -0.00258123
v 0.00229050 -0.09108812 -0.00229054
v 0.00206815 -0.09254134 -0.00206802
v 0.00183463 -0.09382471 -0.00183530
v 0.00071090 -0.09873172 -0.00071092
v 0.00198765 -0.09618385 -0.00017577
v 0.00206815 -0.09254134 0.00206751
v 0.00229050 -0.09108812 0.00229082
v 0.00256307 -0.08916306 0.00258073
v 0.00256626 -0.08710589 0.00300462
v 0.00276869 -0.08535069 0.00287064
v 0.00193983 -0.05855089 0.00384536
v 0.00407094 0.09073533 0.00065871
v 0.00370115 0.08882915 0.00161541
v 0.00370115 -0.08535069 0.00161227
v 0.00370115 0.06967295 0.00161541
v 0.00370115 -0.05279460 0.00161306
v 0.00198765 -0.09618385 0.00017604
v 0.00238216 -0.09310754 0.00110062
v 0.00300061 -0.09108812 0.00095645
v 0.00406776 -0.08535069 -0.00065529
v 0.00367405 -0.08725688 -0.00148663
v 0.00353060 -0.08916306 -0.00092718
v 0.00300061 -0.09108812 -0.00095696
v 0.00238216 -0.09310754 -0.00110113
v 0.00390358 -0.08852137 -0.00026979
v 0.00353060 -0.08916306 0.00092746
v 0.00367405 -0.08725688 0.00148691
v 0.00406776 -0.08535069 0.00065479
v 0.00390358 -0.08852137 0.00026929
v 0.00400479 -0.08725688 -0.00052993
v 0.00400479 -0.08725688 0.00053020
f 1 2 14
f 1 14 3
f 1 3 4
f 1 4 5
f 1 5 6
f 1 6 7
f 1 7 8
f 1 8 9
f 1 9 10
f 1 10 15
f 1 15 2
f 2 11 12
f 2 12 13
f 2 13 14
f 2 15 16
f 2 16 17
f 2 17 11
f 3 14 37
f 3 37 18
f 3 18 19
f 3 19 20
f 3 20 4
f 4 20 21
f 4 21 22
f 4 22 5
f 5 22 23
f 5 23 6
f 6 23 7
f 7 23 8
f 8 23 9
f 9 23 24
f 9 24 25
f 9 25 26
f 9 26 27
f 9 27 28
f 9 28 29
f 9 29 30
f 9 30 10
f 10 30 31
f 10 31 38
f 10 38 15
f 11 17 32
f 11 32 33
f 11 33 12
f 12 33 34
f 12 34 13
f 13 34 35
f 13 35 14
f 14 35 36
f 14 36 37
f 15 38 39
f 15 39 16
f 16 39 40
f 16 40 32
f 16 32 17
f 18 37 62
f 18 62 41
f 18 41 42
f 18 42 19
f 19 42 20
f 20 42 43
f 20 43 44
f 20 44 45
f 20 45 21
f 21 45 22
f 22 45 23
f 23 45 24
f 24 45 25
f 25 45 26
f 26 45 27
f 27 46 47
f 27 47 28
f 27 45 48
f 27 48 46
f 28 47 49
f 28 49 50
f 28 50 51
f 28 51 29
f 29 51 52
f 29 52 30
f 30 52 53
f 30 53 54
f 30 54 55
f 30 55 56
f 30 56 31
f 31 56 63
f 31 63 38
f 32 40 57
f 32 57 58
f 32 58 33
f 33 58 34
f 34 58 35
f 35 59 60
f 35 60 36
f 35 58 61
f 35 61 59
f 36 60 37
f 37 60 62
f 38 63 39
f 39 64 40
f 39 63 65
f 39 65 66
f 39 66 67
f 39 67 68
f 39 68 64
f 40 69 57
f 40 64 70
f 40 70 69
f 41 62 88
f 41 88 71
f 41 71 72
f 41 72 42
f 42 72 73
f 42 73 43
f 43 73 74
f 43 74 44
f 44 48 45
f 44 74 75
f 44 75 76
f 44 76 48
f 46 48 47
f 47 77 50
f 47 50 49
f 47 48 77
f 48 76 77
f 50 77 51
f 51 78 79
f 51 79 80
f 51 80 54
f 51 54 53
f 51 53 52
f 51 77 78
f 54 81 82
f 54 82 55
f 54 80 81
f 55 82 83
f 55 83 56
f 56 83 90
f 56 90 63
f 57 69 84
f 57 84 85
f 57 85 61
f 57 61 58
f 59 86 87
f 59 87 60
f 59 61 86
f 60 87 88
f 60 88 62
f 61 89 86
f 61 85 114
f 61 114 89
f 63 90 65
f 64 68 70
f 65 90 91
f 65 91 66
f 66 91 92
f 66 92 70
f 66 70 67
f 67 70 68
f 69 70 84
f 70 93 84
f 70 92 94
f 70 94 95
f 70 95 96
f 70 96 93
f 71 88 117
f 71 117 97
f 71 97 72
f 72 97 98
f 72 98 99
f 72 99 73
f 73 99 74
f 74 99 100
f 74 100 101
f 74 101 75
f 75 102 77
f 75 77 76
f 75 101 102
f 77 102 104
f 77 104 79
f 77 79 78
f 79 103 80
f 79 104 139
f 79 139 105
f 79 105 103
f 80 103 105
f 80 105 81
f 81 105 106
f 81 106 83
f 81 83 107
f 81 107 82
f 82 107 83
f 83 106 108
f 83 108 119
f 83 119 90
f 84 109 85
f 84 93 96
f 84 96 110
f 84 110 111
f 84 111 109
f 85 109 112
f 85 112 113
f 85 113 114
f 86 89 115
f 86 115 87
f 87 115 116
f 87 116 117
f 87 117 88
f 89 118 115
f 89 114 118
f 90 119 120
f 90 120 92
f 90 92 121
f 90 121 91
f 91 121 92
f 92 120 94
f 94 120 119
f 94 119 159
f 94 159 122
f 94 122 110
f 94 110 96
f 94 96 95
f 97 117 151
f 97 151 123
f 97 123 98
f 98 123 99
f 99 123 124
f 99 124 125
f 99 125 100
f 100 125 126
f 100 126 127
f 100 127 128
f 100 128 129
f 100 129 101
f 101 129 130
f 101 130 131
f 101 131 132
f 101 132 133
f 101 133 102
f 102 133 134
f 102 134 135
f 102 135 136
f 102 136 104
f 104 137 138
f 104 138 139
f 104 136 135
f 104 135 137
f 105 139 140
f 105 140 108
f 105 108 106
f 108 140 159
f 108 159 119
f 109 111 141
f 109 141 142
f 109 142 112
f 110 143 141
f 110 141 111
f 110 122 144
f 110 144 143
f 112 142 145
f 112 145 146
f 112 146 147
f 112 147 148
f 112 148 149
f 112 149 113
f 113 149 114
f 114 149 118
f 115 150 151
f 115 151 116
f 115 118 152
f 115 152 150
f 116 151 117
f 118 153 154
f 118 154 155
f 118 155 152
f 118 149 148
f 118 148 156
f 118 156 157
f 118 157 158
f 118 158 153
f 122 159 160
f 122 160 161
f 122 161 143
f 122 143 144
f 123 151 183
f 123 183 162
f 123 162 124
f 124 162 163
f 124 163 126
f 124 126 125
f 126 163 164
f 126 164 127
f 127 164 165
f 127 165 166
f 127 166 167
f 127 167 128
f 128 167 129
f 129 167 130
f 130 167 131
f 131 167 168
f 131 168 133
f 131 133 132
f 133 168 169
f 133 169 134
f 134 169 168
f 134 168 135
f 135 170 171
f 135 171 172
f 135 172 173
f 135 173 137
f 135 168 170
f 137 173 174
f 137 174 139
f 137 139 138
f 139 174 175
f 139 175 140
f 140 175 176
f 140 176 188
f 140 188 159
f 141 143 177
f 141 177 178
f 141 178 179
f 141 179 180
f 141 180 181
f 141 181 142
f 142 181 145
f 143 161 177
f 145 181 156
f 145 156 182
f 145 182 146
f 146 182 147
f 147 182 148
f 148 182 156
f 150 183 151
f 150 152 155
f 150 155 184
f 150 184 183
f 153 158 185
f 153 185 154
f 154 186 184
f 154 184 155
f 154 185 187
f 154 187 186
f 156 181 185
f 156 185 157
f 157 185 158
f 159 188 160
f 160 188 161
f 161 188 189
f 161 189 190
f 161 190 177
f 162 191 167
f 162 167 166
f 162 166 165
f 162 165 164
f 162 164 163
f 162 183 199
f 162 199 191
f 167 191 192
f 167 192 170
f 167 170 168
f 170 192 171
f 171 192 172
f 172 192 173
f 173 192 193
f 173 193 194
f 173 194 174
f 174 194 195
f 174 195 176
f 174 176 175
f 176 195 194
f 176 194 193
f 176 193 196
f 176 196 200
f 176 200 188
f 177 190 197
f 177 197 198
f 177 198 178
f 178 198 179
f 179 198 180
f 180 185 181
f 180 198 185
f 183 184 186
f 183 186 187
f 183 187 185
f 183 185 199
f 185 198 199
f 188 200 197
f 188 197 190
f 188 190 189
f 191 199 202
f 191 202 201
f 191 201 192
f 192 201 196
f 192 196 193
f 196 201 202
f 196 202 200
f 197 200 198
f 198 200 202
f 198 202 199

