mtllib material.mtl
usemtl wood_pencil
v 0.00000000 0.09170200 -0.00300000
v -0.00109200 0.09170200 0.00300000
v 0.00233300 0.09170200 -0.00195800
v -0.00314400 0.09170200 0.00055400
v 0.00259800 0.09170200 0.00150000
v -0.00233300 0.09170200 -0.00195800
v 0.00052900 0.09170200 0.00300000
v 0.00109200 0.09170200 -0.00300000
v -0.00233300 0.09170200 0.00195800
v -0.00314400 0.09170200 -0.00055400
v 0.00205200 0.09170200 0.00244500
v -0.00052900 0.09170200 -0.00300000
v -0.00052900 0.09170200 0.00300000
v 0.00205200 0.09170200 -0.00244500
v -0.00286200 0.09170200 0.00104200
v 0.00286200 0.09170200 0.00104200
v -0.00259800 0.09170200 -0.00150000
v -0.00205200 0.09170200 -0.00244500
v 0.00109200 0.09170200 0.00300000
v -0.00205200 0.09170200 0.00244500
v 0.00052900 0.09170200 -0.00300000
v 0.00314400 0.09170200 -0.00055400
v 0.00259800 0.09170200 -0.00150000
v 0.00233300 0.09170200 0.00195800
v -0.00173200 0.09170200 0.00300000
v -0.00109200 0.09170200 -0.00300000
v -0.00000000 0.09170200 0.00300000
v -0.00259800 0.09170200 0.00150000
v 0.00286200 0.09170200 -0.00104200
v 0.00314400 0.09170200 0.00055400
v -0.00286200 0.09170200 -0.00104200
v -0.00064900 -0.09707300 0.00037500
v 0.00000000 -0.09707300 -0.00075000
v 0.00075000 -0.09707300 0.00000000
v -0.00057400 -0.09707300 -0.00048200
v 0.00048200 -0.09707300 -0.00057400
v 0.00025600 -0.09707300 0.00070400
v -0.00075000 -0.09707300 0.00000000
v 0.00037500 -0.09707300 -0.00064900
v 0.00037500 -0.09707300 0.00064900
v 0.00064900 -0.09707300 0.00037500
v -0.00057400 -0.09707300 0.00048200
v -0.00013000 -0.09707300 0.00073800
v -0.00048200 -0.09707300 -0.00057400
v 0.00064900 -0.09707300 -0.00037500
v -0.00000000 -0.09707300 0.00075000
v -0.00070400 -0.09707300 -0.00025600
v -0.00073800 -0.09707300 0.00013000
v 0.00025600 -0.09707300 -0.00070400
v -0.00013000 -0.09707300 -0.00073800
v -0.00064900 -0.09707300 -0.00037500
v 0.00073800 -0.09707300 -0.00013000
v -0.00025600 -0.09707300 -0.00070400
v 0.00073800 -0.09707300 0.00013000
v 0.00057400 -0.09707300 -0.00048200
v 0.00013000 -0.09707300 0.00073800
v 0.00048200 -0.09707300 0.00057400
v 0.00070400 -0.09707300 0.00025600
v 0.00013000 -0.09707300 -0.00073800
v -0.00037500 -0.09707300 0.00064900
v 0.00070400 -0.09707300 -0.00025600
v -0.00025600 -0.09707300 0.00070400
v -0.00037500 -0.09707300 -0.00064900
v -0.00073800 -0.09707300 -0.00013000
v -0.00070400 -0.09707300 0.00025600
v -0.00048200 -0.09707300 0.00057400
v 0.00057400 -0.09707300 0.00048200
v -0.00000000 0.09170200 -0.00075100
v -0.00025700 0.09170200 0.00070600
v 0.00057500 0.09170200 -0.00048300
v -0.00074000 0.09170200 0.00013000
v 0.00065000 0.09170200 0.00037500
v -0.00057500 0.09170200 -0.00048300
v -0.00037500 0.09170200 -0.00065000
v 0.00013000 0.09170200 0.00074000
v 0.00025700 0.09170200 -0.00070600
v -0.00057500 0.09170200 0.00048300
v 0.00075100 0.09170200 -0.00000000
v -0.00074000 0.09170200 -0.00013000
v 0.00048300 0.09170200 0.00057500
v -0.00013000 0.09170200 -0.00074000
v -0.00013000 0.09170200 0.00074000
v 0.00048300 0.09170200 -0.00057500
v -0.00070600 0.09170200 0.00025700
v 0.00070600 0.09170200 0.00025700
v -0.00065000 0.09170200 -0.00037500
v -0.00048300 0.09170200 -0.00057500
v 0.00025700 0.09170200 0.00070600
v -0.00048300 0.09170200 0.00057500
v 0.00013000 0.09170200 -0.00074000
v 0.00074000 0.09170200 -0.00013000
v 0.00065000 0.09170200 -0.00037500
v -0.00075100 0.09170200 -0.00000000
v 0.00057500 0.09170200 0.00048300
v -0.00037500 0.09170200 0.00065000
v -0.00025700 0.09170200 -0.00070600
v -0.00000000 0.09170200 0.00075100
v 0.00037500 0.09170200 -0.00065000
v -0.00065000 0.09170200 0.00037500
v 0.00070600 0.09170200 -0.00025700
v 0.00074000 0.09170200 0.00013000
v -0.00070600 0.09170200 -0.00025700
v 0.00037500 0.09170200 0.00065000
v -0.00109200 0.09170200 -0.00300000
v -0.00205200 0.09170200 -0.00244500
v -0.00141200 0.09170200 -0.00244500
v 0.00314400 0.09170200 0.00055400
v 0.00314400 0.09170200 -0.00055400
v 0.00282400 0.09170200 -0.00000000
v -0.00314400 0.09170200 -0.00055400
v -0.00314400 0.09170200 0.00055400
v -0.00282400 0.09170200 -0.00000000
v 0.00205200 0.09170200 -0.00244500
v 0.00109200 0.09170200 -0.00300000
v 0.00141200 0.09170200 -0.00244500
v 0.00109200 0.09170200 0.00300000
v 0.00205200 0.09170200 0.00244500
v 0.00141200 0.09170200 0.00244500
v 0.00161000 -0.08722300 0.00278800
v 0.00161000 -0.08722300 0.00278800
v 0.00126400 -0.08670800 0.00296900
v 0.00177700 -0.08698600 0.00270400
v 0.00145300 -0.08698600 0.00289100
v 0.00163700 -0.08673400 0.00283600
v 0.00193900 -0.08670800 0.00257900
v 0.00174800 -0.08656500 0.00277800
v -0.00266900 -0.08873700 -0.00097100
v -0.00283600 -0.08760800 -0.00103200
v -0.00276500 -0.08821500 -0.00100700
v 0.00292600 -0.08821300 0.00051600
v 0.00311400 -0.08702300 0.00054900
v 0.00303500 -0.08765900 0.00053500
v 0.00266900 -0.08873700 -0.00097100
v 0.00276500 -0.08821500 -0.00100700
v 0.00283600 -0.08760800 -0.00103200
v -0.00242300 -0.08890300 0.00139900
v -0.00257400 -0.08779300 0.00148600
v -0.00251100 -0.08839100 0.00145000
v 0.00161000 -0.08722300 -0.00278800
v 0.00161000 -0.08722300 -0.00278800
v 0.00193900 -0.08670800 -0.00257900
v 0.00145300 -0.08698600 -0.00289100
v 0.00177700 -0.08698600 -0.00270400
v 0.00163700 -0.08673400 -0.00283600
v 0.00126400 -0.08670800 -0.00296900
v 0.00153200 -0.08656500 -0.00290300
v -0.00000000 -0.08890300 0.00279800
v -0.00000000 -0.08779300 0.00297300
v -0.00000000 -0.08839100 0.00289900
v -0.00101600 -0.08821300 -0.00279200
v -0.00108200 -0.08702300 -0.00297200
v -0.00105400 -0.08765900 -0.00289600
v -0.00161000 -0.08722300 0.00278800
v -0.00171500 -0.08594500 0.00297100
v -0.00171500 -0.08594500 0.00297100
v -0.00167100 -0.08662000 0.00289400
v -0.00167100 -0.08662000 0.00289400
v 0.00217600 -0.08873700 0.00182600
v 0.00225400 -0.08821500 0.00189200
v 0.00231200 -0.08760800 0.00194000
v -0.00322000 -0.08722300 0.00000000
v -0.00322000 -0.08722300 0.00000000
v -0.00320300 -0.08670800 -0.00039000
v -0.00323100 -0.08698600 0.00018700
v -0.00323100 -0.08698600 -0.00018700
v -0.00327500 -0.08673400 0.00000000
v -0.00320300 -0.08670800 0.00039000
v -0.00328000 -0.08656500 0.00012400
v 0.00242300 -0.08890300 -0.00139900
v 0.00257400 -0.08779300 -0.00148600
v 0.00251100 -0.08839100 -0.00144900
v 0.00292600 -0.08821300 -0.00051600
v 0.00311400 -0.08702300 -0.00054900
v 0.00303500 -0.08765900 -0.00053500
v 0.00049300 -0.08873700 -0.00279700
v 0.00051100 -0.08821500 -0.00289800
v 0.00052400 -0.08760800 -0.00297200
v -0.00191000 -0.08821300 0.00227600
v -0.00203300 -0.08702300 0.00242300
v -0.00198100 -0.08765900 0.00236100
v 0.00101600 -0.08821300 0.00279200
v 0.00108200 -0.08702300 0.00297200
v 0.00105400 -0.08765900 0.00289600
v -0.00191000 -0.08821300 -0.00227600
v -0.00203300 -0.08702300 -0.00242300
v -0.00198100 -0.08765900 -0.00236100
v -0.00242300 -0.08890300 -0.00139900
v -0.00257400 -0.08779300 -0.00148600
v -0.00251100 -0.08839100 -0.00144900
v 0.00266900 -0.08873700 0.00097100
v 0.00283600 -0.08760800 0.00103200
v 0.00276500 -0.08821500 0.00100700
v -0.00266900 -0.08873700 0.00097100
v -0.00276500 -0.08821500 0.00100700
v -0.00283600 -0.08760800 0.00103200
v 0.00191000 -0.08821300 -0.00227600
v 0.00203300 -0.08702300 -0.00242300
v 0.00198100 -0.08765900 -0.00236100
v -0.00049300 -0.08873700 0.00279700
v -0.00051100 -0.08821500 0.00289800
v -0.00052400 -0.08760800 0.00297200
v -0.00049300 -0.08873700 -0.00279700
v -0.00052400 -0.08760800 -0.00297200
v -0.00051100 -0.08821500 -0.00289800
v 0.00191000 -0.08821300 0.00227600
v 0.00203300 -0.08702300 0.00242300
v 0.00198100 -0.08765900 0.00236100
v -0.00292600 -0.08821300 -0.00051600
v -0.00311400 -0.08702300 -0.00054900
v -0.00303500 -0.08765900 -0.00053500
v 0.00322000 -0.08722300 0.00000000
v 0.00322000 -0.08722300 0.00000000
v 0.00320300 -0.08670800 0.00039000
v 0.00323100 -0.08698600 -0.00018700
v 0.00323100 -0.08698600 0.00018700
v 0.00327500 -0.08673400 0.00000000
v 0.00320300 -0.08670800 -0.00039000
v 0.00328000 -0.08656500 -0.00012400
v -0.00217600 -0.08873700 0.00182600
v -0.00231200 -0.08760800 0.00194000
v -0.00225400 -0.08821500 0.00189200
v 0.00101600 -0.08821300 -0.00279200
v 0.00108200 -0.08702300 -0.00297200
v 0.00105400 -0.08765900 -0.00289600
v 0.00049300 -0.08873700 0.00279700
v 0.00052400 -0.08760800 0.00297200
v 0.00051100 -0.08821500 0.00289800
v -0.00161000 -0.08722300 -0.00278800
v -0.00161000 -0.08722300 -0.00278800
v -0.00126400 -0.08670800 -0.00296900
v -0.00177700 -0.08698600 -0.00270400
v -0.00145300 -0.08698600 -0.00289100
v -0.00163700 -0.08673400 -0.00283600
v -0.00193900 -0.08670800 -0.00257900
v -0.00174800 -0.08656500 -0.00277800
v -0.00217600 -0.08873700 -0.00182600
v -0.00225400 -0.08821500 -0.00189200
v -0.00231200 -0.08760800 -0.00194000
v 0.00242300 -0.08890300 0.00139900
v 0.00257400 -0.08779300 0.00148600
v 0.00251100 -0.08839100 0.00145000
v -0.00292600 -0.08821300 0.00051600
v -0.00311400 -0.08702300 0.00054900
v -0.00303500 -0.08765900 0.00053500
v 0.00217600 -0.08873700 -0.00182600
v 0.00231200 -0.08760800 -0.00194000
v 0.00225400 -0.08821500 -0.00189200
v -0.00101600 -0.08821300 0.00279200
v -0.00108200 -0.08702300 0.00297200
v -0.00105400 -0.08765900 0.00289600
v 0.00000000 -0.08890300 -0.00279800
v 0.00000000 -0.08779300 -0.00297300
v 0.00000000 -0.08839100 -0.00289900
vn -0.00000000 1.00000000 -0.00010000
vn -0.00000000 1.00000000 0.00010000
vn 0.00010000 1.00000000 -0.00000000
vn -0.00010000 1.00000000 -0.00000000
vn 0.00010000 1.00000000 -0.00000000
vn -0.00010000 1.00000000 -0.00000000
vn -0.00000000 1.00000000 0.00010000
vn -0.00000000 1.00000000 -0.00010000
vn -0.00010000 1.00000000 -0.00000000
vn -0.00010000 1.00000000 -0.00000000
vn 0.00010000 1.00000000 -0.00000000
vn -0.00000000 1.00000000 -0.00010000
vn -0.00000000 1.00000000 0.00010000
vn 0.00010000 1.00000000 -0.00000000
vn -0.00010000 1.00000000 -0.00000000
vn 0.00010000 1.00000000 -0.00000000
vn -0.00010000 1.00000000 -0.00000000
vn -0.00010000 1.00000000 -0.00000000
vn -0.00000000 1.00000000 0.00010000
vn -0.00010000 1.00000000 -0.00000000
vn -0.00000000 1.00000000 -0.00010000
vn 0.00010000 1.00000000 -0.00000000
vn 0.00010000 1.00000000 -0.00000000
vn 0.00010000 1.00000000 -0.00000000
vn -0.00000000 1.00000000 0.00010000
vn -0.00000000 1.00000000 -0.00010000
vn -0.00000000 1.00000000 0.00010000
vn -0.00010000 1.00000000 -0.00000000
vn 0.00010000 1.00000000 -0.00000000
vn 0.00010000 1.00000000 -0.00000000
vn -0.00010000 1.00000000 -0.00000000
vn -0.84000000 -0.24320000 0.48500000
vn -0.00000000 -0.24320000 -0.97000000
vn 0.97000000 -0.24320000 -0.00000000
vn -0.74300000 -0.24320000 -0.62350000
vn 0.62350000 -0.24320000 -0.74300000
vn 0.33170000 -0.24320000 0.91150000
vn -0.97000000 -0.24320000 -0.00000000
vn 0.48500000 -0.24320000 -0.84000000
vn 0.48500000 -0.24320000 0.84000000
vn 0.84000000 -0.24320000 0.48500000
vn -0.74300000 -0.24320000 0.62350000
vn -0.16840000 -0.24320000 0.95520000
vn -0.62350000 -0.24320000 -0.74300000
vn 0.84000000 -0.24320000 -0.48500000
vn -0.00000000 -0.24320000 0.97000000
vn -0.91150000 -0.24320000 -0.33180000
vn -0.95520000 -0.24320000 0.16840000
vn 0.33170000 -0.24320000 -0.91150000
vn -0.16840000 -0.24320000 -0.95520000
vn -0.84000000 -0.24320000 -0.48500000
vn 0.95520000 -0.24320000 -0.16840000
vn -0.33170000 -0.24320000 -0.91150000
vn 0.95520000 -0.24320000 0.16840000
vn 0.74300000 -0.24320000 -0.62350000
vn 0.16840000 -0.24320000 0.95520000
vn 0.62350000 -0.24320000 0.74300000
vn 0.91150000 -0.24320000 0.33180000
vn 0.16840000 -0.24320000 -0.95520000
vn -0.48500000 -0.24320000 0.84000000
vn 0.91150000 -0.24320000 -0.33180000
vn -0.33170000 -0.24320000 0.91150000
vn -0.48500000 -0.24320000 -0.84000000
vn -0.95520000 -0.24320000 -0.16840000
vn -0.91150000 -0.24320000 0.33180000
vn -0.62350000 -0.24320000 0.74300000
vn 0.74300000 -0.24320000 0.62350000
vn -0.00000000 1.00000000 -0.00000000
vn -0.00000000 1.00000000 -0.00000000
vn -0.00000000 1.00000000 -0.00000000
vn -0.00000000 1.00000000 -0.00000000
vn -0.00000000 1.00000000 -0.00000000
vn -0.00000000 1.00000000 -0.00000000
vn -0.00000000 1.00000000 -0.00000000
vn -0.00000000 1.00000000 -0.00000000
vn -0.00000000 1.00000000 -0.00000000
vn -0.00000000 1.00000000 -0.00000000
vn -0.00000000 1.00000000 -0.00000000
vn -0.00000000 1.00000000 -0.00000000
vn -0.00000000 1.00000000 -0.00000000
vn -0.00000000 1.00000000 -0.00000000
vn -0.00000000 1.00000000 -0.00000000
vn -0.00000000 1.00000000 -0.00000000
vn -0.00000000 1.00000000 -0.00000000
vn -0.00000000 1.00000000 -0.00000000
vn -0.00000000 1.00000000 -0.00000000
vn -0.00000000 1.00000000 -0.00000000
vn -0.00000000 1.00000000 -0.00000000
vn -0.00000000 1.00000000 -0.00000000
vn -0.00000000 1.00000000 -0.00000000
vn -0.00000000 1.00000000 -0.00000000
vn -0.00000000 1.00000000 -0.00000000
vn -0.00000000 1.00000000 -0.00000000
vn -0.00000000 1.00000000 -0.00000000
vn -0.00000000 1.00000000 -0.00000000
vn -0.00000000 1.00000000 -0.00000000
vn -0.00000000 1.00000000 -0.00000000
vn -0.00000000 1.00000000 -0.00000000
vn -0.00000000 1.00000000 -0.00000000
vn -0.00000000 1.00000000 -0.00000000
vn -0.00000000 1.00000000 -0.00000000
vn -0.00000000 1.00000000 -0.00000000
vn -0.00000000 1.00000000 -0.00000000
vn -0.00000000 1.00000000 -0.00010000
vn -0.00010000 1.00000000 -0.00000000
vn -0.00000000 1.00000000 -0.00010000
vn 0.00010000 1.00000000 -0.00000000
vn 0.00010000 1.00000000 -0.00000000
vn 0.00010000 1.00000000 -0.00000000
vn -0.00010000 1.00000000 -0.00000000
vn -0.00010000 1.00000000 -0.00000000
vn -0.00010000 1.00000000 -0.00000000
vn 0.00010000 1.00000000 -0.00000000
vn -0.00000000 1.00000000 -0.00010000
vn -0.00000000 1.00000000 -0.00010000
vn -0.00000000 1.00000000 0.00010000
vn 0.00010000 1.00000000 -0.00000000
vn -0.00000000 1.00000000 0.00010000
vn 0.49690000 -0.11160000 0.86060000
vn 0.48940000 -0.20440000 0.84770000
vn 0.21100000 -0.05000000 0.97620000
vn 0.63180000 -0.12580000 0.76480000
vn 0.34640000 -0.12580000 0.92960000
vn 0.49780000 -0.09420000 0.86220000
vn 0.73990000 -0.05000000 0.67080000
vn 0.68970000 -0.03410000 0.72330000
vn -0.91200000 -0.22180000 -0.34500000
vn -0.89540000 -0.09270000 -0.43550000
vn -0.90780000 -0.16330000 -0.38640000
vn 0.95520000 -0.22070000 0.19700000
vn 0.92350000 -0.09030000 0.37280000
vn 0.94640000 -0.16100000 0.27990000
vn 0.91200000 -0.22180000 -0.34490000
vn 0.90780000 -0.16330000 -0.38640000
vn 0.89540000 -0.09270000 -0.43550000
vn -0.84420000 -0.22310000 0.48740000
vn -0.86210000 -0.09460000 0.49780000
vn -0.85420000 -0.16490000 0.49320000
vn 0.48940000 -0.20440000 -0.84770000
vn 0.49690000 -0.11160000 -0.86060000
vn 0.73990000 -0.05000000 -0.67080000
vn 0.34640000 -0.12580000 -0.92960000
vn 0.63180000 -0.12580000 -0.76480000
vn 0.49780000 -0.09420000 -0.86220000
vn 0.21100000 -0.05000000 -0.97620000
vn 0.28150000 -0.03420000 -0.95900000
vn -0.00000000 -0.22310000 0.97480000
vn -0.00000000 -0.09460000 0.99550000
vn -0.00000000 -0.16490000 0.98630000
vn -0.30700000 -0.22070000 -0.92580000
vn -0.13890000 -0.09030000 -0.98620000
vn -0.23090000 -0.16100000 -0.95960000
vn -0.48940000 -0.20490000 0.84760000
vn -0.10890000 -0.06360000 0.99200000
vn -0.80470000 -0.06360000 0.59030000
vn -0.71850000 -0.13570000 0.68210000
vn -0.23150000 -0.13570000 0.96330000
vn 0.75470000 -0.22180000 0.61740000
vn 0.78850000 -0.16330000 0.59300000
vn 0.82480000 -0.09270000 0.55770000
vn -0.99380000 -0.11160000 -0.00000000
vn -0.97890000 -0.20440000 -0.00000000
vn -0.95090000 -0.05000000 -0.30540000
vn -0.97830000 -0.12580000 0.16480000
vn -0.97830000 -0.12580000 -0.16480000
vn -0.99550000 -0.09420000 -0.00000000
vn -0.95090000 -0.05000000 0.30540000
vn -0.97120000 -0.03420000 0.23570000
vn 0.84420000 -0.22310000 -0.48740000
vn 0.86210000 -0.09460000 -0.49780000
vn 0.85420000 -0.16490000 -0.49320000
vn 0.95520000 -0.22070000 -0.19700000
vn 0.92350000 -0.09030000 -0.37280000
vn 0.94640000 -0.16100000 -0.27990000
vn 0.15730000 -0.22180000 -0.96230000
vn 0.11930000 -0.16330000 -0.97930000
vn 0.07060000 -0.09270000 -0.99320000
vn -0.64800000 -0.22090000 0.72890000
vn -0.78770000 -0.09120000 0.60930000
vn -0.71510000 -0.16250000 0.67980000
vn 0.30700000 -0.22070000 0.92580000
vn 0.13890000 -0.09030000 0.98620000
vn 0.23090000 -0.16100000 0.95960000
vn -0.64820000 -0.22070000 -0.72880000
vn -0.78460000 -0.09030000 -0.61340000
vn -0.71560000 -0.16100000 -0.67970000
vn -0.84420000 -0.22310000 -0.48740000
vn -0.86210000 -0.09460000 -0.49780000
vn -0.85420000 -0.16490000 -0.49320000
vn 0.91200000 -0.22180000 0.34490000
vn 0.89540000 -0.09270000 0.43550000
vn 0.90780000 -0.16330000 0.38640000
vn -0.91200000 -0.22180000 0.34490000
vn -0.90780000 -0.16330000 0.38640000
vn -0.89540000 -0.09270000 0.43550000
vn 0.64820000 -0.22070000 -0.72880000
vn 0.78460000 -0.09030000 -0.61340000
vn 0.71560000 -0.16100000 -0.67970000
vn -0.15730000 -0.22180000 0.96230000
vn -0.11930000 -0.16330000 0.97930000
vn -0.07060000 -0.09270000 0.99320000
vn -0.15730000 -0.22180000 -0.96230000
vn -0.07060000 -0.09270000 -0.99320000
vn -0.11930000 -0.16330000 -0.97930000
vn 0.64820000 -0.22070000 0.72880000
vn 0.78460000 -0.09030000 0.61340000
vn 0.71560000 -0.16100000 0.67970000
vn -0.95520000 -0.22070000 -0.19700000
vn -0.92350000 -0.09030000 -0.37280000
vn -0.94640000 -0.16100000 -0.27990000
vn 0.97890000 -0.20440000 -0.00000000
vn 0.99380000 -0.11160000 -0.00000000
vn 0.95090000 -0.05000000 0.30540000
vn 0.97830000 -0.12580000 -0.16480000
vn 0.97830000 -0.12580000 0.16480000
vn 0.99550000 -0.09420000 -0.00000000
vn 0.95090000 -0.05000000 -0.30540000
vn 0.97120000 -0.03420000 -0.23570000
vn -0.75470000 -0.22180000 0.61740000
vn -0.82480000 -0.09270000 0.55770000
vn -0.78850000 -0.16330000 0.59300000
vn 0.30700000 -0.22070000 -0.92580000
vn 0.13890000 -0.09030000 -0.98620000
vn 0.23090000 -0.16100000 -0.95960000
vn 0.15730000 -0.22180000 0.96230000
vn 0.07060000 -0.09270000 0.99320000
vn 0.11930000 -0.16330000 0.97930000
vn -0.48940000 -0.20440000 -0.84770000
vn -0.49690000 -0.11160000 -0.86060000
vn -0.21100000 -0.05000000 -0.97620000
vn -0.63180000 -0.12580000 -0.76480000
vn -0.34640000 -0.12580000 -0.92960000
vn -0.49780000 -0.09420000 -0.86220000
vn -0.73990000 -0.05000000 -0.67080000
vn -0.68970000 -0.03420000 -0.72330000
vn -0.75470000 -0.22180000 -0.61740000
vn -0.78850000 -0.16330000 -0.59300000
vn -0.82480000 -0.09270000 -0.55770000
vn 0.84420000 -0.22310000 0.48740000
vn 0.86210000 -0.09460000 0.49780000
vn 0.85420000 -0.16490000 0.49320000
vn -0.95520000 -0.22070000 0.19700000
vn -0.92350000 -0.09030000 0.37280000
vn -0.94640000 -0.16100000 0.27990000
vn 0.75470000 -0.22180000 -0.61740000
vn 0.82480000 -0.09270000 -0.55770000
vn 0.78850000 -0.16330000 -0.59300000
vn -0.30720000 -0.22090000 0.92560000
vn -0.13390000 -0.09120000 0.98680000
vn -0.23120000 -0.16250000 0.95920000
vn -0.00000000 -0.22310000 -0.97480000
vn -0.00000000 -0.09460000 -0.99550000
vn -0.00000000 -0.16490000 -0.98630000
vt 0.44976800 0.25000000
vt 0.05023200 0.17729000
vt 0.38039000 0.40539200
vt 0.21308400 0.04064100
vt 0.15011600 0.42300400
vt 0.38039000 0.09460800
vt 0.05023200 0.28522400
vt 0.44976800 0.32271000
vt 0.11961000 0.09460800
vt 0.28691600 0.04064100
vt 0.08714700 0.38665000
vt 0.44976800 0.21477500
vt 0.05023200 0.21477500
vt 0.41285300 0.38665000
vt 0.18062100 0.05938300
vt 0.18062100 0.44061700
vt 0.34988400 0.07699600
vt 0.41285300 0.11335000
vt 0.05023200 0.32271000
vt 0.08714700 0.11335000
vt 0.44976800 0.28522500
vt 0.28691600 0.45935900
vt 0.34988400 0.42300500
vt 0.11961000 0.40539200
vt 0.05023200 0.13466400
vt 0.44976800 0.17729000
vt 0.05023200 0.25000000
vt 0.15011600 0.07699500
vt 0.31937900 0.44061700
vt 0.21308400 0.45935900
vt 0.31937900 0.05938300
vt 0.22503700 0.20676200
vt 0.29992700 0.25000000
vt 0.25000000 0.29992700
vt 0.28209200 0.21175400
vt 0.28824600 0.28209200
vt 0.20308400 0.26707600
vt 0.25000000 0.20007300
vt 0.29323800 0.27496400
vt 0.20676200 0.27496400
vt 0.22503700 0.29323800
vt 0.21790800 0.21175400
vt 0.20083200 0.24133000
vt 0.28824600 0.21790800
vt 0.27496300 0.29323800
vt 0.20007300 0.25000000
vt 0.26707600 0.20308400
vt 0.24133000 0.20083200
vt 0.29691600 0.26707600
vt 0.29916800 0.24133000
vt 0.27496300 0.20676200
vt 0.25867000 0.29916800
vt 0.29691600 0.23292400
vt 0.24133000 0.29916800
vt 0.28209200 0.28824600
vt 0.20083200 0.25867000
vt 0.21175400 0.28209200
vt 0.23292400 0.29691600
vt 0.29916800 0.25867000
vt 0.20676200 0.22503600
vt 0.26707600 0.29691600
vt 0.20308400 0.23292400
vt 0.29323800 0.22503600
vt 0.25867000 0.20083200
vt 0.23292400 0.20308400
vt 0.21175400 0.21790800
vt 0.21790800 0.28824600
vt 0.44976800 0.25000000
vt 0.05023200 0.17729000
vt 0.38039000 0.40539200
vt 0.21308400 0.04064100
vt 0.15011600 0.42300400
vt 0.38039000 0.09460800
vt 0.44976800 0.13466400
vt 0.05023200 0.28522400
vt 0.44976800 0.32271000
vt 0.11961000 0.09460800
vt 0.25000000 0.48067300
vt 0.28691600 0.04064100
vt 0.08714700 0.38665000
vt 0.44976800 0.21477500
vt 0.05023200 0.21477500
vt 0.41285300 0.38665000
vt 0.18062100 0.05938300
vt 0.18062100 0.44061700
vt 0.34988400 0.07699600
vt 0.41285300 0.11335000
vt 0.05023200 0.32271000
vt 0.08714700 0.11335000
vt 0.44976800 0.28522500
vt 0.28691600 0.45935900
vt 0.34988400 0.42300500
vt 0.25000000 0.01932700
vt 0.11961000 0.40539200
vt 0.05023200 0.13466400
vt 0.44976800 0.17729000
vt 0.05023200 0.25000000
vt 0.44976800 0.36533600
vt 0.15011600 0.07699500
vt 0.31937900 0.44061700
vt 0.21308400 0.45935900
vt 0.31937900 0.05938300
vt 0.05023200 0.36533600
vt 0.44976800 0.17729000
vt 0.41285300 0.11335000
vt 0.44976800 0.13466400
vt 0.21308400 0.45935900
vt 0.28691600 0.45935900
vt 0.25000000 0.48067300
vt 0.28691600 0.04064100
vt 0.21308400 0.04064000
vt 0.25000000 0.01932700
vt 0.41285300 0.38665000
vt 0.44976800 0.32271000
vt 0.44976800 0.36533600
vt 0.05023200 0.32271000
vt 0.08714700 0.38665000
vt 0.05023200 0.36533600
vt 0.06429600 0.35721600
vt 0.06429600 0.35721600
vt 0.05023200 0.33417600
vt 0.06825200 0.36951300
vt 0.05487500 0.34837900
vt 0.05766300 0.36147100
vt 0.07721700 0.38091600
vt 0.06173900 0.37198000
vt 0.31469100 0.07226300
vt 0.31965500 0.05954300
vt 0.31763300 0.06418100
vt 0.21563700 0.44488200
vt 0.21250100 0.45902300
vt 0.21405000 0.45388200
vt 0.31469100 0.42773700
vt 0.31763300 0.43581900
vt 0.31965500 0.44045700
vt 0.15681600 0.08860000
vt 0.15011600 0.07699500
vt 0.15259800 0.08129500
vt 0.43570500 0.35721700
vt 0.43570500 0.35721700
vt 0.42278300 0.38091700
vt 0.44437600 0.34764200
vt 0.43276100 0.36979400
vt 0.44270600 0.36083200
vt 0.44976800 0.33417600
vt 0.44976800 0.35204800
vt 0.06363200 0.25000000
vt 0.05023200 0.25000000
vt 0.05519700 0.25000000
vt 0.43595400 0.18231800
vt 0.44976800 0.17796400
vt 0.44454200 0.17919300
vt 0.06429600 0.14278300
vt 0.05070300 0.13493600
vt 0.05070300 0.13493600
vt 0.05568700 0.13781300
vt 0.05568700 0.13781300
vt 0.12842100 0.39489200
vt 0.12289200 0.40148100
vt 0.11988600 0.40555200
vt 0.25000000 0.03556700
vt 0.25000000 0.03556700
vt 0.27698600 0.03490800
vt 0.23737300 0.03284500
vt 0.26236400 0.03182700
vt 0.24963100 0.02769600
vt 0.22301400 0.03490700
vt 0.23849200 0.02597100
vt 0.34318400 0.41140000
vt 0.34988400 0.42300500
vt 0.34740200 0.41870500
vt 0.28436300 0.44488200
vt 0.28749900 0.45902300
vt 0.28595000 0.45388200
vt 0.43627000 0.28284400
vt 0.44474100 0.28433800
vt 0.44976800 0.28490600
vt 0.09840900 0.12280000
vt 0.08773100 0.11301400
vt 0.09140800 0.11692500
vt 0.06404600 0.31768200
vt 0.05023200 0.32203600
vt 0.05545800 0.32080700
vt 0.40159100 0.12280000
vt 0.41226900 0.11301400
vt 0.40859200 0.11692500
vt 0.34318400 0.08860000
vt 0.34988400 0.07699600
vt 0.34740200 0.08129500
vt 0.18530900 0.42773700
vt 0.18034500 0.44045700
vt 0.18236700 0.43581900
vt 0.18530900 0.07226300
vt 0.18236700 0.06418100
vt 0.18034500 0.05954300
vt 0.40159100 0.37720000
vt 0.41226900 0.38698600
vt 0.40859200 0.38307500
vt 0.06373000 0.21715500
vt 0.05525900 0.21566200
vt 0.05023200 0.21509400
vt 0.43627000 0.21715600
vt 0.44976800 0.21509400
vt 0.44474100 0.21566200
vt 0.09840900 0.37720000
vt 0.08773100 0.38698600
vt 0.09140800 0.38307500
vt 0.28436300 0.05511800
vt 0.28749900 0.04097700
vt 0.28595000 0.04611800
vt 0.25000000 0.46443300
vt 0.25000000 0.46443300
vt 0.22301500 0.46509300
vt 0.26262700 0.46715500
vt 0.23763600 0.46817300
vt 0.25036900 0.47230400
vt 0.27698600 0.46509200
vt 0.26150800 0.47402900
vt 0.12842100 0.10510800
vt 0.11988700 0.09444800
vt 0.12289200 0.09851900
vt 0.43595400 0.31768200
vt 0.44976800 0.32203600
vt 0.44454200 0.32080700
vt 0.06373000 0.28284400
vt 0.05023200 0.28490600
vt 0.05526000 0.28433800
vt 0.43570500 0.14278300
vt 0.43570500 0.14278300
vt 0.44976800 0.16582400
vt 0.43174800 0.13048700
vt 0.44512500 0.15162100
vt 0.44233700 0.13852800
vt 0.42278300 0.11908400
vt 0.43826100 0.12802000
vt 0.37157900 0.10510800
vt 0.37710800 0.09851900
vt 0.38011300 0.09444800
vt 0.15681600 0.41140000
vt 0.15011600 0.42300400
vt 0.15259800 0.41870500
vt 0.21563700 0.05511800
vt 0.21250100 0.04097700
vt 0.21405000 0.04611800
vt 0.37157900 0.39489200
vt 0.38011300 0.40555200
vt 0.37710800 0.40148100
vt 0.06404600 0.18231800
vt 0.05023200 0.17796400
vt 0.05545800 0.17919200
vt 0.43636800 0.25000000
vt 0.44976800 0.25000000
vt 0.44480400 0.25000000
f 15/15/15 28/28/28 99/99/99
f 99/99/99 84/84/84 15/15/15
f 31/31/31 10/10/10 79/79/79
f 79/79/79 102/102/102 31/31/31
f 11/11/11 24/24/24 94/94/94
f 94/94/94 80/80/80 11/11/11
f 6/6/6 17/17/17 86/86/86
f 86/86/86 73/73/73 6/6/6
f 12/12/12 26/26/26 96/96/96
f 96/96/96 81/81/81 12/12/12
f 24/24/24 5/5/5 72/72/72
f 72/72/72 94/94/94 24/24/24
f 3/3/3 14/14/14 83/83/83
f 83/83/83 70/70/70 3/3/3
f 29/29/29 23/23/23 92/92/92
f 92/92/92 100/100/100 29/29/29
f 2/2/2 13/13/13 82/82/82
f 82/82/82 69/69/69 2/2/2
f 16/16/16 30/30/30 101/101/101
f 101/101/101 85/85/85 16/16/16
f 27/27/27 7/7/7 75/75/75
f 75/75/75 97/97/97 27/27/27
f 18/18/18 6/6/6 73/73/73
f 73/73/73 87/87/87 18/18/18
f 1/1/1 12/12/12 81/81/81
f 81/81/81 68/68/68 1/1/1
f 17/17/17 31/31/31 102/102/102
f 102/102/102 86/86/86 17/17/17
f 28/28/28 9/9/9 77/77/77
f 77/77/77 99/99/99 28/28/28
f 22/22/22 29/29/29 100/100/100
f 100/100/100 91/91/91 22/22/22
f 23/23/23 3/3/3 70/70/70
f 70/70/70 92/92/92 23/23/23
f 5/5/5 16/16/16 85/85/85
f 85/85/85 72/72/72 5/5/5
f 7/7/7 19/19/19 88/88/88
f 88/88/88 75/75/75 7/7/7
f 8/8/8 21/21/21 90/90/90
f 90/90/90 76/76/76 8/8/8
f 25/25/25 2/2/2 69/69/69
f 69/69/69 95/95/95 25/25/25
f 20/20/20 25/25/25 95/95/95
f 95/95/95 89/89/89 20/20/20
f 21/21/21 1/1/1 68/68/68
f 68/68/68 90/90/90 21/21/21
f 9/9/9 20/20/20 89/89/89
f 89/89/89 77/77/77 9/9/9
f 4/4/4 15/15/15 84/84/84
f 84/84/84 71/71/71 4/4/4
f 13/13/13 27/27/27 97/97/97
f 97/97/97 82/82/82 13/13/13
f 119/119/119 122/122/122 124/124/124
f 124/124/124 123/123/123 119/119/119
f 122/122/122 125/125/125 126/126/126
f 126/126/126 124/124/124 122/122/122
f 140/140/140 142/142/142 144/144/144
f 144/144/144 143/143/143 140/140/140
f 142/142/142 145/145/145 146/146/146
f 146/146/146 144/144/144 142/142/142
f 161/161/161 164/164/164 166/166/166
f 166/166/166 165/165/165 161/161/161
f 164/164/164 167/167/167 168/168/168
f 168/168/168 166/166/166 164/164/164
f 212/212/212 214/214/214 216/216/216
f 216/216/216 215/215/215 212/212/212
f 214/214/214 217/217/217 218/218/218
f 218/218/218 216/216/216 214/214/214
f 229/229/229 231/231/231 233/233/233
f 233/233/233 232/232/232 229/229/229
f 231/231/231 234/234/234 235/235/235
f 235/235/235 233/233/233 231/231/231
f 172/172/172 133/133/133 134/134/134
f 134/134/134 174/174/174 172/172/172
f 174/174/174 134/134/134 135/135/135
f 135/135/135 173/173/173 174/174/174
f 222/222/222 175/175/175 176/176/176
f 176/176/176 224/224/224 222/222/222
f 224/224/224 176/176/176 177/177/177
f 177/177/177 223/223/223 224/224/224
f 184/184/184 236/236/236 237/237/237
f 237/237/237 186/186/186 184/184/184
f 186/186/186 237/237/237 238/238/238
f 238/238/238 185/185/185 186/186/186
f 242/242/242 193/193/193 194/194/194
f 194/194/194 244/244/244 242/242/242
f 244/244/244 194/194/194 195/195/195
f 195/195/195 243/243/243 244/244/244
f 248/248/248 199/199/199 200/200/200
f 200/200/200 250/250/250 248/248/248
f 250/250/250 200/200/200 201/201/201
f 201/201/201 249/249/249 250/250/250
f 205/205/205 158/158/158 159/159/159
f 159/159/159 207/207/207 205/205/205
f 207/207/207 159/159/159 160/160/160
f 160/160/160 206/206/206 207/207/207
f 211/211/211 172/172/172 174/174/174
f 174/174/174 214/214/214 211/211/211
f 214/214/214 174/174/174 173/173/173
f 173/173/173 217/217/217 214/214/214
f 139/139/139 222/222/222 224/224/224
f 224/224/224 142/142/142 139/139/139
f 142/142/142 224/224/224 223/223/223
f 223/223/223 145/145/145 142/142/142
f 228/228/228 184/184/184 186/186/186
f 186/186/186 231/231/231 228/228/228
f 231/231/231 186/186/186 185/185/185
f 185/185/185 234/234/234 231/231/231
f 162/162/162 242/242/242 244/244/244
f 244/244/244 164/164/164 162/162/162
f 164/164/164 244/244/244 243/243/243
f 243/243/243 167/167/167 164/164/164
f 153/153/153 248/248/248 250/250/250
f 250/250/250 157/157/157 153/153/153
f 157/157/157 250/250/250 249/249/249
f 249/249/249 154/154/154 157/157/157
f 120/120/120 205/205/205 207/207/207
f 207/207/207 122/122/122 120/120/120
f 122/122/122 207/207/207 206/206/206
f 206/206/206 125/125/125 122/122/122
f 196/196/196 139/139/139 143/143/143
f 143/143/143 198/198/198 196/196/196
f 198/198/198 143/143/143 141/141/141
f 141/141/141 197/197/197 198/198/198
f 150/150/150 228/228/228 232/232/232
f 232/232/232 152/152/152 150/150/150
f 152/152/152 232/232/232 230/230/230
f 230/230/230 151/151/151 152/152/152
f 208/208/208 162/162/162 165/165/165
f 165/165/165 210/210/210 208/208/208
f 210/210/210 165/165/165 163/163/163
f 163/163/163 209/209/209 210/210/210
f 178/178/178 153/153/153 156/156/156
f 156/156/156 180/180/180 178/178/178
f 180/180/180 156/156/156 155/155/155
f 155/155/155 179/179/179 180/180/180
f 181/181/181 120/120/120 123/123/123
f 123/123/123 183/183/183 181/181/181
f 183/183/183 123/123/123 121/121/121
f 121/121/121 182/182/182 183/183/183
f 130/130/130 211/211/211 215/215/215
f 215/215/215 132/132/132 130/130/130
f 132/132/132 215/215/215 213/213/213
f 213/213/213 131/131/131 132/132/132
f 245/245/245 196/196/196 198/198/198
f 198/198/198 247/247/247 245/245/245
f 247/247/247 198/198/198 197/197/197
f 197/197/197 246/246/246 247/247/247
f 202/202/202 150/150/150 152/152/152
f 152/152/152 204/204/204 202/202/202
f 204/204/204 152/152/152 151/151/151
f 151/151/151 203/203/203 204/204/204
f 127/127/127 208/208/208 210/210/210
f 210/210/210 129/129/129 127/127/127
f 129/129/129 210/210/210 209/209/209
f 209/209/209 128/128/128 129/129/129
f 219/219/219 178/178/178 180/180/180
f 180/180/180 221/221/221 219/219/219
f 221/221/221 180/180/180 179/179/179
f 179/179/179 220/220/220 221/221/221
f 225/225/225 181/181/181 183/183/183
f 183/183/183 227/227/227 225/225/225
f 227/227/227 183/183/183 182/182/182
f 182/182/182 226/226/226 227/227/227
f 190/190/190 130/130/130 132/132/132
f 132/132/132 192/192/192 190/190/190
f 192/192/192 132/132/132 131/131/131
f 131/131/131 191/191/191 192/192/192
f 169/169/169 245/245/245 247/247/247
f 247/247/247 171/171/171 169/169/169
f 171/171/171 247/247/247 246/246/246
f 246/246/246 170/170/170 171/171/171
f 251/251/251 202/202/202 204/204/204
f 204/204/204 253/253/253 251/251/251
f 253/253/253 204/204/204 203/203/203
f 203/203/203 252/252/252 253/253/253
f 187/187/187 127/127/127 129/129/129
f 129/129/129 189/189/189 187/187/187
f 189/189/189 129/129/129 128/128/128
f 128/128/128 188/188/188 189/189/189
f 136/136/136 219/219/219 221/221/221
f 221/221/221 138/138/138 136/136/136
f 138/138/138 221/221/221 220/220/220
f 220/220/220 137/137/137 138/138/138
f 147/147/147 225/225/225 227/227/227
f 227/227/227 149/149/149 147/147/147
f 149/149/149 227/227/227 226/226/226
f 226/226/226 148/148/148 149/149/149
f 239/239/239 190/190/190 192/192/192
f 192/192/192 241/241/241 239/239/239
f 241/241/241 192/192/192 191/191/191
f 191/191/191 240/240/240 241/241/241
f 133/133/133 169/169/169 171/171/171
f 171/171/171 134/134/134 133/133/133
f 134/134/134 171/171/171 170/170/170
f 170/170/170 135/135/135 134/134/134
f 175/175/175 251/251/251 253/253/253
f 253/253/253 176/176/176 175/175/175
f 176/176/176 253/253/253 252/252/252
f 252/252/252 177/177/177 176/176/176
f 236/236/236 187/187/187 189/189/189
f 189/189/189 237/237/237 236/236/236
f 237/237/237 189/189/189 188/188/188
f 188/188/188 238/238/238 237/237/237
f 193/193/193 136/136/136 138/138/138
f 138/138/138 194/194/194 193/193/193
f 194/194/194 138/138/138 137/137/137
f 137/137/137 195/195/195 194/194/194
f 199/199/199 147/147/147 149/149/149
f 149/149/149 200/200/200 199/199/199
f 200/200/200 149/149/149 148/148/148
f 148/148/148 201/201/201 200/200/200
f 158/158/158 239/239/239 241/241/241
f 241/241/241 159/159/159 158/158/158
f 159/159/159 241/241/241 240/240/240
f 240/240/240 160/160/160 159/159/159
f 26/26/26 104/104/104 106/106/106
f 26/26/26 106/106/106 74/74/74
f 26/26/26 74/74/74 96/96/96
f 106/106/106 105/105/105 18/18/18
f 106/106/106 18/18/18 87/87/87
f 106/106/106 87/87/87 74/74/74
f 30/30/30 107/107/107 109/109/109
f 30/30/30 109/109/109 78/78/78
f 30/30/30 78/78/78 101/101/101
f 109/109/109 108/108/108 22/22/22
f 109/109/109 22/22/22 91/91/91
f 109/109/109 91/91/91 78/78/78
f 112/112/112 111/111/111 4/4/4
f 112/112/112 4/4/4 71/71/71
f 112/112/112 71/71/71 93/93/93
f 10/10/10 110/110/110 112/112/112
f 10/10/10 112/112/112 93/93/93
f 10/10/10 93/93/93 79/79/79
f 115/115/115 114/114/114 8/8/8
f 115/115/115 8/8/8 76/76/76
f 115/115/115 76/76/76 98/98/98
f 14/14/14 113/113/113 115/115/115
f 14/14/14 115/115/115 98/98/98
f 14/14/14 98/98/98 83/83/83
f 118/118/118 117/117/117 11/11/11
f 118/118/118 11/11/11 80/80/80
f 118/118/118 80/80/80 103/103/103
f 19/19/19 116/116/116 118/118/118
f 19/19/19 118/118/118 103/103/103
f 19/19/19 103/103/103 88/88/88
f 205/205/205 120/120/120 40/40/40
f 40/40/40 57/57/57 205/205/205
f 120/120/120 181/181/181 37/37/37
f 37/37/37 40/40/40 120/120/120
f 127/127/127 187/187/187 51/51/51
f 51/51/51 47/47/47 127/127/127
f 208/208/208 127/127/127 47/47/47
f 47/47/47 64/64/64 208/208/208
f 130/130/130 190/190/190 58/58/58
f 58/58/58 54/54/54 130/130/130
f 211/211/211 130/130/130 54/54/54
f 54/54/54 34/34/34 211/211/211
f 169/169/169 133/133/133 61/61/61
f 61/61/61 45/45/45 169/169/169
f 133/133/133 172/172/172 52/52/52
f 52/52/52 61/61/61 133/133/133
f 219/219/219 136/136/136 32/32/32
f 32/32/32 42/42/42 219/219/219
f 136/136/136 193/193/193 65/65/65
f 65/65/65 32/32/32 136/136/136
f 139/139/139 196/196/196 36/36/36
f 36/36/36 39/39/39 139/139/139
f 222/222/222 139/139/139 39/39/39
f 39/39/39 49/49/49 222/222/222
f 147/147/147 199/199/199 43/43/43
f 43/43/43 46/46/46 147/147/147
f 225/225/225 147/147/147 46/46/46
f 46/46/46 56/56/56 225/225/225
f 228/228/228 150/150/150 53/53/53
f 53/53/53 63/63/63 228/228/228
f 150/150/150 202/202/202 50/50/50
f 50/50/50 53/53/53 150/150/150
f 248/248/248 153/153/153 60/60/60
f 60/60/60 62/62/62 248/248/248
f 153/153/153 178/178/178 66/66/66
f 66/66/66 60/60/60 153/153/153
f 239/239/239 158/158/158 67/67/67
f 67/67/67 41/41/41 239/239/239
f 158/158/158 205/205/205 57/57/57
f 57/57/57 67/67/67 158/158/158
f 242/242/242 162/162/162 38/38/38
f 38/38/38 48/48/48 242/242/242
f 162/162/162 208/208/208 64/64/64
f 64/64/64 38/38/38 162/162/162
f 245/245/245 169/169/169 45/45/45
f 45/45/45 55/55/55 245/245/245
f 172/172/172 211/211/211 34/34/34
f 34/34/34 52/52/52 172/172/172
f 251/251/251 175/175/175 59/59/59
f 59/59/59 33/33/33 251/251/251
f 175/175/175 222/222/222 49/49/49
f 49/49/49 59/59/59 175/175/175
f 178/178/178 219/219/219 42/42/42
f 42/42/42 66/66/66 178/178/178
f 181/181/181 225/225/225 56/56/56
f 56/56/56 37/37/37 181/181/181
f 184/184/184 228/228/228 63/63/63
f 63/63/63 44/44/44 184/184/184
f 236/236/236 184/184/184 44/44/44
f 44/44/44 35/35/35 236/236/236
f 187/187/187 236/236/236 35/35/35
f 35/35/35 51/51/51 187/187/187
f 190/190/190 239/239/239 41/41/41
f 41/41/41 58/58/58 190/190/190
f 193/193/193 242/242/242 48/48/48
f 48/48/48 65/65/65 193/193/193
f 196/196/196 245/245/245 55/55/55
f 55/55/55 36/36/36 196/196/196
f 199/199/199 248/248/248 62/62/62
f 62/62/62 43/43/43 199/199/199
f 202/202/202 251/251/251 33/33/33
f 33/33/33 50/50/50 202/202/202

