mtllib material.mtl
usemtl pencil_paint
v 0.00000000 0.09170200 -0.00300000
v -0.00109200 0.09170200 0.00300000
v 0.00233300 0.09170200 -0.00195800
v -0.00314400 0.09170200 0.00055400
v 0.00259800 0.09170200 0.00150000
v -0.00233300 0.09170200 -0.00195800
v 0.00052900 0.09170200 0.00300000
v 0.00109200 0.09170200 -0.00300000
v -0.00233300 0.09170200 0.00195800
v -0.00314400 0.09170200 -0.00055400
v 0.00205200 0.09170200 0.00244500
v 0.00205200 0.09170200 0.00244500
v -0.00052900 0.09170200 -0.00300000
v -0.00052900 0.09170200 0.00300000
v 0.00205200 0.09170200 -0.00244500
v -0.00286200 0.09170200 0.00104200
v 0.00286200 0.09170200 0.00104200
v -0.00259800 0.09170200 -0.00150000
v -0.00205200 0.09170200 -0.00244500
v 0.00109200 0.09170200 0.00300000
v -0.00205200 0.09170200 0.00244500
v 0.00052900 0.09170200 -0.00300000
v 0.00314400 0.09170200 -0.00055400
v 0.00259800 0.09170200 -0.00150000
v 0.00233300 0.09170200 0.00195800
v -0.00173200 0.09170200 0.00300000
v -0.00173200 0.09170200 0.00300000
v -0.00109200 0.09170200 -0.00300000
v -0.00000000 0.09170200 0.00300000
v -0.00259800 0.09170200 0.00150000
v 0.00286200 0.09170200 -0.00104200
v 0.00314400 0.09170200 0.00055400
v -0.00286200 0.09170200 -0.00104200
v -0.00109200 0.09170200 -0.00300000
v -0.00109200 0.09170200 -0.00300000
v -0.00109200 0.09170200 -0.00300000
v -0.00205200 0.09170200 -0.00244500
v -0.00205200 0.09170200 -0.00244500
v -0.00205200 0.09170200 -0.00244500
v -0.00141200 0.09170200 -0.00244500
v -0.00145500 0.09170200 -0.00292500
v -0.00145500 0.09170200 -0.00292500
v -0.00145500 0.09170200 -0.00292500
v -0.00180600 0.09170200 -0.00272200
v -0.00180600 0.09170200 -0.00272200
v -0.00180600 0.09170200 -0.00272200
v 0.00314400 0.09170200 0.00055400
v 0.00314400 0.09170200 0.00055400
v 0.00314400 0.09170200 -0.00055400
v 0.00314400 0.09170200 -0.00055400
v 0.00314400 0.09170200 -0.00055400
v 0.00282400 0.09170200 -0.00000000
v 0.00282400 0.09170200 -0.00000000
v 0.00326100 0.09170200 0.00020300
v 0.00326100 0.09170200 0.00020300
v 0.00326100 0.09170200 0.00020300
v 0.00326100 0.09170200 -0.00020300
v 0.00326100 0.09170200 -0.00020300
v 0.00326100 0.09170200 -0.00020300
v -0.00314400 0.09170200 -0.00055400
v -0.00314400 0.09170200 -0.00055400
v -0.00314400 0.09170200 -0.00055400
v -0.00314400 0.09170200 0.00055400
v -0.00314400 0.09170200 0.00055400
v -0.00314400 0.09170200 0.00055400
v -0.00282400 0.09170200 -0.00000000
v -0.00282400 0.09170200 -0.00000000
v -0.00326100 0.09170200 -0.00020300
v -0.00326100 0.09170200 -0.00020300
v -0.00326100 0.09170200 -0.00020300
v -0.00326100 0.09170200 0.00020300
v -0.00326100 0.09170200 0.00020300
v -0.00326100 0.09170200 0.00020300
v 0.00205200 0.09170200 -0.00244500
v 0.00205200 0.09170200 -0.00244500
v 0.00205200 0.09170200 -0.00244500
v 0.00109200 0.09170200 -0.00300000
v 0.00109200 0.09170200 -0.00300000
v 0.00109200 0.09170200 -0.00300000
v 0.00141200 0.09170200 -0.00244500
v 0.00180600 0.09170200 -0.00272200
v 0.00180600 0.09170200 -0.00272200
v 0.00180600 0.09170200 -0.00272200
v 0.00145500 0.09170200 -0.00292500
v 0.00145500 0.09170200 -0.00292500
v 0.00145500 0.09170200 -0.00292500
v 0.00109200 0.09170200 0.00300000
v 0.00109200 0.09170200 0.00300000
v 0.00109200 0.09170200 0.00300000
v 0.00205200 0.09170200 0.00244500
v 0.00205200 0.09170200 0.00244500
v 0.00205200 0.09170200 0.00244500
v 0.00141200 0.09170200 0.00244500
v 0.00141200 0.09170200 0.00244500
v 0.00145500 0.09170200 0.00292500
v 0.00145500 0.09170200 0.00292500
v 0.00145500 0.09170200 0.00292500
v 0.00180600 0.09170200 0.00272200
v 0.00180600 0.09170200 0.00272200
v 0.00180600 0.09170200 0.00272200
v 0.00109200 -0.08646200 0.00300000
v 0.00205200 -0.08646200 0.00244500
v 0.00205200 -0.08646200 0.00244500
v 0.00126400 -0.08670800 0.00296900
v 0.00145200 -0.08646200 0.00291800
v 0.00145200 -0.08646200 0.00291800
v 0.00145200 -0.08646200 0.00291800
v 0.00153200 -0.08656500 0.00290300
v 0.00153200 -0.08656500 0.00290300
v 0.00153200 -0.08656500 0.00290300
v 0.00145300 -0.08698600 0.00289100
v 0.00163700 -0.08673400 0.00283600
v 0.00163700 -0.08673400 0.00283600
v 0.00180100 -0.08646200 0.00271600
v 0.00180100 -0.08646200 0.00271600
v 0.00180100 -0.08646200 0.00271600
v 0.00193900 -0.08670800 0.00257900
v 0.00174800 -0.08656500 0.00277800
v 0.00174800 -0.08656500 0.00277800
v 0.00174800 -0.08656500 0.00277800
v -0.00286200 -0.08708000 -0.00104200
v -0.00283600 -0.08760800 -0.00103200
v 0.00314400 -0.08647700 0.00055400
v 0.00311400 -0.08702300 0.00054900
v 0.00286200 -0.08708000 -0.00104200
v 0.00283600 -0.08760800 -0.00103200
v -0.00259800 -0.08727100 0.00150000
v -0.00257400 -0.08779300 0.00148600
v 0.00205200 -0.08646200 -0.00244500
v 0.00109200 -0.08646200 -0.00300000
v 0.00193900 -0.08670800 -0.00257900
v 0.00180100 -0.08646200 -0.00271600
v 0.00180100 -0.08646200 -0.00271600
v 0.00180100 -0.08646200 -0.00271600
v 0.00174800 -0.08656500 -0.00277800
v 0.00174800 -0.08656500 -0.00277800
v 0.00174800 -0.08656500 -0.00277800
v 0.00177700 -0.08698600 -0.00270400
v 0.00163700 -0.08673400 -0.00283600
v 0.00163700 -0.08673400 -0.00283600
v 0.00145200 -0.08646200 -0.00291800
v 0.00145200 -0.08646200 -0.00291800
v 0.00145200 -0.08646200 -0.00291800
v 0.00126400 -0.08670800 -0.00296900
v 0.00153200 -0.08656500 -0.00290300
v 0.00153200 -0.08656500 -0.00290300
v 0.00153200 -0.08656500 -0.00290300
v -0.00000000 -0.08727100 0.00300000
v -0.00000000 -0.08779300 0.00297300
v -0.00109200 -0.08647700 -0.00300000
v -0.00108200 -0.08702300 -0.00297200
v -0.00173200 -0.08537900 0.00300000
v -0.00173200 -0.08537900 0.00300000
v -0.00171500 -0.08594500 0.00297100
v -0.00171500 -0.08594500 0.00297100
v 0.00233300 -0.08708000 0.00195800
v 0.00231200 -0.08760800 0.00194000
v -0.00314400 -0.08646200 -0.00055400
v -0.00314400 -0.08646200 0.00055400
v -0.00320300 -0.08670800 -0.00039000
v -0.00325300 -0.08646200 -0.00020200
v -0.00325300 -0.08646200 -0.00020200
v -0.00325300 -0.08646200 -0.00020200
v -0.00328000 -0.08656500 -0.00012400
v -0.00328000 -0.08656500 -0.00012400
v -0.00328000 -0.08656500 -0.00012400
v -0.00323100 -0.08698600 -0.00018700
v -0.00327500 -0.08673400 0.00000000
v -0.00327500 -0.08673400 0.00000000
v -0.00325300 -0.08646200 0.00020200
v -0.00325300 -0.08646200 0.00020200
v -0.00325300 -0.08646200 0.00020200
v -0.00320300 -0.08670800 0.00039000
v -0.00328000 -0.08656500 0.00012400
v -0.00328000 -0.08656500 0.00012400
v -0.00328000 -0.08656500 0.00012400
v 0.00259800 -0.08727100 -0.00150000
v 0.00257400 -0.08779300 -0.00148600
v 0.00314400 -0.08647700 -0.00055400
v 0.00311400 -0.08702300 -0.00054900
v 0.00052900 -0.08708000 -0.00300000
v 0.00052400 -0.08760800 -0.00297200
v -0.00205200 -0.08647700 0.00244500
v -0.00203300 -0.08702300 0.00242300
v 0.00109200 -0.08647700 0.00300000
v 0.00108200 -0.08702300 0.00297200
v -0.00205200 -0.08647700 -0.00244500
v -0.00203300 -0.08702300 -0.00242300
v -0.00259800 -0.08727100 -0.00150000
v -0.00257400 -0.08779300 -0.00148600
v 0.00286200 -0.08708000 0.00104200
v 0.00283600 -0.08760800 0.00103200
v -0.00286200 -0.08708000 0.00104200
v -0.00283600 -0.08760800 0.00103200
v 0.00205200 -0.08647700 -0.00244500
v 0.00203300 -0.08702300 -0.00242300
v -0.00052900 -0.08708000 0.00300000
v -0.00052400 -0.08760800 0.00297200
v -0.00052900 -0.08708000 -0.00300000
v -0.00052400 -0.08760800 -0.00297200
v 0.00205200 -0.08647700 0.00244500
v 0.00205200 -0.08647700 0.00244500
v 0.00203300 -0.08702300 0.00242300
v -0.00314400 -0.08647700 -0.00055400
v -0.00311400 -0.08702300 -0.00054900
v 0.00314400 -0.08646200 0.00055400
v 0.00314400 -0.08646200 -0.00055400
v 0.00320300 -0.08670800 0.00039000
v 0.00325300 -0.08646200 0.00020200
v 0.00325300 -0.08646200 0.00020200
v 0.00325300 -0.08646200 0.00020200
v 0.00328000 -0.08656500 0.00012400
v 0.00328000 -0.08656500 0.00012400
v 0.00328000 -0.08656500 0.00012400
v 0.00323100 -0.08698600 0.00018700
v 0.00327500 -0.08673400 0.00000000
v 0.00327500 -0.08673400 0.00000000
v 0.00325300 -0.08646200 -0.00020200
v 0.00325300 -0.08646200 -0.00020200
v 0.00325300 -0.08646200 -0.00020200
v 0.00320300 -0.08670800 -0.00039000
v 0.00328000 -0.08656500 -0.00012400
v 0.00328000 -0.08656500 -0.00012400
v 0.00328000 -0.08656500 -0.00012400
v -0.00233300 -0.08708000 0.00195800
v -0.00231200 -0.08760800 0.00194000
v 0.00109200 -0.08647700 -0.00300000
v 0.00108200 -0.08702300 -0.00297200
v 0.00052900 -0.08708000 0.00300000
v 0.00052400 -0.08760800 0.00297200
v -0.00109200 -0.08646200 -0.00300000
v -0.00205200 -0.08646200 -0.00244500
v -0.00126400 -0.08670800 -0.00296900
v -0.00145200 -0.08646200 -0.00291800
v -0.00145200 -0.08646200 -0.00291800
v -0.00145200 -0.08646200 -0.00291800
v -0.00153200 -0.08656500 -0.00290300
v -0.00153200 -0.08656500 -0.00290300
v -0.00153200 -0.08656500 -0.00290300
v -0.00145300 -0.08698600 -0.00289100
v -0.00163700 -0.08673400 -0.00283600
v -0.00163700 -0.08673400 -0.00283600
v -0.00180100 -0.08646200 -0.00271600
v -0.00180100 -0.08646200 -0.00271600
v -0.00180100 -0.08646200 -0.00271600
v -0.00193900 -0.08670800 -0.00257900
v -0.00174800 -0.08656500 -0.00277800
v -0.00174800 -0.08656500 -0.00277800
v -0.00174800 -0.08656500 -0.00277800
v -0.00233300 -0.08708000 -0.00195800
v -0.00231200 -0.08760800 -0.00194000
v 0.00259800 -0.08727100 0.00150000
v 0.00257400 -0.08779300 0.00148600
v -0.00314400 -0.08647700 0.00055400
v -0.00311400 -0.08702300 0.00054900
v 0.00233300 -0.08708000 -0.00195800
v 0.00231200 -0.08760800 -0.00194000
v -0.00109200 -0.08647700 0.00300000
v -0.00108200 -0.08702300 0.00297200
v 0.00000000 -0.08727100 -0.00300000
v 0.00000000 -0.08779300 -0.00297300
vn -0.00000000 -0.00000000 -1.00000000
vn -0.00000000 -0.00000000 1.00000000
vn 0.86600000 -0.00000000 -0.50000000
vn -0.87160000 -0.00000000 0.49030000
vn 0.86600000 -0.00000000 0.50000000
vn -0.86600000 -0.00000000 -0.50000000
vn -0.00000000 -0.00000000 1.00000000
vn 0.00020000 -0.00000000 -1.00000000
vn -0.86600000 -0.00000000 0.50000000
vn -0.87250000 -0.00000000 -0.48860000
vn 1.00000000 -0.00000000 -0.00000000
vn 0.86600000 -0.00000000 0.50000000
vn -0.00000000 -0.00000000 -1.00000000
vn -0.00000000 -0.00000000 1.00000000
vn 0.87200000 -0.00000000 -0.48960000
vn -0.86600000 -0.00000000 0.50000000
vn 0.86600000 -0.00000000 0.50000000
vn -0.86600000 -0.00000000 -0.50000000
vn -0.85060000 -0.00000000 -0.52580000
vn -0.00020000 -0.00000000 1.00000000
vn -0.86600000 -0.00000000 0.50000000
vn -0.00000000 -0.00000000 -1.00000000
vn 0.83910000 -0.00000000 -0.54390000
vn 0.86600000 -0.00000000 -0.50000000
vn 0.86600000 -0.00000000 0.50000000
vn -0.86600000 -0.00000000 0.50000000
vn -0.00000000 -0.00000000 1.00000000
vn -0.00010000 -0.00000000 -1.00000000
vn -0.00000000 -0.00000000 1.00000000
vn -0.86600000 -0.00000000 0.50000000
vn 0.86600000 -0.00000000 -0.50000000
vn 0.88450000 -0.00000000 0.46660000
vn -0.86600000 -0.00000000 -0.50000000
vn -0.21060000 -0.00000000 -0.97760000
vn -0.00000000 1.00000000 -0.00010000
vn -0.00030000 -0.00000000 -1.00000000
vn -0.83440000 -0.00000000 -0.55110000
vn -0.74130000 -0.00000000 -0.67120000
vn -0.00010000 1.00000000 -0.00000000
vn -0.00000000 1.00000000 -0.00010000
vn -0.00000000 1.00000000 -0.00010000
vn -0.21060000 -0.00000000 -0.97760000
vn -0.50000000 -0.00000000 -0.86600000
vn -0.00010000 1.00000000 -0.00010000
vn -0.50000000 -0.00000000 -0.86600000
vn -0.74130000 -0.00000000 -0.67120000
vn 0.92890000 -0.00000000 0.37030000
vn 0.00010000 1.00000000 -0.00000000
vn 0.95190000 -0.00000000 -0.30640000
vn 0.00010000 1.00000000 -0.00000000
vn 0.81000000 -0.00000000 -0.58640000
vn 0.00010000 1.00000000 -0.00000000
vn 0.00010000 1.00000000 -0.00000000
vn 0.00010000 1.00000000 -0.00000000
vn 0.95190000 -0.00000000 0.30640000
vn 1.00000000 -0.00000000 -0.00000000
vn 0.00010000 1.00000000 -0.00000000
vn 0.95190000 -0.00000000 -0.30640000
vn 1.00000000 -0.00000000 -0.00000000
vn -0.95190000 -0.00000000 -0.30640000
vn -0.00010000 1.00000000 -0.00000000
vn -0.87880000 -0.00000000 -0.47720000
vn -0.87700000 -0.00000000 0.48050000
vn -0.95190000 -0.00000000 0.30640000
vn -0.00010000 1.00000000 -0.00000000
vn -0.00010000 1.00000000 -0.00000000
vn -0.00010000 1.00000000 -0.00000000
vn -0.95190000 -0.00000000 -0.30640000
vn -0.00010000 1.00000000 -0.00000000
vn -1.00000000 -0.00000000 -0.00000000
vn -1.00000000 -0.00000000 -0.00000000
vn -0.95190000 -0.00000000 0.30640000
vn -0.00010000 1.00000000 -0.00000000
vn 0.87780000 -0.00000000 -0.47910000
vn 0.74130000 -0.00000000 -0.67120000
vn 0.00010000 1.00000000 -0.00000000
vn 0.00030000 -0.00000000 -1.00000000
vn 0.21060000 -0.00000000 -0.97760000
vn -0.00000000 1.00000000 -0.00010000
vn -0.00000000 1.00000000 -0.00010000
vn 0.50000000 -0.00000000 -0.86600000
vn 0.74130000 -0.00000000 -0.67120000
vn 0.00010000 1.00000000 -0.00010000
vn 0.50000000 -0.00000000 -0.86600000
vn -0.00000000 1.00000000 -0.00010000
vn 0.21060000 -0.00000000 -0.97760000
vn -0.00000000 1.00000000 0.00010000
vn 0.21060000 -0.00000000 0.97760000
vn -0.00040000 -0.00000000 1.00000000
vn 0.74130000 -0.00000000 0.67120000
vn 0.00010000 1.00000000 -0.00000000
vn 1.00000000 -0.00000000 -0.00000000
vn -0.00000000 1.00000000 0.00010000
vn -0.00000000 1.00000000 0.00010000
vn -0.00000000 1.00000000 0.00010000
vn 0.50000000 -0.00000000 0.86600000
vn 0.21060000 -0.00000000 0.97760000
vn 0.00010000 1.00000000 0.00010000
vn 0.74130000 -0.00000000 0.67120000
vn 0.50000000 -0.00000000 0.86600000
vn 0.09740000 -0.00030000 0.99520000
vn 1.00000000 -0.00000000 -0.00000000
vn 0.75230000 -0.00060000 0.65880000
vn 0.21100000 -0.05000000 0.97620000
vn 0.48370000 0.25270000 0.83790000
vn 0.50000000 -0.00000000 0.86600000
vn 0.21710000 0.01830000 0.97600000
vn 0.48370000 0.25270000 0.83790000
vn 0.28150000 -0.03420000 0.95900000
vn 0.49980000 -0.03130000 0.86560000
vn 0.34640000 -0.12580000 0.92960000
vn 0.49980000 -0.03130000 0.86560000
vn 0.49780000 -0.09420000 0.86220000
vn 0.73670000 0.01830000 0.67600000
vn 0.50000000 -0.00000000 0.86600000
vn 0.48370000 0.25270000 0.83790000
vn 0.73990000 -0.05000000 0.67080000
vn 0.68970000 -0.03410000 0.72330000
vn 0.48370000 0.25270000 0.83790000
vn 0.49980000 -0.03130000 0.86560000
vn -0.87780000 -0.02980000 -0.47820000
vn -0.89540000 -0.09270000 -0.43550000
vn 0.89460000 -0.03160000 0.44580000
vn 0.92350000 -0.09030000 0.37280000
vn 0.87780000 -0.02980000 -0.47820000
vn 0.89540000 -0.09270000 -0.43550000
vn -0.86560000 -0.03140000 0.49970000
vn -0.86210000 -0.09460000 0.49780000
vn 0.82000000 -0.00030000 -0.57230000
vn 0.09770000 -0.00030000 -0.99520000
vn 0.73990000 -0.05000000 -0.67080000
vn 0.73670000 0.01830000 -0.67600000
vn 0.48380000 0.25270000 -0.83790000
vn 0.50000000 -0.00000000 -0.86600000
vn 0.68970000 -0.03420000 -0.72330000
vn 0.48380000 0.25270000 -0.83790000
vn 0.49970000 -0.03130000 -0.86560000
vn 0.63180000 -0.12580000 -0.76480000
vn 0.49970000 -0.03130000 -0.86560000
vn 0.49780000 -0.09420000 -0.86220000
vn 0.21710000 0.01830000 -0.97600000
vn 0.50000000 -0.00000000 -0.86600000
vn 0.48380000 0.25270000 -0.83790000
vn 0.21100000 -0.05000000 -0.97620000
vn 0.49970000 -0.03130000 -0.86560000
vn 0.28150000 -0.03420000 -0.95900000
vn 0.48380000 0.25270000 -0.83790000
vn -0.00000000 -0.03140000 0.99950000
vn -0.00000000 -0.09460000 0.99550000
vn -0.06120000 -0.03160000 -0.99760000
vn -0.13890000 -0.09030000 -0.98620000
vn -0.85870000 -0.00840000 0.51240000
vn -0.01440000 -0.00840000 0.99990000
vn -0.10890000 -0.06360000 0.99200000
vn -0.80470000 -0.06360000 0.59030000
vn 0.85300000 -0.02980000 0.52110000
vn 0.82480000 -0.09270000 0.55770000
vn -0.91600000 -0.00030000 -0.40110000
vn -0.91530000 -0.00030000 0.40280000
vn -0.95090000 -0.05000000 -0.30540000
vn -1.00000000 -0.00000000 -0.00000000
vn -0.95380000 0.01830000 -0.30000000
vn -0.96750000 0.25270000 -0.00000000
vn -0.97120000 -0.03420000 -0.23570000
vn -0.96750000 0.25270000 -0.00000000
vn -0.99950000 -0.03130000 -0.00000000
vn -0.97830000 -0.12580000 -0.16480000
vn -0.99550000 -0.09420000 -0.00000000
vn -0.99950000 -0.03130000 -0.00000000
vn -1.00000000 -0.00000000 -0.00000000
vn -0.96750000 0.25270000 -0.00000000
vn -0.95380000 0.01830000 0.30000000
vn -0.95090000 -0.05000000 0.30540000
vn -0.99950000 -0.03130000 -0.00000000
vn -0.97120000 -0.03420000 0.23570000
vn -0.96750000 0.25270000 -0.00000000
vn 0.86560000 -0.03140000 -0.49980000
vn 0.86210000 -0.09460000 -0.49780000
vn 0.89460000 -0.03160000 -0.44580000
vn 0.92350000 -0.09030000 -0.37280000
vn 0.02480000 -0.02980000 -0.99930000
vn 0.07060000 -0.09270000 -0.99320000
vn -0.84280000 -0.02800000 0.53750000
vn -0.78770000 -0.09120000 0.60930000
vn 0.06120000 -0.03160000 0.99760000
vn 0.13890000 -0.09030000 0.98620000
vn -0.83340000 -0.03160000 -0.55180000
vn -0.78460000 -0.09030000 -0.61340000
vn -0.86560000 -0.03140000 -0.49980000
vn -0.86210000 -0.09460000 -0.49780000
vn 0.87780000 -0.02980000 0.47820000
vn 0.89540000 -0.09270000 0.43550000
vn -0.87780000 -0.02980000 0.47820000
vn -0.89540000 -0.09270000 0.43550000
vn 0.83340000 -0.03160000 -0.55180000
vn 0.78460000 -0.09030000 -0.61340000
vn -0.02480000 -0.02980000 0.99930000
vn -0.07060000 -0.09270000 0.99320000
vn -0.02480000 -0.02980000 -0.99930000
vn -0.07060000 -0.09270000 -0.99320000
vn 1.00000000 -0.00000000 -0.00000000
vn 0.83340000 -0.03160000 0.55180000
vn 0.78460000 -0.09030000 0.61340000
vn -0.89460000 -0.03160000 -0.44580000
vn -0.92350000 -0.09030000 -0.37280000
vn 0.92580000 -0.00030000 0.37810000
vn 0.88820000 -0.00030000 -0.45950000
vn 0.95090000 -0.05000000 0.30540000
vn 1.00000000 -0.00000000 -0.00000000
vn 0.96750000 0.25280000 -0.00000000
vn 0.95380000 0.01830000 0.30000000
vn 0.97120000 -0.03420000 0.23570000
vn 0.99950000 -0.03130000 -0.00000000
vn 0.96750000 0.25280000 -0.00000000
vn 0.97830000 -0.12580000 0.16480000
vn 0.99950000 -0.03130000 -0.00000000
vn 0.99550000 -0.09420000 -0.00000000
vn 0.96750000 0.25280000 -0.00000000
vn 0.95380000 0.01830000 -0.30000000
vn 1.00000000 -0.00000000 -0.00000000
vn 0.95090000 -0.05000000 -0.30540000
vn 0.96750000 0.25280000 -0.00000000
vn 0.99950000 -0.03130000 -0.00000000
vn 0.97120000 -0.03420000 -0.23570000
vn -0.85300000 -0.02980000 0.52110000
vn -0.82480000 -0.09270000 0.55770000
vn 0.06120000 -0.03160000 -0.99760000
vn 0.13890000 -0.09030000 -0.98620000
vn 0.02480000 -0.02980000 0.99930000
vn 0.07060000 -0.09270000 0.99320000
vn -0.09770000 -0.00030000 -0.99520000
vn -0.79520000 -0.00030000 -0.60630000
vn -0.21100000 -0.05000000 -0.97620000
vn -0.48380000 0.25280000 -0.83790000
vn -0.50000000 -0.00000000 -0.86600000
vn -0.21710000 0.01830000 -0.97600000
vn -0.49980000 -0.03130000 -0.86560000
vn -0.48380000 0.25280000 -0.83790000
vn -0.28150000 -0.03420000 -0.95900000
vn -0.34640000 -0.12580000 -0.92960000
vn -0.49980000 -0.03130000 -0.86560000
vn -0.49780000 -0.09420000 -0.86220000
vn -0.50000000 -0.00000000 -0.86600000
vn -0.73670000 0.01830000 -0.67600000
vn -0.48380000 0.25280000 -0.83790000
vn -0.73990000 -0.05000000 -0.67080000
vn -0.68970000 -0.03420000 -0.72330000
vn -0.49980000 -0.03130000 -0.86560000
vn -0.48380000 0.25280000 -0.83790000
vn -0.85300000 -0.02980000 -0.52110000
vn -0.82480000 -0.09270000 -0.55770000
vn 0.86560000 -0.03140000 0.49980000
vn 0.86210000 -0.09460000 0.49780000
vn -0.89460000 -0.03160000 0.44580000
vn -0.92350000 -0.09030000 0.37280000
vn 0.85300000 -0.02980000 -0.52110000
vn 0.82480000 -0.09270000 -0.55770000
vn -0.04410000 -0.02800000 0.99860000
vn -0.13390000 -0.09120000 0.98680000
vn -0.00000000 -0.03140000 -0.99950000
vn -0.00000000 -0.09460000 -0.99550000
vt 0.44976800 0.25000000
vt 0.05023200 0.17729000
vt 0.38039000 0.40539200
vt 0.21308400 0.04064100
vt 0.15011600 0.42300400
vt 0.38039000 0.09460800
vt 0.05023200 0.28522400
vt 0.44976800 0.32271000
vt 0.11961000 0.09460800
vt 0.28691600 0.04064100
vt 0.08714700 0.38665000
vt 0.08714700 0.38665000
vt 0.44976800 0.21477500
vt 0.05023200 0.21477500
vt 0.41285300 0.38665000
vt 0.18062100 0.05938300
vt 0.18062100 0.44061700
vt 0.34988400 0.07699600
vt 0.41285300 0.11335000
vt 0.05023200 0.32271000
vt 0.08714700 0.11335000
vt 0.44976800 0.28522500
vt 0.28691600 0.45935900
vt 0.34988400 0.42300500
vt 0.11961000 0.40539200
vt 0.05023200 0.13466400
vt 0.05023200 0.13466400
vt 0.44976800 0.17729000
vt 0.05023200 0.25000000
vt 0.15011600 0.07699500
vt 0.31937900 0.44061700
vt 0.21308400 0.45935900
vt 0.31937900 0.05938300
vt 0.44976800 0.17729000
vt 0.44976800 0.17729000
vt 0.44976800 0.17729000
vt 0.41285300 0.11335000
vt 0.41285300 0.11335000
vt 0.44976800 0.11335100
vt 0.44976800 0.13466400
vt 0.44976800 0.15312100
vt 0.44976800 0.15312100
vt 0.44976800 0.15312100
vt 0.44976800 0.12971800
vt 0.43378400 0.12543500
vt 0.43378400 0.12543500
vt 0.21308400 0.45935900
vt 0.21308400 0.45935900
vt 0.28691600 0.45935900
vt 0.26845800 0.49132900
vt 0.28691600 0.45935900
vt 0.25000000 0.48067300
vt 0.25000000 0.48067300
vt 0.23401500 0.47144400
vt 0.23401500 0.47144400
vt 0.23401500 0.47144400
vt 0.25428300 0.48314600
vt 0.26598500 0.47144400
vt 0.26598500 0.47144400
vt 0.28691600 0.04064100
vt 0.28691600 0.04064100
vt 0.28691600 0.04064100
vt 0.21308400 0.04064000
vt 0.21308400 0.04064000
vt 0.23154200 0.00867100
vt 0.25000000 0.01932700
vt 0.25000000 0.01932700
vt 0.26598500 0.02855600
vt 0.26598500 0.02855600
vt 0.26598500 0.02855600
vt 0.23401500 0.02855600
vt 0.23401500 0.02855600
vt 0.24571700 0.01685400
vt 0.41285300 0.38665000
vt 0.41285300 0.38665000
vt 0.41285300 0.38665000
vt 0.44976800 0.32271000
vt 0.44976800 0.32271000
vt 0.46822600 0.35468000
vt 0.44976800 0.36533600
vt 0.43378400 0.37456500
vt 0.43378400 0.37456500
vt 0.43378400 0.37456500
vt 0.44976800 0.34687900
vt 0.45405200 0.36286300
vt 0.44976800 0.34687900
vt 0.05023200 0.32271000
vt 0.05023200 0.32271000
vt 0.05023200 0.32271000
vt 0.08714700 0.38665000
vt 0.05023200 0.38665000
vt 0.08714700 0.38665000
vt 0.05023200 0.36533600
vt 0.05023200 0.36533600
vt 0.05023200 0.34687800
vt 0.05023200 0.34687800
vt 0.05023200 0.34687800
vt 0.05023200 0.37028200
vt 0.06621700 0.37456500
vt 0.06621700 0.37456500
vt 0.05023200 0.32271000
vt 0.08714700 0.38665000
vt 0.08714700 0.38665000
vt 0.05023200 0.33417600
vt 0.05023200 0.34667100
vt 0.05023200 0.34667100
vt 0.05023200 0.34667100
vt 0.05023200 0.35204800
vt 0.05023200 0.35204800
vt 0.05023200 0.35204800
vt 0.05487500 0.34837900
vt 0.05766300 0.36147100
vt 0.05766300 0.36147100
vt 0.06639600 0.37466900
vt 0.06639600 0.37466900
vt 0.06639600 0.37466900
vt 0.07721700 0.38091600
vt 0.06173900 0.37198000
vt 0.06173900 0.37198000
vt 0.06173900 0.37198000
vt 0.31937900 0.05938300
vt 0.31965500 0.05954300
vt 0.21308400 0.45935900
vt 0.21250100 0.45902300
vt 0.31937900 0.44061700
vt 0.31965500 0.44045700
vt 0.15011600 0.07699500
vt 0.15011600 0.07699500
vt 0.41285300 0.38665000
vt 0.44976800 0.32271000
vt 0.42278300 0.38091700
vt 0.43360400 0.37466900
vt 0.43360400 0.37466900
vt 0.43360400 0.37466900
vt 0.43826100 0.37198000
vt 0.43826100 0.37198000
vt 0.43826100 0.37198000
vt 0.43276100 0.36979400
vt 0.44270600 0.36083200
vt 0.44270600 0.36083200
vt 0.44976800 0.34667100
vt 0.44976800 0.34667100
vt 0.44976800 0.34667100
vt 0.44976800 0.33417600
vt 0.44976800 0.35204800
vt 0.44976800 0.35204800
vt 0.44976800 0.35204800
vt 0.05023200 0.25000000
vt 0.05023200 0.25000000
vt 0.44976800 0.17729000
vt 0.44976800 0.17796400
vt 0.05023200 0.13466400
vt 0.05023200 0.13466400
vt 0.05070300 0.13493600
vt 0.05070300 0.13493600
vt 0.11961000 0.40539200
vt 0.11988600 0.40555200
vt 0.28691600 0.04064100
vt 0.21308400 0.04064100
vt 0.27698600 0.03490800
vt 0.26616500 0.02866000
vt 0.26616500 0.02866000
vt 0.26616500 0.02866000
vt 0.26150800 0.02597100
vt 0.26150800 0.02597100
vt 0.26150800 0.02597100
vt 0.26236400 0.03182700
vt 0.24963100 0.02769600
vt 0.24963100 0.02769600
vt 0.23383500 0.02866000
vt 0.23383500 0.02866000
vt 0.23383500 0.02866000
vt 0.22301400 0.03490700
vt 0.23849200 0.02597100
vt 0.23849200 0.02597100
vt 0.23849200 0.02597100
vt 0.34988400 0.42300500
vt 0.34988400 0.42300500
vt 0.28691600 0.45935900
vt 0.28749900 0.45902300
vt 0.44976800 0.28522500
vt 0.44976800 0.28490600
vt 0.08714700 0.11335000
vt 0.08773100 0.11301400
vt 0.05023200 0.32271000
vt 0.05023200 0.32203600
vt 0.41285300 0.11335000
vt 0.41226900 0.11301400
vt 0.34988400 0.07699600
vt 0.34988400 0.07699600
vt 0.18062100 0.44061700
vt 0.18034500 0.44045700
vt 0.18062100 0.05938300
vt 0.18034500 0.05954300
vt 0.41285300 0.38665000
vt 0.41226900 0.38698600
vt 0.05023200 0.21477500
vt 0.05023200 0.21509400
vt 0.44976800 0.21477500
vt 0.44976800 0.21509400
vt 0.08714700 0.38665000
vt 0.08714700 0.38665000
vt 0.08773100 0.38698600
vt 0.28691600 0.04064100
vt 0.28749900 0.04097700
vt 0.21308400 0.45935900
vt 0.28691600 0.45935900
vt 0.22301500 0.46509300
vt 0.23383500 0.47134000
vt 0.23383500 0.47134000
vt 0.23383500 0.47134000
vt 0.23849200 0.47402900
vt 0.23849200 0.47402900
vt 0.23849200 0.47402900
vt 0.23763600 0.46817300
vt 0.25036900 0.47230400
vt 0.25036900 0.47230400
vt 0.26616500 0.47134000
vt 0.26616500 0.47134000
vt 0.26616500 0.47134000
vt 0.27698600 0.46509200
vt 0.26150800 0.47402900
vt 0.26150800 0.47402900
vt 0.26150800 0.47402900
vt 0.11961000 0.09460800
vt 0.11988700 0.09444800
vt 0.44976800 0.32271000
vt 0.44976800 0.32203600
vt 0.05023200 0.28522400
vt 0.05023200 0.28490600
vt 0.44976800 0.17729000
vt 0.41285300 0.11335000
vt 0.44976800 0.16582400
vt 0.44976800 0.15332900
vt 0.44976800 0.15332900
vt 0.44976800 0.15332900
vt 0.44976800 0.14795200
vt 0.44976800 0.14795200
vt 0.44976800 0.14795200
vt 0.44512500 0.15162100
vt 0.44233700 0.13852800
vt 0.44233700 0.13852800
vt 0.43360400 0.12533100
vt 0.43360400 0.12533100
vt 0.43360400 0.12533100
vt 0.42278300 0.11908400
vt 0.43826100 0.12802000
vt 0.43826100 0.12802000
vt 0.43826100 0.12802000
vt 0.38039000 0.09460800
vt 0.38011300 0.09444800
vt 0.15011600 0.42300400
vt 0.15011600 0.42300400
vt 0.21308400 0.04064100
vt 0.21250100 0.04097700
vt 0.38039000 0.40539200
vt 0.38011300 0.40555200
vt 0.05023200 0.17729000
vt 0.05023200 0.17796400
vt 0.44976800 0.25000000
vt 0.44976800 0.25000000
f 35/35/35 41/41/41 40/40/40
f 41/41/41 44/44/44 40/40/40
f 44/44/44 39/39/39 40/40/40
f 48/48/48 54/54/54 53/53/53
f 54/54/54 57/57/57 52/52/52
f 57/57/57 50/50/50 52/52/52
f 61/61/61 69/69/69 66/66/66
f 69/69/69 73/73/73 67/67/67
f 73/73/73 65/65/65 67/67/67
f 76/76/76 83/83/83 80/80/80
f 83/83/83 85/85/85 80/80/80
f 85/85/85 79/79/79 80/80/80
f 87/87/87 95/95/95 93/93/93
f 95/95/95 98/98/98 94/94/94
f 98/98/98 91/91/91 94/94/94
f 101/101/101 104/104/104 109/109/109
f 109/109/109 107/107/107 101/101/101
f 104/104/104 111/111/111 113/113/113
f 113/113/113 109/109/109 104/104/104
f 103/103/103 114/114/114 118/118/118
f 118/118/118 117/117/117 103/103/103
f 116/116/116 105/105/105 108/108/108
f 108/108/108 119/119/119 116/116/116
f 110/110/110 112/112/112 120/120/120
f 129/129/129 131/131/131 135/135/135
f 135/135/135 132/132/132 129/129/129
f 131/131/131 138/138/138 140/140/140
f 140/140/140 135/135/135 131/131/131
f 130/130/130 141/141/141 146/146/146
f 146/146/146 144/144/144 130/130/130
f 143/143/143 133/133/133 136/136/136
f 136/136/136 147/147/147 143/143/143
f 137/137/137 139/139/139 145/145/145
f 158/158/158 160/160/160 164/164/164
f 164/164/164 162/162/162 158/158/158
f 160/160/160 167/167/167 168/168/168
f 168/168/168 164/164/164 160/160/160
f 159/159/159 172/172/172 175/175/175
f 175/175/175 173/173/173 159/159/159
f 171/171/171 163/163/163 165/165/165
f 165/165/165 176/176/176 171/171/171
f 166/166/166 169/169/169 174/174/174
f 206/206/206 208/208/208 212/212/212
f 212/212/212 211/211/211 206/206/206
f 208/208/208 215/215/215 217/217/217
f 217/217/217 212/212/212 208/208/208
f 207/207/207 219/219/219 224/224/224
f 224/224/224 221/221/221 207/207/207
f 218/218/218 210/210/210 214/214/214
f 214/214/214 222/222/222 218/218/218
f 213/213/213 216/216/216 223/223/223
f 231/231/231 233/233/233 239/239/239
f 239/239/239 236/236/236 231/231/231
f 233/233/233 240/240/240 242/242/242
f 242/242/242 239/239/239 233/233/233
f 232/232/232 244/244/244 247/247/247
f 247/247/247 246/246/246 232/232/232
f 245/245/245 234/234/234 238/238/238
f 238/238/238 249/249/249 245/245/245
f 237/237/237 241/241/241 248/248/248
f 75/75/75 129/129/129 132/132/132
f 132/132/132 82/82/82 75/75/75
f 81/81/81 134/134/134 142/142/142
f 142/142/142 84/84/84 81/81/81
f 86/86/86 141/141/141 130/130/130
f 130/130/130 78/78/78 86/86/86
f 103/103/103 90/90/90 99/99/99
f 99/99/99 114/114/114 103/103/103
f 115/115/115 100/100/100 96/96/96
f 96/96/96 106/106/106 115/115/115
f 107/107/107 97/97/97 88/88/88
f 88/88/88 101/101/101 107/107/107
f 207/207/207 49/49/49 58/58/58
f 58/58/58 219/219/219 207/207/207
f 220/220/220 59/59/59 56/56/56
f 56/56/56 209/209/209 220/220/220
f 211/211/211 55/55/55 47/47/47
f 47/47/47 206/206/206 211/211/211
f 60/60/60 158/158/158 162/162/162
f 162/162/162 68/68/68 60/60/60
f 70/70/70 161/161/161 170/170/170
f 170/170/170 71/71/71 70/70/70
f 72/72/72 172/172/172 159/159/159
f 159/159/159 64/64/64 72/72/72
f 34/34/34 231/231/231 236/236/236
f 236/236/236 42/42/42 34/34/34
f 43/43/43 235/235/235 243/243/243
f 243/243/243 45/45/45 43/43/43
f 46/46/46 244/244/244 232/232/232
f 232/232/232 38/38/38 46/46/46
f 180/180/180 126/126/126 125/125/125
f 125/125/125 179/179/179 180/180/180
f 228/228/228 182/182/182 181/181/181
f 181/181/181 227/227/227 228/228/228
f 188/188/188 251/251/251 250/250/250
f 250/250/250 187/187/187 188/188/188
f 255/255/255 194/194/194 193/193/193
f 193/193/193 254/254/254 255/255/255
f 259/259/259 198/198/198 197/197/197
f 197/197/197 258/258/258 259/259/259
f 203/203/203 157/157/157 156/156/156
f 156/156/156 202/202/202 203/203/203
f 221/221/221 180/180/180 179/179/179
f 179/179/179 207/207/207 221/221/221
f 144/144/144 228/228/228 227/227/227
f 227/227/227 130/130/130 144/144/144
f 246/246/246 188/188/188 187/187/187
f 187/187/187 232/232/232 246/246/246
f 173/173/173 255/255/255 254/254/254
f 254/254/254 159/159/159 173/173/173
f 154/154/154 259/259/259 258/258/258
f 258/258/258 153/153/153 154/154/154
f 117/117/117 203/203/203 202/202/202
f 202/202/202 103/103/103 117/117/117
f 196/196/196 131/131/131 129/129/129
f 129/129/129 195/195/195 196/196/196
f 151/151/151 233/233/233 231/231/231
f 231/231/231 150/150/150 151/151/151
f 205/205/205 160/160/160 158/158/158
f 158/158/158 204/204/204 205/205/205
f 184/184/184 155/155/155 152/152/152
f 152/152/152 183/183/183 184/184/184
f 186/186/186 104/104/104 101/101/101
f 101/101/101 185/185/185 186/186/186
f 124/124/124 208/208/208 206/206/206
f 206/206/206 123/123/123 124/124/124
f 257/257/257 196/196/196 195/195/195
f 195/195/195 256/256/256 257/257/257
f 200/200/200 151/151/151 150/150/150
f 150/150/150 199/199/199 200/200/200
f 122/122/122 205/205/205 204/204/204
f 204/204/204 121/121/121 122/122/122
f 226/226/226 184/184/184 183/183/183
f 183/183/183 225/225/225 226/226/226
f 230/230/230 186/186/186 185/185/185
f 185/185/185 229/229/229 230/230/230
f 192/192/192 124/124/124 123/123/123
f 123/123/123 191/191/191 192/192/192
f 178/178/178 257/257/257 256/256/256
f 256/256/256 177/177/177 178/178/178
f 261/261/261 200/200/200 199/199/199
f 199/199/199 260/260/260 261/261/261
f 190/190/190 122/122/122 121/121/121
f 121/121/121 189/189/189 190/190/190
f 128/128/128 226/226/226 225/225/225
f 225/225/225 127/127/127 128/128/128
f 149/149/149 230/230/230 229/229/229
f 229/229/229 148/148/148 149/149/149
f 253/253/253 192/192/192 191/191/191
f 191/191/191 252/252/252 253/253/253
f 126/126/126 178/178/178 177/177/177
f 177/177/177 125/125/125 126/126/126
f 182/182/182 261/261/261 260/260/260
f 260/260/260 181/181/181 182/182/182
f 251/251/251 190/190/190 189/189/189
f 189/189/189 250/250/250 251/251/251
f 194/194/194 128/128/128 127/127/127
f 127/127/127 193/193/193 194/194/194
f 198/198/198 149/149/149 148/148/148
f 148/148/148 197/197/197 198/198/198
f 157/157/157 253/253/253 252/252/252
f 252/252/252 156/156/156 157/157/157
f 150/150/150 231/231/231 36/36/36
f 36/36/36 28/28/28 150/150/150
f 232/232/232 187/187/187 19/19/19
f 19/19/19 37/37/37 232/232/232
f 123/123/123 206/206/206 47/47/47
f 47/47/47 32/32/32 123/123/123
f 207/207/207 179/179/179 23/23/23
f 23/23/23 51/51/51 207/207/207
f 204/204/204 158/158/158 62/62/62
f 62/62/62 10/10/10 204/204/204
f 159/159/159 254/254/254 4/4/4
f 4/4/4 63/63/63 159/159/159
f 130/130/130 227/227/227 8/8/8
f 8/8/8 77/77/77 130/130/130
f 195/195/195 129/129/129 74/74/74
f 74/74/74 15/15/15 195/195/195
f 102/102/102 201/201/201 11/11/11
f 11/11/11 92/92/92 102/102/102
f 185/185/185 101/101/101 89/89/89
f 89/89/89 20/20/20 185/185/185
f 121/121/121 204/204/204 10/10/10
f 10/10/10 33/33/33 121/121/121
f 189/189/189 121/121/121 33/33/33
f 33/33/33 18/18/18 189/189/189
f 191/191/191 123/123/123 32/32/32
f 32/32/32 17/17/17 191/191/191
f 125/125/125 177/177/177 24/24/24
f 24/24/24 31/31/31 125/125/125
f 179/179/179 125/125/125 31/31/31
f 31/31/31 23/23/23 179/179/179
f 193/193/193 127/127/127 30/30/30
f 30/30/30 16/16/16 193/193/193
f 127/127/127 225/225/225 9/9/9
f 9/9/9 30/30/30 127/127/127
f 148/148/148 229/229/229 7/7/7
f 7/7/7 29/29/29 148/148/148
f 197/197/197 148/148/148 29/29/29
f 29/29/29 14/14/14 197/197/197
f 199/199/199 150/150/150 28/28/28
f 28/28/28 13/13/13 199/199/199
f 183/183/183 152/152/152 26/26/26
f 26/26/26 21/21/21 183/183/183
f 153/153/153 258/258/258 2/2/2
f 2/2/2 27/27/27 153/153/153
f 202/202/202 156/156/156 25/25/25
f 25/25/25 12/12/12 202/202/202
f 156/156/156 252/252/252 5/5/5
f 5/5/5 25/25/25 156/156/156
f 177/177/177 256/256/256 3/3/3
f 3/3/3 24/24/24 177/177/177
f 227/227/227 181/181/181 22/22/22
f 22/22/22 8/8/8 227/227/227
f 181/181/181 260/260/260 1/1/1
f 1/1/1 22/22/22 181/181/181
f 225/225/225 183/183/183 21/21/21
f 21/21/21 9/9/9 225/225/225
f 229/229/229 185/185/185 20/20/20
f 20/20/20 7/7/7 229/229/229
f 187/187/187 250/250/250 6/6/6
f 6/6/6 19/19/19 187/187/187
f 250/250/250 189/189/189 18/18/18
f 18/18/18 6/6/6 250/250/250
f 252/252/252 191/191/191 17/17/17
f 17/17/17 5/5/5 252/252/252
f 254/254/254 193/193/193 16/16/16
f 16/16/16 4/4/4 254/254/254
f 256/256/256 195/195/195 15/15/15
f 15/15/15 3/3/3 256/256/256
f 258/258/258 197/197/197 14/14/14
f 14/14/14 2/2/2 258/258/258
f 260/260/260 199/199/199 13/13/13
f 13/13/13 1/1/1 260/260/260

