mtllib material.mtl
usemtl granite
v -0.00064900 -0.09707300 0.00037500
v 0.00000000 -0.09707300 -0.00075000
v 0.00075000 -0.09707300 0.00000000
v -0.00057400 -0.09707300 -0.00048200
v 0.00048200 -0.09707300 -0.00057400
v 0.00025600 -0.09707300 0.00070400
v -0.00075000 -0.09707300 0.00000000
v 0.00037500 -0.09707300 -0.00064900
v 0.00037500 -0.09707300 0.00064900
v 0.00064900 -0.09707300 0.00037500
v -0.00057400 -0.09707300 0.00048200
v -0.00013000 -0.09707300 0.00073800
v -0.00048200 -0.09707300 -0.00057400
v 0.00064900 -0.09707300 -0.00037500
v -0.00000000 -0.09707300 0.00075000
v -0.00070400 -0.09707300 -0.00025600
v -0.00073800 -0.09707300 0.00013000
v 0.00025600 -0.09707300 -0.00070400
v -0.00013000 -0.09707300 -0.00073800
v -0.00064900 -0.09707300 -0.00037500
v 0.00073800 -0.09707300 -0.00013000
v -0.00025600 -0.09707300 -0.00070400
v 0.00073800 -0.09707300 0.00013000
v 0.00057400 -0.09707300 -0.00048200
v 0.00013000 -0.09707300 0.00073800
v 0.00048200 -0.09707300 0.00057400
v 0.00070400 -0.09707300 0.00025600
v 0.00013000 -0.09707300 -0.00073800
v -0.00037500 -0.09707300 0.00064900
v 0.00070400 -0.09707300 -0.00025600
v -0.00025600 -0.09707300 0.00070400
v -0.00037500 -0.09707300 -0.00064900
v -0.00073800 -0.09707300 -0.00013000
v -0.00070400 -0.09707300 0.00025600
v -0.00048200 -0.09707300 0.00057400
v 0.00057400 -0.09707300 0.00048200
v 0.00075000 -0.09722000 0.00000000
v 0.00075000 -0.09722000 0.00000000
v -0.00065000 -0.09722000 0.00037500
v -0.00065000 -0.09722000 0.00037500
v 0.00000000 -0.09722000 -0.00075000
v 0.00000000 -0.09722000 -0.00075000
v -0.00057500 -0.09722000 -0.00048200
v -0.00057500 -0.09722000 -0.00048200
v 0.00048200 -0.09722000 -0.00057500
v 0.00048200 -0.09722000 -0.00057500
v 0.00025700 -0.09722000 0.00070500
v 0.00025700 -0.09722000 0.00070500
v -0.00075000 -0.09722000 0.00000000
v -0.00075000 -0.09722000 0.00000000
v 0.00037500 -0.09722000 -0.00065000
v 0.00037500 -0.09722000 -0.00065000
v 0.00037500 -0.09722000 0.00065000
v 0.00037500 -0.09722000 0.00065000
v 0.00065000 -0.09722000 0.00037500
v 0.00065000 -0.09722000 0.00037500
v -0.00057500 -0.09722000 0.00048200
v -0.00057500 -0.09722000 0.00048200
v -0.00013000 -0.09722000 0.00073900
v -0.00013000 -0.09722000 0.00073900
v -0.00048200 -0.09722000 -0.00057500
v -0.00048200 -0.09722000 -0.00057500
v 0.00065000 -0.09722000 -0.00037500
v 0.00065000 -0.09722000 -0.00037500
v -0.00000000 -0.09722000 0.00075000
v -0.00000000 -0.09722000 0.00075000
v -0.00070500 -0.09722000 -0.00025700
v -0.00070500 -0.09722000 -0.00025700
v -0.00073900 -0.09722000 0.00013000
v -0.00073900 -0.09722000 0.00013000
v 0.00025700 -0.09722000 -0.00070500
v 0.00025700 -0.09722000 -0.00070500
v -0.00013000 -0.09722000 -0.00073900
v -0.00013000 -0.09722000 -0.00073900
v -0.00065000 -0.09722000 -0.00037500
v -0.00065000 -0.09722000 -0.00037500
v 0.00073900 -0.09722000 -0.00013000
v 0.00073900 -0.09722000 -0.00013000
v -0.00025700 -0.09722000 -0.00070500
v -0.00025700 -0.09722000 -0.00070500
v 0.00073900 -0.09722000 0.00013000
v 0.00073900 -0.09722000 0.00013000
v 0.00057500 -0.09722000 -0.00048200
v 0.00057500 -0.09722000 -0.00048200
v 0.00013000 -0.09722000 0.00073900
v 0.00013000 -0.09722000 0.00073900
v 0.00048200 -0.09722000 0.00057500
v 0.00048200 -0.09722000 0.00057500
v 0.00070500 -0.09722000 0.00025700
v 0.00070500 -0.09722000 0.00025700
v 0.00013000 -0.09722000 -0.00073900
v 0.00013000 -0.09722000 -0.00073900
v -0.00037500 -0.09722000 0.00065000
v -0.00037500 -0.09722000 0.00065000
v 0.00070500 -0.09722000 -0.00025700
v 0.00070500 -0.09722000 -0.00025700
v -0.00025700 -0.09722000 0.00070500
v -0.00025700 -0.09722000 0.00070500
v -0.00037500 -0.09722000 -0.00065000
v -0.00037500 -0.09722000 -0.00065000
v -0.00073900 -0.09722000 -0.00013000
v -0.00073900 -0.09722000 -0.00013000
v -0.00070500 -0.09722000 0.00025700
v -0.00070500 -0.09722000 0.00025700
v -0.00048200 -0.09722000 0.00057500
v -0.00048200 -0.09722000 0.00057500
v 0.00057500 -0.09722000 0.00048200
v 0.00057500 -0.09722000 0.00048200
v -0.00000000 0.09170200 -0.00075100
v -0.00025700 0.09170200 0.00070600
v 0.00057500 0.09170200 -0.00048300
v -0.00074000 0.09170200 0.00013000
v 0.00065000 0.09170200 0.00037500
v -0.00057500 0.09170200 -0.00048300
v -0.00037500 0.09170200 -0.00065000
v 0.00013000 0.09170200 0.00074000
v 0.00025700 0.09170200 -0.00070600
v -0.00057500 0.09170200 0.00048300
v 0.00075100 0.09170200 -0.00000000
v -0.00074000 0.09170200 -0.00013000
v 0.00048300 0.09170200 0.00057500
v -0.00013000 0.09170200 -0.00074000
v -0.00013000 0.09170200 0.00074000
v 0.00048300 0.09170200 -0.00057500
v -0.00070600 0.09170200 0.00025700
v 0.00070600 0.09170200 0.00025700
v -0.00065000 0.09170200 -0.00037500
v -0.00048300 0.09170200 -0.00057500
v 0.00025700 0.09170200 0.00070600
v -0.00048300 0.09170200 0.00057500
v 0.00013000 0.09170200 -0.00074000
v 0.00074000 0.09170200 -0.00013000
v 0.00065000 0.09170200 -0.00037500
v -0.00075100 0.09170200 -0.00000000
v 0.00057500 0.09170200 0.00048300
v -0.00037500 0.09170200 0.00065000
v -0.00025700 0.09170200 -0.00070600
v -0.00000000 0.09170200 0.00075100
v 0.00037500 0.09170200 -0.00065000
v -0.00065000 0.09170200 0.00037500
v 0.00070600 0.09170200 -0.00025700
v 0.00074000 0.09170200 0.00013000
v -0.00070600 0.09170200 -0.00025700
v 0.00037500 0.09170200 0.00065000
v 0.00006500 -0.09964100 0.00008700
v 0.00006500 -0.09964100 0.00008700
v 0.00010600 -0.09958300 0.00012600
v 0.00010600 -0.09958300 0.00012600
v 0.00010600 -0.09958300 0.00012600
v 0.00010600 -0.09958300 0.00012600
v 0.00009200 -0.09967900 -0.00001400
v 0.00009200 -0.09967900 -0.00001400
v 0.00014900 -0.09963700 -0.00002600
v 0.00014900 -0.09963700 -0.00002600
v -0.00008700 -0.09968600 -0.00003000
v -0.00008700 -0.09968600 -0.00003000
v -0.00014000 -0.09964600 -0.00005100
v -0.00014000 -0.09964600 -0.00005100
v -0.00014000 -0.09964600 -0.00005100
v -0.00014000 -0.09964600 -0.00005100
v -0.00007700 -0.09964700 0.00007300
v -0.00007700 -0.09964700 0.00007300
v -0.00012500 -0.09959000 0.00010500
v -0.00012500 -0.09959000 0.00010500
v -0.00012500 -0.09959000 0.00010500
v -0.00012500 -0.09959000 0.00010500
v 0.00009600 -0.09967300 0.00000400
v 0.00009600 -0.09967300 0.00000400
v 0.00015400 -0.09962700 0.00000000
v 0.00015400 -0.09962700 0.00000000
v 0.00015400 -0.09962700 0.00000000
v 0.00015400 -0.09962700 0.00000000
v -0.00004300 -0.09970300 -0.00007600
v -0.00004300 -0.09970300 -0.00007600
v -0.00007100 -0.09967200 -0.00012300
v -0.00007100 -0.09967200 -0.00012300
v -0.00007100 -0.09967200 -0.00012300
v -0.00007100 -0.09967200 -0.00012300
v 0.00009300 -0.09965900 0.00004000
v 0.00009300 -0.09965900 0.00004000
v 0.00014900 -0.09960800 0.00005400
v 0.00014900 -0.09960800 0.00005400
v -0.00002900 -0.09970500 -0.00008200
v -0.00002900 -0.09970500 -0.00008200
v -0.00004800 -0.09967600 -0.00013300
v -0.00004800 -0.09967600 -0.00013300
v -0.00009600 -0.09966600 0.00002200
v -0.00009600 -0.09966600 0.00002200
v -0.00015400 -0.09961800 0.00002700
v -0.00015400 -0.09961800 0.00002700
v -0.00015400 -0.09961800 0.00002700
v -0.00015400 -0.09961800 0.00002700
v 0.00003500 -0.09963400 0.00010600
v 0.00003500 -0.09963400 0.00010600
v 0.00005700 -0.09957200 0.00015700
v 0.00005700 -0.09957200 0.00015700
v 0.00005700 -0.09957200 0.00015700
v 0.00005700 -0.09957200 0.00015700
v -0.00001800 -0.09963200 0.00011100
v -0.00001800 -0.09963200 0.00011100
v -0.00002900 -0.09956900 0.00016500
v -0.00002900 -0.09956900 0.00016500
v -0.00009600 -0.09967300 0.00000400
v -0.00009600 -0.09967300 0.00000400
v -0.00015400 -0.09962700 0.00000000
v -0.00015400 -0.09962700 0.00000000
v -0.00008600 -0.09965300 0.00005700
v -0.00008600 -0.09965300 0.00005700
v -0.00013900 -0.09959900 0.00008000
v -0.00013900 -0.09959900 0.00008000
v -0.00009200 -0.09967900 -0.00001400
v -0.00009200 -0.09967900 -0.00001400
v -0.00014900 -0.09963700 -0.00002600
v -0.00014900 -0.09963700 -0.00002600
v 0.00001500 -0.09970700 -0.00008500
v 0.00001500 -0.09970700 -0.00008500
v 0.00002400 -0.09967800 -0.00013900
v 0.00002400 -0.09967800 -0.00013900
v 0.00002400 -0.09967800 -0.00013900
v 0.00002400 -0.09967800 -0.00013900
v 0.00009600 -0.09966600 0.00002200
v 0.00009600 -0.09966600 0.00002200
v 0.00015400 -0.09961800 0.00002700
v 0.00015400 -0.09961800 0.00002700
v 0.00002900 -0.09970500 -0.00008200
v 0.00002900 -0.09970500 -0.00008200
v 0.00004800 -0.09967600 -0.00013300
v 0.00004800 -0.09967600 -0.00013300
v -0.00005600 -0.09970000 -0.00006700
v -0.00005600 -0.09970000 -0.00006700
v -0.00009200 -0.09966700 -0.00011000
v -0.00009200 -0.09966700 -0.00011000
v 0.00004300 -0.09970300 -0.00007600
v 0.00004300 -0.09970300 -0.00007600
v 0.00007100 -0.09967200 -0.00012300
v 0.00007100 -0.09967200 -0.00012300
v 0.00000000 -0.09970700 -0.00008600
v 0.00000000 -0.09970700 -0.00008600
v 0.00000000 -0.09967900 -0.00014100
v 0.00000000 -0.09967900 -0.00014100
v 0.00000000 -0.09967900 -0.00014100
v 0.00000000 -0.09967900 -0.00014100
v -0.00009300 -0.09965900 0.00004000
v -0.00009300 -0.09965900 0.00004000
v -0.00014900 -0.09960800 0.00005400
v -0.00014900 -0.09960800 0.00005400
v -0.00005100 -0.09963700 0.00009800
v -0.00005100 -0.09963700 0.00009800
v -0.00008300 -0.09957600 0.00014400
v -0.00008300 -0.09957600 0.00014400
v -0.00008300 -0.09957600 0.00014400
v -0.00008300 -0.09957600 0.00014400
v 0.00006800 -0.09969600 -0.00005700
v 0.00006800 -0.09969600 -0.00005700
v 0.00011100 -0.09966100 -0.00009300
v 0.00011100 -0.09966100 -0.00009300
v -0.00001500 -0.09970700 -0.00008500
v -0.00001500 -0.09970700 -0.00008500
v -0.00002400 -0.09967800 -0.00013900
v -0.00002400 -0.09967800 -0.00013900
v -0.00002400 -0.09967800 -0.00013900
v -0.00002400 -0.09967800 -0.00013900
v 0.00007800 -0.09969100 -0.00004400
v 0.00007800 -0.09969100 -0.00004400
v 0.00012700 -0.09965400 -0.00007300
v 0.00012700 -0.09965400 -0.00007300
v 0.00012700 -0.09965400 -0.00007300
v 0.00012700 -0.09965400 -0.00007300
v 0.00005100 -0.09963700 0.00009800
v 0.00005100 -0.09963700 0.00009800
v 0.00008300 -0.09957600 0.00014400
v 0.00008300 -0.09957600 0.00014400
v 0.00008300 -0.09957600 0.00014400
v 0.00008300 -0.09957600 0.00014400
v -0.00006800 -0.09969600 -0.00005700
v -0.00006800 -0.09969600 -0.00005700
v -0.00011100 -0.09966100 -0.00009300
v -0.00011100 -0.09966100 -0.00009300
v -0.00006500 -0.09964100 0.00008700
v -0.00006500 -0.09964100 0.00008700
v -0.00010600 -0.09958300 0.00012600
v -0.00010600 -0.09958300 0.00012600
v 0.00008700 -0.09968600 -0.00003000
v 0.00008700 -0.09968600 -0.00003000
v 0.00014000 -0.09964600 -0.00005100
v 0.00014000 -0.09964600 -0.00005100
v 0.00014000 -0.09964600 -0.00005100
v 0.00014000 -0.09964600 -0.00005100
v 0.00001800 -0.09963200 0.00011100
v 0.00001800 -0.09963200 0.00011100
v 0.00002900 -0.09956900 0.00016500
v 0.00002900 -0.09956900 0.00016500
v -0.00007800 -0.09969100 -0.00004400
v -0.00007800 -0.09969100 -0.00004400
v -0.00012700 -0.09965400 -0.00007300
v -0.00012700 -0.09965400 -0.00007300
v 0.00000000 -0.09963100 0.00011300
v 0.00000000 -0.09963100 0.00011300
v 0.00000000 -0.09956800 0.00016800
v 0.00000000 -0.09956800 0.00016800
v 0.00008600 -0.09965300 0.00005700
v 0.00008600 -0.09965300 0.00005700
v 0.00013900 -0.09959900 0.00008000
v 0.00013900 -0.09959900 0.00008000
v 0.00013900 -0.09959900 0.00008000
v 0.00013900 -0.09959900 0.00008000
v 0.00005600 -0.09970000 -0.00006700
v 0.00005600 -0.09970000 -0.00006700
v 0.00009200 -0.09966700 -0.00011000
v 0.00009200 -0.09966700 -0.00011000
v 0.00007700 -0.09964700 0.00007300
v 0.00007700 -0.09964700 0.00007300
v 0.00012500 -0.09959000 0.00010500
v 0.00012500 -0.09959000 0.00010500
v 0.00012500 -0.09959000 0.00010500
v 0.00012500 -0.09959000 0.00010500
v -0.00003500 -0.09963400 0.00010600
v -0.00003500 -0.09963400 0.00010600
v -0.00005700 -0.09957200 0.00015700
v -0.00005700 -0.09957200 0.00015700
v -0.00005700 -0.09957200 0.00015700
v -0.00005700 -0.09957200 0.00015700
vn -0.86600000 0.00410000 0.50000000
vn -0.00000000 0.00410000 -1.00000000
vn 1.00000000 0.00410000 -0.00000000
vn -0.76600000 0.00410000 -0.64280000
vn 0.64280000 0.00410000 -0.76600000
vn 0.34200000 0.00410000 0.93970000
vn -1.00000000 0.00410000 -0.00000000
vn 0.50000000 0.00410000 -0.86600000
vn 0.50000000 0.00410000 0.86600000
vn 0.86600000 0.00410000 0.50000000
vn -0.76600000 0.00410000 0.64280000
vn -0.17360000 0.00410000 0.98480000
vn -0.64280000 0.00410000 -0.76600000
vn 0.86600000 0.00410000 -0.50000000
vn -0.00000000 0.00410000 1.00000000
vn -0.93970000 0.00410000 -0.34200000
vn -0.98480000 0.00410000 0.17370000
vn 0.34200000 0.00410000 -0.93970000
vn -0.17360000 0.00410000 -0.98480000
vn -0.86600000 0.00410000 -0.50000000
vn 0.98480000 0.00410000 -0.17370000
vn -0.34200000 0.00410000 -0.93970000
vn 0.98480000 0.00410000 0.17370000
vn 0.76610000 0.00410000 -0.64280000
vn 0.17360000 0.00410000 0.98480000
vn 0.64280000 0.00410000 0.76600000
vn 0.93970000 0.00410000 0.34200000
vn 0.17360000 0.00410000 -0.98480000
vn -0.50000000 0.00410000 0.86600000
vn 0.93970000 0.00410000 -0.34200000
vn -0.34200000 0.00410000 0.93970000
vn -0.50000000 0.00410000 -0.86600000
vn -0.98480000 0.00410000 -0.17370000
vn -0.93970000 0.00410000 0.34200000
vn -0.64280000 0.00410000 0.76600000
vn 0.76600000 0.00410000 0.64280000
vn 1.00000000 0.00410000 -0.00000000
vn 0.97060000 -0.24060000 -0.00000000
vn -0.86600000 0.00410000 0.50000000
vn -0.84060000 -0.24060000 0.48530000
vn -0.00000000 0.00410000 -1.00000000
vn -0.00000000 -0.24060000 -0.97060000
vn -0.74350000 -0.24060000 -0.62390000
vn -0.76600000 0.00410000 -0.64280000
vn 0.64280000 0.00410000 -0.76600000
vn 0.62390000 -0.24060000 -0.74350000
vn 0.34200000 0.00410000 0.93970000
vn 0.33200000 -0.24060000 0.91210000
vn -1.00000000 0.00410000 -0.00000000
vn -0.97060000 -0.24060000 -0.00000000
vn 0.50000000 0.00410000 -0.86600000
vn 0.48530000 -0.24060000 -0.84060000
vn 0.50000000 0.00410000 0.86600000
vn 0.48530000 -0.24060000 0.84060000
vn 0.84060000 -0.24060000 0.48530000
vn 0.86600000 0.00410000 0.50000000
vn -0.76600000 0.00410000 0.64280000
vn -0.74350000 -0.24060000 0.62390000
vn -0.17360000 0.00410000 0.98480000
vn -0.16860000 -0.24060000 0.95590000
vn -0.62390000 -0.24060000 -0.74350000
vn -0.64280000 0.00410000 -0.76600000
vn 0.84060000 -0.24060000 -0.48530000
vn 0.86600000 0.00410000 -0.50000000
vn -0.00000000 0.00410000 1.00000000
vn -0.00000000 -0.24060000 0.97060000
vn -0.93970000 0.00410000 -0.34200000
vn -0.91210000 -0.24060000 -0.33200000
vn -0.98480000 0.00410000 0.17370000
vn -0.95590000 -0.24060000 0.16850000
vn 0.33200000 -0.24060000 -0.91210000
vn 0.34200000 0.00410000 -0.93970000
vn -0.16860000 -0.24060000 -0.95590000
vn -0.17360000 0.00410000 -0.98480000
vn -0.84060000 -0.24060000 -0.48530000
vn -0.86600000 0.00410000 -0.50000000
vn 0.95590000 -0.24060000 -0.16850000
vn 0.98480000 0.00410000 -0.17370000
vn -0.33200000 -0.24060000 -0.91210000
vn -0.34200000 0.00410000 -0.93970000
vn 0.98480000 0.00410000 0.17370000
vn 0.95590000 -0.24060000 0.16850000
vn 0.76610000 0.00410000 -0.64280000
vn 0.74350000 -0.24060000 -0.62390000
vn 0.16860000 -0.24060000 0.95590000
vn 0.17360000 0.00410000 0.98480000
vn 0.62390000 -0.24060000 0.74350000
vn 0.64280000 0.00410000 0.76600000
vn 0.91210000 -0.24060000 0.33200000
vn 0.93970000 0.00410000 0.34200000
vn 0.17360000 0.00410000 -0.98480000
vn 0.16860000 -0.24060000 -0.95590000
vn -0.50000000 0.00410000 0.86600000
vn -0.48530000 -0.24060000 0.84060000
vn 0.91210000 -0.24060000 -0.33200000
vn 0.93970000 0.00410000 -0.34200000
vn -0.33200000 -0.24060000 0.91210000
vn -0.34200000 0.00410000 0.93970000
vn -0.48530000 -0.24060000 -0.84060000
vn -0.50000000 0.00410000 -0.86600000
vn -0.98480000 0.00410000 -0.17370000
vn -0.95590000 -0.24060000 -0.16850000
vn -0.91210000 -0.24060000 0.33200000
vn -0.93970000 0.00410000 0.34200000
vn -0.64280000 0.00410000 0.76600000
vn -0.62390000 -0.24060000 0.74350000
vn 0.74350000 -0.24060000 0.62390000
vn 0.76600000 0.00410000 0.64280000
vn -0.00000000 1.00000000 -0.00000000
vn -0.00000000 1.00000000 -0.00000000
vn -0.00000000 1.00000000 -0.00000000
vn -0.00000000 1.00000000 -0.00000000
vn -0.00000000 1.00000000 -0.00000000
vn -0.00000000 1.00000000 -0.00000000
vn -0.00000000 1.00000000 -0.00000000
vn -0.00000000 1.00000000 -0.00000000
vn -0.00000000 1.00000000 -0.00000000
vn -0.00000000 1.00000000 -0.00000000
vn -0.00000000 1.00000000 -0.00000000
vn -0.00000000 1.00000000 -0.00000000
vn -0.00000000 1.00000000 -0.00000000
vn -0.00000000 1.00000000 -0.00000000
vn -0.00000000 1.00000000 -0.00000000
vn -0.00000000 1.00000000 -0.00000000
vn -0.00000000 1.00000000 -0.00000000
vn -0.00000000 1.00000000 -0.00000000
vn -0.00000000 1.00000000 -0.00000000
vn -0.00000000 1.00000000 -0.00000000
vn -0.00000000 1.00000000 -0.00000000
vn -0.00000000 1.00000000 -0.00000000
vn -0.00000000 1.00000000 -0.00000000
vn -0.00000000 1.00000000 -0.00000000
vn -0.00000000 1.00000000 -0.00000000
vn -0.00000000 1.00000000 -0.00000000
vn -0.00000000 1.00000000 -0.00000000
vn -0.00000000 1.00000000 -0.00000000
vn -0.00000000 1.00000000 -0.00000000
vn -0.00000000 1.00000000 -0.00000000
vn -0.00000000 1.00000000 -0.00000000
vn -0.00000000 1.00000000 -0.00000000
vn -0.00000000 1.00000000 -0.00000000
vn -0.00000000 1.00000000 -0.00000000
vn -0.00000000 1.00000000 -0.00000000
vn -0.00000000 1.00000000 -0.00000000
vn 0.37270000 -0.67990000 0.63150000
vn -0.00000000 -0.93510000 0.35450000
vn 0.63360000 -0.24060000 0.73530000
vn 0.63360000 -0.24060000 0.73530000
vn 0.36530000 -0.67880000 0.63700000
vn 0.36530000 -0.67880000 0.63700000
vn -0.00000000 -0.93510000 0.35450000
vn 0.61620000 -0.77950000 0.11250000
vn 0.61680000 -0.77660000 0.12800000
vn 0.95250000 -0.24050000 -0.18670000
vn -0.00000000 -0.93510000 0.35450000
vn -0.60110000 -0.79910000 0.00850000
vn -0.60450000 -0.79630000 0.02360000
vn -0.60450000 -0.79630000 0.02360000
vn -0.90590000 -0.24060000 -0.34850000
vn -0.90590000 -0.24060000 -0.34850000
vn -0.44650000 -0.69270000 0.56640000
vn -0.00000000 -0.93510000 0.35450000
vn -0.75310000 -0.24060000 0.61230000
vn -0.75310000 -0.24060000 0.61230000
vn -0.43880000 -0.69120000 0.57420000
vn -0.43880000 -0.69120000 0.57420000
vn 0.61310000 -0.76020000 0.21490000
vn -0.00000000 -0.93510000 0.35450000
vn 0.97050000 -0.24050000 -0.01880000
vn 0.61120000 -0.75740000 0.22980000
vn 0.61120000 -0.75740000 0.22980000
vn 0.97050000 -0.24050000 -0.01880000
vn -0.34820000 -0.86780000 -0.35440000
vn -0.00000000 -0.93510000 0.35450000
vn -0.35650000 -0.86680000 -0.34880000
vn -0.47710000 -0.24060000 -0.84530000
vn -0.47710000 -0.24060000 -0.84530000
vn -0.35650000 -0.86680000 -0.34880000
vn 0.55800000 -0.72390000 0.40570000
vn -0.00000000 -0.93510000 0.35450000
vn 0.91810000 -0.24060000 0.31500000
vn 0.55200000 -0.72160000 0.41780000
vn -0.24150000 -0.87870000 -0.41170000
vn -0.00000000 -0.93510000 0.35450000
vn -0.32580000 -0.24060000 -0.91430000
vn -0.24810000 -0.87820000 -0.40890000
vn -0.59330000 -0.74160000 0.31320000
vn -0.00000000 -0.93510000 0.35450000
vn -0.95900000 -0.24050000 0.15010000
vn -0.95900000 -0.24050000 0.15010000
vn -0.58910000 -0.73900000 0.32700000
vn -0.58910000 -0.73900000 0.32700000
vn -0.00000000 -0.93510000 0.35450000
vn 0.19760000 -0.66140000 0.72350000
vn 0.19290000 -0.66110000 0.72510000
vn 0.33850000 -0.24060000 0.90970000
vn 0.33850000 -0.24060000 0.90970000
vn 0.19290000 -0.66110000 0.72510000
vn -0.00000000 -0.93510000 0.35450000
vn -0.10030000 -0.65640000 0.74770000
vn -0.17210000 -0.24060000 0.95530000
vn -0.09780000 -0.65630000 0.74810000
vn -0.00000000 -0.93510000 0.35450000
vn -0.61310000 -0.76030000 0.21490000
vn -0.61110000 -0.75740000 0.22980000
vn -0.97050000 -0.24050000 -0.01880000
vn -0.00000000 -0.93510000 0.35450000
vn -0.50860000 -0.70750000 0.49060000
vn -0.84890000 -0.24060000 0.47070000
vn -0.50150000 -0.70560000 0.50060000
vn -0.00000000 -0.93510000 0.35450000
vn -0.61620000 -0.77950000 0.11250000
vn -0.95250000 -0.24050000 -0.18670000
vn -0.61680000 -0.77670000 0.12800000
vn 0.12390000 -0.88550000 -0.44770000
vn -0.00000000 -0.93510000 0.35450000
vn 0.12750000 -0.88540000 -0.44700000
vn 0.12750000 -0.88540000 -0.44700000
vn 0.16530000 -0.24060000 -0.95640000
vn 0.16530000 -0.24060000 -0.95640000
vn 0.59330000 -0.74150000 0.31310000
vn -0.00000000 -0.93510000 0.35450000
vn 0.95900000 -0.24050000 0.15010000
vn 0.58920000 -0.73890000 0.32690000
vn 0.24150000 -0.87880000 -0.41160000
vn -0.00000000 -0.93510000 0.35450000
vn 0.24810000 -0.87820000 -0.40880000
vn 0.32580000 -0.24060000 -0.91430000
vn -0.00000000 -0.93510000 0.35450000
vn -0.43950000 -0.85370000 -0.27940000
vn -0.44820000 -0.85200000 -0.27060000
vn -0.61460000 -0.24060000 -0.75130000
vn -0.00000000 -0.93510000 0.35450000
vn 0.34800000 -0.86790000 -0.35450000
vn 0.35630000 -0.86680000 -0.34880000
vn 0.47710000 -0.24060000 -0.84530000
vn -0.00000000 -0.93510000 0.35450000
vn -0.00000000 -0.88780000 -0.46010000
vn -0.00000000 -0.24060000 -0.97060000
vn -0.00000000 -0.24060000 -0.97060000
vn -0.00000000 -0.88780000 -0.46010000
vn -0.00000000 -0.88780000 -0.46010000
vn -0.00000000 -0.93510000 0.35450000
vn -0.55800000 -0.72390000 0.40570000
vn -0.55200000 -0.72160000 0.41780000
vn -0.91810000 -0.24060000 0.31500000
vn -0.28930000 -0.66940000 0.68430000
vn -0.00000000 -0.93510000 0.35450000
vn -0.49400000 -0.24060000 0.83550000
vn -0.49400000 -0.24060000 0.83550000
vn -0.28300000 -0.66870000 0.68760000
vn -0.28300000 -0.66870000 0.68760000
vn 0.51300000 -0.83690000 -0.19100000
vn -0.00000000 -0.93510000 0.35450000
vn 0.52060000 -0.83470000 -0.17950000
vn 0.73420000 -0.24060000 -0.63490000
vn -0.00000000 -0.93510000 0.35450000
vn -0.12370000 -0.88550000 -0.44780000
vn -0.16530000 -0.24060000 -0.95640000
vn -0.12740000 -0.88540000 -0.44710000
vn -0.12740000 -0.88540000 -0.44710000
vn -0.16530000 -0.24060000 -0.95640000
vn 0.56670000 -0.81860000 -0.09400000
vn -0.00000000 -0.93510000 0.35450000
vn 0.57250000 -0.81600000 -0.08020000
vn 0.57250000 -0.81600000 -0.08020000
vn 0.83240000 -0.24060000 -0.49930000
vn 0.83240000 -0.24060000 -0.49930000
vn 0.28930000 -0.66940000 0.68430000
vn -0.00000000 -0.93510000 0.35450000
vn 0.49400000 -0.24060000 0.83550000
vn 0.28280000 -0.66870000 0.68760000
vn 0.28280000 -0.66870000 0.68760000
vn 0.49400000 -0.24060000 0.83550000
vn -0.00000000 -0.93510000 0.35450000
vn -0.51290000 -0.83690000 -0.19100000
vn -0.73420000 -0.24060000 -0.63490000
vn -0.52060000 -0.83470000 -0.17950000
vn -0.37260000 -0.67990000 0.63160000
vn -0.00000000 -0.93510000 0.35450000
vn -0.36520000 -0.67880000 0.63710000
vn -0.63360000 -0.24060000 0.73530000
vn 0.60110000 -0.79910000 0.00850000
vn -0.00000000 -0.93510000 0.35450000
vn 0.60450000 -0.79630000 0.02360000
vn 0.60450000 -0.79630000 0.02360000
vn 0.90590000 -0.24060000 -0.34850000
vn 0.90590000 -0.24060000 -0.34850000
vn 0.10020000 -0.65640000 0.74770000
vn -0.00000000 -0.93510000 0.35450000
vn 0.17210000 -0.24060000 0.95530000
vn 0.09770000 -0.65630000 0.74810000
vn -0.56670000 -0.81850000 -0.09400000
vn -0.00000000 -0.93510000 0.35450000
vn -0.57260000 -0.81590000 -0.08020000
vn -0.83240000 -0.24060000 -0.49930000
vn -0.00000000 -0.93510000 0.35450000
vn -0.00010000 -0.65470000 0.75590000
vn -0.00010000 -0.65470000 0.75590000
vn -0.00000000 -0.24060000 0.97060000
vn -0.00000000 -0.93510000 0.35450000
vn 0.50870000 -0.70750000 0.49060000
vn 0.50160000 -0.70560000 0.50060000
vn 0.50160000 -0.70560000 0.50060000
vn 0.84890000 -0.24060000 0.47070000
vn 0.84890000 -0.24060000 0.47070000
vn -0.00000000 -0.93510000 0.35450000
vn 0.43960000 -0.85360000 -0.27940000
vn 0.44830000 -0.85200000 -0.27060000
vn 0.61460000 -0.24060000 -0.75130000
vn -0.00000000 -0.93510000 0.35450000
vn 0.44660000 -0.69270000 0.56640000
vn 0.75310000 -0.24060000 0.61230000
vn 0.75310000 -0.24060000 0.61230000
vn 0.43890000 -0.69120000 0.57420000
vn 0.43890000 -0.69120000 0.57420000
vn -0.00000000 -0.93510000 0.35450000
vn -0.19780000 -0.66140000 0.72350000
vn -0.19310000 -0.66110000 0.72510000
vn -0.19310000 -0.66110000 0.72510000
vn -0.33850000 -0.24060000 0.90970000
vn -0.33850000 -0.24060000 0.90970000
vt 0.22503700 0.20676200
vt 0.29992700 0.25000000
vt 0.25000000 0.29992700
vt 0.28209200 0.21175400
vt 0.28824600 0.28209200
vt 0.20308400 0.26707600
vt 0.25000000 0.20007300
vt 0.29323800 0.27496400
vt 0.20676200 0.27496400
vt 0.22503700 0.29323800
vt 0.21790800 0.21175400
vt 0.20083200 0.24133000
vt 0.28824600 0.21790800
vt 0.27496300 0.29323800
vt 0.20007300 0.25000000
vt 0.26707600 0.20308400
vt 0.24133000 0.20083200
vt 0.29691600 0.26707600
vt 0.29916800 0.24133000
vt 0.27496300 0.20676200
vt 0.25867000 0.29916800
vt 0.29691600 0.23292400
vt 0.24133000 0.29916800
vt 0.28209200 0.28824600
vt 0.20083200 0.25867000
vt 0.21175400 0.28209200
vt 0.23292400 0.29691600
vt 0.29916800 0.25867000
vt 0.20676200 0.22503600
vt 0.26707600 0.29691600
vt 0.20308400 0.23292400
vt 0.29323800 0.22503600
vt 0.25867000 0.20083200
vt 0.23292400 0.20308400
vt 0.21175400 0.21790800
vt 0.21790800 0.28824600
vt 0.25000000 0.29834300
vt 0.25000000 0.29834300
vt 0.22582900 0.20813400
vt 0.22582900 0.20813400
vt 0.29834300 0.25000000
vt 0.29834300 0.25000000
vt 0.28107400 0.21296700
vt 0.28107400 0.21296700
vt 0.28703300 0.28107400
vt 0.28703300 0.28107400
vt 0.20457200 0.26653400
vt 0.20457200 0.26653400
vt 0.25000000 0.20165700
vt 0.25000000 0.20165700
vt 0.29186600 0.27417200
vt 0.29186600 0.27417200
vt 0.20813400 0.27417200
vt 0.20813400 0.27417200
vt 0.22582900 0.29186600
vt 0.22582900 0.29186600
vt 0.21892600 0.21296700
vt 0.21892600 0.21296700
vt 0.20239200 0.24160500
vt 0.20239200 0.24160500
vt 0.28703300 0.21892600
vt 0.28703300 0.21892600
vt 0.27417100 0.29186600
vt 0.27417100 0.29186600
vt 0.20165700 0.25000000
vt 0.20165700 0.25000000
vt 0.26653400 0.20457300
vt 0.26653400 0.20457300
vt 0.24160500 0.20239100
vt 0.24160500 0.20239100
vt 0.29542800 0.26653400
vt 0.29542800 0.26653400
vt 0.29760800 0.24160500
vt 0.29760800 0.24160500
vt 0.27417100 0.20813400
vt 0.27417100 0.20813400
vt 0.25839500 0.29760900
vt 0.25839500 0.29760900
vt 0.29542800 0.23346600
vt 0.29542800 0.23346600
vt 0.24160500 0.29760900
vt 0.24160500 0.29760900
vt 0.28107400 0.28703300
vt 0.28107400 0.28703300
vt 0.20239200 0.25839500
vt 0.20239200 0.25839500
vt 0.21296700 0.28107400
vt 0.21296700 0.28107400
vt 0.23346600 0.29542800
vt 0.23346600 0.29542800
vt 0.29760800 0.25839500
vt 0.29760800 0.25839500
vt 0.20813300 0.22582800
vt 0.20813300 0.22582800
vt 0.26653400 0.29542700
vt 0.26653400 0.29542700
vt 0.20457200 0.23346600
vt 0.20457200 0.23346600
vt 0.29186600 0.22582800
vt 0.29186600 0.22582800
vt 0.25839500 0.20239100
vt 0.25839500 0.20239100
vt 0.23346600 0.20457200
vt 0.23346600 0.20457200
vt 0.21296700 0.21892600
vt 0.21296700 0.21892600
vt 0.21892600 0.28703300
vt 0.21892600 0.28703300
vt 0.44976800 0.25000000
vt 0.05023200 0.17729000
vt 0.38039000 0.40539200
vt 0.21308400 0.04064100
vt 0.15011600 0.42300400
vt 0.38039000 0.09460800
vt 0.44976800 0.13466400
vt 0.05023200 0.28522400
vt 0.44976800 0.32271000
vt 0.11961000 0.09460800
vt 0.25000000 0.48067300
vt 0.28691600 0.04064100
vt 0.08714700 0.38665000
vt 0.44976800 0.21477500
vt 0.05023200 0.21477500
vt 0.41285300 0.38665000
vt 0.18062100 0.05938300
vt 0.18062100 0.44061700
vt 0.34988400 0.07699600
vt 0.41285300 0.11335000
vt 0.05023200 0.32271000
vt 0.08714700 0.11335000
vt 0.44976800 0.28522500
vt 0.28691600 0.45935900
vt 0.34988400 0.42300500
vt 0.25000000 0.01932700
vt 0.11961000 0.40539200
vt 0.05023200 0.13466400
vt 0.44976800 0.17729000
vt 0.05023200 0.25000000
vt 0.44976800 0.36533600
vt 0.15011600 0.07699500
vt 0.31937900 0.44061700
vt 0.21308400 0.45935900
vt 0.31937900 0.05938300
vt 0.05023200 0.36533600
vt 0.24437700 0.25422200
vt 0.24437700 0.25422200
vt 0.24182500 0.25686000
vt 0.24182500 0.25686000
vt 0.24182500 0.25686000
vt 0.24182500 0.25686000
vt 0.25088300 0.25600300
vt 0.25088300 0.25600300
vt 0.25170300 0.25965900
vt 0.25170300 0.25965900
vt 0.25193300 0.24437900
vt 0.25193300 0.24437900
vt 0.25330600 0.24091700
vt 0.25330600 0.24091700
vt 0.25330600 0.24091700
vt 0.25330600 0.24091700
vt 0.24527600 0.24499800
vt 0.24527600 0.24499800
vt 0.24321800 0.24191700
vt 0.24321800 0.24191700
vt 0.24321800 0.24191700
vt 0.24321800 0.24191700
vt 0.24975700 0.25620700
vt 0.24975700 0.25620700
vt 0.25000000 0.25995900
vt 0.25000000 0.25995900
vt 0.25000000 0.25995900
vt 0.25000000 0.25995900
vt 0.25491700 0.24720700
vt 0.25491700 0.24720700
vt 0.25800300 0.24537900
vt 0.25800300 0.24537900
vt 0.25800300 0.24537900
vt 0.25800300 0.24537900
vt 0.24742600 0.25601400
vt 0.24742600 0.25601400
vt 0.24648900 0.25964800
vt 0.24648900 0.25964800
vt 0.25529900 0.24811000
vt 0.25529900 0.24811000
vt 0.25863000 0.24685900
vt 0.25863000 0.24685900
vt 0.24859100 0.24378600
vt 0.24859100 0.24378600
vt 0.24824400 0.24004100
vt 0.24824400 0.24004000
vt 0.24824400 0.24004100
vt 0.24824400 0.24004000
vt 0.24310600 0.25225700
vt 0.24310600 0.25225700
vt 0.23980800 0.25370900
vt 0.23980800 0.25370900
vt 0.23980800 0.25370900
vt 0.23980800 0.25370900
vt 0.24277700 0.24885300
vt 0.24277700 0.24885300
vt 0.23927400 0.24810900
vt 0.23927400 0.24810900
vt 0.24975700 0.24379300
vt 0.24975700 0.24379300
vt 0.25000000 0.24004100
vt 0.25000000 0.24004100
vt 0.24630600 0.24439400
vt 0.24630600 0.24439400
vt 0.24479300 0.24098100
vt 0.24479300 0.24098100
vt 0.25088300 0.24399700
vt 0.25088300 0.24399700
vt 0.25170300 0.24034100
vt 0.25170300 0.24034100
vt 0.25552800 0.25095300
vt 0.25552800 0.25095300
vt 0.25901000 0.25158900
vt 0.25901000 0.25158900
vt 0.25901000 0.25158900
vt 0.25901000 0.25158900
vt 0.24859100 0.25621400
vt 0.24859100 0.25621400
vt 0.24824400 0.25995900
vt 0.24824400 0.25995900
vt 0.25529900 0.25189000
vt 0.25529900 0.25189000
vt 0.25863000 0.25314100
vt 0.25863000 0.25314100
vt 0.25438300 0.24635800
vt 0.25438300 0.24635800
vt 0.25714000 0.24400900
vt 0.25714000 0.24400900
vt 0.25491700 0.25279300
vt 0.25491700 0.25279300
vt 0.25800300 0.25462100
vt 0.25800300 0.25462100
vt 0.25560500 0.25000000
vt 0.25560500 0.25000000
vt 0.25913700 0.25000000
vt 0.25913700 0.25000000
vt 0.25913700 0.25000000
vt 0.25913700 0.25000000
vt 0.24742600 0.24398600
vt 0.24742600 0.24398600
vt 0.24648900 0.24035200
vt 0.24648900 0.24035200
vt 0.24364500 0.24670500
vt 0.24364500 0.24670500
vt 0.24067200 0.24461400
vt 0.24067200 0.24461400
vt 0.24067200 0.24461400
vt 0.24067200 0.24461400
vt 0.25370100 0.25441400
vt 0.25370100 0.25441400
vt 0.25605400 0.25721500
vt 0.25605400 0.25721500
vt 0.25552800 0.24904700
vt 0.25552800 0.24904700
vt 0.25901000 0.24841100
vt 0.25901000 0.24841100
vt 0.25901000 0.24841100
vt 0.25901000 0.24841100
vt 0.25288000 0.25508200
vt 0.25288000 0.25508200
vt 0.25476700 0.25825700
vt 0.25476700 0.25825700
vt 0.25476700 0.25825700
vt 0.25476700 0.25825700
vt 0.24364500 0.25329500
vt 0.24364500 0.25329500
vt 0.24067200 0.25538600
vt 0.24067200 0.25538600
vt 0.24067200 0.25538600
vt 0.24067200 0.25538600
vt 0.25370100 0.24558600
vt 0.25370100 0.24558600
vt 0.25605400 0.24278500
vt 0.25605400 0.24278500
vt 0.24437800 0.24577800
vt 0.24437800 0.24577800
vt 0.24182500 0.24314000
vt 0.24182500 0.24314000
vt 0.25193300 0.25562100
vt 0.25193300 0.25562100
vt 0.25330600 0.25908300
vt 0.25330600 0.25908200
vt 0.25330600 0.25908200
vt 0.25330600 0.25908300
vt 0.24277700 0.25114700
vt 0.24277700 0.25114700
vt 0.23927400 0.25189100
vt 0.23927400 0.25189100
vt 0.25288000 0.24491800
vt 0.25288000 0.24491800
vt 0.25476700 0.24174300
vt 0.25476700 0.24174300
vt 0.24266600 0.25000000
vt 0.24266600 0.25000000
vt 0.23909300 0.25000000
vt 0.23909300 0.25000000
vt 0.24630600 0.25560600
vt 0.24630600 0.25560600
vt 0.24479300 0.25901900
vt 0.24479300 0.25901900
vt 0.24479300 0.25901900
vt 0.24479300 0.25901900
vt 0.25438300 0.25364200
vt 0.25438300 0.25364200
vt 0.25714000 0.25599100
vt 0.25714000 0.25599100
vt 0.24527600 0.25500200
vt 0.24527600 0.25500200
vt 0.24321800 0.25808300
vt 0.24321800 0.25808300
vt 0.24321800 0.25808300
vt 0.24321800 0.25808300
vt 0.24310600 0.24774300
vt 0.24310600 0.24774300
vt 0.23980800 0.24629100
vt 0.23980800 0.24629100
vt 0.23980800 0.24629100
vt 0.23980800 0.24629100
f 68/68/68 75/75/75 296/296/296
f 296/296/296 159/159/159 68/68/68
f 22/22/22 19/19/19 74/74/74
f 74/74/74 80/80/80 22/22/22
f 36/36/36 26/26/26 88/88/88
f 88/88/88 108/108/108 36/36/36
f 17/17/17 7/7/7 49/49/49
f 49/49/49 69/69/69 17/17/17
f 32/32/32 22/22/22 80/80/80
f 80/80/80 100/100/100 32/32/32
f 14/14/14 30/30/30 96/96/96
f 96/96/96 64/64/64 14/14/14
f 34/34/34 17/17/17 69/69/69
f 69/69/69 104/104/104 34/34/34
f 18/18/18 8/8/8 51/51/51
f 51/51/51 72/72/72 18/18/18
f 24/24/24 14/14/14 64/64/64
f 64/64/64 83/83/83 24/24/24
f 15/15/15 12/12/12 59/59/59
f 59/59/59 65/65/65 15/15/15
f 28/28/28 18/18/18 72/72/72
f 72/72/72 91/91/91 28/28/28
f 5/5/5 24/24/24 83/83/83
f 83/83/83 45/45/45 5/5/5
f 25/25/25 15/15/15 65/65/65
f 65/65/65 86/86/86 25/25/25
f 20/20/20 4/4/4 44/44/44
f 44/44/44 76/76/76 20/20/20
f 8/8/8 5/5/5 45/45/45
f 45/45/45 51/51/51 8/8/8
f 6/6/6 25/25/25 86/86/86
f 86/86/86 47/47/47 6/6/6
f 16/16/16 20/20/20 76/76/76
f 76/76/76 67/67/67 16/16/16
f 21/21/21 3/3/3 37/37/37
f 37/37/37 78/78/78 21/21/21
f 9/9/9 6/6/6 47/47/47
f 47/47/47 53/53/53 9/9/9
f 33/33/33 16/16/16 67/67/67
f 67/67/67 101/101/101 33/33/33
f 30/30/30 21/21/21 78/78/78
f 78/78/78 96/96/96 30/30/30
f 31/31/31 29/29/29 93/93/93
f 93/93/93 98/98/98 31/31/31
f 7/7/7 33/33/33 101/101/101
f 101/101/101 49/49/49 7/7/7
f 12/12/12 31/31/31 98/98/98
f 98/98/98 59/59/59 12/12/12
f 13/13/13 32/32/32 100/100/100
f 100/100/100 62/62/62 13/13/13
f 10/10/10 36/36/36 108/108/108
f 108/108/108 56/56/56 10/10/10
f 4/4/4 13/13/13 62/62/62
f 62/62/62 44/44/44 4/4/4
f 27/27/27 10/10/10 56/56/56
f 56/56/56 90/90/90 27/27/27
f 1/1/1 34/34/34 104/104/104
f 104/104/104 39/39/39 1/1/1
f 23/23/23 27/27/27 90/90/90
f 90/90/90 81/81/81 23/23/23
f 11/11/11 1/1/1 39/39/39
f 39/39/39 57/57/57 11/11/11
f 2/2/2 28/28/28 91/91/91
f 91/91/91 41/41/41 2/2/2
f 3/3/3 23/23/23 81/81/81
f 81/81/81 37/37/37 3/3/3
f 35/35/35 11/11/11 57/57/57
f 57/57/57 105/105/105 35/35/35
f 19/19/19 2/2/2 41/41/41
f 41/41/41 74/74/74 19/19/19
f 26/26/26 9/9/9 53/53/53
f 53/53/53 88/88/88 26/26/26
f 29/29/29 35/35/35 105/105/105
f 105/105/105 93/93/93 29/29/29
f 95/95/95 77/77/77 154/154/154
f 154/154/154 288/288/288 95/95/95
f 73/73/73 42/42/42 239/239/239
f 239/239/239 262/262/262 73/73/73
f 63/63/63 95/95/95 287/287/287
f 287/287/287 267/267/267 63/63/63
f 46/46/46 84/84/84 256/256/256
f 256/256/256 310/310/310 46/46/46
f 75/75/75 43/43/43 277/277/277
f 277/277/277 296/296/296 75/75/75
f 77/77/77 38/38/38 169/169/169
f 169/169/169 154/154/154 77/77/77
f 151/151/151 168/168/168 222/222/222
f 151/151/151 222/222/222 180/180/180
f 151/151/151 180/180/180 301/301/301
f 151/151/151 301/301/301 311/311/311
f 151/151/151 311/311/311 146/146/146
f 151/151/151 146/146/146 270/270/270
f 151/151/151 270/270/270 193/193/193
f 151/151/151 193/193/193 290/290/290
f 151/151/151 290/290/290 297/297/297
f 151/151/151 297/297/297 199/199/199
f 151/151/151 199/199/199 317/317/317
f 151/151/151 317/317/317 248/248/248
f 151/151/151 248/248/248 280/280/280
f 151/151/151 280/280/280 162/162/162
f 151/151/151 162/162/162 207/207/207
f 151/151/151 207/207/207 243/243/243
f 151/151/151 243/243/243 188/188/188
f 151/151/151 188/188/188 203/203/203
f 151/151/151 203/203/203 211/211/211
f 151/151/151 211/211/211 155/155/155
f 151/151/151 155/155/155 294/294/294
f 151/151/151 294/294/294 275/275/275
f 151/151/151 275/275/275 229/229/229
f 151/151/151 229/229/229 174/174/174
f 151/151/151 174/174/174 184/184/184
f 151/151/151 184/184/184 257/257/257
f 151/151/151 257/257/257 237/237/237
f 151/151/151 237/237/237 216/216/216
f 151/151/151 216/216/216 226/226/226
f 151/151/151 226/226/226 233/233/233
f 151/151/151 233/233/233 307/307/307
f 151/151/151 307/307/307 254/254/254
f 151/151/151 254/254/254 264/264/264
f 151/151/151 264/264/264 284/284/284
f 99/99/99 79/79/79 185/185/185
f 185/185/185 177/177/177 99/99/99
f 79/79/79 73/73/73 259/259/259
f 259/259/259 185/185/185 79/79/79
f 82/82/82 89/89/89 181/181/181
f 181/181/181 223/223/223 82/82/82
f 50/50/50 102/102/102 213/213/213
f 213/213/213 206/206/206 50/50/50
f 84/84/84 63/63/63 268/268/268
f 268/268/268 256/256/256 84/84/84
f 66/66/66 60/60/60 201/201/201
f 201/201/201 300/300/300 66/66/66
f 54/54/54 48/48/48 197/197/197
f 197/197/197 271/271/271 54/54/54
f 55/55/55 107/107/107 313/313/313
f 313/313/313 305/305/305 55/55/55
f 60/60/60 97/97/97 322/322/322
f 322/322/322 201/201/201 60/60/60
f 48/48/48 85/85/85 291/291/291
f 291/291/291 196/196/196 48/48/48
f 103/103/103 70/70/70 190/190/190
f 190/190/190 246/246/246 103/103/103
f 97/97/97 94/94/94 250/250/250
f 250/250/250 321/321/321 97/97/97
f 38/38/38 82/82/82 223/223/223
f 223/223/223 172/172/172 38/38/38
f 106/106/106 58/58/58 164/164/164
f 164/164/164 282/282/282 106/106/106
f 42/42/42 92/92/92 219/219/219
f 219/219/219 240/240/240 42/42/42
f 52/52/52 46/46/46 310/310/310
f 310/310/310 236/236/236 52/52/52
f 89/89/89 55/55/55 306/306/306
f 306/306/306 181/181/181 89/89/89
f 40/40/40 103/103/103 246/246/246
f 246/246/246 209/209/209 40/40/40
f 58/58/58 40/40/40 209/209/209
f 209/209/209 163/163/163 58/58/58
f 102/102/102 68/68/68 160/160/160
f 160/160/160 213/213/213 102/102/102
f 85/85/85 66/66/66 300/300/300
f 300/300/300 291/291/291 85/85/85
f 71/71/71 52/52/52 236/236/236
f 236/236/236 228/228/228 71/71/71
f 43/43/43 61/61/61 232/232/232
f 232/232/232 277/277/277 43/43/43
f 61/61/61 99/99/99 176/176/176
f 176/176/176 232/232/232 61/61/61
f 70/70/70 50/50/50 206/206/206
f 206/206/206 189/189/189 70/70/70
f 94/94/94 106/106/106 282/282/282
f 282/282/282 249/249/249 94/94/94
f 92/92/92 71/71/71 228/228/228
f 228/228/228 220/220/220 92/92/92
f 132/132/132 141/141/141 133/133/133
f 132/132/132 133/133/133 111/111/111
f 132/132/132 111/111/111 124/124/124
f 132/132/132 124/124/124 139/139/139
f 132/132/132 139/139/139 117/117/117
f 132/132/132 117/117/117 131/131/131
f 132/132/132 131/131/131 109/109/109
f 132/132/132 109/109/109 122/122/122
f 132/132/132 122/122/122 137/137/137
f 132/132/132 137/137/137 115/115/115
f 132/132/132 115/115/115 128/128/128
f 132/132/132 128/128/128 114/114/114
f 132/132/132 114/114/114 127/127/127
f 132/132/132 127/127/127 143/143/143
f 132/132/132 143/143/143 120/120/120
f 132/132/132 120/120/120 134/134/134
f 132/132/132 134/134/134 112/112/112
f 132/132/132 112/112/112 125/125/125
f 132/132/132 125/125/125 140/140/140
f 132/132/132 140/140/140 118/118/118
f 132/132/132 118/118/118 130/130/130
f 132/132/132 130/130/130 136/136/136
f 132/132/132 136/136/136 110/110/110
f 132/132/132 110/110/110 123/123/123
f 132/132/132 123/123/123 138/138/138
f 132/132/132 138/138/138 116/116/116
f 132/132/132 116/116/116 129/129/129
f 132/132/132 129/129/129 144/144/144
f 132/132/132 144/144/144 121/121/121
f 132/132/132 121/121/121 135/135/135
f 132/132/132 135/135/135 113/113/113
f 132/132/132 113/113/113 126/126/126
f 132/132/132 126/126/126 142/142/142
f 132/132/132 142/142/142 119/119/119
f 107/107/107 87/87/87 148/148/148
f 148/148/148 314/314/314 107/107/107
f 283/283/283 263/263/263 266/266/266
f 266/266/266 286/286/286 283/283/283
f 312/312/312 302/302/302 303/303/303
f 303/303/303 315/315/315 312/312/312
f 299/299/299 202/202/202 200/200/200
f 200/200/200 298/298/298 299/299/299
f 210/210/210 245/245/245 244/244/244
f 244/244/244 208/208/208 210/210/210
f 295/295/295 278/278/278 276/276/276
f 276/276/276 293/293/293 295/295/295
f 215/215/215 238/238/238 241/241/241
f 241/241/241 218/218/218 215/215/215
f 263/263/263 253/253/253 255/255/255
f 255/255/255 265/265/265 263/263/263
f 302/302/302 179/179/179 182/182/182
f 182/182/182 304/304/304 302/302/302
f 298/298/298 289/289/289 292/292/292
f 292/292/292 299/299/299 298/298/298
f 166/166/166 210/210/210 208/208/208
f 208/208/208 161/161/161 166/166/166
f 157/157/157 295/295/295 293/293/293
f 293/293/293 156/156/156 157/157/157
f 261/261/261 242/242/242 238/238/238
f 238/238/238 258/258/258 261/261/261
f 253/253/253 308/308/308 309/309/309
f 309/309/309 255/255/255 253/253/253
f 179/179/179 221/221/221 224/224/224
f 224/224/224 182/182/182 179/179/179
f 289/289/289 194/194/194 195/195/195
f 195/195/195 292/292/292 289/289/289
f 281/281/281 165/165/165 161/161/161
f 161/161/161 279/279/279 281/281/281
f 214/214/214 158/158/158 156/156/156
f 156/156/156 212/212/212 214/214/214
f 186/186/186 260/260/260 258/258/258
f 258/258/258 183/183/183 186/186/186
f 308/308/308 234/234/234 235/235/235
f 235/235/235 309/309/309 308/308/308
f 221/221/221 167/167/167 171/171/171
f 171/171/171 224/224/224 221/221/221
f 194/194/194 269/269/269 272/272/272
f 272/272/272 198/198/198 194/194/194
f 252/252/252 281/281/281 279/279/279
f 279/279/279 247/247/247 252/252/252
f 205/205/205 214/214/214 212/212/212
f 212/212/212 204/204/204 205/205/205
f 175/175/175 186/186/186 183/183/183
f 183/183/183 173/173/173 175/175/175
f 167/167/167 152/152/152 153/153/153
f 153/153/153 170/170/170 167/167/167
f 269/269/269 145/145/145 149/149/149
f 149/149/149 273/273/273 269/269/269
f 319/319/319 251/251/251 247/247/247
f 247/247/247 318/318/318 319/319/319
f 191/191/191 205/205/205 204/204/204
f 204/204/204 187/187/187 191/191/191
f 231/231/231 178/178/178 173/173/173
f 173/173/173 230/230/230 231/231/231
f 152/152/152 283/283/283 285/285/285
f 285/285/285 153/153/153 152/152/152
f 234/234/234 225/225/225 227/227/227
f 227/227/227 235/235/235 234/234/234
f 145/145/145 312/312/312 316/316/316
f 316/316/316 150/150/150 145/145/145
f 202/202/202 320/320/320 318/318/318
f 318/318/318 200/200/200 202/202/202
f 245/245/245 192/192/192 187/187/187
f 187/187/187 244/244/244 245/245/245
f 278/278/278 231/231/231 230/230/230
f 230/230/230 276/276/276 278/278/278
f 225/225/225 215/215/215 217/217/217
f 217/217/217 227/227/227 225/225/225
f 87/87/87 54/54/54 274/274/274
f 274/274/274 147/147/147 87/87/87

