mtllib material.mtl
usemtl PLASTIC_BLACK
v -0.00890300 -0.05264600 0.00042800
v -0.00890300 -0.05264600 -0.00299700
v 0.00890900 -0.05264600 0.00042800
v 0.00890900 -0.05264600 -0.00299700
v 0.00739700 -0.05265800 -0.00385300
v -0.00739100 -0.05265800 -0.00385300
v -0.00739100 -0.05265800 0.00128500
v 0.00739700 -0.05265800 0.00128500
v -0.01002900 -0.05227700 -0.00351600
v -0.01002900 -0.05227700 -0.00351600
v -0.01002900 -0.05227700 -0.00351600
v -0.01002900 -0.05227700 0.00094700
v -0.01002900 -0.05227700 0.00094700
v -0.01002900 -0.05227700 0.00094700
v -0.00809500 -0.05235500 -0.00474000
v -0.00809500 -0.05235500 -0.00474000
v 0.01003500 -0.05227700 0.00094700
v 0.01003500 -0.05227700 -0.00351600
v 0.00810200 -0.05235500 0.00217200
v 0.00810200 -0.05235500 0.00217200
v 0.00810200 -0.05235500 -0.00474000
v 0.00810200 -0.05235500 -0.00474000
v -0.00809500 -0.05235500 0.00217200
v -0.00809500 -0.05235500 0.00217200
v 0.00471200 -0.05255700 -0.00471200
v 0.00471200 -0.05255700 -0.00471200
v -0.00000100 -0.05255700 -0.00471200
v -0.00471000 -0.05255700 -0.00471200
v -0.00471000 -0.05255700 -0.00471200
v -0.00471000 -0.05255700 0.00214400
v -0.00000100 -0.05255700 0.00214400
v -0.00000100 -0.05255700 0.00214400
v 0.00471200 -0.05255700 0.00214400
v 0.00452100 -0.05267700 -0.00385300
v 0.00452100 -0.05267700 -0.00385300
v -0.00000100 -0.05268900 -0.00385300
v -0.00451900 -0.05267700 -0.00385300
v -0.00451900 -0.05267700 -0.00385300
v -0.00451900 -0.05267700 0.00128500
v -0.00451900 -0.05267700 0.00128500
v -0.00000100 -0.05268900 0.00128500
v 0.00452100 -0.05267700 0.00128500
v -0.00468600 -0.05227300 -0.00521400
v -0.00468600 -0.05227300 -0.00521400
v -0.00468600 -0.05227300 -0.00521400
v -0.00713700 -0.05213400 -0.00517400
v -0.00713700 -0.05213400 -0.00517400
v 0.00468700 -0.05227300 0.00264600
v 0.00468700 -0.05227300 0.00264600
v 0.00714300 -0.05213400 0.00260600
v 0.00714300 -0.05213400 0.00260600
v -0.00713700 -0.05213400 0.00260600
v -0.00713700 -0.05213400 0.00260600
v -0.00713700 -0.05213400 0.00260600
v 0.00714300 -0.05213400 -0.00517400
v 0.00714300 -0.05213400 -0.00517400
v 0.00468700 -0.05227300 -0.00521400
v 0.00468700 -0.05227300 -0.00521400
v 0.00468700 -0.05227300 -0.00521400
v -0.00000200 -0.05227200 -0.00521400
v -0.00000200 -0.05227200 -0.00521400
v -0.00468600 -0.05227300 0.00264600
v -0.00468600 -0.05227300 0.00264600
v -0.00468600 -0.05227300 0.00264600
v -0.00468600 -0.05227300 0.00264600
v -0.00000200 -0.05227200 0.00264600
v -0.00000200 -0.05227200 0.00264600
v 0.00857700 0.00842500 -0.00480600
v 0.00857700 0.00842500 -0.00480600
v 0.00873500 0.00830400 -0.00487100
v 0.00873500 0.00830400 -0.00487100
v 0.00741500 0.00830400 -0.00519100
v 0.00741500 0.00830400 -0.00519100
v 0.00728000 0.00842500 -0.00512000
v -0.00857100 0.00842500 0.00223700
v -0.00857100 0.00842500 0.00223700
v -0.00872900 0.00830400 0.00230300
v -0.00872900 0.00830400 0.00230300
v -0.00740900 0.00830400 0.00262200
v -0.00740900 0.00830400 0.00262200
v -0.00727400 0.00842500 0.00255200
v -0.00727400 0.00842500 0.00255200
v -0.01020100 0.00830400 0.00105400
v -0.01020100 0.00830400 0.00105400
v -0.01001600 0.00842500 0.00101100
v -0.01001600 0.00842500 0.00101100
v -0.01001600 0.00842500 -0.00358000
v -0.01001600 0.00842500 -0.00358000
v -0.01020100 0.00830400 -0.00362200
v -0.01020100 0.00830400 -0.00362200
v 0.01002200 0.00842500 -0.00358000
v 0.01002200 0.00842500 -0.00358000
v 0.01020700 0.00830400 -0.00362200
v 0.01002200 0.00842500 0.00101100
v 0.01020700 0.00830400 0.00105400
v 0.01020700 0.00830400 0.00105400
v 0.00857700 0.00842500 0.00223700
v 0.00873500 0.00830400 0.00230300
v 0.00873500 0.00830400 0.00230300
v -0.00857100 0.00842500 -0.00480600
v -0.00872900 0.00830400 -0.00487100
v -0.00872900 0.00830400 -0.00487100
v -0.00464500 0.00830400 0.00270200
v -0.00456000 0.00842500 0.00263000
v 0.00464600 0.00830400 -0.00527100
v 0.00464600 0.00830400 -0.00527100
v 0.00456200 0.00842500 -0.00519800
v 0.00456200 0.00842500 -0.00519800
v -0.00740900 0.00830400 -0.00519100
v -0.00740900 0.00830400 -0.00519100
v -0.00727400 0.00842500 -0.00512000
v -0.00456000 0.00842500 -0.00519800
v -0.00464500 0.00830400 -0.00527100
v -0.00000100 0.00842500 -0.00519800
v -0.00000100 0.00830400 -0.00527100
v 0.00741500 0.00830400 0.00262200
v 0.00741500 0.00830400 0.00262200
v 0.00728000 0.00842500 0.00255200
v 0.00456200 0.00842500 0.00263000
v 0.00464600 0.00830400 0.00270200
v 0.00464600 0.00830400 0.00270200
v -0.00000100 0.00842500 0.00263000
v -0.00000100 0.00830400 0.00270200
v -0.00326100 -0.05255700 -0.00471200
v -0.00326100 -0.05255700 0.00214400
v -0.00326100 -0.05255700 0.00214400
v -0.00315400 -0.05268400 -0.00385300
v -0.00315400 -0.05268400 0.00128500
v -0.00315400 -0.05268400 0.00128500
v -0.00327000 -0.05227300 -0.00521400
v -0.00327000 -0.05227300 -0.00521400
v -0.00327000 -0.05227300 0.00264600
v -0.00327000 -0.05227300 0.00264600
v -0.00319200 0.00842500 0.00263000
v -0.00325100 0.00830400 0.00270200
v -0.00319200 0.00842500 -0.00519800
v -0.00325100 0.00830400 -0.00527100
v 0.00324800 -0.05255700 -0.00471200
v 0.00324800 -0.05255700 0.00214400
v 0.00324800 -0.05255700 0.00214400
v 0.00314200 -0.05268400 -0.00385300
v 0.00314200 -0.05268400 0.00128500
v 0.00325800 -0.05227300 -0.00521400
v 0.00325800 -0.05227300 -0.00521400
v 0.00325800 -0.05227300 0.00264600
v 0.00325800 -0.05227300 0.00264600
v 0.00318000 0.00842500 0.00263000
v 0.00323800 0.00830400 0.00270200
v 0.00318000 0.00842500 -0.00519800
v 0.00323800 0.00830400 -0.00527100
v -0.01027200 -0.05227800 -0.00128400
v -0.01027200 -0.05227800 -0.00128400
v -0.01023300 -0.05048800 -0.00362100
v -0.01023300 -0.05048800 -0.00362100
v -0.00931400 -0.05228500 -0.00450300
v -0.00931400 -0.05228500 -0.00450300
v 0.01023900 -0.05048800 -0.00362100
v 0.01027800 -0.05227800 -0.00128400
v 0.01027800 -0.05227800 -0.00128400
v 0.01023900 -0.05048800 0.00105300
v 0.00932100 -0.05228500 0.00193500
v 0.00932100 -0.05228500 0.00193500
v 0.00932100 -0.05228500 -0.00450300
v 0.00932100 -0.05228500 -0.00450300
v -0.00621900 -0.05253600 -0.00471500
v -0.00931400 -0.05228500 0.00193500
v -0.00931400 -0.05228500 0.00193500
v 0.00622400 -0.05253600 0.00214700
v 0.00871600 -0.05049200 0.00230800
v -0.00871000 -0.05049200 0.00230800
v -0.00871000 -0.05049200 0.00230800
v -0.00871000 -0.05049200 -0.00487700
v 0.00871600 -0.05049200 -0.00487700
v 0.00871600 -0.05049200 -0.00487700
v -0.00906300 -0.05264400 -0.00128400
v -0.00839400 -0.05265000 -0.00374600
v 0.00906900 -0.05264400 -0.00128400
v 0.00840000 -0.05265000 0.00117800
v 0.00840000 -0.05265000 -0.00374600
v -0.00588200 -0.05266800 -0.00385300
v -0.00839400 -0.05265000 0.00117800
v 0.00588800 -0.05266800 0.00128500
v -0.00956200 -0.05253300 -0.00327500
v -0.00956200 -0.05253300 0.00070600
v -0.00778600 -0.05254900 -0.00428100
v 0.00956900 -0.05253300 0.00070600
v 0.00956900 -0.05253300 -0.00327500
v 0.00779200 -0.05254900 0.00171300
v 0.00779200 -0.05254800 -0.00428100
v -0.00778600 -0.05254800 0.00171300
v 0.00622400 -0.05253600 -0.00471500
v 0.00185700 -0.05255700 -0.00471200
v -0.00395900 -0.05255700 -0.00471200
v -0.00621900 -0.05253600 0.00214700
v -0.00186500 -0.05255700 0.00214400
v -0.00186500 -0.05255700 0.00214400
v 0.00395200 -0.05255700 0.00214400
v 0.00395200 -0.05255700 0.00214400
v 0.00588800 -0.05266800 -0.00385300
v 0.00179700 -0.05268700 -0.00385300
v -0.00382500 -0.05268100 -0.00385300
v -0.00588200 -0.05266800 0.00128500
v -0.00180400 -0.05268700 0.00128500
v 0.00381800 -0.05268200 0.00128500
v -0.00466900 -0.05257200 0.00171200
v -0.00466900 -0.05257200 0.00171200
v -0.00000100 -0.05257300 0.00171200
v 0.00467000 -0.05257200 0.00171200
v 0.00467000 -0.05257200 -0.00428000
v -0.00000100 -0.05257300 -0.00428000
v -0.00466900 -0.05257200 -0.00428000
v -0.00466900 -0.05257200 -0.00428000
v 0.00756500 -0.05226000 -0.00503200
v 0.00756500 -0.05226000 -0.00503200
v -0.00603300 -0.05225000 -0.00520800
v -0.00603300 -0.05225000 -0.00520800
v 0.00603900 -0.05225000 0.00263900
v 0.00603900 -0.05225000 0.00263900
v 0.00740600 -0.05046300 0.00263900
v -0.00739900 -0.05046300 0.00263900
v -0.00739900 -0.05046300 0.00263900
v -0.00739900 -0.05046300 -0.00520800
v 0.00740600 -0.05046300 -0.00520800
v 0.00740600 -0.05046300 -0.00520800
v 0.00603900 -0.05225000 -0.00520800
v 0.00603900 -0.05225000 -0.00520800
v 0.00186300 -0.05227200 -0.00521400
v 0.00186300 -0.05227200 -0.00521400
v -0.00396600 -0.05227300 -0.00521400
v -0.00396600 -0.05227300 -0.00521400
v -0.00603300 -0.05225000 0.00263900
v -0.00603300 -0.05225000 0.00263900
v -0.00187100 -0.05227200 0.00264600
v -0.00187100 -0.05227200 0.00264600
v 0.00395800 -0.05227300 0.00264600
v 0.00395800 -0.05227300 0.00264600
v -0.00467400 -0.05047700 -0.00528500
v -0.00467400 -0.05047700 -0.00528500
v -0.00000200 -0.05047300 -0.00528500
v 0.00467600 -0.05047700 -0.00528500
v 0.00467600 -0.05047700 -0.00528500
v 0.00467600 -0.05047700 0.00271700
v 0.00467600 -0.05047700 0.00271700
v -0.00000200 -0.05047300 0.00271700
v -0.00467400 -0.05047700 0.00271700
v -0.00467400 -0.05047700 0.00271700
v -0.00755900 -0.05226000 -0.00503200
v -0.00755900 -0.05226000 -0.00503200
v -0.00470800 -0.05252100 -0.00503100
v -0.00470800 -0.05252100 -0.00503100
v -0.00470800 -0.05252100 0.00246300
v -0.00470800 -0.05252100 0.00246300
v -0.00755900 -0.05226000 0.00246400
v -0.00755900 -0.05226000 0.00246400
v -0.00000200 -0.05252100 0.00246300
v 0.00471000 -0.05252100 -0.00503100
v 0.00471000 -0.05252100 -0.00503100
v 0.00471000 -0.05252100 0.00246300
v 0.00756500 -0.05226000 0.00246400
v 0.00756500 -0.05226000 0.00246400
v -0.00000200 -0.05252100 -0.00503100
v -0.01023300 -0.05048800 0.00105300
v -0.01023300 -0.05048800 0.00105300
v 0.00863600 0.00836500 -0.00483000
v 0.00863600 0.00836500 -0.00483000
v 0.00733100 0.00836500 -0.00514700
v 0.00733100 0.00836500 -0.00514700
v -0.00863000 0.00836400 0.00226200
v -0.00863000 0.00836400 0.00226200
v -0.00732500 0.00836400 0.00257800
v -0.00732500 0.00836400 0.00257800
v -0.01008500 0.00836400 0.00102700
v -0.01008500 0.00836400 0.00102700
v -0.01008500 0.00836500 -0.00359500
v -0.01008500 0.00836500 -0.00359500
v 0.01009100 0.00836400 -0.00359500
v 0.01009100 0.00836400 -0.00359500
v 0.01009100 0.00836500 0.00102700
v 0.00863600 0.00836500 0.00226200
v -0.00863000 0.00836500 -0.00483000
v -0.00459200 0.00836400 0.00265700
v 0.00459400 0.00836400 -0.00522600
v 0.00459400 0.00836400 -0.00522600
v -0.00732500 0.00836500 -0.00514700
v -0.00459200 0.00836500 -0.00522600
v -0.00459200 0.00836500 -0.00522600
v -0.00000100 0.00836400 -0.00522600
v 0.00733100 0.00836400 0.00257800
v 0.00459400 0.00836400 0.00265700
v -0.00000100 0.00836400 0.00265700
v -0.00804000 0.00842500 -0.00496300
v -0.00818800 0.00830400 -0.00503100
v -0.00818800 0.00830400 -0.00503100
v 0.00804600 0.00842500 0.00239500
v 0.00819400 0.00830400 0.00246300
v 0.00819400 0.00830400 0.00246300
v -0.00182500 0.00842500 0.00263000
v -0.00185900 0.00830400 0.00270200
v 0.00386200 0.00842500 0.00263000
v 0.00393300 0.00830400 0.00270200
v 0.00590200 0.00842500 0.00262000
v 0.00601100 0.00830400 0.00269200
v 0.00601100 0.00830400 0.00269200
v 0.00181800 0.00842500 -0.00519800
v 0.00185200 0.00830400 -0.00527100
v -0.00386900 0.00842500 -0.00519800
v -0.00394000 0.00830400 -0.00527100
v -0.00589700 0.00842500 -0.00518900
v -0.00600600 0.00830400 -0.00526100
v 0.00590200 0.00842500 -0.00518900
v 0.00601100 0.00830400 -0.00526100
v -0.00589700 0.00842500 0.00262000
v -0.00600600 0.00830400 0.00269200
v -0.00932100 0.00842500 -0.00459400
v -0.00949400 0.00830400 -0.00465500
v 0.00932700 0.00842500 0.00202500
v 0.00950000 0.00830400 0.00208600
v 0.00950000 0.00830400 0.00208600
v -0.00932100 0.00842500 0.00202500
v -0.00949400 0.00830400 0.00208600
v 0.01027900 0.00842500 -0.00128400
v 0.01046800 0.00830400 -0.00128400
v 0.00932700 0.00842500 -0.00459400
v 0.00950000 0.00830400 -0.00465500
v -0.01027200 0.00842500 -0.00128400
v -0.01046200 0.00830400 -0.00128400
v -0.00818800 0.00830400 0.00246300
v -0.00804000 0.00842500 0.00239500
v 0.00819400 0.00830400 -0.00503100
v 0.00819400 0.00830400 -0.00503100
v 0.00804600 0.00842500 -0.00496300
v -0.00186500 -0.05255700 -0.00471200
v -0.00395900 -0.05255700 0.00214400
v -0.00180400 -0.05268700 -0.00385300
v -0.00382500 -0.05268100 0.00128500
v -0.00187100 -0.05227200 -0.00521400
v -0.00187100 -0.05227200 -0.00521400
v -0.00396600 -0.05227300 0.00264600
v -0.00396600 -0.05227300 0.00264600
v -0.00386900 0.00842500 0.00263000
v -0.00394000 0.00830400 0.00270200
v -0.00182500 0.00842500 -0.00519800
v -0.00185900 0.00830400 -0.00527100
v -0.00321400 0.00836400 -0.00522600
v -0.00321400 0.00836400 0.00265700
v -0.00327000 -0.05047500 0.00271700
v -0.00327000 -0.05047500 -0.00528500
v -0.00326900 -0.05252100 -0.00503100
v -0.00326900 -0.05252100 0.00246300
v -0.00324200 -0.05257300 -0.00428000
v -0.00324200 -0.05257300 0.00171200
v -0.00324200 -0.05257300 0.00171200
v 0.00395200 -0.05255700 -0.00471200
v 0.00185700 -0.05255700 0.00214400
v 0.00185700 -0.05255700 0.00214400
v 0.00381800 -0.05268200 -0.00385300
v 0.00179700 -0.05268700 0.00128500
v 0.00395800 -0.05227300 -0.00521400
v 0.00395800 -0.05227300 -0.00521400
v 0.00186300 -0.05227200 0.00264600
v 0.00186300 -0.05227200 0.00264600
v 0.00181800 0.00842500 0.00263000
v 0.00185200 0.00830400 0.00270200
v 0.00386200 0.00842500 -0.00519800
v 0.00393300 0.00830400 -0.00527100
v 0.00320200 0.00836400 -0.00522600
v 0.00320200 0.00836400 0.00265700
v 0.00325800 -0.05047500 0.00271700
v 0.00325800 -0.05047500 -0.00528500
v 0.00325700 -0.05252100 -0.00503100
v 0.00325700 -0.05252100 0.00246300
v 0.00322900 -0.05257300 -0.00428000
v 0.00322900 -0.05257300 0.00171200
v -0.00614200 -0.05249000 0.00246200
v -0.00976600 -0.05253300 -0.00128400
v -0.00893500 -0.05253500 -0.00414800
v 0.00977200 -0.05253300 -0.00128400
v 0.00894100 -0.05253500 0.00158000
v 0.00894100 -0.05253500 -0.00414800
v -0.00612800 -0.05256700 -0.00428100
v -0.00893500 -0.05253500 0.00158000
v 0.00613400 -0.05256700 0.00171300
v -0.00612800 -0.05256700 0.00171300
v -0.00185400 -0.05257300 0.00171200
v 0.00392700 -0.05257200 0.00171200
v 0.00613400 -0.05256700 -0.00428100
v 0.00184700 -0.05257300 -0.00428000
v -0.00393400 -0.05257200 -0.00428000
v -0.00614200 -0.05249000 -0.00503000
v 0.00816200 -0.05048000 -0.00504900
v -0.00187000 -0.05252100 0.00246300
v 0.00614800 -0.05249000 -0.00503000
v 0.00396000 -0.05252100 0.00246300
v 0.00186200 -0.05252100 -0.00503100
v 0.00614800 -0.05249000 0.00246200
v -0.00815500 -0.05048000 0.00248100
v -0.00396700 -0.05252100 -0.00503100
v -0.01049400 -0.05048900 -0.00128400
v 0.00952400 -0.05048800 -0.00465400
v 0.01050000 -0.05048900 -0.00128400
v -0.00951800 -0.05048800 0.00208600
v 0.00952400 -0.05048800 0.00208600
v -0.00951800 -0.05048800 -0.00465400
v -0.00603500 -0.05047500 0.00270700
v 0.00604100 -0.05047500 -0.00527500
v -0.00603500 -0.05047400 -0.00527500
v -0.00187100 -0.05047400 -0.00528500
v 0.00395700 -0.05047500 -0.00528500
v 0.00604100 -0.05047400 0.00270700
v 0.00186300 -0.05047400 0.00271700
v -0.00396400 -0.05047500 0.00271700
v 0.00816200 -0.05048000 0.00248100
v -0.00815500 -0.05048000 -0.00504900
v -0.00809500 0.00836500 -0.00498800
v 0.00810200 0.00836500 0.00242000
v -0.00389500 0.00836500 0.00265700
v 0.00183100 0.00836500 0.00265700
v 0.00594300 0.00836500 0.00264700
v 0.00388900 0.00836500 -0.00522600
v -0.00183800 0.00836500 -0.00522600
v -0.00593700 0.00836500 -0.00521600
v 0.00594300 0.00836500 -0.00521600
v -0.00593700 0.00836500 0.00264700
v -0.00938600 0.00836500 -0.00461700
v 0.00939200 0.00836500 0.00204800
v -0.00938600 0.00836500 0.00204800
v 0.01035000 0.00836500 -0.00128400
v 0.00939200 0.00836500 -0.00461700
v -0.01034400 0.00836500 -0.00128400
v -0.00809500 0.00836500 0.00242000
v 0.00810200 0.00836500 -0.00498800
v -0.00389500 0.00836500 -0.00522600
v -0.00183800 0.00836500 0.00265700
v -0.00187100 -0.05047400 0.00271700
v -0.00396400 -0.05047500 -0.00528500
v -0.00187000 -0.05252100 -0.00503100
v -0.00396700 -0.05252100 0.00246300
v -0.00185400 -0.05257300 -0.00428000
v -0.00393400 -0.05257200 0.00171200
v 0.00183100 0.00836500 -0.00522600
v 0.00388900 0.00836500 0.00265700
v 0.00395700 -0.05047500 0.00271700
v 0.00186300 -0.05047400 -0.00528500
v 0.00396000 -0.05252100 -0.00503100
v 0.00186200 -0.05252100 0.00246300
v 0.00392700 -0.05257200 -0.00428000
v 0.00184700 -0.05257300 0.00171200
v -0.00877500 0.00780300 0.00232200
v -0.01025600 0.00780300 -0.00363400
v -0.00877500 0.00780300 -0.00489000
v 0.01026200 0.00780300 -0.00363400
v 0.01026200 0.00780300 0.00106600
v 0.00878200 0.00780300 -0.00489000
v 0.00878200 0.00780300 0.00232200
v 0.00467200 0.00780300 0.00272400
v -0.00467000 0.00780300 -0.00529200
v -0.00000100 0.00780300 -0.00529200
v -0.00000100 0.00780300 0.00272400
v 0.00745400 0.00780300 -0.00521200
v -0.00744800 0.00780300 0.00264400
v -0.01025600 0.00780300 0.00106600
v -0.01025600 0.00780300 0.00106600
v -0.00467000 0.00780300 0.00272400
v 0.00467200 0.00780300 -0.00529200
v -0.00744800 0.00780300 -0.00521200
v 0.00745400 0.00780300 0.00264400
v -0.00326800 0.00780300 -0.00529200
v -0.00326800 0.00780300 0.00272400
v 0.00325600 0.00780300 -0.00529200
v 0.00325600 0.00780300 0.00272400
v 0.01052500 0.00780300 -0.00128400
v -0.00954500 0.00780300 0.00210400
v 0.00955100 0.00780300 0.00210400
v -0.00954500 0.00780300 -0.00467300
v -0.00603800 0.00780300 0.00271400
v 0.00604400 0.00780300 -0.00528200
v -0.00603800 0.00780300 -0.00528200
v -0.00186900 0.00780300 -0.00529200
v 0.00395500 0.00780300 -0.00529200
v 0.00186200 0.00780300 0.00272400
v -0.00396200 0.00780300 0.00272400
v 0.00823700 0.00780300 0.00248300
v -0.01051900 0.00780300 -0.00128400
v 0.00955100 0.00780300 -0.00467300
v 0.00604400 0.00780300 0.00271400
v -0.00823100 0.00780300 -0.00505100
v -0.00823100 0.00780300 0.00248300
v 0.00823700 0.00780300 -0.00505100
v -0.00396200 0.00780300 -0.00529200
v -0.00186900 0.00780300 0.00272400
v 0.00186200 0.00780300 -0.00529200
v 0.00395500 0.00780300 0.00272400
vn -0.61960000 -0.74770000 0.23900000
vn -0.61960000 -0.74770000 -0.23900000
vn 0.61970000 -0.74750000 0.23910000
vn 0.61970000 -0.74750000 -0.23910000
vn 0.03700000 -0.74730000 -0.66350000
vn -0.03700000 -0.74730000 -0.66350000
vn -0.03700000 -0.74730000 0.66350000
vn 0.03700000 -0.74730000 0.66350000
vn -0.78000000 -0.55060000 -0.29750000
vn -0.78000000 -0.55060000 -0.29750000
vn -0.78000000 -0.55060000 -0.29750000
vn -0.78000000 -0.55060000 0.29750000
vn -0.78000000 -0.55060000 0.29750000
vn -0.78000000 -0.55060000 0.29750000
vn -0.21780000 -0.66870000 -0.71090000
vn -0.21780000 -0.66870000 -0.71090000
vn 0.78000000 -0.55060000 0.29750000
vn 0.78000000 -0.55060000 -0.29750000
vn 0.21780000 -0.66870000 0.71090000
vn 0.21780000 -0.66870000 0.71090000
vn 0.21780000 -0.66870000 -0.71090000
vn 0.21780000 -0.66870000 -0.71090000
vn -0.21780000 -0.66870000 0.71090000
vn -0.21780000 -0.66870000 0.71090000
vn 0.00680000 -0.99660000 -0.08220000
vn 0.00680000 -0.99660000 -0.08220000
vn -0.00000000 -0.99720000 -0.07450000
vn -0.00680000 -0.99660000 -0.08220000
vn -0.00680000 -0.99660000 -0.08220000
vn -0.00680000 -0.99660000 0.08220000
vn -0.00000000 -0.99720000 0.07450000
vn -0.00000000 -0.99720000 0.07450000
vn 0.00680000 -0.99660000 0.08220000
vn 0.00480000 -0.72320000 -0.69060000
vn 0.00480000 -0.72320000 -0.69060000
vn -0.00000000 -0.70700000 -0.70720000
vn -0.00480000 -0.72320000 -0.69060000
vn -0.00480000 -0.72320000 -0.69060000
vn -0.00480000 -0.72320000 0.69060000
vn -0.00480000 -0.72320000 0.69060000
vn -0.00000000 -0.70700000 0.70720000
vn 0.00480000 -0.72320000 0.69060000
vn -0.00510000 -0.33220000 -0.94320000
vn -0.00510000 -0.33220000 -0.94320000
vn -0.00510000 -0.33220000 -0.94320000
vn -0.12150000 -0.29040000 -0.94920000
vn -0.12150000 -0.29040000 -0.94920000
vn 0.00510000 -0.33220000 0.94320000
vn 0.00510000 -0.33220000 0.94320000
vn 0.12140000 -0.29040000 0.94920000
vn 0.12140000 -0.29040000 0.94920000
vn -0.12150000 -0.29040000 0.94920000
vn -0.12150000 -0.29040000 0.94920000
vn -0.12150000 -0.29040000 0.94920000
vn 0.12140000 -0.29040000 -0.94920000
vn 0.12140000 -0.29040000 -0.94920000
vn 0.00510000 -0.33220000 -0.94320000
vn 0.00510000 -0.33220000 -0.94320000
vn 0.00510000 -0.33220000 -0.94320000
vn -0.00000000 -0.33090000 -0.94370000
vn -0.00000000 -0.33090000 -0.94370000
vn -0.00510000 -0.33220000 0.94320000
vn -0.00510000 -0.33220000 0.94320000
vn -0.00510000 -0.33220000 0.94320000
vn -0.00510000 -0.33220000 0.94320000
vn -0.00000000 -0.33090000 0.94370000
vn -0.00000000 -0.33090000 0.94370000
vn 0.28000000 -0.00000000 -0.96000000
vn 0.28000000 -0.00000000 -0.96000000
vn 0.24950000 0.43370000 -0.86580000
vn 0.24950000 0.43370000 -0.86580000
vn 0.12740000 0.38870000 -0.91250000
vn 0.12740000 0.38870000 -0.91250000
vn 0.09600000 -0.00000000 -0.99540000
vn -0.28000000 -0.00000000 0.96000000
vn -0.28000000 -0.00000000 0.96000000
vn -0.24950000 0.43370000 0.86580000
vn -0.24950000 0.43370000 0.86580000
vn -0.12740000 0.38870000 0.91250000
vn -0.12740000 0.38870000 0.91250000
vn -0.09600000 -0.00000000 0.99540000
vn -0.09600000 -0.00000000 0.99540000
vn -0.79170000 0.53660000 0.29200000
vn -0.79170000 0.53660000 0.29200000
vn -0.93070000 -0.00000000 0.36580000
vn -0.93070000 -0.00000000 0.36580000
vn -0.93070000 -0.00000000 -0.36580000
vn -0.93070000 -0.00000000 -0.36580000
vn -0.79170000 0.53660000 -0.29200000
vn -0.79170000 0.53660000 -0.29200000
vn 0.93070000 -0.00000000 -0.36580000
vn 0.93070000 -0.00000000 -0.36580000
vn 0.79170000 0.53670000 -0.29200000
vn 0.93070000 -0.00000000 0.36580000
vn 0.79170000 0.53670000 0.29200000
vn 0.79170000 0.53670000 0.29200000
vn 0.28000000 -0.00000000 0.96000000
vn 0.24950000 0.43370000 0.86580000
vn 0.24950000 0.43370000 0.86580000
vn -0.28000000 -0.00000000 -0.96000000
vn -0.24950000 0.43370000 -0.86580000
vn -0.24950000 0.43370000 -0.86580000
vn -0.00400000 0.33780000 0.94120000
vn -0.00260000 -0.00000000 1.00000000
vn 0.00400000 0.33780000 -0.94120000
vn 0.00400000 0.33780000 -0.94120000
vn 0.00260000 -0.00000000 -1.00000000
vn 0.00260000 -0.00000000 -1.00000000
vn -0.12740000 0.38870000 -0.91250000
vn -0.12740000 0.38870000 -0.91250000
vn -0.09600000 -0.00000000 -0.99540000
vn -0.00260000 -0.00000000 -1.00000000
vn -0.00400000 0.33780000 -0.94120000
vn -0.00000000 -0.00000000 -1.00000000
vn -0.00000000 0.33660000 -0.94160000
vn 0.12740000 0.38870000 0.91250000
vn 0.12740000 0.38870000 0.91250000
vn 0.09600000 -0.00000000 0.99540000
vn 0.00260000 -0.00000000 1.00000000
vn 0.00400000 0.33780000 0.94120000
vn 0.00400000 0.33780000 0.94120000
vn -0.00000000 -0.00000000 1.00000000
vn -0.00000000 0.33660000 0.94160000
vn -0.00010000 -0.99730000 -0.07380000
vn -0.00010000 -0.99730000 0.07380000
vn -0.00010000 -0.99730000 0.07380000
vn -0.00200000 -0.71270000 -0.70150000
vn -0.00200000 -0.71270000 0.70150000
vn -0.00200000 -0.71270000 0.70150000
vn 0.00010000 -0.33120000 -0.94350000
vn 0.00010000 -0.33120000 -0.94350000
vn 0.00010000 -0.33120000 0.94350000
vn 0.00010000 -0.33120000 0.94350000
vn -0.00000000 -0.00000000 1.00000000
vn -0.00000000 0.33660000 0.94160000
vn -0.00000000 -0.00000000 -1.00000000
vn -0.00000000 0.33660000 -0.94160000
vn 0.00010000 -0.99730000 -0.07380000
vn 0.00010000 -0.99730000 0.07380000
vn 0.00010000 -0.99730000 0.07380000
vn 0.00200000 -0.71260000 -0.70160000
vn 0.00200000 -0.71260000 0.70160000
vn -0.00010000 -0.33120000 -0.94350000
vn -0.00010000 -0.33120000 -0.94350000
vn -0.00010000 -0.33120000 0.94350000
vn -0.00010000 -0.33120000 0.94350000
vn -0.00000000 -0.00000000 1.00000000
vn -0.00000000 0.33660000 0.94160000
vn -0.00000000 -0.00000000 -1.00000000
vn -0.00000000 0.33660000 -0.94160000
vn -0.82970000 -0.55810000 -0.00000000
vn -0.82970000 -0.55810000 -0.00000000
vn -0.93360000 -0.06510000 -0.35240000
vn -0.93360000 -0.06510000 -0.35240000
vn -0.47130000 -0.54590000 -0.69270000
vn -0.47130000 -0.54590000 -0.69270000
vn 0.93360000 -0.06510000 -0.35240000
vn 0.82970000 -0.55810000 -0.00000000
vn 0.82970000 -0.55810000 -0.00000000
vn 0.93360000 -0.06510000 0.35240000
vn 0.47130000 -0.54590000 0.69270000
vn 0.47130000 -0.54590000 0.69270000
vn 0.47130000 -0.54590000 -0.69270000
vn 0.47130000 -0.54590000 -0.69270000
vn -0.05360000 -0.97880000 -0.19780000
vn -0.47130000 -0.54590000 0.69270000
vn -0.47130000 -0.54590000 0.69270000
vn 0.05360000 -0.97880000 0.19780000
vn 0.28360000 -0.07170000 0.95620000
vn -0.28360000 -0.07170000 0.95620000
vn -0.28360000 -0.07170000 0.95620000
vn -0.28360000 -0.07170000 -0.95620000
vn 0.28360000 -0.07170000 -0.95620000
vn 0.28360000 -0.07170000 -0.95620000
vn -0.71500000 -0.69910000 -0.00000000
vn -0.26260000 -0.81480000 -0.51680000
vn 0.71520000 -0.69890000 -0.00000000
vn 0.26250000 -0.81480000 0.51690000
vn 0.26250000 -0.81480000 -0.51690000
vn -0.00650000 -0.73230000 -0.68100000
vn -0.26260000 -0.81480000 0.51680000
vn 0.00650000 -0.73230000 0.68100000
vn -0.30340000 -0.94670000 -0.10830000
vn -0.30340000 -0.94670000 0.10830000
vn -0.04860000 -0.96470000 -0.25870000
vn 0.30330000 -0.94670000 0.10830000
vn 0.30330000 -0.94670000 -0.10830000
vn 0.04860000 -0.96470000 0.25870000
vn 0.04860000 -0.96470000 -0.25870000
vn -0.04860000 -0.96470000 0.25870000
vn 0.05360000 -0.97880000 -0.19780000
vn 0.00010000 -0.99720000 -0.07430000
vn -0.00010000 -0.99730000 -0.07330000
vn -0.05360000 -0.97880000 0.19780000
vn -0.00010000 -0.99720000 0.07430000
vn -0.00010000 -0.99720000 0.07430000
vn 0.00010000 -0.99730000 0.07330000
vn 0.00010000 -0.99730000 0.07330000
vn 0.00650000 -0.73230000 -0.68100000
vn 0.00120000 -0.70880000 -0.70540000
vn -0.00320000 -0.71670000 -0.69740000
vn -0.00650000 -0.73230000 0.68100000
vn -0.00120000 -0.70880000 0.70540000
vn 0.00310000 -0.71670000 0.69740000
vn -0.00420000 -0.99000000 0.14070000
vn -0.00420000 -0.99000000 0.14070000
vn -0.00000000 -0.98870000 0.15000000
vn 0.00420000 -0.99000000 0.14070000
vn 0.00420000 -0.99000000 -0.14070000
vn -0.00000000 -0.98870000 -0.15000000
vn -0.00420000 -0.99000000 -0.14070000
vn -0.00420000 -0.99000000 -0.14070000
vn 0.23720000 -0.57540000 -0.78270000
vn 0.23720000 -0.57540000 -0.78270000
vn -0.03580000 -0.33210000 -0.94260000
vn -0.03580000 -0.33210000 -0.94260000
vn 0.03580000 -0.33210000 0.94260000
vn 0.03580000 -0.33210000 0.94260000
vn 0.13850000 -0.02730000 0.99000000
vn -0.13850000 -0.02730000 0.99000000
vn -0.13850000 -0.02730000 0.99000000
vn -0.13850000 -0.02730000 -0.99000000
vn 0.13850000 -0.02730000 -0.99000000
vn 0.13850000 -0.02730000 -0.99000000
vn 0.03580000 -0.33210000 -0.94260000
vn 0.03580000 -0.33210000 -0.94260000
vn -0.00000000 -0.33100000 -0.94360000
vn -0.00000000 -0.33100000 -0.94360000
vn 0.00010000 -0.33150000 -0.94350000
vn 0.00010000 -0.33150000 -0.94350000
vn -0.03580000 -0.33210000 0.94260000
vn -0.03580000 -0.33210000 0.94260000
vn -0.00000000 -0.33100000 0.94360000
vn -0.00000000 -0.33100000 0.94360000
vn -0.00010000 -0.33150000 0.94350000
vn -0.00010000 -0.33150000 0.94350000
vn -0.00340000 -0.01950000 -0.99980000
vn -0.00340000 -0.01950000 -0.99980000
vn -0.00000000 -0.01960000 -0.99980000
vn 0.00340000 -0.01950000 -0.99980000
vn 0.00340000 -0.01950000 -0.99980000
vn 0.00340000 -0.01950000 0.99980000
vn 0.00340000 -0.01950000 0.99980000
vn -0.00000000 -0.01960000 0.99980000
vn -0.00340000 -0.01950000 0.99980000
vn -0.00340000 -0.01950000 0.99980000
vn -0.23720000 -0.57530000 -0.78280000
vn -0.23720000 -0.57530000 -0.78280000
vn -0.00860000 -0.86450000 -0.50250000
vn -0.00860000 -0.86450000 -0.50250000
vn -0.00860000 -0.86450000 0.50250000
vn -0.00860000 -0.86450000 0.50250000
vn -0.23720000 -0.57530000 0.78280000
vn -0.23720000 -0.57530000 0.78280000
vn -0.00000000 -0.86620000 0.49960000
vn 0.00860000 -0.86450000 -0.50250000
vn 0.00860000 -0.86450000 -0.50250000
vn 0.00860000 -0.86450000 0.50250000
vn 0.23720000 -0.57540000 0.78280000
vn 0.23720000 -0.57540000 0.78280000
vn -0.00000000 -0.86620000 -0.49960000
vn -0.93360000 -0.06510000 0.35240000
vn -0.93360000 -0.06510000 0.35240000
vn 0.21060000 0.65200000 -0.72830000
vn 0.21060000 0.65200000 -0.72830000
vn 0.09960000 0.57560000 -0.81160000
vn 0.09960000 0.57560000 -0.81160000
vn -0.21060000 0.65200000 0.72830000
vn -0.21060000 0.65200000 0.72830000
vn -0.09960000 0.57560000 0.81160000
vn -0.09960000 0.57560000 0.81160000
vn -0.50890000 0.83930000 0.19140000
vn -0.50890000 0.83930000 0.19140000
vn -0.50890000 0.83930000 -0.19140000
vn -0.50890000 0.83930000 -0.19140000
vn 0.50890000 0.83930000 -0.19140000
vn 0.50890000 0.83930000 -0.19140000
vn 0.50890000 0.83930000 0.19140000
vn 0.21060000 0.65200000 0.72830000
vn -0.21060000 0.65200000 -0.72830000
vn -0.00310000 0.51000000 0.86020000
vn 0.00310000 0.50990000 -0.86020000
vn 0.00310000 0.50990000 -0.86020000
vn -0.09960000 0.57560000 -0.81160000
vn -0.00310000 0.51000000 -0.86020000
vn -0.00310000 0.51000000 -0.86020000
vn -0.00000000 0.50840000 -0.86110000
vn 0.09960000 0.57560000 0.81160000
vn 0.00310000 0.51000000 0.86020000
vn -0.00000000 0.50840000 0.86110000
vn -0.22660000 -0.00000000 -0.97400000
vn -0.22540000 0.42450000 -0.87690000
vn -0.22540000 0.42450000 -0.87690000
vn 0.22660000 -0.00000000 0.97400000
vn 0.22540000 0.42450000 0.87690000
vn 0.22540000 0.42450000 0.87690000
vn -0.00000000 -0.00000000 1.00000000
vn -0.00000000 0.33660000 0.94160000
vn -0.00000000 -0.00000000 1.00000000
vn -0.00000000 0.33660000 0.94160000
vn 0.02120000 -0.00000000 0.99980000
vn 0.03030000 0.34810000 0.93700000
vn 0.03030000 0.34810000 0.93700000
vn -0.00000000 -0.00000000 -1.00000000
vn -0.00000000 0.33660000 -0.94160000
vn -0.00000000 -0.00000000 -1.00000000
vn -0.00000000 0.33660000 -0.94160000
vn -0.02120000 -0.00000000 -0.99980000
vn -0.03030000 0.34810000 -0.93700000
vn 0.02120000 -0.00000000 -0.99980000
vn 0.03030000 0.34810000 -0.93700000
vn -0.02120000 -0.00000000 0.99980000
vn -0.03030000 0.34810000 0.93700000
vn -0.48110000 -0.00000000 -0.87660000
vn -0.52150000 0.48900000 -0.69920000
vn 0.48110000 -0.00000000 0.87660000
vn 0.52150000 0.48900000 0.69920000
vn 0.52150000 0.48900000 0.69920000
vn -0.48110000 -0.00000000 0.87660000
vn -0.52150000 0.48900000 0.69920000
vn 1.00000000 -0.00000000 -0.00000000
vn 0.83200000 0.55480000 -0.00000000
vn 0.48110000 -0.00000000 -0.87660000
vn 0.52150000 0.48900000 -0.69920000
vn -1.00000000 -0.00000000 -0.00000000
vn -0.83200000 0.55480000 -0.00000000
vn -0.22540000 0.42450000 0.87690000
vn -0.22660000 -0.00000000 0.97400000
vn 0.22540000 0.42450000 -0.87690000
vn 0.22540000 0.42450000 -0.87690000
vn 0.22660000 -0.00000000 -0.97400000
vn -0.00010000 -0.99720000 -0.07430000
vn -0.00010000 -0.99730000 0.07330000
vn -0.00120000 -0.70880000 -0.70540000
vn -0.00320000 -0.71670000 0.69740000
vn -0.00000000 -0.33100000 -0.94360000
vn -0.00000000 -0.33100000 -0.94360000
vn 0.00010000 -0.33150000 0.94350000
vn 0.00010000 -0.33150000 0.94350000
vn -0.00000000 -0.00000000 1.00000000
vn -0.00000000 0.33660000 0.94160000
vn -0.00000000 -0.00000000 -1.00000000
vn -0.00000000 0.33660000 -0.94160000
vn -0.00000000 0.50840000 -0.86110000
vn -0.00000000 0.50840000 0.86110000
vn -0.00000000 -0.01960000 0.99980000
vn -0.00000000 -0.01960000 -0.99980000
vn 0.00010000 -0.86640000 -0.49930000
vn 0.00010000 -0.86640000 0.49930000
vn -0.00090000 -0.98940000 -0.14510000
vn -0.00090000 -0.98940000 0.14510000
vn -0.00090000 -0.98940000 0.14510000
vn 0.00010000 -0.99730000 -0.07330000
vn 0.00010000 -0.99720000 0.07430000
vn 0.00010000 -0.99720000 0.07430000
vn 0.00310000 -0.71670000 -0.69740000
vn 0.00120000 -0.70880000 0.70540000
vn -0.00010000 -0.33150000 -0.94350000
vn -0.00010000 -0.33150000 -0.94350000
vn -0.00000000 -0.33100000 0.94360000
vn -0.00000000 -0.33100000 0.94360000
vn -0.00000000 -0.00000000 1.00000000
vn -0.00000000 0.33660000 0.94160000
vn -0.00000000 -0.00000000 -1.00000000
vn -0.00000000 0.33660000 -0.94160000
vn -0.00000000 0.50840000 -0.86110000
vn -0.00000000 0.50840000 0.86110000
vn -0.00000000 -0.01960000 0.99980000
vn -0.00000000 -0.01960000 -0.99980000
vn -0.00010000 -0.86640000 -0.49930000
vn -0.00010000 -0.86640000 0.49930000
vn 0.00090000 -0.98940000 -0.14520000
vn 0.00090000 -0.98940000 0.14520000
vn -0.06310000 -0.83730000 0.54320000
vn -0.32020000 -0.94730000 -0.00000000
vn -0.17240000 -0.94730000 -0.26990000
vn 0.32020000 -0.94730000 -0.00000000
vn 0.17240000 -0.94730000 0.26990000
vn 0.17240000 -0.94730000 -0.26990000
vn -0.01780000 -0.98360000 -0.17970000
vn -0.17240000 -0.94730000 0.26990000
vn 0.01780000 -0.98360000 0.17970000
vn -0.01780000 -0.98360000 0.17970000
vn -0.00060000 -0.98890000 0.14830000
vn 0.00150000 -0.98990000 0.14160000
vn 0.01780000 -0.98360000 -0.17970000
vn 0.00060000 -0.98890000 -0.14840000
vn -0.00150000 -0.98990000 -0.14160000
vn -0.06310000 -0.83730000 -0.54320000
vn 0.28410000 -0.06350000 -0.95670000
vn -0.00000000 -0.86630000 0.49950000
vn 0.06310000 -0.83730000 -0.54310000
vn -0.00010000 -0.86660000 0.49900000
vn -0.00000000 -0.86630000 -0.49950000
vn 0.06310000 -0.83730000 0.54310000
vn -0.28410000 -0.06350000 0.95670000
vn 0.00010000 -0.86660000 -0.49900000
vn -0.99820000 -0.06080000 -0.00000000
vn 0.57220000 -0.06830000 -0.81730000
vn 0.99820000 -0.06080000 -0.00000000
vn -0.57220000 -0.06830000 0.81730000
vn 0.57220000 -0.06830000 0.81730000
vn -0.57220000 -0.06830000 -0.81730000
vn -0.02650000 -0.01790000 0.99950000
vn 0.02650000 -0.01790000 -0.99950000
vn -0.02650000 -0.01790000 -0.99950000
vn -0.00000000 -0.01960000 -0.99980000
vn -0.00000000 -0.01960000 -0.99980000
vn 0.02650000 -0.01790000 0.99950000
vn -0.00000000 -0.01960000 0.99980000
vn -0.00000000 -0.01960000 0.99980000
vn 0.28410000 -0.06350000 0.95670000
vn -0.28410000 -0.06350000 -0.95670000
vn -0.18630000 0.63610000 -0.74880000
vn 0.18630000 0.63610000 0.74880000
vn -0.00000000 0.50840000 0.86110000
vn -0.00000000 0.50840000 0.86110000
vn 0.02370000 0.52240000 0.85240000
vn -0.00000000 0.50840000 -0.86110000
vn -0.00000000 0.50840000 -0.86110000
vn -0.02370000 0.52240000 -0.85240000
vn 0.02370000 0.52240000 -0.85240000
vn -0.02370000 0.52240000 0.85240000
vn -0.34900000 0.76860000 -0.53620000
vn 0.34900000 0.76860000 0.53620000
vn -0.34900000 0.76860000 0.53620000
vn 0.54730000 0.83690000 -0.00000000
vn 0.34900000 0.76860000 -0.53620000
vn -0.54730000 0.83690000 -0.00000000
vn -0.18630000 0.63610000 0.74880000
vn 0.18630000 0.63610000 -0.74880000
vn -0.00000000 0.50840000 -0.86110000
vn -0.00000000 0.50840000 0.86110000
vn -0.00000000 -0.01960000 0.99980000
vn -0.00000000 -0.01960000 -0.99980000
vn -0.00000000 -0.86630000 -0.49950000
vn 0.00010000 -0.86660000 0.49900000
vn -0.00060000 -0.98890000 -0.14830000
vn -0.00150000 -0.98990000 0.14160000
vn -0.00000000 0.50840000 -0.86110000
vn -0.00000000 0.50840000 0.86110000
vn -0.00000000 -0.01960000 0.99980000
vn -0.00000000 -0.01960000 -0.99980000
vn -0.00010000 -0.86660000 -0.49900000
vn -0.00000000 -0.86630000 0.49950000
vn 0.00140000 -0.98990000 -0.14160000
vn 0.00060000 -0.98890000 0.14840000
vn -0.27840000 0.03100000 0.96000000
vn -0.93610000 0.05480000 -0.34750000
vn -0.27840000 0.03100000 -0.96000000
vn 0.93610000 0.05480000 -0.34750000
vn 0.93610000 0.05480000 0.34750000
vn 0.27840000 0.03100000 -0.96000000
vn 0.27840000 0.03100000 0.96000000
vn 0.00370000 0.02150000 0.99980000
vn -0.00370000 0.02150000 -0.99980000
vn -0.00000000 0.02140000 -0.99980000
vn -0.00000000 0.02140000 0.99980000
vn 0.12800000 0.02580000 -0.99140000
vn -0.12800000 0.02580000 0.99140000
vn -0.93610000 0.05480000 0.34750000
vn -0.93610000 0.05480000 0.34750000
vn -0.00370000 0.02150000 0.99980000
vn 0.00370000 0.02150000 -0.99980000
vn -0.12800000 0.02580000 -0.99140000
vn 0.12800000 0.02580000 0.99140000
vn -0.00000000 0.02140000 -0.99980000
vn -0.00000000 0.02140000 0.99980000
vn -0.00000000 0.02140000 -0.99980000
vn -0.00000000 0.02140000 0.99980000
vn 0.99850000 0.05560000 -0.00000000
vn -0.58680000 0.04380000 0.80850000
vn 0.58680000 0.04390000 0.80850000
vn -0.58680000 0.04380000 -0.80850000
vn -0.02890000 0.02230000 0.99930000
vn 0.02890000 0.02230000 -0.99930000
vn -0.02890000 0.02230000 -0.99930000
vn -0.00000000 0.02140000 -0.99980000
vn -0.00000000 0.02140000 -0.99980000
vn -0.00000000 0.02140000 0.99980000
vn -0.00000000 0.02140000 0.99980000
vn 0.24570000 0.02990000 0.96890000
vn -0.99850000 0.05550000 -0.00000000
vn 0.58680000 0.04390000 -0.80850000
vn 0.02890000 0.02230000 0.99930000
vn -0.24570000 0.02990000 -0.96890000
vn -0.24570000 0.02990000 0.96890000
vn 0.24570000 0.02990000 -0.96890000
vn -0.00000000 0.02140000 -0.99980000
vn -0.00000000 0.02140000 0.99980000
vn -0.00000000 0.02140000 -0.99980000
vn -0.00000000 0.02140000 0.99980000
vt 0.17041300 0.68375800
vt 0.17673300 0.56624200
vt 0.32957400 0.68785400
vt 0.32326700 0.53686300
vt 0.29798700 0.53686300
vt 0.20201300 0.53686200
vt 0.21180600 0.71313700
vt 0.28819400 0.71313700
vt 0.37500000 0.22222200
vt 0.13888900 0.54166700
vt 0.37500000 0.22222200
vt 0.13888900 0.70833300
vt 0.37500000 1.00000000
vt 0.37500000 0.00000000
vt 0.19444400 0.50000000
vt 0.37500000 0.31944400
vt 0.36111100 0.76388900
vt 0.36111100 0.48611100
vt 0.30555600 0.75000000
vt 0.37500000 0.83333300
vt 0.37500000 0.43055600
vt 0.30555600 0.50000000
vt 0.37500000 0.93055600
vt 0.19444400 0.75000000
vt 0.27417700 0.50614400
vt 0.27417700 0.50614400
vt 0.24997600 0.50614400
vt 0.22579900 0.50614400
vt 0.22579900 0.50614400
vt 0.22579900 0.74385600
vt 0.24997600 0.74385600
vt 0.24997600 0.74385600
vt 0.27417700 0.74385600
vt 0.27417700 0.53071900
vt 0.27417700 0.53071900
vt 0.24997600 0.53071900
vt 0.22579900 0.53071900
vt 0.22579900 0.53071900
vt 0.22579900 0.71313800
vt 0.22579900 0.71313800
vt 0.24663300 0.71313800
vt 0.27430600 0.71313700
vt 0.22579900 0.50000000
vt 0.37500000 0.35079900
vt 0.37500000 0.35079900
vt 0.20833300 0.50000000
vt 0.37500000 0.33680600
vt 0.27417700 0.75000000
vt 0.37500000 0.85082300
vt 0.29166700 0.75000000
vt 0.37500000 0.83333300
vt 0.20833300 0.75000000
vt 0.37500000 0.91319500
vt 0.37500000 0.91319500
vt 0.37500000 0.41319400
vt 0.29166700 0.50000000
vt 0.27417700 0.50000000
vt 0.37500000 0.39917700
vt 0.37500000 0.39917700
vt 0.24997600 0.50000000
vt 0.37500000 0.37497600
vt 0.22579900 0.75000000
vt 0.37500000 0.89920100
vt 0.37500000 0.89920100
vt 0.22579900 0.75000000
vt 0.24997600 0.75000000
vt 0.37500000 0.87502400
vt 0.54998300 0.41666700
vt 0.54998300 0.41666700
vt 0.54969600 0.41666700
vt 0.54963800 0.41666700
vt 0.54969600 0.41666700
vt 0.54963800 0.41666700
vt 0.54998300 0.41666700
vt 0.54998500 0.93055600
vt 0.54998500 0.93055600
vt 0.54963900 0.93055600
vt 0.54963900 0.93055600
vt 0.54963700 0.91319500
vt 0.54963700 0.91319500
vt 0.54998100 0.91319500
vt 0.54998100 0.91319500
vt 0.54964400 0.00000000
vt 0.54964400 1.00000000
vt 0.54999400 1.00000000
vt 0.54999400 0.00000000
vt 0.54999200 0.22222200
vt 0.54999200 0.22222200
vt 0.54964300 0.22222200
vt 0.54964300 0.22222200
vt 0.54999200 0.52777800
vt 0.54999200 0.52777800
vt 0.54964300 0.52777800
vt 0.54999200 0.72222200
vt 0.54964300 0.72222200
vt 0.54964300 0.72222200
vt 0.54998500 0.81944400
vt 0.54963900 0.81944400
vt 0.54963900 0.81944400
vt 0.54998500 0.31944400
vt 0.54958100 0.33333300
vt 0.54963800 0.33333300
vt 0.54963300 0.89920100
vt 0.54997300 0.89920100
vt 0.54963300 0.39917700
vt 0.54963300 0.39917700
vt 0.54997300 0.39917700
vt 0.54997300 0.39917700
vt 0.54958100 0.33333300
vt 0.54963800 0.33333300
vt 0.54998100 0.33680600
vt 0.54997300 0.35079900
vt 0.54963300 0.35079900
vt 0.54996800 0.37497600
vt 0.54963100 0.37497600
vt 0.54963700 0.83680600
vt 0.54963700 0.83680600
vt 0.54998100 0.83680600
vt 0.54997300 0.85082300
vt 0.54963300 0.85082300
vt 0.54963300 0.85082300
vt 0.54996800 0.87502400
vt 0.54963100 0.87502400
vt 0.23305800 0.50614400
vt 0.23305800 0.74385600
vt 0.23305800 0.74385600
vt 0.23305800 0.53071900
vt 0.23305800 0.71313800
vt 0.23305800 0.71313700
vt 0.23305800 0.50000000
vt 0.37500000 0.35805800
vt 0.23305800 0.75000000
vt 0.37500000 0.89194200
vt 0.54997100 0.89194100
vt 0.54963200 0.89194100
vt 0.54997000 0.35805800
vt 0.54963200 0.35805800
vt 0.26684500 0.50614400
vt 0.26684500 0.74385600
vt 0.26684500 0.74385600
vt 0.26684600 0.53071900
vt 0.26684500 0.71928100
vt 0.37500000 0.39184500
vt 0.26684600 0.50000000
vt 0.37500000 0.85815500
vt 0.26684500 0.75000000
vt 0.54997000 0.85815500
vt 0.54963200 0.85815500
vt 0.54997000 0.39184500
vt 0.54963200 0.39184500
vt 0.37500000 0.12152800
vt 0.12847200 0.62500000
vt 0.38084700 0.22222200
vt 0.38084700 0.22222200
vt 0.37500000 0.28645800
vt 0.16666700 0.50520800
vt 0.37954900 0.52430600
vt 0.36662800 0.62500000
vt 0.36662800 0.62500000
vt 0.37954900 0.72569400
vt 0.33333300 0.75173600
vt 0.37326400 0.79340300
vt 0.33333300 0.49826400
vt 0.37326400 0.45833300
vt 0.21703400 0.50563200
vt 0.16666700 0.74479200
vt 0.37500000 0.96007000
vt 0.28296400 0.74436800
vt 0.38084700 0.83333300
vt 0.38084700 0.93055600
vt 0.38084700 0.93055600
vt 0.38084700 0.31944400
vt 0.38084700 0.43055600
vt 0.38084700 0.43055600
vt 0.17120300 0.62500000
vt 0.18937300 0.54053500
vt 0.33484000 0.62232400
vt 0.31331200 0.71484100
vt 0.31062700 0.53686300
vt 0.21766400 0.53123100
vt 0.18658100 0.71506900
vt 0.28125000 0.71313800
vt 0.15781100 0.55395400
vt 0.15720500 0.69617400
vt 0.20112200 0.51843100
vt 0.34283700 0.70118700
vt 0.34220600 0.54687600
vt 0.29814000 0.73156900
vt 0.29887800 0.51843100
vt 0.20186000 0.73156900
vt 0.28296400 0.50563200
vt 0.25962500 0.50614400
vt 0.22946800 0.50614400
vt 0.21703400 0.74436800
vt 0.24030300 0.74385600
vt 0.24030300 0.74385600
vt 0.27046300 0.74385600
vt 0.27046300 0.74385600
vt 0.28233300 0.53123100
vt 0.25962500 0.53071900
vt 0.22946800 0.53071900
vt 0.21876300 0.71313800
vt 0.23988500 0.71313800
vt 0.27040400 0.71876900
vt 0.22579900 0.73080100
vt 0.22579900 0.73080100
vt 0.24969700 0.73092900
vt 0.27418700 0.73092900
vt 0.27417700 0.51843100
vt 0.24997600 0.51843100
vt 0.22579900 0.51843100
vt 0.22579900 0.51843100
vt 0.37500000 0.41796900
vt 0.29340300 0.50000000
vt 0.21832900 0.50000000
vt 0.37500000 0.34376300
vt 0.37500000 0.84333200
vt 0.28166800 0.75000000
vt 0.38084700 0.83333300
vt 0.38084700 0.91319500
vt 0.38084700 0.91319500
vt 0.38084700 0.33680600
vt 0.38084700 0.41319400
vt 0.38084700 0.41319400
vt 0.28166800 0.50000000
vt 0.37500000 0.40623400
vt 0.25962500 0.50000000
vt 0.37500000 0.38462500
vt 0.37500000 0.35446800
vt 0.22946800 0.50000000
vt 0.37500000 0.90623700
vt 0.21832900 0.75000000
vt 0.24030300 0.75000000
vt 0.37500000 0.88469700
vt 0.37500000 0.85453700
vt 0.27046300 0.75000000
vt 0.38084700 0.35079900
vt 0.38084700 0.35079900
vt 0.38084700 0.37497600
vt 0.38084700 0.39917700
vt 0.38084700 0.39917700
vt 0.38084700 0.85082300
vt 0.38084700 0.85082300
vt 0.38084700 0.87502400
vt 0.38084700 0.89920100
vt 0.38084700 0.89920100
vt 0.20659700 0.50000000
vt 0.37500000 0.33203100
vt 0.22579900 0.50076800
vt 0.22579900 0.50076800
vt 0.22579900 0.74923200
vt 0.22579900 0.74923200
vt 0.20659700 0.75000000
vt 0.37500000 0.91796900
vt 0.24997600 0.74923200
vt 0.27417700 0.50076800
vt 0.27417700 0.50076800
vt 0.27417700 0.74923200
vt 0.29340300 0.75000000
vt 0.37500000 0.83333300
vt 0.24997600 0.50076800
vt 0.38084700 0.00000000
vt 0.38084700 1.00000000
vt 0.54981100 0.41666700
vt 0.54981800 0.41666700
vt 0.54981100 0.41666700
vt 0.54981800 0.41666700
vt 0.54981200 0.93055600
vt 0.54981200 0.93055600
vt 0.54980900 0.91319400
vt 0.54980900 0.91319400
vt 0.54981900 0.00000000
vt 0.54981900 1.00000000
vt 0.54981800 0.22222200
vt 0.54981800 0.22222200
vt 0.54981800 0.52777800
vt 0.54981800 0.52777800
vt 0.54981800 0.72222200
vt 0.54981200 0.81944500
vt 0.54980700 0.32060200
vt 0.54980300 0.89920100
vt 0.54980300 0.39917700
vt 0.54980300 0.39917700
vt 0.54980400 0.33651600
vt 0.54980300 0.35079900
vt 0.54980300 0.35079900
vt 0.54980000 0.37497600
vt 0.54980900 0.83680600
vt 0.54980300 0.85082300
vt 0.54980000 0.87502400
vt 0.54998300 0.33203100
vt 0.54963800 0.33333300
vt 0.54962400 0.33333300
vt 0.54998300 0.83203100
vt 0.54963800 0.83203100
vt 0.54963800 0.83203100
vt 0.54996900 0.88469700
vt 0.54963100 0.88469700
vt 0.54997100 0.85453700
vt 0.54963200 0.85453700
vt 0.54997700 0.84376600
vt 0.54963500 0.84376600
vt 0.54963500 0.84376600
vt 0.54996900 0.38462500
vt 0.54963100 0.38462500
vt 0.54997100 0.35446800
vt 0.54963200 0.35446800
vt 0.54997700 0.34376300
vt 0.54963000 0.34340100
vt 0.54997700 0.40666800
vt 0.54964000 0.40659600
vt 0.54997700 0.90623700
vt 0.54963500 0.90623700
vt 0.54998900 0.28645800
vt 0.54963600 0.28790500
vt 0.54998900 0.78645800
vt 0.54964100 0.78645800
vt 0.54964100 0.78645800
vt 0.54998900 0.96007000
vt 0.54964100 0.96007000
vt 0.54999400 0.62500000
vt 0.54964400 0.62500000
vt 0.54998800 0.46180600
vt 0.54964600 0.46209500
vt 0.54999400 0.12152800
vt 0.54964400 0.12152800
vt 0.54963800 0.91796900
vt 0.54998300 0.91796900
vt 0.54963800 0.41666700
vt 0.54965300 0.41666700
vt 0.54998300 0.41666700
vt 0.24030300 0.50614400
vt 0.22946800 0.74385600
vt 0.24030300 0.53071900
vt 0.22946800 0.71313800
vt 0.37500000 0.36530300
vt 0.24030300 0.50000000
vt 0.22946800 0.75000000
vt 0.37500000 0.89553200
vt 0.54997200 0.89553200
vt 0.54963200 0.89553200
vt 0.54996900 0.36530300
vt 0.54963100 0.36530300
vt 0.54980100 0.35805800
vt 0.54980100 0.89194200
vt 0.38084700 0.89194200
vt 0.38084700 0.35805800
vt 0.23305800 0.50076800
vt 0.23305800 0.74923200
vt 0.23305800 0.51843100
vt 0.23305800 0.73080100
vt 0.23305800 0.73080100
vt 0.27046300 0.50614400
vt 0.25962500 0.74385600
vt 0.25962500 0.74385600
vt 0.27046300 0.53071900
vt 0.25934700 0.71876900
vt 0.37500000 0.39546300
vt 0.27046300 0.50000000
vt 0.25962500 0.75000000
vt 0.37500000 0.86537500
vt 0.54996900 0.86537500
vt 0.54963100 0.86537500
vt 0.54997100 0.39546300
vt 0.54963200 0.39546300
vt 0.54980100 0.39184500
vt 0.54980100 0.85815400
vt 0.38084700 0.85815500
vt 0.38084700 0.39184500
vt 0.26684500 0.50076800
vt 0.26684500 0.74923200
vt 0.26684500 0.51843100
vt 0.26684500 0.73156900
vt 0.21804000 0.74936000
vt 0.15010100 0.62500000
vt 0.17830900 0.52287200
vt 0.34997300 0.62448400
vt 0.32194000 0.72889400
vt 0.32169100 0.52110200
vt 0.21735500 0.51843100
vt 0.17806600 0.72764000
vt 0.28244000 0.73092900
vt 0.21755900 0.73092900
vt 0.24023300 0.73080100
vt 0.27046500 0.73144100
vt 0.28264200 0.51843100
vt 0.25962500 0.51843100
vt 0.22946800 0.51843100
vt 0.21804000 0.50064000
vt 0.38084700 0.41796900
vt 0.24030300 0.74923200
vt 0.28195700 0.50064000
vt 0.27046300 0.74923200
vt 0.25962500 0.50076800
vt 0.28195700 0.74936000
vt 0.38084700 0.91796900
vt 0.22946800 0.50076800
vt 0.38084700 0.12152800
vt 0.38055800 0.46267400
vt 0.37970500 0.62500000
vt 0.38084700 0.96007000
vt 0.38055800 0.78906300
vt 0.38084700 0.28645800
vt 0.38084700 0.90623700
vt 0.38084700 0.40623400
vt 0.38084700 0.34376300
vt 0.38084700 0.36530300
vt 0.38084700 0.39546300
vt 0.38084700 0.84333200
vt 0.38084700 0.86537500
vt 0.38084700 0.89553200
vt 0.38084700 0.83333300
vt 0.38084700 0.33203100
vt 0.54980800 0.33224800
vt 0.54981100 0.83203100
vt 0.54980200 0.89553200
vt 0.54980000 0.86537500
vt 0.54980600 0.84376600
vt 0.54980200 0.39546300
vt 0.54980000 0.36530300
vt 0.54980500 0.34369100
vt 0.54980800 0.40666800
vt 0.54980600 0.90623700
vt 0.54981400 0.28674800
vt 0.54981500 0.78645800
vt 0.54981500 0.96006900
vt 0.54981900 0.62500000
vt 0.54981600 0.46180600
vt 0.54981900 0.12152800
vt 0.54981100 0.91796900
vt 0.54981100 0.41666700
vt 0.54980200 0.35446800
vt 0.54980000 0.88469700
vt 0.38084700 0.88469700
vt 0.38084700 0.35446800
vt 0.24030300 0.50076800
vt 0.22946800 0.74923200
vt 0.24030300 0.51843100
vt 0.22946800 0.73080100
vt 0.54980000 0.38462500
vt 0.54980200 0.85453700
vt 0.38084700 0.85453700
vt 0.38084700 0.38462500
vt 0.27046300 0.50076800
vt 0.25962500 0.74923200
vt 0.27046300 0.51843100
vt 0.25955500 0.73144100
vt 0.54620400 0.93055600
vt 0.54620800 0.22222200
vt 0.54617500 0.33305100
vt 0.54618200 0.52770700
vt 0.54618200 0.72229300
vt 0.54626000 0.41694900
vt 0.54620500 0.81972700
vt 0.54619900 0.85082300
vt 0.54619900 0.35079900
vt 0.54619600 0.37497600
vt 0.54619600 0.87502400
vt 0.54626000 0.41659600
vt 0.54620300 0.91319500
vt 0.54620900 0.00000000
vt 0.54620900 1.00000000
vt 0.54619900 0.89920100
vt 0.54619900 0.39917700
vt 0.54617500 0.33340400
vt 0.54620300 0.83673500
vt 0.54619700 0.35805800
vt 0.54619700 0.89194200
vt 0.54619700 0.39184500
vt 0.54619700 0.85815500
vt 0.54618600 0.62500000
vt 0.54620600 0.96007000
vt 0.54620100 0.78651100
vt 0.54620200 0.28787600
vt 0.54620100 0.90623700
vt 0.54620500 0.40658800
vt 0.54619600 0.34340900
vt 0.54619700 0.36530300
vt 0.54619800 0.39546300
vt 0.54619700 0.86537500
vt 0.54619800 0.89553200
vt 0.54620400 0.83205800
vt 0.54620900 0.12152800
vt 0.54620500 0.46210700
vt 0.54620100 0.84375700
vt 0.54620400 0.33330700
vt 0.54620400 0.91796900
vt 0.54621800 0.41669300
vt 0.54619800 0.35446800
vt 0.54619700 0.88469700
vt 0.54619700 0.38462500
vt 0.54619800 0.85453700
f 24/24/24 194/194/194 374/374/374
f 194/194/194 30/30/30 251/251/251
f 374/374/374 251/251/251 62/62/62
f 253/253/253 374/374/374 232/232/232
f 2/2/2 175/175/175 375/375/375
f 175/175/175 1/1/1 184/184/184
f 375/375/375 184/184/184 12/12/12
f 183/183/183 375/375/375 152/152/152
f 6/6/6 176/176/176 376/376/376
f 176/176/176 2/2/2 183/183/183
f 376/376/376 183/183/183 10/10/10
f 185/185/185 376/376/376 156/156/156
f 3/3/3 177/177/177 377/377/377
f 177/177/177 4/4/4 187/187/187
f 377/377/377 187/187/187 18/18/18
f 186/186/186 377/377/377 159/159/159
f 8/8/8 178/178/178 378/378/378
f 178/178/178 3/3/3 186/186/186
f 378/378/378 186/186/186 17/17/17
f 188/188/188 378/378/378 161/161/161
f 4/4/4 179/179/179 379/379/379
f 179/179/179 5/5/5 189/189/189
f 379/379/379 189/189/189 22/22/22
f 187/187/187 379/379/379 163/163/163
f 38/38/38 180/180/180 380/380/380
f 180/180/180 6/6/6 185/185/185
f 380/380/380 185/185/185 15/15/15
f 212/212/212 380/380/380 165/165/165
f 1/1/1 181/181/181 381/381/381
f 181/181/181 7/7/7 190/190/190
f 381/381/381 190/190/190 24/24/24
f 184/184/184 381/381/381 166/166/166
f 42/42/42 182/182/182 382/382/382
f 182/182/182 8/8/8 188/188/188
f 382/382/382 188/188/188 19/19/19
f 208/208/208 382/382/382 168/168/168
f 7/7/7 202/202/202 383/383/383
f 202/202/202 39/39/39 206/206/206
f 383/383/383 206/206/206 30/30/30
f 190/190/190 383/383/383 194/194/194
f 129/129/129 203/203/203 384/384/384
f 203/203/203 41/41/41 207/207/207
f 384/384/384 207/207/207 32/32/32
f 352/352/352 384/384/384 196/196/196
f 142/142/142 204/204/204 385/385/385
f 204/204/204 42/42/42 208/208/208
f 385/385/385 208/208/208 33/33/33
f 373/373/373 385/385/385 197/197/197
f 5/5/5 199/199/199 386/386/386
f 199/199/199 35/35/35 209/209/209
f 386/386/386 209/209/209 26/26/26
f 189/189/189 386/386/386 191/191/191
f 141/141/141 200/200/200 387/387/387
f 200/200/200 36/36/36 210/210/210
f 387/387/387 210/210/210 27/27/27
f 372/372/372 387/387/387 192/192/192
f 127/127/127 201/201/201 388/388/388
f 201/201/201 37/37/37 211/211/211
f 388/388/388 211/211/211 28/28/28
f 350/350/350 388/388/388 193/193/193
f 29/29/29 165/165/165 389/389/389
f 165/165/165 15/15/15 247/247/247
f 389/389/389 247/247/247 46/46/46
f 250/250/250 389/389/389 215/215/215
f 174/174/174 21/21/21 213/213/213
f 390/390/390 213/213/213 55/55/55
f 125/125/125 195/195/195 391/391/391
f 195/195/195 31/31/31 255/255/255
f 391/391/391 255/255/255 66/66/66
f 349/349/349 391/391/391 233/233/233
f 22/22/22 191/191/191 392/392/392
f 191/191/191 26/26/26 256/256/256
f 392/392/392 256/256/256 57/57/57
f 214/214/214 392/392/392 225/225/225
f 139/139/139 198/198/198 393/393/393
f 198/198/198 33/33/33 258/258/258
f 393/393/393 258/258/258 48/48/48
f 371/371/371 393/393/393 236/236/236
f 138/138/138 192/192/192 394/394/394
f 192/192/192 27/27/27 261/261/261
f 394/394/394 261/261/261 60/60/60
f 370/370/370 394/394/394 227/227/227
f 33/33/33 168/168/168 395/395/395
f 168/168/168 19/19/19 259/259/259
f 395/395/395 259/259/259 50/50/50
f 258/258/258 395/395/395 218/218/218
f 171/171/171 23/23/23 254/254/254
f 396/396/396 254/254/254 53/53/53
f 124/124/124 193/193/193 397/397/397
f 193/193/193 28/28/28 249/249/249
f 397/397/397 249/249/249 43/43/43
f 348/348/348 397/397/397 230/230/230
f 456/456/456 113/113/113 307/307/307
f 14/14/14 262/262/262 398/398/398
f 151/151/151 398/398/398 153/153/153
f 21/21/21 173/173/173 399/399/399
f 164/164/164 399/399/399 157/157/157
f 18/18/18 157/157/157 400/400/400
f 158/158/158 400/400/400 160/160/160
f 23/23/23 170/170/170 401/401/401
f 167/167/167 401/401/401 263/263/263
f 17/17/17 160/160/160 402/402/402
f 162/162/162 402/402/402 169/169/169
f 11/11/11 154/154/154 403/403/403
f 155/155/155 403/403/403 172/172/172
f 63/63/63 245/245/245 404/404/404
f 231/231/231 404/404/404 220/220/220
f 58/58/58 240/240/240 405/405/405
f 226/226/226 405/405/405 223/223/223
f 47/47/47 222/222/222 406/406/406
f 216/216/216 406/406/406 238/238/238
f 131/131/131 347/347/347 407/407/407
f 336/336/336 407/407/407 239/239/239
f 143/143/143 369/369/369 408/408/408
f 358/358/358 408/408/408 241/241/241
f 51/51/51 219/219/219 409/409/409
f 217/217/217 409/409/409 242/242/242
f 145/145/145 368/368/368 410/410/410
f 361/361/361 410/410/410 244/244/244
f 133/133/133 346/346/346 411/411/411
f 339/339/339 411/411/411 246/246/246
f 20/20/20 169/169/169 412/412/412
f 260/260/260 412/412/412 219/219/219
f 16/16/16 172/172/172 413/413/413
f 248/248/248 413/413/413 222/222/222
f 461/461/461 83/83/83 326/326/326
f 483/483/483 326/326/326 89/89/89
f 454/454/454 98/98/98 296/296/296
f 484/484/484 324/324/324 93/93/93
f 466/466/466 116/116/116 302/302/302
f 471/471/471 322/322/322 95/95/95
f 448/448/448 77/77/77 320/320/320
f 472/472/472 320/320/320 84/84/84
f 452/452/452 96/96/96 317/317/317
f 473/473/473 317/317/317 98/98/98
f 470/470/470 148/148/148 363/363/363
f 474/474/474 315/315/315 101/101/101
f 467/467/467 137/137/137 343/343/343
f 475/475/475 313/313/313 79/79/79
f 451/451/451 93/93/93 322/322/322
f 476/476/476 311/311/311 72/72/72
f 465/465/465 109/109/109 309/309/309
f 477/477/477 309/309/309 113/113/113
f 464/464/464 105/105/105 311/311/311
f 478/478/478 343/343/343 115/115/115
f 450/450/450 102/102/102 292/292/292
f 479/479/479 365/365/365 106/106/106
f 469/469/469 150/150/150 365/365/365
f 485/485/485 302/302/302 120/120/120
f 463/463/463 103/103/103 313/313/313
f 480/480/480 363/363/363 123/123/123
f 449/449/449 90/90/90 315/315/315
f 481/481/481 341/341/341 103/103/103
f 453/453/453 70/70/70 324/324/324
f 482/482/482 296/296/296 116/116/116
f 468/468/468 135/135/135 341/341/341
f 486/486/486 292/292/292 110/110/110
f 100/100/100 291/291/291 414/414/414
f 291/291/291 111/111/111 284/284/284
f 414/414/414 284/284/284 109/109/109
f 280/280/280 414/414/414 293/293/293
f 97/97/97 294/294/294 415/415/415
f 294/294/294 118/118/118 288/288/288
f 415/415/415 288/288/288 117/117/117
f 279/279/279 415/415/415 295/295/295
f 134/134/134 340/340/340 416/416/416
f 340/340/340 104/104/104 281/281/281
f 416/416/416 281/281/281 103/103/103
f 345/345/345 416/416/416 341/341/341
f 147/147/147 362/362/362 417/417/417
f 362/362/362 122/122/122 290/290/290
f 417/417/417 290/290/290 123/123/123
f 367/367/367 417/417/417 363/363/363
f 118/118/118 301/301/301 418/418/418
f 301/301/301 119/119/119 289/289/289
f 418/418/418 289/289/289 121/121/121
f 288/288/288 418/418/418 303/303/303
f 149/149/149 364/364/364 419/419/419
f 364/364/364 107/107/107 283/283/283
f 419/419/419 283/283/283 106/106/106
f 366/366/366 419/419/419 365/365/365
f 136/136/136 342/342/342 420/420/420
f 342/342/342 114/114/114 287/287/287
f 420/420/420 287/287/287 115/115/115
f 344/344/344 420/420/420 343/343/343
f 111/111/111 308/308/308 421/421/421
f 308/308/308 112/112/112 286/286/286
f 421/421/421 286/286/286 113/113/113
f 284/284/284 421/421/421 309/309/309
f 108/108/108 310/310/310 422/422/422
f 310/310/310 74/74/74 267/267/267
f 422/422/422 267/267/267 72/72/72
f 282/282/282 422/422/422 311/311/311
f 104/104/104 312/312/312 423/423/423
f 312/312/312 82/82/82 271/271/271
f 423/423/423 271/271/271 79/79/79
f 281/281/281 423/423/423 313/313/313
f 87/87/87 314/314/314 424/424/424
f 314/314/314 100/100/100 280/280/280
f 424/424/424 280/280/280 101/101/101
f 275/275/275 424/424/424 315/315/315
f 94/94/94 316/316/316 425/425/425
f 316/316/316 97/97/97 279/279/279
f 425/425/425 279/279/279 99/99/99
f 278/278/278 425/425/425 318/318/318
f 75/75/75 319/319/319 426/426/426
f 319/319/319 85/85/85 273/273/273
f 426/426/426 273/273/273 84/84/84
f 269/269/269 426/426/426 320/320/320
f 91/91/91 321/321/321 427/427/427
f 321/321/321 94/94/94 278/278/278
f 427/427/427 278/278/278 95/95/95
f 276/276/276 427/427/427 322/322/322
f 68/68/68 323/323/323 428/428/428
f 323/323/323 92/92/92 277/277/277
f 428/428/428 277/277/277 93/93/93
f 265/265/265 428/428/428 324/324/324
f 86/86/86 325/325/325 429/429/429
f 325/325/325 88/88/88 274/274/274
f 429/429/429 274/274/274 89/89/89
f 272/272/272 429/429/429 326/326/326
f 487/487/487 460/460/460 80/80/80
f 448/448/448 487/487/487 327/327/327
f 78/78/78 327/327/327 430/430/430
f 327/327/327 80/80/80 270/270/270
f 430/430/430 270/270/270 81/81/81
f 268/268/268 430/430/430 328/328/328
f 488/488/488 459/459/459 72/72/72
f 457/457/457 115/115/115 305/305/305
f 71/71/71 329/329/329 431/431/431
f 329/329/329 73/73/73 266/266/266
f 431/431/431 266/266/266 74/74/74
f 264/264/264 431/431/431 331/331/331
f 112/112/112 306/306/306 432/432/432
f 306/306/306 136/136/136 344/344/344
f 432/432/432 344/344/344 137/137/137
f 285/285/285 432/432/432 307/307/307
f 122/122/122 297/297/297 433/433/433
f 297/297/297 134/134/134 345/345/345
f 433/433/433 345/345/345 135/135/135
f 290/290/290 433/433/433 298/298/298
f 458/458/458 123/123/123 298/298/298
f 490/490/490 298/298/298 135/135/135
f 489/489/489 307/307/307 137/137/137
f 67/67/67 244/244/244 434/434/434
f 234/234/234 434/434/434 346/346/346
f 45/45/45 237/237/237 435/435/435
f 229/229/229 435/435/435 347/347/347
f 27/27/27 332/332/332 436/436/436
f 332/332/332 124/124/124 348/348/348
f 436/436/436 348/348/348 130/130/130
f 261/261/261 436/436/436 337/337/337
f 30/30/30 333/333/333 437/437/437
f 333/333/333 125/125/125 349/349/349
f 437/437/437 349/349/349 132/132/132
f 252/252/252 437/437/437 338/338/338
f 36/36/36 334/334/334 438/438/438
f 334/334/334 127/127/127 350/350/350
f 438/438/438 350/350/350 124/124/124
f 210/210/210 438/438/438 332/332/332
f 40/40/40 335/335/335 439/439/439
f 335/335/335 128/128/128 351/351/351
f 439/439/439 351/351/351 125/125/125
f 205/205/205 439/439/439 333/333/333
f 114/114/114 304/304/304 440/440/440
f 304/304/304 149/149/149 366/366/366
f 440/440/440 366/366/366 150/150/150
f 287/287/287 440/440/440 305/305/305
f 119/119/119 299/299/299 441/441/441
f 299/299/299 147/147/147 367/367/367
f 441/441/441 367/367/367 148/148/148
f 289/289/289 441/441/441 300/300/300
f 455/455/455 121/121/121 300/300/300
f 492/492/492 300/300/300 148/148/148
f 491/491/491 305/305/305 150/150/150
f 49/49/49 243/243/243 442/442/442
f 453/453/453 488/488/488 330/330/330
f 235/235/235 442/442/442 368/368/368
f 61/61/61 239/239/239 443/443/443
f 228/228/228 443/443/443 369/369/369
f 25/25/25 353/353/353 444/444/444
f 353/353/353 138/138/138 370/370/370
f 444/444/444 370/370/370 144/144/144
f 257/257/257 444/444/444 359/359/359
f 31/31/31 354/354/354 445/445/445
f 354/354/354 139/139/139 371/371/371
f 445/445/445 371/371/371 146/146/146
f 255/255/255 445/445/445 360/360/360
f 34/34/34 356/356/356 446/446/446
f 356/356/356 141/141/141 372/372/372
f 446/446/446 372/372/372 138/138/138
f 209/209/209 446/446/446 353/353/353
f 41/41/41 357/357/357 447/447/447
f 357/357/357 142/142/142 373/373/373
f 447/447/447 373/373/373 140/140/140
f 207/207/207 447/447/447 355/355/355
f 174/174/174 390/390/390 488/488/488
f 443/443/443 491/491/491 469/469/469
f 442/442/442 492/492/492 470/470/470
f 243/243/243 455/455/455 492/492/492
f 435/435/435 489/489/489 467/467/467
f 434/434/434 490/490/490 468/468/468
f 244/244/244 458/458/458 490/490/490
f 239/239/239 457/457/457 491/491/491
f 390/390/390 224/224/224 459/459/459
f 171/171/171 396/396/396 487/487/487
f 396/396/396 221/221/221 460/460/460
f 413/413/413 486/486/486 465/465/465
f 346/346/346 468/468/468 481/481/481
f 412/412/412 482/482/482 466/466/466
f 173/173/173 453/453/453 484/484/484
f 411/411/411 481/481/481 463/463/463
f 154/154/154 449/449/449 474/474/474
f 410/410/410 480/480/480 458/458/458
f 245/245/245 463/463/463 475/475/475
f 409/409/409 485/485/485 455/455/455
f 369/369/369 469/469/469 479/479/479
f 408/408/408 479/479/479 464/464/464
f 172/172/172 450/450/450 486/486/486
f 407/407/407 478/478/478 457/457/457
f 240/240/240 464/464/464 476/476/476
f 406/406/406 477/477/477 456/456/456
f 222/222/222 465/465/465 477/477/477
f 405/405/405 476/476/476 459/459/459
f 157/157/157 451/451/451 471/471/471
f 404/404/404 475/475/475 460/460/460
f 347/347/347 467/467/467 478/478/478
f 403/403/403 474/474/474 450/450/450
f 368/368/368 470/470/470 480/480/480
f 402/402/402 473/473/473 454/454/454
f 160/160/160 452/452/452 473/473/473
f 401/401/401 472/472/472 462/462/462
f 170/170/170 448/448/448 472/472/472
f 400/400/400 471/471/471 452/452/452
f 219/219/219 466/466/466 485/485/485
f 399/399/399 484/484/484 451/451/451
f 169/169/169 454/454/454 482/482/482
f 398/398/398 483/483/483 449/449/449
f 262/262/262 461/461/461 483/483/483
f 237/237/237 456/456/456 489/489/489
f 374/374/374 253/253/253 24/24/24
f 251/251/251 374/374/374 194/194/194
f 62/62/62 232/232/232 374/374/374
f 232/232/232 52/52/52 253/253/253
f 375/375/375 183/183/183 2/2/2
f 184/184/184 375/375/375 175/175/175
f 12/12/12 152/152/152 375/375/375
f 152/152/152 10/10/10 183/183/183
f 376/376/376 185/185/185 6/6/6
f 183/183/183 376/376/376 176/176/176
f 10/10/10 156/156/156 376/376/376
f 156/156/156 15/15/15 185/185/185
f 377/377/377 186/186/186 3/3/3
f 187/187/187 377/377/377 177/177/177
f 18/18/18 159/159/159 377/377/377
f 159/159/159 17/17/17 186/186/186
f 378/378/378 188/188/188 8/8/8
f 186/186/186 378/378/378 178/178/178
f 17/17/17 161/161/161 378/378/378
f 161/161/161 19/19/19 188/188/188
f 379/379/379 187/187/187 4/4/4
f 189/189/189 379/379/379 179/179/179
f 22/22/22 163/163/163 379/379/379
f 163/163/163 18/18/18 187/187/187
f 380/380/380 212/212/212 38/38/38
f 185/185/185 380/380/380 180/180/180
f 15/15/15 165/165/165 380/380/380
f 165/165/165 29/29/29 212/212/212
f 381/381/381 184/184/184 1/1/1
f 190/190/190 381/381/381 181/181/181
f 24/24/24 166/166/166 381/381/381
f 166/166/166 12/12/12 184/184/184
f 382/382/382 208/208/208 42/42/42
f 188/188/188 382/382/382 182/182/182
f 19/19/19 168/168/168 382/382/382
f 168/168/168 33/33/33 208/208/208
f 383/383/383 190/190/190 7/7/7
f 206/206/206 383/383/383 202/202/202
f 30/30/30 194/194/194 383/383/383
f 194/194/194 24/24/24 190/190/190
f 384/384/384 352/352/352 129/129/129
f 207/207/207 384/384/384 203/203/203
f 32/32/32 196/196/196 384/384/384
f 196/196/196 126/126/126 352/352/352
f 385/385/385 373/373/373 142/142/142
f 208/208/208 385/385/385 204/204/204
f 33/33/33 197/197/197 385/385/385
f 197/197/197 140/140/140 373/373/373
f 386/386/386 189/189/189 5/5/5
f 209/209/209 386/386/386 199/199/199
f 26/26/26 191/191/191 386/386/386
f 191/191/191 22/22/22 189/189/189
f 387/387/387 372/372/372 141/141/141
f 210/210/210 387/387/387 200/200/200
f 27/27/27 192/192/192 387/387/387
f 192/192/192 138/138/138 372/372/372
f 388/388/388 350/350/350 127/127/127
f 211/211/211 388/388/388 201/201/201
f 28/28/28 193/193/193 388/388/388
f 193/193/193 124/124/124 350/350/350
f 389/389/389 250/250/250 29/29/29
f 247/247/247 389/389/389 165/165/165
f 46/46/46 215/215/215 389/389/389
f 215/215/215 43/43/43 250/250/250
f 213/213/213 390/390/390 174/174/174
f 55/55/55 224/224/224 390/390/390
f 391/391/391 349/349/349 125/125/125
f 255/255/255 391/391/391 195/195/195
f 66/66/66 233/233/233 391/391/391
f 233/233/233 132/132/132 349/349/349
f 392/392/392 214/214/214 22/22/22
f 256/256/256 392/392/392 191/191/191
f 57/57/57 225/225/225 392/392/392
f 225/225/225 56/56/56 214/214/214
f 393/393/393 371/371/371 139/139/139
f 258/258/258 393/393/393 198/198/198
f 48/48/48 236/236/236 393/393/393
f 236/236/236 146/146/146 371/371/371
f 394/394/394 370/370/370 138/138/138
f 261/261/261 394/394/394 192/192/192
f 60/60/60 227/227/227 394/394/394
f 227/227/227 144/144/144 370/370/370
f 395/395/395 258/258/258 33/33/33
f 259/259/259 395/395/395 168/168/168
f 50/50/50 218/218/218 395/395/395
f 218/218/218 48/48/48 258/258/258
f 254/254/254 396/396/396 171/171/171
f 53/53/53 221/221/221 396/396/396
f 397/397/397 348/348/348 124/124/124
f 249/249/249 397/397/397 193/193/193
f 43/43/43 230/230/230 397/397/397
f 230/230/230 130/130/130 348/348/348
f 307/307/307 489/489/489 456/456/456
f 398/398/398 151/151/151 14/14/14
f 153/153/153 9/9/9 151/151/151
f 399/399/399 164/164/164 21/21/21
f 157/157/157 18/18/18 164/164/164
f 400/400/400 158/158/158 18/18/18
f 160/160/160 17/17/17 158/158/158
f 401/401/401 167/167/167 23/23/23
f 263/263/263 13/13/13 167/167/167
f 402/402/402 162/162/162 17/17/17
f 169/169/169 20/20/20 162/162/162
f 403/403/403 155/155/155 11/11/11
f 172/172/172 16/16/16 155/155/155
f 404/404/404 231/231/231 63/63/63
f 220/220/220 54/54/54 231/231/231
f 405/405/405 226/226/226 58/58/58
f 223/223/223 55/55/55 226/226/226
f 406/406/406 216/216/216 47/47/47
f 238/238/238 44/44/44 216/216/216
f 407/407/407 336/336/336 131/131/131
f 239/239/239 61/61/61 336/336/336
f 408/408/408 358/358/358 143/143/143
f 241/241/241 59/59/59 358/358/358
f 409/409/409 217/217/217 51/51/51
f 242/242/242 49/49/49 217/217/217
f 410/410/410 361/361/361 145/145/145
f 244/244/244 67/67/67 361/361/361
f 411/411/411 339/339/339 133/133/133
f 246/246/246 64/64/64 339/339/339
f 412/412/412 260/260/260 20/20/20
f 219/219/219 51/51/51 260/260/260
f 413/413/413 248/248/248 16/16/16
f 222/222/222 47/47/47 248/248/248
f 326/326/326 483/483/483 461/461/461
f 89/89/89 449/449/449 483/483/483
f 296/296/296 482/482/482 454/454/454
f 93/93/93 451/451/451 484/484/484
f 302/302/302 485/485/485 466/466/466
f 95/95/95 452/452/452 471/471/471
f 320/320/320 472/472/472 448/448/448
f 84/84/84 462/462/462 472/472/472
f 317/317/317 473/473/473 452/452/452
f 98/98/98 454/454/454 473/473/473
f 363/363/363 480/480/480 470/470/470
f 101/101/101 450/450/450 474/474/474
f 343/343/343 478/478/478 467/467/467
f 79/79/79 460/460/460 475/475/475
f 322/322/322 471/471/471 451/451/451
f 72/72/72 459/459/459 476/476/476
f 309/309/309 477/477/477 465/465/465
f 113/113/113 456/456/456 477/477/477
f 311/311/311 476/476/476 464/464/464
f 115/115/115 457/457/457 478/478/478
f 292/292/292 486/486/486 450/450/450
f 106/106/106 464/464/464 479/479/479
f 365/365/365 479/479/479 469/469/469
f 120/120/120 455/455/455 485/485/485
f 313/313/313 475/475/475 463/463/463
f 123/123/123 458/458/458 480/480/480
f 315/315/315 474/474/474 449/449/449
f 103/103/103 463/463/463 481/481/481
f 324/324/324 484/484/484 453/453/453
f 116/116/116 466/466/466 482/482/482
f 341/341/341 481/481/481 468/468/468
f 110/110/110 465/465/465 486/486/486
f 414/414/414 280/280/280 100/100/100
f 284/284/284 414/414/414 291/291/291
f 109/109/109 293/293/293 414/414/414
f 293/293/293 101/101/101 280/280/280
f 415/415/415 279/279/279 97/97/97
f 288/288/288 415/415/415 294/294/294
f 117/117/117 295/295/295 415/415/415
f 295/295/295 99/99/99 279/279/279
f 416/416/416 345/345/345 134/134/134
f 281/281/281 416/416/416 340/340/340
f 103/103/103 341/341/341 416/416/416
f 341/341/341 135/135/135 345/345/345
f 417/417/417 367/367/367 147/147/147
f 290/290/290 417/417/417 362/362/362
f 123/123/123 363/363/363 417/417/417
f 363/363/363 148/148/148 367/367/367
f 418/418/418 288/288/288 118/118/118
f 289/289/289 418/418/418 301/301/301
f 121/121/121 303/303/303 418/418/418
f 303/303/303 117/117/117 288/288/288
f 419/419/419 366/366/366 149/149/149
f 283/283/283 419/419/419 364/364/364
f 106/106/106 365/365/365 419/419/419
f 365/365/365 150/150/150 366/366/366
f 420/420/420 344/344/344 136/136/136
f 287/287/287 420/420/420 342/342/342
f 115/115/115 343/343/343 420/420/420
f 343/343/343 137/137/137 344/344/344
f 421/421/421 284/284/284 111/111/111
f 286/286/286 421/421/421 308/308/308
f 113/113/113 309/309/309 421/421/421
f 309/309/309 109/109/109 284/284/284
f 422/422/422 282/282/282 108/108/108
f 267/267/267 422/422/422 310/310/310
f 72/72/72 311/311/311 422/422/422
f 311/311/311 105/105/105 282/282/282
f 423/423/423 281/281/281 104/104/104
f 271/271/271 423/423/423 312/312/312
f 79/79/79 313/313/313 423/423/423
f 313/313/313 103/103/103 281/281/281
f 424/424/424 275/275/275 87/87/87
f 280/280/280 424/424/424 314/314/314
f 101/101/101 315/315/315 424/424/424
f 315/315/315 90/90/90 275/275/275
f 425/425/425 278/278/278 94/94/94
f 279/279/279 425/425/425 316/316/316
f 99/99/99 318/318/318 425/425/425
f 318/318/318 95/95/95 278/278/278
f 426/426/426 269/269/269 75/75/75
f 273/273/273 426/426/426 319/319/319
f 84/84/84 320/320/320 426/426/426
f 320/320/320 77/77/77 269/269/269
f 427/427/427 276/276/276 91/91/91
f 278/278/278 427/427/427 321/321/321
f 95/95/95 322/322/322 427/427/427
f 322/322/322 93/93/93 276/276/276
f 428/428/428 265/265/265 68/68/68
f 277/277/277 428/428/428 323/323/323
f 93/93/93 324/324/324 428/428/428
f 324/324/324 70/70/70 265/265/265
f 429/429/429 272/272/272 86/86/86
f 274/274/274 429/429/429 325/325/325
f 89/89/89 326/326/326 429/429/429
f 326/326/326 83/83/83 272/272/272
f 80/80/80 327/327/327 487/487/487
f 327/327/327 78/78/78 448/448/448
f 430/430/430 268/268/268 78/78/78
f 270/270/270 430/430/430 327/327/327
f 81/81/81 328/328/328 430/430/430
f 328/328/328 76/76/76 268/268/268
f 72/72/72 330/330/330 488/488/488
f 305/305/305 491/491/491 457/457/457
f 431/431/431 264/264/264 71/71/71
f 266/266/266 431/431/431 329/329/329
f 74/74/74 331/331/331 431/431/431
f 331/331/331 69/69/69 264/264/264
f 432/432/432 285/285/285 112/112/112
f 344/344/344 432/432/432 306/306/306
f 137/137/137 307/307/307 432/432/432
f 307/307/307 113/113/113 285/285/285
f 433/433/433 290/290/290 122/122/122
f 345/345/345 433/433/433 297/297/297
f 135/135/135 298/298/298 433/433/433
f 298/298/298 123/123/123 290/290/290
f 298/298/298 490/490/490 458/458/458
f 135/135/135 468/468/468 490/490/490
f 137/137/137 467/467/467 489/489/489
f 434/434/434 234/234/234 67/67/67
f 346/346/346 133/133/133 234/234/234
f 435/435/435 229/229/229 45/45/45
f 347/347/347 131/131/131 229/229/229
f 436/436/436 261/261/261 27/27/27
f 348/348/348 436/436/436 332/332/332
f 130/130/130 337/337/337 436/436/436
f 337/337/337 60/60/60 261/261/261
f 437/437/437 252/252/252 30/30/30
f 349/349/349 437/437/437 333/333/333
f 132/132/132 338/338/338 437/437/437
f 338/338/338 65/65/65 252/252/252
f 438/438/438 210/210/210 36/36/36
f 350/350/350 438/438/438 334/334/334
f 124/124/124 332/332/332 438/438/438
f 332/332/332 27/27/27 210/210/210
f 439/439/439 205/205/205 40/40/40
f 351/351/351 439/439/439 335/335/335
f 125/125/125 333/333/333 439/439/439
f 333/333/333 30/30/30 205/205/205
f 440/440/440 287/287/287 114/114/114
f 366/366/366 440/440/440 304/304/304
f 150/150/150 305/305/305 440/440/440
f 305/305/305 115/115/115 287/287/287
f 441/441/441 289/289/289 119/119/119
f 367/367/367 441/441/441 299/299/299
f 148/148/148 300/300/300 441/441/441
f 300/300/300 121/121/121 289/289/289
f 300/300/300 492/492/492 455/455/455
f 148/148/148 470/470/470 492/492/492
f 150/150/150 469/469/469 491/491/491
f 442/442/442 235/235/235 49/49/49
f 330/330/330 70/70/70 453/453/453
f 368/368/368 145/145/145 235/235/235
f 443/443/443 228/228/228 61/61/61
f 369/369/369 143/143/143 228/228/228
f 444/444/444 257/257/257 25/25/25
f 370/370/370 444/444/444 353/353/353
f 144/144/144 359/359/359 444/444/444
f 359/359/359 57/57/57 257/257/257
f 445/445/445 255/255/255 31/31/31
f 371/371/371 445/445/445 354/354/354
f 146/146/146 360/360/360 445/445/445
f 360/360/360 66/66/66 255/255/255
f 446/446/446 209/209/209 34/34/34
f 372/372/372 446/446/446 356/356/356
f 138/138/138 353/353/353 446/446/446
f 353/353/353 25/25/25 209/209/209
f 447/447/447 207/207/207 41/41/41
f 373/373/373 447/447/447 357/357/357
f 140/140/140 355/355/355 447/447/447
f 355/355/355 32/32/32 207/207/207
f 488/488/488 453/453/453 174/174/174
f 469/469/469 369/369/369 443/443/443
f 470/470/470 368/368/368 442/442/442
f 492/492/492 442/442/442 243/243/243
f 467/467/467 347/347/347 435/435/435
f 468/468/468 346/346/346 434/434/434
f 490/490/490 434/434/434 244/244/244
f 491/491/491 443/443/443 239/239/239
f 459/459/459 488/488/488 390/390/390
f 487/487/487 448/448/448 171/171/171
f 460/460/460 487/487/487 396/396/396
f 465/465/465 222/222/222 413/413/413
f 481/481/481 411/411/411 346/346/346
f 466/466/466 219/219/219 412/412/412
f 484/484/484 399/399/399 173/173/173
f 463/463/463 246/246/246 411/411/411
f 474/474/474 403/403/403 154/154/154
f 458/458/458 244/244/244 410/410/410
f 475/475/475 404/404/404 245/245/245
f 455/455/455 242/242/242 409/409/409
f 479/479/479 408/408/408 369/369/369
f 464/464/464 241/241/241 408/408/408
f 486/486/486 413/413/413 172/172/172
f 457/457/457 239/239/239 407/407/407
f 476/476/476 405/405/405 240/240/240
f 456/456/456 238/238/238 406/406/406
f 477/477/477 406/406/406 222/222/222
f 459/459/459 223/223/223 405/405/405
f 471/471/471 400/400/400 157/157/157
f 460/460/460 220/220/220 404/404/404
f 478/478/478 407/407/407 347/347/347
f 450/450/450 172/172/172 403/403/403
f 480/480/480 410/410/410 368/368/368
f 454/454/454 169/169/169 402/402/402
f 473/473/473 402/402/402 160/160/160
f 462/462/462 263/263/263 401/401/401
f 472/472/472 401/401/401 170/170/170
f 452/452/452 160/160/160 400/400/400
f 485/485/485 409/409/409 219/219/219
f 451/451/451 157/157/157 399/399/399
f 482/482/482 412/412/412 169/169/169
f 449/449/449 153/153/153 398/398/398
f 483/483/483 398/398/398 262/262/262
f 489/489/489 435/435/435 237/237/237

