# https://github.com/mikedh/trimesh
v -0.01100808 0.03260771 -0.00117429
v -0.01094125 0.03067216 -0.00020671
v -0.01094125 0.03260771 -0.00020671
v -0.01093263 0.03357549 -0.00020671
v -0.01099730 0.03357549 -0.00117429
v -0.01095634 0.03357549 -0.00214388
v -0.01096496 0.03260771 -0.00214388
v -0.01096496 0.02873661 -0.00214388
v -0.01095850 0.00643947 -0.00214388
v -0.01099946 0.00450392 -0.00117429
v -0.01082269 0.03067216 0.00076288
v -0.01093263 0.00352656 -0.00020671
v -0.01081407 0.00255878 0.00076288
v -0.01082269 0.03260771 0.00076288
v -0.01081622 0.03357549 0.00076288
v -0.01068904 0.03413124 0.00129897
v -0.01073431 0.03424622 0.00076288
v -0.01079251 0.03438036 -0.00020671
v -0.01082269 0.03445702 -0.00117429
v -0.01080329 0.03440911 -0.00214388
v -0.01075155 0.03428455 -0.00311347
v -0.01085071 0.03357549 -0.00311347
v -0.01085502 0.03260771 -0.00311347
v -0.01085502 0.02582370 -0.00311347
v -0.01099730 -0.00131231 -0.00117429
v -0.01084856 0.00352656 -0.00311347
v -0.01084425 -0.00712854 -0.00311347
v -0.01082916 -0.04298412 -0.00311347
v -0.01093910 -0.03911302 -0.00214388
v -0.01070844 0.02679148 0.00133317
v -0.01070844 0.02970439 0.00133418
v -0.01070413 -0.00034454 0.00132513
v -0.01093047 -0.00228967 -0.00020671
v -0.01091323 -0.04298412 -0.00020671
v -0.01081191 -0.00228967 0.00076288
v -0.01069335 -0.04686480 0.00130601
v -0.01070844 0.03260771 0.00133418
v -0.01070628 0.03357549 0.00133015
v -0.00982677 0.03437078 0.00234098
v -0.00966941 0.03501277 0.00220319
v -0.00986557 0.03523316 0.00155646
v -0.01048856 0.03473490 0.00076288
v -0.01038509 0.03357549 0.00181394
v -0.01057479 0.03486904 -0.00020671
v -0.01061575 0.03493612 -0.00117429
v -0.01059634 0.03489779 -0.00214388
v -0.01070413 0.03416956 -0.00369080
v -0.01052952 0.03477323 -0.00311347
v -0.01072784 0.03357549 -0.00374210
v -0.01073000 0.03260771 -0.00374713
v -0.01073000 0.03163994 -0.00374713
v -0.01073000 0.02582370 -0.00374512
v -0.01073000 0.02485593 -0.00374411
v -0.01072568 -0.00325745 -0.00373506
v -0.01098652 -0.02651278 -0.00117429
v -0.01071706 -0.04396147 -0.00371696
v -0.01082700 -0.04783257 -0.00311347
v -0.01093694 -0.04396147 -0.00214388
v -0.01038940 0.02679148 0.00181797
v -0.01038940 0.03067216 0.00181897
v -0.01038509 0.00450392 0.00181193
v -0.01091107 -0.04783257 -0.00020671
v -0.01079251 -0.04589702 0.00076288
v -0.01079036 -0.04977770 0.00076288
v -0.01069119 -0.04977770 0.00130501
v -0.01036784 -0.04880035 0.00178981
v -0.01036784 -0.04783257 0.00179081
v -0.01037216 -0.03523234 0.00179584
v -0.01038940 0.03260771 0.00181897
v -0.00680452 0.03507026 0.00417657
v -0.00990006 0.03357549 0.00240536
v -0.00923180 0.03553020 0.00175259
v -0.00946462 0.03589431 0.00076288
v -0.01000354 0.03540563 0.00076288
v -0.01001216 0.03559727 -0.00027510
v -0.01013934 0.03552061 -0.00117429
v -0.01003156 0.03560685 -0.00209158
v -0.01004665 0.03544396 -0.00311347
v -0.00986557 0.03524274 -0.00408307
v -0.01033120 0.03451451 -0.00404082
v -0.00985048 0.03455284 -0.00472779
v -0.01046054 0.03357549 -0.00422690
v -0.01046485 0.03260771 -0.00423092
v -0.01046485 0.03067216 -0.00423092
v -0.01046054 0.00547169 -0.00422388
v -0.01072568 -0.00228967 -0.00373607
v -0.01097790 -0.04589702 -0.00117429
v -0.01072137 -0.02263210 -0.00372701
v -0.01045838 -0.00228967 -0.00422086
v -0.01045191 -0.02359988 -0.00421080
v -0.01044329 -0.04880035 -0.00419873
v -0.01071491 -0.04977770 -0.00371394
v -0.01082485 -0.04977770 -0.00311347
v -0.01093479 -0.04880035 -0.00214388
v -0.00990437 0.02775925 0.00240837
v -0.01038509 0.00643947 0.00181294
v -0.00990006 0.00352656 0.00240435
v -0.00990222 0.01419124 0.00240636
v -0.00988282 -0.04977770 0.00238926
v -0.00989144 -0.02263210 0.00239731
v -0.01097574 -0.04977770 -0.00117429
v -0.01090892 -0.04977770 -0.00020671
v -0.01086580 -0.05074548 -0.00020671
v -0.01073215 -0.05078380 0.00082122
v -0.01068042 -0.05048677 0.00128590
v -0.01036569 -0.04977770 0.00178981
v -0.00990437 0.03260771 0.00240837
v -0.00682823 0.03455284 0.00419669
v -0.00629578 0.03455284 0.00433046
v -0.00629578 0.03520441 0.00423792
v -0.00481699 0.03599013 0.00412025
v -0.00879205 0.03602846 0.00130300
v -0.00683901 0.03357549 0.00420675
v -0.00897959 0.03608595 0.00076288
v -0.00963923 0.03598055 0.00000250
v -0.00969312 0.03600929 -0.00064423
v -0.00969743 0.03600929 -0.00117429
v -0.00969743 0.03600929 -0.00173352
v -0.00964569 0.03599013 -0.00238025
v -0.00952498 0.03593264 -0.00311347
v -0.00919516 0.03571225 -0.00406697
v -0.00971468 0.03506068 -0.00459502
v -0.00920378 0.03455284 -0.00510295
v -0.00997551 0.03357549 -0.00484949
v -0.00997982 0.03260771 -0.00485250
v -0.00997982 0.02873661 -0.00485250
v -0.00997551 0.00450392 -0.00484949
v -0.00996904 -0.01778365 -0.00484245
v -0.00996473 -0.03135166 -0.00483842
v -0.00995827 -0.04977770 -0.00483339
v -0.01044760 -0.03523234 -0.00420577
v -0.01044329 -0.04783257 -0.00419974
v -0.01044114 -0.04977770 -0.00419873
v -0.01069335 -0.05074548 -0.00366968
v -0.01078173 -0.05074548 -0.00311347
v -0.01093263 -0.04977770 -0.00214388
v -0.00683901 0.00547169 0.00420675
v -0.00990006 0.00643947 0.00240536
v -0.00988282 -0.04783257 0.00239027
v -0.00988497 -0.04104857 0.00239228
v -0.00985048 -0.05074548 0.00236311
v -0.00920378 -0.04977770 0.00271212
v -0.00682392 0.00062324 0.00419367
v -0.00682823 0.00159101 0.00419769
v -0.00683685 0.00352656 0.00420373
v -0.00683901 0.00450392 0.00420574
v -0.01093263 -0.05074548 -0.00117429
v -0.01082700 -0.05171325 -0.00117429
v -0.01074293 -0.05179949 -0.00012423
v -0.01069550 -0.05153120 0.00053758
v -0.01064808 -0.05112875 0.00118331
v -0.01021048 -0.05171325 0.00173247
v -0.01039371 -0.05078380 0.00165805
v -0.00532788 0.03455284 0.00443305
v -0.00629578 0.03357549 0.00434052
v -0.00532788 0.03541522 0.00429324
v -0.00417029 0.03603804 0.00419468
v -0.00397197 0.03698665 0.00128288
v -0.00461867 0.03693874 0.00106663
v -0.00629578 0.03669919 0.00076288
v -0.00726583 0.03650755 0.00076288
v -0.00823588 0.03610511 0.00144984
v -0.00823588 0.03629675 0.00076288
v -0.00823588 0.03641173 -0.00020671
v -0.00927276 0.03612428 -0.00027510
v -0.00920378 0.03617219 -0.00117429
v -0.00927492 0.03613386 -0.00209158
v -0.00903995 0.03611470 -0.00311347
v -0.00886750 0.03605720 -0.00373305
v -0.00920378 0.03522358 -0.00474086
v -0.00840834 0.03589431 -0.00437877
v -0.00781337 0.03506068 -0.00555757
v -0.00844498 0.03455284 -0.00542682
v -0.00920378 0.03357549 -0.00529606
v -0.00920378 0.03260771 -0.00530210
v -0.00920378 0.02873661 -0.00530210
v -0.00920378 0.02388815 -0.00530109
v -0.00920378 0.01225570 -0.00529807
v -0.00920378 0.00547169 -0.00529606
v -0.00997336 -0.00228967 -0.00484748
v -0.00920378 0.02000748 -0.00530009
v -0.00920378 0.00352656 -0.00529506
v -0.00920378 -0.00228967 -0.00529204
v -0.00920378 -0.00616077 -0.00529003
v -0.00920378 -0.04977770 -0.00526589
v -0.00992809 -0.05074548 -0.00480523
v -0.01041311 -0.05074548 -0.00415347
v -0.01066748 -0.05130123 -0.00361638
v -0.01088952 -0.05074548 -0.00214388
v -0.00629578 0.00450392 0.00434052
v -0.00920378 -0.05074548 0.00266183
v -0.00977934 -0.05171325 0.00229975
v -0.00823588 -0.05074548 0.00295151
v -0.00823588 -0.04977770 0.00298671
v -0.00629578 0.00062324 0.00432644
v -0.00629578 0.00352656 0.00433850
v -0.01078604 -0.05171325 -0.00214388
v -0.01069335 -0.05224984 -0.00214388
v -0.01071275 -0.05228817 -0.00117429
v -0.01069119 -0.05224984 -0.00039278
v -0.01065455 -0.05217318 0.00025395
v -0.01061359 -0.05179949 0.00082122
v -0.00876834 -0.05713662 0.00129395
v -0.00972114 -0.05224026 0.00224744
v -0.00435783 0.03455284 0.00444411
v -0.00144983 0.03552061 0.00441293
v -0.00241988 0.03552061 0.00439885
v -0.00338778 0.03552061 0.00437371
v -0.00532788 0.03357549 0.00443506
v -0.00443975 0.03560685 0.00429425
v -0.00338778 0.03607637 0.00422887
v -0.00241988 0.03632550 0.00367065
v -0.00338778 0.03701540 0.00134625
v -0.00241988 0.03722620 0.00076288
v -0.00338778 0.03714954 0.00076288
v -0.00432119 0.03704414 0.00075081
v -0.00498298 0.03699623 0.00041990
v -0.00531495 0.03688125 0.00075081
v -0.00629578 0.03681418 -0.00020671
v -0.00726583 0.03662254 -0.00020671
v -0.00823588 0.03645006 -0.00117429
v -0.00823588 0.03643090 -0.00214388
v -0.00823588 0.03633508 -0.00311347
v -0.00776164 0.03600929 -0.00457189
v -0.00726583 0.03655546 -0.00311347
v -0.00479759 0.03696749 -0.00354094
v -0.00726583 0.03629675 -0.00408307
v -0.00814535 0.03611470 -0.00406697
v -0.00811086 0.03548229 -0.00499432
v -0.00474801 0.03597097 -0.00551231
v -0.00726583 0.03513734 -0.00560585
v -0.00726583 0.03455284 -0.00570643
v -0.00795996 0.03455284 -0.00559177
v -0.00856570 0.03357549 -0.00549923
v -0.00857432 0.03260771 -0.00550225
v -0.00857432 0.03163994 -0.00550225
v -0.00857217 0.02292038 -0.00550125
v -0.00856786 0.01322347 -0.00550024
v -0.00856355 0.00643947 -0.00549923
v -0.00856139 0.00255878 -0.00549823
v -0.00852475 -0.04104857 -0.00548717
v -0.00851828 -0.04880035 -0.00548515
v -0.00851612 -0.04977770 -0.00548415
v -0.00844283 -0.05074548 -0.00545599
v -0.00920378 -0.05074548 -0.00520956
v -0.00985911 -0.05171325 -0.00473885
v -0.01038509 -0.05165576 -0.00399657
v -0.01062221 -0.05194322 -0.00332168
v -0.01069335 -0.05165576 -0.00304407
v -0.00532788 -0.00034454 0.00443104
v -0.00532788 0.00255878 0.00443406
v -0.00532788 0.00450392 0.00443506
v -0.00920378 -0.05171325 0.00253712
v -0.00823588 -0.05171325 0.00285294
v -0.00720332 -0.05075506 0.00314462
v -0.00726583 -0.05171325 0.00308628
v -0.00735422 -0.04977770 0.00314764
v -0.00629578 -0.00034454 0.00430732
v -0.01066317 -0.05220193 -0.00267495
v -0.00945168 -0.05656171 -0.00214388
v -0.00948402 -0.05656171 -0.00117429
v -0.00943228 -0.05656171 -0.00020671
v -0.00888905 -0.05749116 0.00068644
v -0.00873600 -0.05802774 0.00031228
v -0.00847301 -0.05778819 0.00095901
v -0.00782846 -0.05804691 0.00128389
v -0.00818415 -0.05749116 0.00137441
v -0.00338778 0.03455284 0.00444613
v -0.00047978 0.03552061 0.00441997
v -0.00435783 0.03357549 0.00444613
v -0.00047978 0.03615302 0.00427514
v -0.00144983 0.03613386 0.00426810
v -0.00241988 0.03611470 0.00425402
v -0.00144983 0.03637341 0.00367065
v -0.00241988 0.03705373 0.00142772
v -0.00144983 0.03727411 0.00076288
v -0.00241988 0.03734118 -0.00020671
v -0.00338778 0.03726453 -0.00020671
v -0.00435783 0.03714954 -0.00020671
v -0.00513603 0.03702498 -0.00020671
v -0.00562106 0.03693874 -0.00020671
v -0.00629578 0.03685250 -0.00117429
v -0.00726583 0.03666086 -0.00117429
v -0.00726583 0.03664170 -0.00214388
v -0.00532788 0.03665128 -0.00408307
v -0.00442897 0.03682376 -0.00405189
v -0.00439879 0.03626801 -0.00513413
v -0.00500669 0.03700582 -0.00289421
v -0.00442897 0.03706331 -0.00317583
v -0.00415089 0.03701540 -0.00370891
v -0.00410131 0.03603804 -0.00556763
v -0.00629578 0.03455284 -0.00578991
v -0.00629578 0.03526190 -0.00565815
v -0.00726583 0.03357549 -0.00573862
v -0.00808283 0.03357549 -0.00561591
v -0.00809145 0.03260771 -0.00561691
v -0.00808068 0.00643947 -0.00561490
v -0.00807852 0.00450392 -0.00561490
v -0.00803325 -0.04977770 -0.00560786
v -0.00795780 -0.05074548 -0.00559277
v -0.00781984 -0.05171325 -0.00555858
v -0.00775301 -0.05220193 -0.00553745
v -0.00920378 -0.05171325 -0.00508183
v -0.00977503 -0.05230733 -0.00465537
v -0.00881360 -0.05721328 -0.00369986
v -0.00921887 -0.05656171 -0.00311347
v -0.00435783 -0.00131231 0.00443204
v -0.00435783 -0.00034454 0.00444210
v -0.00683901 -0.05044844 0.00319189
v -0.00633243 -0.05075506 0.00320597
v -0.00435783 0.00255878 0.00444512
v -0.00435783 0.00450392 0.00444613
v -0.00667734 -0.05109043 0.00318183
v -0.00633243 -0.05175158 0.00317278
v -0.00726583 -0.05752948 0.00156652
v -0.00892570 -0.05753906 -0.00305111
v -0.00913264 -0.05752948 -0.00214388
v -0.00916067 -0.05752948 -0.00117429
v -0.00911109 -0.05752948 -0.00020671
v -0.00876187 -0.05804691 -0.00020671
v -0.00823588 -0.05830562 -0.00020671
v -0.00726583 -0.05873680 -0.00020671
v -0.00606297 -0.05908175 0.00050540
v -0.00818415 -0.05814273 0.00068644
v -0.00726583 -0.05849726 0.00076288
v -0.00534513 -0.05921590 0.00080211
v -0.00568141 -0.05890928 0.00115213
v -0.00503471 -0.05905301 0.00131306
v -0.00726583 -0.05814273 0.00136033
v 0.00339396 0.03455284 0.00444613
v -0.00338778 0.03357549 0.00444713
v 0.00048596 0.03552061 0.00441997
v 0.00048596 0.03615302 0.00427514
v -0.00047978 0.03640215 0.00367065
v -0.00144983 0.03708247 0.00148002
v -0.00047978 0.03730285 0.00076288
v -0.00047978 0.03742741 -0.00020671
v -0.00144983 0.03738909 -0.00020671
v -0.00241988 0.03737951 -0.00117429
v -0.00338778 0.03730285 -0.00117429
v -0.00435783 0.03718787 -0.00117429
v -0.00523950 0.03704414 -0.00117429
v -0.00572237 0.03695790 -0.00117429
v -0.00565770 0.03694832 -0.00214388
v -0.00338778 0.03686209 -0.00430233
v -0.00338778 0.03644048 -0.00505165
v -0.00517268 0.03703456 -0.00214388
v -0.00435783 0.03715912 -0.00214388
v -0.00338778 0.03727411 -0.00214388
v -0.00338778 0.03718787 -0.00311347
v -0.00241988 0.03726453 -0.00311347
v -0.00338778 0.03705373 -0.00381754
v -0.00338778 0.03606679 -0.00559680
v -0.00439879 0.03559727 -0.00566922
v -0.00241988 0.03650755 -0.00505165
v -0.00338778 0.03552061 -0.00573962
v -0.00532788 0.03455284 -0.00581908
v -0.00629578 0.03357549 -0.00579997
v -0.00726583 0.02775925 -0.00573862
v -0.00808930 0.02970439 -0.00561691
v -0.00726583 0.00450392 -0.00573560
v -0.00726583 -0.04396147 -0.00572655
v -0.00726583 -0.04880035 -0.00572554
v -0.00726583 -0.04977770 -0.00572453
v -0.00726583 -0.05074548 -0.00570542
v -0.00726583 -0.05171325 -0.00565715
v -0.00726583 -0.05227859 -0.00558272
v -0.00726583 -0.05752948 -0.00411123
v -0.00822942 -0.05753906 -0.00383061
v -0.00790176 -0.05808524 -0.00368276
v -0.00854846 -0.05786485 -0.00333274
v -0.00338778 -0.00131231 0.00443707
v -0.00532788 -0.05074548 0.00323011
v -0.00241988 -0.00131231 0.00443909
v -0.00241988 -0.00034454 0.00444411
v -0.00603279 -0.05145454 0.00319491
v -0.00338778 0.00255878 0.00444613
v -0.00338778 0.00450392 0.00444713
v -0.00435783 -0.05849726 0.00159367
v -0.00532788 -0.05208695 0.00318183
v -0.00629578 -0.05830562 0.00142671
v -0.00435783 -0.05914883 0.00138246
v -0.00874247 -0.05802774 -0.00268701
v -0.00877049 -0.05804691 -0.00214388
v -0.00878343 -0.05805649 -0.00117429
v -0.00823588 -0.05834395 -0.00117429
v -0.00726583 -0.05876555 -0.00117429
v -0.00676141 -0.05897635 -0.00117429
v -0.00671398 -0.05895719 -0.00020671
v -0.00622895 -0.05914883 -0.00020671
v -0.00532788 -0.05949378 -0.00020671
v -0.00386203 -0.05995371 0.00024992
v -0.00435783 -0.05955127 0.00076288
v -0.00347832 -0.05976207 0.00073573
v 0.00436401 0.03455284 0.00444411
v 0.00339396 0.03357549 0.00444713
v 0.00436401 0.03357549 0.00444613
v 0.00145601 0.03552061 0.00441293
v 0.00145601 0.03613386 0.00426810
v 0.00048596 0.03640215 0.00367065
v -0.00047978 0.03709206 0.00151220
v 0.00048596 0.03730285 0.00076288
v 0.00048596 0.03742741 -0.00020671
v 0.00048596 0.03746574 -0.00117429
v -0.00047978 0.03745616 -0.00117429
v -0.00144983 0.03742741 -0.00117429
v -0.00144983 0.03740826 -0.00214388
v -0.00241988 0.03735077 -0.00214388
v -0.00241988 0.03690041 -0.00439788
v -0.00241988 0.03709206 -0.00391309
v -0.00144983 0.03732202 -0.00311347
v -0.00144983 0.03655546 -0.00505165
v -0.00241988 0.03609553 -0.00561892
v -0.00144983 0.03692916 -0.00446024
v -0.00241988 0.03552061 -0.00576275
v -0.00144983 0.03552061 -0.00577482
v -0.00435783 0.03455284 -0.00582411
v -0.00532788 0.03357549 -0.00582310
v -0.00629578 0.02775925 -0.00579997
v -0.00629578 0.00062324 -0.00579695
v -0.00629578 -0.00810590 -0.00579595
v -0.00629578 -0.02553543 -0.00579393
v -0.00629578 -0.04201634 -0.00579192
v -0.00629578 -0.04977770 -0.00579092
v -0.00629578 -0.05074548 -0.00577784
v -0.00629578 -0.05171325 -0.00574767
v -0.00629578 -0.05237441 -0.00563401
v -0.00435783 -0.05849726 -0.00414643
v -0.00435783 -0.05922548 -0.00382659
v -0.00629578 -0.05840144 -0.00387989
v -0.00726583 -0.05821938 -0.00379541
v -0.00579998 -0.05897635 -0.00358620
v -0.00726583 -0.05856433 -0.00311347
v -0.00822942 -0.05817147 -0.00305111
v -0.00435783 -0.05074548 0.00323414
v -0.00532788 -0.05160785 0.00320094
v -0.00047978 -0.00131231 0.00444110
v 0.00242607 -0.00034454 0.00444411
v 0.00339396 0.00255878 0.00444613
v 0.00339396 0.00450392 0.00444713
v -0.00338778 -0.05923507 0.00142269
v -0.00338778 -0.05849726 0.00164296
v -0.00435783 -0.05213486 0.00318385
v -0.00241988 -0.05977166 0.00100629
v -0.00144983 -0.05981956 0.00110385
v -0.00726583 -0.05874639 -0.00214388
v -0.00823588 -0.05831520 -0.00214388
v -0.00673338 -0.05896677 -0.00214388
v -0.00627854 -0.05916799 -0.00117429
v -0.00532788 -0.05953210 -0.00117429
v -0.00447639 -0.05982915 -0.00117429
v -0.00430394 -0.05983873 -0.00012625
v -0.00394394 -0.05997287 -0.00039580
v -0.00347832 -0.06003995 -0.00012625
v -0.00241988 -0.06021242 -0.00020671
v -0.00321533 -0.06000162 0.00039476
v -0.00241988 -0.06005911 0.00052149
v 0.00533407 0.03455284 0.00443305
v 0.00533407 0.03357549 0.00443506
v 0.00436401 0.00450392 0.00444613
v 0.00242607 0.03552061 0.00439885
v 0.00242607 0.03611470 0.00425402
v 0.00145601 0.03637341 0.00367065
v 0.00145601 0.03708247 0.00148102
v 0.00048596 0.03709206 0.00151220
v 0.00145601 0.03727411 0.00076288
v 0.00145601 0.03738909 -0.00020671
v 0.00145601 0.03742741 -0.00117429
v 0.00145601 0.03740826 -0.00214388
v 0.00048596 0.03743701 -0.00214388
v -0.00047978 0.03743701 -0.00214388
v -0.00144983 0.03712079 -0.00397545
v -0.00047978 0.03735077 -0.00311347
v -0.00047978 0.03657463 -0.00505165
v -0.00144983 0.03611470 -0.00562999
v -0.00047978 0.03693874 -0.00449746
v -0.00047978 0.03552061 -0.00577985
v -0.00047978 0.03612428 -0.00563602
v -0.00241988 0.03455284 -0.00582612
v -0.00435783 0.03357549 -0.00582713
v -0.00532788 0.03067216 -0.00582310
v -0.00532788 -0.02748056 -0.00581606
v -0.00532788 -0.04396147 -0.00581405
v -0.00532788 -0.04977770 -0.00581304
v -0.00532788 -0.05074548 -0.00579896
v -0.00532788 -0.05171325 -0.00576577
v -0.00532788 -0.05239357 -0.00564206
v -0.00338778 -0.05849726 -0.00420779
v -0.00338778 -0.05933089 -0.00387989
v -0.00166971 -0.05992497 -0.00355703
v -0.00241988 -0.05988664 -0.00345243
v -0.00338778 -0.05981956 -0.00324926
v -0.00515327 -0.05909134 -0.00371897
v -0.00426729 -0.05969500 -0.00302295
v -0.00541627 -0.05924465 -0.00320299
v -0.00607590 -0.05908175 -0.00293947
v -0.00635830 -0.05889012 -0.00320299
v -0.00435783 -0.05164618 0.00320296
v -0.00338778 -0.05074548 0.00323514
v 0.00048596 -0.00131231 0.00444110
v 0.00242607 -0.00131231 0.00443909
v 0.00436401 -0.00034454 0.00444210
v 0.00436401 0.00255878 0.00444512
v -0.00047978 -0.05985789 0.00115917
v -0.00241988 -0.05929256 0.00142973
v -0.00144983 -0.05934047 0.00143375
v -0.00047978 -0.05937879 0.00143576
v -0.00241988 -0.05849726 0.00165201
v -0.00338778 -0.05214444 0.00318385
v -0.00144983 -0.05849726 0.00165603
v -0.00144983 -0.06010702 0.00061905
v -0.00532788 -0.05950336 -0.00214388
v -0.00443112 -0.05981956 -0.00214388
v -0.00399137 -0.05999204 -0.00117429
v -0.00338778 -0.06010702 -0.00117429
v -0.00241988 -0.06025075 -0.00117429
v -0.00144983 -0.06035615 -0.00117429
v -0.00144983 -0.06030824 -0.00020671
v 0.00630196 0.03455284 0.00433046
v 0.00630196 0.03520441 0.00423792
v 0.00533407 0.03541522 0.00429324
v 0.00339396 0.03552061 0.00437371
v 0.00630196 0.03357549 0.00434052
v 0.00533407 0.00450392 0.00443506
v 0.00339396 0.03607637 0.00422887
v 0.00242607 0.03632550 0.00367065
v 0.00242607 0.03705373 0.00142872
v 0.00242607 0.03722620 0.00076288
v 0.00242607 0.03734118 -0.00020671
v 0.00242607 0.03737951 -0.00117429
v 0.00242607 0.03735077 -0.00214388
v 0.00145601 0.03732202 -0.00311347
v 0.00048596 0.03735077 -0.00311347
v -0.00047978 0.03713037 -0.00401266
v 0.00048596 0.03713037 -0.00401367
v 0.00048596 0.03657463 -0.00505165
v 0.00048596 0.03693874 -0.00449846
v 0.00048596 0.03552061 -0.00577985
v 0.00048596 0.03612428 -0.00563602
v 0.00242607 0.03455284 -0.00582612
v -0.00338778 0.03357549 -0.00582813
v -0.00435783 0.02970439 -0.00582713
v -0.00435783 -0.03716789 -0.00581908
v -0.00435783 -0.04492925 -0.00581807
v -0.00435783 -0.04977770 -0.00581707
v -0.00435783 -0.05074548 -0.00580198
v -0.00435783 -0.05171325 -0.00576879
v -0.00435783 -0.05240315 -0.00564306
v -0.00144983 -0.05849726 -0.00422388
v -0.00241988 -0.05849726 -0.00421986
v -0.00047978 -0.05946503 -0.00392013
v -0.00241988 -0.05939796 -0.00388895
v -0.00047978 -0.05997287 -0.00362342
v -0.00102301 -0.05995371 -0.00360330
v -0.00138732 -0.06008786 -0.00318589
v -0.00241988 -0.06006870 -0.00296763
v -0.00338778 -0.05999204 -0.00276446
v -0.00388358 -0.05995371 -0.00263974
v -0.00338778 -0.05165576 0.00320296
v 0.00339396 -0.05074548 0.00323514
v 0.00339396 -0.00131231 0.00443707
v 0.00436401 -0.05074548 0.00323414
v 0.00436401 -0.00131231 0.00443204
v 0.00533407 -0.00034454 0.00443104
v 0.00533407 0.00159101 0.00443305
v 0.00048596 -0.05986747 0.00115917
v -0.00047978 -0.06014535 0.00067437
v 0.00048596 -0.05937879 0.00143576
v -0.00047978 -0.05849726 0.00165805
v 0.00339396 -0.05214444 0.00318385
v -0.00047978 -0.06037532 -0.00020671
v -0.00394825 -0.05997287 -0.00214388
v -0.00338778 -0.06007828 -0.00214388
v -0.00241988 -0.06022200 -0.00214388
v -0.00144983 -0.06032741 -0.00214388
v -0.00047978 -0.06041365 -0.00117429
v 0.00683441 0.03455284 0.00419669
v 0.00681070 0.03507026 0.00417657
v 0.00684519 0.03357549 0.00420675
v 0.00482102 0.03599013 0.00412025
v 0.00417431 0.03603804 0.00419468
v 0.00444377 0.03560685 0.00429425
v 0.00630196 0.00450392 0.00434052
v 0.00339396 0.03701540 0.00134625
v 0.00339396 0.03714954 0.00076288
v 0.00397815 0.03698665 0.00128288
v 0.00339396 0.03726453 -0.00020671
v 0.00339396 0.03730285 -0.00117429
v 0.00339396 0.03727411 -0.00214388
v 0.00242607 0.03726453 -0.00311347
v 0.00242607 0.03709206 -0.00391409
v 0.00145601 0.03712079 -0.00397645
v 0.00145601 0.03655546 -0.00505165
v 0.00145601 0.03611470 -0.00562999
v 0.00145601 0.03692916 -0.00446125
v 0.00145601 0.03552061 -0.00577482
v 0.00436401 0.03455284 -0.00582411
v 0.00436401 0.03357549 -0.00582713
v 0.00339396 0.03357549 -0.00582813
v -0.00338778 0.02485593 -0.00582713
v -0.00338778 -0.00907368 -0.00582310
v -0.00338778 -0.04201634 -0.00581908
v -0.00338778 -0.04977770 -0.00581807
v -0.00338778 -0.05074548 -0.00580299
v 0.00436401 -0.05171325 -0.00576879
v 0.00436401 -0.05240315 -0.00564306
v -0.00047978 -0.05849726 -0.00422690
v 0.00048596 -0.05946503 -0.00391912
v 0.00048596 -0.05997287 -0.00362241
v 0.00048596 -0.06017409 -0.00311347
v -0.00047978 -0.06017409 -0.00311347
v 0.00339396 -0.05165576 0.00320296
v 0.00436401 -0.05164618 0.00320296
v 0.00533407 -0.05074548 0.00323011
v 0.00533407 -0.05160785 0.00320094
v 0.00637310 -0.05080297 0.00320597
v 0.00630196 -0.00034454 0.00430833
v 0.00630196 0.00062324 0.00432644
v 0.00630196 0.00352656 0.00433850
v 0.00674387 -0.05116708 0.00318485
v 0.00684519 -0.05051551 0.00319189
v 0.00736040 -0.04977770 0.00314764
v 0.00145601 -0.05981956 0.00110385
v 0.00339396 -0.05923507 0.00142269
v 0.00242607 -0.05929256 0.00142973
v 0.00145601 -0.05934047 0.00143375
v 0.00048596 -0.06014535 0.00067538
v 0.00145601 -0.06011661 0.00062006
v 0.00339396 -0.05849726 0.00164296
v 0.00242607 -0.05849726 0.00165201
v 0.00145601 -0.05849726 0.00165603
v 0.00048596 -0.05849726 0.00165805
v 0.00436401 -0.05213486 0.00318385
v 0.00048596 -0.06042323 -0.00117429
v 0.00048596 -0.06037532 -0.00020671
v -0.00047978 -0.06038490 -0.00214388
v 0.00990624 0.03357549 0.00240536
v 0.00983295 0.03437078 0.00233998
v 0.00967559 0.03501277 0.00220319
v 0.00923799 0.03553020 0.00175360
v 0.00880038 0.03602846 0.00130300
v 0.00991056 0.03260771 0.00240837
v 0.00684519 0.00547169 0.00420675
v 0.00824207 0.03610511 0.00144984
v 0.00727201 0.03650755 0.00076288
v 0.00630196 0.03669919 0.00076288
v 0.00462485 0.03693874 0.00106663
v 0.00684519 0.00450392 0.00420574
v 0.00432521 0.03704414 0.00075081
v 0.00436401 0.03714954 -0.00020671
v 0.00436401 0.03718787 -0.00117429
v 0.00436401 0.03715912 -0.00214388
v 0.00443515 0.03706331 -0.00317583
v 0.00339396 0.03718787 -0.00311347
v 0.00415707 0.03701540 -0.00370891
v 0.00339396 0.03705373 -0.00381754
v 0.00242607 0.03690041 -0.00439889
v 0.00242607 0.03650755 -0.00505165
v 0.00339396 0.03606679 -0.00559680
v 0.00242607 0.03609553 -0.00561892
v 0.00242607 0.03552061 -0.00576175
v 0.00533407 0.03455284 -0.00581908
v 0.00533407 0.03357549 -0.00582310
v 0.00436401 0.02970439 -0.00582713
v 0.00339396 0.02485593 -0.00582713
v 0.00339396 -0.00907368 -0.00582310
v 0.00339396 -0.04201634 -0.00581908
v 0.00339396 -0.04977770 -0.00581807
v 0.00339396 -0.05074548 -0.00580299
v 0.00436401 -0.05074548 -0.00580198
v 0.00533407 -0.05171325 -0.00576477
v 0.00533407 -0.05239357 -0.00564105
v 0.00242607 -0.05849726 -0.00421986
v 0.00145601 -0.05849726 -0.00422388
v 0.00048596 -0.05849726 -0.00422589
v 0.00242607 -0.05939796 -0.00388794
v 0.00339396 -0.05849726 -0.00420779
v 0.00339396 -0.05933089 -0.00387989
v 0.00101626 -0.05995371 -0.00360129
v 0.00145601 -0.06032741 -0.00214388
v 0.00048596 -0.06038490 -0.00214388
v 0.00138488 -0.06008786 -0.00318589
v 0.00242607 -0.06006870 -0.00296663
v 0.00609717 -0.05145454 0.00319491
v 0.00533407 -0.05208695 0.00318183
v 0.00824207 -0.04977770 0.00298671
v 0.00683010 0.00062324 0.00419367
v 0.00683441 0.00159101 0.00419769
v 0.00684304 0.00352656 0.00420373
v 0.00720950 -0.05080297 0.00314261
v 0.00637310 -0.05175158 0.00317379
v 0.00727201 -0.05171325 0.00308327
v 0.00242607 -0.05977166 0.00100729
v 0.00436401 -0.05914883 0.00138246
v 0.00436401 -0.05849726 0.00159367
v 0.00145601 -0.06030824 -0.00020671
v 0.00242607 -0.06005911 0.00052250
v 0.00145601 -0.06035615 -0.00117429
v 0.01039127 0.03357549 0.00181495
v 0.01039558 0.03260771 0.00181998
v 0.01069522 0.03413124 0.00129897
v 0.00987175 0.03523316 0.00155646
v 0.00946864 0.03589431 0.00076288
v 0.00898362 0.03608595 0.00076288
v 0.00824207 0.03629675 0.00076288
v 0.00991056 0.02775925 0.00240837
v 0.00990624 0.00352656 0.00240435
v 0.00990624 0.00643947 0.00240536
v 0.00990840 0.01515902 0.00240636
v 0.00988900 -0.04783257 0.00239027
v 0.00989547 -0.03038388 0.00239530
v 0.00989762 -0.02359988 0.00239731
v 0.00727201 0.03662254 -0.00020671
v 0.00630196 0.03681418 -0.00020671
v 0.00498916 0.03699623 0.00041990
v 0.00532113 0.03688125 0.00075081
v 0.00988684 -0.04977770 0.00238926
v 0.00988900 -0.04880035 0.00238926
v 0.00514221 0.03702498 -0.00020671
v 0.00524568 0.03704414 -0.00117429
v 0.00517886 0.03703456 -0.00214388
v 0.00501287 0.03700582 -0.00289421
v 0.00480377 0.03696749 -0.00354094
v 0.00533407 0.03665128 -0.00408307
v 0.00443515 0.03682376 -0.00405189
v 0.00339396 0.03686209 -0.00430233
v 0.00339396 0.03644048 -0.00505165
v 0.00410533 0.03603804 -0.00556763
v 0.00440282 0.03559727 -0.00566922
v 0.00339396 0.03552061 -0.00573962
v 0.00630196 0.03455284 -0.00579092
v 0.00630196 0.03357549 -0.00579997
v 0.00533407 0.03067216 -0.00582310
v 0.00436401 -0.03716789 -0.00581908
v 0.00436401 -0.04977770 -0.00581707
v 0.00436401 -0.04492925 -0.00581807
v 0.00533407 -0.05074548 -0.00579796
v 0.00630196 -0.05171325 -0.00574566
v 0.00630196 -0.05237441 -0.00563401
v 0.00436401 -0.05849726 -0.00414543
v 0.00436401 -0.05922548 -0.00382558
v 0.00166080 -0.05992497 -0.00355703
v 0.00242607 -0.06026033 -0.00117429
v 0.00242607 -0.06022200 -0.00214388
v 0.00339396 -0.05999204 -0.00276245
v 0.00242607 -0.05988664 -0.00345042
v 0.00339396 -0.05980998 -0.00324725
v 0.00824207 -0.05074548 0.00294446
v 0.00920996 -0.04977770 0.00271212
v 0.00727201 -0.05752948 0.00156752
v 0.00824207 -0.05171325 0.00284590
v 0.00819033 -0.05749116 0.00137441
v 0.00348450 -0.05976207 0.00073673
v 0.00504305 -0.05905301 0.00131306
v 0.00727201 -0.05815231 0.00136033
v 0.00242607 -0.06021242 -0.00020671
v 0.00322151 -0.06000162 0.00039677
v 0.01071247 0.03357549 0.00133015
v 0.01039558 0.03163994 0.00181998
v 0.01071462 0.03260771 0.00133518
v 0.01074049 0.03424622 0.00076288
v 0.01049474 0.03473490 0.00076288
v 0.01082240 0.03357549 0.00076288
v 0.01093881 0.03357549 -0.00020671
v 0.01000972 0.03540563 0.00076288
v 0.00964325 0.03598055 -0.00004176
v 0.00927679 0.03612428 -0.00030126
v 0.00824207 0.03641173 -0.00020671
v 0.01039558 0.02775925 0.00181897
v 0.01039127 0.00450392 0.00181193
v 0.00990193 -0.01100922 0.00240033
v 0.00989115 -0.04298412 0.00239127
v 0.01037402 -0.04783257 0.00179081
v 0.01038696 -0.00907368 0.00180690
v 0.00727201 0.03666086 -0.00117429
v 0.00630196 0.03685250 -0.00117429
v 0.00562724 0.03693874 -0.00020671
v 0.00985882 -0.05074548 0.00236311
v 0.01037187 -0.04977770 0.00178981
v 0.00572855 0.03695790 -0.00117429
v 0.00566388 0.03694832 -0.00214388
v 0.00727201 0.03664170 -0.00214388
v 0.00727201 0.03655546 -0.00311347
v 0.00727201 0.03629675 -0.00408307
v 0.00776782 0.03600929 -0.00457189
v 0.00887152 0.03605720 -0.00373204
v 0.00533407 0.03622010 -0.00493297
v 0.00440282 0.03626801 -0.00513413
v 0.00475203 0.03596138 -0.00551231
v 0.00727201 0.03513734 -0.00560384
v 0.00630196 0.03526190 -0.00565916
v 0.00727201 0.03455284 -0.00570442
v 0.00727201 0.03357549 -0.00573761
v 0.00727201 0.03260771 -0.00573862
v 0.00630196 0.02775925 -0.00579997
v 0.00630196 0.00159101 -0.00579695
v 0.00630196 -0.01584810 -0.00579494
v 0.00630196 -0.04977770 -0.00579092
v 0.00533407 -0.02748056 -0.00581606
v 0.00533407 -0.04396147 -0.00581405
v 0.00533407 -0.04977770 -0.00581304
v 0.00630196 -0.05074548 -0.00577583
v 0.00727201 -0.05074548 -0.00570744
v 0.00727201 -0.05171325 -0.00565916
v 0.00727201 -0.05227859 -0.00558272
v 0.00727201 -0.05752948 -0.00411022
v 0.00630196 -0.05839186 -0.00387989
v 0.00727201 -0.05820980 -0.00379440
v 0.00515299 -0.05909134 -0.00371796
v 0.00339396 -0.06007828 -0.00214388
v 0.00339396 -0.06010702 -0.00117429
v 0.00388977 -0.05995371 -0.00263874
v 0.00427348 -0.05969500 -0.00302295
v 0.00920996 -0.05074548 0.00265882
v 0.00783464 -0.05804691 0.00128389
v 0.00972732 -0.05224026 0.00224744
v 0.00920996 -0.05171325 0.00253611
v 0.00877452 -0.05713662 0.00129395
v 0.00386605 -0.05995371 0.00025093
v 0.00436401 -0.05955127 0.00076288
v 0.00568975 -0.05890928 0.00115414
v 0.00535347 -0.05921590 0.00080412
v 0.00348450 -0.06003995 -0.00012625
v 0.01082887 0.03260771 0.00076288
v 0.01071462 0.03067216 0.00133518
v 0.01079869 0.03438036 -0.00020671
v 0.01058097 0.03486904 -0.00020671
v 0.01094743 0.03260771 -0.00020671
v 0.01100348 0.03357549 -0.00117429
v 0.01101426 0.03260771 -0.00117429
v 0.01001618 0.03559727 -0.00030126
v 0.00969499 0.03599971 -0.00068748
v 0.00920996 0.03617219 -0.00117429
v 0.00824207 0.03645006 -0.00117429
v 0.01071462 0.02582370 0.00133317
v 0.01071462 0.02775925 0.00133418
v 0.01071031 0.00062324 0.00132613
v 0.01069953 -0.04492925 0.00130702
v 0.01070169 -0.03716789 0.00131004
v 0.01070384 -0.02651278 0.00131507
v 0.01070815 -0.00907368 0.00132211
v 0.01069738 -0.04977770 0.00130501
v 0.01069953 -0.04589702 0.00130601
v 0.01039989 -0.05078380 0.00165805
v 0.00978768 -0.05171325 0.00230075
v 0.01068660 -0.05048677 0.00128590
v 0.00824207 0.03643090 -0.00214388
v 0.00824207 0.03633508 -0.00311347
v 0.00815153 0.03611470 -0.00406597
v 0.00841452 0.03589431 -0.00437877
v 0.00920996 0.03522358 -0.00474086
v 0.00811273 0.03548229 -0.00499432
v 0.00780878 0.03506068 -0.00555455
v 0.00953547 0.03593264 -0.00311347
v 0.00920134 0.03571225 -0.00406597
v 0.00905044 0.03611470 -0.00311347
v 0.00795752 0.03455284 -0.00558875
v 0.00808901 0.03357549 -0.00561591
v 0.00809548 0.03260771 -0.00561691
v 0.00727201 0.02679148 -0.00573862
v 0.00727201 -0.04977770 -0.00572554
v 0.00727201 0.00450392 -0.00573560
v 0.00803943 -0.04977770 -0.00560786
v 0.00797692 -0.05074548 -0.00559780
v 0.00783896 -0.05171325 -0.00556260
v 0.00775920 -0.05220193 -0.00553745
v 0.00823344 -0.05753906 -0.00382961
v 0.00790578 -0.05808524 -0.00368175
v 0.00579969 -0.05897635 -0.00358017
v 0.00395228 -0.05997287 -0.00214388
v 0.00399755 -0.05999204 -0.00117429
v 0.00395012 -0.05997287 -0.00039580
v 0.00541814 -0.05924465 -0.00319897
v 0.00608208 -0.05908175 -0.00293344
v 0.00533407 -0.05950336 -0.00214388
v 0.00443731 -0.05981956 -0.00214388
v 0.00607130 -0.05908175 0.00050841
v 0.00727201 -0.05849726 0.00076288
v 0.00819033 -0.05814273 0.00068644
v 0.00874218 -0.05802774 0.00031228
v 0.00848134 -0.05778819 0.00095901
v 0.01021666 -0.05171325 0.00173247
v 0.00889523 -0.05749116 0.00068644
v 0.01061977 -0.05178991 0.00082122
v 0.01065426 -0.05112875 0.00118230
v 0.00431012 -0.05983873 -0.00012625
v 0.00533407 -0.05949378 -0.00020671
v 0.01082887 0.02873661 0.00076288
v 0.01082887 0.03445702 -0.00117429
v 0.01062193 0.03493612 -0.00117429
v 0.01094743 0.03067216 -0.00020671
v 0.01096252 0.03357549 -0.00214388
v 0.01080947 0.03440911 -0.00214388
v 0.01100564 0.00450392 -0.00117429
v 0.01097115 0.02873661 -0.00214388
v 0.01097115 0.03260771 -0.00214388
v 0.01014337 0.03552061 -0.00117429
v 0.00970361 0.03600929 -0.00117429
v 0.00970577 0.03600929 -0.00176771
v 0.00928541 0.03613386 -0.00211270
v 0.01079654 -0.04977770 0.00076288
v 0.01079869 -0.04589702 0.00076288
v 0.01080732 -0.02651278 0.00076288
v 0.01082025 0.00352656 0.00076288
v 0.01073833 -0.05078380 0.00082122
v 0.00972086 0.03506068 -0.00459603
v 0.00920996 0.03455284 -0.00510295
v 0.00844254 0.03455284 -0.00542682
v 0.00965834 0.03599013 -0.00241444
v 0.01005283 0.03544396 -0.00311347
v 0.00987175 0.03523316 -0.00408307
v 0.00920996 0.03357549 -0.00529707
v 0.00857188 0.03357549 -0.00549923
v 0.00858051 0.03260771 -0.00550225
v 0.00809548 0.02873661 -0.00561691
v 0.00808470 0.00450392 -0.00561490
v 0.00808686 0.00643947 -0.00561490
v 0.00853093 -0.04104857 -0.00548717
v 0.00852446 -0.04880035 -0.00548515
v 0.00852230 -0.04977770 -0.00548415
v 0.00857404 0.01225570 -0.00550024
v 0.00856973 0.00643947 -0.00549923
v 0.00856757 0.00255878 -0.00549823
v 0.00846194 -0.05074548 -0.00545699
v 0.00920996 -0.05074548 -0.00520956
v 0.00920996 -0.05171325 -0.00507982
v 0.00881979 -0.05722286 -0.00369986
v 0.00823344 -0.05816189 -0.00305011
v 0.00727201 -0.05856433 -0.00311347
v 0.00855248 -0.05786485 -0.00333073
v 0.00874865 -0.05802774 -0.00268400
v 0.00636448 -0.05889012 -0.00319897
v 0.00448258 -0.05982915 -0.00117429
v 0.00673741 -0.05896677 -0.00214388
v 0.00533407 -0.05953210 -0.00117429
v 0.00623729 -0.05914883 -0.00020671
v 0.00672232 -0.05895719 -0.00020671
v 0.00727201 -0.05873680 -0.00020671
v 0.00824207 -0.05830562 -0.00020671
v 0.00876805 -0.05804691 -0.00020671
v 0.00911942 -0.05752948 -0.00020671
v 0.00943846 -0.05656171 -0.00020671
v 0.01066073 -0.05217318 0.00025194
v 0.01070169 -0.05153120 0.00053658
v 0.01093881 0.00352656 -0.00020671
v 0.01060253 0.03489779 -0.00214388
v 0.01003990 0.03560685 -0.00211270
v 0.01085689 0.03357549 -0.00311347
v 0.01075773 0.03428455 -0.00311347
v 0.01099917 -0.01100922 -0.00117429
v 0.01096252 0.00159101 -0.00214388
v 0.01086336 0.03067216 -0.00311347
v 0.01086336 0.03260771 -0.00311347
v 0.01087198 -0.05074548 -0.00020671
v 0.01091510 -0.04977770 -0.00020671
v 0.01091725 -0.04686480 -0.00020671
v 0.01092157 -0.03716789 -0.00020671
v 0.01033738 0.03451451 -0.00404183
v 0.00985666 0.03455284 -0.00472779
v 0.00998169 0.03357549 -0.00484949
v 0.01053786 0.03477323 -0.00311347
v 0.01071031 0.03416956 -0.00369080
v 0.00998600 0.03260771 -0.00485250
v 0.00920996 0.03260771 -0.00530210
v 0.00858051 0.03163994 -0.00550225
v 0.00857835 0.02292038 -0.00550125
v 0.00920996 0.00159101 -0.00529405
v 0.00920996 -0.04977770 -0.00526589
v 0.00920996 0.01128792 -0.00529807
v 0.00920996 0.00547169 -0.00529606
v 0.00920996 0.02388815 -0.00530109
v 0.00920996 0.00352656 -0.00529506
v 0.00993211 -0.05074548 -0.00480523
v 0.00986313 -0.05171325 -0.00473784
v 0.00977906 -0.05230733 -0.00465436
v 0.00922505 -0.05656171 -0.00311347
v 0.00893188 -0.05753906 -0.00305011
v 0.01038911 -0.05165576 -0.00399657
v 0.01062839 -0.05194322 -0.00332268
v 0.00727201 -0.05874639 -0.00214388
v 0.00913667 -0.05752948 -0.00214388
v 0.00877667 -0.05804691 -0.00214388
v 0.00824207 -0.05831520 -0.00214388
v 0.00727201 -0.05877513 -0.00117429
v 0.00676974 -0.05897635 -0.00117429
v 0.00628472 -0.05916799 -0.00117429
v 0.00824207 -0.05834395 -0.00117429
v 0.00878961 -0.05805649 -0.00117429
v 0.00916685 -0.05752948 -0.00117429
v 0.00949020 -0.05656171 -0.00117429
v 0.01069738 -0.05224984 -0.00039379
v 0.01074911 -0.05178991 -0.00012524
v 0.01073402 0.03357549 -0.00374210
v 0.01098624 -0.04104857 -0.00117429
v 0.01094312 -0.04396147 -0.00214388
v 0.01095390 -0.01875142 -0.00214388
v 0.01085474 0.00352656 -0.00311347
v 0.01083318 -0.04783257 -0.00311347
v 0.01084181 -0.02748056 -0.00311347
v 0.01073618 0.02388815 -0.00374512
v 0.01073618 0.02679148 -0.00374612
v 0.01073618 0.02970439 -0.00374713
v 0.01072324 -0.04298412 -0.00371696
v 0.01072540 -0.03329679 -0.00372098
v 0.01073187 -0.00228967 -0.00373506
v 0.01073618 0.03260771 -0.00374713
v 0.01083318 -0.05171325 -0.00117429
v 0.01093666 -0.05074548 -0.00117429
v 0.01098192 -0.04977770 -0.00117429
v 0.01098408 -0.04589702 -0.00117429
v 0.01046672 0.03357549 -0.00422690
v 0.01047103 0.03260771 -0.00423193
v 0.00998600 0.02873661 -0.00485250
v 0.00920996 0.02873661 -0.00530210
v 0.00996445 -0.04880035 -0.00483339
v 0.00996229 -0.04977770 -0.00483239
v 0.00998169 0.00547169 -0.00484949
v 0.00998385 0.01903970 -0.00485150
v 0.01044732 -0.04977770 -0.00419873
v 0.01041714 -0.05074548 -0.00415347
v 0.00945786 -0.05656171 -0.00214388
v 0.01067366 -0.05130123 -0.00361537
v 0.01069953 -0.05165576 -0.00304508
v 0.01066935 -0.05220193 -0.00267696
v 0.01069953 -0.05224984 -0.00214388
v 0.01071893 -0.05228817 -0.00117429
v 0.01094097 -0.04880035 -0.00214388
v 0.01072109 -0.04977770 -0.00371394
v 0.01083103 -0.04977770 -0.00311347
v 0.01047103 0.03067216 -0.00423193
v 0.01073187 -0.00131231 -0.00373607
v 0.01046672 0.00643947 -0.00422388
v 0.01072540 -0.03232901 -0.00372198
v 0.01046456 0.00062324 -0.00422187
v 0.01079223 -0.05171325 -0.00214388
v 0.01089570 -0.05074548 -0.00214388
v 0.01093881 -0.04977770 -0.00214388
v 0.01044947 -0.04783257 -0.00419974
v 0.01069953 -0.05074548 -0.00366868
v 0.01078791 -0.05074548 -0.00311347
f 1 2 3
f 1 3 4
f 1 4 5
f 1 5 6
f 1 6 7
f 1 7 8
f 1 8 9
f 1 9 10
f 1 10 2
f 2 11 14
f 2 14 3
f 2 10 12
f 2 12 13
f 2 13 11
f 3 14 15
f 3 15 4
f 4 15 16
f 4 16 17
f 4 17 18
f 4 18 5
f 5 18 19
f 5 19 20
f 5 20 6
f 6 20 21
f 6 21 22
f 6 22 7
f 7 22 23
f 7 23 24
f 7 24 8
f 8 24 26
f 8 26 9
f 9 25 10
f 9 26 27
f 9 27 28
f 9 28 29
f 9 29 25
f 10 25 33
f 10 33 12
f 11 30 31
f 11 31 37
f 11 37 14
f 11 13 32
f 11 32 30
f 12 33 13
f 13 33 34
f 13 34 62
f 13 62 35
f 13 35 36
f 13 36 32
f 14 37 38
f 14 38 15
f 15 38 16
f 16 39 40
f 16 40 41
f 16 41 42
f 16 42 17
f 16 38 43
f 16 43 39
f 17 42 44
f 17 44 18
f 18 44 45
f 18 45 19
f 19 45 46
f 19 46 20
f 20 46 21
f 21 47 22
f 21 46 48
f 21 48 47
f 22 47 49
f 22 49 23
f 23 49 50
f 23 50 51
f 23 51 24
f 24 51 52
f 24 52 53
f 24 53 54
f 24 54 26
f 25 29 55
f 25 55 34
f 25 34 33
f 26 54 56
f 26 56 27
f 27 56 28
f 28 56 57
f 28 57 58
f 28 58 29
f 29 58 55
f 30 59 31
f 30 32 59
f 31 60 69
f 31 69 37
f 31 59 60
f 32 61 59
f 32 36 61
f 34 55 62
f 35 62 63
f 35 63 36
f 36 63 64
f 36 64 65
f 36 65 66
f 36 66 67
f 36 67 68
f 36 68 61
f 37 69 38
f 38 69 43
f 39 70 40
f 39 43 71
f 39 71 70
f 40 70 72
f 40 72 41
f 41 72 73
f 41 73 74
f 41 74 42
f 42 74 44
f 43 69 71
f 44 74 75
f 44 75 45
f 45 75 76
f 45 76 77
f 45 77 46
f 46 77 78
f 46 78 48
f 47 48 79
f 47 79 80
f 47 80 81
f 47 81 82
f 47 82 49
f 48 78 79
f 49 82 83
f 49 83 50
f 50 83 84
f 50 84 51
f 51 84 52
f 52 84 85
f 52 85 86
f 52 86 54
f 52 54 53
f 54 86 56
f 55 58 87
f 55 87 62
f 56 88 85
f 56 85 89
f 56 89 90
f 56 90 91
f 56 91 92
f 56 92 57
f 56 86 88
f 57 92 93
f 57 93 94
f 57 94 58
f 58 94 87
f 59 95 60
f 59 61 96
f 59 96 97
f 59 97 98
f 59 98 95
f 60 95 107
f 60 107 69
f 61 97 96
f 61 68 99
f 61 99 100
f 61 100 97
f 62 87 101
f 62 101 102
f 62 102 64
f 62 64 63
f 64 102 103
f 64 103 104
f 64 104 105
f 64 105 65
f 65 105 106
f 65 106 66
f 66 106 99
f 66 99 67
f 67 99 68
f 69 107 71
f 70 71 108
f 70 108 109
f 70 109 110
f 70 110 111
f 70 111 112
f 70 112 72
f 71 113 108
f 71 107 113
f 72 112 73
f 73 112 114
f 73 114 115
f 73 115 74
f 74 115 75
f 75 115 116
f 75 116 76
f 76 116 117
f 76 117 118
f 76 118 77
f 77 118 119
f 77 119 78
f 78 119 120
f 78 120 79
f 79 120 121
f 79 121 122
f 79 122 80
f 80 122 81
f 81 123 124
f 81 124 82
f 81 122 123
f 82 124 83
f 83 124 125
f 83 125 126
f 83 126 84
f 84 126 127
f 84 127 85
f 85 88 86
f 85 127 128
f 85 128 129
f 85 129 130
f 85 130 89
f 87 94 101
f 89 130 90
f 90 130 131
f 90 131 132
f 90 132 91
f 91 132 130
f 91 130 133
f 91 133 92
f 92 133 134
f 92 134 93
f 93 134 135
f 93 135 189
f 93 189 136
f 93 136 94
f 94 136 101
f 95 98 137
f 95 137 113
f 95 113 107
f 97 137 138
f 97 138 98
f 97 100 137
f 98 138 137
f 99 139 140
f 99 140 100
f 99 106 141
f 99 141 142
f 99 142 143
f 99 143 144
f 99 144 145
f 99 145 146
f 99 146 137
f 99 137 139
f 100 140 137
f 101 136 189
f 101 189 147
f 101 147 103
f 101 103 102
f 103 147 148
f 103 148 149
f 103 149 150
f 103 150 104
f 104 150 151
f 104 151 105
f 105 151 152
f 105 152 153
f 105 153 106
f 106 153 141
f 108 113 109
f 109 154 110
f 109 113 155
f 109 155 154
f 110 154 156
f 110 156 111
f 111 156 157
f 111 157 158
f 111 158 159
f 111 159 160
f 111 160 161
f 111 161 162
f 111 162 112
f 112 162 161
f 112 161 163
f 112 163 114
f 113 137 190
f 113 190 155
f 114 163 164
f 114 164 165
f 114 165 115
f 115 165 116
f 116 165 166
f 116 166 117
f 117 166 118
f 118 166 167
f 118 167 119
f 119 167 168
f 119 168 120
f 120 168 169
f 120 169 121
f 121 170 122
f 121 169 171
f 121 171 170
f 122 172 123
f 122 170 172
f 123 172 173
f 123 173 174
f 123 174 124
f 124 174 175
f 124 175 125
f 125 175 176
f 125 176 126
f 126 176 177
f 126 177 127
f 127 178 179
f 127 179 180
f 127 180 128
f 127 177 181
f 127 181 178
f 128 180 130
f 128 130 129
f 130 180 179
f 130 179 182
f 130 182 183
f 130 183 184
f 130 184 185
f 130 185 186
f 130 186 133
f 130 132 131
f 133 186 187
f 133 187 134
f 134 187 188
f 134 188 135
f 135 188 189
f 137 146 190
f 137 140 139
f 141 191 142
f 141 153 192
f 141 192 191
f 142 191 193
f 142 193 194
f 142 194 143
f 143 195 144
f 143 194 195
f 144 195 145
f 145 195 196
f 145 196 146
f 146 196 190
f 147 189 197
f 147 197 148
f 148 197 198
f 148 198 199
f 148 199 200
f 148 200 149
f 149 200 201
f 149 201 150
f 150 201 151
f 151 201 202
f 151 202 203
f 151 203 152
f 152 204 192
f 152 192 153
f 152 203 204
f 154 205 206
f 154 206 207
f 154 207 208
f 154 208 156
f 154 155 209
f 154 209 270
f 154 270 205
f 155 190 252
f 155 252 209
f 156 208 210
f 156 210 157
f 157 210 211
f 157 211 212
f 157 212 213
f 157 213 158
f 158 213 214
f 158 214 215
f 158 215 216
f 158 216 159
f 159 216 217
f 159 217 218
f 159 218 160
f 160 219 220
f 160 220 161
f 160 218 217
f 160 217 219
f 161 220 164
f 161 164 163
f 164 220 283
f 164 283 221
f 164 221 165
f 165 221 166
f 166 221 167
f 167 221 222
f 167 222 168
f 168 222 223
f 168 223 169
f 169 224 171
f 169 223 225
f 169 225 226
f 169 226 227
f 169 227 228
f 169 228 224
f 170 171 229
f 170 229 172
f 171 224 229
f 172 229 224
f 172 224 230
f 172 230 231
f 172 231 232
f 172 232 233
f 172 233 173
f 173 233 174
f 174 233 234
f 174 234 175
f 175 234 235
f 175 235 236
f 175 236 176
f 176 236 237
f 176 237 177
f 177 237 238
f 177 238 181
f 178 238 179
f 178 181 238
f 179 238 239
f 179 239 240
f 179 240 182
f 182 240 183
f 183 240 184
f 184 240 241
f 184 241 242
f 184 242 185
f 185 242 243
f 185 243 244
f 185 244 245
f 185 245 186
f 186 245 246
f 186 246 187
f 187 246 247
f 187 247 188
f 188 247 248
f 188 248 249
f 188 249 189
f 189 249 197
f 190 196 250
f 190 250 251
f 190 251 252
f 191 192 253
f 191 253 254
f 191 254 193
f 192 204 253
f 193 255 194
f 193 254 256
f 193 256 255
f 194 255 257
f 194 257 195
f 195 257 258
f 195 258 250
f 195 250 196
f 197 259 198
f 197 249 259
f 198 259 260
f 198 260 261
f 198 261 199
f 199 261 200
f 200 261 262
f 200 262 201
f 201 262 202
f 202 262 263
f 202 263 203
f 203 263 264
f 203 264 265
f 203 265 266
f 203 266 267
f 203 267 254
f 203 254 204
f 204 254 253
f 205 268 269
f 205 269 206
f 205 270 268
f 206 269 271
f 206 271 272
f 206 272 207
f 207 272 273
f 207 273 208
f 208 273 211
f 208 211 210
f 209 252 312
f 209 312 270
f 211 273 274
f 211 274 212
f 212 274 275
f 212 275 213
f 213 275 214
f 214 276 338
f 214 338 277
f 214 277 278
f 214 278 215
f 214 275 276
f 215 278 216
f 216 278 279
f 216 279 217
f 217 279 280
f 217 280 281
f 217 281 219
f 219 281 282
f 219 282 283
f 219 283 220
f 221 283 284
f 221 284 222
f 222 284 225
f 222 225 223
f 224 228 227
f 224 227 226
f 224 226 285
f 224 285 286
f 224 286 287
f 224 287 230
f 225 284 288
f 225 288 226
f 226 288 289
f 226 289 290
f 226 290 285
f 230 287 291
f 230 291 231
f 231 292 232
f 231 291 293
f 231 293 292
f 232 292 294
f 232 294 295
f 232 295 233
f 233 295 234
f 234 295 235
f 235 295 296
f 235 296 236
f 236 296 237
f 237 296 297
f 237 297 238
f 238 297 298
f 238 298 239
f 239 298 299
f 239 299 240
f 240 299 241
f 241 299 242
f 242 299 243
f 243 299 300
f 243 300 244
f 244 300 301
f 244 301 302
f 244 302 245
f 245 302 303
f 245 303 246
f 246 303 304
f 246 304 247
f 247 304 305
f 247 305 248
f 248 259 249
f 248 305 306
f 248 306 260
f 248 260 259
f 250 307 308
f 250 308 311
f 250 311 251
f 250 258 257
f 250 257 255
f 250 255 309
f 250 309 310
f 250 310 307
f 251 311 312
f 251 312 252
f 254 267 256
f 255 256 313
f 255 313 309
f 256 314 313
f 256 267 315
f 256 315 314
f 260 306 316
f 260 316 317
f 260 317 261
f 261 317 318
f 261 318 319
f 261 319 262
f 262 319 263
f 263 319 264
f 264 319 320
f 264 320 321
f 264 321 322
f 264 322 323
f 264 323 324
f 264 324 266
f 264 266 265
f 266 315 267
f 266 324 325
f 266 325 323
f 266 323 326
f 266 326 327
f 266 327 328
f 266 328 329
f 266 329 315
f 268 330 332
f 268 332 269
f 268 270 331
f 268 331 396
f 268 396 330
f 269 332 333
f 269 333 271
f 270 312 378
f 270 378 331
f 271 333 400
f 271 400 334
f 271 334 272
f 272 334 273
f 273 334 274
f 274 334 335
f 274 335 275
f 275 335 276
f 276 336 337
f 276 337 338
f 276 335 336
f 277 338 406
f 277 406 339
f 277 339 340
f 277 340 278
f 278 340 341
f 278 341 279
f 279 341 280
f 280 342 281
f 280 341 342
f 281 342 343
f 281 343 282
f 282 343 344
f 282 344 284
f 282 284 283
f 284 344 288
f 285 290 286
f 286 290 345
f 286 345 287
f 287 345 346
f 287 346 291
f 288 344 347
f 288 347 348
f 288 348 289
f 289 348 349
f 289 349 350
f 289 350 290
f 290 350 351
f 290 351 352
f 290 352 345
f 291 353 354
f 291 354 293
f 291 346 355
f 291 355 353
f 292 293 356
f 292 356 357
f 292 357 358
f 292 358 294
f 293 354 356
f 294 296 295
f 294 358 419
f 294 419 359
f 294 359 296
f 296 359 360
f 296 360 297
f 297 361 298
f 297 360 361
f 298 361 362
f 298 362 363
f 298 363 299
f 299 363 364
f 299 364 365
f 299 365 300
f 300 365 366
f 300 366 301
f 301 366 302
f 302 366 367
f 302 367 368
f 302 368 369
f 302 369 305
f 302 305 303
f 303 305 304
f 305 369 370
f 305 370 371
f 305 371 316
f 305 316 306
f 307 372 308
f 307 310 373
f 307 373 372
f 308 372 374
f 308 374 375
f 308 375 311
f 309 313 310
f 310 313 376
f 310 376 373
f 311 375 377
f 311 377 378
f 311 378 312
f 313 314 376
f 314 315 379
f 314 379 380
f 314 380 376
f 315 329 381
f 315 381 382
f 315 382 379
f 316 371 383
f 316 383 317
f 317 383 384
f 317 384 318
f 318 384 385
f 318 385 320
f 318 320 319
f 320 385 386
f 320 386 321
f 321 386 322
f 322 387 388
f 322 388 389
f 322 389 323
f 322 386 387
f 323 325 324
f 323 389 390
f 323 390 391
f 323 391 392
f 323 392 326
f 326 392 393
f 326 393 328
f 326 328 327
f 328 382 329
f 328 393 394
f 328 394 382
f 329 382 381
f 330 395 332
f 330 396 397
f 330 397 395
f 331 378 440
f 331 440 396
f 332 395 398
f 332 398 333
f 333 398 399
f 333 399 400
f 334 400 465
f 334 465 401
f 334 401 335
f 335 401 336
f 336 402 403
f 336 403 337
f 336 401 465
f 336 465 402
f 337 403 404
f 337 404 405
f 337 405 406
f 337 406 338
f 339 406 407
f 339 407 408
f 339 408 349
f 339 349 340
f 340 349 348
f 340 348 341
f 341 348 347
f 341 347 342
f 342 347 344
f 342 344 343
f 345 352 410
f 345 410 409
f 345 409 346
f 346 409 355
f 349 408 351
f 349 351 350
f 351 410 352
f 351 408 407
f 351 407 411
f 351 411 410
f 353 356 354
f 353 355 412
f 353 412 413
f 353 413 356
f 355 409 414
f 355 414 412
f 356 413 415
f 356 415 357
f 357 415 416
f 357 416 477
f 357 477 417
f 357 417 418
f 357 418 358
f 358 418 481
f 358 481 419
f 359 419 420
f 359 420 421
f 359 421 422
f 359 422 423
f 359 423 424
f 359 424 361
f 359 361 360
f 361 424 362
f 362 424 363
f 363 424 364
f 364 424 425
f 364 425 365
f 365 425 426
f 365 426 366
f 366 426 367
f 367 426 427
f 367 427 428
f 367 428 368
f 368 428 429
f 368 429 430
f 368 430 431
f 368 431 370
f 368 370 369
f 370 431 432
f 370 432 433
f 370 433 434
f 370 434 371
f 371 434 383
f 372 373 435
f 372 435 374
f 373 376 436
f 373 436 435
f 374 437 375
f 374 435 499
f 374 499 437
f 375 438 439
f 375 439 377
f 375 437 500
f 375 500 438
f 376 380 436
f 377 439 440
f 377 440 378
f 379 382 441
f 379 441 442
f 379 442 380
f 380 443 436
f 380 442 443
f 382 394 444
f 382 444 445
f 382 445 441
f 383 434 433
f 383 433 446
f 383 446 447
f 383 447 384
f 384 447 386
f 384 386 385
f 386 447 446
f 386 446 387
f 387 446 388
f 388 446 448
f 388 448 449
f 388 449 389
f 389 449 390
f 390 449 450
f 390 450 391
f 391 450 451
f 391 451 452
f 391 452 392
f 392 453 454
f 392 454 455
f 392 455 456
f 392 456 394
f 392 394 393
f 392 452 453
f 394 456 457
f 394 457 444
f 395 458 398
f 395 397 459
f 395 459 458
f 396 440 460
f 396 460 397
f 397 460 524
f 397 524 459
f 398 458 461
f 398 461 399
f 399 462 400
f 399 461 462
f 400 462 463
f 400 463 464
f 400 464 465
f 402 465 464
f 402 464 466
f 402 466 403
f 403 466 467
f 403 467 468
f 403 468 404
f 404 468 469
f 404 469 470
f 404 470 471
f 404 471 405
f 405 471 407
f 405 407 406
f 407 471 473
f 407 473 411
f 409 410 472
f 409 472 414
f 410 411 472
f 411 473 472
f 412 474 475
f 412 475 413
f 412 414 476
f 412 476 474
f 413 475 415
f 414 472 534
f 414 534 476
f 415 475 416
f 416 475 478
f 416 478 477
f 417 477 479
f 417 479 480
f 417 480 418
f 418 480 542
f 418 542 481
f 419 481 420
f 420 481 421
f 421 481 422
f 422 482 483
f 422 483 423
f 422 481 482
f 423 483 424
f 424 483 484
f 424 484 425
f 425 484 485
f 425 485 426
f 426 485 486
f 426 486 427
f 427 486 487
f 427 487 488
f 427 488 428
f 428 488 489
f 428 489 429
f 429 489 490
f 429 490 491
f 429 491 492
f 429 492 493
f 429 493 431
f 429 431 430
f 431 493 432
f 432 493 494
f 432 494 495
f 432 495 496
f 432 496 497
f 432 497 433
f 433 497 496
f 433 496 448
f 433 448 446
f 435 436 498
f 435 498 499
f 436 443 498
f 437 499 560
f 437 560 500
f 438 500 501
f 438 501 502
f 438 502 503
f 438 503 439
f 439 503 460
f 439 460 440
f 441 445 504
f 441 504 505
f 441 505 442
f 442 505 506
f 442 506 507
f 442 507 508
f 442 508 443
f 443 509 559
f 443 559 498
f 443 508 510
f 443 510 509
f 444 457 511
f 444 511 445
f 445 511 567
f 445 567 504
f 448 496 512
f 448 512 450
f 448 450 449
f 450 513 451
f 450 512 513
f 451 513 514
f 451 514 453
f 451 453 452
f 453 514 515
f 453 515 454
f 454 515 455
f 455 515 516
f 455 516 517
f 455 517 518
f 455 518 457
f 455 457 456
f 457 518 511
f 458 519 520
f 458 520 521
f 458 521 522
f 458 522 461
f 458 459 523
f 458 523 519
f 459 524 583
f 459 583 523
f 460 503 524
f 461 522 462
f 462 522 525
f 462 525 463
f 463 525 526
f 463 526 527
f 463 527 464
f 464 527 466
f 466 527 528
f 466 528 529
f 466 529 467
f 467 529 530
f 467 530 468
f 468 530 469
f 469 530 531
f 469 531 590
f 469 590 532
f 469 532 533
f 469 533 470
f 470 533 473
f 470 473 471
f 472 473 534
f 473 533 535
f 473 535 534
f 474 536 539
f 474 539 478
f 474 478 475
f 474 476 537
f 474 537 536
f 476 534 535
f 476 535 537
f 477 538 540
f 477 540 479
f 477 478 539
f 477 539 538
f 479 540 599
f 479 599 541
f 479 541 480
f 480 541 542
f 481 542 543
f 481 543 482
f 482 543 483
f 483 543 544
f 483 544 484
f 484 545 485
f 484 544 545
f 485 545 546
f 485 546 547
f 485 547 486
f 486 547 487
f 487 547 548
f 487 548 549
f 487 549 550
f 487 550 488
f 488 550 551
f 488 551 552
f 488 552 489
f 489 552 553
f 489 553 554
f 489 554 490
f 490 554 555
f 490 555 556
f 490 556 491
f 491 556 492
f 492 494 493
f 492 556 557
f 492 557 558
f 492 558 494
f 494 558 495
f 495 558 496
f 496 558 512
f 498 559 499
f 499 559 612
f 499 612 560
f 500 560 562
f 500 562 501
f 501 561 502
f 501 562 561
f 502 561 563
f 502 563 564
f 502 564 565
f 502 565 503
f 503 565 524
f 504 566 507
f 504 507 506
f 504 506 505
f 504 567 566
f 507 568 632
f 507 632 569
f 507 569 510
f 507 510 508
f 507 566 568
f 509 570 612
f 509 612 559
f 509 510 569
f 509 569 632
f 509 632 570
f 511 518 571
f 511 571 567
f 512 558 513
f 513 558 572
f 513 572 514
f 514 572 515
f 515 572 573
f 515 573 574
f 515 574 516
f 516 574 575
f 516 575 517
f 517 575 636
f 517 636 576
f 517 576 571
f 517 571 518
f 519 577 578
f 519 578 520
f 519 523 579
f 519 579 577
f 520 578 580
f 520 580 521
f 521 580 581
f 521 581 582
f 521 582 522
f 522 582 525
f 523 583 643
f 523 643 579
f 524 565 583
f 525 582 581
f 525 581 526
f 526 581 527
f 527 584 528
f 527 581 584
f 528 585 587
f 528 587 529
f 528 584 586
f 528 586 585
f 529 587 588
f 529 588 530
f 530 588 589
f 530 589 531
f 531 589 654
f 531 654 590
f 532 590 591
f 532 591 592
f 532 592 533
f 533 592 535
f 535 592 595
f 535 595 537
f 536 593 594
f 536 594 539
f 536 537 593
f 537 595 593
f 538 596 662
f 538 662 597
f 538 597 540
f 538 539 596
f 539 594 596
f 540 597 598
f 540 598 599
f 541 599 665
f 541 665 600
f 541 600 542
f 542 600 601
f 542 601 543
f 543 602 603
f 543 603 544
f 543 601 602
f 544 603 545
f 545 603 604
f 545 604 546
f 546 604 547
f 547 604 669
f 547 669 605
f 547 605 606
f 547 606 548
f 548 606 607
f 548 607 549
f 549 607 551
f 549 551 550
f 551 608 609
f 551 609 553
f 551 553 552
f 551 607 675
f 551 675 608
f 553 609 610
f 553 610 611
f 553 611 554
f 554 611 555
f 555 611 556
f 556 611 575
f 556 575 574
f 556 574 557
f 557 574 558
f 558 574 573
f 558 573 572
f 560 612 613
f 560 613 562
f 561 562 614
f 561 614 563
f 562 613 615
f 562 615 614
f 563 614 616
f 563 616 564
f 564 617 618
f 564 618 619
f 564 619 583
f 564 583 565
f 564 616 620
f 564 620 621
f 564 621 622
f 564 622 617
f 566 623 624
f 566 624 625
f 566 625 626
f 566 626 568
f 566 567 627
f 566 627 628
f 566 628 623
f 567 571 627
f 568 626 629
f 568 629 630
f 568 630 631
f 568 631 632
f 570 633 613
f 570 613 612
f 570 632 631
f 570 631 633
f 571 576 634
f 571 634 635
f 571 635 627
f 575 611 636
f 576 636 634
f 577 637 578
f 577 579 637
f 578 637 638
f 578 638 639
f 578 639 640
f 578 640 641
f 578 641 580
f 579 642 637
f 579 643 706
f 579 706 642
f 580 641 644
f 580 644 645
f 580 645 646
f 580 646 647
f 580 647 586
f 580 586 581
f 581 586 584
f 583 619 648
f 583 648 643
f 585 586 649
f 585 649 587
f 586 647 649
f 587 649 650
f 587 650 651
f 587 651 588
f 588 651 652
f 588 652 589
f 589 652 653
f 589 653 654
f 590 654 655
f 590 655 656
f 590 656 591
f 591 656 726
f 591 726 657
f 591 657 595
f 591 595 592
f 593 658 659
f 593 659 660
f 593 660 594
f 593 595 658
f 594 660 661
f 594 661 596
f 595 657 658
f 596 661 662
f 597 662 663
f 597 663 598
f 598 663 733
f 598 733 664
f 598 664 599
f 599 664 665
f 600 665 666
f 600 666 601
f 601 666 667
f 601 667 602
f 602 667 668
f 602 668 603
f 603 668 669
f 603 669 604
f 605 669 670
f 605 670 737
f 605 737 671
f 605 671 672
f 605 672 606
f 606 672 673
f 606 673 674
f 606 674 675
f 606 675 607
f 608 676 609
f 608 675 674
f 608 674 673
f 608 673 677
f 608 677 676
f 609 676 678
f 609 678 679
f 609 679 610
f 610 680 681
f 610 681 636
f 610 636 611
f 610 679 682
f 610 682 683
f 610 683 680
f 613 633 615
f 614 615 684
f 614 684 616
f 615 633 685
f 615 685 684
f 616 684 620
f 617 622 686
f 617 686 618
f 618 686 687
f 618 687 688
f 618 688 689
f 618 689 619
f 619 689 648
f 620 690 621
f 620 684 691
f 620 691 692
f 620 692 690
f 621 690 622
f 622 690 686
f 623 693 694
f 623 694 624
f 623 628 693
f 624 694 695
f 624 695 629
f 624 629 625
f 625 629 626
f 627 635 628
f 628 635 696
f 628 696 697
f 628 697 693
f 629 695 685
f 629 685 633
f 629 633 630
f 630 633 631
f 634 636 681
f 634 681 680
f 634 680 698
f 634 698 696
f 634 696 635
f 637 699 638
f 637 642 700
f 637 700 699
f 638 699 701
f 638 701 639
f 639 701 702
f 639 702 640
f 640 702 703
f 640 703 641
f 641 703 704
f 641 704 705
f 641 705 645
f 641 645 644
f 642 706 759
f 642 759 700
f 643 707 708
f 643 708 709
f 643 709 706
f 643 648 718
f 643 718 710
f 643 710 711
f 643 711 712
f 643 712 707
f 645 705 768
f 645 768 713
f 645 713 714
f 645 714 646
f 646 714 715
f 646 715 716
f 646 716 647
f 647 716 715
f 647 715 649
f 648 689 717
f 648 717 718
f 649 715 650
f 650 715 719
f 650 719 651
f 651 719 720
f 651 720 721
f 651 721 652
f 652 721 722
f 652 722 653
f 653 722 723
f 653 723 655
f 653 655 654
f 655 723 724
f 655 724 725
f 655 725 726
f 655 726 656
f 657 726 727
f 657 727 658
f 658 727 728
f 658 728 659
f 659 728 729
f 659 729 730
f 659 730 660
f 660 730 661
f 661 730 662
f 662 730 731
f 662 731 732
f 662 732 663
f 663 732 795
f 663 795 733
f 664 666 665
f 664 733 734
f 664 734 666
f 666 734 667
f 667 734 736
f 667 736 668
f 668 735 670
f 668 670 669
f 668 736 735
f 670 735 801
f 670 801 737
f 671 737 738
f 671 738 739
f 671 739 672
f 672 739 673
f 673 739 677
f 676 677 678
f 677 740 678
f 677 739 740
f 678 741 742
f 678 742 679
f 678 740 741
f 679 742 682
f 680 743 698
f 680 683 744
f 680 744 743
f 682 742 683
f 683 745 744
f 683 742 746
f 683 746 747
f 683 747 745
f 684 685 691
f 685 695 691
f 686 690 748
f 686 748 749
f 686 749 687
f 687 749 717
f 687 717 688
f 688 717 689
f 690 692 748
f 691 695 750
f 691 750 692
f 692 751 748
f 692 750 752
f 692 752 751
f 693 697 753
f 693 753 694
f 694 753 754
f 694 754 755
f 694 755 750
f 694 750 695
f 696 698 743
f 696 743 756
f 696 756 697
f 697 756 757
f 697 757 753
f 699 700 758
f 699 758 701
f 700 759 825
f 700 825 760
f 700 760 758
f 701 761 762
f 701 762 702
f 701 758 763
f 701 763 764
f 701 764 761
f 702 765 703
f 702 762 765
f 703 766 704
f 703 765 766
f 704 767 768
f 704 768 705
f 704 766 767
f 706 709 769
f 706 769 759
f 707 770 769
f 707 769 709
f 707 709 708
f 707 712 771
f 707 771 770
f 710 772 711
f 710 718 773
f 710 773 774
f 710 774 770
f 710 770 772
f 711 772 770
f 711 770 712
f 712 770 771
f 713 775 776
f 713 776 714
f 713 768 834
f 713 834 775
f 714 776 777
f 714 777 715
f 715 777 719
f 717 749 778
f 717 778 779
f 717 779 718
f 718 779 773
f 719 777 720
f 720 777 780
f 720 780 781
f 720 781 721
f 721 781 722
f 722 781 782
f 722 782 783
f 722 783 723
f 723 784 785
f 723 785 724
f 723 783 786
f 723 786 784
f 724 785 725
f 725 785 787
f 725 787 788
f 725 788 726
f 726 788 727
f 727 788 728
f 728 789 790
f 728 790 791
f 728 791 729
f 728 788 789
f 729 791 730
f 730 791 731
f 731 791 790
f 731 790 792
f 731 792 793
f 731 793 732
f 732 793 794
f 732 794 860
f 732 860 795
f 733 795 796
f 733 796 797
f 733 797 798
f 733 798 799
f 733 799 734
f 734 799 800
f 734 800 736
f 735 736 801
f 736 800 801
f 737 801 798
f 737 798 802
f 737 802 738
f 738 802 803
f 738 803 804
f 738 804 805
f 738 805 739
f 739 805 740
f 740 806 741
f 740 805 806
f 741 747 746
f 741 746 742
f 741 806 807
f 741 807 808
f 741 808 809
f 741 809 747
f 743 744 810
f 743 810 811
f 743 811 756
f 744 745 812
f 744 812 810
f 745 747 812
f 747 809 813
f 747 813 812
f 748 814 749
f 748 751 814
f 749 814 778
f 750 755 815
f 750 815 752
f 751 816 817
f 751 817 814
f 751 752 818
f 751 818 816
f 752 815 818
f 753 757 819
f 753 819 820
f 753 820 754
f 754 821 815
f 754 815 755
f 754 820 822
f 754 822 821
f 756 811 823
f 756 823 819
f 756 819 757
f 758 760 824
f 758 824 763
f 759 769 825
f 760 825 888
f 760 888 824
f 761 764 826
f 761 826 827
f 761 827 762
f 762 827 765
f 763 824 828
f 763 828 764
f 764 829 826
f 764 828 830
f 764 830 829
f 765 831 766
f 765 827 831
f 766 831 832
f 766 832 767
f 767 833 834
f 767 834 768
f 767 832 833
f 769 835 836
f 769 836 825
f 769 770 837
f 769 837 835
f 770 774 838
f 770 838 839
f 770 839 840
f 770 840 841
f 770 841 837
f 773 779 842
f 773 842 843
f 773 843 838
f 773 838 774
f 775 834 847
f 775 847 782
f 775 782 776
f 776 782 781
f 776 781 780
f 776 780 777
f 778 844 779
f 778 814 845
f 778 845 844
f 779 844 846
f 779 846 842
f 782 847 783
f 783 847 848
f 783 848 786
f 784 786 849
f 784 849 785
f 785 786 850
f 785 850 851
f 785 851 852
f 785 852 853
f 785 853 789
f 785 789 788
f 785 788 787
f 785 849 786
f 786 854 855
f 786 855 850
f 786 848 856
f 786 856 854
f 789 853 790
f 790 853 792
f 792 853 857
f 792 857 858
f 792 858 793
f 793 858 859
f 793 859 794
f 794 859 915
f 794 915 860
f 795 860 796
f 796 860 797
f 797 860 798
f 798 861 802
f 798 801 800
f 798 800 799
f 798 860 862
f 798 862 861
f 802 861 803
f 803 861 863
f 803 863 864
f 803 864 804
f 804 864 865
f 804 865 866
f 804 866 805
f 805 866 806
f 806 867 868
f 806 868 808
f 806 808 807
f 806 866 867
f 808 868 809
f 809 868 869
f 809 869 813
f 810 812 870
f 810 870 811
f 811 870 871
f 811 871 872
f 811 872 823
f 812 813 873
f 812 873 874
f 812 874 875
f 812 875 876
f 812 876 870
f 813 869 873
f 814 817 845
f 815 821 822
f 815 822 877
f 815 877 878
f 815 878 879
f 815 879 880
f 815 880 881
f 815 881 818
f 816 882 845
f 816 845 817
f 816 818 882
f 818 881 880
f 818 880 883
f 818 883 884
f 818 884 885
f 818 885 882
f 819 823 872
f 819 872 886
f 819 886 887
f 819 887 877
f 819 877 822
f 819 822 820
f 824 888 891
f 824 891 828
f 825 836 888
f 826 829 889
f 826 889 890
f 826 890 827
f 827 890 831
f 828 891 830
f 829 830 892
f 829 892 893
f 829 893 889
f 830 894 895
f 830 895 896
f 830 896 892
f 830 891 894
f 831 890 897
f 831 897 832
f 832 897 898
f 832 898 833
f 833 898 899
f 833 899 900
f 833 900 834
f 834 900 847
f 835 888 836
f 835 837 888
f 837 841 888
f 838 843 839
f 839 843 888
f 839 888 841
f 839 841 840
f 842 846 901
f 842 901 843
f 843 901 902
f 843 902 903
f 843 903 904
f 843 904 888
f 844 845 882
f 844 882 846
f 846 882 885
f 846 885 905
f 846 905 901
f 847 900 856
f 847 856 848
f 850 855 851
f 851 855 906
f 851 906 853
f 851 853 852
f 853 906 907
f 853 907 908
f 853 908 857
f 854 856 909
f 854 909 910
f 854 910 911
f 854 911 855
f 855 911 906
f 856 900 909
f 857 908 912
f 857 912 913
f 857 913 858
f 858 913 914
f 858 914 859
f 859 914 965
f 859 965 915
f 860 915 862
f 861 862 916
f 861 916 863
f 862 915 917
f 862 917 916
f 863 918 919
f 863 919 920
f 863 920 864
f 863 916 921
f 863 921 922
f 863 922 923
f 863 923 918
f 864 920 924
f 864 924 865
f 865 924 925
f 865 925 866
f 866 925 926
f 866 926 927
f 866 927 867
f 867 927 868
f 868 928 929
f 868 929 869
f 868 927 930
f 868 930 931
f 868 931 928
f 869 929 932
f 869 932 873
f 870 876 871
f 871 876 933
f 871 933 872
f 872 933 886
f 873 932 874
f 874 932 929
f 874 929 934
f 874 934 875
f 875 935 876
f 875 934 935
f 876 935 933
f 877 936 937
f 877 937 938
f 877 938 880
f 877 880 879
f 877 879 878
f 877 887 936
f 880 938 939
f 880 939 940
f 880 940 941
f 880 941 883
f 883 941 942
f 883 942 884
f 884 943 885
f 884 942 943
f 885 944 905
f 885 943 944
f 886 933 887
f 887 933 935
f 887 935 936
f 888 904 945
f 888 945 891
f 889 893 946
f 889 946 890
f 890 946 947
f 890 947 897
f 891 945 894
f 892 896 948
f 892 948 949
f 892 949 893
f 893 949 946
f 894 950 951
f 894 951 895
f 894 945 950
f 895 952 953
f 895 953 896
f 895 951 997
f 895 997 952
f 896 953 948
f 897 947 899
f 897 899 898
f 899 947 909
f 899 909 900
f 901 905 954
f 901 954 955
f 901 955 956
f 901 956 902
f 902 956 903
f 903 956 957
f 903 957 904
f 904 957 945
f 905 944 954
f 906 958 959
f 906 959 907
f 906 911 958
f 907 959 960
f 907 960 912
f 907 912 908
f 909 947 910
f 910 947 946
f 910 946 961
f 910 961 911
f 911 961 962
f 911 962 958
f 912 960 963
f 912 963 964
f 912 964 914
f 912 914 913
f 914 964 1014
f 914 1014 965
f 915 965 966
f 915 966 917
f 916 917 921
f 917 966 921
f 918 923 967
f 918 967 919
f 919 968 920
f 919 967 968
f 920 968 924
f 921 969 970
f 921 970 922
f 921 966 971
f 921 971 969
f 922 970 923
f 923 970 972
f 923 972 967
f 924 968 925
f 925 968 973
f 925 973 974
f 925 974 926
f 926 974 975
f 926 975 927
f 927 976 977
f 927 977 930
f 927 975 978
f 927 978 979
f 927 979 976
f 928 931 929
f 929 980 934
f 929 931 980
f 930 977 931
f 931 977 981
f 931 981 982
f 931 982 983
f 931 983 980
f 934 980 984
f 934 984 985
f 934 985 986
f 934 986 935
f 935 986 936
f 936 986 985
f 936 985 937
f 937 985 984
f 937 984 938
f 938 984 987
f 938 987 939
f 939 987 940
f 940 987 988
f 940 988 989
f 940 989 941
f 941 989 990
f 941 990 942
f 942 990 991
f 942 991 943
f 943 991 992
f 943 992 944
f 944 992 954
f 945 957 950
f 946 949 961
f 948 993 962
f 948 962 949
f 948 953 993
f 949 962 961
f 950 957 994
f 950 994 995
f 950 995 996
f 950 996 951
f 951 996 998
f 951 998 999
f 951 999 997
f 952 1000 1001
f 952 1001 1002
f 952 1002 1006
f 952 1006 953
f 952 997 1003
f 952 1003 1004
f 952 1004 1005
f 952 1005 1000
f 953 1006 993
f 954 992 1007
f 954 1007 1008
f 954 1008 1009
f 954 1009 955
f 955 1009 956
f 956 1010 994
f 956 994 957
f 956 1009 1010
f 958 962 959
f 959 962 1011
f 959 1011 960
f 960 1011 1012
f 960 1012 963
f 962 993 1011
f 963 1012 1030
f 963 1030 1013
f 963 1013 1014
f 963 1014 964
f 965 1014 966
f 966 1014 971
f 967 972 1015
f 967 1015 968
f 968 1015 1016
f 968 1016 973
f 969 1017 970
f 969 971 1018
f 969 1018 1017
f 970 1017 1015
f 970 1015 972
f 971 1014 1013
f 971 1013 1018
f 973 1016 1019
f 973 1019 1020
f 973 1020 974
f 974 1020 978
f 974 978 975
f 976 1021 977
f 976 979 1021
f 977 1021 981
f 978 1020 1022
f 978 1022 979
f 979 1022 1023
f 979 1023 1024
f 979 1024 1021
f 980 983 987
f 980 987 984
f 981 1021 990
f 981 990 989
f 981 989 982
f 982 988 987
f 982 987 983
f 982 989 988
f 990 1021 1025
f 990 1025 1026
f 990 1026 991
f 991 1026 1007
f 991 1007 992
f 993 1006 1012
f 993 1012 1011
f 994 1010 995
f 995 1010 1027
f 995 1027 998
f 995 998 996
f 997 999 1028
f 997 1028 1003
f 998 1027 1029
f 998 1029 1028
f 998 1028 999
f 1000 1030 1001
f 1000 1005 1031
f 1000 1031 1032
f 1000 1032 1030
f 1001 1030 1002
f 1002 1030 1012
f 1002 1012 1006
f 1003 1033 1004
f 1003 1028 1034
f 1003 1034 1032
f 1003 1032 1033
f 1004 1033 1005
f 1005 1033 1031
f 1007 1026 1025
f 1007 1025 1035
f 1007 1035 1036
f 1007 1036 1008
f 1008 1036 1009
f 1009 1036 1037
f 1009 1037 1027
f 1009 1027 1010
f 1013 1030 1017
f 1013 1017 1018
f 1015 1038 1019
f 1015 1019 1016
f 1015 1017 1032
f 1015 1032 1034
f 1015 1034 1038
f 1017 1030 1032
f 1019 1028 1039
f 1019 1039 1020
f 1019 1038 1028
f 1020 1039 1022
f 1021 1024 1025
f 1022 1039 1040
f 1022 1040 1036
f 1022 1036 1023
f 1023 1036 1035
f 1023 1035 1024
f 1024 1035 1025
f 1027 1037 1029
f 1028 1029 1039
f 1028 1038 1034
f 1029 1037 1036
f 1029 1036 1040
f 1029 1040 1039
f 1031 1033 1032

