# https://github.com/mikedh/trimesh
v 0.02091861 0.02677369 0.00187150
v 0.02091861 0.02608063 0.00204903
v 0.02091861 0.02677369 -0.00041881
v 0.02009572 0.02677369 0.00200833
v 0.02009572 0.01667538 0.00341030
v 0.02091861 0.01671374 0.00323488
v 0.01923393 0.02677369 0.00214025
v 0.01040117 0.01384627 0.00571675
v 0.01065499 0.01326431 0.00574552
v 0.02091861 0.02611370 -0.00054090
v 0.02025743 0.02677369 -0.00050020
v 0.02009572 0.01326431 0.00373869
v 0.02091861 0.01661851 0.00324330
v 0.00983415 0.02677369 0.00280895
v 0.00983415 0.02513098 0.00320611
v 0.00932445 0.01453139 0.00568377
v 0.00983415 0.01444145 0.00566693
v 0.00983415 0.01401424 0.00575744
v 0.00984234 0.01326431 0.00587813
v 0.02091861 0.02608063 -0.00054511
v 0.01940179 0.02677369 -0.00059002
v 0.02010391 0.01326431 0.00373659
v 0.02091861 0.01578789 0.00331487
v 0.02091861 0.01582096 0.00331206
v 0.00038319 0.02677369 0.00320541
v 0.00042822 0.02061154 0.00485578
v 0.00042822 0.02009571 0.00498278
v 0.00042822 0.01326431 0.00654053
v 0.00813310 0.01326431 0.00602268
v 0.00898055 0.01326431 0.00595462
v 0.00898874 0.01326431 0.00595392
v 0.02091861 0.02525796 -0.00058300
v 0.02009572 0.02608063 -0.00060265
v 0.01854615 0.02677369 -0.00062019
v 0.02091861 0.01326431 0.00339346
v 0.02091861 0.01407773 0.00341942
v 0.02091861 0.01493347 0.00338364
v 0.00022966 0.02677369 0.00320611
v 0.00000859 0.02677369 0.00320611
v 0.00000859 0.02060757 0.00485508
v 0.00000859 0.02035760 0.00491682
v 0.00000859 0.02009571 0.00498068
v 0.00000859 0.01711053 0.00568307
v 0.00000859 0.01326431 0.00653983
v 0.02091861 0.02522621 -0.00058300
v 0.01924008 0.02608063 -0.00062721
v 0.01769050 0.02677369 -0.00058721
v 0.02091861 0.01326431 0.00109614
v 0.00000859 0.02677369 0.00041690
v 0.00000859 0.01326431 0.00390569
v 0.02091861 0.02440353 -0.00056967
v 0.02009572 0.02522621 -0.00060335
v 0.01838443 0.02608063 -0.00058861
v 0.02091042 0.01326431 0.00109614
v 0.02091861 0.01411079 0.00079862
v 0.00000859 0.01936430 0.00218094
v 0.02091861 0.01572044 0.00047514
v 0.02091861 0.01527339 0.00053198
v 0.02091861 0.01489247 0.00060987
v 0.02091861 0.01488321 0.00061197
v 0.00000859 0.01893576 0.00230023
v 0.02009572 0.01326431 0.00110736
f 1 2 6
f 1 6 13
f 1 13 24
f 1 24 23
f 1 23 37
f 1 37 36
f 1 36 35
f 1 35 48
f 1 48 55
f 1 55 60
f 1 60 59
f 1 59 58
f 1 58 57
f 1 57 51
f 1 51 45
f 1 45 32
f 1 32 20
f 1 20 10
f 1 10 3
f 1 3 11
f 1 11 21
f 1 21 34
f 1 34 47
f 1 47 49
f 1 49 39
f 1 39 38
f 1 38 25
f 1 25 14
f 1 14 7
f 1 7 4
f 1 4 2
f 2 5 6
f 2 4 7
f 2 7 8
f 2 8 9
f 2 9 5
f 3 10 11
f 5 9 6
f 6 12 13
f 6 9 12
f 7 14 15
f 7 15 16
f 7 16 17
f 7 17 18
f 7 18 8
f 8 18 19
f 8 19 9
f 9 19 31
f 9 31 30
f 9 30 29
f 9 29 28
f 9 28 44
f 9 44 50
f 9 50 62
f 9 62 54
f 9 54 48
f 9 48 35
f 9 35 22
f 9 22 12
f 10 20 21
f 10 21 11
f 12 22 23
f 12 23 24
f 12 24 13
f 14 25 26
f 14 26 27
f 14 27 15
f 15 27 16
f 16 18 17
f 16 27 28
f 16 28 18
f 18 29 30
f 18 30 31
f 18 31 19
f 18 28 29
f 20 32 33
f 20 33 21
f 21 33 34
f 22 35 36
f 22 36 37
f 22 37 23
f 25 38 26
f 26 38 39
f 26 39 40
f 26 40 41
f 26 41 27
f 27 41 42
f 27 42 43
f 27 43 28
f 28 43 44
f 32 45 46
f 32 46 33
f 33 46 34
f 34 46 47
f 39 49 56
f 39 56 61
f 39 61 50
f 39 50 44
f 39 44 43
f 39 43 42
f 39 42 41
f 39 41 40
f 45 51 52
f 45 52 46
f 46 52 53
f 46 53 47
f 47 53 49
f 48 54 55
f 49 53 51
f 49 51 57
f 49 57 58
f 49 58 59
f 49 59 60
f 49 60 56
f 50 61 62
f 51 53 52
f 54 62 55
f 55 62 60
f 56 60 62
f 56 62 61

