# https://github.com/mikedh/trimesh
v 0.03442433 -0.01262645 0.00355385
v 0.03724519 -0.01262645 0.00355385
v 0.03444158 -0.01262645 0.00838997
v 0.03664378 0.00005502 0.00355385
v 0.03735158 -0.01239928 0.00355385
v 0.03739936 -0.01239928 0.00440358
v 0.03727031 -0.01262645 0.00440358
v 0.03734862 -0.01262645 0.00838997
v 0.03670929 0.00005502 0.00838997
v 0.03937400 0.00005502 0.00355385
v 0.03757520 -0.01172028 0.00355385
v 0.03735010 -0.01262645 0.00723916
v 0.03732695 -0.01262645 0.00638186
v 0.03760721 -0.01176124 0.00440358
v 0.03762741 -0.01197599 0.00641878
v 0.03747619 -0.01231612 0.00612576
v 0.03748605 -0.01231612 0.00695087
v 0.03746979 -0.01234715 0.00838997
v 0.03945035 0.00005502 0.00838997
v 0.03937548 0.00005502 0.00359456
v 0.03937499 -0.00042165 0.00360639
v 0.03937302 -0.00039807 0.00355385
v 0.03757717 -0.01171283 0.00355385
v 0.03765450 -0.01128829 0.00355385
v 0.03934002 -0.00086853 0.00393019
v 0.03850169 -0.00697093 0.00817742
v 0.03785645 -0.01068873 0.00838997
v 0.03762741 -0.01197599 0.00665406
v 0.03753432 -0.01217584 0.00838997
v 0.03945528 0.00005502 0.00696839
v 0.03945035 -0.00042786 0.00838997
v 0.03945577 -0.00042786 0.00696839
v 0.03938484 0.00005502 0.00391552
v 0.03939814 -0.00050110 0.00439506
v 0.03936268 -0.00048124 0.00355385
v 0.03932475 -0.00075806 0.00355385
v 0.03944346 -0.00042786 0.00611345
v 0.03850169 -0.00697093 0.00834168
v 0.03930899 -0.00150906 0.00782380
v 0.03925185 -0.00192615 0.00838997
v 0.03774956 -0.01126967 0.00838997
v 0.03848298 -0.00701686 0.00838997
v 0.03766287 -0.01173517 0.00838997
v 0.03762051 -0.01194496 0.00838997
v 0.03943114 0.00005502 0.00562681
v 0.03936563 -0.00108577 0.00838997
v 0.03931046 -0.00151403 0.00838997
v 0.03939863 0.00005502 0.00442441
v 0.03851450 -0.00681080 0.00838997
f 1 2 7
f 1 7 13
f 1 13 12
f 1 12 8
f 1 8 3
f 1 3 4
f 1 4 10
f 1 10 22
f 1 22 35
f 1 35 36
f 1 36 24
f 1 24 23
f 1 23 11
f 1 11 5
f 1 5 2
f 2 5 6
f 2 6 7
f 3 8 18
f 3 18 29
f 3 29 44
f 3 44 43
f 3 43 41
f 3 41 27
f 3 27 42
f 3 42 49
f 3 49 40
f 3 40 47
f 3 47 46
f 3 46 31
f 3 31 19
f 3 19 9
f 3 9 4
f 4 9 19
f 4 19 30
f 4 30 45
f 4 45 48
f 4 48 33
f 4 33 20
f 4 20 10
f 5 11 6
f 6 12 13
f 6 13 7
f 6 11 14
f 6 14 15
f 6 15 16
f 6 16 12
f 8 12 17
f 8 17 18
f 10 20 21
f 10 21 22
f 11 23 14
f 12 16 17
f 14 23 24
f 14 24 25
f 14 25 26
f 14 26 15
f 15 27 28
f 15 28 17
f 15 17 16
f 15 26 27
f 17 28 18
f 18 28 29
f 19 31 32
f 19 32 30
f 20 33 34
f 20 34 21
f 21 34 25
f 21 25 35
f 21 35 22
f 24 36 25
f 25 36 35
f 25 34 37
f 25 37 26
f 26 38 27
f 26 37 39
f 26 39 40
f 26 40 38
f 27 41 28
f 27 38 42
f 28 43 44
f 28 44 29
f 28 41 43
f 30 32 37
f 30 37 45
f 31 46 32
f 32 46 47
f 32 47 39
f 32 39 37
f 33 48 34
f 34 48 45
f 34 45 37
f 38 40 49
f 38 49 42
f 39 47 40

