# https://github.com/mikedh/trimesh
v 0.00000654 0.04113945 0.08393128
v 0.00000654 0.04113118 0.08424314
v 0.00000654 0.04106420 0.08347600
v -0.00042834 0.04113945 0.08393128
v -0.00042834 0.04112214 0.08456463
v 0.00000654 0.04112214 0.08456463
v 0.00000654 0.03947403 0.08076358
v -0.00042834 0.03947478 0.08076358
v -0.00042834 0.04106420 0.08347600
v -0.00103824 0.04105291 0.08349284
v -0.00160776 0.04104162 0.08353087
v -0.00130752 0.04109731 0.08386198
v -0.00213823 0.04108828 0.08403234
v -0.00299318 0.04106796 0.08418731
v -0.00299318 0.04106796 0.08441880
v -0.00213823 0.04108828 0.08447607
v -0.00042834 0.04091218 0.08499199
v 0.00000654 0.04101904 0.08477494
v 0.00000654 0.03690627 0.08076358
v -0.00641432 0.04038012 0.08327387
v -0.00555937 0.04044032 0.08321900
v -0.01202331 0.03764604 0.08076358
v -0.00213823 0.04103109 0.08360450
v -0.00299318 0.04100926 0.08375947
v -0.00347249 0.04105216 0.08430763
v -0.00213823 0.04087681 0.08490344
v -0.00347249 0.04105216 0.08437597
v -0.00299318 0.04085423 0.08484665
v -0.00128328 0.04089412 0.08494868
v -0.00299318 0.04042677 0.08537652
v -0.00213823 0.04044935 0.08538518
v -0.00042834 0.04048472 0.08539433
v 0.00000654 0.04091218 0.08499199
v 0.00000654 0.03632303 0.08307655
v -0.01374801 0.03362132 0.08305586
v -0.01168402 0.03498497 0.08076358
v -0.00726792 0.04030486 0.08335520
v -0.01245146 0.03745264 0.08076358
v -0.01374801 0.03858826 0.08337349
v -0.01192233 0.03932126 0.08359535
v -0.01135282 0.03939952 0.08341825
v -0.00851870 0.04018445 0.08354578
v -0.00794918 0.04023863 0.08343654
v -0.00555937 0.04075038 0.08393128
v -0.00470442 0.04085348 0.08393128
v -0.00379427 0.04097013 0.08398614
v -0.00641432 0.04063147 0.08393128
v -0.00384947 0.04038764 0.08535824
v -0.00379427 0.04084445 0.08471141
v -0.00871258 0.04022358 0.08444672
v -0.00812286 0.04028228 0.08459302
v -0.00641432 0.04049827 0.08478601
v -0.00555937 0.04060438 0.08478601
v -0.00695825 0.04021154 0.08523359
v -0.00641432 0.04024691 0.08526631
v -0.00555937 0.04029432 0.08530385
v -0.00555937 0.03976377 0.08552716
v -0.00470442 0.03976377 0.08555892
v -0.00384947 0.03976377 0.08558828
v -0.00299318 0.03976377 0.08560897
v -0.00128328 0.04046666 0.08539000
v -0.00213823 0.03976377 0.08561908
v -0.00128328 0.03976377 0.08562486
v -0.00042834 0.03976377 0.08562919
v 0.00000654 0.04048472 0.08539433
v 0.00000654 0.03624703 0.08351017
v -0.01374801 0.03345200 0.08393128
v -0.01374801 0.03400287 0.08227091
v -0.01245415 0.03489466 0.08076358
v -0.01268573 0.03732094 0.08076358
v -0.01368474 0.03635389 0.08076358
v -0.01374801 0.03635238 0.08087187
v -0.01374801 0.03876135 0.08393513
v -0.01325390 0.03894196 0.08393128
v -0.01314753 0.03701615 0.08076358
v -0.01236663 0.03923321 0.08390048
v -0.01206101 0.03936190 0.08416517
v -0.01068905 0.03971109 0.08393128
v -0.00983411 0.03994513 0.08393128
v -0.00898993 0.04013403 0.08387064
v -0.00871258 0.04022358 0.08411560
v -0.00726792 0.04048021 0.08393128
v -0.00470442 0.04033797 0.08533273
v -0.00641432 0.03976377 0.08548288
v -0.01206101 0.03936190 0.08442795
v -0.01154400 0.03943489 0.08460217
v -0.01073348 0.03954025 0.08485387
v -0.00983411 0.03979462 0.08478601
v -0.00898993 0.04000835 0.08475376
v -0.00812286 0.04007533 0.08502087
v -0.00752911 0.04014607 0.08515322
v -0.00725311 0.04034399 0.08483558
v -0.01047767 0.03938522 0.08525765
v -0.00983411 0.03945898 0.08531299
v -0.00897781 0.03955380 0.08536545
v -0.00812286 0.03964712 0.08539529
v -0.00897781 0.03890885 0.08559550
v -0.00812286 0.03890885 0.08562967
v -0.00726792 0.03890885 0.08565036
v -0.00641432 0.03890885 0.08566480
v -0.00555937 0.03890885 0.08567154
v 0.00000654 0.03934233 0.08565422
v 0.00000654 0.03976377 0.08562919
v -0.00384947 0.03890885 0.08567635
v -0.00299318 0.03890885 0.08567828
v -0.00213823 0.03890885 0.08567924
v -0.00128328 0.03890885 0.08567972
v 0.00000654 0.03617327 0.08393128
v 0.00000654 0.03639528 0.08478601
v -0.01374801 0.03370411 0.08482595
v -0.01374801 0.03424445 0.08185702
v -0.01314888 0.03495562 0.08076358
v -0.01374801 0.03620639 0.08076358
v -0.01374801 0.03873651 0.08431870
v -0.00983411 0.03890885 0.08553630
v -0.01374801 0.03865749 0.08472633
v -0.01333333 0.03873877 0.08486830
v -0.01367127 0.03847613 0.08520808
v -0.01104853 0.03931222 0.08518401
v -0.01310041 0.03856116 0.08527882
v -0.01239895 0.03866502 0.08534428
v -0.01154400 0.03880048 0.08539336
v -0.01239895 0.03805318 0.08557143
v -0.01154400 0.03805318 0.08562678
v -0.01068905 0.03805318 0.08565614
v -0.00983411 0.03805318 0.08567154
v -0.00897781 0.03805318 0.08567683
v 0.00000654 0.03890885 0.08567972
v -0.00812286 0.03805318 0.08567924
v 0.00000654 0.03655182 0.08503193
v -0.01374801 0.03386515 0.08504541
v 0.00000654 0.03670383 0.08527064
v -0.01374801 0.03465610 0.08139741
v -0.01332795 0.03502260 0.08076358
v -0.01374801 0.03551628 0.08076358
v -0.01374801 0.03845882 0.08517728
v -0.01374801 0.03838431 0.08523984
v -0.01374801 0.03803663 0.08540396
v -0.01333333 0.03813596 0.08542128
v -0.01374801 0.03763551 0.08552812
v -0.01374801 0.03719902 0.08563737
v -0.01325390 0.03719902 0.08565903
v -0.01239895 0.03719902 0.08567443
v -0.01154400 0.03719902 0.08567876
v 0.00000654 0.03805318 0.08564651
v -0.01374801 0.03634411 0.08567732
v -0.01325390 0.03634411 0.08567635
v -0.01374801 0.03585042 0.08566480
v -0.01374801 0.03408264 0.08529182
v 0.00000654 0.03719902 0.08547181
v -0.01374801 0.03423165 0.08535246
v -0.01374801 0.03512043 0.08096764
v -0.01367800 0.03506324 0.08093973
v -0.01357568 0.03515881 0.08076358
v -0.01374801 0.03670534 0.08567009
v -0.01374801 0.03548844 0.08564459
v -0.01374801 0.03499551 0.08557480
v -0.01374801 0.03460492 0.08547903
f 1 2 6
f 1 6 18
f 1 18 33
f 1 33 65
f 1 65 103
f 1 103 102
f 1 102 128
f 1 128 145
f 1 145 150
f 1 150 132
f 1 132 130
f 1 130 109
f 1 109 108
f 1 108 66
f 1 66 34
f 1 34 19
f 1 19 7
f 1 7 3
f 1 3 9
f 1 9 4
f 1 4 2
f 2 4 5
f 2 5 6
f 3 7 8
f 3 8 9
f 4 9 10
f 4 10 11
f 4 11 12
f 4 12 13
f 4 13 14
f 4 14 15
f 4 15 16
f 4 16 5
f 5 16 17
f 5 17 18
f 5 18 6
f 7 19 36
f 7 36 69
f 7 69 112
f 7 112 134
f 7 134 154
f 7 154 135
f 7 135 113
f 7 113 71
f 7 71 75
f 7 75 70
f 7 70 38
f 7 38 22
f 7 22 8
f 8 20 21
f 8 21 11
f 8 11 10
f 8 10 9
f 8 22 20
f 11 23 13
f 11 13 12
f 11 21 23
f 13 23 14
f 14 24 25
f 14 25 27
f 14 27 15
f 14 23 24
f 15 26 16
f 15 27 28
f 15 28 26
f 16 26 29
f 16 29 17
f 17 29 30
f 17 30 31
f 17 31 32
f 17 32 65
f 17 65 33
f 17 33 18
f 19 34 35
f 19 35 36
f 20 37 24
f 20 24 23
f 20 23 21
f 20 22 37
f 22 38 39
f 22 39 40
f 22 40 41
f 22 41 42
f 22 42 43
f 22 43 37
f 24 37 44
f 24 44 45
f 24 45 46
f 24 46 25
f 25 46 45
f 25 45 44
f 25 44 47
f 25 47 27
f 26 28 48
f 26 48 29
f 27 49 28
f 27 47 50
f 27 50 51
f 27 51 52
f 27 52 53
f 27 53 49
f 28 49 54
f 28 54 55
f 28 55 56
f 28 56 48
f 29 48 30
f 30 48 57
f 30 57 58
f 30 58 59
f 30 59 60
f 30 60 31
f 31 61 32
f 31 60 61
f 32 61 60
f 32 60 62
f 32 62 63
f 32 63 64
f 32 64 103
f 32 103 65
f 34 66 67
f 34 67 35
f 35 67 110
f 35 110 131
f 35 131 149
f 35 149 151
f 35 151 158
f 35 158 157
f 35 157 156
f 35 156 148
f 35 148 146
f 35 146 155
f 35 155 141
f 35 141 140
f 35 140 138
f 35 138 137
f 35 137 136
f 35 136 116
f 35 116 114
f 35 114 73
f 35 73 39
f 35 39 72
f 35 72 113
f 35 113 135
f 35 135 152
f 35 152 133
f 35 133 111
f 35 111 68
f 35 68 36
f 36 68 69
f 37 47 44
f 37 43 47
f 38 70 39
f 39 71 72
f 39 73 74
f 39 74 40
f 39 70 75
f 39 75 71
f 40 74 76
f 40 76 77
f 40 77 78
f 40 78 79
f 40 79 42
f 40 42 41
f 42 79 80
f 42 80 81
f 42 81 82
f 42 82 47
f 42 47 43
f 47 82 50
f 48 56 83
f 48 83 84
f 48 84 57
f 49 53 54
f 50 81 79
f 50 79 85
f 50 85 86
f 50 86 87
f 50 87 88
f 50 88 89
f 50 89 90
f 50 90 91
f 50 91 51
f 50 82 81
f 51 91 92
f 51 92 52
f 52 92 54
f 52 54 53
f 54 92 91
f 54 91 93
f 54 93 94
f 54 94 95
f 54 95 55
f 55 84 56
f 55 95 96
f 55 96 84
f 56 84 83
f 57 84 97
f 57 97 98
f 57 98 58
f 58 98 59
f 59 98 99
f 59 99 60
f 60 99 100
f 60 100 62
f 62 100 101
f 62 101 63
f 63 101 64
f 64 102 103
f 64 101 104
f 64 104 105
f 64 105 106
f 64 106 107
f 64 107 102
f 66 108 67
f 67 108 109
f 67 109 110
f 68 111 69
f 69 111 112
f 71 113 72
f 73 114 85
f 73 85 74
f 74 85 77
f 74 77 76
f 77 85 79
f 77 79 78
f 79 81 80
f 84 96 95
f 84 95 115
f 84 115 97
f 85 114 116
f 85 116 117
f 85 117 118
f 85 118 119
f 85 119 86
f 86 119 87
f 87 119 88
f 88 119 89
f 89 119 90
f 90 119 91
f 91 119 93
f 93 119 120
f 93 120 121
f 93 121 94
f 94 121 122
f 94 122 115
f 94 115 95
f 97 115 123
f 97 123 124
f 97 124 98
f 98 124 125
f 98 125 99
f 99 125 126
f 99 126 100
f 100 126 101
f 101 126 127
f 101 127 129
f 101 129 104
f 102 107 128
f 104 129 105
f 105 129 106
f 106 129 107
f 107 129 128
f 109 130 110
f 110 130 132
f 110 132 131
f 111 133 134
f 111 134 112
f 115 122 123
f 116 136 118
f 116 118 117
f 118 136 137
f 118 137 120
f 118 120 119
f 120 137 138
f 120 138 121
f 121 138 139
f 121 139 123
f 121 123 122
f 123 139 138
f 123 138 140
f 123 140 141
f 123 141 124
f 124 141 142
f 124 142 125
f 125 142 143
f 125 143 126
f 126 143 127
f 127 143 144
f 127 144 129
f 128 129 144
f 128 144 146
f 128 146 147
f 128 147 148
f 128 148 145
f 131 132 149
f 132 150 151
f 132 151 149
f 133 152 153
f 133 153 154
f 133 154 134
f 135 154 152
f 141 155 142
f 142 155 143
f 143 155 146
f 143 146 144
f 145 148 156
f 145 156 157
f 145 157 150
f 146 148 147
f 150 157 158
f 150 158 151
f 152 154 153

