# https://github.com/mikedh/trimesh
v 0.03366659 0.01452555 0.00838342
v 0.02563080 0.02620774 0.00838342
v 0.03643884 0.01452555 0.00838342
v 0.03365804 0.01452555 0.00856838
v 0.02561157 0.02620774 0.00868174
v 0.02900771 0.02620774 0.00838342
v 0.03596986 0.01550097 0.00838342
v 0.03644205 0.01452555 0.00871157
v 0.03365163 0.01452555 0.00871754
v 0.02557632 0.02620774 0.01381294
v 0.02975446 0.02549190 0.00838342
v 0.02901839 0.02620774 0.00868174
v 0.03645487 0.01452555 0.01381294
v 0.03511094 0.01720253 0.00838342
v 0.03597092 0.01550440 0.03108002
v 0.03645914 0.01452555 0.02578772
v 0.03362813 0.01452555 0.01381294
v 0.02554534 0.02620774 0.01979735
v 0.02990829 0.02534438 0.00838342
v 0.02975980 0.02549647 0.00868174
v 0.02904297 0.02620774 0.01381294
v 0.03424989 0.01890180 0.00838342
v 0.03425202 0.01890408 0.03118145
v 0.03511201 0.01720596 0.03116355
v 0.03597092 0.01550440 0.03158120
v 0.03623907 0.01496581 0.06597216
v 0.03645701 0.01452555 0.06597216
v 0.03361852 0.01452555 0.01979735
v 0.03361852 0.01452555 0.04288177
v 0.03361959 0.01452555 0.06597216
v 0.02554640 0.02620774 0.04288177
v 0.03019246 0.02506422 0.00838342
v 0.03019460 0.02506879 0.00868174
v 0.02906540 0.02620774 0.01979735
v 0.03338349 0.02058391 0.00838342
v 0.03338456 0.02058734 0.01381294
v 0.03338563 0.02058849 0.03690333
v 0.03425202 0.01890408 0.03150364
v 0.03511201 0.01720596 0.03150960
v 0.03596986 0.01549983 0.06597216
v 0.03223613 0.02266054 0.06933727
v 0.03639504 0.01452555 0.06643754
v 0.03390910 0.01452555 0.06680747
v 0.02555388 0.02620774 0.06597216
v 0.03062085 0.02463197 0.00838342
v 0.03062299 0.02463311 0.00868174
v 0.02934743 0.02592643 0.01979735
v 0.02977476 0.02550448 0.02578772
v 0.03019780 0.02507680 0.02578772
v 0.02906540 0.02620774 0.04288177
v 0.03265170 0.02195499 0.00838342
v 0.03273289 0.02180519 0.00868174
v 0.03315701 0.02101502 0.01381294
v 0.03250107 0.02224430 0.02445122
v 0.03250107 0.02224430 0.06488625
v 0.03338456 0.02058620 0.05461789
v 0.03424882 0.01889951 0.05456419
v 0.03338242 0.02058391 0.05998178
v 0.03337815 0.02057705 0.06597216
v 0.03249893 0.02224202 0.06728479
v 0.03221156 0.02270514 0.06933727
v 0.03239851 0.02191954 0.06933727
v 0.03604571 0.01452555 0.06738025
v 0.03617925 0.01452555 0.06714159
v 0.03631812 0.01452555 0.06680747
v 0.03419540 0.01452555 0.06726092
v 0.03002153 0.02148729 0.06933727
v 0.02971814 0.02191497 0.06933727
v 0.02588506 0.02620774 0.06664637
v 0.03076401 0.02448446 0.00838342
v 0.03146161 0.02376061 0.02065652
v 0.03103322 0.02420544 0.00868174
v 0.03103536 0.02420658 0.03177213
v 0.02977582 0.02550219 0.06597216
v 0.03019887 0.02507680 0.04886618
v 0.03062513 0.02463426 0.05399737
v 0.02906220 0.02620774 0.06597216
v 0.03249680 0.02223744 0.00838342
v 0.03227032 0.02266740 0.01295973
v 0.03226925 0.02266969 0.03604415
v 0.03226818 0.02266855 0.05912857
v 0.03226711 0.02266855 0.06682537
v 0.03184940 0.02333979 0.06933727
v 0.03240813 0.02185894 0.06933727
v 0.03546028 0.01452555 0.06764875
v 0.03460777 0.01452555 0.06748168
v 0.03044886 0.02106076 0.06933727
v 0.02936025 0.02262166 0.06933727
v 0.02609444 0.02620774 0.06679553
v 0.02932500 0.02270971 0.06933727
v 0.02929081 0.02351589 0.06933727
v 0.02928975 0.02363597 0.06933727
v 0.03103215 0.02420429 0.00838342
v 0.03185047 0.02334094 0.01124734
v 0.03145200 0.02376404 0.00953495
v 0.03146054 0.02376175 0.04373498
v 0.03185047 0.02334094 0.05143178
v 0.03146054 0.02375375 0.00868174
v 0.03019674 0.02507451 0.06597216
v 0.03145840 0.02376290 0.06682537
v 0.02862099 0.02620774 0.06683134
v 0.03095523 0.02404649 0.06933727
v 0.03138149 0.02376747 0.06933727
v 0.03141354 0.02374003 0.06933727
v 0.03234082 0.02251761 0.00838342
v 0.03231198 0.02257707 0.00949319
v 0.03225857 0.02266512 0.00868174
v 0.03184940 0.02334094 0.01039413
v 0.03185047 0.02333979 0.06853776
v 0.03218058 0.02078403 0.06933727
v 0.03210473 0.02074172 0.06933727
v 0.03114753 0.02066853 0.06933727
v 0.03111548 0.02068569 0.06933727
v 0.02668735 0.02620774 0.06715949
v 0.02952157 0.02423288 0.06933727
v 0.03145947 0.02375260 0.00838342
v 0.02836246 0.02620774 0.06701630
v 0.03039651 0.02422831 0.06933727
v 0.03225750 0.02266512 0.00838342
v 0.03184193 0.02333751 0.00953495
v 0.02956644 0.02431293 0.06933727
v 0.02710613 0.02620774 0.06728479
v 0.03158767 0.02360509 0.00838342
v 0.02787531 0.02620774 0.06723109
v 0.03035805 0.02423631 0.06933727
v 0.02765844 0.02620774 0.06729672
v 0.03183017 0.02332493 0.00838342
v 0.02965617 0.02432436 0.06933727
f 1 2 6
f 1 6 11
f 1 11 19
f 1 19 32
f 1 32 45
f 1 45 70
f 1 70 93
f 1 93 116
f 1 116 123
f 1 123 127
f 1 127 119
f 1 119 105
f 1 105 78
f 1 78 51
f 1 51 35
f 1 35 22
f 1 22 14
f 1 14 7
f 1 7 3
f 1 3 8
f 1 8 13
f 1 13 16
f 1 16 27
f 1 27 42
f 1 42 65
f 1 65 64
f 1 64 63
f 1 63 85
f 1 85 86
f 1 86 66
f 1 66 43
f 1 43 30
f 1 30 29
f 1 29 28
f 1 28 17
f 1 17 9
f 1 9 4
f 1 4 5
f 1 5 2
f 2 5 10
f 2 10 18
f 2 18 31
f 2 31 44
f 2 44 69
f 2 69 89
f 2 89 114
f 2 114 122
f 2 122 126
f 2 126 124
f 2 124 117
f 2 117 101
f 2 101 77
f 2 77 50
f 2 50 34
f 2 34 21
f 2 21 12
f 2 12 6
f 3 7 8
f 4 9 5
f 5 9 10
f 6 12 11
f 7 13 8
f 7 14 15
f 7 15 16
f 7 16 13
f 9 17 18
f 9 18 10
f 11 12 19
f 12 20 19
f 12 21 20
f 14 22 23
f 14 23 24
f 14 24 15
f 15 24 39
f 15 39 25
f 15 25 16
f 16 25 26
f 16 26 27
f 17 28 18
f 18 28 29
f 18 29 30
f 18 30 31
f 19 20 33
f 19 33 32
f 20 21 34
f 20 34 33
f 22 35 36
f 22 36 23
f 23 37 38
f 23 38 39
f 23 39 24
f 23 36 37
f 25 39 40
f 25 40 26
f 26 40 41
f 26 41 27
f 27 41 42
f 30 43 44
f 30 44 31
f 32 33 45
f 33 46 45
f 33 34 47
f 33 47 48
f 33 48 49
f 33 49 46
f 34 48 47
f 34 50 48
f 35 51 52
f 35 52 53
f 35 53 36
f 36 53 37
f 37 53 54
f 37 54 55
f 37 55 56
f 37 56 38
f 38 56 57
f 38 57 40
f 38 40 39
f 40 57 58
f 40 58 59
f 40 59 60
f 40 60 41
f 41 61 83
f 41 83 104
f 41 104 103
f 41 103 102
f 41 102 118
f 41 118 125
f 41 125 128
f 41 128 121
f 41 121 115
f 41 115 92
f 41 92 91
f 41 91 90
f 41 90 88
f 41 88 68
f 41 68 67
f 41 67 87
f 41 87 113
f 41 113 112
f 41 112 111
f 41 111 110
f 41 110 84
f 41 84 62
f 41 62 63
f 41 63 64
f 41 64 65
f 41 65 42
f 41 60 61
f 43 66 67
f 43 67 68
f 43 68 44
f 44 68 69
f 45 46 70
f 46 71 72
f 46 72 70
f 46 49 73
f 46 73 71
f 48 50 74
f 48 74 75
f 48 75 49
f 49 75 76
f 49 76 73
f 50 77 74
f 51 78 79
f 51 79 52
f 52 79 54
f 52 54 53
f 54 79 80
f 54 80 55
f 55 81 82
f 55 82 60
f 55 60 59
f 55 59 58
f 55 58 56
f 55 80 81
f 56 58 57
f 60 82 61
f 61 82 83
f 62 84 63
f 63 84 85
f 66 86 87
f 66 87 67
f 68 88 69
f 69 88 90
f 69 90 91
f 69 91 92
f 69 92 89
f 70 72 93
f 71 94 95
f 71 95 72
f 71 73 96
f 71 96 97
f 71 97 94
f 72 95 98
f 72 98 116
f 72 116 93
f 73 76 96
f 74 77 83
f 74 83 99
f 74 99 75
f 75 99 76
f 76 99 100
f 76 100 96
f 77 101 102
f 77 102 103
f 77 103 104
f 77 104 83
f 78 105 106
f 78 106 79
f 79 106 107
f 79 107 108
f 79 108 94
f 79 94 80
f 80 94 97
f 80 97 109
f 80 109 81
f 81 109 82
f 82 109 83
f 83 109 100
f 83 100 99
f 84 110 85
f 85 110 111
f 85 111 112
f 85 112 86
f 86 112 113
f 86 113 87
f 89 92 114
f 92 115 114
f 94 108 95
f 95 108 98
f 96 100 97
f 97 100 109
f 98 108 116
f 101 117 102
f 102 117 118
f 105 119 106
f 106 119 107
f 107 119 108
f 108 119 120
f 108 120 116
f 114 115 121
f 114 121 122
f 116 120 123
f 117 124 118
f 118 124 126
f 118 126 125
f 119 127 120
f 120 127 123
f 121 128 122
f 122 128 126
f 125 126 128

