# https://github.com/mikedh/trimesh
v -0.03719839 0.00691550 0.01264569
v -0.03713812 0.00989666 0.01171572
v -0.03655457 0.00977806 0.01171572
v -0.03634339 0.00975419 0.01171572
v -0.03581227 0.01003220 0.01171572
v -0.03636299 0.00691550 0.01306108
v -0.03803770 0.00691550 0.01303628
v -0.03749286 0.01054126 0.01171572
v -0.03563833 0.01027787 0.01171572
v -0.03598375 0.00691550 0.01369345
v -0.03526987 0.01098870 0.01171572
v -0.03843115 0.00691550 0.01368725
v -0.03766974 0.01089705 0.01171572
v -0.03351480 0.01478234 0.01381125
v -0.03590193 0.00691550 0.01413364
v -0.03512043 0.01131754 0.01171572
v -0.03849631 0.00691550 0.01412744
v -0.03763789 0.01200373 0.01171572
v -0.03767268 0.01154396 0.01171572
v -0.03590095 0.00691550 0.01428243
v -0.03499745 0.01174496 0.01171572
v -0.03383818 0.01478234 0.01307967
v -0.03350304 0.01478234 0.01980025
v -0.03849534 0.00693014 0.01413364
v -0.03850807 0.00691550 0.03123886
v -0.03745464 0.01242961 0.01210011
v -0.03744925 0.01243192 0.01171572
v -0.03800831 0.00983428 0.01381125
v -0.03850318 0.00698019 0.03125126
v -0.03763936 0.01200758 0.01637796
v -0.03588723 0.00691550 0.03123886
v -0.03491366 0.01239880 0.01171572
v -0.03492444 0.01309884 0.01171572
v -0.03432325 0.01478234 0.01260229
v -0.03588723 0.00691550 0.03143725
v -0.03350353 0.01478234 0.04288826
v -0.03850807 0.00691550 0.03144345
v -0.03707736 0.01325441 0.01381125
v -0.03682209 0.01378888 0.01381125
v -0.03745562 0.01242807 0.03519432
v -0.03708128 0.01325441 0.03091647
v -0.03721358 0.01283777 0.01171572
v -0.03661336 0.01421630 0.01381125
v -0.03632820 0.01478234 0.01381125
v -0.03850318 0.00698019 0.03142485
v -0.03763936 0.01200758 0.07451959
v -0.03523606 0.01344155 0.01171572
v -0.03475050 0.01478234 0.01240390
v -0.03350402 0.01478234 0.05998728
v -0.03350451 0.01478234 0.06597008
v -0.03589066 0.00691550 0.07163668
v -0.03850514 0.00691550 0.07163668
v -0.03682405 0.01379196 0.03091647
v -0.03745415 0.01243115 0.05228714
v -0.03745611 0.01242652 0.05827614
v -0.03707932 0.01325441 0.07110350
v -0.03682307 0.01379042 0.07195907
v -0.03702151 0.01312888 0.01171572
v -0.03629930 0.01478234 0.01362526
v -0.03633065 0.01478234 0.03689926
v -0.03661140 0.01421861 0.05399828
v -0.03850122 0.00696710 0.07162428
v -0.03763789 0.01200450 0.07505277
v -0.03745023 0.01243192 0.07505277
v -0.03745023 0.01243423 0.07366401
v -0.03745758 0.01241805 0.07280844
v -0.03745807 0.01241805 0.07024793
v -0.03565744 0.01390055 0.01171572
v -0.03544087 0.01478234 0.01236670
v -0.03354420 0.01478234 0.07201487
v -0.03511945 0.01131369 0.07505277
v -0.03601217 0.00691550 0.07207067
v -0.03845075 0.00691550 0.07187228
v -0.03767415 0.01154396 0.07505277
v -0.03707688 0.01325441 0.07195907
v -0.03661043 0.01421784 0.07195907
v -0.03600972 0.01478234 0.01282548
v -0.03621600 0.01382122 0.01171572
v -0.03612242 0.01478234 0.01300528
v -0.03606313 0.01478234 0.01289988
v -0.03632967 0.01478234 0.05998728
v -0.03718614 0.01288552 0.07505277
v -0.03632036 0.01478234 0.07195907
v -0.03605431 0.01385742 0.01171572
v -0.03562657 0.01478234 0.01245969
v -0.03359320 0.01478234 0.07215127
v -0.03490925 0.01239880 0.07505277
v -0.03499647 0.01174111 0.07505277
v -0.03528800 0.01094403 0.07505277
v -0.03619003 0.00691550 0.07238686
v -0.03565744 0.01023167 0.07505277
v -0.03840763 0.00691550 0.07204587
v -0.03767170 0.01087857 0.07505277
v -0.03632869 0.01478234 0.06597008
v -0.03702249 0.01313273 0.07505277
v -0.03612781 0.01478234 0.07267205
v -0.03392001 0.01478234 0.07269065
v -0.03491660 0.01311271 0.07505277
v -0.03644041 0.00691550 0.07269065
v -0.03581031 0.01001526 0.07505277
v -0.03815481 0.00691550 0.07251085
v -0.03749629 0.01053279 0.07505277
v -0.03797793 0.00691550 0.07270925
v -0.03624687 0.01381352 0.07505277
v -0.03574220 0.01478234 0.07314943
v -0.03398860 0.01478234 0.07278364
v -0.03562657 0.01394444 0.07505277
v -0.03673341 0.00691550 0.07282084
v -0.03634339 0.00973802 0.07505277
v -0.03715037 0.00988511 0.07505277
v -0.03753500 0.00691550 0.07290144
v -0.03606313 0.01389978 0.07505277
v -0.03534876 0.01478234 0.07331683
v -0.03466770 0.01478234 0.07322383
v -0.03488966 0.01478234 0.07331683
v -0.03719839 0.00691550 0.07301304
v -0.03650606 0.00975650 0.07505277
f 1 2 3
f 1 3 4
f 1 4 5
f 1 5 6
f 1 6 10
f 1 10 15
f 1 15 20
f 1 20 31
f 1 31 35
f 1 35 51
f 1 51 72
f 1 72 90
f 1 90 99
f 1 99 108
f 1 108 116
f 1 116 111
f 1 111 103
f 1 103 101
f 1 101 92
f 1 92 73
f 1 73 52
f 1 52 37
f 1 37 25
f 1 25 17
f 1 17 12
f 1 12 7
f 1 7 2
f 2 8 13
f 2 13 19
f 2 19 18
f 2 18 27
f 2 27 42
f 2 42 58
f 2 58 78
f 2 78 84
f 2 84 68
f 2 68 47
f 2 47 33
f 2 33 32
f 2 32 21
f 2 21 16
f 2 16 11
f 2 11 9
f 2 9 5
f 2 5 4
f 2 4 3
f 2 7 8
f 5 9 6
f 6 9 11
f 6 11 10
f 7 12 13
f 7 13 8
f 10 14 15
f 10 11 16
f 10 16 14
f 12 17 18
f 12 18 19
f 12 19 13
f 14 20 15
f 14 16 21
f 14 21 22
f 14 22 34
f 14 34 48
f 14 48 69
f 14 69 85
f 14 85 77
f 14 77 80
f 14 80 79
f 14 79 59
f 14 59 44
f 14 44 60
f 14 60 81
f 14 81 94
f 14 94 83
f 14 83 96
f 14 96 105
f 14 105 113
f 14 113 115
f 14 115 114
f 14 114 106
f 14 106 97
f 14 97 86
f 14 86 70
f 14 70 50
f 14 50 49
f 14 49 36
f 14 36 23
f 14 23 20
f 17 24 18
f 17 25 24
f 18 26 27
f 18 24 28
f 18 28 29
f 18 29 30
f 18 30 26
f 20 23 31
f 21 32 22
f 22 32 33
f 22 33 34
f 23 35 31
f 23 36 35
f 24 25 29
f 24 29 28
f 25 37 45
f 25 45 29
f 26 38 39
f 26 39 27
f 26 30 40
f 26 40 41
f 26 41 38
f 27 39 43
f 27 43 44
f 27 44 42
f 29 45 46
f 29 46 30
f 30 46 40
f 33 47 48
f 33 48 34
f 35 36 49
f 35 49 50
f 35 50 51
f 37 52 45
f 38 41 39
f 39 41 53
f 39 53 43
f 40 46 54
f 40 54 41
f 41 54 55
f 41 55 56
f 41 56 57
f 41 57 53
f 42 44 59
f 42 59 58
f 43 60 44
f 43 53 61
f 43 61 60
f 45 52 62
f 45 62 46
f 46 62 63
f 46 63 64
f 46 64 65
f 46 65 66
f 46 66 67
f 46 67 55
f 46 55 54
f 47 68 48
f 48 68 69
f 50 70 51
f 51 70 71
f 51 71 72
f 52 73 74
f 52 74 63
f 52 63 62
f 53 57 61
f 55 67 65
f 55 65 56
f 56 65 64
f 56 64 75
f 56 75 57
f 57 75 64
f 57 64 76
f 57 76 61
f 58 77 78
f 58 59 79
f 58 79 80
f 58 80 77
f 60 61 81
f 61 76 81
f 63 74 93
f 63 93 102
f 63 102 110
f 63 110 117
f 63 117 109
f 63 109 100
f 63 100 91
f 63 91 89
f 63 89 71
f 63 71 88
f 63 88 87
f 63 87 98
f 63 98 107
f 63 107 112
f 63 112 104
f 63 104 95
f 63 95 82
f 63 82 64
f 64 82 83
f 64 83 76
f 65 67 66
f 68 84 69
f 69 84 78
f 69 78 85
f 70 86 87
f 70 87 88
f 70 88 71
f 71 89 72
f 72 89 91
f 72 91 90
f 73 92 74
f 74 92 93
f 76 83 94
f 76 94 81
f 77 85 78
f 82 95 83
f 83 95 96
f 86 97 98
f 86 98 87
f 90 91 100
f 90 100 99
f 92 101 93
f 93 101 103
f 93 103 102
f 95 104 96
f 96 104 105
f 97 106 98
f 98 106 107
f 99 100 108
f 100 109 108
f 102 103 110
f 103 111 110
f 104 112 105
f 105 112 113
f 106 114 107
f 107 113 112
f 107 114 115
f 107 115 113
f 108 109 116
f 109 117 116
f 110 111 116
f 110 116 117

