# https://github.com/mikedh/trimesh
v -0.03565730 0.01390131 0.01171572
v -0.03244199 0.01882214 0.00976203
v -0.03291699 0.01882214 0.00979133
v -0.03605416 0.01385860 0.01171572
v -0.03523577 0.01344197 0.01171572
v -0.03203965 0.01882214 0.00956123
v -0.03492390 0.01309936 0.01171572
v -0.03338102 0.01882214 0.00964224
v -0.03621592 0.01382159 0.01171572
v -0.03178879 0.01882214 0.00934406
v -0.03491293 0.01239991 0.01171572
v -0.03374292 0.01882214 0.00942765
v -0.03702129 0.01312973 0.01171572
v -0.03160647 0.01882214 0.00915360
v -0.03499724 0.01174601 0.01171572
v -0.03409523 0.01882214 0.00905880
v -0.03721321 0.01283932 0.01171572
v -0.03415212 0.01882214 0.00895280
v -0.03157905 0.01882214 0.00908897
v -0.03505207 0.01155335 0.01171572
v -0.03511993 0.01131799 0.01171572
v -0.03744899 0.01243217 0.01171572
v -0.03421929 0.01882214 0.00870030
v -0.03427755 0.01882214 0.00847450
v -0.03145156 0.01882214 0.00867875
v -0.03526935 0.01098962 0.01171572
v -0.03550308 0.00912757 0.00867875
v -0.03511102 0.01720211 0.00844779
v -0.03660935 0.01421734 0.00867875
v -0.03682252 0.01379122 0.00867875
v -0.03707612 0.01325500 0.00867875
v -0.03744968 0.01243502 0.01038855
v -0.03763885 0.01200795 0.01124432
v -0.03763817 0.01200510 0.01171572
v -0.03427412 0.01882214 0.00805740
v -0.03511102 0.01720211 0.00810135
v -0.03110679 0.01882214 0.00291161
v -0.03563742 0.01027783 0.01171572
v -0.03581152 0.01003202 0.01171572
v -0.03574366 0.00912757 0.00943541
v -0.03522000 0.00912757 0.00291161
v -0.03596985 0.01550046 0.00803068
v -0.03682114 0.01378647 0.00782299
v -0.03707544 0.01325500 0.00782299
v -0.03745722 0.01241889 0.00953365
v -0.03763885 0.01200700 0.01038855
v -0.03800418 0.00983462 0.00867875
v -0.03767244 0.01154481 0.01171572
v -0.03810905 0.00912757 0.00867875
v -0.03401572 0.01882214 0.00291161
v -0.03421243 0.01848808 0.00291161
v -0.03677522 0.01369157 0.00307794
v -0.03634341 0.00975395 0.01171572
v -0.03602469 0.00912757 0.00986545
v -0.03796031 0.00912757 0.00291161
v -0.03741129 0.01239991 0.00440338
v -0.03747846 0.01231924 0.00605113
v -0.03748669 0.01231924 0.00698187
v -0.03762857 0.01197948 0.00629416
v -0.03785819 0.01068972 0.00867875
v -0.03799527 0.00983462 0.00782299
v -0.03766970 0.01089756 0.01171572
v -0.03809328 0.00912757 0.00782299
v -0.03806792 0.00912757 0.00884939
v -0.03667241 0.01386430 0.00291161
v -0.03676631 0.01367259 0.00291161
v -0.03684582 0.01349606 0.00291161
v -0.03737291 0.01239991 0.00354848
v -0.03655452 0.00977768 0.01171572
v -0.03711862 0.00912757 0.01015242
v -0.03690271 0.00912757 0.01016966
v -0.03645102 0.00912757 0.01016966
v -0.03795963 0.00919781 0.00291161
v -0.03761349 0.01183427 0.00440338
v -0.03784859 0.01005290 0.00291161
v -0.03783762 0.00912757 0.00950521
v -0.03749286 0.01054166 0.01171572
v -0.03731259 0.01239991 0.00291161
v -0.03758745 0.01177069 0.00354848
v -0.03713781 0.00989631 0.01171572
v -0.03746818 0.00912757 0.00999299
v -0.03766353 0.01134266 0.00354848
v -0.03769917 0.01092223 0.00291161
v -0.03777456 0.00912757 0.00962069
v -0.03756483 0.01159132 0.00291161
v -0.03764502 0.01122118 0.00291161
v -0.03764639 0.01121644 0.00291592
v -0.03754084 0.00912757 0.00991888
v -0.03764708 0.01121075 0.00291161
f 1 2 3
f 1 3 4
f 1 4 9
f 1 9 13
f 1 13 17
f 1 17 22
f 1 22 34
f 1 34 48
f 1 48 62
f 1 62 77
f 1 77 80
f 1 80 69
f 1 69 53
f 1 53 39
f 1 39 38
f 1 38 26
f 1 26 21
f 1 21 20
f 1 20 15
f 1 15 11
f 1 11 7
f 1 7 5
f 1 5 2
f 2 6 10
f 2 10 14
f 2 14 19
f 2 19 25
f 2 25 37
f 2 37 50
f 2 50 35
f 2 35 24
f 2 24 23
f 2 23 18
f 2 18 16
f 2 16 12
f 2 12 8
f 2 8 3
f 2 5 7
f 2 7 6
f 3 8 9
f 3 9 4
f 6 7 11
f 6 11 10
f 8 12 9
f 9 12 13
f 10 11 15
f 10 15 14
f 12 16 13
f 13 16 18
f 13 18 17
f 14 15 20
f 14 20 21
f 14 21 19
f 17 18 23
f 17 23 24
f 17 24 22
f 19 21 25
f 21 26 27
f 21 27 25
f 22 24 28
f 22 28 29
f 22 29 30
f 22 30 31
f 22 31 32
f 22 32 33
f 22 33 34
f 24 35 36
f 24 36 28
f 25 27 37
f 26 38 27
f 27 38 39
f 27 39 40
f 27 40 54
f 27 54 72
f 27 72 71
f 27 71 70
f 27 70 81
f 27 81 88
f 27 88 84
f 27 84 76
f 27 76 64
f 27 64 49
f 27 49 63
f 27 63 55
f 27 55 41
f 27 41 37
f 28 36 42
f 28 42 29
f 29 42 30
f 30 42 43
f 30 43 44
f 30 44 31
f 31 44 45
f 31 45 32
f 32 45 33
f 33 45 46
f 33 46 47
f 33 47 34
f 34 47 49
f 34 49 48
f 35 50 51
f 35 51 52
f 35 52 36
f 36 52 42
f 37 41 55
f 37 55 73
f 37 73 75
f 37 75 83
f 37 83 89
f 37 89 86
f 37 86 85
f 37 85 78
f 37 78 67
f 37 67 66
f 37 66 65
f 37 65 51
f 37 51 50
f 39 53 54
f 39 54 40
f 42 52 43
f 43 52 44
f 44 56 57
f 44 57 58
f 44 58 45
f 44 52 56
f 45 58 46
f 46 58 59
f 46 59 60
f 46 60 47
f 47 61 49
f 47 60 59
f 47 59 61
f 48 49 62
f 49 64 62
f 49 61 63
f 51 65 52
f 52 65 66
f 52 66 67
f 52 67 68
f 52 68 56
f 53 69 70
f 53 70 71
f 53 71 72
f 53 72 54
f 55 63 73
f 56 68 74
f 56 74 59
f 56 59 57
f 57 59 58
f 59 74 61
f 61 75 63
f 61 74 75
f 62 64 76
f 62 76 77
f 63 75 73
f 67 78 68
f 68 78 79
f 68 79 74
f 69 80 70
f 70 80 81
f 74 79 82
f 74 82 75
f 75 82 83
f 76 84 80
f 76 80 77
f 78 85 79
f 79 85 86
f 79 86 87
f 79 87 83
f 79 83 82
f 80 84 88
f 80 88 81
f 83 87 89
f 86 89 87

