# https://github.com/mikedh/trimesh
v 0.03035805 0.02413797 0.08051008
v 0.02973535 0.02405678 0.08051008
v 0.03093710 0.02402362 0.08051008
v 0.02778317 0.02620774 0.07872742
v 0.02687414 0.02620774 0.07864430
v 0.02941921 0.02351475 0.08051008
v 0.02629615 0.02620774 0.07850869
v 0.03136394 0.02377204 0.08051008
v 0.02893596 0.02620774 0.07794436
v 0.02850166 0.02620774 0.07851853
v 0.02940644 0.02266054 0.08051008
v 0.02620780 0.02620774 0.07845182
v 0.03185464 0.02334437 0.08051008
v 0.02904027 0.02620774 0.07708912
v 0.02972258 0.02190697 0.08051008
v 0.02586824 0.02620774 0.07819372
v 0.03222720 0.02266054 0.08051008
v 0.03249756 0.02223859 0.07840479
v 0.03230384 0.02257821 0.07873398
v 0.03226126 0.02266855 0.07794436
v 0.03226978 0.02266626 0.07623497
v 0.03185039 0.02333979 0.06933727
v 0.03145335 0.02376518 0.07281510
v 0.03103396 0.02420544 0.07195986
v 0.03062415 0.02463083 0.07708912
v 0.03019732 0.02507108 0.07708912
v 0.02976728 0.02549876 0.07708912
v 0.02976302 0.02549876 0.07195986
v 0.02902430 0.02620774 0.07195986
v 0.03001849 0.02147929 0.08051008
v 0.02569581 0.02620774 0.07791046
v 0.03371635 0.01452555 0.07795092
v 0.03239644 0.02174687 0.08051008
v 0.03573026 0.01452555 0.07900630
v 0.03617520 0.01452555 0.07865633
v 0.03627206 0.01452555 0.07842010
v 0.03640938 0.01452555 0.07795202
v 0.03596550 0.01549182 0.07769173
v 0.03424537 0.01889265 0.07763048
v 0.03338424 0.02058506 0.07767970
v 0.03249863 0.02224087 0.07794436
v 0.03249969 0.02224087 0.07060373
v 0.03226126 0.02266855 0.07110462
v 0.03146080 0.02375489 0.07110462
v 0.03230916 0.02258050 0.07029094
v 0.03221230 0.02270514 0.06933727
v 0.03141397 0.02374003 0.06933727
v 0.02897534 0.02620774 0.07110462
v 0.02974067 0.02548161 0.07110462
v 0.03018774 0.02505393 0.07110462
v 0.03061564 0.02463197 0.07110462
v 0.03103290 0.02420429 0.07110462
v 0.03062415 0.02463311 0.07195986
v 0.03019732 0.02507222 0.07195986
v 0.02901153 0.02620774 0.07171816
v 0.03404100 0.01452555 0.07853275
v 0.03464241 0.01452555 0.07895818
v 0.03505435 0.01452555 0.07923160
v 0.03044639 0.02109850 0.08051008
v 0.02558084 0.02620774 0.07708912
v 0.03363013 0.01452555 0.07708912
v 0.03209947 0.02098643 0.08051008
v 0.03507883 0.01452555 0.07923597
v 0.03543648 0.01452555 0.07914411
v 0.03561211 0.01452555 0.07909380
v 0.03643705 0.01452555 0.07758236
v 0.03645408 0.01452555 0.07708912
v 0.03623374 0.01496581 0.07708912
v 0.03424857 0.01889951 0.07172691
v 0.03510970 0.01720139 0.07173129
v 0.03338424 0.02058620 0.07708912
v 0.03315752 0.02101388 0.07708912
v 0.03273281 0.02180519 0.07708912
v 0.03273387 0.02180519 0.07195986
v 0.03223678 0.02266054 0.06933727
v 0.03338318 0.02058163 0.07135507
v 0.03138097 0.02376747 0.06933727
v 0.02892638 0.02620774 0.07100401
v 0.03119469 0.02071084 0.08051008
v 0.02560426 0.02620774 0.07195986
v 0.03364822 0.01452555 0.07199705
v 0.03121066 0.02070284 0.08051008
v 0.03645302 0.01452555 0.07195986
v 0.03596870 0.01549983 0.07131788
v 0.03424857 0.01889951 0.07139881
v 0.03510970 0.01720139 0.07138569
v 0.03239857 0.02191954 0.06933727
v 0.03643173 0.01452555 0.07108822
v 0.03619755 0.01452555 0.07035875
v 0.03573026 0.01452555 0.06991035
v 0.03095519 0.02404649 0.06933727
v 0.02852615 0.02620774 0.07049327
v 0.02567239 0.02620774 0.07110462
v 0.03368867 0.01452555 0.07109040
v 0.03240815 0.02185894 0.06933727
v 0.03557166 0.01452555 0.06985785
v 0.03524169 0.01452555 0.06975176
v 0.03039636 0.02422831 0.06933727
v 0.02766714 0.02620774 0.07022970
v 0.02845802 0.02620774 0.07045936
v 0.02579373 0.02620774 0.07089026
v 0.03381002 0.01452555 0.07080058
v 0.03218036 0.02078403 0.06933727
v 0.03509692 0.01452555 0.06975176
v 0.03114679 0.02066853 0.06933727
v 0.03210479 0.02074172 0.06933727
v 0.03035805 0.02423631 0.06933727
v 0.02681134 0.02620774 0.07030516
v 0.02965658 0.02432436 0.06933727
v 0.02956717 0.02431293 0.06933727
v 0.02607794 0.02620774 0.07058513
v 0.02971832 0.02191497 0.06933727
v 0.03401758 0.01452555 0.07048233
v 0.03498090 0.01452555 0.06977911
v 0.03002168 0.02148729 0.06933727
v 0.03044959 0.02106076 0.06933727
v 0.03111486 0.02068569 0.06933727
v 0.02610561 0.02620774 0.07056982
v 0.02952140 0.02423288 0.06933727
v 0.02928935 0.02363597 0.06933727
v 0.02932447 0.02270971 0.06933727
v 0.02936067 0.02262166 0.06933727
v 0.03000146 0.02151474 0.06933727
v 0.03422089 0.01452555 0.07026251
v 0.03479888 0.01452555 0.06986004
v 0.02929041 0.02351589 0.06933727
f 1 2 6
f 1 6 11
f 1 11 15
f 1 15 30
f 1 30 59
f 1 59 79
f 1 79 82
f 1 82 62
f 1 62 33
f 1 33 17
f 1 17 13
f 1 13 8
f 1 8 3
f 1 3 4
f 1 4 5
f 1 5 2
f 2 5 7
f 2 7 6
f 3 8 9
f 3 9 10
f 3 10 4
f 4 10 9
f 4 9 14
f 4 14 29
f 4 29 55
f 4 55 48
f 4 48 78
f 4 78 92
f 4 92 100
f 4 100 99
f 4 99 108
f 4 108 118
f 4 118 111
f 4 111 101
f 4 101 93
f 4 93 80
f 4 80 60
f 4 60 31
f 4 31 16
f 4 16 12
f 4 12 7
f 4 7 5
f 6 7 11
f 7 12 11
f 8 13 9
f 9 13 14
f 11 12 16
f 11 16 15
f 13 17 18
f 13 18 19
f 13 19 20
f 13 20 21
f 13 21 22
f 13 22 23
f 13 23 24
f 13 24 25
f 13 25 26
f 13 26 27
f 13 27 14
f 14 27 28
f 14 28 29
f 15 16 31
f 15 31 32
f 15 32 30
f 17 33 34
f 17 34 35
f 17 35 36
f 17 36 37
f 17 37 38
f 17 38 39
f 17 39 40
f 17 40 18
f 18 41 20
f 18 20 19
f 18 40 41
f 20 41 21
f 21 41 42
f 21 42 43
f 21 43 22
f 22 44 23
f 22 43 45
f 22 45 46
f 22 46 75
f 22 75 87
f 22 87 95
f 22 95 103
f 22 103 106
f 22 106 105
f 22 105 117
f 22 117 116
f 22 116 115
f 22 115 123
f 22 123 112
f 22 112 122
f 22 122 121
f 22 121 126
f 22 126 120
f 22 120 119
f 22 119 110
f 22 110 109
f 22 109 107
f 22 107 98
f 22 98 91
f 22 91 77
f 22 77 47
f 22 47 48
f 22 48 49
f 22 49 50
f 22 50 51
f 22 51 52
f 22 52 44
f 23 44 24
f 24 52 53
f 24 53 25
f 24 44 52
f 25 53 26
f 26 53 54
f 26 54 27
f 27 54 28
f 28 54 50
f 28 50 29
f 29 50 49
f 29 49 55
f 30 32 56
f 30 56 57
f 30 57 58
f 30 58 59
f 31 60 32
f 32 61 81
f 32 81 94
f 32 94 102
f 32 102 113
f 32 113 124
f 32 124 125
f 32 125 114
f 32 114 104
f 32 104 97
f 32 97 96
f 32 96 90
f 32 90 89
f 32 89 88
f 32 88 83
f 32 83 67
f 32 67 66
f 32 66 37
f 32 37 36
f 32 36 35
f 32 35 34
f 32 34 65
f 32 65 64
f 32 64 63
f 32 63 58
f 32 58 57
f 32 57 56
f 32 60 61
f 33 62 63
f 33 63 64
f 33 64 65
f 33 65 34
f 37 66 38
f 38 66 67
f 38 67 68
f 38 68 39
f 39 69 40
f 39 68 70
f 39 70 69
f 40 69 71
f 40 71 72
f 40 72 41
f 41 72 73
f 41 73 74
f 41 74 42
f 42 75 45
f 42 45 43
f 42 74 76
f 42 76 75
f 45 75 46
f 47 77 48
f 48 55 49
f 48 77 78
f 50 54 51
f 51 54 52
f 52 54 53
f 58 63 59
f 59 63 79
f 60 80 81
f 60 81 61
f 62 82 63
f 63 82 79
f 67 83 84
f 67 84 68
f 68 84 70
f 69 85 71
f 69 70 86
f 69 86 85
f 70 84 86
f 71 76 72
f 71 85 76
f 72 76 74
f 72 74 73
f 75 76 85
f 75 85 86
f 75 86 84
f 75 84 88
f 75 88 89
f 75 89 90
f 75 90 87
f 77 91 78
f 78 91 92
f 80 93 94
f 80 94 81
f 83 88 84
f 87 90 96
f 87 96 97
f 87 97 95
f 91 98 99
f 91 99 100
f 91 100 92
f 93 101 102
f 93 102 94
f 95 97 103
f 97 104 105
f 97 105 106
f 97 106 103
f 98 107 99
f 99 107 109
f 99 109 110
f 99 110 108
f 101 111 112
f 101 112 102
f 102 112 113
f 104 114 115
f 104 115 116
f 104 116 117
f 104 117 105
f 108 110 119
f 108 119 120
f 108 120 118
f 111 118 121
f 111 121 122
f 111 122 112
f 112 123 113
f 113 123 124
f 114 125 115
f 115 125 124
f 115 124 123
f 118 120 126
f 118 126 121

