# https://github.com/mikedh/trimesh
v -0.01576195 -0.03311056 0.00839055
v -0.01576195 -0.03312857 0.00780096
v -0.01576195 -0.03580948 0.00839055
v 0.00000654 -0.03670809 0.00839055
v 0.00000654 -0.03672486 0.00387201
v -0.01576195 -0.03365146 0.00387201
v -0.01572337 -0.03583681 0.00839055
v -0.01576195 -0.03578899 0.00808005
v 0.00000654 -0.03945110 0.00839055
v 0.00000654 -0.03937658 0.00387201
v -0.01576195 -0.03489411 0.00387201
v -0.01549956 -0.03597033 0.00803051
v -0.01548567 -0.03596349 0.00839055
v -0.01576195 -0.03577098 0.00780848
v -0.00042873 -0.03944986 0.00839055
v -0.00042873 -0.03945421 0.00696855
v 0.00000654 -0.03945359 0.00696855
v 0.00000654 -0.03937969 0.00395826
v -0.00042873 -0.03937658 0.00387201
v -0.01556747 -0.03517294 0.00387201
v -0.01378781 -0.03682236 0.00839055
v -0.01407181 -0.03668076 0.00839055
v -0.01520320 -0.03611067 0.00839055
v -0.01323060 -0.03696457 0.00387201
v -0.01292190 -0.03713969 0.00387201
v -0.01378472 -0.03682111 0.00782352
v -0.01460278 -0.03595666 0.00387201
v -0.01361339 -0.03669629 0.00387201
v -0.00064791 -0.03942192 0.00839055
v -0.00086091 -0.03933746 0.00395915
v -0.00049819 -0.03939335 0.00435368
v -0.00040712 -0.03941943 0.00525862
v 0.00000654 -0.03941943 0.00525862
v -0.00137027 -0.03932938 0.00839055
v -0.00151382 -0.03931075 0.00839055
v -0.00150764 -0.03930889 0.00782352
v 0.00000654 -0.03939335 0.00436297
v -0.00073897 -0.03934553 0.00387201
v -0.01325375 -0.03707573 0.00839055
v -0.01325375 -0.03707511 0.00782352
v -0.01239865 -0.03738189 0.00387201
v -0.01239865 -0.03740797 0.00440366
v -0.00697167 -0.03850157 0.00817736
v -0.01149878 -0.03764085 0.00387201
v -0.00213894 -0.03921946 0.00839055
v -0.01231684 -0.03748622 0.00697076
v -0.01234617 -0.03747007 0.00839055
v -0.01231684 -0.03747752 0.00608130
v -0.01217175 -0.03745889 0.00387201
v -0.01179822 -0.03761042 0.00440366
v -0.01197727 -0.03762843 0.00634447
v -0.00697167 -0.03850157 0.00834189
v -0.01068844 -0.03785634 0.00839055
v -0.01176426 -0.03759303 0.00387201
v -0.00681114 -0.03851462 0.00839055
v -0.01197727 -0.03762843 0.00668725
v -0.01194486 -0.03762036 0.00839055
v -0.00701797 -0.03848232 0.00839055
v -0.01012197 -0.03795322 0.00839055
v -0.01157750 -0.03769239 0.00839055
f 1 2 6
f 1 6 11
f 1 11 14
f 1 14 8
f 1 8 3
f 1 3 7
f 1 7 13
f 1 13 23
f 1 23 22
f 1 22 21
f 1 21 39
f 1 39 47
f 1 47 57
f 1 57 60
f 1 60 53
f 1 53 59
f 1 59 58
f 1 58 55
f 1 55 45
f 1 45 35
f 1 35 34
f 1 34 29
f 1 29 15
f 1 15 9
f 1 9 4
f 1 4 5
f 1 5 2
f 2 5 6
f 3 8 7
f 4 9 17
f 4 17 33
f 4 33 37
f 4 37 18
f 4 18 10
f 4 10 5
f 5 10 19
f 5 19 38
f 5 38 44
f 5 44 54
f 5 54 49
f 5 49 41
f 5 41 25
f 5 25 24
f 5 24 28
f 5 28 27
f 5 27 20
f 5 20 11
f 5 11 6
f 7 12 13
f 7 8 14
f 7 14 12
f 9 15 16
f 9 16 17
f 10 18 19
f 11 20 14
f 12 21 22
f 12 22 23
f 12 23 13
f 12 14 24
f 12 24 25
f 12 25 26
f 12 26 21
f 14 20 27
f 14 27 28
f 14 28 24
f 15 29 16
f 16 30 31
f 16 31 32
f 16 32 33
f 16 33 17
f 16 29 34
f 16 34 35
f 16 35 36
f 16 36 30
f 18 37 31
f 18 31 19
f 19 31 38
f 21 26 40
f 21 40 39
f 25 41 42
f 25 42 26
f 26 42 40
f 30 38 31
f 30 36 43
f 30 43 44
f 30 44 38
f 31 37 33
f 31 33 32
f 35 45 36
f 36 45 43
f 39 46 47
f 39 40 46
f 40 42 48
f 40 48 46
f 41 49 42
f 42 49 50
f 42 50 51
f 42 51 48
f 43 45 52
f 43 52 53
f 43 53 51
f 43 51 50
f 43 50 44
f 44 50 54
f 45 55 52
f 46 48 51
f 46 51 56
f 46 56 47
f 47 56 57
f 49 54 50
f 51 53 56
f 52 55 58
f 52 58 59
f 52 59 53
f 53 60 56
f 56 60 57

