# https://github.com/mikedh/trimesh
v 0.00993475 -0.03634310 0.07457491
v 0.01017035 -0.03584325 0.07457491
v 0.01000530 -0.03696299 0.07457491
v 0.00683078 -0.03719859 0.07595477
v 0.01064686 -0.03550688 0.07457491
v 0.00683078 -0.03638459 0.07635205
v 0.01001728 -0.03702423 0.07457491
v 0.00683078 -0.03804568 0.07632946
v 0.01131770 -0.03514780 0.07457491
v 0.00683078 -0.03599884 0.07700510
v 0.01062423 -0.03744407 0.07457491
v 0.00683078 -0.03843292 0.07693335
v 0.01104484 -0.03764757 0.07457491
v 0.01135364 -0.03513150 0.07457491
v 0.00683078 -0.03590696 0.07745553
v 0.01490617 -0.03346103 0.07709080
v 0.01527221 -0.03346103 0.07656331
v 0.01137893 -0.03512359 0.07457491
v 0.00683078 -0.03850453 0.07735388
v 0.01154531 -0.03765992 0.07457491
v 0.01200851 -0.03763967 0.07457491
v 0.00683078 -0.03590598 0.07754522
v 0.01490085 -0.03346103 0.07717982
v 0.01581927 -0.03346103 0.07636733
v 0.01178090 -0.03500752 0.07457491
v 0.00694391 -0.03849762 0.07741235
v 0.00683078 -0.03850651 0.07759172
v 0.01204178 -0.03765399 0.08136124
v 0.01243577 -0.03744308 0.07457491
v 0.01243577 -0.03745049 0.07538010
v 0.01246905 -0.03746926 0.08136124
v 0.00683078 -0.03609910 0.07796442
v 0.00988151 -0.03569705 0.08136124
v 0.01074402 -0.03525498 0.08136124
v 0.01114200 -0.03506630 0.08136124
v 0.01152002 -0.03494973 0.08136124
v 0.01504993 -0.03346103 0.07787673
v 0.01670307 -0.03346103 0.07616005
v 0.01239983 -0.03496406 0.07457491
v 0.01752965 -0.03346103 0.07606305
v 0.00694391 -0.03849762 0.07756781
v 0.00683078 -0.03842946 0.07778505
v 0.01154531 -0.03772759 0.08136124
v 0.01070409 -0.03775524 0.08136124
v 0.01059095 -0.03774339 0.08136124
v 0.01247836 -0.03741789 0.07457491
v 0.02042731 -0.03346103 0.07709080
v 0.01496474 -0.03623345 0.07709080
v 0.01421271 -0.03661180 0.07709080
v 0.01378544 -0.03682024 0.07709080
v 0.01325569 -0.03707313 0.07709080
v 0.01549050 -0.03596574 0.07769270
v 0.01889130 -0.03424588 0.07763158
v 0.02042865 -0.03346103 0.07749074
v 0.01325835 -0.03702621 0.08136124
v 0.00683078 -0.03632631 0.07831055
v 0.00910019 -0.03629371 0.08136124
v 0.00986554 -0.03570791 0.08136124
v 0.01152667 -0.03494776 0.08136124
v 0.01512979 -0.03346103 0.07795910
v 0.01240116 -0.03475463 0.08136124
v 0.01846270 -0.03346103 0.07611687
v 0.01294689 -0.03501197 0.07457491
v 0.00683078 -0.03833610 0.07799764
v 0.00979899 -0.03754928 0.08136124
v 0.01308665 -0.03701583 0.07457491
v 0.02009456 -0.03346103 0.07649355
v 0.01889130 -0.03424588 0.07728213
v 0.02035544 -0.03346103 0.07782358
v 0.01328231 -0.03701040 0.08136124
v 0.02024763 -0.03346103 0.07805610
v 0.00683078 -0.03653475 0.07856366
v 0.00683078 -0.03685185 0.07867062
v 0.00886327 -0.03719859 0.08136124
v 0.01532013 -0.03346103 0.07814579
v 0.01362439 -0.03468795 0.08136124
v 0.01697727 -0.03346103 0.07868059
v 0.01621725 -0.03346103 0.07856034
v 0.01598432 -0.03346103 0.07850121
v 0.01547985 -0.03346103 0.07827999
v 0.01924003 -0.03346103 0.07617666
v 0.01336883 -0.03541106 0.07457491
v 0.00683078 -0.03811927 0.07833845
v 0.00897907 -0.03724897 0.08136124
v 0.01353920 -0.03638361 0.07457491
v 0.01365633 -0.03671454 0.08136124
v 0.01985763 -0.03346103 0.07845737
v 0.00683078 -0.03719859 0.07877293
v 0.00683078 -0.03757002 0.07869055
v 0.00683078 -0.03790046 0.07858160
v 0.01409291 -0.03485588 0.08136124
v 0.01939044 -0.03346103 0.07861681
v 0.01872093 -0.03346103 0.07871713
v 0.01784777 -0.03346103 0.07875101
v 0.01372821 -0.03597957 0.07457491
v 0.01373220 -0.03583139 0.07457491
v 0.01398510 -0.03639200 0.08136124
v 0.01458806 -0.03546440 0.08136124
v 0.01402902 -0.03634705 0.08136124
v 0.01978043 -0.03346103 0.07849391
f 1 2 5
f 1 5 9
f 1 9 14
f 1 14 18
f 1 18 25
f 1 25 39
f 1 39 63
f 1 63 82
f 1 82 96
f 1 96 95
f 1 95 85
f 1 85 66
f 1 66 46
f 1 46 29
f 1 29 21
f 1 21 20
f 1 20 13
f 1 13 11
f 1 11 7
f 1 7 3
f 1 3 4
f 1 4 2
f 2 4 6
f 2 6 5
f 3 7 4
f 4 8 12
f 4 12 19
f 4 19 27
f 4 27 42
f 4 42 64
f 4 64 83
f 4 83 90
f 4 90 89
f 4 89 88
f 4 88 73
f 4 73 72
f 4 72 56
f 4 56 32
f 4 32 22
f 4 22 15
f 4 15 10
f 4 10 6
f 4 7 8
f 5 6 9
f 6 10 9
f 7 11 8
f 8 11 13
f 8 13 12
f 9 10 14
f 10 15 16
f 10 16 17
f 10 17 18
f 10 18 14
f 12 13 20
f 12 20 21
f 12 21 19
f 15 22 23
f 15 23 16
f 16 23 37
f 16 37 60
f 16 60 75
f 16 75 80
f 16 80 79
f 16 79 78
f 16 78 77
f 16 77 94
f 16 94 93
f 16 93 92
f 16 92 100
f 16 100 87
f 16 87 71
f 16 71 69
f 16 69 54
f 16 54 47
f 16 47 67
f 16 67 81
f 16 81 62
f 16 62 40
f 16 40 38
f 16 38 24
f 16 24 17
f 17 24 25
f 17 25 18
f 19 26 27
f 19 21 26
f 21 28 26
f 21 29 30
f 21 30 31
f 21 31 28
f 22 32 33
f 22 33 34
f 22 34 35
f 22 35 36
f 22 36 37
f 22 37 23
f 24 38 25
f 25 38 40
f 25 40 39
f 26 41 27
f 26 28 41
f 27 41 43
f 27 43 44
f 27 44 45
f 27 45 42
f 28 43 41
f 28 31 55
f 28 55 70
f 28 70 86
f 28 86 97
f 28 97 99
f 28 99 98
f 28 98 91
f 28 91 76
f 28 76 61
f 28 61 59
f 28 59 36
f 28 36 35
f 28 35 34
f 28 34 33
f 28 33 58
f 28 58 57
f 28 57 74
f 28 74 84
f 28 84 65
f 28 65 45
f 28 45 44
f 28 44 43
f 29 46 47
f 29 47 48
f 29 48 49
f 29 49 50
f 29 50 30
f 30 50 51
f 30 51 31
f 31 51 50
f 31 50 49
f 31 49 48
f 31 48 52
f 31 52 53
f 31 53 54
f 31 54 55
f 32 56 57
f 32 57 58
f 32 58 33
f 36 59 37
f 37 59 61
f 37 61 60
f 39 40 62
f 39 62 63
f 42 45 64
f 45 65 64
f 46 66 67
f 46 67 47
f 47 54 68
f 47 68 48
f 48 68 53
f 48 53 52
f 53 68 54
f 54 69 55
f 55 69 71
f 55 71 70
f 56 72 57
f 57 72 73
f 57 73 74
f 60 61 75
f 61 76 77
f 61 77 78
f 61 78 79
f 61 79 80
f 61 80 75
f 62 81 63
f 63 81 82
f 64 65 84
f 64 84 74
f 64 74 83
f 66 85 67
f 67 85 81
f 70 71 86
f 71 87 86
f 73 88 74
f 74 88 89
f 74 89 90
f 74 90 83
f 76 91 92
f 76 92 93
f 76 93 94
f 76 94 77
f 81 85 95
f 81 95 96
f 81 96 82
f 86 87 97
f 87 98 99
f 87 99 97
f 87 100 98
f 91 98 100
f 91 100 92

