# https://github.com/mikedh/trimesh
v 0.00000654 -0.03694196 0.06922363
v -0.00034133 -0.03694230 0.06922363
v 0.00000654 -0.03945977 0.06922363
v 0.00000654 -0.03674857 0.06657974
v -0.00658694 -0.03600667 0.06597237
v -0.00042782 -0.03694264 0.06922363
v -0.00025227 -0.03946045 0.06922363
v 0.00000654 -0.03946658 0.06768136
v 0.00000654 -0.03672678 0.06627606
v -0.00658694 -0.03607715 0.06613314
v 0.00000654 -0.03670635 0.06597237
v -0.00658694 -0.03599237 0.05418209
v -0.00111259 -0.03713024 0.06922363
v -0.00658694 -0.03644486 0.06686557
v -0.00658694 -0.03651875 0.06694894
v -0.00658694 -0.03658854 0.06702635
v -0.00042782 -0.03946079 0.06922363
v -0.00042782 -0.03946522 0.06768136
v -0.00042782 -0.03946896 0.06425742
v 0.00000654 -0.03946760 0.06425742
v 0.00000654 -0.03670396 0.05399749
v -0.00658694 -0.03599101 0.02561745
v -0.00128298 -0.03718948 0.06922363
v -0.00658694 -0.03706793 0.06726453
v -0.00199357 -0.03749353 0.06922363
v -0.00186385 -0.03742100 0.06922363
v -0.00090800 -0.03935627 0.06922363
v -0.00658694 -0.03851359 0.06607955
v -0.00658694 -0.03852381 0.06589496
v -0.00299331 -0.03909478 0.06597237
v 0.00000654 -0.03946794 0.06169690
v -0.00213815 -0.03922348 0.05998195
v -0.00213815 -0.03922450 0.05399749
v -0.00213815 -0.03922519 0.03690158
v -0.00213815 -0.03922587 0.01381526
v -0.00042782 -0.03946931 0.04117110
v 0.00000654 -0.03670328 0.03133395
v -0.00658694 -0.03599101 0.02561150
v -0.00658694 -0.03724804 0.06727644
v -0.00213105 -0.03805361 0.06922363
v -0.00125007 -0.03913564 0.06922363
v -0.00658694 -0.03765593 0.06727049
v -0.00658694 -0.03814009 0.06678220
v -0.00658694 -0.03827287 0.06658570
v -0.00622035 -0.03851529 0.06645470
v -0.00658694 -0.03853062 0.05457510
v -0.00299331 -0.03909819 0.05998195
v 0.00000654 -0.03946828 0.03262612
v -0.00299331 -0.03909614 0.01979972
v -0.00299331 -0.03909546 0.01381526
v -0.00213815 -0.03922280 0.00868232
v -0.00151597 -0.03931166 0.00868232
v -0.00042782 -0.03946658 0.01210031
v -0.00042782 -0.03946862 0.01809073
v -0.00042782 -0.03946896 0.02407519
v 0.00000654 -0.03946828 0.03005965
v 0.00000654 -0.03670499 0.01381526
v -0.00658694 -0.03599441 0.00845605
v -0.00211749 -0.03812885 0.06922363
v -0.00200906 -0.03862697 0.06922363
v -0.00658694 -0.03853436 0.03152450
v -0.00658694 -0.03853436 0.03114936
v -0.00658694 -0.03853232 0.00839054
v -0.00213815 -0.03921940 0.00839054
v -0.00151339 -0.03931064 0.00839054
v -0.00042782 -0.03946556 0.00953980
v 0.00000654 -0.03946624 0.00953980
v 0.00000654 -0.03946760 0.01552426
v 0.00000654 -0.03670737 0.00868232
v 0.00000654 -0.03670873 0.00839054
v -0.00658694 -0.03599714 0.00839054
v -0.00136947 -0.03932971 0.00839054
v -0.00042782 -0.03945024 0.00839054
v 0.00000654 -0.03945092 0.00839054
f 1 2 6
f 1 6 13
f 1 13 23
f 1 23 26
f 1 26 25
f 1 25 40
f 1 40 59
f 1 59 60
f 1 60 41
f 1 41 27
f 1 27 17
f 1 17 7
f 1 7 3
f 1 3 8
f 1 8 20
f 1 20 31
f 1 31 48
f 1 48 56
f 1 56 68
f 1 68 67
f 1 67 74
f 1 74 70
f 1 70 69
f 1 69 57
f 1 57 37
f 1 37 21
f 1 21 11
f 1 11 9
f 1 9 4
f 1 4 5
f 1 5 2
f 2 5 6
f 3 7 8
f 4 9 5
f 5 10 6
f 5 9 11
f 5 11 12
f 5 12 22
f 5 22 38
f 5 38 58
f 5 58 71
f 5 71 63
f 5 63 62
f 5 62 61
f 5 61 46
f 5 46 29
f 5 29 28
f 5 28 44
f 5 44 43
f 5 43 42
f 5 42 39
f 5 39 24
f 5 24 16
f 5 16 15
f 5 15 14
f 5 14 10
f 6 10 14
f 6 14 15
f 6 15 16
f 6 16 13
f 7 17 8
f 8 17 18
f 8 18 19
f 8 19 20
f 11 21 12
f 12 21 22
f 13 16 23
f 16 24 25
f 16 25 26
f 16 26 23
f 17 27 28
f 17 28 29
f 17 29 30
f 17 30 18
f 18 30 19
f 19 31 20
f 19 30 32
f 19 32 33
f 19 33 34
f 19 34 35
f 19 35 36
f 19 36 31
f 21 37 22
f 22 37 38
f 24 39 40
f 24 40 25
f 27 41 42
f 27 42 43
f 27 43 44
f 27 44 45
f 27 45 28
f 28 45 44
f 29 46 30
f 30 46 47
f 30 47 32
f 31 36 48
f 32 47 33
f 33 47 34
f 34 47 35
f 35 47 49
f 35 49 50
f 35 50 51
f 35 51 52
f 35 52 53
f 35 53 54
f 35 54 55
f 35 55 36
f 36 55 56
f 36 56 48
f 37 57 38
f 38 57 58
f 39 42 40
f 40 42 59
f 41 60 42
f 42 60 59
f 46 61 47
f 47 61 62
f 47 62 49
f 49 62 63
f 49 63 50
f 50 63 51
f 51 63 64
f 51 64 65
f 51 65 52
f 52 65 66
f 52 66 53
f 53 66 67
f 53 67 54
f 54 67 68
f 54 68 55
f 55 68 56
f 57 69 58
f 58 69 70
f 58 70 71
f 63 71 70
f 63 70 74
f 63 74 73
f 63 73 72
f 63 72 65
f 63 65 64
f 65 72 66
f 66 72 73
f 66 73 74
f 66 74 67

