# https://github.com/mikedh/trimesh
v -0.03320321 -0.02088393 0.00839055
v -0.03329591 -0.02073418 0.00839055
v -0.03017935 -0.02088393 0.00839055
v -0.03320775 -0.02088393 0.00872743
v -0.03338471 -0.02058444 0.00839055
v -0.03322784 -0.02088393 0.01381306
v -0.03393568 -0.01386643 0.00839055
v -0.03392401 -0.01386643 0.00868208
v -0.03016898 -0.02088393 0.00868208
v -0.03425006 -0.01890082 0.00839055
v -0.03338536 -0.02058787 0.01381306
v -0.03322784 -0.02088393 0.03690247
v -0.03338601 -0.02058925 0.03690247
v -0.03678324 -0.01386643 0.00839055
v -0.03391559 -0.01386643 0.01381306
v -0.03391170 -0.01386643 0.01979920
v -0.03016703 -0.02088256 0.04886827
v -0.03016638 -0.02088393 0.04885532
v -0.03511087 -0.01720277 0.00839055
v -0.03425200 -0.01890356 0.03118194
v -0.03511282 -0.01720620 0.03116251
v -0.03322201 -0.02088393 0.07178924
v -0.03338601 -0.02058650 0.05461471
v -0.03425200 -0.01890356 0.03150587
v -0.03596974 -0.01550128 0.00839055
v -0.03678388 -0.01386643 0.00868208
v -0.03391105 -0.01386643 0.04288213
v -0.03016509 -0.02088393 0.07195120
v -0.03511282 -0.01720620 0.03150587
v -0.03597169 -0.01550403 0.03107828
v -0.03321877 -0.02088393 0.07195768
v -0.03424876 -0.01889875 0.07172445
v -0.03338341 -0.02058238 0.07134870
v -0.03511022 -0.01720139 0.07173093
v -0.03661341 -0.01421607 0.02578534
v -0.03678712 -0.01386643 0.03091632
v -0.03391235 -0.01386643 0.06597154
v -0.03392077 -0.01386643 0.07195768
v -0.03016573 -0.02088393 0.07195768
v -0.03597169 -0.01550403 0.03158361
v -0.03597039 -0.01549991 0.06597154
v -0.03335360 -0.02052948 0.07239174
v -0.03337758 -0.02057207 0.07195768
v -0.03304829 -0.02088393 0.07272862
v -0.03661081 -0.01421951 0.07195768
v -0.03596909 -0.01549991 0.07131631
v -0.03661211 -0.01421813 0.04886827
v -0.03678583 -0.01386643 0.07195768
v -0.03410616 -0.01386643 0.07254075
v -0.03051123 -0.02088393 0.07353196
v -0.03029084 -0.02088393 0.07262497
v -0.03623939 -0.01496549 0.06597154
v -0.03661146 -0.01386643 0.07305903
v -0.03668730 -0.01386643 0.07268975
v -0.03298218 -0.02088393 0.07285819
v -0.03439396 -0.01386643 0.07295537
v -0.03090015 -0.02088393 0.07457500
v -0.03648506 -0.01386643 0.07328577
v -0.03265354 -0.02088393 0.07344774
v -0.03482761 -0.01386643 0.07349309
v -0.03576232 -0.01386643 0.07417981
v -0.03121323 -0.02073144 0.07457500
v -0.03165725 -0.02088393 0.07457500
v -0.03610003 -0.01386643 0.07381701
v -0.03129102 -0.02075342 0.07457500
f 1 2 5
f 1 5 10
f 1 10 19
f 1 19 25
f 1 25 14
f 1 14 7
f 1 7 3
f 1 3 9
f 1 9 18
f 1 18 28
f 1 28 39
f 1 39 51
f 1 51 50
f 1 50 57
f 1 57 63
f 1 63 59
f 1 59 55
f 1 55 44
f 1 44 31
f 1 31 22
f 1 22 12
f 1 12 6
f 1 6 4
f 1 4 2
f 2 4 6
f 2 6 5
f 3 7 8
f 3 8 9
f 5 6 11
f 5 11 10
f 6 12 13
f 6 13 11
f 7 14 26
f 7 26 36
f 7 36 48
f 7 48 54
f 7 54 53
f 7 53 58
f 7 58 64
f 7 64 61
f 7 61 60
f 7 60 56
f 7 56 49
f 7 49 38
f 7 38 37
f 7 37 27
f 7 27 16
f 7 16 15
f 7 15 8
f 8 15 9
f 9 15 16
f 9 16 17
f 9 17 18
f 10 11 20
f 10 20 21
f 10 21 19
f 11 13 20
f 12 22 23
f 12 23 13
f 13 24 20
f 13 23 24
f 14 25 26
f 16 27 28
f 16 28 17
f 17 28 18
f 19 21 25
f 20 24 29
f 20 29 21
f 21 29 40
f 21 40 30
f 21 30 25
f 22 31 32
f 22 32 33
f 22 33 23
f 23 33 32
f 23 32 24
f 24 32 34
f 24 34 29
f 25 30 35
f 25 35 26
f 26 35 36
f 27 37 28
f 28 37 38
f 28 38 39
f 29 34 41
f 29 41 40
f 30 40 35
f 31 42 43
f 31 43 32
f 31 44 42
f 32 43 45
f 32 45 34
f 34 45 46
f 34 46 41
f 35 40 47
f 35 47 36
f 36 47 45
f 36 45 48
f 38 49 50
f 38 50 51
f 38 51 39
f 40 41 52
f 40 52 47
f 41 46 52
f 42 45 43
f 42 44 53
f 42 53 54
f 42 54 45
f 44 55 53
f 45 52 46
f 45 54 48
f 45 47 52
f 49 56 57
f 49 57 50
f 53 55 59
f 53 59 58
f 56 60 57
f 57 60 61
f 57 61 62
f 57 62 65
f 57 65 63
f 58 59 64
f 59 63 64
f 61 64 63
f 61 63 65
f 61 65 62

