# https://github.com/mikedh/trimesh
v 0.00000654 0.03946088 0.07505277
v -0.00042793 0.03946561 0.07366401
v -0.00042793 0.03946088 0.07505277
v 0.00000654 0.03692977 0.07505277
v 0.00000654 0.03946729 0.07280844
v -0.00042793 0.03946831 0.07280844
v -0.00213791 0.03922441 0.07195907
v -0.00073745 0.03939713 0.07505277
v -0.00647310 0.03854027 0.07177928
v -0.00042793 0.03692809 0.07505277
v -0.00647310 0.03605267 0.07190328
v -0.00647310 0.03604829 0.07188468
v 0.00000654 0.03670409 0.07195907
v 0.00000654 0.03946797 0.07024793
v -0.00042793 0.03946898 0.06169222
v -0.00299353 0.03909824 0.06597008
v -0.00213791 0.03922575 0.04886486
v -0.00091124 0.03935698 0.07505277
v -0.00647310 0.03853385 0.07181028
v -0.00647310 0.03854364 0.03155505
v -0.00128292 0.03715276 0.07505277
v -0.00647310 0.03648481 0.07265965
v -0.00647310 0.03645479 0.07262245
v -0.00647310 0.03605503 0.07190947
v -0.00647310 0.03602838 0.06597008
v -0.00647310 0.03602299 0.03697986
v 0.00000654 0.03670341 0.03135045
v 0.00000654 0.03946831 0.03262761
v -0.00042793 0.03946932 0.03262761
v -0.00213791 0.03922575 0.02578304
v -0.00299353 0.03909655 0.02578304
v -0.00384788 0.03896161 0.01980025
v -0.00647310 0.03854364 0.03112106
v -0.00178462 0.03884286 0.07505277
v -0.00647310 0.03843738 0.07220706
v -0.00647310 0.03840735 0.07226286
v -0.00197553 0.03743748 0.07505277
v -0.00647310 0.03714365 0.07295724
v -0.00647310 0.03602636 0.01980025
v 0.00000654 0.03670476 0.01381125
v 0.00000654 0.03946831 0.03006090
v -0.00042793 0.03946898 0.02151139
v -0.00042793 0.03946864 0.01552239
v -0.00213791 0.03922103 0.01381125
v -0.00299353 0.03909588 0.01980025
v -0.00299353 0.03909284 0.01381125
v -0.00647310 0.03853892 0.01977545
v -0.00199139 0.03867116 0.07505277
v -0.00647310 0.03800928 0.07270925
v -0.00214679 0.03794215 0.07505277
v -0.00647310 0.03719864 0.07298204
v -0.00647310 0.03603547 0.01387325
v 0.00000654 0.03673074 0.01354466
v 0.00000654 0.03946763 0.01552239
v 0.00000654 0.03946561 0.01210011
v -0.00042793 0.03946460 0.01210011
v -0.00042793 0.03946021 0.01171572
v -0.00647310 0.03852778 0.01387945
v -0.00647310 0.03853284 0.01438163
v -0.00217279 0.03805347 0.07505277
v -0.00647310 0.03795666 0.07272785
v -0.00647310 0.03644602 0.01306108
v -0.00042793 0.03693078 0.01171572
v 0.00000654 0.03693247 0.01171572
v 0.00000654 0.03675806 0.01327807
v 0.00000654 0.03946021 0.01171572
v -0.00070510 0.03940354 0.01171572
v -0.00647310 0.03850619 0.01374305
v -0.00647310 0.03719864 0.01268289
v -0.00128292 0.03716085 0.01171572
v -0.00090870 0.03935631 0.01171572
v -0.00607796 0.03849371 0.01336486
v -0.00647310 0.03823396 0.01324087
v -0.00647310 0.03810779 0.01306728
v -0.00197617 0.03866711 0.01171572
v -0.00215440 0.03805347 0.01171572
v -0.00212015 0.03790605 0.01171572
v -0.00195904 0.03744524 0.01171572
v -0.00173768 0.03886547 0.01171572
f 1 2 3
f 1 3 8
f 1 8 18
f 1 18 34
f 1 34 48
f 1 48 60
f 1 60 50
f 1 50 37
f 1 37 21
f 1 21 10
f 1 10 4
f 1 4 13
f 1 13 27
f 1 27 40
f 1 40 53
f 1 53 65
f 1 65 64
f 1 64 66
f 1 66 55
f 1 55 54
f 1 54 41
f 1 41 28
f 1 28 14
f 1 14 5
f 1 5 6
f 1 6 2
f 2 6 7
f 2 7 3
f 3 7 9
f 3 9 8
f 4 10 11
f 4 11 12
f 4 12 13
f 5 14 6
f 6 14 15
f 6 15 7
f 7 16 9
f 7 15 17
f 7 17 16
f 8 9 18
f 9 19 18
f 9 16 20
f 9 20 33
f 9 33 47
f 9 47 59
f 9 59 58
f 9 58 68
f 9 68 73
f 9 73 74
f 9 74 69
f 9 69 62
f 9 62 52
f 9 52 39
f 9 39 26
f 9 26 25
f 9 25 12
f 9 12 11
f 9 11 24
f 9 24 23
f 9 23 22
f 9 22 38
f 9 38 51
f 9 51 61
f 9 61 49
f 9 49 36
f 9 36 35
f 9 35 19
f 10 21 22
f 10 22 23
f 10 23 24
f 10 24 11
f 12 25 13
f 13 25 26
f 13 26 27
f 14 28 29
f 14 29 15
f 15 29 17
f 16 17 30
f 16 30 31
f 16 31 32
f 16 32 33
f 16 33 20
f 17 29 30
f 18 19 35
f 18 35 36
f 18 36 34
f 21 37 22
f 22 37 38
f 26 39 40
f 26 40 27
f 28 41 29
f 29 41 42
f 29 42 30
f 30 42 43
f 30 43 44
f 30 44 45
f 30 45 31
f 31 45 32
f 32 45 46
f 32 46 47
f 32 47 33
f 34 36 49
f 34 49 48
f 37 50 51
f 37 51 38
f 39 52 40
f 40 52 53
f 41 54 42
f 42 54 43
f 43 54 55
f 43 55 56
f 43 56 44
f 44 56 46
f 44 46 45
f 46 56 57
f 46 57 58
f 46 58 59
f 46 59 47
f 48 49 61
f 48 61 51
f 48 51 60
f 50 60 51
f 52 62 63
f 52 63 64
f 52 64 65
f 52 65 53
f 55 66 57
f 55 57 56
f 57 66 64
f 57 64 63
f 57 63 70
f 57 70 78
f 57 78 77
f 57 77 76
f 57 76 75
f 57 75 79
f 57 79 71
f 57 71 67
f 57 67 58
f 58 67 68
f 62 69 70
f 62 70 63
f 67 71 68
f 68 72 73
f 68 71 72
f 69 74 75
f 69 75 76
f 69 76 77
f 69 77 78
f 69 78 70
f 71 79 74
f 71 74 72
f 72 74 73
f 74 79 75

