# https://github.com/mikedh/trimesh
v -0.01630946 -0.02407403 0.00271205
v -0.02134999 -0.02991576 0.00387201
v -0.01630946 -0.02950229 0.00187415
v -0.01630946 -0.02407403 -0.00012594
v -0.02806110 -0.02407403 0.00387201
v -0.01630946 -0.02991576 0.00177704
v -0.01630946 -0.02974763 0.00181669
v -0.02483948 -0.02991576 0.00387201
v -0.01630946 -0.02892698 -0.00051393
v -0.01753071 -0.02864676 -0.00060525
v -0.01924161 -0.02779180 -0.00067741
v -0.02009706 -0.02693742 -0.00066939
v -0.02296008 -0.02407403 -0.00056916
v -0.03099324 -0.02407403 0.00387201
v -0.01630946 -0.02991576 -0.00042617
v -0.02484812 -0.02991576 0.00385286
v -0.01630946 -0.02950229 -0.00054199
v -0.01838616 -0.02864676 -0.00064533
v -0.01924161 -0.02864676 -0.00064756
v -0.02009706 -0.02779180 -0.00067875
v -0.02095107 -0.02693742 -0.00067607
v -0.02664111 -0.02407403 -0.00033129
v -0.03102061 -0.02407403 0.00365196
v -0.02517935 -0.02991576 0.00269290
v -0.02501374 -0.02991576 0.00345997
v -0.01630946 -0.02977164 -0.00047606
v -0.01838616 -0.02991576 -0.00046359
v -0.01630946 -0.02967900 -0.00049878
v -0.01924161 -0.02950229 -0.00050680
v -0.02404020 -0.02743038 -0.00031347
v -0.02095107 -0.02779180 -0.00059544
v -0.01882685 -0.02991576 -0.00045736
v -0.02180652 -0.02693742 -0.00060435
v -0.02656046 -0.02488895 -0.00030768
v -0.02662959 -0.02437198 -0.00032327
v -0.02808846 -0.02407403 -0.00007115
v -0.03102061 -0.02407403 0.00354772
v -0.02579142 -0.02920835 0.00206169
v -0.02509006 -0.02991576 0.00227550
v -0.03010755 -0.02498103 0.00269290
v -0.02750520 -0.02750530 0.00209376
v -0.01923297 -0.02991576 -0.00043731
v -0.02434407 -0.02774605 -0.00018607
v -0.02520096 -0.02689110 -0.00022973
v -0.02608089 -0.02608189 -0.00022750
v -0.02688161 -0.02519491 -0.00021146
v -0.02779179 -0.02437198 -0.00010500
v -0.02705731 -0.02437198 -0.00024487
v -0.02867028 -0.02407403 0.00017964
v -0.02779179 -0.02522693 0.00010837
v -0.03097885 -0.02407403 0.00276862
v -0.03053528 -0.02453839 0.00269290
v -0.02474299 -0.02988488 0.00148393
v -0.02500510 -0.02991576 0.00198284
v -0.02920602 -0.02579195 0.00205500
v -0.02835777 -0.02664919 0.00209064
v -0.02139319 -0.02991576 -0.00006224
v -0.02351742 -0.02864676 -0.00004175
v -0.02522544 -0.02779180 0.00006873
v -0.02608089 -0.02693742 0.00002285
v -0.02693634 -0.02608189 0.00003042
v -0.02868180 -0.02437541 0.00028121
v -0.02890503 -0.02407403 0.00030393
v -0.02822816 -0.02566385 0.00054803
v -0.02837793 -0.02522693 0.00043890
v -0.03097020 -0.02407403 0.00269290
v -0.03093708 -0.02411063 0.00269290
v -0.03003699 -0.02491755 0.00205634
v -0.02567476 -0.02824073 0.00053823
v -0.02466810 -0.02991576 0.00145543
v -0.02471995 -0.02991576 0.00150443
v -0.02988289 -0.02474084 0.00148661
v -0.02227601 -0.02991576 0.00014401
v -0.02522544 -0.02840143 0.00041885
v -0.02440167 -0.02869423 0.00024735
v -0.02600744 -0.02770945 0.00041752
v -0.02685425 -0.02686079 0.00040772
v -0.02771546 -0.02600240 0.00042687
v -0.02916137 -0.02407403 0.00047721
v -0.03027029 -0.02407403 0.00134763
v -0.03011907 -0.02417125 0.00127502
v -0.02899144 -0.02466306 0.00062243
v -0.02737991 -0.02652510 0.00054046
v -0.03090396 -0.02407403 0.00241716
v -0.03084059 -0.02407403 0.00216281
v -0.03081035 -0.02407403 0.00208262
v -0.02470698 -0.02901105 0.00060951
v -0.02426774 -0.02991576 0.00114806
v -0.03053816 -0.02407403 0.00166479
v -0.02288231 -0.02991576 0.00039658
v -0.02413668 -0.02918833 0.00044781
v -0.02917578 -0.02407403 0.00048835
v -0.03015796 -0.02407403 0.00125408
v -0.02395955 -0.02991576 0.00097523
v -0.02360815 -0.02991576 0.00078502
f 1 2 3
f 1 3 7
f 1 7 6
f 1 6 15
f 1 15 26
f 1 26 28
f 1 28 17
f 1 17 9
f 1 9 4
f 1 4 13
f 1 13 22
f 1 22 36
f 1 36 49
f 1 49 63
f 1 63 79
f 1 79 92
f 1 92 93
f 1 93 80
f 1 80 89
f 1 89 86
f 1 86 85
f 1 85 84
f 1 84 66
f 1 66 51
f 1 51 37
f 1 37 23
f 1 23 14
f 1 14 5
f 1 5 2
f 2 6 7
f 2 7 3
f 2 5 14
f 2 14 8
f 2 8 16
f 2 16 25
f 2 25 24
f 2 24 39
f 2 39 54
f 2 54 71
f 2 71 70
f 2 70 88
f 2 88 94
f 2 94 95
f 2 95 90
f 2 90 73
f 2 73 57
f 2 57 42
f 2 42 32
f 2 32 27
f 2 27 15
f 2 15 6
f 4 9 10
f 4 10 11
f 4 11 12
f 4 12 13
f 8 14 16
f 9 17 10
f 10 18 11
f 10 17 18
f 11 18 19
f 11 19 20
f 11 20 21
f 11 21 12
f 12 21 13
f 13 21 22
f 14 23 24
f 14 24 25
f 14 25 16
f 15 27 26
f 17 28 27
f 17 27 19
f 17 19 18
f 19 29 30
f 19 30 31
f 19 31 20
f 19 27 32
f 19 32 29
f 20 31 33
f 20 33 21
f 21 33 34
f 21 34 35
f 21 35 22
f 22 35 36
f 23 37 24
f 24 38 39
f 24 37 40
f 24 40 41
f 24 41 38
f 26 27 28
f 29 32 42
f 29 42 30
f 30 43 44
f 30 44 45
f 30 45 34
f 30 34 33
f 30 33 31
f 30 42 43
f 34 45 46
f 34 46 47
f 34 47 36
f 34 36 48
f 34 48 35
f 35 48 36
f 36 47 50
f 36 50 49
f 37 51 52
f 37 52 40
f 38 53 54
f 38 54 39
f 38 41 55
f 38 55 53
f 40 52 55
f 40 55 56
f 40 56 41
f 41 56 55
f 42 57 43
f 43 57 58
f 43 58 59
f 43 59 60
f 43 60 44
f 44 60 45
f 45 60 61
f 45 61 46
f 46 61 50
f 46 50 47
f 49 50 62
f 49 62 63
f 50 61 64
f 50 64 65
f 50 65 62
f 51 66 67
f 51 67 52
f 52 67 68
f 52 68 55
f 53 69 70
f 53 70 71
f 53 71 54
f 53 55 72
f 53 72 69
f 55 68 72
f 57 73 58
f 58 73 59
f 59 74 69
f 59 69 60
f 59 73 75
f 59 75 74
f 60 69 76
f 60 76 77
f 60 77 61
f 61 77 78
f 61 78 64
f 62 65 79
f 62 79 63
f 64 72 80
f 64 80 81
f 64 81 82
f 64 82 65
f 64 78 77
f 64 77 83
f 64 83 72
f 65 82 79
f 66 84 67
f 67 84 68
f 68 84 85
f 68 85 86
f 68 86 72
f 69 74 87
f 69 87 88
f 69 88 70
f 69 72 83
f 69 83 77
f 69 77 76
f 72 86 89
f 72 89 80
f 73 90 91
f 73 91 75
f 74 75 91
f 74 91 87
f 79 82 92
f 80 93 81
f 81 93 82
f 82 93 92
f 87 91 94
f 87 94 88
f 90 95 91
f 91 95 94

