# https://github.com/mikedh/trimesh
v -0.01974647 -0.03380329 0.04288263
v -0.01974647 -0.03380329 0.06596736
v -0.02059057 -0.03338600 0.02578660
v -0.01974647 -0.03380168 0.01979789
v -0.01974647 -0.03358009 0.06670544
v -0.02092025 -0.03261529 0.06969380
v -0.02159983 -0.03256353 0.06969380
v -0.02244711 -0.03234275 0.06969380
v -0.02263441 -0.03225702 0.06969380
v -0.02058551 -0.03338276 0.06596736
v -0.02224526 -0.03250126 0.03799805
v -0.02224399 -0.03250045 0.01491331
v -0.02180612 -0.03273336 0.00868458
v -0.02058614 -0.03338519 0.00839055
v -0.02224589 -0.03250126 0.06131681
v -0.02224589 -0.03250126 0.06106478
v -0.01974647 -0.03378631 0.01378518
v -0.01974647 -0.03330432 0.06717350
v -0.01997426 -0.03219313 0.06969380
v -0.02020965 -0.03250530 0.06969380
v -0.02074307 -0.03259102 0.06969380
v -0.02309189 -0.03199904 0.06969380
v -0.02266984 -0.03226835 0.06682546
v -0.02224336 -0.03249964 0.06728752
v -0.02101263 -0.03315551 0.06596736
v -0.02266984 -0.03226915 0.02663870
v -0.02266794 -0.03226835 0.01295708
v -0.02224083 -0.03249883 0.00868458
v -0.02199151 -0.03263227 0.00839055
v -0.02183332 -0.03271719 0.00839055
v -0.01974647 -0.03375882 0.00839055
v -0.01974647 -0.03376205 0.00852856
v -0.01974647 -0.03376609 0.00873859
v -0.01974647 -0.03290076 0.06744953
v -0.01997426 -0.03217858 0.06969380
v -0.01974647 -0.03206212 0.06764156
v -0.02334057 -0.03184781 0.06969380
v -0.02334120 -0.03184943 0.06939376
v -0.02334057 -0.03185105 0.06853566
v -0.02334120 -0.03185105 0.05143364
v -0.02334057 -0.03185105 0.02834891
v -0.02334057 -0.03185024 0.01039478
v -0.02266857 -0.03225945 0.00868458
v -0.02257936 -0.03231283 0.00951868
v -0.02248381 -0.03236135 0.00839055
v -0.02223956 -0.03249802 0.00839055
v -0.01974647 -0.03089757 0.00839055
v -0.02018497 -0.03148065 0.06969380
v -0.01974647 -0.03147661 0.06740753
v -0.01974647 -0.03134317 0.06722150
v -0.02349054 -0.03170871 0.06969380
v -0.02375946 -0.03146043 0.06511526
v -0.02376326 -0.03145882 0.05912655
v -0.02376199 -0.03146043 0.01894579
v -0.02334247 -0.03184862 0.01210498
v -0.02376452 -0.03145639 0.01295708
v -0.02375313 -0.03145882 0.00868458
v -0.02375250 -0.03145882 0.00839055
v -0.02333488 -0.03184296 0.00953668
v -0.02289004 -0.03211388 0.00839055
v -0.02264010 -0.03227320 0.00839055
v -0.02621016 -0.02562633 0.00839055
v -0.02621016 -0.02561582 0.00854656
v -0.02621016 -0.02560692 0.00868458
v -0.01974647 -0.03088705 0.00868458
v -0.02071966 -0.03067679 0.06969380
v -0.01974647 -0.03110136 0.06681946
v -0.02376009 -0.03145639 0.06682546
v -0.02376769 -0.03140625 0.06969380
v -0.02621016 -0.02905611 0.06596736
v -0.02592352 -0.02934563 0.06596736
v -0.02549703 -0.02977264 0.06596736
v -0.02506928 -0.03019075 0.06596736
v -0.02507435 -0.03019560 0.05998465
v -0.02463331 -0.03062422 0.05399594
v -0.02420682 -0.03103505 0.03091721
v -0.02507814 -0.03019802 0.01381518
v -0.02463394 -0.03062341 0.00868458
v -0.02420619 -0.03103100 0.00868458
v -0.02420493 -0.03103100 0.00839055
v -0.02332539 -0.03183083 0.00839055
v -0.02621016 -0.02900516 0.00839055
v -0.02621016 -0.02557538 0.01381518
v -0.02621016 -0.02554222 0.01979789
v -0.01974647 -0.03087735 0.01381518
v -0.02146442 -0.02999827 0.06969380
v -0.01974647 -0.03103505 0.06660343
v -0.01974647 -0.03087492 0.06596736
v -0.02408597 -0.03097925 0.06969380
v -0.02425238 -0.03073825 0.06969380
v -0.02621016 -0.02862102 0.06683146
v -0.02621016 -0.02905935 0.05998465
v -0.02592478 -0.02934806 0.05998465
v -0.02550146 -0.02977506 0.05998465
v -0.02507688 -0.03019641 0.03689992
v -0.02550526 -0.02977102 0.01381518
v -0.02506802 -0.03019560 0.00868458
v -0.02550463 -0.02977425 0.03689992
v -0.02463268 -0.03062018 0.00839055
v -0.02448841 -0.03076089 0.00839055
v -0.02618232 -0.02903428 0.00839055
v -0.02621016 -0.02900759 0.00845055
v -0.01974647 -0.03087411 0.01979789
v -0.02621016 -0.02554303 0.04288263
v -0.01974647 -0.03087411 0.05998465
v -0.02621016 -0.02555031 0.06596736
v -0.02186180 -0.02971441 0.06969380
v -0.02455421 -0.02998371 0.06969380
v -0.02621016 -0.02835980 0.06701748
v -0.02621016 -0.02906177 0.04288263
v -0.02621016 -0.02904156 0.01381518
v -0.02549577 -0.02975889 0.00868458
v -0.02621016 -0.02906258 0.01979789
v -0.02506359 -0.03019236 0.00839055
v -0.02549134 -0.02975323 0.00839055
v -0.02621016 -0.02901648 0.00868458
v -0.02621016 -0.02587865 0.06664544
v -0.02211554 -0.02954619 0.06969380
v -0.02467254 -0.02929145 0.06969380
v -0.02621016 -0.02765864 0.06729951
v -0.02621016 -0.02787781 0.06722751
v -0.02534707 -0.02990284 0.00839055
v -0.02621016 -0.02609458 0.06679545
v -0.02467254 -0.02917985 0.06969380
v -0.02429984 -0.02895664 0.06969380
v -0.02351585 -0.02897039 0.06969380
v -0.02347915 -0.02897605 0.06969380
v -0.02296597 -0.02911272 0.06969380
v -0.02621016 -0.02710548 0.06728151
v -0.02621016 -0.02668656 0.06716150
f 1 2 3
f 1 3 4
f 1 4 17
f 1 17 33
f 1 33 32
f 1 32 31
f 1 31 47
f 1 47 65
f 1 65 85
f 1 85 103
f 1 103 105
f 1 105 88
f 1 88 87
f 1 87 67
f 1 67 50
f 1 50 49
f 1 49 36
f 1 36 34
f 1 34 18
f 1 18 5
f 1 5 2
f 2 5 6
f 2 6 7
f 2 7 8
f 2 8 9
f 2 9 10
f 2 10 3
f 3 11 12
f 3 12 13
f 3 13 14
f 3 14 4
f 3 10 15
f 3 15 16
f 3 16 11
f 4 14 17
f 5 18 19
f 5 19 20
f 5 20 21
f 5 21 6
f 6 21 20
f 6 20 19
f 6 19 35
f 6 35 48
f 6 48 66
f 6 66 86
f 6 86 107
f 6 107 118
f 6 118 128
f 6 128 127
f 6 127 126
f 6 126 125
f 6 125 124
f 6 124 119
f 6 119 108
f 6 108 90
f 6 90 89
f 6 89 69
f 6 69 51
f 6 51 37
f 6 37 22
f 6 22 9
f 6 9 8
f 6 8 7
f 9 22 23
f 9 23 24
f 9 24 10
f 10 24 25
f 10 25 15
f 11 26 12
f 11 16 26
f 12 27 28
f 12 28 13
f 12 26 27
f 13 28 29
f 13 29 30
f 13 30 14
f 14 30 29
f 14 29 46
f 14 46 45
f 14 45 61
f 14 61 60
f 14 60 81
f 14 81 58
f 14 58 80
f 14 80 100
f 14 100 99
f 14 99 114
f 14 114 122
f 14 122 115
f 14 115 101
f 14 101 82
f 14 82 62
f 14 62 47
f 14 47 31
f 14 31 32
f 14 32 33
f 14 33 17
f 15 25 24
f 15 24 23
f 15 23 26
f 15 26 16
f 18 34 19
f 19 34 36
f 19 36 35
f 22 37 38
f 22 38 23
f 23 38 39
f 23 39 40
f 23 40 26
f 26 41 42
f 26 42 27
f 26 40 41
f 27 42 43
f 27 43 44
f 27 44 28
f 28 44 43
f 28 43 45
f 28 45 46
f 28 46 29
f 35 36 49
f 35 49 50
f 35 50 48
f 37 51 38
f 38 51 39
f 39 51 52
f 39 52 53
f 39 53 40
f 40 53 54
f 40 54 41
f 41 54 55
f 41 55 42
f 42 55 54
f 42 54 56
f 42 56 57
f 42 57 58
f 42 58 59
f 42 59 60
f 42 60 43
f 43 60 61
f 43 61 45
f 47 62 63
f 47 63 64
f 47 64 65
f 48 50 67
f 48 67 66
f 51 68 52
f 51 69 70
f 51 70 71
f 51 71 72
f 51 72 73
f 51 73 68
f 52 68 73
f 52 73 74
f 52 74 75
f 52 75 53
f 53 75 76
f 53 76 54
f 54 76 77
f 54 77 78
f 54 78 56
f 56 78 79
f 56 79 57
f 57 79 58
f 58 81 59
f 58 79 80
f 59 81 60
f 62 82 102
f 62 102 116
f 62 116 111
f 62 111 113
f 62 113 110
f 62 110 92
f 62 92 70
f 62 70 91
f 62 91 109
f 62 109 121
f 62 121 120
f 62 120 129
f 62 129 130
f 62 130 123
f 62 123 117
f 62 117 106
f 62 106 104
f 62 104 84
f 62 84 83
f 62 83 64
f 62 64 63
f 64 83 65
f 65 83 84
f 65 84 85
f 66 67 87
f 66 87 88
f 66 88 86
f 69 89 70
f 70 89 90
f 70 90 91
f 70 92 93
f 70 93 71
f 71 93 94
f 71 94 72
f 72 94 74
f 72 74 73
f 74 94 95
f 74 95 75
f 75 95 77
f 75 77 76
f 77 96 97
f 77 97 78
f 77 95 94
f 77 94 98
f 77 98 96
f 78 97 99
f 78 99 100
f 78 100 79
f 79 100 80
f 82 101 102
f 84 103 85
f 84 104 105
f 84 105 103
f 86 106 107
f 86 88 106
f 88 105 104
f 88 104 106
f 90 108 91
f 91 108 109
f 92 110 93
f 93 110 98
f 93 98 94
f 96 111 112
f 96 112 97
f 96 98 113
f 96 113 111
f 97 112 114
f 97 114 99
f 98 110 113
f 101 115 116
f 101 116 102
f 106 117 118
f 106 118 107
f 108 119 120
f 108 120 121
f 108 121 109
f 111 116 112
f 112 116 115
f 112 115 122
f 112 122 114
f 117 123 124
f 117 124 125
f 117 125 126
f 117 126 127
f 117 127 128
f 117 128 118
f 119 124 120
f 120 124 129
f 123 130 124
f 124 130 129

