# https://github.com/mikedh/trimesh
v -0.00343417 -0.00000657 0.00568384
v -0.00143457 -0.00000769 0.00822323
v -0.00100667 -0.00000769 0.00826808
v -0.00072800 -0.00000769 0.00829572
v -0.00042836 -0.00000769 0.00832018
v 0.00000654 -0.00000769 0.00832018
v 0.00000654 -0.00000769 0.00550715
v -0.01154333 -0.00000769 0.00421820
v -0.01190477 -0.00000769 0.00424176
v -0.01190477 -0.00000769 0.00676801
v -0.00862380 -0.00000769 0.00741271
v -0.00101833 -0.00042786 0.00827125
v -0.00042836 -0.00042786 0.00831928
v 0.00000654 -0.00042786 0.00831928
v 0.00000654 -0.00766467 0.00482122
v -0.01190477 -0.00045356 0.00415523
v -0.00311470 -0.01142276 0.00414617
v -0.01190477 -0.00641309 0.00638971
v -0.00860514 -0.00012167 0.00740908
v -0.00689353 -0.00526544 0.00740954
v -0.00613334 -0.00726796 0.00742449
v -0.00555852 -0.00641309 0.00753322
v -0.00094021 -0.00095978 0.00826174
v -0.00042836 -0.00102460 0.00827035
v 0.00000654 -0.00072176 0.00829526
v 0.00000654 -0.00777307 0.00482122
v -0.00299344 -0.01142276 0.00416293
v -0.01190477 -0.00641309 0.00376696
v -0.00812361 -0.01142276 0.00373343
v -0.01190477 -0.00726796 0.00612829
v -0.00897825 -0.01142276 0.00613464
v -0.00885116 -0.01142276 0.00618855
v -0.01053828 -0.00704559 0.00660083
v -0.00604589 -0.00775519 0.00740682
v -0.00555852 -0.00726796 0.00749018
v -0.00128300 -0.00213873 0.00813715
v -0.00470388 -0.00641309 0.00761024
v -0.00042836 -0.00145147 0.00822187
v 0.00000654 -0.00145371 0.00822414
v 0.00000654 -0.00102683 0.00826944
v 0.00000654 -0.00798986 0.00485294
v -0.00218544 -0.01142276 0.00448052
v -0.01190477 -0.00676175 0.00380229
v -0.00897825 -0.01142276 0.00369220
v -0.00969880 -0.01142276 0.00382948
v -0.01190477 -0.00747246 0.00600869
v -0.00961719 -0.01142276 0.00582293
v -0.00954490 -0.01142276 0.00587277
v -0.00812477 -0.01142276 0.00634123
v -0.00785544 -0.01048296 0.00659222
v -0.00726780 -0.00897883 0.00697053
v -0.00726780 -0.00812284 0.00710599
v -0.00726780 -0.00983370 0.00682011
v -0.00641316 -0.00897883 0.00711279
v -0.00555852 -0.00828934 0.00734838
v -0.00555852 -0.00786135 0.00742539
v -0.00470388 -0.00726796 0.00752779
v -0.00213880 -0.00790158 0.00743536
v 0.00000654 -0.00784794 0.00742902
v -0.00299344 -0.00792951 0.00743672
v 0.00000654 -0.00820106 0.00488601
v -0.00211315 -0.01142276 0.00451224
v -0.01190477 -0.00713051 0.00386436
v -0.01035173 -0.01142276 0.00440350
v -0.01190477 -0.00778983 0.00579031
v -0.01003110 -0.01142276 0.00535084
v -0.00792073 -0.01142276 0.00636524
v -0.00726780 -0.01060253 0.00663481
v -0.00641316 -0.00983370 0.00691389
v -0.00555852 -0.00897883 0.00720113
v -0.00470388 -0.00983370 0.00706431
v -0.00470388 -0.00897883 0.00723964
v -0.00470388 -0.00835751 0.00736197
v -0.00470388 -0.00792951 0.00743672
v -0.00299344 -0.00835639 0.00736106
v 0.00000654 -0.00805802 0.00737828
v -0.00384925 -0.01068857 0.00690438
v -0.00299344 -0.01142276 0.00670368
v -0.00384925 -0.00835639 0.00736197
v 0.00000654 -0.00903806 0.00537622
v -0.00169458 -0.01142276 0.00492724
v -0.01190477 -0.00737524 0.00398714
v -0.01004975 -0.01142276 0.00530962
v -0.01190477 -0.00795186 0.00557692
v -0.01190477 -0.00807032 0.00523169
v -0.01190477 -0.00807814 0.00488827
v -0.01190477 -0.00800662 0.00446104
v -0.01190477 -0.00753169 0.00407775
v -0.00388422 -0.01142276 0.00672361
v -0.00470388 -0.01068857 0.00684775
v -0.00555852 -0.00983370 0.00699363
v 0.00000654 -0.00827593 0.00732527
v -0.00248392 -0.01142276 0.00658452
v 0.00000654 -0.00934089 0.00612693
v -0.00156282 -0.01142276 0.00535039
v 0.00000654 -0.00859888 0.00711460
v -0.00205602 -0.01142276 0.00621664
v 0.00000654 -0.00892966 0.00689758
v 0.00000654 -0.00912187 0.00653786
v -0.00161995 -0.01142276 0.00578941
f 1 2 3
f 1 3 4
f 1 4 5
f 1 5 6
f 1 6 7
f 1 7 8
f 1 8 9
f 1 9 10
f 1 10 11
f 1 11 2
f 2 12 3
f 2 11 12
f 3 12 4
f 4 12 5
f 5 12 13
f 5 13 14
f 5 14 6
f 6 14 25
f 6 25 40
f 6 40 39
f 6 39 59
f 6 59 76
f 6 76 92
f 6 92 96
f 6 96 98
f 6 98 99
f 6 99 94
f 6 94 80
f 6 80 61
f 6 61 41
f 6 41 26
f 6 26 15
f 6 15 7
f 7 15 8
f 8 16 9
f 8 15 17
f 8 17 16
f 9 16 28
f 9 28 43
f 9 43 63
f 9 63 82
f 9 82 88
f 9 88 87
f 9 87 86
f 9 86 85
f 9 85 84
f 9 84 65
f 9 65 46
f 9 46 30
f 9 30 18
f 9 18 10
f 10 18 11
f 11 18 19
f 11 19 20
f 11 20 21
f 11 21 22
f 11 22 23
f 11 23 12
f 12 23 13
f 13 24 25
f 13 25 14
f 13 23 24
f 15 26 27
f 15 27 17
f 16 17 29
f 16 29 28
f 17 27 42
f 17 42 62
f 17 62 81
f 17 81 95
f 17 95 100
f 17 100 97
f 17 97 93
f 17 93 78
f 17 78 89
f 17 89 67
f 17 67 49
f 17 49 32
f 17 32 31
f 17 31 48
f 17 48 47
f 17 47 66
f 17 66 83
f 17 83 64
f 17 64 45
f 17 45 44
f 17 44 29
f 18 30 31
f 18 31 32
f 18 32 33
f 18 33 34
f 18 34 21
f 18 21 20
f 18 20 19
f 21 34 35
f 21 35 22
f 22 35 23
f 23 36 24
f 23 35 37
f 23 37 36
f 24 38 39
f 24 39 40
f 24 40 25
f 24 36 38
f 26 41 42
f 26 42 27
f 28 29 44
f 28 44 45
f 28 45 43
f 30 46 47
f 30 47 48
f 30 48 31
f 32 49 50
f 32 50 33
f 33 50 51
f 33 51 52
f 33 52 34
f 34 52 51
f 34 51 53
f 34 53 54
f 34 54 55
f 34 55 56
f 34 56 35
f 35 56 57
f 35 57 37
f 36 37 57
f 36 57 38
f 38 57 39
f 39 58 59
f 39 57 60
f 39 60 58
f 41 61 42
f 42 61 62
f 43 45 63
f 45 64 63
f 46 65 47
f 47 65 66
f 49 67 53
f 49 53 50
f 50 53 51
f 53 68 69
f 53 69 54
f 53 67 68
f 54 69 70
f 54 70 55
f 55 70 71
f 55 71 72
f 55 72 73
f 55 73 56
f 56 73 74
f 56 74 57
f 57 74 60
f 58 60 75
f 58 75 59
f 59 75 77
f 59 77 78
f 59 78 76
f 60 74 73
f 60 73 79
f 60 79 75
f 61 80 81
f 61 81 62
f 63 64 82
f 64 83 84
f 64 84 85
f 64 85 86
f 64 86 87
f 64 87 88
f 64 88 82
f 65 84 83
f 65 83 66
f 67 89 90
f 67 90 91
f 67 91 69
f 67 69 68
f 69 91 70
f 70 91 71
f 71 91 90
f 71 90 89
f 71 89 77
f 71 77 72
f 72 77 73
f 73 77 79
f 75 79 77
f 76 78 92
f 77 89 78
f 78 93 92
f 80 94 95
f 80 95 81
f 92 93 96
f 93 97 98
f 93 98 96
f 94 99 100
f 94 100 95
f 97 100 98
f 98 100 99

