# https://github.com/mikedh/trimesh
v -0.03678297 -0.01386643 0.00839055
v -0.03393613 -0.01386643 0.00839055
v -0.03678351 -0.01386643 0.00844885
v -0.03682213 -0.01378775 0.00839055
v -0.03670898 -0.00000660 0.00839055
v -0.03392470 -0.01386643 0.00868208
v -0.03678405 -0.01386643 0.00868208
v -0.03682268 -0.01378910 0.00868208
v -0.03707837 -0.01325457 0.00868208
v -0.03699132 -0.01343365 0.00839055
v -0.03945028 -0.00000660 0.00839055
v -0.03670626 -0.00000660 0.00868208
v -0.03391600 -0.01386643 0.01381306
v -0.03678677 -0.01386643 0.03091632
v -0.03682431 -0.01379182 0.03091632
v -0.03708163 -0.01325457 0.03177149
v -0.03745374 -0.01243107 0.01039241
v -0.03707619 -0.01325457 0.00839055
v -0.03945082 -0.00042853 0.00839055
v -0.03946714 -0.00042853 0.00953724
v -0.03946605 -0.00000660 0.00953724
v -0.03670463 -0.00000660 0.01381306
v -0.03391219 -0.01386643 0.01979920
v -0.03682431 -0.01379182 0.03177149
v -0.03678623 -0.01386643 0.07195768
v -0.03745537 -0.01242835 0.02749567
v -0.03708000 -0.01325457 0.07195768
v -0.03745591 -0.01242700 0.06768186
v -0.03763925 -0.01200778 0.01723371
v -0.03763925 -0.01200643 0.01124757
v -0.03763762 -0.01200371 0.01039241
v -0.03749291 -0.01232525 0.00945302
v -0.03744830 -0.01239851 0.00839055
v -0.03936596 -0.00108788 0.00839055
v -0.03931046 -0.00151523 0.00839055
v -0.03931101 -0.00151930 0.00868208
v -0.03946877 -0.00042853 0.01552338
v -0.03946769 -0.00000660 0.01552338
v -0.03670354 -0.00000660 0.03091632
v -0.03391165 -0.01386643 0.04288213
v -0.03682322 -0.01379046 0.07195768
v -0.03668776 -0.01386643 0.07268975
v -0.03680364 -0.01374704 0.07259257
v -0.03744340 -0.01243514 0.07457500
v -0.03763979 -0.01200778 0.06939219
v -0.03763979 -0.01200778 0.04630278
v -0.03745374 -0.01243107 0.07366801
v -0.03850314 -0.00697858 0.03125968
v -0.03801136 -0.00983303 0.01381306
v -0.03800646 -0.00983303 0.00868208
v -0.03785849 -0.01068909 0.00868208
v -0.03785685 -0.01068909 0.00839055
v -0.03763381 -0.01199150 0.00968625
v -0.03762129 -0.01194809 0.00839055
v -0.03921961 -0.00213795 0.00839055
v -0.03922179 -0.00213795 0.00868208
v -0.03922560 -0.00213795 0.02578534
v -0.03946932 -0.00042853 0.03262665
v -0.03946823 -0.00000660 0.03006116
v -0.03670354 -0.00000660 0.07195768
v -0.03391274 -0.01386643 0.06597154
v -0.03661214 -0.01386643 0.07305903
v -0.03701580 -0.01308634 0.07457500
v -0.03762837 -0.01203220 0.07457500
v -0.03763925 -0.01200778 0.07457500
v -0.03850314 -0.00697858 0.03142812
v -0.03909830 -0.00299401 0.06597154
v -0.03851402 -0.00681984 0.00839055
v -0.03848410 -0.00701385 0.00839055
v -0.03795478 -0.01012200 0.00839055
v -0.03780517 -0.01096857 0.00839055
v -0.03764849 -0.01180428 0.00839055
v -0.03922560 -0.00213795 0.04886827
v -0.03946823 -0.00000660 0.03262665
v -0.03946877 -0.00042853 0.06169572
v -0.03946769 -0.00000660 0.07024735
v -0.03696031 -0.00000660 0.07457500
v -0.03392144 -0.01386643 0.07195768
v -0.03648593 -0.01386643 0.07328577
v -0.03641031 -0.01351370 0.07457500
v -0.03699024 -0.01311076 0.07457500
v -0.03945572 -0.00042853 0.07457500
v -0.03850097 -0.00696501 0.07162728
v -0.03922397 -0.00213795 0.07195768
v -0.03946823 -0.00042853 0.07281284
v -0.03946714 -0.00000660 0.07281284
v -0.03945572 -0.00000660 0.07457500
v -0.03500022 -0.01182056 0.07457500
v -0.03410695 -0.01386643 0.07254075
v -0.03610023 -0.01386643 0.07381701
v -0.03598000 -0.01372805 0.07457500
v -0.03946551 -0.00042853 0.07366801
v -0.03946605 -0.00000660 0.07323395
v -0.03946442 -0.00000660 0.07366801
v -0.03496377 -0.01239851 0.07457500
v -0.03439473 -0.01386643 0.07295537
v -0.03496323 -0.01244870 0.07457500
v -0.03501219 -0.01294525 0.07457500
v -0.03576293 -0.01386643 0.07417981
v -0.03594192 -0.01373212 0.07457500
v -0.03482832 -0.01386643 0.07349309
v -0.03543272 -0.01340109 0.07457500
v -0.03583148 -0.01373212 0.07457500
f 1 2 6
f 1 6 13
f 1 13 23
f 1 23 40
f 1 40 61
f 1 61 78
f 1 78 89
f 1 89 96
f 1 96 101
f 1 101 99
f 1 99 90
f 1 90 79
f 1 79 62
f 1 62 42
f 1 42 25
f 1 25 14
f 1 14 7
f 1 7 3
f 1 3 4
f 1 4 10
f 1 10 18
f 1 18 33
f 1 33 54
f 1 54 72
f 1 72 71
f 1 71 52
f 1 52 70
f 1 70 69
f 1 69 68
f 1 68 55
f 1 55 35
f 1 35 34
f 1 34 19
f 1 19 11
f 1 11 5
f 1 5 2
f 2 5 6
f 3 7 8
f 3 8 4
f 4 8 9
f 4 9 10
f 5 11 21
f 5 21 38
f 5 38 59
f 5 59 74
f 5 74 76
f 5 76 86
f 5 86 93
f 5 93 94
f 5 94 87
f 5 87 77
f 5 77 60
f 5 60 39
f 5 39 22
f 5 22 12
f 5 12 6
f 6 12 13
f 7 14 15
f 7 15 8
f 8 15 16
f 8 16 9
f 9 17 18
f 9 18 10
f 9 16 17
f 11 19 20
f 11 20 21
f 12 22 23
f 12 23 13
f 14 24 15
f 14 25 24
f 15 24 16
f 16 26 17
f 16 24 27
f 16 27 28
f 16 28 26
f 17 29 30
f 17 30 31
f 17 31 32
f 17 32 18
f 17 26 29
f 18 32 33
f 19 34 20
f 20 34 35
f 20 35 36
f 20 36 37
f 20 37 38
f 20 38 21
f 22 39 23
f 23 39 40
f 24 25 41
f 24 41 27
f 25 42 43
f 25 43 44
f 25 44 41
f 26 28 45
f 26 45 46
f 26 46 29
f 27 41 44
f 27 44 47
f 27 47 28
f 28 47 45
f 29 48 30
f 29 46 48
f 30 49 50
f 30 50 31
f 30 48 49
f 31 50 51
f 31 51 52
f 31 52 53
f 31 53 32
f 32 53 33
f 33 53 54
f 35 55 56
f 35 56 36
f 36 56 57
f 36 57 37
f 37 57 58
f 37 58 59
f 37 59 38
f 39 60 40
f 40 60 61
f 42 62 63
f 42 63 43
f 43 63 44
f 44 63 81
f 44 81 80
f 44 80 91
f 44 91 100
f 44 100 103
f 44 103 102
f 44 102 98
f 44 98 97
f 44 97 95
f 44 95 88
f 44 88 77
f 44 77 87
f 44 87 82
f 44 82 65
f 44 65 64
f 44 64 47
f 45 47 65
f 45 65 66
f 45 66 48
f 45 48 46
f 47 64 65
f 48 66 67
f 48 67 57
f 48 57 56
f 48 56 68
f 48 68 69
f 48 69 49
f 49 69 50
f 50 69 70
f 50 70 52
f 50 52 51
f 52 71 53
f 53 71 72
f 53 72 54
f 55 68 56
f 57 67 73
f 57 73 58
f 58 74 59
f 58 73 75
f 58 75 76
f 58 76 74
f 60 77 78
f 60 78 61
f 62 79 80
f 62 80 81
f 62 81 63
f 65 82 83
f 65 83 66
f 66 83 67
f 67 83 84
f 67 84 73
f 73 84 85
f 73 85 75
f 75 85 76
f 76 85 86
f 77 88 78
f 78 88 89
f 79 90 91
f 79 91 80
f 82 87 92
f 82 92 83
f 83 92 84
f 84 92 85
f 85 92 93
f 85 93 86
f 87 94 92
f 88 95 89
f 89 95 97
f 89 97 98
f 89 98 96
f 90 99 91
f 91 99 100
f 92 94 93
f 96 98 101
f 98 102 101
f 99 101 103
f 99 103 100
f 101 102 103

