# https://github.com/mikedh/trimesh
v 0.02357943 -0.02949822 0.07457491
v 0.02351586 -0.02946416 0.07457491
v 0.02357943 -0.03158203 0.07457491
v 0.02357943 -0.02840759 0.07276091
v 0.02266238 -0.02942916 0.07457491
v 0.02356531 -0.03159811 0.07457491
v 0.02357943 -0.03160379 0.07404367
v 0.02357943 -0.02819760 0.07231389
v 0.02192191 -0.02972996 0.07457491
v 0.02357943 -0.02805856 0.07195757
v 0.02334046 -0.03185162 0.07457491
v 0.02357943 -0.03162838 0.07318850
v 0.01155294 -0.03507240 0.07457491
v 0.01155294 -0.03483688 0.07195757
v 0.02357943 -0.02804626 0.06597139
v 0.02357943 -0.03163027 0.06720231
v 0.02265649 -0.03222619 0.07457491
v 0.02257762 -0.03231416 0.07279331
v 0.02266944 -0.03226214 0.07110240
v 0.02266944 -0.03226781 0.06682656
v 0.02266944 -0.03227065 0.03604693
v 0.02334046 -0.03185162 0.01124701
v 0.01155294 -0.03765849 0.07457491
v 0.02357943 -0.02804532 0.01979871
v 0.01155294 -0.03483688 0.07194462
v 0.02357943 -0.03163027 0.04411273
v 0.01243585 -0.03744283 0.07457491
v 0.01889880 -0.03424853 0.07172435
v 0.02100014 -0.03315885 0.07195757
v 0.02222445 -0.03249293 0.07307188
v 0.02180536 -0.03273508 0.07195757
v 0.02224093 -0.03250050 0.07110240
v 0.02224447 -0.03250239 0.06488947
v 0.02224447 -0.03250145 0.02445031
v 0.02266827 -0.03227065 0.01295735
v 0.02224447 -0.03250239 0.06463680
v 0.02334163 -0.03184972 0.01039184
v 0.02357943 -0.03162744 0.00991243
v 0.02357943 -0.03162933 0.02102316
v 0.01200852 -0.03763958 0.07457491
v 0.01155294 -0.03770390 0.07282570
v 0.02357943 -0.02804815 0.01381252
v 0.01155294 -0.03483971 0.00867503
v 0.01155294 -0.03483782 0.03091591
v 0.01243232 -0.03745323 0.07366791
v 0.01325520 -0.03707960 0.07195757
v 0.01379201 -0.03682327 0.07195757
v 0.01421935 -0.03661044 0.07195757
v 0.01720125 -0.03511024 0.07173082
v 0.02058576 -0.03338492 0.05461448
v 0.02058223 -0.03338303 0.07134859
v 0.01890351 -0.03425136 0.03150546
v 0.02058929 -0.03338492 0.03690210
v 0.02180536 -0.03273698 0.03091591
v 0.02224329 -0.03250145 0.01847708
v 0.02180536 -0.03273414 0.00868150
v 0.02223740 -0.03249861 0.00838997
v 0.02257644 -0.03231321 0.00949132
v 0.02266473 -0.03225930 0.00838997
v 0.02333693 -0.03184310 0.00953667
v 0.02357943 -0.03162176 0.00904430
v 0.01242762 -0.03745607 0.06768173
v 0.01155294 -0.03770768 0.03605341
v 0.01200852 -0.03763958 0.01723320
v 0.01242997 -0.03745512 0.02749523
v 0.02357943 -0.02806234 0.00868150
v 0.01155294 -0.03484633 0.00838997
v 0.01325520 -0.03708149 0.03177108
v 0.01421817 -0.03661233 0.04886800
v 0.01379319 -0.03682421 0.03091591
v 0.01496570 -0.03623870 0.06597139
v 0.01550016 -0.03596912 0.07131620
v 0.01550487 -0.03597195 0.03158320
v 0.01550016 -0.03597006 0.06597139
v 0.01720596 -0.03511213 0.03150546
v 0.01890351 -0.03425136 0.03118153
v 0.02058811 -0.03338492 0.01381252
v 0.02101545 -0.03315696 0.01381252
v 0.02058341 -0.03338397 0.00838997
v 0.02180536 -0.03273225 0.00838997
v 0.02332515 -0.03183175 0.00838997
v 0.02357943 -0.03161136 0.00838997
v 0.01155294 -0.03770768 0.01295735
v 0.01200735 -0.03763863 0.01124701
v 0.01243232 -0.03745323 0.01039184
v 0.02357943 -0.02806991 0.00848715
v 0.02357943 -0.02807464 0.00838997
v 0.01155294 -0.03769538 0.00838997
v 0.01325520 -0.03707771 0.00868150
v 0.01379084 -0.03682232 0.00868150
v 0.01421581 -0.03661328 0.02578490
v 0.01550487 -0.03597195 0.03107788
v 0.01720596 -0.03511213 0.03116210
v 0.01889998 -0.03424947 0.00838997
v 0.01155294 -0.03770200 0.00938767
v 0.01200499 -0.03763768 0.01039184
v 0.01232755 -0.03749296 0.00945245
v 0.01325520 -0.03707677 0.00838997
v 0.01166713 -0.03767457 0.00838997
v 0.01199322 -0.03763390 0.00967920
v 0.01378966 -0.03682232 0.00838997
v 0.01550134 -0.03597006 0.00838997
v 0.01720243 -0.03511024 0.00838997
v 0.01240054 -0.03744850 0.00838997
v 0.01296678 -0.03720257 0.00838997
v 0.01195084 -0.03762160 0.00838997
f 1 2 5
f 1 5 9
f 1 9 13
f 1 13 23
f 1 23 40
f 1 40 27
f 1 27 17
f 1 17 11
f 1 11 6
f 1 6 3
f 1 3 7
f 1 7 12
f 1 12 16
f 1 16 26
f 1 26 39
f 1 39 38
f 1 38 61
f 1 61 82
f 1 82 87
f 1 87 86
f 1 86 66
f 1 66 42
f 1 42 24
f 1 24 15
f 1 15 10
f 1 10 8
f 1 8 4
f 1 4 2
f 2 4 5
f 3 6 7
f 4 8 5
f 5 8 10
f 5 10 9
f 6 11 7
f 7 11 12
f 9 10 13
f 10 14 13
f 10 15 14
f 11 16 12
f 11 17 18
f 11 18 19
f 11 19 20
f 11 20 21
f 11 21 22
f 11 22 26
f 11 26 16
f 13 14 25
f 13 25 44
f 13 44 43
f 13 43 67
f 13 67 88
f 13 88 95
f 13 95 83
f 13 83 63
f 13 63 41
f 13 41 23
f 14 15 24
f 14 24 25
f 17 27 28
f 17 28 29
f 17 29 30
f 17 30 18
f 18 29 31
f 18 31 32
f 18 32 20
f 18 20 19
f 18 30 29
f 20 32 33
f 20 33 21
f 21 34 35
f 21 35 22
f 21 33 36
f 21 36 34
f 22 35 37
f 22 37 38
f 22 38 39
f 22 39 26
f 23 41 40
f 24 42 43
f 24 43 44
f 24 44 25
f 27 40 45
f 27 45 46
f 27 46 47
f 27 47 48
f 27 48 49
f 27 49 28
f 28 50 51
f 28 51 29
f 28 49 52
f 28 52 50
f 29 51 31
f 31 33 32
f 31 51 50
f 31 50 53
f 31 53 33
f 33 53 54
f 33 54 36
f 34 54 55
f 34 55 35
f 34 36 54
f 35 55 56
f 35 56 57
f 35 57 58
f 35 58 59
f 35 59 37
f 37 59 60
f 37 60 61
f 37 61 38
f 40 62 45
f 40 41 63
f 40 63 83
f 40 83 64
f 40 64 65
f 40 65 62
f 42 66 43
f 43 66 67
f 45 62 46
f 46 62 68
f 46 68 47
f 47 69 48
f 47 68 70
f 47 70 69
f 48 71 72
f 48 72 49
f 48 69 73
f 48 73 71
f 49 72 74
f 49 74 73
f 49 73 75
f 49 75 52
f 50 52 53
f 52 75 93
f 52 93 76
f 52 76 53
f 53 76 77
f 53 77 54
f 54 77 78
f 54 78 55
f 55 78 56
f 56 78 77
f 56 77 79
f 56 79 80
f 56 80 57
f 57 80 79
f 57 79 94
f 57 94 103
f 57 103 102
f 57 102 101
f 57 101 98
f 57 98 105
f 57 105 104
f 57 104 106
f 57 106 99
f 57 99 88
f 57 88 67
f 57 67 87
f 57 87 82
f 57 82 81
f 57 81 59
f 57 59 58
f 59 81 60
f 60 81 82
f 60 82 61
f 62 65 68
f 64 83 84
f 64 84 85
f 64 85 65
f 65 85 68
f 66 86 67
f 67 86 87
f 68 85 89
f 68 89 90
f 68 90 70
f 69 70 73
f 70 90 91
f 70 91 92
f 70 92 73
f 71 74 72
f 71 73 74
f 73 92 93
f 73 93 75
f 76 93 94
f 76 94 77
f 77 94 79
f 83 95 96
f 83 96 84
f 84 96 85
f 85 96 97
f 85 97 98
f 85 98 89
f 88 99 100
f 88 100 96
f 88 96 95
f 89 98 101
f 89 101 90
f 90 101 102
f 90 102 92
f 90 92 91
f 92 102 103
f 92 103 93
f 93 103 94
f 96 100 97
f 97 100 104
f 97 104 105
f 97 105 98
f 99 106 100
f 100 106 104

