# https://github.com/mikedh/trimesh
v -0.04114016 -0.00000660 0.08393125
v -0.04112208 -0.00000660 0.08456483
v -0.04110165 -0.00000660 0.08370008
v -0.04106393 -0.00042832 0.08347592
v -0.04113937 -0.00042832 0.08393125
v -0.04112208 -0.00042832 0.08456429
v -0.04091226 -0.00000660 0.08499207
v -0.04091226 -0.00042832 0.08499207
v -0.04106393 -0.00000660 0.08347592
v -0.03946234 -0.00042832 0.08016221
v -0.04105293 -0.00103463 0.08349321
v -0.04104193 -0.00160544 0.08353210
v -0.04108829 -0.00213791 0.08403388
v -0.04106786 -0.00299412 0.08418836
v -0.04106786 -0.00299412 0.08441899
v -0.04108829 -0.00213791 0.08447571
v -0.04110479 -0.00128311 0.08452108
v -0.04070165 -0.00000660 0.08519030
v -0.04087689 -0.00213791 0.08490349
v -0.04089418 -0.00128311 0.08494832
v -0.04038730 -0.00384891 0.08535828
v -0.04042659 -0.00299412 0.08537665
v -0.04044939 -0.00213791 0.08538529
v -0.04046667 -0.00128311 0.08539015
v -0.04048475 -0.00042832 0.08539393
v -0.03946155 -0.00017842 0.08016221
v -0.03946077 -0.00000660 0.08016221
v -0.04030478 -0.00726808 0.08335547
v -0.04038023 -0.00641471 0.08327391
v -0.04103014 -0.00213791 0.08360610
v -0.03764149 -0.01201204 0.08016221
v -0.04100892 -0.00299412 0.08376057
v -0.04105214 -0.00347263 0.08430772
v -0.04105214 -0.00347263 0.08437632
v -0.04085410 -0.00299412 0.08484678
v -0.04048475 -0.00000660 0.08539393
v -0.04029378 -0.00555850 0.08530373
v -0.04033858 -0.00470370 0.08533235
v -0.03976332 -0.00641471 0.08548251
v -0.03976332 -0.00555850 0.08552735
v -0.03976332 -0.00470370 0.08555921
v -0.03976332 -0.00384891 0.08558784
v -0.03976332 -0.00299412 0.08560890
v -0.03976332 -0.00213791 0.08561916
v -0.03976332 -0.00042832 0.08562943
v -0.04012954 -0.00000660 0.08551006
v -0.03976332 -0.00128311 0.08562457
v -0.03694365 -0.00000660 0.08016221
v -0.04023877 -0.00794822 0.08343649
v -0.04063170 -0.00641471 0.08393125
v -0.04075037 -0.00555850 0.08393125
v -0.03744581 -0.01244086 0.08016221
v -0.03845722 -0.01447418 0.08365849
v -0.03855938 -0.01390337 0.08340300
v -0.03932167 -0.01192258 0.08359475
v -0.03939947 -0.01135319 0.08341813
v -0.04018455 -0.00851903 0.08354560
v -0.04085332 -0.00470370 0.08393125
v -0.04096963 -0.00379495 0.08398581
v -0.04084467 -0.00379495 0.08471120
v -0.04022306 -0.00871214 0.08444708
v -0.04028200 -0.00812287 0.08459345
v -0.04049889 -0.00641471 0.08478628
v -0.04060420 -0.00555850 0.08478628
v -0.04021127 -0.00695996 0.08523351
v -0.04024742 -0.00641471 0.08526592
v -0.03964780 -0.00812287 0.08539555
v -0.03890831 -0.00983388 0.08553652
v -0.03890831 -0.00897767 0.08559594
v -0.03890831 -0.00812287 0.08562943
v -0.03890831 -0.00726808 0.08565049
v -0.03890831 -0.00641471 0.08566508
v -0.03890831 -0.00555850 0.08567156
v -0.03890831 -0.00470370 0.08567426
v -0.03890831 -0.00384891 0.08567642
v -0.03890831 -0.00299412 0.08567804
v -0.03890831 -0.00213791 0.08567912
v -0.03890831 -0.00042832 0.08568020
v -0.03976332 -0.00000660 0.08562943
v -0.03632360 -0.00000660 0.08307569
v -0.03318172 -0.01451252 0.08345810
v -0.03323280 -0.01451252 0.08323394
v -0.03330510 -0.01451252 0.08304112
v -0.03340805 -0.01451252 0.08279482
v -0.03500099 -0.01175503 0.08016221
v -0.04048003 -0.00726808 0.08393125
v -0.03727135 -0.01271774 0.08016221
v -0.03841714 -0.01451252 0.08362284
v -0.03844622 -0.01451252 0.08368279
v -0.03851695 -0.01451252 0.08418025
v -0.03894210 -0.01325447 0.08393125
v -0.03971067 -0.01068867 0.08393125
v -0.03994486 -0.00983388 0.08393125
v -0.03923365 -0.01236702 0.08390047
v -0.03936175 -0.01206032 0.08416513
v -0.04013425 -0.00899045 0.08387076
v -0.04022306 -0.00871214 0.08411598
v -0.03936175 -0.01206032 0.08442818
v -0.03943483 -0.01154346 0.08460210
v -0.03954093 -0.01073269 0.08485380
v -0.03979397 -0.00983388 0.08478628
v -0.04000851 -0.00899045 0.08475333
v -0.04014604 -0.00752935 0.08515303
v -0.04034408 -0.00725530 0.08483543
v -0.03938454 -0.01047852 0.08525782
v -0.03945920 -0.00983388 0.08531291
v -0.03955350 -0.00897767 0.08536531
v -0.03880064 -0.01154346 0.08539339
v -0.03805329 -0.01239826 0.08557163
v -0.03805329 -0.01154346 0.08562673
v -0.03805329 -0.01068867 0.08565589
v -0.03805329 -0.00983388 0.08567102
v -0.03805329 -0.00897767 0.08567696
v -0.03805329 -0.00812287 0.08567912
v -0.03890831 -0.00000660 0.08568020
v -0.03719827 -0.01154346 0.08567858
v -0.03634403 -0.01410926 0.08567804
v -0.03624737 -0.00000660 0.08350995
v -0.03311178 -0.01451252 0.08393125
v -0.03617350 -0.00000660 0.08393125
v -0.03349921 -0.01451252 0.08261927
v -0.03494363 -0.01239826 0.08016221
v -0.03701909 -0.01310254 0.08016221
v -0.03799670 -0.01451252 0.08311782
v -0.03851145 -0.01451252 0.08443412
v -0.03931224 -0.01104791 0.08518382
v -0.03858532 -0.01410926 0.08460264
v -0.03873935 -0.01333257 0.08486838
v -0.03847608 -0.01367051 0.08520813
v -0.04007531 -0.00812287 0.08502070
v -0.03856096 -0.01310112 0.08527888
v -0.03866548 -0.01239826 0.08534424
v -0.03813580 -0.01333257 0.08542093
v -0.03795034 -0.01410926 0.08538907
v -0.03719827 -0.01451252 0.08558784
v -0.03719827 -0.01410926 0.08562132
v -0.03719827 -0.01325447 0.08565859
v -0.03719827 -0.01239826 0.08567426
v -0.03805329 -0.00000660 0.08564617
v -0.03634403 -0.01325447 0.08567642
v -0.03548902 -0.01451252 0.08566292
v -0.03634403 -0.01451252 0.08567480
v -0.03323201 -0.01451252 0.08460426
v -0.03628588 -0.00000660 0.08436498
v -0.03378526 -0.01451252 0.08219851
v -0.03498606 -0.01308976 0.08016221
v -0.03637311 -0.01353277 0.08016221
v -0.03613814 -0.01451252 0.08159194
v -0.03848001 -0.01451252 0.08449839
v -0.03829376 -0.01451252 0.08487757
v -0.03787097 -0.01451252 0.08535936
v -0.03763206 -0.00000660 0.08556029
v -0.03548902 -0.01410926 0.08565589
v -0.03463321 -0.01451252 0.08556893
v -0.03334675 -0.01451252 0.08479006
v -0.03639511 -0.00000660 0.08478628
v -0.03402416 -0.01451252 0.08187389
v -0.03545051 -0.01345610 0.08016221
v -0.03414440 -0.01451252 0.08174264
v -0.03433851 -0.01451252 0.08160112
v -0.03581200 -0.01350722 0.08016221
v -0.03503243 -0.01451252 0.08130621
v -0.03545522 -0.01451252 0.08132350
v -0.03593774 -0.01451252 0.08148284
v -0.03719827 -0.00000660 0.08547171
v -0.03389371 -0.01451252 0.08534532
v -0.03348506 -0.01451252 0.08500774
v -0.03670396 -0.00000660 0.08527024
v -0.03695544 -0.00000660 0.08537286
f 1 2 7
f 1 7 18
f 1 18 36
f 1 36 46
f 1 46 79
f 1 79 115
f 1 115 139
f 1 139 152
f 1 152 165
f 1 165 169
f 1 169 168
f 1 168 156
f 1 156 144
f 1 144 120
f 1 120 118
f 1 118 80
f 1 80 48
f 1 48 27
f 1 27 9
f 1 9 3
f 1 3 4
f 1 4 5
f 1 5 6
f 1 6 2
f 2 6 8
f 2 8 7
f 3 9 4
f 4 9 10
f 4 10 11
f 4 11 5
f 5 11 12
f 5 12 13
f 5 13 14
f 5 14 15
f 5 15 16
f 5 16 6
f 6 16 17
f 6 17 8
f 7 8 18
f 8 17 16
f 8 16 19
f 8 19 20
f 8 20 21
f 8 21 22
f 8 22 23
f 8 23 24
f 8 24 25
f 8 25 18
f 9 26 10
f 9 27 26
f 10 28 29
f 10 29 30
f 10 30 12
f 10 12 11
f 10 26 27
f 10 27 48
f 10 48 85
f 10 85 122
f 10 122 146
f 10 146 158
f 10 158 161
f 10 161 147
f 10 147 123
f 10 123 87
f 10 87 52
f 10 52 31
f 10 31 28
f 12 30 13
f 13 30 14
f 14 30 32
f 14 32 33
f 14 33 34
f 14 34 15
f 15 34 35
f 15 35 19
f 15 19 16
f 18 25 36
f 19 35 21
f 19 21 20
f 21 35 37
f 21 37 38
f 21 38 39
f 21 39 40
f 21 40 22
f 22 40 41
f 22 41 42
f 22 42 43
f 22 43 23
f 23 43 24
f 24 43 44
f 24 44 25
f 25 45 46
f 25 46 36
f 25 44 47
f 25 47 45
f 28 49 50
f 28 50 51
f 28 51 32
f 28 32 29
f 28 31 49
f 29 32 30
f 31 52 53
f 31 53 54
f 31 54 55
f 31 55 56
f 31 56 57
f 31 57 49
f 32 51 58
f 32 58 59
f 32 59 33
f 33 59 58
f 33 58 51
f 33 51 50
f 33 50 34
f 34 60 35
f 34 50 61
f 34 61 62
f 34 62 63
f 34 63 64
f 34 64 60
f 35 60 65
f 35 65 66
f 35 66 37
f 37 66 39
f 37 39 38
f 39 66 67
f 39 67 68
f 39 68 69
f 39 69 40
f 40 69 70
f 40 70 41
f 41 70 42
f 42 70 71
f 42 71 43
f 43 71 72
f 43 72 44
f 44 72 73
f 44 73 47
f 45 47 73
f 45 73 74
f 45 74 75
f 45 75 76
f 45 76 77
f 45 77 78
f 45 78 115
f 45 115 79
f 45 79 46
f 48 80 81
f 48 81 82
f 48 82 83
f 48 83 84
f 48 84 85
f 49 57 50
f 50 57 86
f 50 86 61
f 52 87 88
f 52 88 53
f 53 88 89
f 53 89 90
f 53 90 91
f 53 91 55
f 53 55 54
f 55 92 93
f 55 93 57
f 55 57 56
f 55 91 94
f 55 94 95
f 55 95 92
f 57 93 96
f 57 96 97
f 57 97 86
f 60 64 65
f 61 86 97
f 61 97 93
f 61 93 98
f 61 98 99
f 61 99 100
f 61 100 101
f 61 101 102
f 61 102 103
f 61 103 62
f 62 103 104
f 62 104 63
f 63 104 65
f 63 65 64
f 65 104 103
f 65 103 105
f 65 105 106
f 65 106 107
f 65 107 66
f 66 107 67
f 67 107 68
f 68 107 106
f 68 106 108
f 68 108 109
f 68 109 69
f 69 109 110
f 69 110 70
f 70 110 111
f 70 111 71
f 71 111 112
f 71 112 72
f 72 112 73
f 73 112 113
f 73 113 74
f 74 113 114
f 74 114 75
f 75 114 76
f 76 114 77
f 77 114 78
f 78 114 116
f 78 116 117
f 78 117 115
f 80 118 81
f 81 119 143
f 81 143 155
f 81 155 167
f 81 167 166
f 81 166 154
f 81 154 141
f 81 141 142
f 81 142 135
f 81 135 151
f 81 151 150
f 81 150 149
f 81 149 125
f 81 125 90
f 81 90 89
f 81 89 88
f 81 88 124
f 81 124 148
f 81 148 164
f 81 164 163
f 81 163 162
f 81 162 160
f 81 160 159
f 81 159 157
f 81 157 145
f 81 145 121
f 81 121 84
f 81 84 83
f 81 83 82
f 81 118 120
f 81 120 119
f 84 121 122
f 84 122 85
f 87 123 88
f 88 123 124
f 90 125 98
f 90 98 95
f 90 95 91
f 91 95 94
f 92 95 93
f 93 97 96
f 93 95 98
f 98 126 99
f 98 125 127
f 98 127 128
f 98 128 129
f 98 129 126
f 99 126 100
f 100 126 101
f 101 126 102
f 102 130 103
f 102 126 130
f 103 130 126
f 103 126 105
f 105 126 131
f 105 131 132
f 105 132 106
f 106 132 108
f 108 132 109
f 109 132 133
f 109 133 134
f 109 134 135
f 109 135 136
f 109 136 110
f 110 136 137
f 110 137 111
f 111 137 138
f 111 138 112
f 112 138 113
f 113 138 116
f 113 116 114
f 115 117 140
f 115 140 141
f 115 141 139
f 116 138 117
f 117 138 142
f 117 142 141
f 117 141 140
f 119 120 143
f 120 144 143
f 121 145 146
f 121 146 122
f 123 147 124
f 124 147 148
f 125 149 129
f 125 129 127
f 126 129 131
f 127 129 128
f 129 149 150
f 129 150 151
f 129 151 131
f 131 151 134
f 131 134 132
f 132 134 133
f 134 151 135
f 135 142 136
f 136 142 137
f 137 142 138
f 139 141 153
f 139 153 154
f 139 154 152
f 141 154 153
f 143 144 156
f 143 156 155
f 145 157 146
f 146 157 159
f 146 159 160
f 146 160 158
f 147 161 162
f 147 162 163
f 147 163 164
f 147 164 148
f 152 154 165
f 154 166 165
f 155 156 167
f 156 168 167
f 158 160 162
f 158 162 161
f 165 166 169
f 166 167 168
f 166 168 169

