# https://github.com/mikedh/trimesh
v 0.02510387 -0.02999125 0.00269274
v 0.02498349 -0.03011256 0.00269274
v 0.02491962 -0.03004088 0.00205376
v 0.02495401 -0.02999125 0.00202568
v 0.02501297 -0.02999125 0.00326741
v 0.02409172 -0.03096358 0.00396118
v 0.02371831 -0.03139093 0.00396118
v 0.02351195 -0.03160506 0.00396118
v 0.02370357 -0.03140288 0.00354772
v 0.02454129 -0.03053991 0.00269274
v 0.02486312 -0.02999125 0.00187352
v 0.02411383 -0.03094244 0.00269274
v 0.02403767 -0.03087168 0.00210765
v 0.02496630 -0.02999125 0.00342953
v 0.02436687 -0.03060792 0.00396118
v 0.02329085 -0.03180541 0.00396118
v 0.02327611 -0.03179070 0.00354772
v 0.02364707 -0.03137071 0.00269274
v 0.02466413 -0.02999125 0.00155290
v 0.02315573 -0.03169421 0.00217784
v 0.02475011 -0.02999125 0.00396118
v 0.02297148 -0.03200392 0.00396118
v 0.02265948 -0.03217578 0.00354772
v 0.02321960 -0.03174475 0.00269274
v 0.02265948 -0.03209674 0.00269274
v 0.02381412 -0.03069890 0.00153796
v 0.02417279 -0.03012910 0.00126444
v 0.02423421 -0.02999125 0.00118836
v 0.02286093 -0.03146445 0.00160815
v 0.02154907 -0.03259393 0.00203112
v 0.02133288 -0.03245976 0.00146143
v 0.02126901 -0.02999125 0.00396118
v 0.02265948 -0.03218405 0.00396118
v 0.02213867 -0.03245240 0.00354772
v 0.02094964 -0.03304885 0.00269274
v 0.02167436 -0.03266286 0.00269274
v 0.02210182 -0.03242024 0.00269274
v 0.02229098 -0.03168226 0.00137901
v 0.02357828 -0.02999125 0.00082789
v 0.01972377 -0.03253695 0.00052266
v 0.01990556 -0.03348079 0.00202568
v 0.02100860 -0.03278417 0.00178296
v 0.01871408 -0.03329423 0.00063406
v 0.01453528 -0.03591530 0.00141161
v 0.00250497 -0.02999125 0.00245363
v 0.00000654 -0.03674610 0.00396118
v 0.02238925 -0.03232742 0.00396118
v 0.01368773 -0.03677367 0.00308989
v 0.02043866 -0.03330986 0.00269274
v 0.02344807 -0.02999125 0.00075905
v 0.01923980 -0.03269778 0.00039677
v 0.02004313 -0.03204068 0.00036145
v 0.02265948 -0.03008867 0.00040945
v 0.01822520 -0.03434376 0.00206101
v 0.01652764 -0.03520121 0.00204380
v 0.01482025 -0.03604304 0.00198130
v 0.01504872 -0.03582523 0.00175261
v 0.01701897 -0.03416271 0.00064312
v 0.01644903 -0.03430608 0.00045609
v 0.01814167 -0.03343760 0.00045972
v 0.01419380 -0.03621949 0.00175261
v 0.01304900 -0.03687109 0.00207459
v 0.01236604 -0.03697126 0.00180877
v 0.01262645 -0.03668912 0.00150536
v 0.01396533 -0.03603845 0.00129478
v 0.01517156 -0.03499443 0.00063361
v 0.00154442 -0.02999125 0.00236487
v 0.00000654 -0.03013370 0.00220411
v 0.00000654 -0.03935797 0.00396118
v 0.01322096 -0.03697310 0.00396118
v 0.01368773 -0.03677367 0.00315419
v 0.01240044 -0.03738850 0.00396118
v 0.01240044 -0.03736828 0.00354772
v 0.01330203 -0.03691244 0.00275976
v 0.01361894 -0.03674150 0.00251975
v 0.01402675 -0.03656964 0.00275976
v 0.01492589 -0.03611289 0.00269274
v 0.02293954 -0.02999125 0.00049821
v 0.01923980 -0.03206825 0.00004173
v 0.01840945 -0.03297533 0.00023872
v 0.02182667 -0.03039562 0.00021699
v 0.02265948 -0.02999125 0.00035466
v 0.01670943 -0.03383830 0.00020567
v 0.01752996 -0.03359659 0.00031118
v 0.01581766 -0.03444577 0.00034831
v 0.01240044 -0.03728189 0.00269274
v 0.01104436 -0.03760998 0.00241333
v 0.01154551 -0.03723134 0.00183775
v 0.01205896 -0.03679664 0.00138761
v 0.01460161 -0.03507898 0.00053851
v 0.00000654 -0.02999125 0.00209497
v 0.00000654 -0.03937911 0.00395756
v 0.00001146 -0.03937911 0.00396118
v 0.01205405 -0.03749786 0.00396118
v 0.01173222 -0.03757965 0.00354772
v 0.01752996 -0.03292295 -0.00008325
v 0.01836768 -0.03204344 -0.00020145
v 0.02009472 -0.03121264 -0.00001759
v 0.02094964 -0.03035794 -0.00005246
v 0.02181685 -0.02999125 0.00008656
v 0.01581766 -0.03377856 -0.00003797
v 0.01491852 -0.03467921 0.00030258
v 0.01149884 -0.03754289 0.00269636
v 0.01118438 -0.03763939 0.00298347
v 0.01073236 -0.03770372 0.00269636
v 0.00983567 -0.03786915 0.00269274
v 0.00604995 -0.03849133 0.00224441
v 0.01047441 -0.03766880 0.00215746
v 0.01073236 -0.03745559 0.00185858
v 0.00983567 -0.03752727 0.00159502
v 0.01154551 -0.03687384 0.00132421
v 0.00879896 -0.03685362 0.00047919
v 0.00000654 -0.02999125 0.00007479
v 0.00000654 -0.03936808 0.00362063
v 0.00044874 -0.03938003 0.00396118
v 0.01166098 -0.03759436 0.00396118
v 0.01130476 -0.03765593 0.00354772
v 0.01667504 -0.03292295 -0.00022002
v 0.01807288 -0.03174200 -0.00031647
v 0.01864283 -0.03150397 -0.00027436
v 0.01892780 -0.03093417 -0.00032779
v 0.01922997 -0.02999125 -0.00042380
v 0.01496274 -0.03377856 -0.00013850
v 0.00812583 -0.03634265 -0.00001533
v 0.00732250 -0.03629669 -0.00015888
v 0.00764187 -0.03588681 -0.00029519
v 0.00904217 -0.03641984 0.00021925
v 0.00086392 -0.03933775 0.00394986
v 0.00213893 -0.03906388 0.00269274
v 0.00128401 -0.03917692 0.00269274
v 0.00555861 -0.03852901 0.00217286
v 0.00336972 -0.03847203 0.00142520
v 0.00983567 -0.03773497 0.00202206
v 0.00983567 -0.03709992 0.00107922
v 0.01069059 -0.03699791 0.00121462
v 0.00898075 -0.03759068 0.00147365
v 0.00513607 -0.03762652 0.00055436
v 0.00812583 -0.03694185 0.00039043
v 0.00000654 -0.03031383 -0.00013080
v 0.00213893 -0.02999125 -0.00015798
v 0.00000654 -0.03935062 0.00314559
v 0.00040207 -0.03936808 0.00361837
v 0.00086392 -0.03933775 0.00396118
v 0.01130230 -0.03765410 0.00396118
v 0.00707192 -0.03598055 -0.00031874
v 0.01240044 -0.03121264 -0.00063076
v 0.01154551 -0.03121264 -0.00066246
v 0.01325290 -0.03035794 -0.00062713
v 0.01838488 -0.02999125 -0.00045007
v 0.00727091 -0.03701537 0.00030076
v 0.00641599 -0.03645017 -0.00020371
v 0.00066984 -0.03931662 0.00338017
v 0.00009990 -0.03934602 0.00303600
v 0.00040207 -0.03927526 0.00272761
v 0.00213893 -0.03882677 0.00183775
v 0.00384877 -0.03865675 0.00193285
v 0.00304790 -0.03868249 0.00176122
v 0.00279977 -0.03851798 0.00136180
v 0.00470369 -0.03765961 0.00052131
v 0.00641599 -0.03708062 0.00022423
v 0.00000654 -0.03053072 -0.00022590
v 0.00000654 -0.03074118 -0.00031421
v 0.01240044 -0.02999125 -0.00061038
v 0.00000654 -0.03934602 0.00303600
v 0.00555861 -0.03650347 -0.00024628
v 0.00641599 -0.03602282 -0.00032191
v 0.01069059 -0.03121264 -0.00066517
v 0.01240044 -0.03035794 -0.00065294
v 0.00555861 -0.03607613 -0.00032553
v 0.00128401 -0.03292295 -0.00059453
v 0.00000654 -0.03292295 -0.00060087
v 0.01325290 -0.02999125 -0.00060358
v 0.00470369 -0.03719826 0.00014045
v 0.00000654 -0.03927434 0.00272761
v 0.00042909 -0.03894625 0.00183775
v 0.00128401 -0.03890214 0.00183775
v 0.00213893 -0.03855750 0.00132059
v 0.00547754 -0.03725156 0.00025548
v 0.00384877 -0.03769269 0.00049232
v 0.00000654 -0.03121264 -0.00043422
v 0.01154551 -0.03035794 -0.00064389
v 0.00000654 -0.03206825 -0.00059317
v 0.00384877 -0.03719826 0.00011011
v 0.00470369 -0.03652553 -0.00025262
v 0.00470369 -0.03609726 -0.00032870
v 0.00000654 -0.03634265 -0.00014575
v 0.00000654 -0.03911719 0.00230374
v 0.00128401 -0.03858231 0.00131153
v 0.00000654 -0.03894441 0.00183775
v 0.00000654 -0.03857864 0.00132784
v 0.00000654 -0.03713209 0.00018483
v 0.00299385 -0.03719826 0.00013411
v 0.00000654 -0.03674334 0.00002181
v 0.00384877 -0.03643822 -0.00025489
f 1 2 3
f 1 3 4
f 1 4 11
f 1 11 19
f 1 19 28
f 1 28 39
f 1 39 50
f 1 50 78
f 1 78 82
f 1 82 100
f 1 100 122
f 1 122 149
f 1 149 172
f 1 172 163
f 1 163 140
f 1 140 113
f 1 113 91
f 1 91 67
f 1 67 45
f 1 45 32
f 1 32 21
f 1 21 14
f 1 14 5
f 1 5 6
f 1 6 7
f 1 7 8
f 1 8 2
f 2 9 10
f 2 10 3
f 2 8 9
f 3 11 4
f 3 10 12
f 3 12 13
f 3 13 11
f 5 14 15
f 5 15 6
f 6 15 21
f 6 21 32
f 6 32 46
f 6 46 69
f 6 69 93
f 6 93 115
f 6 115 143
f 6 143 144
f 6 144 116
f 6 116 94
f 6 94 72
f 6 72 70
f 6 70 47
f 6 47 33
f 6 33 22
f 6 22 16
f 6 16 8
f 6 8 7
f 8 16 17
f 8 17 9
f 9 12 10
f 9 17 18
f 9 18 12
f 11 13 19
f 12 18 13
f 13 18 20
f 13 20 19
f 14 21 15
f 16 22 23
f 16 23 17
f 17 24 18
f 17 23 25
f 17 25 24
f 18 24 20
f 19 20 26
f 19 26 27
f 19 27 28
f 20 29 26
f 20 24 25
f 20 25 30
f 20 30 31
f 20 31 29
f 22 33 23
f 23 33 34
f 23 34 35
f 23 35 36
f 23 36 37
f 23 37 25
f 25 37 30
f 26 29 38
f 26 38 27
f 27 38 28
f 28 38 40
f 28 40 39
f 29 31 38
f 30 37 36
f 30 36 41
f 30 41 42
f 30 42 31
f 31 43 40
f 31 40 38
f 31 42 41
f 31 41 44
f 31 44 43
f 32 45 46
f 33 47 34
f 34 47 48
f 34 48 35
f 35 49 41
f 35 41 36
f 35 48 49
f 39 40 50
f 40 43 51
f 40 51 52
f 40 52 53
f 40 53 50
f 41 49 54
f 41 54 55
f 41 55 56
f 41 56 57
f 41 57 44
f 43 58 59
f 43 59 60
f 43 60 51
f 43 44 58
f 44 57 56
f 44 56 61
f 44 61 62
f 44 62 63
f 44 63 64
f 44 64 65
f 44 65 66
f 44 66 59
f 44 59 58
f 45 67 46
f 46 67 68
f 46 68 91
f 46 91 113
f 46 113 139
f 46 139 161
f 46 161 162
f 46 162 180
f 46 180 182
f 46 182 171
f 46 171 186
f 46 186 193
f 46 193 191
f 46 191 190
f 46 190 189
f 46 189 187
f 46 187 174
f 46 174 164
f 46 164 141
f 46 141 114
f 46 114 92
f 46 92 69
f 47 70 71
f 47 71 48
f 48 71 72
f 48 72 73
f 48 73 74
f 48 74 75
f 48 75 76
f 48 76 77
f 48 77 49
f 49 77 54
f 50 53 78
f 51 79 52
f 51 60 80
f 51 80 79
f 52 81 53
f 52 79 81
f 53 82 78
f 53 81 82
f 54 77 55
f 55 77 75
f 55 75 56
f 56 75 62
f 56 62 61
f 59 83 84
f 59 84 60
f 59 66 85
f 59 85 83
f 60 84 80
f 62 75 86
f 62 86 87
f 62 87 88
f 62 88 63
f 63 88 89
f 63 89 64
f 64 89 65
f 65 89 66
f 66 89 90
f 66 90 85
f 67 91 68
f 69 92 93
f 70 72 71
f 72 94 95
f 72 95 73
f 73 95 86
f 73 86 74
f 74 86 75
f 75 77 76
f 79 80 96
f 79 96 97
f 79 97 98
f 79 98 81
f 80 84 96
f 81 98 99
f 81 99 100
f 81 100 82
f 83 96 84
f 83 85 101
f 83 101 96
f 85 90 102
f 85 102 101
f 86 95 103
f 86 103 87
f 87 103 104
f 87 104 105
f 87 105 106
f 87 106 107
f 87 107 108
f 87 108 88
f 88 108 109
f 88 109 110
f 88 110 89
f 89 110 111
f 89 111 112
f 89 112 90
f 90 112 102
f 92 114 115
f 92 115 93
f 94 116 95
f 95 116 117
f 95 117 106
f 95 106 105
f 95 105 104
f 95 104 103
f 96 101 118
f 96 118 97
f 97 118 119
f 97 119 120
f 97 120 99
f 97 99 98
f 99 120 121
f 99 121 122
f 99 122 100
f 101 123 118
f 101 102 124
f 101 124 125
f 101 125 126
f 101 126 123
f 102 112 127
f 102 127 124
f 106 117 107
f 107 128 129
f 107 129 130
f 107 130 131
f 107 131 132
f 107 132 110
f 107 110 133
f 107 133 108
f 107 117 128
f 108 133 110
f 108 110 109
f 110 134 135
f 110 135 111
f 110 132 136
f 110 136 137
f 110 137 138
f 110 138 112
f 110 112 134
f 111 135 112
f 112 138 127
f 112 135 134
f 113 140 139
f 114 141 142
f 114 142 115
f 115 128 143
f 115 142 128
f 116 144 117
f 117 144 143
f 117 143 128
f 118 123 126
f 118 126 145
f 118 145 119
f 119 146 122
f 119 122 121
f 119 121 120
f 119 145 146
f 122 146 147
f 122 147 148
f 122 148 149
f 124 127 138
f 124 138 150
f 124 150 151
f 124 151 125
f 125 151 126
f 126 151 145
f 128 142 152
f 128 152 129
f 129 152 130
f 130 152 153
f 130 153 154
f 130 154 155
f 130 155 156
f 130 156 131
f 131 156 132
f 132 156 157
f 132 157 158
f 132 158 137
f 132 137 136
f 137 159 160
f 137 160 150
f 137 150 138
f 137 158 159
f 139 140 161
f 140 162 161
f 140 163 162
f 141 164 153
f 141 153 142
f 142 153 152
f 145 151 165
f 145 165 166
f 145 166 147
f 145 147 146
f 147 167 168
f 147 168 148
f 147 166 169
f 147 169 170
f 147 170 171
f 147 171 167
f 148 168 149
f 149 168 172
f 150 160 151
f 151 160 173
f 151 173 165
f 153 164 154
f 154 164 174
f 154 174 175
f 154 175 176
f 154 176 155
f 155 177 158
f 155 158 157
f 155 157 156
f 155 176 177
f 158 177 159
f 159 173 178
f 159 178 160
f 159 177 179
f 159 179 173
f 160 178 173
f 162 163 180
f 163 172 168
f 163 168 181
f 163 181 182
f 163 182 180
f 165 173 183
f 165 183 184
f 165 184 169
f 165 169 166
f 167 171 182
f 167 182 168
f 168 182 181
f 169 184 185
f 169 185 170
f 170 185 171
f 171 185 186
f 173 179 183
f 174 187 175
f 175 188 177
f 175 177 176
f 175 187 189
f 175 189 188
f 177 188 179
f 179 188 190
f 179 190 191
f 179 191 192
f 179 192 183
f 183 192 184
f 184 192 191
f 184 191 193
f 184 193 186
f 184 186 194
f 184 194 185
f 185 194 186
f 188 189 190

