# https://github.com/mikedh/trimesh
v -0.04114021 0.00042786 0.08393086
v -0.04112206 0.00042786 0.08456447
v -0.04110548 0.00128393 0.08452111
v -0.04108811 0.00213857 0.08447619
v -0.04106759 0.00299321 0.08441926
v -0.04106759 0.00299321 0.08418786
v -0.04108811 0.00213857 0.08403324
v -0.04109758 0.00130537 0.08386243
v -0.04104154 0.00160549 0.08353179
v -0.04105338 0.00103525 0.08349313
v -0.04106443 0.00042786 0.08347590
v -0.04106443 -0.00000660 0.08347590
v -0.04110153 -0.00000660 0.08369998
v -0.04113942 -0.00000660 0.08393086
v -0.04112206 -0.00000660 0.08456447
v -0.04091207 0.00042786 0.08499227
v -0.04089391 0.00128393 0.08494892
v -0.04087654 0.00213857 0.08490399
v -0.04085444 0.00299321 0.08484653
v -0.04105259 0.00347340 0.08437590
v -0.04105259 0.00347340 0.08430799
v -0.04100917 0.00299321 0.08376058
v -0.04103048 0.00213857 0.08360596
v -0.03946030 0.00042786 0.08034390
v -0.03946109 0.00026208 0.08034390
v -0.03946188 -0.00000660 0.08034390
v -0.04091207 -0.00000660 0.08499227
v -0.04048420 0.00042786 0.08539396
v -0.04046683 0.00128393 0.08538978
v -0.04044946 0.00213857 0.08538508
v -0.04042657 0.00299321 0.08537672
v -0.04070129 -0.00000660 0.08519024
v -0.04038710 0.00384927 0.08535843
v -0.04029394 0.00555855 0.08530359
v -0.04024737 0.00641462 0.08526598
v -0.04021105 0.00696056 0.08523359
v -0.04084418 0.00379496 0.08471125
v -0.04060419 0.00555855 0.08478594
v -0.04049841 0.00641462 0.08478594
v -0.04028210 0.00812247 0.08459320
v -0.04022368 0.00871271 0.08444694
v -0.04063182 0.00641462 0.08393086
v -0.04075023 0.00555855 0.08393086
v -0.04085365 0.00470391 0.08393086
v -0.04096970 0.00379496 0.08398623
v -0.04030421 0.00726926 0.08335523
v -0.04037999 0.00641462 0.08327375
v -0.03764224 0.01201407 0.08034390
v -0.03694438 -0.00000660 0.08034390
v -0.03976344 0.00042786 0.08562954
v -0.03976344 0.00128393 0.08562483
v -0.03976344 0.00213857 0.08561909
v -0.04048420 -0.00000660 0.08539396
v -0.04012974 -0.00000660 0.08550992
v -0.03976344 0.00299321 0.08560864
v -0.03976344 0.00384927 0.08558774
v -0.03976344 0.00470391 0.08555902
v -0.03976344 0.00555855 0.08552715
v -0.03976344 0.00641462 0.08548276
v -0.04033815 0.00470391 0.08533232
v -0.03964740 0.00812247 0.08539552
v -0.03955346 0.00897853 0.08536522
v -0.04014632 0.00752793 0.08515315
v -0.04034368 0.00725496 0.08483557
v -0.03945951 0.00983317 0.08531299
v -0.03938452 0.01047772 0.08525815
v -0.04000896 0.00898997 0.08475356
v -0.03979423 0.00983317 0.08478594
v -0.03954082 0.01073354 0.08485385
v -0.03943425 0.01154388 0.08460208
v -0.03936163 0.01206123 0.08442813
v -0.03994501 0.00983317 0.08393086
v -0.04022368 0.00871271 0.08411577
v -0.04048025 0.00726926 0.08393086
v -0.04018421 0.00851834 0.08354537
v -0.04023868 0.00794954 0.08343672
v -0.03939952 0.01135237 0.08341844
v -0.03932136 0.01192260 0.08359499
v -0.03855956 0.01390342 0.08340329
v -0.03845694 0.01447366 0.08365872
v -0.03760356 0.01209839 0.08034390
v -0.03632310 -0.00000660 0.08307578
v -0.03500080 0.01175396 0.08034390
v -0.03339194 0.01459371 0.08274775
v -0.03321116 0.01459371 0.08319644
v -0.03976344 -0.00000660 0.08562954
v -0.03890849 0.00128393 0.08567968
v -0.03890849 0.00213857 0.08567916
v -0.03890849 0.00299321 0.08567811
v -0.03890849 0.00384927 0.08567655
v -0.03890849 0.00555855 0.08567132
v -0.03890849 0.00641462 0.08566505
v -0.03890849 0.00726926 0.08565043
v -0.03890849 0.00812247 0.08562954
v -0.03890849 0.00897853 0.08559558
v -0.03890849 0.00983317 0.08553656
v -0.04007527 0.00812247 0.08502100
v -0.03931189 0.01104796 0.08518397
v -0.03880034 0.01154388 0.08539343
v -0.03866535 0.01239852 0.08534433
v -0.03856114 0.01310023 0.08527904
v -0.03847588 0.01367047 0.08520852
v -0.03873876 0.01333319 0.08486847
v -0.03858561 0.01410922 0.08460260
v -0.03849799 0.01458370 0.08440411
v -0.03936163 0.01206123 0.08416487
v -0.04013448 0.00898997 0.08387079
v -0.03971055 0.01068924 0.08393086
v -0.03923295 0.01236707 0.08390056
v -0.03894165 0.01325458 0.08393086
v -0.03849325 0.01459371 0.08421972
v -0.03842378 0.01459371 0.08373550
v -0.03798565 0.01459371 0.08313219
v -0.03701859 0.01309452 0.08034390
v -0.03744488 0.01244139 0.08034390
v -0.03617311 -0.00000660 0.08393086
v -0.03307538 0.01459371 0.08393086
v -0.03498581 0.01187687 0.08034390
v -0.03375350 0.01459371 0.08220450
v -0.03494554 0.01239852 0.08034390
v -0.03890849 -0.00000660 0.08567968
v -0.03805354 0.00812247 0.08567916
v -0.03805354 0.00897853 0.08567707
v -0.03805354 0.00983317 0.08567132
v -0.03805354 0.01068924 0.08565617
v -0.03805354 0.01154388 0.08562692
v -0.03805354 0.01239852 0.08557155
v -0.03813564 0.01333319 0.08542112
v -0.03795091 0.01410922 0.08538926
v -0.03785460 0.01459371 0.08535321
v -0.03804091 0.01459371 0.08519755
v -0.03827616 0.01459371 0.08484706
v -0.03848930 0.01459371 0.08441455
v -0.03849325 0.01459371 0.08439000
v -0.03849799 0.01458370 0.08422860
v -0.03730831 0.01459371 0.08257903
v -0.03636336 0.01352612 0.08034390
v -0.03689070 0.01318313 0.08034390
v -0.03639494 -0.00000660 0.08478594
v -0.03312038 0.01459371 0.08429128
v -0.03413559 0.01459371 0.08173805
v -0.03494870 0.01254572 0.08034390
v -0.03499765 0.01306593 0.08034390
v -0.03848772 -0.00000660 0.08566349
v -0.03548867 0.01459371 0.08566453
v -0.03585970 0.01459371 0.08567393
v -0.03634363 0.01410922 0.08567811
v -0.03719858 0.01154388 0.08567864
v -0.03719858 0.01239852 0.08567446
v -0.03719858 0.01325458 0.08565879
v -0.03719858 0.01410922 0.08562118
v -0.03719858 0.01459371 0.08558096
v -0.03752462 0.01459371 0.08548014
v -0.03633889 0.01459371 0.08179394
v -0.03542552 0.01347182 0.08034390
v -0.03609732 0.01459371 0.08162627
v -0.03546420 0.01459371 0.08136561
v -0.03670361 -0.00000660 0.08527068
v -0.03321669 0.01459371 0.08463812
v -0.03347010 0.01459371 0.08504503
v -0.03460530 0.01459371 0.08150926
v -0.03532842 0.01343180 0.08034390
v -0.03805354 -0.00000660 0.08564625
v -0.03500475 0.01459371 0.08562797
v -0.03634363 0.01459371 0.08567446
v -0.03671545 0.01459371 0.08564990
v -0.03719858 -0.00000660 0.08547178
v -0.03356246 0.01459371 0.08514793
v -0.03386955 0.01459371 0.08534956
v -0.03763198 -0.00000660 0.08556058
v -0.03463372 0.01459371 0.08557573
v -0.03414664 0.01459371 0.08544358
f 1 2 3
f 1 3 4
f 1 4 5
f 1 5 6
f 1 6 7
f 1 7 8
f 1 8 9
f 1 9 10
f 1 10 11
f 1 11 12
f 1 12 13
f 1 13 14
f 1 14 15
f 1 15 2
f 2 16 3
f 2 15 27
f 2 27 16
f 3 17 18
f 3 18 4
f 3 16 17
f 4 18 5
f 5 19 20
f 5 20 21
f 5 21 6
f 5 18 19
f 6 21 22
f 6 22 23
f 6 23 7
f 7 23 9
f 7 9 8
f 9 23 24
f 9 24 10
f 10 24 11
f 11 25 26
f 11 26 12
f 11 24 25
f 12 26 49
f 12 49 82
f 12 82 116
f 12 116 139
f 12 139 158
f 12 158 167
f 12 167 170
f 12 170 163
f 12 163 144
f 12 144 121
f 12 121 86
f 12 86 54
f 12 54 53
f 12 53 32
f 12 32 27
f 12 27 15
f 12 15 14
f 12 14 13
f 16 28 29
f 16 29 30
f 16 30 31
f 16 31 17
f 16 27 32
f 16 32 28
f 17 31 33
f 17 33 18
f 18 33 19
f 19 33 34
f 19 34 35
f 19 35 36
f 19 36 37
f 19 37 20
f 20 37 38
f 20 38 39
f 20 39 40
f 20 40 41
f 20 41 42
f 20 42 21
f 21 42 43
f 21 43 44
f 21 44 45
f 21 45 22
f 22 45 44
f 22 44 43
f 22 43 46
f 22 46 47
f 22 47 23
f 23 47 24
f 24 47 46
f 24 46 48
f 24 48 81
f 24 81 115
f 24 115 114
f 24 114 138
f 24 138 137
f 24 137 155
f 24 155 162
f 24 162 143
f 24 143 142
f 24 142 120
f 24 120 118
f 24 118 83
f 24 83 49
f 24 49 26
f 24 26 25
f 28 50 51
f 28 51 52
f 28 52 29
f 28 32 53
f 28 53 54
f 28 54 50
f 29 52 55
f 29 55 30
f 30 55 31
f 31 55 56
f 31 56 57
f 31 57 58
f 31 58 33
f 33 58 59
f 33 59 60
f 33 60 34
f 34 60 59
f 34 59 35
f 35 59 61
f 35 61 62
f 35 62 36
f 36 63 64
f 36 64 39
f 36 39 38
f 36 38 37
f 36 62 65
f 36 65 66
f 36 66 63
f 39 64 40
f 40 64 63
f 40 63 41
f 41 67 68
f 41 68 69
f 41 69 70
f 41 70 71
f 41 71 72
f 41 72 73
f 41 73 74
f 41 74 42
f 41 63 67
f 42 74 75
f 42 75 76
f 42 76 46
f 42 46 43
f 46 76 48
f 48 75 77
f 48 77 78
f 48 78 79
f 48 79 80
f 48 80 81
f 48 76 75
f 49 83 84
f 49 84 85
f 49 85 82
f 50 54 86
f 50 86 121
f 50 121 87
f 50 87 88
f 50 88 89
f 50 89 90
f 50 90 91
f 50 91 51
f 51 91 52
f 52 91 92
f 52 92 55
f 55 92 93
f 55 93 56
f 56 93 94
f 56 94 57
f 57 94 58
f 58 94 95
f 58 95 59
f 59 95 96
f 59 96 62
f 59 62 61
f 62 96 65
f 63 97 67
f 63 66 98
f 63 98 97
f 65 96 99
f 65 99 100
f 65 100 66
f 66 100 101
f 66 101 98
f 67 98 68
f 67 97 98
f 68 98 69
f 69 98 70
f 70 98 71
f 71 102 103
f 71 103 104
f 71 104 105
f 71 105 135
f 71 135 106
f 71 106 72
f 71 98 102
f 72 75 107
f 72 107 73
f 72 106 108
f 72 108 78
f 72 78 75
f 73 107 75
f 73 75 74
f 75 78 77
f 78 106 109
f 78 109 110
f 78 110 80
f 78 80 79
f 78 108 106
f 80 110 111
f 80 111 112
f 80 112 113
f 80 113 114
f 80 114 115
f 80 115 81
f 82 85 117
f 82 117 116
f 83 118 84
f 84 119 141
f 84 141 161
f 84 161 157
f 84 157 156
f 84 156 154
f 84 154 136
f 84 136 113
f 84 113 112
f 84 112 111
f 84 111 134
f 84 134 133
f 84 133 132
f 84 132 131
f 84 131 130
f 84 130 153
f 84 153 152
f 84 152 166
f 84 166 165
f 84 165 146
f 84 146 145
f 84 145 164
f 84 164 171
f 84 171 172
f 84 172 169
f 84 169 168
f 84 168 160
f 84 160 159
f 84 159 140
f 84 140 117
f 84 117 85
f 84 118 120
f 84 120 119
f 87 121 147
f 87 147 148
f 87 148 122
f 87 122 88
f 88 122 89
f 89 122 90
f 90 122 123
f 90 123 91
f 91 123 124
f 91 124 92
f 92 124 93
f 93 124 125
f 93 125 94
f 94 125 126
f 94 126 95
f 95 126 127
f 95 127 96
f 96 127 99
f 98 101 102
f 99 127 100
f 100 127 128
f 100 128 129
f 100 129 101
f 101 129 130
f 101 130 102
f 102 130 131
f 102 131 132
f 102 132 133
f 102 133 105
f 102 105 104
f 102 104 103
f 105 133 134
f 105 134 111
f 105 111 135
f 106 135 110
f 106 110 109
f 110 135 111
f 113 136 137
f 113 137 138
f 113 138 114
f 116 117 140
f 116 140 139
f 119 120 142
f 119 142 143
f 119 143 141
f 121 144 145
f 121 145 146
f 121 146 147
f 122 148 123
f 123 148 149
f 123 149 124
f 124 149 125
f 125 149 150
f 125 150 126
f 126 150 151
f 126 151 127
f 127 151 152
f 127 152 153
f 127 153 129
f 127 129 128
f 129 153 130
f 136 154 137
f 137 154 156
f 137 156 157
f 137 157 155
f 139 140 159
f 139 159 160
f 139 160 158
f 141 143 162
f 141 162 161
f 144 163 145
f 145 163 164
f 146 165 147
f 147 165 149
f 147 149 148
f 149 165 150
f 150 165 166
f 150 166 151
f 151 166 152
f 155 157 161
f 155 161 162
f 158 160 168
f 158 168 169
f 158 169 167
f 163 170 171
f 163 171 164
f 167 169 172
f 167 172 171
f 167 171 170

