# https://github.com/mikedh/trimesh
v 0.02647928 -0.02879168 0.04288284
v 0.02888920 -0.02638126 0.04288284
v 0.02888920 -0.02637763 0.05998480
v 0.02647928 -0.02878622 0.06596838
v 0.02647928 -0.02879108 0.01979729
v 0.02888920 -0.02638248 0.01979729
v 0.02888920 -0.02637460 0.06596838
v 0.02888920 -0.02636611 0.06599848
v 0.02838669 -0.02667415 0.06658239
v 0.02647928 -0.02870557 0.06620917
v 0.02647928 -0.02876621 0.01381372
v 0.02888920 -0.02635762 0.01381372
v 0.02888920 -0.02496109 0.06988721
v 0.02667392 -0.02838540 0.06658239
v 0.02647928 -0.02848363 0.06668473
v 0.02647928 -0.02873771 0.00868494
v 0.02888920 -0.02633336 0.00867892
v 0.02888920 -0.02342145 0.06988721
v 0.02887009 -0.02496715 0.06988721
v 0.02647928 -0.02823926 0.06687736
v 0.02647928 -0.02873044 0.00849832
v 0.02647928 -0.02872619 0.00838997
v 0.02888920 -0.02632063 0.00839599
v 0.02888920 -0.02259918 0.06596838
v 0.02647928 -0.02527217 0.06596838
v 0.02647928 -0.02539587 0.06637772
v 0.02647928 -0.02549472 0.06657035
v 0.02882739 -0.02352272 0.06988721
v 0.02866130 -0.02437167 0.06988721
v 0.02647928 -0.02748490 0.06728068
v 0.02647928 -0.02765166 0.06722650
v 0.02647928 -0.02794395 0.06708202
v 0.02888330 -0.02632608 0.00838997
v 0.02647928 -0.02534858 0.00838997
v 0.02888920 -0.02580094 0.00838997
v 0.02888920 -0.02259676 0.04886642
v 0.02647928 -0.02526550 0.04288284
v 0.02647928 -0.02574394 0.06676298
v 0.02647928 -0.02633033 0.06713019
v 0.02647928 -0.02667597 0.06725660
v 0.02647928 -0.02699797 0.06728068
v 0.02647928 -0.02727691 0.06728669
v 0.02647928 -0.02534736 0.00840201
v 0.02888920 -0.02261010 0.00838997
v 0.02888920 -0.02259797 0.01979729
v 0.02647928 -0.02526489 0.01979729
v 0.02647928 -0.02533584 0.00858260
v 0.02647928 -0.02532978 0.00868494
v 0.02888920 -0.02260889 0.00842007
v 0.02888920 -0.02259979 0.00868494
v 0.02647928 -0.02529461 0.01381372
v 0.02888920 -0.02260282 0.00858862
f 1 2 3
f 1 3 4
f 1 4 10
f 1 10 15
f 1 15 20
f 1 20 32
f 1 32 31
f 1 31 30
f 1 30 42
f 1 42 41
f 1 41 40
f 1 40 39
f 1 39 38
f 1 38 27
f 1 27 26
f 1 26 25
f 1 25 37
f 1 37 46
f 1 46 51
f 1 51 48
f 1 48 47
f 1 47 43
f 1 43 34
f 1 34 22
f 1 22 21
f 1 21 16
f 1 16 11
f 1 11 5
f 1 5 6
f 1 6 2
f 2 6 12
f 2 12 17
f 2 17 23
f 2 23 35
f 2 35 44
f 2 44 49
f 2 49 52
f 2 52 50
f 2 50 45
f 2 45 36
f 2 36 24
f 2 24 18
f 2 18 13
f 2 13 8
f 2 8 7
f 2 7 3
f 3 7 4
f 4 7 8
f 4 8 9
f 4 9 10
f 5 11 12
f 5 12 6
f 8 13 9
f 9 14 10
f 9 13 14
f 10 14 15
f 11 16 17
f 11 17 12
f 13 18 28
f 13 28 29
f 13 29 19
f 13 19 15
f 13 15 14
f 15 19 20
f 16 21 17
f 17 21 22
f 17 22 23
f 18 24 25
f 18 25 26
f 18 26 27
f 18 27 28
f 19 29 30
f 19 30 31
f 19 31 32
f 19 32 20
f 22 33 23
f 22 34 44
f 22 44 35
f 22 35 33
f 23 33 35
f 24 36 37
f 24 37 25
f 27 38 28
f 28 38 39
f 28 39 40
f 28 40 29
f 29 40 41
f 29 41 42
f 29 42 30
f 34 43 44
f 36 45 46
f 36 46 37
f 43 47 44
f 44 47 48
f 44 48 49
f 45 50 46
f 46 50 51
f 48 50 52
f 48 52 49
f 48 51 50

