# https://github.com/mikedh/trimesh
v -0.03736409 -0.01259460 0.00839006
v -0.03736029 -0.01259460 0.00782346
v -0.03707319 -0.01325538 0.00782346
v -0.03707604 -0.01325538 0.00839006
v -0.03445221 -0.01259460 0.00839006
v -0.03734793 -0.01259460 0.00698105
v -0.03699143 -0.01343406 0.00839006
v -0.03730135 -0.01259460 0.00420078
v -0.03682126 -0.01378693 0.00782346
v -0.03439136 -0.01259460 0.00344740
v -0.02765210 -0.02407403 0.00839006
v -0.03682222 -0.01378918 0.00839006
v -0.03697812 -0.01321830 0.00354853
v -0.03726332 -0.01259460 0.00352434
v -0.03596947 -0.01550070 0.00802378
v -0.02769583 -0.02407403 0.00344740
v -0.03725762 -0.01259460 0.00344740
v -0.03115720 -0.02407403 0.00839006
v -0.03596947 -0.01550070 0.00839006
v -0.03424972 -0.01890014 0.00810942
v -0.03511102 -0.01720323 0.00809587
v -0.03697242 -0.01321492 0.00344740
v -0.03247197 -0.02207145 0.00344740
v -0.03101651 -0.02407403 0.00344740
v -0.03115245 -0.02407403 0.00782346
v -0.03146046 -0.02375263 0.00839006
v -0.03145856 -0.02375038 0.00782346
v -0.03511102 -0.01720323 0.00839006
v -0.03424972 -0.01890014 0.00839006
v -0.03244725 -0.02212651 0.00354853
v -0.03338366 -0.02058356 0.00805475
v -0.03215635 -0.02266031 0.00344740
v -0.03216681 -0.02266031 0.00354853
v -0.03102126 -0.02407403 0.00354853
v -0.03140152 -0.02370093 0.00354853
v -0.03134638 -0.02374925 0.00344740
v -0.03183788 -0.02332559 0.00611349
v -0.03183027 -0.02331772 0.00525850
v -0.03158595 -0.02360878 0.00839006
v -0.03183693 -0.02332671 0.00696847
v -0.03338366 -0.02058356 0.00839006
v -0.03249669 -0.02223440 0.00737492
v -0.03265355 -0.02195120 0.00839006
v -0.03211642 -0.02272549 0.00344740
v -0.03178179 -0.02326603 0.00344740
v -0.03178749 -0.02327277 0.00354853
v -0.03181792 -0.02330536 0.00440352
v -0.03230465 -0.02257602 0.00704105
v -0.03139677 -0.02369419 0.00344740
v -0.03225902 -0.02266480 0.00839006
v -0.03225807 -0.02266480 0.00782346
v -0.03183122 -0.02332559 0.00839006
v -0.03249764 -0.02223664 0.00782346
v -0.03249859 -0.02223777 0.00839006
v -0.03233983 -0.02252096 0.00839006
f 1 2 3
f 1 3 4
f 1 4 7
f 1 7 12
f 1 12 19
f 1 19 28
f 1 28 29
f 1 29 41
f 1 41 43
f 1 43 54
f 1 54 55
f 1 55 50
f 1 50 52
f 1 52 39
f 1 39 26
f 1 26 18
f 1 18 11
f 1 11 5
f 1 5 10
f 1 10 17
f 1 17 14
f 1 14 8
f 1 8 6
f 1 6 2
f 2 6 3
f 3 7 4
f 3 6 8
f 3 8 9
f 3 9 7
f 5 11 10
f 7 9 12
f 8 13 9
f 8 14 13
f 9 13 15
f 9 15 12
f 10 11 16
f 10 16 24
f 10 24 36
f 10 36 49
f 10 49 45
f 10 45 44
f 10 44 32
f 10 32 23
f 10 23 22
f 10 22 17
f 11 18 25
f 11 25 34
f 11 34 24
f 11 24 16
f 12 15 19
f 13 20 21
f 13 21 15
f 13 14 22
f 13 22 23
f 13 23 20
f 14 17 22
f 15 21 28
f 15 28 19
f 18 26 27
f 18 27 25
f 20 29 28
f 20 28 21
f 20 23 30
f 20 30 31
f 20 31 41
f 20 41 29
f 23 32 33
f 23 33 30
f 24 34 35
f 24 35 36
f 25 27 37
f 25 37 38
f 25 38 35
f 25 35 34
f 26 39 40
f 26 40 37
f 26 37 27
f 30 33 31
f 31 33 42
f 31 42 43
f 31 43 41
f 32 44 33
f 33 44 45
f 33 45 46
f 33 46 47
f 33 47 48
f 33 48 42
f 35 38 47
f 35 47 46
f 35 46 49
f 35 49 36
f 37 40 50
f 37 50 51
f 37 51 48
f 37 48 38
f 38 48 47
f 39 52 40
f 40 52 50
f 42 53 43
f 42 48 53
f 43 53 54
f 45 49 46
f 48 51 53
f 50 55 51
f 51 55 54
f 51 54 53

