# https://github.com/mikedh/trimesh
v -0.03016788 -0.00000660 -0.00010120
v -0.02617770 -0.00000660 0.00048178
v -0.03016788 -0.00000660 0.00239962
v -0.03016788 0.00470451 -0.00027668
v -0.02779092 0.01752920 -0.00067365
v -0.02693686 0.01838442 -0.00065657
v -0.02608128 0.01882309 -0.00056915
v -0.01775349 0.01882309 0.00054027
v -0.01735095 0.01882309 0.00059614
v -0.02596036 -0.00000660 0.00052582
v -0.01753155 -0.00000660 0.00531449
v -0.01838561 0.00384928 0.00515938
v -0.01924119 0.00555973 0.00497338
v -0.03016788 0.01882309 0.00211700
v -0.03016788 0.01411751 -0.00054418
v -0.02864650 0.01667397 -0.00063357
v -0.02864650 0.01752920 -0.00062830
v -0.02779092 0.01838442 -0.00065657
v -0.02693686 0.01882309 -0.00066051
v -0.01670811 0.01882309 0.00076768
v -0.01753155 -0.00000660 0.00274007
v -0.02549966 -0.00000660 0.00064412
v -0.01666066 -0.00000660 0.00517121
v -0.01453471 0.00386403 0.00590733
v -0.01453471 0.00470451 0.00604009
v -0.01496633 0.00470451 0.00594348
v -0.01838561 0.00555973 0.00517121
v -0.01453471 0.01026531 0.00527637
v -0.01453471 0.01495246 0.00458430
v -0.01453471 0.01581875 0.00444299
v -0.01799225 0.01882309 0.00327835
v -0.03016788 0.01882309 -0.00019387
v -0.03016788 0.01752920 -0.00042259
v -0.03016788 0.01800657 -0.00039235
v -0.02864650 0.01838442 -0.00055272
v -0.02779092 0.01882309 -0.00061976
v -0.01583569 0.01882309 0.00108644
v -0.01453471 0.01538745 0.00194415
v -0.01715044 -0.00000660 0.00284392
v -0.01610660 -0.00000660 0.00492409
v -0.01453471 0.00342535 0.00568781
v -0.01453471 0.01642699 0.00412817
v -0.01593365 0.01882309 0.00321000
v -0.01625659 0.01882309 0.00328427
v -0.01667597 0.01882309 0.00332765
v -0.01709381 0.01882309 0.00334276
v -0.01754992 0.01882309 0.00331516
v -0.02862966 0.01882309 -0.00047320
v -0.03016788 0.01819826 -0.00037198
v -0.01534132 0.01882309 0.00137760
v -0.01453471 0.00473768 0.00341112
v -0.01682902 -0.00000660 0.00296025
v -0.01453471 0.01585745 0.00194875
v -0.01586936 -0.00000660 0.00437004
v -0.01453471 0.00341798 0.00568124
v -0.01453471 0.01682880 0.00355374
v -0.01515612 0.01882309 0.00255473
v -0.01526785 0.01882309 0.00271970
v -0.01569182 0.01882309 0.00307855
v -0.01507041 0.01882309 0.00183833
v -0.01453471 0.01632193 0.00206048
v -0.01453471 0.00426952 0.00352022
v -0.01661168 -0.00000660 0.00309235
v -0.01587548 -0.00000660 0.00416300
v -0.01453471 0.00313782 0.00440290
v -0.01453471 0.00311202 0.00493001
v -0.01453471 0.00313414 0.00525666
v -0.01453471 0.01689146 0.00267434
v -0.01504439 0.01882309 0.00214132
v -0.01453471 0.01650071 0.00211897
v -0.01453471 0.00384928 0.00367599
v -0.01615405 -0.00000660 0.00353402
v -0.01599946 -0.00000660 0.00375683
v -0.01453471 0.00337743 0.00393363
v -0.01453471 0.00322076 0.00416629
v -0.01453471 0.00361336 0.00378509
f 1 2 10
f 1 10 22
f 1 22 21
f 1 21 39
f 1 39 52
f 1 52 63
f 1 63 72
f 1 72 73
f 1 73 64
f 1 64 54
f 1 54 40
f 1 40 23
f 1 23 11
f 1 11 3
f 1 3 14
f 1 14 32
f 1 32 49
f 1 49 34
f 1 34 33
f 1 33 15
f 1 15 4
f 1 4 5
f 1 5 6
f 1 6 7
f 1 7 8
f 1 8 9
f 1 9 2
f 2 9 10
f 3 11 12
f 3 12 13
f 3 13 14
f 4 15 5
f 5 15 16
f 5 16 17
f 5 17 18
f 5 18 19
f 5 19 6
f 6 19 7
f 7 19 36
f 7 36 48
f 7 48 32
f 7 32 14
f 7 14 31
f 7 31 47
f 7 47 46
f 7 46 45
f 7 45 44
f 7 44 43
f 7 43 59
f 7 59 58
f 7 58 57
f 7 57 69
f 7 69 60
f 7 60 50
f 7 50 37
f 7 37 20
f 7 20 9
f 7 9 8
f 9 20 21
f 9 21 22
f 9 22 10
f 11 23 24
f 11 24 25
f 11 25 26
f 11 26 12
f 12 26 27
f 12 27 13
f 13 27 14
f 14 28 29
f 14 29 30
f 14 30 31
f 14 27 25
f 14 25 28
f 15 33 17
f 15 17 16
f 17 33 34
f 17 34 35
f 17 35 36
f 17 36 18
f 18 36 19
f 20 37 38
f 20 38 39
f 20 39 21
f 23 40 24
f 24 40 41
f 24 41 55
f 24 55 67
f 24 67 66
f 24 66 65
f 24 65 75
f 24 75 74
f 24 74 76
f 24 76 71
f 24 71 62
f 24 62 51
f 24 51 38
f 24 38 53
f 24 53 61
f 24 61 70
f 24 70 68
f 24 68 56
f 24 56 42
f 24 42 30
f 24 30 29
f 24 29 28
f 24 28 25
f 25 27 26
f 30 42 43
f 30 43 44
f 30 44 45
f 30 45 46
f 30 46 47
f 30 47 31
f 32 48 49
f 34 49 36
f 34 36 35
f 36 49 48
f 37 50 38
f 38 51 52
f 38 52 39
f 38 50 53
f 40 54 55
f 40 55 41
f 42 56 57
f 42 57 58
f 42 58 59
f 42 59 43
f 50 60 61
f 50 61 53
f 51 62 63
f 51 63 52
f 54 64 65
f 54 65 66
f 54 66 67
f 54 67 55
f 56 68 69
f 56 69 57
f 60 69 68
f 60 68 70
f 60 70 61
f 62 71 72
f 62 72 63
f 64 73 74
f 64 74 75
f 64 75 65
f 71 76 72
f 72 76 73
f 73 76 74

