# https://github.com/mikedh/trimesh
v -0.03849220 0.01459371 0.08421989
v -0.03849220 0.01459371 0.08439006
v -0.03797161 0.01582135 0.08393095
v -0.03833470 0.01490857 0.08393866
v -0.03842367 0.01459371 0.08373558
v -0.03848859 0.01459371 0.08441422
v -0.03770229 0.01641590 0.08454481
v -0.03770830 0.01643098 0.08393095
v -0.03765901 0.01632379 0.08345846
v -0.03776601 0.01582135 0.08334021
v -0.03793674 0.01496552 0.08319472
v -0.03798603 0.01459371 0.08313199
v -0.03827578 0.01459371 0.08484712
v -0.03782252 0.01582470 0.08481216
v -0.03719974 0.01753133 0.08393095
v -0.03751113 0.01685805 0.08393095
v -0.03755681 0.01611276 0.08511447
v -0.03672844 0.01787969 0.08515971
v -0.03686911 0.01817111 0.08458954
v -0.03668396 0.01863670 0.08393095
v -0.03688594 0.01820963 0.08393095
v -0.03682582 0.01808067 0.08343276
v -0.03222828 0.02266128 0.08042666
v -0.03730794 0.01459371 0.08257931
v -0.03804014 0.01459371 0.08519775
v -0.03768065 0.01554333 0.08526150
v -0.03684987 0.01731025 0.08527641
v -0.03600707 0.01900349 0.08528156
v -0.03585558 0.01957292 0.08513400
v -0.03660821 0.01842735 0.08483941
v -0.03617419 0.01926978 0.08482399
v -0.03600466 0.01982917 0.08456435
v -0.03635693 0.01924131 0.08393095
v -0.03596018 0.01975046 0.08344715
v -0.03189284 0.02327761 0.08042666
v -0.03224511 0.02258256 0.08042666
v -0.03609604 0.01459371 0.08162612
v -0.03633770 0.01459371 0.08179424
v -0.03785498 0.01459371 0.08535354
v -0.03778164 0.01496552 0.08532577
v -0.03724182 0.01582470 0.08540083
v -0.03699174 0.01667550 0.08534994
v -0.03616577 0.01838716 0.08535713
v -0.03527608 0.02009714 0.08533965
v -0.03512218 0.02064816 0.08526356
v -0.03495867 0.02121759 0.08506202
v -0.03511617 0.02146881 0.08449186
v -0.03601669 0.01985095 0.08393095
v -0.03507169 0.02139847 0.08348777
v -0.03185557 0.02334460 0.08042666
v -0.03239780 0.02175018 0.08042666
v -0.03546363 0.01459371 0.08136545
v -0.03752435 0.01459371 0.08548001
v -0.03719853 0.01496552 0.08554942
v -0.03634251 0.01667550 0.08557718
v -0.03640262 0.01756985 0.08541420
v -0.03548768 0.01838716 0.08558489
v -0.03553818 0.01926978 0.08541369
v -0.03465690 0.02094125 0.08539210
v -0.03435152 0.02180712 0.08529904
v -0.03421686 0.02225263 0.08522346
v -0.03483003 0.02188752 0.08393095
v -0.03511136 0.02146044 0.08393095
v -0.03539991 0.02095130 0.08393095
v -0.03577743 0.02027802 0.08393095
v -0.03433108 0.02242346 0.08478594
v -0.03341013 0.02402625 0.08449546
v -0.03440321 0.02253399 0.08393095
v -0.03336444 0.02396261 0.08348520
v -0.03257574 0.02490218 0.08341630
v -0.03178223 0.02583505 0.08336386
v -0.03098752 0.02673945 0.08332222
v -0.02906626 0.02906576 0.08354381
v -0.02673984 0.03098677 0.08332222
v -0.03136624 0.02377168 0.08042666
v -0.03233889 0.02157098 0.08042666
v -0.03460400 0.01459371 0.08150890
v -0.03209963 0.02098479 0.08042666
v -0.03133137 0.02073525 0.08042666
v -0.03120633 0.02070342 0.08042666
v -0.03051742 0.02106016 0.08042666
v -0.03044649 0.02109868 0.08042666
v -0.03719853 0.01459371 0.08558078
v -0.03634251 0.01582135 0.08564556
v -0.03463285 0.01924131 0.08564607
v -0.03377803 0.02095130 0.08563014
v -0.03463285 0.02009714 0.08556330
v -0.03548768 0.01753133 0.08565173
v -0.03377803 0.02180712 0.08550880
v -0.03374436 0.02258759 0.08533400
v -0.03343658 0.02323072 0.08527590
v -0.03247114 0.02476987 0.08518696
v -0.03324661 0.02380015 0.08506562
v -0.03265509 0.02500267 0.08393095
v -0.03308190 0.02444830 0.08393095
v -0.03340532 0.02402123 0.08393095
v -0.03374677 0.02351544 0.08393095
v -0.03411827 0.02296107 0.08393095
v -0.03262623 0.02496582 0.08461731
v -0.03078674 0.02736415 0.08436024
v -0.03189164 0.02597239 0.08393095
v -0.03155379 0.02640114 0.08393095
v -0.03073504 0.02730889 0.08378442
v -0.02990065 0.02818649 0.08365743
v -0.02950991 0.02865376 0.08388570
v -0.02911916 0.02911768 0.08411397
v -0.02824390 0.02995174 0.08422760
v -0.02818859 0.02989982 0.08365743
v -0.02730972 0.03073388 0.08378442
v -0.02640199 0.03155286 0.08393095
v -0.02621083 0.03170192 0.08393095
v -0.02621083 0.03120450 0.08317312
v -0.03093822 0.02402625 0.08042666
v -0.03413390 0.01459371 0.08173820
v -0.03001968 0.02148054 0.08042666
v -0.03671401 0.01459371 0.08564967
v -0.03634251 0.01496552 0.08567126
v -0.03377803 0.02009714 0.08567126
v -0.03292200 0.02180712 0.08565739
v -0.03206837 0.02351544 0.08562756
v -0.03292200 0.02266128 0.08558232
v -0.03548768 0.01667550 0.08567435
v -0.03463285 0.01838716 0.08567538
v -0.03294604 0.02351544 0.08539826
v -0.03267673 0.02419876 0.08531395
v -0.03167402 0.02569604 0.08523940
v -0.03146122 0.02629562 0.08478594
v -0.03180988 0.02586855 0.08478594
v -0.03098391 0.02690525 0.08470162
v -0.03060278 0.02716987 0.08492989
v -0.03027817 0.02770581 0.08466718
v -0.02995235 0.02824175 0.08440446
v -0.03078674 0.02736415 0.08435459
v -0.03105845 0.02698900 0.08401424
v -0.03034309 0.02777616 0.08400601
v -0.02995235 0.02824175 0.08422760
v -0.02911916 0.02911768 0.08444713
v -0.02824390 0.02995174 0.08440446
v -0.02736623 0.03078412 0.08435459
v -0.02698991 0.03105712 0.08401424
v -0.02736623 0.03078412 0.08436024
v -0.02621083 0.03164497 0.08423737
v -0.02621083 0.03053290 0.08277725
v -0.03088051 0.02404133 0.08042666
v -0.02621083 0.02943255 0.08224872
v -0.03375278 0.01459371 0.08220451
v -0.02975156 0.02186574 0.08042666
v -0.03339089 0.01459371 0.08274794
v -0.03634251 0.01459371 0.08567435
v -0.03206837 0.02266128 0.08567332
v -0.03121355 0.02437126 0.08564659
v -0.03035752 0.02608125 0.08557101
v -0.03121355 0.02522542 0.08553399
v -0.03548768 0.01582135 0.08567846
v -0.03377803 0.01924131 0.08567846
v -0.03292200 0.02095130 0.08567692
v -0.03463285 0.01753133 0.08567898
v -0.03213931 0.02443826 0.08543477
v -0.03186158 0.02522542 0.08532166
v -0.03117507 0.02602095 0.08533914
v -0.03086488 0.02660044 0.08526716
v -0.02976840 0.02804580 0.08497462
v -0.02944378 0.02858342 0.08471088
v -0.02892559 0.02892508 0.08501730
v -0.02858535 0.02944260 0.08471088
v -0.02717146 0.03060157 0.08492989
v -0.02690695 0.03098342 0.08470162
v -0.02629739 0.03145907 0.08478594
v -0.02621083 0.03152941 0.08478594
v -0.03035752 0.02414349 0.08042666
v -0.02621083 0.02864706 0.08191917
v -0.02972271 0.02190929 0.08042666
v -0.02621083 0.02534768 0.08279061
v -0.03321055 0.01459371 0.08319677
v -0.02621083 0.02516177 0.08303328
v -0.03585919 0.01459371 0.08567435
v -0.03121355 0.02351544 0.08567641
v -0.02950269 0.02608125 0.08566767
v -0.03035752 0.02522542 0.08565995
v -0.02950269 0.02693540 0.08558644
v -0.02949187 0.02777281 0.08537873
v -0.03033468 0.02690525 0.08536587
v -0.02621083 0.02851810 0.08567743
v -0.03035752 0.02437126 0.08567795
v -0.02950269 0.02522542 0.08567795
v -0.03003290 0.02747637 0.08527641
v -0.02835571 0.02919640 0.08528567
v -0.02747804 0.03003213 0.08527693
v -0.02660157 0.03086284 0.08526716
v -0.02804793 0.02976751 0.08497462
v -0.02919851 0.02835397 0.08528567
v -0.02621083 0.03149089 0.08485123
v -0.03028538 0.02414516 0.08042666
v -0.02621083 0.02790009 0.08172894
v -0.02972271 0.02407315 0.08042666
v -0.02968544 0.02198298 0.08042666
v -0.02621083 0.02605612 0.08212996
v -0.02621083 0.02578146 0.08232430
v -0.02632625 0.02545487 0.08246928
v -0.03307469 0.01459371 0.08393095
v -0.02621083 0.02507636 0.08318803
v -0.03548768 0.01459371 0.08566458
v -0.02779304 0.02779123 0.08567281
v -0.02864787 0.02693540 0.08567075
v -0.02864787 0.02779123 0.08559826
v -0.02864426 0.02864204 0.08538592
v -0.02621083 0.02779123 0.08565430
v -0.02621083 0.02864706 0.08567641
v -0.02777500 0.02948949 0.08537924
v -0.02690695 0.03033192 0.08536587
v -0.02621083 0.03099347 0.08534479
v -0.02621083 0.03107219 0.08531549
v -0.02621083 0.02777113 0.08170066
v -0.02943416 0.02358243 0.08042666
v -0.02939569 0.02266798 0.08042666
v -0.02621083 0.02681984 0.08173665
v -0.03311917 0.01459371 0.08429135
v -0.02621083 0.02489213 0.08393095
v -0.02621083 0.02492563 0.08421372
v -0.03500436 0.01459371 0.08562808
v -0.02621083 0.02766227 0.08564967
v -0.02693701 0.02864706 0.08567075
v -0.02779304 0.02864706 0.08559826
v -0.02621083 0.02937225 0.08566818
v -0.02693701 0.02950122 0.08558644
v -0.02621083 0.03022808 0.08557358
v -0.02621083 0.03035369 0.08553913
v -0.02621083 0.02695048 0.08172380
v -0.02941252 0.02351544 0.08042666
v -0.03321536 0.01459371 0.08463838
v -0.02621083 0.02512995 0.08468157
v -0.03463285 0.01459371 0.08557564
v -0.02621083 0.02680644 0.08555816
v -0.02621083 0.02950122 0.08565533
v -0.03346904 0.01459371 0.08504506
v -0.02621083 0.02522877 0.08479776
v -0.03414593 0.01459371 0.08544351
v -0.02621083 0.02598578 0.08535970
v -0.03386820 0.01459371 0.08534942
v -0.03356161 0.01459371 0.08514788
v -0.02621083 0.02562737 0.08519056
v -0.02621083 0.02588697 0.08532680
f 1 2 3
f 1 3 4
f 1 4 5
f 1 5 12
f 1 12 24
f 1 24 38
f 1 38 37
f 1 37 52
f 1 52 77
f 1 77 114
f 1 114 146
f 1 146 148
f 1 148 174
f 1 174 200
f 1 200 217
f 1 217 230
f 1 230 235
f 1 235 240
f 1 240 239
f 1 239 237
f 1 237 232
f 1 232 220
f 1 220 202
f 1 202 176
f 1 176 149
f 1 149 116
f 1 116 83
f 1 83 53
f 1 53 39
f 1 39 25
f 1 25 13
f 1 13 6
f 1 6 2
f 2 6 7
f 2 7 3
f 3 5 4
f 3 7 8
f 3 8 9
f 3 9 5
f 5 9 10
f 5 10 11
f 5 11 12
f 6 13 14
f 6 14 7
f 7 15 16
f 7 16 8
f 7 14 17
f 7 17 18
f 7 18 19
f 7 19 20
f 7 20 21
f 7 21 15
f 8 16 9
f 9 16 15
f 9 15 21
f 9 21 22
f 9 22 23
f 9 23 10
f 10 23 11
f 11 23 12
f 12 23 24
f 13 25 26
f 13 26 17
f 13 17 14
f 17 26 18
f 18 26 27
f 18 27 28
f 18 28 29
f 18 29 30
f 18 30 19
f 19 30 31
f 19 31 32
f 19 32 20
f 20 32 33
f 20 33 34
f 20 34 22
f 20 22 21
f 22 34 23
f 23 35 50
f 23 50 75
f 23 75 113
f 23 113 144
f 23 144 170
f 23 170 193
f 23 193 195
f 23 195 214
f 23 214 229
f 23 229 215
f 23 215 196
f 23 196 172
f 23 172 147
f 23 147 115
f 23 115 82
f 23 82 81
f 23 81 80
f 23 80 79
f 23 79 78
f 23 78 76
f 23 76 51
f 23 51 36
f 23 36 37
f 23 37 38
f 23 38 24
f 23 34 35
f 25 39 40
f 25 40 26
f 26 40 41
f 26 41 42
f 26 42 27
f 27 42 43
f 27 43 28
f 28 43 44
f 28 44 45
f 28 45 29
f 29 32 31
f 29 31 30
f 29 45 46
f 29 46 47
f 29 47 32
f 32 47 33
f 33 47 48
f 33 48 49
f 33 49 34
f 34 49 35
f 35 49 50
f 36 51 37
f 37 51 52
f 39 53 54
f 39 54 40
f 40 54 41
f 41 55 56
f 41 56 42
f 41 54 55
f 42 56 43
f 43 57 58
f 43 58 44
f 43 56 57
f 44 58 59
f 44 59 45
f 45 59 60
f 45 60 61
f 45 61 46
f 46 61 47
f 47 62 63
f 47 63 64
f 47 64 65
f 47 65 48
f 47 61 66
f 47 66 67
f 47 67 68
f 47 68 62
f 48 65 49
f 49 65 64
f 49 64 63
f 49 63 62
f 49 62 68
f 49 68 69
f 49 69 50
f 50 69 70
f 50 70 71
f 50 71 72
f 50 72 73
f 50 73 74
f 50 74 75
f 51 76 52
f 52 76 78
f 52 78 79
f 52 79 80
f 52 80 81
f 52 81 82
f 52 82 77
f 53 83 54
f 54 83 55
f 55 83 84
f 55 84 57
f 55 57 56
f 57 85 86
f 57 86 87
f 57 87 58
f 57 84 88
f 57 88 85
f 58 87 59
f 59 89 60
f 59 87 89
f 60 89 90
f 60 90 61
f 61 90 91
f 61 91 92
f 61 92 93
f 61 93 67
f 61 67 66
f 67 94 95
f 67 95 96
f 67 96 97
f 67 97 98
f 67 98 68
f 67 93 92
f 67 92 99
f 67 99 100
f 67 100 94
f 68 98 69
f 69 98 97
f 69 97 96
f 69 96 95
f 69 95 94
f 69 94 101
f 69 101 102
f 69 102 70
f 70 102 71
f 71 102 103
f 71 103 72
f 72 103 104
f 72 104 73
f 73 104 105
f 73 105 106
f 73 106 107
f 73 107 108
f 73 108 74
f 74 108 109
f 74 109 110
f 74 110 111
f 74 111 112
f 74 112 75
f 75 112 113
f 77 82 115
f 77 115 114
f 83 116 84
f 84 116 117
f 84 117 88
f 85 118 119
f 85 119 86
f 85 88 118
f 86 119 120
f 86 120 121
f 86 121 87
f 87 121 89
f 88 117 122
f 88 122 123
f 88 123 118
f 89 121 124
f 89 124 90
f 90 124 125
f 90 125 91
f 91 125 92
f 92 125 126
f 92 126 127
f 92 127 128
f 92 128 99
f 94 100 101
f 99 128 127
f 99 127 100
f 100 127 129
f 100 129 130
f 100 130 131
f 100 131 132
f 100 132 136
f 100 136 133
f 100 133 102
f 100 102 101
f 102 133 134
f 102 134 103
f 103 134 133
f 103 133 135
f 103 135 104
f 104 135 105
f 105 135 133
f 105 133 136
f 105 136 106
f 106 136 132
f 106 132 137
f 106 137 138
f 106 138 107
f 107 138 141
f 107 141 139
f 107 139 109
f 107 109 108
f 109 139 140
f 109 140 110
f 110 140 139
f 110 139 141
f 110 141 111
f 111 141 142
f 111 142 169
f 111 169 192
f 111 192 212
f 111 212 211
f 111 211 227
f 111 227 226
f 111 226 234
f 111 234 224
f 111 224 208
f 111 208 183
f 111 183 207
f 111 207 221
f 111 221 233
f 111 233 238
f 111 238 242
f 111 242 241
f 111 241 236
f 111 236 231
f 111 231 219
f 111 219 218
f 111 218 201
f 111 201 175
f 111 175 173
f 111 173 198
f 111 198 197
f 111 197 216
f 111 216 228
f 111 228 213
f 111 213 194
f 111 194 171
f 111 171 145
f 111 145 143
f 111 143 112
f 112 143 113
f 113 143 145
f 113 145 144
f 114 115 146
f 115 147 148
f 115 148 146
f 116 149 117
f 117 149 122
f 118 123 150
f 118 150 119
f 119 150 151
f 119 151 120
f 120 151 152
f 120 152 153
f 120 153 121
f 121 153 124
f 122 149 154
f 122 154 123
f 123 155 156
f 123 156 150
f 123 154 157
f 123 157 155
f 124 153 158
f 124 158 125
f 125 158 159
f 125 159 126
f 126 160 161
f 126 161 130
f 126 130 127
f 126 159 160
f 127 130 129
f 130 161 162
f 130 162 163
f 130 163 131
f 131 163 132
f 132 163 137
f 137 164 165
f 137 165 138
f 137 163 164
f 138 166 141
f 138 165 166
f 141 166 167
f 141 167 168
f 141 168 169
f 141 169 142
f 144 145 171
f 144 171 170
f 147 172 173
f 147 173 148
f 148 173 175
f 148 175 174
f 149 176 154
f 150 177 204
f 150 204 178
f 150 178 179
f 150 179 151
f 150 156 177
f 151 179 180
f 151 180 152
f 152 180 181
f 152 181 182
f 152 182 153
f 153 159 158
f 153 182 160
f 153 160 159
f 154 176 183
f 154 183 157
f 155 157 184
f 155 184 156
f 156 184 177
f 157 183 185
f 157 185 184
f 160 182 161
f 161 182 186
f 161 186 164
f 161 164 162
f 162 164 163
f 164 187 188
f 164 188 189
f 164 189 190
f 164 190 165
f 164 186 191
f 164 191 187
f 165 190 166
f 166 189 192
f 166 192 168
f 166 168 167
f 166 190 189
f 168 192 169
f 170 171 193
f 171 194 195
f 171 195 193
f 172 196 197
f 172 197 198
f 172 198 199
f 172 199 173
f 173 199 198
f 174 175 201
f 174 201 200
f 176 202 183
f 177 184 203
f 177 203 204
f 178 204 205
f 178 205 179
f 179 205 180
f 180 205 206
f 180 206 181
f 181 206 191
f 181 191 182
f 182 191 186
f 183 208 203
f 183 203 185
f 183 202 207
f 184 185 203
f 187 191 206
f 187 206 209
f 187 209 210
f 187 210 188
f 188 210 189
f 189 210 211
f 189 211 212
f 189 212 192
f 194 213 195
f 195 213 214
f 196 215 216
f 196 216 197
f 200 201 218
f 200 218 219
f 200 219 217
f 202 220 221
f 202 221 207
f 203 208 222
f 203 222 223
f 203 223 205
f 203 205 204
f 205 223 206
f 206 223 209
f 208 224 222
f 209 223 225
f 209 225 226
f 209 226 227
f 209 227 210
f 210 227 211
f 213 228 215
f 213 215 229
f 213 229 214
f 215 228 216
f 217 219 230
f 219 231 230
f 220 232 221
f 221 232 233
f 222 224 223
f 223 224 234
f 223 234 225
f 225 234 226
f 230 231 236
f 230 236 235
f 232 237 233
f 233 237 239
f 233 239 238
f 235 236 241
f 235 241 240
f 238 239 242
f 239 240 242
f 240 241 242

