# https://github.com/mikedh/trimesh
v 0.03088554 -0.02419328 0.00338998
v 0.03010905 -0.02498216 0.00269255
v 0.03053659 -0.02453721 0.00269255
v 0.03085725 -0.02419328 0.00269255
v 0.03081638 -0.02419328 0.00396118
v 0.02510428 -0.02999068 0.00269255
v 0.02750502 -0.02750544 0.00209410
v 0.02835801 -0.02664959 0.00209138
v 0.02920681 -0.02579204 0.00205505
v 0.03003779 -0.02491803 0.00205596
v 0.03064033 -0.02419328 0.00197786
v 0.02802478 -0.02419328 0.00396118
v 0.02475219 -0.02999068 0.00396118
v 0.02496806 -0.02999068 0.00342948
v 0.02501521 -0.02999068 0.00326738
v 0.02495443 -0.02999068 0.00202599
v 0.02579170 -0.02920805 0.00206186
v 0.02664889 -0.02835901 0.00209183
v 0.02988375 -0.02474096 0.00148612
v 0.02474485 -0.02988399 0.00148431
v 0.03046953 -0.02419328 0.00171860
v 0.02018125 -0.02419328 0.00131494
v 0.02127107 -0.02999068 0.00396118
v 0.02486536 -0.02999068 0.00187388
v 0.02822807 -0.02566377 0.00054804
v 0.03006189 -0.02419328 0.00124592
v 0.03014153 -0.02419328 0.00133038
v 0.02567434 -0.02824096 0.00053805
v 0.02466731 -0.02999068 0.00155287
v 0.02423662 -0.02999068 0.00118871
v 0.02018125 -0.02419328 0.00054759
v 0.02018125 -0.02514731 0.00168363
v 0.02018125 -0.02597933 0.00197378
v 0.02018125 -0.02608205 0.00200601
v 0.02018125 -0.02999068 0.00260128
v 0.02685951 -0.02685277 0.00041046
v 0.02770726 -0.02600203 0.00043362
v 0.02693601 -0.02608205 0.00004132
v 0.02779110 -0.02522677 0.00010534
v 0.02837897 -0.02522677 0.00043816
v 0.02899199 -0.02466207 0.00062205
v 0.02926968 -0.02419328 0.00062841
v 0.02470818 -0.02900998 0.00061025
v 0.02522689 -0.02840101 0.00041954
v 0.02522689 -0.02779204 0.00006856
v 0.02600862 -0.02771486 0.00041273
v 0.02358064 -0.02999068 0.00082774
v 0.02413812 -0.02918818 0.00044769
v 0.02018125 -0.02437830 0.00031511
v 0.02186523 -0.02419328 -0.00029378
v 0.02018125 -0.02999068 -0.00020842
v 0.02608092 -0.02693733 0.00002043
v 0.02608092 -0.02608205 -0.00022385
v 0.02687628 -0.02518023 -0.00021159
v 0.02779110 -0.02437149 -0.00010580
v 0.02867552 -0.02419328 0.00022021
v 0.02868286 -0.02437489 0.00028106
v 0.02898570 -0.02419328 0.00041001
v 0.02440219 -0.02869386 0.00024882
v 0.02266163 -0.02950203 0.00007946
v 0.02434979 -0.02774494 -0.00018571
v 0.02344965 -0.02999068 0.00075918
v 0.02266163 -0.02999068 0.00035461
v 0.02018125 -0.02445435 0.00026880
v 0.02200774 -0.02419328 -0.00036461
v 0.02069053 -0.02999068 -0.00013123
v 0.02018125 -0.02872507 -0.00049084
v 0.02405010 -0.02742882 -0.00031376
v 0.02655038 -0.02486411 -0.00030604
v 0.02704813 -0.02437149 -0.00024565
v 0.02779110 -0.02419328 -0.00011216
v 0.02181912 -0.02999068 0.00008627
v 0.02095146 -0.02999068 -0.00008173
v 0.02018125 -0.02553892 -0.00035281
v 0.02266372 -0.02419328 -0.00053216
v 0.02018125 -0.02779204 -0.00067065
v 0.02095146 -0.02779204 -0.00059572
v 0.02180654 -0.02693733 -0.00060481
v 0.02662059 -0.02437149 -0.00032147
v 0.02095146 -0.02693733 -0.00067746
v 0.02696850 -0.02419328 -0.00026654
v 0.02018125 -0.02608205 -0.00051490
v 0.02354082 -0.02419328 -0.00049356
v 0.02266163 -0.02437149 -0.00056167
v 0.02018125 -0.02693733 -0.00066701
v 0.02663002 -0.02419328 -0.00032647
v 0.02650847 -0.02419328 -0.00033510
f 1 2 3
f 1 3 4
f 1 4 11
f 1 11 21
f 1 21 27
f 1 27 26
f 1 26 42
f 1 42 58
f 1 58 56
f 1 56 71
f 1 71 81
f 1 81 86
f 1 86 87
f 1 87 83
f 1 83 75
f 1 75 65
f 1 65 50
f 1 50 31
f 1 31 22
f 1 22 12
f 1 12 5
f 1 5 6
f 1 6 2
f 2 7 8
f 2 8 9
f 2 9 3
f 2 6 7
f 3 9 10
f 3 10 4
f 4 10 11
f 5 12 23
f 5 23 13
f 5 13 14
f 5 14 15
f 5 15 6
f 6 15 14
f 6 14 13
f 6 13 23
f 6 23 35
f 6 35 51
f 6 51 66
f 6 66 73
f 6 73 72
f 6 72 63
f 6 63 62
f 6 62 47
f 6 47 30
f 6 30 29
f 6 29 24
f 6 24 16
f 6 16 17
f 6 17 18
f 6 18 7
f 7 9 8
f 7 18 17
f 7 17 9
f 9 19 10
f 9 17 20
f 9 20 19
f 10 19 11
f 11 19 21
f 12 22 23
f 16 24 17
f 17 24 20
f 19 25 26
f 19 26 27
f 19 27 21
f 19 20 28
f 19 28 25
f 20 24 29
f 20 29 30
f 20 30 28
f 22 31 49
f 22 49 64
f 22 64 74
f 22 74 82
f 22 82 85
f 22 85 76
f 22 76 67
f 22 67 51
f 22 51 35
f 22 35 34
f 22 34 33
f 22 33 32
f 22 32 23
f 23 32 33
f 23 33 34
f 23 34 35
f 25 36 37
f 25 37 38
f 25 38 39
f 25 39 40
f 25 40 41
f 25 41 26
f 25 28 36
f 26 41 42
f 28 30 43
f 28 43 44
f 28 44 45
f 28 45 46
f 28 46 36
f 30 47 48
f 30 48 43
f 31 50 49
f 36 38 37
f 36 46 52
f 36 52 38
f 38 52 53
f 38 53 54
f 38 54 39
f 39 55 56
f 39 56 57
f 39 57 40
f 39 54 55
f 40 57 58
f 40 58 41
f 41 58 42
f 43 48 44
f 44 48 59
f 44 59 45
f 45 52 46
f 45 59 60
f 45 60 61
f 45 61 52
f 47 62 48
f 48 62 63
f 48 63 59
f 49 50 65
f 49 65 64
f 51 67 68
f 51 68 61
f 51 61 66
f 52 61 53
f 53 69 54
f 53 61 68
f 53 68 69
f 54 69 55
f 55 69 70
f 55 70 71
f 55 71 56
f 56 58 57
f 59 63 60
f 60 63 72
f 60 72 73
f 60 73 66
f 60 66 61
f 64 65 74
f 65 75 74
f 67 76 77
f 67 77 68
f 68 77 78
f 68 78 69
f 69 79 70
f 69 78 80
f 69 80 79
f 70 81 71
f 70 79 81
f 74 75 82
f 75 83 84
f 75 84 85
f 75 85 82
f 76 85 80
f 76 80 78
f 76 78 77
f 79 86 81
f 79 80 86
f 80 85 84
f 80 84 87
f 80 87 86
f 83 87 84

