# https://github.com/mikedh/trimesh
v -0.01453318 0.00311202 0.00492983
v -0.01453318 0.00313414 0.00525711
v -0.01453318 0.00313782 0.00440379
v -0.01374631 -0.00000660 0.00526282
v -0.01453318 0.00341798 0.00568148
v -0.01371464 -0.00000660 0.00567920
v -0.01453318 0.00322076 0.00416675
v -0.01373047 -0.00000660 0.00478647
v -0.01453318 0.00342535 0.00568777
v -0.01370047 -0.00000660 0.00570262
v -0.01453318 0.00386403 0.00590710
v -0.01453318 0.00337743 0.00393429
v -0.01326118 -0.00000660 0.00443920
v -0.01453318 0.00361336 0.00378578
v -0.01453318 0.00384928 0.00367669
v -0.01354042 -0.00000660 0.00590081
v -0.01453318 0.00470451 0.00603961
v -0.01295611 -0.00000660 0.00637545
v -0.01278023 -0.00000660 0.00651482
v -0.01242097 -0.00000660 0.00418103
v -0.01453318 0.00426952 0.00352076
v -0.01270021 -0.00000660 0.00655423
v -0.01202586 -0.00000660 0.00675014
v -0.01278189 0.00384928 0.00652795
v -0.01235428 0.00384928 0.00663248
v -0.01154407 0.00384928 0.00682782
v -0.01068885 0.00384928 0.00702830
v -0.01224509 0.00446858 0.00659535
v -0.01239929 0.01239785 0.00548443
v -0.01453318 0.01026531 0.00527653
v -0.01154407 -0.00000660 0.00421815
v -0.01453318 0.00473768 0.00341167
v -0.00862415 -0.00000660 0.00741269
v -0.01154407 0.00042838 0.00687408
v -0.01068885 0.00213883 0.00709626
v -0.01068885 0.00299406 0.00708827
v -0.00975944 0.00296825 0.00731331
v -0.00983446 0.00384928 0.00722021
v -0.00934434 0.00323551 0.00738813
v -0.01040544 0.01384657 0.00571747
v -0.01154407 0.01410830 0.00542903
v -0.01356126 0.01520866 0.00481103
v -0.01404555 0.01493956 0.00472764
v -0.01453318 0.01495246 0.00458542
v -0.00776643 -0.00000660 0.00482702
v -0.01453318 0.01538745 0.00194377
v -0.00983446 0.01882309 0.00190150
v -0.00601847 0.01667397 0.00276054
v -0.00850578 -0.00000660 0.00742469
v -0.00869167 0.00042838 0.00742583
v -0.01068885 0.00128361 0.00708941
v -0.00942519 0.00250009 0.00740013
v -0.00942519 0.00266597 0.00740013
v -0.00812402 0.00299406 0.00753835
v -0.00877419 0.00358202 0.00742297
v -0.00902675 0.00386034 0.00735101
v -0.00902675 0.00296825 0.00744182
v -0.00983446 0.01325307 0.00588082
v -0.00983446 0.01401429 0.00575802
v -0.00983446 0.01444191 0.00566663
v -0.01068885 0.01496352 0.00541989
v -0.01068968 0.01412304 0.00560609
v -0.01154407 0.01496352 0.00525539
v -0.01299112 0.01545564 0.00485786
v -0.01044462 0.01729880 0.00487842
v -0.01453318 0.01581875 0.00444377
v -0.00772308 -0.00000660 0.00483444
v -0.01453318 0.01585745 0.00194891
v -0.01027208 0.01882309 0.00192663
v -0.00954439 0.01882309 0.00198261
v -0.00601847 0.01750892 0.00292332
v -0.00601847 0.01581137 0.00289476
v -0.00813235 -0.00000660 0.00745896
v -0.00812402 0.00042838 0.00748237
v -0.00726880 0.00213883 0.00764230
v -0.00812402 0.00213883 0.00755434
v -0.00726880 0.00299406 0.00759547
v -0.00726880 0.00384928 0.00751322
v -0.00720545 0.00467870 0.00743497
v -0.00812402 0.00386034 0.00744982
v -0.00641358 0.00213883 0.00771370
v -0.00783895 0.00437642 0.00741669
v -0.00897924 0.01325307 0.00595850
v -0.00687786 0.00515239 0.00740184
v -0.00641358 0.01239785 0.00631205
v -0.00601847 0.01236651 0.00634689
v -0.00903509 0.01418939 0.00577573
v -0.00935684 0.01452854 0.00568377
v -0.00983446 0.01737437 0.00490470
v -0.00983446 0.01882309 0.00451459
v -0.01068885 0.01882309 0.00437237
v -0.00983446 0.01667397 0.00508976
v -0.01453318 0.01642699 0.00412848
v -0.00601847 0.00128361 0.00520799
v -0.00751720 -0.00000660 0.00490641
v -0.01453318 0.01632193 0.00206086
v -0.01068885 0.01882309 0.00195119
v -0.00917679 0.01882309 0.00211740
v -0.00601847 0.01794206 0.00315578
v -0.00732465 -0.00000660 0.00745439
v -0.00601847 0.00128361 0.00769199
v -0.00601847 0.00213883 0.00773654
v -0.00641358 0.00527773 0.00742012
v -0.00601847 0.00571271 0.00738927
v -0.00601847 0.01667397 0.00530109
v -0.00726880 0.01581875 0.00547015
v -0.00601847 0.01787202 0.00468251
v -0.00601847 0.01806371 0.00442435
v -0.00899758 0.01882309 0.00424843
v -0.00641358 0.01667397 0.00528338
v -0.00601847 0.01710343 0.00516915
v -0.00601847 0.01745547 0.00501208
v -0.00601847 0.01775038 0.00481731
v -0.01123316 0.01882309 0.00408507
v -0.01453318 0.01682880 0.00355446
v -0.00601847 0.00045234 0.00545873
v -0.00730297 -0.00000660 0.00498180
v -0.01453318 0.01650071 0.00211912
v -0.01123649 0.01882309 0.00216710
v -0.00896840 0.01882309 0.00227962
v -0.00601847 0.01818352 0.00362300
v -0.00696289 -0.00000660 0.00739156
v -0.00601847 0.00062744 0.00749608
v -0.00601847 0.00091682 0.00759946
v -0.00601847 0.00541965 0.00742469
v -0.00601847 0.01815403 0.00425185
v -0.00858080 0.01882309 0.00391144
v -0.01154241 0.01882309 0.00354818
v -0.01453318 0.01689146 0.00267429
v -0.00601847 0.00004316 0.00572147
v -0.00642691 -0.00000660 0.00541475
v -0.01154657 0.01882309 0.00269314
v -0.00874918 0.01882309 0.00248809
v -0.00601847 0.01818352 0.00395085
v -0.00854580 0.01882309 0.00269714
v -0.00843493 0.01882309 0.00291590
v -0.00837658 0.01882309 0.00327459
v -0.00691621 -0.00000660 0.00738242
v -0.00601847 0.00039889 0.00739898
v -0.00837658 0.01882309 0.00349506
v -0.00601847 0.00003026 0.00573118
v -0.00602514 -0.00000660 0.00575459
v -0.00659196 -0.00000660 0.00730931
v -0.00601847 -0.00000660 0.00710312
v -0.00601847 -0.00000660 0.00576145
f 1 2 5
f 1 5 9
f 1 9 11
f 1 11 17
f 1 17 30
f 1 30 44
f 1 44 66
f 1 66 93
f 1 93 115
f 1 115 129
f 1 129 118
f 1 118 96
f 1 96 68
f 1 68 46
f 1 46 32
f 1 32 21
f 1 21 15
f 1 15 14
f 1 14 12
f 1 12 7
f 1 7 3
f 1 3 4
f 1 4 2
f 2 4 6
f 2 6 5
f 3 7 8
f 3 8 4
f 4 8 13
f 4 13 20
f 4 20 31
f 4 31 45
f 4 45 67
f 4 67 95
f 4 95 117
f 4 117 131
f 4 131 142
f 4 142 145
f 4 145 144
f 4 144 143
f 4 143 138
f 4 138 122
f 4 122 100
f 4 100 73
f 4 73 49
f 4 49 33
f 4 33 23
f 4 23 22
f 4 22 19
f 4 19 18
f 4 18 16
f 4 16 10
f 4 10 6
f 5 6 9
f 6 10 11
f 6 11 9
f 7 12 8
f 8 12 14
f 8 14 15
f 8 15 13
f 10 16 11
f 11 16 18
f 11 18 19
f 11 19 17
f 13 15 21
f 13 21 20
f 17 19 22
f 17 22 23
f 17 23 24
f 17 24 25
f 17 25 26
f 17 26 27
f 17 27 28
f 17 28 29
f 17 29 30
f 20 21 32
f 20 32 31
f 23 33 34
f 23 34 35
f 23 35 24
f 24 35 36
f 24 36 25
f 25 36 26
f 26 36 37
f 26 37 27
f 27 38 28
f 27 37 39
f 27 39 38
f 28 38 29
f 29 40 41
f 29 41 42
f 29 42 30
f 29 38 40
f 30 42 43
f 30 43 44
f 31 32 46
f 31 46 47
f 31 47 48
f 31 48 45
f 33 49 50
f 33 50 34
f 34 50 51
f 34 51 35
f 35 52 53
f 35 53 36
f 35 51 52
f 36 53 37
f 37 53 39
f 38 39 40
f 39 54 55
f 39 55 56
f 39 56 40
f 39 53 57
f 39 57 54
f 40 58 59
f 40 59 60
f 40 60 61
f 40 61 62
f 40 62 42
f 40 42 41
f 40 56 58
f 42 63 61
f 42 61 64
f 42 64 65
f 42 65 66
f 42 66 43
f 42 62 63
f 43 66 44
f 45 48 67
f 46 68 47
f 47 68 69
f 47 69 97
f 47 97 119
f 47 119 132
f 47 132 128
f 47 128 114
f 47 114 91
f 47 91 90
f 47 90 109
f 47 109 127
f 47 127 140
f 47 140 137
f 47 137 136
f 47 136 135
f 47 135 133
f 47 133 120
f 47 120 98
f 47 98 70
f 47 70 48
f 48 70 71
f 48 71 99
f 48 99 121
f 48 121 134
f 48 134 126
f 48 126 108
f 48 108 107
f 48 107 113
f 48 113 112
f 48 112 111
f 48 111 105
f 48 105 86
f 48 86 104
f 48 104 125
f 48 125 102
f 48 102 101
f 48 101 124
f 48 124 123
f 48 123 139
f 48 139 144
f 48 144 145
f 48 145 141
f 48 141 130
f 48 130 116
f 48 116 94
f 48 94 72
f 48 72 67
f 49 73 74
f 49 74 50
f 50 74 75
f 50 75 76
f 50 76 52
f 50 52 51
f 52 76 53
f 53 76 57
f 54 77 78
f 54 78 79
f 54 79 80
f 54 80 55
f 54 57 76
f 54 76 75
f 54 75 81
f 54 81 77
f 55 80 82
f 55 82 58
f 55 58 56
f 58 83 59
f 58 82 84
f 58 84 83
f 59 83 85
f 59 85 86
f 59 86 87
f 59 87 88
f 59 88 60
f 60 88 65
f 60 65 61
f 61 63 62
f 61 65 64
f 65 89 90
f 65 90 91
f 65 91 66
f 65 88 92
f 65 92 89
f 66 91 93
f 67 94 95
f 67 72 94
f 68 96 97
f 68 97 69
f 70 98 71
f 71 98 99
f 73 100 101
f 73 101 81
f 73 81 74
f 74 81 75
f 77 81 102
f 77 102 103
f 77 103 78
f 78 103 79
f 79 103 84
f 79 84 82
f 79 82 80
f 81 101 102
f 83 84 104
f 83 104 85
f 84 103 104
f 85 104 86
f 86 105 106
f 86 106 88
f 86 88 87
f 88 106 92
f 89 92 106
f 89 106 90
f 90 107 108
f 90 108 109
f 90 106 110
f 90 110 105
f 90 105 111
f 90 111 112
f 90 112 113
f 90 113 107
f 91 114 93
f 93 114 115
f 94 116 117
f 94 117 95
f 96 118 97
f 97 118 119
f 98 120 99
f 99 120 121
f 100 122 123
f 100 123 124
f 100 124 101
f 102 125 103
f 103 125 104
f 105 110 106
f 108 126 109
f 109 126 127
f 114 128 115
f 115 128 129
f 116 130 131
f 116 131 117
f 118 129 119
f 119 129 132
f 120 133 121
f 121 133 135
f 121 135 136
f 121 136 137
f 121 137 140
f 121 140 134
f 122 138 139
f 122 139 123
f 126 134 140
f 126 140 127
f 128 132 129
f 130 141 131
f 131 141 142
f 138 143 139
f 139 143 144
f 141 145 142

