# https://github.com/mikedh/trimesh
v 0.03344993 0.00005625 -0.00061841
v 0.03377816 0.00005625 -0.00059194
v 0.03344993 0.00005625 0.00205908
v 0.03344993 0.00075642 -0.00062308
v 0.03634393 0.00005625 -0.00009568
v 0.03377816 0.00213827 -0.00059661
v 0.03597314 0.00418824 -0.00030903
v 0.03629263 0.00388130 -0.00024155
v 0.03689078 0.00005625 0.00467946
v 0.03485029 0.01239921 0.00467946
v 0.03344993 0.00042852 0.00207725
v 0.03344993 0.00128278 -0.00062308
v 0.03719802 0.00005625 0.00015348
v 0.03597314 0.00450134 -0.00030903
v 0.03344993 0.00213827 -0.00062101
v 0.03344993 0.00930638 -0.00059869
v 0.03593758 0.00690509 -0.00030332
v 0.03629263 0.00475404 -0.00025660
v 0.03719802 0.00299376 0.00007458
v 0.03940059 0.00005625 0.00467946
v 0.03486195 0.01264821 0.00467946
v 0.03344993 0.01264451 0.00218003
v 0.03344993 0.00181037 0.00210009
v 0.03344993 0.00128278 0.00209386
v 0.03765859 0.00005625 0.00051789
v 0.03775362 0.00299376 0.00043898
v 0.03772505 0.00213827 0.00045923
v 0.03344993 0.01022104 -0.00054054
v 0.03582914 0.00747460 -0.00028671
v 0.03627106 0.00722066 -0.00019535
v 0.03627106 0.00644776 -0.00024310
v 0.03634393 0.00555899 -0.00024310
v 0.03719802 0.00384925 0.00006056
v 0.03939825 0.00005625 0.00442407
v 0.03940583 0.00048400 0.00467946
v 0.03727439 0.01264821 0.00467946
v 0.03345692 0.01264821 0.00218210
v 0.03344993 0.01264821 0.00103854
v 0.03859605 0.00005625 0.00131054
v 0.03775712 0.00384925 0.00043068
v 0.03860713 0.00128278 0.00128926
v 0.03344993 0.01264821 -0.00037080
v 0.03351755 0.01264821 -0.00036042
v 0.03571487 0.00812300 -0.00026283
v 0.03463341 0.01264821 -0.00004896
v 0.03634393 0.00812300 -0.00004896
v 0.03709541 0.00726751 0.00024900
v 0.03719802 0.00555899 0.00012078
v 0.03719802 0.00470350 0.00006991
v 0.03938485 0.00005625 0.00391536
v 0.03937610 0.00043839 0.00358469
v 0.03939884 0.00050865 0.00444795
v 0.03934112 0.00087476 0.00389407
v 0.03761545 0.01170274 0.00467946
v 0.03728780 0.01264821 0.00415518
v 0.03742831 0.01237332 0.00467946
v 0.03897733 0.00005625 0.00183794
v 0.03859080 0.00213827 0.00128251
v 0.03772797 0.00470350 0.00044521
v 0.03898024 0.00042852 0.00183794
v 0.03443578 0.01264821 -0.00010710
v 0.03516103 0.01264821 0.00017840
v 0.03634393 0.00897848 0.00012130
v 0.03700738 0.00812300 0.00034140
v 0.03534817 0.01264821 0.00028222
v 0.03725632 0.00635408 0.00025834
v 0.03763352 0.00602988 0.00054436
v 0.03767083 0.00555899 0.00049972
v 0.03937552 0.00005625 0.00359404
v 0.03932363 0.00073053 0.00332411
v 0.03935220 0.00005625 0.00297009
v 0.03935220 0.00015980 0.00297009
v 0.03908868 0.00213827 0.00269289
v 0.03849927 0.00610261 0.00222623
v 0.03761195 0.01170520 0.00440279
v 0.03725982 0.01264821 0.00353175
v 0.03741431 0.01239921 0.00440279
v 0.03758571 0.01175944 0.00354784
v 0.03928982 0.00005625 0.00268822
v 0.03854066 0.00299376 0.00132456
v 0.03887647 0.00213827 0.00183794
v 0.03894585 0.00128278 0.00183794
v 0.03929273 0.00043839 0.00268822
v 0.03686163 0.00897848 0.00047480
v 0.03680042 0.01207254 0.00138426
v 0.03756298 0.00983397 0.00153479
v 0.03743472 0.00812300 0.00084284
v 0.03669839 0.01264821 0.00149275
v 0.03849869 0.00348930 0.00138010
v 0.03761253 0.00932980 0.00143461
v 0.03920353 0.00128278 0.00269289
v 0.03933296 0.00005625 0.00287769
v 0.03877911 0.00299376 0.00183794
v 0.03780725 0.00901793 0.00176683
v 0.03774546 0.00983397 0.00196253
v 0.03767666 0.01050826 0.00212189
v 0.03761778 0.01107776 0.00235237
v 0.03788596 0.00983397 0.00269289
v 0.03766151 0.01133170 0.00354784
v 0.03724991 0.01264821 0.00332982
v 0.03737583 0.01239921 0.00354784
v 0.03729422 0.01239921 0.00269289
v 0.03771223 0.01075110 0.00265967
v 0.03755482 0.01151044 0.00265967
v 0.03670247 0.01264328 0.00149482
v 0.03697998 0.01237455 0.00180316
v 0.03724699 0.01154372 0.00183794
v 0.03747553 0.01075110 0.00183742
v 0.03693742 0.01264821 0.00190802
v 0.03713506 0.01264821 0.00245463
v 0.03719044 0.01264821 0.00270898
f 1 2 5
f 1 5 13
f 1 13 25
f 1 25 39
f 1 39 57
f 1 57 79
f 1 79 92
f 1 92 71
f 1 71 69
f 1 69 50
f 1 50 34
f 1 34 20
f 1 20 9
f 1 9 3
f 1 3 11
f 1 11 24
f 1 24 23
f 1 23 22
f 1 22 38
f 1 38 42
f 1 42 28
f 1 28 16
f 1 16 15
f 1 15 12
f 1 12 4
f 1 4 2
f 2 4 6
f 2 6 7
f 2 7 8
f 2 8 5
f 3 9 10
f 3 10 11
f 4 12 6
f 5 8 13
f 6 14 7
f 6 12 15
f 6 15 16
f 6 16 17
f 6 17 14
f 7 14 18
f 7 18 8
f 8 18 19
f 8 19 13
f 9 20 35
f 9 35 54
f 9 54 56
f 9 56 36
f 9 36 21
f 9 21 10
f 10 21 22
f 10 22 23
f 10 23 24
f 10 24 11
f 13 19 26
f 13 26 27
f 13 27 25
f 14 17 18
f 16 28 29
f 16 29 17
f 17 29 30
f 17 30 31
f 17 31 32
f 17 32 18
f 18 32 33
f 18 33 19
f 19 33 26
f 20 34 35
f 21 36 55
f 21 55 76
f 21 76 100
f 21 100 111
f 21 111 110
f 21 110 109
f 21 109 88
f 21 88 65
f 21 65 62
f 21 62 45
f 21 45 61
f 21 61 43
f 21 43 42
f 21 42 38
f 21 38 37
f 21 37 22
f 22 37 38
f 25 27 39
f 26 33 40
f 26 40 41
f 26 41 39
f 26 39 27
f 28 42 43
f 28 43 29
f 29 43 44
f 29 44 30
f 30 44 45
f 30 45 46
f 30 46 47
f 30 47 48
f 30 48 31
f 31 48 49
f 31 49 32
f 32 49 33
f 33 49 40
f 34 50 35
f 35 50 51
f 35 51 52
f 35 52 53
f 35 53 54
f 36 56 55
f 39 41 57
f 40 58 41
f 40 49 59
f 40 59 58
f 41 60 57
f 41 58 60
f 43 61 44
f 44 61 45
f 45 62 46
f 46 63 64
f 46 64 47
f 46 62 65
f 46 65 63
f 47 66 48
f 47 64 67
f 47 67 68
f 47 68 66
f 48 59 49
f 48 66 59
f 50 69 51
f 51 70 53
f 51 53 52
f 51 69 71
f 51 71 72
f 51 72 70
f 53 70 73
f 53 73 74
f 53 74 54
f 54 74 75
f 54 75 56
f 55 56 77
f 55 77 76
f 56 75 78
f 56 78 77
f 57 60 79
f 58 59 80
f 58 80 81
f 58 81 82
f 58 82 60
f 59 66 68
f 59 68 80
f 60 82 83
f 60 83 79
f 63 65 64
f 64 65 84
f 64 84 85
f 64 85 86
f 64 86 87
f 64 87 67
f 65 88 85
f 65 85 84
f 67 89 80
f 67 80 68
f 67 87 90
f 67 90 89
f 70 91 73
f 70 72 91
f 71 92 72
f 72 92 83
f 72 83 91
f 73 91 74
f 74 91 93
f 74 93 89
f 74 89 90
f 74 90 94
f 74 94 95
f 74 95 96
f 74 96 97
f 74 97 98
f 74 98 99
f 74 99 75
f 75 99 78
f 76 77 101
f 76 101 100
f 77 78 101
f 78 102 101
f 78 99 98
f 78 98 103
f 78 103 97
f 78 97 104
f 78 104 102
f 79 83 92
f 80 89 93
f 80 93 81
f 81 93 91
f 81 91 83
f 81 83 82
f 85 88 105
f 85 105 86
f 86 95 90
f 86 90 87
f 86 105 106
f 86 106 107
f 86 107 108
f 86 108 96
f 86 96 95
f 88 109 105
f 90 95 94
f 96 108 107
f 96 107 97
f 97 107 106
f 97 106 109
f 97 109 110
f 97 110 102
f 97 102 104
f 97 103 98
f 100 101 102
f 100 102 111
f 102 110 111
f 105 109 106

