# https://github.com/mikedh/trimesh
v 0.03670864 0.00005643 0.00838342
v 0.03944985 0.00005643 0.00838342
v 0.03670634 0.00005643 0.00868145
v 0.03365305 0.01452555 0.00871385
v 0.03366679 0.01452555 0.00838342
v 0.03945042 0.00018392 0.00838342
v 0.03946645 0.00005643 0.00953670
v 0.03670463 0.00005643 0.01381291
v 0.03361983 0.01452555 0.01979960
v 0.03362900 0.01452555 0.01381291
v 0.03643950 0.01452555 0.00838342
v 0.03945099 0.00042896 0.00838342
v 0.03946703 0.00042896 0.00953670
v 0.03946874 0.00042896 0.01552339
v 0.03946760 0.00005643 0.01552339
v 0.03670348 0.00005643 0.03091775
v 0.03361983 0.01452555 0.04287818
v 0.03660671 0.01421535 0.00838342
v 0.03644351 0.01452555 0.00871385
v 0.03936624 0.00108762 0.00838342
v 0.03931012 0.00151539 0.00838342
v 0.03931070 0.00151964 0.00868145
v 0.03922194 0.00213863 0.00868145
v 0.03922594 0.00213863 0.02578630
v 0.03946932 0.00042896 0.03262823
v 0.03946817 0.00005643 0.03006251
v 0.03670348 0.00005643 0.07195641
v 0.03362041 0.01452555 0.06596972
v 0.03668229 0.01406804 0.00838342
v 0.03660900 0.01421676 0.00868145
v 0.03645610 0.01452555 0.01381291
v 0.03921965 0.00213863 0.00838342
v 0.03851187 0.00684410 0.00838342
v 0.03850328 0.00698008 0.03125466
v 0.03909825 0.00299417 0.06596972
v 0.03922537 0.00213863 0.04886488
v 0.03946874 0.00042896 0.06169351
v 0.03946817 0.00005643 0.05570681
v 0.03696060 0.00005643 0.07457397
v 0.03364904 0.01452555 0.07199529
v 0.03682202 0.01378758 0.00838342
v 0.03682259 0.01378899 0.00868145
v 0.03645954 0.01452555 0.02578630
v 0.03848667 0.00700841 0.00838342
v 0.03850328 0.00698008 0.03142960
v 0.03801138 0.00983283 0.01381291
v 0.03763917 0.01200709 0.01124718
v 0.03763974 0.01200709 0.02322057
v 0.03850099 0.00696733 0.07162598
v 0.03922423 0.00213863 0.07195641
v 0.03946817 0.00042896 0.07281165
v 0.03946760 0.00005643 0.07281165
v 0.03945557 0.00005643 0.07457397
v 0.03500046 0.01181870 0.07457397
v 0.03496381 0.01239945 0.07457397
v 0.03397258 0.01452555 0.07265616
v 0.03698923 0.01343771 0.00838342
v 0.03707799 0.01325357 0.00868145
v 0.03661358 0.01421535 0.02578630
v 0.03682431 0.01379183 0.03091775
v 0.03708142 0.01325357 0.03177299
v 0.03682431 0.01379183 0.03177299
v 0.03645725 0.01452555 0.06596972
v 0.03661129 0.01421818 0.07195641
v 0.03795412 0.01012887 0.00838342
v 0.03800680 0.00983283 0.00868145
v 0.03763974 0.01200709 0.06939069
v 0.03763917 0.01200709 0.07457397
v 0.03763803 0.01200426 0.01039194
v 0.03745364 0.01243061 0.01039194
v 0.03745535 0.01242778 0.02749678
v 0.03745478 0.01242919 0.05057536
v 0.03945557 0.00042896 0.07457397
v 0.03946531 0.00042896 0.07366690
v 0.03946474 0.00005643 0.07366690
v 0.03496324 0.01244761 0.07457397
v 0.03448852 0.01452555 0.07308378
v 0.03501249 0.01294478 0.07457397
v 0.03707684 0.01325357 0.00838342
v 0.03707970 0.01325357 0.07195641
v 0.03745593 0.01242636 0.06768020
v 0.03682316 0.01379041 0.07195641
v 0.03645324 0.01452555 0.07195641
v 0.03744333 0.01243486 0.07457397
v 0.03785677 0.01068837 0.00838342
v 0.03785849 0.01068837 0.00868145
v 0.03745364 0.01243061 0.07366690
v 0.03762829 0.01203117 0.07457397
v 0.03763344 0.01199292 0.00967924
v 0.03749315 0.01232579 0.00945247
v 0.03543223 0.01340088 0.07457397
v 0.03485959 0.01452555 0.07335590
v 0.03744848 0.01239945 0.00838342
v 0.03632898 0.01452555 0.07246826
v 0.03701557 0.01308643 0.07457397
v 0.03780409 0.01097591 0.00838342
v 0.03764948 0.01180170 0.00838342
v 0.03762142 0.01194901 0.00838342
v 0.03583193 0.01373233 0.07457397
v 0.03544941 0.01452555 0.07344661
v 0.03624366 0.01452555 0.07276630
v 0.03699037 0.01311051 0.07457397
v 0.03594245 0.01373233 0.07457397
v 0.03559887 0.01452555 0.07338181
v 0.03597967 0.01372808 0.07457397
v 0.03592412 0.01452555 0.07322632
v 0.03640972 0.01351420 0.07457397
v 0.03590523 0.01452555 0.07324575
f 1 2 7
f 1 7 15
f 1 15 26
f 1 26 38
f 1 38 52
f 1 52 75
f 1 75 53
f 1 53 39
f 1 39 27
f 1 27 16
f 1 16 8
f 1 8 3
f 1 3 4
f 1 4 5
f 1 5 11
f 1 11 18
f 1 18 29
f 1 29 41
f 1 41 57
f 1 57 79
f 1 79 93
f 1 93 98
f 1 98 97
f 1 97 96
f 1 96 85
f 1 85 65
f 1 65 44
f 1 44 33
f 1 33 32
f 1 32 21
f 1 21 20
f 1 20 12
f 1 12 6
f 1 6 2
f 2 6 7
f 3 8 9
f 3 9 10
f 3 10 4
f 4 10 9
f 4 9 17
f 4 17 28
f 4 28 40
f 4 40 56
f 4 56 77
f 4 77 92
f 4 92 100
f 4 100 104
f 4 104 108
f 4 108 106
f 4 106 101
f 4 101 94
f 4 94 83
f 4 83 63
f 4 63 43
f 4 43 31
f 4 31 19
f 4 19 11
f 4 11 5
f 6 12 7
f 7 12 13
f 7 13 14
f 7 14 15
f 8 16 9
f 9 16 27
f 9 27 17
f 11 19 18
f 12 20 13
f 13 20 21
f 13 21 22
f 13 22 14
f 14 22 23
f 14 23 24
f 14 24 25
f 14 25 26
f 14 26 15
f 17 27 28
f 18 19 30
f 18 30 29
f 19 31 30
f 21 32 23
f 21 23 22
f 23 32 33
f 23 33 34
f 23 34 24
f 24 34 35
f 24 35 36
f 24 36 37
f 24 37 25
f 25 37 38
f 25 38 26
f 27 39 40
f 27 40 28
f 29 30 42
f 29 42 41
f 30 31 43
f 30 43 42
f 33 44 34
f 34 45 35
f 34 44 46
f 34 46 47
f 34 47 48
f 34 48 67
f 34 67 45
f 35 49 50
f 35 50 36
f 35 45 49
f 36 50 37
f 37 50 51
f 37 51 52
f 37 52 38
f 39 53 73
f 39 73 68
f 39 68 88
f 39 88 84
f 39 84 95
f 39 95 102
f 39 102 107
f 39 107 105
f 39 105 103
f 39 103 99
f 39 99 91
f 39 91 78
f 39 78 76
f 39 76 55
f 39 55 54
f 39 54 40
f 40 54 55
f 40 55 56
f 41 42 57
f 42 58 57
f 42 43 59
f 42 59 60
f 42 60 61
f 42 61 58
f 43 62 60
f 43 60 59
f 43 63 64
f 43 64 62
f 44 65 66
f 44 66 46
f 45 67 68
f 45 68 49
f 46 66 47
f 47 66 69
f 47 69 70
f 47 70 48
f 48 70 71
f 48 71 72
f 48 72 67
f 49 68 73
f 49 73 74
f 49 74 50
f 50 74 51
f 51 74 75
f 51 75 52
f 53 75 74
f 53 74 73
f 55 76 56
f 56 76 78
f 56 78 77
f 57 58 79
f 58 70 79
f 58 61 70
f 60 62 61
f 61 71 70
f 61 62 80
f 61 80 81
f 61 81 72
f 61 72 71
f 62 64 82
f 62 82 80
f 63 83 64
f 64 83 84
f 64 84 82
f 65 85 86
f 65 86 66
f 66 86 69
f 67 72 81
f 67 81 87
f 67 87 68
f 68 87 88
f 69 86 85
f 69 85 89
f 69 89 90
f 69 90 70
f 70 90 79
f 77 78 91
f 77 91 92
f 79 90 93
f 80 82 84
f 80 84 87
f 80 87 81
f 83 94 95
f 83 95 84
f 84 88 87
f 85 96 89
f 89 96 97
f 89 97 98
f 89 98 93
f 89 93 90
f 91 99 92
f 92 99 100
f 94 101 95
f 95 101 102
f 99 103 100
f 100 103 105
f 100 105 104
f 101 106 102
f 102 106 107
f 104 105 108
f 105 107 108
f 106 108 107

