# https://github.com/mikedh/trimesh
v 0.00042829 0.04113946 0.08393122
v 0.00042829 0.04106402 0.08347602
v 0.00000796 0.04110174 0.08370008
v 0.00000796 0.04113946 0.08393122
v 0.00042829 0.04112217 0.08456445
v 0.00213801 0.04108838 0.08447645
v 0.00299429 0.04106795 0.08441930
v 0.00299429 0.04106795 0.08418613
v 0.00213801 0.04108838 0.08403187
v 0.00130729 0.04109781 0.08386193
v 0.00160834 0.04104202 0.08353064
v 0.00103890 0.04105302 0.08349322
v 0.00042545 0.03946090 0.08051368
v 0.00000796 0.03946168 0.08051368
v 0.00000796 0.04106402 0.08347602
v 0.00000796 0.04112217 0.08456445
v 0.00042829 0.04091235 0.08499234
v 0.00128315 0.04110489 0.08452146
v 0.00213801 0.04087699 0.08490383
v 0.00347426 0.04105223 0.08437631
v 0.00299429 0.04085499 0.08484718
v 0.00347426 0.04105223 0.08430651
v 0.00299429 0.04100901 0.08375875
v 0.00213801 0.04103102 0.08360449
v 0.00641372 0.04038034 0.08327371
v 0.00726858 0.04030490 0.08335514
v 0.01201716 0.03764167 0.08051368
v 0.00000796 0.03694384 0.08051368
v 0.00000796 0.04091235 0.08499234
v 0.00042829 0.04048486 0.08539443
v 0.00213801 0.04044949 0.08538533
v 0.00299429 0.04042670 0.08537673
v 0.00128315 0.04089428 0.08494884
v 0.00384915 0.04038741 0.08535853
v 0.00379518 0.04084477 0.08471113
v 0.00555886 0.04060430 0.08478598
v 0.00641372 0.04049821 0.08478598
v 0.00812344 0.04028211 0.08459328
v 0.00871275 0.04022317 0.08444661
v 0.00641372 0.04063181 0.08393122
v 0.00555886 0.04029390 0.08530390
v 0.00641372 0.04024674 0.08526597
v 0.00696043 0.04021138 0.08523360
v 0.00555886 0.04075047 0.08393122
v 0.00470400 0.04085342 0.08393122
v 0.00379518 0.04096972 0.08398534
v 0.00794877 0.04023889 0.08343657
v 0.00851963 0.04018466 0.08354582
v 0.01135259 0.03939960 0.08341836
v 0.01192202 0.03932180 0.08359538
v 0.01390438 0.03855954 0.08340319
v 0.01447382 0.03845659 0.08365861
v 0.01451358 0.03841573 0.08362219
v 0.01244317 0.03744521 0.08051368
v 0.00000796 0.03632302 0.08307646
v 0.01174878 0.03500123 0.08051368
v 0.01451358 0.03340754 0.08279474
v 0.01451358 0.03330460 0.08304206
v 0.01451358 0.03323230 0.08323375
v 0.00000796 0.04048486 0.08539443
v 0.00042829 0.03976345 0.08562912
v 0.00128315 0.03976345 0.08562457
v 0.00213801 0.03976345 0.08561900
v 0.00299429 0.03976345 0.08560888
v 0.00384915 0.03976345 0.08558815
v 0.00470400 0.03976345 0.08555932
v 0.00555886 0.03976345 0.08552695
v 0.00470400 0.04033869 0.08533273
v 0.00641372 0.03976345 0.08548294
v 0.00725438 0.04034340 0.08483555
v 0.00752845 0.04014616 0.08515318
v 0.00898966 0.04000863 0.08475362
v 0.00983316 0.03979410 0.08478598
v 0.01073346 0.03954027 0.08485376
v 0.01154429 0.03943497 0.08460188
v 0.01206118 0.03936188 0.08442790
v 0.00983316 0.03994498 0.08393122
v 0.00871275 0.04022317 0.08411583
v 0.00726858 0.04048014 0.08393122
v 0.00812344 0.03964715 0.08539544
v 0.00897830 0.03955363 0.08536561
v 0.00983316 0.03945933 0.08531300
v 0.01047785 0.03938467 0.08525788
v 0.00898966 0.04013437 0.08387103
v 0.01206118 0.03936188 0.08416540
v 0.01236649 0.03923300 0.08390037
v 0.01325401 0.03894146 0.08393122
v 0.01068801 0.03971080 0.08393122
v 0.01451358 0.03851710 0.08418107
v 0.01451358 0.03844559 0.08368390
v 0.01451358 0.03799609 0.08311844
v 0.01309213 0.03701692 0.08051368
v 0.00000796 0.03617371 0.08393122
v 0.01451358 0.03318122 0.08345933
v 0.01239915 0.03495015 0.08051368
v 0.01451358 0.03349870 0.08262025
v 0.00000796 0.03976345 0.08562912
v 0.00000796 0.03934224 0.08565440
v 0.00042829 0.03890845 0.08568020
v 0.00213801 0.03890845 0.08567919
v 0.00299429 0.03890845 0.08567818
v 0.00470400 0.03890845 0.08567413
v 0.00555886 0.03890845 0.08567110
v 0.00641372 0.03890845 0.08566503
v 0.00726858 0.03890845 0.08565036
v 0.00812344 0.03890845 0.08562962
v 0.00897830 0.03890845 0.08559573
v 0.00983316 0.03890845 0.08553656
v 0.01104728 0.03931159 0.08518403
v 0.01367008 0.03847624 0.08520831
v 0.01333353 0.03873871 0.08486843
v 0.01410887 0.03858547 0.08460239
v 0.01451358 0.03851081 0.08443346
v 0.01154429 0.03880079 0.08539342
v 0.01239915 0.03866484 0.08534436
v 0.01310065 0.03856111 0.08527912
v 0.01451358 0.03613442 0.08159301
v 0.01352524 0.03636939 0.08051368
v 0.01451358 0.03311207 0.08393122
v 0.01451358 0.03323230 0.08460441
v 0.00000796 0.03628609 0.08436518
v 0.01304242 0.03500988 0.08051368
v 0.01451358 0.03402364 0.08187473
v 0.01451358 0.03378475 0.08219843
v 0.00000796 0.03890845 0.08568020
v 0.01410887 0.03634346 0.08567818
v 0.01154429 0.03719846 0.08567868
v 0.00812344 0.03805345 0.08567919
v 0.00897830 0.03805345 0.08567716
v 0.00983316 0.03805345 0.08567110
v 0.01068801 0.03805345 0.08565592
v 0.01154429 0.03805345 0.08562658
v 0.01239915 0.03805345 0.08557145
v 0.01451358 0.03787035 0.08535954
v 0.01451358 0.03829313 0.08487703
v 0.01451358 0.03848016 0.08449668
v 0.01333353 0.03813596 0.08542124
v 0.01410887 0.03795051 0.08538938
v 0.01451358 0.03593324 0.08148275
v 0.01355080 0.03632774 0.08051368
v 0.01451358 0.03334703 0.08479104
v 0.00000796 0.03639532 0.08478598
v 0.01349399 0.03538472 0.08051368
v 0.01451358 0.03433798 0.08160212
v 0.01451358 0.03414466 0.08174323
v 0.00000796 0.03848724 0.08566351
v 0.01451358 0.03548846 0.08566300
v 0.01325401 0.03634346 0.08567666
v 0.01451358 0.03634346 0.08567514
v 0.01239915 0.03719846 0.08567413
v 0.01325401 0.03719846 0.08565896
v 0.01410887 0.03719846 0.08562153
v 0.01451358 0.03719846 0.08558764
v 0.01451358 0.03545545 0.08132495
v 0.01355080 0.03628137 0.08051368
v 0.01451358 0.03503267 0.08130725
v 0.01451358 0.03348455 0.08500802
v 0.00000796 0.03670337 0.08527052
v 0.01350962 0.03540594 0.08051368
v 0.00000796 0.03805345 0.08564631
v 0.01410887 0.03548846 0.08565592
v 0.01451358 0.03463346 0.08556893
v 0.01351530 0.03542952 0.08051368
v 0.01451358 0.03389319 0.08534538
v 0.00000796 0.03719846 0.08547182
f 1 2 3
f 1 3 4
f 1 4 16
f 1 16 5
f 1 5 6
f 1 6 7
f 1 7 8
f 1 8 9
f 1 9 10
f 1 10 11
f 1 11 12
f 1 12 2
f 2 13 14
f 2 14 15
f 2 15 3
f 2 12 13
f 3 15 14
f 3 14 28
f 3 28 55
f 3 55 93
f 3 93 121
f 3 121 142
f 3 142 158
f 3 158 165
f 3 165 160
f 3 160 146
f 3 146 125
f 3 125 98
f 3 98 97
f 3 97 60
f 3 60 29
f 3 29 16
f 3 16 4
f 5 16 29
f 5 29 17
f 5 17 18
f 5 18 6
f 6 18 17
f 6 17 19
f 6 19 7
f 7 20 22
f 7 22 8
f 7 19 21
f 7 21 20
f 8 22 23
f 8 23 24
f 8 24 9
f 9 24 11
f 9 11 10
f 11 24 13
f 11 13 12
f 13 24 25
f 13 25 26
f 13 26 27
f 13 27 54
f 13 54 92
f 13 92 118
f 13 118 140
f 13 140 155
f 13 155 163
f 13 163 159
f 13 159 143
f 13 143 122
f 13 122 95
f 13 95 56
f 13 56 28
f 13 28 14
f 17 29 60
f 17 60 30
f 17 30 31
f 17 31 32
f 17 32 33
f 17 33 19
f 19 33 34
f 19 34 21
f 20 21 35
f 20 35 36
f 20 36 37
f 20 37 38
f 20 38 39
f 20 39 40
f 20 40 22
f 21 34 41
f 21 41 42
f 21 42 43
f 21 43 35
f 22 40 44
f 22 44 45
f 22 45 46
f 22 46 23
f 23 46 45
f 23 45 44
f 23 44 26
f 23 26 25
f 23 25 24
f 26 44 40
f 26 40 47
f 26 47 27
f 27 48 49
f 27 49 50
f 27 50 51
f 27 51 52
f 27 52 53
f 27 53 54
f 27 47 48
f 28 56 57
f 28 57 58
f 28 58 59
f 28 59 55
f 30 60 97
f 30 97 61
f 30 61 62
f 30 62 63
f 30 63 64
f 30 64 31
f 31 64 32
f 32 64 65
f 32 65 66
f 32 66 67
f 32 67 34
f 32 34 33
f 34 68 41
f 34 67 69
f 34 69 68
f 35 43 36
f 36 43 37
f 37 43 70
f 37 70 38
f 38 70 71
f 38 71 39
f 39 71 72
f 39 72 73
f 39 73 74
f 39 74 75
f 39 75 76
f 39 76 77
f 39 77 78
f 39 78 79
f 39 79 40
f 40 79 48
f 40 48 47
f 41 69 42
f 41 68 69
f 42 69 80
f 42 80 81
f 42 81 43
f 43 71 70
f 43 81 82
f 43 82 83
f 43 83 71
f 48 78 84
f 48 84 77
f 48 77 50
f 48 50 49
f 48 79 78
f 50 85 86
f 50 86 87
f 50 87 52
f 50 52 51
f 50 77 88
f 50 88 85
f 52 87 89
f 52 89 90
f 52 90 53
f 53 90 89
f 53 89 113
f 53 113 136
f 53 136 135
f 53 135 134
f 53 134 153
f 53 153 149
f 53 149 147
f 53 147 162
f 53 162 164
f 53 164 157
f 53 157 141
f 53 141 120
f 53 120 119
f 53 119 94
f 53 94 59
f 53 59 58
f 53 58 57
f 53 57 96
f 53 96 124
f 53 124 123
f 53 123 145
f 53 145 144
f 53 144 156
f 53 156 154
f 53 154 139
f 53 139 117
f 53 117 91
f 53 91 92
f 53 92 54
f 55 59 94
f 55 94 93
f 56 95 96
f 56 96 57
f 61 97 98
f 61 98 99
f 61 99 100
f 61 100 101
f 61 101 102
f 61 102 103
f 61 103 62
f 62 103 63
f 63 103 104
f 63 104 64
f 64 104 105
f 64 105 106
f 64 106 65
f 65 106 66
f 66 106 67
f 67 106 107
f 67 107 69
f 69 107 108
f 69 108 81
f 69 81 80
f 71 83 109
f 71 109 72
f 72 109 73
f 73 109 74
f 74 109 75
f 75 109 76
f 76 85 77
f 76 109 110
f 76 110 111
f 76 111 112
f 76 112 113
f 76 113 89
f 76 89 85
f 77 84 78
f 77 85 88
f 81 108 82
f 82 108 114
f 82 114 115
f 82 115 83
f 83 115 116
f 83 116 109
f 85 89 87
f 85 87 86
f 91 117 118
f 91 118 92
f 93 119 120
f 93 120 121
f 93 94 119
f 95 122 123
f 95 123 124
f 95 124 96
f 98 125 99
f 99 125 126
f 99 126 127
f 99 127 128
f 99 128 100
f 100 128 101
f 101 128 129
f 101 129 102
f 102 129 103
f 103 129 130
f 103 130 104
f 104 130 105
f 105 130 131
f 105 131 106
f 106 131 132
f 106 132 107
f 107 132 133
f 107 133 108
f 108 133 114
f 109 116 110
f 110 116 134
f 110 134 135
f 110 135 136
f 110 136 113
f 110 113 112
f 110 112 111
f 114 133 115
f 115 133 137
f 115 137 138
f 115 138 116
f 116 138 134
f 117 139 140
f 117 140 118
f 120 141 142
f 120 142 121
f 122 143 144
f 122 144 145
f 122 145 123
f 125 146 147
f 125 147 148
f 125 148 126
f 126 148 147
f 126 147 149
f 126 149 150
f 126 150 127
f 127 129 128
f 127 150 129
f 129 150 130
f 130 150 151
f 130 151 131
f 131 151 132
f 132 151 152
f 132 152 133
f 133 152 153
f 133 153 138
f 133 138 137
f 134 138 153
f 139 154 140
f 140 154 156
f 140 156 155
f 141 157 142
f 142 157 158
f 143 159 144
f 144 159 156
f 146 160 147
f 147 161 162
f 147 160 161
f 149 153 152
f 149 152 151
f 149 151 150
f 155 156 163
f 156 159 163
f 157 164 158
f 158 164 165
f 160 165 162
f 160 162 161
f 162 165 164

