# https://github.com/mikedh/trimesh
v 0.01583364 -0.03307445 0.00838953
v 0.01583364 -0.03573906 0.00838953
v 0.01583364 -0.03309818 0.00779172
v 0.00000809 -0.03674571 0.00396118
v 0.00000809 -0.03670886 0.00826945
v 0.00000809 -0.03670824 0.00838953
v 0.01550052 -0.03597074 0.00838953
v 0.01550052 -0.03597074 0.00802322
v 0.01583364 -0.03572657 0.00780819
v 0.01583364 -0.03377511 0.00396118
v 0.01534868 -0.03383381 0.00396118
v 0.00000809 -0.03935849 0.00396118
v 0.00000809 -0.03945091 0.00838953
v 0.01378843 -0.03682189 0.00838953
v 0.01583364 -0.03572532 0.00777395
v 0.01378534 -0.03682127 0.00782380
v 0.01239862 -0.03741014 0.00440336
v 0.01322136 -0.03697364 0.00396118
v 0.01346461 -0.03682876 0.00396118
v 0.01583364 -0.03480486 0.00396118
v 0.00000809 -0.03939346 0.00436262
v 0.00001119 -0.03937972 0.00396118
v 0.00000809 -0.03945403 0.00696847
v 0.00042798 -0.03945091 0.00838953
v 0.01325389 -0.03707667 0.00838953
v 0.01564306 -0.03504278 0.00396118
v 0.01459567 -0.03591579 0.00396118
v 0.01325389 -0.03707355 0.00782380
v 0.01240327 -0.03743824 0.00611358
v 0.01197099 -0.03762621 0.00568310
v 0.01239862 -0.03738829 0.00396118
v 0.00044812 -0.03937972 0.00396118
v 0.00050235 -0.03939346 0.00437172
v 0.00000809 -0.03940782 0.00485769
v 0.00000809 -0.03941906 0.00525869
v 0.00040784 -0.03941906 0.00525869
v 0.00042798 -0.03945278 0.00696847
v 0.00123212 -0.03934787 0.00838953
v 0.01239862 -0.03744824 0.00838953
v 0.01231651 -0.03748570 0.00701399
v 0.01130010 -0.03765431 0.00396118
v 0.01165801 -0.03759436 0.00396118
v 0.01205311 -0.03749819 0.00396118
v 0.01197564 -0.03762746 0.00611358
v 0.00697263 -0.03850171 0.00817971
v 0.00086336 -0.03933788 0.00396118
v 0.00150636 -0.03930978 0.00782380
v 0.00151411 -0.03931040 0.00838953
v 0.01224678 -0.03750756 0.00838953
v 0.01197719 -0.03762808 0.00675909
v 0.01068809 -0.03785664 0.00838953
v 0.00697263 -0.03850171 0.00834532
v 0.00192470 -0.03925170 0.00838953
v 0.01194930 -0.03762121 0.00838953
v 0.01166576 -0.03767429 0.00838953
v 0.00701447 -0.03848423 0.00838953
v 0.00682234 -0.03851358 0.00838953
f 1 2 9
f 1 9 15
f 1 15 20
f 1 20 10
f 1 10 3
f 1 3 4
f 1 4 5
f 1 5 6
f 1 6 13
f 1 13 24
f 1 24 38
f 1 38 48
f 1 48 53
f 1 53 57
f 1 57 56
f 1 56 51
f 1 51 55
f 1 55 54
f 1 54 49
f 1 49 39
f 1 39 25
f 1 25 14
f 1 14 7
f 1 7 2
f 2 7 8
f 2 8 9
f 3 10 11
f 3 11 4
f 4 12 21
f 4 21 34
f 4 34 35
f 4 35 23
f 4 23 13
f 4 13 6
f 4 6 5
f 4 11 10
f 4 10 20
f 4 20 26
f 4 26 27
f 4 27 19
f 4 19 18
f 4 18 31
f 4 31 43
f 4 43 42
f 4 42 41
f 4 41 46
f 4 46 32
f 4 32 22
f 4 22 12
f 7 14 8
f 8 15 9
f 8 14 16
f 8 16 17
f 8 17 18
f 8 18 19
f 8 19 15
f 12 22 21
f 13 23 24
f 14 25 16
f 15 26 20
f 15 19 27
f 15 27 26
f 16 25 28
f 16 28 17
f 17 29 30
f 17 30 31
f 17 31 18
f 17 28 29
f 21 22 32
f 21 32 33
f 21 33 34
f 23 35 36
f 23 36 37
f 23 37 24
f 24 37 38
f 25 39 40
f 25 40 28
f 28 40 29
f 29 40 30
f 30 41 42
f 30 42 43
f 30 43 31
f 30 40 44
f 30 44 45
f 30 45 46
f 30 46 41
f 32 46 33
f 33 46 37
f 33 37 36
f 33 36 34
f 34 36 35
f 37 46 47
f 37 47 48
f 37 48 38
f 39 49 50
f 39 50 40
f 40 50 44
f 44 50 51
f 44 51 45
f 45 52 53
f 45 53 47
f 45 47 46
f 45 51 52
f 47 53 48
f 49 54 50
f 50 54 55
f 50 55 51
f 51 56 52
f 52 56 57
f 52 57 53

