# https://github.com/mikedh/trimesh
v 0.03170517 0.02620774 0.08393088
v 0.03189045 0.02597332 0.08393088
v 0.03336339 0.02396301 0.08348564
v 0.03257560 0.02490299 0.08341632
v 0.03163185 0.02620774 0.08373659
v 0.03153454 0.02620774 0.08478596
v 0.03262625 0.02496588 0.08461697
v 0.03341004 0.02402705 0.08449554
v 0.03231833 0.02543015 0.08393088
v 0.03265425 0.02500247 0.08393088
v 0.03308213 0.02444901 0.08393088
v 0.03340604 0.02402133 0.08393088
v 0.03374728 0.02351589 0.08393088
v 0.03411919 0.02295900 0.08393088
v 0.03507226 0.02139696 0.08348766
v 0.03185446 0.02334437 0.08051009
v 0.03178114 0.02583609 0.08336421
v 0.03120663 0.02620774 0.08317245
v 0.03167451 0.02569659 0.08523930
v 0.03247029 0.02477033 0.08518718
v 0.03180914 0.02586926 0.08478596
v 0.03107600 0.02620774 0.08531621
v 0.03324608 0.02380063 0.08506575
v 0.03421649 0.02225116 0.08522361
v 0.03433113 0.02242155 0.08478596
v 0.03511625 0.02146671 0.08449200
v 0.03440311 0.02253247 0.08393088
v 0.03483099 0.02188638 0.08393088
v 0.03511092 0.02145870 0.08393088
v 0.03540017 0.02094984 0.08393088
v 0.03577741 0.02027859 0.08393088
v 0.03635725 0.01924142 0.08393088
v 0.03596002 0.01975029 0.08344719
v 0.03136526 0.02377204 0.08051009
v 0.03222636 0.02266054 0.08051009
v 0.03093737 0.02402362 0.08051009
v 0.03113332 0.02620774 0.08312894
v 0.03117464 0.02602135 0.08533948
v 0.03185979 0.02522660 0.08532177
v 0.03267557 0.02419972 0.08531418
v 0.03343670 0.02323116 0.08527623
v 0.03035486 0.02620774 0.08553984
v 0.03435112 0.02180519 0.08529900
v 0.03512292 0.02064681 0.08526358
v 0.03495763 0.02121742 0.08506221
v 0.03585605 0.01957304 0.08513406
v 0.03600534 0.01982919 0.08456384
v 0.03668383 0.01863650 0.08393088
v 0.03682513 0.01808075 0.08343251
v 0.03765957 0.01632431 0.08345832
v 0.03776621 0.01582116 0.08333992
v 0.03793683 0.01496581 0.08319421
v 0.03799415 0.01452555 0.08312034
v 0.03613064 0.01452555 0.08159689
v 0.03592537 0.01452555 0.08148507
v 0.03239698 0.02174687 0.08051009
v 0.03053481 0.02620774 0.08277628
v 0.03035753 0.02413797 0.08051009
v 0.02777422 0.02620774 0.08170061
v 0.02831807 0.02620774 0.08178764
v 0.02868597 0.02620774 0.08192880
v 0.02943377 0.02620774 0.08224755
v 0.03121330 0.02522660 0.08553427
v 0.03213838 0.02443871 0.08543510
v 0.03294616 0.02351589 0.08539817
v 0.03374462 0.02258622 0.08533391
v 0.03035753 0.02608081 0.08557121
v 0.02950309 0.02620774 0.08565570
v 0.03377794 0.02180519 0.08550898
v 0.03465637 0.02093955 0.08539210
v 0.03527621 0.02009677 0.08533948
v 0.03600668 0.01900243 0.08528129
v 0.03672782 0.01787949 0.08515986
v 0.03660785 0.01842724 0.08483959
v 0.03617330 0.01926887 0.08482390
v 0.03686912 0.01816995 0.08458964
v 0.03688644 0.01820883 0.08393088
v 0.03751161 0.01685833 0.08393088
v 0.03770889 0.01643065 0.08393088
v 0.03797149 0.01582116 0.08393088
v 0.03844203 0.01452555 0.08369106
v 0.03840337 0.01452555 0.08361061
v 0.03545616 0.01452555 0.08132974
v 0.03209839 0.02098643 0.08051009
v 0.02973636 0.02405678 0.08051009
v 0.02687446 0.02620774 0.08172388
v 0.02772623 0.02620774 0.08169505
v 0.03206773 0.02351589 0.08562737
v 0.03292217 0.02266054 0.08558234
v 0.03035753 0.02522660 0.08566026
v 0.03121330 0.02437125 0.08564660
v 0.02864732 0.02620774 0.08567645
v 0.02950309 0.02608081 0.08566784
v 0.03463238 0.02009677 0.08556311
v 0.03553747 0.01926887 0.08541385
v 0.03616663 0.01838607 0.08535719
v 0.03685045 0.01731002 0.08527674
v 0.03768090 0.01554214 0.08526156
v 0.03755693 0.01611276 0.08511483
v 0.03770223 0.01641579 0.08454461
v 0.03849801 0.01458387 0.08440446
v 0.03849801 0.01458387 0.08422839
v 0.03833539 0.01490749 0.08393847
v 0.03851267 0.01452555 0.08418892
v 0.03502028 0.01452555 0.08131203
v 0.03121196 0.02070284 0.08051009
v 0.02941911 0.02351475 0.08051009
v 0.02682647 0.02620774 0.08173603
v 0.03292217 0.02180519 0.08565773
v 0.03377794 0.02094984 0.08563041
v 0.03206773 0.02266054 0.08567341
v 0.02779288 0.02620774 0.08565418
v 0.02864732 0.02608081 0.08567746
v 0.02950309 0.02522660 0.08567797
v 0.03035753 0.02437125 0.08567797
v 0.03121330 0.02351589 0.08567645
v 0.03548815 0.01838607 0.08558487
v 0.03640257 0.01756960 0.08541436
v 0.03699175 0.01667537 0.08535011
v 0.03724235 0.01582459 0.08540070
v 0.03778087 0.01496581 0.08532582
v 0.03829007 0.01452555 0.08487298
v 0.03782352 0.01582459 0.08481227
v 0.03848335 0.01452555 0.08448137
v 0.03850868 0.01452555 0.08442875
v 0.03432979 0.01452555 0.08160448
v 0.03001895 0.02147929 0.08051009
v 0.03044550 0.02109850 0.08051009
v 0.03119597 0.02071084 0.08051009
v 0.02940711 0.02266054 0.08051009
v 0.02654255 0.02620774 0.08182508
v 0.03377794 0.02009677 0.08567139
v 0.03463238 0.01924142 0.08564609
v 0.03292217 0.02094984 0.08567695
v 0.02693711 0.02620774 0.08557121
v 0.02779288 0.02608081 0.08565014
v 0.03548815 0.01452555 0.08566329
v 0.03548815 0.01496581 0.08567139
v 0.03548815 0.01582116 0.08567847
v 0.03463238 0.01753072 0.08567847
v 0.03377794 0.01924142 0.08567847
v 0.03548815 0.01753072 0.08565166
v 0.03634259 0.01582116 0.08564559
v 0.03634259 0.01667537 0.08557678
v 0.03719836 0.01496581 0.08554945
v 0.03786751 0.01452555 0.08535870
v 0.03414184 0.01452555 0.08174210
v 0.02972303 0.02190697 0.08051009
v 0.03400988 0.01452555 0.08188478
v 0.03377928 0.01452555 0.08219949
v 0.03348469 0.01452555 0.08263360
v 0.02551749 0.02620774 0.08254556
v 0.02579208 0.02620774 0.08232041
v 0.02598270 0.02620774 0.08218229
v 0.02605868 0.02620774 0.08213118
v 0.03463238 0.01838607 0.08567493
v 0.02609867 0.02620774 0.08538451
v 0.02693711 0.02608081 0.08555805
v 0.03463238 0.01452555 0.08557020
v 0.03463238 0.01496581 0.08560662
v 0.03634259 0.01452555 0.08567493
v 0.03548815 0.01667537 0.08567443
v 0.03634259 0.01496581 0.08567139
v 0.03719836 0.01452555 0.08558639
v 0.02516558 0.02620774 0.08303534
v 0.03340338 0.01452555 0.08278691
v 0.02508294 0.02620774 0.08318561
v 0.02513093 0.02620774 0.08309706
v 0.02589472 0.02620774 0.08532784
v 0.03388858 0.01452555 0.08534605
v 0.03329807 0.01452555 0.08304141
v 0.02493898 0.02620774 0.08365159
v 0.03322876 0.01452555 0.08322810
v 0.02535087 0.02620774 0.08490233
v 0.03344603 0.01471766 0.08510320
v 0.03348202 0.01452555 0.08501364
v 0.02489766 0.02620774 0.08393088
v 0.03317277 0.01452555 0.08347147
v 0.03310479 0.01452555 0.08393088
v 0.02523223 0.02620774 0.08479608
v 0.02513759 0.02620774 0.08468426
v 0.03335139 0.01452555 0.08481024
v 0.03322876 0.01452555 0.08460988
f 1 2 3
f 1 3 4
f 1 4 5
f 1 5 18
f 1 18 37
f 1 37 57
f 1 57 62
f 1 62 61
f 1 61 60
f 1 60 59
f 1 59 87
f 1 87 86
f 1 86 108
f 1 108 131
f 1 131 155
f 1 155 154
f 1 154 153
f 1 153 152
f 1 152 165
f 1 165 168
f 1 168 167
f 1 167 172
f 1 172 177
f 1 177 181
f 1 181 180
f 1 180 174
f 1 174 169
f 1 169 157
f 1 157 135
f 1 135 112
f 1 112 92
f 1 92 68
f 1 68 42
f 1 42 22
f 1 22 6
f 1 6 7
f 1 7 8
f 1 8 2
f 2 8 9
f 2 9 3
f 3 9 10
f 3 10 11
f 3 11 12
f 3 12 13
f 3 13 14
f 3 14 15
f 3 15 16
f 3 16 4
f 4 16 17
f 4 17 5
f 5 17 18
f 6 19 20
f 6 20 21
f 6 21 7
f 6 22 19
f 7 20 8
f 7 21 20
f 8 14 13
f 8 13 12
f 8 12 11
f 8 11 10
f 8 10 9
f 8 20 23
f 8 23 24
f 8 24 25
f 8 25 26
f 8 26 14
f 14 27 15
f 14 26 27
f 15 27 28
f 15 28 29
f 15 29 30
f 15 30 31
f 15 31 32
f 15 32 33
f 15 33 16
f 16 34 18
f 16 18 17
f 16 33 35
f 16 35 56
f 16 56 84
f 16 84 106
f 16 106 129
f 16 129 128
f 16 128 127
f 16 127 148
f 16 148 130
f 16 130 107
f 16 107 85
f 16 85 58
f 16 58 36
f 16 36 34
f 18 34 36
f 18 36 37
f 19 22 38
f 19 38 39
f 19 39 40
f 19 40 20
f 20 40 41
f 20 41 24
f 20 24 23
f 22 42 38
f 24 43 44
f 24 44 45
f 24 45 26
f 24 26 25
f 24 41 43
f 26 45 46
f 26 46 47
f 26 47 32
f 26 32 31
f 26 31 30
f 26 30 29
f 26 29 28
f 26 28 27
f 32 48 33
f 32 47 48
f 33 48 49
f 33 49 35
f 35 49 50
f 35 50 51
f 35 51 52
f 35 52 53
f 35 53 54
f 35 54 55
f 35 55 56
f 36 57 37
f 36 58 59
f 36 59 60
f 36 60 61
f 36 61 62
f 36 62 57
f 38 42 63
f 38 63 39
f 39 63 64
f 39 64 40
f 40 64 65
f 40 65 66
f 40 66 41
f 41 66 43
f 42 67 63
f 42 68 67
f 43 66 69
f 43 69 70
f 43 70 44
f 44 70 71
f 44 71 72
f 44 72 46
f 44 46 45
f 46 72 73
f 46 73 74
f 46 74 75
f 46 75 47
f 47 75 76
f 47 76 48
f 48 76 77
f 48 77 49
f 49 77 50
f 50 77 78
f 50 78 79
f 50 79 80
f 50 80 81
f 50 81 82
f 50 82 51
f 51 82 52
f 52 82 53
f 53 82 81
f 53 81 104
f 53 104 125
f 53 125 124
f 53 124 122
f 53 122 146
f 53 146 164
f 53 164 161
f 53 161 137
f 53 137 159
f 53 159 170
f 53 170 176
f 53 176 182
f 53 182 183
f 53 183 179
f 53 179 178
f 53 178 173
f 53 173 171
f 53 171 166
f 53 166 151
f 53 151 150
f 53 150 149
f 53 149 147
f 53 147 126
f 53 126 105
f 53 105 83
f 53 83 55
f 53 55 54
f 55 83 56
f 56 83 84
f 58 85 86
f 58 86 87
f 58 87 59
f 63 88 89
f 63 89 65
f 63 65 64
f 63 67 88
f 65 89 69
f 65 69 66
f 67 90 91
f 67 91 88
f 67 68 90
f 68 92 93
f 68 93 90
f 69 89 94
f 69 94 70
f 70 94 95
f 70 95 71
f 71 95 96
f 71 96 72
f 72 96 97
f 72 97 73
f 73 97 98
f 73 98 99
f 73 99 100
f 73 100 76
f 73 76 74
f 74 76 75
f 76 100 77
f 77 100 78
f 78 100 79
f 79 100 101
f 79 101 80
f 80 101 102
f 80 102 103
f 80 103 81
f 81 102 104
f 81 103 102
f 83 105 84
f 84 105 106
f 85 107 108
f 85 108 86
f 88 91 109
f 88 109 110
f 88 110 89
f 89 110 94
f 90 111 91
f 90 93 111
f 91 111 109
f 92 112 113
f 92 113 114
f 92 114 93
f 93 114 115
f 93 115 116
f 93 116 111
f 94 117 95
f 94 110 117
f 95 117 96
f 96 118 119
f 96 119 97
f 96 117 118
f 97 119 98
f 98 119 120
f 98 120 121
f 98 121 122
f 98 122 99
f 99 122 123
f 99 123 100
f 100 123 101
f 101 124 125
f 101 125 104
f 101 104 102
f 101 123 124
f 105 126 127
f 105 127 128
f 105 128 129
f 105 129 106
f 107 130 131
f 107 131 108
f 109 132 133
f 109 133 110
f 109 111 132
f 110 133 117
f 111 116 134
f 111 134 156
f 111 156 132
f 112 135 136
f 112 136 137
f 112 137 113
f 113 137 138
f 113 138 139
f 113 139 114
f 114 139 140
f 114 140 141
f 114 141 115
f 115 141 134
f 115 134 116
f 117 133 142
f 117 142 143
f 117 143 144
f 117 144 118
f 118 144 120
f 118 120 119
f 120 144 145
f 120 145 121
f 121 145 146
f 121 146 122
f 122 124 123
f 126 147 127
f 127 147 149
f 127 149 150
f 127 150 151
f 127 151 148
f 130 152 153
f 130 153 154
f 130 154 155
f 130 155 131
f 130 148 152
f 132 156 142
f 132 142 133
f 134 141 156
f 135 157 158
f 135 158 159
f 135 159 160
f 135 160 136
f 136 160 137
f 137 160 159
f 137 161 138
f 138 161 139
f 139 161 162
f 139 162 156
f 139 156 141
f 139 141 140
f 142 156 162
f 142 162 163
f 142 163 143
f 143 163 164
f 143 164 144
f 144 164 145
f 145 164 146
f 148 151 165
f 148 165 152
f 151 166 167
f 151 167 168
f 151 168 165
f 157 169 159
f 157 159 158
f 159 169 170
f 161 164 163
f 161 163 162
f 166 171 167
f 167 171 173
f 167 173 172
f 169 174 175
f 169 175 170
f 170 175 176
f 172 173 178
f 172 178 179
f 172 179 177
f 174 180 175
f 175 180 176
f 176 180 181
f 176 181 182
f 177 179 183
f 177 183 181
f 181 183 182

