# https://github.com/mikedh/trimesh
v 0.03363093 0.01452555 0.07709050
v 0.03371779 0.01452555 0.07795195
v 0.03373037 0.01452555 0.07679788
v 0.03696034 0.00005643 0.07457452
v 0.03670432 0.00005643 0.07709050
v 0.03671632 0.00005643 0.07789999
v 0.03694319 0.00005643 0.08016164
v 0.03500132 0.01175496 0.08016164
v 0.03494360 0.01239945 0.08016164
v 0.03404125 0.01452555 0.07853337
v 0.03391952 0.01452555 0.07638548
v 0.03500018 0.01181870 0.07457452
v 0.03945539 0.00005643 0.07457452
v 0.03946111 0.00005643 0.08016164
v 0.03498589 0.01308926 0.08016164
v 0.03464358 0.01452555 0.07895835
v 0.03407725 0.01452555 0.07614974
v 0.03496361 0.01244761 0.07457452
v 0.03496418 0.01239945 0.07457452
v 0.03945596 0.00037939 0.07457452
v 0.03945996 0.00005643 0.07489777
v 0.03946797 0.00005643 0.07880028
v 0.03946168 0.00020800 0.08016164
v 0.03544993 0.01345471 0.08016164
v 0.03505561 0.01452555 0.07923128
v 0.03457386 0.01452555 0.07571929
v 0.03501218 0.01294478 0.07457452
v 0.03945596 0.00040630 0.07457452
v 0.03946454 0.00042896 0.07538018
v 0.03946511 0.00005643 0.07538018
v 0.03946568 0.00005643 0.07575266
v 0.03946911 0.00042896 0.07880028
v 0.03946225 0.00042896 0.08016164
v 0.03581282 0.01350712 0.08016164
v 0.03507962 0.01452555 0.07923620
v 0.03515162 0.01452555 0.07550598
v 0.03583168 0.01373233 0.07457452
v 0.03543221 0.01340088 0.07457452
v 0.03945539 0.00042896 0.07457452
v 0.03849760 0.00694467 0.07741211
v 0.03922166 0.00213863 0.07709050
v 0.03849760 0.00694467 0.07756745
v 0.03764153 0.01201276 0.08016164
v 0.03637343 0.01353261 0.08016164
v 0.03543736 0.01452555 0.07914486
v 0.03546879 0.01452555 0.07552512
v 0.03594254 0.01373233 0.07457452
v 0.03763925 0.01200709 0.07457452
v 0.03801071 0.00983283 0.07709050
v 0.03745066 0.01243344 0.07538018
v 0.03745752 0.01241928 0.07880028
v 0.03744552 0.01244053 0.08016164
v 0.03701806 0.01310201 0.08016164
v 0.03617570 0.01452555 0.07865643
v 0.03573167 0.01452555 0.07900648
v 0.03561223 0.01452555 0.07909345
v 0.03572995 0.01452555 0.07560334
v 0.03597969 0.01372808 0.07457452
v 0.03762839 0.01203117 0.07457452
v 0.03744323 0.01243486 0.07457452
v 0.03682033 0.01378474 0.07709050
v 0.03707292 0.01325357 0.07709050
v 0.03707349 0.01325357 0.07794484
v 0.03681747 0.01377341 0.07794484
v 0.03645515 0.01452555 0.07709050
v 0.03643744 0.01452555 0.07758221
v 0.03641001 0.01452555 0.07795250
v 0.03727122 0.01271815 0.08016164
v 0.03627228 0.01452555 0.07842069
v 0.03595854 0.01452555 0.07575320
v 0.03641001 0.01351420 0.07457452
v 0.03701577 0.01308643 0.07457452
v 0.03661174 0.01421251 0.07709050
v 0.03626828 0.01452555 0.07625421
v 0.03699063 0.01311051 0.07457452
f 1 2 10
f 1 10 16
f 1 16 25
f 1 25 35
f 1 35 45
f 1 45 56
f 1 56 55
f 1 55 54
f 1 54 69
f 1 69 67
f 1 67 66
f 1 66 65
f 1 65 74
f 1 74 70
f 1 70 57
f 1 57 46
f 1 46 36
f 1 36 26
f 1 26 17
f 1 17 11
f 1 11 3
f 1 3 4
f 1 4 5
f 1 5 6
f 1 6 7
f 1 7 2
f 2 8 9
f 2 9 10
f 2 7 8
f 3 11 12
f 3 12 4
f 4 13 21
f 4 21 30
f 4 30 31
f 4 31 22
f 4 22 14
f 4 14 7
f 4 7 6
f 4 6 5
f 4 12 19
f 4 19 18
f 4 18 27
f 4 27 38
f 4 38 37
f 4 37 47
f 4 47 58
f 4 58 71
f 4 71 75
f 4 75 72
f 4 72 60
f 4 60 59
f 4 59 48
f 4 48 39
f 4 39 28
f 4 28 20
f 4 20 13
f 7 14 23
f 7 23 33
f 7 33 43
f 7 43 52
f 7 52 68
f 7 68 53
f 7 53 44
f 7 44 34
f 7 34 24
f 7 24 15
f 7 15 9
f 7 9 8
f 9 15 10
f 10 15 16
f 11 17 18
f 11 18 19
f 11 19 12
f 13 20 21
f 14 22 23
f 15 24 25
f 15 25 16
f 17 26 27
f 17 27 18
f 20 28 21
f 21 28 29
f 21 29 30
f 22 31 32
f 22 32 23
f 23 32 33
f 24 34 35
f 24 35 25
f 26 36 37
f 26 37 38
f 26 38 27
f 28 39 29
f 29 32 31
f 29 31 30
f 29 39 40
f 29 40 41
f 29 41 32
f 32 41 33
f 33 41 42
f 33 42 43
f 34 44 35
f 35 44 45
f 36 46 47
f 36 47 37
f 39 48 40
f 40 42 41
f 40 48 49
f 40 49 42
f 42 49 43
f 43 49 48
f 43 48 50
f 43 50 51
f 43 51 52
f 44 53 54
f 44 54 55
f 44 55 56
f 44 56 45
f 46 57 58
f 46 58 47
f 48 59 50
f 50 59 60
f 50 60 61
f 50 61 62
f 50 62 63
f 50 63 51
f 51 63 52
f 52 63 64
f 52 64 65
f 52 65 66
f 52 66 67
f 52 67 68
f 53 68 67
f 53 67 69
f 53 69 54
f 57 70 58
f 58 70 71
f 60 72 65
f 60 65 73
f 60 73 61
f 61 63 62
f 61 73 63
f 63 73 64
f 64 73 65
f 65 72 74
f 70 74 75
f 70 75 71
f 72 75 74

