# https://github.com/mikedh/trimesh
v 0.03291539 -0.01604967 0.07709070
v 0.03315851 -0.01604967 0.07650950
v 0.03299429 -0.01604967 0.07768782
v 0.03694266 0.00005502 0.08018166
v 0.03671621 0.00005502 0.07790021
v 0.03670403 0.00005502 0.07709070
v 0.03696062 0.00005502 0.07457491
v 0.03377819 -0.01604967 0.07609295
v 0.03500793 -0.01177916 0.07457491
v 0.03496430 -0.01239869 0.07457491
v 0.03501242 -0.01294571 0.07457491
v 0.03303149 -0.01604967 0.07795619
v 0.03946115 0.00005502 0.08018166
v 0.03500151 -0.01175551 0.08018166
v 0.03945538 0.00005502 0.07457491
v 0.03541207 -0.01336661 0.07457491
v 0.03583224 -0.01373234 0.07457491
v 0.03466473 -0.01604967 0.07600075
v 0.03329579 -0.01604967 0.07841830
v 0.03946756 0.00005502 0.07880028
v 0.03946115 -0.00009947 0.08018166
v 0.03497072 -0.01199985 0.08018166
v 0.03945987 0.00005502 0.07489762
v 0.03945538 -0.00042894 0.07457491
v 0.03597914 -0.01372761 0.07457491
v 0.03533508 -0.01604967 0.07637010
v 0.03638328 -0.01353844 0.07457491
v 0.03336186 -0.01604967 0.07846330
v 0.03498419 -0.01309074 0.08018166
v 0.03494634 -0.01268717 0.08018166
v 0.03493993 -0.01239869 0.08018166
v 0.03946564 0.00005502 0.07575268
v 0.03946692 -0.00042894 0.07880028
v 0.03946692 -0.00042894 0.07623509
v 0.03945987 -0.00042894 0.08018166
v 0.03946500 0.00005502 0.07538003
v 0.03946628 -0.00042894 0.07538003
v 0.03849635 -0.00693797 0.07741561
v 0.03763932 -0.01200616 0.07457491
v 0.03566545 -0.01604967 0.07708028
v 0.03701579 -0.01308601 0.07457491
v 0.03357548 -0.01604967 0.07857855
v 0.03524015 -0.01337292 0.08018166
v 0.03922572 -0.00213936 0.07709070
v 0.03849635 -0.00693797 0.07756379
v 0.03764188 -0.01201247 0.08018166
v 0.03800817 -0.00983386 0.07709070
v 0.03745457 -0.01243022 0.07538003
v 0.03744302 -0.01243495 0.07457491
v 0.03596503 -0.01548689 0.07709070
v 0.03573794 -0.01591410 0.07709070
v 0.03596631 -0.01549005 0.07769825
v 0.03565262 -0.01604967 0.07723834
v 0.03741800 -0.01247751 0.07457491
v 0.03374547 -0.01604967 0.07863838
v 0.03544799 -0.01345962 0.08018166
v 0.03440364 -0.01604967 0.07879314
v 0.03756619 -0.01217799 0.08018166
v 0.03707801 -0.01325311 0.07709070
v 0.03682206 -0.01378909 0.07709070
v 0.03661229 -0.01421630 0.07709070
v 0.03623381 -0.01496352 0.07709070
v 0.03558013 -0.01604967 0.07795784
v 0.03682142 -0.01378121 0.07794521
v 0.03744495 -0.01244125 0.08018166
v 0.03637109 -0.01352898 0.08018166
v 0.03464228 -0.01604967 0.07875692
v 0.03707673 -0.01325311 0.07794521
v 0.03547172 -0.01604967 0.07817188
v 0.03701707 -0.01309862 0.08018166
v 0.03676497 -0.01327360 0.08018166
v 0.03513558 -0.01604967 0.07857855
v 0.03524079 -0.01604967 0.07852422
f 1 2 8
f 1 8 18
f 1 18 26
f 1 26 40
f 1 40 53
f 1 53 63
f 1 63 69
f 1 69 73
f 1 73 72
f 1 72 67
f 1 67 57
f 1 57 55
f 1 55 42
f 1 42 28
f 1 28 19
f 1 19 12
f 1 12 3
f 1 3 4
f 1 4 5
f 1 5 6
f 1 6 7
f 1 7 2
f 2 7 9
f 2 9 10
f 2 10 11
f 2 11 8
f 3 12 4
f 4 13 20
f 4 20 32
f 4 32 36
f 4 36 23
f 4 23 15
f 4 15 7
f 4 7 6
f 4 6 5
f 4 12 14
f 4 14 22
f 4 22 31
f 4 31 30
f 4 30 29
f 4 29 43
f 4 43 56
f 4 56 66
f 4 66 71
f 4 71 70
f 4 70 65
f 4 65 58
f 4 58 46
f 4 46 35
f 4 35 21
f 4 21 13
f 7 15 24
f 7 24 39
f 7 39 49
f 7 49 54
f 7 54 41
f 7 41 27
f 7 27 25
f 7 25 17
f 7 17 16
f 7 16 11
f 7 11 10
f 7 10 9
f 8 16 17
f 8 17 18
f 8 11 16
f 12 19 14
f 13 21 20
f 14 19 22
f 15 23 24
f 17 25 18
f 18 25 27
f 18 27 26
f 19 28 29
f 19 29 30
f 19 30 31
f 19 31 22
f 20 21 33
f 20 33 34
f 20 34 32
f 21 35 33
f 23 36 37
f 23 37 24
f 24 37 38
f 24 38 39
f 26 27 41
f 26 41 40
f 28 42 29
f 29 42 43
f 32 34 37
f 32 37 36
f 33 35 44
f 33 44 34
f 34 44 37
f 35 45 44
f 35 46 45
f 37 44 38
f 38 46 47
f 38 47 39
f 38 44 45
f 38 45 46
f 39 47 46
f 39 46 48
f 39 48 49
f 40 50 51
f 40 51 52
f 40 52 53
f 40 41 54
f 40 54 49
f 40 49 50
f 42 55 43
f 43 55 57
f 43 57 56
f 46 58 59
f 46 59 48
f 48 59 60
f 48 60 49
f 49 60 61
f 49 61 62
f 49 62 50
f 50 62 52
f 50 52 51
f 52 63 53
f 52 62 61
f 52 61 64
f 52 64 65
f 52 65 63
f 56 57 66
f 57 67 66
f 58 65 68
f 58 68 59
f 59 68 60
f 60 68 64
f 60 64 61
f 63 65 70
f 63 70 69
f 64 68 65
f 66 67 72
f 66 72 73
f 66 73 71
f 69 70 73
f 70 71 73

