# https://github.com/mikedh/trimesh
v -0.00217268 0.03805362 0.07505277
v -0.00199127 0.03867112 0.07505277
v -0.00214677 0.03794212 0.07505277
v -0.00587691 0.03719878 0.07600643
v -0.00587691 0.03807970 0.07627028
v -0.00178452 0.03884293 0.07505277
v -0.00197515 0.03743743 0.07505277
v -0.00587691 0.03650630 0.07637985
v -0.00128291 0.03715281 0.07505277
v -0.00587691 0.03850549 0.07662805
v -0.00091088 0.03935675 0.07505277
v -0.00587691 0.03614474 0.07711103
v -0.00042769 0.03692818 0.07505277
v -0.00587691 0.03860852 0.07709929
v -0.00073753 0.03939718 0.07505277
v -0.00587691 0.03625135 0.07791936
v 0.00000654 0.03692981 0.07505277
v 0.00000654 0.03675930 0.07656712
v 0.00000654 0.03673158 0.07682985
v 0.00000654 0.03670485 0.07709035
v 0.00000654 0.03671039 0.07750904
v 0.00000654 0.03671659 0.07790259
v 0.00000654 0.03690634 0.08076302
v -0.00587691 0.03861341 0.07731004
v -0.00299277 0.03909202 0.07709035
v -0.00042769 0.03946075 0.07505277
v -0.00587691 0.03646653 0.07827433
v -0.00042769 0.03690634 0.08076302
v 0.00000654 0.03946108 0.07505277
v 0.00000654 0.03947412 0.08076302
v -0.00587691 0.03856483 0.07784165
v -0.00060680 0.03943956 0.08076302
v -0.00042769 0.03947542 0.08076302
v -0.00213813 0.03922178 0.07709035
v -0.00042769 0.03946434 0.07538035
v 0.00000654 0.03946532 0.07538035
v -0.00587691 0.03662074 0.07850520
v -0.00133532 0.03718607 0.08076302
v -0.00587691 0.03848658 0.07802109
v -0.00093449 0.03936262 0.08076302
v -0.00587691 0.03696828 0.07864550
v -0.00191065 0.03747558 0.08076302
v -0.00587691 0.03839889 0.07822122
v -0.00157432 0.03896650 0.08076302
v -0.00587691 0.03719878 0.07872321
v -0.00198494 0.03762881 0.08076302
v -0.00587691 0.03830532 0.07832519
v -0.00193714 0.03866916 0.08076302
v -0.00587691 0.03802493 0.07856613
v -0.00587691 0.03772010 0.07863377
v -0.00215656 0.03804906 0.08076302
f 1 2 6
f 1 6 11
f 1 11 15
f 1 15 26
f 1 26 29
f 1 29 17
f 1 17 13
f 1 13 9
f 1 9 7
f 1 7 3
f 1 3 4
f 1 4 2
f 2 4 5
f 2 5 6
f 3 7 4
f 4 8 12
f 4 12 16
f 4 16 27
f 4 27 37
f 4 37 41
f 4 41 45
f 4 45 50
f 4 50 49
f 4 49 47
f 4 47 43
f 4 43 39
f 4 39 31
f 4 31 24
f 4 24 14
f 4 14 10
f 4 10 5
f 4 7 9
f 4 9 8
f 5 10 11
f 5 11 6
f 8 9 13
f 8 13 12
f 10 14 11
f 11 14 15
f 12 13 17
f 12 17 18
f 12 18 19
f 12 19 20
f 12 20 21
f 12 21 22
f 12 22 23
f 12 23 16
f 14 24 25
f 14 25 26
f 14 26 15
f 16 23 28
f 16 28 27
f 17 29 36
f 17 36 30
f 17 30 23
f 17 23 22
f 17 22 21
f 17 21 20
f 17 20 19
f 17 19 18
f 23 30 33
f 23 33 32
f 23 32 40
f 23 40 44
f 23 44 48
f 23 48 51
f 23 51 46
f 23 46 42
f 23 42 38
f 23 38 28
f 24 31 32
f 24 32 33
f 24 33 25
f 25 34 35
f 25 35 26
f 25 33 34
f 26 35 36
f 26 36 29
f 27 28 37
f 28 38 37
f 30 36 33
f 31 39 40
f 31 40 32
f 33 36 35
f 33 35 34
f 37 38 42
f 37 42 41
f 39 43 40
f 40 43 44
f 41 42 45
f 42 46 45
f 43 47 44
f 44 47 49
f 44 49 48
f 45 46 51
f 45 51 50
f 48 49 50
f 48 50 51

