# https://github.com/mikedh/trimesh
v 0.02755023 -0.02419215 0.00838997
v 0.02769220 -0.02419215 0.00355385
v 0.03104396 -0.02419215 0.00838997
v 0.03444081 -0.01262758 0.00838997
v 0.03442354 -0.01262758 0.00355385
v 0.03086649 -0.02419215 0.00355385
v 0.03104109 -0.02419215 0.00780439
v 0.03117635 -0.02405289 0.00838997
v 0.03734842 -0.01262758 0.00838997
v 0.03724481 -0.01262758 0.00355385
v 0.03096626 -0.02411403 0.00355385
v 0.03139698 -0.02369510 0.00355385
v 0.03181907 -0.02330448 0.00440358
v 0.03183058 -0.02331694 0.00525851
v 0.03144399 -0.02375737 0.00696839
v 0.03145934 -0.02375171 0.00782380
v 0.03145934 -0.02375285 0.00838997
v 0.03734938 -0.01262758 0.00723916
v 0.03707598 -0.01325483 0.00838997
v 0.03726975 -0.01262758 0.00440358
v 0.03697333 -0.01321068 0.00355385
v 0.03178933 -0.02327052 0.00355385
v 0.03217113 -0.02266025 0.00355385
v 0.03219511 -0.02266025 0.00440358
v 0.03225459 -0.02266025 0.00696839
v 0.03183730 -0.02332713 0.00611345
v 0.03183634 -0.02332939 0.00696839
v 0.03170683 -0.02346979 0.00838997
v 0.03732635 -0.01262758 0.00638186
v 0.03707406 -0.01325483 0.00782380
v 0.03690810 -0.01361035 0.00838997
v 0.03682081 -0.01378585 0.00782380
v 0.03596992 -0.01550117 0.00803067
v 0.03511039 -0.01720291 0.00810120
v 0.03424991 -0.01890012 0.00810309
v 0.03244836 -0.02213489 0.00355385
v 0.03338463 -0.02058487 0.00804297
v 0.03249441 -0.02223227 0.00745503
v 0.03249729 -0.02223679 0.00802499
v 0.03243781 -0.02234775 0.00838997
v 0.03227473 -0.02263873 0.00838997
v 0.03183154 -0.02332486 0.00838997
v 0.03682177 -0.01378925 0.00838997
v 0.03511039 -0.01720291 0.00838997
v 0.03424991 -0.01890012 0.00838997
v 0.03338463 -0.02058487 0.00838997
v 0.03271696 -0.02183259 0.00838997
v 0.03268147 -0.02189033 0.00777362
v 0.03249825 -0.02223906 0.00838997
f 1 2 6
f 1 6 7
f 1 7 3
f 1 3 8
f 1 8 17
f 1 17 28
f 1 28 42
f 1 42 41
f 1 41 40
f 1 40 49
f 1 49 47
f 1 47 46
f 1 46 45
f 1 45 44
f 1 44 43
f 1 43 31
f 1 31 19
f 1 19 9
f 1 9 4
f 1 4 5
f 1 5 2
f 2 5 10
f 2 10 21
f 2 21 36
f 2 36 23
f 2 23 22
f 2 22 12
f 2 12 11
f 2 11 6
f 3 7 8
f 4 9 18
f 4 18 29
f 4 29 20
f 4 20 10
f 4 10 5
f 6 11 7
f 7 11 12
f 7 12 13
f 7 13 14
f 7 14 15
f 7 15 16
f 7 16 8
f 8 16 17
f 9 19 18
f 10 20 21
f 12 22 13
f 13 22 23
f 13 23 24
f 13 24 25
f 13 25 14
f 14 26 15
f 14 25 26
f 15 26 16
f 16 26 17
f 17 26 27
f 17 27 28
f 18 19 30
f 18 30 29
f 19 31 30
f 20 29 21
f 21 29 30
f 21 30 32
f 21 32 33
f 21 33 34
f 21 34 35
f 21 35 36
f 23 36 24
f 24 36 37
f 24 37 38
f 24 38 25
f 25 38 39
f 25 39 40
f 25 40 41
f 25 41 26
f 26 41 27
f 27 42 28
f 27 41 42
f 30 31 32
f 31 43 32
f 32 43 33
f 33 44 34
f 33 43 44
f 34 44 45
f 34 45 35
f 35 37 36
f 35 45 46
f 35 46 37
f 37 46 47
f 37 47 39
f 37 39 48
f 37 48 38
f 38 48 39
f 39 49 40
f 39 47 49

