# https://github.com/mikedh/trimesh
v -0.03642219 0.01459512 0.07709060
v -0.03636022 0.01459512 0.07671396
v -0.03637921 0.01459512 0.07795591
v -0.03596540 0.01549285 0.07769868
v -0.03510579 0.01719357 0.07763977
v -0.03510579 0.01719357 0.07727155
v -0.03424418 0.01889006 0.07727891
v -0.03337957 0.02057948 0.07709060
v -0.03249697 0.02223639 0.07579499
v -0.03226408 0.02261385 0.07505277
v -0.03622528 0.01459512 0.07625684
v -0.03614532 0.01459512 0.07863343
v -0.03222809 0.02266051 0.08042666
v -0.03424418 0.01889006 0.07762714
v -0.03337857 0.02057524 0.07765187
v -0.03315667 0.02100643 0.07709060
v -0.03226908 0.02266616 0.07623528
v -0.03184927 0.02334193 0.07505277
v -0.03240002 0.02180661 0.07505277
v -0.03545963 0.01459512 0.07556144
v -0.03590643 0.01459512 0.07578026
v -0.03594641 0.01459512 0.07581708
v -0.03607535 0.01459512 0.07599909
v -0.03558857 0.01459512 0.07905531
v -0.03224409 0.02258134 0.08042666
v -0.03189125 0.02327690 0.08042666
v -0.03249997 0.02224204 0.07843091
v -0.03249997 0.02224204 0.07817579
v -0.03230606 0.02258134 0.07874968
v -0.03185426 0.02334334 0.08042666
v -0.03139447 0.02376888 0.07505277
v -0.03145545 0.02376464 0.07623528
v -0.03019902 0.02507800 0.07709060
v -0.02977021 0.02550495 0.07709060
v -0.02621183 0.02903648 0.07709060
v -0.03210215 0.02089051 0.07505277
v -0.03478493 0.01459512 0.07566085
v -0.03121356 0.02063179 0.07505277
v -0.03047189 0.02100360 0.07505277
v -0.03511878 0.01459512 0.07917892
v -0.03239802 0.02175006 0.08042666
v -0.03180729 0.02338576 0.08042666
v -0.02621183 0.02893186 0.07794486
v -0.02621183 0.02900962 0.07732731
v -0.03062682 0.02463126 0.07709060
v -0.03113159 0.02395974 0.07505277
v -0.02664663 0.02835930 0.07652827
v -0.02621183 0.02858125 0.07635679
v -0.03435813 0.01459512 0.07591492
v -0.03029097 0.02116760 0.07505277
v -0.03000810 0.02147579 0.07505277
v -0.03501183 0.01459512 0.07919365
v -0.03209915 0.02098381 0.08042666
v -0.03233805 0.02157052 0.08042666
v -0.03136549 0.02377171 0.08042666
v -0.02621183 0.02889227 0.07802324
v -0.03096767 0.02405728 0.07505277
v -0.02621183 0.02778956 0.07603223
v -0.03031596 0.02430610 0.07505277
v -0.03389834 0.01459512 0.07638151
v -0.02971424 0.02190133 0.07505277
v -0.03500484 0.01459512 0.07919365
v -0.03120556 0.02070248 0.08042666
v -0.03133050 0.02073499 0.08042666
v -0.03093868 0.02402618 0.08042666
v -0.02621183 0.02849784 0.07851771
v -0.02621183 0.02693566 0.07605380
v -0.02934640 0.02267889 0.07505277
v -0.02930142 0.02351582 0.07505277
v -0.02959729 0.02424531 0.07505277
v -0.03359947 0.01459512 0.07709060
v -0.02621183 0.02595028 0.07647935
v -0.02642673 0.02556574 0.07658298
v -0.02621183 0.02611286 0.07639098
v -0.03481692 0.01459512 0.07911369
v -0.03044690 0.02109833 0.08042666
v -0.03051687 0.02105874 0.08042666
v -0.03088071 0.02404173 0.08042666
v -0.02621183 0.02842857 0.07855137
v -0.03035794 0.02414352 0.08042666
v -0.03362446 0.01459512 0.07737781
v -0.02621183 0.02557705 0.07709060
v -0.02621183 0.02560957 0.07758243
v -0.03421919 0.01459512 0.07872707
v -0.03001910 0.02148145 0.08042666
v -0.02621183 0.02766232 0.07875915
v -0.03028498 0.02414635 0.08042666
v -0.02972323 0.02407283 0.08042666
v -0.03368943 0.01459512 0.07795223
v -0.02621183 0.02569015 0.07790804
v -0.03402928 0.01459512 0.07854138
v -0.03378939 0.01459512 0.07818368
v -0.02972223 0.02190699 0.08042666
v -0.02621183 0.02664443 0.07862607
v -0.02943336 0.02358227 0.08042666
v -0.02941237 0.02351582 0.08042666
v -0.02939538 0.02266616 0.08042666
v -0.02621183 0.02578063 0.07806480
v -0.02621183 0.02586546 0.07819525
v -0.02621183 0.02624151 0.07849088
v -0.02968525 0.02198191 0.08042666
v -0.02621183 0.02628675 0.07850771
f 1 2 11
f 1 11 23
f 1 23 22
f 1 22 21
f 1 21 20
f 1 20 37
f 1 37 49
f 1 49 60
f 1 60 71
f 1 71 81
f 1 81 89
f 1 89 92
f 1 92 91
f 1 91 84
f 1 84 75
f 1 75 62
f 1 62 52
f 1 52 40
f 1 40 24
f 1 24 12
f 1 12 3
f 1 3 4
f 1 4 5
f 1 5 6
f 1 6 7
f 1 7 8
f 1 8 9
f 1 9 10
f 1 10 2
f 2 10 11
f 3 12 13
f 3 13 4
f 4 13 5
f 5 13 14
f 5 14 7
f 5 7 6
f 7 14 8
f 8 14 15
f 8 15 16
f 8 16 9
f 9 17 10
f 9 16 17
f 10 17 18
f 10 18 31
f 10 31 46
f 10 46 57
f 10 57 59
f 10 59 70
f 10 70 69
f 10 69 68
f 10 68 61
f 10 61 51
f 10 51 50
f 10 50 39
f 10 39 38
f 10 38 36
f 10 36 19
f 10 19 20
f 10 20 21
f 10 21 22
f 10 22 23
f 10 23 11
f 12 24 25
f 12 25 13
f 13 25 41
f 13 41 54
f 13 54 53
f 13 53 64
f 13 64 63
f 13 63 77
f 13 77 76
f 13 76 85
f 13 85 93
f 13 93 101
f 13 101 97
f 13 97 96
f 13 96 95
f 13 95 88
f 13 88 87
f 13 87 80
f 13 80 78
f 13 78 65
f 13 65 55
f 13 55 42
f 13 42 30
f 13 30 26
f 13 26 27
f 13 27 15
f 13 15 14
f 15 27 16
f 16 27 28
f 16 28 17
f 17 28 27
f 17 27 29
f 17 29 30
f 17 30 18
f 18 30 32
f 18 32 33
f 18 33 34
f 18 34 35
f 18 35 31
f 19 36 20
f 20 36 38
f 20 38 39
f 20 39 37
f 24 40 41
f 24 41 25
f 26 29 27
f 26 30 29
f 30 42 43
f 30 43 44
f 30 44 35
f 30 35 34
f 30 34 33
f 30 33 45
f 30 45 32
f 31 35 47
f 31 47 48
f 31 48 46
f 32 45 33
f 35 44 43
f 35 43 56
f 35 56 66
f 35 66 79
f 35 79 86
f 35 86 94
f 35 94 102
f 35 102 100
f 35 100 99
f 35 99 98
f 35 98 90
f 35 90 83
f 35 83 82
f 35 82 72
f 35 72 74
f 35 74 67
f 35 67 58
f 35 58 48
f 35 48 47
f 37 39 50
f 37 50 51
f 37 51 49
f 40 52 53
f 40 53 54
f 40 54 41
f 42 55 43
f 43 55 56
f 46 48 57
f 48 58 59
f 48 59 57
f 49 51 60
f 51 61 60
f 52 62 63
f 52 63 64
f 52 64 53
f 55 65 66
f 55 66 56
f 58 67 68
f 58 68 69
f 58 69 70
f 58 70 59
f 60 61 72
f 60 72 73
f 60 73 71
f 61 68 74
f 61 74 72
f 62 75 76
f 62 76 77
f 62 77 63
f 65 78 66
f 66 78 80
f 66 80 79
f 67 74 68
f 71 73 82
f 71 82 83
f 71 83 81
f 72 82 73
f 75 84 85
f 75 85 76
f 79 80 87
f 79 87 88
f 79 88 86
f 81 83 89
f 83 90 89
f 84 91 85
f 85 91 92
f 85 92 93
f 86 88 95
f 86 95 96
f 86 96 97
f 86 97 94
f 89 90 93
f 89 93 92
f 90 98 93
f 93 98 99
f 93 99 100
f 93 100 101
f 94 97 102
f 97 101 100
f 97 100 102

