# https://github.com/mikedh/trimesh
v -0.02450969 0.02724771 0.00867855
v -0.02452021 0.02724771 0.00851730
v -0.02474011 0.02724771 0.00914275
v -0.03000922 0.02147681 0.01171509
v -0.03145102 0.01882309 0.00867855
v -0.03146059 0.01882309 0.00790130
v -0.02456897 0.02724771 0.00782383
v -0.02478791 0.02724771 0.00919566
v -0.02971378 0.02190398 0.01171509
v -0.03026163 0.02120138 0.01171509
v -0.03157819 0.01882309 0.00908922
v -0.03164894 0.01882309 0.00741569
v -0.03003790 0.02150898 0.00528173
v -0.03003025 0.02151970 0.00528173
v -0.02973959 0.02193615 0.00528173
v -0.02467605 0.02724771 0.00764117
v -0.02503172 0.02724771 0.00937076
v -0.02935524 0.02267668 0.01171509
v -0.03046815 0.02101501 0.01171509
v -0.03160496 0.01882309 0.00915409
v -0.03046528 0.02110572 0.00528173
v -0.03004937 0.02149743 0.00528173
v -0.03211361 0.01882309 0.00702517
v -0.02942217 0.02266348 0.00528173
v -0.02488257 0.02724771 0.00733758
v -0.02577366 0.02724771 0.00966806
v -0.02960956 0.02422949 0.01171509
v -0.02931221 0.02351617 0.01171509
v -0.03121200 0.02063485 0.01171509
v -0.03203903 0.01882309 0.00956098
v -0.03178757 0.01882309 0.00934368
v -0.03121774 0.02070659 0.00528173
v -0.03289379 0.01882309 0.00681291
v -0.02940782 0.02349638 0.00528173
v -0.02527744 0.02724771 0.00714799
v -0.02662651 0.02724771 0.00966301
v -0.03032186 0.02429052 0.01171509
v -0.03209162 0.02089461 0.01171509
v -0.03291674 0.01882309 0.00979151
v -0.03244060 0.01882309 0.00976190
v -0.03197115 0.02092595 0.00528173
v -0.03371509 0.01882309 0.00713855
v -0.02940878 0.02351617 0.00528173
v -0.02608248 0.02724771 0.00697982
v -0.02972143 0.02404972 0.00528173
v -0.02744016 0.02724771 0.00935187
v -0.03096532 0.02405385 0.01171509
v -0.03239566 0.02180667 0.01171509
v -0.03374186 0.01882309 0.00942808
v -0.03338045 0.01882309 0.00964223
v -0.03232778 0.02180833 0.00528173
v -0.03411570 0.01882309 0.00759708
v -0.02692481 0.02724771 0.00707115
v -0.03035724 0.02411157 0.00528173
v -0.02758835 0.02724771 0.00925613
v -0.03115654 0.02394087 0.01171509
v -0.03225989 0.02261978 0.01171509
v -0.03415107 0.01882309 0.00895254
v -0.03409466 0.01882309 0.00905835
v -0.03218914 0.02266184 0.00528173
v -0.03427345 0.01882309 0.00805877
v -0.02754915 0.02724771 0.00729538
v -0.03091465 0.02401014 0.00528173
v -0.02789048 0.02724771 0.00880263
v -0.03139270 0.02376934 0.01171509
v -0.02795359 0.02724771 0.00867855
v -0.03231248 0.02257937 0.00951500
v -0.03249796 0.02223879 0.00921708
v -0.03338523 0.02058619 0.00853242
v -0.03424955 0.01890143 0.00843038
v -0.03427728 0.01882309 0.00847574
v -0.03421895 0.01882309 0.00870059
v -0.03184972 0.02334135 0.01171509
v -0.03424955 0.01890143 0.00810349
v -0.03338523 0.02058619 0.00804365
v -0.03225320 0.02266184 0.00696912
v -0.03182964 0.02331661 0.00528173
v -0.02790960 0.02724771 0.00782383
v -0.03133056 0.02375202 0.00528173
v -0.03134203 0.02374460 0.00528173
v -0.02791917 0.02724771 0.00800082
v -0.02974246 0.02548214 0.00782383
v -0.03018514 0.02505497 0.00782383
v -0.02975872 0.02549533 0.00867855
v -0.03225893 0.02266843 0.00867855
v -0.03249892 0.02224126 0.00867855
v -0.03185068 0.02334052 0.01124396
v -0.03273316 0.02180667 0.00867855
v -0.03019566 0.02506816 0.00867855
v -0.03062304 0.02463357 0.00867855
v -0.03103129 0.02420640 0.00867855
v -0.03249701 0.02223797 0.00801720
v -0.03268153 0.02189161 0.00776903
v -0.03249414 0.02223302 0.00744718
v -0.03183634 0.02332650 0.00611377
v -0.03144338 0.02375697 0.00696912
v -0.03061348 0.02463027 0.00782383
v -0.03184972 0.02334052 0.01038924
v -0.03103034 0.02420228 0.00782383
v -0.03145868 0.02375202 0.00782383
f 1 2 7
f 1 7 16
f 1 16 25
f 1 25 35
f 1 35 44
f 1 44 53
f 1 53 62
f 1 62 78
f 1 78 81
f 1 81 66
f 1 66 64
f 1 64 55
f 1 55 46
f 1 46 36
f 1 36 26
f 1 26 17
f 1 17 8
f 1 8 3
f 1 3 4
f 1 4 5
f 1 5 6
f 1 6 2
f 2 6 7
f 3 8 9
f 3 9 4
f 4 9 18
f 4 18 28
f 4 28 27
f 4 27 37
f 4 37 47
f 4 47 56
f 4 56 65
f 4 65 73
f 4 73 57
f 4 57 48
f 4 48 38
f 4 38 29
f 4 29 19
f 4 19 10
f 4 10 11
f 4 11 5
f 5 11 20
f 5 20 31
f 5 31 30
f 5 30 40
f 5 40 39
f 5 39 50
f 5 50 49
f 5 49 59
f 5 59 58
f 5 58 72
f 5 72 71
f 5 71 61
f 5 61 52
f 5 52 42
f 5 42 33
f 5 33 23
f 5 23 12
f 5 12 6
f 6 12 13
f 6 13 7
f 7 13 14
f 7 14 15
f 7 15 16
f 8 17 18
f 8 18 9
f 10 19 20
f 10 20 11
f 12 21 22
f 12 22 13
f 12 23 21
f 13 22 21
f 13 21 32
f 13 32 41
f 13 41 51
f 13 51 60
f 13 60 77
f 13 77 80
f 13 80 79
f 13 79 63
f 13 63 54
f 13 54 45
f 13 45 43
f 13 43 34
f 13 34 24
f 13 24 15
f 13 15 14
f 15 24 25
f 15 25 16
f 17 26 27
f 17 27 28
f 17 28 18
f 19 29 30
f 19 30 31
f 19 31 20
f 21 23 32
f 23 33 32
f 24 34 35
f 24 35 25
f 26 36 37
f 26 37 27
f 29 38 39
f 29 39 40
f 29 40 30
f 32 33 41
f 33 42 41
f 34 43 35
f 35 43 45
f 35 45 44
f 36 46 37
f 37 46 47
f 38 48 49
f 38 49 50
f 38 50 39
f 41 42 51
f 42 52 51
f 44 45 54
f 44 54 53
f 46 55 47
f 47 55 56
f 48 57 58
f 48 58 59
f 48 59 49
f 51 52 60
f 52 61 60
f 53 54 63
f 53 63 62
f 55 64 56
f 56 64 66
f 56 66 65
f 57 67 68
f 57 68 69
f 57 69 70
f 57 70 71
f 57 71 72
f 57 72 58
f 57 73 67
f 60 61 74
f 60 74 75
f 60 75 76
f 60 76 77
f 61 71 74
f 62 63 79
f 62 79 80
f 62 80 78
f 65 66 73
f 66 81 82
f 66 82 83
f 66 83 84
f 66 84 73
f 67 85 86
f 67 86 68
f 67 73 87
f 67 87 85
f 68 86 88
f 68 88 69
f 69 88 75
f 69 75 74
f 69 74 70
f 70 74 71
f 73 84 89
f 73 89 90
f 73 90 91
f 73 91 87
f 75 88 92
f 75 92 93
f 75 93 94
f 75 94 76
f 76 94 92
f 76 92 86
f 76 86 85
f 76 85 95
f 76 95 77
f 77 95 96
f 77 96 97
f 77 97 83
f 77 83 82
f 77 82 78
f 77 78 80
f 78 82 81
f 83 89 84
f 83 97 89
f 85 87 98
f 85 98 95
f 86 92 88
f 87 91 98
f 89 97 90
f 90 97 99
f 90 99 91
f 91 99 100
f 91 100 98
f 92 94 93
f 95 98 100
f 95 100 96
f 96 100 99
f 96 99 97

