# https://github.com/mikedh/trimesh
v 0.00000654 -0.02991725 0.00203719
v 0.00000654 -0.03013395 0.00220419
v 0.00000654 -0.02991725 0.00012374
v -0.00136913 -0.02991725 0.00232944
v 0.00000654 -0.03672468 0.00387201
v 0.00000654 -0.02998393 0.00007977
v -0.00166744 -0.02991725 -0.00012011
v -0.00210627 -0.02991725 0.00240539
v 0.00000654 -0.03937597 0.00387201
v -0.02134838 -0.02991725 0.00387201
v 0.00000654 -0.03031360 -0.00013076
v 0.00000654 -0.03053123 -0.00022582
v 0.00000654 -0.03074144 -0.00031420
v -0.01198742 -0.02991725 -0.00059624
v -0.00042983 -0.03937690 0.00387201
v 0.00000654 -0.03936764 0.00362062
v -0.02483933 -0.02991725 0.00387201
v 0.00000654 -0.03121280 -0.00043412
v -0.01154612 -0.03035806 -0.00064555
v -0.01284043 -0.02991725 -0.00061179
v 0.00000654 -0.03206848 -0.00059314
v -0.00074046 -0.03934541 0.00387201
v -0.00039531 -0.03936764 0.00362328
v -0.00008714 -0.03934634 0.00303610
v 0.00000654 -0.03934634 0.00303610
v -0.02501437 -0.02991725 0.00346027
v -0.02409232 -0.03095906 0.00387201
v -0.01240160 -0.03035806 -0.00065398
v -0.01369345 -0.02991725 -0.00059802
v 0.00000654 -0.03292323 -0.00060068
v -0.01069064 -0.03121280 -0.00066465
v -0.00605084 -0.03849066 0.00224461
v -0.00213832 -0.03906667 0.00269277
v -0.01149928 -0.03764055 0.00387201
v -0.00128284 -0.03917409 0.00269277
v -0.00039531 -0.03927318 0.00272785
v 0.00000654 -0.03927411 0.00272785
v -0.02517955 -0.02991725 0.00269277
v -0.02492315 -0.03006357 0.00339676
v -0.02397152 -0.03112112 0.00387201
v -0.01154612 -0.03121280 -0.00066553
v -0.01325461 -0.03035806 -0.00062867
v -0.01882632 -0.02991725 -0.00045722
v -0.01454893 -0.02991725 -0.00057848
v -0.00042983 -0.03292323 -0.00060379
v 0.00000654 -0.03634315 -0.00014587
v -0.00306529 -0.03626999 -0.00024980
v -0.00384928 -0.03641075 -0.00025424
v -0.00470476 -0.03606996 -0.00032353
v -0.00336853 -0.03847214 0.00142557
v -0.00556023 -0.03852864 0.00217310
v -0.01131684 -0.03765907 0.00354777
v -0.00983516 -0.03786836 0.00269277
v -0.01104319 -0.03760906 0.00240228
v -0.01047369 -0.03766926 0.00215933
v -0.00983516 -0.03773408 0.00202874
v -0.00983516 -0.03752294 0.00160191
v -0.01176554 -0.03759332 0.00387201
v -0.00384928 -0.03865736 0.00193325
v -0.00213832 -0.03882682 0.00183776
v -0.00042983 -0.03894351 0.00183776
v -0.00128284 -0.03889720 0.00183776
v 0.00000654 -0.03894443 0.00183776
v -0.02509079 -0.02991725 0.00227525
v -0.02498232 -0.03011358 0.00269277
v -0.02371266 -0.03138690 0.00387201
v -0.01240160 -0.03121280 -0.00063844
v -0.00128284 -0.03292323 -0.00059847
v -0.00983516 -0.03206848 -0.00061046
v -0.00556023 -0.03608385 -0.00032709
v -0.00641571 -0.03603106 -0.00032353
v -0.00706657 -0.03598106 -0.00031864
v -0.01806946 -0.03173417 -0.00031420
v -0.01923064 -0.02991725 -0.00043723
v 0.00000654 -0.03674320 0.00002158
v -0.00470476 -0.03649780 -0.00025335
v -0.00510907 -0.03762110 0.00056257
v -0.00279903 -0.03851752 0.00136162
v -0.00304804 -0.03868328 0.00176092
v -0.01174581 -0.03758221 0.00354777
v -0.01119851 -0.03764240 0.00297259
v -0.01073009 -0.03770537 0.00268966
v -0.01150914 -0.03754424 0.00268966
v -0.01240160 -0.03728031 0.00269277
v -0.01304999 -0.03687192 0.00208471
v -0.01154612 -0.03723123 0.00183776
v -0.01073009 -0.03745441 0.00185952
v -0.00983516 -0.03709510 0.00107913
v -0.00812421 -0.03693952 0.00039201
v -0.01204905 -0.03679691 0.00138738
v -0.01154612 -0.03687377 0.00132386
v -0.01069064 -0.03699694 0.00121460
v -0.01240160 -0.03738218 0.00387201
v -0.01240160 -0.03736551 0.00354777
v -0.00213832 -0.03855642 0.00132297
v -0.00128284 -0.03857679 0.00131720
v 0.00000654 -0.03857864 0.00132742
v -0.02500450 -0.02991725 0.00198300
v -0.02491822 -0.03004134 0.00205362
v -0.02454102 -0.03054049 0.00269277
v -0.02370033 -0.03139616 0.00354777
v -0.02328368 -0.03180270 0.00387201
v -0.00556023 -0.03651169 -0.00024625
v -0.00641571 -0.03645890 -0.00020583
v -0.00763606 -0.03588290 -0.00029466
v -0.01659764 -0.03284266 -0.00023870
v -0.01836530 -0.03203884 -0.00020272
v -0.01863895 -0.03151377 -0.00027689
v -0.01892740 -0.03094332 -0.00032886
v -0.02139029 -0.02991725 -0.00006236
v 0.00000654 -0.03713214 0.00018459
v -0.00299380 -0.03719789 0.00013307
v -0.00384928 -0.03719789 0.00010953
v -0.00726873 -0.03701824 0.00029741
v -0.00453711 -0.03767018 0.00050971
v -0.01330145 -0.03690989 0.00275983
v -0.01361949 -0.03674135 0.00251954
v -0.01236215 -0.03697194 0.00181466
v -0.01482012 -0.03604310 0.00198078
v -0.01419391 -0.03621905 0.00175248
v -0.01453660 -0.03591531 0.00141092
v -0.00879725 -0.03685062 0.00048173
v -0.00904132 -0.03642001 0.00022057
v -0.00812421 -0.03634315 -0.00001351
v -0.01261855 -0.03667930 0.00151485
v -0.01396464 -0.03603847 0.00129499
v -0.01517020 -0.03499574 0.00063319
v -0.01459823 -0.03507815 0.00053992
v -0.01292179 -0.03713955 0.00387201
v -0.01368852 -0.03677376 0.00308940
v -0.00384928 -0.03769241 0.00049195
v -0.02471852 -0.02991725 0.00150463
v -0.02403809 -0.03087201 0.00211047
v -0.02411205 -0.03094054 0.00269277
v -0.02327136 -0.03179159 0.00354777
v -0.02265995 -0.03218701 0.00387201
v -0.02265995 -0.03217868 0.00354777
v -0.00556023 -0.03715437 0.00018148
v -0.00641571 -0.03708306 0.00022145
v -0.00731803 -0.03629684 -0.00016097
v -0.01581858 -0.03377890 -0.00003705
v -0.01496311 -0.03377890 -0.00013698
v -0.01752954 -0.03292323 -0.00008679
v -0.01924050 -0.03206848 0.00004468
v -0.02009351 -0.03121280 -0.00001928
v -0.02094899 -0.03035806 -0.00005215
v -0.02227535 -0.02991725 0.00014373
v -0.00477625 -0.03728124 0.00022323
v -0.01402627 -0.03657003 0.00275983
v -0.01492859 -0.03611441 0.00269277
v -0.01652614 -0.03520039 0.00204607
v -0.01504939 -0.03582548 0.00175248
v -0.01990615 -0.03348071 0.00202608
v -0.02133359 -0.03245927 0.00146155
v -0.01872524 -0.03329643 0.00062964
v -0.01643985 -0.03430583 0.00045686
v -0.01491626 -0.03467903 0.00030274
v -0.01581858 -0.03444566 0.00034760
v -0.01368852 -0.03677376 0.00314714
v -0.02214222 -0.03245557 0.00354777
v -0.02094899 -0.03304824 0.00269277
v -0.02043866 -0.03330939 0.00269277
v -0.02466921 -0.02991725 0.00145533
v -0.02381127 -0.03069606 0.00154106
v -0.02315549 -0.03169435 0.00217798
v -0.02364609 -0.03136838 0.00269277
v -0.02321712 -0.03174528 0.00269277
v -0.02265995 -0.03209996 0.00269277
v -0.02210524 -0.03242223 0.00269277
v -0.02167627 -0.03266208 0.00269277
v -0.01670365 -0.03383446 0.00020635
v -0.01752954 -0.03359647 0.00030674
v -0.01841707 -0.03297601 0.00023522
v -0.01924050 -0.03269356 0.00040267
v -0.02003681 -0.03204162 0.00036359
v -0.02287937 -0.02991725 0.00039690
v -0.01822477 -0.03434379 0.00206028
v -0.02155054 -0.03259355 0.00203141
v -0.02100816 -0.03278339 0.00178268
v -0.02286211 -0.03146376 0.00160812
v -0.02229261 -0.03168324 0.00137761
v -0.01971385 -0.03252873 0.00052882
v -0.01815328 -0.03344274 0.00045331
v -0.02426736 -0.02991725 0.00114797
v -0.02417368 -0.03012654 0.00126435
v -0.02360665 -0.02991725 0.00078509
v -0.02395919 -0.02991725 0.00097520
f 1 2 5
f 1 5 9
f 1 9 16
f 1 16 25
f 1 25 37
f 1 37 63
f 1 63 97
f 1 97 111
f 1 111 75
f 1 75 46
f 1 46 30
f 1 30 21
f 1 21 18
f 1 18 13
f 1 13 12
f 1 12 11
f 1 11 6
f 1 6 3
f 1 3 7
f 1 7 14
f 1 14 20
f 1 20 29
f 1 29 44
f 1 44 43
f 1 43 74
f 1 74 110
f 1 110 147
f 1 147 176
f 1 176 186
f 1 186 187
f 1 187 184
f 1 184 163
f 1 163 132
f 1 132 98
f 1 98 64
f 1 64 38
f 1 38 26
f 1 26 17
f 1 17 10
f 1 10 8
f 1 8 4
f 1 4 2
f 2 4 5
f 3 6 7
f 4 8 5
f 5 8 10
f 5 10 17
f 5 17 27
f 5 27 40
f 5 40 66
f 5 66 102
f 5 102 136
f 5 136 129
f 5 129 93
f 5 93 58
f 5 58 34
f 5 34 22
f 5 22 15
f 5 15 9
f 6 11 7
f 7 11 12
f 7 12 13
f 7 13 14
f 9 15 16
f 13 18 14
f 14 19 20
f 14 18 21
f 14 21 19
f 15 22 23
f 15 23 24
f 15 24 25
f 15 25 16
f 17 26 27
f 19 28 20
f 19 21 28
f 20 28 29
f 21 30 31
f 21 31 28
f 22 32 33
f 22 33 23
f 22 34 32
f 23 33 35
f 23 35 24
f 24 36 37
f 24 37 25
f 24 35 36
f 26 38 39
f 26 39 40
f 26 40 27
f 28 31 41
f 28 41 42
f 28 42 43
f 28 43 44
f 28 44 29
f 30 45 31
f 30 46 47
f 30 47 48
f 30 48 49
f 30 49 45
f 31 45 41
f 32 50 51
f 32 51 35
f 32 35 33
f 32 34 52
f 32 52 53
f 32 53 54
f 32 54 55
f 32 55 56
f 32 56 57
f 32 57 50
f 34 58 52
f 35 51 59
f 35 59 60
f 35 60 36
f 36 61 37
f 36 60 62
f 36 62 61
f 37 61 63
f 38 64 65
f 38 65 66
f 38 66 40
f 38 40 39
f 41 67 42
f 41 45 68
f 41 68 69
f 41 69 70
f 41 70 71
f 41 71 72
f 41 72 67
f 42 67 43
f 43 73 74
f 43 67 73
f 45 49 70
f 45 70 68
f 46 75 76
f 46 76 48
f 46 48 47
f 48 76 49
f 49 76 70
f 50 77 78
f 50 78 79
f 50 79 59
f 50 59 51
f 50 57 77
f 52 58 80
f 52 80 53
f 53 80 81
f 53 81 82
f 53 82 54
f 54 82 81
f 54 81 83
f 54 83 84
f 54 84 85
f 54 85 86
f 54 86 55
f 55 86 87
f 55 87 57
f 55 57 56
f 57 88 89
f 57 89 77
f 57 87 86
f 57 86 90
f 57 90 91
f 57 91 92
f 57 92 88
f 58 93 94
f 58 94 80
f 59 79 60
f 60 78 95
f 60 95 62
f 60 79 78
f 61 62 95
f 61 95 96
f 61 96 63
f 63 96 97
f 64 98 99
f 64 99 65
f 65 99 100
f 65 100 101
f 65 101 66
f 66 101 102
f 67 72 73
f 68 70 69
f 70 76 103
f 70 103 71
f 71 103 72
f 72 103 104
f 72 104 105
f 72 105 106
f 72 106 73
f 73 106 107
f 73 107 108
f 73 108 109
f 73 109 74
f 74 109 110
f 75 111 76
f 76 111 112
f 76 112 113
f 76 113 103
f 77 89 114
f 77 114 115
f 77 115 78
f 78 115 95
f 80 94 84
f 80 84 83
f 80 83 81
f 84 94 116
f 84 116 117
f 84 117 85
f 85 118 86
f 85 117 119
f 85 119 120
f 85 120 121
f 85 121 118
f 86 118 90
f 88 92 122
f 88 122 89
f 89 122 123
f 89 123 124
f 89 124 114
f 90 118 125
f 90 125 121
f 90 121 126
f 90 126 127
f 90 127 128
f 90 128 122
f 90 122 91
f 91 122 92
f 93 129 130
f 93 130 94
f 94 130 116
f 95 115 131
f 95 131 96
f 96 131 97
f 97 131 111
f 98 132 99
f 99 132 133
f 99 133 134
f 99 134 100
f 100 134 101
f 101 135 102
f 101 134 135
f 102 135 137
f 102 137 136
f 103 138 104
f 103 113 138
f 104 139 114
f 104 114 124
f 104 124 140
f 104 140 105
f 104 138 139
f 105 140 141
f 105 141 142
f 105 142 106
f 106 142 141
f 106 141 143
f 106 143 107
f 107 143 144
f 107 144 145
f 107 145 146
f 107 146 108
f 108 146 110
f 108 110 109
f 110 146 147
f 111 131 112
f 112 131 113
f 113 131 115
f 113 115 148
f 113 148 138
f 114 139 115
f 115 139 138
f 115 138 148
f 116 130 117
f 117 130 149
f 117 149 150
f 117 150 151
f 117 151 119
f 118 121 125
f 119 152 121
f 119 121 120
f 119 151 153
f 119 153 152
f 121 127 126
f 121 152 153
f 121 153 154
f 121 154 155
f 121 155 156
f 121 156 127
f 122 128 157
f 122 157 123
f 123 157 124
f 124 157 141
f 124 141 140
f 127 158 128
f 127 156 158
f 128 158 157
f 129 159 130
f 129 136 159
f 130 150 149
f 130 159 160
f 130 160 161
f 130 161 162
f 130 162 150
f 132 163 164
f 132 164 165
f 132 165 133
f 133 165 166
f 133 166 134
f 134 166 135
f 135 167 168
f 135 168 137
f 135 166 167
f 136 137 160
f 136 160 159
f 137 168 169
f 137 169 170
f 137 170 160
f 141 157 158
f 141 158 171
f 141 171 143
f 143 171 172
f 143 172 173
f 143 173 144
f 144 173 174
f 144 174 175
f 144 175 147
f 144 147 145
f 145 147 146
f 147 175 176
f 150 162 177
f 150 177 151
f 151 177 153
f 153 177 162
f 153 162 161
f 153 161 170
f 153 170 178
f 153 178 179
f 153 179 154
f 154 179 178
f 154 178 165
f 154 165 180
f 154 180 181
f 154 181 182
f 154 182 155
f 155 182 174
f 155 174 183
f 155 183 156
f 156 183 172
f 156 172 158
f 158 172 171
f 160 170 161
f 163 184 185
f 163 185 164
f 164 180 165
f 164 185 181
f 164 181 180
f 165 168 167
f 165 167 166
f 165 178 168
f 168 178 169
f 169 178 170
f 172 183 173
f 173 183 174
f 174 182 175
f 175 182 176
f 176 182 186
f 181 185 184
f 181 184 182
f 182 184 187
f 182 187 186

