# https://github.com/mikedh/trimesh
v 0.02018125 -0.02419328 0.00131478
v 0.02018125 -0.02419328 0.00054726
v 0.02003511 -0.02419328 0.00167298
v 0.02018125 -0.02514731 0.00168372
v 0.02018125 -0.02437830 0.00031533
v 0.02009238 -0.02419328 0.00031361
v 0.01944070 -0.02419328 0.00203419
v 0.02018125 -0.02608205 0.00200627
v 0.02018125 -0.02597933 0.00197406
v 0.02018125 -0.02445435 0.00026895
v 0.01923926 -0.02419328 0.00000867
v 0.02018125 -0.02553892 -0.00035297
v 0.01928666 -0.02419328 0.00210634
v 0.01888380 -0.02419328 0.00229318
v 0.02018125 -0.02999068 0.00260156
v 0.01838417 -0.02419328 -0.00018546
v 0.02018125 -0.02608205 -0.00051489
v 0.01864484 -0.02419328 0.00237221
v 0.02018125 -0.02999068 -0.00020866
v 0.01843946 -0.02419328 0.00241859
v 0.01752907 -0.02419328 0.00257493
v 0.01667398 -0.02419328 0.00266427
v 0.00726991 -0.02419328 0.00354044
v 0.00659255 -0.02419328 0.00360014
v 0.00555972 -0.02419328 0.00367488
v 0.00470068 -0.02419328 0.00370838
v 0.00250468 -0.02999068 0.00245381
v 0.01820644 -0.02419328 -0.00018718
v 0.02018125 -0.02693733 -0.00066693
v 0.01752907 -0.02419328 -0.00019190
v 0.01998969 -0.02999068 -0.00027050
v 0.02018125 -0.02872507 -0.00049084
v 0.00383768 -0.02419328 0.00365941
v 0.00000852 -0.02588284 0.00318439
v 0.00154492 -0.02999068 0.00236490
v 0.02018125 -0.02779204 -0.00067037
v 0.02009436 -0.02779204 -0.00067896
v 0.01923926 -0.02779204 -0.00067939
v 0.02009436 -0.02693733 -0.00066607
v 0.01735134 -0.02419328 -0.00018418
v 0.01922939 -0.02999068 -0.00042384
v 0.00315045 -0.02419328 0.00354645
v 0.00000852 -0.02518477 0.00317752
v 0.00000852 -0.02999068 0.00209475
v 0.01923926 -0.02864675 -0.00064588
v 0.01923926 -0.02950203 -0.00050544
v 0.01239851 -0.02999068 -0.00061067
v 0.00213934 -0.02999068 -0.00015798
v 0.01667398 -0.02419328 -0.00014810
v 0.01838417 -0.02999068 -0.00045004
v 0.00233090 -0.02419328 0.00333342
v 0.00000852 -0.02487206 0.00310107
v 0.00000852 -0.02999068 0.00007481
v 0.01325360 -0.02999068 -0.00060337
v 0.00000852 -0.02522677 0.00075815
v 0.01581888 -0.02419328 -0.00009785
v 0.00218081 -0.02419328 0.00325311
v 0.00000852 -0.02452586 0.00276649
v 0.00000852 -0.02477217 0.00300486
v 0.00000852 -0.02490327 0.00095958
v 0.00384953 -0.02419328 0.00094584
v 0.00470463 -0.02419328 0.00086810
v 0.00177795 -0.02419328 0.00302118
v 0.00000852 -0.02424039 0.00183748
v 0.00130202 -0.02419328 0.00270936
v 0.00000852 -0.02457126 0.00116746
v 0.00300629 -0.02419328 0.00106094
v 0.00068193 -0.02419328 0.00182932
v 0.00223216 -0.02419328 0.00121857
f 1 2 6
f 1 6 11
f 1 11 16
f 1 16 28
f 1 28 30
f 1 30 40
f 1 40 49
f 1 49 56
f 1 56 62
f 1 62 61
f 1 61 67
f 1 67 69
f 1 69 68
f 1 68 65
f 1 65 63
f 1 63 57
f 1 57 51
f 1 51 42
f 1 42 33
f 1 33 26
f 1 26 25
f 1 25 24
f 1 24 23
f 1 23 22
f 1 22 21
f 1 21 20
f 1 20 18
f 1 18 14
f 1 14 13
f 1 13 7
f 1 7 3
f 1 3 4
f 1 4 9
f 1 9 8
f 1 8 15
f 1 15 19
f 1 19 32
f 1 32 36
f 1 36 29
f 1 29 17
f 1 17 12
f 1 12 10
f 1 10 5
f 1 5 2
f 2 5 6
f 3 7 8
f 3 8 9
f 3 9 4
f 5 10 6
f 6 10 12
f 6 12 11
f 7 13 8
f 8 13 14
f 8 14 15
f 11 12 16
f 12 17 16
f 14 18 15
f 15 18 20
f 15 20 21
f 15 21 22
f 15 22 23
f 15 23 24
f 15 24 25
f 15 25 26
f 15 26 27
f 15 27 35
f 15 35 44
f 15 44 53
f 15 53 48
f 15 48 47
f 15 47 54
f 15 54 50
f 15 50 41
f 15 41 31
f 15 31 19
f 16 17 28
f 17 29 30
f 17 30 28
f 19 31 32
f 26 33 34
f 26 34 27
f 27 34 35
f 29 36 37
f 29 37 38
f 29 38 39
f 29 39 30
f 30 39 40
f 31 41 32
f 32 41 36
f 33 42 43
f 33 43 34
f 34 43 52
f 34 52 59
f 34 59 58
f 34 58 64
f 34 64 66
f 34 66 60
f 34 60 55
f 34 55 53
f 34 53 44
f 34 44 35
f 36 45 37
f 36 41 46
f 36 46 45
f 37 45 47
f 37 47 38
f 38 47 39
f 39 47 48
f 39 48 40
f 40 48 49
f 41 50 46
f 42 51 52
f 42 52 43
f 45 46 54
f 45 54 47
f 46 50 54
f 48 53 55
f 48 55 56
f 48 56 49
f 51 57 58
f 51 58 59
f 51 59 52
f 55 60 61
f 55 61 62
f 55 62 56
f 57 63 58
f 58 63 65
f 58 65 64
f 60 66 61
f 61 66 67
f 64 65 68
f 64 68 69
f 64 69 66
f 66 69 67

