# https://github.com/mikedh/trimesh
v -0.03399578 0.01882309 0.00224389
v -0.03389096 0.01882309 0.00178949
v -0.03042672 0.01882309 0.00224389
v -0.03349231 0.01993901 0.00224389
v -0.03347887 0.01990483 0.00201897
v -0.03366252 0.01929835 0.00177554
v -0.03346633 0.01905245 0.00119786
v -0.03351919 0.01882309 0.00110504
v -0.02522722 0.01882309 0.00223677
v -0.02514301 0.02514591 0.00224389
v -0.03261169 0.02158533 0.00224389
v -0.03259019 0.02154673 0.00204317
v -0.03277832 0.02100421 0.00178977
v -0.03244865 0.02132399 0.00147289
v -0.03332747 0.01962254 0.00144898
v -0.03334450 0.01882309 0.00079841
v -0.02484380 0.01882309 0.00222794
v -0.02484380 0.02551310 0.00224389
v -0.03169076 0.02315225 0.00224389
v -0.03168628 0.02314673 0.00219207
v -0.03167553 0.02228333 0.00138349
v -0.03251494 0.01969532 0.00054017
v -0.03261528 0.02075390 0.00127416
v -0.03326656 0.01882309 0.00068139
v -0.03145874 0.02285342 0.00162179
v -0.02484380 0.01882309 -0.00031425
v -0.02484380 0.03008705 0.00224389
v -0.03087554 0.02404432 0.00224389
v -0.03086121 0.02402888 0.00212630
v -0.03068562 0.02380724 0.00155631
v -0.03011586 0.02414356 0.00126733
v -0.02898351 0.02465521 0.00063897
v -0.03267978 0.01924101 0.00042259
v -0.02841375 0.02501469 0.00042344
v -0.03282849 0.01882309 0.00033661
v -0.02519677 0.01882309 -0.00040222
v -0.02484380 0.02009670 -0.00045973
v -0.02484380 0.03005618 0.00207961
v -0.02487605 0.03006610 0.00224389
v -0.03004867 0.02492537 0.00224389
v -0.03003165 0.02490993 0.00209242
v -0.03035864 0.02437072 0.00182422
v -0.02984800 0.02471255 0.00152243
v -0.02815664 0.02558478 0.00062530
v -0.03206702 0.01924101 0.00008492
v -0.02867803 0.02437182 0.00028479
v -0.02783952 0.02527051 0.00021503
v -0.02758599 0.02586486 0.00039383
v -0.03206702 0.01882309 -0.00002782
v -0.02608186 0.01882309 -0.00056935
v -0.02522722 0.02009670 -0.00055198
v -0.02484380 0.02092592 -0.00052009
v -0.02484380 0.02997127 0.00194751
v -0.02490203 0.03002199 0.00210751
v -0.02491636 0.03003853 0.00224389
v -0.02921016 0.02578988 0.00224389
v -0.02919941 0.02578105 0.00210011
v -0.02749461 0.02749243 0.00210979
v -0.02577907 0.02919277 0.00209584
v -0.02556048 0.02897334 0.00152556
v -0.02556854 0.02815845 0.00062075
v -0.02672329 0.02672716 0.00038216
v -0.02710313 0.02522640 -0.00019865
v -0.02653337 0.02568071 -0.00030798
v -0.02691410 0.02605783 0.00010286
v -0.03123388 0.01882309 -0.00018413
v -0.02727782 0.02459897 -0.00028834
v -0.02693740 0.01882309 -0.00066074
v -0.02608186 0.01924101 -0.00060693
v -0.02608186 0.02009670 -0.00061860
v -0.02522722 0.02095128 -0.00056223
v -0.02484380 0.02611076 -0.00034443
v -0.02484380 0.02974963 0.00161496
v -0.02578802 0.02920380 0.00224389
v -0.02835552 0.02664446 0.00224389
v -0.02834835 0.02663784 0.00210865
v -0.02664356 0.02835142 0.00224389
v -0.02663729 0.02834480 0.00210780
v -0.02498982 0.02926886 0.00123459
v -0.02484380 0.02931186 0.00117764
v -0.02499878 0.02836134 0.00045789
v -0.02526127 0.02784088 0.00025091
v -0.02587134 0.02758836 0.00040864
v -0.02612666 0.02698188 0.00019397
v -0.02608186 0.02627837 -0.00021374
v -0.02560437 0.02645921 -0.00029716
v -0.02503462 0.02662020 -0.00031168
v -0.02693740 0.01924101 -0.00066444
v -0.02779293 0.01882309 -0.00061974
v -0.02667581 0.02522640 -0.00032307
v -0.02484380 0.02646582 -0.00032649
v -0.02484380 0.02915859 0.00104924
v -0.02484380 0.02842420 0.00043426
v -0.02484380 0.02781772 0.00008720
v -0.02528277 0.02691793 -0.00020207
v -0.02484380 0.02704915 -0.00023908
v -0.02484380 0.02666100 -0.00031595
f 1 2 8
f 1 8 16
f 1 16 24
f 1 24 35
f 1 35 49
f 1 49 66
f 1 66 89
f 1 89 68
f 1 68 50
f 1 50 36
f 1 36 26
f 1 26 17
f 1 17 9
f 1 9 3
f 1 3 10
f 1 10 18
f 1 18 27
f 1 27 39
f 1 39 55
f 1 55 74
f 1 74 77
f 1 77 75
f 1 75 56
f 1 56 40
f 1 40 28
f 1 28 19
f 1 19 11
f 1 11 4
f 1 4 5
f 1 5 2
f 2 6 7
f 2 7 8
f 2 5 6
f 3 9 10
f 4 11 5
f 5 11 12
f 5 12 13
f 5 13 14
f 5 14 15
f 5 15 6
f 6 15 7
f 7 15 16
f 7 16 8
f 9 17 18
f 9 18 10
f 11 19 20
f 11 20 12
f 12 14 13
f 12 20 14
f 14 21 22
f 14 22 23
f 14 23 24
f 14 24 16
f 14 16 15
f 14 20 25
f 14 25 21
f 17 26 37
f 17 37 52
f 17 52 72
f 17 72 91
f 17 91 97
f 17 97 96
f 17 96 94
f 17 94 93
f 17 93 92
f 17 92 80
f 17 80 73
f 17 73 53
f 17 53 38
f 17 38 27
f 17 27 18
f 19 28 20
f 20 28 29
f 20 29 30
f 20 30 25
f 21 25 30
f 21 30 31
f 21 31 32
f 21 32 22
f 22 33 24
f 22 24 23
f 22 32 34
f 22 34 33
f 24 33 35
f 26 36 37
f 27 38 39
f 28 40 41
f 28 41 29
f 29 41 42
f 29 42 30
f 30 42 43
f 30 43 31
f 31 43 44
f 31 44 32
f 32 44 34
f 33 45 35
f 33 34 46
f 33 46 45
f 34 47 46
f 34 44 48
f 34 48 47
f 35 45 49
f 36 50 51
f 36 51 37
f 37 51 52
f 38 53 54
f 38 54 39
f 39 54 55
f 40 56 57
f 40 57 41
f 41 43 42
f 41 57 43
f 43 57 58
f 43 58 59
f 43 59 60
f 43 60 61
f 43 61 44
f 44 61 62
f 44 62 48
f 45 46 63
f 45 63 64
f 45 64 49
f 46 47 63
f 47 48 65
f 47 65 64
f 47 64 63
f 48 62 65
f 49 64 67
f 49 67 66
f 50 68 69
f 50 69 51
f 51 70 71
f 51 71 52
f 51 69 70
f 52 71 72
f 53 73 59
f 53 59 54
f 54 59 55
f 55 59 74
f 56 75 58
f 56 58 76
f 56 76 57
f 57 76 58
f 58 75 77
f 58 77 74
f 58 74 78
f 58 78 59
f 59 73 60
f 59 78 74
f 60 73 79
f 60 79 61
f 61 79 80
f 61 80 81
f 61 81 82
f 61 82 83
f 61 83 62
f 62 84 65
f 62 83 84
f 64 65 84
f 64 84 85
f 64 85 86
f 64 86 87
f 64 87 88
f 64 88 89
f 64 89 90
f 64 90 67
f 66 67 90
f 66 90 89
f 68 89 88
f 68 88 70
f 68 70 69
f 70 88 72
f 70 72 71
f 72 88 91
f 73 80 79
f 80 92 81
f 81 93 82
f 81 92 93
f 82 93 94
f 82 94 95
f 82 95 85
f 82 85 84
f 82 84 83
f 85 95 86
f 86 95 96
f 86 96 87
f 87 96 97
f 87 97 88
f 88 97 91
f 94 96 95

