# https://github.com/mikedh/trimesh
v -0.01190477 -0.00000660 0.00676774
v -0.01190477 -0.00000660 0.00424126
v -0.01202674 -0.00000660 0.00675061
v -0.01190477 -0.00641311 0.00638978
v -0.01190477 -0.00045360 0.00415502
v -0.01753044 -0.00000660 0.00274086
v -0.01287231 -0.00067597 0.00655719
v -0.01287231 -0.00102016 0.00655719
v -0.01410982 -0.00555935 0.00610124
v -0.02590522 -0.00000660 0.00335789
v -0.02590522 -0.00025133 0.00337818
v -0.02590522 -0.00042789 0.00339213
v -0.02590522 -0.00110620 0.00343018
v -0.02590522 -0.00128276 0.00343462
v -0.01190477 -0.00726798 0.00612851
v -0.01496497 -0.00555935 0.00596046
v -0.01582013 -0.00555935 0.00581904
v -0.01627238 -0.00601528 0.00569094
v -0.01240088 -0.00641311 0.00630480
v -0.01410982 -0.01142276 0.00519059
v -0.01324507 -0.01142276 0.00518869
v -0.01190477 -0.00641311 0.00376628
v -0.01263522 -0.01142276 0.00301291
v -0.01268867 -0.01142276 0.00298437
v -0.01325329 -0.01142276 0.00276052
v -0.01337663 -0.01142276 0.00272691
v -0.02549957 -0.00000660 0.00064434
v -0.01645465 -0.00470336 0.00573597
v -0.01582013 -0.00470336 0.00586977
v -0.01496497 -0.00470336 0.00601182
v -0.02590522 -0.00000660 0.00053971
v -0.02590522 -0.00213875 0.00344223
v -0.01247762 -0.01142276 0.00497688
v -0.01191163 -0.01142276 0.00440297
v -0.01190477 -0.00747248 0.00600865
v -0.01638612 -0.00555935 0.00571821
v -0.01410982 -0.00641311 0.00601119
v -0.01681370 -0.00555935 0.00561865
v -0.02060983 -0.01125402 0.00400092
v -0.02078936 -0.01142276 0.00393370
v -0.01190477 -0.00676176 0.00380180
v -0.01219257 -0.01142276 0.00348028
v -0.01224190 -0.01142276 0.00341687
v -0.02302455 -0.01142276 0.00054161
v -0.01688222 -0.00470336 0.00563006
v -0.02590522 -0.00010382 0.00053590
v -0.02590522 -0.00299362 0.00338706
v -0.01190477 -0.00807815 0.00488747
v -0.01190477 -0.00807033 0.00523118
v -0.01190477 -0.00795187 0.00557616
v -0.01190477 -0.00778984 0.00578987
v -0.01196508 -0.01142276 0.00420131
v -0.01190477 -0.00713053 0.00386394
v -0.01190477 -0.00737525 0.00398633
v -0.01190477 -0.00753170 0.00407702
v -0.01190477 -0.00800663 0.00446068
v -0.02387833 -0.01142276 0.00316067
v -0.02357958 -0.01142276 0.00323867
v -0.02352750 -0.01142276 0.00049405
v -0.02590522 -0.00213875 0.00047883
v -0.02590522 -0.01142276 0.00260134
v -0.02590522 -0.01142276 0.00028985
f 1 2 6
f 1 6 27
f 1 27 31
f 1 31 10
f 1 10 3
f 1 3 4
f 1 4 15
f 1 15 35
f 1 35 51
f 1 51 50
f 1 50 49
f 1 49 48
f 1 48 56
f 1 56 55
f 1 55 54
f 1 54 53
f 1 53 41
f 1 41 22
f 1 22 5
f 1 5 2
f 2 5 6
f 3 7 8
f 3 8 9
f 3 9 4
f 3 10 11
f 3 11 12
f 3 12 13
f 3 13 14
f 3 14 7
f 4 9 16
f 4 16 17
f 4 17 18
f 4 18 19
f 4 19 20
f 4 20 21
f 4 21 15
f 5 22 23
f 5 23 24
f 5 24 25
f 5 25 26
f 5 26 27
f 5 27 6
f 7 28 8
f 7 14 28
f 8 28 29
f 8 29 30
f 8 30 9
f 9 30 16
f 10 31 46
f 10 46 60
f 10 60 62
f 10 62 61
f 10 61 47
f 10 47 32
f 10 32 14
f 10 14 13
f 10 13 12
f 10 12 11
f 14 32 28
f 15 21 33
f 15 33 34
f 15 34 35
f 16 30 17
f 17 29 36
f 17 36 18
f 17 30 29
f 18 20 37
f 18 37 19
f 18 36 38
f 18 38 39
f 18 39 20
f 19 37 20
f 20 39 40
f 20 40 58
f 20 58 57
f 20 57 61
f 20 61 62
f 20 62 59
f 20 59 44
f 20 44 26
f 20 26 25
f 20 25 24
f 20 24 23
f 20 23 43
f 20 43 42
f 20 42 52
f 20 52 34
f 20 34 33
f 20 33 21
f 22 41 42
f 22 42 43
f 22 43 23
f 26 44 31
f 26 31 27
f 28 45 38
f 28 38 36
f 28 36 29
f 28 32 45
f 31 44 46
f 32 47 38
f 32 38 45
f 34 48 49
f 34 49 50
f 34 50 51
f 34 51 35
f 34 52 41
f 34 41 53
f 34 53 54
f 34 54 55
f 34 55 56
f 34 56 48
f 38 47 57
f 38 57 58
f 38 58 39
f 39 58 40
f 41 52 42
f 44 59 60
f 44 60 46
f 47 61 57
f 59 62 60

