# https://github.com/mikedh/trimesh
v 0.00000762 0.03662622 0.00351084
v 0.00000762 0.03670816 0.00838294
v 0.00000762 0.03937732 0.00351084
v 0.01097668 0.03495706 0.00351084
v 0.01097668 0.03501433 0.00800567
v 0.00000762 0.03945133 0.00838294
v 0.01097668 0.03502490 0.00838294
v 0.00000762 0.03937997 0.00358190
v 0.00040819 0.03937688 0.00351084
v 0.01097668 0.03770375 0.00351084
v 0.00042859 0.03945706 0.00696829
v 0.00000762 0.03945618 0.00696829
v 0.00042859 0.03945045 0.00838294
v 0.01097668 0.03613195 0.00838294
v 0.00000762 0.03941301 0.00487588
v 0.00042859 0.03944472 0.00611311
v 0.00044041 0.03937953 0.00358953
v 0.00052954 0.03936190 0.00351084
v 0.01097668 0.03770552 0.00354851
v 0.00087320 0.03934164 0.00390242
v 0.00000762 0.03945001 0.00653426
v 0.00136613 0.03933019 0.00838294
v 0.00151433 0.03931080 0.00838294
v 0.00151004 0.03930948 0.00782347
v 0.01097668 0.03780331 0.00838008
v 0.01097453 0.03780375 0.00838294
v 0.00697094 0.03850199 0.00817737
v 0.00050592 0.03940067 0.00443041
v 0.01097668 0.03779979 0.00755971
v 0.00213828 0.03921961 0.00838294
v 0.01068887 0.03785662 0.00838294
v 0.00697094 0.03850199 0.00834192
v 0.01068887 0.03785353 0.00782347
v 0.00683240 0.03851256 0.00838294
v 0.00700960 0.03848525 0.00838294
f 1 2 6
f 1 6 12
f 1 12 21
f 1 21 15
f 1 15 8
f 1 8 3
f 1 3 9
f 1 9 18
f 1 18 10
f 1 10 4
f 1 4 5
f 1 5 2
f 2 5 7
f 2 7 14
f 2 14 26
f 2 26 31
f 2 31 35
f 2 35 34
f 2 34 30
f 2 30 23
f 2 23 22
f 2 22 13
f 2 13 6
f 3 8 9
f 4 10 19
f 4 19 29
f 4 29 25
f 4 25 14
f 4 14 7
f 4 7 5
f 6 11 12
f 6 13 11
f 8 15 16
f 8 16 17
f 8 17 9
f 9 17 18
f 10 18 20
f 10 20 19
f 11 16 21
f 11 21 12
f 11 13 22
f 11 22 23
f 11 23 24
f 11 24 16
f 14 25 26
f 15 21 16
f 16 24 27
f 16 27 20
f 16 20 28
f 16 28 17
f 17 28 20
f 17 20 18
f 19 20 27
f 19 27 29
f 23 30 24
f 24 30 27
f 25 29 26
f 26 29 31
f 27 32 31
f 27 31 33
f 27 33 29
f 27 30 32
f 29 33 31
f 30 34 32
f 31 32 35
f 32 34 35

