# https://github.com/mikedh/trimesh
v -0.03936880 -0.00036469 0.00344700
v -0.03935167 -0.00015031 0.00297023
v -0.03932135 -0.00072043 0.00334463
v -0.03934244 -0.00060263 0.00344700
v -0.03936880 -0.00000896 0.00344700
v -0.03935826 -0.00000896 0.00312539
v -0.03928840 -0.00043301 0.00268811
v -0.03919219 -0.00128348 0.00269295
v -0.03935167 -0.00000896 0.00297023
v -0.03933585 -0.00000896 0.00289809
v -0.03928972 -0.00000896 0.00268811
v -0.03907488 -0.00213865 0.00269295
v -0.03849100 -0.00605173 0.00224358
v -0.03849100 -0.00605173 0.00233870
v -0.03764747 -0.01125346 0.00344700
v -0.03658909 -0.00000896 0.00344700
v -0.03897735 -0.00000896 0.00183774
v -0.03897603 -0.00042830 0.00183774
v -0.03893253 -0.00128348 0.00183774
v -0.03884423 -0.00213865 0.00183774
v -0.03852922 -0.00555936 0.00217225
v -0.03758420 -0.00914497 0.00148147
v -0.03777795 -0.00890938 0.00179502
v -0.03772655 -0.00983523 0.00203643
v -0.03766328 -0.01044069 0.00217386
v -0.03785703 -0.00983523 0.00269295
v -0.03758552 -0.01159741 0.00344700
v -0.02590522 -0.00213865 0.00344176
v -0.02590522 -0.00128348 0.00343410
v -0.02590522 -0.00110679 0.00342967
v -0.02590522 -0.00042830 0.00339179
v -0.02590522 -0.00034114 0.00338493
v -0.02590522 -0.00025161 0.00337768
v -0.02590522 -0.00000896 0.00335713
v -0.02769641 -0.02407403 0.00344700
v -0.03878492 -0.00000896 0.00156893
v -0.03860171 -0.00128348 0.00128520
v -0.03856744 -0.00213865 0.00130132
v -0.03851868 -0.00273704 0.00135573
v -0.03859644 -0.00470418 0.00206263
v -0.03751435 -0.00983523 0.00160883
v -0.03762901 -0.00857485 0.00140490
v -0.03762374 -0.00512352 0.00055816
v -0.03700954 -0.00726971 0.00033448
v -0.03690674 -0.00812488 0.00043685
v -0.03678153 -0.01200733 0.00140087
v -0.03743263 -0.01071161 0.00186837
v -0.03719670 -0.01154559 0.00183774
v -0.03685797 -0.01302035 0.00210333
v -0.03760265 -0.01101081 0.00246524
v -0.03769491 -0.01071161 0.00272721
v -0.03763560 -0.01116394 0.00303511
v -0.03756838 -0.01167751 0.00344700
v -0.02590522 -0.02407403 0.00213719
v -0.02590522 -0.00000896 0.00054002
v -0.03101651 -0.02407403 0.00344700
v -0.03859644 -0.00000896 0.00130939
v -0.03773973 -0.00299383 0.00044974
v -0.03771864 -0.00384900 0.00045982
v -0.03767383 -0.00455341 0.00050052
v -0.03708467 -0.00641453 0.00024541
v -0.03634263 -0.00812488 0.00004390
v -0.03654955 -0.00555936 -0.00025473
v -0.03452112 -0.01496393 0.00031070
v -0.03494816 -0.01496393 0.00067785
v -0.03601576 -0.01389437 0.00131221
v -0.03667081 -0.01257509 0.00153306
v -0.03694891 -0.01233244 0.00182606
v -0.03673803 -0.01360932 0.00269295
v -0.03693046 -0.01318291 0.00269295
v -0.03725601 -0.01239841 0.00269295
v -0.03588132 -0.01446449 0.00146616
v -0.03619105 -0.01415116 0.00178575
v -0.03603157 -0.01479667 0.00203643
v -0.03753016 -0.01148669 0.00272721
v -0.03753675 -0.01178588 0.00344700
v -0.02590522 -0.02407403 -0.00032607
v -0.02590522 -0.02027167 -0.00066904
v -0.02596190 -0.00000896 0.00052551
v -0.03097960 -0.02407403 0.00276872
v -0.03134733 -0.02374892 0.00344700
v -0.03765801 -0.00000896 0.00051745
v -0.03772259 -0.00213865 0.00046627
v -0.03719802 -0.00000896 0.00015272
v -0.03719802 -0.00213865 0.00008179
v -0.03719802 -0.00299383 0.00005559
v -0.03719802 -0.00384900 0.00005640
v -0.03728238 -0.00478428 0.00019423
v -0.03715584 -0.00555936 0.00017287
v -0.03320178 -0.01581911 -0.00027529
v -0.03377776 -0.01581911 0.00002375
v -0.03661809 -0.00470418 -0.00028254
v -0.03599335 -0.00641453 -0.00031559
v -0.03436164 -0.01581911 0.00042677
v -0.03424961 -0.01633033 0.00051060
v -0.03697132 -0.01321353 0.00344700
v -0.03730346 -0.01249028 0.00344700
v -0.03649420 -0.01410876 0.00269295
v -0.03734168 -0.01239841 0.00344700
v -0.03577719 -0.01503461 0.00178575
v -0.03259154 -0.02071222 0.00129729
v -0.03243601 -0.02128234 0.00150122
v -0.03519068 -0.01650702 0.00206867
v -0.02609238 -0.02407403 -0.00034259
v -0.02590522 -0.02266051 -0.00049332
v -0.02590522 -0.02095016 -0.00064485
v -0.02608184 -0.02009499 -0.00066985
v -0.03292236 -0.00000896 -0.00065493
v -0.03206829 -0.00000896 -0.00055579
v -0.02617805 -0.00000896 0.00048158
v -0.03097169 -0.02407403 0.00269295
v -0.03136710 -0.02364290 0.00269295
v -0.03178228 -0.02326597 0.00344700
v -0.03742472 -0.00000896 0.00033045
v -0.03676439 -0.00000896 0.00001771
v -0.03655219 -0.00299383 -0.00026642
v -0.03662468 -0.00384900 -0.00027569
v -0.03261922 -0.01667428 -0.00032043
v -0.03252432 -0.01719257 -0.00030793
v -0.03236352 -0.01776269 -0.00027851
v -0.03304626 -0.01667428 -0.00019992
v -0.03379489 -0.01663895 0.00026637
v -0.03612120 -0.00555936 -0.00032405
v -0.03619764 -0.00384900 -0.00034017
v -0.03548723 -0.00641453 -0.00036113
v -0.03277474 -0.01581911 -0.00033776
v -0.03349965 -0.01752946 0.00039655
v -0.03337708 -0.01801712 0.00052188
v -0.03610011 -0.01490268 0.00269295
v -0.03329932 -0.02042009 0.00269295
v -0.03247160 -0.02207155 0.00344700
v -0.03433396 -0.01820795 0.00208157
v -0.03250587 -0.01968271 0.00054687
v -0.03258627 -0.02153441 0.00207109
v -0.03275629 -0.02097843 0.00180671
v -0.03347066 -0.01989238 0.00207472
v -0.03166629 -0.02226944 0.00139079
v -0.03145804 -0.02283956 0.00161528
v -0.03169001 -0.02315053 0.00218514
v -0.02664200 -0.02407403 -0.00033131
v -0.02590522 -0.02180534 -0.00057836
v -0.02590522 -0.02112685 -0.00063841
v -0.02608184 -0.02095016 -0.00063921
v -0.02693723 -0.02009499 -0.00062027
v -0.02693723 -0.01923981 -0.00064969
v -0.03121289 -0.00983523 -0.00062793
v -0.03377776 -0.00042830 -0.00059206
v -0.03377776 -0.00000896 -0.00059005
v -0.03086888 -0.02403398 0.00211784
v -0.03090447 -0.02407403 0.00241688
v -0.03173878 -0.02321414 0.00269295
v -0.03211705 -0.02272648 0.00344700
v -0.03634263 -0.00000896 -0.00009836
v -0.03612384 -0.00299383 -0.00033171
v -0.03207488 -0.01749883 -0.00032970
v -0.03179282 -0.01813256 -0.00032043
v -0.03207488 -0.01840348 -0.00019509
v -0.03206829 -0.01923981 0.00008420
v -0.03285382 -0.01749883 -0.00007176
v -0.02809050 -0.02407403 -0.00007136
v -0.03293686 -0.01833516 0.00029015
v -0.03262844 -0.01923981 0.00044047
v -0.03302912 -0.02095016 0.00269295
v -0.03265217 -0.02165928 0.00269295
v -0.03215659 -0.02266051 0.00344700
v -0.02890635 -0.02407403 0.00030425
v -0.02916337 -0.02407403 0.00047715
v -0.03015979 -0.02407403 0.00125417
v -0.03088866 -0.02323534 0.00134001
v -0.03241097 -0.02208569 0.00269295
v -0.03027182 -0.02407403 0.00134767
v -0.03068963 -0.02380546 0.00154757
v -0.03208147 -0.02266051 0.00269295
v -0.03054070 -0.02407403 0.00166485
v -0.03081221 -0.02407403 0.00208238
v -0.03084253 -0.02407403 0.00216258
v -0.02867175 -0.02407403 0.00017972
f 1 2 3
f 1 3 4
f 1 4 15
f 1 15 27
f 1 27 53
f 1 53 76
f 1 76 99
f 1 99 97
f 1 97 96
f 1 96 131
f 1 131 165
f 1 165 152
f 1 152 113
f 1 113 81
f 1 81 56
f 1 56 35
f 1 35 16
f 1 16 5
f 1 5 6
f 1 6 2
f 2 7 8
f 2 8 3
f 2 6 9
f 2 9 10
f 2 10 11
f 2 11 7
f 3 8 12
f 3 12 13
f 3 13 4
f 4 13 14
f 4 14 15
f 5 16 34
f 5 34 55
f 5 55 79
f 5 79 110
f 5 110 109
f 5 109 108
f 5 108 148
f 5 148 153
f 5 153 115
f 5 115 84
f 5 84 114
f 5 114 82
f 5 82 57
f 5 57 36
f 5 36 17
f 5 17 11
f 5 11 10
f 5 10 9
f 5 9 6
f 7 11 17
f 7 17 18
f 7 18 19
f 7 19 20
f 7 20 8
f 8 20 13
f 8 13 12
f 13 21 22
f 13 22 23
f 13 23 24
f 13 24 25
f 13 25 26
f 13 26 15
f 13 15 14
f 13 20 21
f 15 26 27
f 16 28 29
f 16 29 30
f 16 30 31
f 16 31 32
f 16 32 33
f 16 33 34
f 16 35 28
f 17 36 37
f 17 37 18
f 18 37 19
f 19 38 20
f 19 37 38
f 20 38 39
f 20 39 40
f 20 40 21
f 21 40 39
f 21 39 22
f 22 41 24
f 22 24 23
f 22 39 42
f 22 42 43
f 22 43 44
f 22 44 45
f 22 45 46
f 22 46 41
f 24 41 25
f 25 41 47
f 25 47 48
f 25 48 49
f 25 49 50
f 25 50 26
f 26 50 51
f 26 51 52
f 26 52 27
f 27 52 53
f 28 35 54
f 28 54 77
f 28 77 105
f 28 105 141
f 28 141 142
f 28 142 106
f 28 106 78
f 28 78 55
f 28 55 34
f 28 34 33
f 28 33 32
f 28 32 31
f 28 31 30
f 28 30 29
f 35 56 80
f 35 80 111
f 35 111 150
f 35 150 176
f 35 176 175
f 35 175 174
f 35 174 171
f 35 171 168
f 35 168 167
f 35 167 166
f 35 166 177
f 35 177 160
f 35 160 140
f 35 140 104
f 35 104 77
f 35 77 54
f 36 57 37
f 37 57 58
f 37 58 59
f 37 59 38
f 38 59 60
f 38 60 39
f 39 60 43
f 39 43 42
f 41 46 48
f 41 48 47
f 43 61 44
f 43 60 61
f 44 62 45
f 44 61 63
f 44 63 62
f 45 62 64
f 45 64 46
f 46 64 65
f 46 65 66
f 46 66 67
f 46 67 68
f 46 68 48
f 48 68 49
f 49 69 70
f 49 70 71
f 49 71 50
f 49 68 67
f 49 67 66
f 49 66 72
f 49 72 73
f 49 73 74
f 49 74 69
f 50 71 75
f 50 75 52
f 50 52 51
f 52 75 53
f 53 75 76
f 55 78 79
f 56 81 80
f 57 82 83
f 57 83 58
f 58 83 84
f 58 84 85
f 58 85 86
f 58 86 87
f 58 87 59
f 59 87 88
f 59 88 89
f 59 89 60
f 60 89 61
f 61 89 63
f 62 63 90
f 62 90 91
f 62 91 64
f 63 89 92
f 63 92 93
f 63 93 90
f 64 91 94
f 64 94 65
f 65 94 66
f 66 94 95
f 66 95 72
f 69 96 97
f 69 97 70
f 69 74 98
f 69 98 96
f 70 97 99
f 70 99 71
f 71 99 76
f 71 76 75
f 72 100 74
f 72 74 73
f 72 95 101
f 72 101 102
f 72 102 100
f 74 100 103
f 74 103 98
f 77 104 105
f 78 106 107
f 78 107 108
f 78 108 109
f 78 109 110
f 78 110 79
f 80 81 112
f 80 112 111
f 81 113 112
f 82 114 83
f 83 114 84
f 84 115 116
f 84 116 117
f 84 117 85
f 85 117 86
f 86 117 92
f 86 92 87
f 87 92 88
f 88 92 89
f 90 118 119
f 90 119 120
f 90 120 121
f 90 121 91
f 90 93 118
f 91 121 122
f 91 122 94
f 92 123 93
f 92 117 124
f 92 124 123
f 93 123 125
f 93 125 126
f 93 126 118
f 94 122 95
f 95 122 127
f 95 127 128
f 95 128 101
f 96 98 129
f 96 129 130
f 96 130 131
f 98 103 129
f 100 102 132
f 100 132 103
f 101 128 133
f 101 133 102
f 102 134 135
f 102 135 136
f 102 136 132
f 102 133 137
f 102 137 138
f 102 138 139
f 102 139 134
f 103 132 129
f 104 140 105
f 105 140 141
f 106 142 143
f 106 143 107
f 107 143 144
f 107 144 145
f 107 145 146
f 107 146 108
f 108 146 147
f 108 147 148
f 111 112 149
f 111 149 150
f 112 113 151
f 112 151 139
f 112 139 149
f 113 152 151
f 115 153 116
f 116 154 117
f 116 153 148
f 116 148 154
f 117 154 124
f 118 126 145
f 118 145 144
f 118 144 119
f 119 144 155
f 119 155 156
f 119 156 120
f 120 157 158
f 120 158 159
f 120 159 121
f 120 156 140
f 120 140 160
f 120 160 157
f 121 159 122
f 122 159 161
f 122 161 127
f 123 124 147
f 123 147 125
f 124 154 148
f 124 148 147
f 125 146 126
f 125 147 146
f 126 146 145
f 127 161 162
f 127 162 128
f 128 162 133
f 129 132 130
f 130 132 163
f 130 163 131
f 131 163 164
f 131 164 165
f 132 136 163
f 133 162 158
f 133 158 166
f 133 166 167
f 133 167 168
f 133 168 169
f 133 169 137
f 134 139 170
f 134 170 164
f 134 164 136
f 134 136 135
f 136 164 163
f 137 169 171
f 137 171 172
f 137 172 138
f 138 172 139
f 139 151 173
f 139 173 170
f 139 172 174
f 139 174 175
f 139 175 149
f 140 143 142
f 140 142 141
f 140 156 143
f 143 156 144
f 144 156 155
f 149 175 176
f 149 176 150
f 151 152 173
f 152 165 173
f 157 160 177
f 157 177 158
f 158 162 161
f 158 161 159
f 158 177 166
f 164 170 165
f 165 170 173
f 168 171 169
f 171 174 172

