# https://github.com/mikedh/trimesh
v -0.00192395 0.03797916 0.00528173
v -0.00182396 0.03858816 0.00528173
v -0.00181530 0.03755061 0.00528173
v -0.00803666 0.03719874 0.00676567
v -0.00130276 0.03900404 0.00528173
v -0.00142007 0.03732350 0.00528173
v -0.00803666 0.03629970 0.00707745
v -0.00803666 0.03712243 0.00679212
v -0.00803666 0.03786994 0.00711776
v -0.00086108 0.03932916 0.00528173
v -0.00042806 0.03697344 0.00528173
v -0.00803666 0.03618904 0.00719397
v -0.00803666 0.03823448 0.00782824
v -0.00085006 0.03933494 0.00528173
v -0.00040522 0.03697344 0.00528173
v -0.00803666 0.03583355 0.00770794
v -0.00783196 0.03595795 0.00749190
v -0.00803666 0.03826485 0.00867603
v -0.00697064 0.03850173 0.00818033
v -0.00042491 0.03942355 0.00528173
v -0.00083982 0.03933748 0.00528173
v 0.00000654 0.03697452 0.00528173
v -0.00803666 0.03579051 0.00782320
v -0.00697064 0.03850173 0.00834598
v -0.00803666 0.03794480 0.00936446
v -0.00090910 0.03935628 0.01171509
v -0.00070519 0.03940329 0.01171509
v -0.00042806 0.03946043 0.01171509
v -0.00213810 0.03922211 0.00867855
v -0.00150746 0.03930999 0.00782383
v -0.00042806 0.03945537 0.00696912
v 0.00000654 0.03944995 0.00653514
v 0.00000654 0.03941595 0.00528173
v 0.00000654 0.03671233 0.00787485
v -0.00676673 0.03590298 0.00821056
v -0.00803666 0.03577279 0.00873335
v -0.00803666 0.03790104 0.00944257
v -0.00173736 0.03886554 0.01171509
v 0.00000654 0.03946007 0.01171509
v -0.00042806 0.03946730 0.00953389
v -0.00151927 0.03931108 0.00867855
v 0.00000654 0.03945609 0.00696912
v 0.00000654 0.03670872 0.00827859
v -0.00676673 0.03590298 0.00830567
v 0.00000654 0.03670655 0.00867855
v -0.00803666 0.03578256 0.00876862
v 0.00000654 0.03693257 0.01171509
v -0.00803666 0.03728879 0.00981544
v -0.00197592 0.03866736 0.01171509
v 0.00000654 0.03946514 0.00995464
v 0.00000654 0.03946622 0.00953389
v -0.00803666 0.03588996 0.00914275
v -0.00003204 0.03693221 0.01171509
v -0.00803666 0.03720814 0.00985008
v -0.00215464 0.03805366 0.01171509
v -0.00803666 0.03631598 0.00955594
v -0.00042806 0.03693076 0.01171509
v -0.00803666 0.03635539 0.00957169
v -0.00195938 0.03744538 0.01171509
v -0.00211999 0.03790611 0.01171509
v -0.00128308 0.03716113 0.01171509
f 1 2 5
f 1 5 10
f 1 10 14
f 1 14 21
f 1 21 20
f 1 20 33
f 1 33 22
f 1 22 15
f 1 15 11
f 1 11 6
f 1 6 3
f 1 3 4
f 1 4 2
f 2 4 5
f 3 6 7
f 3 7 8
f 3 8 4
f 4 8 7
f 4 7 12
f 4 12 16
f 4 16 23
f 4 23 36
f 4 36 46
f 4 46 52
f 4 52 56
f 4 56 58
f 4 58 54
f 4 54 48
f 4 48 37
f 4 37 25
f 4 25 18
f 4 18 13
f 4 13 9
f 4 9 10
f 4 10 5
f 6 11 7
f 7 11 12
f 9 13 14
f 9 14 10
f 11 15 16
f 11 16 17
f 11 17 12
f 12 17 16
f 13 18 19
f 13 19 20
f 13 20 21
f 13 21 14
f 15 22 16
f 16 22 23
f 18 24 19
f 18 25 26
f 18 26 27
f 18 27 28
f 18 28 24
f 19 24 29
f 19 29 30
f 19 30 31
f 19 31 20
f 20 31 32
f 20 32 33
f 22 33 32
f 22 32 42
f 22 42 51
f 22 51 50
f 22 50 39
f 22 39 47
f 22 47 45
f 22 45 43
f 22 43 34
f 22 34 23
f 23 35 36
f 23 34 35
f 24 28 29
f 25 37 26
f 26 38 49
f 26 49 55
f 26 55 60
f 26 60 59
f 26 59 61
f 26 61 57
f 26 57 53
f 26 53 47
f 26 47 39
f 26 39 28
f 26 28 27
f 26 37 38
f 28 39 40
f 28 40 29
f 29 40 41
f 29 41 30
f 30 41 40
f 30 40 31
f 31 40 42
f 31 42 32
f 34 43 35
f 35 44 36
f 35 43 45
f 35 45 44
f 36 44 45
f 36 45 47
f 36 47 46
f 37 48 38
f 38 48 49
f 39 50 40
f 40 50 51
f 40 51 42
f 46 47 52
f 47 53 52
f 48 54 49
f 49 54 55
f 52 53 57
f 52 57 56
f 54 58 59
f 54 59 60
f 54 60 55
f 56 57 61
f 56 61 59
f 56 59 58

