# https://github.com/mikedh/trimesh
v 0.01155294 -0.03507317 0.07457491
v 0.00000767 -0.03696132 0.07457491
v 0.01155294 -0.03765917 0.07457491
v 0.01155294 -0.03483693 0.07195757
v 0.00000767 -0.03670421 0.07195757
v 0.00000767 -0.03945572 0.07457491
v 0.00042812 -0.03945572 0.07457491
v 0.00696535 -0.03850076 0.07162717
v 0.01155294 -0.03770406 0.07282570
v 0.01155294 -0.03483874 0.03091591
v 0.00000767 -0.03670331 0.03133702
v 0.00000767 -0.03946433 0.07366791
v 0.00042812 -0.03946524 0.07366791
v 0.00983386 -0.03800877 0.07195757
v 0.00213815 -0.03922401 0.07195757
v 0.00299373 -0.03909840 0.06597139
v 0.00697891 -0.03850303 0.03142772
v 0.01068832 -0.03785914 0.07195757
v 0.01155294 -0.03770633 0.05314384
v 0.01155294 -0.03484010 0.00867503
v 0.00000767 -0.03670467 0.01381252
v 0.00000767 -0.03946751 0.07281274
v 0.00042812 -0.03946796 0.07281274
v 0.00983386 -0.03801059 0.03690210
v 0.00042812 -0.03946887 0.06169554
v 0.00213815 -0.03922582 0.04886800
v 0.00213815 -0.03922582 0.02578490
v 0.00697891 -0.03850303 0.03125928
v 0.00983386 -0.03801150 0.01381252
v 0.01068832 -0.03786050 0.03091591
v 0.01154390 -0.03770950 0.03604693
v 0.01155294 -0.03770769 0.03605341
v 0.01155294 -0.03484691 0.00838997
v 0.00000767 -0.03670875 0.00838997
v 0.00000767 -0.03670739 0.00868150
v 0.00000767 -0.03946796 0.07024723
v 0.00000767 -0.03946841 0.03262625
v 0.00042812 -0.03946887 0.01552286
v 0.00213815 -0.03922174 0.00868150
v 0.00682068 -0.03851391 0.00838997
v 0.00701282 -0.03848444 0.00838997
v 0.00983386 -0.03800651 0.00868150
v 0.01068832 -0.03785823 0.00868150
v 0.01155294 -0.03770859 0.01295735
v 0.01155294 -0.03769590 0.00838997
v 0.00000767 -0.03945073 0.00838997
v 0.00000767 -0.03946751 0.01552286
v 0.00000767 -0.03946614 0.00953667
v 0.00042812 -0.03946705 0.00953667
v 0.00151879 -0.03931061 0.00868150
v 0.00151426 -0.03931061 0.00838997
v 0.00192454 -0.03925167 0.00838997
v 0.01068832 -0.03785687 0.00838997
v 0.01155294 -0.03770179 0.00938767
v 0.00013878 -0.03945118 0.00838997
v 0.00042812 -0.03945073 0.00838997
v 0.00086777 -0.03939450 0.00838997
v 0.00123171 -0.03934780 0.00838997
f 1 2 6
f 1 6 7
f 1 7 3
f 1 3 9
f 1 9 19
f 1 19 32
f 1 32 44
f 1 44 54
f 1 54 45
f 1 45 33
f 1 33 20
f 1 20 10
f 1 10 4
f 1 4 5
f 1 5 2
f 2 5 11
f 2 11 21
f 2 21 35
f 2 35 34
f 2 34 46
f 2 46 48
f 2 48 47
f 2 47 37
f 2 37 36
f 2 36 22
f 2 22 12
f 2 12 6
f 3 7 8
f 3 8 9
f 4 10 11
f 4 11 5
f 6 12 13
f 6 13 7
f 7 13 8
f 8 14 9
f 8 13 15
f 8 15 16
f 8 16 17
f 8 17 14
f 9 14 18
f 9 18 19
f 10 20 11
f 11 20 21
f 12 22 13
f 13 22 23
f 13 23 15
f 14 17 24
f 14 24 18
f 15 23 25
f 15 25 26
f 15 26 16
f 16 26 27
f 16 27 28
f 16 28 17
f 17 28 29
f 17 29 24
f 18 24 29
f 18 29 30
f 18 30 31
f 18 31 19
f 19 31 32
f 20 33 34
f 20 34 35
f 20 35 21
f 22 36 23
f 23 36 25
f 25 36 37
f 25 37 38
f 25 38 27
f 25 27 26
f 27 38 39
f 27 39 28
f 28 39 40
f 28 40 41
f 28 41 29
f 29 41 42
f 29 42 43
f 29 43 44
f 29 44 30
f 30 44 31
f 31 44 32
f 33 45 53
f 33 53 41
f 33 41 40
f 33 40 52
f 33 52 51
f 33 51 58
f 33 58 57
f 33 57 56
f 33 56 55
f 33 55 46
f 33 46 34
f 37 47 38
f 38 47 48
f 38 48 49
f 38 49 50
f 38 50 39
f 39 50 51
f 39 51 52
f 39 52 40
f 41 53 42
f 42 53 43
f 43 53 54
f 43 54 44
f 45 54 53
f 46 55 48
f 48 55 49
f 49 55 56
f 49 56 57
f 49 57 58
f 49 58 51
f 49 51 50

