# https://github.com/mikedh/trimesh
v -0.01014297 -0.03470760 0.08393092
v -0.01036126 -0.03470760 0.08359512
v -0.01095778 -0.03470760 0.08482124
v 0.00000654 -0.03617345 0.08393092
v -0.01070059 -0.03470760 0.08307699
v -0.01155863 -0.03470760 0.08503117
v 0.00000654 -0.03639509 0.08478612
v 0.00000654 -0.03628238 0.08435204
v 0.00000654 -0.03632331 0.08307657
v -0.01193253 -0.03470760 0.08177559
v -0.01239938 -0.03470760 0.08532098
v 0.00000654 -0.03654684 0.08502448
v 0.00000654 -0.03679555 0.08140842
v -0.01249231 -0.03470760 0.08143518
v -0.01261551 -0.03470760 0.08537074
v 0.00000654 -0.03670362 0.08527038
v 0.00000654 -0.03952072 0.08140842
v -0.01245557 -0.03472712 0.08140842
v -0.01282083 -0.03470760 0.08140842
v -0.01410897 -0.03470760 0.08554596
v 0.00000654 -0.03694730 0.08536990
v -0.01496485 -0.03470760 0.08561246
v 0.00000654 -0.04106402 0.08347635
v -0.00042788 -0.03952072 0.08140842
v -0.01406359 -0.03470760 0.08140842
v 0.00000654 -0.03719917 0.08547194
v -0.01581857 -0.03470760 0.08565051
v 0.00000654 -0.04110243 0.08370719
v -0.00042788 -0.04114021 0.08393092
v -0.00042788 -0.04106402 0.08347635
v -0.00103737 -0.04105332 0.08349350
v -0.00160580 -0.04104198 0.08353197
v -0.00470511 -0.04049292 0.08318195
v -0.00555883 -0.04044066 0.08321917
v -0.00641471 -0.04038021 0.08327395
v -0.01201250 -0.03767645 0.08140842
v -0.01472927 -0.03484172 0.08140842
v -0.01488056 -0.03470760 0.08147909
v 0.00000654 -0.03805361 0.08564633
v -0.01667445 -0.03470760 0.08566975
v 0.00000654 -0.04113958 0.08393092
v -0.00042788 -0.04112195 0.08456490
v -0.00128376 -0.04110558 0.08452140
v -0.00213964 -0.04108858 0.08447624
v -0.00299336 -0.04106780 0.08441895
v -0.00299336 -0.04106780 0.08418811
v -0.00213964 -0.04108858 0.08403338
v 0.00000654 -0.04113077 0.08425251
v 0.00000654 -0.04112195 0.08456448
v -0.00213964 -0.04103065 0.08360599
v -0.00727059 -0.04030465 0.08335592
v -0.00299336 -0.04100861 0.08376072
v -0.01068978 -0.03949176 0.08331451
v -0.01135114 -0.03939983 0.08341864
v -0.01205357 -0.03766511 0.08140842
v -0.00795140 -0.04023917 0.08343704
v -0.01467524 -0.03547390 0.08140842
v -0.01647129 -0.03470760 0.08175761
v 0.00000654 -0.03847423 0.08566305
v -0.01753033 -0.03470760 0.08567644
v 0.00000654 -0.03890870 0.08567978
v 0.00000654 -0.04091227 0.08499228
v -0.00042788 -0.04091227 0.08499228
v -0.00213964 -0.04087701 0.08490363
v -0.00299336 -0.04085434 0.08484675
v -0.00347317 -0.04105269 0.08437629
v -0.00347317 -0.04105269 0.08430813
v -0.00555883 -0.04075045 0.08393092
v -0.00641471 -0.04063208 0.08393092
v -0.00379520 -0.04096957 0.08398613
v -0.00470511 -0.04085309 0.08393092
v -0.00851983 -0.04018439 0.08354577
v -0.01192173 -0.03932175 0.08359512
v -0.01390365 -0.03855986 0.08340359
v -0.01325310 -0.03867950 0.08328022
v -0.01581857 -0.03776712 0.08334086
v -0.01632216 -0.03766008 0.08345879
v -0.01247502 -0.03747685 0.08140842
v -0.02009364 -0.03470760 0.08269727
v -0.01408736 -0.03631449 0.08140842
v -0.01838404 -0.03470760 0.08566724
v -0.01667445 -0.03548838 0.08567434
v -0.01581857 -0.03548838 0.08567853
v -0.00128376 -0.03890870 0.08567978
v 0.00000654 -0.03932931 0.08565511
v 0.00000654 -0.04048474 0.08539416
v -0.00042788 -0.04048474 0.08539416
v -0.00213964 -0.04044947 0.08538538
v -0.00299336 -0.04042681 0.08537660
v -0.00128376 -0.04089401 0.08494879
v -0.00384923 -0.04038714 0.08535820
v -0.00379520 -0.04084490 0.08471126
v -0.00555883 -0.04029395 0.08530383
v -0.00641471 -0.04024735 0.08526619
v -0.00695936 -0.04021146 0.08523358
v -0.00555883 -0.04060374 0.08478612
v -0.00641471 -0.04049859 0.08478612
v -0.00812431 -0.04028198 0.08459333
v -0.00871434 -0.04022343 0.08444697
v -0.00727059 -0.04048033 0.08393092
v -0.00819131 -0.04029269 0.08387071
v -0.00871434 -0.04022343 0.08411576
v -0.00899099 -0.04013401 0.08387071
v -0.00983606 -0.03994512 0.08393092
v -0.01068978 -0.03971088 0.08393092
v -0.01159969 -0.03945335 0.08390081
v -0.01206005 -0.03936142 0.08416553
v -0.01236696 -0.03923297 0.08390081
v -0.01325310 -0.03894144 0.08393092
v -0.01447424 -0.03845723 0.08365868
v -0.01581857 -0.03797176 0.08393092
v -0.01642806 -0.03770919 0.08393092
v -0.01685600 -0.03751274 0.08393092
v -0.01753033 -0.03720105 0.08393092
v -0.01820898 -0.03688686 0.08393092
v -0.01807930 -0.03682641 0.08343328
v -0.01328768 -0.03702034 0.08140842
v -0.01923992 -0.03610356 0.08331159
v -0.02020171 -0.03470760 0.08272613
v -0.01406575 -0.03633905 0.08140842
v -0.01753033 -0.03548838 0.08565176
v -0.01924208 -0.03470760 0.08562709
v -0.01496485 -0.03634346 0.08567142
v -0.01410897 -0.03634346 0.08567811
v -0.01154350 -0.03719917 0.08567853
v -0.00812431 -0.03805361 0.08567895
v -0.00213964 -0.03890870 0.08567936
v -0.00042788 -0.03976377 0.08562918
v 0.00000654 -0.03976377 0.08562918
v 0.00000654 -0.04011890 0.08551376
v -0.00128376 -0.03976377 0.08562458
v -0.00213964 -0.03976377 0.08561914
v -0.00299336 -0.03976377 0.08560869
v -0.00384923 -0.03976377 0.08558820
v -0.00470511 -0.03976377 0.08555893
v -0.00555883 -0.03976377 0.08552714
v -0.00641471 -0.03976377 0.08548282
v -0.00470511 -0.04033803 0.08533268
v -0.00812431 -0.03964729 0.08539541
v -0.00898018 -0.03955410 0.08536531
v -0.00983606 -0.03945902 0.08531303
v -0.01048013 -0.03938472 0.08525783
v -0.00752995 -0.04014661 0.08515328
v -0.00725546 -0.04034369 0.08483546
v -0.00899099 -0.04000871 0.08475350
v -0.00983606 -0.03979463 0.08478612
v -0.01073517 -0.03954088 0.08485386
v -0.01154350 -0.03943446 0.08460211
v -0.01206005 -0.03936142 0.08442815
v -0.01458230 -0.03849815 0.08422909
v -0.01490650 -0.03833507 0.08393887
v -0.01458230 -0.03849815 0.08440431
v -0.01641293 -0.03770353 0.08454482
v -0.01817008 -0.03687048 0.08458957
v -0.01863476 -0.03668536 0.08393092
v -0.01974999 -0.03596062 0.08344792
v -0.01330929 -0.03700397 0.08140842
v -0.02094952 -0.03519748 0.08336052
v -0.02091926 -0.03470760 0.08300087
v -0.02078958 -0.03470760 0.08294651
v -0.02048484 -0.03470760 0.08282356
v -0.01838404 -0.03548838 0.08558527
v -0.01581857 -0.03634346 0.08564549
v -0.02009364 -0.03470760 0.08553760
v -0.01325310 -0.03719917 0.08565887
v -0.01239938 -0.03719917 0.08567434
v -0.00898018 -0.03805361 0.08567686
v -0.00384923 -0.03890870 0.08567644
v -0.00299336 -0.03890870 0.08567811
v -0.00470511 -0.03890870 0.08567393
v -0.00555883 -0.03890870 0.08567142
v -0.00641471 -0.03890870 0.08566514
v -0.00727059 -0.03890870 0.08565051
v -0.00812431 -0.03890870 0.08562960
v -0.00898018 -0.03890870 0.08559573
v -0.00983606 -0.03890870 0.08553634
v -0.01154350 -0.03880039 0.08539374
v -0.01239938 -0.03866502 0.08534440
v -0.01309964 -0.03856112 0.08527916
v -0.01104640 -0.03931168 0.08518423
v -0.01367023 -0.03847612 0.08520849
v -0.01333306 -0.03873932 0.08486850
v -0.01410897 -0.03858568 0.08460253
v -0.01582289 -0.03782379 0.08481246
v -0.01611035 -0.03755744 0.08511481
v -0.01787830 -0.03672944 0.08515998
v -0.01842727 -0.03660855 0.08483923
v -0.01926802 -0.03617471 0.08482375
v -0.01982780 -0.03600596 0.08456406
v -0.01923992 -0.03635857 0.08393092
v -0.02139691 -0.03507280 0.08348806
v -0.02160440 -0.03470760 0.08329277
v -0.01926802 -0.03553875 0.08541381
v -0.01838404 -0.03616715 0.08535736
v -0.01756707 -0.03640390 0.08541423
v -0.01667445 -0.03634346 0.08557691
v -0.01410897 -0.03719917 0.08562124
v -0.02090845 -0.03470760 0.08537827
v -0.01154350 -0.03805361 0.08562667
v -0.01068978 -0.03805361 0.08565594
v -0.00983606 -0.03805361 0.08567142
v -0.01239938 -0.03805361 0.08557147
v -0.01333306 -0.03813610 0.08542134
v -0.01410897 -0.03795035 0.08538914
v -0.01496485 -0.03778223 0.08532600
v -0.01553976 -0.03768149 0.08526160
v -0.01900002 -0.03600785 0.08528125
v -0.01957060 -0.03585673 0.08513405
v -0.01730771 -0.03685097 0.08527665
v -0.02146607 -0.03511688 0.08449213
v -0.02027735 -0.03577802 0.08393092
v -0.02094952 -0.03540086 0.08393092
v -0.02145959 -0.03511184 0.08393092
v -0.02207340 -0.03470760 0.08393092
v -0.02200856 -0.03470760 0.08380129
v -0.02166275 -0.03470760 0.08332288
v -0.02009364 -0.03527744 0.08533979
v -0.01667445 -0.03699327 0.08534983
v -0.01582289 -0.03724324 0.08540085
v -0.01496485 -0.03719917 0.08554973
v -0.02064694 -0.03512381 0.08526327
v -0.02098410 -0.03470760 0.08533729
v -0.02121752 -0.03495946 0.08506212
v -0.02177298 -0.03475860 0.08478068
v -0.02185079 -0.03470760 0.08478152
v -0.02177730 -0.03470760 0.08484550
f 1 2 5
f 1 5 10
f 1 10 14
f 1 14 19
f 1 19 25
f 1 25 38
f 1 38 58
f 1 58 79
f 1 79 119
f 1 119 161
f 1 161 160
f 1 160 159
f 1 159 192
f 1 192 216
f 1 216 215
f 1 215 214
f 1 214 225
f 1 225 226
f 1 226 222
f 1 222 198
f 1 198 164
f 1 164 122
f 1 122 81
f 1 81 60
f 1 60 40
f 1 40 27
f 1 27 22
f 1 22 20
f 1 20 15
f 1 15 11
f 1 11 6
f 1 6 3
f 1 3 4
f 1 4 2
f 2 4 5
f 3 6 7
f 3 7 8
f 3 8 4
f 4 8 7
f 4 7 12
f 4 12 16
f 4 16 21
f 4 21 26
f 4 26 39
f 4 39 59
f 4 59 61
f 4 61 85
f 4 85 129
f 4 129 130
f 4 130 86
f 4 86 62
f 4 62 49
f 4 49 48
f 4 48 41
f 4 41 28
f 4 28 23
f 4 23 17
f 4 17 13
f 4 13 9
f 4 9 10
f 4 10 5
f 6 11 7
f 7 11 12
f 9 13 14
f 9 14 10
f 11 15 16
f 11 16 12
f 13 17 24
f 13 24 36
f 13 36 55
f 13 55 78
f 13 78 117
f 13 117 157
f 13 157 120
f 13 120 80
f 13 80 57
f 13 57 37
f 13 37 25
f 13 25 19
f 13 19 18
f 13 18 14
f 14 18 19
f 15 20 16
f 16 20 22
f 16 22 21
f 17 23 30
f 17 30 24
f 21 22 26
f 22 27 26
f 23 28 29
f 23 29 30
f 24 30 31
f 24 31 32
f 24 32 33
f 24 33 34
f 24 34 35
f 24 35 36
f 25 37 38
f 26 27 39
f 27 40 39
f 28 41 29
f 29 42 43
f 29 43 44
f 29 44 45
f 29 45 46
f 29 46 47
f 29 47 32
f 29 32 31
f 29 31 30
f 29 41 48
f 29 48 49
f 29 49 42
f 32 47 50
f 32 50 34
f 32 34 33
f 34 50 35
f 35 51 36
f 35 50 52
f 35 52 51
f 36 53 54
f 36 54 55
f 36 51 56
f 36 56 53
f 37 57 58
f 37 58 38
f 39 40 59
f 40 60 61
f 40 61 59
f 42 49 62
f 42 62 63
f 42 63 43
f 43 63 44
f 44 63 64
f 44 64 45
f 45 64 65
f 45 65 66
f 45 66 67
f 45 67 46
f 46 67 52
f 46 52 50
f 46 50 47
f 51 52 68
f 51 68 69
f 51 69 56
f 52 67 70
f 52 70 71
f 52 71 68
f 53 56 72
f 53 72 54
f 54 73 74
f 54 74 75
f 54 75 55
f 54 72 73
f 55 75 74
f 55 74 76
f 55 76 77
f 55 77 78
f 56 69 72
f 57 79 58
f 57 80 79
f 60 81 82
f 60 82 83
f 60 83 61
f 61 84 85
f 61 83 84
f 62 86 87
f 62 87 63
f 63 87 88
f 63 88 89
f 63 89 90
f 63 90 64
f 64 90 89
f 64 89 91
f 64 91 65
f 65 92 66
f 65 91 93
f 65 93 94
f 65 94 95
f 65 95 92
f 66 92 96
f 66 96 97
f 66 97 98
f 66 98 99
f 66 99 69
f 66 69 67
f 67 69 68
f 67 68 71
f 67 71 70
f 69 99 100
f 69 100 72
f 72 100 101
f 72 101 102
f 72 102 103
f 72 103 104
f 72 104 73
f 73 104 105
f 73 105 106
f 73 106 107
f 73 107 108
f 73 108 109
f 73 109 110
f 73 110 74
f 74 110 77
f 74 77 76
f 77 110 111
f 77 111 112
f 77 112 113
f 77 113 114
f 77 114 115
f 77 115 116
f 77 116 78
f 78 116 118
f 78 118 117
f 79 80 119
f 80 120 119
f 81 121 82
f 81 122 121
f 82 123 124
f 82 124 83
f 82 121 123
f 83 124 125
f 83 125 126
f 83 126 84
f 84 127 128
f 84 128 85
f 84 126 127
f 85 128 129
f 86 130 87
f 87 130 128
f 87 128 131
f 87 131 132
f 87 132 88
f 88 132 133
f 88 133 89
f 89 133 134
f 89 134 135
f 89 135 136
f 89 136 91
f 91 136 137
f 91 137 138
f 91 138 93
f 92 95 96
f 93 138 137
f 93 137 94
f 94 137 139
f 94 139 140
f 94 140 95
f 95 140 141
f 95 141 142
f 95 142 143
f 95 143 144
f 95 144 97
f 95 97 96
f 97 144 98
f 98 144 143
f 98 143 99
f 99 102 100
f 99 143 145
f 99 145 146
f 99 146 147
f 99 147 148
f 99 148 149
f 99 149 104
f 99 104 102
f 100 102 101
f 102 104 103
f 104 149 107
f 104 107 105
f 105 107 106
f 107 149 152
f 107 152 150
f 107 150 109
f 107 109 108
f 109 150 110
f 110 150 151
f 110 151 111
f 111 152 112
f 111 151 150
f 111 150 152
f 112 152 153
f 112 153 113
f 113 153 114
f 114 153 115
f 115 153 154
f 115 154 155
f 115 155 116
f 116 155 156
f 116 156 118
f 117 118 158
f 117 158 159
f 117 159 160
f 117 160 161
f 117 161 119
f 117 119 157
f 118 156 158
f 119 120 157
f 121 122 162
f 121 162 163
f 121 163 123
f 122 164 162
f 123 163 165
f 123 165 166
f 123 166 124
f 124 166 125
f 125 166 167
f 125 167 126
f 126 167 168
f 126 168 169
f 126 169 127
f 127 169 128
f 128 130 129
f 128 169 168
f 128 168 170
f 128 170 171
f 128 171 131
f 131 171 132
f 132 171 172
f 132 172 133
f 133 172 173
f 133 173 134
f 134 173 174
f 134 174 135
f 135 174 136
f 136 174 175
f 136 175 137
f 137 175 176
f 137 176 140
f 137 140 139
f 140 176 141
f 141 176 177
f 141 177 178
f 141 178 142
f 142 178 179
f 142 179 180
f 142 180 143
f 143 180 145
f 145 180 146
f 146 180 147
f 147 180 148
f 148 180 149
f 149 180 181
f 149 181 182
f 149 182 183
f 149 183 152
f 152 183 181
f 152 181 184
f 152 184 153
f 153 184 185
f 153 185 186
f 153 186 154
f 154 186 187
f 154 187 188
f 154 188 189
f 154 189 155
f 155 189 190
f 155 190 156
f 156 191 158
f 156 190 191
f 158 191 192
f 158 192 159
f 162 193 194
f 162 194 195
f 162 195 196
f 162 196 163
f 162 164 193
f 163 196 197
f 163 197 165
f 164 198 193
f 165 199 200
f 165 200 201
f 165 201 166
f 165 197 199
f 166 201 167
f 167 171 170
f 167 170 168
f 167 201 171
f 171 201 172
f 172 201 173
f 173 201 200
f 173 200 174
f 174 200 199
f 174 199 175
f 175 199 202
f 175 202 176
f 176 202 177
f 177 202 178
f 178 202 203
f 178 203 204
f 178 204 179
f 179 181 180
f 179 204 205
f 179 205 181
f 181 205 206
f 181 206 185
f 181 185 184
f 181 183 182
f 185 206 186
f 186 207 208
f 186 208 187
f 186 206 209
f 186 209 207
f 187 208 188
f 188 208 189
f 189 208 210
f 189 210 190
f 190 210 211
f 190 211 191
f 191 211 212
f 191 212 213
f 191 213 214
f 191 214 215
f 191 215 216
f 191 216 192
f 193 198 217
f 193 217 194
f 194 217 207
f 194 207 209
f 194 209 218
f 194 218 195
f 195 218 219
f 195 219 196
f 196 219 220
f 196 220 197
f 197 220 202
f 197 202 199
f 198 221 217
f 198 222 223
f 198 223 221
f 202 220 204
f 202 204 203
f 204 220 205
f 205 220 219
f 205 219 218
f 205 218 206
f 206 218 209
f 207 217 221
f 207 221 208
f 208 221 223
f 208 223 210
f 210 223 224
f 210 224 225
f 210 225 214
f 210 214 213
f 210 213 212
f 210 212 211
f 222 226 223
f 223 226 225
f 223 225 224

