# https://github.com/mikedh/trimesh
v -0.02484380 0.02569662 0.00233373
v -0.02484380 0.02751431 0.00393897
v -0.02484380 0.03010480 0.00233373
v -0.01916337 0.03021026 0.00233373
v -0.02151006 0.03004121 0.00528110
v -0.02152118 0.03003316 0.00528110
v -0.02193713 0.02973933 0.00528110
v -0.02266283 0.02941894 0.00528110
v -0.02484380 0.02814221 0.00421161
v -0.02349640 0.02940526 0.00528110
v -0.02351587 0.02940526 0.00528110
v -0.02404860 0.02972082 0.00528110
v -0.02484380 0.03020623 0.00269321
v -0.02451849 0.03051938 0.00269321
v -0.02404192 0.03087358 0.00233373
v -0.02149838 0.03005248 0.00528110
v -0.01916337 0.03382068 0.00233373
v -0.01916337 0.03164959 0.00396292
v -0.02110801 0.03046866 0.00528110
v -0.02410921 0.03035677 0.00528110
v -0.02484380 0.02905830 0.00429210
v -0.02484380 0.03011688 0.00344072
v -0.02374164 0.03133887 0.00528110
v -0.02331401 0.03182670 0.00528110
v -0.02331345 0.03182670 0.00525831
v -0.02329899 0.03181221 0.00440318
v -0.02368881 0.03139039 0.00354834
v -0.02409086 0.03091946 0.00269321
v -0.02314829 0.03168743 0.00233373
v -0.01992799 0.03348580 0.00233373
v -0.01916337 0.03391970 0.00269321
v -0.01916337 0.03207383 0.00415737
v -0.02070874 0.03121731 0.00528110
v -0.02484380 0.02938916 0.00418824
v -0.02400911 0.03091141 0.00528110
v -0.02484380 0.03002752 0.00361902
v -0.02374942 0.03132759 0.00528110
v -0.02266116 0.03218250 0.00528110
v -0.02266116 0.03218009 0.00440318
v -0.02326118 0.03177759 0.00354834
v -0.02266116 0.03215111 0.00354834
v -0.02362041 0.03134692 0.00269321
v -0.02319278 0.03172124 0.00269321
v -0.02266116 0.03205451 0.00269321
v -0.02207115 0.03240066 0.00269321
v -0.02157234 0.03260513 0.00233373
v -0.02095119 0.03301648 0.00269321
v -0.02041234 0.03329341 0.00269321
v -0.01998471 0.03350834 0.00269321
v -0.01916337 0.03367256 0.00335129
v -0.01916337 0.03212132 0.00415737
v -0.01916337 0.03286676 0.00412419
v -0.02092617 0.03196918 0.00528110
v -0.02484380 0.02976429 0.00399754
v -0.02484380 0.02987377 0.00391907
v -0.02180812 0.03232338 0.00528110
v -0.02211620 0.03244091 0.00354834
v -0.02164408 0.03264538 0.00269321
v -0.01916337 0.03361138 0.00347679
v -0.01916337 0.03293438 0.00410544
v -0.01916337 0.03328938 0.00390320
v -0.01916337 0.03333044 0.00386165
f 1 2 9
f 1 9 21
f 1 21 34
f 1 34 54
f 1 54 55
f 1 55 36
f 1 36 22
f 1 22 13
f 1 13 3
f 1 3 15
f 1 15 29
f 1 29 46
f 1 46 30
f 1 30 17
f 1 17 4
f 1 4 5
f 1 5 6
f 1 6 7
f 1 7 8
f 1 8 2
f 2 8 10
f 2 10 11
f 2 11 12
f 2 12 9
f 3 13 14
f 3 14 15
f 4 16 5
f 4 17 31
f 4 31 50
f 4 50 59
f 4 59 62
f 4 62 61
f 4 61 60
f 4 60 52
f 4 52 51
f 4 51 32
f 4 32 18
f 4 18 19
f 4 19 16
f 5 16 19
f 5 19 33
f 5 33 53
f 5 53 56
f 5 56 38
f 5 38 24
f 5 24 23
f 5 23 37
f 5 37 35
f 5 35 20
f 5 20 12
f 5 12 11
f 5 11 10
f 5 10 8
f 5 8 7
f 5 7 6
f 9 12 20
f 9 20 21
f 13 22 23
f 13 23 24
f 13 24 25
f 13 25 26
f 13 26 27
f 13 27 14
f 14 27 28
f 14 28 15
f 15 28 29
f 17 30 31
f 18 32 33
f 18 33 19
f 20 34 21
f 20 35 34
f 22 36 35
f 22 35 37
f 22 37 23
f 24 38 39
f 24 39 25
f 25 39 26
f 26 40 27
f 26 39 41
f 26 41 40
f 27 40 42
f 27 42 28
f 28 42 29
f 29 42 43
f 29 43 44
f 29 44 45
f 29 45 46
f 30 47 48
f 30 48 49
f 30 49 31
f 30 46 47
f 31 49 39
f 31 39 38
f 31 38 50
f 32 51 33
f 33 51 52
f 33 52 53
f 34 35 54
f 35 36 55
f 35 55 54
f 38 56 50
f 39 49 48
f 39 48 57
f 39 57 41
f 40 43 42
f 40 41 44
f 40 44 43
f 41 57 47
f 41 47 58
f 41 58 45
f 41 45 44
f 45 58 46
f 46 58 47
f 47 57 48
f 50 56 59
f 52 60 53
f 53 60 61
f 53 61 56
f 56 61 62
f 56 62 59

