# https://github.com/mikedh/trimesh
v -0.01960970 -0.03385037 0.07705846
v -0.01960970 -0.03381070 0.07754332
v -0.02057440 -0.03337837 0.07765161
v -0.02009625 -0.03361558 0.07708968
v -0.02058668 -0.03338484 0.07133863
v -0.01960970 -0.03384146 0.07197471
v -0.01960970 -0.03377831 0.07793160
v -0.02100668 -0.03315734 0.07708968
v -0.02057893 -0.03337918 0.07708968
v -0.02266148 -0.03223196 0.07966034
v -0.02224406 -0.03249994 0.07843110
v -0.02180661 -0.03273473 0.07196007
v -0.02224148 -0.03249913 0.07110449
v -0.02223889 -0.03249751 0.07063816
v -0.02263434 -0.03225706 0.06969477
v -0.01960970 -0.03380422 0.07109278
v -0.01960970 -0.03349333 0.07851598
v -0.02184151 -0.03240279 0.07966034
v -0.02333735 -0.03185306 0.07966034
v -0.02334123 -0.03185144 0.07965546
v -0.02258200 -0.03230644 0.07874914
v -0.02266664 -0.03226920 0.07623409
v -0.02224406 -0.03249994 0.07817550
v -0.02224212 -0.03249913 0.07196007
v -0.02266923 -0.03226110 0.07110449
v -0.02257877 -0.03230725 0.07031231
v -0.02257941 -0.03231454 0.07281956
v -0.02309181 -0.03199960 0.06969477
v -0.02244695 -0.03234288 0.06969477
v -0.01960970 -0.03368521 0.07078742
v -0.01960970 -0.03292579 0.07887792
v -0.02093302 -0.03220929 0.07966034
v -0.02334381 -0.03184820 0.07966034
v -0.02621015 -0.02903723 0.07708968
v -0.02550519 -0.02976993 0.07708968
v -0.02507744 -0.03019821 0.07708968
v -0.02463224 -0.03062569 0.07708968
v -0.02375606 -0.03146121 0.07794526
v -0.02376510 -0.03145554 0.07623409
v -0.02334058 -0.03185063 0.07452487
v -0.02334058 -0.03184739 0.06969477
v -0.02159985 -0.03256309 0.06969477
v -0.01960970 -0.03351600 0.07050450
v -0.01960970 -0.03204575 0.07902328
v -0.01980871 -0.03206761 0.07914620
v -0.02074693 -0.03209028 0.07966034
v -0.02376898 -0.03137296 0.07966034
v -0.02621015 -0.02893684 0.07794526
v -0.02621015 -0.02902266 0.07196007
v -0.02549809 -0.02976103 0.07196007
v -0.02507033 -0.03019660 0.07196007
v -0.02463418 -0.03062488 0.07196007
v -0.02375670 -0.03146121 0.07110449
v -0.02349049 -0.03170814 0.06969477
v -0.02092074 -0.03261571 0.06969477
v -0.01960970 -0.03337837 0.07037280
v -0.02067133 -0.03116165 0.07966034
v -0.01960970 -0.03137620 0.07864963
v -0.02403907 -0.03094791 0.07966034
v -0.02621015 -0.02850046 0.07851793
v -0.02621015 -0.02900890 0.07172398
v -0.02505030 -0.03018283 0.07110449
v -0.02463095 -0.03061031 0.07110449
v -0.02420384 -0.03103373 0.07110449
v -0.02376769 -0.03140616 0.06969477
v -0.02547741 -0.02973674 0.07110449
v -0.02621015 -0.02896761 0.07110449
v -0.02074305 -0.03259142 0.06969477
v -0.02020997 -0.03250561 0.06969477
v -0.01960970 -0.03274363 0.06992891
v -0.02067520 -0.03115437 0.07966034
v -0.01960970 -0.03124180 0.07841061
v -0.02148677 -0.03002091 0.07966034
v -0.02107323 -0.03044677 0.07966034
v -0.02106871 -0.03045324 0.07966034
v -0.02404101 -0.03094225 0.07966034
v -0.02621015 -0.02778234 0.07872573
v -0.02408624 -0.03097868 0.06969477
v -0.02621015 -0.02892227 0.07100985
v -0.01997413 -0.03219391 0.06969477
v -0.01963231 -0.03252099 0.06981086
v -0.01960970 -0.03254366 0.06982647
v -0.01960970 -0.03102969 0.07796185
v -0.02191194 -0.02972135 0.07966034
v -0.02621015 -0.02569111 0.07790819
v -0.02420707 -0.03035690 0.07966034
v -0.02621015 -0.02687396 0.07864475
v -0.02421935 -0.02959425 0.07966034
v -0.02425295 -0.03073823 0.06969477
v -0.02621015 -0.02852232 0.07049572
v -0.01997413 -0.03217852 0.06969477
v -0.01963231 -0.03243841 0.06981086
v -0.01960970 -0.03246675 0.06982647
v -0.01960970 -0.03099568 0.07763698
v -0.02621015 -0.02558020 0.07708968
v -0.02191840 -0.02971731 0.07966034
v -0.02621015 -0.02586599 0.07819501
v -0.02621015 -0.02628861 0.07850720
v -0.02351634 -0.02930117 0.07966034
v -0.02455406 -0.02998367 0.06969477
v -0.02621015 -0.02845270 0.07045963
v -0.02018477 -0.03148064 0.06969477
v -0.01960970 -0.03241655 0.06983135
v -0.01960970 -0.03096168 0.07708968
v -0.02621015 -0.02559963 0.07196007
v -0.01960970 -0.03096735 0.07196007
v -0.02272415 -0.02932384 0.07966034
v -0.02621015 -0.02621088 0.07845744
v -0.02467230 -0.02929145 0.06969477
v -0.02621015 -0.02766333 0.07023036
v -0.02071979 -0.03067751 0.06969477
v -0.01960970 -0.03191216 0.06996208
v -0.01960970 -0.03100378 0.07108205
v -0.02621015 -0.02567007 0.07110449
v -0.02467230 -0.02917973 0.06969477
v -0.02621015 -0.02680838 0.07030548
v -0.02146416 -0.02999824 0.06969477
v -0.01960970 -0.03135029 0.07036207
v -0.02621015 -0.02579313 0.07088888
v -0.02430012 -0.02895627 0.06969477
v -0.02621015 -0.02610240 0.07056987
v -0.02347950 -0.02897570 0.06969477
v -0.02351634 -0.02897085 0.06969477
v -0.02186219 -0.02971488 0.06969477
v -0.02211548 -0.02954648 0.06969477
v -0.02621015 -0.02607406 0.07058645
v -0.02296517 -0.02911253 0.06969477
f 1 2 3
f 1 3 4
f 1 4 5
f 1 5 6
f 1 6 16
f 1 16 30
f 1 30 43
f 1 43 56
f 1 56 70
f 1 70 82
f 1 82 93
f 1 93 103
f 1 103 112
f 1 112 118
f 1 118 113
f 1 113 106
f 1 106 104
f 1 104 94
f 1 94 83
f 1 83 72
f 1 72 58
f 1 58 44
f 1 44 31
f 1 31 17
f 1 17 7
f 1 7 2
f 2 7 3
f 3 8 9
f 3 9 4
f 3 7 10
f 3 10 11
f 3 11 8
f 4 9 5
f 5 12 13
f 5 13 14
f 5 14 15
f 5 15 16
f 5 16 6
f 5 9 8
f 5 8 11
f 5 11 12
f 7 17 10
f 10 18 32
f 10 32 46
f 10 46 57
f 10 57 71
f 10 71 75
f 10 75 74
f 10 74 73
f 10 73 84
f 10 84 96
f 10 96 107
f 10 107 99
f 10 99 88
f 10 88 86
f 10 86 76
f 10 76 59
f 10 59 47
f 10 47 33
f 10 33 19
f 10 19 20
f 10 20 21
f 10 21 11
f 10 17 18
f 11 21 22
f 11 22 23
f 11 23 12
f 12 24 13
f 12 23 24
f 13 25 26
f 13 26 14
f 13 24 22
f 13 22 27
f 13 27 25
f 14 26 15
f 15 26 28
f 15 28 41
f 15 41 54
f 15 54 65
f 15 65 78
f 15 78 89
f 15 89 100
f 15 100 109
f 15 109 115
f 15 115 120
f 15 120 123
f 15 123 122
f 15 122 127
f 15 127 125
f 15 125 124
f 15 124 117
f 15 117 111
f 15 111 102
f 15 102 91
f 15 91 80
f 15 80 69
f 15 69 68
f 15 68 55
f 15 55 42
f 15 42 29
f 15 29 16
f 16 29 30
f 17 31 32
f 17 32 18
f 19 33 20
f 20 22 21
f 20 33 34
f 20 34 35
f 20 35 36
f 20 36 37
f 20 37 38
f 20 38 39
f 20 39 40
f 20 40 22
f 22 40 41
f 22 41 25
f 22 25 27
f 22 24 23
f 25 41 28
f 25 28 26
f 29 42 30
f 30 42 43
f 31 44 45
f 31 45 46
f 31 46 32
f 33 47 48
f 33 48 34
f 34 48 60
f 34 60 77
f 34 77 87
f 34 87 98
f 34 98 108
f 34 108 97
f 34 97 85
f 34 85 95
f 34 95 105
f 34 105 114
f 34 114 119
f 34 119 126
f 34 126 121
f 34 121 116
f 34 116 110
f 34 110 101
f 34 101 90
f 34 90 79
f 34 79 67
f 34 67 61
f 34 61 49
f 34 49 35
f 35 49 50
f 35 50 51
f 35 51 36
f 36 51 52
f 36 52 37
f 37 52 39
f 37 39 38
f 39 52 53
f 39 53 40
f 40 53 54
f 40 54 41
f 42 55 43
f 43 55 56
f 44 57 45
f 44 58 57
f 45 57 46
f 47 59 60
f 47 60 48
f 49 61 62
f 49 62 50
f 50 62 63
f 50 63 51
f 51 63 54
f 51 54 64
f 51 64 52
f 52 64 53
f 53 64 54
f 54 63 62
f 54 62 66
f 54 66 67
f 54 67 65
f 55 68 56
f 56 68 69
f 56 69 70
f 57 58 71
f 58 72 73
f 58 73 74
f 58 74 75
f 58 75 71
f 59 76 60
f 60 76 77
f 61 67 66
f 61 66 62
f 65 67 79
f 65 79 78
f 69 80 81
f 69 81 82
f 69 82 70
f 72 83 73
f 73 83 85
f 73 85 84
f 76 86 77
f 77 86 88
f 77 88 87
f 78 79 89
f 79 90 89
f 80 91 92
f 80 92 81
f 81 92 93
f 81 93 82
f 83 94 95
f 83 95 85
f 84 85 97
f 84 97 96
f 87 88 98
f 88 99 98
f 89 90 101
f 89 101 100
f 91 102 92
f 92 103 93
f 92 102 103
f 94 104 95
f 95 104 106
f 95 106 105
f 96 97 107
f 97 108 107
f 98 99 107
f 98 107 108
f 100 101 110
f 100 110 109
f 102 111 112
f 102 112 103
f 105 106 113
f 105 113 114
f 109 110 115
f 110 116 115
f 111 117 118
f 111 118 112
f 113 118 117
f 113 117 114
f 114 117 119
f 115 116 120
f 116 121 122
f 116 122 123
f 116 123 120
f 117 124 119
f 119 124 125
f 119 125 126
f 121 126 127
f 121 127 122
f 125 127 126

