# https://github.com/mikedh/trimesh
v -0.00647382 0.03719841 0.07298204
v -0.00647382 0.03714325 0.07295724
v -0.00647382 0.03795674 0.07272785
v -0.00988412 0.03715222 0.07505277
v -0.00975666 0.03650600 0.07505277
v -0.00973814 0.03634321 0.07505277
v -0.01001515 0.03581224 0.07505277
v -0.00647382 0.03648447 0.07265965
v -0.00647382 0.03800921 0.07270925
v -0.01051577 0.03749977 0.07505277
v -0.01023092 0.03565932 0.07505277
v -0.00647382 0.03645443 0.07262245
v -0.00647382 0.03840699 0.07226286
v -0.01087182 0.03767467 0.07505277
v -0.01094446 0.03529518 0.07505277
v -0.00647382 0.03605530 0.07190947
v -0.00647382 0.03843704 0.07220706
v -0.01154406 0.03767825 0.07505277
v -0.01131903 0.03512342 0.07505277
v -0.00647382 0.03605261 0.07190328
v -0.00647382 0.03853390 0.07181028
v -0.01200693 0.03763924 0.07505277
v -0.00647382 0.03854018 0.07177928
v -0.01158251 0.03504000 0.07505277
v -0.00647382 0.03604857 0.07188468
v -0.01200764 0.03763924 0.07451959
v -0.01243135 0.03745403 0.07366401
v -0.01243491 0.03744775 0.07505277
v -0.00696660 0.03850072 0.07162428
v -0.00647382 0.03854332 0.03155505
v -0.00698013 0.03850296 0.03142485
v -0.01174630 0.03499292 0.07505277
v -0.00677005 0.03590328 0.07158709
v -0.00647382 0.03602840 0.06597008
v -0.01200764 0.03763969 0.06939236
v -0.01325455 0.03707957 0.07195907
v -0.01242708 0.03745627 0.06768122
v -0.01325455 0.03708181 0.03177204
v -0.01287927 0.03718361 0.07505277
v -0.01374733 0.03684413 0.07195907
v -0.00647382 0.03854332 0.03112106
v -0.00698013 0.03850296 0.03125746
v -0.01239931 0.03490098 0.07505277
v -0.01374733 0.03397000 0.07195907
v -0.01374733 0.03396327 0.06597008
v -0.00675795 0.03590103 0.03139385
v -0.00647382 0.03602301 0.03697986
v -0.01200764 0.03763969 0.02322253
v -0.01242850 0.03745537 0.02749418
v -0.01243420 0.03745089 0.01210011
v -0.01325455 0.03707240 0.01381125
v -0.01374733 0.03683696 0.01381125
v -0.01374733 0.03684548 0.03091647
v -0.01374733 0.03684548 0.03177204
v -0.01312708 0.03701993 0.07505277
v -0.01374733 0.03680377 0.07259765
v -0.00647382 0.03853884 0.01977545
v -0.00693811 0.03849668 0.01412744
v -0.00983428 0.03801145 0.01381125
v -0.01200693 0.03763924 0.01171572
v -0.01311355 0.03491219 0.07505277
v -0.01374733 0.03405475 0.07230626
v -0.01374733 0.03396237 0.04288826
v -0.00675795 0.03590103 0.03128846
v -0.00647382 0.03602660 0.01980025
v -0.01243420 0.03744685 0.01171572
v -0.01374733 0.03683426 0.01374305
v -0.01374733 0.03631316 0.07505277
v -0.00647382 0.03853256 0.01438163
v -0.00647382 0.03852763 0.01387945
v -0.00647382 0.03850610 0.01374305
v -0.01154406 0.03767601 0.01171572
v -0.01374733 0.03547500 0.07505277
v -0.01374733 0.03421844 0.07267825
v -0.01374733 0.03413009 0.07251085
v -0.01374733 0.03396282 0.01980025
v -0.01374733 0.03396596 0.01381125
v -0.00680922 0.03591045 0.01420184
v -0.00647382 0.03603557 0.01387325
v -0.01283298 0.03721141 0.01171572
v -0.01374733 0.03680781 0.01316647
v -0.00647382 0.03823389 0.01324087
v -0.00664900 0.03845273 0.01356326
v -0.01089105 0.03767243 0.01171572
v -0.01374733 0.03411574 0.01322227
v -0.01174915 0.03499381 0.01171572
v -0.01155688 0.03504942 0.01171572
v -0.01132117 0.03512387 0.01171572
v -0.00647382 0.03644591 0.01306108
v -0.01312352 0.03701948 0.01171572
v -0.01374733 0.03680243 0.01313547
v -0.00647382 0.03810787 0.01306728
v -0.01052645 0.03749573 0.01171572
v -0.01374733 0.03435073 0.01281928
v -0.01309931 0.03492072 0.01171572
v -0.01239931 0.03490637 0.01171572
v -0.01098861 0.03527589 0.01171572
v -0.01027792 0.03563959 0.01171572
v -0.01003224 0.03581359 0.01171572
v -0.00647382 0.03719841 0.01268289
v -0.01374733 0.03630509 0.01171572
v -0.01374733 0.03671363 0.01266429
v -0.00989552 0.03713966 0.01171572
v -0.01374733 0.03478753 0.01220550
v -0.01374733 0.03549429 0.01171572
v -0.00975381 0.03634321 0.01171572
v -0.00977802 0.03655443 0.01171572
f 1 2 8
f 1 8 12
f 1 12 16
f 1 16 20
f 1 20 25
f 1 25 34
f 1 34 47
f 1 47 65
f 1 65 79
f 1 79 89
f 1 89 100
f 1 100 92
f 1 92 82
f 1 82 71
f 1 71 70
f 1 70 69
f 1 69 57
f 1 57 41
f 1 41 30
f 1 30 23
f 1 23 21
f 1 21 17
f 1 17 13
f 1 13 9
f 1 9 3
f 1 3 4
f 1 4 5
f 1 5 6
f 1 6 7
f 1 7 2
f 2 7 8
f 3 9 4
f 4 10 14
f 4 14 18
f 4 18 22
f 4 22 28
f 4 28 39
f 4 39 55
f 4 55 68
f 4 68 73
f 4 73 61
f 4 61 43
f 4 43 32
f 4 32 24
f 4 24 19
f 4 19 15
f 4 15 11
f 4 11 7
f 4 7 6
f 4 6 5
f 4 9 10
f 7 11 12
f 7 12 8
f 9 13 14
f 9 14 10
f 11 15 16
f 11 16 12
f 13 17 14
f 14 17 18
f 15 19 20
f 15 20 16
f 17 21 18
f 18 21 23
f 18 23 22
f 19 24 25
f 19 25 20
f 22 26 27
f 22 27 28
f 22 23 29
f 22 29 26
f 23 30 31
f 23 31 29
f 24 32 33
f 24 33 25
f 25 33 34
f 26 29 31
f 26 31 35
f 26 35 27
f 27 36 28
f 27 35 37
f 27 37 38
f 27 38 36
f 28 36 40
f 28 40 39
f 30 41 42
f 30 42 31
f 31 42 48
f 31 48 35
f 32 43 44
f 32 44 33
f 33 44 45
f 33 45 46
f 33 46 47
f 33 47 34
f 35 48 37
f 36 38 40
f 37 48 49
f 37 49 38
f 38 49 50
f 38 50 51
f 38 51 52
f 38 52 53
f 38 53 54
f 38 54 40
f 39 40 56
f 39 56 55
f 40 54 53
f 40 53 52
f 40 52 67
f 40 67 81
f 40 81 91
f 40 91 102
f 40 102 101
f 40 101 105
f 40 105 104
f 40 104 94
f 40 94 85
f 40 85 77
f 40 77 76
f 40 76 63
f 40 63 45
f 40 45 44
f 40 44 62
f 40 62 75
f 40 75 74
f 40 74 73
f 40 73 68
f 40 68 56
f 41 57 42
f 42 57 58
f 42 58 59
f 42 59 60
f 42 60 48
f 43 61 62
f 43 62 44
f 45 63 46
f 46 63 64
f 46 64 47
f 47 64 65
f 48 60 49
f 49 60 50
f 50 60 66
f 50 66 52
f 50 52 51
f 52 66 67
f 55 56 68
f 57 69 58
f 58 69 70
f 58 70 60
f 58 60 59
f 60 70 71
f 60 71 72
f 60 72 84
f 60 84 93
f 60 93 103
f 60 103 107
f 60 107 106
f 60 106 99
f 60 99 98
f 60 98 97
f 60 97 88
f 60 88 87
f 60 87 86
f 60 86 96
f 60 96 95
f 60 95 105
f 60 105 101
f 60 101 90
f 60 90 80
f 60 80 66
f 61 73 74
f 61 74 75
f 61 75 62
f 63 76 64
f 64 76 77
f 64 77 78
f 64 78 79
f 64 79 65
f 66 80 81
f 66 81 67
f 71 82 83
f 71 83 72
f 72 83 84
f 77 85 86
f 77 86 79
f 77 79 78
f 79 86 87
f 79 87 88
f 79 88 89
f 80 90 81
f 81 90 91
f 82 92 84
f 82 84 83
f 84 92 93
f 85 94 95
f 85 95 96
f 85 96 86
f 88 97 89
f 89 97 98
f 89 98 99
f 89 99 100
f 90 101 102
f 90 102 91
f 92 100 103
f 92 103 93
f 94 104 95
f 95 104 105
f 99 106 100
f 100 106 107
f 100 107 103

