# https://github.com/mikedh/trimesh
v 0.03443004 0.01264821 0.00838342
v 0.03734044 0.01264821 0.00838342
v 0.03443328 0.01264821 0.00817349
v 0.03590265 0.00676690 0.00821011
v 0.03590265 0.00676690 0.00830546
v 0.03594153 0.00669121 0.00838342
v 0.03748583 0.01231808 0.00702779
v 0.03733963 0.01264821 0.00822062
v 0.03744857 0.01239950 0.00838342
v 0.03444259 0.01264821 0.00782362
v 0.03615376 0.00614989 0.00786386
v 0.03613027 0.00614989 0.00838342
v 0.03499381 0.01164509 0.00467983
v 0.03504201 0.01148607 0.00467983
v 0.03762880 0.01197904 0.00678233
v 0.03762880 0.01197904 0.00611377
v 0.03743885 0.01240650 0.00611377
v 0.03733760 0.01264821 0.00782362
v 0.03762151 0.01194978 0.00838342
v 0.03486218 0.01264821 0.00467983
v 0.03485004 0.01239950 0.00467983
v 0.03626878 0.00614989 0.00766372
v 0.03511086 0.01128252 0.00467983
v 0.03522710 0.01099501 0.00467983
v 0.03564628 0.01013946 0.00467983
v 0.03856761 0.00614989 0.00838342
v 0.03764946 0.01180221 0.00838342
v 0.03780417 0.01097656 0.00838342
v 0.03785682 0.01068905 0.00838342
v 0.03762678 0.01197395 0.00565186
v 0.03850200 0.00697172 0.00818002
v 0.03742873 0.01237406 0.00467983
v 0.03732261 0.01264821 0.00700640
v 0.03727442 0.01264821 0.00467983
v 0.03655917 0.00614989 0.00720363
v 0.03576252 0.00996517 0.00467983
v 0.03856761 0.00614989 0.00827428
v 0.03850200 0.00697172 0.00834535
v 0.03851213 0.00684387 0.00838342
v 0.03795402 0.01012929 0.00838342
v 0.03761544 0.01170361 0.00467983
v 0.03854615 0.00641387 0.00804478
v 0.03674183 0.00614989 0.00712169
v 0.03634371 0.00958670 0.00467983
v 0.03856316 0.00614989 0.00796610
v 0.03848702 0.00700798 0.00838342
v 0.03763690 0.01144981 0.00467983
v 0.03719828 0.00614989 0.00694476
v 0.03635505 0.00958861 0.00467983
v 0.03841452 0.00614989 0.00755423
v 0.03765108 0.01088942 0.00467983
v 0.03764338 0.01133468 0.00467983
v 0.03747854 0.00614989 0.00700458
v 0.03716952 0.00982969 0.00467983
v 0.03818002 0.00614989 0.00729246
v 0.03752714 0.01059745 0.00467983
v 0.03801032 0.00614989 0.00714816
f 1 2 8
f 1 8 18
f 1 18 33
f 1 33 34
f 1 34 20
f 1 20 10
f 1 10 3
f 1 3 4
f 1 4 5
f 1 5 6
f 1 6 12
f 1 12 26
f 1 26 39
f 1 39 46
f 1 46 40
f 1 40 29
f 1 29 28
f 1 28 27
f 1 27 19
f 1 19 9
f 1 9 2
f 2 7 8
f 2 9 7
f 3 10 4
f 4 11 12
f 4 12 5
f 4 10 13
f 4 13 14
f 4 14 11
f 5 12 6
f 7 15 16
f 7 16 17
f 7 17 18
f 7 18 8
f 7 9 15
f 9 19 15
f 10 20 21
f 10 21 13
f 11 22 35
f 11 35 43
f 11 43 48
f 11 48 53
f 11 53 57
f 11 57 55
f 11 55 50
f 11 50 45
f 11 45 37
f 11 37 26
f 11 26 12
f 11 14 23
f 11 23 24
f 11 24 25
f 11 25 22
f 13 21 20
f 13 20 34
f 13 34 32
f 13 32 41
f 13 41 47
f 13 47 52
f 13 52 51
f 13 51 56
f 13 56 54
f 13 54 49
f 13 49 44
f 13 44 36
f 13 36 25
f 13 25 24
f 13 24 23
f 13 23 14
f 15 19 27
f 15 27 28
f 15 28 29
f 15 29 16
f 16 30 17
f 16 29 31
f 16 31 30
f 17 30 32
f 17 32 33
f 17 33 18
f 22 25 35
f 25 36 35
f 26 37 31
f 26 31 38
f 26 38 39
f 29 40 31
f 30 41 32
f 30 31 41
f 31 40 38
f 31 37 42
f 31 42 41
f 32 34 33
f 35 36 44
f 35 44 43
f 37 45 42
f 38 46 39
f 38 40 46
f 41 42 45
f 41 45 47
f 43 44 48
f 44 49 48
f 45 50 51
f 45 51 52
f 45 52 47
f 48 49 54
f 48 54 53
f 50 55 51
f 51 55 56
f 53 54 57
f 54 55 57
f 54 56 55

