# https://github.com/mikedh/trimesh
v -0.03946124 -0.00000660 0.01171572
v -0.03693043 -0.00000660 0.01171572
v -0.03946545 -0.00000660 0.01210011
v -0.03946159 0.00004421 0.01171572
v -0.03693254 0.00042767 0.01171572
v -0.03598397 0.00691474 0.01369345
v -0.03590191 0.00691474 0.01413364
v -0.03675790 -0.00000660 0.01327807
v -0.03946650 0.00042767 0.01210011
v -0.03946755 -0.00000660 0.01552239
v -0.03946124 0.00042767 0.01171572
v -0.03716538 0.00128336 0.01171572
v -0.03636339 0.00691474 0.01306108
v -0.03590086 0.00691474 0.01428243
v -0.03591033 0.00680837 0.01420184
v -0.03670495 -0.00000660 0.01381125
v -0.03922594 0.00213836 0.01381125
v -0.03909549 0.00299337 0.01381125
v -0.03946860 0.00042767 0.01808910
v -0.03946896 0.00042767 0.02407190
v -0.03946826 -0.00000660 0.03006090
v -0.03940443 0.00071019 0.01171572
v -0.03849619 0.00691474 0.01412744
v -0.03744733 0.00195815 0.01171572
v -0.03719870 0.00691474 0.01264569
v -0.03588683 0.00691474 0.03123886
v -0.03590121 0.00675688 0.03128846
v -0.03670425 -0.00000660 0.03091647
v -0.03922524 0.00213836 0.03689926
v -0.03909829 0.00299337 0.05998728
v -0.03850846 0.00691474 0.03123886
v -0.03946896 0.00042767 0.07024793
v -0.03849654 0.00691474 0.01428243
v -0.03946826 -0.00000660 0.03262761
v -0.03935709 0.00091344 0.01171572
v -0.03843131 0.00691474 0.01368725
v -0.03790566 0.00211871 0.01171572
v -0.03805364 0.00215327 0.01171572
v -0.03866942 0.00197644 0.01171572
v -0.03886755 0.00173728 0.01171572
v -0.03803786 0.00691474 0.01303628
v -0.03588683 0.00691474 0.03143725
v -0.03590121 0.00675688 0.03139385
v -0.03670390 -0.00000660 0.05399828
v -0.03922383 0.00213836 0.07195907
v -0.03850531 0.00691474 0.07163668
v -0.03850846 0.00691474 0.03144345
v -0.03946790 -0.00000660 0.07024793
v -0.03946720 -0.00000660 0.07280844
v -0.03946650 0.00042767 0.07280844
v -0.03845306 0.00664645 0.01356326
v -0.03589034 0.00691474 0.07163668
v -0.03590331 0.00676907 0.07158709
v -0.03670390 -0.00000660 0.07195907
v -0.03946194 0.00042767 0.07505277
v -0.03939812 0.00074271 0.07505277
v -0.03935779 0.00091615 0.07505277
v -0.03845060 0.00691474 0.07187228
v -0.03946194 -0.00000660 0.07505277
v -0.03601237 0.00691474 0.07207067
v -0.03692833 -0.00000660 0.07505277
v -0.03884546 0.00178471 0.07505277
v -0.03797789 0.00691474 0.07270925
v -0.03815498 0.00691474 0.07251085
v -0.03840782 0.00691474 0.07204587
v -0.03619016 0.00691474 0.07238686
v -0.03693008 0.00042767 0.07505277
v -0.03867363 0.00199134 0.07505277
v -0.03753570 0.00691474 0.07290144
v -0.03644089 0.00691474 0.07269065
v -0.03715767 0.00128336 0.07505277
v -0.03805364 0.00217156 0.07505277
v -0.03719870 0.00691474 0.07301304
v -0.03673406 0.00691474 0.07282084
v -0.03743996 0.00197441 0.07505277
v -0.03794142 0.00214581 0.07505277
f 1 2 8
f 1 8 16
f 1 16 28
f 1 28 44
f 1 44 54
f 1 54 61
f 1 61 59
f 1 59 49
f 1 49 48
f 1 48 34
f 1 34 21
f 1 21 10
f 1 10 3
f 1 3 4
f 1 4 11
f 1 11 22
f 1 22 35
f 1 35 40
f 1 40 39
f 1 39 38
f 1 38 37
f 1 37 24
f 1 24 12
f 1 12 5
f 1 5 2
f 2 5 6
f 2 6 7
f 2 7 8
f 3 9 4
f 3 10 9
f 4 9 11
f 5 12 13
f 5 13 6
f 6 13 25
f 6 25 41
f 6 41 36
f 6 36 23
f 6 23 33
f 6 33 31
f 6 31 47
f 6 47 46
f 6 46 58
f 6 58 65
f 6 65 64
f 6 64 63
f 6 63 69
f 6 69 73
f 6 73 74
f 6 74 70
f 6 70 66
f 6 66 60
f 6 60 52
f 6 52 42
f 6 42 26
f 6 26 14
f 6 14 7
f 7 14 15
f 7 15 16
f 7 16 8
f 9 17 18
f 9 18 11
f 9 10 19
f 9 19 17
f 10 20 19
f 10 21 20
f 11 18 23
f 11 23 22
f 12 24 25
f 12 25 13
f 14 26 15
f 15 26 27
f 15 27 16
f 16 27 28
f 17 29 30
f 17 30 31
f 17 31 18
f 17 19 20
f 17 20 32
f 17 32 29
f 18 33 23
f 18 31 33
f 20 21 34
f 20 34 32
f 22 23 36
f 22 36 35
f 24 37 25
f 25 38 39
f 25 39 40
f 25 40 41
f 25 37 38
f 26 42 43
f 26 43 27
f 27 43 54
f 27 54 44
f 27 44 28
f 29 32 45
f 29 45 30
f 30 45 46
f 30 46 47
f 30 47 31
f 32 48 49
f 32 49 50
f 32 50 45
f 32 34 48
f 35 36 51
f 35 51 41
f 35 41 40
f 36 41 51
f 42 52 53
f 42 53 43
f 43 53 54
f 45 50 55
f 45 55 46
f 46 55 56
f 46 56 57
f 46 57 58
f 49 59 55
f 49 55 50
f 52 60 61
f 52 61 53
f 53 61 54
f 55 59 61
f 55 61 67
f 55 67 71
f 55 71 75
f 55 75 76
f 55 76 72
f 55 72 68
f 55 68 62
f 55 62 57
f 55 57 56
f 57 62 63
f 57 63 64
f 57 64 65
f 57 65 58
f 60 66 67
f 60 67 61
f 62 68 63
f 63 68 69
f 66 70 67
f 67 70 71
f 68 72 73
f 68 73 69
f 70 74 75
f 70 75 71
f 72 76 73
f 73 76 75
f 73 75 74

