# https://github.com/mikedh/trimesh
v -0.00658805 -0.03724751 0.06727644
v -0.00658805 -0.03765584 0.06727049
v -0.00658805 -0.03706769 0.06726453
v -0.00975644 -0.03630872 0.06922363
v -0.00658805 -0.03813985 0.06678220
v -0.00990890 -0.03716434 0.06922363
v -0.01006582 -0.03727186 0.06922363
v -0.01073355 -0.03761014 0.06922363
v -0.01083927 -0.03765996 0.06922363
v -0.00678615 -0.03675863 0.06725858
v -0.00981208 -0.03620158 0.06922363
v -0.00658805 -0.03658855 0.06702635
v -0.00658805 -0.03827284 0.06658570
v -0.01096058 -0.03766296 0.06922363
v -0.00679171 -0.03847326 0.06626415
v -0.01009587 -0.03580973 0.06922363
v -0.00658805 -0.03651850 0.06694894
v -0.00658805 -0.03851372 0.06607955
v -0.01154484 -0.03766708 0.06922363
v -0.01163721 -0.03766333 0.06922363
v -0.01200558 -0.03763861 0.06922363
v -0.01069015 -0.03545234 0.06922363
v -0.00658805 -0.03644470 0.06686557
v -0.00658805 -0.03852383 0.06589496
v -0.01234723 -0.03748651 0.06922363
v -0.01200892 -0.03763936 0.06853288
v -0.00983434 -0.03800873 0.06597237
v -0.00897964 -0.03814959 0.06597237
v -0.00689187 -0.03848899 0.06569250
v -0.01133785 -0.03513092 0.06922363
v -0.00658805 -0.03607720 0.06613314
v -0.00696421 -0.03850060 0.05449173
v -0.00658805 -0.03853057 0.05457510
v -0.01243293 -0.03744718 0.06922363
v -0.01243181 -0.03745130 0.06768136
v -0.01242625 -0.03745617 0.05827296
v -0.01200892 -0.03763973 0.05656396
v -0.00697979 -0.03850323 0.03142327
v -0.01142243 -0.03510507 0.06922363
v -0.00658805 -0.03600677 0.06597237
v -0.00658805 -0.03853432 0.03152450
v -0.01311958 -0.03701937 0.06922363
v -0.01794616 -0.03470760 0.06597237
v -0.01549781 -0.03597081 0.06597237
v -0.01496474 -0.03623904 0.06597237
v -0.01420798 -0.03661216 0.06597237
v -0.01325424 -0.03707069 0.06597237
v -0.01325424 -0.03707968 0.05399749
v -0.01325424 -0.03708118 0.03091712
v -0.01242847 -0.03745542 0.03519259
v -0.01200892 -0.03763973 0.01637578
v -0.00697979 -0.03850323 0.03125654
v -0.01176519 -0.03500205 0.06922363
v -0.01191210 -0.03470760 0.06597237
v -0.01217251 -0.03470760 0.06682389
v -0.00658805 -0.03599254 0.05418209
v -0.00677168 -0.03590376 0.05446196
v -0.00658805 -0.03853432 0.03114936
v -0.01349239 -0.03649078 0.06922363
v -0.01733407 -0.03470760 0.06669288
v -0.01719941 -0.03511032 0.05456914
v -0.01795284 -0.03470760 0.04288009
v -0.01720498 -0.03511331 0.03151259
v -0.01550338 -0.03597231 0.03159000
v -0.01496474 -0.03623941 0.05998195
v -0.01421799 -0.03661178 0.05399749
v -0.01379065 -0.03682307 0.05399749
v -0.01378842 -0.03682344 0.05485496
v -0.01379176 -0.03682419 0.03176864
v -0.01379176 -0.03682419 0.03091712
v -0.01378953 -0.03682307 0.00868232
v -0.01325424 -0.03707668 0.00868232
v -0.01242959 -0.03745467 0.01210031
v -0.01200780 -0.03763936 0.01124879
v -0.00701762 -0.03848262 0.00839054
v -0.00681063 -0.03851484 0.00839054
v -0.01227712 -0.03493574 0.06922363
v -0.01239843 -0.03470760 0.06716926
v -0.00675832 -0.03590113 0.03139350
v -0.01190319 -0.03470760 0.05399749
v -0.00658805 -0.03599104 0.02561745
v -0.00658805 -0.03853245 0.00839054
v -0.01355360 -0.03639525 0.06922363
v -0.01360146 -0.03548531 0.06922363
v -0.01356139 -0.03539315 0.06922363
v -0.01323532 -0.03503689 0.06922363
v -0.01313627 -0.03494211 0.06922363
v -0.01683884 -0.03470760 0.06696680
v -0.01795618 -0.03470760 0.01979972
v -0.01720498 -0.03511331 0.03116722
v -0.01550338 -0.03597231 0.03108981
v -0.01421688 -0.03661365 0.01381526
v -0.01421688 -0.03660953 0.00868232
v -0.01378842 -0.03682232 0.00839054
v -0.01325424 -0.03707593 0.00839054
v -0.01241735 -0.03745767 0.00953980
v -0.01200669 -0.03763898 0.01039132
v -0.00983434 -0.03800423 0.00868232
v -0.01069015 -0.03785851 0.00868232
v -0.01012258 -0.03795366 0.00839054
v -0.01239843 -0.03492750 0.06922363
v -0.01327872 -0.03470760 0.06753845
v -0.00675832 -0.03590113 0.03129227
v -0.01190319 -0.03470760 0.04887051
v -0.00658805 -0.03599104 0.02561150
v -0.00658805 -0.03599703 0.00839054
v -0.01301163 -0.03493087 0.06922363
v -0.01667413 -0.03470760 0.06704421
v -0.01784711 -0.03470760 0.00871210
v -0.01720164 -0.03511144 0.00839054
v -0.01407109 -0.03668071 0.00839054
v -0.01234723 -0.03747003 0.00839054
v -0.01199111 -0.03763299 0.00953980
v -0.01069015 -0.03785664 0.00839054
v -0.01369828 -0.03470760 0.06763372
v -0.00658805 -0.03599441 0.00845605
v -0.00663257 -0.03597156 0.00839054
v -0.00668487 -0.03594496 0.00839054
v -0.01190764 -0.03470760 0.00868232
v -0.01190653 -0.03470760 0.01381526
v -0.01580497 -0.03470760 0.06733599
v -0.01591069 -0.03470760 0.06730622
v -0.01782931 -0.03470760 0.00839650
v -0.01734520 -0.03500205 0.00839054
v -0.01194659 -0.03762063 0.00839054
v -0.01197664 -0.03762737 0.00904556
v -0.01157823 -0.03769293 0.00839054
v -0.01192545 -0.03470760 0.00839054
v -0.01744314 -0.03470760 0.00839054
v -0.01750434 -0.03486906 0.00839054
f 1 2 5
f 1 5 13
f 1 13 18
f 1 18 24
f 1 24 33
f 1 33 41
f 1 41 58
f 1 58 82
f 1 82 106
f 1 106 116
f 1 116 105
f 1 105 81
f 1 81 56
f 1 56 40
f 1 40 31
f 1 31 23
f 1 23 17
f 1 17 12
f 1 12 3
f 1 3 4
f 1 4 2
f 2 4 6
f 2 6 7
f 2 7 8
f 2 8 9
f 2 9 5
f 3 10 11
f 3 11 4
f 3 12 10
f 4 11 16
f 4 16 22
f 4 22 30
f 4 30 39
f 4 39 53
f 4 53 77
f 4 77 101
f 4 101 107
f 4 107 87
f 4 87 86
f 4 86 85
f 4 85 84
f 4 84 83
f 4 83 59
f 4 59 42
f 4 42 34
f 4 34 25
f 4 25 21
f 4 21 20
f 4 20 19
f 4 19 14
f 4 14 9
f 4 9 8
f 4 8 7
f 4 7 6
f 5 9 13
f 9 14 15
f 9 15 13
f 10 12 11
f 11 12 16
f 12 17 16
f 13 15 18
f 14 19 15
f 15 19 20
f 15 20 21
f 15 21 18
f 16 17 23
f 16 23 22
f 18 21 24
f 21 25 26
f 21 26 27
f 21 27 28
f 21 28 29
f 21 29 24
f 22 23 31
f 22 31 30
f 24 29 32
f 24 32 33
f 25 34 35
f 25 35 26
f 26 35 36
f 26 36 37
f 26 37 38
f 26 38 32
f 26 32 27
f 27 32 28
f 28 32 29
f 30 31 40
f 30 40 39
f 32 38 33
f 33 38 41
f 34 42 43
f 34 43 44
f 34 44 45
f 34 45 46
f 34 46 47
f 34 47 35
f 35 47 48
f 35 48 36
f 36 48 49
f 36 49 50
f 36 50 37
f 37 50 51
f 37 51 52
f 37 52 38
f 38 52 58
f 38 58 41
f 39 40 53
f 40 54 55
f 40 55 53
f 40 56 57
f 40 57 54
f 42 59 60
f 42 60 43
f 43 61 44
f 43 60 88
f 43 88 108
f 43 108 122
f 43 122 121
f 43 121 115
f 43 115 102
f 43 102 78
f 43 78 55
f 43 55 54
f 43 54 80
f 43 80 104
f 43 104 120
f 43 120 119
f 43 119 128
f 43 128 129
f 43 129 123
f 43 123 109
f 43 109 89
f 43 89 62
f 43 62 63
f 43 63 61
f 44 61 63
f 44 63 64
f 44 64 45
f 45 65 66
f 45 66 67
f 45 67 46
f 45 64 65
f 46 67 68
f 46 68 47
f 47 68 67
f 47 67 48
f 48 67 69
f 48 69 49
f 49 69 70
f 49 70 71
f 49 71 72
f 49 72 73
f 49 73 50
f 50 73 51
f 51 73 74
f 51 74 52
f 52 74 75
f 52 75 76
f 52 76 58
f 53 55 78
f 53 78 77
f 54 57 79
f 54 79 80
f 56 81 79
f 56 79 57
f 58 76 82
f 59 83 60
f 60 84 85
f 60 85 86
f 60 86 87
f 60 87 88
f 60 83 84
f 62 89 63
f 63 89 90
f 63 90 91
f 63 91 64
f 64 91 92
f 64 92 66
f 64 66 65
f 66 92 69
f 66 69 67
f 69 92 70
f 70 92 71
f 71 92 93
f 71 93 94
f 71 94 95
f 71 95 72
f 72 95 96
f 72 96 73
f 73 96 74
f 74 96 97
f 74 97 75
f 75 97 98
f 75 98 99
f 75 99 100
f 75 100 114
f 75 114 127
f 75 127 125
f 75 125 112
f 75 112 95
f 75 95 94
f 75 94 111
f 75 111 110
f 75 110 124
f 75 124 130
f 75 130 129
f 75 129 128
f 75 128 118
f 75 118 117
f 75 117 106
f 75 106 82
f 75 82 76
f 77 78 101
f 78 102 101
f 79 81 105
f 79 105 103
f 79 103 104
f 79 104 80
f 87 107 108
f 87 108 88
f 89 109 110
f 89 110 90
f 90 110 91
f 91 110 92
f 92 110 93
f 93 110 111
f 93 111 94
f 95 112 96
f 96 112 97
f 97 112 113
f 97 113 114
f 97 114 99
f 97 99 98
f 99 114 100
f 101 102 115
f 101 115 107
f 103 105 116
f 103 116 117
f 103 117 118
f 103 118 119
f 103 119 120
f 103 120 104
f 106 117 116
f 107 115 121
f 107 121 122
f 107 122 108
f 109 123 110
f 110 123 124
f 112 125 126
f 112 126 113
f 113 126 127
f 113 127 114
f 118 128 119
f 123 129 130
f 123 130 124
f 125 127 126

