# https://github.com/mikedh/trimesh
v -0.00812381 0.02952321 0.00204062
v -0.00812381 0.02564473 0.00311889
v -0.00812381 0.02952321 -0.00002242
v -0.00821026 0.02952321 0.00208335
v -0.00812381 0.02527710 0.00320033
v -0.00857333 0.02952321 0.00225778
v -0.00892451 0.02952321 0.00232414
v -0.00812489 0.02437111 0.00342352
v -0.00812489 0.02351644 0.00362410
v -0.00812381 0.02952112 -0.00002996
v -0.00812489 0.02952321 -0.00003147
v -0.00812381 0.02098176 0.00338733
v -0.00812489 0.02266177 0.00370654
v -0.00894612 0.02952321 0.00232514
v -0.00983434 0.01882414 0.00451436
v -0.00984082 0.02952321 0.00232313
v -0.01916174 0.02952321 0.00203207
v -0.00812381 0.02687437 0.00045966
v -0.00812489 0.02463714 0.00051345
v -0.00812489 0.02522578 0.00042648
v -0.00816055 0.02952321 -0.00005309
v -0.00812381 0.02097443 0.00338331
v -0.00812489 0.02180710 0.00364068
v -0.00837666 0.01882414 0.00349440
v -0.00899799 0.01882414 0.00424793
v -0.00858089 0.01882414 0.00391063
v -0.01916174 0.01882414 0.00313900
v -0.01916174 0.02952321 -0.00013955
v -0.00812381 0.02097233 0.00198733
v -0.00812489 0.02351644 0.00080149
v -0.00897962 0.02952321 -0.00028734
v -0.01734964 0.01882414 0.00059588
v -0.01775161 0.01882414 0.00054009
v -0.01916174 0.01882414 0.00036213
v -0.00827077 0.02952321 -0.00009179
v -0.00812381 0.02053662 0.00290826
v -0.00812381 0.02051043 0.00268457
v -0.00837666 0.01882414 0.00327422
v -0.01916174 0.02813647 -0.00041050
v -0.01840859 0.02952321 -0.00037179
v -0.01884189 0.02915663 -0.00031650
v -0.00843501 0.01882414 0.00291530
v -0.00812489 0.02158296 0.00154698
v -0.00812489 0.02201029 0.00130870
v -0.00812489 0.02266177 0.00105334
v -0.01325540 0.02950226 -0.00052964
v -0.01325431 0.02952321 -0.00052712
v -0.01916174 0.02522159 -0.00054070
v -0.01838482 0.02608149 -0.00058695
v -0.00983434 0.01882414 0.00190188
v -0.01916174 0.02693616 -0.00058896
v -0.01838049 0.02952321 -0.00037783
v -0.00854631 0.01882414 0.00269613
v -0.00874946 0.01882414 0.00248751
v -0.00896881 0.01882414 0.00227940
v -0.00917736 0.01882414 0.00211703
v -0.00954475 0.01882414 0.00198180
v -0.01916174 0.02608149 -0.00062113
v -0.01838482 0.02693616 -0.00062012
v -0.01753009 0.02779188 -0.00057689
v -0.01838482 0.02779188 -0.00055779
v -0.01753009 0.02952321 -0.00041704
v -0.01838482 0.02864655 -0.00047333
f 1 2 5
f 1 5 12
f 1 12 22
f 1 22 36
f 1 36 37
f 1 37 29
f 1 29 18
f 1 18 10
f 1 10 3
f 1 3 11
f 1 11 21
f 1 21 35
f 1 35 31
f 1 31 47
f 1 47 62
f 1 62 52
f 1 52 40
f 1 40 28
f 1 28 17
f 1 17 16
f 1 16 14
f 1 14 7
f 1 7 6
f 1 6 4
f 1 4 2
f 2 4 6
f 2 6 7
f 2 7 8
f 2 8 9
f 2 9 5
f 3 10 11
f 5 9 13
f 5 13 12
f 7 14 9
f 7 9 8
f 9 15 13
f 9 14 16
f 9 16 17
f 9 17 15
f 10 18 19
f 10 19 20
f 10 20 11
f 11 20 21
f 12 13 23
f 12 23 24
f 12 24 22
f 13 15 25
f 13 25 26
f 13 26 23
f 15 17 27
f 15 27 34
f 15 34 33
f 15 33 32
f 15 32 50
f 15 50 57
f 15 57 56
f 15 56 55
f 15 55 54
f 15 54 53
f 15 53 42
f 15 42 38
f 15 38 24
f 15 24 26
f 15 26 25
f 17 28 39
f 17 39 51
f 17 51 58
f 17 58 48
f 17 48 34
f 17 34 27
f 18 29 30
f 18 30 19
f 19 31 20
f 19 30 32
f 19 32 33
f 19 33 34
f 19 34 31
f 20 31 35
f 20 35 21
f 22 24 36
f 23 26 24
f 24 37 36
f 24 38 37
f 28 40 41
f 28 41 39
f 29 37 38
f 29 38 42
f 29 42 43
f 29 43 44
f 29 44 45
f 29 45 30
f 30 45 32
f 31 46 47
f 31 34 48
f 31 48 49
f 31 49 46
f 32 45 50
f 39 41 40
f 39 40 51
f 40 52 51
f 42 53 43
f 43 53 54
f 43 54 44
f 44 54 55
f 44 55 56
f 44 56 45
f 45 56 57
f 45 57 50
f 46 49 58
f 46 58 59
f 46 59 60
f 46 60 61
f 46 61 62
f 46 62 47
f 48 58 49
f 51 52 63
f 51 63 61
f 51 61 59
f 51 59 58
f 52 62 63
f 59 61 60
f 61 63 62

