# https://github.com/mikedh/trimesh
v 0.03104156 -0.02419441 0.00838953
v 0.03103114 -0.02420571 0.00838953
v 0.03104156 -0.02419441 0.00837436
v 0.02754923 -0.02419441 0.00838953
v 0.03104007 -0.02419441 0.00780472
v 0.03061879 -0.02463402 0.00838953
v 0.02758049 -0.02419441 0.00782380
v 0.01583519 -0.03309741 0.00779172
v 0.01583519 -0.03307368 0.00838953
v 0.03061283 -0.02463176 0.00782380
v 0.03081678 -0.02419441 0.00396118
v 0.03033595 -0.02492107 0.00838953
v 0.02802410 -0.02419441 0.00396118
v 0.01583519 -0.03377434 0.00396118
v 0.01583519 -0.03573847 0.00838953
v 0.02505726 -0.03018851 0.00782380
v 0.02351206 -0.03160341 0.00396118
v 0.02492030 -0.03033655 0.00838953
v 0.01583519 -0.03480387 0.00396118
v 0.01720324 -0.03511013 0.00838953
v 0.01583519 -0.03572491 0.00777395
v 0.01720324 -0.03511013 0.00809604
v 0.02463002 -0.03061569 0.00782380
v 0.02330812 -0.03181925 0.00440336
v 0.02329174 -0.03180456 0.00396118
v 0.02463151 -0.03061908 0.00838953
v 0.02239261 -0.03232667 0.00396118
v 0.01890177 -0.03425012 0.00838953
v 0.01890177 -0.03425012 0.00810992
v 0.02420279 -0.03102931 0.00782380
v 0.02332003 -0.03183056 0.00525869
v 0.02257720 -0.03230407 0.00703914
v 0.02297467 -0.03200233 0.00396118
v 0.02420427 -0.03103157 0.00838953
v 0.02266205 -0.03218315 0.00396118
v 0.02223630 -0.03249619 0.00737121
v 0.02058541 -0.03338333 0.00805530
v 0.02058541 -0.03338333 0.00838953
v 0.02375322 -0.03145875 0.00838953
v 0.02375024 -0.03145762 0.00782380
v 0.02332747 -0.03183734 0.00611358
v 0.02266652 -0.03225774 0.00782380
v 0.02223779 -0.03249732 0.00782380
v 0.02180609 -0.03273125 0.00838953
v 0.02332747 -0.03183056 0.00838953
v 0.02332896 -0.03183621 0.00696847
v 0.02266652 -0.03225774 0.00838953
v 0.02223928 -0.03249732 0.00838953
v 0.02310418 -0.03197521 0.00838953
f 1 2 3
f 1 3 5
f 1 5 11
f 1 11 13
f 1 13 7
f 1 7 4
f 1 4 9
f 1 9 15
f 1 15 20
f 1 20 28
f 1 28 38
f 1 38 44
f 1 44 48
f 1 48 47
f 1 47 49
f 1 49 45
f 1 45 39
f 1 39 34
f 1 34 26
f 1 26 18
f 1 18 12
f 1 12 6
f 1 6 2
f 2 5 3
f 2 6 5
f 4 7 8
f 4 8 9
f 5 6 10
f 5 10 11
f 6 12 10
f 7 13 8
f 8 14 19
f 8 19 21
f 8 21 15
f 8 15 9
f 8 13 14
f 10 12 16
f 10 16 17
f 10 17 11
f 11 17 25
f 11 25 33
f 11 33 35
f 11 35 27
f 11 27 19
f 11 19 14
f 11 14 13
f 12 18 16
f 15 21 22
f 15 22 20
f 16 18 23
f 16 23 17
f 17 24 25
f 17 23 24
f 18 26 23
f 19 27 21
f 20 22 29
f 20 29 28
f 21 27 22
f 22 27 29
f 23 26 30
f 23 30 31
f 23 31 24
f 24 31 32
f 24 32 33
f 24 33 25
f 26 34 30
f 27 35 36
f 27 36 37
f 27 37 29
f 28 29 37
f 28 37 38
f 30 34 39
f 30 39 40
f 30 40 41
f 30 41 31
f 31 41 32
f 32 42 36
f 32 36 35
f 32 35 33
f 32 41 42
f 36 42 43
f 36 43 44
f 36 44 37
f 37 44 38
f 39 45 46
f 39 46 41
f 39 41 40
f 41 46 47
f 41 47 42
f 42 47 48
f 42 48 43
f 43 48 44
f 45 49 46
f 46 49 47

