# https://github.com/mikedh/trimesh
v 0.02541109 -0.02419328 -0.00021446
v 0.02541109 -0.02419328 0.00195993
v 0.02541109 -0.02369958 -0.00034915
v 0.02568584 -0.02419328 -0.00030039
v 0.02769250 -0.02419328 0.00355385
v 0.02541109 -0.00299501 0.00350138
v 0.02541109 -0.02365448 -0.00036072
v 0.02541109 -0.02363787 -0.00036484
v 0.02541109 -0.02284272 -0.00050573
v 0.02596059 -0.02419328 -0.00032973
v 0.03086651 -0.02419328 0.00355385
v 0.03664317 0.00005265 0.00355385
v 0.02541109 -0.00213815 0.00354641
v 0.02541109 -0.00281224 0.00351336
v 0.02541109 -0.02198824 -0.00059786
v 0.02651010 -0.02419328 -0.00033510
v 0.02610412 -0.02419328 -0.00033262
v 0.03088701 -0.02419328 0.00338983
v 0.03096630 -0.02411495 0.00354806
v 0.03096630 -0.02411258 0.00355385
v 0.03937429 0.00005265 0.00355385
v 0.02541109 0.00005265 0.00346667
v 0.02541109 -0.00042919 0.00350468
v 0.02541109 -0.00128367 0.00352865
v 0.02541109 -0.00195539 0.00354476
v 0.02541109 -0.02180548 -0.00061686
v 0.02663039 -0.02419328 -0.00032684
v 0.03085831 -0.02419328 0.00269285
v 0.03139688 -0.02369484 0.00355385
v 0.03937293 -0.00039833 0.00355385
v 0.03935243 -0.00013249 0.00297007
v 0.03935243 0.00005265 0.00297007
v 0.02541109 0.00005265 0.00067794
v 0.02541109 -0.02094862 -0.00066066
v 0.02608225 -0.02094862 -0.00064454
v 0.02696939 -0.02419328 -0.00026652
v 0.03179739 -0.01813121 -0.00032146
v 0.03236740 -0.01775856 -0.00027809
v 0.03064233 -0.02419328 0.00197769
v 0.03086925 -0.02403425 0.00212023
v 0.03136407 -0.02364024 0.00269285
v 0.03178919 -0.02326997 0.00354806
v 0.03178919 -0.02326997 0.00355385
v 0.03937019 -0.00042207 0.00355385
v 0.03928955 0.00005265 0.00268831
v 0.03933192 0.00005265 0.00287794
v 0.03918839 -0.00128367 0.00269285
v 0.03928544 -0.00042207 0.00268831
v 0.02575145 0.00005265 0.00057878
v 0.02541109 -0.02009414 -0.00061934
v 0.02608225 -0.02009414 -0.00066644
v 0.03206805 0.00005265 -0.00055985
v 0.03292238 0.00005265 -0.00065281
v 0.02693795 -0.01923966 -0.00064950
v 0.02693795 -0.02009414 -0.00061728
v 0.02779228 -0.02419328 -0.00011241
v 0.03252187 -0.01718890 -0.00030742
v 0.03320807 -0.01581936 -0.00027602
v 0.03304950 -0.01667384 -0.00019876
v 0.03285266 -0.01749509 -0.00007440
v 0.03293605 -0.01834245 0.00028710
v 0.03206805 -0.01923966 0.00008631
v 0.03207625 -0.01840417 -0.00019380
v 0.02867669 -0.02419328 0.00022017
v 0.02864798 -0.02351444 -0.00000747
v 0.03047147 -0.02419328 0.00171865
v 0.03168940 -0.02315129 0.00218551
v 0.03173998 -0.02321300 0.00269285
v 0.03216920 -0.02266471 0.00355385
v 0.03932508 -0.00075911 0.00355385
v 0.03907630 -0.00213815 0.00269285
v 0.03911458 0.00005265 0.00221112
v 0.03897378 -0.00042919 0.00183764
v 0.03884529 -0.00213815 0.00183764
v 0.03849126 -0.00605215 0.00224376
v 0.03893141 -0.00128367 0.00183764
v 0.02617794 0.00005265 0.00048500
v 0.03121371 -0.00983561 -0.00062719
v 0.03329418 0.00005265 -0.00063132
v 0.03278022 -0.01581936 -0.00033882
v 0.03262165 -0.01667384 -0.00032105
v 0.03377671 -0.01581936 0.00002227
v 0.03599251 -0.00641531 -0.00031527
v 0.03655295 -0.00555845 -0.00025247
v 0.03634244 -0.00812427 0.00004706
v 0.03379311 -0.01663349 0.00026975
v 0.03350196 -0.01752832 0.00039328
v 0.03338303 -0.01802677 0.00051516
v 0.03262575 -0.01923966 0.00044162
v 0.03250273 -0.01968114 0.00054779
v 0.02898698 -0.02419328 0.00041022
v 0.03014341 -0.02419328 0.00133029
v 0.03068744 -0.02380164 0.00155009
v 0.03145839 -0.02285222 0.00161537
v 0.03167573 -0.02228257 0.00138318
v 0.03243302 -0.02128092 0.00150175
v 0.03258474 -0.02153489 0.00207189
v 0.03241251 -0.02208793 0.00269285
v 0.03208445 -0.02265996 0.00269285
v 0.03217193 -0.02265996 0.00355385
v 0.03849126 -0.00605215 0.00233920
v 0.03765470 -0.01129060 0.00355385
v 0.03897652 0.00005265 0.00183764
v 0.03856917 -0.00213815 0.00130137
v 0.03860061 -0.00128367 0.00128691
v 0.03859651 -0.00470397 0.00206280
v 0.03851860 -0.00274341 0.00135550
v 0.03852953 -0.00555845 0.00217228
v 0.03765470 -0.01129060 0.00354806
v 0.03785563 -0.00983561 0.00269285
v 0.03769707 -0.01070908 0.00271805
v 0.03760002 -0.01100578 0.00244951
v 0.03766153 -0.01043612 0.00217476
v 0.03772441 -0.00983561 0.00204297
v 0.03777772 -0.00890755 0.00179963
v 0.03757951 -0.00914490 0.00148935
v 0.03762872 -0.00857525 0.00140466
v 0.03377671 -0.00042919 -0.00059249
v 0.03548811 -0.00641531 -0.00035906
v 0.03377671 0.00005265 -0.00059208
v 0.03452579 -0.01496488 0.00030528
v 0.03436312 -0.01581936 0.00042592
v 0.03612510 -0.00555845 -0.00032477
v 0.03662950 -0.00470397 -0.00028222
v 0.03715303 -0.00555845 0.00017514
v 0.03708058 -0.00641531 0.00024744
v 0.03700540 -0.00726979 0.00033750
v 0.03690288 -0.00812427 0.00044038
v 0.03424420 -0.01632255 0.00051433
v 0.03258885 -0.02071127 0.00129807
v 0.03588589 -0.01447355 0.00145919
v 0.02926994 -0.02419328 0.00062836
v 0.03006276 -0.02419328 0.00124601
v 0.03011743 -0.02416955 0.00127576
v 0.03347052 -0.01989239 0.00207396
v 0.03275561 -0.02097711 0.00180706
v 0.03265172 -0.02166069 0.00269285
v 0.03302763 -0.02094862 0.00269285
v 0.03244805 -0.02213540 0.00355385
v 0.03757678 -0.01171547 0.00355385
v 0.03859514 0.00005265 0.00131046
v 0.03766836 -0.00454257 0.00050648
v 0.03771484 -0.00384949 0.00046351
v 0.03773944 -0.00299501 0.00045112
v 0.03762189 -0.00511222 0.00056102
v 0.03763829 -0.01117905 0.00301965
v 0.03753167 -0.01149710 0.00271805
v 0.03725418 -0.01239906 0.00269285
v 0.03685777 -0.01302093 0.00210866
v 0.03719540 -0.01154457 0.00183764
v 0.03743325 -0.01070908 0.00186904
v 0.03751117 -0.00983561 0.00161537
v 0.03678122 -0.01200504 0.00140136
v 0.03685094 -0.01154457 0.00134599
v 0.03697533 -0.01069009 0.00124436
v 0.03620028 -0.00384949 -0.00034088
v 0.03620165 -0.00470397 -0.00033014
v 0.03634244 0.00005265 -0.00009589
v 0.03653928 -0.00299501 -0.00026610
v 0.03495364 -0.01496488 0.00067794
v 0.03682087 -0.00866544 0.00051392
v 0.03601574 -0.01390152 0.00131253
v 0.03662813 -0.00384949 -0.00027561
v 0.03719814 -0.00299501 0.00005698
v 0.03719814 -0.00384949 0.00005987
v 0.03728152 -0.00477755 0.00019786
v 0.03694936 -0.01233260 0.00182896
v 0.03619071 -0.01415549 0.00178186
v 0.03603215 -0.01479635 0.00202934
v 0.03578063 -0.01503371 0.00178186
v 0.03519148 -0.01650769 0.00206983
v 0.03433305 -0.01820716 0.00208139
v 0.03329828 -0.02041932 0.00269285
v 0.03610186 -0.01490554 0.00269285
v 0.03697260 -0.01320844 0.00354806
v 0.03697260 -0.01320844 0.00355385
v 0.03757541 -0.01172259 0.00355385
v 0.03765743 0.00005265 0.00051764
v 0.03772031 -0.00213815 0.00046971
v 0.03719814 0.00005265 0.00015365
v 0.03735124 -0.01239906 0.00354806
v 0.03692612 -0.01318470 0.00269285
v 0.03673748 -0.01361195 0.00269285
v 0.03666504 -0.01257233 0.00153852
v 0.03649690 -0.01410802 0.00269285
v 0.03735124 -0.01239906 0.00355385
f 1 2 6
f 1 6 14
f 1 14 13
f 1 13 25
f 1 25 24
f 1 24 23
f 1 23 22
f 1 22 33
f 1 33 50
f 1 50 34
f 1 34 26
f 1 26 15
f 1 15 9
f 1 9 8
f 1 8 7
f 1 7 3
f 1 3 4
f 1 4 10
f 1 10 17
f 1 17 16
f 1 16 27
f 1 27 36
f 1 36 56
f 1 56 64
f 1 64 91
f 1 91 132
f 1 132 133
f 1 133 92
f 1 92 66
f 1 66 39
f 1 39 28
f 1 28 18
f 1 18 11
f 1 11 5
f 1 5 2
f 2 5 6
f 3 7 4
f 4 7 8
f 4 8 9
f 4 9 10
f 5 11 20
f 5 20 29
f 5 29 43
f 5 43 69
f 5 69 100
f 5 100 139
f 5 139 176
f 5 176 186
f 5 186 177
f 5 177 140
f 5 140 102
f 5 102 70
f 5 70 44
f 5 44 30
f 5 30 21
f 5 21 12
f 5 12 13
f 5 13 14
f 5 14 6
f 9 15 16
f 9 16 17
f 9 17 10
f 11 18 19
f 11 19 20
f 12 21 32
f 12 32 46
f 12 46 45
f 12 45 72
f 12 72 103
f 12 103 141
f 12 141 178
f 12 178 180
f 12 180 158
f 12 158 120
f 12 120 79
f 12 79 53
f 12 53 52
f 12 52 77
f 12 77 49
f 12 49 33
f 12 33 22
f 12 22 23
f 12 23 24
f 12 24 25
f 12 25 13
f 15 26 16
f 16 26 27
f 18 28 29
f 18 29 19
f 19 29 20
f 21 30 31
f 21 31 32
f 26 34 35
f 26 35 27
f 27 35 37
f 27 37 38
f 27 38 36
f 28 39 40
f 28 40 41
f 28 41 42
f 28 42 29
f 29 42 43
f 30 44 31
f 31 45 46
f 31 46 32
f 31 44 47
f 31 47 48
f 31 48 45
f 33 49 50
f 34 51 35
f 34 50 52
f 34 52 53
f 34 53 51
f 35 51 54
f 35 54 55
f 35 55 37
f 36 38 56
f 37 55 57
f 37 57 38
f 38 57 58
f 38 58 59
f 38 59 60
f 38 60 61
f 38 61 62
f 38 62 63
f 38 63 64
f 38 64 65
f 38 65 56
f 39 66 67
f 39 67 40
f 40 67 41
f 41 67 68
f 41 68 42
f 42 68 69
f 42 69 43
f 44 70 71
f 44 71 47
f 45 48 73
f 45 73 72
f 47 74 48
f 47 71 75
f 47 75 74
f 48 74 76
f 48 76 73
f 49 77 50
f 50 77 52
f 51 53 78
f 51 78 54
f 53 79 78
f 54 80 81
f 54 81 55
f 54 78 80
f 55 81 57
f 56 65 64
f 57 81 58
f 58 82 59
f 58 81 80
f 58 80 83
f 58 83 84
f 58 84 85
f 58 85 82
f 59 82 86
f 59 86 60
f 60 86 61
f 61 86 87
f 61 87 88
f 61 88 89
f 61 89 62
f 62 89 90
f 62 90 64
f 62 64 63
f 64 90 91
f 66 92 93
f 66 93 67
f 67 94 95
f 67 95 96
f 67 96 97
f 67 97 98
f 67 98 99
f 67 99 68
f 67 93 94
f 68 99 69
f 69 99 100
f 70 101 75
f 70 75 71
f 70 102 101
f 72 73 103
f 73 76 104
f 73 104 105
f 73 105 103
f 74 106 107
f 74 107 104
f 74 104 76
f 74 75 108
f 74 108 106
f 75 101 102
f 75 102 109
f 75 109 110
f 75 110 111
f 75 111 112
f 75 112 113
f 75 113 114
f 75 114 115
f 75 115 116
f 75 116 117
f 75 117 108
f 78 79 118
f 78 118 119
f 78 119 80
f 79 120 118
f 80 119 83
f 82 121 122
f 82 122 86
f 82 85 121
f 83 119 123
f 83 123 124
f 83 124 84
f 84 124 125
f 84 125 126
f 84 126 127
f 84 127 85
f 85 127 128
f 85 128 121
f 86 122 129
f 86 129 87
f 87 129 88
f 88 130 90
f 88 90 89
f 88 129 131
f 88 131 130
f 90 130 96
f 90 96 95
f 90 95 91
f 91 95 132
f 92 133 134
f 92 134 93
f 93 134 95
f 93 95 94
f 95 134 133
f 95 133 132
f 96 135 136
f 96 136 97
f 96 130 131
f 96 131 135
f 97 136 135
f 97 135 137
f 97 137 98
f 98 100 99
f 98 137 100
f 100 137 138
f 100 138 139
f 102 140 109
f 103 105 141
f 104 107 142
f 104 142 143
f 104 143 105
f 105 143 144
f 105 144 141
f 106 108 107
f 107 108 117
f 107 117 145
f 107 145 142
f 109 140 146
f 109 146 110
f 110 146 111
f 111 146 112
f 112 146 147
f 112 147 148
f 112 148 149
f 112 149 150
f 112 150 113
f 113 150 151
f 113 151 152
f 113 152 114
f 114 152 116
f 114 116 115
f 116 128 127
f 116 127 117
f 116 152 153
f 116 153 154
f 116 154 155
f 116 155 128
f 117 127 145
f 118 120 156
f 118 156 157
f 118 157 123
f 118 123 119
f 120 158 159
f 120 159 156
f 121 153 160
f 121 160 122
f 121 128 161
f 121 161 153
f 122 160 162
f 122 162 129
f 123 157 124
f 124 156 163
f 124 163 164
f 124 164 165
f 124 165 166
f 124 166 125
f 124 157 156
f 125 166 143
f 125 143 142
f 125 142 126
f 126 142 145
f 126 145 127
f 128 155 154
f 128 154 153
f 128 153 161
f 129 162 131
f 131 162 167
f 131 167 149
f 131 149 168
f 131 168 169
f 131 169 170
f 131 170 171
f 131 171 172
f 131 172 135
f 135 172 173
f 135 173 138
f 135 138 137
f 138 173 139
f 139 173 174
f 139 174 175
f 139 175 176
f 140 177 146
f 141 144 179
f 141 179 178
f 143 166 165
f 143 165 144
f 144 165 164
f 144 164 180
f 144 180 179
f 146 177 147
f 147 177 148
f 148 181 182
f 148 182 149
f 148 177 181
f 149 167 150
f 149 182 183
f 149 183 169
f 149 169 168
f 150 153 152
f 150 152 151
f 150 167 153
f 153 167 184
f 153 184 162
f 153 162 160
f 156 159 163
f 158 180 159
f 159 180 163
f 162 184 167
f 163 180 164
f 169 183 185
f 169 185 174
f 169 174 171
f 169 171 170
f 171 174 172
f 172 174 173
f 174 185 175
f 175 185 183
f 175 183 181
f 175 181 186
f 175 186 176
f 177 186 181
f 178 179 180
f 181 183 182

