# https://github.com/mikedh/trimesh
v -0.01190039 -0.03470724 0.07195946
v -0.01191398 -0.03470724 0.07147407
v -0.01960969 -0.03096770 0.07195946
v -0.01960969 -0.03096183 0.07708959
v -0.01190492 -0.03470724 0.07708959
v -0.01193586 -0.03470724 0.07110474
v -0.01960969 -0.03100436 0.07108264
v -0.01960969 -0.03099630 0.07763668
v -0.01197209 -0.03470724 0.07797378
v -0.01193285 -0.03470724 0.07747826
v -0.01206039 -0.03470724 0.07079988
v -0.01243171 -0.03470724 0.07029239
v -0.01282264 -0.03470724 0.06982175
v -0.01960969 -0.03135122 0.07036239
v -0.01960969 -0.03103003 0.07796272
v -0.01240001 -0.03470724 0.07867928
v -0.01364301 -0.03470724 0.06975728
v -0.01960969 -0.03241709 0.06983188
v -0.01960969 -0.03191294 0.06996267
v -0.01960969 -0.03124232 0.07841034
v -0.01249887 -0.03470724 0.07879165
v -0.01960969 -0.03254469 0.06982635
v -0.01960969 -0.03246732 0.06982635
v -0.01483770 -0.03470724 0.06997003
v -0.01960969 -0.03137689 0.07864889
v -0.01325358 -0.03470724 0.07916651
v -0.01960969 -0.03274415 0.06992859
v -0.01575165 -0.03470724 0.07015977
v -0.01960969 -0.03204640 0.07902375
v -0.01960969 -0.03292565 0.07887823
v -0.01488298 -0.03470724 0.07899704
v -0.01665805 -0.03470724 0.07041305
v -0.01960969 -0.03337847 0.07037252
v -0.01581957 -0.03470724 0.07878889
v -0.01498789 -0.03470724 0.07898046
v -0.01960969 -0.03349360 0.07851626
v -0.01665503 -0.03470724 0.07858166
v -0.01668144 -0.03470724 0.07042134
v -0.01813048 -0.03428521 0.07059818
v -0.01960969 -0.03351596 0.07050423
v -0.01960969 -0.03377886 0.07793141
v -0.01865349 -0.03412535 0.07819667
v -0.01808368 -0.03426285 0.07842692
v -0.01750634 -0.03470724 0.07807601
v -0.01726709 -0.03470724 0.07066081
v -0.01765275 -0.03470724 0.07098409
v -0.01870028 -0.03414551 0.07082291
v -0.01960969 -0.03368536 0.07078791
v -0.01960969 -0.03381076 0.07754366
v -0.01888895 -0.03424415 0.07762655
v -0.01770633 -0.03470724 0.07793049
v -0.01776973 -0.03470724 0.07110566
v -0.01960969 -0.03380453 0.07109277
v -0.01960969 -0.03385036 0.07705828
v -0.01788293 -0.03470724 0.07702880
v -0.01889876 -0.03424928 0.07172091
v -0.01782935 -0.03470724 0.07167486
v -0.01889876 -0.03424928 0.07139302
v -0.01960969 -0.03384119 0.07197512
v -0.01785652 -0.03470724 0.07199446
f 1 2 3
f 1 3 4
f 1 4 5
f 1 5 10
f 1 10 9
f 1 9 16
f 1 16 21
f 1 21 26
f 1 26 31
f 1 31 35
f 1 35 34
f 1 34 37
f 1 37 44
f 1 44 51
f 1 51 55
f 1 55 60
f 1 60 57
f 1 57 52
f 1 52 46
f 1 46 45
f 1 45 38
f 1 38 32
f 1 32 28
f 1 28 24
f 1 24 17
f 1 17 13
f 1 13 12
f 1 12 11
f 1 11 6
f 1 6 2
f 2 6 3
f 3 6 7
f 3 7 14
f 3 14 19
f 3 19 18
f 3 18 23
f 3 23 22
f 3 22 27
f 3 27 33
f 3 33 40
f 3 40 48
f 3 48 53
f 3 53 59
f 3 59 54
f 3 54 49
f 3 49 41
f 3 41 36
f 3 36 30
f 3 30 29
f 3 29 25
f 3 25 20
f 3 20 15
f 3 15 8
f 3 8 4
f 4 8 9
f 4 9 10
f 4 10 5
f 6 11 7
f 7 11 12
f 7 12 13
f 7 13 14
f 8 15 9
f 9 15 16
f 13 17 18
f 13 18 19
f 13 19 14
f 15 20 21
f 15 21 16
f 17 22 23
f 17 23 18
f 17 24 22
f 20 25 21
f 21 25 26
f 22 24 27
f 24 28 27
f 25 29 26
f 26 29 30
f 26 30 31
f 27 28 32
f 27 32 33
f 30 34 35
f 30 35 31
f 30 36 37
f 30 37 34
f 32 38 33
f 33 38 39
f 33 39 40
f 36 41 42
f 36 42 43
f 36 43 37
f 37 43 44
f 38 45 39
f 39 45 46
f 39 46 47
f 39 47 40
f 40 47 48
f 41 49 50
f 41 50 51
f 41 51 42
f 42 51 43
f 43 51 44
f 46 52 47
f 47 52 53
f 47 53 48
f 49 54 50
f 50 55 51
f 50 54 56
f 50 56 55
f 52 57 58
f 52 58 53
f 53 58 59
f 54 59 58
f 54 58 56
f 55 56 58
f 55 58 60
f 57 60 58

