# https://github.com/mikedh/trimesh
v -0.03946911 -0.00042832 0.07880041
v -0.03946226 -0.00042832 0.08016221
v -0.03946169 -0.00017842 0.08016221
v -0.03946797 -0.00000660 0.07880041
v -0.03946568 -0.00000660 0.07580117
v -0.03946454 -0.00042832 0.07538005
v -0.03922133 -0.00213791 0.07709023
v -0.03849742 -0.00694434 0.07756768
v -0.03764162 -0.01201204 0.08016221
v -0.03946112 -0.00000660 0.08016221
v -0.03946511 -0.00000660 0.07538005
v -0.03946055 -0.00000660 0.07494580
v -0.03945598 -0.00040418 0.07457500
v -0.03945541 -0.00042832 0.07457500
v -0.03849742 -0.00694434 0.07741181
v -0.03801043 -0.00983388 0.07709023
v -0.03763934 -0.01200778 0.07457500
v -0.03745094 -0.01243375 0.07538005
v -0.03745722 -0.01241956 0.07880041
v -0.03744580 -0.01244086 0.08016221
v -0.03694283 -0.00000660 0.08016221
v -0.03945541 -0.00000660 0.07457500
v -0.03945598 -0.00037862 0.07457500
v -0.03762849 -0.01203192 0.07457500
v -0.03744295 -0.01243517 0.07457500
v -0.03682008 -0.01378552 0.07709023
v -0.03707300 -0.01325447 0.07709023
v -0.03707357 -0.01325447 0.07794505
v -0.03681780 -0.01377416 0.07794505
v -0.03646212 -0.01451252 0.07709023
v -0.03644328 -0.01451252 0.07759667
v -0.03641702 -0.01451252 0.07795216
v -0.03727110 -0.01271774 0.08016221
v -0.03671618 -0.00000660 0.07790129
v -0.03500116 -0.01175503 0.08016221
v -0.03372289 -0.01451252 0.07795161
v -0.03696053 -0.00000660 0.07457500
v -0.03701533 -0.01308550 0.07457500
v -0.03661227 -0.01421292 0.07709023
v -0.03627600 -0.01451252 0.07625237
v -0.03627600 -0.01451252 0.07843289
v -0.03701819 -0.01310254 0.08016221
v -0.03670419 -0.00000660 0.07709023
v -0.03363668 -0.01451252 0.07709023
v -0.03494350 -0.01239826 0.08016221
v -0.03404374 -0.01451252 0.07853133
v -0.03374002 -0.01451252 0.07678615
v -0.03500002 -0.01182035 0.07457500
v -0.03699021 -0.01311106 0.07457500
v -0.03596314 -0.01451252 0.07574538
v -0.03618237 -0.01451252 0.07866150
v -0.03637306 -0.01353277 0.08016221
v -0.03498574 -0.01308976 0.08016221
v -0.03464092 -0.01451252 0.07895683
v -0.03392328 -0.01451252 0.07638636
v -0.03496405 -0.01239826 0.07457500
v -0.03641017 -0.01351432 0.07457500
v -0.03597970 -0.01372730 0.07457500
v -0.03574106 -0.01451252 0.07559936
v -0.03571366 -0.01451252 0.07903066
v -0.03581242 -0.01350722 0.08016221
v -0.03561717 -0.01451252 0.07910121
v -0.03543619 -0.01451252 0.07915426
v -0.03509079 -0.01451252 0.07924232
v -0.03544990 -0.01345610 0.08016221
v -0.03505368 -0.01451252 0.07923356
v -0.03408542 -0.01451252 0.07614462
v -0.03496348 -0.01244937 0.07457500
v -0.03594202 -0.01373156 0.07457500
v -0.03547045 -0.01451252 0.07551841
v -0.03457926 -0.01451252 0.07571530
v -0.03501201 -0.01294493 0.07457500
v -0.03583126 -0.01373156 0.07457500
v -0.03516159 -0.01451252 0.07549982
v -0.03543277 -0.01340072 0.07457500
f 1 2 3
f 1 3 4
f 1 4 5
f 1 5 6
f 1 6 7
f 1 7 2
f 2 7 8
f 2 8 9
f 2 9 20
f 2 20 33
f 2 33 42
f 2 42 52
f 2 52 61
f 2 61 65
f 2 65 53
f 2 53 45
f 2 45 35
f 2 35 21
f 2 21 10
f 2 10 3
f 3 10 4
f 4 10 21
f 4 21 34
f 4 34 43
f 4 43 37
f 4 37 22
f 4 22 12
f 4 12 11
f 4 11 5
f 5 11 6
f 6 11 12
f 6 12 13
f 6 13 14
f 6 14 15
f 6 15 7
f 7 15 8
f 8 15 16
f 8 16 9
f 9 16 17
f 9 17 18
f 9 18 19
f 9 19 20
f 12 22 23
f 12 23 13
f 13 23 22
f 13 22 37
f 13 37 48
f 13 48 56
f 13 56 68
f 13 68 72
f 13 72 75
f 13 75 73
f 13 73 69
f 13 69 58
f 13 58 57
f 13 57 49
f 13 49 38
f 13 38 25
f 13 25 24
f 13 24 17
f 13 17 14
f 14 17 15
f 15 17 16
f 17 24 18
f 18 24 25
f 18 25 26
f 18 26 27
f 18 27 28
f 18 28 19
f 19 28 20
f 20 28 29
f 20 29 30
f 20 30 31
f 20 31 32
f 20 32 33
f 21 35 36
f 21 36 34
f 25 38 30
f 25 30 39
f 25 39 26
f 26 39 28
f 26 28 27
f 28 39 29
f 29 39 30
f 30 40 50
f 30 50 59
f 30 59 70
f 30 70 74
f 30 74 71
f 30 71 67
f 30 67 55
f 30 55 47
f 30 47 44
f 30 44 36
f 30 36 46
f 30 46 54
f 30 54 66
f 30 66 64
f 30 64 63
f 30 63 62
f 30 62 60
f 30 60 51
f 30 51 41
f 30 41 32
f 30 32 31
f 30 38 40
f 32 41 42
f 32 42 33
f 34 36 44
f 34 44 43
f 35 45 36
f 36 45 46
f 37 43 44
f 37 44 47
f 37 47 48
f 38 49 40
f 40 49 50
f 41 51 42
f 42 51 52
f 45 53 46
f 46 53 54
f 47 55 48
f 48 55 56
f 49 57 50
f 50 58 59
f 50 57 58
f 51 60 52
f 52 60 62
f 52 62 63
f 52 63 64
f 52 64 61
f 53 65 66
f 53 66 54
f 55 67 68
f 55 68 56
f 58 69 70
f 58 70 59
f 61 64 65
f 64 66 65
f 67 71 72
f 67 72 68
f 69 73 74
f 69 74 70
f 71 74 73
f 71 73 75
f 71 75 72

