# https://github.com/mikedh/trimesh
v -0.00812383 0.02158296 0.00154659
v -0.00302961 0.01882414 0.00237153
v -0.00384854 0.01882414 0.00250228
v -0.00812303 0.02097233 0.00198829
v -0.00812303 0.02051043 0.00268459
v -0.00812383 0.02180710 0.00364029
v -0.00812383 0.02201029 0.00130847
v -0.00213826 0.01882414 0.00232475
v -0.00466826 0.01882414 0.00285575
v -0.00812303 0.02053662 0.00290837
v -0.00506778 0.01882414 0.00327087
v -0.00523252 0.01882414 0.00376254
v -0.00523252 0.01882414 0.00398312
v -0.00522138 0.01882414 0.00408358
v -0.00812383 0.02266177 0.00370673
v -0.00812303 0.02097443 0.00338303
v -0.00812303 0.02098176 0.00338728
v -0.00447726 0.01882414 0.00467145
v -0.00420190 0.01882414 0.00480699
v -0.00812383 0.02266177 0.00105333
v -0.00128273 0.01882414 0.00232103
v -0.00505584 0.01882414 0.00431798
v -0.00812383 0.02351644 0.00362434
v -0.00412231 0.01882414 0.00482932
v -0.00373235 0.01882414 0.00492499
v -0.00812383 0.02351644 0.00080192
v 0.00000654 0.01893621 0.00230030
v -0.00128273 0.01891631 0.00229020
v -0.00113311 0.01882414 0.00232262
v -0.00812383 0.02437111 0.00342342
v -0.00347051 0.01882414 0.00497442
v -0.00297550 0.01882414 0.00503714
v -0.00255608 0.01882414 0.00508445
v -0.00042799 0.01924100 0.00516949
v -0.00042799 0.02009672 0.00497921
v -0.00812383 0.02463714 0.00051330
v 0.00000654 0.01936354 0.00218124
v 0.00000654 0.01882414 0.00233591
v -0.00812303 0.02564473 0.00311885
v -0.00812303 0.02952321 0.00204145
v -0.00812383 0.02608149 0.00039583
v -0.00042799 0.01882414 0.00525826
v 0.00000654 0.01924100 0.00517002
v 0.00000654 0.01967567 0.00507435
v 0.00000654 0.02009672 0.00498080
v 0.00000654 0.02035856 0.00491649
v 0.00000654 0.02060889 0.00485483
v -0.00042799 0.02060575 0.00485377
v -0.00213826 0.02950226 0.00255225
v -0.00812383 0.02522578 0.00042613
v 0.00000654 0.02864655 -0.00008733
v 0.00000654 0.02779188 0.00010083
v 0.00000654 0.01882414 0.00385343
v -0.00213826 0.02952321 0.00254693
v -0.00299300 0.02952321 0.00247624
v -0.00812303 0.02952321 -0.00002248
v -0.00812303 0.02952112 -0.00002992
v 0.00000256 0.01882414 0.00525826
v 0.00000654 0.02952321 0.00265536
v -0.00042799 0.02952321 0.00265483
v -0.00299300 0.02950226 -0.00015005
v -0.00128273 0.02864655 -0.00007617
v -0.00042799 0.02864655 -0.00008626
v 0.00000654 0.02906760 -0.00012879
v -0.00301449 0.02952321 -0.00015111
v 0.00000654 0.02952321 -0.00017024
v -0.00213826 0.02950226 -0.00015802
v -0.00042799 0.02950226 -0.00016971
v 0.00000654 0.02950226 -0.00016918
v -0.00042640 0.02952321 -0.00017131
f 1 2 3
f 1 3 4
f 1 4 5
f 1 5 6
f 1 6 15
f 1 15 23
f 1 23 30
f 1 30 41
f 1 41 50
f 1 50 36
f 1 36 26
f 1 26 20
f 1 20 7
f 1 7 2
f 2 8 21
f 2 21 29
f 2 29 38
f 2 38 53
f 2 53 58
f 2 58 42
f 2 42 33
f 2 33 32
f 2 32 31
f 2 31 25
f 2 25 24
f 2 24 19
f 2 19 18
f 2 18 22
f 2 22 14
f 2 14 13
f 2 13 12
f 2 12 11
f 2 11 9
f 2 9 3
f 2 7 8
f 3 9 4
f 4 9 5
f 5 10 6
f 5 9 11
f 5 11 12
f 5 12 13
f 5 13 14
f 5 14 10
f 6 10 16
f 6 16 17
f 6 17 18
f 6 18 19
f 6 19 15
f 7 20 8
f 8 20 21
f 10 14 22
f 10 22 16
f 15 19 24
f 15 24 25
f 15 25 23
f 16 22 17
f 17 22 18
f 20 26 27
f 20 27 28
f 20 28 21
f 21 28 29
f 23 25 31
f 23 31 32
f 23 32 33
f 23 33 34
f 23 34 35
f 23 35 30
f 26 36 37
f 26 37 27
f 27 38 28
f 27 37 52
f 27 52 51
f 27 51 64
f 27 64 69
f 27 69 66
f 27 66 59
f 27 59 47
f 27 47 46
f 27 46 45
f 27 45 44
f 27 44 43
f 27 43 53
f 27 53 38
f 28 38 29
f 30 35 39
f 30 39 40
f 30 40 41
f 33 42 34
f 34 42 43
f 34 43 44
f 34 44 45
f 34 45 35
f 35 45 46
f 35 46 47
f 35 47 48
f 35 48 49
f 35 49 39
f 36 50 51
f 36 51 52
f 36 52 37
f 39 49 54
f 39 54 55
f 39 55 40
f 40 55 54
f 40 54 60
f 40 60 59
f 40 59 66
f 40 66 70
f 40 70 65
f 40 65 56
f 40 56 41
f 41 56 57
f 41 57 50
f 42 58 43
f 43 58 53
f 47 59 60
f 47 60 48
f 48 60 49
f 49 60 54
f 50 57 61
f 50 61 62
f 50 62 63
f 50 63 51
f 51 63 64
f 56 65 57
f 57 65 61
f 61 65 67
f 61 67 63
f 61 63 62
f 63 67 68
f 63 68 64
f 64 68 69
f 65 70 67
f 66 69 70
f 67 70 68
f 68 70 69

