# https://github.com/mikedh/trimesh
v -0.00042766 0.03394437 -0.00067590
v -0.00042766 0.03463358 -0.00063742
v 0.00000654 0.03463358 -0.00064033
v 0.00000654 0.03394437 -0.00067590
v -0.00059423 0.03394437 -0.00067240
v -0.00128297 0.03463358 -0.00062051
v -0.00299359 0.03611284 -0.00034528
v 0.00000654 0.03719841 0.00009613
v -0.00299359 0.03654031 -0.00024615
v 0.00000654 0.03394437 0.00206003
v -0.00213828 0.03394437 -0.00062109
v -0.00555952 0.03634347 -0.00025432
v -0.01410888 0.03394437 -0.00021991
v -0.00384890 0.03649418 -0.00025548
v -0.00213828 0.03719841 0.00004832
v -0.00213828 0.03776480 0.00041392
v 0.00000654 0.03745586 0.00026348
v -0.00299359 0.03719841 0.00003374
v -0.00384890 0.03719841 0.00002441
v 0.00000654 0.03697368 0.00528110
v -0.01181059 0.03501707 0.00528110
v -0.01516445 0.03394437 0.00401051
v -0.00641483 0.03634347 -0.00021525
v -0.00470421 0.03719841 0.00003840
v -0.01495483 0.03394437 -0.00009979
v -0.00812545 0.03634347 -0.00000591
v -0.00727014 0.03634347 -0.00012720
v -0.00299359 0.03778089 0.00040751
v -0.00128297 0.03861599 0.00127692
v 0.00000654 0.03772189 0.00043666
v -0.00384890 0.03777445 0.00040809
v 0.00000654 0.03941568 0.00528110
v -0.01239826 0.03497202 0.00528110
v -0.01582886 0.03394437 0.00404783
v -0.00555952 0.03719841 0.00011304
v -0.00470421 0.03773422 0.00043200
v -0.01581014 0.03394437 0.00009555
v -0.01489494 0.03465879 0.00031479
v -0.01410888 0.03463358 0.00012179
v -0.00812545 0.03699138 0.00036727
v -0.00727014 0.03709221 0.00026756
v -0.00213828 0.03859561 0.00127167
v -0.00042766 0.03898928 0.00183786
v 0.00000654 0.03898928 0.00183786
v 0.00000654 0.03859882 0.00130724
v 0.00000654 0.03941568 0.00527293
v -0.00042205 0.03942373 0.00525836
v -0.00042579 0.03942319 0.00528110
v -0.01302524 0.03501439 0.00528110
v -0.01645210 0.03394437 0.00401867
v -0.01585881 0.03394437 0.00404783
v -0.00634933 0.03725634 0.00026756
v -0.00299359 0.03854090 0.00132123
v -0.00555952 0.03766825 0.00050022
v -0.01652883 0.03394437 0.00034162
v -0.01581950 0.03437560 0.00040051
v -0.01456368 0.03507232 0.00054570
v -0.01205389 0.03679722 0.00138771
v -0.00812545 0.03741885 0.00083959
v -0.00727014 0.03751969 0.00072938
v -0.00601993 0.03763125 0.00054804
v -0.00213828 0.03888416 0.00183786
v -0.00128297 0.03895764 0.00183786
v -0.00045387 0.03929983 0.00265596
v 0.00000654 0.03913786 0.00222971
v 0.00000654 0.03941300 0.00487526
v -0.00045387 0.03938029 0.00357377
v -0.00051001 0.03940120 0.00445892
v -0.00087871 0.03934221 0.00387581
v -0.00610228 0.03849960 0.00222679
v -0.01170952 0.03762320 0.00528110
v 0.00000654 0.03937975 0.00358135
v -0.01347629 0.03542416 0.00528110
v -0.01709405 0.03394437 0.00395512
v -0.01657188 0.03394437 0.00400993
v -0.00348582 0.03849799 0.00137954
v -0.00299359 0.03878172 0.00183786
v -0.01632296 0.03424741 0.00050780
v -0.01746087 0.03394437 0.00099294
v -0.01513451 0.03496075 0.00069906
v -0.01390301 0.03603077 0.00129033
v -0.01154295 0.03723703 0.00183786
v -0.00983233 0.03755723 0.00154223
v -0.00933262 0.03761301 0.00143552
v -0.01262472 0.03669478 0.00151074
v -0.01236270 0.03697100 0.00181279
v -0.00876179 0.03765806 0.00135564
v -0.00018436 0.03935615 0.00291602
v 0.00000654 0.03935615 0.00291602
v 0.00000654 0.03929876 0.00265596
v -0.00128297 0.03920919 0.00269269
v 0.00000654 0.03936259 0.00308337
v -0.00075519 0.03932504 0.00330554
v -0.00213828 0.03909334 0.00269269
v -0.00902007 0.03780663 0.00176789
v -0.00983233 0.03774281 0.00196964
v -0.01049674 0.03767469 0.00213116
v -0.01106570 0.03761516 0.00237607
v -0.00983233 0.03788172 0.00269269
v -0.01132211 0.03766021 0.00354811
v -0.01174883 0.03758405 0.00354811
v -0.01231778 0.03745693 0.00528110
v -0.01351185 0.03630914 0.00528110
v -0.01748333 0.03394437 0.00383558
v -0.01843035 0.03394437 0.00167401
v -0.01861564 0.03394437 0.00181046
v -0.01447384 0.03588221 0.00146468
v -0.01415567 0.03620831 0.00178480
v -0.01329475 0.03660199 0.00181279
v -0.01074379 0.03746659 0.00184311
v -0.01303834 0.03686641 0.00208102
v -0.01239826 0.03728154 0.00269269
v -0.01150552 0.03755026 0.00267345
v -0.01119484 0.03764197 0.00294576
v -0.01074379 0.03770955 0.00267345
v -0.01239826 0.03736897 0.00354811
v -0.01239826 0.03741027 0.00440294
v -0.01368404 0.03677255 0.00310612
v -0.01368404 0.03677255 0.00313760
v -0.01911348 0.03394437 0.00269269
v -0.01306642 0.03699620 0.00528110
v -0.01835362 0.03394437 0.00349271
v -0.01823384 0.03394437 0.00355627
v -0.01820576 0.03433376 0.00208044
v -0.01503906 0.03577762 0.00178480
v -0.01480511 0.03603828 0.00203495
v -0.01360730 0.03673608 0.00253584
v -0.01329475 0.03690717 0.00276966
v -0.01402466 0.03656123 0.00276966
v -0.01491179 0.03610747 0.00269269
v -0.01890012 0.03394437 0.00297667
v -0.01651011 0.03519353 0.00207344
f 1 2 3
f 1 3 4
f 1 4 10
f 1 10 22
f 1 22 34
f 1 34 51
f 1 51 50
f 1 50 75
f 1 75 74
f 1 74 104
f 1 104 123
f 1 123 122
f 1 122 131
f 1 131 120
f 1 120 106
f 1 106 105
f 1 105 79
f 1 79 55
f 1 55 37
f 1 37 25
f 1 25 13
f 1 13 11
f 1 11 5
f 1 5 6
f 1 6 2
f 2 6 7
f 2 7 3
f 3 8 17
f 3 17 30
f 3 30 45
f 3 45 44
f 3 44 65
f 3 65 90
f 3 90 89
f 3 89 92
f 3 92 72
f 3 72 66
f 3 66 46
f 3 46 32
f 3 32 20
f 3 20 10
f 3 10 4
f 3 7 9
f 3 9 8
f 5 11 6
f 6 12 7
f 6 11 13
f 6 13 12
f 7 12 14
f 7 14 9
f 8 15 16
f 8 16 17
f 8 9 15
f 9 18 15
f 9 14 19
f 9 19 18
f 10 20 21
f 10 21 22
f 12 23 24
f 12 24 14
f 12 13 23
f 13 25 26
f 13 26 27
f 13 27 23
f 14 24 19
f 15 18 28
f 15 28 16
f 16 29 30
f 16 30 17
f 16 28 29
f 18 19 28
f 19 31 28
f 19 24 31
f 20 32 48
f 20 48 71
f 20 71 102
f 20 102 121
f 20 121 103
f 20 103 73
f 20 73 49
f 20 49 33
f 20 33 21
f 21 33 22
f 22 33 34
f 23 35 24
f 23 27 35
f 24 36 31
f 24 35 36
f 25 37 38
f 25 38 39
f 25 39 26
f 26 40 41
f 26 41 27
f 26 39 40
f 27 41 35
f 28 31 29
f 29 42 43
f 29 43 44
f 29 44 45
f 29 45 30
f 29 31 42
f 31 36 42
f 32 46 47
f 32 47 48
f 33 49 50
f 33 50 51
f 33 51 34
f 35 41 52
f 35 52 36
f 36 53 42
f 36 52 54
f 36 54 53
f 37 55 56
f 37 56 38
f 38 56 57
f 38 57 40
f 38 40 39
f 40 57 58
f 40 58 59
f 40 59 60
f 40 60 41
f 41 60 61
f 41 61 54
f 41 54 52
f 42 62 63
f 42 63 43
f 42 53 62
f 43 64 44
f 43 63 64
f 44 64 65
f 46 66 47
f 47 67 68
f 47 68 69
f 47 69 70
f 47 70 71
f 47 71 48
f 47 66 72
f 47 72 67
f 49 73 74
f 49 74 75
f 49 75 50
f 53 54 61
f 53 61 76
f 53 76 77
f 53 77 62
f 55 78 56
f 55 79 78
f 56 78 80
f 56 80 57
f 57 80 81
f 57 81 58
f 58 82 83
f 58 83 84
f 58 84 59
f 58 81 85
f 58 85 86
f 58 86 82
f 59 84 60
f 60 84 61
f 61 84 87
f 61 87 76
f 62 64 63
f 62 77 64
f 64 88 89
f 64 89 90
f 64 90 65
f 64 77 91
f 64 91 88
f 67 72 92
f 67 92 88
f 67 88 93
f 67 93 69
f 67 69 68
f 69 93 94
f 69 94 70
f 70 94 91
f 70 91 77
f 70 77 76
f 70 76 84
f 70 84 95
f 70 95 96
f 70 96 97
f 70 97 98
f 70 98 99
f 70 99 100
f 70 100 71
f 71 100 101
f 71 101 102
f 73 103 104
f 73 104 74
f 76 87 84
f 78 79 105
f 78 105 106
f 78 106 107
f 78 107 81
f 78 81 80
f 81 107 108
f 81 108 109
f 81 109 85
f 82 98 97
f 82 97 110
f 82 110 83
f 82 86 98
f 83 96 84
f 83 110 97
f 83 97 96
f 84 96 95
f 85 109 111
f 85 111 86
f 86 111 98
f 88 91 93
f 88 92 89
f 91 94 93
f 98 111 112
f 98 112 113
f 98 113 101
f 98 101 114
f 98 114 115
f 98 115 99
f 99 115 101
f 99 101 100
f 101 115 114
f 101 113 112
f 101 112 116
f 101 116 117
f 101 117 102
f 102 117 118
f 102 118 119
f 102 119 120
f 102 120 121
f 103 121 122
f 103 122 123
f 103 123 104
f 106 120 124
f 106 124 107
f 107 124 125
f 107 125 126
f 107 126 108
f 108 111 109
f 108 126 111
f 111 126 127
f 111 127 112
f 112 127 128
f 112 128 116
f 116 128 118
f 116 118 117
f 118 127 129
f 118 129 130
f 118 130 120
f 118 120 119
f 118 128 127
f 120 130 124
f 120 131 121
f 121 131 122
f 124 130 132
f 124 132 125
f 125 132 126
f 126 132 127
f 127 132 130
f 127 130 129

