# https://github.com/mikedh/trimesh
v -0.00156348 -0.01142276 0.00534971
v -0.00169538 -0.01142276 0.00492707
v -0.00162182 -0.01142276 0.00578900
v 0.00000654 -0.01266981 0.00521945
v 0.00000654 -0.01268467 0.00495023
v 0.00000654 -0.01269953 0.00468174
v -0.00211388 -0.01142276 0.00451167
v -0.00205808 -0.01142276 0.00621598
v 0.00000654 -0.01321593 0.00589466
v 0.00000654 -0.01291872 0.00446463
v -0.00218490 -0.01142276 0.00447982
v 0.00000654 -0.01313172 0.00425403
v 0.00000654 -0.01356020 0.00390738
v -0.00248419 -0.01142276 0.00658434
v 0.00000654 -0.01365060 0.00600972
v -0.00299401 -0.01142276 0.00416212
v 0.00000654 -0.01384007 0.00378724
v 0.00000654 -0.01411004 0.00612841
v -0.00299401 -0.01142276 0.00670375
v 0.00000654 -0.01411004 0.00367145
v -0.02302388 -0.01142276 0.00054145
v 0.00000654 -0.01453109 0.00611756
v -0.00388428 -0.01142276 0.00672402
v -0.00299401 -0.01154536 0.00668856
v 0.00000654 -0.01496576 0.00610453
v 0.00000654 -0.01496576 0.00336967
v -0.02590522 -0.01172121 0.00020204
v -0.02590522 -0.01154536 0.00023678
v -0.02352609 -0.01142276 0.00049369
v 0.00000654 -0.01559485 0.00317789
v 0.00000654 -0.01581281 0.00311637
v 0.00000654 -0.01602333 0.00305776
v 0.00000654 -0.01667596 0.00289348
v 0.00000654 -0.01710939 0.00279940
v 0.00000654 -0.01753044 0.00270821
v 0.00000654 -0.01838492 0.00255116
v -0.00329077 -0.02407279 0.00105094
v -0.00384877 -0.02407279 0.00098798
v -0.00414806 -0.02407279 0.00095469
v -0.00363825 -0.01212988 0.00659013
v -0.00042972 -0.01723199 0.00571952
v -0.00042972 -0.01667596 0.00583604
v -0.00299401 -0.01225990 0.00659665
v -0.00792221 -0.01142276 0.00636506
v -0.02590522 -0.02407279 0.00213721
v 0.00000654 -0.01582024 0.00598801
v -0.02590522 -0.01239984 0.00012171
v -0.02590522 -0.01142276 0.00029033
v 0.00000654 -0.01924064 0.00243393
v -0.00243600 -0.02407279 0.00120653
v -0.01611729 -0.02407279 -0.00011494
v -0.02590522 -0.01941649 -0.00061719
v -0.00099026 -0.01715026 0.00569709
v -0.00042972 -0.01766047 0.00560807
v 0.00000654 -0.01722828 0.00571880
v 0.00000654 -0.01667596 0.00583531
v -0.00527169 -0.02407279 0.00372211
v -0.00042972 -0.01582024 0.00598946
v -0.00812766 -0.01142276 0.00634118
v -0.02078932 -0.01142276 0.00393343
v -0.02590522 -0.01239984 0.00270314
v -0.02590522 -0.02407279 -0.00032554
v -0.02590522 -0.01142276 0.00260110
v 0.00000654 -0.01967407 0.00243899
v -0.00178669 -0.02407279 0.00145766
v -0.02295794 -0.02407279 -0.00056870
v -0.02522547 -0.02095084 -0.00066712
v -0.02590522 -0.02027221 -0.00066930
v -0.00042972 -0.01838492 0.00540471
v 0.00000654 -0.01838492 0.00540471
v 0.00000654 -0.01765552 0.00560735
v -0.00469846 -0.02407279 0.00373948
v -0.02357935 -0.01142276 0.00323796
v -0.02387864 -0.01142276 0.00316052
v -0.02590522 -0.01154536 0.00262643
v -0.02590522 -0.02266104 -0.00049271
v 0.00000654 -0.02009512 0.00244406
v -0.00125912 -0.02407279 0.00180937
v -0.02522547 -0.02180532 -0.00063601
v -0.02590522 -0.02095084 -0.00064469
v -0.00440424 -0.02407279 0.00373658
v 0.00000654 -0.01924064 0.00513622
v -0.02590522 -0.02180532 -0.00057811
v 0.00000654 -0.02050626 0.00264018
v -0.00125658 -0.02407279 0.00181372
v -0.02590522 -0.02112669 -0.00063818
v -0.00383102 -0.02407279 0.00369895
v 0.00000654 -0.01984125 0.00491115
v 0.00000654 -0.02097437 0.00286525
v 0.00000654 -0.02109201 0.00317861
v 0.00000654 -0.02120718 0.00348618
v -0.00135804 -0.02407279 0.00259965
v -0.00299401 -0.02407279 0.00352888
v 0.00000654 -0.02005178 0.00479753
v 0.00000654 -0.02081462 0.00425186
v -0.00221026 -0.02407279 0.00325967
v 0.00000654 -0.02026849 0.00467957
v 0.00000654 -0.02053970 0.00446897
f 1 2 7
f 1 7 11
f 1 11 16
f 1 16 21
f 1 21 29
f 1 29 48
f 1 48 63
f 1 63 74
f 1 74 73
f 1 73 60
f 1 60 59
f 1 59 44
f 1 44 23
f 1 23 19
f 1 19 14
f 1 14 8
f 1 8 3
f 1 3 4
f 1 4 5
f 1 5 6
f 1 6 2
f 2 6 7
f 3 8 9
f 3 9 4
f 4 9 15
f 4 15 18
f 4 18 22
f 4 22 25
f 4 25 46
f 4 46 56
f 4 56 55
f 4 55 71
f 4 71 70
f 4 70 82
f 4 82 88
f 4 88 94
f 4 94 97
f 4 97 98
f 4 98 95
f 4 95 91
f 4 91 90
f 4 90 89
f 4 89 84
f 4 84 77
f 4 77 64
f 4 64 49
f 4 49 36
f 4 36 35
f 4 35 34
f 4 34 33
f 4 33 32
f 4 32 31
f 4 31 30
f 4 30 26
f 4 26 20
f 4 20 17
f 4 17 13
f 4 13 12
f 4 12 10
f 4 10 6
f 4 6 5
f 6 10 7
f 7 10 12
f 7 12 13
f 7 13 11
f 8 14 9
f 9 14 15
f 11 13 16
f 13 17 16
f 14 18 15
f 14 19 18
f 16 17 20
f 16 20 21
f 18 19 22
f 19 23 24
f 19 24 25
f 19 25 22
f 20 26 21
f 21 27 28
f 21 28 29
f 21 26 30
f 21 30 31
f 21 31 32
f 21 32 33
f 21 33 34
f 21 34 35
f 21 35 36
f 21 36 37
f 21 37 38
f 21 38 39
f 21 39 27
f 23 40 41
f 23 41 42
f 23 42 43
f 23 43 24
f 23 44 45
f 23 45 40
f 24 43 25
f 25 43 46
f 27 47 52
f 27 52 68
f 27 68 80
f 27 80 86
f 27 86 83
f 27 83 76
f 27 76 62
f 27 62 45
f 27 45 61
f 27 61 75
f 27 75 63
f 27 63 48
f 27 48 28
f 27 39 47
f 28 48 29
f 36 49 50
f 36 50 37
f 37 50 65
f 37 65 78
f 37 78 85
f 37 85 92
f 37 92 96
f 37 96 93
f 37 93 87
f 37 87 81
f 37 81 72
f 37 72 57
f 37 57 45
f 37 45 62
f 37 62 66
f 37 66 51
f 37 51 39
f 37 39 38
f 39 51 52
f 39 52 47
f 40 53 41
f 40 45 53
f 41 54 55
f 41 55 56
f 41 56 42
f 41 53 57
f 41 57 54
f 42 56 58
f 42 58 43
f 43 58 46
f 44 59 45
f 45 57 53
f 45 59 60
f 45 60 61
f 46 58 56
f 49 64 65
f 49 65 50
f 51 66 67
f 51 67 52
f 52 67 68
f 54 69 70
f 54 70 71
f 54 71 55
f 54 57 72
f 54 72 69
f 60 73 61
f 61 73 74
f 61 74 75
f 62 76 66
f 63 75 74
f 64 77 65
f 65 77 78
f 66 76 79
f 66 79 67
f 67 79 80
f 67 80 68
f 69 72 70
f 70 72 81
f 70 81 82
f 76 83 79
f 77 84 85
f 77 85 78
f 79 83 86
f 79 86 80
f 81 87 82
f 82 87 88
f 84 89 85
f 85 89 90
f 85 90 91
f 85 91 92
f 87 93 88
f 88 93 94
f 91 95 92
f 92 95 96
f 93 96 97
f 93 97 94
f 95 98 96
f 96 98 97

