# https://github.com/mikedh/trimesh
v 0.02357972 -0.03162964 0.04411086
v 0.02376309 -0.03146080 0.04373764
v 0.02357972 -0.03162901 0.06720242
v 0.02357972 -0.03162901 0.02102532
v 0.02376195 -0.03146142 0.02065209
v 0.02463452 -0.03062471 0.05400122
v 0.02376394 -0.03145893 0.06682318
v 0.02420703 -0.03103527 0.03177048
v 0.02376649 -0.03141781 0.06988721
v 0.02365948 -0.03151812 0.06988721
v 0.02357972 -0.03159288 0.06988721
v 0.02357972 -0.03162652 0.00991295
v 0.02376536 -0.03145270 0.00953973
v 0.02420561 -0.03103278 0.00868494
v 0.02463338 -0.03062159 0.00868494
v 0.02507761 -0.03019732 0.02578690
v 0.02507761 -0.03019856 0.04886642
v 0.02507449 -0.03019544 0.06596838
v 0.02398733 -0.03117110 0.06988721
v 0.02550197 -0.02977491 0.06596838
v 0.02592491 -0.02934752 0.06596838
v 0.02647928 -0.02878617 0.06596838
v 0.02357972 -0.02882169 0.06988721
v 0.02357972 -0.03162091 0.00904010
v 0.02375485 -0.03146080 0.00868494
v 0.02420505 -0.03103216 0.00838997
v 0.02463253 -0.03061972 0.00838997
v 0.02492121 -0.03033687 0.00838997
v 0.02506881 -0.03019420 0.00868494
v 0.02507193 -0.03019544 0.01381372
v 0.02550538 -0.02977366 0.02578690
v 0.02410627 -0.03098980 0.06988721
v 0.02647928 -0.02870580 0.06620917
v 0.02635410 -0.02891763 0.04288284
v 0.02647928 -0.02879116 0.04288284
v 0.02437167 -0.02866095 0.06988721
v 0.02647928 -0.02549476 0.06657035
v 0.02647928 -0.02539570 0.06637772
v 0.02647928 -0.02527172 0.06596838
v 0.02357972 -0.02804665 0.06596838
v 0.02357972 -0.03161032 0.00838997
v 0.02375372 -0.03145955 0.00838997
v 0.02506512 -0.03019233 0.00838997
v 0.02549629 -0.02975871 0.00868494
v 0.02647928 -0.02879116 0.01979729
v 0.02635410 -0.02891763 0.01979729
v 0.02592633 -0.02934627 0.01979729
v 0.02445597 -0.03036242 0.06988721
v 0.02647928 -0.02848339 0.06668473
v 0.02496804 -0.02886904 0.06988721
v 0.02647928 -0.02574459 0.06676298
v 0.02647928 -0.02526549 0.04288284
v 0.02357972 -0.02804603 0.05998480
v 0.02357972 -0.02807406 0.00838997
v 0.02549260 -0.02975373 0.00838997
v 0.02647928 -0.02873758 0.00868494
v 0.02647928 -0.02876624 0.01381372
v 0.02474891 -0.02973005 0.06988721
v 0.02647928 -0.02823979 0.06687736
v 0.02489850 -0.02922042 0.06988721
v 0.02647928 -0.02765228 0.06722650
v 0.02647928 -0.02748531 0.06728068
v 0.02647928 -0.02727722 0.06728669
v 0.02647928 -0.02699873 0.06728068
v 0.02647928 -0.02667663 0.06725660
v 0.02647928 -0.02633085 0.06713019
v 0.02647928 -0.02526487 0.01979729
v 0.02357972 -0.02804540 0.01979729
v 0.02357972 -0.02806970 0.00848628
v 0.02647928 -0.02532966 0.00868494
v 0.02647928 -0.02533589 0.00858260
v 0.02647928 -0.02534835 0.00838997
v 0.02647928 -0.02872574 0.00838997
v 0.02647928 -0.02873010 0.00849832
v 0.02647928 -0.02794448 0.06708202
v 0.02647928 -0.02529415 0.01381372
v 0.02357972 -0.02806222 0.00868494
v 0.02357972 -0.02804790 0.01381372
f 1 2 3
f 1 3 11
f 1 11 23
f 1 23 40
f 1 40 53
f 1 53 68
f 1 68 78
f 1 78 77
f 1 77 69
f 1 69 54
f 1 54 41
f 1 41 24
f 1 24 12
f 1 12 4
f 1 4 5
f 1 5 2
f 2 6 7
f 2 7 3
f 2 5 8
f 2 8 6
f 3 7 9
f 3 9 10
f 3 10 11
f 4 12 5
f 5 12 13
f 5 13 14
f 5 14 15
f 5 15 16
f 5 16 8
f 6 17 18
f 6 18 7
f 6 8 17
f 7 18 9
f 8 16 17
f 9 19 32
f 9 32 48
f 9 48 58
f 9 58 60
f 9 60 50
f 9 50 36
f 9 36 23
f 9 23 11
f 9 11 10
f 9 18 20
f 9 20 21
f 9 21 22
f 9 22 19
f 12 24 25
f 12 25 13
f 13 25 14
f 14 25 26
f 14 26 15
f 15 26 27
f 15 27 28
f 15 28 29
f 15 29 30
f 15 30 16
f 16 30 31
f 16 31 17
f 17 20 18
f 17 31 20
f 19 22 33
f 19 33 32
f 20 34 35
f 20 35 21
f 20 31 34
f 21 35 22
f 22 35 45
f 22 45 57
f 22 57 56
f 22 56 74
f 22 74 73
f 22 73 72
f 22 72 71
f 22 71 70
f 22 70 76
f 22 76 67
f 22 67 52
f 22 52 39
f 22 39 38
f 22 38 37
f 22 37 51
f 22 51 66
f 22 66 65
f 22 65 64
f 22 64 63
f 22 63 62
f 22 62 61
f 22 61 75
f 22 75 59
f 22 59 49
f 22 49 33
f 23 36 37
f 23 37 38
f 23 38 39
f 23 39 40
f 24 41 42
f 24 42 25
f 25 42 26
f 26 42 41
f 26 41 54
f 26 54 72
f 26 72 73
f 26 73 55
f 26 55 43
f 26 43 28
f 26 28 27
f 28 43 29
f 29 43 44
f 29 44 45
f 29 45 46
f 29 46 47
f 29 47 31
f 29 31 30
f 31 47 46
f 31 46 34
f 32 33 49
f 32 49 48
f 34 46 45
f 34 45 35
f 36 50 37
f 37 50 51
f 39 52 40
f 40 52 53
f 43 55 44
f 44 55 56
f 44 56 57
f 44 57 45
f 48 49 58
f 49 59 58
f 50 60 61
f 50 61 62
f 50 62 63
f 50 63 64
f 50 64 65
f 50 65 66
f 50 66 51
f 52 67 53
f 53 67 68
f 54 69 70
f 54 70 71
f 54 71 72
f 55 73 74
f 55 74 56
f 58 59 75
f 58 75 60
f 60 75 61
f 67 76 77
f 67 77 78
f 67 78 68
f 69 77 70
f 70 77 76

