# https://github.com/mikedh/trimesh
v -0.02765130 -0.02407517 0.00839055
v -0.02768295 -0.02407517 0.00782352
v -0.03115633 -0.02407517 0.00839055
v -0.01576346 -0.03310968 0.00839055
v -0.01576346 -0.03312691 0.00780096
v -0.02806118 -0.02407517 0.00387201
v -0.03115181 -0.02407517 0.00782352
v -0.03102975 -0.02420383 0.00782352
v -0.03061988 -0.02463344 0.00839055
v -0.01576346 -0.03580911 0.00839055
v -0.01576346 -0.03365071 0.00387201
v -0.01582072 -0.03360362 0.00387201
v -0.03099359 -0.02407517 0.00387201
v -0.03061536 -0.02463114 0.00782352
v -0.03019192 -0.02506535 0.00839055
v -0.01576346 -0.03578844 0.00808005
v -0.01720254 -0.03511071 0.00839055
v -0.01720254 -0.03511071 0.00810128
v -0.01576346 -0.03489360 0.00387201
v -0.02371230 -0.03138548 0.00387201
v -0.02330695 -0.03181969 0.00440366
v -0.02462999 -0.03061356 0.00782352
v -0.02506398 -0.03019199 0.00839055
v -0.01576346 -0.03577006 0.00780848
v -0.01890231 -0.03425033 0.00839055
v -0.01890231 -0.03425033 0.00810305
v -0.02266200 -0.03218612 0.00387201
v -0.01601059 -0.03483502 0.00387201
v -0.02328585 -0.03180131 0.00387201
v -0.02266200 -0.03219876 0.00440366
v -0.02331900 -0.03183118 0.00525862
v -0.02420204 -0.03103053 0.00782352
v -0.02448835 -0.03076059 0.00839055
v -0.02463301 -0.03061930 0.00839055
v -0.02176691 -0.03256290 0.00387201
v -0.02058701 -0.03338421 0.00839055
v -0.02058701 -0.03338421 0.00804334
v -0.02223404 -0.03249397 0.00743695
v -0.02266200 -0.03225390 0.00696855
v -0.02332955 -0.03183692 0.00611359
v -0.02375751 -0.03144292 0.00696855
v -0.02375148 -0.03145900 0.00782352
v -0.02420505 -0.03103053 0.00839055
v -0.02183321 -0.03271682 0.00839055
v -0.02223856 -0.03249742 0.00800707
v -0.02189198 -0.03268121 0.00776248
v -0.02264090 -0.03227342 0.00839055
v -0.02333106 -0.03183577 0.00696855
v -0.02375299 -0.03145900 0.00839055
v -0.02199143 -0.03263182 0.00839055
v -0.02224007 -0.03249742 0.00839055
v -0.02289104 -0.03211376 0.00839055
v -0.02332653 -0.03183118 0.00839055
f 1 2 6
f 1 6 13
f 1 13 7
f 1 7 3
f 1 3 9
f 1 9 15
f 1 15 23
f 1 23 34
f 1 34 33
f 1 33 43
f 1 43 49
f 1 49 53
f 1 53 52
f 1 52 47
f 1 47 51
f 1 51 50
f 1 50 44
f 1 44 36
f 1 36 25
f 1 25 17
f 1 17 10
f 1 10 4
f 1 4 5
f 1 5 2
f 2 5 6
f 3 7 8
f 3 8 9
f 4 10 16
f 4 16 24
f 4 24 19
f 4 19 11
f 4 11 5
f 5 11 12
f 5 12 6
f 6 12 11
f 6 11 19
f 6 19 28
f 6 28 35
f 6 35 27
f 6 27 29
f 6 29 20
f 6 20 13
f 7 13 8
f 8 13 14
f 8 14 9
f 9 14 15
f 10 17 18
f 10 18 16
f 13 20 21
f 13 21 14
f 14 22 23
f 14 23 15
f 14 21 22
f 16 18 24
f 17 25 26
f 17 26 18
f 18 26 27
f 18 27 24
f 19 24 28
f 20 29 21
f 21 29 27
f 21 27 30
f 21 30 31
f 21 31 22
f 22 32 33
f 22 33 34
f 22 34 23
f 22 31 32
f 24 27 35
f 24 35 28
f 25 36 37
f 25 37 26
f 26 37 27
f 27 37 30
f 30 38 39
f 30 39 31
f 30 37 38
f 31 39 40
f 31 40 41
f 31 41 32
f 32 41 42
f 32 42 43
f 32 43 33
f 36 44 37
f 37 44 45
f 37 45 46
f 37 46 38
f 38 46 45
f 38 45 39
f 39 45 47
f 39 47 40
f 40 47 48
f 40 48 49
f 40 49 42
f 40 42 41
f 42 49 43
f 44 50 45
f 45 50 51
f 45 51 47
f 47 52 48
f 48 52 53
f 48 53 49

