# https://github.com/mikedh/trimesh
v -0.03933980 0.00019983 0.00291126
v -0.03929043 0.00042654 0.00268814
v -0.03928953 -0.00000660 0.00268814
v -0.03933621 -0.00000660 0.00289784
v -0.03933890 -0.00000660 0.00291126
v -0.03921054 0.00126517 0.00291126
v -0.03920066 0.00128361 0.00269273
v -0.03898074 0.00042838 0.00183770
v -0.03888200 0.00213883 0.00183770
v -0.03894483 0.00128361 0.00183770
v -0.03897805 -0.00000660 0.00183770
v -0.03632100 -0.00000660 0.00291126
v -0.03896368 0.00299406 0.00269273
v -0.03909384 0.00213883 0.00269273
v -0.03784880 0.01005151 0.00291126
v -0.03849960 0.00610346 0.00222674
v -0.03878505 0.00299406 0.00183770
v -0.03859206 0.00213883 0.00128169
v -0.03860732 0.00128361 0.00128910
v -0.03854269 0.00299406 0.00132370
v -0.03878595 -0.00000660 0.00156905
v -0.03017031 -0.00000660 0.00239902
v -0.03110745 0.01882309 0.00291126
v -0.03849960 0.00610346 0.00238348
v -0.03769889 0.01091963 0.00291126
v -0.03788471 0.00983401 0.00269273
v -0.03849870 0.00349171 0.00137912
v -0.03761721 0.01107814 0.00234500
v -0.03767645 0.01050677 0.00212189
v -0.03774468 0.00983401 0.00196232
v -0.03780751 0.00901934 0.00176674
v -0.03761272 0.00933083 0.00143455
v -0.03772672 0.00470451 0.00044748
v -0.03776263 0.00384928 0.00042666
v -0.03775635 0.00299406 0.00043725
v -0.03859655 -0.00000660 0.00130887
v -0.03763157 0.00603342 0.00054669
v -0.03766568 0.00555973 0.00050538
v -0.03017031 -0.00000660 -0.00010112
v -0.03017031 0.01882309 0.00211659
v -0.03401584 0.01882309 0.00291126
v -0.03764504 0.01122007 0.00291126
v -0.03771326 0.01075006 0.00265496
v -0.03759028 0.00660296 0.00062753
v -0.03747538 0.01075006 0.00183700
v -0.03755527 0.01151682 0.00265496
v -0.03729226 0.01239785 0.00269273
v -0.03687485 0.01305585 0.00207529
v -0.03697988 0.01236651 0.00180911
v -0.03724648 0.01154262 0.00183770
v -0.03756245 0.00983401 0.00153481
v -0.03700232 0.00812541 0.00034652
v -0.03742960 0.00812541 0.00084323
v -0.03752924 0.00727018 0.00072567
v -0.03726174 0.00635782 0.00025967
v -0.03719801 0.00555973 0.00012623
v -0.03719801 0.00470451 0.00007222
v -0.03719801 0.00384928 0.00005598
v -0.03719801 0.00299406 0.00007222
v -0.03719801 -0.00000660 0.00015271
v -0.03742511 -0.00000660 0.00033063
v -0.03765850 -0.00000660 0.00051739
v -0.03710196 0.00727018 0.00025155
v -0.03059310 -0.00000660 -0.00021338
v -0.03017031 0.00470451 -0.00027728
v -0.03017031 0.01882309 -0.00019396
v -0.03404815 0.01882309 0.00284665
v -0.03421242 0.01848764 0.00291126
v -0.03756515 0.01159054 0.00291126
v -0.03731291 0.01239785 0.00291126
v -0.03691345 0.01330652 0.00275239
v -0.03674379 0.01362539 0.00250669
v -0.03591616 0.01539298 0.00226310
v -0.03630305 0.01410830 0.00183770
v -0.03591526 0.01453591 0.00140983
v -0.03680035 0.01206055 0.00138371
v -0.03669083 0.01263193 0.00150515
v -0.03688742 0.00883502 0.00045172
v -0.03509930 0.01466862 0.00051950
v -0.03468997 0.01495799 0.00027980
v -0.03634344 0.00812541 -0.00004675
v -0.03634344 0.00727018 -0.00016925
v -0.03634344 0.00641496 -0.00022785
v -0.03641795 0.00470451 -0.00024762
v -0.03676354 -0.00000660 0.00001750
v -0.03206794 -0.00000660 -0.00055581
v -0.03083547 0.00042838 -0.00028681
v -0.03017031 0.01411751 -0.00054452
v -0.03017031 0.01819826 -0.00037189
v -0.03068017 0.01882309 -0.00018973
v -0.03410830 0.01882309 0.00269273
v -0.03667198 0.01386316 0.00291126
v -0.03684523 0.01349452 0.00291126
v -0.03676624 0.01367147 0.00291126
v -0.03599426 0.01487874 0.00192208
v -0.03591616 0.01539298 0.00227651
v -0.03434258 0.01822407 0.00205976
v -0.03389107 0.01882309 0.00178934
v -0.03501133 0.01523815 0.00062082
v -0.03601221 0.01410830 0.00131558
v -0.03352034 0.01882309 0.00110553
v -0.03334530 0.01882309 0.00079875
v -0.03329323 0.01872356 0.00062788
v -0.03416036 0.01701127 0.00064800
v -0.03445479 0.01581875 0.00033558
v -0.03369987 0.01575792 -0.00012301
v -0.03463342 0.01410830 0.00008352
v -0.03384259 0.01496352 -0.00019008
v -0.03336145 0.01543168 -0.00030270
v -0.03573304 0.00812541 -0.00026527
v -0.03628420 0.00554314 -0.00025610
v -0.03292340 0.01068924 -0.00064513
v -0.03292340 0.00983401 -0.00067796
v -0.03599067 0.00470451 -0.00031082
v -0.03597092 0.00419395 -0.00030870
v -0.03377886 -0.00000660 -0.00059006
v -0.03634344 -0.00000660 -0.00009865
v -0.03292340 -0.00000660 -0.00065502
v -0.03206794 0.00042838 -0.00056429
v -0.03035792 0.01410830 -0.00057523
v -0.03017031 0.01752920 -0.00042273
v -0.03017031 0.01800657 -0.00039272
v -0.03157692 0.01784622 -0.00029387
v -0.03100692 0.01803238 -0.00032035
v -0.03123492 0.01882309 -0.00018408
v -0.03430219 0.01644173 0.00045490
v -0.03326720 0.01882309 0.00068154
v -0.03283004 0.01882309 0.00033663
v -0.03344404 0.01815403 0.00045878
v -0.03360023 0.01752920 0.00031298
v -0.03383631 0.01670530 0.00019895
v -0.03292340 0.01752920 -0.00007994
v -0.03292340 0.01667397 -0.00023138
v -0.03208410 0.01754763 -0.00026881
v -0.03206794 0.01239785 -0.00062642
v -0.03206794 0.01154262 -0.00067902
v -0.03206794 0.01068924 -0.00069456
v -0.03292340 0.00128361 -0.00067337
v -0.03377886 0.00213883 -0.00060453
v -0.03292340 0.00042838 -0.00066313
v -0.03206794 0.01838442 -0.00014560
v -0.03206794 0.01882309 -0.00002769
v -0.03297367 0.01841760 0.00025297
f 1 2 3
f 1 3 4
f 1 4 5
f 1 5 12
f 1 12 23
f 1 23 41
f 1 41 68
f 1 68 92
f 1 92 94
f 1 94 93
f 1 93 70
f 1 70 69
f 1 69 42
f 1 42 25
f 1 25 15
f 1 15 6
f 1 6 7
f 1 7 2
f 2 8 3
f 2 7 9
f 2 9 10
f 2 10 8
f 3 8 11
f 3 11 21
f 3 21 36
f 3 36 62
f 3 62 61
f 3 61 60
f 3 60 85
f 3 85 117
f 3 117 116
f 3 116 118
f 3 118 86
f 3 86 64
f 3 64 39
f 3 39 22
f 3 22 12
f 3 12 5
f 3 5 4
f 6 13 14
f 6 14 7
f 6 15 13
f 7 14 16
f 7 16 17
f 7 17 9
f 8 10 18
f 8 18 19
f 8 19 11
f 9 18 10
f 9 17 20
f 9 20 18
f 11 19 21
f 12 22 23
f 13 24 14
f 13 15 24
f 14 24 16
f 15 25 26
f 15 26 24
f 16 27 17
f 16 24 26
f 16 26 28
f 16 28 29
f 16 29 30
f 16 30 31
f 16 31 32
f 16 32 27
f 17 27 20
f 18 20 33
f 18 33 34
f 18 34 19
f 19 34 35
f 19 35 36
f 19 36 21
f 20 27 37
f 20 37 38
f 20 38 33
f 22 39 65
f 22 65 88
f 22 88 121
f 22 121 122
f 22 122 89
f 22 89 66
f 22 66 40
f 22 40 23
f 23 40 66
f 23 66 90
f 23 90 125
f 23 125 142
f 23 142 128
f 23 128 127
f 23 127 102
f 23 102 101
f 23 101 98
f 23 98 91
f 23 91 67
f 23 67 41
f 25 42 26
f 26 42 43
f 26 43 28
f 27 44 37
f 27 32 44
f 28 45 29
f 28 43 42
f 28 42 46
f 28 46 47
f 28 47 48
f 28 48 49
f 28 49 50
f 28 50 45
f 29 45 51
f 29 51 30
f 30 51 32
f 30 32 31
f 32 51 52
f 32 52 53
f 32 53 54
f 32 54 44
f 33 38 55
f 33 55 56
f 33 56 57
f 33 57 34
f 34 57 58
f 34 58 35
f 35 59 60
f 35 60 61
f 35 61 62
f 35 62 36
f 35 58 59
f 37 44 63
f 37 63 38
f 38 63 55
f 39 64 65
f 41 67 68
f 42 69 46
f 44 54 52
f 44 52 63
f 45 50 51
f 46 69 47
f 47 70 71
f 47 71 72
f 47 72 48
f 47 69 70
f 48 72 73
f 48 73 74
f 48 74 75
f 48 75 49
f 49 76 50
f 49 75 77
f 49 77 76
f 50 76 51
f 51 76 52
f 52 76 78
f 52 78 79
f 52 79 80
f 52 80 81
f 52 81 63
f 52 54 53
f 55 63 56
f 56 63 82
f 56 82 83
f 56 83 57
f 57 84 58
f 57 83 84
f 58 84 59
f 59 84 60
f 60 84 85
f 63 81 82
f 64 86 87
f 64 87 65
f 65 87 86
f 65 86 88
f 66 89 90
f 67 91 68
f 68 91 92
f 70 93 71
f 71 93 94
f 71 94 72
f 72 94 73
f 73 75 95
f 73 95 74
f 73 94 92
f 73 92 96
f 73 96 91
f 73 91 97
f 73 97 98
f 73 98 75
f 74 95 75
f 75 99 100
f 75 100 77
f 75 98 101
f 75 101 102
f 75 102 103
f 75 103 104
f 75 104 99
f 76 77 100
f 76 100 99
f 76 99 79
f 76 79 78
f 79 99 105
f 79 105 80
f 80 105 106
f 80 106 107
f 80 107 81
f 81 107 108
f 81 108 82
f 82 108 109
f 82 109 110
f 82 110 83
f 83 111 84
f 83 110 112
f 83 112 113
f 83 113 111
f 84 111 114
f 84 114 115
f 84 115 116
f 84 116 117
f 84 117 85
f 86 118 119
f 86 119 120
f 86 120 88
f 88 120 121
f 89 122 123
f 89 123 124
f 89 124 125
f 89 125 90
f 91 98 97
f 91 96 92
f 99 126 105
f 99 104 126
f 102 127 103
f 103 127 128
f 103 128 129
f 103 129 126
f 103 126 104
f 105 126 130
f 105 130 131
f 105 131 106
f 106 109 108
f 106 108 107
f 106 131 132
f 106 132 109
f 109 132 133
f 109 133 134
f 109 134 123
f 109 123 135
f 109 135 112
f 109 112 110
f 111 113 114
f 112 135 136
f 112 136 113
f 113 136 137
f 113 137 138
f 113 138 139
f 113 139 114
f 114 139 116
f 114 116 115
f 116 139 138
f 116 138 140
f 116 140 118
f 118 140 119
f 119 140 120
f 120 137 136
f 120 136 121
f 120 140 138
f 120 138 137
f 121 136 135
f 121 135 122
f 122 135 123
f 123 134 141
f 123 141 125
f 123 125 124
f 125 141 142
f 126 129 130
f 128 142 143
f 128 143 129
f 129 143 130
f 130 143 132
f 130 132 131
f 132 143 142
f 132 142 141
f 132 141 133
f 133 141 134

