# https://github.com/mikedh/trimesh
v 0.02357943 -0.03114922 0.08567616
v 0.02180573 -0.03206724 0.08567833
v 0.02351578 -0.03121255 0.08567616
v 0.02357943 -0.03121255 0.08567399
v 0.02357943 -0.03035787 0.08566855
v 0.01955750 -0.03346054 0.08567616
v 0.02095023 -0.03292251 0.08567725
v 0.02357943 -0.03029453 0.08566746
v 0.02266027 -0.03206724 0.08567290
v 0.02357943 -0.03200450 0.08562834
v 0.02041301 -0.03346054 0.08567290
v 0.01870296 -0.03346054 0.08566312
v 0.02357943 -0.02950259 0.08561312
v 0.01784842 -0.03346054 0.08562942
v 0.02180573 -0.03292251 0.08565768
v 0.02351578 -0.03206724 0.08562725
v 0.02357943 -0.03207256 0.08561421
v 0.02126755 -0.03346054 0.08564030
v 0.02357943 -0.02943926 0.08560660
v 0.01699292 -0.03346054 0.08556313
v 0.02266027 -0.03292251 0.08558269
v 0.02357943 -0.03289114 0.08540010
v 0.02212305 -0.03346054 0.08553595
v 0.02357943 -0.02860647 0.08541966
v 0.01614803 -0.03346054 0.08545444
v 0.02351578 -0.03294619 0.08539792
v 0.02357943 -0.03292133 0.08539032
v 0.02291683 -0.03346054 0.08535662
v 0.02357943 -0.02850940 0.08539575
v 0.01542369 -0.03346054 0.08533597
v 0.02318303 -0.03346054 0.08528054
v 0.02323125 -0.03343745 0.08527619
v 0.02357943 -0.03332085 0.08514686
v 0.02357943 -0.02839458 0.08535662
v 0.01518353 -0.03346054 0.08528815
v 0.02321582 -0.03346054 0.08525663
v 0.02357943 -0.03346054 0.08492840
v 0.02357943 -0.02812527 0.08525119
v 0.01528770 -0.03330724 0.08524576
v 0.01470322 -0.03346054 0.08510773
v 0.02357943 -0.03346054 0.08333831
v 0.02357943 -0.02775001 0.08486753
v 0.01471768 -0.03344693 0.08510338
v 0.01464438 -0.03346054 0.08506860
v 0.02042748 -0.03346054 0.07709101
v 0.02054418 -0.03336110 0.07663778
v 0.02265642 -0.03222586 0.07457600
v 0.02334024 -0.03185061 0.07457600
v 0.02357943 -0.03158189 0.07457600
v 0.02357943 -0.02771923 0.08483058
v 0.01417082 -0.03346054 0.08471211
v 0.02009473 -0.03346054 0.07649432
v 0.01924019 -0.03346054 0.07617695
v 0.02180573 -0.03234661 0.07457600
v 0.02357943 -0.02949845 0.07457600
v 0.02357943 -0.02767070 0.08476210
v 0.01434539 -0.03326285 0.08453278
v 0.01372619 -0.03346054 0.08393065
v 0.01846473 -0.03346054 0.07611717
v 0.02099942 -0.03198260 0.07457600
v 0.01753111 -0.03346054 0.07606392
v 0.01670454 -0.03346054 0.07615956
v 0.02351578 -0.02946352 0.07457600
v 0.02357943 -0.02836439 0.07627151
v 0.02357943 -0.02744933 0.08419585
v 0.02357943 -0.02741441 0.08393065
v 0.02357943 -0.02804951 0.07709101
v 0.01490672 -0.03346054 0.07709101
v 0.02073129 -0.03121255 0.07457600
v 0.01582010 -0.03346054 0.07636715
v 0.02266220 -0.02942920 0.07457600
v 0.02192147 -0.02973047 0.07457600
v 0.01536775 -0.03333861 0.07664648
v 0.01527323 -0.03346054 0.07656388
v 0.02109876 -0.03045790 0.07457600
v 0.02151928 -0.03000924 0.07457600
v 0.02149420 -0.03002759 0.07457600
v 0.02146527 -0.03005423 0.07457600
f 1 2 3
f 1 3 4
f 1 4 10
f 1 10 17
f 1 17 22
f 1 22 27
f 1 27 33
f 1 33 37
f 1 37 41
f 1 41 49
f 1 49 55
f 1 55 64
f 1 64 67
f 1 67 66
f 1 66 65
f 1 65 56
f 1 56 50
f 1 50 42
f 1 42 38
f 1 38 34
f 1 34 29
f 1 29 24
f 1 24 19
f 1 19 13
f 1 13 8
f 1 8 5
f 1 5 2
f 2 6 7
f 2 7 3
f 2 5 8
f 2 8 6
f 3 7 9
f 3 9 4
f 4 9 10
f 6 11 7
f 6 8 12
f 6 12 14
f 6 14 20
f 6 20 25
f 6 25 30
f 6 30 35
f 6 35 40
f 6 40 44
f 6 44 51
f 6 51 58
f 6 58 68
f 6 68 74
f 6 74 70
f 6 70 62
f 6 62 61
f 6 61 59
f 6 59 53
f 6 53 52
f 6 52 45
f 6 45 41
f 6 41 37
f 6 37 36
f 6 36 31
f 6 31 28
f 6 28 23
f 6 23 18
f 6 18 11
f 7 11 9
f 8 13 14
f 8 14 12
f 9 11 15
f 9 15 10
f 10 15 16
f 10 16 17
f 11 18 15
f 13 19 14
f 14 19 20
f 15 18 16
f 16 18 21
f 16 21 17
f 17 21 22
f 18 23 21
f 19 24 25
f 19 25 20
f 21 23 26
f 21 26 22
f 22 26 27
f 23 28 26
f 24 29 25
f 25 29 30
f 26 28 27
f 27 28 31
f 27 31 32
f 27 32 33
f 29 34 35
f 29 35 30
f 31 36 32
f 32 36 33
f 33 36 37
f 34 38 35
f 35 38 39
f 35 39 40
f 38 42 43
f 38 43 40
f 38 40 39
f 40 43 44
f 41 45 46
f 41 46 47
f 41 47 48
f 41 48 49
f 42 50 44
f 42 44 43
f 44 50 51
f 45 52 46
f 46 52 47
f 47 52 53
f 47 53 54
f 47 54 60
f 47 60 69
f 47 69 75
f 47 75 78
f 47 78 77
f 47 77 76
f 47 76 72
f 47 72 71
f 47 71 63
f 47 63 55
f 47 55 49
f 47 49 48
f 50 56 51
f 51 56 57
f 51 57 58
f 53 59 54
f 54 59 61
f 54 61 62
f 54 62 60
f 55 63 64
f 56 65 57
f 57 65 58
f 58 65 66
f 58 66 67
f 58 67 68
f 60 62 70
f 60 70 69
f 63 71 64
f 64 71 72
f 64 72 67
f 67 72 68
f 68 72 73
f 68 73 74
f 69 74 75
f 69 70 74
f 72 76 73
f 73 76 77
f 73 77 74
f 74 77 78
f 74 78 75

