# https://github.com/mikedh/trimesh
v 0.02357943 -0.03162668 0.07319104
v 0.02357943 -0.03162363 0.07917898
v 0.02357943 -0.03161753 0.07024959
v 0.02375689 -0.03146046 0.07110446
v 0.02375689 -0.03146199 0.07196029
v 0.02375807 -0.03145894 0.07794439
v 0.02357943 -0.03158703 0.07973316
v 0.02376872 -0.03144369 0.07880022
v 0.02507241 -0.03019631 0.07708952
v 0.03019846 -0.02507717 0.07708952
v 0.03185115 -0.02334182 0.07973316
v 0.02357943 -0.03159313 0.06988721
v 0.02376753 -0.03141777 0.06988721
v 0.02376517 -0.03144216 0.07024959
v 0.02420526 -0.03103349 0.07110446
v 0.02420644 -0.03103349 0.07196029
v 0.02376635 -0.03145284 0.07281516
v 0.02463115 -0.03062328 0.07708952
v 0.02357943 -0.02939268 0.07973316
v 0.02463469 -0.03062328 0.07196029
v 0.02507241 -0.03019631 0.07196029
v 0.03019728 -0.02506955 0.07196029
v 0.03062435 -0.02463342 0.07196029
v 0.03062554 -0.02463189 0.07708952
v 0.03146075 -0.02375659 0.07794439
v 0.03145602 -0.02376574 0.07623464
v 0.03185115 -0.02334182 0.07965509
v 0.03226876 -0.02266780 0.07623464
v 0.03230662 -0.02258241 0.07874914
v 0.03219778 -0.02272423 0.07973316
v 0.02357943 -0.02882083 0.06988721
v 0.03142053 -0.02376879 0.06988721
v 0.03144656 -0.02376727 0.07024959
v 0.02463351 -0.03061414 0.07110446
v 0.02357943 -0.02933626 0.07969750
v 0.03002101 -0.02148600 0.07973316
v 0.03103368 -0.02420339 0.07110446
v 0.03146194 -0.02375812 0.07110446
v 0.03184997 -0.02334182 0.07367003
v 0.03184642 -0.02334029 0.06988721
v 0.03226048 -0.02266933 0.07110446
v 0.03231372 -0.02257936 0.07281998
v 0.03249945 -0.02224235 0.07196029
v 0.03249945 -0.02224388 0.07817569
v 0.03249945 -0.02224388 0.07843109
v 0.03223090 -0.02266171 0.07973316
v 0.02357943 -0.02848535 0.07031416
v 0.03325895 -0.01604968 0.07059269
v 0.03019846 -0.02118406 0.06988721
v 0.02357943 -0.02896723 0.07929271
v 0.03329444 -0.01604968 0.07841760
v 0.03044808 -0.02107427 0.07973316
v 0.03336069 -0.01604968 0.07846290
v 0.03227231 -0.02261748 0.06988721
v 0.03230662 -0.02257936 0.07031223
v 0.03249827 -0.02224235 0.07110446
v 0.03273487 -0.02180623 0.07196029
v 0.03338554 -0.02058782 0.07133865
v 0.03315722 -0.02100717 0.07708952
v 0.03337844 -0.02057562 0.07765140
v 0.03424441 -0.01889059 0.07762634
v 0.03238352 -0.02193432 0.07973316
v 0.03510566 -0.01719336 0.07763887
v 0.03557887 -0.01604968 0.07795788
v 0.03547121 -0.01604968 0.07817184
v 0.03523934 -0.01604968 0.07852362
v 0.02357943 -0.02809803 0.07110446
v 0.03299632 -0.01604968 0.07107554
v 0.03373571 -0.01604968 0.07035560
v 0.03079826 -0.02053140 0.06988721
v 0.02357943 -0.02855093 0.07875781
v 0.03303063 -0.01604968 0.07795595
v 0.02357943 -0.02853110 0.07873179
v 0.03109993 -0.02071439 0.07973316
v 0.03440294 -0.01604968 0.07879347
v 0.03374518 -0.01604968 0.07863830
v 0.03357482 -0.01604968 0.07857855
v 0.03249709 -0.02223930 0.07063799
v 0.03246041 -0.02209291 0.06988721
v 0.03526537 -0.01604968 0.07049053
v 0.03560371 -0.01604968 0.07107651
v 0.03510921 -0.01720099 0.07139070
v 0.03424915 -0.01889974 0.07139263
v 0.03337962 -0.02057867 0.07708952
v 0.03424915 -0.01889974 0.07172031
v 0.03240244 -0.02183215 0.07973316
v 0.03510921 -0.01720099 0.07173959
v 0.03566523 -0.01604968 0.07707988
v 0.03565103 -0.01604968 0.07723794
v 0.03513405 -0.01604968 0.07857855
v 0.02357943 -0.02806295 0.07177139
v 0.03295018 -0.01604968 0.07203161
v 0.03464428 -0.01604968 0.07022453
v 0.03113306 -0.02026911 0.06988721
v 0.03083730 -0.02049175 0.06988721
v 0.03299396 -0.01604968 0.07768802
v 0.02357943 -0.02812852 0.07794439
v 0.02357943 -0.02825204 0.07821328
v 0.03115908 -0.02068389 0.07973316
v 0.03464073 -0.01604968 0.07875685
v 0.03209604 -0.02088060 0.07973316
v 0.03212207 -0.02089585 0.07973316
v 0.03257871 -0.02169033 0.06988721
v 0.03565458 -0.01604968 0.07196607
v 0.02357943 -0.02805685 0.07196029
v 0.03291469 -0.01604968 0.07708952
v 0.03271358 -0.02095228 0.06988721
v 0.03269110 -0.02011205 0.06988721
v 0.03263668 -0.01951886 0.06988721
v 0.03235631 -0.01954935 0.06988721
v 0.03187008 -0.01973997 0.06988721
v 0.02357943 -0.02804770 0.07708952
f 1 2 7
f 1 7 19
f 1 19 35
f 1 35 50
f 1 50 71
f 1 71 73
f 1 73 98
f 1 98 97
f 1 97 112
f 1 112 105
f 1 105 91
f 1 91 67
f 1 67 47
f 1 47 31
f 1 31 12
f 1 12 3
f 1 3 4
f 1 4 5
f 1 5 6
f 1 6 2
f 2 6 8
f 2 8 9
f 2 9 10
f 2 10 11
f 2 11 7
f 3 12 13
f 3 13 14
f 3 14 4
f 4 14 15
f 4 15 5
f 5 15 16
f 5 16 17
f 5 17 6
f 6 17 16
f 6 16 18
f 6 18 8
f 7 11 30
f 7 30 46
f 7 46 62
f 7 62 86
f 7 86 102
f 7 102 101
f 7 101 99
f 7 99 74
f 7 74 52
f 7 52 36
f 7 36 19
f 8 18 9
f 9 18 20
f 9 20 21
f 9 21 10
f 10 21 22
f 10 22 23
f 10 23 24
f 10 24 11
f 11 25 26
f 11 26 27
f 11 27 28
f 11 28 29
f 11 29 30
f 11 24 25
f 12 31 49
f 12 49 70
f 12 70 95
f 12 95 94
f 12 94 111
f 12 111 110
f 12 110 109
f 12 109 108
f 12 108 107
f 12 107 103
f 12 103 79
f 12 79 54
f 12 54 40
f 12 40 32
f 12 32 13
f 13 32 33
f 13 33 14
f 14 33 34
f 14 34 15
f 15 34 21
f 15 21 20
f 15 20 16
f 16 20 18
f 19 36 35
f 21 34 22
f 22 33 37
f 22 37 23
f 22 34 33
f 23 37 38
f 23 38 26
f 23 26 24
f 24 26 25
f 26 38 39
f 26 39 27
f 27 39 28
f 28 39 40
f 28 40 41
f 28 41 42
f 28 42 43
f 28 43 44
f 28 44 45
f 28 45 29
f 29 45 30
f 30 45 46
f 31 47 48
f 31 48 49
f 32 40 33
f 33 40 38
f 33 38 37
f 35 36 51
f 35 51 50
f 36 52 53
f 36 53 51
f 38 40 39
f 40 54 55
f 40 55 41
f 41 55 56
f 41 56 42
f 42 56 43
f 43 56 57
f 43 57 44
f 44 57 45
f 45 57 58
f 45 58 59
f 45 59 60
f 45 60 61
f 45 61 46
f 46 61 63
f 46 63 64
f 46 64 65
f 46 65 66
f 46 66 62
f 47 67 68
f 47 68 48
f 48 68 92
f 48 92 106
f 48 106 96
f 48 96 72
f 48 72 51
f 48 51 53
f 48 53 77
f 48 77 76
f 48 76 75
f 48 75 100
f 48 100 90
f 48 90 66
f 48 66 65
f 48 65 64
f 48 64 89
f 48 89 88
f 48 88 104
f 48 104 81
f 48 81 80
f 48 80 93
f 48 93 69
f 48 69 49
f 49 69 70
f 50 51 71
f 51 72 73
f 51 73 71
f 52 74 75
f 52 75 76
f 52 76 77
f 52 77 53
f 54 58 78
f 54 78 55
f 54 79 80
f 54 80 81
f 54 81 82
f 54 82 83
f 54 83 58
f 55 78 56
f 56 78 58
f 56 58 57
f 58 84 59
f 58 83 85
f 58 85 61
f 58 61 84
f 59 84 60
f 60 84 61
f 61 85 63
f 62 66 86
f 63 85 87
f 63 87 88
f 63 88 89
f 63 89 64
f 66 90 86
f 67 91 92
f 67 92 68
f 69 93 94
f 69 94 95
f 69 95 70
f 72 96 97
f 72 97 98
f 72 98 73
f 74 99 75
f 75 99 101
f 75 101 102
f 75 102 100
f 79 103 80
f 80 103 93
f 81 104 82
f 82 104 88
f 82 88 87
f 82 87 85
f 82 85 83
f 86 90 100
f 86 100 102
f 91 105 92
f 92 105 106
f 93 103 107
f 93 107 108
f 93 108 109
f 93 109 110
f 93 110 111
f 93 111 94
f 96 106 97
f 97 106 112
f 105 112 106

