# https://github.com/mikedh/trimesh
v 0.00040775 0.03937635 0.00351083
v 0.00016416 0.03935538 0.00291610
v 0.00000859 0.03936155 0.00308367
v 0.00000859 0.03937635 0.00351083
v 0.00053057 0.03936155 0.00351083
v 0.00128386 0.03920611 0.00269266
v 0.00044050 0.03929740 0.00265570
v 0.00000859 0.03929863 0.00265570
v 0.00000859 0.03933811 0.00283683
v 0.00000859 0.03935538 0.00291610
v 0.00000859 0.03662540 0.00351083
v 0.00610248 0.03849925 0.00238338
v 0.00610248 0.03849925 0.00222648
v 0.00213951 0.03909755 0.00269266
v 0.01132436 0.03766040 0.00351083
v 0.00299310 0.03878668 0.00183752
v 0.00213951 0.03888907 0.00183752
v 0.00042822 0.03898899 0.00183752
v 0.00128386 0.03895692 0.00183752
v 0.00000859 0.03898899 0.00183752
v 0.00000859 0.02677502 0.00320607
v 0.02091861 0.03007493 0.00351083
v 0.00901945 0.03780720 0.00176729
v 0.00933264 0.03761229 0.00143501
v 0.00348438 0.03849802 0.00137956
v 0.00983415 0.03787998 0.00269266
v 0.01106439 0.03761475 0.00236737
v 0.01049533 0.03767397 0.00213078
v 0.00983415 0.03774181 0.00196937
v 0.01172557 0.03758885 0.00351083
v 0.00299310 0.03854243 0.00132001
v 0.00213951 0.03859671 0.00127113
v 0.00128386 0.03861521 0.00127729
v 0.00000859 0.03879038 0.00156809
v 0.00000859 0.02677502 0.00041641
v 0.00022966 0.02677502 0.00320607
v 0.00983415 0.02677502 0.00280849
v 0.01923393 0.02677502 0.00213982
v 0.02009572 0.02677502 0.00200757
v 0.02091861 0.02677502 0.00187080
v 0.02091861 0.03293813 0.00351083
v 0.00038319 0.02677502 0.00320566
v 0.00812491 0.03698808 0.00036917
v 0.00812491 0.03741614 0.00084069
v 0.00726927 0.03752346 0.00071870
v 0.00661423 0.03758761 0.00062341
v 0.00876153 0.03765793 0.00135574
v 0.00983415 0.03755677 0.00154180
v 0.01204899 0.03679687 0.00138778
v 0.01120768 0.03764436 0.00293746
v 0.01074301 0.03771097 0.00266843
v 0.01151268 0.03755061 0.00266843
v 0.01239903 0.03727921 0.00269266
v 0.01303769 0.03686719 0.00208725
v 0.01236014 0.03697081 0.00181658
v 0.01154339 0.03723604 0.00183752
v 0.01074301 0.03746672 0.00184245
v 0.01174809 0.03758268 0.00351083
v 0.00604312 0.03763326 0.00054414
v 0.00470439 0.03772825 0.00043900
v 0.00384874 0.03777882 0.00040367
v 0.00299310 0.03778499 0.00040326
v 0.00000859 0.03772084 0.00043653
v 0.00000859 0.03859794 0.00130728
v 0.00000859 0.02735852 0.00023486
v 0.01769050 0.02677502 -0.00058742
v 0.02091861 0.02677502 -0.00041902
v 0.02091861 0.03303189 0.00269266
v 0.01326900 0.03695847 0.00351083
v 0.00726927 0.03709540 0.00027060
v 0.01456475 0.03507228 0.00054496
v 0.01489636 0.03465779 0.00031454
v 0.01410827 0.03463312 0.00012274
v 0.01261806 0.03668831 0.00151716
v 0.01390971 0.03602956 0.00129002
v 0.01178698 0.03757158 0.00351083
v 0.01239903 0.03736186 0.00351083
v 0.01368454 0.03677220 0.00310585
v 0.01329561 0.03690419 0.00276947
v 0.01360880 0.03673519 0.00253576
v 0.01480424 0.03603820 0.00202769
v 0.01416149 0.03620720 0.00178085
v 0.01448082 0.03588646 0.00145760
v 0.01329561 0.03659826 0.00181658
v 0.00636245 0.03726071 0.00026608
v 0.00556003 0.03719779 0.00011740
v 0.00470439 0.03719779 0.00004675
v 0.00384874 0.03719779 0.00002169
v 0.00299310 0.03719779 0.00002786
v 0.00000859 0.03719779 0.00009604
v 0.00000859 0.03745562 0.00026361
v 0.00000859 0.02779274 0.00010097
v 0.01854615 0.02677502 -0.00062068
v 0.00000859 0.02864764 -0.00008756
v 0.00000859 0.03377699 -0.00068476
v 0.02025129 0.02677502 -0.00050075
v 0.01853591 0.03121355 -0.00027814
v 0.02091861 0.02953584 -0.00014629
v 0.02091861 0.03279874 0.00189996
v 0.01988283 0.03346859 0.00206589
v 0.01820634 0.03433335 0.00207986
v 0.01491274 0.03610728 0.00269266
v 0.01368454 0.03677220 0.00313460
v 0.01244202 0.03734336 0.00351083
v 0.00812491 0.03634290 -0.00000295
v 0.00726927 0.03634290 -0.00012863
v 0.01513586 0.03496002 0.00069899
v 0.01581955 0.03436789 0.00040901
v 0.01605700 0.03326998 -0.00029416
v 0.01402639 0.03656125 0.00276947
v 0.01650939 0.03519318 0.00207328
v 0.02069958 0.03258779 0.00131015
v 0.01803235 0.03338594 0.00051539
v 0.00641363 0.03634290 -0.00021283
v 0.00384874 0.03649340 -0.00025432
v 0.00556003 0.03634290 -0.00024815
v 0.00299310 0.03654151 -0.00024774
v 0.00000859 0.03463312 -0.00063999
v 0.01838443 0.02693785 -0.00061904
v 0.01940179 0.02677502 -0.00059029
v 0.00042822 0.03377699 -0.00068476
v 0.00898055 0.03206844 -0.00066340
v 0.00042822 0.03463312 -0.00064286
v 0.01796889 0.03164654 -0.00030073
v 0.01924008 0.03121355 -0.00017176
v 0.02009572 0.03035865 -0.00016560
v 0.02091861 0.03035865 -0.00000048
v 0.02091861 0.03277407 0.00181658
v 0.02091861 0.03252241 0.00139065
v 0.01630674 0.03423713 0.00051909
v 0.01752879 0.03350189 0.00039505
v 0.01662402 0.03379179 0.00026197
v 0.01667520 0.03308370 -0.00021201
v 0.01712144 0.03250514 -0.00030237
v 0.01667520 0.03265687 -0.00031059
v 0.00128386 0.03463312 -0.00062725
v 0.02091861 0.03220044 0.00115571
v 0.01961263 0.03245456 0.00058357
v 0.01904357 0.03264454 0.00044392
v 0.01834554 0.03292703 0.00032153
v 0.00299310 0.03611345 -0.00034550
v 0.01924008 0.02693785 -0.00058742
v 0.01745510 0.03198579 -0.00032126
v 0.02091861 0.03039566 0.00001266
v 0.01769050 0.03221647 -0.00025308
v 0.01745510 0.03284315 -0.00005799
v 0.01929330 0.03212889 0.00023158
v 0.01830665 0.03198579 -0.00015656
v 0.02091861 0.03210791 0.00109123
v 0.02091861 0.03099397 0.00037944
f 1 2 3
f 1 3 4
f 1 4 11
f 1 11 22
f 1 22 41
f 1 41 69
f 1 69 104
f 1 104 77
f 1 77 76
f 1 76 58
f 1 58 30
f 1 30 15
f 1 15 5
f 1 5 6
f 1 6 2
f 2 7 8
f 2 8 9
f 2 9 10
f 2 10 3
f 2 6 7
f 3 10 9
f 3 9 8
f 3 8 20
f 3 20 34
f 3 34 64
f 3 64 63
f 3 63 91
f 3 91 90
f 3 90 118
f 3 118 95
f 3 95 94
f 3 94 92
f 3 92 65
f 3 65 35
f 3 35 21
f 3 21 11
f 3 11 4
f 5 12 13
f 5 13 14
f 5 14 6
f 5 15 12
f 6 14 13
f 6 13 16
f 6 16 17
f 6 17 7
f 7 18 8
f 7 17 19
f 7 19 18
f 8 18 20
f 11 21 22
f 12 15 13
f 13 23 24
f 13 24 25
f 13 25 16
f 13 15 26
f 13 26 27
f 13 27 28
f 13 28 29
f 13 29 23
f 15 30 26
f 16 25 31
f 16 31 17
f 17 32 19
f 17 31 32
f 18 19 32
f 18 32 33
f 18 33 20
f 20 33 34
f 21 35 66
f 21 66 93
f 21 93 120
f 21 120 96
f 21 96 67
f 21 67 40
f 21 40 39
f 21 39 38
f 21 38 37
f 21 37 42
f 21 42 36
f 21 36 22
f 22 37 38
f 22 38 39
f 22 39 40
f 22 40 67
f 22 67 98
f 22 98 127
f 22 127 144
f 22 144 150
f 22 150 149
f 22 149 137
f 22 137 129
f 22 129 128
f 22 128 99
f 22 99 68
f 22 68 41
f 22 36 42
f 22 42 37
f 23 29 24
f 24 43 44
f 24 44 45
f 24 45 46
f 24 46 59
f 24 59 47
f 24 47 31
f 24 31 25
f 24 29 48
f 24 48 49
f 24 49 43
f 26 30 50
f 26 50 51
f 26 51 27
f 27 50 52
f 27 52 53
f 27 53 54
f 27 54 55
f 27 55 56
f 27 56 28
f 27 51 50
f 28 56 57
f 28 57 48
f 28 48 29
f 30 58 52
f 30 52 50
f 31 47 59
f 31 59 60
f 31 60 32
f 32 60 61
f 32 61 33
f 33 61 62
f 33 62 63
f 33 63 64
f 33 64 34
f 35 65 66
f 41 68 69
f 43 70 46
f 43 46 45
f 43 45 44
f 43 49 71
f 43 71 72
f 43 72 73
f 43 73 70
f 46 70 59
f 48 57 56
f 48 56 49
f 49 56 55
f 49 55 74
f 49 74 75
f 49 75 71
f 52 58 76
f 52 76 53
f 53 77 78
f 53 78 79
f 53 79 80
f 53 80 54
f 53 76 77
f 54 74 55
f 54 80 81
f 54 81 82
f 54 82 83
f 54 83 75
f 54 75 84
f 54 84 74
f 59 70 85
f 59 85 60
f 60 85 86
f 60 86 61
f 61 86 87
f 61 87 88
f 61 88 62
f 62 89 90
f 62 90 91
f 62 91 63
f 62 88 89
f 65 92 66
f 66 92 94
f 66 94 95
f 66 95 93
f 67 96 97
f 67 97 98
f 68 99 100
f 68 100 101
f 68 101 102
f 68 102 78
f 68 78 103
f 68 103 69
f 69 103 104
f 70 73 105
f 70 105 106
f 70 106 86
f 70 86 85
f 71 75 107
f 71 107 108
f 71 108 72
f 72 108 109
f 72 109 73
f 73 109 105
f 74 84 75
f 75 83 107
f 77 104 78
f 78 80 79
f 78 104 103
f 78 102 110
f 78 110 80
f 80 110 102
f 80 102 111
f 80 111 81
f 81 83 82
f 81 111 101
f 81 101 83
f 83 101 100
f 83 100 112
f 83 112 113
f 83 113 107
f 86 106 114
f 86 114 87
f 87 115 88
f 87 114 116
f 87 116 115
f 88 115 117
f 88 117 89
f 89 117 90
f 90 117 118
f 93 119 120
f 93 95 121
f 93 121 122
f 93 122 119
f 95 118 123
f 95 123 121
f 96 120 124
f 96 124 97
f 97 125 126
f 97 126 98
f 97 124 125
f 98 126 127
f 99 128 100
f 100 128 129
f 100 129 112
f 101 111 102
f 105 109 106
f 106 109 114
f 107 113 130
f 107 130 108
f 108 130 113
f 108 113 131
f 108 131 132
f 108 132 109
f 109 132 133
f 109 133 134
f 109 134 135
f 109 135 122
f 109 122 136
f 109 136 116
f 109 116 114
f 112 129 137
f 112 137 138
f 112 138 113
f 113 138 139
f 113 139 140
f 113 140 131
f 115 116 141
f 115 141 117
f 116 136 141
f 117 141 118
f 118 141 123
f 119 142 120
f 119 122 142
f 120 142 134
f 120 134 143
f 120 143 124
f 121 123 122
f 122 123 136
f 122 135 142
f 123 141 136
f 124 143 134
f 124 134 125
f 125 144 127
f 125 127 126
f 125 134 145
f 125 145 144
f 131 140 133
f 131 133 132
f 133 140 146
f 133 146 147
f 133 147 148
f 133 148 145
f 133 145 134
f 134 142 135
f 137 149 138
f 138 149 150
f 138 150 144
f 138 144 147
f 138 147 139
f 139 147 140
f 140 147 146
f 144 145 148
f 144 148 147

