# https://github.com/mikedh/trimesh
v 0.01484437 0.03482341 0.07327815
v 0.01484437 0.03539908 0.07325871
v 0.01373182 0.03594131 0.07457397
v 0.01373182 0.03583275 0.07457397
v 0.01340067 0.03543370 0.07457397
v 0.01484437 0.03456931 0.07312913
v 0.01484437 0.03558276 0.07318096
v 0.01372746 0.03597887 0.07457397
v 0.01294462 0.03501236 0.07457397
v 0.01484437 0.03390737 0.07269503
v 0.01484437 0.03569954 0.07312913
v 0.01351396 0.03640960 0.07457397
v 0.01244789 0.03496366 0.07457397
v 0.01484437 0.03351889 0.07202120
v 0.01484437 0.03600879 0.07277926
v 0.01311019 0.03699114 0.07457397
v 0.01239851 0.03496425 0.07457397
v 0.01181900 0.03500121 0.07457397
v 0.01177978 0.03500767 0.07457397
v 0.00000799 0.03696063 0.07457397
v 0.00000799 0.03670359 0.07195641
v 0.01484437 0.03347605 0.06596972
v 0.01484437 0.03610034 0.07264968
v 0.01308550 0.03701579 0.07457397
v 0.00000799 0.03945581 0.07457397
v 0.01484437 0.03347488 0.04287818
v 0.01484437 0.03347547 0.05998302
v 0.00000799 0.03670301 0.03135185
v 0.01484437 0.03347429 0.01979960
v 0.01484437 0.03625467 0.07209247
v 0.01243482 0.03744300 0.07457397
v 0.01484437 0.03628930 0.07195641
v 0.00042774 0.03945522 0.07457397
v 0.00000799 0.03946461 0.07366690
v 0.00000799 0.03670418 0.01381291
v 0.00000799 0.03670594 0.00868145
v 0.01484437 0.03348662 0.01381291
v 0.01243337 0.03745004 0.07366690
v 0.01203105 0.03762902 0.07457397
v 0.01421838 0.03661029 0.07195641
v 0.01378992 0.03682331 0.07195641
v 0.01325398 0.03707682 0.07195641
v 0.01484437 0.03629869 0.06596972
v 0.00042774 0.03946344 0.07366690
v 0.01200636 0.03763900 0.07457397
v 0.00696795 0.03850104 0.07161950
v 0.00213868 0.03922342 0.07195641
v 0.00042774 0.03946637 0.07281165
v 0.00000799 0.03946696 0.07281165
v 0.00000799 0.03670770 0.00838342
v 0.01484437 0.03352300 0.00873977
v 0.01200781 0.03763958 0.07452214
v 0.01325398 0.03707916 0.07110117
v 0.01241739 0.03745767 0.07281165
v 0.01484437 0.03629927 0.05998302
v 0.01421838 0.03661146 0.05399633
v 0.01379137 0.03682389 0.03177299
v 0.01325398 0.03708151 0.03091775
v 0.00299415 0.03909784 0.05998302
v 0.00697956 0.03850339 0.03142312
v 0.00042774 0.03946872 0.07024593
v 0.00213868 0.03922460 0.05399633
v 0.00000799 0.03946813 0.07024593
v 0.00000799 0.03945111 0.00838342
v 0.01484437 0.03353591 0.00838342
v 0.01484437 0.03352417 0.00870089
v 0.01242610 0.03745591 0.05827254
v 0.01243046 0.03745415 0.05228584
v 0.01200781 0.03763958 0.01637863
v 0.01484437 0.03630045 0.03690444
v 0.01421547 0.03661322 0.01381291
v 0.01379137 0.03682389 0.03091775
v 0.01378992 0.03682272 0.00868145
v 0.01325398 0.03707623 0.00838342
v 0.01242901 0.03745473 0.01210242
v 0.00213868 0.03922577 0.01381291
v 0.00213868 0.03922519 0.03690444
v 0.00697956 0.03850339 0.03125466
v 0.00042774 0.03946931 0.04118065
v 0.00000799 0.03946813 0.03006251
v 0.00000799 0.03946637 0.00953670
v 0.00014162 0.03945111 0.00838342
v 0.01484437 0.03627463 0.00838342
v 0.01200636 0.03763900 0.01039194
v 0.01484437 0.03629751 0.01381291
v 0.01421693 0.03660912 0.00868145
v 0.01378847 0.03682213 0.00838342
v 0.01234767 0.03746940 0.00838342
v 0.01241739 0.03745767 0.00953670
v 0.00683432 0.03851278 0.00838342
v 0.00213868 0.03922284 0.00868145
v 0.00151705 0.03931145 0.00868145
v 0.00042774 0.03946872 0.01808912
v 0.00701152 0.03848520 0.00838342
v 0.00000799 0.03946754 0.01552339
v 0.00042774 0.03946637 0.01210242
v 0.00042774 0.03946520 0.00953670
v 0.00042774 0.03945053 0.00838342
v 0.01421547 0.03660618 0.00838342
v 0.01484437 0.03628578 0.00868145
v 0.01199038 0.03763254 0.00953670
v 0.01068902 0.03785671 0.00838342
v 0.01068902 0.03785847 0.00868145
v 0.01406733 0.03668247 0.00838342
v 0.01194536 0.03762080 0.00838342
v 0.01197586 0.03762726 0.00904429
v 0.00213868 0.03921932 0.00838342
v 0.00151414 0.03931086 0.00838342
v 0.00136600 0.03933023 0.00838342
v 0.01157644 0.03769298 0.00838342
f 1 2 3
f 1 3 4
f 1 4 5
f 1 5 6
f 1 6 10
f 1 10 14
f 1 14 22
f 1 22 27
f 1 27 26
f 1 26 29
f 1 29 37
f 1 37 51
f 1 51 66
f 1 66 65
f 1 65 83
f 1 83 100
f 1 100 85
f 1 85 70
f 1 70 55
f 1 55 43
f 1 43 32
f 1 32 30
f 1 30 23
f 1 23 15
f 1 15 11
f 1 11 7
f 1 7 2
f 2 7 8
f 2 8 3
f 3 8 12
f 3 12 16
f 3 16 24
f 3 24 31
f 3 31 39
f 3 39 45
f 3 45 33
f 3 33 25
f 3 25 20
f 3 20 19
f 3 19 18
f 3 18 17
f 3 17 13
f 3 13 9
f 3 9 5
f 3 5 4
f 5 9 10
f 5 10 6
f 7 11 8
f 8 11 12
f 9 13 10
f 10 13 14
f 11 15 12
f 12 15 16
f 13 17 14
f 14 17 18
f 14 18 19
f 14 19 20
f 14 20 21
f 14 21 22
f 15 23 16
f 16 23 24
f 20 25 34
f 20 34 49
f 20 49 63
f 20 63 80
f 20 80 95
f 20 95 81
f 20 81 64
f 20 64 50
f 20 50 36
f 20 36 35
f 20 35 28
f 20 28 21
f 21 26 27
f 21 27 22
f 21 28 29
f 21 29 26
f 23 30 24
f 24 30 32
f 24 32 31
f 25 33 34
f 28 35 29
f 29 35 36
f 29 36 37
f 31 38 39
f 31 32 40
f 31 40 41
f 31 41 42
f 31 42 38
f 32 43 40
f 33 44 34
f 33 45 46
f 33 46 47
f 33 47 44
f 34 44 48
f 34 48 49
f 36 50 37
f 37 50 51
f 38 52 39
f 38 42 53
f 38 53 54
f 38 54 52
f 39 52 45
f 40 43 55
f 40 55 56
f 40 56 41
f 41 53 42
f 41 56 57
f 41 57 58
f 41 58 53
f 44 47 48
f 45 52 46
f 46 59 47
f 46 52 60
f 46 60 59
f 47 61 48
f 47 59 62
f 47 62 61
f 48 61 49
f 49 61 63
f 50 64 82
f 50 82 98
f 50 98 109
f 50 109 108
f 50 108 107
f 50 107 90
f 50 90 94
f 50 94 102
f 50 102 110
f 50 110 105
f 50 105 88
f 50 88 74
f 50 74 87
f 50 87 104
f 50 104 99
f 50 99 83
f 50 83 65
f 50 65 66
f 50 66 51
f 52 54 67
f 52 67 68
f 52 68 69
f 52 69 78
f 52 78 60
f 53 67 54
f 53 58 67
f 55 70 56
f 56 70 57
f 57 70 71
f 57 71 72
f 57 72 58
f 58 72 73
f 58 73 74
f 58 74 75
f 58 75 68
f 58 68 67
f 59 60 76
f 59 76 77
f 59 77 62
f 60 78 76
f 61 62 77
f 61 77 76
f 61 76 79
f 61 79 63
f 63 79 80
f 64 81 82
f 68 75 69
f 69 75 84
f 69 84 78
f 70 85 71
f 71 85 86
f 71 86 73
f 71 73 72
f 73 86 87
f 73 87 74
f 74 88 89
f 74 89 75
f 75 89 84
f 76 90 91
f 76 91 92
f 76 92 93
f 76 93 79
f 76 78 90
f 78 84 94
f 78 94 90
f 79 93 80
f 80 93 95
f 81 95 93
f 81 93 96
f 81 96 97
f 81 97 98
f 81 98 82
f 83 99 100
f 84 89 88
f 84 88 101
f 84 101 102
f 84 102 103
f 84 103 94
f 85 100 86
f 86 100 99
f 86 99 104
f 86 104 87
f 88 105 106
f 88 106 101
f 90 107 91
f 91 107 108
f 91 108 92
f 92 108 97
f 92 97 96
f 92 96 93
f 94 103 102
f 97 108 109
f 97 109 98
f 101 106 110
f 101 110 102
f 105 110 106

