# https://github.com/mikedh/trimesh
v -0.00645899 -0.03719830 0.07874595
v -0.00866874 -0.03719830 0.08140800
v -0.00645899 -0.03792033 0.07858016
v -0.00645899 -0.03657272 0.07853723
v -0.00902324 -0.03628600 0.08140800
v -0.00880294 -0.03731051 0.08140800
v -0.00645899 -0.03834889 0.07809236
v -0.00645899 -0.03613252 0.07787291
v -0.00960811 -0.03585331 0.08140800
v -0.00931959 -0.03753980 0.08140800
v -0.00645899 -0.03853465 0.07766658
v -0.01000622 -0.03771730 0.08140800
v -0.00645899 -0.03613064 0.07785860
v -0.00680118 -0.03590886 0.07753777
v -0.01071634 -0.03524649 0.08140800
v -0.00980381 -0.03571109 0.08140800
v -0.01062464 -0.03778673 0.08140800
v -0.01150027 -0.03774845 0.08140800
v -0.01154164 -0.03774470 0.08140800
v -0.00693762 -0.03849638 0.07756281
v -0.00696669 -0.03850125 0.07162567
v -0.00645899 -0.03854141 0.07178788
v -0.00645899 -0.03604095 0.07714776
v -0.01190509 -0.03470760 0.07708932
v -0.01193305 -0.03470760 0.07747813
v -0.01197219 -0.03470760 0.07797429
v -0.01156066 -0.03492526 0.08140800
v -0.01152263 -0.03493764 0.08140800
v -0.01145889 -0.03495941 0.08140800
v -0.01077337 -0.03522398 0.08140800
v -0.00676987 -0.03590323 0.07158751
v -0.01201357 -0.03767602 0.08140800
v -0.00696669 -0.03850125 0.07146466
v -0.00645899 -0.03854141 0.07134778
v -0.00645899 -0.03605521 0.07190357
v -0.00676987 -0.03590323 0.07149329
v -0.01190062 -0.03470760 0.07195962
v -0.01282209 -0.03470760 0.08140800
v -0.01245641 -0.03472711 0.08140800
v -0.01205494 -0.03766476 0.08140800
v -0.01200574 -0.03763850 0.06922362
v -0.01163670 -0.03766327 0.06922362
v -0.01154500 -0.03766702 0.06922362
v -0.00645899 -0.03853428 0.07132631
v -0.00645899 -0.03610024 0.07116649
v -0.01206053 -0.03470760 0.07080034
v -0.01193528 -0.03470760 0.07110447
v -0.01191404 -0.03470760 0.07147420
v -0.01133811 -0.03513091 0.06922362
v -0.01142310 -0.03510502 0.06922362
v -0.01176530 -0.03500219 0.06922362
v -0.01406452 -0.03470760 0.08140800
v -0.01247542 -0.03747638 0.08140800
v -0.01234682 -0.03748651 0.06922362
v -0.01096013 -0.03766327 0.06922362
v -0.00645899 -0.03838267 0.07092199
v -0.00645899 -0.03651792 0.07050217
v -0.01243069 -0.03470760 0.07029226
v -0.01068950 -0.03545215 0.06922362
v -0.01227636 -0.03493577 0.06922362
v -0.01282209 -0.03470760 0.06982235
v -0.01472879 -0.03484157 0.08140800
v -0.01770569 -0.03470760 0.07793016
v -0.01328842 -0.03702004 0.08140800
v -0.01719240 -0.03510689 0.07763914
v -0.01421661 -0.03661287 0.07708932
v -0.01379054 -0.03682302 0.07195962
v -0.01325376 -0.03707934 0.07110447
v -0.01243293 -0.03744711 0.06922362
v -0.01083935 -0.03765989 0.06922362
v -0.00645899 -0.03835902 0.07088383
v -0.00645899 -0.03654044 0.07047474
v -0.01009569 -0.03580978 0.06922362
v -0.01239938 -0.03492751 0.06922362
v -0.01364180 -0.03470760 0.06975794
v -0.01472432 -0.03490087 0.08140800
v -0.01788239 -0.03470760 0.07702849
v -0.01331079 -0.03700316 0.08140800
v -0.01406676 -0.03633892 0.08140800
v -0.01408689 -0.03631453 0.08140800
v -0.01467623 -0.03547391 0.08140800
v -0.01720022 -0.03511027 0.07173898
v -0.01549818 -0.03596965 0.07132512
v -0.01421773 -0.03661099 0.07195962
v -0.01378606 -0.03682265 0.07110447
v -0.01311956 -0.03701967 0.06922362
v -0.01720022 -0.03511027 0.07139072
v -0.01776944 -0.03470760 0.07110567
v -0.01073312 -0.03761035 0.06922362
v -0.00645899 -0.03795448 0.07043061
v -0.00645899 -0.03715889 0.07024098
v -0.00981164 -0.03620157 0.06922362
v -0.00645899 -0.03719830 0.07022786
v -0.01301109 -0.03493089 0.06922362
v -0.01483615 -0.03470760 0.06997024
v -0.01313633 -0.03494215 0.06922362
v -0.01785667 -0.03470760 0.07199421
v -0.01349195 -0.03649091 0.06922362
v -0.01765202 -0.03470760 0.07098401
v -0.01726732 -0.03470760 0.07066080
v -0.01782871 -0.03470760 0.07167576
v -0.01006549 -0.03727223 0.06922362
v -0.00645899 -0.03791695 0.07041749
v -0.00990893 -0.03716415 0.06922362
v -0.00975572 -0.03630890 0.06922362
v -0.01575091 -0.03470760 0.07015987
v -0.01323586 -0.03503709 0.06922362
v -0.01665785 -0.03470760 0.07041272
v -0.01355346 -0.03639521 0.06922362
v -0.01668134 -0.03470760 0.07042226
v -0.01356129 -0.03539285 0.06922362
v -0.01360155 -0.03548554 0.06922362
f 1 2 3
f 1 3 7
f 1 7 11
f 1 11 22
f 1 22 34
f 1 34 44
f 1 44 56
f 1 56 71
f 1 71 90
f 1 90 103
f 1 103 93
f 1 93 91
f 1 91 72
f 1 72 57
f 1 57 45
f 1 45 35
f 1 35 23
f 1 23 13
f 1 13 8
f 1 8 4
f 1 4 2
f 2 5 9
f 2 9 16
f 2 16 15
f 2 15 30
f 2 30 29
f 2 29 28
f 2 28 27
f 2 27 39
f 2 39 38
f 2 38 52
f 2 52 62
f 2 62 76
f 2 76 81
f 2 81 80
f 2 80 79
f 2 79 78
f 2 78 64
f 2 64 53
f 2 53 40
f 2 40 32
f 2 32 19
f 2 19 18
f 2 18 17
f 2 17 12
f 2 12 10
f 2 10 6
f 2 6 3
f 2 4 5
f 3 6 7
f 4 8 5
f 5 8 9
f 6 10 7
f 7 10 12
f 7 12 11
f 8 13 14
f 8 14 15
f 8 15 16
f 8 16 9
f 11 12 17
f 11 17 18
f 11 18 19
f 11 19 20
f 11 20 21
f 11 21 22
f 13 23 14
f 14 24 25
f 14 25 26
f 14 26 27
f 14 27 28
f 14 28 29
f 14 29 30
f 14 30 15
f 14 23 31
f 14 31 24
f 19 32 20
f 20 32 21
f 21 33 34
f 21 34 22
f 21 32 33
f 23 35 36
f 23 36 31
f 24 31 37
f 24 37 48
f 24 48 47
f 24 47 46
f 24 46 58
f 24 58 61
f 24 61 75
f 24 75 95
f 24 95 106
f 24 106 108
f 24 108 110
f 24 110 100
f 24 100 99
f 24 99 88
f 24 88 101
f 24 101 97
f 24 97 77
f 24 77 63
f 24 63 52
f 24 52 38
f 24 38 26
f 24 26 25
f 26 38 39
f 26 39 27
f 31 36 37
f 32 40 41
f 32 41 33
f 33 41 34
f 34 41 42
f 34 42 43
f 34 43 44
f 35 45 36
f 36 46 47
f 36 47 48
f 36 48 37
f 36 45 49
f 36 49 50
f 36 50 51
f 36 51 46
f 40 53 54
f 40 54 41
f 41 54 69
f 41 69 86
f 41 86 98
f 41 98 109
f 41 109 112
f 41 112 111
f 41 111 107
f 41 107 96
f 41 96 94
f 41 94 74
f 41 74 60
f 41 60 51
f 41 51 50
f 41 50 49
f 41 49 59
f 41 59 73
f 41 73 92
f 41 92 105
f 41 105 104
f 41 104 102
f 41 102 89
f 41 89 70
f 41 70 55
f 41 55 43
f 41 43 42
f 43 55 56
f 43 56 44
f 45 57 49
f 46 51 58
f 49 57 59
f 51 60 61
f 51 61 58
f 52 63 62
f 53 64 65
f 53 65 66
f 53 66 67
f 53 67 68
f 53 68 54
f 54 68 69
f 55 70 56
f 56 70 71
f 57 72 59
f 59 72 73
f 60 74 61
f 61 74 75
f 62 63 76
f 63 77 65
f 63 65 64
f 63 64 78
f 63 78 79
f 63 79 80
f 63 80 81
f 63 81 76
f 65 77 82
f 65 82 66
f 66 82 83
f 66 83 84
f 66 84 67
f 67 84 85
f 67 85 68
f 68 85 69
f 69 85 83
f 69 83 87
f 69 87 88
f 69 88 86
f 70 89 90
f 70 90 71
f 72 91 73
f 73 91 93
f 73 93 92
f 74 94 75
f 75 94 96
f 75 96 95
f 77 97 87
f 77 87 82
f 82 87 83
f 83 85 84
f 86 88 99
f 86 99 100
f 86 100 98
f 87 101 88
f 87 97 101
f 89 102 90
f 90 102 104
f 90 104 103
f 92 93 105
f 93 103 104
f 93 104 105
f 95 96 106
f 96 107 108
f 96 108 106
f 98 100 109
f 100 110 109
f 107 111 108
f 108 111 112
f 108 112 109
f 108 109 110

