# https://github.com/mikedh/trimesh
v 0.00000796 0.03696071 0.07457455
v 0.00000796 0.03670438 0.07709069
v 0.00000796 0.03945550 0.07457455
v 0.01181978 0.03500085 0.07457455
v 0.01451358 0.03373918 0.07678780
v 0.01451358 0.03363585 0.07709069
v 0.00000796 0.03671009 0.07750927
v 0.00000796 0.03946520 0.07538032
v 0.00042829 0.03946634 0.07538032
v 0.00042829 0.03945550 0.07457455
v 0.01239915 0.03496431 0.07457455
v 0.01451358 0.03392301 0.07638666
v 0.01451358 0.03372319 0.07795111
v 0.00000796 0.03694358 0.08051318
v 0.00000796 0.03671637 0.07790169
v 0.00000796 0.03946577 0.07580123
v 0.00000796 0.03946806 0.07879990
v 0.00042829 0.03946691 0.07623551
v 0.00213801 0.03922543 0.07709069
v 0.00693771 0.03849640 0.07741567
v 0.01200722 0.03763950 0.07457455
v 0.01244743 0.03496317 0.07457455
v 0.01451358 0.03408514 0.07614539
v 0.01451358 0.03404461 0.07853073
v 0.01239915 0.03495004 0.08051318
v 0.01174878 0.03500142 0.08051318
v 0.00000796 0.03946235 0.08051318
v 0.00042829 0.03946691 0.07879990
v 0.00693771 0.03849640 0.07756334
v 0.00042829 0.03946121 0.08051027
v 0.01201574 0.03764235 0.08051027
v 0.00983316 0.03800829 0.07709069
v 0.01201716 0.03764178 0.08051318
v 0.01243039 0.03745453 0.07538032
v 0.01203136 0.03762865 0.07457455
v 0.01294586 0.03501226 0.07457455
v 0.01451358 0.03458010 0.07571635
v 0.01451358 0.03464119 0.07895629
v 0.01350962 0.03540561 0.08051318
v 0.01349399 0.03538448 0.08051318
v 0.01304242 0.03500998 0.08051318
v 0.00042545 0.03946121 0.08051318
v 0.01244317 0.03744539 0.08051318
v 0.01325401 0.03707660 0.07794530
v 0.01325401 0.03707774 0.07709069
v 0.01378936 0.03682198 0.07709069
v 0.01243465 0.03744311 0.07457455
v 0.01340027 0.03543358 0.07457455
v 0.01373114 0.03583320 0.07457455
v 0.01451358 0.03516127 0.07550066
v 0.01451358 0.03505394 0.07923360
v 0.01351530 0.03542958 0.08051318
v 0.01309213 0.03701666 0.08051318
v 0.01451358 0.03642407 0.07795343
v 0.01451358 0.03644805 0.07760113
v 0.01378226 0.03682141 0.07794530
v 0.01421679 0.03661247 0.07709069
v 0.01451358 0.03646289 0.07709069
v 0.01308645 0.03701552 0.07457455
v 0.01373114 0.03594167 0.07457455
v 0.01451358 0.03547069 0.07551985
v 0.01451358 0.03508990 0.07924174
v 0.01355080 0.03628078 0.08051318
v 0.01352524 0.03636927 0.08051318
v 0.01451358 0.03618487 0.07866386
v 0.01451358 0.03627793 0.07843480
v 0.01451358 0.03627393 0.07624481
v 0.01311059 0.03699097 0.07457455
v 0.01372688 0.03597878 0.07457455
v 0.01451358 0.03574243 0.07560008
v 0.01451358 0.03543701 0.07915453
v 0.01355080 0.03632759 0.08051318
v 0.01451358 0.03571446 0.07903244
v 0.01451358 0.03596222 0.07574658
v 0.01351387 0.03640923 0.07457455
v 0.01451358 0.03561684 0.07910279
f 1 2 7
f 1 7 15
f 1 15 14
f 1 14 27
f 1 27 17
f 1 17 16
f 1 16 8
f 1 8 3
f 1 3 10
f 1 10 21
f 1 21 35
f 1 35 47
f 1 47 59
f 1 59 68
f 1 68 75
f 1 75 69
f 1 69 60
f 1 60 49
f 1 49 48
f 1 48 36
f 1 36 22
f 1 22 11
f 1 11 4
f 1 4 5
f 1 5 6
f 1 6 2
f 2 6 7
f 3 8 9
f 3 9 10
f 4 11 12
f 4 12 5
f 5 12 23
f 5 23 37
f 5 37 50
f 5 50 61
f 5 61 70
f 5 70 74
f 5 74 67
f 5 67 58
f 5 58 55
f 5 55 54
f 5 54 66
f 5 66 65
f 5 65 73
f 5 73 76
f 5 76 71
f 5 71 62
f 5 62 51
f 5 51 38
f 5 38 24
f 5 24 13
f 5 13 6
f 6 13 14
f 6 14 15
f 6 15 7
f 8 16 9
f 9 16 17
f 9 17 18
f 9 18 19
f 9 19 20
f 9 20 10
f 10 20 21
f 11 22 12
f 12 22 23
f 13 24 25
f 13 25 26
f 13 26 14
f 14 26 25
f 14 25 41
f 14 41 40
f 14 40 39
f 14 39 52
f 14 52 63
f 14 63 72
f 14 72 64
f 14 64 53
f 14 53 43
f 14 43 33
f 14 33 42
f 14 42 27
f 17 27 28
f 17 28 18
f 18 28 19
f 19 29 20
f 19 28 30
f 19 30 29
f 20 29 31
f 20 31 32
f 20 32 21
f 21 32 31
f 21 31 33
f 21 33 34
f 21 34 35
f 22 36 23
f 23 36 37
f 24 38 39
f 24 39 40
f 24 40 41
f 24 41 25
f 27 42 28
f 28 42 30
f 29 30 31
f 30 42 33
f 30 33 31
f 33 43 44
f 33 44 45
f 33 45 34
f 34 45 46
f 34 46 47
f 34 47 35
f 36 48 37
f 37 48 49
f 37 49 50
f 38 51 39
f 39 51 52
f 43 53 54
f 43 54 55
f 43 55 56
f 43 56 44
f 44 56 46
f 44 46 45
f 46 56 57
f 46 57 47
f 47 57 58
f 47 58 59
f 49 60 50
f 50 60 61
f 51 62 52
f 52 62 63
f 53 64 65
f 53 65 66
f 53 66 54
f 55 58 56
f 56 58 57
f 58 67 59
f 59 67 68
f 60 69 61
f 61 69 70
f 62 71 72
f 62 72 63
f 64 72 65
f 65 72 73
f 67 74 68
f 68 74 75
f 69 74 70
f 69 75 74
f 71 76 72
f 72 76 73

