# https://github.com/mikedh/trimesh
v 0.03856740 0.00614989 0.00838342
v 0.03856740 0.00614989 0.00827428
v 0.03613005 0.00614989 0.00838342
v 0.03921938 0.00213835 0.00838342
v 0.03856577 0.00614989 0.00815282
v 0.03921483 0.00213835 0.00782362
v 0.03615381 0.00614989 0.00786386
v 0.03671237 0.00005502 0.00787510
v 0.03670944 0.00005502 0.00838342
v 0.03931052 0.00151430 0.00838342
v 0.03930955 0.00150595 0.00782362
v 0.03856317 0.00614989 0.00796610
v 0.03940557 0.00048338 0.00467983
v 0.03626871 0.00614989 0.00766372
v 0.03689140 0.00041895 0.00467983
v 0.03689107 0.00005502 0.00467983
v 0.03945016 0.00005502 0.00838342
v 0.03936618 0.00108714 0.00838342
v 0.03945439 0.00042789 0.00696833
v 0.03841474 0.00614989 0.00755423
v 0.03933558 0.00085148 0.00467983
v 0.03942249 0.00042014 0.00525848
v 0.03943128 0.00005502 0.00562684
v 0.03940069 0.00005502 0.00467983
v 0.03655939 0.00614989 0.00720363
v 0.03708116 0.00130788 0.00467983
v 0.03945049 0.00018388 0.00838342
v 0.03945537 0.00005502 0.00696833
v 0.03942217 0.00065281 0.00838342
v 0.03945081 0.00042789 0.00838342
v 0.03818038 0.00614989 0.00729246
v 0.03921613 0.00110563 0.00467983
v 0.03881088 0.00183170 0.00467983
v 0.03674232 0.00614989 0.00712169
v 0.03734157 0.00204230 0.00467983
v 0.03801047 0.00614989 0.00714816
v 0.03866603 0.00201306 0.00467983
v 0.03719867 0.00614989 0.00694476
v 0.03800233 0.00228332 0.00467983
v 0.03747893 0.00614989 0.00700458
v 0.03804855 0.00229943 0.00467983
f 1 2 5
f 1 5 12
f 1 12 20
f 1 20 31
f 1 31 36
f 1 36 40
f 1 40 38
f 1 38 34
f 1 34 25
f 1 25 14
f 1 14 7
f 1 7 3
f 1 3 9
f 1 9 17
f 1 17 27
f 1 27 30
f 1 30 29
f 1 29 18
f 1 18 10
f 1 10 4
f 1 4 2
f 2 4 6
f 2 6 5
f 3 7 8
f 3 8 9
f 4 10 11
f 4 11 6
f 5 6 12
f 6 11 13
f 6 13 12
f 7 14 15
f 7 15 16
f 7 16 8
f 8 16 24
f 8 24 23
f 8 23 28
f 8 28 17
f 8 17 9
f 10 18 19
f 10 19 11
f 11 19 13
f 12 13 21
f 12 21 20
f 13 19 22
f 13 22 23
f 13 23 24
f 13 24 16
f 13 16 15
f 13 15 26
f 13 26 35
f 13 35 39
f 13 39 41
f 13 41 37
f 13 37 33
f 13 33 32
f 13 32 21
f 14 25 26
f 14 26 15
f 17 28 27
f 18 29 19
f 19 28 23
f 19 23 22
f 19 29 30
f 19 30 28
f 20 21 32
f 20 32 33
f 20 33 31
f 25 34 35
f 25 35 26
f 27 28 30
f 31 33 37
f 31 37 36
f 34 38 35
f 35 38 39
f 36 37 41
f 36 41 40
f 38 40 41
f 38 41 39

