# https://github.com/mikedh/trimesh
v -0.01374924 0.03606778 0.06832493
v -0.02266083 0.03223617 0.06929435
v -0.02185567 0.03240435 0.06929435
v -0.02092609 0.03215319 0.06929435
v -0.02083215 0.03210340 0.06929435
v -0.02067112 0.03115296 0.06929435
v -0.01374924 0.03575245 0.06832493
v -0.01374924 0.03649265 0.06773878
v -0.02224239 0.03249950 0.06728226
v -0.02266937 0.03226715 0.06682573
v -0.02334033 0.03185002 0.06929435
v -0.01374924 0.03674492 0.06721462
v -0.01374924 0.03679029 0.06679755
v -0.01421403 0.03661104 0.06596904
v -0.01496551 0.03623928 0.06596904
v -0.01549984 0.03597041 0.06596904
v -0.02106394 0.03044926 0.06929435
v -0.01374924 0.03568606 0.06831930
v -0.02057597 0.03337802 0.06596904
v -0.02100416 0.03315341 0.06596904
v -0.02058329 0.03338244 0.05998348
v -0.02224483 0.03250061 0.06488690
v -0.02266937 0.03226936 0.03604686
v -0.02376243 0.03146055 0.04373453
v -0.02376243 0.03145834 0.06682573
v -0.02507385 0.03019699 0.06596904
v -0.02550205 0.02977655 0.06596904
v -0.02621083 0.02905847 0.06596904
v -0.02376731 0.03138089 0.06929435
v -0.02334155 0.03185002 0.03348243
v -0.01374924 0.03680357 0.06657774
v -0.01378583 0.03682016 0.06596904
v -0.01379071 0.03682237 0.05399791
v -0.01421769 0.03661215 0.04886904
v -0.01550472 0.03597152 0.03158306
v -0.01889978 0.03424879 0.05456153
v -0.01720652 0.03511292 0.03150979
v -0.02110908 0.03039947 0.06929435
v -0.01374924 0.03544485 0.06824040
v -0.02058573 0.03338466 0.05461789
v -0.02058939 0.03338466 0.03690355
v -0.02180566 0.03273518 0.05399791
v -0.02224483 0.03250061 0.06463891
v -0.02224361 0.03250061 0.01847343
v -0.02266815 0.03226936 0.01295567
v -0.02463346 0.03062519 0.05399791
v -0.02376121 0.03146055 0.02065462
v -0.02420648 0.03103568 0.03176905
v -0.02507751 0.03019921 0.04886904
v -0.02550449 0.02977433 0.02578349
v -0.02621083 0.02906289 0.04288348
v -0.02621083 0.02900425 0.06614939
v -0.02401617 0.03100359 0.06929435
v -0.02334033 0.03185002 0.01171572
v -0.01374924 0.03683786 0.06596904
v -0.01374924 0.03684229 0.05399791
v -0.01374924 0.03684450 0.03176905
v -0.01379315 0.03682348 0.03091799
v -0.01421647 0.03661326 0.02578349
v -0.01550472 0.03597152 0.03108144
v -0.01890466 0.03425100 0.03150415
v -0.01720652 0.03511292 0.03116035
v -0.02148726 0.03002218 0.06929435
v -0.01374924 0.03498678 0.06792477
v -0.01890466 0.03425100 0.03117725
v -0.02058695 0.03338576 0.03110399
v -0.02058817 0.03338466 0.01381236
v -0.02101514 0.03315673 0.01381236
v -0.02180566 0.03273518 0.03091799
v -0.02180566 0.03273296 0.01381236
v -0.02223995 0.03249840 0.01295567
v -0.02223873 0.03249729 0.01251042
v -0.02257909 0.03230034 0.01217789
v -0.02375633 0.03145944 0.01466905
v -0.02462980 0.03062408 0.01381236
v -0.02507751 0.03019810 0.02578349
v -0.02507141 0.03019589 0.01381236
v -0.02621083 0.02906178 0.01979792
v -0.02621083 0.02861921 0.06682573
v -0.02404545 0.03095380 0.06929435
v -0.02261935 0.03226162 0.01171572
v -0.02376731 0.03139085 0.01171572
v -0.02621083 0.02903965 0.01381236
v -0.02549839 0.02976769 0.01381236
v -0.02376121 0.03145170 0.01295567
v -0.01374924 0.03684450 0.03091799
v -0.01374924 0.03683676 0.01381236
v -0.01378583 0.03681906 0.01381236
v -0.01421281 0.03661215 0.01381236
v -0.01496551 0.03623485 0.01381236
v -0.01549862 0.03596931 0.01979792
v -0.02186543 0.02975331 0.06929435
v -0.01374924 0.03443024 0.06729916
v -0.01374924 0.03469690 0.06762042
v -0.02621083 0.02854176 0.06688772
v -0.02422966 0.03035853 0.06929435
v -0.02621083 0.02835366 0.06701736
v -0.02621083 0.02809807 0.06718644
v -0.01374924 0.03630456 0.01171572
v -0.01374924 0.03680688 0.01316421
v -0.01374924 0.03680246 0.01313603
v -0.01374924 0.03671284 0.01266259
v -0.02393810 0.03115628 0.01171572
v -0.02621083 0.02851631 0.01302894
v -0.01374924 0.03683344 0.01373909
v -0.02191423 0.02971901 0.06929435
v -0.01374924 0.03429858 0.06703426
v -0.02429920 0.02957628 0.06929435
v -0.02621083 0.02765660 0.06729916
v -0.01374924 0.03549354 0.01171572
v -0.02405155 0.03096376 0.01171572
v -0.02621083 0.02784691 0.01274150
v -0.02270597 0.02933065 0.06929435
v -0.02621083 0.02565726 0.06632975
v -0.01374924 0.03411491 0.06663410
v -0.01374924 0.03419789 0.06682573
v -0.02351600 0.02932954 0.06929435
v -0.02621083 0.02758468 0.06729916
v -0.02621083 0.02710559 0.06728226
v -0.02621083 0.02700048 0.06727662
v -0.02621083 0.02668625 0.06716390
v -0.02621083 0.02659995 0.06713008
v -0.01374924 0.03478652 0.01220043
v -0.02171660 0.02984515 0.01171572
v -0.02428822 0.03032313 0.01171572
v -0.02621083 0.02693741 0.01275841
v -0.02621083 0.02599251 0.06673555
v -0.02621083 0.02587855 0.06664537
v -0.01374924 0.03402197 0.06633539
v -0.02621083 0.02555104 0.06596904
v -0.02190813 0.02971237 0.01171572
v -0.01374924 0.03435058 0.01281477
v -0.02422966 0.02960947 0.01171572
v -0.02351600 0.02930852 0.01171572
v -0.02621083 0.02611201 0.01309657
v -0.01374924 0.03396222 0.06596904
v -0.02621083 0.02554330 0.04288348
v -0.02267181 0.02935167 0.01171572
v -0.02621083 0.02594051 0.01319239
v -0.01374924 0.03411491 0.01322621
v -0.02621083 0.02557317 0.01381236
v -0.02621083 0.02554219 0.01979792
v -0.01374924 0.03396222 0.01979792
v -0.01374924 0.03396554 0.01381236
f 1 2 3
f 1 3 4
f 1 4 5
f 1 5 6
f 1 6 7
f 1 7 18
f 1 18 39
f 1 39 64
f 1 64 94
f 1 94 93
f 1 93 107
f 1 107 116
f 1 116 115
f 1 115 129
f 1 129 136
f 1 136 143
f 1 143 144
f 1 144 140
f 1 140 132
f 1 132 123
f 1 123 110
f 1 110 99
f 1 99 102
f 1 102 101
f 1 101 100
f 1 100 105
f 1 105 87
f 1 87 86
f 1 86 57
f 1 57 56
f 1 56 55
f 1 55 31
f 1 31 13
f 1 13 12
f 1 12 8
f 1 8 2
f 2 9 10
f 2 10 11
f 2 11 29
f 2 29 53
f 2 53 80
f 2 80 96
f 2 96 108
f 2 108 117
f 2 117 113
f 2 113 106
f 2 106 92
f 2 92 63
f 2 63 38
f 2 38 17
f 2 17 6
f 2 6 5
f 2 5 4
f 2 4 3
f 2 8 12
f 2 12 13
f 2 13 14
f 2 14 15
f 2 15 16
f 2 16 9
f 6 17 18
f 6 18 7
f 9 16 19
f 9 19 20
f 9 20 21
f 9 21 22
f 9 22 10
f 10 22 23
f 10 23 11
f 11 24 25
f 11 25 26
f 11 26 27
f 11 27 28
f 11 28 29
f 11 23 30
f 11 30 24
f 13 31 14
f 14 31 32
f 14 32 33
f 14 33 34
f 14 34 15
f 15 34 35
f 15 35 16
f 16 36 21
f 16 21 19
f 16 35 37
f 16 37 36
f 17 38 39
f 17 39 18
f 19 21 20
f 21 36 40
f 21 40 22
f 22 40 41
f 22 41 42
f 22 42 69
f 22 69 43
f 22 43 23
f 23 44 45
f 23 45 30
f 23 43 44
f 24 46 25
f 24 30 47
f 24 47 48
f 24 48 46
f 25 46 26
f 26 46 49
f 26 49 27
f 27 49 50
f 27 50 51
f 27 51 28
f 28 52 29
f 28 51 78
f 28 78 83
f 28 83 104
f 28 104 112
f 28 112 126
f 28 126 135
f 28 135 139
f 28 139 141
f 28 141 142
f 28 142 137
f 28 137 130
f 28 130 114
f 28 114 128
f 28 128 127
f 28 127 122
f 28 122 121
f 28 121 120
f 28 120 119
f 28 119 118
f 28 118 109
f 28 109 98
f 28 98 97
f 28 97 95
f 28 95 79
f 28 79 52
f 29 52 53
f 30 45 54
f 30 54 47
f 31 55 32
f 32 55 33
f 33 55 56
f 33 56 57
f 33 57 58
f 33 58 34
f 34 58 59
f 34 59 35
f 35 59 60
f 35 60 62
f 35 62 37
f 36 37 61
f 36 61 40
f 37 62 65
f 37 65 61
f 38 63 39
f 39 63 64
f 40 61 41
f 41 61 65
f 41 65 66
f 41 66 67
f 41 67 68
f 41 68 69
f 41 69 42
f 43 69 44
f 44 69 68
f 44 68 70
f 44 70 45
f 45 70 68
f 45 68 71
f 45 71 72
f 45 72 73
f 45 73 54
f 46 48 49
f 47 54 74
f 47 74 75
f 47 75 76
f 47 76 48
f 48 76 49
f 49 76 50
f 50 76 77
f 50 77 78
f 50 78 51
f 52 79 80
f 52 80 53
f 54 73 81
f 54 81 99
f 54 99 110
f 54 110 124
f 54 124 131
f 54 131 138
f 54 138 134
f 54 134 133
f 54 133 125
f 54 125 111
f 54 111 103
f 54 103 82
f 54 82 83
f 54 83 84
f 54 84 77
f 54 77 75
f 54 75 85
f 54 85 74
f 57 86 58
f 58 86 87
f 58 87 88
f 58 88 89
f 58 89 59
f 59 89 60
f 60 89 90
f 60 90 91
f 60 91 62
f 62 91 90
f 62 90 67
f 62 67 65
f 63 92 93
f 63 93 94
f 63 94 64
f 65 67 66
f 67 90 72
f 67 72 68
f 68 72 71
f 72 81 73
f 72 90 81
f 74 85 75
f 75 77 76
f 77 84 78
f 78 84 83
f 79 95 80
f 80 95 97
f 80 97 98
f 80 98 96
f 81 90 100
f 81 100 101
f 81 101 102
f 81 102 99
f 82 103 83
f 83 103 104
f 87 105 88
f 88 105 89
f 89 105 100
f 89 100 90
f 92 106 93
f 93 106 107
f 96 98 109
f 96 109 108
f 103 111 104
f 104 111 112
f 106 113 114
f 106 114 115
f 106 115 116
f 106 116 107
f 108 109 118
f 108 118 119
f 108 119 120
f 108 120 121
f 108 121 122
f 108 122 117
f 110 123 124
f 111 125 112
f 112 125 126
f 113 117 127
f 113 127 128
f 113 128 114
f 114 129 115
f 114 130 129
f 117 122 127
f 123 131 124
f 123 132 131
f 125 133 126
f 126 133 134
f 126 134 135
f 129 130 136
f 130 137 136
f 131 132 139
f 131 139 138
f 132 140 141
f 132 141 139
f 134 138 135
f 135 138 139
f 136 137 142
f 136 142 143
f 140 144 141
f 141 144 142
f 142 144 143

