# https://github.com/mikedh/trimesh
v 0.02906497 0.02620774 0.04287818
v 0.02550147 0.02977603 0.05998302
v 0.02906080 0.02620774 0.06596972
v 0.02906358 0.02620774 0.01979960
v 0.02891742 0.02635494 0.01979960
v 0.02550425 0.02977504 0.03690444
v 0.02506995 0.03019786 0.07195641
v 0.02507691 0.03019786 0.03690444
v 0.02902321 0.02620774 0.07195641
v 0.02904270 0.02620774 0.01381291
v 0.02506856 0.03019687 0.00868145
v 0.02550565 0.02977208 0.01381291
v 0.02507691 0.03019885 0.01381291
v 0.02463426 0.03062562 0.07195641
v 0.02334110 0.03185061 0.07457397
v 0.02336476 0.03182493 0.07457397
v 0.02376844 0.03137049 0.07457397
v 0.02856247 0.02620774 0.07264320
v 0.02901625 0.02620774 0.00868145
v 0.02506299 0.03019292 0.00838342
v 0.02463147 0.03062068 0.00838342
v 0.02463287 0.03062364 0.00868145
v 0.02463147 0.03062661 0.01381291
v 0.02420692 0.03103560 0.03091775
v 0.02376287 0.03145940 0.05912778
v 0.02420692 0.03103263 0.07195641
v 0.02266876 0.03226849 0.06682496
v 0.02257829 0.03231394 0.07281813
v 0.02330073 0.03187432 0.07457397
v 0.02375591 0.03146138 0.07110117
v 0.02334110 0.03185061 0.01124718
v 0.02266876 0.03226948 0.02664154
v 0.02402317 0.03094372 0.07457397
v 0.02404266 0.03090618 0.07457397
v 0.02414289 0.03035395 0.07457397
v 0.02414010 0.03030455 0.07457397
v 0.02406772 0.02975923 0.07457397
v 0.02778852 0.02620774 0.07294123
v 0.02900651 0.02620774 0.00838342
v 0.02448392 0.03076491 0.00838342
v 0.02420553 0.03103165 0.00868145
v 0.02376426 0.03145644 0.01295766
v 0.02376148 0.03146039 0.01894436
v 0.02224421 0.03250065 0.06131772
v 0.02224142 0.03249966 0.07195641
v 0.02266598 0.03227047 0.04972012
v 0.02180712 0.03273478 0.07195641
v 0.02223864 0.03249769 0.07253305
v 0.02100394 0.03315760 0.07195641
v 0.02222472 0.03249275 0.07310321
v 0.02266041 0.03224972 0.07366690
v 0.02265624 0.03222601 0.07457397
v 0.02375313 0.03145842 0.00868145
v 0.02333971 0.03184963 0.01039194
v 0.02266737 0.03225960 0.00868145
v 0.02266737 0.03226849 0.01295766
v 0.02224421 0.03250065 0.02084922
v 0.02356799 0.02948361 0.07457397
v 0.02693662 0.02620774 0.07291532
v 0.02351510 0.02946385 0.07457397
v 0.02272584 0.02942434 0.07457397
v 0.02562953 0.02620774 0.00838342
v 0.02420413 0.03103165 0.00838342
v 0.02058773 0.03338482 0.07133442
v 0.02180712 0.03273478 0.03091775
v 0.02059052 0.03338581 0.02578630
v 0.02057660 0.03337889 0.07195641
v 0.01484437 0.03609956 0.07264968
v 0.01484437 0.03600769 0.07277926
v 0.01484437 0.03569848 0.07312913
v 0.02260056 0.03223589 0.07457397
v 0.01890064 0.03424923 0.07171669
v 0.01720101 0.03510969 0.07173612
v 0.01484437 0.03628825 0.07195641
v 0.01484437 0.03625367 0.07209247
v 0.02375173 0.03145842 0.00838342
v 0.02333414 0.03184271 0.00953670
v 0.02224003 0.03249867 0.00868145
v 0.02257829 0.03231295 0.00951726
v 0.02289427 0.03211043 0.00838342
v 0.02263814 0.03227343 0.00838342
v 0.02246414 0.03237123 0.00838342
v 0.02223864 0.03249769 0.00838342
v 0.02224281 0.03250065 0.01491436
v 0.02180712 0.03273379 0.00868145
v 0.02612509 0.02620774 0.07260432
v 0.02266180 0.02942927 0.07457397
v 0.02562257 0.02620774 0.00848060
v 0.01484437 0.03353498 0.00838342
v 0.01890481 0.03425121 0.03150087
v 0.02058634 0.03338482 0.00838342
v 0.01890203 0.03425022 0.00838342
v 0.01890481 0.03425121 0.03117043
v 0.01484437 0.03558190 0.07318096
v 0.02180712 0.03234555 0.07457397
v 0.01720658 0.03511265 0.03151383
v 0.01550000 0.03597015 0.06596972
v 0.01550000 0.03596916 0.07132146
v 0.01484437 0.03629813 0.06596972
v 0.02332439 0.03183086 0.00838342
v 0.02200896 0.03262216 0.00838342
v 0.02183496 0.03271601 0.00838342
v 0.02599841 0.02620774 0.07253953
v 0.02196581 0.02970687 0.07457397
v 0.02561005 0.02620774 0.00868145
v 0.01484437 0.03627343 0.00838342
v 0.01484437 0.03352214 0.00873977
v 0.01720241 0.03511068 0.00838342
v 0.01720658 0.03511265 0.03117043
v 0.01484437 0.03539816 0.07325871
v 0.02172917 0.03232184 0.07457397
v 0.01550417 0.03597114 0.03159158
v 0.01496547 0.03623886 0.06596972
v 0.01484437 0.03630011 0.03690444
v 0.02192265 0.02973058 0.07457397
v 0.02560309 0.02620774 0.07195641
v 0.02557525 0.02620774 0.01381291
v 0.01484437 0.03348657 0.01381291
v 0.01484437 0.03628529 0.00868145
v 0.01521046 0.03610747 0.00838342
v 0.01496547 0.03623589 0.01381291
v 0.01550417 0.03597114 0.03108621
v 0.01484437 0.03482221 0.07327815
v 0.02073250 0.03121342 0.07457397
v 0.02075477 0.03128850 0.07457397
v 0.02100116 0.03198102 0.07457397
v 0.01496547 0.03623984 0.03690444
v 0.01484437 0.03629616 0.01381291
v 0.02189760 0.02974738 0.07457397
v 0.01484437 0.03351818 0.07202120
v 0.01484437 0.03347472 0.06596972
v 0.02555297 0.02620774 0.06596972
v 0.02554462 0.02620774 0.01979960
v 0.01484437 0.03347373 0.01979960
v 0.02149531 0.03002695 0.07457397
v 0.02109999 0.03045768 0.07457397
v 0.02107076 0.03051695 0.07457397
v 0.01484437 0.03456832 0.07312913
v 0.01484437 0.03390643 0.07269503
v 0.01484437 0.03347373 0.04287818
v 0.02554462 0.02620774 0.04287818
f 1 2 3
f 1 3 9
f 1 9 18
f 1 18 38
f 1 38 59
f 1 59 86
f 1 86 103
f 1 103 116
f 1 116 132
f 1 132 141
f 1 141 133
f 1 133 117
f 1 117 105
f 1 105 88
f 1 88 62
f 1 62 39
f 1 39 19
f 1 19 10
f 1 10 4
f 1 4 5
f 1 5 6
f 1 6 2
f 2 7 3
f 2 6 8
f 2 8 7
f 3 7 9
f 4 10 11
f 4 11 5
f 5 11 12
f 5 12 6
f 6 12 13
f 6 13 8
f 7 14 15
f 7 15 9
f 7 8 14
f 8 13 14
f 9 15 16
f 9 16 17
f 9 17 18
f 10 19 11
f 11 19 20
f 11 20 21
f 11 21 22
f 11 22 13
f 11 13 12
f 13 22 23
f 13 23 24
f 13 24 14
f 14 25 26
f 14 26 15
f 14 24 25
f 15 27 28
f 15 28 29
f 15 29 52
f 15 52 71
f 15 71 95
f 15 95 111
f 15 111 126
f 15 126 125
f 15 125 124
f 15 124 137
f 15 137 136
f 15 136 135
f 15 135 129
f 15 129 115
f 15 115 104
f 15 104 87
f 15 87 61
f 15 61 60
f 15 60 58
f 15 58 37
f 15 37 36
f 15 36 35
f 15 35 34
f 15 34 33
f 15 33 17
f 15 17 16
f 15 26 30
f 15 30 25
f 15 25 31
f 15 31 32
f 15 32 27
f 17 33 18
f 18 33 34
f 18 34 35
f 18 35 36
f 18 36 37
f 18 37 38
f 19 39 20
f 20 39 62
f 20 62 89
f 20 89 106
f 20 106 120
f 20 120 108
f 20 108 92
f 20 92 91
f 20 91 102
f 20 102 101
f 20 101 83
f 20 83 82
f 20 82 81
f 20 81 80
f 20 80 100
f 20 100 76
f 20 76 63
f 20 63 40
f 20 40 21
f 21 40 22
f 22 40 41
f 22 41 42
f 22 42 23
f 23 42 43
f 23 43 24
f 24 43 25
f 25 30 26
f 25 43 31
f 27 44 45
f 27 45 28
f 27 32 46
f 27 46 44
f 28 45 47
f 28 47 48
f 28 48 49
f 28 49 50
f 28 50 51
f 28 51 29
f 29 51 52
f 31 43 42
f 31 42 53
f 31 53 54
f 31 54 55
f 31 55 56
f 31 56 32
f 32 56 57
f 32 57 44
f 32 44 46
f 37 58 38
f 38 58 60
f 38 60 61
f 38 61 59
f 40 63 41
f 41 63 76
f 41 76 53
f 41 53 42
f 44 47 45
f 44 57 65
f 44 65 47
f 47 64 49
f 47 49 48
f 47 65 66
f 47 66 64
f 49 64 67
f 49 67 50
f 50 52 51
f 50 67 52
f 52 68 69
f 52 69 70
f 52 70 71
f 52 67 72
f 52 72 73
f 52 73 74
f 52 74 75
f 52 75 68
f 53 76 54
f 54 76 77
f 54 77 55
f 55 78 79
f 55 79 56
f 55 77 80
f 55 80 81
f 55 81 82
f 55 82 83
f 55 83 78
f 56 79 78
f 56 78 84
f 56 84 57
f 57 84 85
f 57 85 66
f 57 66 65
f 59 61 87
f 59 87 86
f 62 88 89
f 64 72 67
f 64 66 90
f 64 90 72
f 66 85 91
f 66 91 92
f 66 92 93
f 66 93 90
f 68 75 74
f 68 74 99
f 68 99 114
f 68 114 128
f 68 128 119
f 68 119 106
f 68 106 89
f 68 89 107
f 68 107 118
f 68 118 134
f 68 134 140
f 68 140 131
f 68 131 130
f 68 130 139
f 68 139 138
f 68 138 123
f 68 123 110
f 68 110 94
f 68 94 70
f 68 70 69
f 70 94 95
f 70 95 71
f 72 90 96
f 72 96 73
f 73 97 98
f 73 98 74
f 73 96 97
f 74 98 99
f 76 100 77
f 77 100 80
f 78 83 85
f 78 85 84
f 83 101 85
f 85 101 102
f 85 102 91
f 86 87 104
f 86 104 103
f 88 105 89
f 89 105 107
f 90 93 109
f 90 109 96
f 92 108 109
f 92 109 93
f 94 110 95
f 95 110 111
f 96 109 122
f 96 122 112
f 96 112 97
f 97 113 98
f 97 112 113
f 98 113 99
f 99 113 114
f 103 104 115
f 103 115 116
f 105 117 118
f 105 118 107
f 106 119 120
f 108 120 121
f 108 121 122
f 108 122 109
f 110 123 124
f 110 124 125
f 110 125 126
f 110 126 111
f 112 122 127
f 112 127 113
f 113 127 114
f 114 127 122
f 114 122 128
f 115 129 116
f 116 129 130
f 116 130 131
f 116 131 132
f 117 133 118
f 118 133 134
f 119 128 120
f 120 128 121
f 121 128 122
f 123 135 136
f 123 136 137
f 123 137 124
f 123 138 135
f 129 135 130
f 130 135 139
f 131 140 141
f 131 141 132
f 133 141 140
f 133 140 134
f 135 138 139

