# https://github.com/mikedh/trimesh
v 0.02091861 0.00153302 0.00274962
v 0.02091861 0.00154534 0.00340597
v 0.02091861 0.00181900 0.00237698
v 0.02267393 0.00005625 0.00181521
v 0.02233047 0.00005625 0.00263103
v 0.02230594 0.00005625 0.00269289
v 0.02091861 0.00180791 0.00381643
v 0.02252796 0.00005625 0.00315345
v 0.02267393 0.00005625 0.00343101
v 0.02091861 0.00221346 0.00211169
v 0.02283707 0.00005625 0.00165317
v 0.02091861 0.00182024 0.00382768
v 0.02351663 0.00005625 0.00374129
v 0.02091861 0.00224428 0.00414767
v 0.02091861 0.00223812 0.00210197
v 0.02311551 0.00005625 0.00142519
v 0.02437159 0.00005625 0.00370193
v 0.02091861 0.00299376 0.00440274
v 0.02091861 0.00299376 0.00187808
v 0.02313146 0.00005625 0.00141701
v 0.03344993 0.00005625 0.00205904
v 0.03344993 0.00042852 0.00207744
v 0.02091861 0.00384925 0.00451213
v 0.02091861 0.00381597 0.00450855
v 0.02091861 0.00302581 0.00187195
v 0.02350313 0.00005625 0.00124883
v 0.03344993 0.00005625 -0.00061846
v 0.03344993 0.00128278 0.00209380
v 0.02091861 0.00470104 0.00452542
v 0.02091861 0.00384925 0.00178198
v 0.02382329 0.00005625 0.00112769
v 0.03329537 0.00005625 -0.00063124
v 0.03292247 0.00128278 -0.00067418
v 0.03344993 0.00075642 -0.00062357
v 0.03344993 0.00181037 0.00210044
v 0.02091861 0.00637750 0.00448300
v 0.03344993 0.01264451 0.00218018
v 0.02091861 0.00388130 0.00177943
v 0.02437159 0.00005625 0.00096105
v 0.02335594 0.01264821 0.00046470
v 0.03292247 0.00005625 -0.00065271
v 0.03292247 0.00042852 -0.00066089
v 0.03206751 0.00042852 -0.00056632
v 0.03121254 0.01239921 -0.00062408
v 0.03206751 0.01068823 -0.00069616
v 0.03292247 0.00983397 -0.00067878
v 0.03344993 0.00128278 -0.00062307
v 0.02091861 0.00641325 0.00448146
v 0.03344993 0.01264821 0.00103874
v 0.03313714 0.01264821 0.00211424
v 0.02091861 0.01264821 0.00338858
v 0.02091861 0.00726751 0.00439610
v 0.02091861 0.00723792 0.00439916
v 0.02091861 0.01264821 0.00133931
v 0.02323327 0.01264821 0.00050304
v 0.02474449 0.00005625 0.00085421
v 0.02412381 0.01264821 0.00032720
v 0.02608275 0.01068823 0.00004759
v 0.02693772 0.00897848 -0.00004033
v 0.02617843 0.00005625 0.00048464
v 0.02575033 0.00005625 0.00057869
v 0.03206751 0.00005625 -0.00055968
v 0.02695734 0.01264821 -0.00014308
v 0.03121254 0.01264821 -0.00061080
v 0.03206751 0.01154372 -0.00068389
v 0.03292247 0.01068823 -0.00064914
v 0.03344993 0.00930638 -0.00059853
v 0.03344993 0.00213827 -0.00062102
v 0.03344993 0.01264821 -0.00037106
v 0.02693772 0.01154372 -0.00011547
v 0.02693772 0.01068823 -0.00009452
v 0.02693772 0.00983397 -0.00007100
v 0.03181850 0.01264821 -0.00061488
v 0.03206751 0.01239921 -0.00063022
v 0.03292247 0.01154372 -0.00058115
v 0.03344993 0.01022104 -0.00054077
v 0.03292247 0.01264821 -0.00049118
v 0.03206751 0.01264821 -0.00059291
f 1 2 7
f 1 7 12
f 1 12 14
f 1 14 18
f 1 18 24
f 1 24 23
f 1 23 29
f 1 29 36
f 1 36 48
f 1 48 53
f 1 53 52
f 1 52 51
f 1 51 54
f 1 54 38
f 1 38 30
f 1 30 25
f 1 25 19
f 1 19 15
f 1 15 10
f 1 10 3
f 1 3 4
f 1 4 5
f 1 5 6
f 1 6 2
f 2 6 8
f 2 8 9
f 2 9 7
f 3 10 4
f 4 11 16
f 4 16 20
f 4 20 26
f 4 26 31
f 4 31 39
f 4 39 56
f 4 56 61
f 4 61 60
f 4 60 62
f 4 62 41
f 4 41 32
f 4 32 27
f 4 27 21
f 4 21 17
f 4 17 13
f 4 13 9
f 4 9 8
f 4 8 6
f 4 6 5
f 4 10 11
f 7 9 12
f 9 13 14
f 9 14 12
f 10 15 16
f 10 16 11
f 13 17 18
f 13 18 14
f 15 19 16
f 16 19 20
f 17 21 22
f 17 22 23
f 17 23 24
f 17 24 18
f 19 25 20
f 20 25 26
f 21 27 34
f 21 34 47
f 21 47 68
f 21 68 67
f 21 67 76
f 21 76 69
f 21 69 49
f 21 49 37
f 21 37 35
f 21 35 28
f 21 28 22
f 22 28 23
f 23 28 29
f 25 30 31
f 25 31 26
f 27 32 33
f 27 33 34
f 28 35 29
f 29 35 37
f 29 37 36
f 30 38 31
f 31 38 40
f 31 40 39
f 32 41 42
f 32 42 33
f 33 42 43
f 33 43 44
f 33 44 45
f 33 45 46
f 33 46 34
f 34 46 47
f 36 37 48
f 37 49 50
f 37 50 51
f 37 51 52
f 37 52 53
f 37 53 48
f 38 54 55
f 38 55 40
f 39 40 56
f 40 55 54
f 40 54 51
f 40 51 50
f 40 50 49
f 40 49 69
f 40 69 77
f 40 77 78
f 40 78 73
f 40 73 64
f 40 64 63
f 40 63 57
f 40 57 58
f 40 58 59
f 40 59 60
f 40 60 61
f 40 61 56
f 41 62 42
f 42 62 43
f 43 62 63
f 43 63 44
f 44 63 64
f 44 64 65
f 44 65 45
f 45 65 46
f 46 65 66
f 46 66 67
f 46 67 68
f 46 68 47
f 57 63 70
f 57 70 58
f 58 70 71
f 58 71 72
f 58 72 59
f 59 72 62
f 59 62 60
f 62 72 71
f 62 71 70
f 62 70 63
f 64 73 65
f 65 73 74
f 65 74 66
f 66 74 75
f 66 75 69
f 66 69 76
f 66 76 67
f 69 75 77
f 73 78 74
f 74 78 77
f 74 77 75

