# https://github.com/mikedh/trimesh
v -0.00125677 -0.02407403 0.00181294
v 0.00000654 -0.02424045 0.00183764
v -0.00125996 -0.02407403 0.00180868
v -0.00135898 -0.02407403 0.00259928
v 0.00000654 -0.02452581 0.00276668
v 0.00000654 -0.02457099 0.00116717
v -0.00178541 -0.02407403 0.00145768
v -0.00220864 -0.02407403 0.00325995
v 0.00000654 -0.02487180 0.00310107
v 0.00000654 -0.02490325 0.00095930
v -0.00329148 -0.02407403 0.00105088
v -0.00243543 -0.02407403 0.00120679
v -0.00299441 -0.02407403 0.00352874
v 0.00000654 -0.02518519 0.00317731
v 0.00000654 -0.02522693 0.00075824
v -0.00414593 -0.02407403 0.00095419
v -0.00382970 -0.02407403 0.00369912
v 0.00000654 -0.02588288 0.00318456
v 0.00000654 -0.02991576 0.00012355
v -0.00166722 -0.02991576 -0.00012010
v -0.01611621 -0.02407403 -0.00011499
v -0.00440306 -0.02407403 0.00373704
v -0.00210642 -0.02991576 0.00240546
v -0.00136856 -0.02991576 0.00232921
v 0.00000654 -0.02991576 0.00203742
v -0.01198451 -0.02991576 -0.00059591
v -0.01630946 -0.02407403 -0.00012564
v -0.00469693 -0.02407403 0.00373959
v -0.00295768 -0.02991576 0.00242463
v -0.01284055 -0.02991576 -0.00061210
v -0.01496470 -0.02950229 -0.00057333
v -0.01581915 -0.02950229 -0.00056652
v -0.01630946 -0.02892698 -0.00051370
v -0.01630946 -0.02407403 0.00271216
v -0.00527188 -0.02407403 0.00372213
v -0.00555936 -0.02522693 0.00347080
v -0.01030116 -0.02991576 0.00229982
v -0.01369500 -0.02991576 -0.00059804
v -0.01630946 -0.02950229 -0.00054181
v -0.01454945 -0.02991576 -0.00057887
v -0.01630946 -0.02950229 0.00187428
v -0.00726986 -0.02407403 0.00356409
v -0.00641381 -0.02437198 0.00358369
v -0.01239815 -0.02991576 0.00216607
v -0.00641381 -0.02522693 0.00343417
v -0.01630946 -0.02967900 -0.00049879
v -0.01541987 -0.02991576 -0.00051583
v -0.01630946 -0.02991576 0.00177716
v -0.01366785 -0.02991576 0.00204637
v -0.01325420 -0.02991576 0.00208811
v -0.01630946 -0.02977164 -0.00047621
v -0.01611302 -0.02991576 -0.00045065
v -0.01630946 -0.02991576 -0.00042595
f 1 2 3
f 1 3 7
f 1 7 12
f 1 12 11
f 1 11 16
f 1 16 21
f 1 21 27
f 1 27 34
f 1 34 42
f 1 42 35
f 1 35 28
f 1 28 22
f 1 22 17
f 1 17 13
f 1 13 8
f 1 8 4
f 1 4 2
f 2 5 9
f 2 9 14
f 2 14 18
f 2 18 25
f 2 25 19
f 2 19 15
f 2 15 10
f 2 10 6
f 2 6 7
f 2 7 3
f 2 4 5
f 4 8 5
f 5 8 9
f 6 10 11
f 6 11 12
f 6 12 7
f 8 13 9
f 9 13 14
f 10 15 11
f 11 15 16
f 13 17 14
f 14 17 18
f 15 19 20
f 15 20 21
f 15 21 16
f 17 22 18
f 18 23 24
f 18 24 25
f 18 22 23
f 19 25 24
f 19 24 23
f 19 23 29
f 19 29 37
f 19 37 44
f 19 44 50
f 19 50 49
f 19 49 48
f 19 48 53
f 19 53 52
f 19 52 47
f 19 47 40
f 19 40 38
f 19 38 30
f 19 30 26
f 19 26 20
f 20 26 27
f 20 27 21
f 22 28 29
f 22 29 23
f 26 30 27
f 27 31 32
f 27 32 33
f 27 33 39
f 27 39 46
f 27 46 51
f 27 51 53
f 27 53 48
f 27 48 41
f 27 41 34
f 27 30 31
f 28 35 36
f 28 36 29
f 29 36 37
f 30 38 32
f 30 32 31
f 32 39 33
f 32 38 40
f 32 40 39
f 34 41 42
f 35 42 43
f 35 43 44
f 35 44 45
f 35 45 37
f 35 37 36
f 37 45 44
f 39 40 47
f 39 47 46
f 41 48 49
f 41 49 50
f 41 50 42
f 42 50 44
f 42 44 43
f 46 47 51
f 47 52 51
f 51 52 53

