# https://github.com/mikedh/trimesh
v 0.02358083 -0.03370629 0.08400046
v 0.02358083 -0.03370456 0.08393120
v 0.02402297 -0.03340556 0.08393120
v 0.02402856 -0.03341075 0.08449575
v 0.02358083 -0.03356630 0.08474776
v 0.02358083 -0.03349198 0.08336432
v 0.02396420 -0.03336408 0.08348538
v 0.02444971 -0.03308236 0.08393120
v 0.02380190 -0.03324656 0.08506554
v 0.02358083 -0.03351272 0.08484554
v 0.02500378 -0.03265374 0.08393120
v 0.02597479 -0.03188982 0.08393120
v 0.02736556 -0.03078541 0.08436014
v 0.02496740 -0.03262608 0.08461681
v 0.02477152 -0.03247053 0.08518718
v 0.02358083 -0.03158736 0.07973316
v 0.02490444 -0.03257596 0.08341612
v 0.02640154 -0.03155279 0.08393120
v 0.02358083 -0.03332087 0.08514760
v 0.02717108 -0.03060221 0.08492993
v 0.02690664 -0.03098244 0.08470178
v 0.02629800 -0.03145946 0.08478617
v 0.02736556 -0.03078541 0.08435432
v 0.02824423 -0.02995063 0.08440437
v 0.02858563 -0.02944250 0.08471109
v 0.02586986 -0.03180858 0.08478617
v 0.02569776 -0.03167205 0.08523956
v 0.02420066 -0.03267621 0.08531405
v 0.02906694 -0.02906573 0.08354358
v 0.02674014 -0.03098590 0.08332242
v 0.02583768 -0.03178093 0.08336374
v 0.02358083 -0.02939238 0.07973316
v 0.03185127 -0.02334322 0.07973316
v 0.02731099 -0.03073356 0.08378395
v 0.02699059 -0.03105676 0.08401385
v 0.02358083 -0.03291990 0.08539030
v 0.02660162 -0.03086319 0.08526691
v 0.02804835 -0.02976743 0.08497474
v 0.02818827 -0.02990051 0.08365707
v 0.02824423 -0.02995063 0.08422744
v 0.02911871 -0.02911758 0.08444744
v 0.02892562 -0.02892400 0.08501723
v 0.02522764 -0.03186043 0.08532162
v 0.02602237 -0.03117429 0.08533908
v 0.02358083 -0.03289052 0.08540078
v 0.02443991 -0.03213870 0.08543511
v 0.03098659 -0.02673939 0.08332242
v 0.02990084 -0.02818773 0.08365765
v 0.02951047 -0.02865438 0.08388580
v 0.02911871 -0.02911758 0.08411395
v 0.02358083 -0.02764158 0.08303257
v 0.03263480 -0.01605140 0.08295400
v 0.03002257 -0.02148700 0.07973316
v 0.03219686 -0.02272448 0.07973316
v 0.03507214 -0.02139885 0.08348771
v 0.03336376 -0.02396542 0.08348538
v 0.03257603 -0.02490218 0.08341612
v 0.03178131 -0.02583548 0.08336374
v 0.02747749 -0.03003186 0.08527681
v 0.02690664 -0.03033259 0.08536586
v 0.02995261 -0.02824304 0.08440437
v 0.02944331 -0.02858352 0.08471109
v 0.02976932 -0.02804601 0.08497474
v 0.03086346 -0.02659940 0.08526691
v 0.03003376 -0.02747566 0.08527681
v 0.02919846 -0.02835538 0.08528554
v 0.02835617 -0.02919708 0.08528554
v 0.02522764 -0.03121231 0.08553406
v 0.02358083 -0.03207129 0.08561437
v 0.03073334 -0.02730801 0.08378453
v 0.03034437 -0.02777639 0.08400570
v 0.02995261 -0.02824304 0.08422744
v 0.02358083 -0.02761738 0.08308495
v 0.03249768 -0.01605140 0.08328633
v 0.03306154 -0.01605140 0.08232252
v 0.03044931 -0.02107393 0.07973316
v 0.03223044 -0.02266226 0.07973316
v 0.03595920 -0.01975176 0.08344697
v 0.03577731 -0.02027890 0.08393120
v 0.03539954 -0.02095122 0.08393120
v 0.03511131 -0.02146107 0.08393120
v 0.03483008 -0.02188797 0.08393120
v 0.03440334 -0.02253264 0.08393120
v 0.03411931 -0.02296126 0.08393120
v 0.03635657 -0.01924190 0.08393120
v 0.03374713 -0.02351779 0.08393120
v 0.03340574 -0.02402246 0.08393120
v 0.03308253 -0.02445108 0.08393120
v 0.03265439 -0.02500242 0.08393120
v 0.03155325 -0.02640064 0.08393120
v 0.02777551 -0.02948917 0.08537924
v 0.02608253 -0.03035679 0.08557131
v 0.03078511 -0.02736505 0.08436014
v 0.03027861 -0.02770553 0.08466744
v 0.03060322 -0.02716975 0.08492993
v 0.03033458 -0.02690531 0.08536586
v 0.03167218 -0.02569721 0.08523956
v 0.03117407 -0.02602214 0.08533908
v 0.02864439 -0.02864228 0.08538622
v 0.02949088 -0.02777294 0.08537866
v 0.02358083 -0.03200388 0.08562892
v 0.03105654 -0.02698827 0.08401385
v 0.03078511 -0.02736505 0.08435432
v 0.02358083 -0.02741344 0.08393120
v 0.03240254 -0.01605140 0.08390152
v 0.03350368 -0.01605140 0.08190231
v 0.03109992 -0.02071444 0.07973316
v 0.03391363 -0.01605140 0.08170268
v 0.03238295 -0.02193464 0.07973316
v 0.03771795 -0.01605140 0.08339400
v 0.03765918 -0.01632448 0.08345861
v 0.03682528 -0.01808046 0.08343242
v 0.03668397 -0.01863698 0.08393120
v 0.03511551 -0.02146799 0.08449226
v 0.03340993 -0.02402937 0.08449575
v 0.03600538 -0.01982953 0.08456385
v 0.02693742 -0.02950126 0.08558644
v 0.02437276 -0.03121231 0.08564697
v 0.03262640 -0.02496613 0.08461681
v 0.03145950 -0.02629694 0.08478617
v 0.03098379 -0.02690531 0.08470120
v 0.03121185 -0.02522538 0.08553406
v 0.03035836 -0.02608090 0.08557131
v 0.03247110 -0.02477082 0.08518718
v 0.03267677 -0.02420048 0.08531405
v 0.03185966 -0.02522538 0.08532162
v 0.03213810 -0.02444072 0.08543511
v 0.02950348 -0.02693642 0.08558644
v 0.02864719 -0.02779195 0.08559808
v 0.02779230 -0.02864574 0.08559808
v 0.02358083 -0.03121231 0.08567432
v 0.02358083 -0.02744801 0.08419601
v 0.03244731 -0.01605140 0.08442882
v 0.03239834 -0.01605140 0.08393120
v 0.03115868 -0.02068333 0.07973316
v 0.03464819 -0.01605140 0.08167183
v 0.03240254 -0.02183267 0.07973316
v 0.03716808 -0.01605140 0.08297146
v 0.03787325 -0.01605140 0.08393120
v 0.03770815 -0.01642991 0.08393120
v 0.03751227 -0.01685853 0.08393120
v 0.03688545 -0.01821009 0.08393120
v 0.03770256 -0.01641608 0.08454464
v 0.03687006 -0.01817033 0.08459003
v 0.03585567 -0.01957374 0.08513422
v 0.03495880 -0.02121911 0.08506204
v 0.03421725 -0.02225265 0.08522384
v 0.03433058 -0.02242375 0.08478617
v 0.03324623 -0.02380296 0.08506554
v 0.03617328 -0.01926955 0.08482400
v 0.02522764 -0.03035679 0.08565977
v 0.03180929 -0.02586831 0.08478617
v 0.03294541 -0.02351779 0.08539845
v 0.03292163 -0.02266226 0.08558236
v 0.03206674 -0.02351779 0.08562776
v 0.03121185 -0.02437158 0.08564697
v 0.03343652 -0.02323261 0.08527564
v 0.03374433 -0.02258794 0.08533385
v 0.03035836 -0.02522538 0.08565977
v 0.02950348 -0.02608090 0.08566792
v 0.02864719 -0.02693642 0.08567083
v 0.02779230 -0.02779195 0.08567257
v 0.02693742 -0.02864574 0.08567083
v 0.02608253 -0.02950126 0.08566792
v 0.02358083 -0.03114836 0.08567665
v 0.02358083 -0.02766923 0.08476231
v 0.03242772 -0.01610671 0.08449342
v 0.03249208 -0.01605140 0.08454988
v 0.03209612 -0.02088035 0.07973316
v 0.03485806 -0.01605140 0.08172829
v 0.03212131 -0.02089591 0.07973316
v 0.03528061 -0.01605140 0.08188194
v 0.03563460 -0.01605140 0.08207517
v 0.03666158 -0.01605140 0.08264379
v 0.03676652 -0.01605140 0.08270432
v 0.03786766 -0.01605140 0.08416808
v 0.03777671 -0.01605140 0.08470993
v 0.03761441 -0.01605140 0.08504924
v 0.03755704 -0.01611189 0.08511443
v 0.03672874 -0.01787997 0.08515982
v 0.03660842 -0.01842786 0.08483914
v 0.03600677 -0.01900339 0.08528146
v 0.03512251 -0.02064876 0.08526342
v 0.03435157 -0.02180674 0.08529892
v 0.03377791 -0.02180674 0.08550903
v 0.03463280 -0.02009742 0.08556316
v 0.03377791 -0.02095122 0.08563009
v 0.03292163 -0.02180674 0.08565744
v 0.03206674 -0.02266226 0.08567316
v 0.03121185 -0.02351779 0.08567607
v 0.03035836 -0.02437158 0.08567781
v 0.02950348 -0.02522538 0.08567840
v 0.02522764 -0.02950126 0.08567840
v 0.02437276 -0.03035679 0.08567781
v 0.03525822 -0.01605140 0.08567607
v 0.02358083 -0.03035679 0.08566850
v 0.02358083 -0.02771763 0.08483099
v 0.03263620 -0.01605140 0.08478152
v 0.03756964 -0.01605140 0.08513072
v 0.03685047 -0.01730963 0.08527681
v 0.03527641 -0.02009742 0.08533966
v 0.03616628 -0.01838638 0.08535712
v 0.03465659 -0.02094085 0.08539204
v 0.03553806 -0.01926955 0.08541358
v 0.03548769 -0.01838638 0.08558527
v 0.03463280 -0.01924190 0.08564639
v 0.03377791 -0.02009742 0.08567141
v 0.03292163 -0.02095122 0.08567723
v 0.03377791 -0.01924190 0.08567840
v 0.03463280 -0.01753085 0.08567898
v 0.03548769 -0.01605140 0.08567723
v 0.03463280 -0.01605140 0.08565337
v 0.02358083 -0.03029284 0.08566734
v 0.02358083 -0.02774874 0.08486765
v 0.03270476 -0.01605140 0.08488337
v 0.03717507 -0.01605140 0.08538739
v 0.03699178 -0.01667533 0.08535014
v 0.03640274 -0.01756888 0.08541416
v 0.03634257 -0.01667533 0.08557712
v 0.03634257 -0.01605140 0.08562718
v 0.03548769 -0.01753085 0.08565162
v 0.03463280 -0.01838638 0.08567490
v 0.03548769 -0.01667533 0.08567432
v 0.03611311 -0.01605140 0.08565337
v 0.03440334 -0.01605140 0.08563416
v 0.02358083 -0.02950126 0.08561321
v 0.02358083 -0.02812378 0.08525120
v 0.03298599 -0.01605140 0.08521803
v 0.03700298 -0.01605140 0.08544734
v 0.03377791 -0.01605140 0.08553289
v 0.02358083 -0.02943904 0.08560739
v 0.02358083 -0.02839340 0.08535654
v 0.03312311 -0.01605140 0.08531988
v 0.03355405 -0.01605140 0.08547062
v 0.02358083 -0.02860599 0.08541940
v 0.02358083 -0.02850747 0.08539612
f 1 2 3
f 1 3 4
f 1 4 5
f 1 5 10
f 1 10 19
f 1 19 36
f 1 36 45
f 1 45 69
f 1 69 101
f 1 101 131
f 1 131 165
f 1 165 196
f 1 196 213
f 1 213 226
f 1 226 231
f 1 231 235
f 1 235 236
f 1 236 232
f 1 232 227
f 1 227 214
f 1 214 197
f 1 197 166
f 1 166 132
f 1 132 104
f 1 104 73
f 1 73 51
f 1 51 32
f 1 32 16
f 1 16 6
f 1 6 2
f 2 6 7
f 2 7 3
f 3 7 8
f 3 8 4
f 4 9 10
f 4 10 5
f 4 8 11
f 4 11 12
f 4 12 13
f 4 13 14
f 4 14 15
f 4 15 9
f 6 16 7
f 7 17 18
f 7 18 12
f 7 12 11
f 7 11 8
f 7 16 17
f 9 19 10
f 9 15 19
f 12 18 13
f 13 20 21
f 13 21 22
f 13 22 14
f 13 18 23
f 13 23 40
f 13 40 24
f 13 24 25
f 13 25 20
f 14 26 15
f 14 22 26
f 15 26 22
f 15 22 27
f 15 27 28
f 15 28 19
f 16 29 30
f 16 30 31
f 16 31 17
f 16 32 53
f 16 53 76
f 16 76 107
f 16 107 135
f 16 135 169
f 16 169 171
f 16 171 137
f 16 137 109
f 16 109 77
f 16 77 54
f 16 54 33
f 16 33 29
f 17 31 18
f 18 31 34
f 18 34 35
f 18 35 23
f 19 28 36
f 20 37 27
f 20 27 22
f 20 22 21
f 20 25 38
f 20 38 37
f 23 35 34
f 23 34 39
f 23 39 40
f 24 40 50
f 24 50 41
f 24 41 25
f 25 41 42
f 25 42 38
f 27 43 28
f 27 37 44
f 27 44 43
f 28 45 36
f 28 43 46
f 28 46 45
f 29 47 48
f 29 48 49
f 29 49 50
f 29 50 40
f 29 40 39
f 29 39 30
f 29 33 47
f 30 39 34
f 30 34 31
f 32 51 52
f 32 52 53
f 33 54 55
f 33 55 56
f 33 56 57
f 33 57 58
f 33 58 47
f 37 38 42
f 37 42 59
f 37 59 60
f 37 60 44
f 41 50 72
f 41 72 61
f 41 61 62
f 41 62 42
f 42 62 63
f 42 63 64
f 42 64 65
f 42 65 66
f 42 66 67
f 42 67 59
f 43 44 68
f 43 68 46
f 44 60 68
f 45 46 68
f 45 68 69
f 47 58 70
f 47 70 48
f 48 70 71
f 48 71 49
f 49 71 72
f 49 72 50
f 51 73 74
f 51 74 52
f 52 74 105
f 52 105 134
f 52 134 133
f 52 133 168
f 52 168 198
f 52 198 215
f 52 215 228
f 52 228 233
f 52 233 234
f 52 234 230
f 52 230 225
f 52 225 212
f 52 212 195
f 52 195 211
f 52 211 224
f 52 224 220
f 52 220 229
f 52 229 216
f 52 216 199
f 52 199 178
f 52 178 177
f 52 177 176
f 52 176 139
f 52 139 110
f 52 110 138
f 52 138 175
f 52 175 174
f 52 174 173
f 52 173 172
f 52 172 170
f 52 170 136
f 52 136 108
f 52 108 106
f 52 106 75
f 52 75 53
f 53 75 76
f 54 77 78
f 54 78 55
f 55 79 80
f 55 80 81
f 55 81 82
f 55 82 83
f 55 83 84
f 55 84 56
f 55 78 85
f 55 85 79
f 56 84 86
f 56 86 87
f 56 87 88
f 56 88 89
f 56 89 90
f 56 90 57
f 57 90 58
f 58 90 70
f 59 67 60
f 60 67 91
f 60 91 92
f 60 92 68
f 61 72 103
f 61 103 93
f 61 93 94
f 61 94 63
f 61 63 62
f 63 94 95
f 63 95 64
f 64 96 65
f 64 95 97
f 64 97 98
f 64 98 96
f 65 96 66
f 66 99 67
f 66 96 100
f 66 100 99
f 67 99 91
f 68 92 101
f 68 101 69
f 70 90 102
f 70 102 103
f 70 103 71
f 71 103 72
f 73 104 74
f 74 104 105
f 75 106 76
f 76 106 108
f 76 108 107
f 77 109 110
f 77 110 111
f 77 111 112
f 77 112 78
f 78 112 113
f 78 113 85
f 79 114 80
f 79 85 114
f 80 114 81
f 81 114 82
f 82 114 83
f 83 114 84
f 84 114 115
f 84 115 86
f 85 113 116
f 85 116 114
f 86 115 87
f 87 115 88
f 88 115 89
f 89 115 90
f 90 93 103
f 90 103 102
f 90 115 93
f 91 99 117
f 91 117 92
f 92 118 101
f 92 117 118
f 93 115 119
f 93 119 120
f 93 120 121
f 93 121 95
f 93 95 94
f 95 121 120
f 95 120 97
f 96 98 122
f 96 122 123
f 96 123 100
f 97 124 125
f 97 125 126
f 97 126 98
f 97 120 124
f 98 126 127
f 98 127 122
f 99 100 128
f 99 128 129
f 99 129 130
f 99 130 117
f 100 123 128
f 101 118 131
f 104 132 133
f 104 133 134
f 104 134 105
f 107 108 135
f 108 136 135
f 109 137 110
f 110 139 111
f 110 137 138
f 111 139 140
f 111 140 141
f 111 141 142
f 111 142 112
f 112 142 113
f 113 142 143
f 113 143 144
f 113 144 116
f 114 116 145
f 114 145 146
f 114 146 147
f 114 147 148
f 114 148 115
f 115 124 119
f 115 148 147
f 115 147 149
f 115 149 124
f 116 144 150
f 116 150 145
f 117 130 151
f 117 151 118
f 118 151 131
f 119 124 152
f 119 152 120
f 120 152 124
f 122 127 153
f 122 153 154
f 122 154 155
f 122 155 123
f 123 155 156
f 123 156 128
f 124 149 147
f 124 147 157
f 124 157 125
f 125 127 126
f 125 157 158
f 125 158 153
f 125 153 127
f 128 156 159
f 128 159 129
f 129 159 160
f 129 160 161
f 129 161 162
f 129 162 130
f 130 163 164
f 130 164 151
f 130 162 163
f 131 151 164
f 131 164 165
f 132 166 133
f 133 167 168
f 133 166 167
f 135 136 169
f 136 170 171
f 136 171 169
f 137 171 172
f 137 172 173
f 137 173 174
f 137 174 175
f 137 175 138
f 139 176 143
f 139 143 140
f 140 143 141
f 141 143 142
f 143 176 177
f 143 177 178
f 143 178 179
f 143 179 180
f 143 180 144
f 144 180 181
f 144 181 150
f 145 150 181
f 145 181 180
f 145 180 182
f 145 182 183
f 145 183 146
f 146 183 147
f 147 183 184
f 147 184 158
f 147 158 157
f 153 158 185
f 153 185 154
f 154 185 186
f 154 186 187
f 154 187 155
f 155 187 188
f 155 188 156
f 156 188 189
f 156 189 159
f 158 184 185
f 159 189 160
f 160 189 190
f 160 190 161
f 161 190 162
f 162 190 191
f 162 191 192
f 162 192 193
f 162 193 194
f 162 194 165
f 162 165 163
f 163 165 164
f 165 194 195
f 165 195 196
f 166 197 168
f 166 168 167
f 168 197 198
f 170 172 171
f 178 199 179
f 179 199 180
f 180 199 200
f 180 200 182
f 182 201 183
f 182 200 202
f 182 202 201
f 183 203 184
f 183 201 203
f 184 203 185
f 185 203 186
f 186 203 204
f 186 204 205
f 186 205 187
f 187 205 206
f 187 206 188
f 188 206 207
f 188 207 189
f 189 207 208
f 189 208 190
f 190 208 191
f 191 208 209
f 191 209 192
f 192 209 210
f 192 210 193
f 193 210 194
f 194 210 195
f 195 210 211
f 195 212 213
f 195 213 196
f 197 214 198
f 198 214 215
f 199 216 217
f 199 217 200
f 200 217 202
f 201 202 204
f 201 204 203
f 202 218 205
f 202 205 204
f 202 217 218
f 205 218 219
f 205 219 220
f 205 220 221
f 205 221 206
f 206 221 207
f 207 221 222
f 207 222 208
f 208 222 209
f 209 222 210
f 210 222 223
f 210 223 211
f 211 223 224
f 212 225 213
f 213 225 226
f 214 227 215
f 215 227 228
f 216 229 218
f 216 218 217
f 218 229 219
f 219 229 220
f 220 224 221
f 221 224 223
f 221 223 222
f 225 230 231
f 225 231 226
f 227 232 233
f 227 233 228
f 230 234 231
f 231 234 235
f 232 236 233
f 233 236 234
f 234 236 235

