# https://github.com/mikedh/trimesh
v 0.00000654 -0.03945564 0.07457491
v 0.00000654 -0.03696122 0.07457491
v 0.00042805 -0.03945564 0.07457491
v 0.00000654 -0.03946550 0.07538010
v 0.00042805 -0.03696087 0.07457491
v 0.00000654 -0.03670480 0.07709080
v 0.00683077 -0.03590667 0.07745553
v 0.00683077 -0.03599931 0.07700510
v 0.00042805 -0.03946445 0.07538010
v 0.00045744 -0.03944965 0.07457491
v 0.00683077 -0.03850429 0.07735388
v 0.00299315 -0.03909180 0.07709080
v 0.00042604 -0.03950389 0.08136124
v 0.00000654 -0.03950389 0.08136124
v 0.00128308 -0.03725849 0.07457491
v 0.00683077 -0.03638499 0.07635205
v 0.00000654 -0.03671009 0.07749672
v 0.00680005 -0.03590879 0.07753791
v 0.00680005 -0.03590879 0.07747479
v 0.00683077 -0.03590597 0.07754522
v 0.00213811 -0.03922177 0.07709080
v 0.00088429 -0.03935068 0.07457491
v 0.00683077 -0.03843279 0.07693335
v 0.00683077 -0.03848034 0.07721238
v 0.00683077 -0.03850641 0.07759172
v 0.00103191 -0.03938308 0.08136124
v 0.00000654 -0.03680519 0.08136124
v 0.00180812 -0.03755084 0.07457491
v 0.00683077 -0.03719862 0.07595477
v 0.00000654 -0.03671643 0.07790197
v 0.00683077 -0.03609969 0.07796442
v 0.00042805 -0.03680342 0.08136124
v 0.00135456 -0.03901149 0.07457491
v 0.00683077 -0.03804570 0.07632946
v 0.00683077 -0.03842927 0.07778505
v 0.00145943 -0.03921050 0.08136124
v 0.00182416 -0.03759874 0.07457491
v 0.00183952 -0.03860820 0.07457491
v 0.00192903 -0.03805345 0.07457491
v 0.00683077 -0.03632652 0.07831055
v 0.00104461 -0.03689676 0.08136124
v 0.00129110 -0.03694361 0.08136124
v 0.00683077 -0.03833629 0.07799764
v 0.00217819 -0.03883785 0.08136124
v 0.00683077 -0.03653503 0.07856366
v 0.00230044 -0.03724405 0.08136124
v 0.00683077 -0.03811932 0.07833845
v 0.00221961 -0.03881636 0.08136124
v 0.00683077 -0.03685203 0.07867062
v 0.00299315 -0.03797315 0.08136124
v 0.00305661 -0.03805803 0.08136124
v 0.00683077 -0.03790024 0.07858160
v 0.00271860 -0.03839511 0.08136124
v 0.00683077 -0.03719862 0.07877293
v 0.00683077 -0.03757056 0.07869055
f 1 2 5
f 1 5 15
f 1 15 28
f 1 28 37
f 1 37 39
f 1 39 38
f 1 38 33
f 1 33 22
f 1 22 10
f 1 10 3
f 1 3 4
f 1 4 14
f 1 14 27
f 1 27 30
f 1 30 17
f 1 17 6
f 1 6 2
f 2 6 7
f 2 7 8
f 2 8 5
f 3 9 4
f 3 10 11
f 3 11 12
f 3 12 9
f 4 9 13
f 4 13 14
f 5 8 16
f 5 16 15
f 6 17 18
f 6 18 19
f 6 19 7
f 7 19 20
f 7 20 31
f 7 31 40
f 7 40 45
f 7 45 49
f 7 49 54
f 7 54 55
f 7 55 52
f 7 52 47
f 7 47 43
f 7 43 35
f 7 35 25
f 7 25 11
f 7 11 24
f 7 24 23
f 7 23 34
f 7 34 29
f 7 29 16
f 7 16 8
f 9 12 21
f 9 21 13
f 10 22 23
f 10 23 24
f 10 24 11
f 11 25 12
f 12 25 13
f 12 13 21
f 13 25 26
f 13 26 36
f 13 36 44
f 13 44 48
f 13 48 53
f 13 53 51
f 13 51 50
f 13 50 46
f 13 46 42
f 13 42 41
f 13 41 32
f 13 32 27
f 13 27 14
f 15 16 29
f 15 29 28
f 17 30 18
f 18 20 19
f 18 30 27
f 18 27 20
f 20 27 32
f 20 32 31
f 22 33 34
f 22 34 23
f 25 35 36
f 25 36 26
f 28 29 37
f 29 34 38
f 29 38 39
f 29 39 37
f 31 32 41
f 31 41 42
f 31 42 40
f 33 38 34
f 35 43 36
f 36 43 44
f 40 42 46
f 40 46 45
f 43 47 48
f 43 48 44
f 45 46 50
f 45 50 51
f 45 51 49
f 47 52 48
f 48 52 53
f 49 51 54
f 51 53 52
f 51 52 55
f 51 55 54

