# https://github.com/mikedh/trimesh
v -0.00601764 -0.00000660 0.00576121
v -0.00601764 -0.00000660 0.00710280
v -0.00601764 0.00003026 0.00573125
v -0.00261990 -0.00000660 0.00555621
v -0.00299317 -0.00000660 0.00793219
v -0.00601764 0.00039889 0.00739884
v -0.00601764 0.00004316 0.00572126
v -0.00601764 0.00045234 0.00545870
v -0.00170412 -0.00000660 0.00550922
v -0.00213813 -0.00000660 0.00813190
v -0.00601764 0.00062744 0.00749634
v -0.00601764 0.00128361 0.00520848
v -0.00042805 -0.00000660 0.00550628
v -0.00143405 -0.00000660 0.00822353
v -0.00213813 0.00042838 0.00816831
v -0.00601764 0.00128361 0.00769194
v -0.00601764 0.00091682 0.00759972
v 0.00000654 -0.00000660 0.00550687
v -0.00020751 -0.00000660 0.00550628
v -0.00601764 0.01581137 0.00289476
v -0.00555828 0.01667397 0.00274204
v -0.00213813 0.01882309 0.00232441
v -0.00128309 0.01882309 0.00232089
v 0.00000654 0.01882309 0.00233557
v -0.00100653 -0.00000660 0.00826817
v -0.00072761 -0.00000660 0.00829578
v -0.00042805 0.00042838 0.00832103
v -0.00601764 0.00213883 0.00773600
v 0.00000654 -0.00000660 0.00832045
v -0.00601764 0.01667397 0.00276025
v -0.00302914 0.01882309 0.00237140
v 0.00000654 0.01882309 0.00385396
v -0.00042805 -0.00000660 0.00831986
v 0.00000654 0.00042838 0.00832162
v -0.00001410 0.00172781 0.00825231
v -0.00035080 0.00121357 0.00826876
v -0.00090805 0.00087995 0.00825407
v -0.00000702 -0.00000660 0.00832045
v -0.00529764 0.00609240 0.00741998
v -0.00601764 0.00541965 0.00742468
v -0.00601764 0.01750892 0.00292354
v -0.00384761 0.01882309 0.00250239
v 0.00000242 0.01882309 0.00525899
v 0.00000654 0.01881941 0.00525958
v 0.00000654 0.00172781 0.00825231
v -0.00042805 0.00898063 0.00750281
v -0.00042805 0.00812541 0.00758798
v -0.00191405 0.00868941 0.00742116
v -0.00435238 0.00689971 0.00741117
v -0.00517793 0.01198866 0.00654713
v -0.00601764 0.00571271 0.00738944
v -0.00601764 0.01794206 0.00315615
v -0.00597872 0.01795128 0.00312913
v -0.00466845 0.01882309 0.00285600
v -0.00042805 0.01882309 0.00525840
v -0.00000053 0.01710158 0.00568543
v 0.00000006 0.01710158 0.00568543
v 0.00000654 0.01710896 0.00568308
v 0.00000654 0.00898063 0.00750281
v -0.00042805 0.00958150 0.00742821
v -0.00092162 0.00945801 0.00740471
v -0.00042805 0.01000911 0.00735185
v -0.00042805 0.01068924 0.00719736
v -0.00255562 0.01882309 0.00508512
v -0.00601764 0.01667397 0.00530187
v -0.00601764 0.01236651 0.00634683
v -0.00601764 0.01818352 0.00362312
v -0.00506825 0.01882309 0.00327128
v 0.00000654 0.01068924 0.00719736
v 0.00000654 0.00957597 0.00742762
v 0.00000654 0.00979346 0.00738885
v 0.00000654 0.01000358 0.00735126
v 0.00000654 0.01035378 0.00727314
v -0.00297548 0.01882309 0.00503813
v -0.00346963 0.01882309 0.00497528
v -0.00601764 0.01710343 0.00516971
v -0.00601764 0.01818352 0.00395088
v -0.00523219 0.01882309 0.00376292
v -0.00373204 0.01882309 0.00492594
v -0.00601764 0.01745547 0.00501288
v -0.00601764 0.01815403 0.00425221
v -0.00522157 0.01882309 0.00408422
v -0.00523219 0.01882309 0.00398377
v -0.00412182 0.01882309 0.00483020
v -0.00420260 0.01882309 0.00480729
v -0.00530590 0.01805450 0.00489070
v -0.00601764 0.01775038 0.00481728
v -0.00601764 0.01806371 0.00442432
v -0.00505587 0.01882309 0.00431859
v -0.00447739 0.01882309 0.00467160
v -0.00587612 0.01789599 0.00475678
v -0.00601764 0.01787202 0.00468277
f 1 2 6
f 1 6 11
f 1 11 17
f 1 17 16
f 1 16 28
f 1 28 40
f 1 40 51
f 1 51 66
f 1 66 65
f 1 65 76
f 1 76 80
f 1 80 87
f 1 87 92
f 1 92 88
f 1 88 81
f 1 81 77
f 1 77 67
f 1 67 52
f 1 52 41
f 1 41 30
f 1 30 20
f 1 20 12
f 1 12 8
f 1 8 7
f 1 7 3
f 1 3 4
f 1 4 9
f 1 9 13
f 1 13 19
f 1 19 18
f 1 18 29
f 1 29 38
f 1 38 33
f 1 33 26
f 1 26 25
f 1 25 14
f 1 14 10
f 1 10 5
f 1 5 2
f 2 5 6
f 3 7 4
f 4 7 8
f 4 8 9
f 5 10 6
f 6 10 11
f 8 12 9
f 9 12 13
f 10 14 15
f 10 15 16
f 10 16 17
f 10 17 11
f 12 18 19
f 12 19 13
f 12 20 21
f 12 21 22
f 12 22 23
f 12 23 24
f 12 24 18
f 14 25 15
f 15 25 26
f 15 26 27
f 15 27 28
f 15 28 16
f 18 24 32
f 18 32 44
f 18 44 58
f 18 58 69
f 18 69 73
f 18 73 72
f 18 72 71
f 18 71 70
f 18 70 59
f 18 59 45
f 18 45 34
f 18 34 29
f 20 30 21
f 21 30 22
f 22 30 31
f 22 31 42
f 22 42 54
f 22 54 68
f 22 68 78
f 22 78 83
f 22 83 82
f 22 82 89
f 22 89 90
f 22 90 85
f 22 85 84
f 22 84 79
f 22 79 75
f 22 75 74
f 22 74 64
f 22 64 55
f 22 55 43
f 22 43 32
f 22 32 24
f 22 24 23
f 26 33 27
f 27 34 35
f 27 35 36
f 27 36 37
f 27 37 28
f 27 33 38
f 27 38 34
f 28 37 35
f 28 35 39
f 28 39 40
f 29 34 38
f 30 41 42
f 30 42 31
f 32 43 44
f 34 45 35
f 35 37 36
f 35 45 59
f 35 59 46
f 35 46 47
f 35 47 48
f 35 48 39
f 39 48 49
f 39 49 50
f 39 50 51
f 39 51 40
f 41 52 53
f 41 53 54
f 41 54 42
f 43 55 56
f 43 56 57
f 43 57 44
f 44 57 58
f 46 48 47
f 46 59 60
f 46 60 61
f 46 61 48
f 48 61 50
f 48 50 49
f 50 61 62
f 50 62 63
f 50 63 55
f 50 55 64
f 50 64 65
f 50 65 66
f 50 66 51
f 52 67 68
f 52 68 54
f 52 54 53
f 55 63 56
f 56 63 69
f 56 69 57
f 57 69 58
f 59 70 60
f 60 70 71
f 60 71 62
f 60 62 61
f 62 71 72
f 62 72 73
f 62 73 69
f 62 69 63
f 64 74 65
f 65 74 75
f 65 75 76
f 67 77 83
f 67 83 78
f 67 78 68
f 75 79 76
f 76 79 80
f 77 81 82
f 77 82 83
f 79 84 80
f 80 84 85
f 80 85 86
f 80 86 87
f 81 88 89
f 81 89 82
f 85 90 87
f 85 87 86
f 87 91 89
f 87 89 92
f 87 90 91
f 88 92 89
f 89 91 90

