# https://github.com/mikedh/trimesh
v 0.01451500 0.03646278 0.07709066
v 0.01451500 0.03627306 0.07624460
v 0.01451500 0.03644773 0.07760121
v 0.01549184 0.03596589 0.07769832
v 0.01719384 0.03510662 0.07763901
v 0.01719384 0.03510662 0.07727151
v 0.01496574 0.03623391 0.07709066
v 0.02223730 0.03249668 0.07579510
v 0.02265675 0.03222565 0.07457455
v 0.01451500 0.03596188 0.07574684
v 0.01451500 0.03642363 0.07795360
v 0.02266102 0.03222766 0.08051041
v 0.01889016 0.03424434 0.07762622
v 0.01889016 0.03424434 0.07727849
v 0.02223872 0.03249769 0.07623529
v 0.02266529 0.03226882 0.07623529
v 0.02330087 0.03187431 0.07457455
v 0.02057937 0.03337904 0.07709066
v 0.02100736 0.03315720 0.07709066
v 0.02260130 0.03223569 0.07457455
v 0.01451500 0.03574104 0.07560030
v 0.01451500 0.03627708 0.07843507
v 0.02265675 0.03222866 0.08051448
v 0.02334069 0.03185624 0.08051448
v 0.02334495 0.03185424 0.08051041
v 0.02224298 0.03249970 0.07843100
v 0.02057510 0.03337804 0.07765122
v 0.02224298 0.03249970 0.07817573
v 0.02258139 0.03230596 0.07874966
v 0.02334069 0.03185022 0.07457455
v 0.02180504 0.03234611 0.07457455
v 0.01451500 0.03547000 0.07552006
v 0.01451500 0.03618472 0.07866360
v 0.01451500 0.03571393 0.07903284
v 0.02173963 0.03239730 0.08051448
v 0.02334637 0.03185223 0.08051448
v 0.02376441 0.03145572 0.07623529
v 0.02903963 0.02620874 0.07709066
v 0.02550481 0.02977030 0.07709066
v 0.02507682 0.03019893 0.07709066
v 0.02463176 0.03062656 0.07709066
v 0.02336486 0.03182513 0.07457455
v 0.02172826 0.03232101 0.07457455
v 0.01451500 0.03515982 0.07550087
v 0.02100167 0.03198172 0.07457455
v 0.01451500 0.03561656 0.07910320
v 0.01451500 0.03543587 0.07915437
v 0.01451500 0.03508956 0.07924160
v 0.02099172 0.03209917 0.08051448
v 0.02377152 0.03136437 0.08051448
v 0.02893441 0.02620874 0.07794487
v 0.02898276 0.02620874 0.07694006
v 0.02376868 0.03137039 0.07457455
v 0.01451500 0.03457961 0.07571602
v 0.02075426 0.03128908 0.07457455
v 0.02073293 0.03121279 0.07457455
v 0.02106992 0.03051715 0.07457455
v 0.02109978 0.03045792 0.07457455
v 0.01451500 0.03505241 0.07923346
v 0.02109836 0.03044989 0.08051448
v 0.02070450 0.03121179 0.08051448
v 0.02402319 0.03093975 0.08051448
v 0.02850074 0.02620874 0.07851822
v 0.02858321 0.02620874 0.07635566
v 0.02402319 0.03094377 0.07457455
v 0.01451500 0.03408473 0.07614574
v 0.02149507 0.03002728 0.07457455
v 0.01451500 0.03464085 0.07895609
v 0.02147943 0.03001925 0.08051448
v 0.02402604 0.03093474 0.08051448
v 0.02778126 0.02620874 0.07872698
v 0.02413837 0.03035754 0.08051448
v 0.02413837 0.03035252 0.08051448
v 0.02405874 0.02973517 0.08051448
v 0.02852064 0.02620874 0.07631554
v 0.02404310 0.03090663 0.07457455
v 0.01451500 0.03392211 0.07638648
v 0.02189604 0.02974721 0.07457455
v 0.01451500 0.03404458 0.07853102
v 0.01451500 0.03372235 0.07795069
v 0.02190315 0.02972413 0.08051448
v 0.02687267 0.02620874 0.07864499
v 0.02352127 0.02941796 0.08051448
v 0.02351558 0.02941495 0.08051448
v 0.02266671 0.02940090 0.08051448
v 0.02766466 0.02620874 0.07598176
v 0.02414263 0.03035453 0.07457455
v 0.01451500 0.03373841 0.07678771
v 0.02192164 0.02973115 0.07457455
v 0.02595555 0.02620874 0.07647777
v 0.02570245 0.02620874 0.07679236
v 0.01451500 0.03363502 0.07709066
v 0.02569534 0.02620874 0.07791057
v 0.02586739 0.02620874 0.07819375
v 0.02191026 0.02972011 0.08051448
v 0.02629538 0.02620874 0.07850950
v 0.02266102 0.02940190 0.08051448
v 0.02681010 0.02620874 0.07605735
v 0.02266244 0.02942900 0.07457455
v 0.02272643 0.02942499 0.07457455
v 0.02351558 0.02946414 0.07457455
v 0.02356819 0.02948321 0.07457455
v 0.02406727 0.02975926 0.07457455
v 0.02413979 0.03030434 0.07457455
v 0.02196572 0.02970706 0.07457455
v 0.02602522 0.02620874 0.07643067
v 0.02558017 0.02620874 0.07709066
v 0.02620722 0.02620874 0.07845251
f 1 2 10
f 1 10 21
f 1 21 32
f 1 32 44
f 1 44 54
f 1 54 66
f 1 66 77
f 1 77 88
f 1 88 92
f 1 92 80
f 1 80 79
f 1 79 68
f 1 68 59
f 1 59 48
f 1 48 47
f 1 47 46
f 1 46 34
f 1 34 33
f 1 33 22
f 1 22 11
f 1 11 3
f 1 3 4
f 1 4 5
f 1 5 6
f 1 6 7
f 1 7 8
f 1 8 9
f 1 9 2
f 2 9 10
f 3 11 4
f 4 11 12
f 4 12 5
f 5 12 13
f 5 13 14
f 5 14 6
f 6 14 8
f 6 8 7
f 8 15 16
f 8 16 17
f 8 17 9
f 8 14 18
f 8 18 19
f 8 19 15
f 9 17 30
f 9 30 42
f 9 42 53
f 9 53 65
f 9 65 76
f 9 76 87
f 9 87 104
f 9 104 103
f 9 103 102
f 9 102 101
f 9 101 100
f 9 100 99
f 9 99 105
f 9 105 89
f 9 89 78
f 9 78 67
f 9 67 58
f 9 58 57
f 9 57 56
f 9 56 55
f 9 55 45
f 9 45 43
f 9 43 31
f 9 31 20
f 9 20 21
f 9 21 10
f 11 22 23
f 11 23 12
f 12 23 24
f 12 24 25
f 12 25 26
f 12 26 27
f 12 27 13
f 13 27 18
f 13 18 14
f 15 28 16
f 15 19 28
f 16 28 26
f 16 26 29
f 16 29 25
f 16 25 30
f 16 30 17
f 18 27 19
f 19 27 26
f 19 26 28
f 20 31 21
f 21 31 32
f 22 33 23
f 23 33 34
f 23 34 35
f 23 35 49
f 23 49 61
f 23 61 60
f 23 60 69
f 23 69 81
f 23 81 95
f 23 95 97
f 23 97 85
f 23 85 84
f 23 84 83
f 23 83 74
f 23 74 73
f 23 73 72
f 23 72 70
f 23 70 62
f 23 62 50
f 23 50 36
f 23 36 24
f 24 36 25
f 25 37 30
f 25 29 26
f 25 36 38
f 25 38 39
f 25 39 40
f 25 40 41
f 25 41 37
f 30 37 40
f 30 40 39
f 30 39 38
f 30 38 42
f 31 43 32
f 32 43 45
f 32 45 44
f 34 46 35
f 35 46 47
f 35 47 48
f 35 48 49
f 36 50 51
f 36 51 38
f 37 41 40
f 38 51 63
f 38 63 71
f 38 71 82
f 38 82 96
f 38 96 108
f 38 108 94
f 38 94 93
f 38 93 107
f 38 107 91
f 38 91 90
f 38 90 106
f 38 106 98
f 38 98 86
f 38 86 75
f 38 75 64
f 38 64 52
f 38 52 53
f 38 53 42
f 44 45 55
f 44 55 56
f 44 56 57
f 44 57 58
f 44 58 54
f 48 59 60
f 48 60 61
f 48 61 49
f 50 62 63
f 50 63 51
f 52 64 53
f 53 64 65
f 54 58 67
f 54 67 66
f 59 68 69
f 59 69 60
f 62 70 63
f 63 70 72
f 63 72 73
f 63 73 74
f 63 74 71
f 64 75 76
f 64 76 65
f 66 67 77
f 67 78 77
f 68 79 69
f 69 79 80
f 69 80 81
f 71 74 83
f 71 83 84
f 71 84 85
f 71 85 82
f 75 86 87
f 75 87 76
f 77 78 88
f 78 89 90
f 78 90 91
f 78 91 88
f 80 92 93
f 80 93 81
f 81 93 94
f 81 94 95
f 82 85 97
f 82 97 96
f 86 98 99
f 86 99 100
f 86 100 101
f 86 101 102
f 86 102 103
f 86 103 104
f 86 104 87
f 88 91 92
f 89 105 90
f 90 105 106
f 91 107 92
f 92 107 93
f 94 108 95
f 95 108 96
f 95 96 97
f 98 106 105
f 98 105 99

