# https://github.com/mikedh/trimesh
v -0.02621079 -0.02906186 0.01979920
v -0.02977356 -0.02550523 0.02578534
v -0.02934702 -0.02592629 0.01979920
v -0.03019392 -0.02506815 0.00868208
v -0.02621079 -0.02904104 0.01381306
v -0.02621079 -0.02906026 0.04288213
v -0.02977494 -0.02550202 0.06597154
v -0.03019736 -0.02507776 0.02578534
v -0.03019530 -0.02507136 0.01381306
v -0.03019805 -0.02507776 0.04886827
v -0.03062184 -0.02463348 0.00868208
v -0.03061978 -0.02463268 0.00839055
v -0.03019255 -0.02506495 0.00839055
v -0.02621079 -0.02901623 0.00868208
v -0.02621079 -0.02905865 0.05998539
v -0.02621079 -0.02905545 0.06597154
v -0.03019598 -0.02507216 0.07195768
v -0.03103533 -0.02420681 0.03177149
v -0.03103327 -0.02420601 0.00868208
v -0.03062596 -0.02463348 0.04886827
v -0.03062390 -0.02463428 0.07195768
v -0.03075921 -0.02448859 0.00839055
v -0.02621079 -0.02900422 0.00839055
v -0.02621079 -0.02902183 0.07195768
v -0.03185064 -0.02334147 0.07457500
v -0.03146119 -0.02376173 0.02065436
v -0.03146050 -0.02376333 0.04373729
v -0.03145226 -0.02376574 0.00953724
v -0.03146050 -0.02375533 0.00868208
v -0.03131558 -0.02390663 0.00839055
v -0.03103190 -0.02420521 0.00839055
v -0.03145913 -0.02376414 0.06682670
v -0.03145364 -0.02376574 0.07281284
v -0.03103396 -0.02420681 0.07195768
v -0.02621079 -0.02562530 0.00839055
v -0.02621079 -0.02856394 0.07264440
v -0.03137052 -0.02376894 0.07457500
v -0.03182454 -0.02336709 0.07457500
v -0.03184927 -0.02334307 0.05057860
v -0.03187468 -0.02330065 0.07457500
v -0.03231359 -0.02257779 0.07279341
v -0.03226139 -0.02266985 0.07110252
v -0.03226688 -0.02266985 0.06682670
v -0.03226826 -0.02266985 0.05913023
v -0.03226895 -0.02266985 0.03604730
v -0.03227032 -0.02266825 0.01295789
v -0.03185064 -0.02334147 0.01124757
v -0.03184927 -0.02334227 0.01039241
v -0.03145982 -0.02375373 0.00839055
v -0.03017881 -0.02088473 0.00839055
v -0.02621079 -0.02561490 0.00854603
v -0.02621079 -0.02778826 0.07294241
v -0.02975708 -0.02406913 0.07457500
v -0.03030176 -0.02414117 0.07457500
v -0.03035328 -0.02414437 0.07457500
v -0.03090483 -0.02404351 0.07457500
v -0.03094261 -0.02402430 0.07457500
v -0.03222567 -0.02265704 0.07457500
v -0.03315912 -0.02100080 0.07195768
v -0.03273395 -0.02180611 0.07195768
v -0.03249905 -0.02224238 0.07110252
v -0.03249218 -0.02222557 0.07306551
v -0.03250110 -0.02224558 0.06488315
v -0.03250110 -0.02224558 0.06463696
v -0.03250042 -0.02224478 0.01847758
v -0.03273327 -0.02180611 0.00868208
v -0.03265359 -0.02195180 0.00839055
v -0.03249767 -0.02223838 0.00839055
v -0.03231222 -0.02257779 0.00949189
v -0.03225796 -0.02266585 0.00839055
v -0.03184171 -0.02333827 0.00953724
v -0.03183073 -0.02332626 0.00839055
v -0.03320308 -0.02088473 0.00839055
v -0.03016851 -0.02088473 0.00868208
v -0.02621079 -0.02560609 0.00868208
v -0.02621079 -0.02693652 0.07291650
v -0.02942395 -0.02272989 0.07457500
v -0.02946310 -0.02351678 0.07457500
v -0.02948302 -0.02357041 0.07457500
v -0.03223597 -0.02260021 0.07457500
v -0.03304785 -0.02088473 0.07272862
v -0.03321819 -0.02088473 0.07195768
v -0.03322163 -0.02088473 0.07178924
v -0.03322781 -0.02088473 0.03690247
v -0.03273533 -0.02180611 0.03091632
v -0.03315706 -0.02101601 0.01381306
v -0.03320720 -0.02088473 0.00872743
v -0.03273121 -0.02180611 0.00839055
v -0.03322712 -0.02088473 0.01381306
v -0.03233900 -0.02252176 0.00839055
v -0.03301007 -0.02126177 0.00839055
v -0.02621079 -0.02554205 0.01979920
v -0.02621079 -0.02557407 0.01381306
v -0.03016576 -0.02088473 0.04885532
v -0.02942944 -0.02266265 0.07457500
v -0.02621079 -0.02612562 0.07260553
v -0.03234656 -0.02180611 0.07457500
v -0.03298122 -0.02088473 0.07285819
v -0.03016508 -0.02088473 0.07195120
v -0.02621079 -0.02554205 0.04288213
v -0.02970625 -0.02196861 0.07457500
v -0.02621079 -0.02599113 0.07253427
v -0.03232115 -0.02172606 0.07457500
v -0.03265290 -0.02088473 0.07344774
v -0.03016508 -0.02088473 0.07195768
v -0.02621079 -0.02554926 0.06597154
v -0.02972960 -0.02192298 0.07457500
v -0.02621079 -0.02559889 0.07195768
v -0.03198252 -0.02100000 0.07457500
v -0.03165695 -0.02088473 0.07457500
v -0.03029009 -0.02088473 0.07262497
v -0.03002702 -0.02149552 0.07457500
v -0.03089933 -0.02088473 0.07457500
v -0.03051057 -0.02088473 0.07353196
v -0.03045768 -0.02110007 0.07457500
v -0.03051538 -0.02107045 0.07457500
f 1 2 3
f 1 3 4
f 1 4 5
f 1 5 14
f 1 14 23
f 1 23 35
f 1 35 51
f 1 51 75
f 1 75 93
f 1 93 92
f 1 92 100
f 1 100 106
f 1 106 108
f 1 108 102
f 1 102 96
f 1 96 76
f 1 76 52
f 1 52 36
f 1 36 24
f 1 24 16
f 1 16 15
f 1 15 6
f 1 6 7
f 1 7 2
f 2 8 9
f 2 9 4
f 2 4 3
f 2 7 10
f 2 10 8
f 4 9 11
f 4 11 12
f 4 12 13
f 4 13 14
f 4 14 5
f 6 15 7
f 7 15 16
f 7 16 17
f 7 17 10
f 8 18 19
f 8 19 11
f 8 11 9
f 8 10 20
f 8 20 18
f 10 17 21
f 10 21 20
f 11 19 22
f 11 22 12
f 12 22 31
f 12 31 30
f 12 30 49
f 12 49 72
f 12 72 70
f 12 70 90
f 12 90 68
f 12 68 67
f 12 67 88
f 12 88 91
f 12 91 73
f 12 73 50
f 12 50 35
f 12 35 23
f 12 23 13
f 13 23 14
f 16 24 17
f 17 24 25
f 17 25 21
f 18 26 19
f 18 20 27
f 18 27 26
f 19 28 29
f 19 29 30
f 19 30 31
f 19 31 22
f 19 26 28
f 20 21 32
f 20 32 27
f 21 25 33
f 21 33 34
f 21 34 32
f 24 36 37
f 24 37 38
f 24 38 25
f 25 39 27
f 25 27 32
f 25 32 33
f 25 38 37
f 25 37 57
f 25 57 56
f 25 56 55
f 25 55 54
f 25 54 53
f 25 53 79
f 25 79 78
f 25 78 77
f 25 77 95
f 25 95 101
f 25 101 107
f 25 107 112
f 25 112 115
f 25 115 116
f 25 116 113
f 25 113 110
f 25 110 109
f 25 109 103
f 25 103 97
f 25 97 80
f 25 80 58
f 25 58 40
f 25 40 41
f 25 41 42
f 25 42 43
f 25 43 44
f 25 44 45
f 25 45 46
f 25 46 47
f 25 47 39
f 26 47 28
f 26 27 47
f 27 39 47
f 28 47 48
f 28 48 29
f 29 49 30
f 29 48 49
f 32 34 33
f 35 50 51
f 36 52 53
f 36 53 54
f 36 54 55
f 36 55 56
f 36 56 57
f 36 57 37
f 40 58 41
f 41 59 60
f 41 60 61
f 41 61 43
f 41 43 42
f 41 58 62
f 41 62 59
f 43 61 63
f 43 63 44
f 44 63 45
f 45 63 46
f 46 63 64
f 46 64 65
f 46 65 66
f 46 66 67
f 46 67 68
f 46 68 69
f 46 69 70
f 46 70 48
f 46 48 47
f 48 70 71
f 48 71 49
f 49 71 72
f 50 73 87
f 50 87 89
f 50 89 84
f 50 84 83
f 50 83 82
f 50 82 81
f 50 81 98
f 50 98 104
f 50 104 110
f 50 110 113
f 50 113 114
f 50 114 111
f 50 111 105
f 50 105 99
f 50 99 94
f 50 94 74
f 50 74 75
f 50 75 51
f 52 76 77
f 52 77 78
f 52 78 79
f 52 79 53
f 58 80 81
f 58 81 82
f 58 82 59
f 58 59 62
f 59 82 83
f 59 83 60
f 60 63 61
f 60 83 84
f 60 84 63
f 63 84 64
f 64 84 85
f 64 85 65
f 65 85 86
f 65 86 66
f 66 87 88
f 66 88 67
f 66 86 89
f 66 89 87
f 68 90 69
f 69 90 70
f 70 72 71
f 73 91 87
f 74 92 93
f 74 93 75
f 74 94 92
f 76 95 77
f 76 96 95
f 80 97 81
f 81 97 98
f 84 89 86
f 84 86 85
f 87 91 88
f 92 94 99
f 92 99 105
f 92 105 100
f 95 96 101
f 96 102 101
f 97 103 98
f 98 103 104
f 100 105 106
f 101 102 107
f 102 108 107
f 103 109 104
f 104 109 110
f 105 111 112
f 105 112 108
f 105 108 106
f 107 108 112
f 111 114 115
f 111 115 112
f 113 116 114
f 114 116 115

