# https://github.com/mikedh/trimesh
v 0.01442560 0.01326169 0.00431360
v 0.01442560 0.01326169 0.00312696
v 0.01418566 0.01326169 0.00452611
v 0.01442560 0.01148787 0.00501679
v 0.01442560 0.01037342 0.00271696
v 0.01421247 0.01326169 0.00287440
v 0.01375517 0.01326169 0.00487104
v 0.01442560 0.01069922 0.00521985
v 0.01325412 0.01326169 0.00263907
v 0.01413626 0.01326169 0.00283990
v 0.01442560 0.00473004 0.00344184
v 0.01191045 0.00005631 0.00415839
v 0.00000795 0.01273162 0.00395700
v 0.01154348 0.01326169 0.00270694
v 0.01239033 0.01326169 0.00264074
v 0.01239880 0.01326169 0.00264018
v 0.01325835 0.01326169 0.00507409
v 0.01240727 0.01326169 0.00534280
v 0.01410944 0.01068888 0.00531387
v 0.01442560 0.00470418 0.00606434
v 0.01442560 0.00384830 0.00368663
v 0.01275589 0.00005631 0.00423571
v 0.01241856 0.00005631 0.00418954
v 0.00000795 0.00005631 0.00550635
v 0.00000795 0.01283892 0.00394643
v 0.00000795 0.01326169 0.00390637
v 0.01239880 0.01326169 0.00534502
v 0.01325412 0.01154347 0.00539898
v 0.01154348 0.00384830 0.00682762
v 0.01235646 0.00384830 0.00663513
v 0.01278271 0.00384830 0.00652776
v 0.01235646 0.00005631 0.00665015
v 0.01276718 0.00005631 0.00650495
v 0.01442560 0.00416505 0.00601428
v 0.01239880 0.01239935 0.00548299
v 0.00983284 0.00384830 0.00722094
v 0.01068816 0.00384830 0.00702456
v 0.01442560 0.00337899 0.00393641
v 0.01353640 0.00005631 0.00459287
v 0.00000795 0.00005631 0.00832023
v 0.00000795 0.01326169 0.00654000
v 0.01154489 0.01326169 0.00554697
v 0.00934731 0.00325746 0.00738895
v 0.00976086 0.00298078 0.00731218
v 0.01068816 0.00299371 0.00708909
v 0.01154348 0.00299371 0.00686378
v 0.01154348 0.00042866 0.00687435
v 0.01154348 0.00005631 0.00682929
v 0.01323013 0.00005631 0.00609550
v 0.01442560 0.00385994 0.00594640
v 0.01133036 0.01326169 0.00559537
v 0.01076720 0.01326169 0.00572110
v 0.01068534 0.01319188 0.00574891
v 0.01065429 0.01326169 0.00574557
v 0.01442560 0.00312171 0.00440372
v 0.01368884 0.00005631 0.00483654
v 0.01366625 0.00005631 0.00479204
v 0.00005594 0.00005631 0.00832079
v 0.00000795 0.00042866 0.00832134
v 0.00000795 0.01305354 0.00660008
v 0.00042856 0.01326169 0.00654000
v 0.00902833 0.00386252 0.00735334
v 0.00877710 0.00358714 0.00742177
v 0.00812361 0.00299371 0.00753582
v 0.00902833 0.00298078 0.00744013
v 0.00942635 0.00268730 0.00740119
v 0.00984131 0.01326169 0.00587798
v 0.01068816 0.00213913 0.00708965
v 0.01068816 0.00128325 0.00708853
v 0.00867407 0.00042866 0.00742400
v 0.00861620 0.00005631 0.00741120
v 0.01363520 0.00005631 0.00572833
v 0.01442560 0.00350828 0.00579620
v 0.01442560 0.00308421 0.00525712
v 0.01369166 0.00005631 0.00525879
v 0.00042856 0.00005631 0.00832079
v 0.00042856 0.00042866 0.00832190
v 0.00000795 0.00172799 0.00825236
v 0.00042856 0.01239935 0.00677087
v 0.00042856 0.01305354 0.00660008
v 0.00000795 0.01239935 0.00676865
v 0.00813067 0.01326169 0.00602262
v 0.00983284 0.01326169 0.00587909
v 0.00784697 0.00439519 0.00741732
v 0.00812926 0.00386252 0.00744847
v 0.00812361 0.00213913 0.00755473
v 0.00726829 0.00299371 0.00759924
v 0.00001642 0.00172799 0.00825236
v 0.00213920 0.00042866 0.00817225
v 0.00942635 0.00249854 0.00740119
v 0.00878698 0.00128325 0.00744124
v 0.00812361 0.00128325 0.00752135
v 0.00184280 0.00005631 0.00819339
v 0.01442560 0.00337640 0.00571664
v 0.00125141 0.00005631 0.00824735
v 0.00000795 0.00897841 0.00750244
v 0.00000795 0.01112329 0.00708965
v 0.00042856 0.01154347 0.00698506
v 0.00517657 0.01198951 0.00654723
v 0.00898740 0.01326169 0.00595419
v 0.00042856 0.00957184 0.00742622
v 0.00090279 0.00944385 0.00740230
v 0.00186679 0.00868105 0.00742122
v 0.00691261 0.00516703 0.00740619
v 0.00042856 0.00897841 0.00750244
v 0.00900857 0.00218308 0.00744458
v 0.00000795 0.00957701 0.00742733
v 0.00000795 0.01068888 0.00719702
v 0.00042856 0.01068888 0.00719702
v 0.00042856 0.00999849 0.00735056
v 0.00000795 0.00979421 0.00738895
v 0.00122601 0.00897066 0.00743735
v 0.00000795 0.01035403 0.00727323
v 0.00000795 0.01000366 0.00735112
f 1 2 6
f 1 6 10
f 1 10 9
f 1 9 16
f 1 16 15
f 1 15 14
f 1 14 26
f 1 26 41
f 1 41 61
f 1 61 82
f 1 82 100
f 1 100 83
f 1 83 67
f 1 67 54
f 1 54 52
f 1 52 51
f 1 51 42
f 1 42 27
f 1 27 18
f 1 18 17
f 1 17 7
f 1 7 3
f 1 3 4
f 1 4 8
f 1 8 20
f 1 20 34
f 1 34 50
f 1 50 73
f 1 73 94
f 1 94 74
f 1 74 55
f 1 55 38
f 1 38 21
f 1 21 11
f 1 11 5
f 1 5 2
f 2 5 6
f 3 7 4
f 4 7 8
f 5 9 10
f 5 10 6
f 5 11 12
f 5 12 13
f 5 13 14
f 5 14 15
f 5 15 16
f 5 16 9
f 7 17 8
f 8 17 18
f 8 18 19
f 8 19 20
f 11 21 22
f 11 22 23
f 11 23 12
f 12 23 22
f 12 22 39
f 12 39 57
f 12 57 56
f 12 56 75
f 12 75 72
f 12 72 49
f 12 49 33
f 12 33 32
f 12 32 48
f 12 48 71
f 12 71 93
f 12 93 95
f 12 95 76
f 12 76 58
f 12 58 40
f 12 40 24
f 12 24 13
f 13 24 40
f 13 40 59
f 13 59 78
f 13 78 96
f 13 96 107
f 13 107 111
f 13 111 114
f 13 114 113
f 13 113 108
f 13 108 97
f 13 97 81
f 13 81 60
f 13 60 41
f 13 41 26
f 13 26 25
f 13 25 14
f 14 25 26
f 18 27 19
f 19 27 28
f 19 28 20
f 20 29 30
f 20 30 31
f 20 31 32
f 20 32 33
f 20 33 34
f 20 28 35
f 20 35 36
f 20 36 37
f 20 37 29
f 21 38 39
f 21 39 22
f 27 35 28
f 27 42 35
f 29 37 43
f 29 43 44
f 29 44 30
f 30 44 45
f 30 45 31
f 31 45 46
f 31 46 47
f 31 47 32
f 32 47 48
f 33 49 50
f 33 50 34
f 35 42 51
f 35 51 52
f 35 52 53
f 35 53 36
f 36 53 54
f 36 54 43
f 36 43 37
f 38 55 56
f 38 56 57
f 38 57 39
f 40 58 59
f 41 60 80
f 41 80 61
f 43 62 63
f 43 63 64
f 43 64 65
f 43 65 66
f 43 66 44
f 43 54 67
f 43 67 62
f 44 66 45
f 45 66 68
f 45 68 47
f 45 47 46
f 47 68 69
f 47 69 70
f 47 70 71
f 47 71 48
f 49 72 50
f 50 72 73
f 52 54 53
f 55 74 56
f 56 74 75
f 58 76 77
f 58 77 59
f 59 77 78
f 60 79 80
f 60 81 79
f 61 80 82
f 62 67 83
f 62 83 84
f 62 84 63
f 63 84 85
f 63 85 64
f 64 86 65
f 64 85 84
f 64 84 87
f 64 87 88
f 64 88 77
f 64 77 89
f 64 89 86
f 65 86 66
f 66 90 68
f 66 86 90
f 68 90 69
f 69 90 70
f 70 90 91
f 70 91 86
f 70 86 92
f 70 92 93
f 70 93 71
f 72 75 74
f 72 74 94
f 72 94 73
f 76 95 89
f 76 89 77
f 77 88 78
f 78 88 105
f 78 105 96
f 79 81 97
f 79 97 98
f 79 98 99
f 79 99 82
f 79 82 80
f 82 99 100
f 83 100 99
f 83 99 101
f 83 101 102
f 83 102 103
f 83 103 104
f 83 104 84
f 84 104 103
f 84 103 105
f 84 105 87
f 86 91 106
f 86 106 90
f 86 89 93
f 86 93 92
f 87 105 88
f 89 95 93
f 90 106 91
f 96 105 107
f 97 108 109
f 97 109 98
f 98 109 99
f 99 109 110
f 99 110 101
f 101 110 111
f 101 111 107
f 101 107 105
f 101 105 112
f 101 112 103
f 101 103 102
f 103 112 105
f 108 113 109
f 109 113 110
f 110 113 114
f 110 114 111

