# https://github.com/mikedh/trimesh
v 0.01451526 0.03851591 0.08418109
v 0.01451526 0.03851109 0.08443335
v 0.01458426 0.03849783 0.08440403
v 0.01458426 0.03849783 0.08422912
v 0.01451526 0.03844602 0.08368415
v 0.01451526 0.03829300 0.08487721
v 0.01582455 0.03782308 0.08481250
v 0.01641525 0.03770259 0.08454457
v 0.01643039 0.03770861 0.08393085
v 0.01582119 0.03797128 0.08393085
v 0.01490737 0.03833517 0.08393894
v 0.01451526 0.03841590 0.08362198
v 0.01632437 0.03765921 0.08345869
v 0.01451526 0.03787007 0.08535948
v 0.01496627 0.03778091 0.08532611
v 0.01554183 0.03768090 0.08526141
v 0.01611233 0.03755679 0.08511480
v 0.01753101 0.03720014 0.08393085
v 0.01685785 0.03751221 0.08393085
v 0.01787937 0.03672782 0.08515980
v 0.01817051 0.03687000 0.08458956
v 0.01863667 0.03668444 0.08393085
v 0.01820921 0.03688566 0.08393085
v 0.01496627 0.03793634 0.08319480
v 0.01451526 0.03799538 0.08311847
v 0.01582119 0.03776645 0.08334039
v 0.01808131 0.03682541 0.08343291
v 0.02265711 0.03222988 0.08051499
v 0.01451526 0.03719773 0.08558747
v 0.01496627 0.03719773 0.08554956
v 0.01582455 0.03724231 0.08540093
v 0.01667610 0.03699169 0.08534988
v 0.01730886 0.03684951 0.08527657
v 0.01900186 0.03600728 0.08528112
v 0.01957236 0.03585546 0.08513401
v 0.01842799 0.03660732 0.08483929
v 0.01926944 0.03617356 0.08482413
v 0.01982984 0.03600487 0.08456378
v 0.01924083 0.03635791 0.08393085
v 0.01975075 0.03596029 0.08344706
v 0.01451526 0.03613259 0.08159328
v 0.02334036 0.03185757 0.08051499
v 0.02173993 0.03239737 0.08051499
v 0.01451526 0.03593257 0.08148308
v 0.01451526 0.03634345 0.08567493
v 0.01496627 0.03634345 0.08567139
v 0.01582119 0.03634345 0.08564561
v 0.01667610 0.03634345 0.08557686
v 0.01756971 0.03640249 0.08541408
v 0.01838592 0.03616633 0.08535746
v 0.02009742 0.03527590 0.08533976
v 0.02064773 0.03512288 0.08526343
v 0.02121823 0.03495780 0.08506223
v 0.02146898 0.03511564 0.08449199
v 0.02027917 0.03577714 0.08393085
v 0.02139830 0.03507227 0.08348750
v 0.02396303 0.03336371 0.08348548
v 0.02334541 0.03185395 0.08051499
v 0.02099104 0.03209975 0.08051499
v 0.01451526 0.03545423 0.08132485
v 0.01451526 0.03548796 0.08566330
v 0.01496627 0.03548796 0.08567139
v 0.01582119 0.03548796 0.08567847
v 0.01667610 0.03548796 0.08567443
v 0.01753101 0.03548796 0.08565168
v 0.01838592 0.03548796 0.08558495
v 0.01926944 0.03553737 0.08541357
v 0.02094055 0.03465658 0.08539234
v 0.02180724 0.03435173 0.08529932
v 0.02225153 0.03421678 0.08522349
v 0.02188802 0.03483008 0.08393085
v 0.02146057 0.03511083 0.08393085
v 0.02095233 0.03540001 0.08393085
v 0.02242318 0.03433125 0.08478621
v 0.02402698 0.03341070 0.08449553
v 0.02296002 0.03411919 0.08393085
v 0.02351538 0.03374687 0.08393085
v 0.02402025 0.03340588 0.08393085
v 0.02444939 0.03308176 0.08393085
v 0.02500138 0.03265401 0.08393085
v 0.02542883 0.03231905 0.08393085
v 0.02597241 0.03189130 0.08393085
v 0.02639986 0.03155393 0.08393085
v 0.02490209 0.03257569 0.08341622
v 0.02377118 0.03136596 0.08051499
v 0.02583609 0.03178286 0.08336415
v 0.02673813 0.03098762 0.08332270
v 0.02906557 0.02906699 0.08354362
v 0.03016282 0.02761869 0.08330905
v 0.03098575 0.02674031 0.08332270
v 0.02070495 0.03121173 0.08051499
v 0.01451526 0.03503130 0.08130715
v 0.01451526 0.03463248 0.08556927
v 0.01496627 0.03463248 0.08560669
v 0.02779162 0.02620774 0.08565421
v 0.02864653 0.02620774 0.08567645
v 0.01753101 0.03463248 0.08567898
v 0.01838592 0.03463248 0.08567493
v 0.02009742 0.03377699 0.08567139
v 0.01924083 0.03463248 0.08564612
v 0.02095233 0.03377699 0.08563044
v 0.02009742 0.03463248 0.08556321
v 0.02180724 0.03377699 0.08550861
v 0.02258642 0.03374446 0.08533370
v 0.02323097 0.03343721 0.08527607
v 0.02476914 0.03247087 0.08518710
v 0.02380147 0.03324683 0.08506577
v 0.02496604 0.03262630 0.08461686
v 0.02736416 0.03078640 0.08436005
v 0.02736416 0.03078640 0.08435449
v 0.02698888 0.03105871 0.08401427
v 0.02730863 0.03073459 0.08378425
v 0.02402361 0.03094063 0.08051499
v 0.03120621 0.02620774 0.08317205
v 0.02818710 0.02990079 0.08365736
v 0.02777647 0.03034420 0.08400618
v 0.02824263 0.02995260 0.08422760
v 0.02911774 0.02911880 0.08411385
v 0.02995077 0.02824404 0.08422760
v 0.02990028 0.02818861 0.08365736
v 0.03073332 0.02731023 0.08378425
v 0.03163030 0.02620774 0.08373673
v 0.02109874 0.03045023 0.08051499
v 0.01451526 0.03433727 0.08160188
v 0.02110379 0.03044421 0.08051499
v 0.02148076 0.03001887 0.08051499
v 0.01451526 0.03389266 0.08534533
v 0.02693671 0.02620774 0.08557130
v 0.02950144 0.02620774 0.08565572
v 0.02864653 0.02693792 0.08567089
v 0.02779162 0.02779220 0.08567291
v 0.02522520 0.02950317 0.08567796
v 0.01924083 0.03377699 0.08567847
v 0.02437029 0.03035866 0.08567796
v 0.02095233 0.03292271 0.08567695
v 0.02266215 0.03206843 0.08567342
v 0.02180724 0.03292271 0.08565774
v 0.02351538 0.03206843 0.08562741
v 0.02266215 0.03292271 0.08558242
v 0.02351538 0.03294560 0.08539841
v 0.02419864 0.03267570 0.08531398
v 0.02569641 0.03167442 0.08523916
v 0.02629552 0.03146115 0.08478621
v 0.02586807 0.03181058 0.08478621
v 0.02690473 0.03098401 0.08470128
v 0.02717063 0.03060326 0.08493029
v 0.02824263 0.02995260 0.08440454
v 0.02402530 0.03093581 0.08051499
v 0.03053305 0.02620774 0.08277622
v 0.02943244 0.02620774 0.08224744
v 0.02911774 0.02911880 0.08444750
v 0.02995077 0.02824404 0.08440454
v 0.03078549 0.02736566 0.08435449
v 0.03034289 0.02777774 0.08400567
v 0.03105643 0.02698973 0.08401427
v 0.03155289 0.02640173 0.08393085
v 0.03170603 0.02620774 0.08393085
v 0.01451526 0.03414328 0.08174292
v 0.01451526 0.03349745 0.08262052
v 0.01451526 0.03378422 0.08219840
v 0.01451526 0.03402279 0.08187486
v 0.02190485 0.02972367 0.08051499
v 0.01451526 0.03348420 0.08500763
v 0.01471721 0.03344684 0.08510267
v 0.02589331 0.02620774 0.08532763
v 0.02609694 0.02620774 0.08538425
v 0.03035298 0.02620774 0.08553996
v 0.02950144 0.02693792 0.08558647
v 0.02864653 0.02779220 0.08559809
v 0.02779162 0.02864769 0.08559809
v 0.02693671 0.02864769 0.08567089
v 0.02351538 0.03121294 0.08567645
v 0.02608011 0.02950317 0.08566785
v 0.02522520 0.03035866 0.08565977
v 0.02437029 0.03121294 0.08564662
v 0.02608011 0.03035866 0.08557130
v 0.02522520 0.03121294 0.08553389
v 0.02443929 0.03213952 0.08543480
v 0.02522520 0.03186118 0.08532157
v 0.02602121 0.03117438 0.08533926
v 0.02660013 0.03086472 0.08526697
v 0.02804573 0.02976825 0.08497477
v 0.02858426 0.02944413 0.08471088
v 0.02413805 0.03035745 0.08051499
v 0.02868523 0.02620774 0.08192896
v 0.02831668 0.02620774 0.08178791
v 0.02892421 0.02892602 0.08501724
v 0.02944254 0.02858503 0.08471088
v 0.03060205 0.02717167 0.08493029
v 0.03078549 0.02736566 0.08436005
v 0.03153269 0.02620774 0.08478621
v 0.01451526 0.03340708 0.08279493
v 0.02551634 0.02620774 0.08254520
v 0.02191158 0.02972005 0.08051499
v 0.02598082 0.02620774 0.08218222
v 0.02579066 0.02620774 0.08232074
v 0.01451526 0.03334684 0.08479126
v 0.02523193 0.02620774 0.08479581
v 0.02534974 0.02620774 0.08490248
v 0.02552981 0.02639812 0.08527253
v 0.03107326 0.02620774 0.08531601
v 0.03033279 0.02690659 0.08536605
v 0.02948966 0.02777533 0.08537919
v 0.02864148 0.02864407 0.08538627
v 0.02693671 0.02950317 0.08558647
v 0.02777311 0.02949112 0.08537919
v 0.02690473 0.03033456 0.08536554
v 0.02747691 0.03003333 0.08527657
v 0.02413805 0.03035263 0.08051499
v 0.02777311 0.02620774 0.08170046
v 0.02405896 0.02973572 0.08051499
v 0.02919683 0.02835610 0.08528567
v 0.03003155 0.02747772 0.08527657
v 0.03086290 0.02660174 0.08526697
v 0.02976734 0.02804764 0.08497477
v 0.02835539 0.02919833 0.08528567
v 0.03146033 0.02629811 0.08478621
v 0.03098239 0.02690659 0.08470128
v 0.01451526 0.03330346 0.08304162
v 0.02516462 0.02620774 0.08303505
v 0.02266215 0.02940196 0.08051499
v 0.02654123 0.02620774 0.08182532
v 0.02605655 0.02620774 0.08213117
v 0.01451526 0.03323117 0.08460422
v 0.02513601 0.02620774 0.08468460
v 0.02772430 0.02620774 0.08169489
v 0.02352043 0.02941762 0.08051499
v 0.01451526 0.03323117 0.08323373
v 0.02512928 0.02620774 0.08309673
v 0.02266888 0.02940075 0.08051499
v 0.02687276 0.02620774 0.08172371
v 0.02682395 0.02620774 0.08173584
v 0.01451526 0.03311188 0.08393085
v 0.02489535 0.02620774 0.08393085
v 0.02471697 0.02643547 0.08448340
v 0.02351538 0.02941521 0.08051499
v 0.01451526 0.03318056 0.08345919
v 0.02508216 0.02620774 0.08318570
v 0.02493743 0.02620774 0.08365180
f 1 2 3
f 1 3 4
f 1 4 5
f 1 5 12
f 1 12 25
f 1 25 41
f 1 41 44
f 1 44 60
f 1 60 92
f 1 92 124
f 1 124 158
f 1 158 161
f 1 161 160
f 1 160 159
f 1 159 192
f 1 192 219
f 1 219 228
f 1 228 237
f 1 237 233
f 1 233 224
f 1 224 197
f 1 197 163
f 1 163 127
f 1 127 93
f 1 93 61
f 1 61 45
f 1 45 29
f 1 29 14
f 1 14 6
f 1 6 2
f 2 6 7
f 2 7 3
f 3 7 8
f 3 8 9
f 3 9 10
f 3 10 4
f 4 10 11
f 4 11 5
f 5 11 10
f 5 10 13
f 5 13 12
f 6 14 15
f 6 15 16
f 6 16 17
f 6 17 7
f 7 17 8
f 8 18 19
f 8 19 9
f 8 17 20
f 8 20 21
f 8 21 22
f 8 22 23
f 8 23 18
f 9 13 10
f 9 19 13
f 12 24 25
f 12 13 26
f 12 26 24
f 13 19 18
f 13 18 23
f 13 23 22
f 13 22 27
f 13 27 28
f 13 28 26
f 14 29 30
f 14 30 15
f 15 30 31
f 15 31 16
f 16 31 32
f 16 32 33
f 16 33 20
f 16 20 17
f 20 33 34
f 20 34 35
f 20 35 36
f 20 36 21
f 21 36 37
f 21 37 38
f 21 38 22
f 22 38 39
f 22 39 40
f 22 40 27
f 24 26 28
f 24 28 25
f 25 28 41
f 27 40 28
f 28 42 58
f 28 58 85
f 28 85 113
f 28 113 148
f 28 148 184
f 28 184 209
f 28 209 211
f 28 211 227
f 28 227 236
f 28 236 230
f 28 230 221
f 28 221 194
f 28 194 162
f 28 162 126
f 28 126 125
f 28 125 123
f 28 123 91
f 28 91 59
f 28 59 43
f 28 43 44
f 28 44 41
f 28 40 42
f 29 45 46
f 29 46 47
f 29 47 48
f 29 48 30
f 30 48 31
f 31 48 49
f 31 49 32
f 32 49 50
f 32 50 33
f 33 50 34
f 34 50 51
f 34 51 52
f 34 52 35
f 35 38 37
f 35 37 36
f 35 52 53
f 35 53 54
f 35 54 38
f 38 54 39
f 39 54 55
f 39 55 56
f 39 56 40
f 40 56 42
f 42 57 58
f 42 56 57
f 43 59 60
f 43 60 44
f 45 61 62
f 45 62 63
f 45 63 64
f 45 64 46
f 46 64 65
f 46 65 47
f 47 65 66
f 47 66 48
f 48 66 49
f 49 66 50
f 50 66 67
f 50 67 51
f 51 67 68
f 51 68 52
f 52 68 69
f 52 69 70
f 52 70 53
f 53 70 54
f 54 71 72
f 54 72 73
f 54 73 55
f 54 70 74
f 54 74 75
f 54 75 76
f 54 76 71
f 55 73 56
f 56 73 72
f 56 72 71
f 56 71 76
f 56 76 57
f 57 76 77
f 57 77 78
f 57 78 79
f 57 79 80
f 57 80 81
f 57 81 82
f 57 82 83
f 57 83 84
f 57 84 58
f 58 84 86
f 58 86 87
f 58 87 88
f 58 88 89
f 58 89 90
f 58 90 85
f 59 91 92
f 59 92 60
f 61 93 94
f 61 94 95
f 61 95 96
f 61 96 62
f 62 96 63
f 63 97 98
f 63 98 64
f 63 96 97
f 64 98 65
f 65 98 99
f 65 99 100
f 65 100 66
f 66 100 101
f 66 101 102
f 66 102 67
f 67 102 68
f 68 103 69
f 68 102 103
f 69 103 104
f 69 104 105
f 69 105 70
f 70 105 106
f 70 106 107
f 70 107 75
f 70 75 74
f 75 107 106
f 75 106 108
f 75 108 109
f 75 109 82
f 75 82 81
f 75 81 80
f 75 80 79
f 75 79 78
f 75 78 77
f 75 77 76
f 82 109 83
f 83 86 84
f 83 109 110
f 83 110 111
f 83 111 112
f 83 112 86
f 85 90 114
f 85 114 113
f 86 112 87
f 87 112 115
f 87 115 88
f 88 115 116
f 88 116 117
f 88 117 118
f 88 118 119
f 88 119 120
f 88 120 90
f 88 90 89
f 90 120 121
f 90 121 122
f 90 122 114
f 91 123 92
f 92 123 125
f 92 125 126
f 92 126 124
f 93 127 128
f 93 128 95
f 93 95 94
f 95 128 166
f 95 166 165
f 95 165 199
f 95 199 198
f 95 198 225
f 95 225 234
f 95 234 239
f 95 239 238
f 95 238 229
f 95 229 220
f 95 220 193
f 95 193 196
f 95 196 195
f 95 195 223
f 95 223 222
f 95 222 232
f 95 232 231
f 95 231 226
f 95 226 210
f 95 210 186
f 95 186 185
f 95 185 150
f 95 150 149
f 95 149 114
f 95 114 122
f 95 122 157
f 95 157 191
f 95 191 201
f 95 201 167
f 95 167 129
f 95 129 96
f 96 129 130
f 96 130 131
f 96 131 132
f 96 132 97
f 97 133 98
f 97 132 134
f 97 134 133
f 98 133 135
f 98 135 136
f 98 136 99
f 99 137 100
f 99 136 137
f 100 137 101
f 101 137 138
f 101 138 139
f 101 139 102
f 102 139 103
f 103 139 140
f 103 140 104
f 104 140 105
f 105 140 141
f 105 141 106
f 106 141 142
f 106 142 143
f 106 143 144
f 106 144 108
f 108 144 109
f 109 144 143
f 109 143 145
f 109 145 146
f 109 146 147
f 109 147 117
f 109 117 110
f 110 112 111
f 110 117 116
f 110 116 112
f 112 116 115
f 113 114 149
f 113 149 150
f 113 150 148
f 117 147 151
f 117 151 118
f 118 151 152
f 118 152 119
f 119 152 190
f 119 190 153
f 119 153 154
f 119 154 120
f 120 154 121
f 121 153 155
f 121 155 156
f 121 156 122
f 121 154 153
f 122 156 157
f 124 126 158
f 126 159 160
f 126 160 161
f 126 161 158
f 126 162 159
f 127 163 164
f 127 164 165
f 127 165 166
f 127 166 128
f 129 167 168
f 129 168 169
f 129 169 130
f 130 169 131
f 131 169 170
f 131 170 171
f 131 171 172
f 131 172 134
f 131 134 132
f 133 134 135
f 134 172 135
f 135 172 136
f 136 172 171
f 136 171 173
f 136 173 174
f 136 174 175
f 136 175 137
f 137 175 138
f 138 175 176
f 138 176 177
f 138 177 139
f 139 177 178
f 139 178 140
f 140 178 141
f 141 178 179
f 141 179 142
f 142 180 181
f 142 181 146
f 142 146 143
f 142 179 180
f 143 146 145
f 146 181 182
f 146 182 183
f 146 183 147
f 147 183 151
f 148 150 185
f 148 185 186
f 148 186 184
f 151 183 187
f 151 187 188
f 151 188 152
f 152 189 190
f 152 188 189
f 153 190 156
f 153 156 155
f 156 190 157
f 157 190 191
f 159 162 193
f 159 193 192
f 162 194 195
f 162 195 196
f 162 196 193
f 163 197 198
f 163 198 199
f 163 199 200
f 163 200 165
f 163 165 164
f 165 200 199
f 167 201 202
f 167 202 203
f 167 203 168
f 168 203 204
f 168 204 169
f 169 204 170
f 170 205 174
f 170 174 173
f 170 173 171
f 170 204 205
f 174 205 175
f 175 205 176
f 176 205 206
f 176 206 207
f 176 207 177
f 177 179 178
f 177 207 180
f 177 180 179
f 180 207 181
f 181 207 208
f 181 208 187
f 181 187 182
f 182 187 183
f 184 186 209
f 186 210 211
f 186 211 209
f 187 212 213
f 187 213 214
f 187 214 215
f 187 215 188
f 187 208 216
f 187 216 212
f 188 215 189
f 189 215 214
f 189 214 217
f 189 217 218
f 189 218 190
f 190 218 217
f 190 217 191
f 191 217 214
f 191 214 201
f 192 193 220
f 192 220 219
f 194 221 222
f 194 222 223
f 194 223 195
f 197 224 198
f 198 224 225
f 201 214 202
f 202 213 212
f 202 212 203
f 202 214 213
f 203 212 204
f 204 216 206
f 204 206 205
f 204 212 216
f 206 216 207
f 207 216 208
f 210 226 227
f 210 227 211
f 219 220 229
f 219 229 228
f 221 230 231
f 221 231 232
f 221 232 222
f 224 233 234
f 224 234 235
f 224 235 225
f 225 235 234
f 226 231 230
f 226 230 236
f 226 236 227
f 228 229 238
f 228 238 237
f 233 237 239
f 233 239 234
f 237 238 239

