# https://github.com/mikedh/trimesh
v 0.03239968 -0.01604967 0.08393095
v 0.03240310 -0.01604967 0.08390189
v 0.03240310 -0.01604967 0.08396702
v 0.03617313 0.00005502 0.08393095
v 0.03249894 -0.01604967 0.08328616
v 0.03244845 -0.01604967 0.08442882
v 0.03639560 0.00005502 0.08478620
v 0.03632287 0.00005502 0.08307571
v 0.03263584 -0.01604967 0.08295407
v 0.03694322 0.00005502 0.08018220
v 0.03249295 -0.01604967 0.08454992
v 0.03656930 0.00005502 0.08505962
v 0.03263841 -0.01604967 0.08478136
v 0.03306367 -0.01604967 0.08232219
v 0.03500173 -0.01175551 0.08018220
v 0.03497093 -0.01199985 0.08018220
v 0.03946141 0.00005502 0.08018220
v 0.03670363 0.00005502 0.08527061
v 0.03270515 -0.01604967 0.08488362
v 0.03350519 -0.01604967 0.08190237
v 0.03494013 -0.01239869 0.08018220
v 0.03494612 -0.01268717 0.08018220
v 0.03498376 -0.01309074 0.08018220
v 0.04106406 0.00005502 0.08347615
v 0.04106406 -0.00042894 0.08347615
v 0.03946056 -0.00024292 0.08018220
v 0.03698258 0.00005502 0.08538417
v 0.03298752 -0.01604967 0.08521840
v 0.03312357 -0.01604967 0.08532013
v 0.03391419 -0.01604967 0.08170215
v 0.03524046 -0.01337292 0.08018220
v 0.04109743 0.00005502 0.08367422
v 0.03945970 -0.00042894 0.08018220
v 0.04113936 -0.00042894 0.08393095
v 0.04105294 -0.00103586 0.08349284
v 0.03719820 0.00005502 0.08547190
v 0.03355567 -0.01604967 0.08547083
v 0.03465006 -0.01604967 0.08167201
v 0.03544839 -0.01345962 0.08018220
v 0.03637164 -0.01352898 0.08018220
v 0.04113936 0.00005502 0.08393095
v 0.04104181 -0.00160653 0.08353159
v 0.04103069 -0.00213936 0.08360587
v 0.04038039 -0.00641460 0.08327378
v 0.04030424 -0.00726902 0.08335505
v 0.03764143 -0.01201247 0.08018220
v 0.04106748 -0.00299378 0.08418823
v 0.04108802 -0.00213936 0.08403322
v 0.04109743 -0.00130543 0.08386260
v 0.04112224 -0.00042894 0.08456445
v 0.04110513 -0.00128336 0.08452139
v 0.04108802 -0.00213936 0.08447618
v 0.04106748 -0.00299378 0.08441913
v 0.03768079 0.00005502 0.08557040
v 0.03377814 -0.01604967 0.08553272
v 0.03485884 -0.01604967 0.08172852
v 0.03676610 -0.01327360 0.08018220
v 0.03676781 -0.01604967 0.08270380
v 0.03666256 -0.01604967 0.08264351
v 0.03563577 -0.01604967 0.08207514
v 0.03528239 -0.01604967 0.08188192
v 0.04112224 0.00005502 0.08456445
v 0.04100844 -0.00299378 0.08376034
v 0.04075003 -0.00555861 0.08393095
v 0.04063195 -0.00641460 0.08393095
v 0.04023921 -0.00795004 0.08343632
v 0.03939981 -0.01135195 0.08341856
v 0.03932194 -0.01192261 0.08359510
v 0.03855955 -0.01390417 0.08340295
v 0.03771759 -0.01604967 0.08339434
v 0.03756614 -0.01217799 0.08018220
v 0.04018445 -0.00851912 0.08354558
v 0.04105208 -0.00347301 0.08430772
v 0.04103069 0.00005502 0.08475068
v 0.04091175 -0.00042894 0.08499234
v 0.04087667 -0.00213936 0.08490353
v 0.04085443 -0.00299378 0.08484648
v 0.04105208 -0.00347301 0.08437607
v 0.03805301 0.00005502 0.08564629
v 0.03440363 -0.01604967 0.08563391
v 0.03701766 -0.01309862 0.08018220
v 0.03716826 -0.01604967 0.08297129
v 0.04096994 -0.00379460 0.08398585
v 0.04085357 -0.00470419 0.08393095
v 0.04048050 -0.00726902 0.08393095
v 0.04022295 -0.00871302 0.08444658
v 0.03994486 -0.00983386 0.08393095
v 0.03971041 -0.01068827 0.08393095
v 0.03936130 -0.01206134 0.08416508
v 0.03923296 -0.01236716 0.08390028
v 0.03894203 -0.01325311 0.08393095
v 0.03845687 -0.01447483 0.08365861
v 0.03797172 -0.01581952 0.08393095
v 0.03787246 -0.01604967 0.08393095
v 0.03744463 -0.01244125 0.08018220
v 0.04022295 -0.00871302 0.08411557
v 0.04013396 -0.00899047 0.08387067
v 0.04091175 0.00005502 0.08499234
v 0.04072608 0.00005502 0.08516727
v 0.04048478 -0.00042894 0.08539440
v 0.04046681 -0.00128336 0.08539009
v 0.04044884 -0.00213936 0.08538525
v 0.04042660 -0.00299378 0.08537664
v 0.04089379 -0.00128336 0.08494875
v 0.04038724 -0.00384819 0.08535834
v 0.04029397 -0.00555861 0.08530398
v 0.04024691 -0.00641460 0.08526576
v 0.04021097 -0.00696004 0.08523347
v 0.04084416 -0.00379460 0.08471139
v 0.04060372 -0.00555861 0.08478620
v 0.04049847 -0.00641460 0.08478620
v 0.04028199 -0.00812344 0.08459298
v 0.03890866 0.00005502 0.08568020
v 0.03463380 -0.01604967 0.08565329
v 0.04014680 -0.00753071 0.08515327
v 0.04000818 -0.00899047 0.08475337
v 0.03979427 -0.00983386 0.08478620
v 0.03954099 -0.01073241 0.08485402
v 0.03943489 -0.01154427 0.08460213
v 0.03936130 -0.01206134 0.08442774
v 0.03849795 -0.01458361 0.08422860
v 0.03833537 -0.01490677 0.08393849
v 0.03849795 -0.01458361 0.08440460
v 0.03786818 -0.01604967 0.08416778
v 0.04048478 0.00005502 0.08539440
v 0.04017076 0.00005502 0.08549666
v 0.03976346 -0.00042894 0.08562907
v 0.03976346 -0.00128336 0.08562476
v 0.03976346 -0.00213936 0.08561884
v 0.03976346 -0.00299378 0.08560861
v 0.03976346 -0.00384819 0.08558816
v 0.03976346 -0.00470419 0.08555910
v 0.03976346 -0.00555861 0.08552734
v 0.03976346 -0.00641460 0.08548267
v 0.04033846 -0.00470419 0.08533250
v 0.03964709 -0.00812344 0.08539547
v 0.03955383 -0.00897786 0.08536534
v 0.04034360 -0.00725483 0.08483518
v 0.03945885 -0.00983386 0.08531313
v 0.03938526 -0.01047861 0.08525769
v 0.03890866 -0.00042894 0.08568020
v 0.03976346 0.00005502 0.08562907
v 0.03525928 -0.01604967 0.08567589
v 0.03548860 -0.01581952 0.08567858
v 0.03931168 -0.01104770 0.08518395
v 0.03847570 -0.01367086 0.08520817
v 0.03873924 -0.01333350 0.08486855
v 0.03858522 -0.01410910 0.08460266
v 0.03782283 -0.01582267 0.08481204
v 0.03777748 -0.01604967 0.08470977
v 0.03890866 -0.00213936 0.08567912
v 0.03890866 -0.00299378 0.08567804
v 0.03890866 -0.00384819 0.08567643
v 0.03890866 -0.00470419 0.08567428
v 0.03890866 -0.00555861 0.08567105
v 0.03890866 -0.00641460 0.08566513
v 0.03890866 -0.00726902 0.08565060
v 0.03890866 -0.00812344 0.08562961
v 0.03890866 -0.00897786 0.08559570
v 0.03890866 -0.00983386 0.08553649
v 0.03880085 -0.01154427 0.08539332
v 0.03866565 -0.01239869 0.08534435
v 0.03856126 -0.01310019 0.08527868
v 0.03805301 -0.00812344 0.08567912
v 0.03548860 -0.01604967 0.08567751
v 0.03634426 -0.01410910 0.08567804
v 0.03719820 -0.01154427 0.08567858
v 0.03778176 -0.01496352 0.08532604
v 0.03768079 -0.01554049 0.08526146
v 0.03757041 -0.01604967 0.08513067
v 0.03761405 -0.01604967 0.08504939
v 0.03805301 -0.00897786 0.08567697
v 0.03805301 -0.00983386 0.08567105
v 0.03805301 -0.01068827 0.08565598
v 0.03805301 -0.01154427 0.08562692
v 0.03805301 -0.01239869 0.08557148
v 0.03813600 -0.01333350 0.08542131
v 0.03795033 -0.01410910 0.08538902
v 0.03611409 -0.01604967 0.08565329
v 0.03634426 -0.01496352 0.08567159
v 0.03719820 -0.01239869 0.08567428
v 0.03719820 -0.01496352 0.08554941
v 0.03724184 -0.01582267 0.08540086
v 0.03717596 -0.01604967 0.08538740
v 0.03719820 -0.01325311 0.08565867
v 0.03719820 -0.01410910 0.08562153
v 0.03634426 -0.01604967 0.08562692
v 0.03634426 -0.01581952 0.08564575
v 0.03700397 -0.01604967 0.08544768
f 1 2 5
f 1 5 9
f 1 9 14
f 1 14 20
f 1 20 30
f 1 30 38
f 1 38 56
f 1 56 61
f 1 61 60
f 1 60 59
f 1 59 58
f 1 58 82
f 1 82 70
f 1 70 94
f 1 94 124
f 1 124 150
f 1 150 171
f 1 171 170
f 1 170 184
f 1 184 189
f 1 189 187
f 1 187 179
f 1 179 165
f 1 165 143
f 1 143 114
f 1 114 80
f 1 80 55
f 1 55 37
f 1 37 29
f 1 29 28
f 1 28 19
f 1 19 13
f 1 13 11
f 1 11 6
f 1 6 3
f 1 3 4
f 1 4 2
f 2 4 5
f 3 6 4
f 4 7 12
f 4 12 18
f 4 18 27
f 4 27 36
f 4 36 54
f 4 54 79
f 4 79 113
f 4 113 142
f 4 142 126
f 4 126 125
f 4 125 99
f 4 99 98
f 4 98 74
f 4 74 62
f 4 62 41
f 4 41 32
f 4 32 24
f 4 24 17
f 4 17 10
f 4 10 8
f 4 8 5
f 4 6 7
f 5 8 10
f 5 10 9
f 6 11 7
f 7 11 13
f 7 13 12
f 9 10 15
f 9 15 16
f 9 16 14
f 10 17 26
f 10 26 33
f 10 33 46
f 10 46 71
f 10 71 95
f 10 95 81
f 10 81 57
f 10 57 40
f 10 40 39
f 10 39 31
f 10 31 23
f 10 23 22
f 10 22 21
f 10 21 16
f 10 16 15
f 12 13 18
f 13 19 18
f 14 16 21
f 14 21 22
f 14 22 23
f 14 23 20
f 17 24 25
f 17 25 26
f 18 19 28
f 18 28 29
f 18 29 27
f 20 23 30
f 23 31 30
f 24 32 25
f 25 33 26
f 25 32 34
f 25 34 35
f 25 35 33
f 27 29 36
f 29 37 36
f 30 31 39
f 30 39 40
f 30 40 38
f 32 41 34
f 33 35 42
f 33 42 43
f 33 43 44
f 33 44 45
f 33 45 46
f 34 47 48
f 34 48 49
f 34 49 42
f 34 42 35
f 34 41 62
f 34 62 50
f 34 50 51
f 34 51 52
f 34 52 53
f 34 53 47
f 36 37 55
f 36 55 54
f 38 40 56
f 40 57 58
f 40 58 59
f 40 59 60
f 40 60 61
f 40 61 56
f 42 49 48
f 42 48 43
f 43 48 47
f 43 47 63
f 43 63 44
f 44 63 45
f 45 63 64
f 45 64 65
f 45 65 66
f 45 66 46
f 46 67 68
f 46 68 69
f 46 69 70
f 46 70 71
f 46 66 72
f 46 72 67
f 47 53 78
f 47 78 73
f 47 73 63
f 50 62 74
f 50 74 75
f 50 75 51
f 51 75 52
f 52 75 76
f 52 76 53
f 53 76 77
f 53 77 78
f 54 55 79
f 55 80 79
f 57 81 58
f 58 81 82
f 63 73 83
f 63 83 84
f 63 84 64
f 64 84 73
f 64 73 65
f 65 85 72
f 65 72 66
f 65 73 78
f 65 78 86
f 65 86 85
f 67 72 68
f 68 87 88
f 68 88 89
f 68 89 90
f 68 90 91
f 68 91 92
f 68 92 69
f 68 72 87
f 69 92 70
f 70 92 93
f 70 93 94
f 70 82 81
f 70 81 95
f 70 95 71
f 72 85 96
f 72 96 97
f 72 97 87
f 73 84 83
f 74 98 75
f 75 98 99
f 75 99 100
f 75 100 101
f 75 101 102
f 75 102 103
f 75 103 104
f 75 104 76
f 76 104 105
f 76 105 77
f 77 105 106
f 77 106 107
f 77 107 108
f 77 108 109
f 77 109 78
f 78 109 110
f 78 110 111
f 78 111 112
f 78 112 86
f 79 80 114
f 79 114 113
f 85 86 96
f 86 112 115
f 86 115 116
f 86 116 117
f 86 117 118
f 86 118 119
f 86 119 120
f 86 120 87
f 86 87 96
f 87 120 89
f 87 89 88
f 87 97 96
f 89 120 123
f 89 123 121
f 89 121 91
f 89 91 90
f 91 121 92
f 92 121 122
f 92 122 93
f 93 122 121
f 93 121 123
f 93 123 94
f 94 123 124
f 99 125 100
f 100 125 126
f 100 126 127
f 100 127 128
f 100 128 129
f 100 129 130
f 100 130 101
f 101 130 102
f 102 130 103
f 103 130 131
f 103 131 132
f 103 132 133
f 103 133 105
f 103 105 104
f 105 133 134
f 105 134 135
f 105 135 106
f 106 135 134
f 106 134 107
f 107 134 136
f 107 136 137
f 107 137 108
f 108 138 111
f 108 111 110
f 108 110 109
f 108 137 139
f 108 139 140
f 108 140 115
f 108 115 138
f 111 138 112
f 112 138 115
f 113 141 127
f 113 127 142
f 113 114 143
f 113 143 144
f 113 144 141
f 115 140 145
f 115 145 116
f 116 145 117
f 117 145 118
f 118 145 119
f 119 145 120
f 120 145 146
f 120 146 147
f 120 147 148
f 120 148 123
f 123 148 146
f 123 146 149
f 123 149 150
f 123 150 124
f 126 142 127
f 127 141 151
f 127 151 152
f 127 152 153
f 127 153 154
f 127 154 155
f 127 155 128
f 128 155 156
f 128 156 129
f 129 156 130
f 130 156 157
f 130 157 131
f 131 157 158
f 131 158 132
f 132 158 133
f 133 158 159
f 133 159 134
f 134 159 160
f 134 160 137
f 134 137 136
f 137 160 139
f 139 160 161
f 139 161 162
f 139 162 140
f 140 162 163
f 140 163 145
f 141 144 164
f 141 164 151
f 143 165 144
f 144 165 166
f 144 166 167
f 144 167 164
f 145 163 146
f 146 168 169
f 146 169 170
f 146 170 171
f 146 171 149
f 146 148 147
f 146 163 168
f 149 171 150
f 151 164 152
f 152 164 153
f 153 164 154
f 154 164 172
f 154 172 155
f 155 172 173
f 155 173 156
f 156 173 157
f 157 173 174
f 157 174 158
f 158 174 175
f 158 175 159
f 159 175 176
f 159 176 160
f 160 176 161
f 161 176 162
f 162 176 177
f 162 177 178
f 162 178 163
f 163 178 168
f 164 167 172
f 165 179 180
f 165 180 166
f 166 180 181
f 166 181 167
f 167 181 172
f 168 178 182
f 168 182 183
f 168 183 184
f 168 184 169
f 169 184 170
f 172 181 173
f 173 181 174
f 174 181 185
f 174 185 175
f 175 185 186
f 175 186 176
f 176 186 182
f 176 182 178
f 176 178 177
f 179 187 188
f 179 188 180
f 180 185 181
f 180 188 185
f 182 186 187
f 182 187 189
f 182 189 183
f 183 189 184
f 185 188 186
f 186 188 187

