# https://github.com/mikedh/trimesh
v -0.03946809 -0.00000660 0.07879996
v -0.03946579 -0.00000660 0.07580117
v -0.03946177 -0.00000660 0.08034338
v -0.03946120 0.00026208 0.08034338
v -0.03946694 0.00042786 0.07879996
v -0.03946694 0.00042786 0.07623519
v -0.03946637 0.00042786 0.07538010
v -0.03946522 -0.00000660 0.07538010
v -0.03694321 -0.00000660 0.08034338
v -0.03946062 0.00042786 0.08034338
v -0.03922571 0.00213857 0.07709029
v -0.03849627 0.00693769 0.07741607
v -0.03946177 0.00042786 0.07505277
v -0.03946177 -0.00000660 0.07505277
v -0.03671633 -0.00000660 0.07790136
v -0.03362571 0.01459371 0.07737774
v -0.03369061 0.01459371 0.07795212
v -0.03500130 0.01175396 0.08034338
v -0.03849627 0.00693769 0.07756419
v -0.03764220 0.01201407 0.08034338
v -0.03800864 0.00983317 0.07709029
v -0.03763818 0.01200407 0.07505277
v -0.03692770 -0.00000660 0.07505277
v -0.03670427 -0.00000660 0.07709029
v -0.03360044 0.01459371 0.07709029
v -0.03379055 0.01459371 0.07818363
v -0.03498579 0.01187687 0.08034338
v -0.03760372 0.01209839 0.08034338
v -0.03707818 0.01325458 0.07709029
v -0.03745439 0.01242996 0.07538010
v -0.03744979 0.01243139 0.07505277
v -0.03675884 -0.00000660 0.07656718
v -0.03499670 0.01174110 0.07505277
v -0.03389910 0.01459371 0.07638177
v -0.03403006 0.01459371 0.07854152
v -0.03499728 0.01306593 0.08034338
v -0.03494846 0.01254572 0.08034338
v -0.03494501 0.01239852 0.08034338
v -0.03744520 0.01244139 0.08034338
v -0.03707646 0.01325458 0.07794487
v -0.03682202 0.01378909 0.07709029
v -0.03661238 0.01421641 0.07709029
v -0.03642226 0.01459371 0.07709029
v -0.03718616 0.01288443 0.07505277
v -0.03490940 0.01239852 0.07505277
v -0.03435859 0.01459371 0.07591512
v -0.03491687 0.01311310 0.07505277
v -0.03422017 0.01459371 0.07872694
v -0.03532868 0.01343180 0.08034338
v -0.03701787 0.01309452 0.08034338
v -0.03637976 0.01459371 0.07795575
v -0.03682144 0.01378194 0.07794487
v -0.03636138 0.01459371 0.07671376
v -0.03702247 0.01313310 0.07505277
v -0.03478592 0.01459371 0.07566081
v -0.03562678 0.01394487 0.07505277
v -0.03481750 0.01459371 0.07911331
v -0.03542517 0.01347182 0.08034338
v -0.03500532 0.01459371 0.07919359
v -0.03688979 0.01318313 0.08034338
v -0.03614600 0.01459371 0.07863371
v -0.03622641 0.01459371 0.07625695
v -0.03607593 0.01459371 0.07599902
v -0.03594727 0.01459371 0.07581723
v -0.03624766 0.01381339 0.07505277
v -0.03546021 0.01459371 0.07556189
v -0.03606329 0.01389913 0.07505277
v -0.03636368 0.01352612 0.08034338
v -0.03501221 0.01459371 0.07919359
v -0.03559002 0.01459371 0.07905530
v -0.03590764 0.01459371 0.07577994
v -0.03512019 0.01459371 0.07917909
f 1 2 8
f 1 8 14
f 1 14 23
f 1 23 32
f 1 32 24
f 1 24 15
f 1 15 9
f 1 9 3
f 1 3 4
f 1 4 5
f 1 5 6
f 1 6 7
f 1 7 2
f 2 7 8
f 3 9 18
f 3 18 27
f 3 27 38
f 3 38 37
f 3 37 36
f 3 36 49
f 3 49 58
f 3 58 68
f 3 68 60
f 3 60 50
f 3 50 39
f 3 39 28
f 3 28 20
f 3 20 10
f 3 10 4
f 4 10 5
f 5 10 11
f 5 11 6
f 6 11 7
f 7 11 12
f 7 12 13
f 7 13 14
f 7 14 8
f 9 15 16
f 9 16 17
f 9 17 18
f 10 19 11
f 10 20 19
f 11 19 12
f 12 19 20
f 12 20 21
f 12 21 22
f 12 22 13
f 13 22 31
f 13 31 44
f 13 44 54
f 13 54 65
f 13 65 67
f 13 67 56
f 13 56 47
f 13 47 45
f 13 45 33
f 13 33 23
f 13 23 14
f 15 24 25
f 15 25 16
f 16 25 34
f 16 34 46
f 16 46 55
f 16 55 66
f 16 66 71
f 16 71 64
f 16 64 63
f 16 63 62
f 16 62 53
f 16 53 43
f 16 43 51
f 16 51 61
f 16 61 70
f 16 70 72
f 16 72 69
f 16 69 59
f 16 59 57
f 16 57 48
f 16 48 35
f 16 35 26
f 16 26 17
f 17 26 27
f 17 27 18
f 20 28 29
f 20 29 30
f 20 30 22
f 20 22 21
f 22 30 31
f 23 33 34
f 23 34 25
f 23 25 32
f 24 32 25
f 26 35 36
f 26 36 37
f 26 37 38
f 26 38 27
f 28 39 40
f 28 40 29
f 29 40 41
f 29 41 30
f 30 41 31
f 31 41 42
f 31 42 43
f 31 43 44
f 33 45 34
f 34 45 47
f 34 47 46
f 35 48 36
f 36 48 49
f 39 50 51
f 39 51 43
f 39 43 52
f 39 52 40
f 40 52 41
f 41 52 42
f 42 52 43
f 43 53 44
f 44 53 54
f 46 47 55
f 47 56 55
f 48 57 49
f 49 57 59
f 49 59 58
f 50 60 61
f 50 61 51
f 53 62 54
f 54 62 63
f 54 63 64
f 54 64 65
f 55 56 66
f 56 67 66
f 58 59 68
f 59 69 68
f 60 68 61
f 61 68 70
f 64 71 65
f 65 71 67
f 66 67 71
f 68 69 72
f 68 72 70

