# https://github.com/mikedh/trimesh
v 0.02540972 0.00005502 0.00346714
v 0.02540972 0.00005502 0.00067819
v 0.02522571 0.00005502 0.00351361
v 0.02540972 -0.00042759 0.00350509
v 0.02540972 -0.00012582 0.00066735
v 0.00000654 -0.00766444 0.00482095
v 0.00000654 0.00005502 0.00550638
v 0.01235752 0.00005502 0.00665031
v 0.02540972 -0.00128296 0.00352910
v 0.01286976 -0.00067832 0.00655659
v 0.02540972 -0.00042759 0.00064953
v 0.00299544 -0.01127898 0.00420136
v 0.00000654 -0.00777316 0.00482095
v 0.02304993 -0.01127898 0.00054730
v 0.00000654 0.00005502 0.00832012
v 0.01154440 0.00005502 0.00682922
v 0.02540972 -0.00195528 0.00354536
v 0.01286976 -0.00101337 0.00655659
v 0.01646042 -0.00470335 0.00573718
v 0.02540972 -0.00063283 0.00064024
v 0.00215497 -0.01127898 0.00453904
v 0.00000654 -0.00820029 0.00488524
v 0.00000654 -0.00799061 0.00485271
v 0.02540972 -0.00158806 0.00060771
v 0.02325632 -0.01127898 0.00052484
v 0.00000654 0.00000620 0.00832012
v 0.00042927 0.00005502 0.00832012
v 0.00861766 0.00005502 0.00741086
v 0.02540972 -0.00213834 0.00354691
v 0.01581888 -0.00470335 0.00587039
v 0.01638334 -0.00555873 0.00571859
v 0.01681103 -0.00555873 0.00561791
v 0.01688812 -0.00470335 0.00563340
v 0.00185161 -0.01127898 0.00492706
v 0.00000654 -0.00903792 0.00537549
v 0.02540972 -0.00213834 0.00059222
v 0.02354228 -0.01127898 0.00050393
v 0.00000654 -0.00042759 0.00831934
v 0.00042927 -0.00042759 0.00831934
v 0.00103351 -0.00042759 0.00827132
v 0.00125233 0.00005502 0.00824731
v 0.00184414 0.00005502 0.00819310
v 0.00555914 -0.00641299 0.00753091
v 0.00690439 -0.00533129 0.00741164
v 0.02540972 -0.00281065 0.00351438
v 0.01627144 -0.00601249 0.00569071
v 0.00613106 -0.00726837 0.00742325
v 0.00604402 -0.00775430 0.00740621
v 0.02061057 -0.01124459 0.00400154
v 0.02401971 -0.01127898 0.00314882
v 0.02540972 -0.00299371 0.00350199
v 0.00171733 -0.01127898 0.00512843
v 0.00000654 -0.00934079 0.00612675
v 0.00159051 -0.01127898 0.00540725
v 0.02540972 -0.00299371 0.00057131
v 0.02410674 -0.01127898 0.00046598
v 0.00000654 -0.00072159 0.00829533
v 0.00042927 -0.00102779 0.00826822
v 0.00091913 -0.00096566 0.00825893
v 0.00555914 -0.00726837 0.00748986
v 0.00636480 -0.00807271 0.00729236
v 0.00555914 -0.00786968 0.00742558
v 0.00555914 -0.00829792 0.00735200
v 0.00641453 -0.00897801 0.00711578
v 0.00726992 -0.00983338 0.00682070
v 0.02064538 -0.01127898 0.00398837
v 0.00785676 -0.01048684 0.00659067
v 0.02444740 -0.01127898 0.00300244
v 0.02540972 -0.01127898 0.00265625
v 0.00159051 -0.01127898 0.00542583
v 0.00163776 -0.01127898 0.00577281
v 0.00000654 -0.00912223 0.00653801
v 0.02540972 -0.01127898 0.00040944
v 0.02491986 -0.01127898 0.00041331
v 0.00000654 -0.00102668 0.00826900
v 0.00042927 -0.00145603 0.00822640
v 0.00128466 -0.00213834 0.00813734
v 0.00470374 -0.00641299 0.00761068
v 0.00470374 -0.00726837 0.00752936
v 0.00470374 -0.00794179 0.00744107
v 0.00470374 -0.00837004 0.00736207
v 0.00470374 -0.00897801 0.00724202
v 0.00470374 -0.00983338 0.00706079
v 0.00555914 -0.00897801 0.00720407
v 0.00641453 -0.00983338 0.00692525
v 0.00726992 -0.01061332 0.00664101
v 0.00812780 -0.01127898 0.00636917
v 0.00173473 -0.01127898 0.00590602
v 0.00000654 -0.00893030 0.00689737
v 0.00000654 -0.00145381 0.00822408
v 0.00299544 -0.00791406 0.00744416
v 0.00384835 -0.00983338 0.00707628
v 0.00384835 -0.01068876 0.00690589
v 0.00387570 -0.01127898 0.00675951
v 0.00417907 -0.01127898 0.00673550
v 0.00726992 -0.01104156 0.00651942
v 0.00217984 -0.01127898 0.00635058
v 0.00000654 -0.00859858 0.00711423
v 0.00247326 -0.01127898 0.00659300
v 0.00000654 -0.00784749 0.00742867
v 0.00325902 -0.01127898 0.00675796
v 0.00000654 -0.00827574 0.00732489
v 0.00264483 -0.01127898 0.00664953
v 0.00000654 -0.00805829 0.00737833
v 0.00299544 -0.01127898 0.00672466
f 1 2 7
f 1 7 15
f 1 15 27
f 1 27 41
f 1 41 42
f 1 42 28
f 1 28 16
f 1 16 8
f 1 8 3
f 1 3 4
f 1 4 9
f 1 9 17
f 1 17 29
f 1 29 45
f 1 45 51
f 1 51 69
f 1 69 73
f 1 73 55
f 1 55 36
f 1 36 24
f 1 24 20
f 1 20 11
f 1 11 5
f 1 5 2
f 2 5 6
f 2 6 7
f 3 8 4
f 4 8 10
f 4 10 9
f 5 11 6
f 6 12 13
f 6 13 23
f 6 23 22
f 6 22 35
f 6 35 53
f 6 53 72
f 6 72 89
f 6 89 98
f 6 98 102
f 6 102 104
f 6 104 100
f 6 100 90
f 6 90 75
f 6 75 57
f 6 57 38
f 6 38 26
f 6 26 15
f 6 15 7
f 6 11 14
f 6 14 12
f 8 16 10
f 9 10 17
f 10 18 19
f 10 19 17
f 10 16 18
f 11 20 14
f 12 21 22
f 12 22 23
f 12 23 13
f 12 14 25
f 12 25 37
f 12 37 56
f 12 56 74
f 12 74 73
f 12 73 69
f 12 69 68
f 12 68 50
f 12 50 66
f 12 66 87
f 12 87 95
f 12 95 94
f 12 94 101
f 12 101 105
f 12 105 103
f 12 103 99
f 12 99 97
f 12 97 88
f 12 88 71
f 12 71 70
f 12 70 54
f 12 54 52
f 12 52 34
f 12 34 21
f 14 20 24
f 14 24 25
f 15 26 27
f 16 28 18
f 17 19 29
f 18 30 19
f 18 28 30
f 19 31 32
f 19 32 33
f 19 33 29
f 19 30 31
f 21 34 35
f 21 35 22
f 24 36 25
f 25 36 37
f 26 38 39
f 26 39 27
f 27 39 40
f 27 40 41
f 28 42 40
f 28 40 43
f 28 43 44
f 28 44 30
f 29 33 32
f 29 32 45
f 30 44 31
f 31 46 32
f 31 44 47
f 31 47 48
f 31 48 46
f 32 46 49
f 32 49 50
f 32 50 51
f 32 51 45
f 34 52 35
f 35 52 54
f 35 54 53
f 36 55 37
f 37 55 56
f 38 57 39
f 39 57 58
f 39 58 59
f 39 59 40
f 40 42 41
f 40 59 43
f 43 59 60
f 43 60 47
f 43 47 44
f 46 48 61
f 46 61 49
f 47 60 48
f 48 60 62
f 48 62 63
f 48 63 64
f 48 64 65
f 48 65 61
f 49 66 50
f 49 61 65
f 49 65 67
f 49 67 66
f 50 68 51
f 51 68 69
f 53 70 71
f 53 71 72
f 53 54 70
f 55 73 74
f 55 74 56
f 57 75 58
f 58 75 76
f 58 76 77
f 58 77 59
f 59 77 78
f 59 78 60
f 60 78 79
f 60 79 62
f 62 79 80
f 62 80 63
f 63 80 81
f 63 81 82
f 63 82 83
f 63 83 84
f 63 84 64
f 64 84 85
f 64 85 65
f 65 85 86
f 65 86 67
f 66 67 87
f 67 86 87
f 71 88 89
f 71 89 72
f 75 90 76
f 76 90 91
f 76 91 79
f 76 79 77
f 77 79 78
f 79 91 80
f 80 91 81
f 81 91 92
f 81 92 82
f 82 92 93
f 82 93 83
f 83 93 94
f 83 94 95
f 83 95 85
f 83 85 84
f 85 95 86
f 86 95 96
f 86 96 87
f 87 96 95
f 88 97 89
f 89 97 99
f 89 99 98
f 90 100 91
f 91 100 92
f 92 100 93
f 93 101 94
f 93 100 101
f 98 99 102
f 99 103 102
f 100 104 101
f 101 104 102
f 101 102 105
f 102 103 105

