# https://github.com/mikedh/trimesh
v 0.02888943 -0.02638179 0.01979729
v 0.02888943 -0.02635751 0.01381372
v 0.02975972 -0.02549575 0.00868494
v 0.02977169 -0.02550485 0.01381372
v 0.02891871 -0.02635347 0.01979729
v 0.02888943 -0.02638078 0.04288284
v 0.02888943 -0.02633324 0.00867892
v 0.02889077 -0.02633223 0.00868494
v 0.02975373 -0.02549170 0.00838997
v 0.03019286 -0.02506385 0.00838997
v 0.03019619 -0.02506790 0.00868494
v 0.03019885 -0.02507801 0.01381372
v 0.02977502 -0.02550384 0.03689926
v 0.02891738 -0.02635347 0.04288284
v 0.02891538 -0.02635246 0.05998480
v 0.02888943 -0.02637775 0.05998480
v 0.02888943 -0.02633122 0.00863075
v 0.02888943 -0.02632009 0.00839599
v 0.02947095 -0.02576176 0.00838997
v 0.03033724 -0.02492022 0.00838997
v 0.03062068 -0.02463297 0.00838997
v 0.03062401 -0.02463398 0.00868494
v 0.03019752 -0.02507700 0.03689926
v 0.02977568 -0.02550182 0.05998480
v 0.03146169 -0.02376210 0.01894250
v 0.03145969 -0.02376311 0.05913000
v 0.03103453 -0.02420613 0.05400122
v 0.03062467 -0.02463297 0.05400122
v 0.02934853 -0.02592461 0.05998480
v 0.02888943 -0.02637471 0.06596838
v 0.02888943 -0.02580020 0.00838997
v 0.02917554 -0.02604295 0.00838997
v 0.03103187 -0.02420512 0.00838997
v 0.03103187 -0.02420613 0.00868494
v 0.03145703 -0.02376412 0.01295892
v 0.03019619 -0.02507397 0.05998480
v 0.02977302 -0.02549676 0.06596838
v 0.02934587 -0.02592360 0.06596838
v 0.03185092 -0.02334031 0.01039453
v 0.03184959 -0.02334234 0.01210412
v 0.03185158 -0.02334031 0.02835129
v 0.03185158 -0.02334031 0.06853277
v 0.03146102 -0.02375906 0.06511359
v 0.03142110 -0.02376715 0.06988721
v 0.03117492 -0.02398866 0.06988721
v 0.03099394 -0.02410802 0.06988721
v 0.03036186 -0.02446001 0.06988721
v 0.02888943 -0.02636561 0.06599848
v 0.02888943 -0.02260903 0.00838997
v 0.03117625 -0.02405239 0.00838997
v 0.03145969 -0.02375299 0.00868494
v 0.03019153 -0.02506891 0.06596838
v 0.03184693 -0.02333930 0.06988721
v 0.03145969 -0.02375198 0.00838997
v 0.03184360 -0.02333526 0.00953973
v 0.03226011 -0.02266769 0.00868494
v 0.03226942 -0.02266668 0.01295892
v 0.03227009 -0.02266870 0.02664169
v 0.03227075 -0.02266668 0.04972122
v 0.03226876 -0.02266870 0.06682318
v 0.03185025 -0.02334031 0.06939359
v 0.03145703 -0.02376007 0.06682318
v 0.02973443 -0.02475131 0.06988721
v 0.02922344 -0.02489696 0.06988721
v 0.02888943 -0.02496068 0.06988721
v 0.02888943 -0.02260195 0.00858862
v 0.03295540 -0.01604967 0.00874513
v 0.03296006 -0.01604967 0.00863075
v 0.03297004 -0.01604967 0.00838997
v 0.03227342 -0.02261611 0.06988721
v 0.03170654 -0.02346978 0.00838997
v 0.03183162 -0.02332514 0.00838997
v 0.03227408 -0.02263937 0.00838997
v 0.03249897 -0.02223984 0.00868494
v 0.03231267 -0.02257868 0.00951565
v 0.03249830 -0.02223883 0.00838997
v 0.03250030 -0.02224288 0.01491532
v 0.03250030 -0.02224389 0.02085074
v 0.03250097 -0.02224490 0.03799484
v 0.03250097 -0.02224490 0.06131515
v 0.03249964 -0.02224288 0.06728669
v 0.02888943 -0.02342123 0.06988721
v 0.02888943 -0.02259891 0.00868494
v 0.03291082 -0.01604967 0.01381372
v 0.03563544 -0.01604967 0.00838997
v 0.03246104 -0.02209217 0.06988721
v 0.03338256 -0.02058508 0.06596838
v 0.03568201 -0.01604967 0.06596838
v 0.03565540 -0.01604967 0.06607072
v 0.03273384 -0.02180592 0.00868494
v 0.03271721 -0.02183222 0.00838997
v 0.03338589 -0.02059014 0.02578690
v 0.03315767 -0.02101395 0.04886642
v 0.03315501 -0.02101293 0.06596838
v 0.02902384 -0.02301159 0.06988721
v 0.02888943 -0.02259790 0.06596838
v 0.02888943 -0.02259689 0.01979729
v 0.03289086 -0.01604967 0.01979729
v 0.03511048 -0.01720275 0.00838997
v 0.03564941 -0.01604967 0.00868494
v 0.03257881 -0.02168859 0.06988721
v 0.03540323 -0.01604967 0.06676298
v 0.03424885 -0.01889897 0.05455503
v 0.03425151 -0.01890403 0.03149959
v 0.03510981 -0.01720072 0.05456707
v 0.03511247 -0.01720578 0.03151163
v 0.03568334 -0.01604967 0.05998480
v 0.03338522 -0.02058610 0.00838997
v 0.03425018 -0.01890099 0.00838997
v 0.03425151 -0.01890403 0.03116851
v 0.02911100 -0.02282750 0.06988721
v 0.02971381 -0.02182818 0.06988721
v 0.03289486 -0.01604967 0.06596838
v 0.03289153 -0.01604967 0.04288284
v 0.02888943 -0.02259588 0.04886642
v 0.03566804 -0.01604967 0.01380168
v 0.03568601 -0.01604967 0.01979729
v 0.03511247 -0.01720578 0.03116851
v 0.03271388 -0.02095123 0.06988721
v 0.03496676 -0.01604967 0.06720844
v 0.03269126 -0.02011172 0.06988721
v 0.03568534 -0.01604967 0.04288284
v 0.02985353 -0.02162791 0.06988721
v 0.02998727 -0.02144989 0.06988721
v 0.03302393 -0.01604967 0.06639578
v 0.03455824 -0.01604967 0.06732883
v 0.03263670 -0.01951900 0.06988721
v 0.03019951 -0.02118286 0.06988721
v 0.03312307 -0.01604967 0.06662453
v 0.03449569 -0.01604967 0.06732883
v 0.03406654 -0.01604967 0.06730475
v 0.03235725 -0.01954934 0.06988721
v 0.03079966 -0.02053148 0.06988721
v 0.03083759 -0.02049102 0.06988721
v 0.03345109 -0.01604967 0.06694357
v 0.03395143 -0.01604967 0.06728068
v 0.03187088 -0.01973950 0.06988721
v 0.03113367 -0.02026850 0.06988721
f 1 2 3
f 1 3 4
f 1 4 5
f 1 5 6
f 1 6 16
f 1 16 30
f 1 30 48
f 1 48 65
f 1 65 82
f 1 82 96
f 1 96 115
f 1 115 97
f 1 97 83
f 1 83 66
f 1 66 49
f 1 49 31
f 1 31 18
f 1 18 17
f 1 17 7
f 1 7 2
f 2 7 8
f 2 8 3
f 3 8 9
f 3 9 10
f 3 10 11
f 3 11 4
f 4 11 12
f 4 12 13
f 4 13 5
f 5 13 14
f 5 14 6
f 6 14 15
f 6 15 16
f 7 17 8
f 8 17 9
f 9 17 18
f 9 18 19
f 9 19 32
f 9 32 31
f 9 31 49
f 9 49 69
f 9 69 85
f 9 85 99
f 9 99 109
f 9 109 108
f 9 108 91
f 9 91 76
f 9 76 73
f 9 73 72
f 9 72 71
f 9 71 54
f 9 54 50
f 9 50 33
f 9 33 21
f 9 21 20
f 9 20 10
f 10 20 11
f 11 20 21
f 11 21 22
f 11 22 12
f 12 23 24
f 12 24 13
f 12 22 25
f 12 25 26
f 12 26 27
f 12 27 28
f 12 28 23
f 13 24 14
f 14 24 29
f 14 29 15
f 15 29 30
f 15 30 16
f 18 31 32
f 18 32 19
f 21 33 22
f 22 33 34
f 22 34 35
f 22 35 25
f 23 28 36
f 23 36 24
f 24 36 37
f 24 37 38
f 24 38 29
f 25 35 39
f 25 39 40
f 25 40 41
f 25 41 42
f 25 42 26
f 26 42 43
f 26 43 28
f 26 28 27
f 28 43 36
f 29 38 30
f 30 38 44
f 30 44 45
f 30 45 46
f 30 46 47
f 30 47 48
f 33 50 34
f 34 50 51
f 34 51 35
f 35 51 39
f 36 43 52
f 36 52 37
f 37 52 53
f 37 53 44
f 37 44 38
f 39 51 54
f 39 54 55
f 39 55 56
f 39 56 57
f 39 57 58
f 39 58 41
f 39 41 40
f 41 58 42
f 42 59 60
f 42 60 61
f 42 61 43
f 42 58 59
f 43 61 62
f 43 62 52
f 44 53 70
f 44 70 86
f 44 86 101
f 44 101 119
f 44 119 121
f 44 121 127
f 44 127 132
f 44 132 137
f 44 137 138
f 44 138 134
f 44 134 133
f 44 133 128
f 44 128 124
f 44 124 123
f 44 123 112
f 44 112 111
f 44 111 95
f 44 95 82
f 44 82 65
f 44 65 64
f 44 64 63
f 44 63 47
f 44 47 46
f 44 46 45
f 47 63 48
f 48 63 64
f 48 64 65
f 49 66 67
f 49 67 68
f 49 68 69
f 50 54 51
f 52 62 61
f 52 61 53
f 53 61 60
f 53 60 70
f 54 71 55
f 55 71 72
f 55 72 73
f 55 73 56
f 56 74 75
f 56 75 57
f 56 73 76
f 56 76 74
f 57 75 74
f 57 74 77
f 57 77 58
f 58 77 78
f 58 78 79
f 58 79 80
f 58 80 59
f 59 80 60
f 60 80 81
f 60 81 70
f 66 83 67
f 67 83 84
f 67 84 98
f 67 98 114
f 67 114 113
f 67 113 125
f 67 125 129
f 67 129 135
f 67 135 136
f 67 136 131
f 67 131 130
f 67 130 126
f 67 126 120
f 67 120 102
f 67 102 89
f 67 89 88
f 67 88 107
f 67 107 122
f 67 122 117
f 67 117 116
f 67 116 100
f 67 100 85
f 67 85 69
f 67 69 68
f 70 81 87
f 70 87 88
f 70 88 89
f 70 89 86
f 74 76 90
f 74 90 77
f 76 91 90
f 77 90 78
f 78 90 92
f 78 92 79
f 79 92 80
f 80 93 87
f 80 87 94
f 80 94 81
f 80 92 93
f 81 94 87
f 82 95 96
f 83 97 98
f 83 98 84
f 85 100 99
f 86 89 102
f 86 102 101
f 87 103 88
f 87 93 92
f 87 92 104
f 87 104 103
f 88 103 105
f 88 105 106
f 88 106 107
f 90 91 108
f 90 108 92
f 92 108 109
f 92 109 110
f 92 110 104
f 95 111 96
f 96 111 112
f 96 112 113
f 96 113 114
f 96 114 115
f 97 115 98
f 98 115 114
f 99 100 116
f 99 116 117
f 99 117 118
f 99 118 109
f 101 102 119
f 102 120 121
f 102 121 119
f 103 104 106
f 103 106 105
f 104 110 118
f 104 118 106
f 106 118 117
f 106 117 122
f 106 122 107
f 109 118 110
f 112 123 113
f 113 123 124
f 113 124 125
f 120 126 127
f 120 127 121
f 124 128 125
f 125 128 129
f 126 130 127
f 127 130 131
f 127 131 132
f 128 133 129
f 129 133 134
f 129 134 135
f 131 136 132
f 132 136 137
f 134 138 135
f 135 138 137
f 135 137 136

