# https://github.com/mikedh/trimesh
v 0.00000654 -0.03679519 0.08140800
v -0.00042761 -0.03679587 0.08140800
v 0.00000654 -0.03952065 0.08140800
v 0.00000654 -0.03671649 0.07790153
v -0.00645899 -0.03604126 0.07714776
v -0.00645899 -0.03613256 0.07787291
v -0.00062254 -0.03681018 0.08140800
v -0.00042761 -0.03952133 0.08140800
v 0.00000654 -0.03946819 0.07024932
v 0.00000654 -0.03671036 0.07749602
v 0.00000654 -0.03670457 0.07708932
v 0.00000654 -0.03670389 0.07195962
v -0.00645899 -0.03605523 0.07190357
v -0.00645899 -0.03624396 0.07804108
v -0.00227880 -0.03717914 0.08140800
v -0.00125479 -0.03692124 0.08140800
v -0.00104784 -0.03939903 0.08140800
v -0.00645899 -0.03853472 0.07766658
v -0.00645899 -0.03854119 0.07178788
v -0.00645899 -0.03854119 0.07134778
v -0.00213830 -0.03922357 0.07195962
v -0.00042761 -0.03946887 0.07024932
v -0.00042761 -0.03946205 0.06939417
v 0.00000654 -0.03946001 0.06922362
v 0.00000654 -0.03671683 0.07107704
v -0.00645899 -0.03610020 0.07116649
v -0.00645899 -0.03657272 0.07853723
v -0.00248005 -0.03724864 0.08140800
v -0.00147504 -0.03922085 0.08140800
v -0.00645899 -0.03834870 0.07809236
v -0.00645899 -0.03853403 0.07132631
v -0.00090797 -0.03935644 0.06922362
v -0.00042761 -0.03946069 0.06922362
v 0.00000654 -0.03694168 0.06922362
v -0.00034154 -0.03694236 0.06922362
v -0.00042761 -0.03694270 0.06922362
v -0.00645899 -0.03651787 0.07050217
v -0.00645899 -0.03719890 0.07874595
v -0.00318065 -0.03788810 0.08140800
v -0.00282561 -0.03747758 0.08140800
v -0.00236613 -0.03878818 0.08140800
v -0.00645899 -0.03792046 0.07858016
v -0.00645899 -0.03838277 0.07092199
v -0.00125036 -0.03913568 0.06922362
v -0.00645899 -0.03835926 0.07088383
v -0.00645899 -0.03795419 0.07043061
v -0.00111303 -0.03713008 0.06922362
v -0.00645899 -0.03654036 0.07047474
v -0.00319901 -0.03806798 0.08140800
v -0.00200919 -0.03862704 0.06922362
v -0.00645899 -0.03791672 0.07041749
v -0.00128327 -0.03718970 0.06922362
v -0.00186363 -0.03742102 0.06922362
v -0.00645899 -0.03715938 0.07024098
v -0.00211741 -0.03812896 0.06922362
v -0.00645899 -0.03719890 0.07022786
v -0.00199337 -0.03749359 0.06922362
v -0.00213070 -0.03805367 0.06922362
v -0.00202374 -0.03761692 0.06922362
f 1 2 7
f 1 7 16
f 1 16 15
f 1 15 28
f 1 28 40
f 1 40 39
f 1 39 49
f 1 49 41
f 1 41 29
f 1 29 17
f 1 17 8
f 1 8 3
f 1 3 9
f 1 9 24
f 1 24 34
f 1 34 25
f 1 25 12
f 1 12 11
f 1 11 10
f 1 10 4
f 1 4 5
f 1 5 6
f 1 6 2
f 2 6 7
f 3 8 22
f 3 22 9
f 4 10 5
f 5 10 11
f 5 11 12
f 5 12 13
f 5 13 26
f 5 26 37
f 5 37 48
f 5 48 54
f 5 54 56
f 5 56 51
f 5 51 46
f 5 46 45
f 5 45 43
f 5 43 31
f 5 31 20
f 5 20 19
f 5 19 18
f 5 18 30
f 5 30 42
f 5 42 38
f 5 38 27
f 5 27 14
f 5 14 6
f 6 14 15
f 6 15 16
f 6 16 7
f 8 17 18
f 8 18 19
f 8 19 20
f 8 20 21
f 8 21 22
f 9 22 23
f 9 23 24
f 12 25 13
f 13 25 26
f 14 27 15
f 15 27 28
f 17 29 18
f 18 29 30
f 20 31 32
f 20 32 33
f 20 33 21
f 21 33 23
f 21 23 22
f 23 33 24
f 24 33 32
f 24 32 44
f 24 44 50
f 24 50 55
f 24 55 58
f 24 58 59
f 24 59 57
f 24 57 53
f 24 53 52
f 24 52 47
f 24 47 36
f 24 36 35
f 24 35 34
f 25 34 26
f 26 34 35
f 26 35 36
f 26 36 37
f 27 38 39
f 27 39 40
f 27 40 28
f 29 41 30
f 30 41 42
f 31 43 32
f 32 43 45
f 32 45 46
f 32 46 44
f 36 47 48
f 36 48 37
f 38 49 39
f 38 42 49
f 41 49 42
f 44 46 50
f 46 51 50
f 47 52 48
f 48 52 53
f 48 53 54
f 50 51 56
f 50 56 55
f 53 57 54
f 54 57 56
f 55 56 58
f 56 57 59
f 56 59 58

