# https://github.com/mikedh/trimesh
v -0.03851629 -0.01451420 0.08417977
v -0.03849822 -0.01458488 0.08422837
v -0.03849822 -0.01458488 0.08440457
v -0.03851147 -0.01451420 0.08443444
v -0.03844642 -0.01451420 0.08368307
v -0.03833438 -0.01490797 0.08393825
v -0.03797178 -0.01582171 0.08393116
v -0.03770917 -0.01643087 0.08393116
v -0.03770315 -0.01641573 0.08454482
v -0.03782241 -0.01582508 0.08481216
v -0.03848015 -0.01451420 0.08449875
v -0.03841630 -0.01451420 0.08362282
v -0.03765978 -0.01632486 0.08345826
v -0.03751161 -0.01685829 0.08393116
v -0.03672859 -0.01787973 0.08516000
v -0.03755618 -0.01611283 0.08511494
v -0.03688640 -0.01820955 0.08393116
v -0.03668401 -0.01863698 0.08393116
v -0.03686953 -0.01817085 0.08458988
v -0.03829343 -0.01451420 0.08487747
v -0.03793685 -0.01496518 0.08319447
v -0.03776579 -0.01582171 0.08334029
v -0.03799588 -0.01451420 0.08311802
v -0.03682496 -0.01808166 0.08343244
v -0.03222681 -0.02266552 0.08050693
v -0.03685026 -0.01730927 0.08527645
v -0.03768026 -0.01554237 0.08526126
v -0.03660812 -0.01842831 0.08483950
v -0.03585642 -0.01957259 0.08513418
v -0.03600700 -0.01900214 0.08528152
v -0.03596002 -0.01975097 0.08344712
v -0.03635755 -0.01924109 0.08393116
v -0.03600459 -0.01983006 0.08456406
v -0.03617324 -0.01926970 0.08482380
v -0.03778145 -0.01496518 0.08532607
v -0.03787060 -0.01451420 0.08535949
v -0.03613711 -0.01451420 0.08159146
v -0.03185578 -0.02334367 0.08050693
v -0.03593593 -0.01451420 0.08148261
v -0.03239667 -0.02174841 0.08050693
v -0.03699241 -0.01667655 0.08534987
v -0.03616602 -0.01838624 0.08535747
v -0.03511556 -0.02146907 0.08449217
v -0.03495775 -0.02121834 0.08506228
v -0.03512279 -0.02064788 0.08526329
v -0.03527698 -0.02009593 0.08533974
v -0.03507220 -0.02139839 0.08348763
v -0.03539986 -0.02095246 0.08393116
v -0.03724177 -0.01582508 0.08540101
v -0.03719840 -0.01496518 0.08554986
v -0.03719840 -0.01451420 0.08558784
v -0.03136790 -0.02376941 0.08050693
v -0.02673963 -0.03098679 0.08332257
v -0.02761903 -0.03016392 0.08330890
v -0.02906702 -0.02906507 0.08354383
v -0.03098843 -0.02673949 0.08332257
v -0.03178230 -0.02583585 0.08336409
v -0.03257616 -0.02490191 0.08341624
v -0.03336400 -0.02396293 0.08348560
v -0.03545407 -0.01451420 0.08132311
v -0.03210033 -0.02098780 0.08050693
v -0.03640333 -0.01757010 0.08541417
v -0.03553719 -0.01926970 0.08541367
v -0.03548780 -0.01838624 0.08558531
v -0.03511074 -0.02146066 0.08393116
v -0.03483006 -0.02188808 0.08393116
v -0.03411932 -0.02296168 0.08393116
v -0.03340978 -0.02402687 0.08449571
v -0.03433133 -0.02242320 0.08478634
v -0.03421689 -0.02225156 0.08522380
v -0.03435061 -0.02180731 0.08529924
v -0.03465659 -0.02094068 0.08539189
v -0.03634310 -0.01667655 0.08557720
v -0.03634310 -0.01582171 0.08564556
v -0.03634310 -0.01496518 0.08567138
v -0.03634310 -0.01451420 0.08567492
v -0.03136308 -0.02377277 0.08050693
v -0.02621079 -0.03120387 0.08317422
v -0.02621079 -0.03162961 0.08373978
v -0.02731064 -0.03073269 0.08378433
v -0.02818883 -0.02989972 0.08365724
v -0.02865503 -0.02950932 0.08388560
v -0.02911882 -0.02911724 0.08411395
v -0.02951033 -0.02865448 0.08388560
v -0.02990063 -0.02818667 0.08365724
v -0.03073546 -0.02730826 0.08378433
v -0.03155341 -0.02640126 0.08393116
v -0.03189192 -0.02597215 0.08393116
v -0.03231837 -0.02543030 0.08393116
v -0.03265446 -0.02500119 0.08393116
v -0.03308211 -0.02444925 0.08393116
v -0.03340616 -0.02402183 0.08393116
v -0.03374708 -0.02351531 0.08393116
v -0.03503124 -0.01451420 0.08130590
v -0.03121129 -0.02070341 0.08050693
v -0.03463250 -0.02009593 0.08556303
v -0.03377720 -0.02095246 0.08563037
v -0.03463250 -0.01924109 0.08564607
v -0.03548780 -0.01753140 0.08565164
v -0.03078605 -0.02736380 0.08436002
v -0.03262676 -0.02496586 0.08461723
v -0.03247136 -0.02476897 0.08518734
v -0.03324595 -0.02380138 0.08506582
v -0.03343749 -0.02323092 0.08527595
v -0.03377720 -0.02180731 0.08550885
v -0.03374467 -0.02258643 0.08533417
v -0.03548780 -0.01667655 0.08567442
v -0.03548780 -0.01451420 0.08566328
v -0.03548780 -0.01582171 0.08567847
v -0.03548780 -0.01496518 0.08567138
v -0.03093784 -0.02402351 0.08050693
v -0.02621079 -0.03112814 0.08312966
v -0.02621079 -0.03170365 0.08393116
v -0.02640233 -0.03155220 0.08393116
v -0.02699020 -0.03105747 0.08401420
v -0.02736605 -0.03078486 0.08435445
v -0.02824424 -0.02995189 0.08422736
v -0.02911882 -0.02911724 0.08444710
v -0.02995243 -0.02824220 0.08422736
v -0.03034394 -0.02777607 0.08400610
v -0.03078605 -0.02736380 0.08435445
v -0.03105830 -0.02698854 0.08401420
v -0.03433736 -0.01451420 0.08160108
v -0.03002110 -0.02147917 0.08050693
v -0.03044634 -0.02110054 0.08050693
v -0.03292190 -0.02266215 0.08558227
v -0.03292190 -0.02180731 0.08565771
v -0.03206780 -0.02351531 0.08562733
v -0.03377720 -0.02009593 0.08567138
v -0.03463250 -0.01838624 0.08567492
v -0.03060294 -0.02717028 0.08493013
v -0.03098482 -0.02690609 0.08470127
v -0.03146066 -0.02629692 0.08478634
v -0.03181000 -0.02586950 0.08478634
v -0.02995243 -0.02824220 0.08440457
v -0.03267615 -0.02420020 0.08531392
v -0.03167388 -0.02569618 0.08523949
v -0.03294599 -0.02351531 0.08539848
v -0.03463250 -0.01496518 0.08560657
v -0.03463250 -0.01451420 0.08556911
v -0.02621079 -0.02864606 0.08567644
v -0.02621079 -0.02779122 0.08565417
v -0.03377720 -0.01924109 0.08567847
v -0.02950310 -0.02522500 0.08567796
v -0.03035840 -0.02413794 0.08050693
v -0.02621079 -0.02831119 0.08178792
v -0.02621079 -0.02868140 0.08193120
v -0.02621079 -0.02943191 0.08225272
v -0.02621079 -0.03037931 0.08270688
v -0.02621079 -0.03052908 0.08277878
v -0.02621079 -0.03153032 0.08478634
v -0.02736605 -0.03078486 0.08436002
v -0.02824424 -0.02995189 0.08440457
v -0.02858516 -0.02944201 0.08471089
v -0.02892607 -0.02892540 0.08501722
v -0.02944407 -0.02858380 0.08471089
v -0.03414341 -0.01451420 0.08174285
v -0.03402295 -0.01451420 0.08187399
v -0.03378443 -0.01451420 0.08219803
v -0.03349892 -0.01451420 0.08261929
v -0.02972355 -0.02190827 0.08050693
v -0.03121370 -0.02522500 0.08553417
v -0.03121370 -0.02437016 0.08564708
v -0.03206780 -0.02266215 0.08567341
v -0.03035840 -0.02608153 0.08557113
v -0.03292190 -0.02095246 0.08567695
v -0.03086435 -0.02659982 0.08526734
v -0.02976812 -0.02804700 0.08497469
v -0.03186180 -0.02522500 0.08532152
v -0.03214008 -0.02443915 0.08543493
v -0.03117515 -0.02602095 0.08533924
v -0.03389284 -0.01451420 0.08534531
v -0.02621079 -0.02693637 0.08557164
v -0.02779250 -0.02779122 0.08567290
v -0.02693720 -0.02864606 0.08567088
v -0.02621079 -0.02950091 0.08565569
v -0.03035840 -0.02437016 0.08567796
v -0.02973560 -0.02405885 0.08050693
v -0.02621079 -0.02776934 0.08170083
v -0.02629753 -0.03145965 0.08478634
v -0.02621079 -0.03107261 0.08531595
v -0.02660110 -0.03086227 0.08526734
v -0.02690708 -0.03098343 0.08470127
v -0.02717090 -0.03060144 0.08493013
v -0.02804788 -0.02976679 0.08497469
v -0.02747808 -0.03003098 0.08527645
v -0.02835627 -0.02919633 0.08528557
v -0.02919832 -0.02835494 0.08528557
v -0.03003314 -0.02747654 0.08527645
v -0.03340616 -0.01451420 0.08279498
v -0.02621079 -0.02551444 0.08254334
v -0.02621079 -0.02578200 0.08232461
v -0.02621079 -0.02597720 0.08218234
v -0.02621079 -0.02605629 0.08212968
v -0.02621079 -0.02653924 0.08182437
v -0.02940552 -0.02266215 0.08050693
v -0.03033431 -0.02690609 0.08536557
v -0.03035840 -0.02522500 0.08566025
v -0.02950310 -0.02693637 0.08558632
v -0.02950310 -0.02608153 0.08566784
v -0.02864780 -0.02693637 0.08567088
v -0.03121370 -0.02351531 0.08567644
v -0.02949105 -0.02777271 0.08537924
v -0.03344712 -0.01471782 0.08510329
v -0.03348447 -0.01451420 0.08500760
v -0.02621079 -0.02609667 0.08538531
v -0.02621079 -0.02588801 0.08532658
v -0.02864780 -0.02779122 0.08559796
v -0.02779250 -0.02864606 0.08559796
v -0.02693720 -0.02950091 0.08558632
v -0.02621079 -0.03035239 0.08553873
v -0.02941877 -0.02351531 0.08050693
v -0.02621079 -0.02771886 0.08169526
v -0.02690708 -0.03033220 0.08536557
v -0.02777443 -0.02948913 0.08537873
v -0.02864419 -0.02864270 0.08538633
v -0.03330377 -0.01451420 0.08304156
v -0.02621079 -0.02516106 0.08303295
v -0.02621079 -0.02682026 0.08173678
v -0.02621079 -0.02687075 0.08172412
v -0.03334593 -0.01451420 0.08479039
v -0.02639872 -0.02552958 0.08527291
v -0.02621079 -0.02535289 0.08490937
v -0.02621079 -0.02522837 0.08479849
v -0.03323149 -0.01451420 0.08323396
v -0.02621079 -0.02512572 0.08309624
v -0.03323029 -0.01451420 0.08460457
v -0.02621079 -0.02512908 0.08468204
v -0.03318090 -0.01451420 0.08345826
v -0.02621079 -0.02507692 0.08318738
v -0.03311103 -0.01451420 0.08393116
v -0.02643365 -0.02471681 0.08448457
v -0.02621079 -0.02489013 0.08393116
v -0.02621079 -0.02493388 0.08364712
f 1 2 3
f 1 3 4
f 1 4 11
f 1 11 20
f 1 20 36
f 1 36 51
f 1 51 76
f 1 76 108
f 1 108 140
f 1 140 172
f 1 172 205
f 1 205 221
f 1 221 227
f 1 227 231
f 1 231 229
f 1 229 225
f 1 225 217
f 1 217 190
f 1 190 160
f 1 160 159
f 1 159 158
f 1 158 157
f 1 157 123
f 1 123 94
f 1 94 60
f 1 60 39
f 1 39 37
f 1 37 23
f 1 23 12
f 1 12 5
f 1 5 2
f 2 5 6
f 2 6 7
f 2 7 3
f 3 7 8
f 3 8 9
f 3 9 10
f 3 10 4
f 4 10 11
f 5 12 13
f 5 13 7
f 5 7 6
f 7 13 8
f 8 13 14
f 8 14 9
f 9 15 16
f 9 16 10
f 9 14 17
f 9 17 18
f 9 18 19
f 9 19 15
f 10 16 20
f 10 20 11
f 12 21 22
f 12 22 13
f 12 23 21
f 13 24 17
f 13 17 14
f 13 22 25
f 13 25 24
f 15 26 27
f 15 27 16
f 15 19 28
f 15 28 29
f 15 29 30
f 15 30 26
f 16 27 20
f 17 24 18
f 18 24 31
f 18 31 32
f 18 32 33
f 18 33 19
f 19 33 34
f 19 34 28
f 20 27 35
f 20 35 36
f 21 23 25
f 21 25 22
f 23 37 25
f 24 25 31
f 25 38 31
f 25 37 39
f 25 39 40
f 25 40 61
f 25 61 95
f 25 95 125
f 25 125 124
f 25 124 161
f 25 161 196
f 25 196 212
f 25 212 178
f 25 178 145
f 25 145 111
f 25 111 77
f 25 77 52
f 25 52 38
f 26 41 27
f 26 30 42
f 26 42 41
f 27 41 35
f 28 34 29
f 29 34 33
f 29 33 43
f 29 43 44
f 29 44 45
f 29 45 30
f 30 45 46
f 30 46 42
f 31 47 32
f 31 38 47
f 32 47 48
f 32 48 43
f 32 43 33
f 35 41 49
f 35 49 50
f 35 50 36
f 36 50 51
f 38 52 53
f 38 53 54
f 38 54 55
f 38 55 56
f 38 56 57
f 38 57 58
f 38 58 59
f 38 59 47
f 39 60 40
f 40 60 61
f 41 42 62
f 41 62 49
f 42 46 63
f 42 63 64
f 42 64 62
f 43 48 65
f 43 65 66
f 43 66 67
f 43 67 68
f 43 68 69
f 43 69 70
f 43 70 44
f 44 70 45
f 45 70 71
f 45 71 72
f 45 72 46
f 46 72 63
f 47 66 65
f 47 65 48
f 47 59 67
f 47 67 66
f 49 62 73
f 49 73 50
f 50 73 51
f 51 73 74
f 51 74 75
f 51 75 76
f 52 77 78
f 52 78 53
f 53 78 79
f 53 79 80
f 53 80 81
f 53 81 55
f 53 55 54
f 55 81 82
f 55 82 83
f 55 83 84
f 55 84 85
f 55 85 56
f 56 85 86
f 56 86 57
f 57 86 87
f 57 87 58
f 58 87 59
f 59 87 88
f 59 88 89
f 59 89 90
f 59 90 91
f 59 91 92
f 59 92 93
f 59 93 67
f 60 94 61
f 61 94 95
f 62 64 73
f 63 72 96
f 63 96 64
f 64 96 97
f 64 97 98
f 64 98 99
f 64 99 74
f 64 74 73
f 67 93 68
f 68 93 92
f 68 92 91
f 68 91 90
f 68 90 89
f 68 89 88
f 68 88 100
f 68 100 101
f 68 101 102
f 68 102 103
f 68 103 70
f 68 70 69
f 70 103 102
f 70 102 104
f 70 104 71
f 71 105 72
f 71 104 106
f 71 106 105
f 72 105 96
f 74 99 75
f 75 99 107
f 75 107 76
f 76 107 109
f 76 109 110
f 76 110 108
f 77 111 78
f 78 111 112
f 78 112 150
f 78 150 149
f 78 149 148
f 78 148 147
f 78 147 146
f 78 146 179
f 78 179 213
f 78 213 220
f 78 220 219
f 78 219 195
f 78 195 194
f 78 194 193
f 78 193 192
f 78 192 191
f 78 191 218
f 78 218 226
f 78 226 230
f 78 230 234
f 78 234 233
f 78 233 228
f 78 228 224
f 78 224 223
f 78 223 207
f 78 207 206
f 78 206 173
f 78 173 142
f 78 142 141
f 78 141 176
f 78 176 211
f 78 211 181
f 78 181 151
f 78 151 113
f 78 113 79
f 79 113 114
f 79 114 80
f 80 114 115
f 80 115 116
f 80 116 117
f 80 117 81
f 81 117 82
f 82 117 83
f 83 118 135
f 83 135 119
f 83 119 84
f 83 117 153
f 83 153 118
f 84 119 120
f 84 120 85
f 85 120 86
f 86 120 121
f 86 121 122
f 86 122 87
f 87 122 121
f 87 121 100
f 87 100 88
f 94 123 124
f 94 124 125
f 94 125 95
f 96 105 126
f 96 126 97
f 97 127 98
f 97 126 128
f 97 128 127
f 98 127 129
f 98 129 99
f 99 129 130
f 99 130 107
f 100 131 132
f 100 132 133
f 100 133 134
f 100 134 101
f 100 121 119
f 100 119 135
f 100 135 131
f 101 134 102
f 102 136 104
f 102 134 133
f 102 133 137
f 102 137 136
f 104 136 106
f 105 106 138
f 105 138 126
f 106 136 138
f 107 130 109
f 108 139 140
f 108 110 141
f 108 141 142
f 108 142 139
f 109 130 143
f 109 143 144
f 109 144 141
f 109 141 110
f 111 145 146
f 111 146 147
f 111 147 148
f 111 148 149
f 111 149 150
f 111 150 112
f 113 151 152
f 113 152 114
f 114 152 116
f 114 116 115
f 116 152 153
f 116 153 117
f 118 154 155
f 118 155 156
f 118 156 135
f 118 153 154
f 119 121 120
f 123 157 124
f 124 157 158
f 124 158 159
f 124 159 160
f 124 160 161
f 126 138 162
f 126 162 128
f 127 128 163
f 127 163 164
f 127 164 129
f 128 162 165
f 128 165 163
f 129 164 130
f 130 164 166
f 130 166 143
f 131 167 137
f 131 137 133
f 131 133 132
f 131 135 156
f 131 156 168
f 131 168 167
f 136 137 169
f 136 169 170
f 136 170 138
f 137 167 171
f 137 171 169
f 138 170 162
f 139 142 140
f 140 142 173
f 140 173 172
f 141 144 174
f 141 174 175
f 141 175 176
f 143 166 177
f 143 177 144
f 144 177 174
f 145 178 146
f 146 178 179
f 151 180 152
f 151 181 182
f 151 182 180
f 152 180 183
f 152 183 184
f 152 184 153
f 153 184 185
f 153 185 154
f 154 185 155
f 155 185 182
f 155 182 186
f 155 186 187
f 155 187 188
f 155 188 189
f 155 189 167
f 155 167 168
f 155 168 156
f 160 190 191
f 160 191 161
f 161 191 192
f 161 192 193
f 161 193 194
f 161 194 195
f 161 195 196
f 162 170 169
f 162 169 171
f 162 171 197
f 162 197 165
f 163 198 164
f 163 165 199
f 163 199 198
f 164 198 200
f 164 200 201
f 164 201 202
f 164 202 166
f 165 197 203
f 165 203 199
f 166 202 177
f 167 189 197
f 167 197 171
f 172 204 205
f 172 173 206
f 172 206 207
f 172 207 204
f 174 201 208
f 174 208 209
f 174 209 175
f 174 177 202
f 174 202 201
f 175 209 176
f 176 209 210
f 176 210 211
f 178 212 179
f 179 212 213
f 180 182 184
f 180 184 183
f 181 211 214
f 181 214 182
f 182 214 186
f 182 185 184
f 186 214 187
f 187 215 216
f 187 216 188
f 187 214 215
f 188 216 203
f 188 203 197
f 188 197 189
f 190 217 218
f 190 218 191
f 195 219 196
f 196 219 220
f 196 220 213
f 196 213 212
f 198 199 208
f 198 208 200
f 199 203 216
f 199 216 208
f 200 208 201
f 204 207 205
f 205 207 222
f 205 222 223
f 205 223 224
f 205 224 221
f 207 223 222
f 208 216 209
f 209 216 210
f 210 216 215
f 210 215 211
f 211 215 214
f 217 225 218
f 218 225 226
f 221 224 227
f 224 228 227
f 225 229 230
f 225 230 226
f 227 228 232
f 227 232 233
f 227 233 231
f 228 233 232
f 229 231 234
f 229 234 230
f 231 233 234

