# https://github.com/mikedh/trimesh
v 0.03582518 -0.00760366 0.00838997
v 0.03831917 -0.00760366 0.00838997
v 0.03582088 -0.00760366 0.00859728
v 0.03588139 -0.00700917 0.00838997
v 0.03848281 -0.00701667 0.00838997
v 0.03832884 -0.00760366 0.00866207
v 0.03581157 -0.00760366 0.01414941
v 0.03670676 0.00005502 0.00868150
v 0.03670926 0.00005502 0.00838997
v 0.03590109 -0.00675728 0.03129167
v 0.03836321 -0.00760366 0.01979223
v 0.03834889 -0.00760366 0.01382548
v 0.03851468 -0.00681126 0.00838997
v 0.03850322 -0.00697918 0.03125280
v 0.03581157 -0.00760366 0.03695393
v 0.03670497 0.00005502 0.01381252
v 0.03945033 0.00005502 0.00838997
v 0.03590109 -0.00675728 0.03139533
v 0.03670389 0.00005502 0.05399901
v 0.03670425 0.00005502 0.03091591
v 0.03836357 -0.00760366 0.04288829
v 0.03925195 -0.00192562 0.00838997
v 0.03922259 -0.00213853 0.00868150
v 0.03922581 -0.00213853 0.01381252
v 0.03850322 -0.00697918 0.03142124
v 0.03909834 -0.00299316 0.05998520
v 0.03581587 -0.00760366 0.06597139
v 0.03590324 -0.00676927 0.07158182
v 0.03945033 -0.00042777 0.00838997
v 0.03946644 0.00005502 0.00953667
v 0.03670425 0.00005502 0.07195757
v 0.03836178 -0.00760366 0.06597139
v 0.03931068 -0.00151330 0.00838997
v 0.03931139 -0.00151630 0.00868150
v 0.03946537 -0.00042777 0.00953667
v 0.03946680 -0.00042777 0.01295735
v 0.03946859 -0.00042777 0.01808837
v 0.03946895 -0.00042777 0.02407456
v 0.03946930 -0.00042777 0.04117795
v 0.03946895 -0.00042777 0.07024723
v 0.03922510 -0.00213853 0.03690210
v 0.03850107 -0.00696644 0.07162069
v 0.03922366 -0.00213853 0.07195757
v 0.03582052 -0.00760366 0.07187983
v 0.03946787 0.00005502 0.01552286
v 0.03696099 0.00005502 0.07457491
v 0.03833385 -0.00760366 0.07193814
v 0.03946859 0.00005502 0.03262625
v 0.03946787 0.00005502 0.07024723
v 0.03946751 0.00005502 0.07281274
v 0.03946644 -0.00042777 0.07281274
v 0.03945570 -0.00042777 0.07457491
v 0.03946357 -0.00042777 0.07366791
v 0.03593690 -0.00760366 0.07232037
v 0.03696063 -0.00037754 0.07457491
v 0.03945570 0.00005502 0.07457491
v 0.03944961 -0.00045776 0.07457491
v 0.03935078 -0.00088432 0.07457491
v 0.03819241 -0.00760366 0.07224911
v 0.03946465 0.00005502 0.07366791
v 0.03604718 -0.00760366 0.07244994
v 0.03696099 -0.00042777 0.07457491
v 0.03696063 -0.00039928 0.07457491
v 0.03901168 -0.00135437 0.07457491
v 0.03766497 -0.00760366 0.07288401
v 0.03793280 -0.00760366 0.07272204
v 0.03636229 -0.00760366 0.07276739
v 0.03725891 -0.00128315 0.07457491
v 0.03860849 -0.00183941 0.07457491
v 0.03720842 -0.00760366 0.07308484
v 0.03681884 -0.00760366 0.07296175
v 0.03755110 -0.00180792 0.07457491
v 0.03805348 -0.00192862 0.07457491
v 0.03759872 -0.00182442 0.07457491
f 1 2 6
f 1 6 12
f 1 12 11
f 1 11 21
f 1 21 32
f 1 32 47
f 1 47 59
f 1 59 66
f 1 66 65
f 1 65 70
f 1 70 71
f 1 71 67
f 1 67 61
f 1 61 54
f 1 54 44
f 1 44 27
f 1 27 15
f 1 15 7
f 1 7 3
f 1 3 4
f 1 4 9
f 1 9 17
f 1 17 29
f 1 29 33
f 1 33 22
f 1 22 13
f 1 13 5
f 1 5 2
f 2 5 6
f 3 7 4
f 4 8 9
f 4 7 10
f 4 10 8
f 5 11 12
f 5 12 6
f 5 13 14
f 5 14 11
f 7 15 18
f 7 18 10
f 8 10 16
f 8 16 20
f 8 20 19
f 8 19 31
f 8 31 46
f 8 46 56
f 8 56 60
f 8 60 50
f 8 50 49
f 8 49 48
f 8 48 45
f 8 45 30
f 8 30 17
f 8 17 9
f 10 18 19
f 10 19 20
f 10 20 16
f 11 14 21
f 13 22 23
f 13 23 24
f 13 24 14
f 14 25 21
f 14 24 26
f 14 26 25
f 15 27 28
f 15 28 18
f 17 30 29
f 18 28 31
f 18 31 19
f 21 25 32
f 22 33 34
f 22 34 23
f 23 34 24
f 24 34 35
f 24 35 36
f 24 36 37
f 24 37 38
f 24 38 39
f 24 39 40
f 24 40 41
f 24 41 26
f 25 26 42
f 25 42 32
f 26 43 42
f 26 41 43
f 27 44 28
f 28 44 31
f 29 30 35
f 29 35 33
f 30 36 35
f 30 45 37
f 30 37 36
f 31 44 46
f 32 42 47
f 33 35 34
f 37 45 38
f 38 45 48
f 38 48 39
f 39 48 40
f 40 49 50
f 40 50 51
f 40 51 43
f 40 43 41
f 40 48 49
f 42 43 52
f 42 52 47
f 43 51 53
f 43 53 52
f 44 54 46
f 46 54 55
f 46 55 63
f 46 63 62
f 46 62 68
f 46 68 72
f 46 72 74
f 46 74 73
f 46 73 69
f 46 69 64
f 46 64 58
f 46 58 57
f 46 57 52
f 46 52 56
f 47 52 57
f 47 57 58
f 47 58 59
f 50 60 53
f 50 53 51
f 52 53 60
f 52 60 56
f 54 61 62
f 54 62 63
f 54 63 55
f 58 64 65
f 58 65 66
f 58 66 59
f 61 67 62
f 62 67 68
f 64 69 70
f 64 70 65
f 67 71 68
f 68 71 72
f 69 73 70
f 70 73 74
f 70 74 72
f 70 72 71

