# https://github.com/mikedh/trimesh
v 0.01097775 0.03780267 0.00838008
v 0.01097775 0.03779964 0.00755971
v 0.01097775 0.03613142 0.00838294
v 0.01157716 0.03769297 0.00838294
v 0.01197904 0.03762790 0.00668736
v 0.01197904 0.03762790 0.00633107
v 0.01133292 0.03766195 0.00354851
v 0.01097775 0.03770583 0.00354851
v 0.01182043 0.03761202 0.00440370
v 0.01097775 0.03502457 0.00838294
v 0.01194595 0.03762034 0.00838294
v 0.01234880 0.03746978 0.00838294
v 0.01231864 0.03748642 0.00697067
v 0.01231864 0.03747735 0.00607304
v 0.01240038 0.03740774 0.00440370
v 0.01132514 0.03766119 0.00351084
v 0.01176010 0.03758478 0.00354851
v 0.01097775 0.03770356 0.00351084
v 0.01240038 0.03736613 0.00354851
v 0.01097775 0.03501398 0.00800567
v 0.02091861 0.03015912 0.00838103
v 0.02066172 0.03032103 0.00838294
v 0.01325473 0.03707561 0.00838294
v 0.01325473 0.03707486 0.00782347
v 0.01378602 0.03682141 0.00782347
v 0.01327030 0.03695835 0.00351084
v 0.01172701 0.03758856 0.00351084
v 0.01175037 0.03758327 0.00351084
v 0.01178832 0.03757192 0.00351084
v 0.01097775 0.03495648 0.00351084
v 0.01284020 0.03715883 0.00351084
v 0.01244319 0.03734344 0.00351084
v 0.01240038 0.03736235 0.00351084
v 0.02091861 0.03007439 0.00351084
v 0.02091861 0.03067510 0.00838294
v 0.01378894 0.03682216 0.00838294
v 0.01550057 0.03596952 0.00803047
v 0.01720149 0.03511082 0.00810106
v 0.01890047 0.03424985 0.00810297
v 0.02058582 0.03338586 0.00804335
v 0.02091861 0.03293722 0.00351084
v 0.02091861 0.03318461 0.00838294
v 0.01406919 0.03668220 0.00838294
v 0.01720149 0.03511082 0.00838294
v 0.01890047 0.03424985 0.00838294
v 0.02058582 0.03338586 0.00838294
v 0.02073567 0.03329583 0.00838294
v 0.02091861 0.03318461 0.00837388
v 0.02091861 0.03317780 0.00778436
f 1 2 8
f 1 8 18
f 1 18 30
f 1 30 20
f 1 20 10
f 1 10 3
f 1 3 4
f 1 4 5
f 1 5 6
f 1 6 2
f 2 7 8
f 2 6 9
f 2 9 7
f 3 10 22
f 3 22 35
f 3 35 42
f 3 42 47
f 3 47 46
f 3 46 45
f 3 45 44
f 3 44 43
f 3 43 36
f 3 36 23
f 3 23 12
f 3 12 11
f 3 11 4
f 4 11 5
f 5 11 12
f 5 12 13
f 5 13 6
f 6 13 14
f 6 14 15
f 6 15 9
f 7 16 8
f 7 9 17
f 7 17 16
f 8 16 18
f 9 15 19
f 9 19 17
f 10 20 21
f 10 21 22
f 12 23 13
f 13 23 24
f 13 24 14
f 14 24 15
f 15 24 25
f 15 25 26
f 15 26 19
f 16 17 27
f 16 27 28
f 16 28 29
f 16 29 33
f 16 33 32
f 16 32 31
f 16 31 26
f 16 26 41
f 16 41 34
f 16 34 30
f 16 30 18
f 17 28 27
f 17 19 29
f 17 29 28
f 19 26 31
f 19 31 32
f 19 32 33
f 19 33 29
f 20 30 34
f 20 34 21
f 21 34 41
f 21 41 49
f 21 49 48
f 21 48 42
f 21 42 35
f 21 35 22
f 23 36 24
f 24 36 25
f 25 36 37
f 25 37 26
f 26 37 38
f 26 38 39
f 26 39 40
f 26 40 41
f 36 43 37
f 37 43 44
f 37 44 38
f 38 44 45
f 38 45 39
f 39 45 46
f 39 46 40
f 40 46 47
f 40 47 48
f 40 48 49
f 40 49 41
f 42 48 47

