# https://github.com/mikedh/trimesh
v 0.02540972 -0.01127898 0.00265574
v 0.02540972 -0.01154445 0.00272624
v 0.02540972 -0.01127898 0.00040919
v 0.02444740 -0.01127898 0.00300243
v 0.02540972 -0.01221696 0.00278802
v 0.02401971 -0.01127898 0.00314779
v 0.02540972 -0.01154445 0.00032197
v 0.02491986 -0.01127898 0.00041355
v 0.02540972 -0.01240026 0.00280474
v 0.02064538 -0.01127898 0.00398725
v 0.02540972 -0.01240026 0.00017225
v 0.02325632 -0.01127898 0.00052475
v 0.02354228 -0.01127898 0.00050440
v 0.02410674 -0.01127898 0.00046588
v 0.02540972 -0.02419202 0.00196019
v 0.02265953 -0.01325481 0.00338037
v 0.00812780 -0.01127898 0.00636899
v 0.02540972 -0.02009499 -0.00061924
v 0.02522571 -0.02009499 -0.00060616
v 0.00384835 -0.02419202 0.00094630
v 0.02304993 -0.01127898 0.00054728
v 0.02540972 -0.02419202 -0.00021441
v 0.00812531 -0.01154445 0.00632029
v 0.01154440 -0.01582098 0.00510217
v 0.01151207 -0.01671977 0.00491465
v 0.00659356 -0.02419202 0.00359986
v 0.00417907 -0.01127898 0.00673530
v 0.02540972 -0.02095080 -0.00065994
v 0.02522571 -0.02095080 -0.00066430
v 0.01581888 -0.02419202 -0.00009740
v 0.00470374 -0.02419202 0.00086780
v 0.00300539 -0.02419202 0.00106113
v 0.00000654 -0.01838463 0.00255108
v 0.00000654 -0.01753134 0.00270807
v 0.00000654 -0.01667553 0.00289413
v 0.00000654 -0.01602324 0.00305767
v 0.00000654 -0.01581213 0.00311654
v 0.00000654 -0.01559597 0.00317759
v 0.00000654 -0.01496517 0.00336947
v 0.00000654 -0.01411062 0.00367182
v 0.00299544 -0.01127898 0.00420093
v 0.02540972 -0.02370027 -0.00034887
v 0.02353979 -0.02419202 -0.00049350
v 0.01069149 -0.01582098 0.00518284
v 0.00095394 -0.01713946 0.00569451
v 0.00042927 -0.01722416 0.00571777
v 0.00555914 -0.02419202 0.00367472
v 0.00387570 -0.01127898 0.00675928
v 0.02540972 -0.02180535 -0.00061633
v 0.02522571 -0.02180535 -0.00063087
v 0.02351493 -0.02351571 -0.00058217
v 0.02266202 -0.02419202 -0.00053202
v 0.00223206 -0.02419202 0.00121885
v 0.00000654 -0.01924044 0.00243334
v 0.00000654 -0.01384010 0.00378665
v 0.00000654 -0.01355946 0.00390730
v 0.00215497 -0.01127898 0.00453889
v 0.02540972 -0.02365603 -0.00036050
v 0.02540972 -0.02284320 -0.00050586
v 0.02540972 -0.02363833 -0.00036486
v 0.00042927 -0.01667553 0.00583406
v 0.00000654 -0.01722795 0.00571850
v 0.00000654 -0.01743906 0.00566399
v 0.00042927 -0.01765143 0.00560657
v 0.00470126 -0.02419202 0.00370816
v 0.00325902 -0.01127898 0.00675856
v 0.00299544 -0.01225362 0.00659648
v 0.02540972 -0.02198865 -0.00059744
v 0.00068290 -0.02419202 0.00183009
v 0.00000654 -0.01967403 0.00243843
v 0.00000654 -0.01313219 0.00425399
v 0.00000654 -0.01291855 0.00446476
v 0.00000654 -0.01269986 0.00468208
v 0.00185161 -0.01127898 0.00492701
v 0.00042927 -0.01582098 0.00598596
v 0.00000654 -0.01582098 0.00598742
v 0.00000654 -0.01667553 0.00583479
v 0.00000654 -0.01694984 0.00577737
v 0.00000654 -0.01765649 0.00560730
v 0.00042927 -0.01838463 0.00540452
v 0.00383840 -0.02419202 0.00365946
v 0.00000654 -0.01838463 0.00540452
v 0.00000654 -0.01924044 0.00513560
v 0.00299544 -0.01127898 0.00672512
v 0.00000654 -0.01496517 0.00610443
v 0.00130206 -0.02419202 0.00271025
v 0.00000654 -0.02081428 0.00425181
v 0.00000654 -0.02099252 0.00390585
v 0.00000654 -0.02120742 0.00348648
v 0.00000654 -0.02109238 0.00317832
v 0.00000654 -0.02097356 0.00286506
v 0.00000654 -0.02050583 0.00263975
v 0.00000654 -0.02009499 0.00244352
v 0.00000654 -0.01268469 0.00495027
v 0.00159051 -0.01127898 0.00540743
v 0.00171733 -0.01127898 0.00512833
v 0.00315210 -0.02419202 0.00354681
v 0.00000654 -0.01984090 0.00491102
v 0.00264483 -0.01127898 0.00664954
v 0.00000654 -0.01411062 0.00612842
v 0.00000654 -0.01453157 0.00611751
v 0.00177949 -0.02419202 0.00302205
v 0.00000654 -0.02026817 0.00467989
v 0.00000654 -0.02053996 0.00446912
v 0.00000654 -0.01266952 0.00521918
v 0.00159051 -0.01127898 0.00542560
v 0.00233152 -0.02419202 0.00333313
v 0.00000654 -0.02005201 0.00479764
v 0.00247326 -0.01127898 0.00659285
v 0.00000654 -0.01365048 0.00600922
v 0.00217984 -0.02419202 0.00325245
v 0.00000654 -0.01321562 0.00589439
v 0.00163776 -0.01127898 0.00577301
v 0.00217984 -0.01127898 0.00635009
v 0.00173473 -0.01127898 0.00590602
f 1 2 5
f 1 5 9
f 1 9 15
f 1 15 22
f 1 22 42
f 1 42 58
f 1 58 60
f 1 60 59
f 1 59 68
f 1 68 49
f 1 49 28
f 1 28 18
f 1 18 11
f 1 11 7
f 1 7 3
f 1 3 8
f 1 8 14
f 1 14 13
f 1 13 12
f 1 12 21
f 1 21 41
f 1 41 57
f 1 57 74
f 1 74 96
f 1 96 95
f 1 95 106
f 1 106 113
f 1 113 115
f 1 115 114
f 1 114 109
f 1 109 99
f 1 99 84
f 1 84 66
f 1 66 48
f 1 48 27
f 1 27 17
f 1 17 10
f 1 10 6
f 1 6 4
f 1 4 2
f 2 4 6
f 2 6 5
f 3 7 8
f 5 6 9
f 6 10 9
f 7 11 12
f 7 12 13
f 7 13 14
f 7 14 8
f 9 10 16
f 9 16 15
f 10 15 16
f 10 17 15
f 11 18 19
f 11 19 20
f 11 20 12
f 12 20 21
f 15 17 23
f 15 23 24
f 15 24 25
f 15 25 26
f 15 26 47
f 15 47 65
f 15 65 81
f 15 81 97
f 15 97 107
f 15 107 111
f 15 111 102
f 15 102 86
f 15 86 69
f 15 69 53
f 15 53 32
f 15 32 20
f 15 20 31
f 15 31 30
f 15 30 52
f 15 52 43
f 15 43 22
f 17 27 23
f 18 28 29
f 18 29 19
f 19 29 30
f 19 30 31
f 19 31 20
f 20 32 21
f 21 32 33
f 21 33 34
f 21 34 35
f 21 35 36
f 21 36 37
f 21 37 38
f 21 38 39
f 21 39 40
f 21 40 41
f 22 43 42
f 23 44 24
f 23 27 44
f 24 44 25
f 25 44 27
f 25 27 45
f 25 45 26
f 26 45 46
f 26 46 47
f 27 48 46
f 27 46 45
f 28 49 50
f 28 50 29
f 29 50 51
f 29 51 30
f 30 51 52
f 32 53 33
f 33 54 70
f 33 70 93
f 33 93 92
f 33 92 91
f 33 91 90
f 33 90 89
f 33 89 88
f 33 88 87
f 33 87 104
f 33 104 103
f 33 103 108
f 33 108 98
f 33 98 83
f 33 83 82
f 33 82 79
f 33 79 63
f 33 63 62
f 33 62 78
f 33 78 77
f 33 77 76
f 33 76 85
f 33 85 101
f 33 101 100
f 33 100 110
f 33 110 112
f 33 112 105
f 33 105 94
f 33 94 73
f 33 73 72
f 33 72 71
f 33 71 56
f 33 56 55
f 33 55 40
f 33 40 39
f 33 39 38
f 33 38 37
f 33 37 36
f 33 36 35
f 33 35 34
f 33 53 54
f 40 55 41
f 41 55 56
f 41 56 57
f 42 43 58
f 43 59 60
f 43 60 58
f 43 52 51
f 43 51 59
f 46 61 62
f 46 62 63
f 46 63 64
f 46 64 47
f 46 48 61
f 47 64 65
f 48 66 67
f 48 67 61
f 49 68 50
f 50 68 51
f 51 68 59
f 53 69 54
f 54 69 70
f 56 71 57
f 57 71 72
f 57 72 73
f 57 73 74
f 61 75 76
f 61 76 77
f 61 77 78
f 61 78 62
f 61 67 75
f 63 79 64
f 64 79 80
f 64 80 65
f 65 80 82
f 65 82 83
f 65 83 81
f 66 84 85
f 66 85 76
f 66 76 67
f 67 76 75
f 69 86 87
f 69 87 88
f 69 88 89
f 69 89 90
f 69 90 91
f 69 91 92
f 69 92 93
f 69 93 70
f 73 94 95
f 73 95 96
f 73 96 74
f 79 82 80
f 81 83 98
f 81 98 97
f 84 99 100
f 84 100 101
f 84 101 85
f 86 102 103
f 86 103 104
f 86 104 87
f 94 105 95
f 95 105 106
f 97 98 107
f 98 108 107
f 99 109 100
f 100 109 110
f 102 111 103
f 103 111 107
f 103 107 108
f 105 112 113
f 105 113 106
f 109 114 112
f 109 112 110
f 112 114 115
f 112 115 113

