# https://github.com/mikedh/trimesh
v 0.02892480 0.02256922 0.00838342
v 0.03231299 0.02256922 0.00838342
v 0.02896681 0.02256922 0.00368643
v 0.03442927 0.01264918 0.00838342
v 0.03231299 0.02256922 0.00825697
v 0.03234182 0.02251775 0.00838342
v 0.03219849 0.02256922 0.00368643
v 0.03452565 0.01264918 0.00368643
v 0.03443257 0.01264918 0.00817374
v 0.03733967 0.01264918 0.00838342
v 0.03249834 0.02223709 0.00838342
v 0.03249752 0.02223709 0.00782382
v 0.03231217 0.02256922 0.00782382
v 0.03230887 0.02256922 0.00704766
v 0.03249669 0.02223515 0.00737275
v 0.03338390 0.02058424 0.00805465
v 0.03244644 0.02209045 0.00368643
v 0.03726636 0.01264918 0.00368643
v 0.03733967 0.01264918 0.00822064
v 0.03731990 0.01269580 0.00838342
v 0.03265238 0.02195449 0.00838342
v 0.03273229 0.02180591 0.00838342
v 0.03272900 0.02180591 0.00782382
v 0.03338390 0.02058424 0.00838342
v 0.03424969 0.01890031 0.00810937
v 0.03704805 0.01312018 0.00368643
v 0.03728777 0.01264918 0.00415590
v 0.03733720 0.01264918 0.00782382
v 0.03707359 0.01325516 0.00782382
v 0.03707689 0.01325516 0.00838342
v 0.03424969 0.01890031 0.00838342
v 0.03511053 0.01720278 0.00809649
v 0.03596973 0.01550137 0.00802338
v 0.03682152 0.01378734 0.00782382
v 0.03698957 0.01343871 0.00838342
v 0.03511053 0.01720278 0.00838342
v 0.03682234 0.01378928 0.00838342
v 0.03596973 0.01550137 0.00838342
f 1 2 5
f 1 5 13
f 1 13 14
f 1 14 7
f 1 7 3
f 1 3 4
f 1 4 10
f 1 10 20
f 1 20 30
f 1 30 35
f 1 35 37
f 1 37 38
f 1 38 36
f 1 36 31
f 1 31 24
f 1 24 22
f 1 22 21
f 1 21 11
f 1 11 6
f 1 6 2
f 2 6 5
f 3 7 17
f 3 17 26
f 3 26 18
f 3 18 8
f 3 8 9
f 3 9 4
f 4 9 8
f 4 8 18
f 4 18 27
f 4 27 28
f 4 28 19
f 4 19 10
f 5 6 11
f 5 11 12
f 5 12 13
f 7 14 15
f 7 15 16
f 7 16 17
f 10 19 20
f 11 21 12
f 12 21 15
f 12 15 13
f 13 15 14
f 15 21 22
f 15 22 23
f 15 23 16
f 16 24 31
f 16 31 25
f 16 25 26
f 16 26 17
f 16 23 22
f 16 22 24
f 18 26 27
f 19 28 29
f 19 29 30
f 19 30 20
f 25 32 26
f 25 31 36
f 25 36 32
f 26 32 33
f 26 33 34
f 26 34 27
f 27 34 29
f 27 29 28
f 29 34 30
f 30 34 35
f 32 36 38
f 32 38 33
f 33 37 34
f 33 38 37
f 34 37 35

