# https://github.com/mikedh/trimesh
v -0.01750163 0.03488114 0.00870437
v -0.01750163 0.03487964 0.00870878
v -0.01750163 0.03485200 0.00781942
v -0.01890118 0.03424975 0.00810979
v -0.01890118 0.03424975 0.00843794
v -0.02262000 0.03226144 0.01171509
v -0.02180667 0.03240117 0.01171509
v -0.01750163 0.03450978 0.00932100
v -0.01750163 0.03484901 0.00781439
v -0.02266195 0.03218299 0.00528173
v -0.02058514 0.03338374 0.00805499
v -0.02058514 0.03338374 0.00853494
v -0.02257806 0.03231225 0.00948665
v -0.02334024 0.03185048 0.01171509
v -0.02180667 0.03273293 0.00867855
v -0.02089410 0.03209482 0.01171509
v -0.01750163 0.03448437 0.00934494
v -0.01750163 0.03444925 0.00720846
v -0.02331364 0.03182657 0.00528173
v -0.02266195 0.03222184 0.00611377
v -0.02180871 0.03232346 0.00528173
v -0.02223533 0.03249532 0.00738419
v -0.02266502 0.03225696 0.00782383
v -0.02266604 0.03225846 0.00867855
v -0.02334024 0.03185048 0.01124396
v -0.02223840 0.03249756 0.00867855
v -0.02223738 0.03249681 0.00782383
v -0.02376481 0.03145222 0.00953389
v -0.02420472 0.03103379 0.00867855
v -0.02463236 0.03062283 0.00867855
v -0.02506819 0.03019468 0.00867855
v -0.02549583 0.02975906 0.00867855
v -0.02795220 0.02724771 0.00867855
v -0.02376788 0.03139020 0.01171509
v -0.02063936 0.03121237 0.01171509
v -0.01750163 0.03377752 0.00966491
v -0.01750163 0.03381040 0.00965672
v -0.01750163 0.03377752 0.00694518
v -0.02092684 0.03196929 0.00528173
v -0.02332387 0.03183554 0.00611377
v -0.02257703 0.03230254 0.00704722
v -0.02374128 0.03133939 0.00528173
v -0.02790922 0.02724771 0.00782383
v -0.02505693 0.03018870 0.00782383
v -0.02463032 0.03061610 0.00782383
v -0.02420268 0.03103005 0.00782383
v -0.02334126 0.03184899 0.01038924
v -0.02375458 0.03146044 0.00867855
v -0.02791843 0.02724771 0.00800082
v -0.02788979 0.02724771 0.00880263
v -0.02393873 0.03115484 0.01171509
v -0.02101687 0.03047563 0.01171509
v -0.01750163 0.03281961 0.00944635
v -0.01750163 0.03285248 0.00946146
v -0.01750163 0.03287116 0.00711965
v -0.02070893 0.03121685 0.00528173
v -0.02375049 0.03145671 0.00782383
v -0.02374946 0.03132744 0.00528173
v -0.02754808 0.02724771 0.00729538
v -0.02400830 0.03091200 0.00528173
v -0.02758696 0.02724771 0.00925613
v -0.02405229 0.03096355 0.01171509
v -0.02120613 0.03026641 0.01171509
v -0.01750163 0.03241238 0.00917929
v -0.01750163 0.03277253 0.00941800
v -0.01750163 0.03286145 0.00712469
v -0.02110792 0.03046965 0.00528173
v -0.02692402 0.02724771 0.00707115
v -0.02410856 0.03035757 0.00528173
v -0.02404820 0.02972095 0.00528173
v -0.02428861 0.03032245 0.01171509
v -0.02743964 0.02724771 0.00935187
v -0.02422928 0.02960962 0.01171509
v -0.02148134 0.03001535 0.01171509
v -0.01750163 0.03220765 0.00873272
v -0.01750163 0.03225024 0.00778793
v -0.01775944 0.03238473 0.00729223
v -0.02149873 0.03005346 0.00528173
v -0.02608102 0.02724771 0.00697982
v -0.02351621 0.02940489 0.00528173
v -0.02662528 0.02724771 0.00966301
v -0.02351621 0.02930850 0.01171509
v -0.02171766 0.02984499 0.01171509
v -0.01750163 0.03224725 0.00779423
v -0.02450960 0.02724771 0.00867855
v -0.02150998 0.03004225 0.00528173
v -0.02527587 0.02724771 0.00714799
v -0.02349677 0.02940489 0.00528173
v -0.02266297 0.02941908 0.00528173
v -0.02577205 0.02724771 0.00966806
v -0.02267320 0.02935183 0.01171509
v -0.02190898 0.02971199 0.01171509
v -0.02193762 0.02973963 0.00528173
v -0.02152123 0.03003403 0.00528173
v -0.02451983 0.02724771 0.00851730
v -0.02456791 0.02724771 0.00782383
v -0.02473978 0.02724771 0.00914275
v -0.02488199 0.02724771 0.00733758
v -0.02503136 0.02724771 0.00937076
v -0.02478684 0.02724771 0.00919566
v -0.02467533 0.02724771 0.00764117
f 1 2 8
f 1 8 17
f 1 17 37
f 1 37 36
f 1 36 54
f 1 54 53
f 1 53 65
f 1 65 64
f 1 64 75
f 1 75 84
f 1 84 76
f 1 76 66
f 1 66 55
f 1 55 38
f 1 38 18
f 1 18 9
f 1 9 3
f 1 3 4
f 1 4 5
f 1 5 6
f 1 6 2
f 2 7 8
f 2 6 7
f 3 9 10
f 3 10 4
f 4 11 12
f 4 12 5
f 4 10 11
f 5 12 6
f 6 13 14
f 6 14 34
f 6 34 51
f 6 51 62
f 6 62 71
f 6 71 73
f 6 73 82
f 6 82 91
f 6 91 92
f 6 92 83
f 6 83 74
f 6 74 63
f 6 63 52
f 6 52 35
f 6 35 16
f 6 16 7
f 6 12 15
f 6 15 13
f 7 16 17
f 7 17 8
f 9 18 10
f 10 19 20
f 10 20 11
f 10 18 21
f 10 21 39
f 10 39 56
f 10 56 67
f 10 67 78
f 10 78 86
f 10 86 94
f 10 94 93
f 10 93 89
f 10 89 88
f 10 88 80
f 10 80 70
f 10 70 69
f 10 69 60
f 10 60 58
f 10 58 42
f 10 42 19
f 11 22 15
f 11 15 12
f 11 20 22
f 13 23 24
f 13 24 25
f 13 25 14
f 13 15 26
f 13 26 27
f 13 27 23
f 14 25 28
f 14 28 29
f 14 29 30
f 14 30 31
f 14 31 32
f 14 32 33
f 14 33 34
f 15 22 27
f 15 27 26
f 16 35 36
f 16 36 37
f 16 37 17
f 18 38 39
f 18 39 21
f 19 40 41
f 19 41 20
f 19 42 43
f 19 43 44
f 19 44 45
f 19 45 46
f 19 46 40
f 20 41 22
f 22 41 27
f 23 27 41
f 23 41 40
f 23 40 47
f 23 47 24
f 24 47 25
f 25 47 28
f 28 48 29
f 28 47 48
f 29 48 46
f 29 46 30
f 30 45 31
f 30 46 45
f 31 45 44
f 31 44 32
f 32 44 33
f 33 44 49
f 33 49 43
f 33 43 59
f 33 59 68
f 33 68 79
f 33 79 87
f 33 87 98
f 33 98 101
f 33 101 96
f 33 96 95
f 33 95 85
f 33 85 97
f 33 97 100
f 33 100 99
f 33 99 90
f 33 90 81
f 33 81 72
f 33 72 61
f 33 61 50
f 33 50 51
f 33 51 34
f 35 52 53
f 35 53 54
f 35 54 36
f 38 55 56
f 38 56 39
f 40 46 57
f 40 57 48
f 40 48 47
f 42 58 43
f 43 49 44
f 43 58 60
f 43 60 59
f 46 48 57
f 50 61 62
f 50 62 51
f 52 63 64
f 52 64 65
f 52 65 53
f 55 66 67
f 55 67 56
f 59 60 69
f 59 69 70
f 59 70 68
f 61 71 62
f 61 72 73
f 61 73 71
f 63 74 64
f 64 74 75
f 66 76 77
f 66 77 67
f 67 77 76
f 67 76 78
f 68 70 80
f 68 80 79
f 72 81 73
f 73 81 82
f 74 83 75
f 75 83 85
f 75 85 84
f 76 84 86
f 76 86 78
f 79 80 88
f 79 88 89
f 79 89 87
f 81 90 82
f 82 90 91
f 83 92 85
f 84 93 94
f 84 94 86
f 84 85 95
f 84 95 96
f 84 96 93
f 85 92 97
f 87 89 98
f 89 93 98
f 90 99 91
f 91 99 100
f 91 100 92
f 92 100 97
f 93 96 101
f 93 101 98

