# https://github.com/mikedh/trimesh
v -0.02621083 0.02489301 0.08393125
v -0.02621083 0.02492695 0.08421360
v -0.02621083 0.02507764 0.08318793
v -0.01374924 0.03362080 0.08305587
v -0.01374924 0.03345111 0.08393125
v -0.02621083 0.02513194 0.08468165
v -0.01374924 0.03370226 0.08482637
v -0.02621083 0.02516316 0.08303310
v -0.01374924 0.03400092 0.08227106
v -0.02621083 0.02519439 0.08475552
v -0.01374924 0.03386381 0.08504496
v -0.02621083 0.02534915 0.08279072
v -0.02190691 0.02972323 0.08050967
v -0.01374924 0.03424257 0.08185715
v -0.02621083 0.02523104 0.08479752
v -0.01374924 0.03408102 0.08529189
v -0.02621083 0.02578357 0.08232419
v -0.02266083 0.02940692 0.08050967
v -0.02147994 0.03001918 0.08050967
v -0.01374924 0.03465527 0.08139719
v -0.02621083 0.02562881 0.08519069
v -0.01374924 0.03423035 0.08535260
v -0.02621083 0.02588946 0.08532680
v -0.02621083 0.02605780 0.08212989
v -0.02351600 0.02941914 0.08050967
v -0.02621083 0.02682075 0.08173672
v -0.02109932 0.03044681 0.08050967
v -0.01374924 0.03560149 0.08071460
v -0.01374924 0.03511956 0.08096811
v -0.01374924 0.03460368 0.08547911
v -0.02621083 0.02598721 0.08535969
v -0.02405765 0.02973545 0.08050967
v -0.02621083 0.02695244 0.08172407
v -0.02070284 0.03121112 0.08050967
v -0.01374924 0.03612551 0.08070549
v -0.01374924 0.03499466 0.08557474
v -0.02621083 0.02680854 0.08555804
v -0.02413817 0.03035721 0.08050967
v -0.02621083 0.02777241 0.08170079
v -0.02070894 0.03123556 0.08050967
v -0.01374924 0.03635223 0.08087197
v -0.02098586 0.03209897 0.08050967
v -0.02166171 0.03236777 0.08050967
v -0.02174710 0.03239628 0.08050967
v -0.02266083 0.03222658 0.08050967
v -0.01374924 0.03548746 0.08564457
v -0.02621083 0.02766380 0.08564963
v -0.02402471 0.03093689 0.08050967
v -0.02621083 0.02790138 0.08172913
v -0.01582068 0.03776681 0.08334024
v -0.01390539 0.03855963 0.08340349
v -0.01374924 0.03858814 0.08337364
v -0.02334521 0.03185325 0.08050967
v -0.01975007 0.03595989 0.08344751
v -0.01808121 0.03682602 0.08343233
v -0.01632451 0.03765956 0.08345814
v -0.01374924 0.03584993 0.08566481
v -0.02621083 0.02779277 0.08565418
v -0.02621083 0.03053370 0.08277757
v -0.02621083 0.03065180 0.08284689
v -0.02621083 0.03120569 0.08317326
v -0.02377219 0.03136589 0.08050967
v -0.02621083 0.02864804 0.08191939
v -0.02621083 0.02943407 0.08224879
v -0.01447509 0.03845646 0.08365851
v -0.01374924 0.03876191 0.08393530
v -0.02583509 0.03178266 0.08336402
v -0.02490306 0.03257548 0.08341614
v -0.02396371 0.03336422 0.08348546
v -0.02139698 0.03507204 0.08348749
v -0.01924136 0.03635766 0.08393125
v -0.01863750 0.03668347 0.08393125
v -0.01820930 0.03688575 0.08393125
v -0.01753102 0.03720071 0.08393125
v -0.01685762 0.03751159 0.08393125
v -0.01643064 0.03770844 0.08393125
v -0.01582068 0.03797180 0.08393125
v -0.01374924 0.03634272 0.08567746
v -0.02621083 0.02851907 0.08567746
v -0.02621083 0.03170392 0.08393125
v -0.01490817 0.03833428 0.08393884
v -0.01458489 0.03849718 0.08422878
v -0.01458489 0.03849718 0.08440436
v -0.01374924 0.03873611 0.08431834
v -0.02500188 0.03265422 0.08393125
v -0.02444925 0.03308185 0.08393125
v -0.02402105 0.03340631 0.08393125
v -0.02351600 0.03374706 0.08393125
v -0.02295971 0.03411903 0.08393125
v -0.02188617 0.03483039 0.08393125
v -0.02145920 0.03511141 0.08393125
v -0.02095049 0.03540057 0.08393125
v -0.02146652 0.03511548 0.08449190
v -0.01982937 0.03600469 0.08456375
v -0.01817148 0.03686946 0.08458956
v -0.01641600 0.03770301 0.08454452
v -0.01374924 0.03670519 0.08566987
v -0.01411033 0.03634272 0.08567796
v -0.01753102 0.03463219 0.08567898
v -0.02522634 0.02950330 0.08567796
v -0.02621083 0.02864804 0.08567645
v -0.02621083 0.03164555 0.08423738
v -0.02496528 0.03262707 0.08461688
v -0.02402715 0.03341038 0.08449544
v -0.01374924 0.03845917 0.08517702
v -0.01411033 0.03858542 0.08460271
v -0.01582434 0.03782247 0.08481220
v -0.01374924 0.03865738 0.08472668
v -0.02121643 0.03495801 0.08506216
v -0.01957196 0.03585536 0.08513401
v -0.02242172 0.03433081 0.08478639
v -0.02225093 0.03421678 0.08522358
v -0.01926942 0.03617439 0.08482383
v -0.01842767 0.03660745 0.08483952
v -0.01787992 0.03672827 0.08515982
v -0.01611224 0.03755639 0.08511479
v -0.01374924 0.03719799 0.08563698
v -0.01496551 0.03634272 0.08567139
v -0.01667585 0.03548746 0.08567443
v -0.01838619 0.03463219 0.08567493
v -0.01924136 0.03377692 0.08567847
v -0.02437117 0.03035857 0.08567796
v -0.02621083 0.02937434 0.08566835
v -0.02621083 0.03153151 0.08478639
v -0.02477009 0.03247095 0.08518714
v -0.02586924 0.03180981 0.08478639
v -0.02380146 0.03324611 0.08506570
v -0.01374924 0.03838450 0.08523977
v -0.01554253 0.03767993 0.08526152
v -0.02064672 0.03512227 0.08526355
v -0.01900226 0.03600741 0.08528126
v -0.02180566 0.03435117 0.08529948
v -0.02323054 0.03343753 0.08527620
v -0.01730899 0.03685046 0.08527670
v -0.01411033 0.03719799 0.08562129
v -0.01582068 0.03634272 0.08564558
v -0.01374924 0.03763513 0.08552819
v -0.01753102 0.03548746 0.08565165
v -0.02009531 0.03377692 0.08567139
v -0.02266083 0.03206775 0.08567341
v -0.02095049 0.03292166 0.08567695
v -0.02351600 0.03121384 0.08567645
v -0.02608151 0.02950330 0.08566784
v -0.02621083 0.02950330 0.08565570
v -0.02621083 0.03149214 0.08485116
v -0.02419916 0.03267594 0.08531415
v -0.02569724 0.03167405 0.08523926
v -0.01496551 0.03778174 0.08532579
v -0.01411033 0.03795008 0.08538904
v -0.01374924 0.03803697 0.08540422
v -0.01667585 0.03699164 0.08535008
v -0.02093951 0.03465663 0.08539207
v -0.02009531 0.03527568 0.08533945
v -0.01838619 0.03616624 0.08535716
v -0.02258519 0.03374434 0.08533388
v -0.02180566 0.03377692 0.08550896
v -0.02351600 0.03294609 0.08539815
v -0.01496551 0.03719799 0.08554944
v -0.01667585 0.03634272 0.08557677
v -0.01838619 0.03548746 0.08558486
v -0.01924136 0.03463219 0.08564609
v -0.02180566 0.03292166 0.08565773
v -0.02437117 0.03121384 0.08564660
v -0.02522634 0.03035857 0.08566026
v -0.02621083 0.03022960 0.08557322
v -0.02621083 0.03107401 0.08531567
v -0.02522634 0.03186004 0.08532174
v -0.02443949 0.03213834 0.08543508
v -0.02602174 0.03117447 0.08533945
v -0.01582434 0.03724143 0.08540067
v -0.01756884 0.03640246 0.08541434
v -0.01926942 0.03553769 0.08541383
v -0.02009531 0.03463219 0.08556310
v -0.02266083 0.03292166 0.08558233
v -0.02522634 0.03121384 0.08553426
v -0.02095049 0.03377692 0.08563040
v -0.02351600 0.03206775 0.08562736
v -0.02608151 0.03035857 0.08557120
v -0.02621083 0.03035450 0.08553881
v -0.02621083 0.03099527 0.08534501
f 1 2 6
f 1 6 10
f 1 10 15
f 1 15 21
f 1 21 23
f 1 23 31
f 1 31 37
f 1 37 47
f 1 47 58
f 1 58 79
f 1 79 101
f 1 101 123
f 1 123 144
f 1 144 165
f 1 165 179
f 1 179 180
f 1 180 166
f 1 166 145
f 1 145 124
f 1 124 102
f 1 102 80
f 1 80 61
f 1 61 60
f 1 60 59
f 1 59 64
f 1 64 63
f 1 63 49
f 1 49 39
f 1 39 33
f 1 33 26
f 1 26 24
f 1 24 17
f 1 17 12
f 1 12 8
f 1 8 3
f 1 3 4
f 1 4 5
f 1 5 2
f 2 5 7
f 2 7 6
f 3 8 9
f 3 9 4
f 4 9 14
f 4 14 20
f 4 20 29
f 4 29 28
f 4 28 35
f 4 35 41
f 4 41 52
f 4 52 66
f 4 66 84
f 4 84 108
f 4 108 105
f 4 105 128
f 4 128 150
f 4 150 137
f 4 137 117
f 4 117 97
f 4 97 78
f 4 78 57
f 4 57 46
f 4 46 36
f 4 36 30
f 4 30 22
f 4 22 16
f 4 16 11
f 4 11 7
f 4 7 5
f 6 7 11
f 6 11 10
f 8 12 13
f 8 13 14
f 8 14 9
f 10 11 15
f 11 16 15
f 12 17 13
f 13 17 18
f 13 18 25
f 13 25 32
f 13 32 38
f 13 38 48
f 13 48 62
f 13 62 53
f 13 53 45
f 13 45 44
f 13 44 43
f 13 43 42
f 13 42 40
f 13 40 34
f 13 34 27
f 13 27 19
f 13 19 14
f 14 19 20
f 15 16 21
f 16 22 23
f 16 23 21
f 17 24 18
f 18 24 26
f 18 26 25
f 19 27 28
f 19 28 29
f 19 29 20
f 22 30 23
f 23 30 31
f 25 26 32
f 26 33 32
f 27 34 28
f 28 34 35
f 30 36 31
f 31 36 37
f 32 33 38
f 33 39 38
f 34 40 35
f 35 40 42
f 35 42 43
f 35 43 44
f 35 44 45
f 35 45 41
f 36 46 37
f 37 46 47
f 38 39 48
f 39 49 48
f 41 50 51
f 41 51 52
f 41 45 50
f 45 53 54
f 45 54 55
f 45 55 56
f 45 56 50
f 46 57 47
f 47 57 58
f 48 59 60
f 48 60 61
f 48 61 62
f 48 49 63
f 48 63 64
f 48 64 59
f 50 56 51
f 51 56 65
f 51 65 66
f 51 66 52
f 53 62 61
f 53 61 67
f 53 67 68
f 53 68 69
f 53 69 70
f 53 70 54
f 54 70 71
f 54 71 72
f 54 72 55
f 55 72 73
f 55 73 56
f 56 73 74
f 56 74 75
f 56 75 76
f 56 76 77
f 56 77 65
f 57 78 79
f 57 79 58
f 61 80 67
f 65 81 82
f 65 82 66
f 65 77 81
f 66 83 84
f 66 82 83
f 67 80 68
f 68 80 69
f 69 80 85
f 69 85 86
f 69 86 87
f 69 87 88
f 69 88 89
f 69 89 70
f 70 89 90
f 70 90 91
f 70 91 92
f 70 92 71
f 71 92 93
f 71 93 94
f 71 94 72
f 72 94 95
f 72 95 96
f 72 96 73
f 73 96 74
f 74 96 75
f 75 96 76
f 76 96 83
f 76 83 77
f 77 83 82
f 77 82 81
f 78 97 98
f 78 98 99
f 78 99 79
f 79 100 101
f 79 99 100
f 80 102 103
f 80 103 104
f 80 104 85
f 83 105 106
f 83 106 84
f 83 96 107
f 83 107 105
f 84 106 108
f 85 104 86
f 86 104 87
f 87 104 88
f 88 104 89
f 89 104 93
f 89 93 90
f 90 93 91
f 91 93 92
f 93 109 110
f 93 110 94
f 93 104 111
f 93 111 112
f 93 112 109
f 94 110 113
f 94 113 95
f 95 114 115
f 95 115 96
f 95 113 114
f 96 115 116
f 96 116 107
f 97 117 118
f 97 118 98
f 98 118 119
f 98 119 120
f 98 120 99
f 99 120 121
f 99 121 122
f 99 122 100
f 100 122 123
f 100 123 101
f 102 124 103
f 103 125 104
f 103 124 126
f 103 126 125
f 104 125 127
f 104 127 112
f 104 112 111
f 105 108 106
f 105 107 116
f 105 116 129
f 105 129 128
f 109 130 110
f 109 112 130
f 110 131 115
f 110 115 114
f 110 114 113
f 110 130 131
f 112 132 130
f 112 127 125
f 112 125 133
f 112 133 132
f 115 134 129
f 115 129 116
f 115 131 134
f 117 135 136
f 117 136 118
f 117 137 135
f 118 136 138
f 118 138 119
f 119 138 120
f 120 139 140
f 120 140 141
f 120 141 121
f 120 138 139
f 121 141 122
f 122 142 123
f 122 141 142
f 123 142 140
f 123 140 143
f 123 143 144
f 124 145 125
f 124 125 126
f 125 146 133
f 125 145 147
f 125 147 146
f 128 129 148
f 128 148 149
f 128 149 150
f 129 134 151
f 129 151 148
f 130 132 152
f 130 152 153
f 130 153 131
f 131 153 154
f 131 154 134
f 132 133 155
f 132 155 156
f 132 156 152
f 133 146 157
f 133 157 155
f 134 154 151
f 135 137 158
f 135 158 159
f 135 159 136
f 136 159 160
f 136 160 138
f 137 150 158
f 138 160 161
f 138 161 139
f 139 161 162
f 139 162 140
f 140 163 164
f 140 164 143
f 140 142 141
f 140 162 163
f 143 164 144
f 144 164 165
f 145 166 147
f 146 147 167
f 146 167 168
f 146 168 157
f 147 166 169
f 147 169 167
f 148 151 170
f 148 170 158
f 148 158 149
f 149 158 150
f 151 154 171
f 151 171 170
f 152 172 153
f 152 156 173
f 152 173 172
f 153 172 154
f 154 172 160
f 154 160 171
f 155 157 156
f 156 157 174
f 156 174 173
f 157 168 175
f 157 175 174
f 158 170 159
f 159 170 171
f 159 171 160
f 160 172 173
f 160 173 176
f 160 176 161
f 161 176 162
f 162 176 177
f 162 177 163
f 163 178 165
f 163 165 164
f 163 177 178
f 165 178 179
f 166 180 169
f 167 169 175
f 167 175 168
f 169 180 175
f 173 174 176
f 174 175 177
f 174 177 176
f 175 180 178
f 175 178 177
f 178 180 179

