# https://github.com/mikedh/trimesh
v -0.02621079 -0.02489162 0.08393100
v -0.02621079 -0.02493582 0.08364704
v -0.02621079 -0.02512991 0.08468156
v -0.01014398 -0.03470760 0.08393100
v -0.02621079 -0.02507803 0.08318751
v -0.02621079 -0.02523080 0.08479880
v -0.01095715 -0.03470760 0.08482119
v -0.01036103 -0.03470760 0.08359519
v -0.02621079 -0.02516258 0.08303198
v -0.01069920 -0.03470760 0.08307616
v -0.02621079 -0.02535475 0.08490956
v -0.01156113 -0.03470760 0.08503092
v -0.02621079 -0.02588898 0.08532667
v -0.02621079 -0.02551617 0.08254358
v -0.02191058 -0.02972178 0.07966034
v -0.02191687 -0.02971794 0.07966034
v -0.01193390 -0.03470760 0.08177534
v -0.01240104 -0.03470760 0.08532078
v -0.02621079 -0.02609844 0.08538500
v -0.01261652 -0.03470760 0.08537086
v -0.02621079 -0.02578329 0.08232442
v -0.02272375 -0.02932399 0.07966034
v -0.02148590 -0.03002157 0.07966034
v -0.01249384 -0.03470760 0.08143541
v -0.02621079 -0.02693726 0.08557176
v -0.02608024 -0.02693726 0.08555820
v -0.01411074 -0.03463265 0.08553523
v -0.01411074 -0.03470760 0.08554583
v -0.02621079 -0.02597834 0.08218244
v -0.02351490 -0.02930189 0.07966034
v -0.02107224 -0.03044626 0.07966034
v -0.01338565 -0.03470760 0.08133997
v -0.02093226 -0.03220941 0.07966034
v -0.02074666 -0.03209026 0.07966034
v -0.02066959 -0.03116209 0.07966034
v -0.02106752 -0.03045298 0.07966034
v -0.02621079 -0.02779241 0.08565423
v -0.02608024 -0.02779241 0.08565011
v -0.01496638 -0.03463265 0.08560651
v -0.01496638 -0.03470760 0.08561240
v -0.02621079 -0.02605713 0.08213001
v -0.02421797 -0.02959399 0.07966034
v -0.02621079 -0.02654139 0.08182483
v -0.01397705 -0.03470760 0.08133879
v -0.02183980 -0.03240350 0.07966034
v -0.02621079 -0.02864756 0.08567662
v -0.02608024 -0.02864756 0.08567721
v -0.01667609 -0.03463265 0.08566896
v -0.01582045 -0.03470760 0.08565070
v -0.01582045 -0.03463265 0.08564775
v -0.02420696 -0.03035690 0.07966034
v -0.02621079 -0.02772035 0.08169522
v -0.02621079 -0.02687096 0.08172409
v -0.02621079 -0.02682100 0.08173646
v -0.01488145 -0.03470760 0.08147901
v -0.02266084 -0.03223151 0.07966034
v -0.01647319 -0.03470760 0.08175767
v -0.02009549 -0.03470760 0.08269676
v -0.02020245 -0.03470760 0.08272562
v -0.02621079 -0.02950271 0.08565541
v -0.02608024 -0.02950271 0.08566778
v -0.02522618 -0.02950271 0.08567839
v -0.01753172 -0.03463265 0.08567898
v -0.01667609 -0.03470760 0.08566955
v -0.02403867 -0.03094782 0.07966034
v -0.02621079 -0.02868311 0.08193088
v -0.02621079 -0.02831223 0.08178771
v -0.02621079 -0.02777127 0.08170111
v -0.02048556 -0.03470760 0.08282283
v -0.02078913 -0.03470760 0.08294596
v -0.02092125 -0.03470760 0.08300016
v -0.02160387 -0.03470760 0.08329238
v -0.02166207 -0.03470760 0.08332242
v -0.02333717 -0.03185293 0.07966034
v -0.02621079 -0.03035306 0.08553876
v -0.02608024 -0.03035690 0.08557116
v -0.02522618 -0.03035690 0.08566012
v -0.02266084 -0.03206720 0.08567368
v -0.02351490 -0.03121205 0.08567662
v -0.02437054 -0.03035690 0.08567780
v -0.01923985 -0.03377750 0.08567839
v -0.01838422 -0.03463265 0.08567485
v -0.01753172 -0.03470760 0.08567662
v -0.02376813 -0.03137251 0.07966034
v -0.02621079 -0.03120436 0.08317396
v -0.02621079 -0.03112942 0.08312977
v -0.02621079 -0.03052889 0.08277806
v -0.02621079 -0.03037900 0.08270618
v -0.02621079 -0.02943257 0.08225313
v -0.02200810 -0.03470760 0.08380139
v -0.02239817 -0.03431269 0.08338664
v -0.02396317 -0.03336434 0.08348561
v -0.02334346 -0.03184813 0.07966034
v -0.02621079 -0.03107273 0.08531548
v -0.02602205 -0.03117362 0.08533905
v -0.02522618 -0.03121205 0.08553405
v -0.02351490 -0.03206720 0.08562772
v -0.02437054 -0.03121205 0.08564657
v -0.02180520 -0.03292235 0.08565777
v -0.02009549 -0.03377750 0.08567132
v -0.02094956 -0.03292235 0.08567721
v -0.01923985 -0.03463265 0.08564598
v -0.01838422 -0.03470760 0.08566719
v -0.02583488 -0.03178183 0.08336425
v -0.02621079 -0.03163002 0.08373953
v -0.02207258 -0.03470760 0.08393100
v -0.02253186 -0.03440301 0.08393100
v -0.02295968 -0.03411860 0.08393100
v -0.02351490 -0.03374772 0.08393100
v -0.02402136 -0.03340566 0.08393100
v -0.02444918 -0.03308185 0.08393100
v -0.02500283 -0.03265428 0.08393100
v -0.02597329 -0.03189041 0.08393100
v -0.02621079 -0.03170304 0.08393100
v -0.02490217 -0.03257549 0.08341610
v -0.02621079 -0.03153009 0.08478584
v -0.02569647 -0.03167326 0.08523948
v -0.02522618 -0.03186062 0.08532196
v -0.02443975 -0.03213830 0.08543507
v -0.02266084 -0.03292235 0.08558236
v -0.02094956 -0.03377750 0.08563008
v -0.02009549 -0.03463265 0.08556292
v -0.01924143 -0.03470760 0.08562713
v -0.02185081 -0.03470760 0.08478113
v -0.02402766 -0.03341046 0.08449540
v -0.02496508 -0.03262641 0.08461676
v -0.02586948 -0.03180873 0.08478584
v -0.02477005 -0.03247076 0.08518705
v -0.02419910 -0.03267638 0.08531430
v -0.02351490 -0.03294541 0.08539796
v -0.02180520 -0.03377750 0.08550872
v -0.02009549 -0.03470760 0.08553759
v -0.02093855 -0.03465668 0.08539206
v -0.02177689 -0.03470760 0.08484534
v -0.02225032 -0.03421661 0.08522357
v -0.02242176 -0.03433095 0.08478584
v -0.02380116 -0.03324616 0.08506568
v -0.02323021 -0.03343737 0.08527601
v -0.02258534 -0.03374387 0.08533374
v -0.02180520 -0.03435113 0.08529898
v -0.02090709 -0.03470760 0.08537852
v -0.02098574 -0.03470760 0.08533728
f 1 2 5
f 1 5 9
f 1 9 14
f 1 14 21
f 1 21 29
f 1 29 41
f 1 41 43
f 1 43 54
f 1 54 53
f 1 53 52
f 1 52 68
f 1 68 67
f 1 67 66
f 1 66 89
f 1 89 88
f 1 88 87
f 1 87 86
f 1 86 85
f 1 85 105
f 1 105 114
f 1 114 116
f 1 116 94
f 1 94 75
f 1 75 60
f 1 60 46
f 1 46 37
f 1 37 25
f 1 25 19
f 1 19 13
f 1 13 11
f 1 11 6
f 1 6 3
f 1 3 4
f 1 4 2
f 2 4 5
f 3 6 7
f 3 7 4
f 4 7 12
f 4 12 18
f 4 18 20
f 4 20 28
f 4 28 40
f 4 40 49
f 4 49 64
f 4 64 83
f 4 83 103
f 4 103 123
f 4 123 132
f 4 132 141
f 4 141 142
f 4 142 134
f 4 134 124
f 4 124 106
f 4 106 90
f 4 90 73
f 4 73 72
f 4 72 71
f 4 71 70
f 4 70 69
f 4 69 59
f 4 59 58
f 4 58 57
f 4 57 55
f 4 55 44
f 4 44 32
f 4 32 24
f 4 24 17
f 4 17 10
f 4 10 8
f 4 8 5
f 5 8 10
f 5 10 9
f 6 11 7
f 7 11 13
f 7 13 12
f 9 10 15
f 9 15 16
f 9 16 14
f 10 17 15
f 12 13 18
f 13 19 20
f 13 20 18
f 14 16 22
f 14 22 21
f 15 17 23
f 15 23 31
f 15 31 36
f 15 36 35
f 15 35 34
f 15 34 33
f 15 33 45
f 15 45 56
f 15 56 74
f 15 74 93
f 15 93 84
f 15 84 65
f 15 65 51
f 15 51 42
f 15 42 30
f 15 30 22
f 15 22 16
f 17 24 23
f 19 25 26
f 19 26 20
f 20 27 28
f 20 26 27
f 21 22 30
f 21 30 29
f 23 24 31
f 24 32 33
f 24 33 34
f 24 34 35
f 24 35 36
f 24 36 31
f 25 37 38
f 25 38 39
f 25 39 28
f 25 28 27
f 25 27 26
f 28 39 40
f 29 30 41
f 30 42 43
f 30 43 41
f 32 44 45
f 32 45 33
f 37 46 47
f 37 47 48
f 37 48 49
f 37 49 50
f 37 50 38
f 38 50 40
f 38 40 39
f 40 50 49
f 42 51 52
f 42 52 53
f 42 53 54
f 42 54 43
f 44 55 45
f 45 55 57
f 45 57 58
f 45 58 59
f 45 59 56
f 46 60 61
f 46 61 62
f 46 62 47
f 47 62 63
f 47 63 48
f 48 63 64
f 48 64 49
f 51 65 66
f 51 66 67
f 51 67 68
f 51 68 52
f 56 59 69
f 56 69 70
f 56 70 71
f 56 71 72
f 56 72 73
f 56 73 74
f 60 75 76
f 60 76 77
f 60 77 61
f 61 77 78
f 61 78 79
f 61 79 80
f 61 80 62
f 62 80 81
f 62 81 63
f 63 81 82
f 63 82 83
f 63 83 64
f 65 84 85
f 65 85 86
f 65 86 87
f 65 87 88
f 65 88 89
f 65 89 66
f 73 90 91
f 73 91 74
f 74 92 93
f 74 91 92
f 75 94 95
f 75 95 96
f 75 96 76
f 76 96 97
f 76 97 98
f 76 98 77
f 77 98 78
f 78 98 99
f 78 99 100
f 78 100 82
f 78 82 101
f 78 101 79
f 79 101 80
f 80 101 81
f 81 101 82
f 82 100 102
f 82 102 103
f 82 103 83
f 84 93 104
f 84 104 85
f 85 104 105
f 90 106 92
f 90 92 91
f 92 106 107
f 92 107 108
f 92 108 109
f 92 109 110
f 92 110 111
f 92 111 112
f 92 112 113
f 92 113 114
f 92 114 115
f 92 115 93
f 93 115 104
f 94 116 117
f 94 117 95
f 95 117 118
f 95 118 96
f 96 118 119
f 96 119 120
f 96 120 97
f 97 120 121
f 97 121 99
f 97 99 98
f 99 121 102
f 99 102 100
f 102 121 122
f 102 122 123
f 102 123 103
f 104 115 105
f 105 115 114
f 106 124 125
f 106 125 107
f 107 125 108
f 108 125 109
f 109 125 110
f 110 125 111
f 111 125 112
f 112 125 113
f 113 125 114
f 114 125 126
f 114 126 116
f 116 126 127
f 116 127 128
f 116 128 117
f 117 128 129
f 117 129 118
f 118 129 119
f 119 129 130
f 119 130 120
f 120 130 131
f 120 131 122
f 120 122 121
f 122 132 123
f 122 131 133
f 122 133 132
f 124 134 135
f 124 135 136
f 124 136 125
f 125 136 135
f 125 135 137
f 125 137 128
f 125 128 126
f 126 128 127
f 128 137 135
f 128 135 138
f 128 138 129
f 129 138 139
f 129 139 130
f 130 139 131
f 131 139 140
f 131 140 133
f 132 133 141
f 133 140 141
f 134 142 135
f 135 142 141
f 135 141 140
f 135 140 138
f 138 140 139

