# https://github.com/mikedh/trimesh
v -0.03805333 0.00215355 0.01171572
v -0.03866930 0.00197652 0.01171572
v -0.03790578 0.00211868 0.01171572
v -0.03645188 0.00912757 0.01016966
v -0.03690326 0.00912757 0.01016966
v -0.03886756 0.00173690 0.01171572
v -0.03711898 0.00912757 0.01015242
v -0.03744692 0.00195864 0.01171572
v -0.03602544 0.00912757 0.00986545
v -0.03716553 0.00128359 0.01171572
v -0.03693236 0.00042793 0.01171572
v -0.03935718 0.00091343 0.01171572
v -0.03746853 0.00912757 0.00999299
v -0.03574405 0.00912757 0.00943541
v -0.03693070 -0.00000660 0.01171572
v -0.03940415 0.00071047 0.01171572
v -0.03754127 0.00912757 0.00991888
v -0.03777444 0.00912757 0.00962069
v -0.03783803 0.00912757 0.00950521
v -0.03806829 0.00912757 0.00884939
v -0.03810902 0.00912757 0.00867875
v -0.03550381 0.00912757 0.00867875
v -0.03946109 -0.00000660 0.01171572
v -0.03670667 -0.00000660 0.00867875
v -0.03946109 0.00042793 0.01171572
v -0.03809365 0.00912757 0.00782299
v -0.03850180 0.00697099 0.00817719
v -0.03850180 0.00697099 0.00834179
v -0.03522035 0.00912757 0.00291161
v -0.03632179 -0.00000660 0.00291161
v -0.03946151 0.00004436 0.01171572
v -0.03946608 -0.00000660 0.00953365
v -0.03922252 0.00213835 0.00867875
v -0.03931146 0.00151606 0.00867875
v -0.03946525 0.00042793 0.00953365
v -0.03796023 0.00912757 0.00291161
v -0.03934056 0.00087051 0.00391905
v -0.03944322 0.00042793 0.00611405
v -0.03930897 0.00150801 0.00782299
v -0.03933931 -0.00000660 0.00291161
v -0.03945527 -0.00000660 0.00696895
v -0.03945610 0.00042793 0.00696895
v -0.03907289 0.00213835 0.00291161
v -0.03921129 0.00126481 0.00291161
v -0.03931936 0.00070957 0.00334854
v -0.03937547 0.00042614 0.00359932
v -0.03939833 0.00050482 0.00441975
v -0.03943241 -0.00000660 0.00567281
v -0.03935261 -0.00000660 0.00297107
v -0.03933973 0.00019904 0.00291161
v -0.03935261 0.00014003 0.00297107
v -0.03937547 -0.00000660 0.00359846
v -0.03938586 -0.00000660 0.00397076
v -0.03939833 -0.00000660 0.00441975
f 1 2 6
f 1 6 12
f 1 12 16
f 1 16 25
f 1 25 31
f 1 31 23
f 1 23 15
f 1 15 11
f 1 11 10
f 1 10 8
f 1 8 3
f 1 3 4
f 1 4 5
f 1 5 2
f 2 5 7
f 2 7 6
f 3 8 4
f 4 9 14
f 4 14 22
f 4 22 29
f 4 29 36
f 4 36 26
f 4 26 21
f 4 21 20
f 4 20 19
f 4 19 18
f 4 18 17
f 4 17 13
f 4 13 7
f 4 7 5
f 4 8 10
f 4 10 11
f 4 11 9
f 6 7 13
f 6 13 12
f 9 11 14
f 11 15 14
f 12 13 17
f 12 17 18
f 12 18 19
f 12 19 20
f 12 20 21
f 12 21 16
f 14 15 22
f 15 23 32
f 15 32 41
f 15 41 48
f 15 48 54
f 15 54 53
f 15 53 52
f 15 52 49
f 15 49 40
f 15 40 30
f 15 30 24
f 15 24 22
f 16 21 25
f 21 26 27
f 21 27 28
f 21 28 25
f 22 24 30
f 22 30 29
f 23 31 32
f 25 33 34
f 25 34 35
f 25 35 32
f 25 32 31
f 25 28 33
f 26 36 27
f 27 36 37
f 27 37 38
f 27 38 39
f 27 39 33
f 27 33 28
f 29 30 40
f 29 40 50
f 29 50 44
f 29 44 43
f 29 43 36
f 32 35 42
f 32 42 41
f 33 39 34
f 34 39 42
f 34 42 35
f 36 43 37
f 37 43 44
f 37 44 45
f 37 45 46
f 37 46 47
f 37 47 38
f 38 42 39
f 38 47 48
f 38 48 41
f 38 41 42
f 40 49 50
f 44 50 51
f 44 51 45
f 45 51 46
f 46 51 52
f 46 52 53
f 46 53 47
f 47 53 54
f 47 54 48
f 49 52 51
f 49 51 50

