# https://github.com/mikedh/trimesh
v 0.02091972 0.03318396 0.00838342
v 0.02091972 0.03317669 0.00778474
v 0.02091972 0.03067366 0.00838342
v 0.02183427 0.03271640 0.00838342
v 0.02189115 0.03268107 0.00778934
v 0.02091972 0.03317565 0.00776956
v 0.02266182 0.03218649 0.00440328
v 0.02266182 0.03215948 0.00368643
v 0.02207852 0.03244105 0.00368643
v 0.02171828 0.03260107 0.00368643
v 0.02091972 0.03015830 0.00838111
v 0.02092195 0.03015726 0.00838342
v 0.02201048 0.03262185 0.00838342
v 0.02223800 0.03249716 0.00805143
v 0.02223243 0.03249405 0.00748172
v 0.02095095 0.03286602 0.00368643
v 0.02092530 0.03286914 0.00368643
v 0.02091972 0.03286914 0.00368643
v 0.02167032 0.03261873 0.00368643
v 0.02266182 0.03225195 0.00696857
v 0.02331427 0.03182699 0.00525853
v 0.02329865 0.03181348 0.00440328
v 0.02326519 0.03178335 0.00368643
v 0.02091972 0.03015207 0.00368643
v 0.02892421 0.02256922 0.00838342
v 0.02224023 0.03249820 0.00838342
v 0.02246553 0.03237144 0.00838342
v 0.02263840 0.03227377 0.00838342
v 0.02332542 0.03183426 0.00611332
v 0.02375704 0.03144255 0.00696857
v 0.02463143 0.03061340 0.00782382
v 0.02369235 0.03137916 0.00368643
v 0.03139237 0.02370384 0.00368643
v 0.02896548 0.02256922 0.00368643
v 0.03231249 0.02256922 0.00838342
v 0.02289603 0.03211064 0.00838342
v 0.02332988 0.03183426 0.00696857
v 0.02375258 0.03145813 0.00782382
v 0.02420316 0.03103005 0.00782382
v 0.02448533 0.03076406 0.00838342
v 0.02463366 0.03061963 0.00838342
v 0.02506417 0.03019155 0.00838342
v 0.03019230 0.02506601 0.00838342
v 0.03018784 0.02505874 0.00782382
v 0.03061500 0.02463169 0.00782382
v 0.03181729 0.02330485 0.00440328
v 0.03179053 0.02327576 0.00368643
v 0.03219761 0.02256922 0.00368643
v 0.03231137 0.02256922 0.00782382
v 0.03225784 0.02266584 0.00838342
v 0.02332542 0.03183010 0.00838342
v 0.02360536 0.03158697 0.00838342
v 0.02375369 0.03145813 0.00838342
v 0.02420539 0.03103109 0.00838342
v 0.03061946 0.02463273 0.00838342
v 0.03102989 0.02420361 0.00782382
v 0.03182956 0.02331732 0.00525853
v 0.03230356 0.02257753 0.00704030
v 0.03218980 0.02266169 0.00440328
v 0.03217196 0.02266169 0.00368643
v 0.03230802 0.02256922 0.00704766
v 0.03225672 0.02266584 0.00782382
v 0.03183737 0.02332667 0.00611332
v 0.03183625 0.02332875 0.00696857
v 0.03183068 0.02332667 0.00838342
v 0.03076222 0.02448519 0.00838342
v 0.03103212 0.02420569 0.00838342
v 0.03145705 0.02375163 0.00782382
v 0.03145928 0.02375371 0.00838342
f 1 2 6
f 1 6 18
f 1 18 24
f 1 24 11
f 1 11 3
f 1 3 12
f 1 12 25
f 1 25 35
f 1 35 50
f 1 50 65
f 1 65 69
f 1 69 67
f 1 67 66
f 1 66 55
f 1 55 43
f 1 43 42
f 1 42 41
f 1 41 40
f 1 40 54
f 1 54 53
f 1 53 52
f 1 52 51
f 1 51 36
f 1 36 28
f 1 28 27
f 1 27 26
f 1 26 13
f 1 13 4
f 1 4 5
f 1 5 2
f 2 5 7
f 2 7 8
f 2 8 9
f 2 9 10
f 2 10 6
f 3 11 12
f 4 13 14
f 4 14 5
f 5 14 15
f 5 15 7
f 6 16 17
f 6 17 18
f 6 10 19
f 6 19 16
f 7 15 20
f 7 20 21
f 7 21 22
f 7 22 8
f 8 22 23
f 8 23 32
f 8 32 33
f 8 33 47
f 8 47 60
f 8 60 48
f 8 48 34
f 8 34 24
f 8 24 18
f 8 18 17
f 8 17 16
f 8 16 19
f 8 19 10
f 8 10 9
f 11 24 25
f 11 25 12
f 13 26 14
f 14 26 20
f 14 20 15
f 20 26 27
f 20 27 28
f 20 28 29
f 20 29 21
f 21 29 30
f 21 30 31
f 21 31 22
f 22 32 23
f 22 31 33
f 22 33 32
f 24 34 25
f 25 34 48
f 25 48 61
f 25 61 49
f 25 49 35
f 28 36 37
f 28 37 29
f 29 37 38
f 29 38 30
f 30 38 39
f 30 39 31
f 31 39 40
f 31 40 41
f 31 41 42
f 31 42 43
f 31 43 44
f 31 44 33
f 33 44 45
f 33 45 46
f 33 46 47
f 35 49 62
f 35 62 50
f 36 51 37
f 37 51 52
f 37 52 53
f 37 53 38
f 38 53 54
f 38 54 39
f 39 54 40
f 43 55 45
f 43 45 44
f 45 55 56
f 45 56 57
f 45 57 46
f 46 57 58
f 46 58 59
f 46 59 60
f 46 60 47
f 48 60 61
f 49 61 58
f 49 58 62
f 50 62 63
f 50 63 64
f 50 64 65
f 55 66 56
f 56 66 67
f 56 67 69
f 56 69 68
f 56 68 63
f 56 63 57
f 57 63 58
f 58 61 60
f 58 60 59
f 58 63 62
f 63 68 69
f 63 69 64
f 64 69 65

