# https://github.com/mikedh/trimesh
v -0.01351219 0.03630843 0.00528173
v -0.01306748 0.03699616 0.00528173
v -0.01347698 0.03542388 0.00528173
v -0.01750163 0.03377808 0.00694518
v -0.01750163 0.03444979 0.00720846
v -0.01750163 0.03484998 0.00781439
v -0.01750163 0.03485294 0.00781942
v -0.01720145 0.03511143 0.00809656
v -0.01231980 0.03745681 0.00528173
v -0.01302578 0.03501420 0.00528173
v -0.01750163 0.03287218 0.00711965
v -0.01750163 0.03488140 0.00870437
v -0.01720145 0.03511143 0.00844109
v -0.01550042 0.03596990 0.00802350
v -0.01197330 0.03762637 0.00567287
v -0.01171018 0.03762282 0.00528173
v -0.01378643 0.03682126 0.00782383
v -0.01240597 0.03743784 0.00611377
v -0.01240041 0.03497211 0.00528173
v -0.01750163 0.03286210 0.00712469
v -0.01750163 0.03488022 0.00870878
v -0.01312306 0.03701928 0.01171509
v -0.01283307 0.03721137 0.01171509
v -0.01550042 0.03596990 0.00853116
v -0.01243469 0.03744674 0.01171509
v -0.01378921 0.03682245 0.00867855
v -0.01231888 0.03748527 0.00701446
v -0.01197793 0.03762815 0.00611377
v -0.00983497 0.03800640 0.00867855
v -0.00983497 0.03799277 0.00782383
v -0.00897983 0.03811134 0.00782383
v -0.00803759 0.03823406 0.00782824
v -0.01154526 0.03762697 0.00528173
v -0.01325463 0.03707797 0.00867855
v -0.01325463 0.03707382 0.00782383
v -0.01181209 0.03501717 0.00528173
v -0.01750163 0.03225026 0.00778793
v -0.01750163 0.03451027 0.00932100
v -0.01378457 0.03626634 0.01171509
v -0.01421724 0.03660901 0.00867855
v -0.01243283 0.03745326 0.01038924
v -0.01200758 0.03763942 0.01171509
v -0.01200480 0.03763764 0.01038924
v -0.00897983 0.03813268 0.00867855
v -0.01200758 0.03763942 0.01124396
v -0.00803759 0.03826489 0.00867603
v -0.00803759 0.03786945 0.00711776
v -0.01092081 0.03754574 0.00528173
v -0.01109684 0.03763349 0.00540140
v -0.01139610 0.03514286 0.00528173
v -0.01750163 0.03224730 0.00779423
v -0.01750163 0.03448537 0.00934494
v -0.01388371 0.03605706 0.01171509
v -0.01750163 0.03381128 0.00965672
v -0.01154526 0.03767617 0.01171509
v -0.00803759 0.03794474 0.00936446
v -0.01089209 0.03767262 0.01171509
v -0.00803759 0.03719833 0.00676567
v -0.01000359 0.03700505 0.00528173
v -0.01072810 0.03746749 0.00528173
v -0.01138498 0.03514641 0.00528173
v -0.01749607 0.03224789 0.00779801
v -0.01750163 0.03220817 0.00873272
v -0.01392725 0.03563731 0.01171509
v -0.01750163 0.03377808 0.00966491
v -0.00803759 0.03790087 0.00944257
v -0.01062248 0.03754159 0.01171509
v -0.00803759 0.03712184 0.00679212
v -0.00991465 0.03634223 0.00528173
v -0.00999989 0.03698133 0.00528173
v -0.01136645 0.03515471 0.00528173
v -0.00803759 0.03578967 0.00782320
v -0.01695686 0.03242041 0.00806570
v -0.01750163 0.03241270 0.00917929
v -0.00803759 0.03577248 0.00873335
v -0.01132198 0.03512388 0.01171509
v -0.01155823 0.03504978 0.01171509
v -0.01175001 0.03499405 0.01171509
v -0.01750163 0.03285261 0.00946146
v -0.01309898 0.03492053 0.01171509
v -0.00803759 0.03728844 0.00981544
v -0.01052798 0.03749535 0.01171509
v -0.00989612 0.03713963 0.01171509
v -0.00803759 0.03629954 0.00707745
v -0.01017221 0.03584955 0.00528173
v -0.01069012 0.03550688 0.00528173
v -0.00803759 0.03583295 0.00770794
v -0.01750163 0.03277317 0.00941800
v -0.01240041 0.03490630 0.01171509
v -0.00803759 0.03578197 0.00876862
v -0.01098937 0.03527506 0.01171509
v -0.01750163 0.03282000 0.00944635
v -0.00803759 0.03720781 0.00985008
v -0.00977846 0.03655447 0.01171509
v -0.00803759 0.03618867 0.00719397
v -0.01067437 0.03551577 0.00528173
v -0.00803759 0.03588927 0.00914275
v -0.01027876 0.03563908 0.01171509
v -0.00975437 0.03634341 0.01171509
v -0.00803759 0.03635527 0.00957169
v -0.00803759 0.03631554 0.00955594
v -0.01003231 0.03581339 0.01171509
f 1 2 9
f 1 9 16
f 1 16 33
f 1 33 48
f 1 48 60
f 1 60 59
f 1 59 70
f 1 70 69
f 1 69 85
f 1 85 96
f 1 96 86
f 1 86 71
f 1 71 61
f 1 61 50
f 1 50 36
f 1 36 19
f 1 19 10
f 1 10 3
f 1 3 4
f 1 4 5
f 1 5 2
f 2 5 6
f 2 6 7
f 2 7 8
f 2 8 9
f 3 10 11
f 3 11 4
f 4 11 20
f 4 20 37
f 4 37 51
f 4 51 63
f 4 63 74
f 4 74 88
f 4 88 92
f 4 92 79
f 4 79 65
f 4 65 54
f 4 54 52
f 4 52 38
f 4 38 21
f 4 21 12
f 4 12 7
f 4 7 6
f 4 6 5
f 7 12 8
f 8 12 13
f 8 13 24
f 8 24 14
f 8 14 9
f 9 15 16
f 9 14 17
f 9 17 18
f 9 18 15
f 10 19 20
f 10 20 11
f 12 21 22
f 12 22 23
f 12 23 13
f 13 23 25
f 13 25 24
f 14 24 26
f 14 26 17
f 15 18 27
f 15 27 28
f 15 28 29
f 15 29 30
f 15 30 31
f 15 31 32
f 15 32 16
f 16 32 33
f 17 26 34
f 17 34 35
f 17 35 18
f 18 35 27
f 19 36 20
f 20 36 37
f 21 38 22
f 22 39 53
f 22 53 64
f 22 64 80
f 22 80 89
f 22 89 78
f 22 78 77
f 22 77 76
f 22 76 91
f 22 91 98
f 22 98 102
f 22 102 99
f 22 99 94
f 22 94 83
f 22 83 82
f 22 82 67
f 22 67 57
f 22 57 55
f 22 55 42
f 22 42 25
f 22 25 23
f 22 38 39
f 24 25 40
f 24 40 26
f 25 41 34
f 25 34 26
f 25 26 40
f 25 42 41
f 27 35 41
f 27 41 28
f 28 41 43
f 28 43 29
f 29 44 30
f 29 43 45
f 29 45 42
f 29 42 44
f 30 44 46
f 30 46 31
f 31 46 32
f 32 46 56
f 32 56 66
f 32 66 81
f 32 81 93
f 32 93 100
f 32 100 101
f 32 101 97
f 32 97 90
f 32 90 75
f 32 75 72
f 32 72 87
f 32 87 95
f 32 95 84
f 32 84 68
f 32 68 58
f 32 58 47
f 32 47 48
f 32 48 49
f 32 49 33
f 33 49 48
f 34 41 35
f 36 50 51
f 36 51 37
f 38 52 39
f 39 52 54
f 39 54 53
f 41 42 45
f 41 45 43
f 42 55 46
f 42 46 44
f 46 55 57
f 46 57 56
f 47 58 59
f 47 59 60
f 47 60 48
f 50 61 51
f 51 62 63
f 51 61 62
f 53 54 65
f 53 65 64
f 56 57 66
f 57 67 66
f 58 68 69
f 58 69 70
f 58 70 59
f 61 71 72
f 61 72 62
f 62 73 63
f 62 72 73
f 63 73 75
f 63 75 76
f 63 76 77
f 63 77 78
f 63 78 74
f 64 65 79
f 64 79 80
f 66 67 82
f 66 82 83
f 66 83 81
f 68 84 69
f 69 84 85
f 71 86 87
f 71 87 72
f 72 75 73
f 74 78 89
f 74 89 80
f 74 80 88
f 75 90 76
f 76 90 91
f 79 92 80
f 80 92 88
f 81 83 93
f 83 94 93
f 84 95 85
f 85 95 87
f 85 87 96
f 86 96 87
f 90 97 91
f 91 97 98
f 93 99 100
f 93 94 99
f 97 101 102
f 97 102 98
f 99 102 101
f 99 101 100

