# https://github.com/mikedh/trimesh
v -0.03646171 -0.01451252 0.07709074
v -0.03623293 -0.01496606 0.07709074
v -0.03596502 -0.01549211 0.07769167
v -0.03644264 -0.01451252 0.07759703
v -0.03627507 -0.01451252 0.07625236
v -0.03222528 -0.02265632 0.07457500
v -0.03338423 -0.02058767 0.07709074
v -0.03424516 -0.01889294 0.07728176
v -0.03424516 -0.01889294 0.07763128
v -0.03249720 -0.02223690 0.07579310
v -0.03641656 -0.01451252 0.07795236
v -0.03222528 -0.02266343 0.08050642
v -0.03596201 -0.01451252 0.07574491
v -0.03223632 -0.02259945 0.07457500
v -0.03187508 -0.02329895 0.07457500
v -0.03230053 -0.02257812 0.07545693
v -0.03574025 -0.01451252 0.07559918
v -0.03315745 -0.02101419 0.07709074
v -0.03338423 -0.02058625 0.07767889
v -0.03227043 -0.02266627 0.07623552
v -0.03627507 -0.01451252 0.07843310
v -0.03249821 -0.02223832 0.07840522
v -0.03185502 -0.02334445 0.08050642
v -0.03239686 -0.02174924 0.08050642
v -0.03571316 -0.01451252 0.07903053
v -0.03618176 -0.01451252 0.07866185
v -0.03234669 -0.02180469 0.07457500
v -0.03185100 -0.02334018 0.07457500
v -0.03547033 -0.01451252 0.07551847
v -0.03249921 -0.02224117 0.07794481
v -0.03226140 -0.02266769 0.07794481
v -0.03230455 -0.02257812 0.07873443
v -0.03136234 -0.02377382 0.08050642
v -0.03062483 -0.02462971 0.07709074
v -0.03019637 -0.02507188 0.07709074
v -0.02621179 -0.02903572 0.07709074
v -0.02621179 -0.02893478 0.07794481
v -0.03209885 -0.02098718 0.08050642
v -0.03509003 -0.01451252 0.07924245
v -0.03543521 -0.01451252 0.07915420
v -0.03561583 -0.01451252 0.07910137
v -0.03232060 -0.02172649 0.07457500
v -0.03182491 -0.02336577 0.07457500
v -0.03516128 -0.01451252 0.07549989
v -0.03198245 -0.02099998 0.07457500
v -0.03093789 -0.02402405 0.08050642
v -0.02621179 -0.02849972 0.07851786
v -0.03137037 -0.02376813 0.07457500
v -0.02621179 -0.02898027 0.07694327
v -0.03121082 -0.02070425 0.08050642
v -0.03505291 -0.01451252 0.07923374
v -0.03044622 -0.02109950 0.08050642
v -0.03457829 -0.01451252 0.07571530
v -0.03045926 -0.02109950 0.07457500
v -0.03051646 -0.02107106 0.07457500
v -0.03121283 -0.02073269 0.07457500
v -0.03129109 -0.02075401 0.07457500
v -0.03035792 -0.02413779 0.08050642
v -0.02621179 -0.02778174 0.07872630
v -0.02973480 -0.02405817 0.08050642
v -0.03094391 -0.02402405 0.07457500
v -0.02621179 -0.02857934 0.07636035
v -0.03464050 -0.01451252 0.07895680
v -0.03002077 -0.02147911 0.08050642
v -0.03408461 -0.01451252 0.07614494
v -0.03002779 -0.02149617 0.07457500
v -0.02621179 -0.02687324 0.07864501
v -0.02940567 -0.02266058 0.08050642
v -0.02941872 -0.02351506 0.08050642
v -0.03090578 -0.02404253 0.07457500
v -0.02621179 -0.02851536 0.07631854
v -0.03404347 -0.01451252 0.07853122
v -0.03372238 -0.01451252 0.07795177
v -0.02972275 -0.02190705 0.08050642
v -0.03392206 -0.01451252 0.07638647
v -0.02973078 -0.02192127 0.07457500
v -0.02621179 -0.02628748 0.07850741
v -0.03035390 -0.02414347 0.07457500
v -0.02621179 -0.02766231 0.07598470
v -0.03363608 -0.01451252 0.07709074
v -0.02621179 -0.02569034 0.07790823
v -0.02621179 -0.02621070 0.07845748
v -0.02621179 -0.02586522 0.07819505
v -0.03373944 -0.01451252 0.07678593
v -0.02621179 -0.02570171 0.07679173
v -0.02621179 -0.02595194 0.07647937
v -0.02970670 -0.02196677 0.07457500
v -0.03030273 -0.02413921 0.07457500
v -0.02621179 -0.02680784 0.07605669
v -0.02975787 -0.02406812 0.07457500
v -0.02948294 -0.02356908 0.07457500
v -0.02946387 -0.02351506 0.07457500
v -0.02942474 -0.02272883 0.07457500
v -0.02942976 -0.02266201 0.07457500
v -0.02621179 -0.02557802 0.07709074
v -0.02621179 -0.02602303 0.07643060
f 1 2 3
f 1 3 4
f 1 4 11
f 1 11 21
f 1 21 26
f 1 26 25
f 1 25 41
f 1 41 40
f 1 40 39
f 1 39 51
f 1 51 63
f 1 63 72
f 1 72 73
f 1 73 80
f 1 80 84
f 1 84 75
f 1 75 65
f 1 65 53
f 1 53 44
f 1 44 29
f 1 29 17
f 1 17 13
f 1 13 5
f 1 5 6
f 1 6 2
f 2 7 8
f 2 8 9
f 2 9 3
f 2 6 10
f 2 10 7
f 3 11 4
f 3 9 12
f 3 12 11
f 5 13 6
f 6 14 27
f 6 27 42
f 6 42 45
f 6 45 57
f 6 57 56
f 6 56 55
f 6 55 54
f 6 54 66
f 6 66 76
f 6 76 87
f 6 87 94
f 6 94 93
f 6 93 92
f 6 92 91
f 6 91 90
f 6 90 88
f 6 88 78
f 6 78 70
f 6 70 61
f 6 61 48
f 6 48 43
f 6 43 28
f 6 28 15
f 6 15 16
f 6 16 10
f 6 13 17
f 6 17 14
f 7 18 19
f 7 19 9
f 7 9 8
f 7 10 18
f 9 19 12
f 10 16 20
f 10 20 18
f 11 12 21
f 12 22 23
f 12 23 33
f 12 33 46
f 12 46 58
f 12 58 60
f 12 60 69
f 12 69 68
f 12 68 74
f 12 74 64
f 12 64 52
f 12 52 50
f 12 50 38
f 12 38 24
f 12 24 25
f 12 25 26
f 12 26 21
f 12 19 22
f 14 17 27
f 15 20 16
f 15 28 20
f 17 29 27
f 18 20 30
f 18 30 19
f 19 30 22
f 20 28 23
f 20 23 31
f 20 31 30
f 22 30 31
f 22 31 32
f 22 32 23
f 23 32 31
f 23 28 34
f 23 34 35
f 23 35 36
f 23 36 37
f 23 37 33
f 24 38 39
f 24 39 40
f 24 40 41
f 24 41 25
f 27 29 42
f 28 43 36
f 28 36 35
f 28 35 34
f 29 44 45
f 29 45 42
f 33 37 47
f 33 47 46
f 36 43 48
f 36 48 49
f 36 49 62
f 36 62 71
f 36 71 79
f 36 79 89
f 36 89 96
f 36 96 86
f 36 86 85
f 36 85 95
f 36 95 81
f 36 81 83
f 36 83 82
f 36 82 77
f 36 77 67
f 36 67 59
f 36 59 47
f 36 47 37
f 38 50 39
f 39 50 52
f 39 52 51
f 44 53 54
f 44 54 55
f 44 55 56
f 44 56 57
f 44 57 45
f 46 47 58
f 47 59 60
f 47 60 58
f 48 61 62
f 48 62 49
f 51 52 64
f 51 64 63
f 53 65 66
f 53 66 54
f 59 67 68
f 59 68 69
f 59 69 60
f 61 70 62
f 62 70 71
f 63 64 72
f 64 73 72
f 64 74 73
f 65 75 66
f 66 75 76
f 67 77 68
f 68 77 74
f 70 78 71
f 71 78 79
f 73 74 81
f 73 81 80
f 74 77 82
f 74 82 83
f 74 83 81
f 75 84 76
f 76 85 86
f 76 86 87
f 76 84 85
f 78 88 79
f 79 88 90
f 79 90 91
f 79 91 92
f 79 92 93
f 79 93 94
f 79 94 89
f 80 95 85
f 80 85 84
f 80 81 95
f 86 96 87
f 87 96 89
f 87 89 94

