# https://github.com/mikedh/trimesh
v 0.02091861 0.01264821 0.00133959
v 0.02091861 0.01264821 0.00338862
v 0.02091861 0.01325476 0.00109812
v 0.02323418 0.01264821 0.00050300
v 0.03452560 0.01264821 0.00368597
v 0.02091861 0.01310512 0.00340099
v 0.02091861 0.01411070 0.00079864
v 0.02335580 0.01264821 0.00046503
v 0.02091861 0.01407878 0.00341976
v 0.03726684 0.01264821 0.00368597
v 0.02091861 0.03015219 0.00368597
v 0.02091861 0.01489282 0.00060965
v 0.02412393 0.01264821 0.00032723
v 0.02091861 0.01527391 0.00053201
v 0.03724924 0.01264821 0.00332975
v 0.03677397 0.01369171 0.00307762
v 0.03704761 0.01312108 0.00368597
v 0.02091861 0.03286966 0.00368597
v 0.02695798 0.01264821 -0.00014333
v 0.02114745 0.01515220 0.00050897
v 0.02091861 0.01572083 0.00047484
v 0.03719003 0.01264821 0.00270902
v 0.03691639 0.01330863 0.00275254
v 0.03677397 0.01369171 0.00316465
v 0.03591623 0.01539562 0.00226321
v 0.03245007 0.02213543 0.00354775
v 0.03217162 0.02266217 0.00368597
v 0.02095221 0.03286567 0.00368597
v 0.02091861 0.03293151 0.00354860
v 0.02733565 0.01352211 -0.00030928
v 0.03121147 0.01264821 -0.00061047
v 0.02091861 0.02437007 -0.00056568
v 0.02091861 0.02440199 -0.00056952
v 0.03713402 0.01264821 0.00245476
v 0.03674356 0.01362786 0.00250766
v 0.03591623 0.01539562 0.00227558
v 0.03687478 0.01305723 0.00206441
v 0.03622508 0.01419649 0.00175213
v 0.03591463 0.01453767 0.00141083
v 0.03332861 0.01962346 0.00144838
v 0.03366306 0.01930024 0.00177474
v 0.03347903 0.01990479 0.00201833
v 0.03304377 0.02095227 0.00269281
v 0.03216842 0.02266217 0.00354775
v 0.03179076 0.02327470 0.00368597
v 0.02095221 0.03292154 0.00354775
v 0.02167073 0.03261827 0.00368597
v 0.02091861 0.03302928 0.00269281
v 0.02779332 0.01667654 -0.00061985
v 0.03181797 0.01264821 -0.00061516
v 0.02779332 0.01753049 -0.00067190
v 0.02091861 0.02522601 -0.00058274
v 0.03693719 0.01264821 0.00190741
v 0.03669875 0.01264821 0.00149274
v 0.03604425 0.01396705 0.00128455
v 0.03501048 0.01523400 0.00062117
v 0.03430477 0.01644909 0.00045052
v 0.03416074 0.01701972 0.00064463
v 0.03329341 0.01872362 0.00062799
v 0.03244847 0.02132538 0.00147355
v 0.03322299 0.02015219 0.00177474
v 0.03277972 0.02100415 0.00178967
v 0.03259089 0.02154685 0.00204308
v 0.03265810 0.02167055 0.00269281
v 0.03241486 0.02209952 0.00269281
v 0.03208361 0.02266217 0.00269281
v 0.03178596 0.02326871 0.00354775
v 0.03139710 0.02369569 0.00354775
v 0.03139230 0.02370167 0.00368597
v 0.02171874 0.03260031 0.00368597
v 0.02169474 0.03263423 0.00354775
v 0.02212360 0.03244468 0.00354775
v 0.02095221 0.03301332 0.00269281
v 0.02152191 0.03257636 0.00208958
v 0.02091861 0.03277189 0.00181654
v 0.03206761 0.01264821 -0.00059298
v 0.02779332 0.01838644 -0.00065740
v 0.02693718 0.01924238 -0.00066209
v 0.02091861 0.02525794 -0.00058274
v 0.03534654 0.01264821 0.00028244
v 0.03527452 0.01325476 0.00032894
v 0.03517211 0.01411070 0.00044370
v 0.03509690 0.01466537 0.00052134
v 0.03445519 0.01582059 0.00033363
v 0.03359745 0.01753049 0.00031614
v 0.03344063 0.01815300 0.00046161
v 0.03268211 0.01924238 0.00042023
v 0.03251728 0.01969928 0.00053841
v 0.03167234 0.02227909 0.00138694
v 0.03145951 0.02284772 0.00162116
v 0.03168515 0.02314501 0.00219154
v 0.03173475 0.02320686 0.00269281
v 0.03135869 0.02363384 0.00269281
v 0.03093142 0.02410271 0.00269281
v 0.03052816 0.02452968 0.00269281
v 0.03010089 0.02497063 0.00269281
v 0.02496566 0.03009233 0.00269281
v 0.02369346 0.03137924 0.00368597
v 0.02207880 0.03244069 0.00368597
v 0.02266129 0.03215937 0.00368597
v 0.02266129 0.03215538 0.00354775
v 0.02164673 0.03264420 0.00269281
v 0.02097142 0.03274596 0.00181782
v 0.02207400 0.03240278 0.00269281
v 0.02313337 0.03167453 0.00220903
v 0.02127067 0.03241675 0.00151919
v 0.02091861 0.03252050 0.00139078
v 0.03292215 0.01264821 -0.00049144
v 0.03336061 0.01543352 -0.00030245
v 0.02653392 0.02568092 -0.00030800
v 0.02091861 0.02607996 -0.00054477
v 0.02608264 0.02586049 -0.00031952
v 0.03516090 0.01264821 0.00017834
v 0.03463282 0.01411070 0.00008491
v 0.03468723 0.01495667 0.00028158
v 0.03369827 0.01575874 -0.00012456
v 0.03383589 0.01671046 0.00019711
v 0.03292215 0.01753049 -0.00007678
v 0.03297335 0.01841836 0.00025385
v 0.03206761 0.01924238 0.00008193
v 0.02867506 0.02437007 0.00028585
v 0.02840782 0.02500853 0.00042876
v 0.02897751 0.02465339 0.00063994
v 0.03088982 0.02323479 0.00133745
v 0.03068498 0.02380542 0.00155631
v 0.03086101 0.02402689 0.00212627
v 0.03003048 0.02490878 0.00210024
v 0.02919835 0.02578068 0.00209982
v 0.02834861 0.02663663 0.00210835
v 0.02749407 0.02749257 0.00210963
v 0.02663793 0.02834453 0.00210792
v 0.02578019 0.02919249 0.00209555
v 0.02451919 0.03051930 0.00269281
v 0.02368546 0.03138124 0.00354775
v 0.02326459 0.03178227 0.00368597
v 0.02325819 0.03177629 0.00354775
v 0.02266129 0.03205761 0.00269281
v 0.02377987 0.03066296 0.00157849
v 0.02282452 0.03143910 0.00163907
v 0.02225482 0.03165458 0.00139931
v 0.02319098 0.03172042 0.00269281
v 0.02361985 0.03134532 0.00269281
v 0.02409192 0.03091635 0.00269281
v 0.02401831 0.03085051 0.00214888
v 0.02470322 0.02984492 0.00152986
v 0.02091861 0.03219927 0.00115572
v 0.03352544 0.01325476 -0.00034938
v 0.03351584 0.01264821 -0.00036047
v 0.03341342 0.01496665 -0.00031525
v 0.03349664 0.01411070 -0.00033445
v 0.03292215 0.01667654 -0.00023078
v 0.03384069 0.01496665 -0.00018897
v 0.03392391 0.01411070 -0.00023078
v 0.02557536 0.02647501 -0.00029691
v 0.02608264 0.02628946 -0.00021158
v 0.02691318 0.02606001 0.00010283
v 0.02784132 0.02526791 0.00021588
v 0.02709561 0.02522601 -0.00020135
v 0.02091861 0.02611388 -0.00054093
v 0.02437197 0.02716336 -0.00027942
v 0.03463282 0.01264821 -0.00004905
v 0.03463282 0.01325476 -0.00002942
v 0.02759008 0.02586847 0.00038994
v 0.02815978 0.02557917 0.00062543
v 0.03011529 0.02413463 0.00126706
v 0.02984005 0.02470526 0.00153029
v 0.03035853 0.02436608 0.00182849
v 0.02490325 0.03002250 0.00209982
v 0.02413353 0.03009233 0.00129223
v 0.02091861 0.03210749 0.00109130
v 0.02557216 0.02815897 0.00062074
v 0.02500247 0.02836448 0.00045607
v 0.03443439 0.01264821 -0.00010749
v 0.02091861 0.03035570 -0.00000084
v 0.02095221 0.03035570 0.00000599
v 0.02437197 0.02779185 -0.00010024
v 0.02526331 0.02783974 0.00024959
v 0.02586981 0.02758834 0.00040829
v 0.02612585 0.02697781 0.00019583
v 0.02672114 0.02672043 0.00038525
v 0.02091861 0.02953367 -0.00014631
v 0.02091861 0.03099217 0.00037970
v 0.02091861 0.03039360 0.00001239
f 1 2 6
f 1 6 9
f 1 9 11
f 1 11 18
f 1 18 29
f 1 29 48
f 1 48 75
f 1 75 107
f 1 107 146
f 1 146 170
f 1 170 182
f 1 182 183
f 1 183 174
f 1 174 181
f 1 181 159
f 1 159 111
f 1 111 79
f 1 79 52
f 1 52 33
f 1 33 32
f 1 32 21
f 1 21 14
f 1 14 12
f 1 12 7
f 1 7 3
f 1 3 4
f 1 4 8
f 1 8 13
f 1 13 19
f 1 19 31
f 1 31 50
f 1 50 76
f 1 76 108
f 1 108 148
f 1 148 173
f 1 173 161
f 1 161 113
f 1 113 80
f 1 80 54
f 1 54 53
f 1 53 34
f 1 34 22
f 1 22 15
f 1 15 10
f 1 10 5
f 1 5 2
f 2 5 6
f 3 7 4
f 4 7 8
f 5 9 6
f 5 10 17
f 5 17 27
f 5 27 45
f 5 45 69
f 5 69 98
f 5 98 135
f 5 135 100
f 5 100 99
f 5 99 70
f 5 70 47
f 5 47 28
f 5 28 18
f 5 18 11
f 5 11 9
f 7 12 8
f 8 12 14
f 8 14 13
f 10 15 16
f 10 16 17
f 13 14 20
f 13 20 21
f 13 21 19
f 14 21 20
f 15 22 23
f 15 23 16
f 16 24 17
f 16 23 25
f 16 25 36
f 16 36 24
f 17 24 26
f 17 26 27
f 18 28 29
f 19 30 31
f 19 21 32
f 19 32 33
f 19 33 30
f 22 34 35
f 22 35 23
f 23 35 25
f 24 36 26
f 25 35 37
f 25 37 38
f 25 38 39
f 25 39 40
f 25 40 41
f 25 41 42
f 25 42 43
f 25 43 26
f 25 26 36
f 26 43 44
f 26 44 27
f 27 44 45
f 28 46 29
f 28 47 46
f 29 46 48
f 30 49 31
f 30 33 49
f 31 49 51
f 31 51 50
f 33 52 51
f 33 51 49
f 34 53 37
f 34 37 35
f 37 53 54
f 37 54 39
f 37 39 38
f 39 54 55
f 39 55 56
f 39 56 57
f 39 57 58
f 39 58 59
f 39 59 40
f 40 42 41
f 40 59 60
f 40 60 61
f 40 61 42
f 42 61 60
f 42 60 62
f 42 62 63
f 42 63 64
f 42 64 43
f 43 64 44
f 44 64 65
f 44 65 66
f 44 66 67
f 44 67 45
f 45 67 68
f 45 68 69
f 46 47 70
f 46 70 71
f 46 71 48
f 48 71 72
f 48 72 73
f 48 73 74
f 48 74 75
f 50 51 77
f 50 77 76
f 51 78 77
f 51 52 78
f 52 79 78
f 54 80 81
f 54 81 82
f 54 82 83
f 54 83 56
f 54 56 55
f 56 83 84
f 56 84 57
f 57 84 85
f 57 85 86
f 57 86 59
f 57 59 58
f 59 86 87
f 59 87 88
f 59 88 60
f 60 89 90
f 60 90 91
f 60 91 63
f 60 63 62
f 60 88 89
f 63 91 65
f 63 65 64
f 65 91 66
f 66 91 92
f 66 92 67
f 67 92 93
f 67 93 68
f 68 93 94
f 68 94 95
f 68 95 96
f 68 96 97
f 68 97 98
f 68 98 69
f 70 99 72
f 70 72 71
f 72 100 101
f 72 101 102
f 72 102 73
f 72 99 100
f 73 102 74
f 74 103 75
f 74 102 104
f 74 104 105
f 74 105 106
f 74 106 103
f 75 103 107
f 76 77 109
f 76 109 108
f 77 78 110
f 77 110 109
f 78 79 111
f 78 111 112
f 78 112 110
f 80 113 114
f 80 114 81
f 81 114 115
f 81 115 82
f 82 115 83
f 83 115 84
f 84 116 117
f 84 117 85
f 84 115 116
f 85 118 119
f 85 119 86
f 85 117 118
f 86 119 87
f 87 119 120
f 87 120 121
f 87 121 88
f 88 121 122
f 88 122 123
f 88 123 89
f 89 123 124
f 89 124 125
f 89 125 90
f 90 125 91
f 91 93 92
f 91 125 126
f 91 126 94
f 91 94 93
f 94 126 127
f 94 127 95
f 95 127 128
f 95 128 96
f 96 128 129
f 96 129 130
f 96 130 97
f 97 130 131
f 97 131 132
f 97 132 133
f 97 133 134
f 97 134 98
f 98 134 135
f 100 135 101
f 101 104 102
f 101 135 136
f 101 136 137
f 101 137 104
f 103 106 107
f 104 137 105
f 105 138 139
f 105 139 140
f 105 140 106
f 105 137 141
f 105 141 142
f 105 142 143
f 105 143 144
f 105 144 145
f 105 145 138
f 106 140 107
f 107 140 146
f 108 147 148
f 108 109 149
f 108 149 150
f 108 150 147
f 109 151 118
f 109 118 116
f 109 116 152
f 109 152 153
f 109 153 149
f 109 110 151
f 110 112 154
f 110 154 155
f 110 155 156
f 110 156 157
f 110 157 158
f 110 158 120
f 110 120 118
f 110 118 151
f 111 159 160
f 111 160 154
f 111 154 112
f 113 161 162
f 113 162 114
f 114 152 116
f 114 116 115
f 114 162 152
f 116 118 117
f 118 120 119
f 120 158 121
f 121 158 157
f 121 157 122
f 122 157 163
f 122 163 164
f 122 164 123
f 123 164 165
f 123 165 124
f 124 165 125
f 125 165 166
f 125 166 167
f 125 167 126
f 126 167 127
f 127 167 166
f 127 166 128
f 128 145 130
f 128 130 129
f 128 166 145
f 130 145 132
f 130 132 131
f 132 145 168
f 132 168 133
f 133 168 143
f 133 143 134
f 134 143 136
f 134 136 135
f 136 141 137
f 136 143 142
f 136 142 141
f 138 169 140
f 138 140 139
f 138 145 169
f 140 170 146
f 140 169 171
f 140 171 172
f 140 172 170
f 143 168 144
f 144 168 145
f 145 164 171
f 145 171 169
f 145 166 164
f 147 150 153
f 147 153 148
f 148 153 173
f 149 153 150
f 152 162 153
f 153 162 161
f 153 161 173
f 154 160 174
f 154 174 175
f 154 175 176
f 154 176 155
f 155 176 177
f 155 177 178
f 155 178 179
f 155 179 156
f 156 163 157
f 156 179 178
f 156 178 180
f 156 180 163
f 159 181 160
f 160 181 174
f 163 180 171
f 163 171 164
f 164 166 165
f 170 172 182
f 171 180 178
f 171 178 177
f 171 177 172
f 172 183 182
f 172 177 183
f 174 183 175
f 175 183 176
f 176 183 177

