# https://github.com/mikedh/trimesh
v 0.00000654 0.03377776 -0.00068517
v -0.00042878 0.03377776 -0.00068469
v -0.00042878 0.03394394 -0.00067569
v 0.00000654 0.03394394 -0.00067569
v 0.00000654 0.02952321 -0.00017037
v -0.00897957 0.03121274 -0.00063445
v -0.00983333 0.03121274 -0.00065151
v -0.00897957 0.03206746 -0.00066478
v -0.00059578 0.03394394 -0.00067237
v 0.00000654 0.03394394 0.00205947
v 0.00000654 0.02952321 0.00265533
v -0.01325402 0.02952321 -0.00052732
v -0.01068897 0.03121274 -0.00064156
v -0.00812392 0.03292261 -0.00058325
v -0.01753035 0.03121274 -0.00036472
v -0.01667470 0.03206746 -0.00034861
v -0.01667470 0.03266468 -0.00031211
v -0.01608364 0.03328180 -0.00029409
v -0.01551321 0.03335927 -0.00030310
v -0.00213819 0.03394394 -0.00062117
v -0.01410966 0.03390326 -0.00024053
v -0.01516420 0.03394394 0.00401058
v -0.01916282 0.03207395 0.00415753
v -0.01916282 0.03165070 0.00396270
v -0.00042878 0.02952321 0.00265485
v -0.01753035 0.02952321 -0.00041734
v -0.01838036 0.02952321 -0.00037799
v -0.01821336 0.03035759 -0.00035003
v -0.01810640 0.03121274 -0.00031495
v -0.01797130 0.03164681 -0.00030073
v -0.01745529 0.03198566 -0.00032111
v -0.01712129 0.03250455 -0.00030262
v -0.01667470 0.03309225 -0.00020924
v -0.01663530 0.03379031 0.00025720
v -0.01581156 0.03394394 0.00009556
v -0.01580593 0.03369769 -0.00007841
v -0.01495404 0.03394394 -0.00009974
v -0.01496342 0.03383055 -0.00016563
v -0.01410966 0.03394394 -0.00022014
v -0.01582845 0.03394394 0.00404803
v -0.01916282 0.03212198 0.00415705
v -0.01916282 0.02952321 0.00203245
v -0.01840850 0.02952321 -0.00037183
v -0.01916282 0.03035759 -0.00020308
v -0.01916282 0.03121274 -0.00018222
v -0.01853422 0.03121274 -0.00027798
v -0.01769172 0.03221633 -0.00025380
v -0.01830718 0.03198566 -0.00016042
v -0.01916282 0.03210944 0.00017662
v -0.01916282 0.03241151 0.00034301
v -0.01833720 0.03292996 0.00032215
v -0.01753035 0.03349473 0.00040321
v -0.01802009 0.03337961 0.00052266
v -0.01653022 0.03394394 0.00034158
v -0.01585847 0.03394394 0.00404803
v -0.01916282 0.03286678 0.00412435
v -0.01916282 0.02952321 -0.00013956
v -0.01916282 0.03026974 -0.00020308
v -0.01916282 0.03279624 0.00066392
v -0.01904836 0.03264996 0.00043876
v -0.01746092 0.03394394 0.00099290
v -0.01859052 0.03322035 0.00071607
v -0.01897705 0.03343500 0.00128633
v -0.01833720 0.03354276 0.00099385
v -0.01645329 0.03394394 0.00401864
v -0.01916282 0.03293429 0.00410538
v -0.01916282 0.03301998 0.00089240
v -0.01842914 0.03394394 0.00167361
v -0.01916282 0.03316885 0.00108392
v -0.01859427 0.03394394 0.00179354
v -0.01916282 0.03356657 0.00163189
v -0.01657150 0.03394394 0.00400963
v -0.01916282 0.03328916 0.00390345
v -0.01709502 0.03394394 0.00395512
v -0.01878191 0.03333504 0.00396981
v -0.01916282 0.03367649 0.00180397
v -0.01861491 0.03394394 0.00181013
v -0.01916282 0.03333027 0.00386173
v -0.01748344 0.03394394 0.00383566
v -0.01916282 0.03391927 0.00269277
v -0.01911216 0.03394394 0.00269277
v -0.01823400 0.03394394 0.00355598
v -0.01835409 0.03394394 0.00349246
v -0.01916282 0.03361157 0.00347634
v -0.01916282 0.03367302 0.00335073
v -0.01890012 0.03394394 0.00297672
f 1 2 3
f 1 3 4
f 1 4 10
f 1 10 11
f 1 11 5
f 1 5 6
f 1 6 7
f 1 7 8
f 1 8 2
f 2 8 3
f 3 8 9
f 3 9 20
f 3 20 39
f 3 39 37
f 3 37 35
f 3 35 54
f 3 54 61
f 3 61 68
f 3 68 70
f 3 70 77
f 3 77 81
f 3 81 86
f 3 86 83
f 3 83 82
f 3 82 79
f 3 79 74
f 3 74 72
f 3 72 65
f 3 65 55
f 3 55 40
f 3 40 22
f 3 22 10
f 3 10 4
f 5 11 25
f 5 25 42
f 5 42 57
f 5 57 43
f 5 43 27
f 5 27 26
f 5 26 12
f 5 12 6
f 6 12 7
f 7 12 13
f 7 13 8
f 8 14 9
f 8 13 15
f 8 15 16
f 8 16 17
f 8 17 18
f 8 18 19
f 8 19 14
f 9 14 19
f 9 19 21
f 9 21 20
f 10 22 11
f 11 22 23
f 11 23 24
f 11 24 25
f 12 26 13
f 13 26 15
f 15 26 27
f 15 27 28
f 15 28 29
f 15 29 30
f 15 30 31
f 15 31 16
f 16 31 17
f 17 31 32
f 17 32 18
f 18 32 33
f 18 33 34
f 18 34 35
f 18 35 36
f 18 36 37
f 18 37 38
f 18 38 21
f 18 21 19
f 20 21 39
f 21 38 39
f 22 40 23
f 23 40 41
f 23 41 56
f 23 56 66
f 23 66 73
f 23 73 78
f 23 78 84
f 23 84 85
f 23 85 80
f 23 80 76
f 23 76 71
f 23 71 69
f 23 69 67
f 23 67 59
f 23 59 50
f 23 50 49
f 23 49 45
f 23 45 44
f 23 44 58
f 23 58 57
f 23 57 42
f 23 42 24
f 24 42 25
f 27 43 44
f 27 44 45
f 27 45 46
f 27 46 28
f 28 46 29
f 29 46 30
f 30 32 31
f 30 46 45
f 30 45 32
f 32 45 47
f 32 47 33
f 33 47 48
f 33 48 49
f 33 49 50
f 33 50 51
f 33 51 34
f 34 51 52
f 34 52 53
f 34 53 54
f 34 54 35
f 35 37 36
f 37 39 38
f 40 55 56
f 40 56 41
f 43 57 58
f 43 58 44
f 45 49 48
f 45 48 47
f 50 59 60
f 50 60 51
f 51 60 53
f 51 53 52
f 53 61 54
f 53 60 62
f 53 62 63
f 53 63 64
f 53 64 61
f 55 65 56
f 56 65 66
f 59 67 62
f 59 62 60
f 61 64 68
f 62 67 69
f 62 69 63
f 63 70 68
f 63 68 64
f 63 69 71
f 63 71 70
f 65 72 66
f 66 72 74
f 66 74 75
f 66 75 73
f 70 71 76
f 70 76 77
f 73 75 74
f 73 74 79
f 73 79 78
f 76 80 81
f 76 81 77
f 78 79 82
f 78 82 83
f 78 83 84
f 80 85 86
f 80 86 81
f 83 86 85
f 83 85 84

