# https://github.com/mikedh/trimesh
v 0.03297069 -0.01604967 0.00838997
v 0.03563589 -0.01604967 0.00838997
v 0.03295569 -0.01604967 0.00874629
v 0.03582500 -0.00760366 0.00838997
v 0.03596268 -0.01548583 0.00838997
v 0.03564982 -0.01604967 0.00868798
v 0.03582072 -0.00760366 0.00859728
v 0.03291122 -0.01604967 0.01381252
v 0.03831931 -0.00760366 0.00838997
v 0.03566804 -0.01604967 0.01379956
v 0.03660608 -0.01421596 0.00838997
v 0.03660930 -0.01421761 0.00868150
v 0.03623590 -0.01496416 0.01381252
v 0.03575054 -0.01592484 0.01979871
v 0.03568625 -0.01604967 0.01979871
v 0.03289140 -0.01604967 0.01979871
v 0.03581107 -0.00760366 0.01414941
v 0.03812485 -0.00897936 0.00838997
v 0.03832896 -0.00760366 0.00866207
v 0.03682251 -0.01378853 0.00838997
v 0.03682305 -0.01379018 0.00868150
v 0.03661305 -0.01421678 0.01381252
v 0.03597179 -0.01550320 0.03109083
v 0.03596911 -0.01549741 0.01979871
v 0.03597179 -0.01550320 0.03158968
v 0.03568572 -0.01604967 0.04288181
v 0.03581107 -0.00760366 0.03695393
v 0.03289248 -0.01604967 0.04288181
v 0.03800109 -0.00983422 0.00838997
v 0.03813074 -0.00897936 0.00868150
v 0.03834878 -0.00760366 0.01382548
v 0.03690823 -0.01360913 0.00838997
v 0.03707644 -0.01325445 0.00868150
v 0.03708127 -0.01325445 0.03091591
v 0.03682412 -0.01379184 0.03091591
v 0.03682412 -0.01379184 0.03177108
v 0.03661144 -0.01421844 0.05399901
v 0.03623911 -0.01496416 0.05998520
v 0.03623858 -0.01496416 0.06597139
v 0.03597018 -0.01549824 0.06597139
v 0.03596911 -0.01549906 0.07132267
v 0.03568357 -0.01604967 0.05998520
v 0.03289462 -0.01604967 0.05998520
v 0.03581536 -0.00760366 0.06597139
v 0.03800431 -0.00983422 0.00868150
v 0.03785645 -0.01068989 0.00838997
v 0.03836324 -0.00760366 0.01979223
v 0.03707591 -0.01325445 0.00838997
v 0.03745734 -0.01241779 0.00953667
v 0.03745466 -0.01242936 0.01210218
v 0.03745573 -0.01242854 0.03519176
v 0.03745627 -0.01242688 0.05827486
v 0.03707912 -0.01325445 0.07110240
v 0.03682305 -0.01379018 0.07195757
v 0.03661037 -0.01421844 0.07195757
v 0.03622679 -0.01496416 0.07195757
v 0.03595893 -0.01547839 0.07195757
v 0.03573179 -0.01590582 0.07195757
v 0.03565465 -0.01604967 0.07196405
v 0.03568197 -0.01604967 0.06597139
v 0.03289569 -0.01604967 0.06597139
v 0.03582018 -0.00760366 0.07187983
v 0.03785806 -0.01068989 0.00868150
v 0.03814306 -0.00897936 0.01381252
v 0.03828288 -0.00812451 0.01979871
v 0.03814842 -0.00897936 0.01979871
v 0.03800806 -0.00983422 0.01381252
v 0.03763895 -0.01200607 0.01039184
v 0.03774984 -0.01127027 0.00838997
v 0.03763306 -0.01199036 0.00953667
v 0.03836378 -0.00760366 0.04288829
v 0.03746966 -0.01234669 0.00838997
v 0.03763895 -0.01200690 0.01124701
v 0.03763949 -0.01200772 0.01637803
v 0.03763949 -0.01200772 0.07452308
v 0.03745788 -0.01241862 0.07281274
v 0.03745038 -0.01243432 0.07366791
v 0.03707698 -0.01325445 0.07195757
v 0.03744341 -0.01243432 0.07457491
v 0.03741823 -0.01247814 0.07457491
v 0.03701591 -0.01308662 0.07457491
v 0.03560054 -0.01604967 0.07209362
v 0.03295087 -0.01604967 0.07202884
v 0.03513125 -0.01135377 0.07457491
v 0.03593643 -0.00760366 0.07232037
v 0.03815056 -0.00897936 0.04288181
v 0.03801127 -0.00983422 0.02578490
v 0.03766306 -0.01173655 0.00838997
v 0.03762716 -0.01197548 0.00904430
v 0.03836164 -0.00760366 0.06597139
v 0.03814949 -0.00897936 0.06597139
v 0.03753448 -0.01217638 0.00838997
v 0.03801020 -0.00983422 0.04886800
v 0.03800860 -0.00983422 0.06597139
v 0.03800699 -0.00983422 0.07195757
v 0.03763949 -0.01200690 0.07457491
v 0.03638322 -0.01353803 0.07457491
v 0.03536214 -0.01604967 0.07259247
v 0.03316248 -0.01604967 0.07246290
v 0.03500803 -0.01178120 0.07457491
v 0.03514732 -0.01131822 0.07457491
v 0.03604679 -0.00760366 0.07244994
v 0.03550679 -0.01064608 0.07457491
v 0.03584322 -0.01017070 0.07457491
v 0.03762074 -0.01194489 0.00838997
v 0.03833378 -0.00760366 0.07193814
v 0.03813449 -0.00897936 0.07195757
v 0.03766038 -0.01154475 0.07457491
v 0.03597876 -0.01372818 0.07457491
v 0.03465124 -0.01604967 0.07298119
v 0.03524000 -0.01604967 0.07267022
v 0.03320641 -0.01604967 0.07252769
v 0.03496464 -0.01239877 0.07457491
v 0.03636180 -0.00760366 0.07276739
v 0.03634304 -0.00993508 0.07457491
v 0.03681823 -0.00760366 0.07296175
v 0.03819235 -0.00760366 0.07224911
v 0.03764752 -0.01104457 0.07457491
v 0.03583197 -0.01373231 0.07457491
v 0.03440374 -0.01604967 0.07303949
v 0.03348391 -0.01604967 0.07271556
v 0.03501232 -0.01294608 0.07457491
v 0.03720770 -0.00760366 0.07308484
v 0.03696287 -0.01000535 0.07457491
v 0.03793306 -0.00760366 0.07272204
v 0.03744395 -0.01062458 0.07457491
v 0.03541196 -0.01336772 0.07457491
v 0.03372338 -0.01604967 0.07282570
v 0.03702394 -0.01001693 0.07457491
v 0.03766467 -0.00760366 0.07288401
f 1 2 6
f 1 6 10
f 1 10 15
f 1 15 26
f 1 26 42
f 1 42 60
f 1 60 59
f 1 59 82
f 1 82 98
f 1 98 111
f 1 111 110
f 1 110 120
f 1 120 128
f 1 128 121
f 1 121 112
f 1 112 99
f 1 99 83
f 1 83 61
f 1 61 43
f 1 43 28
f 1 28 16
f 1 16 8
f 1 8 3
f 1 3 4
f 1 4 9
f 1 9 18
f 1 18 29
f 1 29 46
f 1 46 69
f 1 69 88
f 1 88 105
f 1 105 92
f 1 92 72
f 1 72 48
f 1 48 32
f 1 32 20
f 1 20 11
f 1 11 5
f 1 5 2
f 2 5 6
f 3 7 4
f 3 8 7
f 4 7 17
f 4 17 27
f 4 27 44
f 4 44 62
f 4 62 85
f 4 85 102
f 4 102 114
f 4 114 116
f 4 116 123
f 4 123 130
f 4 130 125
f 4 125 117
f 4 117 106
f 4 106 90
f 4 90 71
f 4 71 47
f 4 47 31
f 4 31 19
f 4 19 9
f 5 10 6
f 5 11 12
f 5 12 13
f 5 13 14
f 5 14 15
f 5 15 10
f 7 8 16
f 7 16 17
f 9 19 18
f 11 20 12
f 12 20 21
f 12 21 22
f 12 22 13
f 13 22 23
f 13 23 24
f 13 24 14
f 14 24 23
f 14 23 15
f 15 23 25
f 15 25 26
f 16 27 17
f 16 28 27
f 18 19 30
f 18 30 29
f 19 31 30
f 20 32 21
f 21 32 33
f 21 33 34
f 21 34 35
f 21 35 22
f 22 35 36
f 22 36 37
f 22 37 25
f 22 25 23
f 25 37 38
f 25 38 39
f 25 39 40
f 25 40 41
f 25 41 26
f 26 41 42
f 27 28 43
f 27 43 44
f 29 30 45
f 29 45 46
f 30 31 45
f 31 47 45
f 32 48 33
f 33 48 49
f 33 49 50
f 33 50 34
f 34 36 35
f 34 50 51
f 34 51 52
f 34 52 53
f 34 53 54
f 34 54 36
f 36 54 37
f 37 54 55
f 37 55 38
f 38 55 39
f 39 55 41
f 39 41 40
f 41 55 56
f 41 56 57
f 41 57 58
f 41 58 59
f 41 59 60
f 41 60 42
f 43 61 44
f 44 61 62
f 45 63 46
f 45 47 64
f 45 64 65
f 45 65 66
f 45 66 67
f 45 67 68
f 45 68 63
f 46 63 68
f 46 68 70
f 46 70 69
f 47 65 64
f 47 71 65
f 48 72 49
f 49 72 70
f 49 70 68
f 49 68 50
f 50 68 73
f 50 73 74
f 50 74 51
f 51 74 75
f 51 75 52
f 52 75 76
f 52 76 53
f 53 76 77
f 53 77 78
f 53 78 54
f 54 78 79
f 54 79 55
f 55 79 56
f 56 79 57
f 57 79 58
f 58 79 59
f 59 79 80
f 59 80 81
f 59 81 82
f 61 83 62
f 62 83 84
f 62 84 85
f 65 71 86
f 65 86 66
f 66 87 67
f 66 86 87
f 67 87 68
f 68 87 73
f 69 70 88
f 70 72 89
f 70 89 88
f 71 90 91
f 71 91 86
f 72 92 89
f 73 87 74
f 74 87 75
f 75 93 94
f 75 94 95
f 75 95 96
f 75 96 77
f 75 77 76
f 75 87 93
f 77 96 79
f 77 79 78
f 79 96 108
f 79 108 118
f 79 118 126
f 79 126 129
f 79 129 124
f 79 124 115
f 79 115 104
f 79 104 103
f 79 103 101
f 79 101 84
f 79 84 100
f 79 100 113
f 79 113 122
f 79 122 127
f 79 127 119
f 79 119 109
f 79 109 97
f 79 97 81
f 79 81 80
f 81 97 98
f 81 98 82
f 83 99 100
f 83 100 84
f 84 101 85
f 85 101 103
f 85 103 104
f 85 104 102
f 86 91 87
f 87 91 93
f 88 89 105
f 89 92 105
f 90 106 107
f 90 107 95
f 90 95 91
f 91 95 94
f 91 94 93
f 95 107 96
f 96 107 106
f 96 106 108
f 97 109 110
f 97 110 111
f 97 111 98
f 99 112 100
f 100 112 113
f 102 104 114
f 104 115 116
f 104 116 114
f 106 117 118
f 106 118 108
f 109 119 120
f 109 120 110
f 112 121 122
f 112 122 113
f 115 123 116
f 115 124 123
f 117 125 118
f 118 125 126
f 119 127 128
f 119 128 120
f 121 128 122
f 122 128 127
f 123 124 129
f 123 129 130
f 125 130 129
f 125 129 126

