# https://github.com/mikedh/trimesh
v -0.01374802 0.03547481 0.07505277
v -0.01374802 0.03479613 0.07548935
v -0.01374802 0.03631315 0.07505277
v -0.01311392 0.03491213 0.07505277
v -0.01374802 0.03435991 0.07610147
v -0.01374802 0.03670981 0.07594774
v -0.01312702 0.03702003 0.07505277
v -0.01239893 0.03490121 0.07505277
v -0.01374802 0.03411882 0.07650898
v -0.01374802 0.03680260 0.07642233
v -0.01287970 0.03718379 0.07505277
v -0.01374802 0.03680715 0.07644973
v -0.01174634 0.03499310 0.07505277
v -0.01374802 0.03396644 0.07709035
v -0.01243437 0.03744762 0.07505277
v -0.01374802 0.03683535 0.07701600
v -0.01158300 0.03504040 0.07505277
v -0.00587768 0.03614485 0.07711103
v -0.01374802 0.03400419 0.07760072
v -0.00680070 0.03590877 0.07753755
v -0.01374802 0.03683854 0.07709035
v -0.01243437 0.03745080 0.07538035
v -0.01200676 0.03763958 0.07505277
v -0.01131873 0.03512319 0.07505277
v -0.00587768 0.03650602 0.07637985
v -0.00587768 0.03625129 0.07791936
v -0.01374802 0.03403376 0.07794507
v -0.01138191 0.03507452 0.08076302
v -0.01168470 0.03498445 0.08076302
v -0.01374802 0.03683080 0.07794507
v -0.01245132 0.03745262 0.08076302
v -0.01325415 0.03707371 0.07794507
v -0.01325415 0.03707280 0.07709035
v -0.01202371 0.03764640 0.08076302
v -0.01154370 0.03767824 0.07505277
v -0.00983404 0.03801030 0.07709035
v -0.00694401 0.03849747 0.07741289
v -0.00587768 0.03860846 0.07709929
v -0.00587768 0.03850521 0.07662805
v -0.01094428 0.03529513 0.07505277
v -0.00587768 0.03719834 0.07600643
v -0.01023083 0.03565949 0.07505277
v -0.01001510 0.03581233 0.07505277
v -0.00587768 0.03646599 0.07827433
v -0.01115154 0.03516504 0.08076302
v -0.01128020 0.03511227 0.08076302
v -0.01245363 0.03489439 0.08076302
v -0.01374802 0.03413974 0.07830116
v -0.01374802 0.03680624 0.07833917
v -0.01268554 0.03732070 0.08076302
v -0.01154370 0.03768233 0.08076302
v -0.00587768 0.03856480 0.07784165
v -0.00641393 0.03853887 0.07767954
v -0.00694401 0.03849747 0.07756830
v -0.01087186 0.03767506 0.07505277
v -0.00587768 0.03861301 0.07731004
v -0.00587768 0.03807944 0.07627028
v -0.00973850 0.03634317 0.07505277
v -0.00975699 0.03650602 0.07505277
v -0.00988335 0.03715240 0.07505277
v -0.00587768 0.03662065 0.07850520
v -0.01044887 0.03554486 0.08076302
v -0.01314859 0.03495534 0.08076302
v -0.01332811 0.03502221 0.08076302
v -0.01374802 0.03418341 0.07840234
v -0.01374802 0.03679623 0.07849234
v -0.01314859 0.03701548 0.08076302
v -0.01092502 0.03767506 0.08076302
v -0.00587768 0.03848656 0.07802109
v -0.01051590 0.03749947 0.07505277
v -0.00587768 0.03696772 0.07864550
v -0.01007904 0.03580232 0.08076302
v -0.01357543 0.03515867 0.08076302
v -0.01374802 0.03428985 0.07859184
v -0.01374802 0.03620580 0.08076302
v -0.01368561 0.03635318 0.08076302
v -0.01073009 0.03761183 0.08076302
v -0.00587768 0.03830506 0.07832519
v -0.00587768 0.03839877 0.07822122
v -0.00587768 0.03719834 0.07872321
v -0.00973850 0.03634317 0.08076302
v -0.01374802 0.03551575 0.08076302
v -0.01051282 0.03751448 0.08076302
v -0.00587768 0.03802486 0.07856613
v -0.00587768 0.03771963 0.07863377
v -0.00988566 0.03712556 0.08076302
v -0.00978935 0.03672072 0.08076302
f 1 2 5
f 1 5 9
f 1 9 14
f 1 14 19
f 1 19 27
f 1 27 48
f 1 48 65
f 1 65 74
f 1 74 82
f 1 82 75
f 1 75 66
f 1 66 49
f 1 49 30
f 1 30 21
f 1 21 16
f 1 16 12
f 1 12 10
f 1 10 6
f 1 6 3
f 1 3 7
f 1 7 11
f 1 11 15
f 1 15 23
f 1 23 35
f 1 35 55
f 1 55 70
f 1 70 60
f 1 60 59
f 1 59 58
f 1 58 43
f 1 43 42
f 1 42 40
f 1 40 24
f 1 24 17
f 1 17 13
f 1 13 8
f 1 8 4
f 1 4 2
f 2 4 5
f 3 6 7
f 4 8 9
f 4 9 5
f 6 10 7
f 7 10 12
f 7 12 11
f 8 13 9
f 9 13 14
f 11 12 15
f 12 16 15
f 13 17 18
f 13 18 14
f 14 18 20
f 14 20 19
f 15 16 21
f 15 21 22
f 15 22 23
f 17 24 18
f 18 25 41
f 18 41 57
f 18 57 39
f 18 39 38
f 18 38 56
f 18 56 52
f 18 52 69
f 18 69 79
f 18 79 78
f 18 78 84
f 18 84 85
f 18 85 80
f 18 80 71
f 18 71 61
f 18 61 44
f 18 44 26
f 18 26 20
f 18 24 25
f 19 20 27
f 20 26 28
f 20 28 29
f 20 29 27
f 21 30 31
f 21 31 32
f 21 32 33
f 21 33 22
f 22 31 34
f 22 34 23
f 22 33 31
f 23 34 36
f 23 36 37
f 23 37 38
f 23 38 39
f 23 39 35
f 24 40 25
f 25 40 42
f 25 42 43
f 25 43 41
f 26 44 45
f 26 45 46
f 26 46 28
f 27 29 47
f 27 47 48
f 28 46 45
f 28 45 62
f 28 62 72
f 28 72 81
f 28 81 87
f 28 87 86
f 28 86 83
f 28 83 77
f 28 77 68
f 28 68 51
f 28 51 34
f 28 34 31
f 28 31 50
f 28 50 67
f 28 67 76
f 28 76 75
f 28 75 82
f 28 82 73
f 28 73 64
f 28 64 63
f 28 63 47
f 28 47 29
f 30 49 50
f 30 50 31
f 31 33 32
f 34 51 52
f 34 52 53
f 34 53 54
f 34 54 37
f 34 37 36
f 35 39 55
f 37 54 56
f 37 56 38
f 39 57 55
f 41 43 58
f 41 58 59
f 41 59 60
f 41 60 57
f 44 61 62
f 44 62 45
f 47 63 48
f 48 63 64
f 48 64 65
f 49 66 50
f 50 66 67
f 51 68 52
f 52 68 69
f 52 56 53
f 53 56 54
f 55 57 70
f 57 60 70
f 61 71 72
f 61 72 62
f 64 73 65
f 65 73 74
f 66 75 76
f 66 76 67
f 68 77 78
f 68 78 79
f 68 79 69
f 71 80 81
f 71 81 72
f 73 82 74
f 77 83 84
f 77 84 78
f 80 85 86
f 80 86 87
f 80 87 81
f 83 86 84
f 84 86 85

