# https://github.com/mikedh/trimesh
v -0.02484380 0.01882309 -0.00031393
v -0.01924122 0.01882309 0.00035147
v -0.02484380 0.01882309 0.00222758
v -0.02484380 0.02009730 -0.00045947
v -0.01924122 0.02522790 -0.00055195
v -0.01916393 0.01882309 0.00036179
v -0.02009640 0.01882309 0.00302673
v -0.02484380 0.02569765 0.00233369
v -0.02484380 0.02092671 -0.00051989
v -0.02009640 0.02522790 -0.00060500
v -0.01916393 0.02608227 -0.00062084
v -0.01916393 0.02522349 -0.00054052
v -0.01916393 0.01882309 0.00313947
v -0.01955871 0.01882309 0.00310779
v -0.02484380 0.03010453 0.00233369
v -0.02095157 0.02522790 -0.00058768
v -0.01924122 0.02608227 -0.00062453
v -0.02484380 0.02611162 -0.00034451
v -0.01916393 0.02693663 -0.00058916
v -0.01916393 0.03381853 0.00233369
v -0.01992847 0.03348530 0.00233369
v -0.02157266 0.03260451 0.00233369
v -0.02314790 0.03168702 0.00233369
v -0.02404145 0.03087376 0.00233369
v -0.02484380 0.03005609 0.00207947
v -0.02009640 0.02608227 -0.00059505
v -0.02484380 0.02646541 -0.00032646
v -0.01924122 0.02693663 -0.00058584
v -0.01916393 0.03121139 -0.00018203
v -0.01916393 0.03367613 0.00180350
v -0.01988566 0.03346915 0.00206436
v -0.02152373 0.03257662 0.00208904
v -0.02313233 0.03167381 0.00220842
v -0.02401587 0.03085027 0.00214984
v -0.02469423 0.02983883 0.00153712
v -0.02484380 0.02996948 0.00194719
v -0.02484380 0.02666212 -0.00031578
v -0.02437062 0.02719059 -0.00027893
v -0.02484380 0.02704966 -0.00023877
v -0.01924122 0.03121139 -0.00016987
v -0.01916393 0.03210833 0.00017683
v -0.01916393 0.03356604 0.00163144
v -0.01954926 0.03329299 0.00149438
v -0.01925512 0.03363063 0.00180240
v -0.02070136 0.03258836 0.00130942
v -0.02127129 0.03241661 0.00151906
v -0.02097215 0.03274690 0.00181713
v -0.02281039 0.03144040 0.00163844
v -0.02377900 0.03066384 0.00157949
v -0.02484380 0.02931182 0.00117789
v -0.02484380 0.02974928 0.00161486
v -0.02412429 0.03009279 0.00129137
v -0.02484380 0.02781742 0.00008730
v -0.02437062 0.02779099 -0.00009839
v -0.01929793 0.03212741 0.00022989
v -0.01916393 0.03241073 0.00034300
v -0.01916393 0.03316821 0.00108394
v -0.01916393 0.03301848 0.00089235
v -0.01916393 0.03279535 0.00066391
v -0.01962043 0.03245330 0.00058285
v -0.02224046 0.03164445 0.00140595
v -0.02320851 0.03087082 0.00135179
v -0.02484380 0.02915915 0.00104930
v -0.02484380 0.02842516 0.00043437
f 1 2 6
f 1 6 13
f 1 13 14
f 1 14 7
f 1 7 3
f 1 3 8
f 1 8 15
f 1 15 25
f 1 25 36
f 1 36 51
f 1 51 50
f 1 50 63
f 1 63 64
f 1 64 53
f 1 53 39
f 1 39 37
f 1 37 27
f 1 27 18
f 1 18 9
f 1 9 4
f 1 4 5
f 1 5 2
f 2 5 6
f 3 7 8
f 4 9 10
f 4 10 11
f 4 11 5
f 5 12 6
f 5 11 12
f 6 12 11
f 6 11 19
f 6 19 29
f 6 29 41
f 6 41 56
f 6 56 59
f 6 59 58
f 6 58 57
f 6 57 42
f 6 42 30
f 6 30 20
f 6 20 13
f 7 14 8
f 8 14 15
f 9 16 17
f 9 17 10
f 9 18 16
f 10 17 11
f 11 17 19
f 13 20 21
f 13 21 22
f 13 22 23
f 13 23 24
f 13 24 15
f 13 15 14
f 15 24 25
f 16 26 17
f 16 18 26
f 17 26 19
f 18 27 26
f 19 26 28
f 19 28 29
f 20 30 31
f 20 31 21
f 21 31 22
f 22 31 32
f 22 32 33
f 22 33 23
f 23 33 24
f 24 34 25
f 24 33 34
f 25 35 36
f 25 34 35
f 26 27 37
f 26 37 28
f 28 37 29
f 29 37 38
f 29 38 39
f 29 39 40
f 29 40 41
f 30 42 43
f 30 43 44
f 30 44 31
f 31 44 43
f 31 43 45
f 31 45 46
f 31 46 47
f 31 47 32
f 32 46 33
f 32 47 46
f 33 48 49
f 33 49 35
f 33 35 34
f 33 46 48
f 35 50 51
f 35 51 36
f 35 49 52
f 35 52 50
f 37 39 38
f 39 53 54
f 39 54 40
f 40 54 41
f 41 54 55
f 41 55 56
f 42 57 43
f 43 57 45
f 45 57 58
f 45 58 59
f 45 59 60
f 45 60 61
f 45 61 46
f 46 61 48
f 48 61 49
f 49 62 52
f 49 61 62
f 50 52 63
f 52 62 64
f 52 64 63
f 53 64 55
f 53 55 54
f 55 64 56
f 56 64 60
f 56 60 59
f 60 64 62
f 60 62 61

