# https://github.com/mikedh/trimesh
v 0.01442560 0.00308421 0.00525659
v 0.01442560 0.00337640 0.00571666
v 0.01442560 0.00312171 0.00440306
v 0.01590585 0.00005631 0.00436416
v 0.01442560 0.00350828 0.00579642
v 0.01609588 0.00005631 0.00481208
v 0.01613910 0.00005631 0.00490983
v 0.01632278 0.00005631 0.00504211
v 0.01442560 0.00337899 0.00393570
v 0.01602025 0.00005631 0.00376353
v 0.01442560 0.00385994 0.00594621
v 0.01665836 0.00005631 0.00515348
v 0.01442560 0.00384830 0.00368620
v 0.01640223 0.00005631 0.00331659
v 0.01442560 0.00416505 0.00601430
v 0.01715792 0.00005631 0.00528917
v 0.01442560 0.00473004 0.00344158
v 0.01682997 0.00005631 0.00296157
v 0.01442560 0.00470418 0.00606439
v 0.01753037 0.00005631 0.00531154
v 0.01442560 0.01037342 0.00271694
v 0.01753037 0.00005631 0.00273980
v 0.01496520 0.00470418 0.00594427
v 0.01838522 0.00555877 0.00517245
v 0.01838522 0.00641465 0.00511555
v 0.01442560 0.01069922 0.00521914
v 0.01809921 0.00005631 0.00515640
v 0.01838522 0.00128325 0.00512138
v 0.01838522 0.00213913 0.00513841
v 0.01838522 0.00384830 0.00516272
v 0.01442560 0.01326169 0.00312692
v 0.01881931 0.01326169 0.00141015
v 0.01919112 0.01326169 0.00127933
v 0.02091861 0.00388062 0.00177928
v 0.02091861 0.00384830 0.00178220
v 0.02091861 0.00302604 0.00187168
v 0.02091861 0.00299371 0.00187849
v 0.02091861 0.00223738 0.00210221
v 0.02091861 0.00221282 0.00211194
v 0.01838522 0.00005631 0.00282685
v 0.02009554 0.01326169 0.00110716
v 0.01924006 0.00555877 0.00497500
v 0.01971738 0.00614703 0.00484661
v 0.01929345 0.00642499 0.00492247
v 0.01961378 0.00671589 0.00481840
v 0.01904367 0.00711668 0.00488308
v 0.01753037 0.00812382 0.00502704
v 0.02009554 0.01326169 0.00373873
v 0.01442560 0.01148787 0.00501634
v 0.01842208 0.00005631 0.00504552
v 0.02091861 0.00384830 0.00451249
v 0.01921845 0.00384830 0.00495798
v 0.01442560 0.01326169 0.00431309
v 0.02091861 0.01326169 0.00109598
v 0.02091861 0.00181849 0.00237747
v 0.01890384 0.00005631 0.00304862
v 0.01973199 0.00555877 0.00484855
v 0.02015973 0.00555877 0.00472988
v 0.02091861 0.00637974 0.00448283
v 0.02091861 0.00641465 0.00448136
v 0.02091861 0.00723821 0.00439966
v 0.02091861 0.00726794 0.00439577
v 0.02009554 0.00726794 0.00461511
v 0.01972310 0.01209423 0.00399114
v 0.02010381 0.01326169 0.00373630
v 0.01880596 0.00005631 0.00482277
v 0.02091861 0.00299371 0.00440258
v 0.02091861 0.00381598 0.00450860
v 0.02091861 0.00470160 0.00452514
v 0.02091861 0.01326169 0.00339392
v 0.02091861 0.00153406 0.00275001
v 0.01915235 0.00005631 0.00354857
v 0.01895914 0.00005631 0.00460441
v 0.02091861 0.00180815 0.00381654
v 0.02091861 0.00181979 0.00382773
v 0.02091861 0.00224385 0.00414774
v 0.02091861 0.00295751 0.00439042
v 0.02091861 0.00154441 0.00340607
v 0.01914155 0.00005631 0.00390409
v 0.01904685 0.00005631 0.00443711
f 1 2 5
f 1 5 11
f 1 11 15
f 1 15 19
f 1 19 26
f 1 26 49
f 1 49 53
f 1 53 31
f 1 31 21
f 1 21 17
f 1 17 13
f 1 13 9
f 1 9 3
f 1 3 4
f 1 4 2
f 2 4 6
f 2 6 7
f 2 7 8
f 2 8 5
f 3 9 10
f 3 10 4
f 4 10 14
f 4 14 18
f 4 18 22
f 4 22 40
f 4 40 56
f 4 56 72
f 4 72 79
f 4 79 80
f 4 80 73
f 4 73 66
f 4 66 50
f 4 50 27
f 4 27 20
f 4 20 16
f 4 16 12
f 4 12 8
f 4 8 7
f 4 7 6
f 5 8 11
f 8 12 11
f 9 13 10
f 10 13 14
f 11 12 16
f 11 16 15
f 13 17 18
f 13 18 14
f 15 16 20
f 15 20 19
f 17 21 18
f 18 21 22
f 19 20 23
f 19 23 24
f 19 24 25
f 19 25 26
f 20 27 28
f 20 28 29
f 20 29 30
f 20 30 23
f 21 31 32
f 21 32 33
f 21 33 22
f 22 34 35
f 22 35 36
f 22 36 37
f 22 37 38
f 22 38 39
f 22 39 40
f 22 33 41
f 22 41 34
f 23 30 24
f 24 42 43
f 24 43 44
f 24 44 25
f 24 30 42
f 25 44 45
f 25 45 46
f 25 46 47
f 25 47 26
f 26 47 48
f 26 48 49
f 27 50 51
f 27 51 28
f 28 51 52
f 28 52 29
f 29 52 30
f 30 52 42
f 31 53 48
f 31 48 65
f 31 65 70
f 31 70 54
f 31 54 41
f 31 41 33
f 31 33 32
f 34 41 54
f 34 54 70
f 34 70 62
f 34 62 61
f 34 61 60
f 34 60 59
f 34 59 69
f 34 69 51
f 34 51 68
f 34 68 67
f 34 67 77
f 34 77 76
f 34 76 75
f 34 75 74
f 34 74 78
f 34 78 71
f 34 71 55
f 34 55 39
f 34 39 38
f 34 38 37
f 34 37 36
f 34 36 35
f 39 55 40
f 40 55 56
f 42 52 57
f 42 57 43
f 43 57 58
f 43 58 59
f 43 59 60
f 43 60 61
f 43 61 45
f 43 45 44
f 45 61 62
f 45 62 63
f 45 63 48
f 45 48 46
f 46 48 64
f 46 64 47
f 47 64 48
f 48 63 62
f 48 62 65
f 48 53 49
f 50 66 67
f 50 67 68
f 50 68 51
f 51 69 52
f 52 69 57
f 55 71 56
f 56 71 72
f 57 69 58
f 58 69 59
f 62 70 65
f 66 73 74
f 66 74 75
f 66 75 76
f 66 76 77
f 66 77 67
f 71 78 72
f 72 78 79
f 73 80 78
f 73 78 74
f 78 80 79

