# https://github.com/mikedh/trimesh
v -0.03410780 0.01882309 0.00269311
v -0.03351927 0.02000761 0.00269311
v -0.03349207 0.01993964 0.00224419
v -0.03399535 0.01882309 0.00224419
v -0.03404704 0.01882309 0.00284711
v -0.03218898 0.02266191 0.00528110
v -0.03219623 0.02266191 0.00440317
v -0.03330617 0.02043551 0.00269311
v -0.03304229 0.02095144 0.00269311
v -0.03265871 0.02167351 0.00269311
v -0.03261155 0.02158548 0.00224419
v -0.03042704 0.01882309 0.00224419
v -0.03369973 0.01882309 0.00354279
v -0.03232772 0.02180834 0.00528110
v -0.03182988 0.02331713 0.00528110
v -0.03182988 0.02331713 0.00525820
v -0.03181809 0.02330375 0.00440317
v -0.03217175 0.02266191 0.00354814
v -0.03245286 0.02214041 0.00354814
v -0.03241840 0.02210141 0.00269311
v -0.03169114 0.02315221 0.00224419
v -0.03003802 0.02150859 0.00528110
v -0.03004981 0.02149745 0.00528110
v -0.03046604 0.02110521 0.00528110
v -0.03179905 0.01882309 0.00383028
v -0.02514305 0.02514572 0.00224419
v -0.03355373 0.01882309 0.00374109
v -0.03333338 0.01882309 0.00396495
v -0.03197134 0.02092581 0.00528110
v -0.03134202 0.02374502 0.00528110
v -0.02484471 0.03011668 0.00344052
v -0.02484471 0.03020582 0.00269311
v -0.02496350 0.03009104 0.00269311
v -0.03010150 0.02497188 0.00269311
v -0.03178545 0.02326587 0.00354814
v -0.03052951 0.02452950 0.00269311
v -0.03138917 0.02369377 0.00354814
v -0.03208651 0.02266191 0.00269311
v -0.03173467 0.02320681 0.00269311
v -0.03135653 0.02363359 0.00269311
v -0.03092942 0.02410272 0.00269311
v -0.03087592 0.02404366 0.00224419
v -0.03002986 0.02151974 0.00528110
v -0.02484471 0.02551344 0.00224419
v -0.03121778 0.02070629 0.00528110
v -0.03221346 0.01882309 0.00409903
v -0.03190424 0.01882309 0.00391322
v -0.03329982 0.01882309 0.00398368
v -0.03288723 0.01882309 0.00408298
v -0.03133113 0.02375282 0.00528110
v -0.02484471 0.02987375 0.00391917
v -0.02484471 0.03002753 0.00361890
v -0.02484471 0.03008770 0.00224419
v -0.02491634 0.03003867 0.00224419
v -0.02578870 0.02920405 0.00224419
v -0.02664382 0.02835160 0.00224419
v -0.02835589 0.02664447 0.00224419
v -0.02921010 0.02578979 0.00224419
v -0.03004890 0.02492620 0.00224419
v -0.02973877 0.02193649 0.00528110
v -0.02484471 0.02751364 0.00393879
v -0.03246102 0.01882309 0.00410141
v -0.03091491 0.02401134 0.00528110
v -0.02484471 0.02976344 0.00399766
v -0.02942320 0.02266302 0.00528110
v -0.02484471 0.02814099 0.00421171
v -0.03035722 0.02411275 0.00528110
v -0.02484471 0.02905696 0.00429198
v -0.02484471 0.02938903 0.00418822
v -0.02940960 0.02349764 0.00528110
v -0.02972154 0.02405146 0.00528110
v -0.02940960 0.02351659 0.00528110
f 1 2 3
f 1 3 4
f 1 4 12
f 1 12 25
f 1 25 47
f 1 47 46
f 1 46 62
f 1 62 49
f 1 49 48
f 1 48 28
f 1 28 27
f 1 27 13
f 1 13 5
f 1 5 6
f 1 6 7
f 1 7 2
f 2 8 3
f 2 7 8
f 3 8 9
f 3 9 10
f 3 10 11
f 3 11 21
f 3 21 42
f 3 42 59
f 3 59 58
f 3 58 57
f 3 57 56
f 3 56 55
f 3 55 54
f 3 54 53
f 3 53 44
f 3 44 26
f 3 26 12
f 3 12 4
f 5 13 6
f 6 14 29
f 6 29 45
f 6 45 24
f 6 24 23
f 6 23 22
f 6 22 43
f 6 43 60
f 6 60 65
f 6 65 70
f 6 70 72
f 6 72 71
f 6 71 67
f 6 67 63
f 6 63 50
f 6 50 30
f 6 30 15
f 6 15 7
f 6 13 14
f 7 15 16
f 7 16 17
f 7 17 18
f 7 18 19
f 7 19 8
f 8 19 9
f 9 19 10
f 10 19 18
f 10 18 20
f 10 20 11
f 11 20 21
f 12 22 23
f 12 23 24
f 12 24 25
f 12 26 22
f 13 27 14
f 14 27 28
f 14 28 29
f 15 30 31
f 15 31 32
f 15 32 33
f 15 33 16
f 16 33 34
f 16 34 17
f 17 35 18
f 17 34 36
f 17 36 37
f 17 37 35
f 18 35 38
f 18 38 20
f 20 38 21
f 21 38 39
f 21 39 40
f 21 40 41
f 21 41 42
f 22 26 44
f 22 44 43
f 24 45 46
f 24 46 47
f 24 47 25
f 28 48 29
f 29 48 49
f 29 49 45
f 30 50 51
f 30 51 52
f 30 52 31
f 31 52 51
f 31 51 64
f 31 64 69
f 31 69 68
f 31 68 66
f 31 66 61
f 31 61 44
f 31 44 53
f 31 53 32
f 32 53 54
f 32 54 55
f 32 55 33
f 33 55 34
f 34 55 56
f 34 56 57
f 34 57 58
f 34 58 59
f 34 59 36
f 35 37 41
f 35 41 40
f 35 40 39
f 35 39 38
f 36 59 42
f 36 42 41
f 36 41 37
f 43 44 60
f 44 61 60
f 45 49 62
f 45 62 46
f 50 63 64
f 50 64 51
f 60 61 66
f 60 66 65
f 63 67 68
f 63 68 69
f 63 69 64
f 65 66 68
f 65 68 70
f 67 71 68
f 68 71 72
f 68 72 70

