# https://github.com/mikedh/trimesh
v -0.03945545 -0.00000660 0.00696847
v -0.03945446 -0.00042797 0.00696847
v -0.03945099 -0.00042797 0.00839006
v -0.03945050 -0.00014953 0.00839006
v -0.03945000 -0.00000660 0.00839006
v -0.03943216 -0.00000660 0.00567317
v -0.03942175 -0.00041565 0.00525850
v -0.03939795 -0.00050559 0.00441997
v -0.03934045 -0.00087029 0.00391530
v -0.03930972 -0.00150604 0.00782346
v -0.03931021 -0.00151466 0.00839006
v -0.03936623 -0.00108713 0.00839006
v -0.03670930 -0.00000660 0.00839006
v -0.03939845 -0.00000660 0.00441997
v -0.03937515 -0.00043167 0.00359740
v -0.03934293 -0.00060170 0.00344740
v -0.03764864 -0.01125175 0.00344740
v -0.03765162 -0.01127516 0.00354853
v -0.03762485 -0.01192939 0.00579801
v -0.03850174 -0.00697029 0.00818007
v -0.03921950 -0.00213809 0.00839006
v -0.03659083 -0.00000660 0.00344740
v -0.03445289 -0.01259347 0.00839006
v -0.03937515 -0.00000660 0.00359837
v -0.03936970 -0.00000660 0.00344740
v -0.03936970 -0.00036391 0.00344740
v -0.03758668 -0.01159549 0.00344740
v -0.03757429 -0.01170269 0.00354853
v -0.03740228 -0.01239881 0.00440352
v -0.03762782 -0.01197620 0.00636752
v -0.03785684 -0.01068869 0.00839006
v -0.03850174 -0.00697029 0.00834507
v -0.03848439 -0.00701341 0.00839006
v -0.03439143 -0.01259347 0.00344740
v -0.03736362 -0.01259347 0.00839006
v -0.03756933 -0.01167558 0.00344740
v -0.03753711 -0.01178400 0.00344740
v -0.03735420 -0.01239881 0.00354853
v -0.03730165 -0.01259347 0.00420078
v -0.03747366 -0.01231626 0.00609510
v -0.03748457 -0.01231626 0.00698783
v -0.03762782 -0.01197620 0.00671541
v -0.03795498 -0.01012193 0.00839006
v -0.03780528 -0.01096837 0.00839006
v -0.03725754 -0.01259347 0.00344740
v -0.03736064 -0.01259347 0.00782346
v -0.03744838 -0.01239881 0.00839006
v -0.03734230 -0.01239881 0.00344740
v -0.03730413 -0.01249121 0.00344740
v -0.03726497 -0.01259347 0.00354853
v -0.03734775 -0.01259347 0.00698105
v -0.03762138 -0.01194910 0.00839006
v -0.03764864 -0.01180495 0.00839006
f 1 2 3
f 1 3 4
f 1 4 5
f 1 5 13
f 1 13 22
f 1 22 25
f 1 25 24
f 1 24 14
f 1 14 6
f 1 6 2
f 2 6 7
f 2 7 8
f 2 8 9
f 2 9 10
f 2 10 11
f 2 11 12
f 2 12 3
f 3 12 11
f 3 11 21
f 3 21 33
f 3 33 43
f 3 43 31
f 3 31 44
f 3 44 53
f 3 53 52
f 3 52 47
f 3 47 35
f 3 35 23
f 3 23 13
f 3 13 5
f 3 5 4
f 6 14 7
f 7 15 8
f 7 14 15
f 8 15 9
f 9 15 16
f 9 16 17
f 9 17 18
f 9 18 19
f 9 19 20
f 9 20 10
f 10 21 11
f 10 20 21
f 13 23 22
f 14 24 15
f 15 24 25
f 15 25 26
f 15 26 16
f 16 26 25
f 16 25 22
f 16 22 34
f 16 34 45
f 16 45 49
f 16 49 48
f 16 48 37
f 16 37 36
f 16 36 27
f 16 27 17
f 17 27 18
f 18 27 28
f 18 28 19
f 19 28 29
f 19 29 30
f 19 30 20
f 20 30 31
f 20 31 32
f 20 32 21
f 21 32 33
f 22 23 34
f 23 35 46
f 23 46 51
f 23 51 39
f 23 39 50
f 23 50 45
f 23 45 34
f 27 36 28
f 28 36 37
f 28 37 38
f 28 38 29
f 29 38 39
f 29 39 40
f 29 40 30
f 30 40 41
f 30 41 42
f 30 42 31
f 31 43 32
f 31 42 44
f 32 43 33
f 35 47 41
f 35 41 46
f 37 48 38
f 38 48 49
f 38 49 45
f 38 45 50
f 38 50 39
f 39 51 40
f 40 51 46
f 40 46 41
f 41 47 42
f 42 52 53
f 42 53 44
f 42 47 52

