# https://github.com/mikedh/trimesh
v 0.02357943 -0.03346129 0.08492906
v 0.02357943 -0.03351391 0.08484537
v 0.02357943 -0.03346129 0.08333887
v 0.02321486 -0.03346129 0.08525708
v 0.02225034 -0.03421753 0.08522368
v 0.02357943 -0.03356804 0.08474772
v 0.02357943 -0.03349361 0.08336507
v 0.02351482 -0.03351466 0.08334521
v 0.02351713 -0.03346129 0.08330336
v 0.02318255 -0.03346129 0.08528033
v 0.02242110 -0.03433179 0.08478619
v 0.02180501 -0.03435208 0.08529934
v 0.02064667 -0.03512335 0.08526342
v 0.02121661 -0.03495948 0.08506221
v 0.02146581 -0.03511659 0.08449199
v 0.02357943 -0.03370635 0.08400081
v 0.02357943 -0.03370560 0.08393107
v 0.02139659 -0.03507299 0.08348808
v 0.02239802 -0.03431375 0.08338705
v 0.02267261 -0.03381535 0.08314823
v 0.02266568 -0.03346129 0.08288235
v 0.02291720 -0.03346129 0.08535683
v 0.02258492 -0.03374544 0.08533401
v 0.02180501 -0.03377852 0.08550901
v 0.02093971 -0.03465804 0.08539234
v 0.02009519 -0.03527746 0.08533950
v 0.01900146 -0.03600813 0.08528117
v 0.01957140 -0.03585704 0.08513407
v 0.02027747 -0.03577811 0.08393107
v 0.02094894 -0.03540074 0.08393107
v 0.02145889 -0.03511208 0.08393107
v 0.02188577 -0.03483168 0.08393107
v 0.02253185 -0.03440395 0.08393107
v 0.02295873 -0.03411980 0.08393107
v 0.01982752 -0.03600663 0.08456385
v 0.01923912 -0.03635844 0.08393107
v 0.01974907 -0.03596077 0.08344792
v 0.02094894 -0.03519777 0.08336042
v 0.02173117 -0.03461293 0.08327969
v 0.02188577 -0.03346129 0.08250784
v 0.02212343 -0.03346129 0.08553606
v 0.02009519 -0.03463323 0.08556311
v 0.01926681 -0.03553831 0.08541390
v 0.01838537 -0.03616750 0.08535726
v 0.01730779 -0.03685082 0.08527652
v 0.01787773 -0.03672904 0.08515986
v 0.01926681 -0.03617501 0.08482381
v 0.01842690 -0.03660876 0.08483945
v 0.01816847 -0.03687111 0.08458963
v 0.01863457 -0.03668544 0.08393107
v 0.01807848 -0.03682676 0.08343313
v 0.01923912 -0.03610360 0.08331139
v 0.01325591 -0.03702672 0.08136190
v 0.02093279 -0.03346129 0.08216334
v 0.01328129 -0.03701093 0.08136190
v 0.02126737 -0.03346129 0.08564047
v 0.02094894 -0.03377852 0.08563032
v 0.01838537 -0.03548869 0.08558509
v 0.01756622 -0.03640429 0.08541432
v 0.01667324 -0.03699289 0.08535007
v 0.01554028 -0.03768072 0.08526131
v 0.01611022 -0.03755668 0.08511463
v 0.01641481 -0.03770327 0.08454483
v 0.01820770 -0.03688690 0.08393107
v 0.01632251 -0.03765967 0.08345891
v 0.01246676 -0.03746873 0.08136190
v 0.02021748 -0.03346129 0.08195664
v 0.01365510 -0.03671475 0.08136190
v 0.01982752 -0.03346129 0.08184927
v 0.02041131 -0.03346129 0.08567344
v 0.02009519 -0.03377852 0.08567132
v 0.01923912 -0.03463323 0.08564639
v 0.01752930 -0.03548869 0.08565188
v 0.01581948 -0.03634415 0.08564554
v 0.01667324 -0.03634415 0.08557706
v 0.01582179 -0.03724322 0.08540080
v 0.01496342 -0.03778145 0.08532598
v 0.01367125 -0.03847604 0.08520847
v 0.01582179 -0.03782280 0.08481240
v 0.01458269 -0.03849784 0.08440449
v 0.01581948 -0.03797239 0.08393107
v 0.01642865 -0.03770853 0.08393107
v 0.01685553 -0.03751233 0.08393107
v 0.01752930 -0.03720112 0.08393107
v 0.01447424 -0.03845650 0.08365843
v 0.01390430 -0.03855948 0.08340354
v 0.01581948 -0.03776642 0.08334056
v 0.01203988 -0.03765366 0.08136190
v 0.01398506 -0.03639227 0.08136190
v 0.01923912 -0.03346129 0.08173556
v 0.01955755 -0.03346129 0.08567597
v 0.01923912 -0.03377852 0.08567851
v 0.01838537 -0.03463323 0.08567513
v 0.01667324 -0.03548869 0.08567471
v 0.01496342 -0.03634415 0.08567174
v 0.01325360 -0.03719887 0.08565864
v 0.01410967 -0.03719887 0.08562145
v 0.01496342 -0.03719887 0.08554958
v 0.01410967 -0.03795059 0.08538938
v 0.01310131 -0.03856099 0.08527906
v 0.01104999 -0.03931196 0.08518395
v 0.01206065 -0.03936158 0.08442774
v 0.01333206 -0.03873915 0.08486861
v 0.01410967 -0.03858580 0.08460274
v 0.01458269 -0.03849784 0.08422865
v 0.01490574 -0.03833472 0.08393868
v 0.01325360 -0.03894136 0.08393107
v 0.01192221 -0.03932174 0.08359545
v 0.01135457 -0.03939991 0.08341876
v 0.01069003 -0.03949162 0.08331477
v 0.00795109 -0.04023884 0.08343693
v 0.00727039 -0.04030424 0.08335577
v 0.00641433 -0.04038016 0.08327419
v 0.00042650 -0.03950365 0.08136190
v 0.01402891 -0.03634791 0.08136190
v 0.01920451 -0.03346129 0.08173092
v 0.01870149 -0.03346129 0.08566329
v 0.00000654 -0.03805358 0.08564639
v 0.00000654 -0.03890829 0.08568020
v 0.01752930 -0.03463323 0.08567893
v 0.01410967 -0.03634415 0.08567808
v 0.01239754 -0.03719887 0.08567428
v 0.01069003 -0.03805358 0.08565611
v 0.01154609 -0.03805358 0.08562694
v 0.01239754 -0.03805358 0.08557157
v 0.01333206 -0.03813627 0.08542109
v 0.01239754 -0.03866548 0.08534458
v 0.01048005 -0.03938488 0.08525792
v 0.01073387 -0.03954049 0.08485382
v 0.01154609 -0.03943449 0.08460189
v 0.00753113 -0.04014638 0.08515352
v 0.00899175 -0.04000881 0.08475364
v 0.00983627 -0.03979457 0.08478619
v 0.01206065 -0.03936158 0.08416524
v 0.00871485 -0.04022305 0.08444676
v 0.00983627 -0.03994491 0.08393107
v 0.01236754 -0.03923303 0.08390063
v 0.01160147 -0.03945329 0.08390063
v 0.01069003 -0.03971038 0.08393107
v 0.00852103 -0.04018471 0.08354557
v 0.00641433 -0.04063199 0.08393107
v 0.00556057 -0.04075076 0.08393107
v 0.00299469 -0.04100861 0.08376072
v 0.00213862 -0.04103041 0.08360643
v 0.00556057 -0.04044030 0.08321924
v 0.00470451 -0.04049292 0.08318204
v 0.00160560 -0.04104168 0.08353204
v 0.00103566 -0.04105296 0.08349357
v 0.00042880 -0.04106423 0.08347667
v 0.00000654 -0.03950365 0.08136190
v 0.01458731 -0.03546464 0.08136190
v 0.01837383 -0.03346129 0.08169710
v 0.01409351 -0.03485574 0.08136190
v 0.01362279 -0.03468810 0.08136190
v 0.01784773 -0.03346129 0.08562990
v 0.00000654 -0.03719887 0.08547181
v 0.00000654 -0.03976375 0.08562947
v 0.00042880 -0.03890829 0.08568020
v 0.00812414 -0.03805358 0.08567935
v 0.01154609 -0.03719887 0.08567851
v 0.00898021 -0.03805358 0.08567682
v 0.00983627 -0.03805358 0.08567132
v 0.00727039 -0.03890829 0.08565061
v 0.00812414 -0.03890829 0.08562947
v 0.00898021 -0.03890829 0.08559566
v 0.01154609 -0.03880079 0.08539361
v 0.00983627 -0.03890829 0.08553648
v 0.00983627 -0.03945930 0.08531287
v 0.00696119 -0.04021103 0.08523340
v 0.00725424 -0.04034408 0.08483564
v 0.00812414 -0.04028169 0.08459344
v 0.00347464 -0.04105221 0.08437617
v 0.00727039 -0.04048014 0.08393107
v 0.00871485 -0.04022305 0.08411579
v 0.00899175 -0.04013435 0.08387104
v 0.00347464 -0.04105221 0.08430769
v 0.00470451 -0.04085375 0.08393107
v 0.00379537 -0.04096951 0.08398602
v 0.00299469 -0.04106799 0.08418807
v 0.00213862 -0.04108829 0.08403378
v 0.00130564 -0.04109731 0.08386259
v 0.00042880 -0.04113941 0.08393107
v 0.00000654 -0.04114016 0.08393107
v 0.00000654 -0.04106423 0.08347667
v 0.00000654 -0.03680571 0.08136190
v 0.01752930 -0.03346129 0.08172626
v 0.01239985 -0.03475426 0.08136190
v 0.01699167 -0.03346129 0.08556311
v 0.00000654 -0.03670348 0.08527060
v 0.00000654 -0.04048465 0.08539446
v 0.00042880 -0.03976375 0.08562947
v 0.00128487 -0.03890829 0.08567978
v 0.00213862 -0.03890829 0.08567935
v 0.00299469 -0.03890829 0.08567808
v 0.00384844 -0.03890829 0.08567640
v 0.00470451 -0.03890829 0.08567428
v 0.00556057 -0.03890829 0.08567132
v 0.00641433 -0.03890829 0.08566498
v 0.00299469 -0.03976375 0.08560877
v 0.00384844 -0.03976375 0.08558805
v 0.00470451 -0.03976375 0.08555889
v 0.00556057 -0.03976375 0.08552718
v 0.00641433 -0.03976375 0.08548280
v 0.00898021 -0.03955402 0.08536529
v 0.00641433 -0.04024711 0.08526595
v 0.00299469 -0.04085450 0.08484664
v 0.00379537 -0.04084473 0.08471137
v 0.00556057 -0.04060418 0.08478619
v 0.00641433 -0.04049818 0.08478619
v 0.00299469 -0.04106799 0.08441886
v 0.00213862 -0.04108829 0.08447593
v 0.00042880 -0.04112211 0.08456469
v 0.00000654 -0.04112211 0.08456469
v 0.00000654 -0.03632311 0.08307637
v 0.01471422 -0.03346129 0.08257547
v 0.01504188 -0.03346129 0.08236031
v 0.01581948 -0.03346129 0.08203019
v 0.01628559 -0.03346129 0.08185857
v 0.01643327 -0.03346129 0.08182687
v 0.01687630 -0.03346129 0.08175332
v 0.01614714 -0.03346129 0.08545448
v 0.00000654 -0.03639527 0.08478619
v 0.01542260 -0.03346129 0.08533654
v 0.01518263 -0.03346129 0.08528878
v 0.00000654 -0.04091238 0.08499204
v 0.00042880 -0.04048465 0.08539446
v 0.00128487 -0.03976375 0.08562483
v 0.00213862 -0.03976375 0.08561891
v 0.00128487 -0.04046661 0.08539023
v 0.00213862 -0.04044932 0.08538515
v 0.00299469 -0.04042677 0.08537670
v 0.00384844 -0.04038768 0.08535853
v 0.00470451 -0.04033807 0.08533274
v 0.00556057 -0.04029371 0.08530400
v 0.00812414 -0.03964723 0.08539530
v 0.00213862 -0.04087705 0.08490370
v 0.00042880 -0.04091238 0.08499204
v 0.00128487 -0.04110483 0.08452116
v 0.00000654 -0.03617351 0.08393107
v 0.01412813 -0.03346129 0.08307848
v 0.01424581 -0.03346129 0.08295083
v 0.00000654 -0.03628251 0.08435208
v 0.01470268 -0.03346129 0.08510871
v 0.01464269 -0.03346129 0.08506940
v 0.01416966 -0.03346129 0.08471222
v 0.00128487 -0.04089434 0.08494851
v 0.01372432 -0.03346129 0.08393107
f 1 2 6
f 1 6 16
f 1 16 17
f 1 17 7
f 1 7 3
f 1 3 9
f 1 9 21
f 1 21 40
f 1 40 54
f 1 54 67
f 1 67 69
f 1 69 90
f 1 90 116
f 1 116 152
f 1 152 186
f 1 186 220
f 1 220 219
f 1 219 218
f 1 218 217
f 1 217 216
f 1 216 215
f 1 215 241
f 1 241 240
f 1 240 247
f 1 247 245
f 1 245 244
f 1 244 243
f 1 243 224
f 1 224 223
f 1 223 221
f 1 221 188
f 1 188 155
f 1 155 117
f 1 117 91
f 1 91 70
f 1 70 56
f 1 56 41
f 1 41 22
f 1 22 10
f 1 10 4
f 1 4 5
f 1 5 2
f 2 5 6
f 3 7 8
f 3 8 9
f 4 10 5
f 5 11 6
f 5 10 12
f 5 12 13
f 5 13 14
f 5 14 15
f 5 15 11
f 6 11 15
f 6 15 16
f 7 17 18
f 7 18 19
f 7 19 8
f 8 19 9
f 9 19 20
f 9 20 21
f 10 22 23
f 10 23 12
f 12 23 24
f 12 24 25
f 12 25 13
f 13 25 26
f 13 26 27
f 13 27 28
f 13 28 14
f 14 28 15
f 15 29 30
f 15 30 31
f 15 31 32
f 15 32 33
f 15 33 34
f 15 34 16
f 15 28 35
f 15 35 36
f 15 36 29
f 16 34 17
f 17 34 18
f 18 37 38
f 18 38 39
f 18 39 19
f 18 34 33
f 18 33 32
f 18 32 31
f 18 31 30
f 18 30 29
f 18 29 36
f 18 36 37
f 19 39 20
f 20 39 21
f 21 39 40
f 22 41 24
f 22 24 23
f 24 41 42
f 24 42 25
f 25 42 43
f 25 43 26
f 26 43 44
f 26 44 27
f 27 44 45
f 27 45 46
f 27 46 28
f 28 47 35
f 28 46 48
f 28 48 47
f 35 47 49
f 35 49 50
f 35 50 36
f 36 50 37
f 37 50 51
f 37 51 52
f 37 52 38
f 38 40 39
f 38 52 53
f 38 53 40
f 40 53 55
f 40 55 54
f 41 56 57
f 41 57 42
f 42 57 58
f 42 58 43
f 43 58 44
f 44 58 59
f 44 59 60
f 44 60 45
f 45 60 61
f 45 61 46
f 46 49 48
f 46 61 62
f 46 62 63
f 46 63 49
f 47 48 49
f 49 63 50
f 50 63 64
f 50 64 51
f 51 64 65
f 51 65 66
f 51 66 52
f 52 66 53
f 53 66 88
f 53 88 114
f 53 114 150
f 53 150 185
f 53 185 187
f 53 187 154
f 53 154 153
f 53 153 151
f 53 151 115
f 53 115 89
f 53 89 68
f 53 68 55
f 54 55 67
f 55 68 69
f 55 69 67
f 56 70 71
f 56 71 72
f 56 72 57
f 57 72 58
f 58 72 73
f 58 73 74
f 58 74 75
f 58 75 59
f 59 75 76
f 59 76 60
f 60 76 61
f 61 77 78
f 61 78 62
f 61 76 77
f 62 79 63
f 62 78 79
f 63 79 80
f 63 80 81
f 63 81 82
f 63 82 83
f 63 83 84
f 63 84 64
f 64 84 65
f 65 84 83
f 65 83 82
f 65 82 81
f 65 81 85
f 65 85 86
f 65 86 87
f 65 87 88
f 65 88 66
f 68 89 90
f 68 90 69
f 70 91 92
f 70 92 93
f 70 93 71
f 71 93 73
f 71 73 72
f 73 93 94
f 73 94 95
f 73 95 74
f 74 95 96
f 74 96 97
f 74 97 75
f 75 97 98
f 75 98 76
f 76 98 77
f 77 98 99
f 77 99 100
f 77 100 78
f 78 100 101
f 78 101 102
f 78 102 103
f 78 103 104
f 78 104 80
f 78 80 79
f 80 104 102
f 80 102 134
f 80 134 105
f 80 105 81
f 81 105 106
f 81 106 85
f 85 106 105
f 85 105 107
f 85 107 108
f 85 108 86
f 86 108 109
f 86 109 88
f 86 88 87
f 88 109 110
f 88 110 111
f 88 111 112
f 88 112 113
f 88 113 114
f 89 115 90
f 90 115 116
f 91 117 118
f 91 118 119
f 91 119 92
f 92 120 93
f 92 119 120
f 93 120 121
f 93 121 94
f 94 121 95
f 95 121 122
f 95 122 96
f 96 122 123
f 96 123 124
f 96 124 97
f 97 124 125
f 97 125 98
f 98 125 99
f 99 125 126
f 99 126 127
f 99 127 100
f 100 127 128
f 100 128 101
f 101 129 130
f 101 130 102
f 101 128 131
f 101 131 132
f 101 132 133
f 101 133 129
f 102 104 103
f 102 130 135
f 102 135 136
f 102 136 134
f 105 134 107
f 107 134 137
f 107 137 108
f 108 137 134
f 108 134 138
f 108 138 139
f 108 139 136
f 108 136 140
f 108 140 109
f 109 140 110
f 110 140 111
f 111 140 141
f 111 141 112
f 112 141 142
f 112 142 143
f 112 143 113
f 113 143 144
f 113 144 145
f 113 145 114
f 114 145 146
f 114 146 147
f 114 147 148
f 114 148 149
f 114 149 184
f 114 184 150
f 115 151 116
f 116 151 153
f 116 153 154
f 116 154 152
f 117 155 118
f 118 156 189
f 118 189 222
f 118 222 242
f 118 242 239
f 118 239 214
f 118 214 185
f 118 185 150
f 118 150 184
f 118 184 183
f 118 183 213
f 118 213 225
f 118 225 190
f 118 190 157
f 118 157 119
f 118 155 156
f 119 157 191
f 119 191 158
f 119 158 120
f 120 158 159
f 120 159 160
f 120 160 121
f 121 160 122
f 122 160 161
f 122 161 162
f 122 162 123
f 123 162 163
f 123 163 164
f 123 164 124
f 124 164 165
f 124 165 125
f 125 166 127
f 125 127 126
f 125 165 167
f 125 167 166
f 127 166 168
f 127 168 128
f 128 168 169
f 128 169 131
f 129 133 135
f 129 135 130
f 131 169 170
f 131 170 171
f 131 171 135
f 131 135 132
f 132 135 133
f 134 136 139
f 134 139 138
f 135 171 172
f 135 172 141
f 135 141 173
f 135 173 174
f 135 174 136
f 136 174 175
f 136 175 140
f 140 175 174
f 140 174 173
f 140 173 141
f 141 172 176
f 141 176 142
f 142 176 177
f 142 177 143
f 143 177 178
f 143 178 176
f 143 176 179
f 143 179 144
f 144 179 180
f 144 180 147
f 144 147 145
f 145 147 146
f 147 180 181
f 147 181 182
f 147 182 148
f 148 182 149
f 149 182 183
f 149 183 184
f 152 154 187
f 152 187 186
f 155 188 156
f 156 188 189
f 157 190 226
f 157 226 191
f 158 191 192
f 158 192 159
f 159 192 193
f 159 193 194
f 159 194 195
f 159 195 196
f 159 196 161
f 159 161 160
f 161 196 197
f 161 197 162
f 162 197 198
f 162 198 163
f 163 198 199
f 163 199 200
f 163 200 164
f 164 200 201
f 164 201 202
f 164 202 165
f 165 202 203
f 165 203 167
f 166 167 168
f 167 203 204
f 167 204 168
f 168 204 169
f 169 205 206
f 169 206 207
f 169 207 208
f 169 208 209
f 169 209 170
f 169 204 205
f 170 209 171
f 171 209 172
f 172 209 208
f 172 208 207
f 172 207 206
f 172 206 210
f 172 210 179
f 172 179 176
f 176 178 177
f 179 210 182
f 179 182 180
f 180 182 181
f 182 210 211
f 182 211 212
f 182 212 183
f 183 212 213
f 185 214 215
f 185 215 216
f 185 216 217
f 185 217 218
f 185 218 219
f 185 219 220
f 185 220 187
f 186 187 220
f 188 221 189
f 189 221 223
f 189 223 224
f 189 224 222
f 190 225 237
f 190 237 226
f 191 226 227
f 191 227 197
f 191 197 196
f 191 196 195
f 191 195 194
f 191 194 193
f 191 193 192
f 197 227 228
f 197 228 198
f 198 228 199
f 199 228 226
f 199 226 229
f 199 229 230
f 199 230 231
f 199 231 200
f 200 231 201
f 201 231 202
f 202 231 232
f 202 232 203
f 203 232 233
f 203 233 234
f 203 234 205
f 203 205 235
f 203 235 204
f 204 235 205
f 205 234 206
f 206 232 236
f 206 236 210
f 206 234 232
f 210 236 211
f 211 236 237
f 211 237 238
f 211 238 212
f 212 238 237
f 212 237 225
f 212 225 213
f 214 239 240
f 214 240 241
f 214 241 215
f 222 224 243
f 222 243 244
f 222 244 245
f 222 245 242
f 226 237 229
f 226 228 227
f 229 237 230
f 230 237 231
f 231 237 232
f 232 237 246
f 232 246 236
f 232 234 233
f 236 246 237
f 239 242 245
f 239 245 247
f 239 247 240

