# https://github.com/mikedh/trimesh
v -0.03544042 0.01478234 0.01236670
v -0.03474996 0.01478234 0.01240390
v -0.03562566 0.01478234 0.01245969
v -0.03225954 0.02261819 0.01171572
v -0.03239526 0.02180610 0.01171572
v -0.03209213 0.02089475 0.01171572
v -0.03121345 0.02063477 0.01171572
v -0.03046851 0.02101496 0.01171572
v -0.03026246 0.02120226 0.01171572
v -0.03432201 0.01478234 0.01260229
v -0.03600903 0.01478234 0.01282548
v -0.03184943 0.02334084 0.01171572
v -0.03606253 0.01478234 0.01289988
v -0.03612196 0.01478234 0.01300528
v -0.03629928 0.01478234 0.01362526
v -0.03632801 0.01478234 0.01381125
v -0.03623588 0.01496545 0.01381125
v -0.03249729 0.02223800 0.01251549
v -0.03229620 0.02257906 0.01217451
v -0.03000985 0.02147762 0.01171572
v -0.03383760 0.01478234 0.01307967
v -0.03184843 0.02334223 0.01210011
v -0.03145615 0.02376436 0.01295568
v -0.03019906 0.02507686 0.01381125
v -0.02977210 0.02550457 0.01381125
v -0.02621083 0.02903951 0.01381125
v -0.03139275 0.02376855 0.01171572
v -0.03226846 0.02266712 0.01295568
v -0.03226945 0.02266851 0.02663861
v -0.03185042 0.02334084 0.02834976
v -0.03632999 0.01478234 0.03689926
v -0.03623985 0.01496545 0.03689926
v -0.03597139 0.01550498 0.03109006
v -0.03510559 0.01719068 0.01397864
v -0.03424276 0.01888757 0.01398484
v -0.03337993 0.02058026 0.01381125
v -0.03511252 0.01720606 0.03117066
v -0.03425168 0.01890434 0.03117066
v -0.03249828 0.02223940 0.01295568
v -0.03315704 0.02100657 0.01381125
v -0.02971464 0.02190394 0.01171572
v -0.02621083 0.02593928 0.01319127
v -0.03351367 0.01478234 0.01381125
v -0.03146110 0.02376156 0.01894468
v -0.03103613 0.02420605 0.03091647
v -0.03062502 0.02463377 0.07195907
v -0.03019708 0.02507686 0.03689926
v -0.02977606 0.02550178 0.05998728
v -0.02977507 0.02550457 0.03689926
v -0.02635447 0.02891791 0.01980025
v -0.02621083 0.02851535 0.01303008
v -0.02665165 0.02836439 0.01324707
v -0.02621083 0.02906048 0.01980025
v -0.03115798 0.02394048 0.01171572
v -0.03250026 0.02224359 0.01491481
v -0.03250125 0.02224499 0.03799663
v -0.03250125 0.02224499 0.06131403
v -0.03227044 0.02266572 0.04972043
v -0.03226846 0.02266851 0.06682565
v -0.03185042 0.02334084 0.07451959
v -0.03632900 0.01478234 0.05998728
v -0.03623885 0.01496545 0.06597008
v -0.03597139 0.01550498 0.03159225
v -0.03338588 0.02059144 0.02578304
v -0.03511252 0.01720606 0.03151165
v -0.03425168 0.01890434 0.03149925
v -0.02935505 0.02267550 0.01171572
v -0.02621083 0.02610980 0.01309827
v -0.02621083 0.02557306 0.01381125
v -0.02642183 0.02556048 0.01329667
v -0.02621083 0.02554091 0.01980025
v -0.03350277 0.01478234 0.01980025
v -0.03145912 0.02376296 0.05913171
v -0.03146110 0.02375597 0.07110350
v -0.03103217 0.02420605 0.07195907
v -0.03184943 0.02334084 0.07505277
v -0.03019807 0.02506987 0.07195907
v -0.03019608 0.02507406 0.05998728
v -0.02621083 0.02905768 0.06597008
v -0.02621083 0.02906048 0.04288826
v -0.02621083 0.02784582 0.01274489
v -0.03032288 0.02428992 0.01171572
v -0.03096579 0.02405369 0.01171572
v -0.03273504 0.02180610 0.07195907
v -0.03249927 0.02224080 0.07195907
v -0.03231403 0.02257766 0.07281464
v -0.03226053 0.02266851 0.07195907
v -0.03632801 0.01478234 0.06597008
v -0.03632009 0.01478234 0.07195907
v -0.03596842 0.01549939 0.07132049
v -0.03597040 0.01549939 0.06597008
v -0.03597040 0.01550079 0.05998728
v -0.03338488 0.02058725 0.07133289
v -0.03510955 0.01720187 0.07173588
v -0.03424870 0.01890015 0.07171728
v -0.02931245 0.02351556 0.01171572
v -0.02621083 0.02693588 0.01275729
v -0.03350277 0.01478234 0.04288826
v -0.02621083 0.02554231 0.04288826
v -0.03226350 0.02261400 0.07505277
v -0.03139473 0.02376855 0.07505277
v -0.02621083 0.02901994 0.07195907
v -0.02961063 0.02422842 0.01171572
v -0.03315803 0.02100378 0.07195907
v -0.03612691 0.01478234 0.07267205
v -0.03337894 0.02057606 0.07195907
v -0.03350376 0.01478234 0.06597008
v -0.02621083 0.02554930 0.06597008
v -0.03574157 0.01478234 0.07314943
v -0.03239922 0.02180610 0.07505277
v -0.03113123 0.02396004 0.07505277
v -0.02621083 0.02896543 0.07208927
v -0.02621083 0.02560102 0.07195907
v -0.03354338 0.01478234 0.07201487
v -0.03534829 0.01478234 0.07331683
v -0.03210204 0.02089056 0.07505277
v -0.03096778 0.02405649 0.07505277
v -0.02621083 0.02856148 0.07264105
v -0.02621083 0.02572822 0.07222566
v -0.02971366 0.02190254 0.07505277
v -0.03000886 0.02147622 0.07505277
v -0.03359291 0.01478234 0.07215127
v -0.03488864 0.01478234 0.07331683
v -0.03121345 0.02063197 0.07505277
v -0.03031595 0.02430669 0.07505277
v -0.02621083 0.02849578 0.07268445
v -0.02621083 0.02599239 0.07253565
v -0.02934613 0.02267830 0.07505277
v -0.03029118 0.02116732 0.07505277
v -0.03398817 0.01478234 0.07278364
v -0.03391883 0.01478234 0.07269065
v -0.03047148 0.02100378 0.07505277
v -0.03466674 0.01478234 0.07322383
v -0.02959775 0.02424519 0.07505277
v -0.02621083 0.02766272 0.07298824
v -0.02621083 0.02604690 0.07257285
v -0.02930156 0.02351556 0.07505277
v -0.02621083 0.02680729 0.07291384
f 1 2 10
f 1 10 21
f 1 21 43
f 1 43 72
f 1 72 98
f 1 98 107
f 1 107 114
f 1 114 122
f 1 122 131
f 1 131 130
f 1 130 133
f 1 133 123
f 1 123 115
f 1 115 109
f 1 109 105
f 1 105 89
f 1 89 88
f 1 88 61
f 1 61 31
f 1 31 16
f 1 16 15
f 1 15 14
f 1 14 13
f 1 13 11
f 1 11 3
f 1 3 4
f 1 4 5
f 1 5 6
f 1 6 7
f 1 7 2
f 2 7 8
f 2 8 9
f 2 9 10
f 3 11 4
f 4 12 27
f 4 27 54
f 4 54 83
f 4 83 82
f 4 82 103
f 4 103 96
f 4 96 67
f 4 67 41
f 4 41 20
f 4 20 9
f 4 9 8
f 4 8 7
f 4 7 6
f 4 6 5
f 4 11 13
f 4 13 14
f 4 14 15
f 4 15 16
f 4 16 17
f 4 17 18
f 4 18 19
f 4 19 12
f 9 20 10
f 10 20 21
f 12 22 23
f 12 23 24
f 12 24 25
f 12 25 26
f 12 26 27
f 12 19 28
f 12 28 29
f 12 29 30
f 12 30 22
f 16 31 32
f 16 32 33
f 16 33 17
f 17 34 35
f 17 35 36
f 17 36 18
f 17 33 37
f 17 37 38
f 17 38 34
f 18 39 28
f 18 28 19
f 18 36 40
f 18 40 39
f 20 41 21
f 21 41 42
f 21 42 43
f 22 44 23
f 22 30 44
f 23 44 24
f 24 44 45
f 24 45 46
f 24 46 47
f 24 47 48
f 24 48 49
f 24 49 25
f 25 50 26
f 25 49 50
f 26 51 52
f 26 52 27
f 26 50 53
f 26 53 80
f 26 80 79
f 26 79 102
f 26 102 112
f 26 112 118
f 26 118 126
f 26 126 135
f 26 135 138
f 26 138 136
f 26 136 127
f 26 127 119
f 26 119 113
f 26 113 108
f 26 108 99
f 26 99 71
f 26 71 69
f 26 69 42
f 26 42 68
f 26 68 97
f 26 97 81
f 26 81 51
f 27 52 54
f 28 39 55
f 28 55 29
f 29 55 56
f 29 56 57
f 29 57 58
f 29 58 59
f 29 59 60
f 29 60 30
f 30 60 44
f 31 61 62
f 31 62 32
f 32 63 33
f 32 62 63
f 33 63 65
f 33 65 37
f 34 38 35
f 35 38 36
f 36 38 64
f 36 64 40
f 37 65 66
f 37 66 38
f 38 66 64
f 39 40 55
f 40 64 55
f 41 67 68
f 41 68 42
f 42 69 70
f 42 70 43
f 43 70 69
f 43 69 71
f 43 71 72
f 44 60 73
f 44 73 45
f 45 73 46
f 46 73 74
f 46 74 75
f 46 75 76
f 46 76 77
f 46 77 78
f 46 78 47
f 47 78 48
f 48 78 77
f 48 77 79
f 48 79 80
f 48 80 49
f 49 80 50
f 50 80 53
f 51 81 82
f 51 82 83
f 51 83 54
f 51 54 52
f 55 64 56
f 56 64 57
f 57 84 85
f 57 85 59
f 57 59 58
f 57 64 84
f 59 85 86
f 59 86 87
f 59 87 60
f 60 87 86
f 60 86 76
f 60 76 75
f 60 75 74
f 60 74 73
f 61 88 62
f 62 88 89
f 62 89 90
f 62 90 91
f 62 91 92
f 62 92 63
f 63 92 65
f 64 66 93
f 64 93 84
f 65 92 91
f 65 91 94
f 65 94 66
f 66 94 95
f 66 95 93
f 67 96 97
f 67 97 68
f 71 98 72
f 71 99 98
f 76 86 100
f 76 100 110
f 76 110 116
f 76 116 124
f 76 124 132
f 76 132 129
f 76 129 121
f 76 121 120
f 76 120 128
f 76 128 137
f 76 137 134
f 76 134 125
f 76 125 117
f 76 117 111
f 76 111 101
f 76 101 102
f 76 102 77
f 77 102 79
f 81 97 96
f 81 96 103
f 81 103 82
f 84 93 104
f 84 104 100
f 84 100 86
f 84 86 85
f 89 105 100
f 89 100 94
f 89 94 90
f 90 94 91
f 93 95 106
f 93 106 104
f 94 100 95
f 95 100 106
f 98 99 107
f 99 108 107
f 100 105 109
f 100 109 110
f 100 104 106
f 101 111 112
f 101 112 102
f 107 108 113
f 107 113 114
f 109 115 110
f 110 115 116
f 111 117 112
f 112 117 118
f 113 119 114
f 114 119 120
f 114 120 121
f 114 121 122
f 115 123 124
f 115 124 116
f 117 125 118
f 118 125 126
f 119 127 120
f 120 127 128
f 121 129 130
f 121 130 131
f 121 131 122
f 123 132 124
f 123 133 132
f 125 134 126
f 126 134 135
f 127 136 128
f 128 136 138
f 128 138 135
f 128 135 137
f 129 132 130
f 130 132 133
f 134 137 135

