# https://github.com/mikedh/trimesh
v -0.01190234 -0.03470760 0.05399599
v -0.01974646 -0.03087490 0.05998160
v -0.01974646 -0.03087565 0.06597300
v -0.01191155 -0.03470760 0.06597300
v -0.01190618 -0.03470760 0.01381355
v -0.01974646 -0.03087453 0.01979916
v -0.01974646 -0.03103551 0.06660520
v -0.01217261 -0.03470760 0.06681980
v -0.01190771 -0.03470760 0.00868055
v -0.01974646 -0.03087753 0.01381355
v -0.01974646 -0.03110155 0.06681980
v -0.01239989 -0.03470760 0.06716780
v -0.01192614 -0.03470760 0.00839055
v -0.01974646 -0.03088766 0.00868055
v -0.01974646 -0.03134358 0.06722001
v -0.01974646 -0.03147679 0.06740560
v -0.01327905 -0.03470760 0.06753901
v -0.01744298 -0.03470760 0.00839055
v -0.01974646 -0.03089817 0.00839055
v -0.01974646 -0.03206254 0.06764341
v -0.01369905 -0.03470760 0.06763761
v -0.01783074 -0.03470685 0.00839055
v -0.01782920 -0.03470760 0.00839635
v -0.01974646 -0.03375937 0.00839055
v -0.01974646 -0.03290045 0.06745200
v -0.01580521 -0.03470760 0.06733600
v -0.01784763 -0.03470760 0.00870955
v -0.01890032 -0.03425018 0.00839055
v -0.01974646 -0.03376612 0.00873855
v -0.01974646 -0.03330458 0.06717360
v -0.01958138 -0.03332597 0.06723160
v -0.01591040 -0.03470760 0.06730120
v -0.01795589 -0.03470760 0.01979916
v -0.01974646 -0.03380214 0.01979916
v -0.01974646 -0.03378638 0.01378455
v -0.01890339 -0.03425168 0.03117297
v -0.01683870 -0.03470760 0.06696480
v -0.01974646 -0.03358038 0.06670380
v -0.01884350 -0.03422054 0.06642540
v -0.01838511 -0.03433048 0.06656460
v -0.01733395 -0.03470760 0.06669800
v -0.01667515 -0.03470760 0.06704021
v -0.01890339 -0.03425168 0.03149777
v -0.01795359 -0.03470760 0.04288318
v -0.01974646 -0.03380402 0.04288318
v -0.01974646 -0.03380327 0.06597300
v -0.01888266 -0.03424080 0.06597300
v -0.01794591 -0.03470760 0.06597300
v -0.01889802 -0.03424868 0.05455859
f 1 2 3
f 1 3 4
f 1 4 8
f 1 8 12
f 1 12 17
f 1 17 21
f 1 21 26
f 1 26 32
f 1 32 42
f 1 42 37
f 1 37 41
f 1 41 48
f 1 48 44
f 1 44 33
f 1 33 27
f 1 27 23
f 1 23 18
f 1 18 13
f 1 13 9
f 1 9 5
f 1 5 6
f 1 6 2
f 2 6 10
f 2 10 14
f 2 14 19
f 2 19 24
f 2 24 29
f 2 29 35
f 2 35 34
f 2 34 45
f 2 45 46
f 2 46 38
f 2 38 30
f 2 30 25
f 2 25 20
f 2 20 16
f 2 16 15
f 2 15 11
f 2 11 7
f 2 7 3
f 3 7 8
f 3 8 4
f 5 9 6
f 6 9 10
f 7 11 8
f 8 11 12
f 9 13 14
f 9 14 10
f 11 15 12
f 12 15 16
f 12 16 17
f 13 18 22
f 13 22 28
f 13 28 24
f 13 24 19
f 13 19 14
f 16 20 21
f 16 21 17
f 18 23 22
f 20 25 21
f 21 25 26
f 22 23 27
f 22 27 28
f 24 28 29
f 25 30 31
f 25 31 26
f 26 31 32
f 27 33 28
f 28 34 35
f 28 35 29
f 28 33 36
f 28 36 34
f 30 37 31
f 30 38 39
f 30 39 40
f 30 40 41
f 30 41 37
f 31 37 42
f 31 42 32
f 33 43 36
f 33 44 43
f 34 36 45
f 36 43 45
f 38 46 39
f 39 41 40
f 39 46 47
f 39 47 48
f 39 48 41
f 43 44 48
f 43 48 49
f 43 49 46
f 43 46 45
f 46 49 47
f 47 49 48

