# https://github.com/mikedh/trimesh
v -0.01374924 0.03684314 0.07195986
v -0.01374924 0.03684314 0.07110466
v -0.01379193 0.03682329 0.07195986
v -0.01374924 0.03683872 0.07708996
v -0.01374924 0.03683872 0.07103001
v -0.01378949 0.03682329 0.07110466
v -0.01422013 0.03661044 0.07195986
v -0.01421403 0.03661154 0.07708996
v -0.01377485 0.03681777 0.07794517
v -0.01374924 0.03682990 0.07794517
v -0.01374924 0.03680564 0.07057002
v -0.02266083 0.03223550 0.06929435
v -0.01549984 0.03596859 0.07131763
v -0.01496551 0.03623327 0.07708996
v -0.01549130 0.03596528 0.07769157
v -0.01374924 0.03680564 0.07833928
v -0.02266083 0.03222668 0.08050857
v -0.01374924 0.03680012 0.07052501
v -0.02185567 0.03240423 0.06929435
v -0.02334033 0.03184951 0.06929435
v -0.02258031 0.03230939 0.07029117
v -0.02224117 0.03249907 0.07060405
v -0.02058207 0.03338244 0.07135496
v -0.01889978 0.03424927 0.07139887
v -0.01720164 0.03510948 0.07138570
v -0.01374924 0.03665014 0.07001562
v -0.01374924 0.03639980 0.06963907
v -0.01374924 0.03626856 0.06947110
v -0.01374924 0.03548224 0.06931960
v -0.01720164 0.03510948 0.07173151
v -0.01889246 0.03424486 0.07763119
v -0.01374924 0.03679571 0.07849188
v -0.02223873 0.03249797 0.07840515
v -0.02334521 0.03185392 0.08050857
v -0.02174710 0.03239651 0.08050857
v -0.01374924 0.03624761 0.07954908
v -0.01374924 0.03663470 0.07901225
v -0.02058573 0.03338465 0.07767949
v -0.02092609 0.03215389 0.06929435
v -0.02375511 0.03146020 0.07110466
v -0.02376487 0.03145359 0.07281506
v -0.02266693 0.03226968 0.07623476
v -0.02266815 0.03226086 0.07110466
v -0.02376731 0.03138080 0.06929435
v -0.02621083 0.02897111 0.07110466
v -0.02548131 0.02974089 0.07110466
v -0.02505433 0.03018753 0.07110466
v -0.02463224 0.03061543 0.07110466
v -0.02420404 0.03103451 0.07110466
v -0.02180566 0.03273398 0.07195986
v -0.02101392 0.03315746 0.07708996
v -0.01889978 0.03424927 0.07172712
v -0.01374924 0.03491759 0.06959406
v -0.02148726 0.03002211 0.06929435
v -0.02110908 0.03040038 0.06929435
v -0.02106394 0.03045001 0.06929435
v -0.02067112 0.03115362 0.06929435
v -0.02083215 0.03210316 0.06929435
v -0.02224117 0.03249907 0.07794517
v -0.02266815 0.03226196 0.07794517
v -0.02377219 0.03136426 0.08050857
v -0.02420526 0.03103451 0.07195986
v -0.02463346 0.03062426 0.07195986
v -0.02462980 0.03062426 0.07708996
v -0.02507141 0.03019636 0.07708996
v -0.02549961 0.02976736 0.07708996
v -0.02621083 0.02903728 0.07708996
v -0.02621083 0.02901191 0.07732600
v -0.02621083 0.02893251 0.07794517
v -0.02166171 0.03236784 0.08050857
v -0.01374924 0.03606233 0.07960507
v -0.02401617 0.03100363 0.06929435
v -0.02621083 0.02852446 0.07049427
v -0.02621083 0.02902184 0.07195986
v -0.02549961 0.02976294 0.07195986
v -0.02507141 0.03019746 0.07195986
v -0.02180566 0.03273287 0.07708996
v -0.01374924 0.03416325 0.07061613
v -0.02191423 0.02971883 0.06929435
v -0.02186543 0.02975302 0.06929435
v -0.02621083 0.02889391 0.07802311
v -0.02402471 0.03093636 0.08050857
v -0.02098586 0.03209875 0.08050857
v -0.01374924 0.03540394 0.07966216
v -0.02404545 0.03095401 0.06929435
v -0.02621083 0.02778556 0.07026592
v -0.01374924 0.03400444 0.07110466
v -0.02621083 0.02566923 0.07110466
v -0.02270597 0.02933063 0.06929435
v -0.02621083 0.02607286 0.07058649
v -0.02621083 0.02850020 0.07851713
v -0.02621083 0.02842962 0.07855116
v -0.02621083 0.02766315 0.07875865
v -0.02413817 0.03035737 0.08050857
v -0.02070894 0.03123412 0.08050857
v -0.01374924 0.03517455 0.07958641
v -0.02070284 0.03121096 0.08050857
v -0.02109932 0.03044560 0.08050857
v -0.02147994 0.03001880 0.08050857
v -0.02422966 0.03035847 0.06929435
v -0.02621083 0.02693749 0.07030215
v -0.02429920 0.02957657 0.06929435
v -0.01374924 0.03396915 0.07195986
v -0.02621083 0.02560195 0.07195986
v -0.02621083 0.02562291 0.07168760
v -0.02351600 0.02932953 0.06929435
v -0.02621083 0.02615227 0.07055355
v -0.02621083 0.02664523 0.07862581
v -0.02405765 0.02973647 0.08050857
v -0.01374924 0.03495509 0.07939099
v -0.02190691 0.02972324 0.08050857
v -0.01374924 0.03428897 0.07859178
v -0.01374924 0.03470805 0.07916374
v -0.01374924 0.03396584 0.07708996
v -0.02621083 0.02557769 0.07708996
v -0.02621083 0.02628791 0.07850725
v -0.02621083 0.02624270 0.07849078
v -0.02351600 0.02941996 0.08050857
v -0.02266083 0.02940673 0.08050857
v -0.02621083 0.02586663 0.07819547
v -0.02621083 0.02578171 0.07806483
v -0.02621083 0.02569128 0.07790784
v -0.01374924 0.03418200 0.07840186
v -0.01374924 0.03400334 0.07760045
v -0.02621083 0.02561077 0.07758179
v -0.01374924 0.03403311 0.07794517
v -0.01374924 0.03413899 0.07830086
f 1 2 3
f 1 3 4
f 1 4 10
f 1 10 16
f 1 16 32
f 1 32 37
f 1 37 36
f 1 36 71
f 1 71 84
f 1 84 96
f 1 96 110
f 1 110 113
f 1 113 112
f 1 112 123
f 1 123 127
f 1 127 126
f 1 126 124
f 1 124 114
f 1 114 103
f 1 103 87
f 1 87 78
f 1 78 53
f 1 53 29
f 1 29 28
f 1 28 27
f 1 27 26
f 1 26 18
f 1 18 11
f 1 11 5
f 1 5 2
f 2 5 6
f 2 6 3
f 3 6 7
f 3 7 8
f 3 8 4
f 4 9 10
f 4 8 9
f 5 11 12
f 5 12 6
f 6 13 7
f 6 12 13
f 7 13 8
f 8 13 14
f 8 14 15
f 8 15 9
f 9 16 10
f 9 15 17
f 9 17 16
f 11 18 12
f 12 19 39
f 12 39 58
f 12 58 57
f 12 57 56
f 12 56 55
f 12 55 54
f 12 54 80
f 12 80 79
f 12 79 89
f 12 89 106
f 12 106 102
f 12 102 100
f 12 100 85
f 12 85 72
f 12 72 44
f 12 44 20
f 12 20 21
f 12 21 22
f 12 22 23
f 12 23 24
f 12 24 25
f 12 25 13
f 12 18 26
f 12 26 27
f 12 27 28
f 12 28 29
f 12 29 19
f 13 25 30
f 13 30 14
f 14 30 31
f 14 31 15
f 15 31 17
f 16 17 32
f 17 33 34
f 17 34 61
f 17 61 82
f 17 82 94
f 17 94 109
f 17 109 118
f 17 118 119
f 17 119 111
f 17 111 99
f 17 99 98
f 17 98 97
f 17 97 95
f 17 95 83
f 17 83 70
f 17 70 35
f 17 35 36
f 17 36 37
f 17 37 32
f 17 31 38
f 17 38 33
f 19 29 39
f 20 40 41
f 20 41 34
f 20 34 42
f 20 42 43
f 20 43 21
f 20 44 45
f 20 45 46
f 20 46 47
f 20 47 48
f 20 48 49
f 20 49 40
f 21 43 42
f 21 42 22
f 22 42 50
f 22 50 23
f 23 38 24
f 23 50 51
f 23 51 38
f 24 38 52
f 24 52 30
f 24 30 25
f 29 53 54
f 29 54 55
f 29 55 56
f 29 56 57
f 29 57 58
f 29 58 39
f 30 52 31
f 31 52 38
f 33 59 60
f 33 60 34
f 33 38 59
f 34 60 42
f 34 41 62
f 34 62 63
f 34 63 64
f 34 64 65
f 34 65 66
f 34 66 67
f 34 67 68
f 34 68 69
f 34 69 61
f 35 70 71
f 35 71 36
f 38 51 59
f 40 49 41
f 41 49 62
f 42 60 59
f 42 59 50
f 44 72 45
f 45 73 86
f 45 86 101
f 45 101 107
f 45 107 90
f 45 90 88
f 45 88 105
f 45 105 104
f 45 104 115
f 45 115 125
f 45 125 122
f 45 122 121
f 45 121 120
f 45 120 117
f 45 117 116
f 45 116 108
f 45 108 93
f 45 93 92
f 45 92 91
f 45 91 81
f 45 81 69
f 45 69 68
f 45 68 67
f 45 67 74
f 45 74 46
f 45 72 73
f 46 74 47
f 47 74 75
f 47 75 76
f 47 76 48
f 48 76 49
f 49 76 63
f 49 63 62
f 50 59 77
f 50 77 51
f 51 77 59
f 53 78 79
f 53 79 80
f 53 80 54
f 61 69 81
f 61 81 82
f 63 76 65
f 63 65 64
f 65 76 66
f 66 76 75
f 66 75 67
f 67 75 74
f 70 83 71
f 71 83 84
f 72 85 73
f 73 85 86
f 78 87 88
f 78 88 79
f 79 88 90
f 79 90 89
f 81 91 82
f 82 91 92
f 82 92 93
f 82 93 94
f 83 95 84
f 84 95 97
f 84 97 98
f 84 98 99
f 84 99 96
f 85 100 86
f 86 100 102
f 86 102 101
f 87 103 104
f 87 104 105
f 87 105 88
f 89 90 107
f 89 107 106
f 93 108 109
f 93 109 94
f 96 99 110
f 99 111 112
f 99 112 113
f 99 113 110
f 101 102 106
f 101 106 107
f 103 114 115
f 103 115 104
f 108 116 109
f 109 116 117
f 109 117 118
f 111 119 120
f 111 120 121
f 111 121 122
f 111 122 123
f 111 123 112
f 114 124 125
f 114 125 115
f 117 120 119
f 117 119 118
f 122 125 126
f 122 126 127
f 122 127 123
f 124 126 125

