# https://github.com/mikedh/trimesh
v 0.03310579 0.01452555 0.08393107
v 0.03322926 0.01452555 0.08461009
v 0.03317342 0.01452555 0.08347137
v 0.03617373 0.00005643 0.08393107
v 0.03335273 0.01452555 0.08481050
v 0.03629877 0.00005643 0.08441346
v 0.03639550 0.00005643 0.08478619
v 0.03322926 0.01452555 0.08322775
v 0.03694366 0.00005643 0.08016218
v 0.03632315 0.00005643 0.08307596
v 0.03348250 0.01452555 0.08501361
v 0.03656931 0.00005643 0.08505952
v 0.03670379 0.00005643 0.08527074
v 0.03329925 0.01452555 0.08304084
v 0.03946108 0.00005643 0.08016218
v 0.03340543 0.01452555 0.08278696
v 0.03500113 0.01175496 0.08016218
v 0.03388988 0.01452555 0.08534636
v 0.03698298 0.00005643 0.08538417
v 0.03946187 0.00020800 0.08016218
v 0.04106387 0.00005643 0.08347623
v 0.03348486 0.01452555 0.08263354
v 0.03494372 0.01239945 0.08016218
v 0.03463386 0.01452555 0.08557000
v 0.03719847 0.00005643 0.08547169
v 0.03946187 0.00042896 0.08016218
v 0.04106387 0.00042896 0.08347623
v 0.04114015 0.00005643 0.08393107
v 0.03377978 0.01452555 0.08219923
v 0.03498619 0.01308926 0.08016218
v 0.03548873 0.01410911 0.08565589
v 0.03548873 0.01452555 0.08566345
v 0.03768056 0.00005643 0.08557054
v 0.03805334 0.00005643 0.08564617
v 0.04030416 0.00726904 0.08335523
v 0.04038044 0.00641491 0.08327366
v 0.04103084 0.00213863 0.08360642
v 0.04104185 0.00160462 0.08353187
v 0.04105286 0.00103521 0.08349298
v 0.03764124 0.01201276 0.08016218
v 0.04113937 0.00042896 0.08393107
v 0.04113229 0.00005643 0.08420711
v 0.04112206 0.00042896 0.08456471
v 0.03401099 0.01452555 0.08188484
v 0.03545019 0.01345471 0.08016218
v 0.03414312 0.01452555 0.08174169
v 0.03433108 0.01452555 0.08160449
v 0.03634360 0.01325357 0.08567642
v 0.03634360 0.01410911 0.08567804
v 0.03634360 0.01452555 0.08567480
v 0.03890821 0.00005643 0.08568020
v 0.04023888 0.00794894 0.08343626
v 0.04063211 0.00641491 0.08393107
v 0.04075086 0.00555937 0.08393107
v 0.04100882 0.00299417 0.08376037
v 0.04108825 0.00213863 0.08403371
v 0.04106780 0.00299417 0.08418820
v 0.03744541 0.01244053 0.08016218
v 0.03845679 0.01447456 0.08365828
v 0.03855981 0.01390373 0.08340331
v 0.03932188 0.01192210 0.08359508
v 0.03939974 0.01135269 0.08341844
v 0.04018462 0.00851835 0.08354538
v 0.04106780 0.00299417 0.08441886
v 0.04108825 0.00213863 0.08447612
v 0.04112206 0.00005643 0.08456471
v 0.04091208 0.00042896 0.08499200
v 0.04103084 0.00005643 0.08475108
v 0.03581275 0.01350712 0.08016218
v 0.03502158 0.01452555 0.08131225
v 0.03719847 0.01154391 0.08567858
v 0.03719847 0.01239945 0.08567426
v 0.03890821 0.00042896 0.08568020
v 0.03719847 0.01325357 0.08565859
v 0.03719847 0.01410911 0.08562132
v 0.03719847 0.01452555 0.08558675
v 0.03939109 0.00005643 0.08565157
v 0.04105286 0.00347293 0.08437619
v 0.04105286 0.00347293 0.08430758
v 0.04048032 0.00726904 0.08393107
v 0.04022315 0.00871241 0.08444695
v 0.04096949 0.00379447 0.08398617
v 0.04085310 0.00470383 0.08393107
v 0.03727082 0.01271815 0.08016218
v 0.03840331 0.01452555 0.08361020
v 0.03844263 0.01452555 0.08369123
v 0.03851341 0.01452555 0.08418874
v 0.03894203 0.01325357 0.08393107
v 0.03971117 0.01068837 0.08393107
v 0.03994475 0.00983283 0.08393107
v 0.03923301 0.01236687 0.08390028
v 0.03936199 0.01206091 0.08416497
v 0.04013428 0.00899003 0.08387057
v 0.04022315 0.00871241 0.08411582
v 0.04085467 0.00299417 0.08484669
v 0.04087669 0.00213863 0.08490341
v 0.04089399 0.00128309 0.08494879
v 0.04042684 0.00299417 0.08537662
v 0.04044965 0.00213863 0.08538526
v 0.04046695 0.00128309 0.08539012
v 0.04048425 0.00042896 0.08539444
v 0.04091208 0.00005643 0.08499200
v 0.03637349 0.01353261 0.08016218
v 0.03545727 0.01452555 0.08133007
v 0.03805334 0.00812316 0.08567912
v 0.03805334 0.00897870 0.08567696
v 0.03805334 0.00983283 0.08567102
v 0.03805334 0.01068837 0.08565589
v 0.03976387 0.00042896 0.08562942
v 0.03890821 0.00213863 0.08567912
v 0.03805334 0.01154391 0.08562672
v 0.03805334 0.01239945 0.08557162
v 0.03786852 0.01452555 0.08535825
v 0.03795032 0.01410911 0.08538904
v 0.03976387 0.00005643 0.08562942
v 0.04084445 0.00379447 0.08471110
v 0.04028214 0.00812316 0.08459334
v 0.04049841 0.00641491 0.08478619
v 0.04060379 0.00555937 0.08478619
v 0.03936199 0.01206091 0.08442805
v 0.03943434 0.01154391 0.08460198
v 0.03954052 0.01073369 0.08485371
v 0.03979454 0.00983283 0.08478619
v 0.04000845 0.00899003 0.08475378
v 0.04014608 0.00752825 0.08515352
v 0.03701837 0.01310201 0.08016218
v 0.03799436 0.01452555 0.08312025
v 0.03850869 0.01452555 0.08442859
v 0.04021136 0.00696025 0.08523347
v 0.04024675 0.00641491 0.08526588
v 0.04029393 0.00555937 0.08530369
v 0.04038752 0.00384829 0.08535825
v 0.03976387 0.00555937 0.08552732
v 0.03976387 0.00470383 0.08555920
v 0.03976387 0.00384829 0.08558783
v 0.03976387 0.00299417 0.08560889
v 0.03976387 0.00213863 0.08561916
v 0.03976387 0.00128309 0.08562456
v 0.04048425 0.00005643 0.08539444
v 0.03592599 0.01452555 0.08148510
v 0.03613204 0.01452555 0.08159692
v 0.03890821 0.00299417 0.08567804
v 0.03890821 0.00384829 0.08567642
v 0.03890821 0.00470383 0.08567426
v 0.03890821 0.00555937 0.08567156
v 0.03890821 0.00641491 0.08566507
v 0.03890821 0.00726904 0.08565049
v 0.03890821 0.00812316 0.08562942
v 0.03890821 0.00897870 0.08559593
v 0.03866520 0.01239945 0.08534474
v 0.03813592 0.01333289 0.08542091
v 0.03890821 0.00983283 0.08553651
v 0.03880047 0.01154391 0.08539336
v 0.03829085 0.01452555 0.08487262
v 0.03856139 0.01310059 0.08527884
v 0.03847645 0.01367143 0.08520861
v 0.04034348 0.00725487 0.08483535
v 0.03858577 0.01410911 0.08460252
v 0.03873912 0.01333289 0.08486830
v 0.03931166 0.01104815 0.08518431
v 0.04007530 0.00812316 0.08502063
v 0.03938480 0.01047731 0.08525777
v 0.03848353 0.01452555 0.08448152
v 0.03945951 0.00983283 0.08531287
v 0.03955389 0.00897870 0.08536527
v 0.03976387 0.00641491 0.08548249
v 0.03964747 0.00812316 0.08539552
v 0.04033797 0.00470383 0.08533232
f 1 2 5
f 1 5 11
f 1 11 18
f 1 18 24
f 1 24 32
f 1 32 50
f 1 50 76
f 1 76 113
f 1 113 154
f 1 154 163
f 1 163 128
f 1 128 87
f 1 87 86
f 1 86 85
f 1 85 127
f 1 127 141
f 1 141 140
f 1 140 104
f 1 104 70
f 1 70 47
f 1 47 46
f 1 46 44
f 1 44 29
f 1 29 22
f 1 22 16
f 1 16 14
f 1 14 8
f 1 8 3
f 1 3 4
f 1 4 2
f 2 4 6
f 2 6 7
f 2 7 5
f 3 8 9
f 3 9 10
f 3 10 4
f 4 10 9
f 4 9 15
f 4 15 21
f 4 21 28
f 4 28 42
f 4 42 66
f 4 66 68
f 4 68 102
f 4 102 139
f 4 139 115
f 4 115 77
f 4 77 51
f 4 51 34
f 4 34 33
f 4 33 25
f 4 25 19
f 4 19 13
f 4 13 12
f 4 12 7
f 4 7 6
f 5 7 12
f 5 12 13
f 5 13 11
f 8 14 9
f 9 14 16
f 9 16 17
f 9 17 23
f 9 23 30
f 9 30 45
f 9 45 69
f 9 69 103
f 9 103 126
f 9 126 84
f 9 84 58
f 9 58 40
f 9 40 26
f 9 26 20
f 9 20 15
f 11 13 18
f 13 19 18
f 15 20 21
f 16 22 23
f 16 23 17
f 18 19 25
f 18 25 24
f 20 26 27
f 20 27 21
f 21 27 28
f 22 29 30
f 22 30 23
f 24 31 32
f 24 25 33
f 24 33 34
f 24 34 31
f 26 35 36
f 26 36 37
f 26 37 38
f 26 38 39
f 26 39 27
f 26 40 35
f 27 39 41
f 27 41 28
f 28 41 43
f 28 43 42
f 29 44 30
f 30 44 46
f 30 46 47
f 30 47 45
f 31 34 32
f 32 48 49
f 32 49 50
f 32 34 51
f 32 51 48
f 35 52 53
f 35 53 54
f 35 54 36
f 35 40 52
f 36 54 55
f 36 55 37
f 37 56 38
f 37 55 57
f 37 57 56
f 38 56 41
f 38 41 39
f 40 58 59
f 40 59 60
f 40 60 61
f 40 61 62
f 40 62 63
f 40 63 52
f 41 56 57
f 41 57 64
f 41 64 65
f 41 65 43
f 42 43 66
f 43 67 68
f 43 68 66
f 43 65 67
f 45 47 70
f 45 70 69
f 48 51 49
f 49 71 72
f 49 72 50
f 49 51 73
f 49 73 71
f 50 72 74
f 50 74 75
f 50 75 76
f 51 77 73
f 52 63 53
f 53 78 79
f 53 79 54
f 53 63 80
f 53 80 81
f 53 81 78
f 54 79 82
f 54 82 83
f 54 83 55
f 55 83 82
f 55 82 79
f 55 79 57
f 57 79 78
f 57 78 64
f 58 84 85
f 58 85 59
f 59 85 86
f 59 86 87
f 59 87 88
f 59 88 61
f 59 61 60
f 61 89 90
f 61 90 63
f 61 63 62
f 61 88 91
f 61 91 92
f 61 92 89
f 63 90 93
f 63 93 94
f 63 94 80
f 64 78 95
f 64 95 96
f 64 96 65
f 65 96 97
f 65 97 67
f 67 97 98
f 67 98 99
f 67 99 100
f 67 100 101
f 67 101 139
f 67 139 102
f 67 102 68
f 69 70 103
f 70 104 103
f 71 105 106
f 71 106 72
f 71 73 105
f 72 106 107
f 72 107 108
f 72 108 74
f 73 77 109
f 73 109 110
f 73 110 105
f 74 108 111
f 74 111 75
f 75 111 112
f 75 112 76
f 76 112 114
f 76 114 113
f 77 115 109
f 78 116 95
f 78 81 117
f 78 117 118
f 78 118 119
f 78 119 116
f 80 94 81
f 81 94 90
f 81 90 120
f 81 120 121
f 81 121 122
f 81 122 123
f 81 123 124
f 81 124 125
f 81 125 117
f 84 126 85
f 85 126 127
f 87 92 88
f 87 128 120
f 87 120 92
f 88 92 91
f 89 92 90
f 90 94 93
f 90 92 120
f 95 116 129
f 95 129 130
f 95 130 131
f 95 131 132
f 95 132 96
f 96 132 97
f 97 132 98
f 98 132 133
f 98 133 134
f 98 134 135
f 98 135 136
f 98 136 99
f 99 136 100
f 100 136 137
f 100 137 101
f 101 137 138
f 101 138 109
f 101 109 115
f 101 115 139
f 103 104 140
f 103 140 141
f 103 141 127
f 103 127 126
f 105 110 142
f 105 142 143
f 105 143 144
f 105 144 106
f 106 144 145
f 106 145 107
f 107 145 146
f 107 146 147
f 107 147 108
f 108 147 148
f 108 148 111
f 109 138 145
f 109 145 144
f 109 144 143
f 109 143 142
f 109 142 110
f 111 148 149
f 111 149 112
f 112 150 151
f 112 151 114
f 112 149 152
f 112 152 153
f 112 153 150
f 113 114 155
f 113 155 156
f 113 156 154
f 114 151 150
f 114 150 155
f 116 119 129
f 117 125 157
f 117 157 118
f 118 157 129
f 118 129 119
f 120 128 158
f 120 158 159
f 120 159 156
f 120 156 160
f 120 160 121
f 121 160 122
f 122 160 123
f 123 160 124
f 124 160 161
f 124 161 125
f 125 129 157
f 125 161 160
f 125 160 162
f 125 162 129
f 128 163 156
f 128 156 158
f 129 162 164
f 129 164 165
f 129 165 130
f 130 166 131
f 130 165 167
f 130 167 166
f 131 166 168
f 131 168 132
f 132 168 166
f 132 166 133
f 133 166 149
f 133 149 148
f 133 148 134
f 134 148 135
f 135 148 147
f 135 147 136
f 136 147 146
f 136 146 137
f 137 146 145
f 137 145 138
f 149 166 152
f 150 153 164
f 150 164 162
f 150 162 155
f 152 165 164
f 152 164 153
f 152 166 165
f 154 156 163
f 155 162 160
f 155 160 156
f 156 159 158
f 165 166 167

