mtllib material.mtl
usemtl Mouse_-_Shiny_Grey
v -0.03080300 -0.02651000 -0.00165700
v -0.02916500 0.01864300 0.00871400
v -0.02146800 0.03671600 0.00041100
v -0.01035200 -0.04668800 -0.00334500
v -0.01035200 -0.04668800 -0.00334500
v -0.01063200 0.04042200 0.00333000
v -0.01063200 0.04042200 0.00333000
v -0.01915900 -0.04243600 -0.00279900
v -0.01915900 -0.04243600 -0.00279900
v -0.01915900 -0.04243600 -0.00279900
v -0.02556500 -0.03547300 -0.00152900
v -0.02556500 -0.03547300 -0.00152900
v -0.02934900 -0.02648100 0.00085700
v -0.02934900 -0.02648100 0.00085700
v -0.02934900 -0.02648100 0.00085700
v -0.03008400 -0.01592900 0.00458300
v -0.03008400 -0.01592900 0.00458300
v -0.03008400 -0.01592900 0.00458300
v -0.02874800 -0.00460800 0.00916900
v -0.02874800 -0.00460800 0.00916900
v -0.02874800 -0.00460800 0.00916900
v -0.02738800 0.00668700 0.01235000
v -0.02650800 0.01777600 0.01154500
v -0.02650800 0.01777600 0.01154500
v -0.02650800 0.01777600 0.01154500
v -0.02419600 0.02766600 0.00834200
v -0.02419600 0.02766600 0.00834200
v -0.02419600 0.02766600 0.00834200
v -0.01905800 0.03530000 0.00527400
v -0.01905800 0.03530000 0.00527400
v -0.01905800 0.03530000 0.00527400
v -0.01006300 -0.04592500 -0.00120300
v -0.01006300 -0.04592500 -0.00120300
v -0.00927100 0.03769100 0.00840400
v -0.00927100 0.03769100 0.00840400
v -0.01833500 -0.04182200 -0.00052900
v -0.01833500 -0.04182200 -0.00052900
v -0.02425900 -0.03513200 0.00090200
v -0.02425900 -0.03513200 0.00090200
v -0.02756100 -0.02628300 0.00353300
v -0.02756100 -0.02628300 0.00353300
v -0.02800800 -0.01593000 0.00741500
v -0.02800800 -0.01593000 0.00741500
v -0.02654400 -0.00493400 0.01174000
v -0.02654400 -0.00493400 0.01174000
v -0.02487500 0.00602200 0.01451500
v -0.02487500 0.00602200 0.01451500
v -0.02362300 0.01663300 0.01426400
v -0.02362300 0.01663300 0.01426400
v -0.02133600 0.02602300 0.01206400
v -0.02133600 0.02602300 0.01206400
v -0.01667800 0.03315700 0.00981800
v -0.01667800 0.03315700 0.00981800
v -0.00958300 -0.04420700 -0.00291800
v -0.00882100 0.03616500 0.00722300
v -0.01735800 -0.04038200 -0.00281200
v -0.02292500 -0.03406900 -0.00148500
v -0.02608300 -0.02560300 0.00147600
v -0.02649600 -0.01553400 0.00600700
v -0.02511700 -0.00469300 0.01037200
v -0.02364700 0.00604100 0.01295700
v -0.02247600 0.01621900 0.01270400
v -0.02026100 0.02515200 0.01064900
v -0.01584300 0.03188000 0.00855700
v -0.01051800 -0.04711800 -0.00547200
v -0.01206000 0.04220300 -0.00195000
v -0.01978300 -0.04277500 -0.00499800
v -0.02662000 -0.03558400 -0.00384100
v -0.03173100 -0.01582700 0.00184300
v -0.03050700 -0.00426300 0.00658400
v -0.02961500 0.00723200 0.01012600
v -0.02691500 0.02887400 0.00431900
v 0.00000000 -0.04851000 -0.00555000
v -0.00000000 0.04428500 -0.00264400
v 0.03080300 -0.02651000 -0.00165700
v 0.02916500 0.01864300 0.00871400
v 0.02146800 0.03671600 0.00041100
v 0.00000000 -0.04808300 -0.00347700
v 0.00000000 -0.04808300 -0.00347700
v -0.00000000 0.04233400 0.00269800
v -0.00000000 0.04233400 0.00269800
v -0.00000000 0.04233400 0.00269800
v 0.01035200 -0.04668800 -0.00334500
v 0.01035200 -0.04668800 -0.00334500
v 0.01035200 -0.04668800 -0.00334500
v 0.01063200 0.04042200 0.00333000
v 0.01063200 0.04042200 0.00333000
v 0.01063200 0.04042200 0.00333000
v 0.01063200 0.04042200 0.00333000
v 0.01915900 -0.04243600 -0.00279900
v 0.01915900 -0.04243600 -0.00279900
v 0.02556500 -0.03547300 -0.00152900
v 0.02556500 -0.03547300 -0.00152900
v 0.02556500 -0.03547300 -0.00152900
v 0.02934900 -0.02648100 0.00085700
v 0.02934900 -0.02648100 0.00085700
v 0.03008400 -0.01592900 0.00458300
v 0.03008400 -0.01592900 0.00458300
v 0.03008400 -0.01592900 0.00458300
v 0.02874800 -0.00460800 0.00916900
v 0.02874800 -0.00460800 0.00916900
v 0.02874800 -0.00460800 0.00916900
v 0.02738800 0.00668700 0.01235000
v 0.02738800 0.00668700 0.01235000
v 0.02738800 0.00668700 0.01235000
v 0.02650800 0.01777600 0.01154500
v 0.02650800 0.01777600 0.01154500
v 0.02419600 0.02766600 0.00834200
v 0.02419600 0.02766600 0.00834200
v 0.01905800 0.03530000 0.00527400
v 0.01905800 0.03530000 0.00527400
v 0.00000000 -0.04731800 -0.00145800
v 0.00000000 -0.04731800 -0.00145800
v -0.00000000 0.03936700 0.00791400
v -0.00000000 0.03936700 0.00791400
v -0.00000000 0.03936700 0.00791400
v 0.01006300 -0.04592500 -0.00120300
v 0.01006300 -0.04592500 -0.00120300
v 0.00927100 0.03769100 0.00840400
v 0.00927100 0.03769100 0.00840400
v 0.01833500 -0.04182200 -0.00052900
v 0.01833500 -0.04182200 -0.00052900
v 0.02425900 -0.03513200 0.00090200
v 0.02425900 -0.03513200 0.00090200
v 0.02756100 -0.02628300 0.00353300
v 0.02756100 -0.02628300 0.00353300
v 0.02800800 -0.01593000 0.00741500
v 0.02800800 -0.01593000 0.00741500
v 0.02654400 -0.00493400 0.01174000
v 0.02654400 -0.00493400 0.01174000
v 0.02487500 0.00602200 0.01451500
v 0.02487500 0.00602200 0.01451500
v 0.02362300 0.01663300 0.01426400
v 0.02362300 0.01663300 0.01426400
v 0.02133600 0.02602300 0.01206400
v 0.02133600 0.02602300 0.01206400
v 0.01667800 0.03315700 0.00981800
v 0.01667800 0.03315700 0.00981800
v 0.00000000 -0.04548200 -0.00272600
v -0.00000000 0.03776000 0.00675500
v 0.00958300 -0.04420700 -0.00291800
v 0.00882100 0.03616500 0.00722300
v 0.01735800 -0.04038200 -0.00281200
v 0.02292500 -0.03406900 -0.00148500
v 0.02608300 -0.02560300 0.00147600
v 0.02649600 -0.01553400 0.00600700
v 0.02511700 -0.00469300 0.01037200
v 0.02364700 0.00604100 0.01295700
v 0.02247600 0.01621900 0.01270400
v 0.02026100 0.02515200 0.01064900
v 0.01584300 0.03188000 0.00855700
v 0.01051800 -0.04711800 -0.00547200
v 0.01206000 0.04220300 -0.00195000
v 0.01978300 -0.04277500 -0.00499800
v 0.02662000 -0.03558400 -0.00384100
v 0.03173100 -0.01582700 0.00184300
v 0.03050700 -0.00426300 0.00658400
v 0.02961500 0.00723200 0.01012600
v 0.02691500 0.02887400 0.00431900
v -0.00000000 0.04094600 0.00531800
v -0.00000000 0.04094600 0.00531800
v 0.00000000 -0.04773200 -0.00246200
v 0.00000000 -0.04773200 -0.00246200
v 0.00000000 -0.04832800 -0.00450900
v -0.00000000 0.04340400 0.00003900
v -0.00000000 0.04340400 0.00003900
v -0.00546600 0.04183600 0.00285300
v -0.00546600 0.04183600 0.00285300
v -0.00528100 -0.04773700 -0.00344800
v -0.00528100 -0.04773700 -0.00344800
v -0.01502100 -0.04492100 -0.00314100
v -0.01502100 -0.04492100 -0.00314100
v -0.02267600 -0.03925300 -0.00227900
v -0.02267600 -0.03925300 -0.00227900
v -0.02782100 -0.03120000 -0.00049600
v -0.03007400 -0.02135900 0.00255500
v -0.03007400 -0.02135900 0.00255500
v -0.02954400 -0.01030300 0.00687100
v -0.02798300 0.00105200 0.01114800
v -0.02798300 0.00105200 0.01114800
v -0.02698600 0.01230200 0.01241900
v -0.02698600 0.01230200 0.01241900
v -0.02564000 0.02295200 0.01006500
v -0.02564000 0.02295200 0.01006500
v -0.02203500 0.03178600 0.00670000
v -0.02203500 0.03178600 0.00670000
v -0.01522000 0.03820800 0.00414100
v -0.01522000 0.03820800 0.00414100
v -0.00476400 0.03892900 0.00803900
v -0.00476400 0.03892900 0.00803900
v -0.00516200 -0.04696700 -0.00138700
v -0.00516200 -0.04696700 -0.00138700
v -0.01447700 -0.04420800 -0.00093000
v -0.01447700 -0.04420800 -0.00093000
v -0.02160500 -0.03878000 0.00006100
v -0.02160500 -0.03878000 0.00006100
v -0.02626500 -0.03094200 0.00205200
v -0.02626500 -0.03094200 0.00205200
v -0.02811000 -0.02124200 0.00534300
v -0.02811000 -0.02124200 0.00534300
v -0.02740700 -0.01046000 0.00963200
v -0.02740700 -0.01046000 0.00963200
v -0.02565300 0.00056600 0.01345400
v -0.02565300 0.00056600 0.01345400
v -0.02426400 0.01141300 0.01474600
v -0.02426400 0.01141300 0.01474600
v -0.02271000 0.02155400 0.01328000
v -0.02271000 0.02155400 0.01328000
v -0.01935100 0.02990600 0.01086700
v -0.01935100 0.02990600 0.01086700
v -0.01328900 0.03575700 0.00899400
v -0.01328900 0.03575700 0.00899400
v -0.02768800 -0.00477300 0.01045600
v -0.02768800 -0.00477300 0.01045600
v -0.02908600 -0.01593900 0.00599100
v -0.02493600 -0.03532400 -0.00032400
v -0.02493600 -0.03532400 -0.00032400
v -0.01876600 -0.04215500 -0.00167100
v -0.01876600 -0.04215500 -0.00167100
v -0.01786500 0.03429700 0.00757600
v -0.01786500 0.03429700 0.00757600
v -0.02277900 0.02688600 0.01023100
v -0.02277900 0.02688600 0.01023100
v -0.00994500 0.03914600 0.00588600
v -0.00994500 0.03914600 0.00588600
v -0.02615800 0.00636600 0.01343800
v -0.02848700 -0.02639800 0.00218000
v -0.01021900 -0.04633800 -0.00227600
v -0.01021900 -0.04633800 -0.00227600
v -0.02508700 0.01723100 0.01291500
v -0.02026000 0.03607600 0.00287200
v -0.02785700 0.01823600 0.01014000
v -0.02785700 0.01823600 0.01014000
v -0.03010800 -0.02651200 -0.00041500
v -0.03010800 -0.02651200 -0.00041500
v -0.00453500 0.03734100 0.00687500
v -0.00492700 -0.04516400 -0.00279500
v -0.01374300 -0.04261400 -0.00296800
v -0.02042300 -0.03752100 -0.00233300
v -0.02483900 -0.03007500 -0.00023200
v -0.02660300 -0.02072300 0.00363400
v -0.02591800 -0.01014900 0.00831900
v -0.02432700 0.00072000 0.01198300
v -0.02309100 0.01123200 0.01315900
v -0.02158600 0.02090800 0.01178400
v -0.01837300 0.02881900 0.00953500
v -0.01263400 0.03433300 0.00778300
v 0.00000000 -0.04640000 -0.00209200
v -0.00000000 0.03856400 0.00733500
v -0.00000000 0.03856400 0.00733500
v -0.00982300 -0.04506600 -0.00206000
v -0.00904600 0.03692800 0.00781300
v -0.01784700 -0.04110200 -0.00167000
v -0.02359200 -0.03460000 -0.00029100
v -0.02682200 -0.02594300 0.00250500
v -0.02725200 -0.01573200 0.00671100
v -0.02583100 -0.00481400 0.01105600
v -0.02426100 0.00603200 0.01373600
v -0.02305000 0.01642600 0.01348400
v -0.02079900 0.02558800 0.01135600
v -0.01626100 0.03251900 0.00918700
v -0.00621000 0.04374300 -0.00248400
v -0.00533300 -0.04816800 -0.00553900
v -0.01539600 -0.04532700 -0.00530200
v -0.02352200 -0.03947500 -0.00452600
v -0.02908900 -0.03125800 -0.00289500
v -0.03165400 -0.02134000 -0.00009300
v -0.03122200 -0.01008000 0.00414500
v -0.02994400 0.00149400 0.00879800
v -0.02946300 0.01299200 0.01002200
v -0.02837200 0.02400500 0.00664200
v -0.02466600 0.03309300 0.00219600
v -0.01722100 0.03980000 -0.00098100
v -0.01134000 0.04140200 0.00070900
v -0.01134000 0.04140200 0.00070900
v -0.01044700 -0.04693400 -0.00441000
v -0.01044700 -0.04693400 -0.00441000
v -0.02852800 0.00697100 0.01124400
v -0.02852800 0.00697100 0.01124400
v -0.03094800 -0.01588700 0.00320500
v -0.01949000 -0.04263100 -0.00390500
v -0.02556900 0.02831100 0.00635900
v -0.02966900 -0.00443700 0.00787800
v -0.02966900 -0.00443700 0.00787800
v -0.02611600 -0.03555000 -0.00269600
v 0.00546600 0.04183600 0.00285300
v 0.00546600 0.04183600 0.00285300
v 0.00528100 -0.04773700 -0.00344800
v 0.00528100 -0.04773700 -0.00344800
v 0.01502100 -0.04492100 -0.00314100
v 0.01502100 -0.04492100 -0.00314100
v 0.02267600 -0.03925300 -0.00227900
v 0.02267600 -0.03925300 -0.00227900
v 0.02782100 -0.03120000 -0.00049600
v 0.02782100 -0.03120000 -0.00049600
v 0.03007400 -0.02135900 0.00255500
v 0.03007400 -0.02135900 0.00255500
v 0.02954400 -0.01030300 0.00687100
v 0.02954400 -0.01030300 0.00687100
v 0.02798300 0.00105200 0.01114800
v 0.02798300 0.00105200 0.01114800
v 0.02698600 0.01230200 0.01241900
v 0.02698600 0.01230200 0.01241900
v 0.02564000 0.02295200 0.01006500
v 0.02564000 0.02295200 0.01006500
v 0.02203500 0.03178600 0.00670000
v 0.02203500 0.03178600 0.00670000
v 0.01522000 0.03820800 0.00414100
v 0.01522000 0.03820800 0.00414100
v 0.00476400 0.03892900 0.00803900
v 0.00476400 0.03892900 0.00803900
v 0.00516200 -0.04696700 -0.00138700
v 0.00516200 -0.04696700 -0.00138700
v 0.01447700 -0.04420800 -0.00093000
v 0.01447700 -0.04420800 -0.00093000
v 0.02160500 -0.03878000 0.00006100
v 0.02160500 -0.03878000 0.00006100
v 0.02626500 -0.03094200 0.00205200
v 0.02626500 -0.03094200 0.00205200
v 0.02811000 -0.02124200 0.00534300
v 0.02811000 -0.02124200 0.00534300
v 0.02740700 -0.01046000 0.00963200
v 0.02740700 -0.01046000 0.00963200
v 0.02565300 0.00056600 0.01345400
v 0.02565300 0.00056600 0.01345400
v 0.02426400 0.01141300 0.01474600
v 0.02426400 0.01141300 0.01474600
v 0.02271000 0.02155400 0.01328000
v 0.02271000 0.02155400 0.01328000
v 0.01935100 0.02990600 0.01086700
v 0.01935100 0.02990600 0.01086700
v 0.01328900 0.03575700 0.00899400
v 0.01328900 0.03575700 0.00899400
v 0.02768800 -0.00477300 0.01045600
v 0.02908600 -0.01593900 0.00599100
v 0.02908600 -0.01593900 0.00599100
v 0.02493600 -0.03532400 -0.00032400
v 0.02493600 -0.03532400 -0.00032400
v 0.01876600 -0.04215500 -0.00167100
v 0.01786500 0.03429700 0.00757600
v 0.01786500 0.03429700 0.00757600
v 0.02277900 0.02688600 0.01023100
v 0.02277900 0.02688600 0.01023100
v 0.00994500 0.03914600 0.00588600
v 0.00994500 0.03914600 0.00588600
v 0.02615800 0.00636600 0.01343800
v 0.02848700 -0.02639800 0.00218000
v 0.01021900 -0.04633800 -0.00227600
v 0.02508700 0.01723100 0.01291500
v 0.02026000 0.03607600 0.00287200
v 0.02785700 0.01823600 0.01014000
v 0.02785700 0.01823600 0.01014000
v 0.03010800 -0.02651200 -0.00041500
v 0.03010800 -0.02651200 -0.00041500
v 0.00453500 0.03734100 0.00687500
v 0.00492700 -0.04516400 -0.00279500
v 0.01374300 -0.04261400 -0.00296800
v 0.02042300 -0.03752100 -0.00233300
v 0.02483900 -0.03007500 -0.00023200
v 0.02660300 -0.02072300 0.00363400
v 0.02591800 -0.01014900 0.00831900
v 0.02432700 0.00072000 0.01198300
v 0.02309100 0.01123200 0.01315900
v 0.02158600 0.02090800 0.01178400
v 0.01837300 0.02881900 0.00953500
v 0.01263400 0.03433300 0.00778300
v 0.00982300 -0.04506600 -0.00206000
v 0.00904600 0.03692800 0.00781300
v 0.01784700 -0.04110200 -0.00167000
v 0.02359200 -0.03460000 -0.00029100
v 0.02682200 -0.02594300 0.00250500
v 0.02725200 -0.01573200 0.00671100
v 0.02583100 -0.00481300 0.01105600
v 0.02426100 0.00603200 0.01373600
v 0.02305000 0.01642600 0.01348400
v 0.02079900 0.02558800 0.01135600
v 0.01626100 0.03251900 0.00918700
v 0.00621000 0.04374300 -0.00248400
v 0.00533300 -0.04816800 -0.00553900
v 0.01539600 -0.04532800 -0.00530200
v 0.02352200 -0.03947500 -0.00452600
v 0.02908900 -0.03125800 -0.00289500
v 0.03165400 -0.02134000 -0.00009300
v 0.03122200 -0.01008000 0.00414500
v 0.02994400 0.00149400 0.00879800
v 0.02946300 0.01299200 0.01002200
v 0.02837200 0.02400500 0.00664200
v 0.02466600 0.03309300 0.00219600
v 0.01722100 0.03980000 -0.00098100
v 0.01134000 0.04140200 0.00070900
v 0.01134000 0.04140200 0.00070900
v 0.01044700 -0.04693400 -0.00441000
v 0.01044700 -0.04693400 -0.00441000
v 0.02852800 0.00697100 0.01124400
v 0.02852800 0.00697100 0.01124400
v 0.03094800 -0.01588700 0.00320500
v 0.01949000 -0.04263100 -0.00390500
v 0.01949000 -0.04263100 -0.00390500
v 0.02556900 0.02831100 0.00635900
v 0.02556900 0.02831100 0.00635900
v 0.02966900 -0.00443700 0.00787800
v 0.02611600 -0.03555000 -0.00269600
v 0.02611600 -0.03555000 -0.00269600
v -0.00531300 -0.04798400 -0.00449100
v -0.01621400 0.03908400 0.00160500
v -0.03090000 -0.02136200 0.00121800
v -0.02824800 0.01266600 0.01122700
v -0.01522500 -0.04515300 -0.00422600
v -0.02335500 0.03249300 0.00447900
v -0.02702400 0.02351100 0.00837300
v -0.03042600 -0.01019800 0.00550500
v -0.02312000 -0.03938800 -0.00341100
v -0.00583400 0.04288400 0.00019900
v -0.02899800 0.00127700 0.00997800
v -0.02848200 -0.03124800 -0.00170900
v -0.02851900 -0.01038800 0.00824900
v -0.02216100 -0.03904000 -0.00111800
v -0.02069800 0.03090000 0.00881500
v -0.00511100 0.04047600 0.00546000
v -0.02685300 0.00081300 0.01230600
v -0.02707000 -0.03109000 0.00076400
v -0.01424800 0.03706300 0.00659300
v -0.00522800 -0.04738400 -0.00241500
v -0.02564800 0.01187600 0.01358900
v -0.02912800 -0.02131400 0.00393600
v -0.01476500 -0.04459300 -0.00204000
v -0.02419300 0.02228500 0.01169200
v -0.00464900 0.03813500 0.00745700
v -0.00504500 -0.04606500 -0.00209100
v -0.01411000 -0.04341100 -0.00194900
v -0.02101400 -0.03815000 -0.00113600
v -0.02555200 -0.03050800 0.00091000
v -0.02735600 -0.02098300 0.00448900
v -0.02666300 -0.01030500 0.00897600
v -0.02499000 0.00064300 0.01271900
v -0.02367700 0.01132200 0.01395200
v -0.02214800 0.02123100 0.01253200
v -0.01886200 0.02936200 0.01020100
v -0.01296100 0.03504500 0.00838900
v 0.00531300 -0.04798400 -0.00449100
v 0.01621400 0.03908400 0.00160500
v 0.03090000 -0.02136200 0.00121800
v 0.02824800 0.01266600 0.01122700
v 0.01522500 -0.04515300 -0.00422600
v 0.02335500 0.03249300 0.00447900
v 0.02702400 0.02351100 0.00837300
v 0.03042600 -0.01019800 0.00550500
v 0.02312000 -0.03938800 -0.00341100
v 0.00583400 0.04288400 0.00019900
v 0.02899800 0.00127700 0.00997800
v 0.02848200 -0.03124800 -0.00170900
v 0.02851900 -0.01038800 0.00824900
v 0.02216100 -0.03904000 -0.00111800
v 0.02069800 0.03090000 0.00881500
v 0.00511100 0.04047600 0.00546000
v 0.02685300 0.00081300 0.01230600
v 0.02707000 -0.03109000 0.00076400
v 0.01424800 0.03706300 0.00659300
v 0.00522800 -0.04738400 -0.00241500
v 0.02564800 0.01187600 0.01358900
v 0.02912800 -0.02131400 0.00393600
v 0.01476500 -0.04459300 -0.00204000
v 0.02419300 0.02228500 0.01169200
v 0.00464900 0.03813500 0.00745700
v 0.00504500 -0.04606500 -0.00209100
v 0.01411000 -0.04341100 -0.00194900
v 0.02101400 -0.03815000 -0.00113600
v 0.02555200 -0.03050800 0.00091000
v 0.02735600 -0.02098300 0.00448900
v 0.02666300 -0.01030500 0.00897600
v 0.02499000 0.00064300 0.01271900
v 0.02367700 0.01132200 0.01395200
v 0.02214800 0.02123100 0.01253200
v 0.01886200 0.02936200 0.01020100
v 0.01296100 0.03504500 0.00838900
vn -0.82220000 -0.34490000 0.45270000
vn -0.67590000 0.28380000 0.68020000
vn -0.49480000 0.74970000 0.43940000
vn -0.25870000 -0.92260000 0.28610000
vn -0.25870000 -0.92260000 0.28610000
vn -0.26050000 0.85790000 0.44280000
vn -0.26050000 0.85790000 0.44280000
vn -0.53560000 -0.77520000 0.33500000
vn -0.53560000 -0.77520000 0.33500000
vn -0.53560000 -0.77520000 0.33500000
vn -0.72110000 -0.55540000 0.41420000
vn -0.72110000 -0.55540000 0.41420000
vn -0.79410000 -0.33980000 0.50400000
vn -0.79410000 -0.33980000 0.50400000
vn -0.79410000 -0.33980000 0.50400000
vn -0.82040000 -0.17330000 0.54490000
vn -0.82040000 -0.17330000 0.54490000
vn -0.82040000 -0.17330000 0.54490000
vn -0.78880000 -0.11860000 0.60310000
vn -0.78880000 -0.11860000 0.60310000
vn -0.78880000 -0.11860000 0.60310000
vn -0.69270000 -0.01730000 0.72100000
vn -0.64690000 0.24250000 0.72300000
vn -0.64690000 0.24250000 0.72300000
vn -0.64690000 0.24250000 0.72300000
vn -0.61100000 0.49020000 0.62160000
vn -0.61100000 0.49020000 0.62160000
vn -0.61100000 0.49020000 0.62160000
vn -0.47680000 0.71310000 0.51390000
vn -0.47680000 0.71310000 0.51390000
vn -0.47680000 0.71310000 0.51390000
vn -0.24800000 -0.89080000 0.38070000
vn 0.22200000 0.65610000 0.72130000
vn 0.28880000 -0.53140000 0.79640000
vn -0.24200000 0.80990000 0.53430000
vn -0.51400000 -0.75220000 0.41230000
vn 0.53170000 0.58820000 0.60930000
vn 0.76500000 0.30260000 0.56850000
vn -0.69710000 -0.53810000 0.47380000
vn 0.81280000 -0.05450000 0.58000000
vn -0.76610000 -0.33050000 0.55120000
vn -0.78090000 -0.18360000 0.59700000
vn 0.70230000 -0.30720000 0.64220000
vn 0.68690000 -0.33020000 0.64740000
vn -0.74130000 -0.11570000 0.66110000
vn 0.77060000 -0.16860000 0.61470000
vn -0.65560000 -0.01010000 0.75500000
vn -0.61830000 0.20460000 0.75880000
vn 0.79880000 -0.03610000 0.60050000
vn 0.75400000 -0.12030000 0.64580000
vn -0.58860000 0.43910000 0.67870000
vn -0.45760000 0.66720000 0.58770000
vn 0.57190000 -0.35690000 0.73860000
vn 0.19750000 0.66340000 0.72170000
vn 0.28820000 -0.53160000 0.79640000
vn 0.51930000 0.59730000 0.61120000
vn 0.76300000 0.30820000 0.56810000
vn 0.81730000 -0.05850000 0.57330000
vn 0.70270000 -0.31760000 0.63670000
vn 0.68790000 -0.32370000 0.64960000
vn 0.77120000 -0.16270000 0.61540000
vn 0.79860000 -0.03770000 0.60070000
vn 0.75340000 -0.12200000 0.64620000
vn 0.57110000 -0.35760000 0.73880000
vn -0.26450000 -0.94650000 0.18490000
vn -0.27910000 0.89520000 0.34750000
vn -0.55460000 -0.79320000 0.25150000
vn -0.74480000 -0.56810000 0.35010000
vn -0.85810000 -0.15780000 0.48870000
vn -0.83660000 -0.11360000 0.53590000
vn -0.73150000 -0.02780000 0.68120000
vn -0.63100000 0.53720000 0.55960000
vn -0.00000000 -0.98500000 0.17280000
vn -0.00000000 0.94970000 0.31330000
vn 0.82220000 -0.34490000 0.45270000
vn 0.67590000 0.28380000 0.68020000
vn 0.49480000 0.74970000 0.43940000
vn -0.00000000 -0.96030000 0.27890000
vn -0.00000000 -0.96030000 0.27890000
vn -0.00000000 0.90730000 0.42040000
vn -0.00000000 0.90730000 0.42040000
vn -0.00000000 0.90730000 0.42040000
vn 0.25870000 -0.92260000 0.28610000
vn 0.25870000 -0.92260000 0.28610000
vn 0.25870000 -0.92260000 0.28610000
vn 0.26050000 0.85790000 0.44280000
vn 0.26050000 0.85790000 0.44280000
vn 0.26050000 0.85790000 0.44280000
vn 0.26050000 0.85790000 0.44280000
vn 0.53560000 -0.77520000 0.33500000
vn 0.53560000 -0.77520000 0.33500000
vn 0.72110000 -0.55540000 0.41420000
vn 0.72110000 -0.55540000 0.41420000
vn 0.72110000 -0.55540000 0.41420000
vn 0.79410000 -0.33980000 0.50400000
vn 0.79410000 -0.33980000 0.50400000
vn 0.82040000 -0.17330000 0.54490000
vn 0.82040000 -0.17330000 0.54490000
vn 0.82040000 -0.17330000 0.54490000
vn 0.78880000 -0.11860000 0.60310000
vn 0.78880000 -0.11860000 0.60310000
vn 0.78880000 -0.11860000 0.60310000
vn 0.69270000 -0.01730000 0.72100000
vn 0.69270000 -0.01730000 0.72100000
vn 0.69270000 -0.01730000 0.72100000
vn 0.64690000 0.24250000 0.72300000
vn 0.64690000 0.24250000 0.72300000
vn 0.61100000 0.49020000 0.62160000
vn 0.61100000 0.49020000 0.62160000
vn 0.47680000 0.71310000 0.51390000
vn 0.47680000 0.71310000 0.51390000
vn -0.00000000 -0.92490000 0.38020000
vn -0.00000000 0.59050000 0.80710000
vn -0.00000000 -0.58470000 0.81130000
vn -0.00000000 0.85410000 0.52020000
vn -0.00000000 0.85410000 0.52020000
vn 0.24800000 -0.89080000 0.38070000
vn -0.22200000 0.65610000 0.72130000
vn 0.24200000 0.80990000 0.53430000
vn -0.28880000 -0.53140000 0.79640000
vn -0.53170000 0.58820000 0.60930000
vn 0.51400000 -0.75220000 0.41230000
vn 0.69710000 -0.53810000 0.47380000
vn -0.76500000 0.30260000 0.56850000
vn -0.81280000 -0.05450000 0.58000000
vn 0.76610000 -0.33050000 0.55120000
vn -0.70230000 -0.30720000 0.64220000
vn 0.78090000 -0.18360000 0.59700000
vn -0.68690000 -0.33020000 0.64740000
vn 0.74130000 -0.11570000 0.66110000
vn -0.77060000 -0.16860000 0.61470000
vn 0.65560000 -0.01010000 0.75500000
vn 0.61830000 0.20460000 0.75880000
vn -0.79880000 -0.03610000 0.60050000
vn -0.75400000 -0.12030000 0.64580000
vn 0.58860000 0.43910000 0.67870000
vn -0.57190000 -0.35690000 0.73860000
vn 0.45760000 0.66720000 0.58770000
vn -0.00000000 0.59100000 0.80670000
vn -0.00000000 -0.58470000 0.81130000
vn -0.19750000 0.66350000 0.72170000
vn -0.28820000 -0.53160000 0.79640000
vn -0.51930000 0.59730000 0.61120000
vn -0.76300000 0.30820000 0.56810000
vn -0.81730000 -0.05850000 0.57330000
vn -0.70270000 -0.31760000 0.63670000
vn -0.68790000 -0.32370000 0.64960000
vn -0.77120000 -0.16270000 0.61540000
vn -0.79860000 -0.03770000 0.60070000
vn -0.75340000 -0.12200000 0.64620000
vn -0.57110000 -0.35760000 0.73880000
vn 0.26450000 -0.94650000 0.18490000
vn 0.27910000 0.89520000 0.34750000
vn 0.55460000 -0.79320000 0.25150000
vn 0.74480000 -0.56810000 0.35010000
vn 0.85810000 -0.15780000 0.48870000
vn 0.83660000 -0.11360000 0.53590000
vn 0.73150000 -0.02780000 0.68120000
vn 0.63100000 0.53720000 0.55960000
vn -0.00000000 0.86970000 0.49360000
vn -0.00000000 0.86970000 0.49360000
vn -0.00000000 -0.93560000 0.35300000
vn -0.00000000 -0.93560000 0.35300000
vn -0.00000000 -0.97930000 0.20220000
vn -0.00000000 0.93930000 0.34310000
vn -0.00000000 0.93930000 0.34310000
vn -0.13540000 0.89450000 0.42600000
vn -0.13540000 0.89450000 0.42600000
vn -0.12540000 -0.95180000 0.27980000
vn -0.12540000 -0.95180000 0.27980000
vn -0.39920000 -0.86480000 0.30460000
vn -0.39920000 -0.86480000 0.30460000
vn -0.64730000 -0.66550000 0.37150000
vn -0.64730000 -0.66550000 0.37150000
vn -0.76540000 -0.44770000 0.46240000
vn -0.81240000 -0.24400000 0.52970000
vn -0.81240000 -0.24400000 0.52970000
vn -0.81480000 -0.13270000 0.56440000
vn -0.74220000 -0.09500000 0.66340000
vn -0.74220000 -0.09500000 0.66340000
vn -0.66080000 0.10690000 0.74300000
vn -0.66080000 0.10690000 0.74300000
vn -0.63600000 0.37050000 0.67690000
vn -0.63600000 0.37050000 0.67690000
vn -0.55820000 0.60670000 0.56590000
vn -0.55820000 0.60670000 0.56590000
vn -0.37530000 0.79780000 0.47180000
vn -0.37530000 0.79780000 0.47180000
vn 0.14670000 -0.57120000 0.80760000
vn -0.12510000 0.84280000 0.52350000
vn 0.09880000 0.61560000 0.78190000
vn -0.11950000 -0.91750000 0.37930000
vn 0.37300000 0.65530000 0.65690000
vn -0.38360000 -0.83650000 0.39140000
vn 0.66870000 0.46310000 0.58170000
vn -0.62250000 -0.64760000 0.43940000
vn 0.81450000 0.12520000 0.56650000
vn -0.74110000 -0.43140000 0.51450000
vn -0.77890000 -0.24570000 0.57690000
vn 0.76420000 -0.20700000 0.61090000
vn -0.76990000 -0.14260000 0.62210000
vn 0.67150000 -0.34730000 0.65460000
vn -0.69800000 -0.07920000 0.71170000
vn 0.72890000 -0.26610000 0.63090000
vn -0.62910000 0.08990000 0.77210000
vn 0.79410000 -0.07830000 0.60280000
vn -0.60990000 0.32210000 0.72400000
vn 0.78790000 -0.04990000 0.61380000
vn -0.53930000 0.55740000 0.63120000
vn 0.68410000 -0.23270000 0.69130000
vn 0.43220000 -0.46140000 0.77480000
vn -0.35400000 0.75300000 0.55470000
vn -0.75630000 -0.12000000 0.64310000
vn -0.75630000 -0.12000000 0.64310000
vn -0.79180000 -0.18580000 0.58180000
vn -0.70270000 -0.54490000 0.45750000
vn -0.70270000 -0.54490000 0.45750000
vn -0.52050000 -0.75860000 0.39190000
vn -0.52050000 -0.75860000 0.39190000
vn -0.45830000 0.68530000 0.56590000
vn -0.45830000 0.68530000 0.56590000
vn -0.59100000 0.46390000 0.65990000
vn -0.59100000 0.46390000 0.65990000
vn -0.24550000 0.82470000 0.50950000
vn -0.24550000 0.82470000 0.50950000
vn -0.66520000 -0.01190000 0.74650000
vn -0.77260000 -0.33850000 0.53710000
vn -0.25090000 -0.90040000 0.35550000
vn -0.25090000 -0.90040000 0.35550000
vn -0.62500000 0.22440000 0.74770000
vn -0.49380000 0.73720000 0.46120000
vn -0.66960000 0.25890000 0.69620000
vn -0.66960000 0.25890000 0.69620000
vn -0.81560000 -0.34000000 0.46820000
vn -0.81560000 -0.34000000 0.46820000
vn 0.14680000 -0.57120000 0.80760000
vn 0.08020000 0.61860000 0.78160000
vn 0.35290000 0.66490000 0.65830000
vn 0.66280000 0.47020000 0.58270000
vn 0.81590000 0.12810000 0.56390000
vn 0.76810000 -0.21950000 0.60160000
vn 0.67150000 -0.34810000 0.65410000
vn 0.73000000 -0.25760000 0.63310000
vn 0.79420000 -0.07690000 0.60280000
vn 0.78730000 -0.05240000 0.61440000
vn 0.68360000 -0.23350000 0.69150000
vn 0.43110000 -0.46210000 0.77500000
vn -0.00000000 0.59070000 0.80690000
vn -0.00000000 -0.58470000 0.81130000
vn -0.00000000 -0.58470000 0.81130000
vn 0.20930000 0.65950000 0.72200000
vn 0.28850000 -0.53150000 0.79640000
vn 0.52500000 0.59310000 0.61040000
vn 0.76430000 0.30490000 0.56830000
vn 0.81480000 -0.05790000 0.57680000
vn 0.70230000 -0.31240000 0.63970000
vn 0.68740000 -0.32700000 0.64850000
vn 0.77090000 -0.16580000 0.61500000
vn 0.79870000 -0.03680000 0.60060000
vn 0.75370000 -0.12110000 0.64600000
vn 0.57160000 -0.35720000 0.73870000
vn -0.14630000 0.93530000 0.32210000
vn -0.12820000 -0.97620000 0.17480000
vn -0.41010000 -0.88730000 0.21090000
vn -0.67110000 -0.67880000 0.29820000
vn -0.79000000 -0.45930000 0.40610000
vn -0.84510000 -0.23830000 0.47860000
vn -0.85810000 -0.11420000 0.50060000
vn -0.78810000 -0.11150000 0.60530000
vn -0.69360000 0.12560000 0.70930000
vn -0.66110000 0.41910000 0.62230000
vn -0.57480000 0.64900000 0.49840000
vn -0.39580000 0.83260000 0.38740000
vn -0.27400000 0.88630000 0.37340000
vn -0.27400000 0.88630000 0.37340000
vn -0.26380000 -0.94070000 0.21320000
vn -0.26380000 -0.94070000 0.21320000
vn -0.72110000 -0.02480000 0.69240000
vn -0.72110000 -0.02480000 0.69240000
vn -0.84850000 -0.15810000 0.50500000
vn -0.54820000 -0.79010000 0.27430000
vn -0.63040000 0.51370000 0.58210000
vn -0.82130000 -0.11550000 0.55870000
vn -0.82130000 -0.11550000 0.55870000
vn -0.73820000 -0.56560000 0.36760000
vn 0.13540000 0.89450000 0.42600000
vn 0.13540000 0.89450000 0.42600000
vn 0.12540000 -0.95180000 0.27980000
vn 0.12540000 -0.95180000 0.27980000
vn 0.39920000 -0.86480000 0.30460000
vn 0.39920000 -0.86480000 0.30460000
vn 0.64730000 -0.66550000 0.37150000
vn 0.64730000 -0.66550000 0.37150000
vn 0.76540000 -0.44770000 0.46240000
vn 0.76540000 -0.44770000 0.46240000
vn 0.81240000 -0.24400000 0.52970000
vn 0.81240000 -0.24400000 0.52970000
vn 0.81480000 -0.13270000 0.56440000
vn 0.81480000 -0.13270000 0.56440000
vn 0.74220000 -0.09500000 0.66340000
vn 0.74220000 -0.09500000 0.66340000
vn 0.66080000 0.10690000 0.74300000
vn 0.66080000 0.10690000 0.74300000
vn 0.63600000 0.37050000 0.67690000
vn 0.63600000 0.37050000 0.67690000
vn 0.55820000 0.60670000 0.56590000
vn 0.55820000 0.60670000 0.56590000
vn 0.37530000 0.79780000 0.47180000
vn 0.37530000 0.79780000 0.47180000
vn 0.12510000 0.84280000 0.52350000
vn -0.14670000 -0.57120000 0.80760000
vn -0.09880000 0.61560000 0.78190000
vn 0.11950000 -0.91750000 0.37930000
vn 0.38360000 -0.83650000 0.39140000
vn -0.37300000 0.65530000 0.65690000
vn -0.66870000 0.46310000 0.58170000
vn 0.62250000 -0.64760000 0.43940000
vn 0.74110000 -0.43140000 0.51450000
vn -0.81450000 0.12520000 0.56650000
vn -0.76420000 -0.20700000 0.61090000
vn 0.77890000 -0.24570000 0.57690000
vn 0.76990000 -0.14260000 0.62210000
vn -0.67150000 -0.34730000 0.65460000
vn -0.72890000 -0.26610000 0.63090000
vn 0.69800000 -0.07920000 0.71170000
vn -0.79410000 -0.07830000 0.60280000
vn 0.62910000 0.08990000 0.77210000
vn 0.60990000 0.32210000 0.72400000
vn -0.78790000 -0.04990000 0.61380000
vn -0.68410000 -0.23270000 0.69130000
vn 0.53930000 0.55740000 0.63120000
vn 0.35400000 0.75300000 0.55470000
vn -0.43220000 -0.46140000 0.77480000
vn 0.75630000 -0.12000000 0.64310000
vn 0.79180000 -0.18580000 0.58180000
vn 0.79180000 -0.18580000 0.58180000
vn 0.70270000 -0.54490000 0.45750000
vn 0.70270000 -0.54490000 0.45750000
vn 0.52050000 -0.75860000 0.39190000
vn 0.45830000 0.68530000 0.56590000
vn 0.45830000 0.68530000 0.56590000
vn 0.59100000 0.46390000 0.65990000
vn 0.59100000 0.46390000 0.65990000
vn 0.24550000 0.82470000 0.50950000
vn 0.24550000 0.82470000 0.50950000
vn 0.66520000 -0.01190000 0.74650000
vn 0.77260000 -0.33850000 0.53710000
vn 0.25090000 -0.90040000 0.35550000
vn 0.62500000 0.22440000 0.74770000
vn 0.49380000 0.73720000 0.46120000
vn 0.66960000 0.25890000 0.69620000
vn 0.66960000 0.25890000 0.69620000
vn 0.81560000 -0.34000000 0.46820000
vn 0.81560000 -0.34000000 0.46820000
vn -0.14680000 -0.57120000 0.80760000
vn -0.08020000 0.61860000 0.78160000
vn -0.35290000 0.66490000 0.65830000
vn -0.66280000 0.47020000 0.58270000
vn -0.81590000 0.12810000 0.56390000
vn -0.76810000 -0.21950000 0.60160000
vn -0.67150000 -0.34810000 0.65420000
vn -0.73000000 -0.25760000 0.63310000
vn -0.79420000 -0.07690000 0.60280000
vn -0.78730000 -0.05240000 0.61440000
vn -0.68360000 -0.23350000 0.69150000
vn -0.43110000 -0.46210000 0.77500000
vn -0.20930000 0.65950000 0.72200000
vn -0.28850000 -0.53150000 0.79640000
vn -0.52500000 0.59310000 0.61040000
vn -0.76430000 0.30490000 0.56830000
vn -0.81480000 -0.05790000 0.57680000
vn -0.70230000 -0.31240000 0.63970000
vn -0.68740000 -0.32700000 0.64850000
vn -0.77090000 -0.16580000 0.61500000
vn -0.79870000 -0.03680000 0.60060000
vn -0.75370000 -0.12110000 0.64600000
vn -0.57160000 -0.35720000 0.73870000
vn 0.14630000 0.93530000 0.32210000
vn 0.12820000 -0.97620000 0.17480000
vn 0.41010000 -0.88730000 0.21090000
vn 0.67110000 -0.67880000 0.29820000
vn 0.79000000 -0.45930000 0.40610000
vn 0.84510000 -0.23830000 0.47860000
vn 0.85810000 -0.11420000 0.50060000
vn 0.78810000 -0.11150000 0.60530000
vn 0.69360000 0.12560000 0.70930000
vn 0.66110000 0.41910000 0.62230000
vn 0.57480000 0.64900000 0.49840000
vn 0.39580000 0.83260000 0.38740000
vn 0.27400000 0.88630000 0.37340000
vn 0.27400000 0.88630000 0.37340000
vn 0.26380000 -0.94070000 0.21320000
vn 0.26380000 -0.94070000 0.21320000
vn 0.72110000 -0.02480000 0.69240000
vn 0.72110000 -0.02480000 0.69240000
vn 0.84850000 -0.15810000 0.50500000
vn 0.54820000 -0.79010000 0.27430000
vn 0.54820000 -0.79010000 0.27430000
vn 0.63040000 0.51370000 0.58210000
vn 0.63040000 0.51370000 0.58210000
vn 0.82130000 -0.11550000 0.55870000
vn 0.73820000 -0.56560000 0.36760000
vn 0.73820000 -0.56560000 0.36760000
vn -0.12820000 -0.97060000 0.20390000
vn -0.39180000 0.82340000 0.41060000
vn -0.83730000 -0.23510000 0.49370000
vn -0.68590000 0.11150000 0.71910000
vn -0.40700000 -0.88220000 0.23690000
vn -0.57590000 0.63040000 0.52050000
vn -0.65700000 0.39290000 0.64340000
vn -0.84570000 -0.11840000 0.52030000
vn -0.66360000 -0.67710000 0.31800000
vn -0.14280000 0.92550000 0.35070000
vn -0.77350000 -0.10370000 0.62520000
vn -0.78380000 -0.45540000 0.42220000
vn -0.78330000 -0.14400000 0.60470000
vn -0.62920000 -0.65310000 0.42130000
vn -0.53940000 0.57980000 0.61070000
vn -0.12720000 0.85810000 0.49750000
vn -0.71150000 -0.08670000 0.69740000
vn -0.74650000 -0.43970000 0.49940000
vn -0.35690000 0.76820000 0.53150000
vn -0.12100000 -0.92790000 0.35270000
vn -0.63670000 0.10000000 0.76460000
vn -0.78740000 -0.25090000 0.56300000
vn -0.38830000 -0.84470000 0.36840000
vn -0.61510000 0.34630000 0.70840000
vn 0.14680000 -0.57120000 0.80760000
vn 0.08950000 0.61680000 0.78200000
vn 0.36210000 0.66020000 0.65800000
vn 0.66580000 0.46660000 0.58220000
vn 0.81540000 0.12550000 0.56520000
vn 0.76570000 -0.21390000 0.60660000
vn 0.67150000 -0.34770000 0.65440000
vn 0.72940000 -0.26190000 0.63190000
vn 0.79410000 -0.07760000 0.60280000
vn 0.78760000 -0.05110000 0.61410000
vn 0.68390000 -0.23300000 0.69140000
vn 0.43170000 -0.46170000 0.77490000
vn 0.12820000 -0.97060000 0.20390000
vn 0.39180000 0.82340000 0.41060000
vn 0.83730000 -0.23510000 0.49370000
vn 0.68590000 0.11150000 0.71910000
vn 0.40700000 -0.88220000 0.23690000
vn 0.57590000 0.63040000 0.52050000
vn 0.65700000 0.39290000 0.64340000
vn 0.84570000 -0.11840000 0.52030000
vn 0.66360000 -0.67710000 0.31800000
vn 0.14280000 0.92550000 0.35070000
vn 0.77350000 -0.10370000 0.62520000
vn 0.78380000 -0.45540000 0.42220000
vn 0.78330000 -0.14400000 0.60470000
vn 0.62920000 -0.65310000 0.42130000
vn 0.53940000 0.57980000 0.61070000
vn 0.12720000 0.85810000 0.49750000
vn 0.71150000 -0.08670000 0.69740000
vn 0.74650000 -0.43970000 0.49940000
vn 0.35690000 0.76820000 0.53150000
vn 0.12100000 -0.92790000 0.35270000
vn 0.63670000 0.10000000 0.76460000
vn 0.78740000 -0.25090000 0.56300000
vn 0.38830000 -0.84470000 0.36840000
vn 0.61510000 0.34630000 0.70840000
vn -0.14680000 -0.57120000 0.80760000
vn -0.08950000 0.61680000 0.78200000
vn -0.36210000 0.66020000 0.65800000
vn -0.66580000 0.46660000 0.58220000
vn -0.81540000 0.12550000 0.56520000
vn -0.76570000 -0.21390000 0.60660000
vn -0.67150000 -0.34770000 0.65440000
vn -0.72940000 -0.26190000 0.63190000
vn -0.79410000 -0.07760000 0.60280000
vn -0.78760000 -0.05110000 0.61410000
vn -0.68390000 -0.23300000 0.69140000
vn -0.43170000 -0.46170000 0.77490000
vt 0.94841800 0.48458000
vt 0.96162200 0.20798200
vt 0.93565000 0.07612800
vt 0.81143000 0.58125200
vt 0.81143000 0.58125200
vt 0.86079500 0.06384700
vt 0.86079500 0.06384700
vt 0.86306300 0.56101200
vt 0.86306300 0.56101200
vt 0.86306300 0.56101200
vt 0.90353500 0.52482900
vt 0.90353500 0.52482900
vt 0.93075800 0.47465900
vt 0.93075800 0.47465900
vt 0.93075800 0.47465900
vt 0.94203000 0.41247000
vt 0.94203000 0.41247000
vt 0.94203000 0.41247000
vt 0.94079200 0.34432100
vt 0.94079200 0.34432100
vt 0.94079200 0.34432100
vt 0.93749300 0.27844300
vt 0.93815500 0.21483300
vt 0.93815500 0.21483300
vt 0.93815500 0.21483300
vt 0.93104800 0.15335900
vt 0.93104800 0.15335900
vt 0.93104800 0.15335900
vt 0.90628500 0.10171900
vt 0.90628500 0.10171900
vt 0.90628500 0.10171900
vt 0.80862300 0.56877000
vt 0.80862300 0.56877000
vt 0.84645300 0.09464600
vt 0.84645300 0.09464600
vt 0.85539300 0.54948300
vt 0.85539300 0.54948300
vt 0.89143900 0.51492800
vt 0.89143900 0.51492800
vt 0.91497600 0.46580700
vt 0.91497600 0.46580700
vt 0.92393700 0.40520500
vt 0.92393700 0.40520500
vt 0.92247100 0.34068100
vt 0.92247100 0.34068100
vt 0.91907500 0.27993900
vt 0.91907500 0.27993900
vt 0.91666500 0.22302700
vt 0.91666500 0.22302700
vt 0.90740000 0.16954900
vt 0.90740000 0.16954900
vt 0.88459600 0.12562700
vt 0.88459600 0.12562700
vt 0.80713700 0.55818400
vt 0.84336200 0.10204300
vt 0.84742900 0.53902200
vt 0.87936400 0.50914300
vt 0.90317500 0.46541700
vt 0.91485000 0.40555800
vt 0.91206900 0.34023700
vt 0.90790100 0.27956800
vt 0.90682500 0.22374300
vt 0.89892600 0.17123000
vt 0.87867300 0.13040000
vt 0.81496900 0.59670400
vt 0.88067000 0.02983200
vt 0.87255700 0.57480900
vt 0.91731200 0.53576600
vt 0.96162200 0.42053200
vt 0.95845900 0.34723700
vt 0.95309000 0.27733000
vt 0.96037600 0.13494500
vt 0.75181400 0.59941700
vt 0.80422900 0.00685200
vt 0.56805600 0.45864400
vt 0.60638400 0.17311300
vt 0.65970600 0.04657800
vt 0.75235000 0.58538200
vt 0.75235000 0.58538200
vt 0.80004600 0.04554500
vt 0.80004600 0.04554500
vt 0.80004600 0.04554500
vt 0.69354400 0.57607700
vt 0.69354400 0.57607700
vt 0.69354400 0.57607700
vt 0.73652000 0.05058000
vt 0.73652000 0.05058000
vt 0.73652000 0.05058000
vt 0.73652000 0.05058000
vt 0.64346900 0.55049700
vt 0.64346900 0.55049700
vt 0.60749100 0.50783000
vt 0.60749100 0.50783000
vt 0.60749100 0.50783000
vt 0.58816300 0.45144800
vt 0.58816300 0.45144800
vt 0.58769500 0.38504700
vt 0.58769500 0.38504700
vt 0.58769500 0.38504700
vt 0.60128600 0.31527200
vt 0.60128600 0.31527200
vt 0.60128600 0.31527200
vt 0.61691500 0.24896200
vt 0.61691500 0.24896200
vt 0.61691500 0.24896200
vt 0.62868800 0.18472300
vt 0.62868800 0.18472300
vt 0.64816000 0.12456100
vt 0.64816000 0.12456100
vt 0.68346600 0.07830000
vt 0.68346600 0.07830000
vt 0.75289200 0.57312200
vt 0.75289200 0.57312200
vt 0.79643100 0.07965800
vt 0.79643000 0.07965800
vt 0.79643100 0.07965800
vt 0.69756900 0.56380100
vt 0.69756900 0.56380100
vt 0.74417600 0.08396400
vt 0.74417600 0.08396400
vt 0.65268700 0.53983500
vt 0.65268700 0.53983500
vt 0.62146600 0.49964000
vt 0.62146600 0.49964000
vt 0.60604600 0.44509500
vt 0.60604600 0.44509500
vt 0.60768200 0.38077800
vt 0.60768200 0.38077800
vt 0.62065400 0.31487500
vt 0.62065400 0.31487500
vt 0.63523200 0.25394600
vt 0.63523200 0.25394600
vt 0.64867100 0.19717500
vt 0.64867100 0.19717500
vt 0.66850400 0.14548600
vt 0.66850400 0.14548600
vt 0.69996800 0.10649400
vt 0.69996800 0.10649400
vt 0.75338100 0.56316100
vt 0.79566300 0.08707500
vt 0.70005700 0.55329000
vt 0.74580900 0.09194900
vt 0.66174500 0.53104500
vt 0.63465100 0.49599700
vt 0.61836000 0.44695500
vt 0.61706000 0.38259900
vt 0.63126400 0.31615100
vt 0.64639300 0.25558600
vt 0.65840600 0.19973700
vt 0.67669800 0.14875200
vt 0.70473300 0.11243700
vt 0.68868900 0.59142600
vt 0.72433300 0.01273600
vt 0.63191200 0.56391600
vt 0.59138300 0.51710800
vt 0.56597100 0.38973400
vt 0.58264400 0.31485900
vt 0.60123500 0.24477000
vt 0.62253600 0.10007600
vt 0.79823900 0.06258000
vt 0.79823900 0.06258000
vt 0.75262000 0.57925300
vt 0.75262000 0.57925300
vt 0.75208300 0.59165700
vt 0.80189800 0.02818200
vt 0.80189800 0.02818200
vt 0.83163900 0.05193100
vt 0.83163900 0.05193100
vt 0.78240200 0.58511800
vt 0.78240200 0.58511800
vt 0.83848600 0.57322000
vt 0.83848500 0.57321900
vt 0.88481000 0.54478900
vt 0.88481000 0.54478900
vt 0.91901700 0.50140700
vt 0.93834800 0.44479800
vt 0.93834800 0.44479800
vt 0.94239700 0.37854000
vt 0.93871000 0.31095200
vt 0.93871000 0.31095200
vt 0.93785500 0.24651000
vt 0.93785500 0.24651000
vt 0.93633800 0.18338600
vt 0.93633800 0.18338600
vt 0.92122300 0.12601800
vt 0.92122300 0.12601800
vt 0.88597000 0.08073000
vt 0.88597000 0.08073000
vt 0.82241400 0.08489100
vt 0.82241400 0.08489100
vt 0.78142300 0.57272000
vt 0.78142300 0.57272000
vt 0.83333600 0.56104200
vt 0.83333600 0.56104200
vt 0.87482200 0.53409700
vt 0.87482200 0.53409700
vt 0.90496800 0.49207700
vt 0.90496800 0.49207700
vt 0.92116700 0.43654700
vt 0.92116700 0.43654700
vt 0.92397600 0.37284700
vt 0.92397600 0.37284700
vt 0.92060600 0.30970500
vt 0.92060600 0.30970500
vt 0.91811800 0.25114500
vt 0.91811800 0.25114500
vt 0.91340600 0.19552300
vt 0.91340600 0.19552300
vt 0.89790400 0.14611500
vt 0.89790400 0.14611500
vt 0.86735600 0.10835800
vt 0.86735600 0.10835800
vt 0.93172700 0.34251600
vt 0.93172700 0.34251600
vt 0.93309900 0.40890700
vt 0.89754200 0.51997100
vt 0.89754200 0.51997100
vt 0.85925800 0.55530300
vt 0.85925800 0.55530300
vt 0.89519300 0.11363500
vt 0.89519300 0.11363500
vt 0.91905900 0.16144000
vt 0.91905800 0.16144000
vt 0.85344100 0.07918400
vt 0.85344100 0.07918400
vt 0.92833100 0.27914700
vt 0.92297100 0.47033400
vt 0.81004500 0.57503200
vt 0.81004500 0.57503200
vt 0.92737700 0.21886200
vt 0.91861900 0.08975500
vt 0.94917700 0.21108300
vt 0.94917700 0.21108300
vt 0.93844800 0.47882700
vt 0.93844800 0.47882700
vt 0.81951300 0.09455900
vt 0.78025900 0.56067300
vt 0.82728300 0.54860300
vt 0.86339700 0.52408300
vt 0.89127000 0.48728000
vt 0.90901300 0.43548800
vt 0.91346000 0.37289700
vt 0.90998500 0.30990200
vt 0.90736300 0.25165500
vt 0.90287600 0.19748600
vt 0.88880000 0.15081500
vt 0.86101700 0.11622200
vt 0.75316600 0.56711100
vt 0.79589700 0.08474400
vt 0.79589700 0.08474400
vt 0.80694500 0.56249200
vt 0.84404700 0.09927500
vt 0.85083000 0.54350900
vt 0.88483700 0.51107400
vt 0.90823300 0.46449200
vt 0.91839000 0.40500200
vt 0.91717400 0.34078200
vt 0.91370300 0.28009000
vt 0.91127100 0.22361500
vt 0.90230500 0.17120000
vt 0.88058800 0.12888000
vt 0.84245000 0.01834200
vt 0.78339200 0.59806000
vt 0.84376300 0.58575700
vt 0.89493400 0.55528700
vt 0.93286500 0.51017300
vt 0.95502000 0.45255600
vt 0.96004100 0.38388400
vt 0.95577500 0.31228300
vt 0.95735600 0.24265600
vt 0.96099900 0.17146300
vt 0.94801300 0.10553600
vt 0.90816000 0.05298000
vt 0.86905900 0.04839600
vt 0.86905900 0.04839600
vt 0.81283100 0.58766700
vt 0.81283100 0.58766700
vt 0.94630400 0.27788100
vt 0.94630400 0.27788100
vt 0.95080500 0.41592800
vt 0.86694900 0.56677500
vt 0.94391600 0.14512600
vt 0.94956800 0.34602900
vt 0.94956800 0.34602900
vt 0.90953100 0.52954700
vt 0.76774400 0.04508700
vt 0.76774400 0.04508700
vt 0.72235200 0.58251700
vt 0.72235200 0.58251700
vt 0.66699900 0.56547700
vt 0.66699900 0.56547700
vt 0.62354500 0.53112700
vt 0.62354500 0.53112700
vt 0.59554400 0.48114600
vt 0.59554400 0.48114600
vt 0.58567800 0.41915800
vt 0.58567800 0.41915800
vt 0.59343100 0.35003400
vt 0.59343100 0.35003400
vt 0.60955200 0.28167700
vt 0.60955200 0.28167700
vt 0.62273500 0.21665300
vt 0.62273500 0.21665300
vt 0.63679800 0.15353300
vt 0.63679800 0.15353300
vt 0.66355800 0.09931500
vt 0.66355800 0.09931500
vt 0.70804600 0.06184800
vt 0.70804600 0.06184800
vt 0.76987400 0.07940100
vt 0.76987400 0.07940100
vt 0.72444900 0.57018000
vt 0.72444900 0.57018000
vt 0.67352000 0.55378700
vt 0.67352000 0.55378800
vt 0.63525200 0.52171700
vt 0.63525200 0.52171700
vt 0.61161400 0.47394500
vt 0.61161400 0.47394500
vt 0.60493300 0.41369200
vt 0.60493300 0.41369200
vt 0.61338400 0.34748600
vt 0.61338400 0.34748600
vt 0.62815500 0.28374700
vt 0.62815500 0.28374700
vt 0.64171200 0.22513000
vt 0.64171200 0.22513000
vt 0.65736200 0.17025200
vt 0.65736200 0.17025200
vt 0.68261700 0.12406800
vt 0.68261700 0.12406800
vt 0.72063500 0.09306000
vt 0.72063500 0.09306000
vt 0.61087200 0.31507500
vt 0.59755800 0.38296600
vt 0.59755800 0.38296600
vt 0.61441000 0.50381500
vt 0.61441000 0.50381500
vt 0.64804300 0.54520900
vt 0.69196900 0.09242100
vt 0.69196900 0.09242100
vt 0.65849900 0.13505200
vt 0.65849900 0.13505200
vt 0.74053400 0.06725300
vt 0.74053400 0.06725300
vt 0.62603600 0.25140400
vt 0.59698100 0.44835600
vt 0.69553500 0.56995500
vt 0.63872500 0.19089200
vt 0.67374400 0.06382800
vt 0.61834600 0.17876500
vt 0.61834600 0.17876500
vt 0.57946100 0.45440500
vt 0.57946100 0.45440500
vt 0.77073600 0.08951200
vt 0.72671900 0.55822600
vt 0.68090100 0.54216800
vt 0.64819800 0.51352100
vt 0.62650600 0.47147600
vt 0.61771000 0.41477700
vt 0.62416200 0.34937500
vt 0.63882900 0.28586800
vt 0.65240000 0.22766100
vt 0.66755200 0.17424400
vt 0.69071600 0.13059400
vt 0.72527100 0.10219300
vt 0.69985600 0.55768600
vt 0.74560200 0.08904100
vt 0.65799500 0.53455100
vt 0.62880900 0.49684700
vt 0.61324400 0.44496200
vt 0.61344700 0.38154300
vt 0.62602300 0.31592100
vt 0.64059600 0.25509400
vt 0.65397400 0.19879400
vt 0.67327700 0.14813800
vt 0.70325600 0.11056400
vt 0.76428100 0.00979400
vt 0.72025200 0.59542200
vt 0.66030100 0.57767100
vt 0.61164800 0.54051200
vt 0.57972000 0.48787600
vt 0.56701400 0.42418900
vt 0.57430800 0.35229600
vt 0.59193900 0.27981400
vt 0.60380900 0.20894200
vt 0.61446000 0.13659400
vt 0.64112100 0.07332700
vt 0.69201900 0.02965700
vt 0.73167300 0.03358100
vt 0.73167300 0.03358100
vt 0.69153600 0.58241300
vt 0.69153600 0.58241300
vt 0.60810400 0.24670700
vt 0.60810400 0.24670700
vt 0.57800500 0.38703000
vt 0.63878400 0.55590900
vt 0.63878400 0.55590900
vt 0.63697400 0.11370400
vt 0.63697400 0.11370400
vt 0.59200000 0.31539900
vt 0.60056300 0.51174000
vt 0.60056300 0.51174000
vt 0.78286800 0.59138900
vt 0.89647200 0.06704500
vt 0.94656100 0.44861300
vt 0.94764800 0.24449400
vt 0.84102000 0.57927300
vt 0.93402400 0.11594600
vt 0.94834000 0.17745700
vt 0.95119900 0.38121600
vt 0.88972700 0.54991000
vt 0.83677100 0.03545600
vt 0.94739800 0.31163000
vt 0.92580300 0.50571800
vt 0.93329500 0.37573700
vt 0.87985500 0.53951800
vt 0.90934300 0.13605000
vt 0.82692600 0.06836800
vt 0.92973300 0.31031300
vt 0.91207300 0.49684400
vt 0.87642900 0.09448500
vt 0.78192200 0.57892600
vt 0.92800100 0.24876000
vt 0.92987200 0.44076200
vt 0.83593400 0.56716800
vt 0.92477500 0.18941400
vt 0.82086200 0.08995600
vt 0.78075000 0.56649500
vt 0.83015800 0.55465000
vt 0.86899500 0.52891900
vt 0.89797800 0.48947000
vt 0.91490500 0.43586700
vt 0.91860800 0.37286700
vt 0.91530700 0.30987000
vt 0.91271500 0.25145700
vt 0.90800800 0.19660900
vt 0.89316100 0.14863300
vt 0.86399600 0.11246900
vt 0.72133400 0.58876500
vt 0.70056800 0.04608200
vt 0.57649000 0.42163200
vt 0.61325500 0.21271100
vt 0.66377900 0.57133300
vt 0.65289800 0.08663200
vt 0.62595500 0.14517500
vt 0.58389400 0.35118600
vt 0.61778100 0.53566700
vt 0.76619600 0.02781600
vt 0.60059500 0.28074200
vt 0.58780100 0.48444400
vt 0.60328900 0.34878900
vt 0.62935100 0.52648500
vt 0.67330900 0.11173000
vt 0.76891100 0.06222500
vt 0.61878300 0.28268600
vt 0.60348100 0.47763300
vt 0.71457900 0.07745300
vt 0.72338800 0.57635400
vt 0.63222300 0.22082600
vt 0.59517200 0.41649800
vt 0.67023200 0.55966000
vt 0.64718400 0.16187700
vt 0.77035100 0.08470300
vt 0.72569100 0.56401400
vt 0.67739300 0.54780300
vt 0.64187800 0.51743300
vt 0.61923900 0.47250700
vt 0.61153300 0.41411400
vt 0.61888700 0.34845600
vt 0.63347700 0.28488200
vt 0.64707800 0.22646200
vt 0.66256800 0.17238400
vt 0.68682400 0.12754300
vt 0.72310500 0.09784500
f 78/78/78 170/170/170 404/404/404
f 170/170/170 4/4/4 276/276/276
f 404/404/404 276/276/276 65/65/65
f 164/164/164 404/404/404 263/263/263
f 30/30/30 187/187/187 405/405/405
f 187/187/187 7/7/7 274/274/274
f 405/405/405 274/274/274 66/66/66
f 231/231/231 405/405/405 273/273/273
f 13/13/13 176/176/176 406/406/406
f 176/176/176 18/18/18 280/280/280
f 406/406/406 280/280/280 69/69/69
f 234/234/234 406/406/406 267/267/267
f 22/22/22 182/182/182 407/407/407
f 182/182/182 25/25/25 233/233/233
f 407/407/407 233/233/233 2/2/2
f 279/279/279 407/407/407 270/270/270
f 65/65/65 277/277/277 408/408/408
f 277/277/277 5/5/5 172/172/172
f 408/408/408 172/172/172 9/9/9
f 264/264/264 408/408/408 281/281/281
f 27/27/27 186/186/186 409/409/409
f 186/186/186 30/30/30 231/231/231
f 409/409/409 231/231/231 3/3/3
f 282/282/282 409/409/409 272/272/272
f 2/2/2 232/232/232 410/410/410
f 232/232/232 23/23/23 183/183/183
f 410/410/410 183/183/183 26/26/26
f 271/271/271 410/410/410 282/282/282
f 18/18/18 178/178/178 411/411/411
f 178/178/178 19/19/19 284/284/284
f 411/411/411 284/284/284 70/70/70
f 280/280/280 411/411/411 268/268/268
f 8/8/8 174/174/174 412/412/412
f 174/174/174 12/12/12 285/285/285
f 412/412/412 285/285/285 68/68/68
f 281/281/281 412/412/412 265/265/265
f 66/66/66 275/275/275 413/413/413
f 275/275/275 7/7/7 168/168/168
f 413/413/413 168/168/168 80/80/80
f 262/262/262 413/413/413 166/166/166
f 70/70/70 283/283/283 414/414/414
f 283/283/283 21/21/21 180/180/180
f 414/414/414 180/180/180 22/22/22
f 269/269/269 414/414/414 278/278/278
f 68/68/68 285/285/285 415/415/415
f 285/285/285 12/12/12 175/175/175
f 415/415/415 175/175/175 15/15/15
f 266/266/266 415/415/415 235/235/235
f 42/42/42 201/201/201 416/416/416
f 201/201/201 45/45/45 213/213/213
f 416/416/416 213/213/213 21/21/21
f 215/215/215 416/416/416 178/178/178
f 36/36/36 196/196/196 417/417/417
f 196/196/196 39/39/39 217/217/217
f 417/417/417 217/217/217 11/11/11
f 218/218/218 417/417/417 173/173/173
f 51/51/51 209/209/209 418/418/418
f 209/209/209 52/52/52 221/221/221
f 418/418/418 221/221/221 29/29/29
f 222/222/222 418/418/418 185/185/185
f 35/35/35 190/190/190 419/419/419
f 190/190/190 116/116/116 160/160/160
f 419/419/419 160/160/160 81/81/81
f 224/224/224 419/419/419 167/167/167
f 20/20/20 214/214/214 420/420/420
f 214/214/214 45/45/45 203/203/203
f 420/420/420 203/203/203 47/47/47
f 179/179/179 420/420/420 226/226/226
f 12/12/12 216/216/216 421/421/421
f 216/216/216 39/39/39 198/198/198
f 421/421/421 198/198/198 41/41/41
f 175/175/175 421/421/421 227/227/227
f 31/31/31 220/220/220 422/422/422
f 220/220/220 52/52/52 212/212/212
f 422/422/422 212/212/212 35/35/35
f 188/188/188 422/422/422 225/225/225
f 112/112/112 192/192/192 423/423/423
f 192/192/192 32/32/32 228/228/228
f 423/423/423 228/228/228 5/5/5
f 163/163/163 423/423/423 169/169/169
f 22/22/22 226/226/226 424/424/424
f 226/226/226 47/47/47 205/205/205
f 424/424/424 205/205/205 48/48/48
f 181/181/181 424/424/424 230/230/230
f 14/14/14 227/227/227 425/425/425
f 227/227/227 41/41/41 199/199/199
f 425/425/425 199/199/199 42/42/42
f 177/177/177 425/425/425 215/215/215
f 5/5/5 229/229/229 426/426/426
f 229/229/229 32/32/32 194/194/194
f 426/426/426 194/194/194 36/36/36
f 171/171/171 426/426/426 219/219/219
f 24/24/24 230/230/230 427/427/427
f 230/230/230 48/48/48 207/207/207
f 427/427/427 207/207/207 51/51/51
f 184/184/184 427/427/427 223/223/223
f 114/114/114 189/189/189 428/428/428
f 189/189/189 34/34/34 252/252/252
f 428/428/428 252/252/252 55/55/55
f 249/249/249 428/428/428 236/236/236
f 33/33/33 191/191/191 429/429/429
f 191/191/191 113/113/113 248/248/248
f 429/429/429 248/248/248 139/139/139
f 251/251/251 429/429/429 237/237/237
f 37/37/37 193/193/193 430/430/430
f 193/193/193 33/33/33 251/251/251
f 430/430/430 251/251/251 54/54/54
f 253/253/253 430/430/430 238/238/238
f 38/38/38 195/195/195 431/431/431
f 195/195/195 37/37/37 253/253/253
f 431/431/431 253/253/253 56/56/56
f 254/254/254 431/431/431 239/239/239
f 40/40/40 197/197/197 432/432/432
f 197/197/197 38/38/38 254/254/254
f 432/432/432 254/254/254 57/57/57
f 255/255/255 432/432/432 240/240/240
f 43/43/43 200/200/200 433/433/433
f 200/200/200 40/40/40 255/255/255
f 433/433/433 255/255/255 58/58/58
f 256/256/256 433/433/433 241/241/241
f 44/44/44 202/202/202 434/434/434
f 202/202/202 43/43/43 256/256/256
f 434/434/434 256/256/256 59/59/59
f 257/257/257 434/434/434 242/242/242
f 46/46/46 204/204/204 435/435/435
f 204/204/204 44/44/44 257/257/257
f 435/435/435 257/257/257 60/60/60
f 258/258/258 435/435/435 243/243/243
f 49/49/49 206/206/206 436/436/436
f 206/206/206 46/46/46 258/258/258
f 436/436/436 258/258/258 61/61/61
f 259/259/259 436/436/436 244/244/244
f 50/50/50 208/208/208 437/437/437
f 208/208/208 49/49/49 259/259/259
f 437/437/437 259/259/259 62/62/62
f 260/260/260 437/437/437 245/245/245
f 53/53/53 210/210/210 438/438/438
f 210/210/210 50/50/50 260/260/260
f 438/438/438 260/260/260 63/63/63
f 261/261/261 438/438/438 246/246/246
f 34/34/34 211/211/211 439/439/439
f 211/211/211 53/53/53 261/261/261
f 439/439/439 261/261/261 64/64/64
f 252/252/252 439/439/439 247/247/247
f 78/78/78 164/164/164 440/440/440
f 164/164/164 73/73/73 379/379/379
f 440/440/440 379/379/379 152/152/152
f 289/289/289 440/440/440 392/392/392
f 111/111/111 350/350/350 441/441/441
f 350/350/350 77/77/77 389/389/389
f 441/441/441 389/389/389 153/153/153
f 308/308/308 441/441/441 390/390/390
f 95/95/95 353/353/353 442/442/442
f 353/353/353 75/75/75 383/383/383
f 442/442/442 383/383/383 156/156/156
f 297/297/297 442/442/442 396/396/396
f 104/104/104 395/395/395 443/443/443
f 395/395/395 158/158/158 386/386/386
f 443/443/443 386/386/386 76/76/76
f 302/302/302 443/443/443 351/351/351
f 152/152/152 380/380/380 444/444/444
f 380/380/380 154/154/154 398/398/398
f 444/444/444 398/398/398 90/90/90
f 393/393/393 444/444/444 291/291/291
f 108/108/108 399/399/399 445/445/445
f 399/399/399 159/159/159 388/388/388
f 445/445/445 388/388/388 77/77/77
f 307/307/307 445/445/445 350/350/350
f 76/76/76 387/387/387 446/446/446
f 387/387/387 159/159/159 400/400/400
f 446/446/446 400/400/400 108/108/108
f 352/352/352 446/446/446 305/305/305
f 99/99/99 396/396/396 447/447/447
f 396/396/396 156/156/156 384/384/384
f 447/447/447 384/384/384 157/157/157
f 299/299/299 447/447/447 401/401/401
f 90/90/90 397/397/397 448/448/448
f 397/397/397 154/154/154 381/381/381
f 448/448/448 381/381/381 155/155/155
f 293/293/293 448/448/448 403/403/403
f 153/153/153 378/378/378 449/449/449
f 378/378/378 74/74/74 165/165/165
f 449/449/449 165/165/165 82/82/82
f 391/391/391 449/449/449 287/287/287
f 157/157/157 385/385/385 450/450/450
f 385/385/385 158/158/158 394/394/394
f 450/450/450 394/394/394 103/103/103
f 401/401/401 450/450/450 301/301/301
f 155/155/155 382/382/382 451/451/451
f 382/382/382 75/75/75 354/354/354
f 451/451/451 354/354/354 96/96/96
f 402/402/402 451/451/451 295/295/295
f 128/128/128 336/336/336 452/452/452
f 336/336/336 97/97/97 298/298/298
f 452/452/452 298/298/298 102/102/102
f 322/322/322 452/452/452 334/334/334
f 122/122/122 339/339/339 453/453/453
f 339/339/339 91/91/91 292/292/292
f 453/453/453 292/292/292 94/94/94
f 317/317/317 453/453/453 337/337/337
f 136/136/136 343/343/343 454/454/454
f 343/343/343 108/108/108 306/306/306
f 454/454/454 306/306/306 111/111/111
f 331/331/331 454/454/454 341/341/341
f 119/119/119 345/345/345 455/455/455
f 345/345/345 86/86/86 286/286/286
f 455/455/455 286/286/286 82/82/82
f 310/310/310 455/455/455 161/161/161
f 102/102/102 300/300/300 456/456/456
f 300/300/300 105/105/105 346/346/346
f 456/456/456 346/346/346 132/132/132
f 334/334/334 456/456/456 325/325/325
f 94/94/94 294/294/294 457/457/457
f 294/294/294 95/95/95 347/347/347
f 457/457/457 347/347/347 126/126/126
f 338/338/338 457/457/457 318/318/318
f 110/110/110 309/309/309 458/458/458
f 309/309/309 87/87/87 344/344/344
f 458/458/458 344/344/344 119/119/119
f 340/340/340 458/458/458 332/332/332
f 112/112/112 162/162/162 459/459/459
f 162/162/162 79/79/79 288/288/288
f 459/459/459 288/288/288 83/83/83
f 313/313/313 459/459/459 348/348/348
f 105/105/105 303/303/303 460/460/460
f 303/303/303 107/107/107 349/349/349
f 460/460/460 349/349/349 133/133/133
f 346/346/346 460/460/460 327/327/327
f 95/95/95 296/296/296 461/461/461
f 296/296/296 98/98/98 335/335/335
f 461/461/461 335/335/335 128/128/128
f 347/347/347 461/461/461 321/321/321
f 85/85/85 290/290/290 462/462/462
f 290/290/290 91/91/91 339/339/339
f 462/462/462 339/339/339 122/122/122
f 348/348/348 462/462/462 314/314/314
f 107/107/107 304/304/304 463/463/463
f 304/304/304 109/109/109 342/342/342
f 463/463/463 342/342/342 136/136/136
f 349/349/349 463/463/463 328/328/328
f 114/114/114 250/250/250 464/464/464
f 250/250/250 140/140/140 355/355/355
f 464/464/464 355/355/355 142/142/142
f 311/311/311 464/464/464 368/368/368
f 118/118/118 367/367/367 465/465/465
f 367/367/367 141/141/141 356/356/356
f 465/465/465 356/356/356 139/139/139
f 312/312/312 465/465/465 248/248/248
f 121/121/121 369/369/369 466/466/466
f 369/369/369 143/143/143 357/357/357
f 466/466/466 357/357/357 141/141/141
f 315/315/315 466/466/466 367/367/367
f 124/124/124 370/370/370 467/467/467
f 370/370/370 144/144/144 358/358/358
f 467/467/467 358/358/358 143/143/143
f 316/316/316 467/467/467 369/369/369
f 125/125/125 371/371/371 468/468/468
f 371/371/371 145/145/145 359/359/359
f 468/468/468 359/359/359 144/144/144
f 319/319/319 468/468/468 370/370/370
f 127/127/127 372/372/372 469/469/469
f 372/372/372 146/146/146 360/360/360
f 469/469/469 360/360/360 145/145/145
f 320/320/320 469/469/469 371/371/371
f 129/129/129 373/373/373 470/470/470
f 373/373/373 147/147/147 361/361/361
f 470/470/470 361/361/361 146/146/146
f 323/323/323 470/470/470 372/372/372
f 131/131/131 374/374/374 471/471/471
f 374/374/374 148/148/148 362/362/362
f 471/471/471 362/362/362 147/147/147
f 324/324/324 471/471/471 373/373/373
f 134/134/134 375/375/375 472/472/472
f 375/375/375 149/149/149 363/363/363
f 472/472/472 363/363/363 148/148/148
f 326/326/326 472/472/472 374/374/374
f 135/135/135 376/376/376 473/473/473
f 376/376/376 150/150/150 364/364/364
f 473/473/473 364/364/364 149/149/149
f 329/329/329 473/473/473 375/375/375
f 137/137/137 377/377/377 474/474/474
f 377/377/377 151/151/151 365/365/365
f 474/474/474 365/365/365 150/150/150
f 330/330/330 474/474/474 376/376/376
f 120/120/120 368/368/368 475/475/475
f 368/368/368 142/142/142 366/366/366
f 475/475/475 366/366/366 151/151/151
f 333/333/333 475/475/475 377/377/377
f 404/404/404 164/164/164 78/78/78
f 276/276/276 404/404/404 170/170/170
f 65/65/65 263/263/263 404/404/404
f 263/263/263 73/73/73 164/164/164
f 405/405/405 231/231/231 30/30/30
f 274/274/274 405/405/405 187/187/187
f 66/66/66 273/273/273 405/405/405
f 273/273/273 3/3/3 231/231/231
f 406/406/406 234/234/234 13/13/13
f 280/280/280 406/406/406 176/176/176
f 69/69/69 267/267/267 406/406/406
f 267/267/267 1/1/1 234/234/234
f 407/407/407 279/279/279 22/22/22
f 233/233/233 407/407/407 182/182/182
f 2/2/2 270/270/270 407/407/407
f 270/270/270 71/71/71 279/279/279
f 408/408/408 264/264/264 65/65/65
f 172/172/172 408/408/408 277/277/277
f 9/9/9 281/281/281 408/408/408
f 281/281/281 67/67/67 264/264/264
f 409/409/409 282/282/282 27/27/27
f 231/231/231 409/409/409 186/186/186
f 3/3/3 272/272/272 409/409/409
f 272/272/272 72/72/72 282/282/282
f 410/410/410 271/271/271 2/2/2
f 183/183/183 410/410/410 232/232/232
f 26/26/26 282/282/282 410/410/410
f 282/282/282 72/72/72 271/271/271
f 411/411/411 280/280/280 18/18/18
f 284/284/284 411/411/411 178/178/178
f 70/70/70 268/268/268 411/411/411
f 268/268/268 69/69/69 280/280/280
f 412/412/412 281/281/281 8/8/8
f 285/285/285 412/412/412 174/174/174
f 68/68/68 265/265/265 412/412/412
f 265/265/265 67/67/67 281/281/281
f 413/413/413 262/262/262 66/66/66
f 168/168/168 413/413/413 275/275/275
f 80/80/80 166/166/166 413/413/413
f 166/166/166 74/74/74 262/262/262
f 414/414/414 269/269/269 70/70/70
f 180/180/180 414/414/414 283/283/283
f 22/22/22 278/278/278 414/414/414
f 278/278/278 71/71/71 269/269/269
f 415/415/415 266/266/266 68/68/68
f 175/175/175 415/415/415 285/285/285
f 15/15/15 235/235/235 415/415/415
f 235/235/235 1/1/1 266/266/266
f 416/416/416 215/215/215 42/42/42
f 213/213/213 416/416/416 201/201/201
f 21/21/21 178/178/178 416/416/416
f 178/178/178 17/17/17 215/215/215
f 417/417/417 218/218/218 36/36/36
f 217/217/217 417/417/417 196/196/196
f 11/11/11 173/173/173 417/417/417
f 173/173/173 10/10/10 218/218/218
f 418/418/418 222/222/222 51/51/51
f 221/221/221 418/418/418 209/209/209
f 29/29/29 185/185/185 418/418/418
f 185/185/185 28/28/28 222/222/222
f 419/419/419 224/224/224 35/35/35
f 160/160/160 419/419/419 190/190/190
f 81/81/81 167/167/167 419/419/419
f 167/167/167 6/6/6 224/224/224
f 420/420/420 179/179/179 20/20/20
f 203/203/203 420/420/420 214/214/214
f 47/47/47 226/226/226 420/420/420
f 226/226/226 22/22/22 179/179/179
f 421/421/421 175/175/175 12/12/12
f 198/198/198 421/421/421 216/216/216
f 41/41/41 227/227/227 421/421/421
f 227/227/227 14/14/14 175/175/175
f 422/422/422 188/188/188 31/31/31
f 212/212/212 422/422/422 220/220/220
f 35/35/35 225/225/225 422/422/422
f 225/225/225 6/6/6 188/188/188
f 423/423/423 163/163/163 112/112/112
f 228/228/228 423/423/423 192/192/192
f 5/5/5 169/169/169 423/423/423
f 169/169/169 79/79/79 163/163/163
f 424/424/424 181/181/181 22/22/22
f 205/205/205 424/424/424 226/226/226
f 48/48/48 230/230/230 424/424/424
f 230/230/230 24/24/24 181/181/181
f 425/425/425 177/177/177 14/14/14
f 199/199/199 425/425/425 227/227/227
f 42/42/42 215/215/215 425/425/425
f 215/215/215 16/16/16 177/177/177
f 426/426/426 171/171/171 5/5/5
f 194/194/194 426/426/426 229/229/229
f 36/36/36 219/219/219 426/426/426
f 219/219/219 10/10/10 171/171/171
f 427/427/427 184/184/184 24/24/24
f 207/207/207 427/427/427 230/230/230
f 51/51/51 223/223/223 427/427/427
f 223/223/223 28/28/28 184/184/184
f 428/428/428 249/249/249 114/114/114
f 252/252/252 428/428/428 189/189/189
f 55/55/55 236/236/236 428/428/428
f 236/236/236 140/140/140 249/249/249
f 429/429/429 251/251/251 33/33/33
f 248/248/248 429/429/429 191/191/191
f 139/139/139 237/237/237 429/429/429
f 237/237/237 54/54/54 251/251/251
f 430/430/430 253/253/253 37/37/37
f 251/251/251 430/430/430 193/193/193
f 54/54/54 238/238/238 430/430/430
f 238/238/238 56/56/56 253/253/253
f 431/431/431 254/254/254 38/38/38
f 253/253/253 431/431/431 195/195/195
f 56/56/56 239/239/239 431/431/431
f 239/239/239 57/57/57 254/254/254
f 432/432/432 255/255/255 40/40/40
f 254/254/254 432/432/432 197/197/197
f 57/57/57 240/240/240 432/432/432
f 240/240/240 58/58/58 255/255/255
f 433/433/433 256/256/256 43/43/43
f 255/255/255 433/433/433 200/200/200
f 58/58/58 241/241/241 433/433/433
f 241/241/241 59/59/59 256/256/256
f 434/434/434 257/257/257 44/44/44
f 256/256/256 434/434/434 202/202/202
f 59/59/59 242/242/242 434/434/434
f 242/242/242 60/60/60 257/257/257
f 435/435/435 258/258/258 46/46/46
f 257/257/257 435/435/435 204/204/204
f 60/60/60 243/243/243 435/435/435
f 243/243/243 61/61/61 258/258/258
f 436/436/436 259/259/259 49/49/49
f 258/258/258 436/436/436 206/206/206
f 61/61/61 244/244/244 436/436/436
f 244/244/244 62/62/62 259/259/259
f 437/437/437 260/260/260 50/50/50
f 259/259/259 437/437/437 208/208/208
f 62/62/62 245/245/245 437/437/437
f 245/245/245 63/63/63 260/260/260
f 438/438/438 261/261/261 53/53/53
f 260/260/260 438/438/438 210/210/210
f 63/63/63 246/246/246 438/438/438
f 246/246/246 64/64/64 261/261/261
f 439/439/439 252/252/252 34/34/34
f 261/261/261 439/439/439 211/211/211
f 64/64/64 247/247/247 439/439/439
f 247/247/247 55/55/55 252/252/252
f 440/440/440 289/289/289 78/78/78
f 379/379/379 440/440/440 164/164/164
f 152/152/152 392/392/392 440/440/440
f 392/392/392 85/85/85 289/289/289
f 441/441/441 308/308/308 111/111/111
f 389/389/389 441/441/441 350/350/350
f 153/153/153 390/390/390 441/441/441
f 390/390/390 88/88/88 308/308/308
f 442/442/442 297/297/297 95/95/95
f 383/383/383 442/442/442 353/353/353
f 156/156/156 396/396/396 442/442/442
f 396/396/396 99/99/99 297/297/297
f 443/443/443 302/302/302 104/104/104
f 386/386/386 443/443/443 395/395/395
f 76/76/76 351/351/351 443/443/443
f 351/351/351 106/106/106 302/302/302
f 444/444/444 393/393/393 152/152/152
f 398/398/398 444/444/444 380/380/380
f 90/90/90 291/291/291 444/444/444
f 291/291/291 84/84/84 393/393/393
f 445/445/445 307/307/307 108/108/108
f 388/388/388 445/445/445 399/399/399
f 77/77/77 350/350/350 445/445/445
f 350/350/350 111/111/111 307/307/307
f 446/446/446 352/352/352 76/76/76
f 400/400/400 446/446/446 387/387/387
f 108/108/108 305/305/305 446/446/446
f 305/305/305 107/107/107 352/352/352
f 447/447/447 299/299/299 99/99/99
f 384/384/384 447/447/447 396/396/396
f 157/157/157 401/401/401 447/447/447
f 401/401/401 100/100/100 299/299/299
f 448/448/448 293/293/293 90/90/90
f 381/381/381 448/448/448 397/397/397
f 155/155/155 403/403/403 448/448/448
f 403/403/403 93/93/93 293/293/293
f 449/449/449 391/391/391 153/153/153
f 165/165/165 449/449/449 378/378/378
f 82/82/82 287/287/287 449/449/449
f 287/287/287 89/89/89 391/391/391
f 450/450/450 401/401/401 157/157/157
f 394/394/394 450/450/450 385/385/385
f 103/103/103 301/301/301 450/450/450
f 301/301/301 101/101/101 401/401/401
f 451/451/451 402/402/402 155/155/155
f 354/354/354 451/451/451 382/382/382
f 96/96/96 295/295/295 451/451/451
f 295/295/295 92/92/92 402/402/402
f 452/452/452 322/322/322 128/128/128
f 298/298/298 452/452/452 336/336/336
f 102/102/102 334/334/334 452/452/452
f 334/334/334 130/130/130 322/322/322
f 453/453/453 317/317/317 122/122/122
f 292/292/292 453/453/453 339/339/339
f 94/94/94 337/337/337 453/453/453
f 337/337/337 123/123/123 317/317/317
f 454/454/454 331/331/331 136/136/136
f 306/306/306 454/454/454 343/343/343
f 111/111/111 341/341/341 454/454/454
f 341/341/341 138/138/138 331/331/331
f 455/455/455 310/310/310 119/119/119
f 286/286/286 455/455/455 345/345/345
f 82/82/82 161/161/161 455/455/455
f 161/161/161 115/115/115 310/310/310
f 456/456/456 334/334/334 102/102/102
f 346/346/346 456/456/456 300/300/300
f 132/132/132 325/325/325 456/456/456
f 325/325/325 130/130/130 334/334/334
f 457/457/457 338/338/338 94/94/94
f 347/347/347 457/457/457 294/294/294
f 126/126/126 318/318/318 457/457/457
f 318/318/318 123/123/123 338/338/338
f 458/458/458 340/340/340 110/110/110
f 344/344/344 458/458/458 309/309/309
f 119/119/119 332/332/332 458/458/458
f 332/332/332 138/138/138 340/340/340
f 459/459/459 313/313/313 112/112/112
f 288/288/288 459/459/459 162/162/162
f 83/83/83 348/348/348 459/459/459
f 348/348/348 117/117/117 313/313/313
f 460/460/460 346/346/346 105/105/105
f 349/349/349 460/460/460 303/303/303
f 133/133/133 327/327/327 460/460/460
f 327/327/327 132/132/132 346/346/346
f 461/461/461 347/347/347 95/95/95
f 335/335/335 461/461/461 296/296/296
f 128/128/128 321/321/321 461/461/461
f 321/321/321 126/126/126 347/347/347
f 462/462/462 348/348/348 85/85/85
f 339/339/339 462/462/462 290/290/290
f 122/122/122 314/314/314 462/462/462
f 314/314/314 117/117/117 348/348/348
f 463/463/463 349/349/349 107/107/107
f 342/342/342 463/463/463 304/304/304
f 136/136/136 328/328/328 463/463/463
f 328/328/328 133/133/133 349/349/349
f 464/464/464 311/311/311 114/114/114
f 355/355/355 464/464/464 250/250/250
f 142/142/142 368/368/368 464/464/464
f 368/368/368 120/120/120 311/311/311
f 465/465/465 312/312/312 118/118/118
f 356/356/356 465/465/465 367/367/367
f 139/139/139 248/248/248 465/465/465
f 248/248/248 113/113/113 312/312/312
f 466/466/466 315/315/315 121/121/121
f 357/357/357 466/466/466 369/369/369
f 141/141/141 367/367/367 466/466/466
f 367/367/367 118/118/118 315/315/315
f 467/467/467 316/316/316 124/124/124
f 358/358/358 467/467/467 370/370/370
f 143/143/143 369/369/369 467/467/467
f 369/369/369 121/121/121 316/316/316
f 468/468/468 319/319/319 125/125/125
f 359/359/359 468/468/468 371/371/371
f 144/144/144 370/370/370 468/468/468
f 370/370/370 124/124/124 319/319/319
f 469/469/469 320/320/320 127/127/127
f 360/360/360 469/469/469 372/372/372
f 145/145/145 371/371/371 469/469/469
f 371/371/371 125/125/125 320/320/320
f 470/470/470 323/323/323 129/129/129
f 361/361/361 470/470/470 373/373/373
f 146/146/146 372/372/372 470/470/470
f 372/372/372 127/127/127 323/323/323
f 471/471/471 324/324/324 131/131/131
f 362/362/362 471/471/471 374/374/374
f 147/147/147 373/373/373 471/471/471
f 373/373/373 129/129/129 324/324/324
f 472/472/472 326/326/326 134/134/134
f 363/363/363 472/472/472 375/375/375
f 148/148/148 374/374/374 472/472/472
f 374/374/374 131/131/131 326/326/326
f 473/473/473 329/329/329 135/135/135
f 364/364/364 473/473/473 376/376/376
f 149/149/149 375/375/375 473/473/473
f 375/375/375 134/134/134 329/329/329
f 474/474/474 330/330/330 137/137/137
f 365/365/365 474/474/474 377/377/377
f 150/150/150 376/376/376 474/474/474
f 376/376/376 135/135/135 330/330/330
f 475/475/475 333/333/333 120/120/120
f 366/366/366 475/475/475 368/368/368
f 151/151/151 377/377/377 475/475/475
f 377/377/377 137/137/137 333/333/333

