# https://github.com/mikedh/trimesh
v -0.00986933 0.09182948 0.02704184
v -0.00956090 0.09182097 0.02803335
v -0.00956090 0.09182948 0.02803447
v -0.00961662 0.09182948 0.02592401
v -0.00335853 0.00706725 0.01831829
v -0.00319537 0.00608857 0.01909518
v -0.00326899 0.00706725 0.01920026
v -0.00807448 0.08114059 0.02767565
v -0.00860578 0.09182948 0.02868058
v -0.00912712 0.09182948 0.02529691
v -0.00961463 0.09182097 0.02591954
v -0.00314761 0.00611410 0.01763082
v -0.00321924 0.00593538 0.01831829
v -0.00245315 0.00706725 0.01972676
v -0.00300633 0.00530563 0.01831829
v -0.00219447 0.00504181 0.01918237
v -0.00254667 0.00573965 0.01937688
v -0.00691838 0.07844283 0.02769353
v -0.00184824 0.00888845 0.02019401
v -0.00143634 0.00706725 0.02009117
v -0.00743972 0.09057847 0.02874877
v -0.00732431 0.09182948 0.02886837
v -0.00850429 0.09182948 0.02499397
v -0.00805260 0.07863857 0.02393315
v -0.00807448 0.07780456 0.02391415
v -0.00808045 0.07685992 0.02390632
v -0.00316552 0.00706725 0.01761853
v -0.00255264 0.00574816 0.01749110
v -0.00220243 0.00505031 0.01755146
v -0.00112393 0.00584177 0.02001069
v -0.00238351 0.00496522 0.01831829
v -0.00120750 0.00493118 0.01940594
v -0.00652638 0.07844283 0.02769353
v -0.00065432 0.00626729 0.02020295
v -0.00619208 0.09182948 0.02878789
v 0.00004013 0.06440090 0.02611069
v -0.00744171 0.09182948 0.02470222
v -0.00743972 0.08559146 0.02421708
v -0.00712532 0.08184694 0.02384037
v -0.00726262 0.08060444 0.02379007
v -0.00737406 0.07935343 0.02373977
v -0.00308592 0.00902461 0.01768783
v -0.00311776 0.00831826 0.01766212
v -0.00245315 0.00706725 0.01744862
v -0.00136271 0.00582475 0.01748886
v -0.00154379 0.00505031 0.01755146
v -0.00115975 0.00488862 0.01825234
v -0.00050111 0.00626729 0.02020295
v -0.00024043 0.00499926 0.01931987
v -0.00120750 0.06440090 0.02614646
v -0.00494644 0.09182097 0.02864145
v -0.00494644 0.09182948 0.02864145
v 0.00004013 0.06314989 0.02598437
v 0.00128379 0.06440090 0.02588265
v 0.00751601 0.09182948 0.02707090
v 0.00627036 0.09182097 0.02724081
v -0.00619606 0.09182948 0.02450660
v -0.00743972 0.09182097 0.02470110
v -0.00683680 0.08377026 0.02392086
v -0.00694624 0.08309795 0.02389291
v -0.00192783 0.06440090 0.02138450
v -0.00619208 0.07561742 0.02317191
v -0.00120750 0.06440090 0.02123806
v -0.00165920 0.01050540 0.01766771
v -0.00151593 0.00956076 0.01762859
v -0.00142042 0.00831826 0.01757717
v -0.00135475 0.00706725 0.01752463
v 0.00004013 0.06440090 0.02106368
v 0.00627036 0.07685992 0.02173773
v 0.00627036 0.07561742 0.02166060
v -0.00073193 0.00706725 0.01775714
v 0.00004013 0.00706725 0.01813385
v -0.00073989 0.00582475 0.01779738
v 0.00751601 0.07935343 0.02206079
v 0.00004013 0.01205426 0.01809584
v 0.00004013 0.01081177 0.01808578
v 0.00011973 0.00579071 0.01843343
v -0.00024043 0.00499926 0.01862458
v 0.00004411 0.00580773 0.01966080
v 0.00032866 0.00706725 0.02000174
v 0.00055153 0.00787573 0.02012694
v 0.00069082 0.00870122 0.02021190
v 0.00073459 0.00618218 0.01917008
v -0.00245315 0.09182948 0.02833070
v -0.00369880 0.09182948 0.02848608
v 0.00627036 0.07561742 0.02587706
v 0.00785230 0.08434044 0.02636443
v 0.00804332 0.08517445 0.02640020
v 0.00876365 0.09182948 0.02681268
v 0.00627036 0.09182948 0.02724081
v 0.00495706 0.09182948 0.02740513
v -0.00495042 0.09182948 0.02434899
v -0.00185818 0.06507321 0.02141915
v 0.00751601 0.08184694 0.02214351
v 0.00751601 0.08060444 0.02209544
v 0.00377310 0.09182948 0.02326022
v 0.00501875 0.09182948 0.02310596
v 0.00626638 0.09182948 0.02295170
v 0.00751203 0.09182948 0.02283544
v 0.00751601 0.09182097 0.02283433
v 0.00627036 0.07811093 0.02182604
v 0.00815276 0.08999126 0.02267783
v 0.00751601 0.08309795 0.02221169
v 0.00004013 0.00831826 0.01811373
v 0.00004013 0.00956076 0.01809472
v 0.00079429 0.00706725 0.01869500
v 0.00073459 0.00618218 0.01878890
v 0.00092164 0.01081177 0.01864470
v 0.00087985 0.00956076 0.01865140
v 0.00083608 0.00831826 0.01866705
v 0.00840149 0.08309795 0.02247215
v 0.00751601 0.07811093 0.02203619
v 0.00839155 0.08184694 0.02245426
v 0.00079429 0.00706725 0.01937799
v 0.01022221 0.09182948 0.02572503
v 0.00818062 0.07596634 0.02521530
v 0.00737274 0.07437493 0.02541540
v 0.00751601 0.07811093 0.02579211
v 0.00751601 0.07935343 0.02593295
v 0.01045900 0.09182948 0.02456473
v 0.00751601 0.08060444 0.02606597
v 0.00751601 0.07685992 0.02564679
v 0.00958148 0.09182097 0.02653211
v 0.00958347 0.09182948 0.02653099
v 0.00822440 0.08932746 0.02265324
v 0.00832190 0.08808496 0.02260852
v 0.00835971 0.08683395 0.02257275
v 0.00838956 0.08434044 0.02250568
v 0.00875967 0.09182948 0.02289357
v 0.00807317 0.08999126 0.02267783
v 0.00876365 0.09182097 0.02289357
v 0.00824828 0.07685992 0.02252357
v 0.00820649 0.07561742 0.02257387
v 0.00816868 0.07470683 0.02263088
v 0.00836170 0.08060444 0.02245650
v 0.00832389 0.07935343 0.02247103
v 0.00828409 0.07811093 0.02249339
v 0.00986404 0.09182948 0.02345696
v 0.00986802 0.09182097 0.02345919
v 0.01019634 0.09182948 0.02575969
v 0.00990980 0.09182948 0.02353632
f 1 2 3
f 1 3 9
f 1 9 22
f 1 22 35
f 1 35 52
f 1 52 85
f 1 85 84
f 1 84 91
f 1 91 90
f 1 90 55
f 1 55 89
f 1 89 124
f 1 124 140
f 1 140 115
f 1 115 120
f 1 120 141
f 1 141 138
f 1 138 129
f 1 129 99
f 1 99 98
f 1 98 97
f 1 97 96
f 1 96 92
f 1 92 57
f 1 57 37
f 1 37 23
f 1 23 10
f 1 10 4
f 1 4 5
f 1 5 6
f 1 6 7
f 1 7 2
f 2 8 3
f 2 7 8
f 3 8 9
f 4 10 11
f 4 11 12
f 4 12 5
f 5 12 13
f 5 13 6
f 6 14 8
f 6 8 7
f 6 13 15
f 6 15 16
f 6 16 17
f 6 17 14
f 8 18 9
f 8 14 19
f 8 19 20
f 8 20 18
f 9 21 22
f 9 18 21
f 10 23 24
f 10 24 25
f 10 25 26
f 10 26 11
f 11 26 27
f 11 27 12
f 12 27 28
f 12 28 29
f 12 29 15
f 12 15 13
f 14 17 30
f 14 30 20
f 14 20 19
f 15 29 31
f 15 31 16
f 16 31 32
f 16 32 30
f 16 30 17
f 18 33 22
f 18 22 21
f 18 20 34
f 18 34 48
f 18 48 33
f 20 30 34
f 22 33 36
f 22 36 35
f 23 37 38
f 23 38 39
f 23 39 40
f 23 40 41
f 23 41 24
f 24 41 42
f 24 42 43
f 24 43 27
f 24 27 25
f 25 27 26
f 27 43 44
f 27 44 28
f 28 45 46
f 28 46 29
f 28 44 45
f 29 47 31
f 29 46 47
f 30 48 34
f 30 32 49
f 30 49 48
f 31 47 32
f 32 47 49
f 33 50 36
f 33 48 50
f 35 51 52
f 35 36 51
f 36 50 53
f 36 53 54
f 36 54 55
f 36 55 56
f 36 56 51
f 37 57 58
f 37 58 59
f 37 59 60
f 37 60 39
f 37 39 38
f 39 60 61
f 39 61 62
f 39 62 42
f 39 42 40
f 40 42 41
f 42 44 43
f 42 62 61
f 42 61 63
f 42 63 44
f 44 64 65
f 44 65 66
f 44 66 67
f 44 67 45
f 44 63 68
f 44 68 69
f 44 69 70
f 44 70 64
f 45 71 72
f 45 72 73
f 45 73 46
f 45 67 74
f 45 74 75
f 45 75 76
f 45 76 71
f 46 73 77
f 46 77 78
f 46 78 47
f 47 78 49
f 48 53 50
f 48 49 79
f 48 79 80
f 48 80 81
f 48 81 82
f 48 82 54
f 48 54 53
f 49 78 107
f 49 107 83
f 49 83 79
f 51 56 84
f 51 84 85
f 51 85 52
f 54 86 87
f 54 87 55
f 54 82 86
f 55 87 88
f 55 88 89
f 55 90 56
f 56 90 91
f 56 91 84
f 57 92 68
f 57 68 63
f 57 63 58
f 58 63 59
f 59 63 93
f 59 93 60
f 60 93 61
f 61 93 63
f 64 70 65
f 65 70 66
f 66 70 67
f 67 70 94
f 67 94 95
f 67 95 74
f 68 92 96
f 68 96 97
f 68 97 98
f 68 98 99
f 68 99 100
f 68 100 101
f 68 101 69
f 69 101 102
f 69 102 70
f 70 102 103
f 70 103 94
f 71 104 72
f 71 76 105
f 71 105 104
f 72 106 107
f 72 107 73
f 72 104 108
f 72 108 109
f 72 109 110
f 72 110 106
f 73 107 77
f 74 95 111
f 74 111 112
f 74 112 75
f 75 112 113
f 75 113 76
f 76 113 105
f 77 107 78
f 79 83 80
f 80 83 81
f 81 83 82
f 82 83 114
f 82 114 115
f 82 115 116
f 82 116 117
f 82 117 118
f 82 118 119
f 82 119 86
f 83 107 120
f 83 120 115
f 83 115 114
f 86 119 121
f 86 121 87
f 87 121 88
f 88 121 119
f 88 119 118
f 88 118 122
f 88 122 123
f 88 123 89
f 89 123 124
f 94 103 102
f 94 102 125
f 94 125 126
f 94 126 95
f 95 126 127
f 95 127 128
f 95 128 111
f 99 129 100
f 100 129 102
f 100 102 130
f 100 130 101
f 101 130 102
f 102 129 131
f 102 131 125
f 104 105 108
f 105 113 108
f 106 110 132
f 106 132 133
f 106 133 134
f 106 134 120
f 106 120 107
f 108 113 135
f 108 135 109
f 109 135 136
f 109 136 110
f 110 136 137
f 110 137 132
f 111 113 112
f 111 128 131
f 111 131 138
f 111 138 139
f 111 139 113
f 113 139 135
f 115 140 116
f 116 140 123
f 116 123 117
f 117 123 122
f 117 122 118
f 120 134 133
f 120 133 139
f 120 139 141
f 123 140 124
f 125 131 126
f 126 131 127
f 127 131 128
f 129 138 131
f 132 137 139
f 132 139 133
f 135 139 136
f 136 139 137
f 138 141 139

