# https://github.com/mikedh/trimesh
v -0.02393404 0.11675507 0.03078193
v -0.02345606 0.11675507 0.03195648
v -0.02342582 0.11800106 0.03197707
v -0.02385263 0.11800106 0.03078193
v -0.02354095 0.11675507 0.02953600
v -0.02359561 0.11550907 0.02953600
v -0.02392241 0.11550907 0.03078193
v -0.02288039 0.11800106 0.03260026
v -0.02343978 0.11550907 0.03190020
v -0.02286993 0.11924855 0.03255542
v -0.02335023 0.11924855 0.03193222
v -0.02368051 0.11924855 0.03078193
v -0.02335139 0.11924855 0.02969980
v -0.02336419 0.11789910 0.02944723
v -0.02302576 0.11741480 0.02890823
v -0.02306414 0.11675507 0.02887940
v -0.02311299 0.11550907 0.02883959
v -0.02343396 0.11508325 0.02929441
v -0.02358515 0.11508325 0.02953600
v -0.02380030 0.11508325 0.03035777
v -0.02388636 0.11508325 0.03078193
v -0.02274665 0.11675507 0.03257967
v -0.02225705 0.11800106 0.03277779
v -0.02224658 0.11924855 0.03281760
v -0.02214773 0.12049454 0.03282995
v -0.02356770 0.11508325 0.03151951
v -0.02341652 0.11508325 0.03186908
v -0.02200701 0.12174054 0.03279289
v -0.02277108 0.12049454 0.03239848
v -0.02322230 0.12049454 0.03177483
v -0.02310252 0.12136869 0.03157716
v -0.02341303 0.12049454 0.03078193
v -0.02309322 0.12133570 0.03004755
v -0.02321067 0.12049454 0.02988282
v -0.02239660 0.11550907 0.02863827
v -0.02239660 0.11508325 0.02861036
v -0.02247220 0.12049454 0.02925963
v -0.02264664 0.11924855 0.02907661
v -0.02283969 0.11824546 0.02897274
v -0.02177442 0.12112129 0.02891189
v -0.02286876 0.11508325 0.02874351
v -0.02311531 0.11508325 0.02883548
v -0.02193840 0.11574598 0.03268308
v -0.02212331 0.11675507 0.03272517
v -0.02265013 0.11508325 0.03234174
v -0.02237799 0.11508325 0.03250692
v -0.02237102 0.11540112 0.03254764
v -0.02114991 0.12049454 0.03294617
v -0.02114991 0.12174054 0.03298323
v -0.02122085 0.12301052 0.03287708
v -0.02187327 0.12261318 0.03272151
v -0.02267455 0.12176753 0.03200681
v -0.02215354 0.12301052 0.03209923
v -0.02194770 0.12393414 0.03173090
v -0.02253616 0.12298503 0.03078193
v -0.02291993 0.12209289 0.03078193
v -0.02313741 0.12147065 0.03078193
v -0.02191746 0.12388317 0.02997891
v -0.02213610 0.12298503 0.02977027
v -0.02235939 0.12164458 0.02951861
v -0.02197212 0.11508325 0.02855774
v -0.02122434 0.12427151 0.02962888
v -0.02114991 0.12298503 0.02916492
v -0.01990438 0.12547852 0.02932918
v -0.01990438 0.12423252 0.02901850
v -0.01779593 0.12695691 0.02896679
v -0.01696557 0.12747870 0.02887986
v -0.01205323 0.12797200 0.02835641
v -0.02118596 0.11508325 0.03251287
v -0.02164882 0.11574598 0.03268308
v -0.01990438 0.12298503 0.03301435
v -0.01990438 0.12423252 0.03302670
v -0.02084289 0.12423252 0.03281394
v -0.02062425 0.12499421 0.03271556
v -0.02168254 0.12344235 0.03256182
v -0.02201282 0.12405859 0.03078193
v -0.02149647 0.12430300 0.03209923
v -0.02084172 0.12543653 0.03198073
v -0.02059285 0.12618173 0.03153323
v -0.02167091 0.12468234 0.03078193
v -0.02056261 0.12614574 0.03011572
v -0.02080218 0.12547852 0.02989701
v -0.02114991 0.11508325 0.02849551
v -0.01982646 0.12662705 0.02987001
v -0.01854488 0.12661505 0.02918047
v -0.01739354 0.12792552 0.02925323
v -0.01649806 0.12830936 0.02901804
v -0.01566771 0.12865422 0.02888032
v -0.01491876 0.12797200 0.02869180
v -0.01491876 0.12881316 0.02881031
v -0.01367323 0.12905756 0.02871880
v -0.01205323 0.12888063 0.02853028
v -0.01205323 0.12759865 0.02841590
v -0.01994275 0.11508325 0.02871880
v -0.01990438 0.11508325 0.03202282
v -0.01205323 0.12803048 0.03246574
v -0.01297545 0.12853577 0.03266020
v -0.01865768 0.12547852 0.03302991
v -0.01988577 0.12543653 0.03284505
v -0.01945896 0.12628669 0.03274530
v -0.02028932 0.12582487 0.03236416
v -0.01983692 0.12664954 0.03196791
v -0.01938453 0.12744421 0.03157167
v -0.01941826 0.12747570 0.03078193
v -0.02004160 0.12681747 0.03078193
v -0.02060215 0.12619522 0.03078193
v -0.02112316 0.12547852 0.03078193
v -0.01936011 0.12742172 0.03007271
v -0.01853673 0.12789103 0.02988603
v -0.01741215 0.12878467 0.02992126
v -0.01604451 0.12916402 0.02956894
v -0.01491876 0.12943690 0.02931271
v -0.01367323 0.12968131 0.02904732
v -0.01293242 0.12981175 0.02893522
v -0.01248120 0.12932445 0.02867396
v -0.01205323 0.12928996 0.02861768
v -0.01205323 0.12672451 0.02857833
v -0.01955432 0.11508325 0.02886110
v -0.01913217 0.11508325 0.03155154
v -0.01205323 0.12672451 0.03209374
v -0.01205323 0.12914602 0.03229461
v -0.01297545 0.12861974 0.03266020
v -0.01741215 0.12672451 0.03296356
v -0.01861930 0.12671102 0.03283727
v -0.01817970 0.12745621 0.03271465
v -0.01901006 0.12711735 0.03240259
v -0.01852859 0.12786554 0.03191255
v -0.01804713 0.12860324 0.03142296
v -0.01867164 0.12809945 0.03078193
v -0.01804131 0.12860025 0.03015187
v -0.01559095 0.12986123 0.03012030
v -0.01491876 0.12996319 0.02993590
v -0.01367323 0.13010563 0.02967052
v -0.01248120 0.13012513 0.02942481
v -0.01210207 0.12987922 0.02887528
v -0.01205323 0.12984474 0.02885607
v -0.01205323 0.12600480 0.02884051
v -0.01933685 0.11508325 0.02894666
v -0.01880073 0.11508325 0.03078193
v -0.01205323 0.12586686 0.03161743
v -0.01205323 0.12942041 0.03211799
v -0.01250678 0.12910854 0.03237240
v -0.01367323 0.12868121 0.03268857
v -0.01491876 0.12871120 0.03271190
v -0.01618988 0.12805297 0.03279609
v -0.01741215 0.12768562 0.03278877
v -0.01662017 0.12852227 0.03260849
v -0.01741215 0.12830936 0.03232115
v -0.01804829 0.12860474 0.03078193
v -0.01741215 0.12878767 0.03169796
v -0.01555490 0.12984623 0.03141473
v -0.01621197 0.12958984 0.03078193
v -0.01741215 0.12897659 0.03078193
v -0.01558863 0.12985973 0.03078193
v -0.01491876 0.13004866 0.03078193
v -0.01367323 0.13030655 0.03078193
v -0.01242654 0.13040101 0.03078193
v -0.01205323 0.13015211 0.02946141
v -0.01205323 0.13005166 0.02923675
v -0.01205323 0.12988072 0.02887437
v -0.01205323 0.12555948 0.02953600
v -0.01895191 0.11508325 0.02954103
v -0.01205323 0.12542004 0.03078193
v -0.01205323 0.13005915 0.03168423
v -0.01242654 0.13007415 0.03170894
v -0.01367323 0.12930496 0.03232115
v -0.01578982 0.12866022 0.03269131
v -0.01491876 0.12992721 0.03154239
v -0.01367323 0.13004266 0.03169796
v -0.01205323 0.13037852 0.03078193
v -0.01205323 0.13034253 0.03040993
v -0.01205323 0.13015061 0.03143211
f 1 2 3
f 1 3 4
f 1 4 5
f 1 5 6
f 1 6 7
f 1 7 2
f 2 8 3
f 2 7 9
f 2 9 8
f 3 8 10
f 3 10 11
f 3 11 4
f 4 11 12
f 4 12 13
f 4 13 5
f 5 13 14
f 5 14 15
f 5 15 16
f 5 16 17
f 5 17 6
f 6 17 18
f 6 18 19
f 6 19 7
f 7 19 20
f 7 20 21
f 7 21 9
f 8 9 22
f 8 22 23
f 8 23 24
f 8 24 25
f 8 25 10
f 9 21 26
f 9 26 27
f 9 27 22
f 10 25 28
f 10 28 29
f 10 29 11
f 11 29 30
f 11 30 12
f 12 30 31
f 12 31 32
f 12 32 33
f 12 33 34
f 12 34 13
f 13 34 15
f 13 15 14
f 15 35 36
f 15 36 16
f 15 34 37
f 15 37 38
f 15 38 39
f 15 39 40
f 15 40 35
f 16 36 41
f 16 41 17
f 17 41 42
f 17 42 18
f 18 42 41
f 18 41 36
f 18 36 61
f 18 61 83
f 18 83 94
f 18 94 118
f 18 118 138
f 18 138 162
f 18 162 139
f 18 139 119
f 18 119 95
f 18 95 69
f 18 69 46
f 18 46 45
f 18 45 27
f 18 27 26
f 18 26 21
f 18 21 20
f 18 20 19
f 22 43 44
f 22 44 23
f 22 27 45
f 22 45 46
f 22 46 47
f 22 47 43
f 23 44 48
f 23 48 24
f 24 48 49
f 24 49 25
f 25 49 28
f 28 49 50
f 28 50 51
f 28 51 29
f 29 51 52
f 29 52 30
f 30 52 31
f 31 52 53
f 31 53 54
f 31 54 55
f 31 55 56
f 31 56 57
f 31 57 32
f 32 57 33
f 33 57 56
f 33 56 55
f 33 55 58
f 33 58 59
f 33 59 60
f 33 60 34
f 34 60 37
f 35 40 36
f 36 40 61
f 37 40 38
f 37 60 40
f 38 40 39
f 40 60 59
f 40 59 62
f 40 62 63
f 40 63 64
f 40 64 65
f 40 65 66
f 40 66 67
f 40 67 68
f 40 68 61
f 43 47 46
f 43 46 69
f 43 69 70
f 43 70 48
f 43 48 44
f 48 71 49
f 48 70 71
f 49 71 72
f 49 72 50
f 50 72 73
f 50 73 51
f 51 73 74
f 51 74 75
f 51 75 52
f 52 75 53
f 53 75 54
f 54 76 55
f 54 75 77
f 54 77 78
f 54 78 79
f 54 79 80
f 54 80 76
f 55 76 58
f 58 76 80
f 58 80 81
f 58 81 82
f 58 82 62
f 58 62 59
f 61 68 83
f 62 82 64
f 62 64 63
f 64 82 84
f 64 84 85
f 64 85 66
f 64 66 65
f 66 85 86
f 66 86 87
f 66 87 67
f 67 87 88
f 67 88 89
f 67 89 68
f 68 89 90
f 68 90 91
f 68 91 92
f 68 92 116
f 68 116 136
f 68 136 160
f 68 160 159
f 68 159 158
f 68 158 171
f 68 171 170
f 68 170 172
f 68 172 164
f 68 164 141
f 68 141 121
f 68 121 96
f 68 96 120
f 68 120 140
f 68 140 163
f 68 163 161
f 68 161 137
f 68 137 117
f 68 117 93
f 68 93 94
f 68 94 83
f 69 95 96
f 69 96 70
f 70 96 97
f 70 97 71
f 71 97 98
f 71 98 72
f 72 98 99
f 72 99 73
f 73 99 74
f 74 77 75
f 74 99 100
f 74 100 101
f 74 101 78
f 74 78 77
f 78 101 79
f 79 101 102
f 79 102 103
f 79 103 104
f 79 104 105
f 79 105 106
f 79 106 107
f 79 107 80
f 80 107 81
f 81 106 105
f 81 105 108
f 81 108 84
f 81 84 82
f 81 107 106
f 84 108 86
f 84 86 85
f 86 108 109
f 86 109 87
f 87 109 110
f 87 110 88
f 88 110 111
f 88 111 112
f 88 112 113
f 88 113 114
f 88 114 90
f 88 90 89
f 90 114 91
f 91 114 115
f 91 115 116
f 91 116 92
f 93 117 94
f 94 117 118
f 95 119 120
f 95 120 96
f 96 121 122
f 96 122 97
f 97 122 123
f 97 123 98
f 98 123 124
f 98 124 99
f 99 124 100
f 100 124 125
f 100 125 126
f 100 126 101
f 101 126 102
f 102 126 103
f 103 126 127
f 103 127 128
f 103 128 104
f 104 108 105
f 104 128 129
f 104 129 130
f 104 130 108
f 108 130 109
f 109 130 110
f 110 131 111
f 110 130 131
f 111 131 112
f 112 131 132
f 112 132 113
f 113 132 114
f 114 132 133
f 114 133 134
f 114 134 135
f 114 135 115
f 115 135 116
f 116 135 136
f 117 137 138
f 117 138 118
f 119 139 140
f 119 140 120
f 121 141 142
f 121 142 122
f 122 142 143
f 122 143 123
f 123 143 144
f 123 144 145
f 123 145 146
f 123 146 124
f 124 146 125
f 125 146 147
f 125 147 148
f 125 148 128
f 125 128 127
f 125 127 126
f 128 149 129
f 128 148 150
f 128 150 151
f 128 151 152
f 128 152 153
f 128 153 149
f 129 149 130
f 130 149 153
f 130 153 131
f 131 154 155
f 131 155 156
f 131 156 132
f 131 153 152
f 131 152 154
f 132 156 133
f 133 156 157
f 133 157 134
f 134 157 158
f 134 158 159
f 134 159 160
f 134 160 135
f 135 160 136
f 137 161 162
f 137 162 138
f 139 162 161
f 139 161 163
f 139 163 140
f 141 164 142
f 142 164 165
f 142 165 166
f 142 166 143
f 143 166 144
f 144 166 167
f 144 167 145
f 145 167 146
f 146 167 147
f 147 167 168
f 147 168 151
f 147 151 150
f 147 150 148
f 151 168 156
f 151 156 155
f 151 155 154
f 151 154 152
f 156 168 169
f 156 169 157
f 157 170 171
f 157 171 158
f 157 169 165
f 157 165 172
f 157 172 170
f 164 172 165
f 165 169 166
f 166 169 167
f 167 169 168

