# https://github.com/mikedh/trimesh
v -0.01452790 0.10045176 0.02828908
v -0.01452790 0.10080458 0.02923505
v -0.01452790 0.10079775 0.02751620
v -0.00961624 0.09183176 0.02592450
v -0.00986843 0.09183176 0.02704288
v -0.01452790 0.10219762 0.03024159
v -0.00956135 0.09183176 0.02803412
v -0.01452790 0.10084100 0.02744563
v -0.00912671 0.09183176 0.02529740
v -0.01452790 0.10304437 0.03052851
v -0.00946790 0.09183176 0.02809736
v -0.00860602 0.09183176 0.02868052
v -0.01452790 0.10132355 0.02719999
v -0.00850366 0.09183176 0.02499517
v -0.01452790 0.10268473 0.02676395
v -0.00813280 0.09231431 0.02892616
v -0.01452790 0.10428946 0.03080345
v -0.00732433 0.09183176 0.02886824
v -0.00744301 0.09183176 0.02470293
v -0.01452790 0.10304437 0.02672734
v -0.01452790 0.10386608 0.02664945
v -0.01367196 0.10428946 0.03070892
v -0.00182078 0.11484652 0.03016171
v -0.00178666 0.11508325 0.03017169
v -0.00247794 0.11508325 0.03023227
v -0.01452790 0.10553454 0.03083607
v -0.00682738 0.09245316 0.02891151
v -0.00619395 0.09183176 0.02878769
v -0.01117830 0.10304437 0.03032947
v -0.00630521 0.09183176 0.02879568
v -0.00619840 0.09183176 0.02450788
v -0.01452790 0.10427580 0.02665211
v -0.00997227 0.10313997 0.03020298
v -0.00927653 0.10361798 0.03016237
v -0.00370178 0.10678191 0.02973233
v -0.00245421 0.09431965 0.02853739
v -0.00245421 0.09183176 0.02833035
v -0.00183265 0.09993051 0.02891151
v -0.00156563 0.11508325 0.03009913
v -0.00120812 0.09183176 0.02804876
v -0.00287996 0.11508325 0.03023693
v -0.01452790 0.10678874 0.03060440
v -0.00371365 0.11508325 0.03023893
v -0.00401627 0.11508325 0.03021763
v -0.00440048 0.11508325 0.03018101
v -0.00494787 0.09183176 0.02864190
v -0.00650547 0.09328398 0.02894946
v -0.00958212 0.10278944 0.03012776
v -0.00495232 0.09183176 0.02435011
v -0.01313347 0.10379552 0.02640647
v -0.00993221 0.10304437 0.02591052
v -0.00868613 0.10304437 0.02575141
v -0.01359778 0.10424166 0.02651498
v -0.01452790 0.10515214 0.02674265
v -0.00245421 0.11508325 0.02600771
v -0.00743856 0.10304437 0.02988744
v -0.00743856 0.10055192 0.02967974
v -0.00743856 0.10179701 0.02978359
v -0.00619395 0.10304437 0.02973233
v -0.00370178 0.10553454 0.02962848
v -0.00317516 0.09758146 0.02890020
v -0.00370178 0.09307229 0.02858998
v -0.00118587 0.11508325 0.02996932
v -0.00046344 0.09183176 0.02775186
v -0.01452790 0.10759906 0.03028220
v -0.00457107 0.11508325 0.03012509
v -0.00496418 0.09565351 0.02896277
v -0.00618357 0.09922717 0.02512033
v -0.00370623 0.09183176 0.02419433
v -0.00993221 0.10428946 0.02602302
v -0.00868613 0.10428946 0.02585859
v -0.00494787 0.10678191 0.02559697
v -0.00494787 0.10553454 0.02549246
v -0.00368991 0.10433270 0.02523483
v -0.00409637 0.10332662 0.02520154
v -0.00548339 0.10104358 0.02518423
v -0.00576079 0.10021276 0.02514962
v -0.01452790 0.10553454 0.02680656
v -0.00375073 0.11508325 0.02623006
v -0.00326565 0.10394575 0.02514962
v -0.00370178 0.10927436 0.02565489
v -0.00120812 0.11508325 0.02608427
v 0.00062541 0.09183176 0.02413042
v -0.00234443 0.09183176 0.02403523
v -0.00619395 0.10055192 0.02952463
v -0.00619395 0.10179701 0.02962848
v 0.00062541 0.11508325 0.02923172
v 0.00062541 0.09183176 0.02717070
v -0.00498792 0.11508325 0.02995933
v -0.00535878 0.11508325 0.02973499
v -0.00589430 0.11508325 0.02932425
v -0.01452790 0.10807024 0.02955858
v -0.00245866 0.09183176 0.02404854
v -0.00370178 0.10055192 0.02492061
v -0.00370178 0.10802699 0.02554837
v -0.00370178 0.10678191 0.02544253
v -0.00370178 0.10553454 0.02533735
v -0.01452790 0.10639040 0.02707350
v -0.00437674 0.11508325 0.02639715
v -0.00436784 0.11508325 0.02639449
v -0.00017565 0.11508325 0.02631859
v 0.00062541 0.11508325 0.02660951
v -0.00602632 0.11508325 0.02897010
v -0.00619395 0.11508325 0.02828908
v -0.01452790 0.10809983 0.02910390
v -0.01452790 0.10678191 0.02722795
v -0.00494490 0.11508325 0.02668606
v -0.01452790 0.10729861 0.02746893
v -0.00587056 0.11508325 0.02734511
v -0.01452790 0.10800195 0.02833834
v -0.00558574 0.11508325 0.02713275
v -0.01452790 0.10751257 0.02758876
v -0.01452790 0.10790636 0.02809936
f 1 2 6
f 1 6 10
f 1 10 17
f 1 17 26
f 1 26 42
f 1 42 65
f 1 65 92
f 1 92 105
f 1 105 110
f 1 110 113
f 1 113 112
f 1 112 108
f 1 108 106
f 1 106 98
f 1 98 78
f 1 78 54
f 1 54 32
f 1 32 21
f 1 21 20
f 1 20 15
f 1 15 13
f 1 13 8
f 1 8 3
f 1 3 4
f 1 4 5
f 1 5 2
f 2 5 7
f 2 7 6
f 3 8 4
f 4 9 14
f 4 14 19
f 4 19 31
f 4 31 49
f 4 49 69
f 4 69 93
f 4 93 84
f 4 84 83
f 4 83 88
f 4 88 64
f 4 64 40
f 4 40 37
f 4 37 46
f 4 46 28
f 4 28 30
f 4 30 18
f 4 18 12
f 4 12 11
f 4 11 7
f 4 7 5
f 4 8 9
f 6 7 11
f 6 11 12
f 6 12 10
f 8 13 9
f 9 13 15
f 9 15 14
f 10 12 16
f 10 16 17
f 12 18 16
f 14 15 20
f 14 20 21
f 14 21 19
f 16 18 17
f 17 22 23
f 17 23 24
f 17 24 25
f 17 25 26
f 17 18 27
f 17 27 28
f 17 28 29
f 17 29 22
f 18 30 27
f 19 21 32
f 19 32 31
f 22 29 33
f 22 33 34
f 22 34 23
f 23 34 35
f 23 35 36
f 23 36 37
f 23 37 38
f 23 38 24
f 24 39 63
f 24 63 87
f 24 87 102
f 24 102 101
f 24 101 82
f 24 82 55
f 24 55 79
f 24 79 100
f 24 100 99
f 24 99 107
f 24 107 111
f 24 111 109
f 24 109 104
f 24 104 103
f 24 103 91
f 24 91 90
f 24 90 89
f 24 89 66
f 24 66 45
f 24 45 44
f 24 44 43
f 24 43 41
f 24 41 25
f 24 38 40
f 24 40 39
f 25 41 26
f 26 41 43
f 26 43 44
f 26 44 45
f 26 45 42
f 27 30 28
f 28 46 47
f 28 47 48
f 28 48 33
f 28 33 29
f 31 32 50
f 31 50 51
f 31 51 52
f 31 52 49
f 32 53 50
f 32 54 55
f 32 55 53
f 33 48 34
f 34 56 35
f 34 48 46
f 34 46 57
f 34 57 58
f 34 58 56
f 35 56 59
f 35 59 86
f 35 86 60
f 35 60 61
f 35 61 36
f 36 61 37
f 37 62 46
f 37 40 38
f 37 61 62
f 39 40 63
f 40 64 63
f 42 45 65
f 45 66 65
f 46 48 47
f 46 62 67
f 46 67 57
f 49 68 69
f 49 52 68
f 50 53 55
f 50 55 70
f 50 70 51
f 51 70 55
f 51 55 71
f 51 71 52
f 52 71 72
f 52 72 73
f 52 73 74
f 52 74 75
f 52 75 76
f 52 76 77
f 52 77 68
f 54 78 79
f 54 79 55
f 55 80 81
f 55 81 71
f 55 82 83
f 55 83 84
f 55 84 80
f 56 58 86
f 56 86 59
f 57 67 85
f 57 85 86
f 57 86 58
f 60 86 61
f 61 86 67
f 61 67 62
f 63 64 87
f 64 88 87
f 65 66 89
f 65 89 90
f 65 90 91
f 65 91 92
f 67 86 85
f 68 77 69
f 69 77 94
f 69 94 80
f 69 80 93
f 71 81 72
f 72 95 96
f 72 96 97
f 72 97 74
f 72 74 73
f 72 81 95
f 74 97 80
f 74 80 94
f 74 94 75
f 75 94 76
f 76 94 77
f 78 98 99
f 78 99 100
f 78 100 79
f 80 97 96
f 80 96 95
f 80 95 81
f 80 84 93
f 82 101 83
f 83 101 102
f 83 102 87
f 83 87 88
f 91 103 92
f 92 103 104
f 92 104 105
f 98 106 99
f 99 106 108
f 99 108 107
f 104 109 110
f 104 110 105
f 107 108 112
f 107 112 111
f 109 111 112
f 109 112 113
f 109 113 110

