# https://github.com/mikedh/trimesh
v 0.01252539 0.09664782 0.02461705
v 0.01252539 0.09665142 0.02486628
v 0.01252539 0.09688936 0.02435227
v 0.02062406 0.10489461 0.02390280
v 0.02066114 0.10485676 0.02455015
v 0.02066114 0.10485856 0.02525167
v 0.01252539 0.09694164 0.02570020
v 0.01252539 0.09791323 0.02357536
v 0.01998131 0.10461702 0.02366488
v 0.02091577 0.10553633 0.02364603
v 0.02212093 0.10701625 0.02362530
v 0.02183046 0.10618526 0.02420245
v 0.02138547 0.10565530 0.02459067
v 0.02186012 0.10614740 0.02503307
v 0.02186012 0.10614740 0.02518760
v 0.02105545 0.10573101 0.02563518
v 0.02061912 0.10614199 0.02642717
v 0.02021122 0.10531281 0.02608276
v 0.01252539 0.09698130 0.02574354
v 0.01252539 0.09802679 0.02354851
v 0.01948194 0.10606448 0.02265853
v 0.02031257 0.10640878 0.02274522
v 0.01993063 0.10560483 0.02300858
v 0.02127917 0.10671161 0.02318526
v 0.02155976 0.10777513 0.02279469
v 0.02241264 0.10812483 0.02329174
v 0.02319260 0.10847633 0.02378879
v 0.02290212 0.10772827 0.02455015
v 0.02219880 0.10667195 0.02459067
v 0.02208385 0.10678191 0.02545332
v 0.02146582 0.10678191 0.02607664
v 0.02322226 0.10842586 0.02537087
v 0.01987006 0.10565169 0.02650255
v 0.01252539 0.09823409 0.02654872
v 0.01938058 0.10489461 0.02642999
v 0.01252539 0.09767709 0.02628677
v 0.01252539 0.09708224 0.02582788
v 0.02173899 0.10755161 0.02636309
v 0.02200351 0.10838260 0.02649218
v 0.02084284 0.10678191 0.02650302
v 0.01252539 0.09883435 0.02336052
v 0.01899370 0.10606448 0.02265853
v 0.01993063 0.10680715 0.02263874
v 0.02072789 0.10723977 0.02264628
v 0.01252539 0.09930482 0.02325122
v 0.02187372 0.10860612 0.02266983
v 0.02260547 0.10927488 0.02295629
v 0.02337801 0.10927488 0.02357960
v 0.02370927 0.10927488 0.02455015
v 0.02326182 0.10835015 0.02455015
v 0.02436068 0.11109368 0.02389903
v 0.02249299 0.10798964 0.02586698
v 0.02440023 0.11098913 0.02528654
v 0.02342745 0.10927488 0.02563283
v 0.02309742 0.10989857 0.02641916
v 0.02289965 0.10927488 0.02625614
v 0.01873660 0.10553633 0.02672775
v 0.01252539 0.09909752 0.02674895
v 0.01252539 0.09883975 0.02669195
v 0.02128535 0.10799144 0.02659348
v 0.02227667 0.10927488 0.02656238
v 0.01998131 0.10678191 0.02668912
v 0.01903572 0.10678191 0.02265381
v 0.01252539 0.10055220 0.02314191
v 0.01624346 0.10429075 0.02285216
v 0.02001345 0.10795359 0.02263261
v 0.02117782 0.10812483 0.02263450
v 0.02198249 0.10927488 0.02264392
v 0.02309989 0.11236269 0.02267926
v 0.02273278 0.11052046 0.02276171
v 0.02376366 0.11061600 0.02347642
v 0.02416785 0.11036724 0.02455015
v 0.02444720 0.11176784 0.02378031
v 0.02490454 0.11301342 0.02455015
v 0.02461901 0.11176784 0.02455015
v 0.02439899 0.11099093 0.02455015
v 0.02451642 0.11176784 0.02549620
v 0.02406278 0.11176784 0.02611904
v 0.02423089 0.11268715 0.02632069
v 0.02437180 0.11351814 0.02644366
v 0.02325069 0.11072955 0.02650585
v 0.01624346 0.10429075 0.02696568
v 0.01252539 0.10181941 0.02723234
v 0.01252539 0.10057383 0.02705284
v 0.02343857 0.11176784 0.02658782
v 0.02259929 0.11039608 0.02661939
v 0.02247445 0.11176784 0.02679324
v 0.01252539 0.10304337 0.02737180
v 0.01748941 0.10553633 0.02276359
v 0.01252539 0.10179779 0.02311600
v 0.01252539 0.10304337 0.02314427
v 0.01929282 0.10748672 0.02266701
v 0.02179461 0.11124689 0.02266654
v 0.02162280 0.11052046 0.02264109
v 0.02120377 0.10928749 0.02263167
v 0.02210857 0.11052046 0.02264109
v 0.02309989 0.11243660 0.02267926
v 0.02372039 0.11426081 0.02296665
v 0.02359802 0.11291609 0.02294121
v 0.02359802 0.11187600 0.02307266
v 0.02457946 0.11301342 0.02362248
v 0.02509490 0.11426081 0.02455015
v 0.02487240 0.11426081 0.02579584
v 0.02462025 0.11306750 0.02586133
v 0.02377725 0.11306750 0.02661751
v 0.02444225 0.11426081 0.02650302
v 0.02372039 0.11426081 0.02677063
v 0.02372039 0.11506295 0.02684554
v 0.02327541 0.11506295 0.02690019
v 0.02247445 0.11301342 0.02687051
v 0.01252539 0.10306680 0.02737321
v 0.01252539 0.10429075 0.02325405
v 0.02247445 0.11506295 0.02295676
v 0.02247445 0.11426081 0.02288279
v 0.02308630 0.11243660 0.02267926
v 0.02372039 0.11506295 0.02299398
v 0.02468576 0.11506295 0.02355369
v 0.02466474 0.11426081 0.02355605
v 0.02515299 0.11506295 0.02455015
v 0.02497005 0.11506295 0.02579584
v 0.02481678 0.11506295 0.02604837
v 0.02450282 0.11506295 0.02655484
v 0.02424572 0.11506295 0.02665049
v 0.02247445 0.11506295 0.02696756
v 0.01252539 0.10429075 0.02744482
v 0.01252539 0.10551470 0.02349197
v 0.02122726 0.11506295 0.02341753
v 0.01252539 0.10553633 0.02349621
v 0.02202946 0.11506295 0.02688982
v 0.01252539 0.10553633 0.02736709
v 0.02078351 0.11506295 0.02366582
v 0.01252539 0.10640337 0.02378408
v 0.01252539 0.10642140 0.02379067
v 0.02122726 0.11506295 0.02671739
v 0.01252539 0.10678371 0.02695578
v 0.02049675 0.11506295 0.02382836
v 0.01252539 0.10703427 0.02422082
v 0.02098128 0.11506295 0.02663258
v 0.02055484 0.11506295 0.02646014
v 0.01252539 0.10750114 0.02652516
v 0.02014571 0.11506295 0.02455015
v 0.01252539 0.10704509 0.02422977
v 0.01252539 0.10759848 0.02484178
v 0.01252539 0.10760569 0.02485262
v 0.02041022 0.11506295 0.02621986
v 0.02020380 0.11506295 0.02579584
v 0.01252539 0.10750474 0.02651574
v 0.02016301 0.11506295 0.02535108
v 0.01252539 0.10770303 0.02577888
v 0.01252539 0.10770303 0.02579725
f 1 2 7
f 1 7 19
f 1 19 37
f 1 37 36
f 1 36 34
f 1 34 59
f 1 59 58
f 1 58 84
f 1 84 83
f 1 83 88
f 1 88 111
f 1 111 125
f 1 125 130
f 1 130 135
f 1 135 140
f 1 140 147
f 1 147 150
f 1 150 149
f 1 149 144
f 1 144 143
f 1 143 142
f 1 142 137
f 1 137 133
f 1 133 132
f 1 132 128
f 1 128 126
f 1 126 112
f 1 112 91
f 1 91 90
f 1 90 64
f 1 64 45
f 1 45 41
f 1 41 20
f 1 20 8
f 1 8 3
f 1 3 4
f 1 4 5
f 1 5 6
f 1 6 2
f 2 6 7
f 3 8 9
f 3 9 4
f 4 9 10
f 4 10 11
f 4 11 12
f 4 12 5
f 5 12 13
f 5 13 14
f 5 14 15
f 5 15 6
f 6 15 16
f 6 16 17
f 6 17 18
f 6 18 19
f 6 19 7
f 8 20 21
f 8 21 22
f 8 22 23
f 8 23 9
f 9 23 10
f 10 23 22
f 10 22 24
f 10 24 11
f 11 24 25
f 11 25 26
f 11 26 27
f 11 27 12
f 12 27 28
f 12 28 29
f 12 29 14
f 12 14 13
f 14 29 28
f 14 28 15
f 15 30 31
f 15 31 17
f 15 17 16
f 15 28 32
f 15 32 30
f 17 33 34
f 17 34 35
f 17 35 36
f 17 36 37
f 17 37 19
f 17 19 18
f 17 31 38
f 17 38 39
f 17 39 40
f 17 40 33
f 20 41 21
f 21 42 43
f 21 43 44
f 21 44 22
f 21 41 45
f 21 45 42
f 22 44 25
f 22 25 24
f 25 46 26
f 25 44 46
f 26 46 47
f 26 47 48
f 26 48 27
f 27 49 50
f 27 50 28
f 27 48 51
f 27 51 49
f 28 50 32
f 30 32 52
f 30 52 38
f 30 38 31
f 32 50 49
f 32 49 53
f 32 53 54
f 32 54 55
f 32 55 56
f 32 56 52
f 33 40 57
f 33 57 58
f 33 58 59
f 33 59 34
f 34 36 35
f 38 52 56
f 38 56 55
f 38 55 39
f 39 60 40
f 39 55 61
f 39 61 60
f 40 62 57
f 40 60 62
f 42 63 43
f 42 45 64
f 42 64 65
f 42 65 63
f 43 63 66
f 43 66 67
f 43 67 44
f 44 67 46
f 46 67 68
f 46 68 69
f 46 69 70
f 46 70 47
f 47 70 71
f 47 71 48
f 48 71 51
f 49 51 72
f 49 72 53
f 51 73 74
f 51 74 75
f 51 75 76
f 51 76 72
f 51 71 73
f 53 55 54
f 53 72 76
f 53 76 75
f 53 75 74
f 53 74 77
f 53 77 78
f 53 78 55
f 55 78 79
f 55 79 80
f 55 80 81
f 55 81 61
f 57 62 82
f 57 82 83
f 57 83 84
f 57 84 58
f 60 61 62
f 61 81 85
f 61 85 86
f 61 86 87
f 61 87 62
f 62 88 82
f 62 87 88
f 63 65 89
f 63 89 90
f 63 90 91
f 63 91 92
f 63 92 66
f 64 90 65
f 65 90 89
f 66 92 93
f 66 93 94
f 66 94 95
f 66 95 67
f 67 95 96
f 67 96 68
f 68 96 69
f 69 97 98
f 69 98 99
f 69 99 100
f 69 100 70
f 69 96 97
f 70 100 71
f 71 100 73
f 73 100 101
f 73 101 102
f 73 102 74
f 74 102 103
f 74 103 77
f 77 103 104
f 77 104 80
f 77 80 79
f 77 79 78
f 80 105 85
f 80 85 81
f 80 104 103
f 80 103 106
f 80 106 105
f 82 88 83
f 85 105 107
f 85 107 87
f 85 87 86
f 87 107 108
f 87 108 109
f 87 109 110
f 87 110 88
f 88 110 111
f 91 112 93
f 91 93 92
f 93 113 114
f 93 114 115
f 93 115 94
f 93 112 113
f 94 96 95
f 94 115 97
f 94 97 96
f 97 115 113
f 97 113 116
f 97 116 98
f 98 116 117
f 98 117 118
f 98 118 99
f 99 101 100
f 99 118 101
f 101 118 102
f 102 118 119
f 102 119 120
f 102 120 103
f 103 120 121
f 103 121 106
f 105 106 107
f 106 121 122
f 106 122 123
f 106 123 108
f 106 108 107
f 108 123 122
f 108 122 121
f 108 121 120
f 108 120 119
f 108 119 117
f 108 117 116
f 108 116 113
f 108 113 127
f 108 127 131
f 108 131 136
f 108 136 141
f 108 141 148
f 108 148 146
f 108 146 145
f 108 145 139
f 108 139 138
f 108 138 134
f 108 134 129
f 108 129 124
f 108 124 109
f 109 124 125
f 109 125 110
f 110 125 111
f 112 126 113
f 113 115 114
f 113 126 128
f 113 128 127
f 117 119 118
f 124 129 130
f 124 130 125
f 127 128 132
f 127 132 133
f 127 133 131
f 129 134 130
f 130 134 135
f 131 133 136
f 133 137 136
f 134 138 135
f 135 138 139
f 135 139 140
f 136 137 142
f 136 142 143
f 136 143 144
f 136 144 141
f 139 145 140
f 140 145 146
f 140 146 147
f 141 144 149
f 141 149 150
f 141 150 148
f 146 148 150
f 146 150 147

