# https://github.com/mikedh/trimesh
v 0.00062689 0.11506295 0.02661642
v 0.00062689 0.11506295 0.02922836
v 0.00062689 0.11550859 0.02646321
v 0.00097944 0.11506295 0.02630999
v 0.00253243 0.11506295 0.02939941
v 0.00062689 0.11550859 0.02930565
v 0.00138001 0.11506295 0.02605616
v 0.00062689 0.11675459 0.02651260
v 0.00135852 0.11550859 0.02606851
v 0.00377836 0.11506295 0.02946207
v 0.00253243 0.11550859 0.02944469
v 0.00062689 0.11675459 0.02941496
v 0.00178563 0.11506295 0.02584166
v 0.00062689 0.11702585 0.02654736
v 0.00157713 0.11800208 0.02619428
v 0.00144698 0.11675459 0.02612614
v 0.00253243 0.11550859 0.02551694
v 0.00257160 0.11506295 0.02547212
v 0.00377836 0.11550859 0.02949865
v 0.00502555 0.11506295 0.02923568
v 0.01353603 0.12797154 0.02925763
v 0.00377836 0.11675459 0.02959927
v 0.00377836 0.11800208 0.02969532
v 0.00253243 0.11675459 0.02953890
v 0.00377836 0.11924807 0.02976300
v 0.00062689 0.11800208 0.02940764
v 0.00062689 0.11798717 0.02668777
v 0.00176162 0.11924807 0.02630953
v 0.00253243 0.11924807 0.02592536
v 0.00253243 0.11800208 0.02574836
v 0.00253243 0.11675459 0.02562625
v 0.00377836 0.11924807 0.02558646
v 0.00312886 0.11506295 0.02536464
v 0.00581658 0.11506295 0.02899236
v 0.01353603 0.12695656 0.02904679
v 0.01353603 0.12884791 0.02915655
v 0.01250239 0.12797154 0.02938020
v 0.00751741 0.12547806 0.02978862
v 0.00502555 0.12174156 0.02979410
v 0.00377836 0.12049407 0.02974608
v 0.00062689 0.11850584 0.02932669
v 0.00502555 0.12298606 0.02976986
v 0.00062689 0.11918548 0.02715792
v 0.00188419 0.11991877 0.02639780
v 0.00253495 0.12039868 0.02617736
v 0.00365831 0.12185930 0.02604747
v 0.00377836 0.12049407 0.02572138
v 0.00377836 0.11506295 0.02524070
v 0.00627148 0.12423206 0.02574150
v 0.00876334 0.12672555 0.02563540
v 0.01125646 0.12797154 0.02542822
v 0.01250239 0.12797154 0.02526814
v 0.01353603 0.12797154 0.02514466
v 0.00643954 0.11506295 0.02864249
v 0.01353603 0.12681199 0.02898871
v 0.01353603 0.12904018 0.02912042
v 0.01125646 0.12797154 0.02949865
v 0.00876334 0.12672555 0.02971315
v 0.00751741 0.12672555 0.02960933
v 0.00627148 0.12547806 0.02966330
v 0.00627148 0.12423206 0.02981651
v 0.00062689 0.11913778 0.02920961
v 0.00502555 0.12423206 0.02953524
v 0.00316171 0.12235412 0.02643073
v 0.00062689 0.11928682 0.02785493
v 0.00427243 0.12504583 0.02738477
v 0.00449862 0.12470751 0.02655376
v 0.00295195 0.12152246 0.02627112
v 0.00398180 0.12298606 0.02617782
v 0.00495858 0.12426783 0.02610007
v 0.00502555 0.12298606 0.02581011
v 0.00446829 0.11506295 0.02523293
v 0.00627148 0.12547806 0.02592993
v 0.00751741 0.12672555 0.02588740
v 0.01000927 0.12797154 0.02562991
v 0.01353603 0.12917134 0.02544056
v 0.01353603 0.12888964 0.02536785
v 0.01353603 0.12768687 0.02516615
v 0.00502555 0.11506295 0.02523338
v 0.00718887 0.11506295 0.02801958
v 0.01353603 0.12634847 0.02879296
v 0.01250239 0.12908638 0.02917073
v 0.01353603 0.12955587 0.02882818
v 0.01000927 0.12797154 0.02952655
v 0.00632961 0.12667934 0.02920046
v 0.00870268 0.12806395 0.02929788
v 0.00751741 0.12768836 0.02916158
v 0.00552973 0.12623222 0.02901981
v 0.00507862 0.12536330 0.02915152
v 0.00062689 0.11925255 0.02874311
v 0.00439121 0.12487145 0.02892422
v 0.00429644 0.12501006 0.02828896
v 0.00425095 0.12387734 0.02630908
v 0.00062689 0.11934346 0.02828896
v 0.00474882 0.12563306 0.02828896
v 0.00537178 0.12640659 0.02828896
v 0.00544128 0.12633207 0.02704313
v 0.00479304 0.12546762 0.02699876
v 0.00562198 0.12613236 0.02639826
v 0.00538947 0.12547806 0.02626654
v 0.00637257 0.12661973 0.02626380
v 0.00751741 0.12763172 0.02623956
v 0.00869889 0.12805352 0.02602140
v 0.01000927 0.12899845 0.02608909
v 0.01250239 0.12921754 0.02563037
v 0.01250239 0.12999405 0.02621120
v 0.01353603 0.12923691 0.02548996
v 0.01353603 0.12675834 0.02535550
v 0.00625126 0.11506295 0.02549499
v 0.00545013 0.11506295 0.02530976
v 0.00746434 0.11506295 0.02704313
v 0.01353603 0.12563157 0.02817096
v 0.01353603 0.12966318 0.02875729
v 0.01250239 0.12970938 0.02875911
v 0.01125646 0.12903720 0.02919406
v 0.01000927 0.12889114 0.02914192
v 0.00678325 0.12744095 0.02899831
v 0.00907672 0.12872868 0.02903170
v 0.00824525 0.12854089 0.02878518
v 0.00598590 0.12702959 0.02828896
v 0.00604024 0.12695656 0.02704313
v 0.00685527 0.12738282 0.02639140
v 0.00907040 0.12877190 0.02625968
v 0.01162165 0.12990910 0.02632783
v 0.01122613 0.12930995 0.02597978
v 0.01250239 0.13021166 0.02704313
v 0.01353603 0.13028767 0.02704313
v 0.01353603 0.13004622 0.02612568
v 0.01353603 0.12568523 0.02599991
v 0.00716865 0.11506295 0.02608223
v 0.00728617 0.11506295 0.02644857
v 0.01353603 0.12521723 0.02704724
v 0.01353603 0.13002386 0.02824093
v 0.01250239 0.13005814 0.02813574
v 0.01125646 0.12966019 0.02857938
v 0.00755532 0.12825621 0.02833744
v 0.00660887 0.12758850 0.02828896
v 0.01008129 0.12950966 0.02821990
v 0.00870268 0.12890753 0.02833744
v 0.00799632 0.12868397 0.02795417
v 0.00666320 0.12754677 0.02704313
v 0.00755532 0.12821150 0.02700425
v 0.00824020 0.12852300 0.02656337
v 0.01079145 0.12978688 0.02665667
v 0.01122613 0.12997319 0.02706051
v 0.01353603 0.13026233 0.02723019
v 0.01054504 0.12987035 0.02748722
v 0.01054504 0.12987035 0.02775888
v 0.01125646 0.12995530 0.02795600
v 0.01353603 0.13008348 0.02813437
v 0.00799632 0.12868397 0.02739392
v 0.00869889 0.12893287 0.02700425
v 0.01008129 0.12959462 0.02706051
f 1 2 6
f 1 6 12
f 1 12 26
f 1 26 41
f 1 41 62
f 1 62 90
f 1 90 94
f 1 94 65
f 1 65 43
f 1 43 27
f 1 27 14
f 1 14 8
f 1 8 3
f 1 3 4
f 1 4 7
f 1 7 13
f 1 13 18
f 1 18 33
f 1 33 48
f 1 48 72
f 1 72 79
f 1 79 110
f 1 110 109
f 1 109 130
f 1 130 131
f 1 131 111
f 1 111 80
f 1 80 54
f 1 54 34
f 1 34 20
f 1 20 10
f 1 10 5
f 1 5 2
f 2 5 6
f 3 7 4
f 3 8 9
f 3 9 7
f 5 10 11
f 5 11 6
f 6 11 12
f 7 9 13
f 8 14 15
f 8 15 16
f 8 16 9
f 9 16 17
f 9 17 18
f 9 18 13
f 10 19 11
f 10 20 21
f 10 21 19
f 11 19 22
f 11 22 23
f 11 23 24
f 11 24 12
f 12 24 23
f 12 23 25
f 12 25 26
f 14 27 15
f 15 28 29
f 15 29 30
f 15 30 16
f 15 27 28
f 16 31 17
f 16 30 31
f 17 31 32
f 17 32 18
f 18 32 33
f 19 21 22
f 20 34 21
f 21 35 55
f 21 55 81
f 21 81 112
f 21 112 132
f 21 132 129
f 21 129 108
f 21 108 78
f 21 78 53
f 21 53 77
f 21 77 76
f 21 76 107
f 21 107 128
f 21 128 127
f 21 127 146
f 21 146 150
f 21 150 133
f 21 133 113
f 21 113 83
f 21 83 56
f 21 56 36
f 21 36 37
f 21 37 23
f 21 23 22
f 21 34 35
f 23 37 38
f 23 38 25
f 25 38 39
f 25 39 40
f 25 40 26
f 26 40 42
f 26 42 41
f 27 43 44
f 27 44 28
f 28 44 45
f 28 45 29
f 29 45 46
f 29 46 47
f 29 47 30
f 30 47 32
f 30 32 31
f 32 48 33
f 32 47 49
f 32 49 50
f 32 50 51
f 32 51 52
f 32 52 53
f 32 53 48
f 34 54 35
f 35 54 55
f 36 56 57
f 36 57 37
f 37 57 58
f 37 58 38
f 38 58 59
f 38 59 60
f 38 60 61
f 38 61 39
f 39 61 42
f 39 42 40
f 41 42 62
f 42 61 60
f 42 60 63
f 42 63 62
f 43 64 44
f 43 65 66
f 43 66 67
f 43 67 64
f 44 64 68
f 44 68 45
f 45 68 69
f 45 69 46
f 46 69 70
f 46 70 47
f 47 70 71
f 47 71 49
f 48 53 72
f 49 71 73
f 49 73 50
f 50 73 74
f 50 74 75
f 50 75 51
f 51 75 76
f 51 76 77
f 51 77 52
f 52 77 53
f 53 78 79
f 53 79 72
f 54 80 81
f 54 81 55
f 56 82 57
f 56 83 82
f 57 84 58
f 57 82 84
f 58 84 59
f 59 85 60
f 59 84 86
f 59 86 87
f 59 87 85
f 60 85 88
f 60 88 89
f 60 89 63
f 62 63 89
f 62 89 91
f 62 91 92
f 62 92 90
f 64 67 93
f 64 93 68
f 65 94 66
f 66 92 95
f 66 95 96
f 66 96 97
f 66 97 98
f 66 98 67
f 66 94 92
f 67 98 99
f 67 99 93
f 68 93 69
f 69 93 70
f 70 93 100
f 70 100 73
f 70 73 71
f 73 100 101
f 73 101 74
f 74 102 103
f 74 103 75
f 74 101 102
f 75 103 104
f 75 104 105
f 75 105 76
f 76 105 106
f 76 106 107
f 78 108 109
f 78 109 110
f 78 110 79
f 80 111 112
f 80 112 81
f 82 83 113
f 82 113 114
f 82 114 115
f 82 115 84
f 84 115 116
f 84 116 86
f 85 87 117
f 85 117 88
f 86 116 118
f 86 118 87
f 87 118 119
f 87 119 117
f 88 96 91
f 88 91 89
f 88 117 120
f 88 120 96
f 90 92 94
f 91 96 95
f 91 95 92
f 93 99 100
f 96 120 121
f 96 121 97
f 97 99 98
f 97 121 99
f 99 121 122
f 99 122 101
f 99 101 100
f 101 122 102
f 102 122 123
f 102 123 103
f 103 123 104
f 104 123 124
f 104 124 125
f 104 125 105
f 105 125 124
f 105 124 106
f 106 126 127
f 106 127 128
f 106 128 107
f 106 124 126
f 108 129 130
f 108 130 109
f 111 131 129
f 111 129 132
f 111 132 112
f 113 133 114
f 114 133 134
f 114 134 135
f 114 135 116
f 114 116 115
f 116 135 118
f 117 119 136
f 117 136 137
f 117 137 120
f 118 135 138
f 118 138 119
f 119 138 139
f 119 139 140
f 119 140 136
f 120 137 141
f 120 141 121
f 121 141 122
f 122 141 142
f 122 142 143
f 122 143 123
f 123 143 144
f 123 144 124
f 124 144 145
f 124 145 126
f 126 146 127
f 126 145 147
f 126 147 148
f 126 148 149
f 126 149 134
f 126 134 146
f 129 131 130
f 133 150 134
f 134 150 146
f 134 149 135
f 135 149 148
f 135 148 138
f 136 140 137
f 137 140 151
f 137 151 141
f 138 148 139
f 139 148 140
f 140 148 147
f 140 147 151
f 141 151 142
f 142 151 143
f 143 151 152
f 143 152 144
f 144 147 145
f 144 152 153
f 144 153 147
f 147 153 151
f 151 153 152

