# https://github.com/mikedh/trimesh
v 0.00062689 0.09182948 0.02413096
v 0.00189174 0.09628923 0.02391687
v 0.00150390 0.09182948 0.02372029
v 0.00062689 0.09182948 0.02716978
v 0.00062689 0.11506295 0.02661573
v 0.00097863 0.11506295 0.02630952
v 0.00137928 0.11506295 0.02605650
v 0.00178576 0.11506295 0.02584175
v 0.00252883 0.09182948 0.02342575
v 0.00257076 0.11506295 0.02547196
v 0.00314495 0.11368023 0.02516963
v 0.00253233 0.09182948 0.02765441
v 0.00188709 0.09218426 0.02767776
v 0.00062689 0.11506295 0.02922831
v 0.00312399 0.09875222 0.02392076
v 0.00377505 0.09182948 0.02326096
v 0.00312865 0.11506295 0.02536491
v 0.00377855 0.11506295 0.02524035
v 0.01252539 0.10428768 0.02325383
v 0.01125587 0.10304368 0.02327524
v 0.01000965 0.10428768 0.02353085
v 0.01000965 0.10304368 0.02341926
v 0.00876343 0.10304368 0.02357237
v 0.00698844 0.10477209 0.02393828
v 0.00502477 0.10678250 0.02435154
v 0.00338488 0.09958459 0.02395579
v 0.00274081 0.09182948 0.02764792
v 0.00377855 0.11506295 0.02946252
v 0.00253233 0.11506295 0.02939894
v 0.00377855 0.09307348 0.02336412
v 0.00502127 0.09182948 0.02310526
v 0.00446804 0.11506295 0.02523321
v 0.01252539 0.10551349 0.02349192
v 0.01252539 0.10304368 0.02314419
v 0.01250326 0.10304368 0.02314613
v 0.00502477 0.11506295 0.02523321
v 0.00626749 0.09182948 0.02295150
v 0.00876343 0.10179741 0.02346922
v 0.00502477 0.10428768 0.02414264
v 0.00628497 0.10432862 0.02398888
v 0.00627215 0.09556603 0.02326032
v 0.00560129 0.10249104 0.02392076
v 0.00628497 0.10296181 0.02387470
v 0.00379136 0.10059434 0.02398888
v 0.00360967 0.09182948 0.02757136
v 0.00319853 0.09238439 0.02767127
v 0.00455889 0.10962529 0.02893442
v 0.01067120 0.10360541 0.02767063
v 0.01252539 0.10306642 0.02737349
v 0.01252539 0.10428768 0.02744421
v 0.00502477 0.11506295 0.02923545
v 0.00502477 0.09307348 0.02320841
v 0.01252539 0.10553396 0.02349647
v 0.01252539 0.10179741 0.02311629
v 0.00751255 0.09182948 0.02283472
v 0.00544988 0.11506295 0.02530977
v 0.00368654 0.09182948 0.02756423
v 0.00384610 0.09427882 0.02774848
v 0.00502477 0.10553396 0.02853867
v 0.00502477 0.10678250 0.02864248
v 0.00502477 0.10802878 0.02874498
v 0.00627215 0.10553396 0.02838297
v 0.00999451 0.10313237 0.02771669
v 0.00956823 0.10214536 0.02768879
v 0.01039982 0.10277760 0.02763624
v 0.01115455 0.10313237 0.02756812
v 0.01250326 0.10304368 0.02737479
v 0.01252539 0.10304368 0.02737154
v 0.01252539 0.10431042 0.02744291
v 0.00581676 0.11506295 0.02899216
v 0.01252539 0.10640271 0.02378452
v 0.01252539 0.10055113 0.02314224
v 0.01250326 0.10055113 0.02313900
v 0.00875877 0.09182948 0.02289376
v 0.00625119 0.11506295 0.02549531
v 0.01252539 0.10642090 0.02379101
v 0.00627215 0.09182948 0.02724114
v 0.00627215 0.09431976 0.02744875
v 0.00790855 0.09902968 0.02763689
v 0.00883215 0.10175647 0.02774848
v 0.00751721 0.09182948 0.02707052
v 0.01252539 0.10182015 0.02723206
v 0.01252539 0.10553396 0.02736700
v 0.00643987 0.11506295 0.02864248
v 0.01252539 0.09930485 0.02325123
v 0.01250326 0.09930485 0.02324410
v 0.00986407 0.09182948 0.02345819
v 0.00716897 0.11506295 0.02608245
v 0.01252539 0.10703267 0.02422114
v 0.00876343 0.09182948 0.02681231
v 0.01252539 0.10179741 0.02722882
v 0.01252539 0.10678250 0.02695569
v 0.00718877 0.11506295 0.02801966
v 0.01252539 0.09802674 0.02354837
v 0.01193605 0.09607546 0.02386497
v 0.01059083 0.09257088 0.02416145
v 0.00990949 0.09182948 0.02353734
v 0.01252539 0.09791531 0.02357562
v 0.00728544 0.11506295 0.02644770
v 0.01252539 0.10760577 0.02485304
v 0.01252539 0.10759895 0.02484201
v 0.01252539 0.10704404 0.02422957
v 0.00958454 0.09182948 0.02653139
v 0.01252539 0.10057387 0.02705300
v 0.01252539 0.10750116 0.02652491
v 0.00746363 0.11506295 0.02704262
v 0.01252539 0.10750571 0.02651517
v 0.01252539 0.09688963 0.02435219
v 0.01045806 0.09182948 0.02456563
v 0.01252539 0.10770357 0.02577947
v 0.01019717 0.09182948 0.02576066
v 0.01252539 0.09767651 0.02628681
v 0.01252539 0.09823370 0.02654891
v 0.01252539 0.09884091 0.02669164
v 0.01252539 0.09909790 0.02674873
v 0.01252539 0.10770357 0.02579764
v 0.01252539 0.09664856 0.02461688
v 0.01066072 0.09234346 0.02524943
v 0.01022396 0.09182948 0.02572563
v 0.01252539 0.09665084 0.02486666
v 0.01252539 0.09708066 0.02582878
v 0.01252539 0.09694194 0.02570097
v 0.01252539 0.09698060 0.02574379
f 1 2 3
f 1 3 9
f 1 9 16
f 1 16 31
f 1 31 37
f 1 37 55
f 1 55 74
f 1 74 87
f 1 87 97
f 1 97 109
f 1 109 119
f 1 119 111
f 1 111 103
f 1 103 90
f 1 90 81
f 1 81 77
f 1 77 57
f 1 57 45
f 1 45 27
f 1 27 12
f 1 12 4
f 1 4 14
f 1 14 5
f 1 5 6
f 1 6 7
f 1 7 8
f 1 8 2
f 2 9 3
f 2 8 10
f 2 10 11
f 2 11 9
f 4 12 13
f 4 13 14
f 5 14 29
f 5 29 28
f 5 28 51
f 5 51 70
f 5 70 84
f 5 84 93
f 5 93 106
f 5 106 99
f 5 99 88
f 5 88 75
f 5 75 56
f 5 56 36
f 5 36 32
f 5 32 18
f 5 18 17
f 5 17 10
f 5 10 8
f 5 8 7
f 5 7 6
f 9 15 16
f 9 11 15
f 10 17 11
f 11 17 18
f 11 18 19
f 11 19 20
f 11 20 21
f 11 21 22
f 11 22 23
f 11 23 24
f 11 24 25
f 11 25 26
f 11 26 15
f 12 27 28
f 12 28 13
f 13 28 29
f 13 29 14
f 15 26 16
f 16 30 52
f 16 52 31
f 16 26 30
f 18 32 19
f 19 33 53
f 19 53 71
f 19 71 76
f 19 76 89
f 19 89 102
f 19 102 101
f 19 101 100
f 19 100 110
f 19 110 116
f 19 116 107
f 19 107 105
f 19 105 92
f 19 92 83
f 19 83 69
f 19 69 50
f 19 50 49
f 19 49 68
f 19 68 82
f 19 82 91
f 19 91 104
f 19 104 115
f 19 115 114
f 19 114 113
f 19 113 112
f 19 112 121
f 19 121 123
f 19 123 122
f 19 122 120
f 19 120 117
f 19 117 108
f 19 108 98
f 19 98 94
f 19 94 85
f 19 85 72
f 19 72 54
f 19 54 34
f 19 34 35
f 19 35 20
f 19 32 36
f 19 36 33
f 20 35 37
f 20 37 22
f 20 22 21
f 22 37 38
f 22 38 23
f 23 39 40
f 23 40 24
f 23 38 37
f 23 37 41
f 23 41 42
f 23 42 43
f 23 43 39
f 24 40 25
f 25 40 39
f 25 39 44
f 25 44 26
f 26 44 30
f 27 45 46
f 27 46 28
f 28 47 48
f 28 48 49
f 28 49 50
f 28 50 51
f 28 46 47
f 30 44 52
f 31 52 41
f 31 41 37
f 33 36 53
f 34 54 55
f 34 55 35
f 35 55 37
f 36 56 53
f 39 43 42
f 39 42 44
f 41 52 42
f 42 52 44
f 45 57 46
f 46 57 58
f 46 58 59
f 46 59 60
f 46 60 47
f 47 60 61
f 47 61 48
f 48 62 63
f 48 63 64
f 48 64 65
f 48 65 66
f 48 66 49
f 48 61 62
f 49 66 67
f 49 67 68
f 50 69 70
f 50 70 51
f 53 56 71
f 54 72 73
f 54 73 74
f 54 74 55
f 56 75 76
f 56 76 71
f 57 77 78
f 57 78 58
f 58 78 79
f 58 79 62
f 58 62 59
f 59 62 60
f 60 62 61
f 62 79 80
f 62 80 64
f 62 64 63
f 64 80 79
f 64 79 77
f 64 77 65
f 65 77 66
f 66 77 81
f 66 81 67
f 67 81 68
f 68 81 82
f 69 83 70
f 70 83 84
f 72 85 86
f 72 86 74
f 72 74 73
f 74 86 85
f 74 85 87
f 75 88 76
f 76 88 89
f 77 79 78
f 81 90 82
f 82 90 91
f 83 92 84
f 84 92 93
f 85 94 87
f 87 95 96
f 87 96 97
f 87 94 98
f 87 98 95
f 88 99 100
f 88 100 101
f 88 101 102
f 88 102 89
f 90 103 104
f 90 104 91
f 92 105 93
f 93 105 107
f 93 107 106
f 95 98 108
f 95 108 96
f 96 109 97
f 96 108 109
f 99 106 100
f 100 106 110
f 103 111 112
f 103 112 113
f 103 113 114
f 103 114 115
f 103 115 104
f 106 107 116
f 106 116 110
f 108 117 109
f 109 118 119
f 109 117 120
f 109 120 118
f 111 119 112
f 112 119 121
f 118 120 122
f 118 122 123
f 118 123 119
f 119 123 121

