# https://github.com/mikedh/trimesh
v -0.01205322 0.12542060 0.03078187
v -0.01205322 0.12586679 0.03161770
v -0.01205322 0.12555985 0.02953509
v -0.00619351 0.11508325 0.02828957
v -0.00602471 0.11508325 0.02897049
v -0.01205322 0.12672474 0.03209378
v -0.00589314 0.11508325 0.02932392
v -0.00535818 0.11508325 0.02973488
v -0.01205322 0.12600604 0.02884088
v -0.00586956 0.11508325 0.02734499
v -0.01205322 0.12803039 0.03246617
v -0.00498707 0.11508325 0.02995996
v -0.00457002 0.11508325 0.03012497
v -0.00439998 0.11508325 0.03018124
v -0.01205322 0.12672474 0.02857850
v -0.00558657 0.11508325 0.02713256
v -0.00743968 0.12672474 0.03177639
v -0.00993201 0.12797200 0.03217471
v -0.01205322 0.12914588 0.03229484
v -0.00401645 0.11508325 0.03021791
v -0.00371359 0.11508325 0.03023878
v -0.00288075 0.11508325 0.03023688
v -0.00247860 0.11508325 0.03023245
v -0.00178725 0.11508325 0.03017176
v -0.01205322 0.12759917 0.02841601
v -0.00494486 0.11508325 0.02668556
v -0.00868585 0.12797200 0.03198061
v -0.00563373 0.12486660 0.03140400
v -0.00547610 0.12569760 0.03144130
v -0.00547610 0.12626657 0.03144130
v -0.01117818 0.12921775 0.03214499
v -0.01117818 0.13002180 0.03162592
v -0.01205322 0.12941988 0.03211781
v -0.00156507 0.11508325 0.03009905
v -0.00110335 0.11550848 0.02998588
v -0.00172643 0.11550848 0.03018946
v -0.00245501 0.11924724 0.03057070
v -0.01205322 0.12797200 0.02835658
v -0.00437639 0.11508325 0.02639726
v -0.00654105 0.12762313 0.03151338
v -0.00739872 0.12801093 0.03165500
v -0.00868585 0.12900813 0.03167524
v -0.00370118 0.12298599 0.03097787
v -0.00245501 0.12049448 0.03064847
v -0.00245501 0.12174024 0.03062128
v -0.00370118 0.12423174 0.03093235
v -0.00278517 0.12423174 0.03040885
v -0.00366643 0.12545803 0.03059220
v -0.00571069 0.12709757 0.03132813
v -0.00985878 0.12932256 0.03180168
v -0.01022369 0.12993046 0.03151085
v -0.01117818 0.13032875 0.03078187
v -0.01205322 0.13005923 0.03168409
v -0.00118527 0.11508325 0.02996881
v 0.00062565 0.11550848 0.02930558
v -0.00093330 0.11675573 0.03003899
v -0.00155763 0.11675573 0.03024194
v -0.01205322 0.12888086 0.02853045
v -0.01117818 0.12797200 0.02823646
v -0.00315381 0.11886842 0.02640105
v -0.00245501 0.11508325 0.02600780
v -0.00375083 0.11508325 0.02623035
v -0.00436771 0.11508325 0.02639473
v -0.00695561 0.12845412 0.03129526
v -0.00778722 0.12876257 0.03152603
v -0.00939333 0.12980768 0.03133129
v -0.00142234 0.11800148 0.03029252
v -0.00139130 0.11924724 0.03033361
v -0.00148936 0.12049448 0.03034436
v -0.00240661 0.12292011 0.03045753
v -0.00167058 0.12174024 0.03027355
v -0.00297632 0.12502980 0.03026659
v -0.00179594 0.12246343 0.03019199
v -0.00405741 0.12643128 0.03041770
v -0.00523034 0.12765756 0.03049736
v -0.00985878 0.13006222 0.03086217
v -0.01117818 0.13020746 0.02953509
v -0.01205322 0.13037965 0.03078187
v -0.01205322 0.13015057 0.03143182
v -0.00902221 0.12993795 0.03050052
v -0.00902221 0.12993795 0.02977913
v -0.00985878 0.13003378 0.02943203
v 0.00062565 0.11508325 0.02923287
v 0.00062565 0.11675573 0.02941496
v -0.00079925 0.11800148 0.03007502
v -0.01205322 0.12928962 0.02861770
v -0.00993201 0.12797200 0.02807018
v -0.00245501 0.11911697 0.02636375
v -0.00245501 0.11800148 0.02625247
v -0.00245501 0.11675573 0.02614562
v -0.00245501 0.11550848 0.02604194
v -0.00709587 0.12672474 0.02761875
v -0.00494735 0.12423174 0.02712940
v -0.00156259 0.11903911 0.02636375
v -0.00120885 0.11550848 0.02610390
v -0.00120885 0.11508325 0.02608430
v -0.00654726 0.12876407 0.03046449
v -0.00739872 0.12901861 0.03084067
v -0.00863868 0.12964597 0.03086217
v 0.00062565 0.11800148 0.02940737
v -0.00076822 0.11924724 0.03003709
v 0.00062565 0.11850607 0.02932645
v 0.00062565 0.11913793 0.02921011
v -0.00285220 0.12520798 0.02953509
v -0.00325559 0.12583086 0.02953509
v -0.00387867 0.12662143 0.02953509
v -0.00442480 0.12724431 0.02953509
v -0.00504913 0.12779382 0.02953509
v -0.01205322 0.13015206 0.02946048
v -0.01205322 0.13034222 0.03040948
v -0.00939457 0.12982865 0.02894900
v -0.01022493 0.12988255 0.02886870
v -0.01117818 0.12990051 0.02885163
v -0.01205322 0.13005175 0.02923667
v -0.00743968 0.12930459 0.02953509
v -0.00863868 0.12972982 0.02943203
v 0.00062565 0.11508325 0.02660969
v -0.01117818 0.12921775 0.02850263
v -0.01205322 0.12984512 0.02885606
v -0.00868585 0.12797200 0.02795258
v -0.00689603 0.12735810 0.02766175
v -0.00245501 0.11974135 0.02643013
v -0.00678805 0.12735810 0.02766175
v -0.00494735 0.12547899 0.02735005
v -0.00370118 0.12298599 0.02692329
v 0.00062565 0.11798651 0.02668746
v 0.00062565 0.11702525 0.02654773
v 0.00062565 0.11675573 0.02651296
v -0.00117161 0.11795656 0.02632012
v -0.00120885 0.11675573 0.02620253
v -0.00245501 0.12049448 0.02654900
v -0.00245501 0.12174024 0.02684678
v -0.00117161 0.11937151 0.02656038
v -0.00017493 0.11508325 0.02631886
v 0.00062565 0.11579147 0.02647439
v 0.00062565 0.11550848 0.02646364
v -0.00583232 0.12841819 0.02953509
v -0.00645541 0.12881048 0.02953509
v 0.00062565 0.11925323 0.02874415
v -0.00182945 0.12361186 0.02891991
v -0.00182945 0.12361186 0.02890600
v -0.00287951 0.12515109 0.02850832
v -0.00407106 0.12638187 0.02828957
v -0.00521420 0.12763511 0.02858925
v -0.00660559 0.12871316 0.02876185
v -0.00743968 0.12890032 0.02859494
v -0.00868585 0.12911294 0.02849188
v -0.00985878 0.12933454 0.02855764
v -0.01205322 0.12988105 0.02887439
v -0.00595644 0.12718441 0.02775785
v -0.00494735 0.12629801 0.02758841
v -0.00431309 0.12611235 0.02765985
v -0.00401272 0.12547899 0.02753593
v -0.00358327 0.12435003 0.02730895
v -0.00280752 0.12401314 0.02748029
v 0.00062565 0.11918585 0.02715785
v 0.00062565 0.11934456 0.02828957
v 0.00062565 0.11928616 0.02785521
v -0.00308927 0.12484414 0.02767755
v -0.00338095 0.12553140 0.02817134
f 1 2 6
f 1 6 11
f 1 11 19
f 1 19 33
f 1 33 53
f 1 53 79
f 1 79 78
f 1 78 110
f 1 110 109
f 1 109 114
f 1 114 149
f 1 149 119
f 1 119 86
f 1 86 58
f 1 58 38
f 1 38 25
f 1 25 15
f 1 15 9
f 1 9 3
f 1 3 4
f 1 4 5
f 1 5 2
f 2 5 7
f 2 7 8
f 2 8 6
f 3 9 4
f 4 10 16
f 4 16 26
f 4 26 39
f 4 39 63
f 4 63 62
f 4 62 61
f 4 61 96
f 4 96 134
f 4 134 117
f 4 117 83
f 4 83 54
f 4 54 34
f 4 34 24
f 4 24 23
f 4 23 22
f 4 22 21
f 4 21 20
f 4 20 14
f 4 14 13
f 4 13 12
f 4 12 8
f 4 8 7
f 4 7 5
f 4 9 10
f 6 8 12
f 6 12 13
f 6 13 14
f 6 14 11
f 9 15 10
f 10 15 16
f 11 17 18
f 11 18 19
f 11 14 20
f 11 20 21
f 11 21 22
f 11 22 23
f 11 23 24
f 11 24 17
f 15 25 26
f 15 26 16
f 17 27 18
f 17 24 28
f 17 28 29
f 17 29 30
f 17 30 27
f 18 27 19
f 19 31 32
f 19 32 33
f 19 27 31
f 24 34 35
f 24 35 36
f 24 36 37
f 24 37 28
f 25 38 26
f 26 38 39
f 27 40 41
f 27 41 42
f 27 42 31
f 27 30 40
f 28 37 29
f 29 43 30
f 29 37 44
f 29 44 43
f 30 43 45
f 30 45 46
f 30 46 47
f 30 47 48
f 30 48 49
f 30 49 40
f 31 42 50
f 31 50 51
f 31 51 32
f 32 52 53
f 32 53 33
f 32 51 52
f 34 54 35
f 35 54 55
f 35 55 56
f 35 56 36
f 36 56 57
f 36 57 37
f 37 57 44
f 38 58 59
f 38 59 60
f 38 60 61
f 38 61 62
f 38 62 63
f 38 63 39
f 40 49 64
f 40 64 65
f 40 65 41
f 41 65 42
f 42 65 66
f 42 66 51
f 42 51 50
f 43 44 45
f 44 57 67
f 44 67 68
f 44 68 69
f 44 69 45
f 45 69 46
f 46 70 47
f 46 69 71
f 46 71 70
f 47 72 48
f 47 70 71
f 47 71 73
f 47 73 72
f 48 72 74
f 48 74 49
f 49 74 75
f 49 75 64
f 51 66 76
f 51 76 52
f 52 77 78
f 52 78 79
f 52 79 53
f 52 76 80
f 52 80 81
f 52 81 82
f 52 82 77
f 54 83 55
f 55 84 56
f 55 83 117
f 55 117 136
f 55 136 135
f 55 135 128
f 55 128 127
f 55 127 126
f 55 126 156
f 55 156 158
f 55 158 157
f 55 157 139
f 55 139 103
f 55 103 102
f 55 102 100
f 55 100 84
f 56 84 85
f 56 85 67
f 56 67 57
f 58 86 87
f 58 87 59
f 59 87 60
f 60 88 89
f 60 89 90
f 60 90 91
f 60 91 61
f 60 87 92
f 60 92 93
f 60 93 88
f 61 91 94
f 61 94 95
f 61 95 96
f 64 97 98
f 64 98 66
f 64 66 65
f 64 75 97
f 66 80 76
f 66 98 97
f 66 97 99
f 66 99 80
f 67 85 68
f 68 85 100
f 68 100 101
f 68 101 69
f 69 101 100
f 69 100 71
f 71 100 102
f 71 102 103
f 71 103 73
f 72 104 105
f 72 105 74
f 72 73 103
f 72 103 104
f 74 106 107
f 74 107 75
f 74 105 106
f 75 107 108
f 75 108 97
f 77 109 110
f 77 110 78
f 77 82 111
f 77 111 112
f 77 112 113
f 77 113 114
f 77 114 109
f 80 99 97
f 80 97 115
f 80 115 81
f 81 115 116
f 81 116 111
f 81 111 82
f 84 100 85
f 86 118 87
f 86 119 118
f 87 118 120
f 87 120 121
f 87 121 92
f 88 94 89
f 88 93 122
f 88 122 94
f 89 94 90
f 90 94 91
f 92 121 93
f 93 121 123
f 93 123 124
f 93 124 125
f 93 125 122
f 94 126 127
f 94 127 128
f 94 128 129
f 94 129 130
f 94 130 95
f 94 122 131
f 94 131 132
f 94 132 133
f 94 133 126
f 95 130 128
f 95 128 96
f 96 128 135
f 96 135 136
f 96 136 134
f 97 108 137
f 97 137 138
f 97 138 115
f 103 139 140
f 103 140 104
f 104 140 141
f 104 141 105
f 105 141 142
f 105 142 106
f 106 142 107
f 107 142 143
f 107 143 144
f 107 144 108
f 108 144 137
f 111 116 145
f 111 145 146
f 111 146 147
f 111 147 112
f 112 147 148
f 112 148 113
f 113 149 114
f 113 148 118
f 113 118 149
f 115 138 145
f 115 145 116
f 117 134 136
f 118 119 149
f 118 148 123
f 118 123 121
f 118 121 120
f 122 125 131
f 123 148 147
f 123 147 146
f 123 146 150
f 123 150 151
f 123 151 124
f 124 151 152
f 124 152 153
f 124 153 154
f 124 154 125
f 125 154 132
f 125 132 131
f 126 133 132
f 126 132 154
f 126 154 153
f 126 153 155
f 126 155 156
f 128 130 129
f 137 144 145
f 137 145 138
f 139 157 140
f 140 157 141
f 141 157 158
f 141 158 156
f 141 156 142
f 142 159 160
f 142 160 143
f 142 156 159
f 143 160 159
f 143 159 152
f 143 152 144
f 144 152 145
f 145 152 150
f 145 150 146
f 150 152 151
f 152 159 153
f 153 159 155
f 155 159 156

