# https://github.com/mikedh/trimesh
v -0.02388571 0.11508182 0.03078170
v -0.02356783 0.11508182 0.03151931
v -0.02380051 0.11508182 0.03035693
v -0.02381517 0.11426115 0.03078170
v -0.02341667 0.11508182 0.03186888
v -0.02337178 0.11426115 0.03180918
v -0.02358523 0.11508182 0.02953609
v -0.02356416 0.11426115 0.02953609
v -0.02344782 0.11301367 0.02953609
v -0.02360905 0.11301367 0.03078170
v -0.02325361 0.11301367 0.03167486
v -0.02264991 0.11508182 0.03234187
v -0.02239707 0.11426115 0.03240214
v -0.02237875 0.11508182 0.03250719
v -0.02239707 0.11301367 0.03220181
v -0.02343408 0.11508182 0.02929443
v -0.02312078 0.11426115 0.02882718
v -0.02309238 0.11301367 0.02884440
v -0.02305299 0.11221879 0.02887884
v -0.02321147 0.11178912 0.02948959
v -0.02310704 0.11089398 0.02987361
v -0.02312811 0.11204262 0.03153251
v -0.02310704 0.11089398 0.03049813
v -0.02325636 0.11168314 0.03086091
v -0.02298978 0.11121193 0.03132931
v -0.02115028 0.11052159 0.03204855
v -0.02115028 0.11176763 0.03222133
v -0.02118692 0.11508182 0.03251293
v -0.02115028 0.11301367 0.03234474
v -0.02250334 0.11168314 0.03182698
v -0.02219736 0.11052159 0.03169610
v -0.02311528 0.11508182 0.02883521
v -0.02239707 0.11301367 0.02850860
v -0.02248776 0.11178912 0.02859126
v -0.02223034 0.11052159 0.02854591
v -0.02203338 0.10927555 0.02865555
v -0.02296413 0.11138809 0.02904301
v -0.02285145 0.11049581 0.02948959
v -0.02242455 0.10927555 0.02953609
v -0.02195277 0.10957632 0.03154112
v -0.02282488 0.11049581 0.03086091
v -0.02196926 0.10828445 0.02953609
v -0.02193903 0.10835606 0.03049354
v -0.02219462 0.10920681 0.03085804
v -0.02169352 0.10874563 0.03132472
v -0.02122631 0.10920681 0.03170988
v -0.02078568 0.10802808 0.03152045
v -0.01990440 0.10802808 0.03168347
v -0.01990440 0.10927555 0.03188208
v -0.01990440 0.11508182 0.03202272
v -0.02115028 0.11426115 0.03244462
v -0.01797604 0.10613324 0.03141311
v -0.01452790 0.10428996 0.03080351
v -0.01452790 0.10553743 0.03083565
v -0.02286885 0.11508182 0.02874337
v -0.02239707 0.11426115 0.02855682
v -0.02115028 0.11052159 0.02804594
v -0.02115028 0.10927555 0.02809933
v -0.01931353 0.10611176 0.02764758
v -0.02120708 0.10803668 0.02842996
v -0.02186941 0.10845632 0.02880020
v -0.02053650 0.10739647 0.03141024
v -0.02163306 0.10766286 0.02953609
v -0.02056765 0.10611176 0.03021744
v -0.01990440 0.10717447 0.03147626
v -0.01894618 0.10627503 0.03136375
v -0.01811529 0.10613324 0.03141311
v -0.01913306 0.11508182 0.03155145
v -0.01452790 0.10679207 0.03060433
v -0.01616586 0.10428996 0.03089133
v -0.01452790 0.10304392 0.03052856
v -0.01491907 0.10428996 0.03084656
v -0.02239707 0.11508182 0.02861077
v -0.02115028 0.11176763 0.02811942
v -0.01950682 0.10802808 0.02760625
v -0.02012976 0.10802808 0.02777042
v -0.01944911 0.10678347 0.02760108
v -0.01862921 0.10563196 0.02750981
v -0.01819407 0.10473252 0.02757755
v -0.01902496 0.10528106 0.02792138
v -0.02056215 0.10611462 0.02886162
v -0.02077926 0.10678347 0.02864005
v -0.01933093 0.10486858 0.03021055
v -0.01865853 0.10460935 0.03040572
v -0.02106600 0.10678347 0.02953609
v -0.02058414 0.10608884 0.02953609
v -0.02002349 0.10546582 0.02953609
v -0.01939964 0.10479983 0.02953609
v -0.01711492 0.10346070 0.03030928
v -0.01557865 0.10239941 0.03017267
v -0.01491907 0.10226765 0.03022605
v -0.01452790 0.10219747 0.03024155
v -0.01880144 0.11508182 0.03078170
v -0.01452790 0.10759984 0.03028173
v -0.01491907 0.10304392 0.03052684
v -0.02197201 0.11508182 0.02855797
v -0.02115028 0.11301367 0.02824800
v -0.01452790 0.10427707 0.02665166
v -0.01616586 0.10553743 0.02696565
v -0.01491907 0.10428996 0.02670964
v -0.01865853 0.10678347 0.02741281
v -0.01741173 0.10553743 0.02717287
v -0.01616586 0.10428996 0.02697541
v -0.01452790 0.10268299 0.02676360
v -0.01452790 0.10132238 0.02719985
v -0.01700408 0.10345067 0.02754024
v -0.01783588 0.10390182 0.02796214
v -0.01938956 0.10480699 0.02875256
v -0.01809880 0.10361394 0.02913600
v -0.01452790 0.10045158 0.02828933
v -0.01463050 0.10084545 0.02920603
v -0.01794581 0.10372136 0.02996602
v -0.01809880 0.10361394 0.02879274
v -0.01452790 0.10080391 0.02923530
v -0.01452790 0.10810113 0.02910443
v -0.01452790 0.10800373 0.02833927
v -0.01895259 0.11508182 0.02954125
v -0.01452790 0.10807105 0.02955905
v -0.02115028 0.11508182 0.02849597
v -0.01452790 0.10515359 0.02674236
v -0.01452790 0.10386888 0.02664879
v -0.01452790 0.10304392 0.02672686
v -0.01452790 0.10083971 0.02744667
v -0.01455538 0.10085260 0.02745873
v -0.01452790 0.10079675 0.02751728
v -0.01452790 0.10790634 0.02809990
v -0.01933735 0.11508182 0.02894657
v -0.01452790 0.10751391 0.02758960
v -0.01994288 0.11508182 0.02871869
v -0.01452790 0.10553743 0.02680665
v -0.01955446 0.11508182 0.02886104
v -0.01452790 0.10730194 0.02746906
v -0.01452790 0.10678347 0.02722797
v -0.01452790 0.10639247 0.02707356
f 1 2 5
f 1 5 12
f 1 12 14
f 1 14 28
f 1 28 50
f 1 50 68
f 1 68 93
f 1 93 117
f 1 117 127
f 1 127 131
f 1 131 129
f 1 129 119
f 1 119 96
f 1 96 73
f 1 73 55
f 1 55 32
f 1 32 16
f 1 16 7
f 1 7 3
f 1 3 4
f 1 4 2
f 2 4 6
f 2 6 5
f 3 7 8
f 3 8 4
f 4 8 9
f 4 9 10
f 4 10 11
f 4 11 6
f 5 6 12
f 6 13 14
f 6 14 12
f 6 11 15
f 6 15 13
f 7 16 17
f 7 17 8
f 8 17 18
f 8 18 19
f 8 19 9
f 9 19 20
f 9 20 21
f 9 21 10
f 10 22 11
f 10 21 23
f 10 23 24
f 10 24 25
f 10 25 22
f 11 22 15
f 13 15 26
f 13 26 27
f 13 27 14
f 14 27 29
f 14 29 28
f 15 22 30
f 15 30 31
f 15 31 26
f 16 32 17
f 17 33 18
f 17 32 33
f 18 33 34
f 18 34 19
f 19 34 35
f 19 35 36
f 19 36 37
f 19 37 20
f 20 37 21
f 21 37 38
f 21 38 39
f 21 39 23
f 22 25 40
f 22 40 31
f 22 31 30
f 23 41 25
f 23 25 24
f 23 39 42
f 23 42 43
f 23 43 41
f 25 41 43
f 25 43 44
f 25 44 45
f 25 45 40
f 26 31 46
f 26 46 47
f 26 47 48
f 26 48 49
f 26 49 27
f 27 49 29
f 28 29 51
f 28 51 52
f 28 52 53
f 28 53 54
f 28 54 50
f 29 49 52
f 29 52 51
f 31 40 46
f 32 55 33
f 33 55 56
f 33 56 57
f 33 57 34
f 34 57 58
f 34 58 35
f 35 58 36
f 36 58 59
f 36 59 60
f 36 60 61
f 36 61 37
f 37 61 38
f 38 61 39
f 39 61 42
f 40 45 62
f 40 62 47
f 40 47 46
f 42 61 63
f 42 63 43
f 43 45 44
f 43 63 64
f 43 64 45
f 45 64 62
f 47 62 65
f 47 65 48
f 48 65 66
f 48 66 67
f 48 67 49
f 49 67 52
f 50 54 69
f 50 69 68
f 52 67 70
f 52 70 71
f 52 71 72
f 52 72 53
f 53 72 71
f 53 71 92
f 53 92 114
f 53 114 110
f 53 110 125
f 53 125 123
f 53 123 105
f 53 105 104
f 53 104 122
f 53 122 121
f 53 121 98
f 53 98 120
f 53 120 130
f 53 130 134
f 53 134 133
f 53 133 132
f 53 132 128
f 53 128 126
f 53 126 116
f 53 116 115
f 53 115 118
f 53 118 94
f 53 94 69
f 53 69 54
f 55 73 56
f 56 73 74
f 56 74 57
f 57 74 75
f 57 75 76
f 57 76 58
f 58 76 77
f 58 77 59
f 59 77 78
f 59 78 79
f 59 79 80
f 59 80 81
f 59 81 82
f 59 82 61
f 59 61 60
f 61 82 81
f 61 81 63
f 62 64 83
f 62 83 84
f 62 84 66
f 62 66 65
f 63 81 85
f 63 85 64
f 64 85 86
f 64 86 87
f 64 87 88
f 64 88 83
f 66 84 89
f 66 89 90
f 66 90 91
f 66 91 67
f 67 91 92
f 67 92 70
f 68 69 94
f 68 94 93
f 70 92 95
f 70 95 71
f 71 95 92
f 73 96 74
f 74 96 97
f 74 97 98
f 74 98 99
f 74 99 75
f 75 99 100
f 75 100 101
f 75 101 77
f 75 77 76
f 77 101 102
f 77 102 78
f 78 102 103
f 78 103 104
f 78 104 79
f 79 104 105
f 79 105 106
f 79 106 107
f 79 107 80
f 80 107 108
f 80 108 81
f 81 86 85
f 81 108 86
f 83 88 109
f 83 109 110
f 83 110 111
f 83 111 112
f 83 112 89
f 83 89 84
f 86 108 87
f 87 108 88
f 88 108 113
f 88 113 109
f 89 112 111
f 89 111 114
f 89 114 90
f 90 114 91
f 91 114 92
f 93 115 116
f 93 116 117
f 93 94 118
f 93 118 115
f 96 119 120
f 96 120 97
f 97 120 98
f 98 121 100
f 98 100 99
f 100 102 101
f 100 121 102
f 102 121 103
f 103 121 122
f 103 122 104
f 105 123 106
f 106 123 124
f 106 124 107
f 107 124 108
f 108 124 125
f 108 125 110
f 108 110 113
f 109 113 110
f 110 114 111
f 116 126 117
f 117 126 128
f 117 128 127
f 119 129 130
f 119 130 120
f 123 125 124
f 127 128 132
f 127 132 133
f 127 133 131
f 129 131 133
f 129 133 134
f 129 134 130

