# https://github.com/mikedh/trimesh
v 0.01353603 0.12521748 0.02704663
v 0.01353603 0.12563076 0.02817105
v 0.01353603 0.12568447 0.02599994
v 0.02014497 0.11506444 0.02454986
v 0.02016322 0.11506444 0.02535169
v 0.02020313 0.11506444 0.02579640
v 0.01353603 0.12634841 0.02879277
v 0.02040951 0.11506444 0.02621952
v 0.02055433 0.11506444 0.02646007
v 0.01353603 0.12675870 0.02535539
v 0.02049732 0.11506444 0.02382822
v 0.01353603 0.12681092 0.02898891
v 0.02098193 0.11506444 0.02663277
v 0.01353603 0.12768672 0.02516604
v 0.02078352 0.11506444 0.02366600
v 0.01353603 0.12695714 0.02904689
v 0.02122822 0.11506444 0.02671727
v 0.01353603 0.12797170 0.02514507
v 0.02247453 0.11506444 0.02295669
v 0.02122822 0.11506444 0.02341805
v 0.01353603 0.12797170 0.02925783
v 0.02202982 0.11506444 0.02688997
v 0.02247453 0.11506444 0.02696707
v 0.01353603 0.12888927 0.02536834
v 0.01396933 0.12871769 0.02512286
v 0.02247453 0.11924800 0.02329901
v 0.02372083 0.11675487 0.02309855
v 0.02372083 0.11550906 0.02300973
v 0.02372083 0.11506444 0.02299431
v 0.01375040 0.12797170 0.02923193
v 0.01586330 0.12869979 0.02895869
v 0.01499670 0.12886242 0.02902839
v 0.01353603 0.12884899 0.02915606
v 0.02327613 0.11506444 0.02690045
v 0.02247453 0.12049382 0.02750984
v 0.01353603 0.12917126 0.02544113
v 0.01363181 0.12916678 0.02542324
v 0.01499670 0.12882810 0.02506303
v 0.01624301 0.12797170 0.02481015
v 0.01873561 0.12672439 0.02440368
v 0.01998192 0.12547857 0.02413599
v 0.02058169 0.12392690 0.02392012
v 0.02247453 0.12049382 0.02340695
v 0.02372083 0.11800219 0.02322191
v 0.02461365 0.11800219 0.02366045
v 0.02467865 0.11675487 0.02358828
v 0.02469689 0.11550906 0.02355251
v 0.02468549 0.11506444 0.02355374
v 0.01998192 0.12547857 0.02824321
v 0.01499670 0.12797170 0.02907526
v 0.01587014 0.12797170 0.02895314
v 0.01649272 0.12797170 0.02886062
v 0.01873561 0.12672439 0.02849548
v 0.01748931 0.12797170 0.02865338
v 0.01880859 0.12805376 0.02813465
v 0.01844143 0.12879379 0.02787375
v 0.01748931 0.12903996 0.02810443
v 0.01633537 0.12926078 0.02835608
v 0.01499670 0.12948607 0.02863734
v 0.01375040 0.12965318 0.02875700
v 0.01375040 0.12902952 0.02910980
v 0.01353603 0.12903996 0.02912029
v 0.02372083 0.11506444 0.02684556
v 0.02372083 0.11550906 0.02688750
v 0.02372083 0.11675487 0.02698989
v 0.02245628 0.12171725 0.02760483
v 0.02213587 0.12298545 0.02775163
v 0.02122822 0.12423276 0.02797984
v 0.01353603 0.12923691 0.02548985
v 0.01499670 0.12945027 0.02547320
v 0.01624301 0.12886242 0.02501431
v 0.01748931 0.12797170 0.02472935
v 0.01998192 0.12672439 0.02449743
v 0.02122822 0.12466096 0.02397131
v 0.02122822 0.12403730 0.02386831
v 0.02247453 0.12174112 0.02355498
v 0.02372083 0.11924800 0.02339029
v 0.02449963 0.11924800 0.02377270
v 0.02507432 0.11800219 0.02454986
v 0.02517580 0.11675487 0.02454986
v 0.02518492 0.11550906 0.02454986
v 0.02515185 0.11506444 0.02454986
v 0.02206745 0.12423276 0.02777383
v 0.02126699 0.12545470 0.02790027
v 0.02007998 0.12681540 0.02805324
v 0.01972878 0.12769269 0.02789287
v 0.02056003 0.12729135 0.02759126
v 0.01927154 0.12852373 0.02743275
v 0.01680858 0.12982177 0.02746729
v 0.01597733 0.12994262 0.02783921
v 0.01499670 0.13003960 0.02801438
v 0.01375040 0.13008884 0.02813404
v 0.01353603 0.12966362 0.02875761
v 0.01353603 0.12955620 0.02882793
v 0.02450305 0.11506444 0.02655505
v 0.02453611 0.11550906 0.02658342
v 0.02372083 0.11800219 0.02708179
v 0.02372083 0.11924800 0.02714594
v 0.02275959 0.12298545 0.02752218
v 0.01353603 0.13004557 0.02612515
v 0.01375040 0.13005751 0.02610726
v 0.01624301 0.12948607 0.02561506
v 0.01748931 0.12877738 0.02503651
v 0.01499670 0.13003960 0.02609678
v 0.01871281 0.12802242 0.02485641
v 0.02122822 0.12547857 0.02431240
v 0.02206859 0.12386274 0.02385597
v 0.01998192 0.12759422 0.02498038
v 0.02248023 0.12298843 0.02376962
v 0.02341980 0.12174112 0.02374186
v 0.02378582 0.12048636 0.02364750
v 0.02440156 0.12006561 0.02386892
v 0.02487819 0.11924800 0.02454986
v 0.02506633 0.11800219 0.02579640
v 0.02495117 0.11924800 0.02579640
v 0.02508914 0.11675487 0.02579640
v 0.02502414 0.11550906 0.02579640
v 0.02497055 0.11506444 0.02579640
v 0.02193746 0.12502202 0.02772325
v 0.02087702 0.12646031 0.02782873
v 0.02075844 0.12748978 0.02676044
v 0.02170827 0.12585306 0.02746975
v 0.02196369 0.12623651 0.02663894
v 0.01941407 0.12863265 0.02660131
v 0.01880859 0.12889972 0.02702690
v 0.01739353 0.12961289 0.02704787
v 0.01691462 0.12985907 0.02663647
v 0.01633309 0.12997992 0.02704787
v 0.01499670 0.13023804 0.02704232
v 0.01375040 0.13030518 0.02704232
v 0.01353603 0.13008287 0.02813404
v 0.01353603 0.13002319 0.02824074
v 0.02481662 0.11506444 0.02604867
v 0.02459085 0.11675487 0.02663832
v 0.02372083 0.12049382 0.02713422
v 0.02460567 0.11800219 0.02666854
v 0.02448594 0.12049382 0.02659268
v 0.02380977 0.12174262 0.02691464
v 0.02350874 0.12298545 0.02689922
v 0.01353603 0.13028877 0.02704232
v 0.01624301 0.12993814 0.02623802
v 0.01828179 0.12866846 0.02510682
v 0.02064441 0.12738236 0.02513705
v 0.02112788 0.12663188 0.02492549
v 0.02289984 0.12340619 0.02403977
v 0.02321113 0.12257664 0.02385350
v 0.02424535 0.12089665 0.02406568
v 0.02457602 0.12048636 0.02450854
v 0.02445630 0.12144571 0.02489650
v 0.02473338 0.12049382 0.02579640
v 0.02457260 0.11924800 0.02666422
v 0.02440156 0.12132784 0.02649646
v 0.02328981 0.12397912 0.02668890
v 0.02137303 0.12686613 0.02579640
v 0.02075045 0.12748083 0.02579640
v 0.01941407 0.12863265 0.02629908
v 0.02220542 0.12545470 0.02704972
v 0.02304351 0.12476838 0.02579640
v 0.02254180 0.12547857 0.02579640
v 0.02197167 0.12624248 0.02579640
v 0.01691462 0.12985907 0.02637865
v 0.01353603 0.13026191 0.02722982
v 0.01911304 0.12847301 0.02546888
v 0.02189869 0.12615594 0.02511546
v 0.02216323 0.12547857 0.02486134
v 0.02329323 0.12395375 0.02487121
v 0.02351330 0.12298843 0.02449312
v 0.02408457 0.12181274 0.02450854
v 0.02447112 0.12152180 0.02579640
v 0.02394318 0.12298545 0.02579640
v 0.02427613 0.12214545 0.02579640
v 0.02338787 0.12414473 0.02579640
v 0.01871281 0.12882512 0.02584944
f 1 2 7
f 1 7 12
f 1 12 16
f 1 16 21
f 1 21 33
f 1 33 62
f 1 62 94
f 1 94 93
f 1 93 132
f 1 132 131
f 1 131 162
f 1 162 140
f 1 140 100
f 1 100 69
f 1 69 36
f 1 36 24
f 1 24 18
f 1 18 14
f 1 14 10
f 1 10 3
f 1 3 4
f 1 4 5
f 1 5 6
f 1 6 2
f 2 6 8
f 2 8 9
f 2 9 7
f 3 10 11
f 3 11 4
f 4 11 15
f 4 15 20
f 4 20 19
f 4 19 29
f 4 29 48
f 4 48 82
f 4 82 118
f 4 118 133
f 4 133 95
f 4 95 63
f 4 63 34
f 4 34 23
f 4 23 22
f 4 22 17
f 4 17 13
f 4 13 9
f 4 9 8
f 4 8 6
f 4 6 5
f 7 9 13
f 7 13 12
f 10 14 15
f 10 15 11
f 12 13 17
f 12 17 16
f 14 18 19
f 14 19 20
f 14 20 15
f 16 17 22
f 16 22 23
f 16 23 21
f 18 24 25
f 18 25 19
f 19 26 27
f 19 27 28
f 19 28 29
f 19 25 26
f 21 30 31
f 21 31 32
f 21 32 33
f 21 23 34
f 21 34 35
f 21 35 30
f 24 36 25
f 25 36 37
f 25 37 38
f 25 38 39
f 25 39 40
f 25 40 41
f 25 41 42
f 25 42 26
f 26 42 43
f 26 43 27
f 27 44 45
f 27 45 46
f 27 46 28
f 27 43 44
f 28 46 47
f 28 47 29
f 29 47 48
f 30 49 50
f 30 50 31
f 30 35 49
f 31 50 51
f 31 51 52
f 31 52 53
f 31 53 54
f 31 54 55
f 31 55 56
f 31 56 57
f 31 57 58
f 31 58 59
f 31 59 32
f 32 59 60
f 32 60 61
f 32 61 33
f 33 61 62
f 34 63 64
f 34 64 35
f 35 64 65
f 35 65 66
f 35 66 67
f 35 67 68
f 35 68 49
f 36 69 37
f 37 69 70
f 37 70 38
f 38 70 71
f 38 71 72
f 38 72 39
f 39 72 40
f 40 73 74
f 40 74 41
f 40 72 73
f 41 74 75
f 41 75 42
f 42 75 43
f 43 75 76
f 43 76 44
f 44 76 77
f 44 77 78
f 44 78 45
f 45 79 46
f 45 78 79
f 46 80 47
f 46 79 80
f 47 80 81
f 47 81 48
f 48 81 82
f 49 68 83
f 49 83 53
f 49 53 50
f 50 53 51
f 51 53 52
f 53 83 84
f 53 84 85
f 53 85 54
f 54 85 55
f 55 85 86
f 55 86 56
f 56 86 87
f 56 87 88
f 56 88 89
f 56 89 90
f 56 90 57
f 57 90 58
f 58 90 59
f 59 90 91
f 59 91 60
f 60 91 92
f 60 92 93
f 60 93 94
f 60 94 62
f 60 62 61
f 63 95 64
f 64 95 96
f 64 96 65
f 65 96 97
f 65 97 66
f 66 97 98
f 66 98 67
f 67 98 99
f 67 99 83
f 67 83 68
f 69 100 101
f 69 101 70
f 70 102 103
f 70 103 71
f 70 101 104
f 70 104 102
f 71 103 72
f 72 103 105
f 72 105 73
f 73 106 107
f 73 107 74
f 73 105 108
f 73 108 106
f 74 107 75
f 75 107 76
f 76 107 109
f 76 109 110
f 76 110 77
f 77 110 111
f 77 111 112
f 77 112 78
f 78 112 113
f 78 113 79
f 79 114 80
f 79 113 115
f 79 115 114
f 80 116 81
f 80 114 116
f 81 117 82
f 81 116 117
f 82 117 118
f 83 119 84
f 83 99 119
f 84 119 120
f 84 120 85
f 85 120 86
f 86 120 87
f 87 121 88
f 87 120 122
f 87 122 123
f 87 123 121
f 88 124 125
f 88 125 89
f 88 121 124
f 89 125 126
f 89 126 127
f 89 127 128
f 89 128 90
f 90 128 129
f 90 129 91
f 91 129 92
f 92 129 130
f 92 130 131
f 92 131 132
f 92 132 93
f 95 133 117
f 95 117 96
f 96 117 134
f 96 134 97
f 97 134 98
f 98 135 99
f 98 134 136
f 98 136 135
f 99 135 137
f 99 137 138
f 99 138 139
f 99 139 119
f 100 140 101
f 101 140 130
f 101 130 104
f 102 104 141
f 102 141 142
f 102 142 103
f 103 142 105
f 104 130 129
f 104 129 141
f 105 142 108
f 106 108 143
f 106 143 144
f 106 144 145
f 106 145 107
f 107 145 146
f 107 146 109
f 108 142 143
f 109 146 110
f 110 146 112
f 110 112 111
f 112 146 147
f 112 147 148
f 112 148 113
f 113 148 149
f 113 149 150
f 113 150 115
f 114 136 116
f 114 115 151
f 114 151 136
f 115 150 152
f 115 152 137
f 115 137 151
f 116 134 117
f 116 136 134
f 117 133 118
f 119 122 120
f 119 139 153
f 119 153 122
f 121 123 154
f 121 154 155
f 121 155 156
f 121 156 124
f 122 157 123
f 122 153 157
f 123 158 159
f 123 159 160
f 123 160 154
f 123 157 153
f 123 153 158
f 124 156 161
f 124 161 127
f 124 127 126
f 124 126 125
f 127 161 128
f 128 161 129
f 129 161 141
f 130 140 162
f 130 162 131
f 135 136 151
f 135 151 137
f 137 152 138
f 138 152 139
f 139 152 153
f 141 161 142
f 142 163 143
f 142 161 163
f 143 163 156
f 143 156 155
f 143 155 164
f 143 164 144
f 144 164 165
f 144 165 145
f 145 165 166
f 145 166 146
f 146 166 167
f 146 167 147
f 147 149 148
f 147 167 166
f 147 166 168
f 147 168 149
f 149 169 150
f 149 168 166
f 149 166 170
f 149 170 171
f 149 171 169
f 150 169 152
f 152 169 171
f 152 171 170
f 152 170 153
f 153 170 172
f 153 172 158
f 154 160 164
f 154 164 155
f 156 163 173
f 156 173 161
f 158 164 159
f 158 172 166
f 158 166 164
f 159 164 160
f 161 173 163
f 164 166 165
f 166 172 170

