# https://github.com/mikedh/trimesh
v -0.06899892 0.02552167 -0.10108431
v -0.06899892 0.02352270 -0.10097092
v -0.07100221 0.02552167 -0.10105096
v -0.06899892 0.02752356 -0.10054407
v 0.06899892 0.02552167 -0.10108431
v -0.06899892 0.02187340 -0.10041735
v -0.07100221 0.02189088 -0.10040401
v -0.07100221 0.02352270 -0.10093758
v 0.06899892 0.02352270 -0.10097092
v -0.07300550 0.02352270 -0.10069080
v -0.07300550 0.02552167 -0.10077084
v -0.07300550 0.02725256 -0.10038400
v -0.07083400 0.02769840 -0.10042402
v -0.07005409 0.02852596 -0.10001051
v 0.06899892 0.02752356 -0.10054407
v 0.07100221 0.02552167 -0.10105096
v -0.06899892 0.02087391 -0.09966370
v 0.06899892 0.02187340 -0.10041735
v -0.07300550 0.02203075 -0.10030397
v -0.07100221 0.02089139 -0.09964369
v 0.07100221 0.02352270 -0.10093758
v 0.07100221 0.02189088 -0.10040401
v -0.07422889 0.02227552 -0.10014390
v -0.07438182 0.02352270 -0.10024394
v -0.07441240 0.02552167 -0.10026396
v -0.07425947 0.02686792 -0.10017724
v -0.07300550 0.02825205 -0.09948362
v -0.07139981 0.02848517 -0.09995716
v -0.07083400 0.02896014 -0.09917682
v -0.06899892 0.02912041 -0.09901008
v 0.07005409 0.02852596 -0.10001051
v 0.07083400 0.02769840 -0.10042402
v 0.07300550 0.02725256 -0.10038400
v 0.07300550 0.02552167 -0.10077084
v 0.07300550 0.02352270 -0.10069080
v -0.06899892 0.02011337 -0.09866327
v -0.07100221 0.02012794 -0.09864326
v 0.06899892 0.02087391 -0.09966370
v -0.07300550 0.02103126 -0.09951030
v -0.07300550 0.02021827 -0.09850987
v 0.07300550 0.02203075 -0.10030397
v 0.07100221 0.02089139 -0.09964369
v -0.07444299 0.02036688 -0.09826977
v -0.07577341 0.02066993 -0.09785626
v -0.07627806 0.02200453 -0.09833646
v -0.07537581 0.02352270 -0.09951030
v -0.07540640 0.02552167 -0.09944361
v -0.07618631 0.02680673 -0.09824976
v -0.07481000 0.02750316 -0.09880333
v -0.07300550 0.02877656 -0.09848319
v -0.07401480 0.02852888 -0.09802300
v -0.07100221 0.02976439 -0.09700923
v -0.07300550 0.02938849 -0.09700923
v -0.06899892 0.02981393 -0.09700923
v -0.06699563 0.02981685 -0.09700923
v 0.06899892 0.02912041 -0.09901008
v 0.07083400 0.02896014 -0.09917682
v 0.07139981 0.02848517 -0.09995716
v 0.07300550 0.02825205 -0.09948362
v 0.07425947 0.02686792 -0.10017724
v 0.07441240 0.02552167 -0.10026396
v 0.07438182 0.02352270 -0.10024394
v 0.07422889 0.02227552 -0.10014390
v -0.06899892 0.01848738 -0.09606216
v 0.06899892 0.02011337 -0.09866327
v -0.07109397 0.01800366 -0.09520179
v -0.07182800 0.01852817 -0.09599546
v -0.06899892 0.01623780 -0.09246062
v -0.06899892 0.01533156 -0.09100666
v -0.06899892 0.01461764 -0.08985951
v -0.06899892 0.01399697 -0.08885908
v -0.06831077 0.00850416 -0.08003531
v 0.07100221 0.02012794 -0.09864326
v -0.07201150 0.01252251 -0.08601120
v -0.07263849 0.01637767 -0.09224053
v -0.07300550 0.01931494 -0.09700923
v 0.07300550 0.02103126 -0.09951030
v 0.07300550 0.02021827 -0.09850987
v -0.07396892 0.01652920 -0.09199376
v -0.07506997 0.01992979 -0.09712261
v -0.07595692 0.01854274 -0.09396793
v -0.07630864 0.02023575 -0.09652903
v -0.07669095 0.02141008 -0.09712261
v -0.07641569 0.02352270 -0.09850987
v -0.07727206 0.02352270 -0.09700923
v -0.07633923 0.02552167 -0.09844318
v -0.07711914 0.02552167 -0.09700923
v -0.07647686 0.02706607 -0.09700923
v -0.07528406 0.02806847 -0.09700923
v -0.07429006 0.02879113 -0.09700923
v -0.07100221 0.02968280 -0.09500837
v -0.07300550 0.02959538 -0.09500837
v -0.07458061 0.02901551 -0.09500837
v 0.06699563 0.02981685 -0.09700923
v 0.06899892 0.02981393 -0.09700923
v 0.07100221 0.02976439 -0.09700923
v 0.07300550 0.02938849 -0.09700923
v 0.07300550 0.02877656 -0.09848319
v 0.07401480 0.02852888 -0.09802300
v 0.07481000 0.02750316 -0.09880333
v 0.07618631 0.02680673 -0.09824976
v 0.07540640 0.02552167 -0.09944361
v 0.07537581 0.02352270 -0.09951030
v 0.07627806 0.02200453 -0.09833646
v 0.07577341 0.02066993 -0.09785626
v 0.07444299 0.02036688 -0.09826977
v 0.06899892 0.01848738 -0.09606216
v -0.07100221 0.01689053 -0.09340769
v -0.07100221 0.01465844 -0.08977947
v -0.07100221 0.01627277 -0.09240726
v -0.06898363 0.00801753 -0.07918829
v -0.06899892 0.00628955 -0.07638042
v -0.06500762 0.00237028 -0.07025114
v -0.06699563 0.00686943 -0.07745421
v -0.06699563 0.00624584 -0.07645378
v 0.06899892 0.01623780 -0.09246062
v -0.06699563 0.00534834 -0.07500650
v -0.06699563 0.00462568 -0.07383933
v -0.06699563 0.00400792 -0.07283891
v -0.06699563 0.00239068 -0.07021779
v -0.06699563 0.00164179 -0.06900394
v 0.07182800 0.01852817 -0.09599546
v 0.07109397 0.01800366 -0.09520179
v 0.06831077 0.00850416 -0.08003531
v 0.06899892 0.01399697 -0.08885908
v 0.06899892 0.01461764 -0.08985951
v 0.06899892 0.01533156 -0.09100666
v -0.06899892 0.00545908 -0.07500650
v -0.06899892 0.00468979 -0.07372595
v -0.07043639 0.00639737 -0.07620701
v 0.07300550 0.01931494 -0.09700923
v 0.07263849 0.01637767 -0.09224053
v 0.07201150 0.01252251 -0.08601120
v -0.07413714 0.01444572 -0.08814544
v -0.06974824 0.00256843 -0.06992433
v -0.07011526 0.00047038 -0.06610937
v -0.07176683 0.00659552 -0.07587353
v -0.07595692 0.01655251 -0.08993287
v -0.07627806 0.01821929 -0.09263403
v -0.07195033 0.00454701 -0.07195853
v -0.07201150 0.00251598 -0.06801685
v -0.07659920 0.01982197 -0.09500837
v -0.07762378 0.02168982 -0.09486164
v -0.07802139 0.02247076 -0.09409465
v -0.07786846 0.02352270 -0.09514844
v -0.07802139 0.02457464 -0.09410132
v -0.07766966 0.02535266 -0.09486832
v -0.07558990 0.02815298 -0.09500837
v -0.07666037 0.02715349 -0.09500837
v -0.07300550 0.02921074 -0.09300752
v 0.07100221 0.02968280 -0.09500837
v -0.07453473 0.02886690 -0.09300752
v -0.07430535 0.02867166 -0.09137349
v -0.07552874 0.02810052 -0.09300752
v 0.07300550 0.02959538 -0.09500837
v 0.07458061 0.02901551 -0.09500837
v 0.07429006 0.02879113 -0.09700923
v 0.07528406 0.02806847 -0.09700923
v 0.07647686 0.02706607 -0.09700923
v 0.07711914 0.02552167 -0.09700923
v 0.07633923 0.02552167 -0.09844318
v 0.07641569 0.02352270 -0.09850987
v 0.07727206 0.02352270 -0.09700923
v 0.07669095 0.02141008 -0.09712261
v 0.07630864 0.02023575 -0.09652903
v 0.07595692 0.01854274 -0.09396793
v 0.07506997 0.01992979 -0.09712261
v 0.07396892 0.01652920 -0.09199376
v -0.06841781 0.00244604 -0.07013108
v -0.06500762 0.00159517 -0.06900394
v 0.06500762 0.00237028 -0.07025114
v 0.06699563 0.00624584 -0.07645378
v 0.06699563 0.00686943 -0.07745421
v -0.06699563 0.00077343 -0.06752997
v 0.07100221 0.01627277 -0.09240726
v 0.07100221 0.01689053 -0.09340769
v 0.07100221 0.01465844 -0.08977947
v 0.06899892 0.00628955 -0.07638042
v 0.06898363 0.00801753 -0.07918829
v 0.06699563 0.00164179 -0.06900394
v 0.06699563 0.00239068 -0.07021779
v 0.06699563 0.00400792 -0.07283891
v 0.06699563 0.00462568 -0.07383933
v 0.06699563 0.00534834 -0.07500650
v -0.06904480 0.00198564 -0.06915733
v 0.07043639 0.00639737 -0.07620701
v 0.06899892 0.00468979 -0.07372595
v 0.06899892 0.00545908 -0.07500650
v -0.06899892 0.00090747 -0.06732989
v -0.06899892 0.00036548 -0.06633613
v -0.06899892 0.00012945 -0.06500889
v -0.07049757 0.00036548 -0.06500889
v -0.07187388 0.00058985 -0.06380171
v -0.07149156 0.00085502 -0.06500889
v -0.07406067 0.00843423 -0.07622035
v -0.07617102 0.01627569 -0.08859897
v -0.07650745 0.01782008 -0.09100666
v -0.07217972 0.00229743 -0.06700975
v -0.07682858 0.01933243 -0.09318093
v -0.07757791 0.01969084 -0.09092663
v -0.07783788 0.02127604 -0.09300752
v -0.07802139 0.02046887 -0.09020633
v -0.07809784 0.02152081 -0.08900581
v -0.07806726 0.02352270 -0.09300752
v -0.07802139 0.02352270 -0.09414801
v -0.07803668 0.02463874 -0.09300752
v -0.07759320 0.02563823 -0.09300752
v -0.07659920 0.02710104 -0.09300752
v -0.07300550 0.02779456 -0.08700496
v -0.07407597 0.02655321 -0.08187610
v 0.07300550 0.02921074 -0.09300752
v -0.07497822 0.02804225 -0.09082659
v -0.07531464 0.02599665 -0.08300992
v -0.07540640 0.02405595 -0.07500650
v -0.07441240 0.02474073 -0.07500650
v -0.07429006 0.02066411 -0.05741232
v -0.07422889 0.02262520 -0.06556914
v -0.07415243 0.02458921 -0.07371928
v -0.07640040 0.02692911 -0.09100666
v -0.07562049 0.02620645 -0.08501077
v 0.07430535 0.02867166 -0.09137349
v 0.07453473 0.02886690 -0.09300752
v 0.07552874 0.02810052 -0.09300752
v 0.07558990 0.02815298 -0.09500837
v 0.07666037 0.02715349 -0.09500837
v 0.07766966 0.02535266 -0.09486832
v 0.07802139 0.02457464 -0.09410132
v 0.07786846 0.02352270 -0.09514844
v 0.07802139 0.02247076 -0.09409465
v 0.07762378 0.02168982 -0.09486164
v 0.07627806 0.01821929 -0.09263403
v 0.07659920 0.01982197 -0.09500837
v 0.07413714 0.01444572 -0.08814544
v 0.07595692 0.01655251 -0.08993287
v 0.07201150 0.00251598 -0.06801685
v 0.07195033 0.00454701 -0.07195853
v 0.07176683 0.00659552 -0.07587353
v 0.07011526 0.00047038 -0.06610937
v 0.06974824 0.00256843 -0.06992433
v -0.06500762 0.00074721 -0.06755665
v 0.06500762 0.00159517 -0.06900394
v -0.06699563 0.00028680 -0.06653622
v 0.06841781 0.00244604 -0.07013108
v 0.06699563 0.00077343 -0.06752997
v 0.06904480 0.00198564 -0.06915733
v -0.06899892 0.00004786 -0.06301471
v -0.07100221 0.00011779 -0.06101386
v -0.07112455 0.00028097 -0.06308808
v -0.06699563 0.00004786 -0.06500889
v -0.07208797 0.00043833 -0.06246781
v -0.07242440 0.00185451 -0.06500889
v -0.07395363 0.00661592 -0.07167174
v -0.07419831 0.00820694 -0.07500650
v -0.07603338 0.01446029 -0.08419709
v -0.07632394 0.01596972 -0.08700496
v -0.07418302 0.00213134 -0.05501129
v -0.07800609 0.01849903 -0.08208286
v -0.07802139 0.01049439 -0.04810835
v -0.07803668 0.01444281 -0.06438196
v -0.07803668 0.01842910 -0.08100906
v -0.07803668 0.02040476 -0.08900581
v -0.07427476 0.00183994 -0.05301044
v -0.07621689 0.00190987 -0.03295521
v -0.07805197 0.01240012 -0.05501129
v -0.07811314 0.01952183 -0.07900821
v -0.07811314 0.02152081 -0.08700496
v -0.07809784 0.02352270 -0.09100666
v -0.07803668 0.02462709 -0.09100666
v -0.07802139 0.02456298 -0.08984617
v -0.07406067 0.01854274 -0.04792160
v -0.07300550 0.01503143 -0.03295521
v -0.06699563 0.01503434 -0.03295521
v 0.07300550 0.02779456 -0.08700496
v 0.07407597 0.02655321 -0.08187610
v -0.07555932 0.02018039 -0.05901300
v -0.07447357 0.01478374 -0.03300857
v -0.07413714 0.01657874 -0.03976478
v -0.07646157 0.02499716 -0.08300992
v -0.07667566 0.02520696 -0.08501077
v 0.07415243 0.02458921 -0.07371928
v 0.07422889 0.02262520 -0.06556914
v 0.07429006 0.02066411 -0.05741232
v 0.07441240 0.02474073 -0.07500650
v 0.07540640 0.02405595 -0.07500650
v 0.07531464 0.02599665 -0.08300992
v 0.07497822 0.02804225 -0.09082659
v 0.07562049 0.02620645 -0.08501077
v 0.07640040 0.02692911 -0.09100666
v 0.07659920 0.02710104 -0.09300752
v 0.07759320 0.02563823 -0.09300752
v 0.07803668 0.02463874 -0.09300752
v 0.07806726 0.02352270 -0.09300752
v 0.07802139 0.02352270 -0.09414801
v 0.07809784 0.02152081 -0.08900581
v 0.07802139 0.02046887 -0.09020633
v 0.07783788 0.02127604 -0.09300752
v 0.07757791 0.01969084 -0.09092663
v 0.07682858 0.01933243 -0.09318093
v 0.07650745 0.01782008 -0.09100666
v 0.07617102 0.01627569 -0.08859897
v 0.07406067 0.00843423 -0.07622035
v 0.07217972 0.00229743 -0.06700975
v 0.07187388 0.00058985 -0.06380171
v 0.07149156 0.00085502 -0.06500889
v 0.07049757 0.00036548 -0.06500889
v 0.06899892 0.00012945 -0.06500889
v 0.06899892 0.00036548 -0.06633613
v 0.06899892 0.00090747 -0.06732989
v -0.06500762 0.00028680 -0.06656289
v 0.06500762 0.00074721 -0.06755665
v 0.06699563 0.00028680 -0.06653622
v -0.07100221 0.00004786 -0.05701215
v -0.07100221 0.00006243 -0.05901300
v -0.07230206 0.00029846 -0.05901300
v -0.07219501 0.00035382 -0.06101386
v 0.06699563 0.00004786 -0.06500889
v -0.07294434 0.00152232 -0.06101386
v -0.07253144 0.00136205 -0.06308808
v -0.07401480 0.00051409 -0.05010253
v -0.07398421 0.00256843 -0.05787252
v -0.07360191 0.00334646 -0.06301471
v -0.07407597 0.00235571 -0.05653861
v -0.07800609 0.00857992 -0.03995153
v -0.07803668 0.00842548 -0.03861763
v -0.07679800 0.00357666 -0.03295521
v -0.07563578 0.00093370 -0.03295521
v -0.07811314 0.01152302 -0.04500702
v -0.07805197 0.00835846 -0.03701027
v -0.07811314 0.02152081 -0.08501077
v -0.07811314 0.01751995 -0.06700975
v -0.07809784 0.01552097 -0.05701215
v -0.07805197 0.01464970 -0.04900873
v -0.07805197 0.02265142 -0.08300992
v -0.07803668 0.02258732 -0.08170936
v -0.07802139 0.01655543 -0.05587166
v -0.07800609 0.01852526 -0.06399513
v -0.07664508 0.01918090 -0.05901300
v -0.07305138 0.01502851 -0.03295521
v 0.03694623 0.01503434 -0.03295521
v 0.07300550 0.01503143 -0.03295521
v 0.07406067 0.01854274 -0.04792160
v -0.07546757 0.01409605 -0.03300857
v -0.07539111 0.01604257 -0.04101198
v -0.07652274 0.01504308 -0.04101198
v -0.07445828 0.01477791 -0.03295521
v -0.07542169 0.01411353 -0.03295521
v 0.07413714 0.01657874 -0.03976478
v 0.07447357 0.01478374 -0.03300857
v 0.07555932 0.02018039 -0.05901300
v 0.07646157 0.02499716 -0.08300992
v 0.07667566 0.02520696 -0.08501077
v 0.07802139 0.02456298 -0.08984617
v 0.07803668 0.02462709 -0.09100666
v 0.07809784 0.02352270 -0.09100666
v 0.07811314 0.02152081 -0.08700496
v 0.07811314 0.01952183 -0.07900821
v 0.07805197 0.01240012 -0.05501129
v 0.07803668 0.01842910 -0.08100906
v 0.07803668 0.02040476 -0.08900581
v 0.07803668 0.01444281 -0.06438196
v 0.07802139 0.01049439 -0.04810835
v 0.07800609 0.01849903 -0.08208286
v 0.07621689 0.00193901 -0.03300857
v 0.07427476 0.00183994 -0.05301044
v 0.07418302 0.00213134 -0.05501129
v 0.07603338 0.01446029 -0.08419709
v 0.07632394 0.01596972 -0.08700496
v 0.07419831 0.00820694 -0.07500650
v 0.07395363 0.00661592 -0.07167174
v 0.07242440 0.00185451 -0.06500889
v 0.07208797 0.00043833 -0.06246781
v 0.07112455 0.00028097 -0.06308808
v 0.06899892 0.00004786 -0.06301471
v 0.07100221 0.00011779 -0.06101386
v 0.06500762 0.00028680 -0.06656289
v -0.07300550 0.00004786 -0.03901113
v -0.07300550 0.00005660 -0.04101198
v -0.07300550 0.00007700 -0.04300617
v -0.07300550 0.00011779 -0.04500702
v -0.07424418 0.00031303 -0.04300617
v -0.07418302 0.00035382 -0.04500702
v -0.07412185 0.00040627 -0.04700788
v -0.07747086 0.00556981 -0.03295521
v -0.07789904 0.00708215 -0.03295521
v -0.07430535 0.00029263 -0.04101198
v -0.07465708 0.00029554 -0.03295521
v -0.07809784 0.00952405 -0.03701027
v -0.07811314 0.00952405 -0.03500942
v -0.07805197 0.00804376 -0.03295521
v -0.07811314 0.01152302 -0.04300617
v -0.07809784 0.00955610 -0.03295521
v -0.07805197 0.01068089 -0.03295521
v -0.07803668 0.01260410 -0.03958471
v -0.07756261 0.01167746 -0.03295521
v -0.07656861 0.01309656 -0.03300857
v 0.07445828 0.01477791 -0.03295521
v -0.07548286 0.01406399 -0.03295521
v -0.07545228 0.01409022 -0.03295521
v 0.07546757 0.01409605 -0.03300857
v 0.07539111 0.01604257 -0.04101198
v 0.07652274 0.01504308 -0.04101198
v 0.07664508 0.01918090 -0.05901300
v 0.07800609 0.01852526 -0.06399513
v 0.07802139 0.01655543 -0.05587166
v 0.07803668 0.02258732 -0.08170936
v 0.07805197 0.02265142 -0.08300992
v 0.07805197 0.01464970 -0.04900873
v 0.07809784 0.01552097 -0.05701215
v 0.07811314 0.01751995 -0.06700975
v 0.07811314 0.02152081 -0.08501077
v 0.07811314 0.01152302 -0.04500702
v 0.07805197 0.00835846 -0.03701027
v 0.07803668 0.00842548 -0.03861763
v 0.07800609 0.00857992 -0.03995153
v 0.07621689 0.00193319 -0.03295521
v 0.07563578 0.00093370 -0.03295521
v 0.07401480 0.00051409 -0.05010253
v 0.07676742 0.00352129 -0.03300857
v 0.07294434 0.00152232 -0.06101386
v 0.07407597 0.00235571 -0.05653861
v 0.07398421 0.00256843 -0.05787252
v 0.07360191 0.00334646 -0.06301471
v 0.07253144 0.00136205 -0.06308808
v 0.07219501 0.00035382 -0.06101386
v 0.07100221 0.00006243 -0.05901300
v 0.07100221 0.00004786 -0.05701215
v 0.07230206 0.00029846 -0.05901300
v -0.07300550 0.00004786 -0.03295521
v -0.07462649 0.00028680 -0.03300857
v -0.07462649 0.00028680 -0.03295521
v -0.07809784 0.00952696 -0.03295521
v -0.07757791 0.01165123 -0.03295521
v -0.07655332 0.01308782 -0.03295521
v 0.07545228 0.01409022 -0.03295521
v 0.07656861 0.01309656 -0.03300857
v 0.07803668 0.01260410 -0.03958471
v 0.07756261 0.01167746 -0.03295521
v 0.07805197 0.01068089 -0.03295521
v 0.07809784 0.00952696 -0.03295521
v 0.07811314 0.01152302 -0.04300617
v 0.07811314 0.00952405 -0.03500942
v 0.07809784 0.00952405 -0.03701027
v 0.07805197 0.00807872 -0.03295521
v 0.07789904 0.00705884 -0.03295521
v 0.07745557 0.00552610 -0.03295521
v 0.07744028 0.00547364 -0.03295521
v 0.07676742 0.00352129 -0.03295521
v 0.07462649 0.00028680 -0.03295521
v 0.07462649 0.00028680 -0.03300857
v 0.07430535 0.00029263 -0.04101198
v 0.07424418 0.00031303 -0.04300617
v 0.07418302 0.00035382 -0.04500702
v 0.07412185 0.00040627 -0.04700788
v 0.07300550 0.00011779 -0.04500702
v 0.07300550 0.00007700 -0.04300617
v 0.07300550 0.00005660 -0.04101198
v 0.07300550 0.00004786 -0.03901113
v 0.07300550 0.00004786 -0.03295521
v 0.07655332 0.01308782 -0.03295521
v 0.07658390 0.01305576 -0.03295521
v 0.07809784 0.00947159 -0.03295521
v 0.07305138 0.00005368 -0.03295521
f 1 2 8
f 1 8 3
f 1 3 4
f 1 4 15
f 1 15 5
f 1 5 9
f 1 9 2
f 2 6 7
f 2 7 8
f 2 9 18
f 2 18 6
f 3 8 10
f 3 10 11
f 3 11 12
f 3 12 13
f 3 13 4
f 4 13 14
f 4 14 31
f 4 31 15
f 5 15 16
f 5 16 21
f 5 21 9
f 6 17 7
f 6 18 38
f 6 38 17
f 7 19 8
f 7 17 20
f 7 20 19
f 8 19 10
f 9 21 22
f 9 22 18
f 10 19 23
f 10 23 24
f 10 24 11
f 11 24 25
f 11 25 26
f 11 26 12
f 12 27 28
f 12 28 13
f 12 26 27
f 13 28 14
f 14 28 29
f 14 29 30
f 14 30 56
f 14 56 31
f 15 31 32
f 15 32 16
f 16 32 33
f 16 33 34
f 16 34 35
f 16 35 21
f 17 36 37
f 17 37 20
f 17 38 65
f 17 65 36
f 18 22 38
f 19 20 39
f 19 39 23
f 20 37 40
f 20 40 39
f 21 35 41
f 21 41 22
f 22 41 42
f 22 42 38
f 23 43 44
f 23 44 45
f 23 45 46
f 23 46 24
f 23 39 43
f 24 46 25
f 25 46 47
f 25 47 26
f 26 47 48
f 26 48 49
f 26 49 27
f 27 50 28
f 27 49 51
f 27 51 50
f 28 50 29
f 29 52 30
f 29 50 53
f 29 53 52
f 30 52 54
f 30 54 55
f 30 55 94
f 30 94 56
f 31 56 57
f 31 57 58
f 31 58 32
f 32 58 33
f 33 58 59
f 33 59 60
f 33 60 34
f 34 60 61
f 34 61 62
f 34 62 35
f 35 62 63
f 35 63 41
f 36 64 37
f 36 65 107
f 36 107 64
f 37 66 67
f 37 67 40
f 37 64 68
f 37 68 69
f 37 69 70
f 37 70 71
f 37 71 72
f 37 72 66
f 38 42 73
f 38 73 65
f 39 40 43
f 40 67 74
f 40 74 75
f 40 75 76
f 40 76 43
f 41 77 42
f 41 63 77
f 42 77 78
f 42 78 73
f 43 76 75
f 43 75 74
f 43 74 79
f 43 79 80
f 43 80 44
f 44 81 82
f 44 82 83
f 44 83 45
f 44 80 81
f 45 84 46
f 45 83 85
f 45 85 84
f 46 84 47
f 47 84 86
f 47 86 48
f 48 86 87
f 48 87 88
f 48 88 89
f 48 89 51
f 48 51 49
f 50 51 53
f 51 89 90
f 51 90 53
f 52 91 54
f 52 53 92
f 52 92 91
f 53 90 93
f 53 93 92
f 54 91 55
f 55 91 151
f 55 151 94
f 56 94 95
f 56 95 96
f 56 96 57
f 57 96 97
f 57 97 98
f 57 98 58
f 58 98 59
f 59 98 99
f 59 99 100
f 59 100 60
f 60 100 101
f 60 101 102
f 60 102 61
f 61 102 103
f 61 103 62
f 62 103 63
f 63 103 104
f 63 104 105
f 63 105 106
f 63 106 77
f 64 107 116
f 64 116 68
f 65 73 107
f 66 108 67
f 66 72 108
f 67 109 74
f 67 108 110
f 67 110 72
f 67 72 111
f 67 111 112
f 67 112 109
f 68 113 114
f 68 114 115
f 68 115 69
f 68 116 171
f 68 171 113
f 69 115 70
f 70 115 71
f 71 115 72
f 72 115 117
f 72 117 118
f 72 118 119
f 72 119 120
f 72 120 121
f 72 121 111
f 72 110 108
f 73 78 122
f 73 122 123
f 73 123 124
f 73 124 125
f 73 125 126
f 73 126 127
f 73 127 116
f 73 116 107
f 74 109 128
f 74 128 129
f 74 129 130
f 74 130 79
f 77 106 78
f 78 131 132
f 78 132 133
f 78 133 122
f 78 106 131
f 79 134 81
f 79 81 80
f 79 130 135
f 79 135 136
f 79 136 137
f 79 137 134
f 81 138 139
f 81 139 82
f 81 134 140
f 81 140 141
f 81 141 138
f 82 139 142
f 82 142 143
f 82 143 83
f 83 143 85
f 84 85 86
f 85 87 86
f 85 143 144
f 85 144 145
f 85 145 87
f 87 145 146
f 87 146 147
f 87 147 88
f 88 148 93
f 88 93 89
f 88 147 149
f 88 149 148
f 89 93 90
f 91 92 150
f 91 150 209
f 91 209 273
f 91 273 211
f 91 211 151
f 92 93 152
f 92 152 153
f 92 153 150
f 93 148 154
f 93 154 152
f 94 151 95
f 95 151 96
f 96 151 155
f 96 155 97
f 97 155 156
f 97 156 157
f 97 157 99
f 97 99 98
f 99 157 158
f 99 158 101
f 99 101 100
f 101 159 160
f 101 160 161
f 101 161 102
f 101 158 159
f 102 161 162
f 102 162 103
f 103 162 104
f 104 162 163
f 104 163 164
f 104 164 105
f 105 164 165
f 105 165 166
f 105 166 167
f 105 167 106
f 106 167 168
f 106 168 133
f 106 133 132
f 106 132 131
f 109 112 128
f 111 121 112
f 112 121 169
f 112 169 128
f 113 170 115
f 113 115 114
f 113 171 241
f 113 241 170
f 115 170 117
f 116 127 172
f 116 172 173
f 116 173 171
f 117 170 118
f 118 170 119
f 119 170 120
f 120 170 121
f 121 170 174
f 121 174 169
f 122 175 176
f 122 176 123
f 122 133 177
f 122 177 178
f 122 178 179
f 122 179 124
f 122 124 175
f 123 176 124
f 124 179 180
f 124 180 181
f 124 181 182
f 124 182 183
f 124 183 184
f 124 184 172
f 124 172 125
f 124 176 175
f 125 172 126
f 126 172 127
f 128 169 129
f 129 169 130
f 130 169 185
f 130 185 135
f 133 186 187
f 133 187 188
f 133 188 177
f 133 168 186
f 134 137 140
f 135 185 189
f 135 189 136
f 136 189 190
f 136 190 191
f 136 191 192
f 136 192 193
f 136 193 194
f 136 194 141
f 136 141 140
f 136 140 137
f 138 195 196
f 138 196 197
f 138 197 139
f 138 141 195
f 139 197 142
f 141 194 193
f 141 193 198
f 141 198 195
f 142 199 143
f 142 197 199
f 143 199 200
f 143 200 201
f 143 201 144
f 144 202 203
f 144 203 204
f 144 204 205
f 144 205 145
f 144 201 202
f 145 205 146
f 146 205 204
f 146 204 206
f 146 206 147
f 147 207 149
f 147 206 207
f 148 149 208
f 148 208 154
f 149 207 208
f 150 153 210
f 150 210 209
f 151 211 155
f 152 154 212
f 152 212 153
f 153 212 213
f 153 213 214
f 153 214 215
f 153 215 216
f 153 216 217
f 153 217 218
f 153 218 210
f 154 208 219
f 154 219 220
f 154 220 213
f 154 213 212
f 155 211 221
f 155 221 222
f 155 222 156
f 156 222 223
f 156 223 224
f 156 224 159
f 156 159 158
f 156 158 157
f 159 224 225
f 159 225 226
f 159 226 160
f 160 226 227
f 160 227 228
f 160 228 163
f 160 163 161
f 161 163 162
f 163 228 229
f 163 229 230
f 163 230 164
f 164 230 165
f 165 231 166
f 165 230 232
f 165 232 231
f 166 233 168
f 166 168 167
f 166 231 234
f 166 234 235
f 166 235 236
f 166 236 233
f 168 233 237
f 168 237 238
f 168 238 239
f 168 239 186
f 169 174 189
f 169 189 185
f 170 240 174
f 170 241 310
f 170 310 240
f 171 173 172
f 171 172 241
f 172 184 241
f 174 240 242
f 174 242 190
f 174 190 189
f 177 188 178
f 178 188 243
f 178 243 180
f 178 180 179
f 180 243 244
f 180 244 241
f 180 241 181
f 181 241 182
f 182 241 183
f 183 241 184
f 186 239 245
f 186 245 243
f 186 243 187
f 187 243 188
f 190 242 191
f 191 246 247
f 191 247 248
f 191 248 192
f 191 242 249
f 191 249 246
f 192 248 250
f 192 250 193
f 193 250 251
f 193 251 195
f 193 195 198
f 195 252 253
f 195 253 196
f 195 251 252
f 196 254 255
f 196 255 200
f 196 200 197
f 196 253 254
f 197 200 199
f 200 202 201
f 200 255 254
f 200 254 256
f 200 256 202
f 202 257 258
f 202 258 259
f 202 259 260
f 202 260 261
f 202 261 203
f 202 256 262
f 202 262 263
f 202 263 257
f 203 264 265
f 203 265 266
f 203 266 267
f 203 267 204
f 203 261 260
f 203 260 264
f 204 267 206
f 206 267 268
f 206 268 207
f 207 268 269
f 207 269 208
f 208 269 219
f 209 210 270
f 209 270 271
f 209 271 272
f 209 272 339
f 209 339 273
f 210 218 277
f 210 277 270
f 211 273 274
f 211 274 221
f 213 220 214
f 214 220 219
f 214 219 275
f 214 275 215
f 215 276 216
f 215 275 276
f 216 276 277
f 216 277 217
f 217 277 218
f 219 278 275
f 219 269 279
f 219 279 278
f 221 274 280
f 221 280 281
f 221 281 282
f 221 282 283
f 221 283 284
f 221 284 285
f 221 285 286
f 221 286 222
f 222 286 223
f 223 287 288
f 223 288 289
f 223 289 225
f 223 225 224
f 223 286 285
f 223 285 287
f 225 289 290
f 225 290 226
f 226 290 291
f 226 291 227
f 227 291 292
f 227 292 293
f 227 293 228
f 228 293 229
f 229 293 292
f 229 292 294
f 229 294 295
f 229 295 296
f 229 296 230
f 230 296 297
f 230 297 298
f 230 298 232
f 231 232 299
f 231 299 234
f 232 298 299
f 233 236 237
f 234 299 300
f 234 300 301
f 234 301 235
f 235 302 303
f 235 303 304
f 235 304 238
f 235 238 236
f 235 301 302
f 236 238 237
f 238 304 303
f 238 303 305
f 238 305 306
f 238 306 307
f 238 307 308
f 238 308 239
f 239 308 245
f 240 309 242
f 240 310 375
f 240 375 309
f 241 244 310
f 242 309 249
f 243 245 308
f 243 308 244
f 244 308 307
f 244 307 311
f 244 311 310
f 246 249 316
f 246 316 373
f 246 373 426
f 246 426 457
f 246 457 458
f 246 458 428
f 246 428 376
f 246 376 312
f 246 312 313
f 246 313 247
f 247 313 314
f 247 314 315
f 247 315 248
f 248 315 250
f 249 309 375
f 249 375 316
f 250 317 318
f 250 318 251
f 250 315 319
f 250 319 317
f 251 318 252
f 252 320 254
f 252 254 253
f 252 318 321
f 252 321 320
f 254 320 322
f 254 322 256
f 256 322 317
f 256 317 319
f 256 319 262
f 257 263 258
f 258 323 324
f 258 324 264
f 258 264 259
f 258 263 323
f 259 264 260
f 262 319 263
f 263 325 323
f 263 319 326
f 263 326 386
f 263 386 430
f 263 430 428
f 263 428 458
f 263 458 462
f 263 462 448
f 263 448 416
f 263 416 415
f 263 415 447
f 263 447 446
f 263 446 445
f 263 445 444
f 263 444 443
f 263 443 461
f 263 461 439
f 263 439 438
f 263 438 437
f 263 437 460
f 263 460 459
f 263 459 434
f 263 434 396
f 263 396 340
f 263 340 339
f 263 339 272
f 263 272 271
f 263 271 338
f 263 338 345
f 263 345 346
f 263 346 398
f 263 398 397
f 263 397 433
f 263 433 394
f 263 394 432
f 263 432 392
f 263 392 391
f 263 391 431
f 263 431 389
f 263 389 384
f 263 384 383
f 263 383 325
f 264 327 265
f 264 324 328
f 264 328 327
f 265 327 388
f 265 388 390
f 265 390 330
f 265 330 329
f 265 329 266
f 266 329 267
f 267 329 330
f 267 330 331
f 267 331 332
f 267 332 333
f 267 333 268
f 268 334 269
f 268 333 334
f 269 334 335
f 269 335 336
f 269 336 337
f 269 337 279
f 270 277 338
f 270 338 271
f 273 339 340
f 273 340 341
f 273 341 274
f 274 341 347
f 274 347 280
f 275 342 343
f 275 343 276
f 275 278 337
f 275 337 344
f 275 344 342
f 276 345 277
f 276 343 342
f 276 342 346
f 276 346 345
f 277 345 338
f 278 279 337
f 280 347 281
f 281 347 282
f 282 348 283
f 282 347 348
f 283 348 349
f 283 349 284
f 284 349 288
f 284 288 287
f 284 287 285
f 288 349 350
f 288 350 351
f 288 351 352
f 288 352 289
f 289 352 290
f 290 352 353
f 290 353 291
f 291 353 354
f 291 354 292
f 292 354 294
f 294 354 355
f 294 355 356
f 294 356 357
f 294 357 358
f 294 358 359
f 294 359 295
f 295 297 296
f 295 359 358
f 295 358 360
f 295 360 361
f 295 361 362
f 295 362 363
f 295 363 364
f 295 364 365
f 295 365 297
f 297 365 366
f 297 366 367
f 297 367 300
f 297 300 299
f 297 299 298
f 300 367 366
f 300 366 368
f 300 368 301
f 301 368 369
f 301 369 370
f 301 370 303
f 301 303 302
f 303 370 371
f 303 371 305
f 305 371 372
f 305 372 306
f 306 373 316
f 306 316 311
f 306 311 307
f 306 372 374
f 306 374 373
f 310 311 375
f 311 316 375
f 312 376 377
f 312 377 313
f 313 377 378
f 313 378 379
f 313 379 314
f 314 379 380
f 314 380 381
f 314 381 382
f 314 382 315
f 315 382 319
f 317 321 318
f 317 322 320
f 317 320 321
f 319 382 326
f 323 325 383
f 323 383 324
f 324 383 384
f 324 384 328
f 326 382 381
f 326 381 380
f 326 380 385
f 326 385 386
f 327 387 388
f 327 328 387
f 328 384 389
f 328 389 388
f 328 388 387
f 330 390 391
f 330 391 331
f 331 391 392
f 331 392 332
f 332 392 393
f 332 393 334
f 332 334 333
f 334 393 335
f 335 393 394
f 335 394 395
f 335 395 336
f 336 395 337
f 337 395 344
f 340 396 347
f 340 347 341
f 342 397 398
f 342 398 346
f 342 344 395
f 342 395 397
f 347 396 348
f 348 396 434
f 348 434 399
f 348 399 400
f 348 400 349
f 349 400 399
f 349 399 401
f 349 401 402
f 349 402 350
f 350 402 351
f 351 402 352
f 352 403 404
f 352 404 405
f 352 405 353
f 352 402 403
f 353 405 406
f 353 406 354
f 354 407 408
f 354 408 409
f 354 409 410
f 354 410 355
f 354 406 407
f 355 410 409
f 355 409 440
f 355 440 441
f 355 441 411
f 355 411 356
f 356 411 357
f 357 411 412
f 357 412 413
f 357 413 361
f 357 361 360
f 357 360 358
f 361 413 414
f 361 414 363
f 361 363 362
f 363 415 416
f 363 416 417
f 363 417 364
f 363 414 418
f 363 418 415
f 364 417 365
f 365 417 419
f 365 419 420
f 365 420 366
f 366 420 421
f 366 421 369
f 366 369 368
f 369 421 422
f 369 422 423
f 369 423 370
f 370 423 371
f 371 424 372
f 371 423 419
f 371 419 417
f 371 417 424
f 372 424 374
f 373 374 425
f 373 425 426
f 374 424 427
f 374 427 425
f 376 428 430
f 376 430 429
f 376 429 377
f 377 429 385
f 377 385 378
f 378 385 380
f 378 380 379
f 385 429 386
f 386 429 430
f 388 431 391
f 388 391 390
f 388 389 431
f 392 432 393
f 393 432 394
f 394 433 395
f 395 433 397
f 399 434 435
f 399 435 401
f 401 435 402
f 402 435 403
f 403 435 404
f 404 436 405
f 404 435 437
f 404 437 436
f 405 436 407
f 405 407 406
f 407 438 408
f 407 436 438
f 408 439 409
f 408 438 439
f 409 439 440
f 411 441 442
f 411 442 412
f 412 443 444
f 412 444 413
f 412 442 441
f 412 441 443
f 413 444 445
f 413 445 446
f 413 446 414
f 414 446 418
f 415 418 447
f 416 448 449
f 416 449 450
f 416 450 451
f 416 451 452
f 416 452 453
f 416 453 417
f 417 453 424
f 418 446 447
f 419 423 422
f 419 422 421
f 419 421 420
f 424 453 427
f 425 427 454
f 425 454 455
f 425 455 456
f 425 456 426
f 426 456 457
f 427 453 452
f 427 452 451
f 427 451 454
f 434 459 435
f 435 459 460
f 435 460 437
f 436 437 438
f 439 461 441
f 439 441 440
f 441 461 443
f 448 462 449
f 449 462 457
f 449 457 456
f 449 456 450
f 450 456 455
f 450 455 451
f 451 455 454
f 457 462 458

