# https://github.com/mikedh/trimesh
v -0.07811314 0.00752265 0.01184496
v -0.07809784 0.00552105 0.05301003
v -0.07811314 0.00552105 0.06700844
v -0.07811314 0.00752265 0.03300858
v -0.07805197 0.00870428 0.01184496
v -0.07808255 0.00682442 0.01184496
v -0.07805197 0.00441283 0.05700334
v -0.07805197 0.00440208 0.05900436
v -0.07805197 0.00438776 0.06300640
v -0.07805197 0.00437881 0.06700844
v -0.07805197 0.00436628 0.07300276
v -0.07805197 0.00435374 0.07900581
v -0.07805197 0.00433226 0.09100319
v -0.07811314 0.00552105 0.08901091
v -0.07805197 0.00868817 0.02101120
v -0.07805197 0.00870249 0.01300712
v -0.07809784 0.00752265 0.04700698
v -0.07805197 0.00862909 0.04301368
v -0.07805197 0.00863983 0.04101266
v -0.07805197 0.00865415 0.03701062
v -0.07805197 0.00865952 0.03500960
v -0.07783788 0.00928256 0.01184496
v -0.07805197 0.00631238 0.01184496
v -0.07803668 0.00445042 0.05100902
v -0.07774613 0.00333504 0.08901091
v -0.07805197 0.00433226 0.09300422
v -0.07774613 0.00333325 0.09100319
v -0.07774613 0.00333146 0.09300422
v -0.07809784 0.00552105 0.09300422
v -0.07805197 0.00671879 0.09300422
v -0.07803668 0.00859149 0.04900800
v -0.07766966 0.00970329 0.01300712
v -0.07766966 0.00970508 0.01184496
v -0.07800609 0.00457396 0.04233211
v -0.07802139 0.00448265 0.04700698
v -0.07780729 0.00531337 0.01184496
v -0.07765437 0.00337443 0.06900071
v -0.07601809 0.00050809 0.01184496
v -0.07676742 0.00152142 0.09100319
v -0.07803668 0.00439492 0.09425376
v -0.07661449 0.00134418 0.09289936
v -0.07669095 0.00168792 0.09500523
v -0.07771554 0.00364656 0.09495280
v -0.07805197 0.00552105 0.09437609
v -0.07803668 0.00665255 0.09425376
v -0.07773083 0.00771959 0.09300422
v -0.07800609 0.00847512 0.05772860
v -0.07802139 0.00855926 0.05301003
v -0.07763907 0.00969255 0.01901018
v -0.07725677 0.01032991 0.01184496
v -0.07800609 0.00451488 0.04366030
v -0.07747086 0.00427497 0.01184496
v -0.07643098 0.00152142 0.01184496
v -0.07500880 0.00027176 0.01184496
v -0.07601809 0.00050809 0.09100319
v -0.07601809 0.00051167 0.09215662
v -0.07791434 0.00552105 0.09538097
v -0.07591105 0.00056001 0.09348481
v -0.07569696 0.00068891 0.09500523
v -0.07640040 0.00205673 0.09700625
v -0.07710384 0.00352123 0.09700625
v -0.07707326 0.00752265 0.09700625
v -0.07768495 0.00739912 0.09495280
v -0.07664508 0.00916798 0.09500523
v -0.07672154 0.00925750 0.09300422
v -0.07800609 0.00852883 0.05640041
v -0.07756261 0.00967107 0.02900654
v -0.07759320 0.00968002 0.02500450
v -0.07666037 0.01117496 0.01500814
v -0.07667566 0.01119107 0.01184496
v -0.07722619 0.00352123 0.01184496
v -0.07676742 0.00236467 0.01184496
v -0.07300550 0.00004797 0.01184496
v -0.06699563 -0.00101908 0.08901091
v -0.07500880 0.00027176 0.09100319
v -0.07514643 0.00032726 0.09289936
v -0.07468766 0.00028429 0.09500523
v -0.07739440 0.00552105 0.09700625
v -0.07435123 0.00036307 0.09644702
v -0.07500880 0.00100938 0.09707616
v -0.07612514 0.00238437 0.09815094
v -0.07633923 0.00352123 0.09840435
v -0.07633923 0.00752265 0.09840435
v -0.07612514 0.00864162 0.09815094
v -0.07638511 0.00889943 0.09700625
v -0.07565108 0.01016699 0.09500523
v -0.07572754 0.01025651 0.09300422
v -0.07647686 0.01098697 0.03701062
v -0.07652274 0.01103352 0.03300858
v -0.07750145 0.00965853 0.03500960
v -0.07653803 0.01105500 0.03100756
v -0.07661449 0.01113736 0.02101120
v -0.07562049 0.01219187 0.01184496
v -0.06300433 -0.00104593 0.08901091
v -0.06500762 -0.00104414 0.08901091
v 0.07300550 0.00004797 0.01184496
v -0.07100221 0.00006766 0.09700625
v -0.07300550 0.00004797 0.09500523
v -0.07649216 0.00552105 0.09858785
v -0.07305138 0.00025207 0.09707616
v -0.07240911 0.00038813 0.09821211
v -0.07373954 0.00062267 0.09778394
v -0.07525348 0.00352123 0.09940922
v -0.07481000 0.00209433 0.09889368
v -0.07401480 0.00251327 0.10001215
v -0.07548286 0.00552105 0.09959272
v -0.07499351 0.00772138 0.09952282
v -0.07399950 0.00851988 0.10001215
v -0.07500880 0.00901580 0.09861406
v -0.07375483 0.01039258 0.09785385
v -0.07438182 0.01083121 0.09652566
v -0.07464178 0.01099592 0.09500523
v -0.07471825 0.01101741 0.09300422
v -0.07534523 0.01205401 0.03100756
v -0.07542169 0.01209161 0.02700552
v -0.07548286 0.01212384 0.02300348
v -0.07551344 0.01213816 0.02101120
v -0.07558990 0.01217576 0.01500814
v -0.07658390 0.01110871 0.02500450
v -0.07655332 0.01107470 0.02900654
v -0.07461120 0.01286862 0.01300712
v -0.07461120 0.01288115 0.01184496
v -0.06899892 0.00004797 0.09700625
v 0.06300433 -0.00104593 0.08901091
v 0.07500880 0.00027176 0.01184496
v 0.06699563 -0.00101908 0.08901091
v 0.06500762 -0.00104414 0.08901091
v -0.06899892 0.00028429 0.09839561
v -0.07100221 0.00030399 0.09835191
v -0.07100221 0.00113113 0.09934806
v -0.07300550 0.00233961 0.10015196
v -0.07424418 0.00352123 0.10015196
v -0.07300550 0.00352123 0.10054517
v -0.07447357 0.00552105 0.10029177
v -0.07432064 0.00718786 0.10019565
v -0.07320431 0.00772138 0.10042285
v -0.07266908 0.00871323 0.10016943
v -0.07242440 0.01071126 0.09820337
v -0.07305138 0.01100666 0.09711984
v -0.06503821 0.01495079 0.08898470
v -0.06500762 0.01528917 0.08700989
v -0.06594046 0.01645110 0.02900654
v -0.07403009 0.01253383 0.04459527
v -0.07407597 0.01254994 0.04301368
v -0.07430535 0.01265736 0.03300858
v -0.07435123 0.01267705 0.03100756
v -0.07526877 0.01201105 0.03500960
v -0.07450415 0.01278447 0.02101120
v -0.07456532 0.01282744 0.01700916
v -0.06604750 0.01657284 0.02101120
v -0.06606279 0.01658717 0.01901018
v -0.06609338 0.01662655 0.01300712
v -0.06609338 0.01663371 0.01184496
v 0.06899892 0.00004797 0.09700625
v 0.07601809 0.00050809 0.01184496
v 0.07500880 0.00027176 0.09100319
v 0.07100221 0.00006766 0.09700625
v 0.07468766 0.00028429 0.09500523
v 0.07300550 0.00004797 0.09500523
v -0.06899892 0.00109174 0.09939174
v 0.06899892 0.00028429 0.09839561
v -0.07100221 0.00213193 0.10030051
v -0.07100221 0.00352123 0.10083353
v -0.07300550 0.00552105 0.10080731
v -0.07100221 0.00752265 0.10080731
v -0.07100221 0.00883140 0.10027429
v -0.07100221 0.00983041 0.09933058
v -0.07100221 0.01083300 0.09833444
v -0.06300433 0.01538943 0.08901091
v -0.06419713 0.01655136 0.04301368
v -0.06433476 0.01657105 0.04101266
v -0.06457944 0.01661402 0.03701062
v -0.06468649 0.01663551 0.03500960
v -0.06300433 0.01564365 0.08700989
v -0.06486999 0.01667847 0.03100756
v -0.06494646 0.01669996 0.02900654
v -0.06500762 0.01683602 0.02101120
v -0.06500762 0.01687183 0.01901018
v -0.06500762 0.01694165 0.01500814
v -0.06500762 0.01697567 0.01300712
v -0.06500762 0.01699536 0.01184496
v -0.06546640 0.01684677 0.01184496
v 0.07601809 0.00050809 0.09100319
v 0.07626277 0.00109353 0.01184496
v 0.07800609 0.00451488 0.04366030
v 0.07802139 0.00448265 0.04700698
v 0.07803668 0.00445042 0.05100902
v 0.07765437 0.00337443 0.06900071
v 0.07774613 0.00333504 0.08901091
v 0.07676742 0.00152142 0.09100319
v 0.07601809 0.00051167 0.09215662
v 0.07514643 0.00032726 0.09289936
v 0.07240911 0.00038813 0.09821211
v 0.07100221 0.00030399 0.09835191
v 0.07305138 0.00025207 0.09707616
v 0.07435123 0.00036307 0.09644702
v 0.07591105 0.00056001 0.09348481
v 0.07569696 0.00068891 0.09500523
v -0.06899892 0.00209254 0.10031798
v 0.06899892 0.00109174 0.09939174
v -0.06899892 0.00352123 0.10086849
v -0.07100221 0.00552105 0.10106945
v -0.06899892 0.00752265 0.10084227
v -0.06899892 0.00885288 0.10029177
v -0.06899892 0.00985368 0.09936553
v -0.06899892 0.01085985 0.09836065
v -0.06300433 0.01483800 0.09025172
v 0.06300433 0.01538943 0.08901091
v -0.06409009 0.01653346 0.04412341
v -0.06300433 0.01721916 0.01300712
v -0.06300433 0.01724243 0.01184496
v -0.06384541 0.01714038 0.01184496
v -0.06300433 0.01572959 0.08300785
v 0.06300433 0.01564365 0.08700989
v 0.07722619 0.00352123 0.01184496
v 0.07780729 0.00531337 0.01184496
v 0.07800609 0.00457396 0.04233211
v 0.07805197 0.00631238 0.01184496
v 0.07805197 0.00441283 0.05700334
v 0.07805197 0.00440208 0.05900436
v 0.07805197 0.00438776 0.06300640
v 0.07805197 0.00437881 0.06700844
v 0.07805197 0.00436628 0.07300276
v 0.07805197 0.00435374 0.07900581
v 0.07805197 0.00433226 0.09100319
v 0.07774613 0.00333325 0.09100319
v 0.07774613 0.00333146 0.09300422
v 0.07661449 0.00134418 0.09289936
v 0.07669095 0.00168792 0.09500523
v 0.07100221 0.00113113 0.09934806
v 0.07373954 0.00062267 0.09778394
v 0.07401480 0.00251327 0.10001215
v 0.07300550 0.00233961 0.10015196
v 0.07500880 0.00100938 0.09707616
v 0.07640040 0.00205673 0.09700625
v 0.06899892 0.00209254 0.10031798
v 0.07100221 0.00213193 0.10030051
v -0.06500762 0.00552105 0.10111315
v -0.06899892 0.00552105 0.10110441
v 0.06899892 0.00352123 0.10086849
v 0.06899892 0.00752265 0.10084227
v 0.06899892 0.00885288 0.10029177
v 0.06899892 0.00985368 0.09936553
v 0.06899892 0.01085985 0.09836065
v 0.06300433 0.01483800 0.09025172
v 0.07100221 0.01083300 0.09833444
v 0.07242440 0.01071126 0.09820337
v 0.07305138 0.01100666 0.09711984
v 0.06506879 0.01498660 0.08906334
v 0.06500762 0.01538405 0.08700989
v -0.06300433 0.01594264 0.07300276
v -0.06300433 0.01687899 0.02900654
v -0.06300433 0.01704907 0.02101120
v 0.01299847 0.01724422 0.01184496
v 0.06300433 0.01572959 0.08300785
v 0.06428888 0.01655136 0.04301368
v 0.06412067 0.01653346 0.04412341
v 0.07811314 0.00752265 0.01184496
v 0.07809784 0.00552105 0.05301003
v 0.07811314 0.00552105 0.06700844
v 0.07805197 0.00433226 0.09300422
v 0.07771554 0.00364656 0.09495280
v 0.07803668 0.00439492 0.09425376
v 0.07612514 0.00238437 0.09815094
v 0.07481000 0.00209433 0.09889368
v 0.07525348 0.00352123 0.09940922
v 0.07424418 0.00352123 0.10015196
v 0.07300550 0.00352123 0.10054517
v 0.07100221 0.00352123 0.10083353
v 0.07710384 0.00352123 0.09700625
v 0.06500762 0.00552105 0.10111315
v 0.06899892 0.00552105 0.10110441
v 0.07100221 0.00752265 0.10080731
v 0.07100221 0.00883140 0.10027429
v 0.07100221 0.00983041 0.09933058
v 0.07266908 0.00871323 0.10016943
v 0.07399950 0.00851988 0.10001215
v 0.07375483 0.01039258 0.09785385
v 0.07438182 0.01083121 0.09652566
v 0.06600163 0.01652450 0.03418822
v 0.07464178 0.01099592 0.09500523
v 0.05500645 0.01670891 0.03701062
v 0.05099987 0.01670891 0.03701062
v 0.06300433 0.01704907 0.02101120
v 0.06300433 0.01721916 0.01300712
v 0.06300433 0.01724243 0.01184496
v 0.06300433 0.01687899 0.02900654
v 0.06465590 0.01659254 0.03901164
v 0.06500762 0.01690048 0.02101120
v 0.06500762 0.01697567 0.01700916
v 0.07808255 0.00820657 0.01184496
v 0.07811314 0.00752265 0.03300858
v 0.07811314 0.00552105 0.08901091
v 0.07809784 0.00552105 0.09300422
v 0.07791434 0.00552105 0.09538097
v 0.07805197 0.00552105 0.09437609
v 0.07633923 0.00352123 0.09840435
v 0.07548286 0.00552105 0.09959272
v 0.07447357 0.00552105 0.10029177
v 0.07300550 0.00552105 0.10080731
v 0.07100221 0.00552105 0.10106945
v 0.07739440 0.00552105 0.09700625
v 0.07320431 0.00772138 0.10042285
v 0.07432064 0.00718786 0.10019565
v 0.07499351 0.00772138 0.09952282
v 0.07612514 0.00864162 0.09815094
v 0.07500880 0.00901580 0.09861406
v 0.07638511 0.00889943 0.09700625
v 0.07565108 0.01016699 0.09500523
v 0.06601692 0.01653525 0.03300858
v 0.06500762 0.01706877 0.01184496
v 0.06500762 0.01671070 0.03100756
v 0.06500762 0.01667131 0.03300858
v 0.06482412 0.01661402 0.03701062
v 0.07471825 0.01101741 0.09300422
v 0.07403009 0.01253383 0.04459527
v 0.07407597 0.01254994 0.04301368
v 0.07430535 0.01265736 0.03300858
v 0.07435123 0.01267705 0.03100756
v 0.07450415 0.01278447 0.02101120
v 0.07456532 0.01282744 0.01700916
v 0.07461120 0.01286862 0.01300712
v 0.07572754 0.01025651 0.09300422
v 0.07805197 0.00870428 0.01184496
v 0.07805197 0.00870249 0.01300712
v 0.07805197 0.00868817 0.02101120
v 0.07805197 0.00865952 0.03500960
v 0.07805197 0.00865415 0.03701062
v 0.07805197 0.00863983 0.04101266
v 0.07805197 0.00862909 0.04301368
v 0.07809784 0.00752265 0.04700698
v 0.07805197 0.00671879 0.09300422
v 0.07803668 0.00665255 0.09425376
v 0.07707326 0.00752265 0.09700625
v 0.07649216 0.00552105 0.09858785
v 0.07633923 0.00752265 0.09840435
v 0.07768495 0.00739912 0.09495280
v 0.07664508 0.00916798 0.09500523
v 0.06603221 0.01655315 0.03100756
v 0.06610867 0.01663730 0.02101120
v 0.06613926 0.01666952 0.01700916
v 0.06615455 0.01668384 0.01500814
v 0.06616984 0.01670712 0.01184496
v 0.07534523 0.01205401 0.03100756
v 0.07526877 0.01201105 0.03500960
v 0.07542169 0.01209161 0.02700552
v 0.07548286 0.01212384 0.02300348
v 0.07551344 0.01213816 0.02101120
v 0.07558990 0.01217576 0.01500814
v 0.07503938 0.01259291 0.01184496
v 0.07461120 0.01288115 0.01184496
v 0.07647686 0.01098697 0.03701062
v 0.07672154 0.00925750 0.09300422
v 0.07766966 0.00970508 0.01184496
v 0.07766966 0.00970329 0.01300712
v 0.07803668 0.00859149 0.04900800
v 0.07802139 0.00855926 0.05301003
v 0.07800609 0.00847512 0.05772860
v 0.07773083 0.00771959 0.09300422
v 0.07652274 0.01103352 0.03300858
v 0.07562049 0.01219187 0.01184496
v 0.07653803 0.01105500 0.03100756
v 0.07655332 0.01107470 0.02900654
v 0.07658390 0.01110871 0.02500450
v 0.07661449 0.01113736 0.02101120
v 0.07800609 0.00852883 0.05640041
v 0.07667566 0.01119107 0.01184496
v 0.07763907 0.00969255 0.01901018
v 0.07759320 0.00968002 0.02500450
v 0.07756261 0.00967107 0.02900654
v 0.07666037 0.01117496 0.01500814
v 0.07750145 0.00965853 0.03500960
f 1 2 3
f 1 3 14
f 1 14 4
f 1 4 5
f 1 5 22
f 1 22 33
f 1 33 50
f 1 50 70
f 1 70 93
f 1 93 122
f 1 122 153
f 1 153 182
f 1 182 181
f 1 181 212
f 1 212 211
f 1 211 254
f 1 254 286
f 1 286 311
f 1 311 343
f 1 343 351
f 1 351 350
f 1 350 361
f 1 361 367
f 1 367 354
f 1 354 324
f 1 324 291
f 1 291 258
f 1 258 218
f 1 218 216
f 1 216 215
f 1 215 184
f 1 184 155
f 1 155 125
f 1 125 96
f 1 96 73
f 1 73 54
f 1 54 38
f 1 38 53
f 1 53 72
f 1 72 71
f 1 71 52
f 1 52 36
f 1 36 23
f 1 23 6
f 1 6 2
f 2 6 7
f 2 7 3
f 3 7 8
f 3 8 9
f 3 9 10
f 3 10 11
f 3 11 12
f 3 12 13
f 3 13 26
f 3 26 14
f 4 15 16
f 4 16 5
f 4 14 17
f 4 17 18
f 4 18 19
f 4 19 20
f 4 20 21
f 4 21 15
f 5 16 22
f 6 23 7
f 7 23 24
f 7 24 25
f 7 25 8
f 8 25 9
f 9 25 10
f 10 25 11
f 11 25 12
f 12 25 13
f 13 25 27
f 13 27 28
f 13 28 26
f 14 26 29
f 14 29 30
f 14 30 17
f 15 21 22
f 15 22 16
f 17 30 18
f 18 30 31
f 18 31 32
f 18 32 19
f 19 32 20
f 20 32 22
f 20 22 21
f 22 32 33
f 23 34 35
f 23 35 24
f 23 36 34
f 24 37 25
f 24 35 38
f 24 38 37
f 25 39 27
f 25 37 38
f 25 38 39
f 26 40 29
f 26 28 40
f 27 39 28
f 28 39 41
f 28 41 42
f 28 42 43
f 28 43 40
f 29 40 44
f 29 44 45
f 29 45 30
f 30 45 46
f 30 46 47
f 30 47 48
f 30 48 31
f 31 48 49
f 31 49 32
f 32 49 50
f 32 50 33
f 34 51 35
f 34 36 51
f 35 51 38
f 36 52 51
f 38 54 75
f 38 75 55
f 38 55 39
f 38 51 53
f 39 55 56
f 39 56 41
f 40 43 57
f 40 57 44
f 41 56 42
f 42 56 58
f 42 58 59
f 42 59 60
f 42 60 43
f 43 60 61
f 43 61 57
f 44 57 45
f 45 57 62
f 45 62 63
f 45 63 46
f 46 63 64
f 46 64 65
f 46 65 66
f 46 66 47
f 47 66 48
f 48 66 67
f 48 67 68
f 48 68 49
f 49 68 69
f 49 69 70
f 49 70 50
f 51 52 71
f 51 71 72
f 51 72 53
f 54 73 74
f 54 74 75
f 55 75 56
f 56 75 76
f 56 76 77
f 56 77 58
f 57 61 78
f 57 78 62
f 58 77 59
f 59 77 79
f 59 79 80
f 59 80 60
f 60 80 81
f 60 81 61
f 61 81 82
f 61 82 78
f 62 78 83
f 62 83 84
f 62 84 85
f 62 85 63
f 63 85 64
f 64 85 86
f 64 86 87
f 64 87 65
f 65 87 88
f 65 88 89
f 65 89 66
f 66 90 67
f 66 89 91
f 66 91 90
f 67 90 69
f 67 69 68
f 69 90 92
f 69 92 93
f 69 93 70
f 73 94 95
f 73 95 74
f 73 96 124
f 73 124 94
f 74 95 97
f 74 97 98
f 74 98 77
f 74 77 75
f 75 77 76
f 77 98 79
f 78 82 99
f 78 99 83
f 79 98 100
f 79 100 101
f 79 101 102
f 79 102 80
f 80 102 81
f 81 103 82
f 81 102 104
f 81 104 105
f 81 105 103
f 82 103 106
f 82 106 99
f 83 99 106
f 83 106 107
f 83 107 84
f 84 107 108
f 84 108 109
f 84 109 110
f 84 110 111
f 84 111 85
f 85 111 86
f 86 111 112
f 86 112 87
f 87 112 113
f 87 113 114
f 87 114 115
f 87 115 88
f 88 115 89
f 89 115 116
f 89 116 117
f 89 117 118
f 89 118 91
f 90 119 92
f 90 91 120
f 90 120 119
f 91 118 120
f 92 119 118
f 92 118 93
f 93 118 121
f 93 121 122
f 94 123 95
f 94 124 154
f 94 154 123
f 95 123 97
f 96 125 126
f 96 126 127
f 96 127 124
f 97 123 128
f 97 128 129
f 97 129 101
f 97 101 100
f 97 100 98
f 101 129 130
f 101 130 131
f 101 131 105
f 101 105 102
f 102 105 104
f 103 105 132
f 103 132 106
f 105 131 133
f 105 133 132
f 106 132 134
f 106 134 135
f 106 135 107
f 107 135 108
f 108 110 109
f 108 135 136
f 108 136 137
f 108 137 138
f 108 138 110
f 110 138 111
f 111 138 139
f 111 139 140
f 111 140 141
f 111 141 112
f 112 141 113
f 113 141 142
f 113 142 143
f 113 143 144
f 113 144 145
f 113 145 146
f 113 146 147
f 113 147 114
f 114 147 146
f 114 146 115
f 115 146 148
f 115 148 149
f 115 149 116
f 116 149 121
f 116 121 117
f 117 121 118
f 118 119 120
f 121 149 150
f 121 150 122
f 122 150 151
f 122 151 152
f 122 152 153
f 123 154 161
f 123 161 128
f 124 127 154
f 125 155 183
f 125 183 156
f 125 156 126
f 126 157 127
f 126 156 158
f 126 158 159
f 126 159 157
f 127 157 154
f 128 160 129
f 128 161 200
f 128 200 160
f 129 160 130
f 130 162 131
f 130 160 162
f 131 162 163
f 131 163 133
f 132 133 164
f 132 164 134
f 133 163 164
f 134 164 135
f 135 164 136
f 136 164 165
f 136 165 137
f 137 165 166
f 137 166 167
f 137 167 168
f 137 168 138
f 138 168 169
f 138 169 139
f 139 169 140
f 140 169 141
f 141 170 171
f 141 171 172
f 141 172 173
f 141 173 142
f 141 169 174
f 141 174 170
f 142 173 175
f 142 175 176
f 142 176 177
f 142 177 150
f 142 150 144
f 142 144 143
f 144 150 145
f 145 150 146
f 146 150 148
f 148 150 149
f 150 177 178
f 150 178 179
f 150 179 180
f 150 180 181
f 150 181 151
f 151 181 182
f 151 182 152
f 152 182 153
f 154 157 161
f 155 184 185
f 155 185 186
f 155 186 187
f 155 187 188
f 155 188 189
f 155 189 190
f 155 190 183
f 156 183 191
f 156 191 192
f 156 192 158
f 157 193 194
f 157 194 161
f 157 159 195
f 157 195 193
f 158 196 159
f 158 192 191
f 158 191 197
f 158 197 198
f 158 198 196
f 159 196 195
f 160 199 162
f 160 200 236
f 160 236 199
f 161 194 200
f 162 199 201
f 162 201 163
f 163 202 164
f 163 201 239
f 163 239 202
f 164 202 165
f 165 202 239
f 165 239 203
f 165 203 166
f 166 203 204
f 166 204 205
f 166 205 167
f 167 205 168
f 168 205 206
f 168 206 207
f 168 207 169
f 169 207 245
f 169 245 208
f 169 208 214
f 169 214 174
f 170 209 210
f 170 210 211
f 170 211 172
f 170 172 171
f 170 174 209
f 172 211 212
f 172 212 173
f 173 212 179
f 173 179 178
f 173 178 177
f 173 177 175
f 174 213 209
f 174 214 255
f 174 255 213
f 175 177 176
f 179 212 180
f 180 212 181
f 183 190 191
f 184 215 185
f 185 215 216
f 185 216 217
f 185 217 186
f 186 217 218
f 186 218 187
f 187 218 219
f 187 219 189
f 187 189 188
f 189 219 220
f 189 220 221
f 189 221 222
f 189 222 223
f 189 223 224
f 189 224 225
f 189 225 226
f 189 226 190
f 190 226 227
f 190 227 228
f 190 228 191
f 191 228 229
f 191 229 197
f 193 230 194
f 193 195 196
f 193 196 231
f 193 231 232
f 193 232 233
f 193 233 230
f 194 230 200
f 196 198 234
f 196 234 231
f 197 229 198
f 198 229 235
f 198 235 234
f 199 236 240
f 199 240 201
f 200 230 237
f 200 237 236
f 201 238 239
f 201 240 271
f 201 271 238
f 203 239 238
f 203 238 271
f 203 271 241
f 203 241 242
f 203 242 204
f 204 242 243
f 204 243 205
f 205 243 244
f 205 244 206
f 206 244 245
f 206 245 207
f 208 245 246
f 208 246 247
f 208 247 248
f 208 248 249
f 208 249 250
f 208 250 214
f 209 251 252
f 209 252 253
f 209 253 210
f 209 213 251
f 210 253 254
f 210 254 211
f 213 255 251
f 214 250 256
f 214 256 257
f 214 257 255
f 216 218 217
f 218 258 219
f 219 258 259
f 219 259 260
f 219 260 220
f 220 260 221
f 221 260 222
f 222 260 223
f 223 260 224
f 224 260 225
f 225 260 293
f 225 293 261
f 225 261 227
f 225 227 226
f 227 262 229
f 227 229 228
f 227 261 263
f 227 263 262
f 229 262 235
f 230 233 237
f 231 234 264
f 231 264 265
f 231 265 232
f 232 265 264
f 232 264 266
f 232 266 267
f 232 267 268
f 232 268 233
f 233 268 269
f 233 269 237
f 234 235 264
f 235 262 270
f 235 270 264
f 236 237 240
f 237 269 240
f 240 269 301
f 240 301 272
f 240 272 271
f 241 271 272
f 241 272 301
f 241 301 273
f 241 273 274
f 241 274 242
f 242 274 243
f 243 274 275
f 243 275 246
f 243 246 244
f 244 246 245
f 246 275 276
f 246 276 247
f 247 276 277
f 247 277 278
f 247 278 279
f 247 279 248
f 248 279 249
f 249 279 250
f 250 280 256
f 250 279 281
f 250 281 280
f 251 255 282
f 251 282 283
f 251 283 252
f 252 283 254
f 252 254 253
f 254 283 282
f 254 282 284
f 254 284 285
f 254 285 286
f 255 257 287
f 255 287 282
f 256 280 288
f 256 288 289
f 256 289 290
f 256 290 286
f 256 286 285
f 256 285 257
f 257 285 284
f 257 284 287
f 258 291 292
f 258 292 293
f 258 293 260
f 258 260 259
f 261 293 294
f 261 294 263
f 262 263 295
f 262 295 270
f 263 294 296
f 263 296 295
f 264 270 297
f 264 297 266
f 266 297 298
f 266 298 267
f 267 299 300
f 267 300 268
f 267 298 299
f 268 300 269
f 269 300 301
f 270 295 302
f 270 302 297
f 273 301 300
f 273 300 303
f 273 303 276
f 273 276 274
f 274 276 275
f 276 303 277
f 277 303 304
f 277 304 305
f 277 305 306
f 277 306 307
f 277 307 278
f 278 307 306
f 278 306 279
f 279 306 308
f 279 308 309
f 279 309 281
f 280 310 311
f 280 311 290
f 280 290 289
f 280 289 312
f 280 312 313
f 280 313 314
f 280 314 288
f 280 281 315
f 280 315 316
f 280 316 317
f 280 317 318
f 280 318 319
f 280 319 320
f 280 320 321
f 280 321 322
f 280 322 310
f 281 309 323
f 281 323 315
f 282 287 284
f 286 290 311
f 288 314 312
f 288 312 289
f 291 324 325
f 291 325 326
f 291 326 327
f 291 327 328
f 291 328 329
f 291 329 292
f 292 329 330
f 292 330 331
f 292 331 293
f 293 331 332
f 293 332 294
f 294 332 333
f 294 333 296
f 295 334 302
f 295 296 333
f 295 333 334
f 297 335 298
f 297 302 335
f 298 335 336
f 298 336 305
f 298 305 304
f 298 304 299
f 299 304 300
f 300 304 303
f 302 334 336
f 302 336 335
f 305 336 306
f 306 336 334
f 306 334 308
f 308 334 337
f 308 337 338
f 308 338 309
f 309 338 353
f 309 353 323
f 310 339 311
f 310 322 339
f 311 339 340
f 311 340 341
f 311 341 342
f 311 342 343
f 312 314 313
f 315 319 318
f 315 318 317
f 315 317 316
f 315 323 344
f 315 344 345
f 315 345 319
f 319 345 344
f 319 344 346
f 319 346 320
f 320 346 321
f 321 346 347
f 321 347 322
f 322 347 348
f 322 348 349
f 322 349 350
f 322 350 351
f 322 351 341
f 322 341 340
f 322 340 339
f 323 352 346
f 323 346 344
f 323 353 352
f 324 354 355
f 324 355 325
f 325 355 326
f 326 355 327
f 327 355 328
f 328 355 329
f 329 355 330
f 330 356 332
f 330 332 331
f 330 355 356
f 332 356 357
f 332 357 358
f 332 358 359
f 332 359 333
f 333 359 337
f 333 337 334
f 337 359 338
f 338 359 353
f 341 351 342
f 342 351 343
f 346 352 360
f 346 360 347
f 347 360 348
f 348 360 349
f 349 361 350
f 349 360 362
f 349 362 363
f 349 363 364
f 349 364 365
f 349 365 361
f 352 353 360
f 353 359 366
f 353 366 360
f 354 367 355
f 355 367 368
f 355 368 356
f 356 368 357
f 357 366 358
f 357 368 369
f 357 369 370
f 357 370 366
f 358 366 359
f 360 366 362
f 361 365 371
f 361 371 367
f 362 366 372
f 362 372 363
f 363 372 364
f 364 372 365
f 365 372 371
f 366 370 372
f 367 371 368
f 368 371 369
f 369 371 370
f 370 371 372

