# https://github.com/mikedh/trimesh
v -0.07809784 0.00952396 -0.03295521
v -0.07809784 0.00955338 -0.03295521
v -0.07805197 0.00804188 -0.03295521
v -0.07806726 0.00747185 -0.03104322
v -0.07809784 0.00752150 -0.02899967
v -0.07811314 0.00752150 -0.02699998
v -0.07811314 0.00752150 0.01184496
v -0.07805197 0.01067874 -0.03295521
v -0.07797551 0.00677310 -0.03173609
v -0.07803668 0.00643660 -0.03040296
v -0.07789904 0.00708018 -0.03295521
v -0.07805197 0.00638511 -0.02899967
v -0.07805197 0.00637408 -0.02699998
v -0.07808255 0.00682459 0.01184496
v -0.07805197 0.00870569 0.01184496
v -0.07776142 0.00971152 0.00699921
v -0.07757791 0.01164963 -0.03295521
v -0.07747086 0.00557052 -0.03295521
v -0.07679800 0.00357541 -0.03295521
v -0.07621689 0.00190945 -0.03295521
v -0.07630864 0.00168144 -0.03100375
v -0.07629335 0.00133574 -0.02899090
v -0.07718031 0.00352209 -0.00100396
v -0.07721089 0.00352209 0.00699921
v -0.07722619 0.00352209 0.01184496
v -0.07747086 0.00427416 0.01184496
v -0.07780729 0.00531309 0.01184496
v -0.07601809 0.00050828 -0.02699998
v -0.07805197 0.00637040 -0.02500028
v -0.07805197 0.00633179 -0.00300365
v -0.07805197 0.00632627 0.00100012
v -0.07805197 0.00631340 0.01184496
v -0.07783788 0.00928308 0.01184496
v -0.07766966 0.00970417 0.01184496
v -0.07756261 0.01167353 -0.03295521
v -0.07583458 0.00068113 -0.03100375
v -0.07597222 0.00054322 -0.02965308
v -0.07563578 0.00093304 -0.03295521
v -0.07600280 0.00051196 -0.02831995
v -0.07643098 0.00152146 0.00299982
v -0.07676742 0.00236548 0.01184496
v -0.07500880 0.00027291 -0.02699998
v -0.07601809 0.00050828 0.01184496
v -0.07725677 0.01032936 0.01184496
v -0.07676742 0.01128370 0.00699921
v -0.07655332 0.01308574 -0.03295521
v -0.07465708 0.00029498 -0.03295521
v -0.07462649 0.00028578 -0.03295521
v -0.07482529 0.00028578 -0.03100375
v -0.07517702 0.00032808 -0.02899090
v -0.07643098 0.00152146 0.01184496
v -0.07500880 0.00027291 0.01184496
v -0.06899892 -0.00076969 -0.02300059
v -0.07667566 0.01119176 0.01184496
v -0.07562049 0.01219208 0.01184496
v -0.07548286 0.01406215 -0.03295521
v -0.07458061 0.00027843 -0.03295521
v -0.07300550 0.00004858 0.01184496
v -0.06699563 -0.00097012 -0.02300059
v -0.07300550 0.00004858 -0.03295521
v -0.07461120 0.01288163 0.01184496
v -0.07445828 0.01477744 -0.03295521
v -0.07542169 0.01411179 -0.03295521
v -0.07545228 0.01408789 -0.03295521
v 0.07300550 0.00004858 0.01184496
v 0.06699563 -0.00097012 -0.02300059
v 0.07300550 0.00004858 -0.03295521
v -0.06609338 0.01663280 0.01184496
v -0.07305138 0.01502936 -0.03295521
v -0.06546640 0.01684794 0.01184496
v -0.06500762 0.01699505 0.01184496
v -0.06500762 0.01704102 0.00899890
v -0.06500762 0.01707228 0.00699921
v -0.06500762 0.01719732 -0.00100396
v -0.06500762 0.01733523 -0.01099804
v -0.06500762 0.01736281 -0.01299773
v -0.06300433 0.01776735 -0.01500181
v 0.06899892 -0.00076969 -0.02300059
v 0.07384658 0.00014236 0.01184496
v 0.07305138 0.00005409 -0.03295521
v -0.06500762 0.01642134 -0.02699998
v -0.07300550 0.01503304 -0.03295521
v -0.06384541 0.01714031 0.01184496
v -0.06300433 0.01772873 -0.01099804
v -0.06300433 0.01777102 -0.01299773
v -0.06100104 0.01781332 -0.01500181
v 0.07462649 0.00028578 -0.03295521
v 0.07482529 0.00028578 -0.03100375
v 0.07500880 0.00027291 -0.02699998
v 0.07500880 0.00027291 0.01184496
v 0.03300081 0.01647099 -0.02699998
v -0.06699563 0.01503488 -0.03295521
v -0.06300433 0.01724329 0.01184496
v -0.06300433 0.01726167 0.01099859
v -0.06300433 0.01755956 -0.00300365
v -0.00698859 0.01781516 -0.01500181
v 0.07563578 0.00093304 -0.03295521
v 0.07583458 0.00068113 -0.03100375
v 0.07597222 0.00054322 -0.02965308
v 0.07600280 0.00051196 -0.02831995
v 0.07517702 0.00032808 -0.02899090
v 0.07601809 0.00050828 -0.02699998
v 0.07601809 0.00050828 0.01184496
v 0.06100104 0.01781332 -0.01500181
v 0.07300550 0.01503304 -0.03295521
v 0.03494294 0.01503671 -0.03295521
v 0.03300081 0.01503671 -0.03295521
v 0.06300433 0.01724329 0.01184496
v -0.03699211 0.01751727 -0.00100396
v 0.06300433 0.01726167 0.01099859
v 0.03300081 0.01751727 -0.00100396
v 0.06300433 0.01755956 -0.00300365
v 0.06300433 0.01772873 -0.01099804
v 0.06300433 0.01777102 -0.01299773
v 0.07621689 0.00193336 -0.03295521
v 0.07630864 0.00168144 -0.03100375
v 0.07629335 0.00133574 -0.02899090
v 0.07643098 0.00152146 0.00299982
v 0.07626277 0.00109486 0.01184496
v 0.07805197 0.00638511 -0.02899967
v 0.07718031 0.00352209 -0.00100396
v 0.07721089 0.00352209 0.00699921
v 0.07722619 0.00352209 0.01184496
v 0.06300433 0.01776735 -0.01500181
v 0.07445828 0.01477744 -0.03295521
v 0.06500762 0.01706860 0.01184496
v 0.06500762 0.01711825 0.00899890
v 0.06500762 0.01715135 0.00699921
v 0.06500762 0.01728374 -0.00100396
v 0.06500762 0.01731500 -0.00300365
v 0.06500762 0.01743452 -0.01099804
v 0.06500762 0.01746394 -0.01299773
v 0.07675212 0.00347612 -0.03295521
v 0.07803668 0.00643660 -0.03040296
v 0.07809784 0.00752150 -0.02899967
v 0.07811314 0.00752150 -0.02699998
v 0.07805197 0.00637408 -0.02699998
v 0.07780729 0.00531309 0.01184496
v 0.06500762 0.01739958 -0.01500181
v 0.07461120 0.01288163 0.01184496
v 0.07503938 0.01259294 0.01184496
v 0.07562049 0.01219208 0.01184496
v 0.07545228 0.01408789 -0.03295521
v 0.06616984 0.01670635 0.01184496
v 0.07744028 0.00547307 -0.03295521
v 0.07797551 0.00677310 -0.03173609
v 0.07805197 0.00807682 -0.03295521
v 0.07806726 0.00747185 -0.03104322
v 0.07809784 0.00946880 -0.03295521
v 0.07809784 0.00952396 -0.03295521
v 0.07811314 0.00752150 0.01184496
v 0.07805197 0.00631340 0.01184496
v 0.07805197 0.00632627 0.00100012
v 0.07805197 0.00633179 -0.00300365
v 0.07805197 0.00637040 -0.02500028
v 0.07667566 0.01119176 0.01184496
v 0.07655332 0.01308574 -0.03295521
v 0.07789904 0.00705812 -0.03295521
v 0.07805197 0.01067874 -0.03295521
v 0.07808255 0.00820738 0.01184496
v 0.07676742 0.01128370 0.00699921
v 0.07658390 0.01305448 -0.03295521
v 0.07766966 0.00970417 0.01184496
v 0.07805197 0.00870569 0.01184496
v 0.07756261 0.01167353 -0.03295521
v 0.07776142 0.00971152 0.00699921
f 1 2 8
f 1 8 17
f 1 17 35
f 1 35 46
f 1 46 56
f 1 56 64
f 1 64 63
f 1 63 62
f 1 62 69
f 1 69 82
f 1 82 92
f 1 92 107
f 1 107 106
f 1 106 105
f 1 105 125
f 1 125 143
f 1 143 157
f 1 157 162
f 1 162 165
f 1 165 159
f 1 159 150
f 1 150 149
f 1 149 147
f 1 147 158
f 1 158 145
f 1 145 133
f 1 133 115
f 1 115 97
f 1 97 87
f 1 87 80
f 1 80 67
f 1 67 60
f 1 60 57
f 1 57 48
f 1 48 47
f 1 47 38
f 1 38 20
f 1 20 19
f 1 19 18
f 1 18 11
f 1 11 3
f 1 3 4
f 1 4 5
f 1 5 6
f 1 6 2
f 2 6 7
f 2 7 8
f 3 9 10
f 3 10 4
f 3 11 9
f 4 10 5
f 5 10 12
f 5 12 6
f 6 12 13
f 6 13 14
f 6 14 7
f 7 14 32
f 7 32 27
f 7 27 26
f 7 26 25
f 7 25 41
f 7 41 51
f 7 51 43
f 7 43 52
f 7 52 58
f 7 58 65
f 7 65 79
f 7 79 90
f 7 90 103
f 7 103 119
f 7 119 123
f 7 123 138
f 7 138 152
f 7 152 151
f 7 151 160
f 7 160 164
f 7 164 163
f 7 163 156
f 7 156 142
f 7 142 141
f 7 141 140
f 7 140 144
f 7 144 126
f 7 126 108
f 7 108 93
f 7 93 83
f 7 83 71
f 7 71 70
f 7 70 68
f 7 68 61
f 7 61 55
f 7 55 54
f 7 54 44
f 7 44 34
f 7 34 33
f 7 33 15
f 7 15 8
f 8 15 16
f 8 16 17
f 9 11 18
f 9 18 10
f 10 18 19
f 10 19 20
f 10 20 21
f 10 21 22
f 10 22 12
f 12 23 24
f 12 24 25
f 12 25 26
f 12 26 27
f 12 27 13
f 12 22 28
f 12 28 23
f 13 29 14
f 13 27 29
f 14 29 30
f 14 30 31
f 14 31 32
f 15 33 16
f 16 33 34
f 16 34 17
f 17 34 35
f 20 36 37
f 20 37 21
f 20 38 36
f 21 37 22
f 22 37 39
f 22 39 28
f 23 28 24
f 24 28 25
f 25 28 40
f 25 40 41
f 27 32 31
f 27 31 30
f 27 30 29
f 28 39 42
f 28 42 52
f 28 52 43
f 28 43 51
f 28 51 40
f 34 44 45
f 34 45 35
f 35 45 46
f 36 38 47
f 36 47 37
f 37 47 48
f 37 48 39
f 39 48 49
f 39 49 50
f 39 50 42
f 40 51 41
f 42 50 49
f 42 49 53
f 42 53 52
f 44 54 45
f 45 54 46
f 46 54 55
f 46 55 56
f 48 57 49
f 49 57 53
f 52 53 58
f 53 59 58
f 53 57 60
f 53 60 59
f 55 61 62
f 55 62 63
f 55 63 64
f 55 64 56
f 58 59 66
f 58 66 65
f 59 60 67
f 59 67 66
f 61 68 62
f 62 68 70
f 62 70 71
f 62 71 72
f 62 72 73
f 62 73 74
f 62 74 75
f 62 75 76
f 62 76 77
f 62 77 69
f 65 66 78
f 65 78 79
f 66 67 78
f 67 80 78
f 69 81 82
f 69 77 81
f 71 83 84
f 71 84 85
f 71 85 72
f 72 85 73
f 73 85 74
f 74 85 75
f 75 85 76
f 76 85 77
f 77 85 86
f 77 86 81
f 78 80 87
f 78 87 88
f 78 88 89
f 78 89 90
f 78 90 79
f 81 86 91
f 81 91 82
f 82 91 92
f 83 93 94
f 83 94 95
f 83 95 84
f 84 95 96
f 84 96 85
f 85 96 86
f 86 96 91
f 87 97 98
f 87 98 99
f 87 99 100
f 87 100 88
f 88 100 101
f 88 101 89
f 89 101 100
f 89 100 102
f 89 102 103
f 89 103 90
f 91 104 105
f 91 105 106
f 91 106 107
f 91 107 92
f 91 96 104
f 93 108 110
f 93 110 94
f 94 109 95
f 94 110 111
f 94 111 109
f 95 109 96
f 96 109 111
f 96 111 112
f 96 112 113
f 96 113 114
f 96 114 104
f 97 115 98
f 98 115 99
f 99 115 116
f 99 116 117
f 99 117 100
f 100 117 102
f 102 118 119
f 102 119 103
f 102 117 120
f 102 120 121
f 102 121 122
f 102 122 123
f 102 123 118
f 104 114 124
f 104 124 105
f 105 124 125
f 108 126 110
f 110 126 112
f 110 112 111
f 112 126 113
f 113 126 114
f 114 126 127
f 114 127 128
f 114 128 129
f 114 129 130
f 114 130 131
f 114 131 132
f 114 132 124
f 115 133 134
f 115 134 116
f 116 134 117
f 117 134 120
f 118 123 119
f 120 134 135
f 120 135 136
f 120 136 137
f 120 137 138
f 120 138 123
f 120 123 122
f 120 122 121
f 124 132 139
f 124 139 125
f 125 140 141
f 125 141 142
f 125 142 143
f 125 139 132
f 125 132 131
f 125 131 130
f 125 130 129
f 125 129 144
f 125 144 140
f 126 144 127
f 127 144 128
f 128 144 129
f 133 145 134
f 134 145 146
f 134 146 147
f 134 147 148
f 134 148 135
f 135 148 149
f 135 149 136
f 136 149 150
f 136 150 151
f 136 151 152
f 136 152 153
f 136 153 154
f 136 154 155
f 136 155 137
f 137 155 138
f 138 155 154
f 138 154 153
f 138 153 152
f 142 156 157
f 142 157 143
f 145 158 146
f 146 158 147
f 147 149 148
f 150 159 151
f 151 159 160
f 156 161 162
f 156 162 157
f 156 163 161
f 159 164 160
f 159 165 166
f 159 166 164
f 161 163 165
f 161 165 162
f 163 164 166
f 163 166 165

