# https://github.com/mikedh/trimesh
v -0.01261877 0.04667335 0.11494580
v -0.01458656 0.04609851 0.11497814
v -0.01319245 0.04609851 0.11494580
v -0.01261877 0.04609851 0.11492423
v -0.01261877 0.04749356 0.11491345
v -0.01598066 0.04609851 0.11496736
v -0.01877008 0.04470461 0.11497814
v -0.02434650 0.04191682 0.11498893
v -0.02503443 0.04122909 0.11496736
v -0.02503443 0.04047684 0.11481641
v -0.02503443 0.03979257 0.11461156
v -0.01261877 0.04545110 0.11469781
v -0.01319245 0.04749356 0.11489188
v -0.01261877 0.04794744 0.11476250
v -0.01737598 0.04609851 0.11490267
v -0.02016297 0.04470461 0.11494580
v -0.02295239 0.04331072 0.11495658
v -0.02503443 0.04191682 0.11494580
v -0.02503443 0.03945965 0.11449295
v -0.01261877 0.04505597 0.11454686
v -0.01261877 0.04851997 0.11454686
v -0.01319245 0.04846813 0.11451452
v -0.01458656 0.04749356 0.11476250
v -0.01737598 0.04712377 0.11453608
v -0.01886975 0.04621832 0.11465468
v -0.02155829 0.04470461 0.11477328
v -0.02503443 0.04275431 0.11478406
v -0.02503443 0.03916013 0.11423419
v -0.01261877 0.04464586 0.11414793
v -0.01261877 0.04880682 0.11426653
v -0.01458656 0.04830455 0.11440670
v -0.02016297 0.04589000 0.11457921
v -0.01532068 0.04820318 0.11433123
v -0.01847352 0.04694176 0.11442826
v -0.02281383 0.04470922 0.11453608
v -0.02407424 0.04424728 0.11447139
v -0.02446196 0.04343168 0.11467625
v -0.02503443 0.04326579 0.11462234
v -0.02503443 0.03883527 0.11386760
v -0.01261877 0.04434980 0.11373822
v -0.01261877 0.04923535 0.11368431
v -0.02155829 0.04556745 0.11442826
v -0.01940211 0.04676205 0.11428810
v -0.01318638 0.04919619 0.11354414
v -0.01261877 0.04964200 0.11304818
v -0.01271843 0.04963163 0.11302661
v -0.01458656 0.04880106 0.11361962
v -0.01586398 0.04844970 0.11363040
v -0.01705024 0.04832414 0.11317756
v -0.01625049 0.04801771 0.11410481
v -0.02225716 0.04540271 0.11432044
v -0.02500404 0.04397541 0.11428810
v -0.02503443 0.04393970 0.11429888
v -0.02503443 0.03865787 0.11360883
v -0.02503443 0.03833301 0.11311287
v -0.01261877 0.04409522 0.11333929
v -0.02016297 0.04658695 0.11402933
v -0.02016297 0.04703507 0.11332850
v -0.01261877 0.04966389 0.11294035
v -0.01261877 0.04976181 0.11222875
v -0.01298097 0.04968693 0.11222875
v -0.01598066 0.04885635 0.11222875
v -0.01745984 0.04838404 0.11215328
v -0.01798005 0.04812715 0.11257378
v -0.02097488 0.04685075 0.11302661
v -0.02318697 0.04517693 0.11400777
v -0.02503443 0.04396735 0.11427732
v -0.02503443 0.03827195 0.11294035
v -0.01261877 0.04393509 0.11306974
v -0.01261877 0.04978139 0.11179747
v -0.01261877 0.04982517 0.11082710
v -0.01313411 0.04971803 0.11082710
v -0.01598066 0.04889552 0.11082710
v -0.01737598 0.04847389 0.11082710
v -0.01810402 0.04820203 0.11164653
v -0.01864976 0.04792440 0.11215328
v -0.02016297 0.04732422 0.11222875
v -0.02380077 0.04548105 0.11308052
v -0.02110493 0.04691181 0.11222875
v -0.02394175 0.04555478 0.11222875
v -0.02440240 0.04473802 0.11368431
v -0.02503443 0.04450071 0.11349024
v -0.01261877 0.04386367 0.11273550
v -0.02503443 0.03813948 0.11222875
v -0.01261877 0.04982517 0.00484083
v -0.01313411 0.04971803 0.00484083
v -0.01314262 0.04971573 0.00484083
v -0.01598066 0.04889552 0.00484083
v -0.01811983 0.04820779 0.11082710
v -0.01737598 0.04847389 0.00484083
v -0.02016297 0.04737375 0.11082710
v -0.02117786 0.04694637 0.11082710
v -0.02463820 0.04515734 0.11222875
v -0.02503443 0.04492695 0.11222875
v -0.02503443 0.04482672 0.11259534
v -0.02400617 0.04558934 0.11082710
v -0.01261877 0.04378994 0.11222875
v -0.02503443 0.03805884 0.11082710
v -0.01261877 0.04372658 0.00484083
v -0.01811983 0.04820779 0.00484083
v -0.02016297 0.04737375 0.00484083
v -0.02116570 0.04695213 0.00484083
v -0.02118758 0.04694176 0.00484083
v -0.02503443 0.04496381 0.11126916
v -0.02503443 0.04497994 0.11082710
v -0.02401590 0.04558473 0.00484083
v -0.01261877 0.04372082 0.11082710
v -0.02503443 0.03805884 0.00585433
v -0.02503443 0.03806345 0.00486239
v -0.02503443 0.03806921 0.00484083
v -0.01261877 0.04372197 0.00486239
v -0.02503443 0.04497994 0.00485161
v -0.02470383 0.04517232 0.00484083
v -0.01261877 0.04372082 0.00625326
v -0.02503443 0.04406987 0.00484083
f 1 2 3
f 1 3 4
f 1 4 12
f 1 12 20
f 1 20 29
f 1 29 40
f 1 40 56
f 1 56 69
f 1 69 83
f 1 83 97
f 1 97 107
f 1 107 114
f 1 114 111
f 1 111 99
f 1 99 85
f 1 85 71
f 1 71 70
f 1 70 60
f 1 60 59
f 1 59 45
f 1 45 41
f 1 41 30
f 1 30 21
f 1 21 14
f 1 14 5
f 1 5 2
f 2 6 7
f 2 7 8
f 2 8 3
f 2 5 6
f 3 8 9
f 3 9 4
f 4 9 10
f 4 10 11
f 4 11 12
f 5 13 6
f 5 14 13
f 6 13 15
f 6 15 16
f 6 16 17
f 6 17 7
f 7 17 8
f 8 17 18
f 8 18 9
f 9 18 27
f 9 27 38
f 9 38 53
f 9 53 67
f 9 67 82
f 9 82 95
f 9 95 94
f 9 94 104
f 9 104 105
f 9 105 112
f 9 112 115
f 9 115 110
f 9 110 109
f 9 109 108
f 9 108 98
f 9 98 84
f 9 84 68
f 9 68 55
f 9 55 54
f 9 54 39
f 9 39 28
f 9 28 19
f 9 19 11
f 9 11 10
f 11 19 12
f 12 19 20
f 13 14 21
f 13 21 22
f 13 22 23
f 13 23 15
f 15 23 24
f 15 24 25
f 15 25 26
f 15 26 16
f 16 26 17
f 17 26 27
f 17 27 18
f 19 28 20
f 20 28 29
f 21 30 22
f 22 30 31
f 22 31 23
f 23 31 24
f 24 32 25
f 24 31 33
f 24 33 34
f 24 34 32
f 25 32 26
f 26 32 35
f 26 35 36
f 26 36 37
f 26 37 27
f 27 37 38
f 28 39 29
f 29 39 40
f 30 41 31
f 31 41 33
f 32 34 42
f 32 42 35
f 33 43 34
f 33 41 44
f 33 44 45
f 33 45 46
f 33 46 47
f 33 47 48
f 33 48 49
f 33 49 50
f 33 50 43
f 34 43 42
f 35 42 36
f 36 42 51
f 36 51 52
f 36 52 53
f 36 53 38
f 36 38 37
f 39 54 40
f 40 54 55
f 40 55 56
f 41 45 44
f 42 43 51
f 43 57 51
f 43 50 49
f 43 49 58
f 43 58 57
f 45 59 46
f 46 49 48
f 46 48 47
f 46 59 60
f 46 60 61
f 46 61 62
f 46 62 49
f 49 62 63
f 49 63 64
f 49 64 65
f 49 65 58
f 51 57 66
f 51 66 52
f 52 67 53
f 52 66 67
f 55 68 69
f 55 69 56
f 57 58 65
f 57 65 66
f 60 70 61
f 61 70 71
f 61 71 72
f 61 72 62
f 62 72 73
f 62 73 74
f 62 74 75
f 62 75 63
f 63 75 76
f 63 76 64
f 64 76 77
f 64 77 65
f 65 78 66
f 65 77 79
f 65 79 80
f 65 80 78
f 66 78 81
f 66 81 67
f 67 81 82
f 68 83 69
f 68 84 83
f 71 85 86
f 71 86 72
f 72 86 87
f 72 87 73
f 73 87 88
f 73 88 90
f 73 90 74
f 74 89 75
f 74 90 100
f 74 100 89
f 75 89 91
f 75 91 77
f 75 77 76
f 77 91 92
f 77 92 79
f 78 80 93
f 78 93 94
f 78 94 95
f 78 95 82
f 78 82 81
f 79 92 80
f 80 92 96
f 80 96 93
f 83 84 97
f 84 98 97
f 85 99 110
f 85 110 115
f 85 115 113
f 85 113 106
f 85 106 103
f 85 103 102
f 85 102 101
f 85 101 100
f 85 100 90
f 85 90 88
f 85 88 87
f 85 87 86
f 89 100 101
f 89 101 91
f 91 101 102
f 91 102 92
f 92 102 103
f 92 103 106
f 92 106 96
f 93 96 94
f 94 96 104
f 96 105 104
f 96 106 105
f 97 98 107
f 98 108 114
f 98 114 107
f 99 109 110
f 99 111 109
f 105 106 112
f 106 113 112
f 108 109 111
f 108 111 114
f 112 113 115

