# https://github.com/mikedh/trimesh
v 0.04529002 0.00565320 0.00484084
v 0.04968006 0.00565320 0.00484084
v 0.04528386 0.00565320 0.00486241
v 0.04072241 0.02057821 0.00486241
v 0.04073370 0.02056652 0.00484084
v 0.05106163 0.00565466 0.00484084
v 0.05106163 0.00565320 0.00486241
v 0.04072036 0.02057821 0.00625323
v 0.04528386 0.00565320 0.11083448
v 0.04073165 0.02057821 0.00484084
v 0.05106163 0.00566197 0.00484084
v 0.05118583 0.00565320 0.01322891
v 0.04072036 0.02057821 0.11083448
v 0.04531363 0.00565320 0.11221451
v 0.04713862 0.02057821 0.00484084
v 0.05106060 0.00567950 0.00484084
v 0.05111705 0.00705571 0.01322891
v 0.05113861 0.00705571 0.01461973
v 0.05120533 0.00565320 0.01461973
v 0.04076450 0.02057821 0.11222530
v 0.04531465 0.00565320 0.11222530
v 0.04769700 0.01947958 0.00484084
v 0.04739523 0.02057821 0.01322891
v 0.05097644 0.00705571 0.00484084
v 0.05098978 0.00845091 0.01461973
v 0.05113861 0.00705571 0.09828473
v 0.05120533 0.00565320 0.09967555
v 0.04577449 0.00565320 0.11369159
v 0.04120381 0.02057821 0.11358378
v 0.04889279 0.01620998 0.00484084
v 0.04749171 0.02036053 0.01322891
v 0.04780067 0.01960522 0.01322891
v 0.04782632 0.01960522 0.01461973
v 0.04898927 0.01649633 0.01461973
v 0.04897695 0.01646127 0.01322891
v 0.04740241 0.02057821 0.01364939
v 0.05097438 0.00707324 0.00484084
v 0.05080605 0.00846844 0.00484084
v 0.05057613 0.00984465 0.00484084
v 0.05074036 0.00984465 0.01461973
v 0.05098978 0.00845091 0.09828473
v 0.05113348 0.00705571 0.09967555
v 0.05105958 0.00566197 0.11222530
v 0.05105958 0.00565320 0.11222530
v 0.04586893 0.00565320 0.11384253
v 0.04178169 0.02057821 0.11439239
v 0.04915966 0.01543130 0.00484084
v 0.04741883 0.02057821 0.01461973
v 0.04750300 0.02038682 0.01461973
v 0.04782632 0.01960522 0.09967555
v 0.04933517 0.01542108 0.01461973
v 0.04898927 0.01649633 0.09967555
v 0.05035134 0.01092721 0.00484084
v 0.05044988 0.01123985 0.01461973
v 0.05074036 0.00984465 0.09967555
v 0.05098465 0.00845091 0.09967555
v 0.05097644 0.00705571 0.11083448
v 0.05093332 0.00705571 0.11222530
v 0.05105752 0.00565320 0.11223608
v 0.04654432 0.00565320 0.11450021
v 0.04606087 0.00628141 0.11432770
v 0.04669212 0.00565320 0.11458646
v 0.04258025 0.02057821 0.11472662
v 0.04916274 0.01542108 0.00484084
v 0.04741883 0.02057821 0.09967555
v 0.04750300 0.02038682 0.09967555
v 0.04769700 0.01947958 0.11083448
v 0.05027539 0.01201708 0.01461973
v 0.05026820 0.01199078 0.01350923
v 0.04933517 0.01542108 0.09967555
v 0.04889279 0.01620998 0.11083448
v 0.04916274 0.01542108 0.11083448
v 0.04953328 0.01402733 0.00484084
v 0.05044988 0.01123985 0.09967555
v 0.05035134 0.01092721 0.11083448
v 0.05057613 0.00984465 0.11083448
v 0.05080810 0.00845091 0.11083448
v 0.05074549 0.00845091 0.11222530
v 0.05035237 0.00984465 0.11312017
v 0.05046835 0.00845091 0.11333580
v 0.05057202 0.00705571 0.11349753
v 0.05060590 0.00565320 0.11373472
v 0.04816299 0.00565320 0.11497460
v 0.04676910 0.00705571 0.11472662
v 0.04398132 0.01960522 0.11496382
v 0.04398132 0.02057821 0.11497460
v 0.04713862 0.02057821 0.11083448
v 0.04708627 0.02057821 0.11222530
v 0.04766415 0.01939777 0.11222530
v 0.04888252 0.01617931 0.11176169
v 0.05027539 0.01201708 0.09967555
v 0.04906317 0.01552188 0.11222530
v 0.04948914 0.01402733 0.11222530
v 0.04953328 0.01402733 0.11083448
v 0.05026820 0.01199078 0.10046260
v 0.05031952 0.01079865 0.11222530
v 0.05051249 0.00984465 0.11222530
v 0.05027641 0.01062772 0.11296922
v 0.04992229 0.00984465 0.11382097
v 0.05002493 0.00845091 0.11403660
v 0.05021688 0.00618060 0.11428458
v 0.05057305 0.00565320 0.11379941
v 0.04816299 0.00705571 0.11497460
v 0.04537521 0.01681628 0.11498538
v 0.04963181 0.00565320 0.11461881
v 0.04537521 0.01821002 0.11496382
v 0.04537521 0.01960522 0.11485600
v 0.04540909 0.02057821 0.11467271
v 0.04661206 0.02057821 0.11363768
v 0.04757588 0.01918008 0.11313095
v 0.04881477 0.01605512 0.11268891
v 0.04899748 0.01512596 0.11318486
v 0.04915350 0.01402733 0.11344362
v 0.04882607 0.01323258 0.11428458
v 0.04895232 0.01230488 0.11439239
v 0.04908473 0.01123985 0.11447864
v 0.04922535 0.00984465 0.11456490
v 0.04973138 0.00565320 0.11458646
v 0.04676910 0.01402733 0.11497460
v 0.04967390 0.00569411 0.11460803
v 0.04816299 0.00845091 0.11496382
v 0.04967082 0.00565320 0.11460803
v 0.04676910 0.01542108 0.11490991
v 0.04661308 0.01821002 0.11460803
v 0.04634006 0.01960522 0.11448943
v 0.04601468 0.02057821 0.11442474
v 0.04620970 0.02057821 0.11424145
v 0.04775550 0.01821002 0.11342205
v 0.04615735 0.02048325 0.11438161
v 0.04731003 0.01821002 0.11412285
v 0.04745168 0.01748393 0.11430614
v 0.04871008 0.01402733 0.11414442
v 0.04762206 0.01655477 0.11443552
v 0.04780785 0.01542108 0.11454334
v 0.04816299 0.01123985 0.11485600
v 0.04816299 0.00984465 0.11493147
v 0.04943884 0.00705571 0.11462959
f 1 2 7
f 1 7 12
f 1 12 19
f 1 19 27
f 1 27 44
f 1 44 59
f 1 59 82
f 1 82 102
f 1 102 118
f 1 118 122
f 1 122 105
f 1 105 83
f 1 83 62
f 1 62 60
f 1 60 45
f 1 45 28
f 1 28 21
f 1 21 14
f 1 14 9
f 1 9 3
f 1 3 4
f 1 4 5
f 1 5 10
f 1 10 15
f 1 15 22
f 1 22 30
f 1 30 47
f 1 47 64
f 1 64 73
f 1 73 53
f 1 53 39
f 1 39 38
f 1 38 37
f 1 37 24
f 1 24 16
f 1 16 11
f 1 11 6
f 1 6 2
f 2 6 7
f 3 8 4
f 3 9 13
f 3 13 8
f 4 10 5
f 4 8 13
f 4 13 20
f 4 20 29
f 4 29 46
f 4 46 63
f 4 63 86
f 4 86 108
f 4 108 126
f 4 126 127
f 4 127 109
f 4 109 88
f 4 88 87
f 4 87 65
f 4 65 48
f 4 48 36
f 4 36 23
f 4 23 15
f 4 15 10
f 6 11 12
f 6 12 7
f 9 14 13
f 11 16 17
f 11 17 18
f 11 18 12
f 12 18 19
f 13 14 20
f 14 21 20
f 15 23 22
f 16 24 17
f 17 25 18
f 17 24 25
f 18 25 41
f 18 41 26
f 18 26 27
f 18 27 19
f 20 21 28
f 20 28 29
f 22 23 31
f 22 31 32
f 22 32 33
f 22 33 34
f 22 34 35
f 22 35 30
f 23 36 31
f 24 37 25
f 25 37 38
f 25 38 39
f 25 39 40
f 25 40 55
f 25 55 41
f 26 41 56
f 26 56 42
f 26 42 27
f 27 42 43
f 27 43 44
f 28 45 29
f 29 45 46
f 30 35 47
f 31 36 48
f 31 48 49
f 31 49 33
f 31 33 32
f 33 49 66
f 33 66 50
f 33 50 52
f 33 52 34
f 34 51 35
f 34 52 70
f 34 70 51
f 35 51 47
f 39 53 40
f 40 53 54
f 40 54 74
f 40 74 55
f 41 55 56
f 42 56 57
f 42 57 43
f 43 57 58
f 43 58 59
f 43 59 44
f 45 60 61
f 45 61 46
f 46 61 60
f 46 60 62
f 46 62 63
f 47 51 64
f 48 65 66
f 48 66 49
f 50 66 67
f 50 67 52
f 51 68 69
f 51 69 64
f 51 70 91
f 51 91 68
f 52 67 71
f 52 71 72
f 52 72 70
f 53 73 69
f 53 69 54
f 54 69 68
f 54 68 91
f 54 91 74
f 55 74 75
f 55 75 76
f 55 76 56
f 56 76 77
f 56 77 57
f 57 77 58
f 58 78 79
f 58 79 80
f 58 80 81
f 58 81 59
f 58 77 78
f 59 81 82
f 62 83 84
f 62 84 63
f 63 84 83
f 63 83 85
f 63 85 86
f 64 69 73
f 65 87 67
f 65 67 66
f 67 87 88
f 67 88 89
f 67 89 90
f 67 90 71
f 70 72 91
f 71 90 72
f 72 90 92
f 72 92 93
f 72 93 94
f 72 94 95
f 72 95 91
f 74 91 75
f 75 94 93
f 75 93 96
f 75 96 76
f 75 91 95
f 75 95 94
f 76 96 97
f 76 97 78
f 76 78 77
f 78 97 98
f 78 98 79
f 79 98 99
f 79 99 80
f 80 99 100
f 80 100 101
f 80 101 81
f 81 101 102
f 81 102 82
f 83 103 104
f 83 104 86
f 83 86 85
f 83 105 103
f 86 104 106
f 86 106 107
f 86 107 108
f 88 109 110
f 88 110 89
f 89 110 111
f 89 111 90
f 90 111 92
f 92 111 112
f 92 112 93
f 93 112 98
f 93 98 96
f 96 98 97
f 98 112 113
f 98 113 114
f 98 114 99
f 99 114 115
f 99 115 100
f 100 115 116
f 100 116 101
f 101 116 117
f 101 117 118
f 101 118 102
f 103 119 104
f 103 105 120
f 103 120 121
f 103 121 119
f 104 119 106
f 105 122 120
f 106 119 123
f 106 123 107
f 107 123 124
f 107 124 125
f 107 125 108
f 108 125 126
f 109 127 110
f 110 128 112
f 110 112 111
f 110 127 129
f 110 129 130
f 110 130 128
f 112 128 131
f 112 131 132
f 112 132 113
f 113 132 114
f 114 132 133
f 114 133 115
f 115 133 134
f 115 134 116
f 116 134 135
f 116 135 117
f 117 135 136
f 117 136 137
f 117 137 120
f 117 120 118
f 118 120 122
f 119 121 136
f 119 136 123
f 120 137 136
f 120 136 121
f 123 136 135
f 123 135 134
f 123 134 124
f 124 134 133
f 124 133 125
f 125 133 129
f 125 129 126
f 126 129 127
f 128 130 131
f 129 133 131
f 129 131 130
f 131 133 132

