# https://github.com/mikedh/trimesh
v 0.04818861 -0.01350312 0.00484072
v 0.04967108 0.00565133 0.00484072
v 0.04927263 -0.01350312 0.00484072
v 0.04777909 -0.01350312 0.11259971
v 0.04777909 0.00008165 0.11272909
v 0.04777909 0.00147688 0.11279378
v 0.04777909 0.00287024 0.11293393
v 0.04777909 0.00391104 0.11306331
v 0.04777909 0.00565133 0.11330050
v 0.05106204 0.00565133 0.00484072
v 0.04977898 -0.01246607 0.00484072
v 0.04961846 -0.01350312 0.00485150
v 0.04777909 -0.01350312 0.11472363
v 0.04777909 0.00565133 0.11487456
v 0.05121036 0.00008165 0.00484072
v 0.05118596 0.00565133 0.01323934
v 0.05162064 0.00191008 0.01463013
v 0.05165762 0.00106806 0.01365982
v 0.05037609 -0.01085706 0.00484072
v 0.05028229 -0.01187910 0.01322856
v 0.04979805 -0.01350312 0.01322856
v 0.04811349 -0.01350312 0.11462659
v 0.04816382 -0.01107084 0.11486378
v 0.04777909 -0.01145528 0.11489613
v 0.04777909 -0.00866669 0.11495003
v 0.04816382 0.00565133 0.11498238
v 0.05118139 -0.00129483 0.00484072
v 0.05166182 0.00008165 0.01351966
v 0.05165800 -0.00094602 0.01364904
v 0.05120503 0.00565133 0.01463013
v 0.05166143 0.00121246 0.01463013
v 0.05162064 0.00191008 0.09967294
v 0.05167440 0.00008165 0.01463013
v 0.05037914 -0.01084205 0.00484072
v 0.05076768 -0.00967748 0.01463013
v 0.05048400 -0.01107084 0.01463013
v 0.05029373 -0.01192598 0.01463013
v 0.04981406 -0.01350312 0.01424201
v 0.04843683 -0.01350312 0.11446488
v 0.04896912 -0.01220166 0.11440019
v 0.04910790 -0.01107084 0.11449722
v 0.04816382 -0.00967748 0.11493925
v 0.04924250 -0.00967748 0.11457269
v 0.04777909 -0.01006192 0.11495003
v 0.04816382 -0.00828225 0.11497160
v 0.04955821 0.00008165 0.11482066
v 0.04955821 0.00147688 0.11480988
v 0.04955821 0.00426547 0.11474519
v 0.04967184 0.00565133 0.11461581
v 0.05118100 -0.00131171 0.00484072
v 0.05166220 -0.00111105 0.01463013
v 0.05162826 -0.00180867 0.01463013
v 0.05099417 -0.00688889 0.00484072
v 0.05106242 -0.00549366 0.00484072
v 0.05120503 0.00565133 0.09967294
v 0.05166143 0.00121246 0.09967294
v 0.05106013 0.00565133 0.11222237
v 0.05165762 0.00106806 0.10044920
v 0.05167440 0.00008165 0.09967294
v 0.05061555 -0.00967748 0.00484072
v 0.05101057 -0.00828225 0.01463013
v 0.05076768 -0.00967748 0.09967294
v 0.05048400 -0.01107084 0.09967294
v 0.04981978 -0.01350312 0.01463013
v 0.05029373 -0.01192598 0.09967294
v 0.04879334 -0.01350312 0.11423847
v 0.04884901 -0.01313181 0.11430316
v 0.04993913 -0.00967748 0.11386112
v 0.05003941 -0.00828225 0.11405519
v 0.05015418 -0.00688889 0.11421691
v 0.05023082 -0.00606938 0.11429238
v 0.04955821 -0.00409843 0.11474519
v 0.04955821 -0.00270694 0.11477753
v 0.05030059 -0.00513923 0.11435706
v 0.04968328 -0.00555930 0.11461581
v 0.04955821 -0.00131171 0.11480988
v 0.05042414 0.00008165 0.11445409
v 0.05040431 0.00147688 0.11444331
v 0.05033491 0.00426547 0.11438940
v 0.05029678 0.00525001 0.11435706
v 0.04973170 0.00565133 0.11458347
v 0.05166220 -0.00111105 0.09967294
v 0.05114669 -0.00688889 0.01463013
v 0.05112686 -0.00688889 0.01322856
v 0.05162826 -0.00180867 0.09967294
v 0.05083975 -0.00826537 0.00484072
v 0.05105823 0.00565133 0.11223315
v 0.05111809 0.00426547 0.11222237
v 0.05166182 0.00008165 0.10049232
v 0.05121151 0.00147688 0.11222237
v 0.05124849 0.00008165 0.11222237
v 0.05165800 -0.00094602 0.10045998
v 0.05083784 -0.00828225 0.00484072
v 0.05101057 -0.00828225 0.09828216
v 0.05100523 -0.00828225 0.09967294
v 0.05061555 -0.00967748 0.11083158
v 0.05037609 -0.01085706 0.11083158
v 0.04981978 -0.01350312 0.09967294
v 0.04959406 -0.01350312 0.11222237
v 0.04921124 -0.01350312 0.11355925
v 0.05029297 -0.01052513 0.11300940
v 0.05048362 -0.00828225 0.11336519
v 0.05037190 -0.00967748 0.11316034
v 0.05058695 -0.00688889 0.11351612
v 0.05061021 -0.00555930 0.11374253
v 0.05034025 -0.00409843 0.11438940
v 0.05037457 -0.00270694 0.11442175
v 0.05040926 -0.00131171 0.11444331
v 0.05078865 -0.00409843 0.11362393
v 0.05094003 0.00008165 0.11362393
v 0.05090304 0.00147688 0.11362393
v 0.05078026 0.00426547 0.11362393
v 0.05057322 0.00565133 0.11379644
v 0.05114669 -0.00688889 0.09828216
v 0.05106890 -0.00549366 0.11222237
v 0.05099417 -0.00688889 0.11083158
v 0.05114173 -0.00688889 0.09967294
v 0.05060601 0.00565133 0.11373175
v 0.05122066 -0.00131171 0.11222237
v 0.05112152 -0.00409843 0.11222237
v 0.05083784 -0.00828225 0.11083158
v 0.05077492 -0.00828225 0.11222237
v 0.05055187 -0.00967748 0.11222237
v 0.05034368 -0.01072766 0.11222237
v 0.04933287 -0.01350312 0.11316034
v 0.05095642 -0.00688889 0.11222237
v 0.05091181 -0.00131171 0.11362393
f 1 2 10
f 1 10 15
f 1 15 27
f 1 27 50
f 1 50 54
f 1 54 53
f 1 53 86
f 1 86 93
f 1 93 60
f 1 60 34
f 1 34 19
f 1 19 11
f 1 11 3
f 1 3 12
f 1 12 21
f 1 21 38
f 1 38 64
f 1 64 98
f 1 98 99
f 1 99 125
f 1 125 100
f 1 100 66
f 1 66 39
f 1 39 22
f 1 22 13
f 1 13 4
f 1 4 5
f 1 5 6
f 1 6 7
f 1 7 8
f 1 8 9
f 1 9 2
f 2 9 14
f 2 14 26
f 2 26 49
f 2 49 81
f 2 81 113
f 2 113 118
f 2 118 87
f 2 87 57
f 2 57 55
f 2 55 30
f 2 30 16
f 2 16 10
f 3 11 12
f 4 13 24
f 4 24 44
f 4 44 25
f 4 25 14
f 4 14 9
f 4 9 8
f 4 8 7
f 4 7 6
f 4 6 5
f 10 16 17
f 10 17 18
f 10 18 15
f 11 19 12
f 12 19 20
f 12 20 21
f 13 22 23
f 13 23 24
f 14 25 26
f 15 18 28
f 15 28 29
f 15 29 27
f 16 30 17
f 17 31 18
f 17 30 55
f 17 55 32
f 17 32 56
f 17 56 31
f 18 31 33
f 18 33 28
f 19 34 35
f 19 35 36
f 19 36 20
f 20 36 37
f 20 37 21
f 21 37 38
f 22 39 40
f 22 40 41
f 22 41 23
f 23 42 24
f 23 41 43
f 23 43 42
f 24 42 44
f 25 44 26
f 26 44 45
f 26 45 46
f 26 46 47
f 26 47 48
f 26 48 49
f 27 29 50
f 28 33 29
f 29 33 51
f 29 51 52
f 29 52 53
f 29 53 54
f 29 54 50
f 31 56 59
f 31 59 33
f 32 55 57
f 32 57 58
f 32 58 56
f 33 59 82
f 33 82 51
f 34 60 35
f 35 60 61
f 35 61 94
f 35 94 62
f 35 62 63
f 35 63 36
f 36 63 65
f 36 65 37
f 37 64 38
f 37 65 98
f 37 98 64
f 39 66 67
f 39 67 40
f 40 67 68
f 40 68 41
f 41 68 69
f 41 69 70
f 41 70 71
f 41 71 43
f 42 45 44
f 42 43 72
f 42 72 73
f 42 73 76
f 42 76 45
f 43 71 74
f 43 74 75
f 43 75 72
f 45 76 46
f 46 76 77
f 46 77 47
f 47 77 78
f 47 78 48
f 48 78 79
f 48 79 80
f 48 80 49
f 49 80 81
f 51 82 85
f 51 85 52
f 52 83 84
f 52 84 53
f 52 85 114
f 52 114 83
f 53 84 61
f 53 61 86
f 56 58 59
f 57 87 88
f 57 88 58
f 58 89 59
f 58 88 90
f 58 90 91
f 58 91 89
f 59 89 92
f 59 92 82
f 60 93 61
f 61 93 86
f 61 84 83
f 61 83 114
f 61 114 94
f 62 94 95
f 62 95 96
f 62 96 97
f 62 97 63
f 63 97 65
f 65 97 99
f 65 99 98
f 66 100 67
f 67 100 101
f 67 101 68
f 68 102 69
f 68 101 103
f 68 103 102
f 69 102 70
f 70 102 71
f 71 102 104
f 71 104 105
f 71 105 74
f 72 75 74
f 72 74 106
f 72 106 107
f 72 107 108
f 72 108 73
f 73 108 76
f 74 105 109
f 74 109 106
f 76 108 77
f 77 108 110
f 77 110 78
f 78 110 111
f 78 111 79
f 79 111 112
f 79 112 80
f 80 112 113
f 80 113 81
f 82 92 85
f 85 92 115
f 85 115 116
f 85 116 117
f 85 117 114
f 87 118 112
f 87 112 111
f 87 111 88
f 88 111 90
f 89 91 92
f 90 111 110
f 90 110 91
f 91 110 119
f 91 119 92
f 92 119 120
f 92 120 115
f 94 114 117
f 94 117 95
f 95 117 116
f 95 116 121
f 95 121 96
f 96 121 122
f 96 122 123
f 96 123 124
f 96 124 97
f 97 124 99
f 99 124 101
f 99 101 125
f 100 125 101
f 101 124 123
f 101 123 122
f 101 122 103
f 102 103 126
f 102 126 104
f 103 122 126
f 104 126 109
f 104 109 105
f 106 109 127
f 106 127 107
f 107 127 108
f 108 127 110
f 109 126 115
f 109 115 127
f 110 127 119
f 112 118 113
f 115 120 127
f 115 126 116
f 116 126 121
f 119 127 120
f 121 126 122

