# https://github.com/mikedh/trimesh
v 0.05080257 0.00565320 0.00075552
v 0.04676027 -0.01107828 0.00075582
v 0.05091264 0.00418524 0.00075552
v 0.05089263 0.00426308 0.00067518
v 0.05078257 0.00565320 0.00067518
v -0.04721342 0.00565320 0.00075567
v 0.02713906 -0.04338467 0.00075552
v 0.02825970 -0.04265624 0.00075552
v 0.03064106 -0.04098254 0.00075552
v 0.03167164 -0.04020964 0.00075552
v 0.03226198 -0.03975924 0.00075552
v 0.03266221 -0.03941449 0.00075552
v 0.03340264 -0.03876391 0.00075552
v 0.03404300 -0.03819118 0.00075552
v 0.03519366 -0.03711801 0.00075552
v 0.03588405 -0.03646187 0.00075552
v 0.03658445 -0.03576125 0.00075552
v 0.03768508 -0.03459355 0.00075552
v 0.03925598 -0.03286424 0.00075552
v 0.04049669 -0.03129619 0.00075552
v 0.04169737 -0.02964473 0.00075552
v 0.04210761 -0.02907200 0.00075552
v 0.04302813 -0.02768744 0.00075552
v 0.04333831 -0.02720923 0.00075552
v 0.04485918 -0.02464029 0.00075552
v 0.04543951 -0.02352820 0.00075552
v 0.04617993 -0.02201574 0.00075552
v 0.04734060 -0.01941900 0.00075552
v 0.04754071 -0.01896304 0.00075552
v 0.04874140 -0.01559895 0.00075552
v 0.04886147 -0.01525976 0.00075552
v 0.04894151 -0.01499286 0.00075552
v 0.04910160 -0.01438677 0.00075552
v 0.05017222 -0.01014968 0.00075552
v 0.05026227 -0.00968260 0.00075552
v 0.05033231 -0.00928225 0.00075552
v 0.05050240 -0.00823132 0.00075552
v 0.05053242 -0.00801446 0.00075552
v 0.05081258 -0.00549556 0.00075552
v 0.05091264 -0.00418329 0.00075552
v 0.05104271 -0.00139749 0.00075552
v 0.05108274 0.00008160 0.00075552
v 0.05104271 0.00139387 0.00075552
v -0.05078546 0.00565320 0.00075567
v -0.05090553 0.00426308 0.00075567
v -0.05106561 0.00147728 0.00075567
v -0.05113566 0.00008160 0.00075567
v -0.05108563 -0.00124735 0.00075567
v -0.05091553 -0.00410544 0.00075567
v -0.05079547 -0.00549556 0.00075567
v -0.05063537 -0.00689124 0.00075567
v -0.05037523 -0.00902647 0.00075567
v -0.05027517 -0.00968260 0.00075567
v -0.04994498 -0.01111721 0.00075567
v -0.04902445 -0.01467591 0.00075567
v -0.04886436 -0.01525976 0.00075567
v -0.04765367 -0.01864054 0.00075567
v -0.04735349 -0.01944681 0.00075567
v -0.04678318 -0.02075352 0.00075567
v -0.04614281 -0.02211584 0.00075567
v -0.04545241 -0.02353376 0.00075567
v -0.04539238 -0.02365053 0.00075567
v -0.04474201 -0.02485715 0.00075567
v -0.04376144 -0.02651417 0.00075567
v -0.04303103 -0.02768744 0.00075567
v -0.04208048 -0.02911648 0.00075567
v -0.04108992 -0.03048992 0.00075567
v -0.04096985 -0.03065117 0.00075567
v -0.04006934 -0.03184667 0.00075567
v -0.03947900 -0.03257510 0.00075567
v -0.03894870 -0.03320343 0.00075567
v -0.03722772 -0.03507175 0.00075567
v -0.03656733 -0.03578349 0.00075567
v -0.03583692 -0.03652304 0.00075567
v -0.03513652 -0.03717362 0.00075567
v -0.03391582 -0.03830239 0.00075567
v -0.03341554 -0.03874723 0.00075567
v -0.03254504 -0.03951458 0.00075567
v -0.03171456 -0.04018183 0.00075567
v -0.03118426 -0.04058219 0.00075567
v -0.03003360 -0.04142738 0.00075567
v -0.02891296 -0.04221697 0.00075567
v -0.02827260 -0.04265624 0.00075567
v -0.02702188 -0.04346252 0.00075567
v -0.02585122 -0.04414646 0.00075567
v -0.02425030 -0.04507506 0.00075567
v -0.02332977 -0.04554769 0.00075567
v -0.02148872 -0.04642625 0.00075567
v -0.02044813 -0.04691558 0.00075567
v -0.01869713 -0.04763288 0.00075567
v -0.01737637 -0.04813888 0.00075567
v -0.01676602 -0.04833906 0.00075567
v -0.01454476 -0.04905636 0.00075567
v -0.01319398 -0.04945671 0.00075567
v -0.01233349 -0.04966245 0.00075567
v -0.00893155 -0.05036307 0.00075567
v -0.00771085 -0.05057993 0.00075567
v -0.00755076 -0.05060773 0.00075567
v -0.00622000 -0.05081347 0.00075567
v -0.00481920 -0.05098029 0.00075567
v -0.00342841 -0.05107482 0.00075567
v -0.00267798 -0.05110818 0.00075567
v -0.00203761 -0.05113042 0.00075567
v -0.00060679 -0.05115266 0.00075567
v 0.00000356 -0.05114710 0.00075567
v 0.05102270 0.00147728 0.00067518
v 0.05042235 0.00426308 -0.00016818
v 0.05035232 0.00565320 -0.00011437
v 0.02646867 -0.04379058 0.00075552
v 0.02623854 -0.04364601 0.00026379
v 0.02793951 -0.04243939 -0.00002211
v 0.02823969 -0.04264512 0.00067518
v 0.03044094 -0.04083241 0.00028539
v 0.03200183 -0.03954794 0.00009386
v 0.03141150 -0.04034308 0.00065461
v 0.03346267 -0.03820786 0.00002395
v 0.03491350 -0.03686223 -0.00002360
v 0.03517365 -0.03710133 0.00067518
v 0.03586404 -0.03644519 0.00067518
v 0.03656444 -0.03575013 0.00067518
v 0.03850555 -0.03349814 0.00049467
v 0.03632430 -0.03548879 -0.00003508
v 0.03901584 -0.03259734 0.00005555
v 0.03982630 -0.03202461 0.00059544
v 0.04031659 -0.03106265 0.00020535
v 0.04159732 -0.02950571 0.00043192
v 0.04193751 -0.02857711 -0.00006489
v 0.04287805 -0.02781533 0.00063225
v 0.04314820 -0.02690897 0.00013888
v 0.04463906 -0.02427330 0.00000517
v 0.04583974 -0.02223260 0.00034964
v 0.04601985 -0.02146526 0.00002172
v 0.04656015 -0.02093701 0.00056189
v 0.04720051 -0.01955245 0.00061302
v 0.04736061 -0.01850708 0.00010668
v 0.04863133 -0.01525976 0.00033787
v 0.04878142 -0.01433116 0.00006658
v 0.04916164 -0.01386408 0.00058873
v 0.05002213 -0.00968260 0.00031655
v 0.05014220 -0.00828692 0.00010951
v 0.05022225 -0.00744729 0.00000845
v 0.05056244 -0.00694685 0.00055399
v 0.05079256 -0.00549556 0.00067518
v 0.05090263 -0.00410544 0.00067518
v 0.05103271 -0.00131408 0.00067518
v 0.05106272 0.00008160 0.00067518
v -0.05076544 0.00565320 0.00067503
v -0.05105562 0.00147728 0.00067503
v -0.05088551 0.00426308 0.00067503
v -0.05110564 0.00008160 0.00067503
v -0.05106561 -0.00131408 0.00067503
v -0.05089552 -0.00410544 0.00067503
v -0.05078546 -0.00549556 0.00067503
v -0.05062537 -0.00689124 0.00067503
v -0.05040524 -0.00822576 0.00058142
v -0.05006505 -0.00864835 0.00005421
v -0.04997499 -0.00968260 0.00020297
v -0.04871427 -0.01448686 0.00000442
v -0.04858420 -0.01525976 0.00022443
v -0.04729346 -0.01862385 0.00004288
v -0.04712337 -0.01944681 0.00033876
v -0.04596270 -0.02155423 -0.00002852
v -0.04574257 -0.02247727 0.00033772
v -0.04545241 -0.02353932 0.00075150
v -0.04458191 -0.02434559 -0.00003642
v -0.04430176 -0.02527975 0.00041761
v -0.04307105 -0.02698126 0.00007776
v -0.04282091 -0.02785981 0.00059558
v -0.04152017 -0.02956688 0.00034904
v -0.04102988 -0.03053996 0.00071065
v -0.04023943 -0.03112381 0.00014260
v -0.03974915 -0.03207465 0.00054028
v -0.03894870 -0.03264182 0.00000845
v -0.03860851 -0.03343141 0.00055385
v -0.03784807 -0.03436557 0.00067503
v -0.03651731 -0.03581130 0.00067503
v -0.03581691 -0.03650636 0.00067503
v -0.03511651 -0.03715693 0.00067503
v -0.03416596 -0.03792984 0.00053849
v -0.03339553 -0.03825791 -0.00001704
v -0.03192468 -0.03958130 0.00005361
v -0.03134435 -0.04037645 0.00060825
v -0.03037380 -0.04086021 0.00023323
v -0.02889295 -0.04220029 0.00067503
v -0.02819255 -0.04267849 0.00067503
v -0.02616139 -0.04366825 0.00021981
v -0.02786236 -0.04246719 -0.00004089
v -0.02346985 -0.04513066 0.00009758
v -0.02062823 -0.04650410 0.00013858
v -0.02015796 -0.04697118 0.00063195
v -0.01872715 -0.04760508 0.00072839
v -0.01737637 -0.04784973 0.00023979
v -0.01661594 -0.04799431 0.00000577
v -0.01319398 -0.04920649 0.00030000
v -0.01222343 -0.04933438 0.00008015
v -0.01177317 -0.04971250 0.00059707
v -0.01040239 -0.05004056 0.00067503
v -0.00774087 -0.05055769 0.00071617
v -0.00900159 -0.05030747 0.00067503
v -0.00622000 -0.05058549 0.00032475
v -0.00481920 -0.05066334 0.00016779
v -0.00342841 -0.05071338 0.00008745
v -0.00203761 -0.05075786 0.00003305
v -0.00104704 -0.05078567 -0.00000303
v -0.00203761 -0.05112486 0.00073033
v 0.00071396 -0.05114154 0.00075552
v -0.00060679 -0.05109150 0.00054714
v 0.00000356 -0.05109150 0.00054788
v 0.00070396 -0.05108594 0.00054893
v 0.00216479 -0.05111930 0.00075552
v 0.00267508 -0.05110262 0.00075552
v 0.00354558 -0.05106369 0.00075552
v 0.00492637 -0.05096917 0.00075552
v 0.00632717 -0.05079679 0.00075552
v 0.00780801 -0.05055769 0.00075552
v 0.01050956 -0.05003500 0.00075552
v 0.01237062 -0.04965133 0.00075552
v 0.01330115 -0.04942335 0.00075552
v 0.01369137 -0.04931214 0.00075552
v 0.01464192 -0.04902299 0.00075552
v 0.01678314 -0.04832794 0.00075552
v 0.01730344 -0.04815556 0.00075552
v 0.01788377 -0.04794426 0.00075552
v 0.01882431 -0.04757727 0.00075552
v 0.02047525 -0.04689889 0.00075552
v 0.02104558 -0.04665423 0.00075552
v 0.02387719 -0.04529192 0.00075552
v 0.05049239 0.00147728 -0.00021558
v 0.04955186 0.00426308 -0.00054067
v 0.04955186 0.00565320 -0.00048046
v 0.02354700 -0.04510842 0.00012844
v 0.02530801 -0.04392404 -0.00009038
v 0.02848983 -0.04168317 -0.00020351
v 0.02951041 -0.04117716 -0.00011199
v 0.02723911 -0.04264512 -0.00015089
v 0.03107130 -0.03990381 -0.00017594
v 0.03253214 -0.03861934 -0.00020634
v 0.03547382 -0.03603928 -0.00015194
v 0.03421310 -0.03717362 -0.00016804
v 0.03664449 -0.03477149 -0.00017906
v 0.03808531 -0.03311446 -0.00020962
v 0.03938606 -0.03166874 -0.00019427
v 0.03766507 -0.03404306 0.00000427
v 0.04066679 -0.03013405 -0.00013852
v 0.04217765 -0.02779864 -0.00019635
v 0.04343837 -0.02598037 -0.00013584
v 0.04115706 -0.02909980 -0.00025091
v 0.04487919 -0.02333914 -0.00016908
v 0.04624998 -0.02053666 -0.00015462
v 0.04754071 -0.01757848 -0.00008799
v 0.04891150 -0.01339700 -0.00007130
v 0.05029229 -0.00651869 -0.00006414
v 0.04902156 -0.01246840 -0.00015834
v 0.04919165 -0.01107828 -0.00025985
v 0.05036232 -0.00549556 -0.00012272
v 0.05042235 -0.00410544 -0.00017236
v 0.05046238 -0.00270976 -0.00019606
v 0.05049239 -0.00131408 -0.00021871
v 0.05051241 0.00008160 -0.00022840
v -0.05029518 0.00565320 -0.00016028
v -0.05036522 0.00426308 -0.00020947
v -0.05040524 0.00286740 -0.00023213
v -0.05043526 0.00147728 -0.00025270
v -0.05045527 0.00008160 -0.00026388
v -0.05044526 -0.00131408 -0.00025538
v -0.05037523 -0.00410544 -0.00021320
v -0.05030519 -0.00549556 -0.00016789
v -0.05021513 -0.00689124 -0.00009052
v -0.05015510 -0.00771975 -0.00003910
v -0.04897442 -0.01246840 -0.00019978
v -0.04883434 -0.01355825 -0.00010260
v -0.04764367 -0.01665544 -0.00022930
v -0.04746356 -0.01768969 -0.00011691
v -0.04613280 -0.02083692 -0.00014314
v -0.04476202 -0.02361716 -0.00015804
v -0.04337123 -0.02604709 -0.00015864
v -0.04186036 -0.02863272 -0.00009142
v -0.04059964 -0.03018965 -0.00015954
v -0.03930890 -0.03171878 -0.00020425
v -0.03792811 -0.03338137 -0.00017668
v -0.03760793 -0.03408755 -0.00003254
v -0.03625716 -0.03553327 -0.00006101
v -0.03483635 -0.03690671 -0.00004789
v -0.03246499 -0.03865270 -0.00021364
v -0.03099415 -0.03993161 -0.00018860
v -0.02944327 -0.04121052 -0.00012928
v -0.02524087 -0.04395184 -0.00010632
v -0.02841268 -0.04170541 -0.00022870
v -0.02712194 -0.04267849 -0.00017012
v -0.02253932 -0.04536976 -0.00012391
v -0.01969770 -0.04672652 -0.00010707
v -0.01569541 -0.04816668 -0.00013360
v -0.01129290 -0.04946227 -0.00006459
v -0.01040239 -0.04956236 -0.00014746
v -0.00900159 -0.04970138 -0.00023958
v -0.00761079 -0.04979590 -0.00028668
v -0.00622000 -0.04988487 -0.00031709
v -0.00481920 -0.04996828 -0.00033960
v -0.00011651 -0.05081347 -0.00002911
v 0.00000356 -0.05085795 0.00005928
v 0.00021368 -0.05081347 -0.00002926
v 0.00214478 -0.05111374 0.00073480
v 0.00114421 -0.05078567 -0.00000020
v 0.00354558 -0.05070782 0.00009237
v 0.00492637 -0.05065222 0.00017852
v 0.00632717 -0.05056881 0.00034323
v 0.00782803 -0.05053545 0.00072407
v 0.01137005 -0.04945115 -0.00005639
v 0.00911876 -0.05027967 0.00067518
v 0.01050956 -0.05001832 0.00067518
v 0.01186033 -0.04969582 0.00060706
v 0.01230058 -0.04931770 0.00009714
v 0.01330115 -0.04918981 0.00032982
v 0.01465192 -0.04901743 0.00074568
v 0.01617279 -0.04842802 0.00056503
v 0.01669309 -0.04797207 0.00002663
v 0.01748354 -0.04782749 0.00027929
v 0.01881430 -0.04757727 0.00074732
v 0.02025513 -0.04694338 0.00065163
v 0.02069538 -0.04648186 0.00017122
v 0.04955186 0.00147728 -0.00058822
v 0.04955186 0.00286740 -0.00056527
v 0.04816107 0.00565320 -0.00076053
v 0.01977485 -0.04670983 -0.00009381
v 0.02261647 -0.04534196 -0.00011139
v 0.02445752 -0.04416314 -0.00021886
v 0.03000069 -0.04035977 -0.00031038
v 0.02723911 -0.04174433 -0.00049611
v 0.02579829 -0.04316225 -0.00030740
v 0.03149154 -0.03903081 -0.00037388
v 0.03293237 -0.03766850 -0.00039743
v 0.03421310 -0.03616717 -0.00050550
v 0.03560390 -0.03477149 -0.00051668
v 0.03848554 -0.03206909 -0.00038715
v 0.03982630 -0.03059557 -0.00034124
v 0.04118709 -0.02779864 -0.00054917
v 0.04264792 -0.02643077 -0.00035212
v 0.04372854 -0.02500728 -0.00026567
v 0.04514935 -0.02223260 -0.00029250
v 0.04648010 -0.01944125 -0.00027505
v 0.04770080 -0.01665544 -0.00019829
v 0.04793094 -0.01525976 -0.00030874
v 0.04933173 -0.00968260 -0.00031650
v 0.04816107 -0.01246840 -0.00052577
v 0.04955186 -0.00549556 -0.00048984
v 0.04955186 -0.00410544 -0.00054470
v 0.04955186 -0.00270976 -0.00056855
v 0.04955186 -0.00131408 -0.00059105
v 0.04955186 0.00008160 -0.00060075
v -0.04943469 0.00565320 -0.00053218
v -0.04943469 0.00426308 -0.00058196
v -0.04943469 0.00286740 -0.00060447
v -0.04943469 0.00147728 -0.00062519
v -0.04943469 0.00008160 -0.00063637
v -0.04943469 -0.00131408 -0.00062787
v -0.04943469 -0.00270976 -0.00060745
v -0.04943469 -0.00410544 -0.00058569
v -0.04943469 -0.00549556 -0.00053978
v -0.04943469 -0.00689124 -0.00045318
v -0.04927459 -0.00968260 -0.00033244
v -0.04913452 -0.01107828 -0.00028549
v -0.04804389 -0.01246840 -0.00057153
v -0.04788380 -0.01525976 -0.00032573
v -0.04665310 -0.01665544 -0.00060164
v -0.04643297 -0.01944681 -0.00029935
v -0.04527231 -0.02210471 -0.00026015
v -0.04386151 -0.02361716 -0.00050922
v -0.04385150 -0.02488495 -0.00024465
v -0.04255076 -0.02647525 -0.00037224
v -0.04212051 -0.02779864 -0.00022318
v -0.04106991 -0.02913872 -0.00028430
v -0.03973915 -0.03062337 -0.00036270
v -0.03840839 -0.03209689 -0.00039773
v -0.03688752 -0.03338137 -0.00051623
v -0.03678746 -0.03464360 -0.00017444
v -0.03537666 -0.03606708 -0.00018637
v -0.03409592 -0.03724034 -0.00019159
v -0.03409592 -0.03616161 -0.00053456
v -0.03284521 -0.03770186 -0.00040608
v -0.03140439 -0.03904749 -0.00038595
v -0.02991353 -0.04038201 -0.00033095
v -0.02434035 -0.04419650 -0.00023511
v -0.02571114 -0.04317337 -0.00032365
v -0.02712194 -0.04174989 -0.00052010
v -0.02298958 -0.04461354 -0.00035123
v -0.02155876 -0.04558662 -0.00024495
v -0.01876717 -0.04691002 -0.00022020
v -0.01458478 -0.04833350 -0.00024241
v -0.01319398 -0.04851143 -0.00031798
v -0.01040239 -0.04871717 -0.00051369
v -0.00900159 -0.04871717 -0.00061207
v -0.00761079 -0.04871717 -0.00065917
v -0.00622000 -0.04871717 -0.00068943
v -0.00342841 -0.05001832 -0.00035301
v -0.00203761 -0.05006281 -0.00036196
v -0.00060679 -0.05024074 -0.00030472
v 0.00000356 -0.05066890 -0.00009947
v 0.00000356 -0.05081347 -0.00002926
v 0.00070396 -0.05023518 -0.00030427
v 0.00214478 -0.05005725 -0.00036121
v 0.00354558 -0.05001276 -0.00035227
v 0.00492637 -0.04995716 -0.00033796
v 0.00632717 -0.04987375 -0.00031455
v 0.00214478 -0.05075230 0.00003767
v 0.00771796 -0.04978478 -0.00028340
v 0.00911876 -0.04969025 -0.00023437
v 0.01050956 -0.04955124 -0.00013837
v 0.01469195 -0.04831125 -0.00023317
v 0.01576256 -0.04814444 -0.00012406
v 0.04816107 0.00426308 -0.00076694
v 0.04677027 0.00565320 -0.00076694
v 0.01888434 -0.04688221 -0.00020739
v 0.02166593 -0.04555882 -0.00023213
v 0.02306673 -0.04459686 -0.00033900
v 0.02445752 -0.04313445 -0.00058182
v 0.02862991 -0.04034865 -0.00061207
v 0.02584832 -0.04174433 -0.00069987
v 0.03003071 -0.03895297 -0.00068720
v 0.03142150 -0.03755729 -0.00071895
v 0.03560390 -0.03337580 -0.00072804
v 0.03699469 -0.03198013 -0.00072133
v 0.03839549 -0.03058445 -0.00070628
v 0.03282230 -0.03616717 -0.00072550
v 0.03421310 -0.03477149 -0.00073176
v 0.03978628 -0.02919432 -0.00064472
v 0.04257788 -0.02500728 -0.00063682
v 0.04408874 -0.02372837 -0.00038551
v 0.04396867 -0.02223260 -0.00066499
v 0.04536947 -0.01944125 -0.00064740
v 0.04676027 -0.01665544 -0.00056631
v 0.04816107 -0.01107828 -0.00063235
v 0.04676027 -0.01525976 -0.00068108
v 0.04816107 -0.00968260 -0.00068898
v 0.04816107 -0.00828692 -0.00072043
v 0.04816107 -0.00689124 -0.00074533
v 0.04816107 -0.00549556 -0.00076173
v 0.04816107 -0.00410544 -0.00076694
v -0.04804389 0.00565320 -0.00076515
v -0.04804389 0.00426308 -0.00076694
v -0.04804389 -0.00410544 -0.00076694
v -0.04804389 -0.00549556 -0.00076635
v -0.04804389 -0.00689124 -0.00075696
v -0.04804389 -0.00828692 -0.00073549
v -0.04804389 -0.00968260 -0.00070478
v -0.04804389 -0.01107828 -0.00065798
v -0.04665310 -0.01525976 -0.00069808
v -0.04526230 -0.01944681 -0.00067185
v -0.04526230 -0.02083692 -0.00049700
v -0.04386151 -0.02223260 -0.00068720
v -0.04246070 -0.02501285 -0.00066186
v -0.04106991 -0.02779864 -0.00058211
v -0.03967911 -0.02919432 -0.00067005
v -0.03828832 -0.03059001 -0.00071701
v -0.03549673 -0.03477705 -0.00054753
v -0.03131434 -0.03756285 -0.00072431
v -0.02992354 -0.03895853 -0.00070016
v -0.02852274 -0.04034865 -0.00063324
v -0.02434035 -0.04313445 -0.00060119
v -0.02155876 -0.04453569 -0.00061655
v -0.02015796 -0.04599809 -0.00033662
v -0.01876717 -0.04593137 -0.00058942
v -0.01737637 -0.04716024 -0.00032231
v -0.01458478 -0.04732149 -0.00061490
v -0.01319398 -0.04732149 -0.00069018
v -0.01179318 -0.04732149 -0.00073370
v -0.00481920 -0.04871717 -0.00071209
v -0.01040239 -0.04732149 -0.00076068
v -0.00203761 -0.04871717 -0.00073445
v -0.00063681 -0.04871717 -0.00074250
v 0.00000356 -0.04871717 -0.00074235
v 0.00000356 -0.05024074 -0.00030457
v -0.00342841 -0.04871717 -0.00072550
v 0.00075398 -0.04871717 -0.00074190
v 0.00214478 -0.04871717 -0.00073370
v 0.00354558 -0.04871717 -0.00072461
v 0.00492637 -0.04871717 -0.00071030
v 0.00632717 -0.04871717 -0.00068720
v 0.00771796 -0.04871717 -0.00065590
v 0.00911876 -0.04871717 -0.00060670
v 0.01050956 -0.04871717 -0.00050311
v 0.01330115 -0.04849475 -0.00031396
v 0.01469195 -0.04732149 -0.00060566
v 0.01748354 -0.04713243 -0.00031650
v -0.04665310 0.00565320 -0.00076694
v 0.01888434 -0.04592581 -0.00057406
v 0.02025513 -0.04598141 -0.00032410
v 0.02166593 -0.04453013 -0.00060194
v 0.02305673 -0.04313445 -0.00072357
v 0.02723911 -0.04034865 -0.00073951
v 0.02862991 -0.03895297 -0.00075770
v 0.03003071 -0.03755729 -0.00076694
v 0.03839549 -0.02919432 -0.00076306
v 0.03978628 -0.02779864 -0.00074712
v 0.04118709 -0.02640297 -0.00072148
v 0.03142150 -0.03616717 -0.00076694
v 0.03421310 -0.03337580 -0.00076694
v 0.03699469 -0.03058445 -0.00076694
v 0.04396867 -0.02083692 -0.00074086
v 0.04536947 -0.01804556 -0.00072998
v 0.04257788 -0.02361716 -0.00073862
v 0.04676027 -0.01386408 -0.00073564
v 0.04676027 -0.01246840 -0.00076173
v 0.04676027 -0.01107828 -0.00076694
v -0.04665310 -0.01107828 -0.00076694
v -0.04665310 -0.01246840 -0.00076620
v -0.04665310 -0.01386408 -0.00074756
v -0.04526230 -0.01805112 -0.00074175
v -0.04386151 -0.02083692 -0.00074816
v -0.04246070 -0.02361716 -0.00074563
v -0.04106991 -0.02640853 -0.00072953
v -0.03967911 -0.02779864 -0.00075323
v -0.03828832 -0.02919432 -0.00076649
v -0.03688752 -0.03198569 -0.00072729
v -0.03549673 -0.03338137 -0.00073385
v -0.03409592 -0.03477705 -0.00073728
v -0.02852274 -0.03895853 -0.00076143
v -0.02712194 -0.04034865 -0.00074443
v -0.02573114 -0.04174989 -0.00070806
v -0.02294956 -0.04313445 -0.00072953
v -0.02015796 -0.04453569 -0.00072371
v -0.01737637 -0.04593137 -0.00069465
v -0.01597557 -0.04593137 -0.00074637
v -0.01458478 -0.04593137 -0.00076694
v -0.00900159 -0.04732149 -0.00076694
v 0.00911876 -0.04732149 -0.00076694
v 0.01050956 -0.04732149 -0.00075919
v 0.01191036 -0.04732149 -0.00073028
v 0.01330115 -0.04732149 -0.00068645
v 0.01748354 -0.04592581 -0.00068883
v 0.02026513 -0.04453013 -0.00071805
v 0.02445752 -0.04174433 -0.00075725
v 0.01888434 -0.04453013 -0.00076113
v 0.02166593 -0.04313445 -0.00076411
v 0.02584832 -0.04034865 -0.00076694
v 0.04118709 -0.02500728 -0.00076545
v 0.04257788 -0.02223260 -0.00076694
v 0.04396867 -0.01944125 -0.00076694
v 0.04536947 -0.01665544 -0.00076262
v -0.04526230 -0.01525976 -0.00076694
v -0.04526230 -0.01665544 -0.00076664
v -0.04386151 -0.01944681 -0.00076694
v -0.04106991 -0.02501285 -0.00076694
v -0.03688752 -0.03059001 -0.00076694
v -0.03549673 -0.03198569 -0.00076694
v -0.02992354 -0.03756285 -0.00076694
v -0.02573114 -0.04034865 -0.00076694
v -0.02155876 -0.04313445 -0.00076605
v -0.02434035 -0.04174989 -0.00076053
v -0.01876717 -0.04453569 -0.00076336
v -0.02294956 -0.04174989 -0.00076694
v 0.01469195 -0.04592581 -0.00076694
v 0.01609275 -0.04592581 -0.00074384
v 0.02305673 -0.04174433 -0.00076694
f 1 2 3
f 1 3 4
f 1 4 5
f 1 5 108
f 1 108 230
f 1 230 323
f 1 323 411
f 1 411 484
f 1 484 438
f 1 438 350
f 1 350 260
f 1 260 147
f 1 147 44
f 1 44 6
f 1 6 2
f 2 7 8
f 2 8 9
f 2 9 10
f 2 10 11
f 2 11 12
f 2 12 13
f 2 13 14
f 2 14 15
f 2 15 16
f 2 16 17
f 2 17 18
f 2 18 19
f 2 19 20
f 2 20 21
f 2 21 22
f 2 22 23
f 2 23 24
f 2 24 25
f 2 25 26
f 2 26 27
f 2 27 28
f 2 28 29
f 2 29 30
f 2 30 31
f 2 31 32
f 2 32 33
f 2 33 34
f 2 34 35
f 2 35 36
f 2 36 37
f 2 37 38
f 2 38 39
f 2 39 40
f 2 40 41
f 2 41 42
f 2 42 43
f 2 43 3
f 2 6 44
f 2 44 45
f 2 45 46
f 2 46 47
f 2 47 48
f 2 48 49
f 2 49 50
f 2 50 51
f 2 51 52
f 2 52 53
f 2 53 54
f 2 54 55
f 2 55 56
f 2 56 57
f 2 57 58
f 2 58 59
f 2 59 60
f 2 60 61
f 2 61 62
f 2 62 63
f 2 63 64
f 2 64 65
f 2 65 66
f 2 66 67
f 2 67 68
f 2 68 69
f 2 69 70
f 2 70 71
f 2 71 72
f 2 72 73
f 2 73 74
f 2 74 75
f 2 75 76
f 2 76 77
f 2 77 78
f 2 78 79
f 2 79 80
f 2 80 81
f 2 81 82
f 2 82 83
f 2 83 84
f 2 84 85
f 2 85 86
f 2 86 87
f 2 87 88
f 2 88 89
f 2 89 90
f 2 90 91
f 2 91 92
f 2 92 93
f 2 93 94
f 2 94 95
f 2 95 96
f 2 96 97
f 2 97 98
f 2 98 99
f 2 99 100
f 2 100 101
f 2 101 102
f 2 102 103
f 2 103 104
f 2 104 105
f 2 105 7
f 3 43 106
f 3 106 4
f 4 106 107
f 4 107 108
f 4 108 5
f 7 109 110
f 7 110 111
f 7 111 112
f 7 112 8
f 7 105 109
f 8 112 9
f 9 112 111
f 9 111 113
f 9 113 114
f 9 114 115
f 9 115 10
f 10 115 114
f 10 114 11
f 11 114 12
f 12 114 13
f 13 114 116
f 13 116 14
f 14 116 117
f 14 117 118
f 14 118 15
f 15 118 119
f 15 119 16
f 16 119 120
f 16 120 17
f 17 120 18
f 18 121 19
f 18 120 122
f 18 122 121
f 19 121 123
f 19 123 124
f 19 124 20
f 20 124 125
f 20 125 126
f 20 126 21
f 21 126 22
f 22 126 127
f 22 127 128
f 22 128 23
f 23 128 24
f 24 128 129
f 24 129 130
f 24 130 25
f 25 130 26
f 26 131 27
f 26 130 131
f 27 131 132
f 27 132 133
f 27 133 28
f 28 133 132
f 28 132 134
f 28 134 29
f 29 134 135
f 29 135 30
f 30 135 31
f 31 135 136
f 31 136 137
f 31 137 32
f 32 137 138
f 32 138 33
f 33 138 34
f 34 139 35
f 34 138 137
f 34 137 139
f 35 139 36
f 36 139 140
f 36 140 37
f 37 140 141
f 37 141 38
f 38 142 143
f 38 143 39
f 38 141 142
f 39 143 144
f 39 144 40
f 40 144 41
f 41 144 145
f 41 145 42
f 42 146 106
f 42 106 43
f 42 145 146
f 44 147 149
f 44 149 45
f 45 148 46
f 45 149 148
f 46 148 47
f 47 150 151
f 47 151 48
f 47 148 150
f 48 151 49
f 49 151 152
f 49 152 153
f 49 153 50
f 50 153 154
f 50 154 51
f 51 154 52
f 52 155 156
f 52 156 53
f 52 154 155
f 53 156 157
f 53 157 54
f 54 157 158
f 54 158 55
f 55 158 56
f 56 158 159
f 56 159 160
f 56 160 57
f 57 160 58
f 58 160 161
f 58 161 59
f 59 161 162
f 59 162 163
f 59 163 60
f 60 163 164
f 60 164 61
f 61 164 62
f 62 164 63
f 63 164 165
f 63 165 166
f 63 166 64
f 64 166 167
f 64 167 65
f 65 167 168
f 65 168 66
f 66 169 170
f 66 170 67
f 66 168 169
f 67 170 68
f 68 170 69
f 69 170 171
f 69 171 172
f 69 172 70
f 70 173 71
f 70 172 173
f 71 173 174
f 71 174 175
f 71 175 176
f 71 176 72
f 72 176 73
f 73 176 74
f 74 176 177
f 74 177 178
f 74 178 75
f 75 178 76
f 76 178 179
f 76 179 180
f 76 180 77
f 77 180 78
f 78 180 181
f 78 181 79
f 79 181 182
f 79 182 80
f 80 182 81
f 81 182 183
f 81 183 184
f 81 184 82
f 82 184 83
f 83 184 185
f 83 185 84
f 84 186 85
f 84 185 187
f 84 187 186
f 85 186 86
f 86 188 87
f 86 186 188
f 87 188 88
f 88 189 89
f 88 188 189
f 89 189 190
f 89 190 90
f 90 191 192
f 90 192 91
f 90 190 189
f 90 189 191
f 91 192 193
f 91 193 92
f 92 193 93
f 93 194 94
f 93 193 194
f 94 194 195
f 94 195 95
f 95 195 196
f 95 196 197
f 95 197 96
f 96 198 97
f 96 197 199
f 96 199 198
f 97 198 98
f 98 198 99
f 99 198 200
f 99 200 100
f 100 201 101
f 100 200 201
f 101 201 202
f 101 202 203
f 101 203 204
f 101 204 205
f 101 205 102
f 102 205 103
f 103 205 104
f 104 206 105
f 104 205 207
f 104 207 208
f 104 208 209
f 104 209 206
f 105 206 210
f 105 210 211
f 105 211 212
f 105 212 213
f 105 213 214
f 105 214 215
f 105 215 216
f 105 216 217
f 105 217 218
f 105 218 219
f 105 219 220
f 105 220 221
f 105 221 222
f 105 222 223
f 105 223 224
f 105 224 225
f 105 225 226
f 105 226 227
f 105 227 109
f 106 146 228
f 106 228 107
f 107 228 229
f 107 229 230
f 107 230 108
f 109 227 110
f 110 227 231
f 110 231 232
f 110 232 111
f 111 233 234
f 111 234 114
f 111 114 113
f 111 232 235
f 111 235 233
f 114 234 236
f 114 236 116
f 116 236 237
f 116 237 117
f 117 238 122
f 117 122 119
f 117 119 118
f 117 237 239
f 117 239 238
f 119 122 120
f 121 122 123
f 122 240 241
f 122 241 242
f 122 242 243
f 122 243 123
f 122 238 240
f 123 243 242
f 123 242 244
f 123 244 127
f 123 127 125
f 123 125 124
f 125 127 126
f 127 245 246
f 127 246 130
f 127 130 129
f 127 129 128
f 127 244 247
f 127 247 245
f 130 248 132
f 130 132 131
f 130 246 248
f 132 249 135
f 132 135 134
f 132 248 249
f 135 250 137
f 135 137 136
f 135 249 250
f 137 251 139
f 137 250 251
f 139 251 140
f 140 251 141
f 141 252 142
f 141 251 253
f 141 253 254
f 141 254 252
f 142 252 143
f 143 252 255
f 143 255 144
f 144 255 256
f 144 256 145
f 145 256 257
f 145 257 258
f 145 258 146
f 146 258 259
f 146 259 228
f 147 260 149
f 148 149 261
f 148 261 262
f 148 262 150
f 149 260 261
f 150 262 263
f 150 263 264
f 150 264 265
f 150 265 151
f 151 265 266
f 151 266 152
f 152 266 267
f 152 267 153
f 153 267 268
f 153 268 269
f 153 269 154
f 154 269 155
f 155 269 156
f 156 269 270
f 156 270 271
f 156 271 157
f 157 271 158
f 158 271 272
f 158 272 273
f 158 273 160
f 158 160 159
f 160 273 274
f 160 274 162
f 160 162 161
f 162 274 275
f 162 275 165
f 162 165 163
f 163 165 164
f 165 276 277
f 165 277 167
f 165 167 166
f 165 275 276
f 167 277 168
f 168 277 169
f 169 277 171
f 169 171 170
f 171 277 173
f 171 173 172
f 173 277 278
f 173 278 279
f 173 279 280
f 173 280 281
f 173 281 175
f 173 175 174
f 175 281 176
f 176 281 282
f 176 282 177
f 177 282 283
f 177 283 178
f 178 283 180
f 178 180 179
f 180 284 285
f 180 285 181
f 180 283 284
f 181 285 286
f 181 286 187
f 181 187 183
f 181 183 182
f 183 187 184
f 184 187 185
f 186 187 287
f 186 287 188
f 187 288 289
f 187 289 287
f 187 286 288
f 188 287 290
f 188 290 291
f 188 291 189
f 189 291 191
f 191 291 192
f 192 291 193
f 193 291 292
f 193 292 194
f 194 292 195
f 195 293 196
f 195 292 293
f 196 293 197
f 197 293 199
f 198 199 293
f 198 293 200
f 200 293 294
f 200 294 295
f 200 295 201
f 201 295 296
f 201 296 202
f 202 296 297
f 202 297 203
f 203 297 298
f 203 298 204
f 204 298 299
f 204 299 205
f 205 299 207
f 206 209 210
f 207 299 300
f 207 300 208
f 208 300 209
f 209 301 212
f 209 212 211
f 209 211 302
f 209 302 210
f 209 300 301
f 210 302 211
f 212 301 303
f 212 303 304
f 212 304 213
f 213 304 305
f 213 305 214
f 214 305 306
f 214 306 215
f 215 306 307
f 215 307 308
f 215 308 309
f 215 309 310
f 215 310 216
f 216 310 217
f 217 310 311
f 217 311 312
f 217 312 218
f 218 312 313
f 218 313 219
f 219 313 314
f 219 314 220
f 220 314 221
f 221 314 315
f 221 315 316
f 221 316 222
f 222 316 317
f 222 317 223
f 223 317 318
f 223 318 224
f 224 318 319
f 224 319 225
f 225 319 226
f 226 319 320
f 226 320 231
f 226 231 227
f 228 259 321
f 228 321 322
f 228 322 229
f 229 322 323
f 229 323 230
f 231 320 324
f 231 324 325
f 231 325 232
f 232 325 326
f 232 326 235
f 233 327 234
f 233 235 328
f 233 328 327
f 234 327 236
f 235 326 329
f 235 329 328
f 236 327 330
f 236 330 237
f 237 331 332
f 237 332 239
f 237 330 331
f 238 239 332
f 238 332 333
f 238 333 240
f 240 333 241
f 241 333 334
f 241 334 242
f 242 335 244
f 242 334 335
f 244 335 247
f 245 247 336
f 245 336 337
f 245 337 338
f 245 338 246
f 246 338 248
f 247 335 336
f 248 338 339
f 248 339 249
f 249 339 340
f 249 340 250
f 250 341 251
f 250 340 341
f 251 341 342
f 251 342 253
f 252 254 343
f 252 343 255
f 253 342 254
f 254 342 344
f 254 344 343
f 255 343 345
f 255 345 256
f 256 345 346
f 256 346 257
f 257 346 258
f 258 346 347
f 258 347 348
f 258 348 259
f 259 348 349
f 259 349 321
f 260 350 261
f 261 350 351
f 261 351 262
f 262 351 263
f 263 351 352
f 263 352 353
f 263 353 264
f 264 353 354
f 264 354 355
f 264 355 265
f 265 355 356
f 265 356 357
f 265 357 266
f 266 357 358
f 266 358 267
f 267 358 359
f 267 359 360
f 267 360 361
f 267 361 268
f 268 361 269
f 269 361 270
f 270 361 362
f 270 362 363
f 270 363 271
f 271 363 272
f 272 363 364
f 272 364 365
f 272 365 273
f 273 365 274
f 274 365 366
f 274 366 275
f 275 366 367
f 275 367 368
f 275 368 276
f 276 368 369
f 276 369 370
f 276 370 277
f 277 370 371
f 277 371 278
f 278 371 372
f 278 372 279
f 279 373 280
f 279 372 373
f 280 374 375
f 280 375 282
f 280 282 281
f 280 373 374
f 282 376 283
f 282 375 376
f 283 376 377
f 283 377 284
f 284 377 378
f 284 378 379
f 284 379 380
f 284 380 285
f 285 380 381
f 285 381 286
f 286 381 288
f 287 382 290
f 287 289 383
f 287 383 382
f 288 384 383
f 288 383 289
f 288 381 384
f 290 382 385
f 290 385 386
f 290 386 291
f 291 387 292
f 291 386 387
f 292 387 388
f 292 388 293
f 293 388 294
f 294 388 389
f 294 389 295
f 295 389 390
f 295 390 391
f 295 391 296
f 296 391 297
f 297 391 298
f 298 391 392
f 298 392 393
f 298 393 394
f 298 394 299
f 299 394 395
f 299 395 396
f 299 396 397
f 299 397 398
f 299 398 300
f 300 398 301
f 301 397 399
f 301 399 400
f 301 400 401
f 301 401 402
f 301 402 303
f 301 398 397
f 303 402 403
f 303 403 404
f 303 404 304
f 304 404 403
f 304 403 405
f 304 405 406
f 304 406 305
f 305 406 306
f 306 406 407
f 306 407 308
f 306 308 307
f 308 312 311
f 308 311 310
f 308 310 309
f 308 407 408
f 308 408 409
f 308 409 312
f 312 409 313
f 313 409 316
f 313 316 314
f 314 316 315
f 316 409 324
f 316 324 317
f 317 324 318
f 318 324 319
f 319 324 320
f 321 349 323
f 321 323 322
f 323 349 410
f 323 410 411
f 324 409 412
f 324 412 413
f 324 413 325
f 325 413 326
f 326 413 414
f 326 414 415
f 326 415 329
f 327 328 416
f 327 416 330
f 328 329 415
f 328 415 417
f 328 417 416
f 330 416 418
f 330 418 332
f 330 332 331
f 332 418 419
f 332 419 333
f 333 420 421
f 333 421 422
f 333 422 334
f 333 419 423
f 333 423 424
f 333 424 420
f 334 422 425
f 334 425 335
f 335 425 336
f 336 425 426
f 336 426 337
f 337 426 427
f 337 427 338
f 338 427 339
f 339 427 428
f 339 428 429
f 339 429 340
f 340 429 430
f 340 430 341
f 341 430 342
f 342 430 344
f 343 344 431
f 343 431 345
f 344 430 432
f 344 432 431
f 345 431 433
f 345 433 346
f 346 433 434
f 346 434 435
f 346 435 347
f 347 435 348
f 348 435 436
f 348 436 349
f 349 436 437
f 349 437 410
f 350 438 351
f 351 438 352
f 352 438 353
f 353 438 354
f 354 438 439
f 354 439 440
f 354 440 441
f 354 441 355
f 355 441 442
f 355 442 356
f 356 442 443
f 356 443 357
f 357 443 444
f 357 444 358
f 358 444 445
f 358 445 359
f 359 445 362
f 359 362 360
f 360 362 361
f 362 445 446
f 362 446 364
f 362 364 363
f 364 446 447
f 364 447 448
f 364 448 365
f 365 448 366
f 366 448 367
f 367 449 450
f 367 450 451
f 367 451 369
f 367 369 368
f 367 448 449
f 369 451 371
f 369 371 370
f 371 451 372
f 372 451 452
f 372 452 373
f 373 452 374
f 374 452 453
f 374 453 454
f 374 454 375
f 375 454 376
f 376 454 378
f 376 378 377
f 378 454 455
f 378 455 456
f 378 456 380
f 378 380 379
f 380 456 457
f 380 457 381
f 381 457 384
f 382 383 458
f 382 458 385
f 383 384 458
f 384 457 458
f 385 458 459
f 385 459 460
f 385 460 386
f 386 460 387
f 387 460 461
f 387 461 462
f 387 462 388
f 388 462 463
f 388 463 389
f 389 463 390
f 390 463 391
f 391 463 464
f 391 464 392
f 392 464 465
f 392 465 393
f 393 466 394
f 393 465 467
f 393 467 466
f 394 466 395
f 395 468 469
f 395 469 470
f 395 470 400
f 395 400 471
f 395 471 396
f 395 466 472
f 395 472 468
f 396 471 397
f 397 471 399
f 399 471 400
f 400 470 473
f 400 473 474
f 400 474 475
f 400 475 476
f 400 476 401
f 401 476 477
f 401 477 478
f 401 478 402
f 402 478 479
f 402 479 403
f 403 479 405
f 405 479 406
f 406 479 480
f 406 480 481
f 406 481 407
f 407 481 408
f 408 481 482
f 408 482 483
f 408 483 412
f 408 412 409
f 410 437 503
f 410 503 537
f 410 537 536
f 410 536 497
f 410 497 496
f 410 496 495
f 410 495 491
f 410 491 534
f 410 534 553
f 410 553 551
f 410 551 525
f 410 525 524
f 410 524 523
f 410 523 550
f 410 550 546
f 410 546 545
f 410 545 544
f 410 544 543
f 410 543 542
f 410 542 541
f 410 541 539
f 410 539 504
f 410 504 440
f 410 440 439
f 410 439 484
f 410 484 411
f 412 483 485
f 412 485 486
f 412 486 413
f 413 486 414
f 414 486 487
f 414 487 415
f 415 487 488
f 415 488 417
f 416 417 418
f 417 488 489
f 417 489 418
f 418 489 419
f 419 489 490
f 419 490 491
f 419 491 423
f 420 492 421
f 420 424 492
f 421 492 422
f 422 492 493
f 422 493 494
f 422 494 425
f 423 491 424
f 424 491 495
f 424 495 496
f 424 496 497
f 424 497 492
f 425 494 426
f 426 428 427
f 426 494 428
f 428 498 499
f 428 499 429
f 428 494 500
f 428 500 498
f 429 499 432
f 429 432 430
f 431 432 433
f 432 501 433
f 432 499 501
f 433 501 434
f 434 501 502
f 434 502 435
f 435 502 436
f 436 502 503
f 436 503 437
f 438 484 439
f 440 504 441
f 441 504 505
f 441 505 442
f 442 505 506
f 442 506 443
f 443 506 444
f 444 506 445
f 445 506 446
f 446 506 507
f 446 507 447
f 447 507 449
f 447 449 448
f 449 508 509
f 449 509 510
f 449 510 450
f 449 507 508
f 450 510 452
f 450 452 451
f 452 510 453
f 453 511 512
f 453 512 513
f 453 513 454
f 453 510 511
f 454 514 515
f 454 515 455
f 454 513 514
f 455 515 516
f 455 516 517
f 455 517 456
f 456 517 518
f 456 518 457
f 457 518 458
f 458 519 459
f 458 518 519
f 459 519 520
f 459 520 461
f 459 461 460
f 461 520 521
f 461 521 463
f 461 463 462
f 463 521 464
f 464 521 522
f 464 522 465
f 465 522 467
f 466 467 472
f 467 522 523
f 467 523 524
f 467 524 469
f 467 469 468
f 467 468 472
f 469 524 525
f 469 525 470
f 470 525 473
f 473 525 526
f 473 526 474
f 474 526 475
f 475 526 476
f 476 526 477
f 477 526 527
f 477 527 478
f 478 527 528
f 478 528 479
f 479 528 482
f 479 482 480
f 480 482 481
f 482 528 529
f 482 529 485
f 482 485 483
f 485 529 530
f 485 530 487
f 485 487 486
f 487 530 488
f 488 531 489
f 488 530 532
f 488 532 533
f 488 533 531
f 489 531 490
f 490 531 534
f 490 534 491
f 492 497 535
f 492 535 493
f 493 535 494
f 494 535 500
f 497 536 535
f 498 500 535
f 498 535 536
f 498 536 537
f 498 537 538
f 498 538 499
f 499 538 501
f 501 538 502
f 502 538 503
f 503 538 537
f 504 539 540
f 504 540 505
f 505 540 506
f 506 540 507
f 507 540 508
f 508 540 541
f 508 541 542
f 508 542 509
f 509 542 511
f 509 511 510
f 511 542 512
f 512 542 543
f 512 543 515
f 512 515 514
f 512 514 513
f 515 543 544
f 515 544 545
f 515 545 516
f 516 546 547
f 516 547 548
f 516 548 517
f 516 545 546
f 517 548 519
f 517 519 518
f 519 548 547
f 519 547 549
f 519 549 520
f 520 549 522
f 520 522 521
f 522 549 523
f 523 549 547
f 523 547 550
f 525 551 526
f 526 551 552
f 526 552 527
f 527 552 528
f 528 552 529
f 529 552 530
f 530 552 532
f 531 533 534
f 532 552 551
f 532 551 533
f 533 551 553
f 533 553 534
f 539 541 540
f 546 550 547

