# https://github.com/mikedh/trimesh
v -0.05098941 0.00565320 0.00484083
v -0.05093687 0.00703828 0.00484083
v -0.04526041 0.00565320 0.00484083
v -0.05100790 0.00565320 0.11221222
v -0.05100790 0.00566151 0.11222300
v -0.05093589 0.00705628 0.00484083
v -0.05093589 0.00705628 0.11083221
v -0.04524873 0.00565459 0.00484083
v -0.04524289 0.00565320 0.00486239
v -0.05100790 0.00565320 0.11222300
v -0.05065757 0.00565320 0.11362457
v -0.05090572 0.00705628 0.11222300
v -0.05081717 0.00845106 0.00484083
v -0.05081717 0.00845106 0.11083221
v -0.04116048 0.01963140 0.00484083
v -0.04107678 0.01980315 0.00485161
v -0.04106803 0.01980315 0.00486239
v -0.04524192 0.00565320 0.00625318
v -0.05021478 0.00565320 0.11437927
v -0.05021478 0.00566151 0.11437927
v -0.05015736 0.00645101 0.11432536
v -0.05065659 0.00566151 0.11362457
v -0.05041817 0.00845106 0.11343051
v -0.05075391 0.00845106 0.11222300
v -0.05058847 0.00982782 0.00484083
v -0.05058555 0.00984444 0.11083221
v -0.04128699 0.01980315 0.00484083
v -0.04106705 0.01980315 0.00625318
v -0.04524192 0.00565320 0.10944141
v -0.04944695 0.00565320 0.11472427
v -0.04944695 0.00566151 0.11472427
v -0.04916571 0.00984444 0.11458411
v -0.04902849 0.01123922 0.11451943
v -0.05006880 0.00738178 0.11423911
v -0.04997538 0.00845106 0.11413130
v -0.05044445 0.00697179 0.11371083
v -0.04986249 0.00984444 0.11393723
v -0.05030139 0.00984444 0.11323645
v -0.05020505 0.01078768 0.11305316
v -0.05052230 0.00984444 0.11222300
v -0.05058555 0.00984444 0.00484083
v -0.05026830 0.01103838 0.11222300
v -0.05030042 0.01116581 0.11083221
v -0.04757362 0.01980315 0.00484083
v -0.04106705 0.01980315 0.11057346
v -0.04524289 0.00565320 0.11084299
v -0.04806020 0.00565320 0.11497224
v -0.04805241 0.00845106 0.11497224
v -0.04805241 0.00984444 0.11495068
v -0.04805241 0.01123922 0.11488599
v -0.04886013 0.01263399 0.11440083
v -0.04805241 0.01263399 0.11475662
v -0.04775560 0.01542076 0.11456255
v -0.04876476 0.01339163 0.11432536
v -0.04862268 0.01432101 0.11418521
v -0.04903044 0.01392488 0.11367848
v -0.04889517 0.01542076 0.11319332
v -0.04876671 0.01616871 0.11295613
v -0.04910635 0.01542076 0.11222300
v -0.05030042 0.01116581 0.00484083
v -0.04917155 0.01542076 0.11083221
v -0.04917641 0.01540414 0.00484083
v -0.04765439 0.01960508 0.00484083
v -0.04757362 0.01980315 0.11083221
v -0.04106803 0.01980315 0.11083221
v -0.04110209 0.01980315 0.11197503
v -0.04110987 0.01980315 0.11222300
v -0.04528863 0.00565320 0.11222300
v -0.04805241 0.00565320 0.11497224
v -0.04665787 0.01402738 0.11498302
v -0.04665787 0.01542076 0.11493990
v -0.04665787 0.01681554 0.11478896
v -0.04628515 0.01960508 0.11451943
v -0.04752398 0.01681554 0.11444396
v -0.04738385 0.01759672 0.11433614
v -0.04845238 0.01542076 0.11389411
v -0.04750452 0.01927682 0.11320410
v -0.04719603 0.01852611 0.11413130
v -0.04737995 0.01980315 0.11281597
v -0.04750257 0.01980315 0.11221222
v -0.04756486 0.01968680 0.11211519
v -0.04880953 0.01628505 0.11222300
v -0.04884262 0.01637785 0.11083221
v -0.04917155 0.01542076 0.00484083
v -0.04884262 0.01637785 0.00484083
v -0.04765439 0.01960508 0.11083221
v -0.04757264 0.01980315 0.11103705
v -0.04136581 0.01980315 0.11317176
v -0.04564773 0.00565320 0.11349520
v -0.04363231 0.01980315 0.11490756
v -0.04386976 0.01960508 0.11495068
v -0.04386976 0.01980315 0.11496146
v -0.04526430 0.01681554 0.11497224
v -0.04678049 0.00565320 0.11462724
v -0.04526430 0.01821031 0.11497224
v -0.04526430 0.01960508 0.11488599
v -0.04615183 0.01980315 0.11454099
v -0.04624428 0.01980315 0.11449787
v -0.04701405 0.01968680 0.11364614
v -0.04696052 0.01980315 0.11364614
v -0.04689240 0.01980315 0.11374317
v -0.04752690 0.01980315 0.11201816
v -0.04144659 0.01980315 0.11340895
v -0.04608370 0.00565320 0.11418521
v -0.04261243 0.01980315 0.11460568
v -0.04506675 0.01980315 0.11489677
v -0.04242364 0.01980315 0.11450865
v -0.04527403 0.01980315 0.11485365
v -0.04183390 0.01980315 0.11400192
v -0.04191760 0.01980315 0.11412052
f 1 2 6
f 1 6 13
f 1 13 25
f 1 25 41
f 1 41 60
f 1 60 62
f 1 62 84
f 1 84 85
f 1 85 63
f 1 63 44
f 1 44 27
f 1 27 15
f 1 15 8
f 1 8 3
f 1 3 9
f 1 9 18
f 1 18 29
f 1 29 46
f 1 46 68
f 1 68 89
f 1 89 104
f 1 104 94
f 1 94 69
f 1 69 47
f 1 47 30
f 1 30 19
f 1 19 11
f 1 11 10
f 1 10 4
f 1 4 5
f 1 5 2
f 2 5 7
f 2 7 6
f 3 8 9
f 4 10 5
f 5 10 11
f 5 11 12
f 5 12 7
f 6 7 14
f 6 14 13
f 7 12 14
f 8 15 16
f 8 16 17
f 8 17 9
f 9 17 28
f 9 28 18
f 11 19 20
f 11 20 21
f 11 21 22
f 11 22 23
f 11 23 12
f 12 23 24
f 12 24 14
f 13 14 25
f 14 24 40
f 14 40 26
f 14 26 25
f 15 27 16
f 16 27 44
f 16 44 64
f 16 64 87
f 16 87 102
f 16 102 80
f 16 80 79
f 16 79 100
f 16 100 101
f 16 101 98
f 16 98 97
f 16 97 108
f 16 108 106
f 16 106 92
f 16 92 90
f 16 90 105
f 16 105 107
f 16 107 110
f 16 110 109
f 16 109 103
f 16 103 88
f 16 88 67
f 16 67 66
f 16 66 65
f 16 65 45
f 16 45 28
f 16 28 17
f 18 28 45
f 18 45 29
f 19 30 31
f 19 31 20
f 20 31 32
f 20 32 33
f 20 33 21
f 21 34 35
f 21 35 23
f 21 23 36
f 21 36 22
f 21 33 34
f 22 36 23
f 23 35 37
f 23 37 38
f 23 38 24
f 24 38 39
f 24 39 40
f 25 26 41
f 26 40 42
f 26 42 43
f 26 43 60
f 26 60 41
f 29 45 46
f 30 47 31
f 31 47 48
f 31 48 49
f 31 49 50
f 31 50 32
f 32 50 33
f 33 51 35
f 33 35 34
f 33 50 52
f 33 52 53
f 33 53 51
f 35 51 37
f 37 51 54
f 37 54 39
f 37 39 38
f 39 54 55
f 39 55 56
f 39 56 57
f 39 57 58
f 39 58 59
f 39 59 42
f 39 42 40
f 42 59 43
f 43 59 61
f 43 61 62
f 43 62 60
f 44 63 86
f 44 86 64
f 45 65 46
f 46 65 66
f 46 66 67
f 46 67 68
f 47 69 70
f 47 70 48
f 48 70 49
f 49 70 71
f 49 71 50
f 50 71 52
f 51 53 54
f 52 71 53
f 53 71 72
f 53 72 73
f 53 73 74
f 53 74 54
f 54 74 55
f 55 74 75
f 55 75 76
f 55 76 57
f 55 57 56
f 57 77 58
f 57 76 78
f 57 78 77
f 58 77 79
f 58 79 80
f 58 80 81
f 58 81 82
f 58 82 59
f 59 82 61
f 61 82 83
f 61 83 85
f 61 85 84
f 61 84 62
f 63 85 83
f 63 83 86
f 64 86 87
f 67 88 68
f 68 88 89
f 69 90 91
f 69 91 92
f 69 92 93
f 69 93 70
f 69 94 90
f 70 93 92
f 70 92 95
f 70 95 71
f 71 96 72
f 71 95 96
f 72 96 97
f 72 97 73
f 73 97 98
f 73 98 74
f 74 98 75
f 75 98 78
f 75 78 76
f 77 78 99
f 77 99 100
f 77 100 79
f 78 98 101
f 78 101 99
f 80 102 81
f 81 102 82
f 82 102 83
f 83 102 87
f 83 87 86
f 88 103 89
f 89 103 104
f 90 92 91
f 90 94 105
f 92 106 95
f 94 104 107
f 94 107 105
f 95 106 96
f 96 106 108
f 96 108 97
f 99 101 100
f 103 109 104
f 104 109 110
f 104 110 107

