# https://github.com/mikedh/trimesh
v -0.00064132 0.07172667 0.09112755
v 0.00075173 0.07172667 0.09113567
v -0.00129320 0.07172667 0.09122497
v -0.00064132 0.07828990 0.07832830
v 0.00209886 0.07172667 0.09135081
v 0.00031672 0.07829589 0.07832830
v 0.00075173 0.07829888 0.07832830
v -0.00199993 0.07172667 0.09133458
v -0.00106485 0.07835578 0.07832830
v 0.00299567 0.07172667 0.09163497
v 0.00171105 0.07845608 0.07832830
v -0.00323097 0.07172667 0.09171819
v -0.00203182 0.07850698 0.07832830
v 0.00361693 0.07172667 0.09184200
v 0.00213458 0.07852644 0.07832830
v -0.00396449 0.07172667 0.09206527
v -0.00241453 0.07858932 0.07832830
v 0.00503549 0.07172667 0.09265997
v 0.00308624 0.07875849 0.07832830
v -0.00495060 0.07172667 0.09258081
v -0.00301793 0.07874801 0.07832830
v 0.00561466 0.07172667 0.09312477
v 0.00328142 0.07885131 0.07832830
v -0.00568667 0.07172667 0.09318160
v -0.00369022 0.07905042 0.07832830
v 0.00574350 0.07172667 0.09324858
v 0.00376108 0.07908635 0.07832830
v -0.00614974 0.07172667 0.09403204
v -0.00558589 0.08019420 0.07832830
v -0.00520829 0.07993221 0.07832830
v -0.00484727 0.07970166 0.07832830
v -0.00417753 0.07931241 0.07832830
v 0.00595909 0.07172667 0.09360378
v 0.00501381 0.07981993 0.07832830
v 0.00537228 0.08004449 0.07832830
v 0.00565420 0.08023761 0.07832830
v -0.00645846 0.07172667 0.09549545
v -0.00649291 0.08235450 0.07832830
v -0.00599539 0.08093526 0.07832830
v 0.00615938 0.07172667 0.09404219
v 0.00597695 0.08087987 0.07832830
v -0.00591884 0.07172667 0.09688782
v -0.00643167 0.07259498 0.09549545
v -0.00650311 0.07398876 0.09410105
v -0.00649801 0.08235450 0.07876468
v -0.00632196 0.08374829 0.07832830
v 0.00642344 0.07172667 0.09496976
v 0.00610069 0.08118378 0.07832830
v -0.00546215 0.07172667 0.09754341
v -0.00586654 0.07259498 0.09667876
v -0.00620460 0.07398876 0.09549545
v -0.00638702 0.07538405 0.09410105
v -0.00642784 0.07677784 0.09270665
v -0.00652097 0.07817313 0.08991785
v -0.00649928 0.08235450 0.08015908
v -0.00648015 0.08235450 0.08155348
v -0.00638830 0.08235450 0.08294788
v -0.00628624 0.08374829 0.07876468
v -0.00577342 0.08477380 0.07832830
v 0.00644641 0.07172667 0.09549545
v 0.00648212 0.08235450 0.07832830
v -0.00541622 0.07172667 0.09756980
v -0.00545577 0.07176559 0.09753935
v -0.00569432 0.07398876 0.09640272
v -0.00556931 0.07477623 0.09624441
v -0.00581424 0.07529722 0.09548327
v -0.00592140 0.07681377 0.09414976
v -0.00592905 0.07822852 0.09275739
v -0.00640233 0.07817313 0.09131225
v -0.00648270 0.07956542 0.08852548
v -0.00650694 0.08095921 0.08434228
v -0.00647377 0.08095921 0.08573668
v -0.00631814 0.08095921 0.08713108
v -0.00619950 0.08235450 0.08434228
v -0.00612040 0.08374829 0.08015908
v -0.00575301 0.08473337 0.07876468
v -0.00556803 0.08499237 0.07832830
v 0.00648978 0.07398876 0.09410105
v 0.00641962 0.07259498 0.09549545
v 0.00615300 0.07172667 0.09641287
v 0.00645661 0.08279015 0.07832830
v 0.00648723 0.08235450 0.07876468
v -0.00477583 0.07172667 0.09788846
v -0.00449900 0.07259498 0.09777683
v -0.00422345 0.07341837 0.09763881
v -0.00519553 0.07259498 0.09737495
v -0.00423749 0.07618050 0.09625861
v -0.00516746 0.07570593 0.09593792
v -0.00535499 0.07730332 0.09464501
v -0.00567264 0.07637363 0.09500832
v -0.00474266 0.07392589 0.09711109
v -0.00379355 0.07434807 0.09744193
v -0.00475159 0.07529722 0.09645346
v -0.00570198 0.07780036 0.09371541
v -0.00568667 0.07911929 0.09232710
v -0.00586016 0.07957590 0.09129195
v -0.00628369 0.07956542 0.08991785
v -0.00565095 0.08181705 0.08817028
v -0.00577980 0.08203263 0.08713108
v -0.00592522 0.08105053 0.08859246
v -0.00587547 0.08241888 0.08573465
v -0.00560120 0.08313748 0.08526985
v -0.00570581 0.08327820 0.08434228
v -0.00557186 0.08449684 0.08104606
v -0.00565860 0.08459864 0.08015908
v -0.00491615 0.08552683 0.07832830
v 0.00637624 0.07538405 0.09410105
v 0.00650891 0.07817313 0.08991785
v 0.00641834 0.07677784 0.09270665
v 0.00620147 0.07398876 0.09549545
v 0.00596164 0.07172667 0.09684114
v 0.00631118 0.08374829 0.07832830
v 0.00647064 0.08235450 0.08155348
v 0.00648978 0.08235450 0.08015908
v -0.00337002 0.07172667 0.09849940
v -0.00342998 0.07259498 0.09823960
v -0.00336874 0.07392589 0.09778900
v -0.00342998 0.07716259 0.09596837
v -0.00442501 0.07771502 0.09500021
v -0.00479624 0.07674191 0.09546907
v -0.00336874 0.07530171 0.09714356
v -0.00342998 0.07646645 0.09644332
v -0.00490085 0.07822253 0.09414976
v -0.00537795 0.07873005 0.09325670
v -0.00286357 0.07478372 0.09763678
v -0.00562799 0.08039331 0.09081295
v -0.00576831 0.08064932 0.08991785
v -0.00538178 0.08292788 0.08619945
v -0.00543791 0.08157601 0.08909786
v -0.00488043 0.08345786 0.08573465
v -0.00424897 0.08452229 0.08387139
v -0.00475797 0.08402076 0.08433822
v -0.00447859 0.08466600 0.08294788
v -0.00540219 0.08433964 0.08197566
v -0.00489192 0.08481122 0.08152912
v -0.00482430 0.08519597 0.08015908
v -0.00430382 0.08595051 0.07832830
v 0.00596037 0.07677934 0.09411932
v 0.00585831 0.07526429 0.09545486
v 0.00647192 0.07956542 0.08852548
v 0.00639155 0.07817313 0.09131225
v 0.00649743 0.08095921 0.08434228
v 0.00596802 0.07819558 0.09272289
v 0.00565038 0.07472084 0.09621193
v 0.00575243 0.07398876 0.09634995
v 0.00591700 0.07259498 0.09661990
v 0.00555470 0.07172667 0.09743178
v 0.00614917 0.08407615 0.07832830
v 0.00627546 0.08374829 0.07876468
v 0.00637879 0.08235450 0.08294788
v 0.00646171 0.08095921 0.08573668
v -0.00279468 0.07172667 0.09865163
v -0.00203565 0.07259498 0.09860900
v -0.00252296 0.07742458 0.09615713
v -0.00282785 0.07892018 0.09484595
v -0.00334833 0.07817612 0.09520520
v -0.00375783 0.07864471 0.09458412
v -0.00444798 0.07910731 0.09365452
v -0.00485492 0.07957590 0.09272695
v -0.00526059 0.08004748 0.09174255
v -0.00203565 0.07398876 0.09811579
v -0.00203565 0.07493193 0.09771188
v -0.00203565 0.07562958 0.09734856
v -0.00491360 0.08139936 0.09004369
v -0.00480772 0.08069572 0.09129195
v -0.00508454 0.08273027 0.08713108
v -0.00438674 0.08321832 0.08713108
v -0.00450793 0.08190537 0.08966008
v -0.00479369 0.08232606 0.08847880
v -0.00396449 0.08436359 0.08480099
v -0.00342998 0.08520346 0.08294788
v -0.00341467 0.08559570 0.08161234
v -0.00347207 0.08474535 0.08433822
v -0.00391984 0.08574091 0.08015908
v -0.00410992 0.08583074 0.07942027
v -0.00427703 0.08593254 0.07849067
v -0.00415457 0.08602536 0.07832830
v 0.00577284 0.07774646 0.09366467
v 0.00574350 0.07631375 0.09496164
v 0.00627674 0.07956542 0.08991785
v 0.00630736 0.08095921 0.08713108
v 0.00590041 0.07954596 0.09125745
v 0.00575753 0.07906988 0.09226824
v 0.00542585 0.07724344 0.09459427
v 0.00523833 0.07565053 0.09589124
v 0.00430835 0.07614457 0.09623426
v 0.00483776 0.07526429 0.09640881
v 0.00388100 0.07429417 0.09741960
v 0.00429432 0.07336448 0.09761851
v 0.00524471 0.07259498 0.09731609
v 0.00550240 0.07172667 0.09748658
v 0.00582387 0.08470942 0.07832830
v 0.00580473 0.08467050 0.07876468
v 0.00571671 0.08454624 0.08015908
v 0.00611855 0.08374829 0.08015908
v 0.00619510 0.08235450 0.08434228
v -0.00203565 0.07172667 0.09885053
v -0.00115287 0.07179852 0.09896014
v -0.00066939 0.07252611 0.09880994
v -0.00064132 0.07398876 0.09830455
v -0.00159426 0.07753537 0.09623629
v -0.00204968 0.07806834 0.09572481
v -0.00204968 0.07688713 0.09658540
v -0.00203565 0.07901749 0.09493728
v -0.00203565 0.07971364 0.09422283
v -0.00278448 0.08028702 0.09343328
v -0.00327179 0.07947709 0.09400971
v -0.00371445 0.08003401 0.09312680
v -0.00433061 0.08040529 0.09219720
v -0.00064132 0.07512506 0.09780524
v -0.00064132 0.07582120 0.09745004
v -0.00064132 0.07677784 0.09687361
v -0.00410099 0.08164189 0.09058968
v -0.00414819 0.08306562 0.08785771
v -0.00303579 0.08457917 0.08540178
v -0.00347207 0.08421987 0.08581381
v -0.00251786 0.08580380 0.08211571
v -0.00293884 0.08592656 0.08118611
v -0.00322331 0.08605531 0.08015908
v -0.00355882 0.08619753 0.07888037
v -0.00351162 0.08633376 0.07832830
v 0.00544882 0.07867615 0.09319987
v 0.00596420 0.08102209 0.08854375
v 0.00582132 0.08058344 0.08991785
v 0.00570268 0.08035289 0.09075409
v 0.00591827 0.08239193 0.08568391
v 0.00583152 0.08196526 0.08713108
v 0.00572181 0.08177363 0.08809113
v 0.00497299 0.07817912 0.09410917
v 0.00449588 0.07768208 0.09497179
v 0.00486710 0.07669401 0.09543253
v 0.00354039 0.07712816 0.09594198
v 0.00354039 0.07643202 0.09642099
v 0.00346640 0.07529572 0.09711109
v 0.00295102 0.07477175 0.09763069
v 0.00346640 0.07389295 0.09777074
v 0.00354039 0.07259498 0.09819900
v 0.00454690 0.07259498 0.09774638
v 0.00483393 0.07172667 0.09784381
v 0.00497936 0.08545946 0.07832830
v 0.00565293 0.08446689 0.08093848
v 0.00576264 0.08321982 0.08434228
v 0.00567972 0.08310454 0.08518460
v -0.00139908 0.07172667 0.09894390
v -0.00121921 0.07172667 0.09896623
v -0.00108781 0.07172667 0.09898247
v -0.00039894 0.07172667 0.09906365
v -0.00022417 0.07201710 0.09901697
v 0.00075173 0.07398876 0.09829643
v 0.00075173 0.07511607 0.09780118
v 0.00031034 0.07201710 0.09901697
v -0.00064132 0.07833631 0.09576337
v -0.00064132 0.07763867 0.09631342
v -0.00064132 0.07915822 0.09506516
v -0.00064132 0.07985286 0.09437303
v -0.00203565 0.08036786 0.09352665
v -0.00190425 0.08113288 0.09257066
v -0.00228058 0.08157302 0.09188462
v -0.00317101 0.08187094 0.09095299
v -0.00332154 0.08059093 0.09268026
v -0.00355372 0.08140385 0.09137720
v 0.00075173 0.07581222 0.09744599
v 0.00075173 0.07677784 0.09686346
v -0.00342360 0.08235300 0.08991176
v -0.00367746 0.08283507 0.08878528
v -0.00329986 0.08320185 0.08840370
v -0.00342998 0.08371086 0.08713108
v -0.00274748 0.08305813 0.08923384
v -0.00250638 0.08440701 0.08633138
v -0.00203565 0.08519597 0.08434228
v -0.00204585 0.08601488 0.08161234
v -0.00203565 0.08638616 0.08015908
v -0.00204585 0.08565408 0.08289308
v -0.00158788 0.08588164 0.08238971
v -0.00203565 0.08670953 0.07876468
v -0.00199993 0.08680535 0.07832830
v 0.00451884 0.07907737 0.09362407
v 0.00533145 0.07999808 0.09168368
v 0.00492579 0.07953698 0.09268026
v 0.00550877 0.08152961 0.08901870
v 0.00500105 0.08133049 0.09001528
v 0.00489389 0.08063884 0.09125745
v 0.00545264 0.08288148 0.08611420
v 0.00344599 0.07815816 0.09517882
v 0.00384783 0.07861178 0.09455367
v 0.00259383 0.07741411 0.09614901
v 0.00291785 0.07891119 0.09483783
v 0.00214606 0.07561161 0.09733841
v 0.00214606 0.07491546 0.09770173
v 0.00214606 0.07398876 0.09809955
v 0.00214606 0.07259498 0.09859073
v 0.00347533 0.07172667 0.09846489
v 0.00389630 0.07172667 0.09827613
v 0.00474591 0.08563313 0.07832830
v 0.00435683 0.08591308 0.07832830
v 0.00434790 0.08590859 0.07837904
v 0.00417696 0.08580679 0.07930864
v 0.00497936 0.08476332 0.08146418
v 0.00452905 0.08462858 0.08294788
v 0.00432111 0.08449684 0.08379832
v 0.00496661 0.08340696 0.08568391
v 0.00452267 0.08323479 0.08687128
v -0.00007364 0.07172667 0.09906365
v 0.00076576 0.07252611 0.09880182
v 0.00048511 0.07172667 0.09905959
v 0.00124032 0.07177457 0.09895405
v 0.00075173 0.07832883 0.09575728
v 0.00075173 0.07763118 0.09630733
v 0.00075173 0.07915073 0.09505907
v 0.00075173 0.07984687 0.09436491
v 0.00075173 0.08049063 0.09366873
v -0.00064132 0.08049661 0.09367481
v -0.00064132 0.08119426 0.09279393
v -0.00135188 0.08165985 0.09201250
v -0.00190425 0.08196526 0.09137720
v -0.00203565 0.08273775 0.09004978
v 0.00213585 0.07688114 0.09657322
v 0.00166385 0.07752489 0.09623020
v -0.00203565 0.08312251 0.08935360
v -0.00203565 0.08352822 0.08852548
v -0.00203948 0.08418993 0.08705192
v -0.00157640 0.08448635 0.08653232
v -0.00203948 0.08467648 0.08581381
v -0.00064132 0.08492949 0.08573668
v -0.00064132 0.08541754 0.08434228
v -0.00064132 0.08574541 0.08333149
v -0.00064132 0.08625292 0.08155348
v -0.00064132 0.08660473 0.08015908
v -0.00064132 0.08595500 0.08263531
v -0.00064132 0.08692811 0.07876468
v -0.00147817 0.08688918 0.07832830
v 0.00440275 0.08037685 0.09216066
v 0.00380573 0.08000557 0.09309026
v 0.00287703 0.08027953 0.09342313
v 0.00336179 0.07945763 0.09398942
v 0.00500105 0.08213143 0.08854375
v 0.00457880 0.08187992 0.08961543
v 0.00416930 0.08161494 0.09054503
v 0.00496661 0.08273326 0.08725489
v 0.00213585 0.07806384 0.09571060
v 0.00214606 0.07900551 0.09492511
v 0.00214606 0.07970166 0.09421065
v 0.00139978 0.07172667 0.09894390
v 0.00214606 0.07172667 0.09883227
v 0.00360927 0.08629184 0.07832830
v 0.00364372 0.08617507 0.07881136
v 0.00327887 0.08604483 0.08015908
v 0.00397667 0.08570349 0.08015908
v 0.00350722 0.08556127 0.08159610
v 0.00354039 0.08515556 0.08294788
v 0.00356207 0.08472140 0.08429560
v 0.00404046 0.08433814 0.08472792
v 0.00356207 0.08418544 0.08580366
v 0.00421778 0.08304017 0.08780088
v 0.00119567 0.07172667 0.09897029
v 0.00214606 0.08035589 0.09351244
v 0.00087547 0.08127809 0.09263561
v 0.00049277 0.08173770 0.09212413
v -0.00064132 0.08171824 0.09209774
v -0.00064132 0.08222126 0.09131225
v -0.00064132 0.08285752 0.09026696
v -0.00064132 0.08323778 0.08956874
v -0.00064132 0.08375727 0.08852548
v -0.00064132 0.08426927 0.08740712
v -0.00064132 0.08456121 0.08671093
v 0.00075173 0.08492051 0.08573668
v 0.00075173 0.08540856 0.08434228
v 0.00075173 0.08574091 0.08331526
v 0.00075173 0.08624244 0.08155348
v 0.00075173 0.08659575 0.08015908
v 0.00075173 0.08595051 0.08261704
v 0.00075173 0.08691763 0.07876468
v -0.00064132 0.08701943 0.07832830
v 0.00342175 0.08056548 0.09265794
v 0.00363861 0.08136642 0.09136908
v 0.00323932 0.08186345 0.09094285
v 0.00214606 0.08158500 0.09190086
v 0.00214606 0.08098017 0.09270665
v 0.00366796 0.08289794 0.08866350
v 0.00363861 0.08219281 0.09001528
v 0.00258234 0.08663767 0.07832830
v 0.00302118 0.08592057 0.08115972
v 0.00214606 0.08677990 0.07832830
v 0.00311048 0.08457169 0.08538351
v 0.00366796 0.08354768 0.08725489
v 0.00328780 0.08327521 0.08829207
v 0.00283876 0.08305065 0.08921964
v 0.00142274 0.08165237 0.09200235
v 0.00087547 0.08210299 0.09144824
v 0.00075173 0.08285153 0.09025681
v 0.00075173 0.08323179 0.08955860
v 0.00075173 0.08374679 0.08852548
v 0.00075173 0.08426329 0.08739494
v 0.00075173 0.08455522 0.08669876
v 0.00164854 0.08448037 0.08651608
v 0.00257724 0.08439952 0.08631311
v 0.00212565 0.08466451 0.08580366
v 0.00214606 0.08517502 0.08434228
v 0.00213330 0.08564211 0.08287887
v 0.00165875 0.08587565 0.08236739
v 0.00258872 0.08579780 0.08208932
v 0.00213330 0.08600291 0.08159610
v 0.00214606 0.08636520 0.08015908
v 0.00214606 0.08668857 0.07876468
v 0.00079638 0.08700146 0.07832830
v 0.00214606 0.08202963 0.09120468
v 0.00212565 0.08417796 0.08704177
v 0.00228383 0.08341594 0.08866350
v 0.00191006 0.08313149 0.08937186
v 0.00228383 0.08279165 0.08986914
f 1 2 5
f 1 5 10
f 1 10 14
f 1 14 18
f 1 18 22
f 1 22 26
f 1 26 33
f 1 33 40
f 1 40 47
f 1 47 60
f 1 60 80
f 1 80 111
f 1 111 147
f 1 147 191
f 1 191 239
f 1 239 293
f 1 293 292
f 1 292 344
f 1 344 343
f 1 343 355
f 1 355 305
f 1 305 303
f 1 303 247
f 1 247 246
f 1 246 245
f 1 245 244
f 1 244 197
f 1 197 152
f 1 152 115
f 1 115 83
f 1 83 62
f 1 62 49
f 1 49 42
f 1 42 37
f 1 37 28
f 1 28 24
f 1 24 20
f 1 20 16
f 1 16 12
f 1 12 8
f 1 8 3
f 1 3 4
f 1 4 2
f 2 4 6
f 2 6 7
f 2 7 5
f 3 8 4
f 4 9 13
f 4 13 17
f 4 17 21
f 4 21 25
f 4 25 32
f 4 32 31
f 4 31 30
f 4 30 29
f 4 29 39
f 4 39 38
f 4 38 46
f 4 46 59
f 4 59 77
f 4 77 106
f 4 106 137
f 4 137 177
f 4 177 221
f 4 221 276
f 4 276 331
f 4 331 373
f 4 373 405
f 4 405 383
f 4 383 381
f 4 381 345
f 4 345 295
f 4 295 294
f 4 294 240
f 4 240 192
f 4 192 148
f 4 148 112
f 4 112 81
f 4 81 61
f 4 61 48
f 4 48 41
f 4 41 36
f 4 36 35
f 4 35 34
f 4 34 27
f 4 27 23
f 4 23 19
f 4 19 15
f 4 15 11
f 4 11 7
f 4 7 6
f 4 8 9
f 5 7 11
f 5 11 10
f 8 12 13
f 8 13 9
f 10 11 15
f 10 15 14
f 12 16 17
f 12 17 13
f 14 15 19
f 14 19 18
f 16 20 21
f 16 21 17
f 18 19 22
f 19 23 22
f 20 24 25
f 20 25 21
f 22 23 27
f 22 27 26
f 24 28 29
f 24 29 30
f 24 30 31
f 24 31 32
f 24 32 25
f 26 27 34
f 26 34 35
f 26 35 36
f 26 36 33
f 28 37 38
f 28 38 39
f 28 39 29
f 33 36 40
f 36 41 40
f 37 42 43
f 37 43 44
f 37 44 38
f 38 45 46
f 38 44 45
f 40 41 47
f 41 48 47
f 42 49 50
f 42 50 51
f 42 51 43
f 43 51 52
f 43 52 44
f 44 52 53
f 44 53 54
f 44 54 45
f 45 55 46
f 45 54 55
f 46 55 56
f 46 56 57
f 46 57 58
f 46 58 59
f 47 48 61
f 47 61 60
f 49 62 63
f 49 63 50
f 50 63 64
f 50 64 51
f 51 64 65
f 51 65 66
f 51 66 52
f 52 66 67
f 52 67 53
f 53 68 69
f 53 69 54
f 53 67 68
f 54 69 70
f 54 70 71
f 54 71 55
f 55 71 56
f 56 71 72
f 56 72 57
f 57 72 73
f 57 73 74
f 57 74 75
f 57 75 58
f 58 75 76
f 58 76 59
f 59 76 77
f 60 78 79
f 60 79 80
f 60 61 78
f 61 81 82
f 61 82 78
f 62 83 63
f 63 83 84
f 63 84 85
f 63 85 86
f 63 86 65
f 63 65 64
f 65 87 88
f 65 88 89
f 65 89 90
f 65 90 66
f 65 86 91
f 65 91 92
f 65 92 93
f 65 93 87
f 66 90 67
f 67 94 68
f 67 90 94
f 68 95 96
f 68 96 69
f 68 94 95
f 69 96 97
f 69 97 70
f 70 97 73
f 70 73 72
f 70 72 71
f 73 98 99
f 73 99 74
f 73 97 100
f 73 100 98
f 74 99 101
f 74 101 102
f 74 102 103
f 74 103 75
f 75 104 105
f 75 105 76
f 75 103 104
f 76 105 77
f 77 105 106
f 78 107 79
f 78 82 108
f 78 108 109
f 78 109 107
f 79 107 110
f 79 110 80
f 80 110 111
f 81 112 113
f 81 113 114
f 81 114 82
f 82 114 108
f 83 115 84
f 84 115 116
f 84 116 85
f 85 92 91
f 85 91 86
f 85 116 117
f 85 117 92
f 87 118 119
f 87 119 120
f 87 120 88
f 87 93 92
f 87 92 121
f 87 121 122
f 87 122 118
f 88 120 89
f 89 120 119
f 89 119 123
f 89 123 124
f 89 124 94
f 89 94 90
f 92 117 125
f 92 125 121
f 94 124 95
f 95 126 96
f 95 124 126
f 96 126 97
f 97 126 127
f 97 127 100
f 98 128 102
f 98 102 99
f 98 100 127
f 98 127 126
f 98 126 129
f 98 129 128
f 99 102 101
f 102 128 130
f 102 130 131
f 102 131 132
f 102 132 133
f 102 133 134
f 102 134 104
f 102 104 103
f 104 134 135
f 104 135 136
f 104 136 137
f 104 137 106
f 104 106 105
f 107 138 139
f 107 139 110
f 107 109 138
f 108 140 141
f 108 141 109
f 108 114 142
f 108 142 140
f 109 141 143
f 109 143 138
f 110 139 144
f 110 144 145
f 110 145 146
f 110 146 111
f 111 146 147
f 112 148 149
f 112 149 150
f 112 150 113
f 113 150 151
f 113 151 142
f 113 142 114
f 115 152 153
f 115 153 116
f 116 153 125
f 116 125 117
f 118 122 154
f 118 154 155
f 118 155 156
f 118 156 119
f 119 156 157
f 119 157 158
f 119 158 123
f 121 125 122
f 122 125 154
f 123 158 124
f 124 158 159
f 124 159 160
f 124 160 126
f 125 153 161
f 125 161 162
f 125 162 163
f 125 163 154
f 126 164 129
f 126 160 165
f 126 165 164
f 128 129 166
f 128 166 167
f 128 167 130
f 129 164 168
f 129 168 169
f 129 169 166
f 130 167 170
f 130 170 131
f 131 171 172
f 131 172 133
f 131 133 132
f 131 170 173
f 131 173 171
f 133 172 174
f 133 174 135
f 133 135 134
f 135 174 175
f 135 175 136
f 136 175 176
f 136 176 137
f 137 176 177
f 138 143 178
f 138 178 179
f 138 179 139
f 139 179 144
f 140 180 141
f 140 142 151
f 140 151 181
f 140 181 180
f 141 182 143
f 141 180 182
f 143 182 183
f 143 183 178
f 144 179 184
f 144 184 185
f 144 185 186
f 144 186 187
f 144 187 188
f 144 188 189
f 144 189 190
f 144 190 191
f 144 191 147
f 144 147 145
f 145 147 146
f 148 192 193
f 148 193 149
f 149 193 194
f 149 194 195
f 149 195 150
f 150 196 181
f 150 181 151
f 150 195 196
f 152 197 153
f 153 197 198
f 153 198 199
f 153 199 200
f 153 200 161
f 154 201 202
f 154 202 155
f 154 163 203
f 154 203 201
f 155 202 204
f 155 204 205
f 155 205 206
f 155 206 207
f 155 207 157
f 155 157 156
f 157 207 158
f 158 208 209
f 158 209 159
f 158 207 208
f 159 209 160
f 160 209 165
f 161 200 162
f 162 200 210
f 162 210 211
f 162 211 163
f 163 211 212
f 163 212 203
f 164 165 213
f 164 213 168
f 165 209 213
f 166 214 167
f 166 169 214
f 167 214 170
f 168 213 214
f 168 214 169
f 170 215 173
f 170 214 216
f 170 216 215
f 171 173 215
f 171 215 217
f 171 217 218
f 171 218 172
f 172 218 174
f 174 219 175
f 174 218 219
f 175 219 220
f 175 220 221
f 175 221 177
f 175 177 176
f 178 222 184
f 178 184 179
f 178 183 222
f 180 181 223
f 180 223 224
f 180 224 225
f 180 225 182
f 181 196 226
f 181 226 227
f 181 227 228
f 181 228 223
f 182 225 183
f 183 225 222
f 184 222 229
f 184 229 230
f 184 230 231
f 184 231 185
f 185 231 186
f 186 231 230
f 186 230 232
f 186 232 233
f 186 233 234
f 186 234 188
f 186 188 187
f 188 235 236
f 188 236 189
f 188 234 235
f 189 236 237
f 189 237 238
f 189 238 191
f 189 191 190
f 191 238 239
f 192 240 193
f 193 240 194
f 194 241 195
f 194 240 241
f 195 241 196
f 196 242 243
f 196 243 226
f 196 241 242
f 197 244 198
f 198 245 246
f 198 246 247
f 198 247 248
f 198 248 199
f 198 244 245
f 199 248 200
f 200 249 250
f 200 250 210
f 200 248 251
f 200 251 249
f 201 252 202
f 201 203 212
f 201 212 253
f 201 253 252
f 202 252 204
f 204 254 255
f 204 255 205
f 204 252 254
f 205 255 256
f 205 256 206
f 206 256 257
f 206 257 258
f 206 258 259
f 206 259 260
f 206 260 208
f 206 208 207
f 208 260 209
f 209 260 261
f 209 261 213
f 210 250 262
f 210 262 211
f 211 262 212
f 212 263 253
f 212 262 263
f 213 264 265
f 213 265 214
f 213 261 259
f 213 259 264
f 214 266 267
f 214 267 216
f 214 265 268
f 214 268 266
f 215 216 267
f 215 267 269
f 215 269 270
f 215 270 217
f 217 271 272
f 217 272 218
f 217 270 273
f 217 273 274
f 217 274 271
f 218 272 275
f 218 275 219
f 219 275 221
f 219 221 220
f 221 275 276
f 222 277 229
f 222 225 278
f 222 278 279
f 222 279 277
f 223 228 224
f 224 228 225
f 225 228 280
f 225 280 281
f 225 281 282
f 225 282 278
f 226 243 227
f 227 243 228
f 228 243 283
f 228 283 280
f 229 277 230
f 230 284 232
f 230 277 285
f 230 285 284
f 232 286 233
f 232 284 287
f 232 287 286
f 233 235 234
f 233 286 235
f 235 288 289
f 235 289 290
f 235 290 291
f 235 291 237
f 235 237 236
f 235 286 288
f 237 291 292
f 237 292 293
f 237 293 238
f 238 293 239
f 240 294 241
f 241 294 295
f 241 295 296
f 241 296 297
f 241 297 298
f 241 298 299
f 241 299 243
f 241 243 242
f 243 299 300
f 243 300 301
f 243 301 302
f 243 302 283
f 247 303 251
f 247 251 248
f 249 251 304
f 249 304 291
f 249 291 290
f 249 290 289
f 249 289 250
f 250 289 262
f 251 303 305
f 251 305 306
f 251 306 291
f 251 291 304
f 252 307 309
f 252 309 254
f 252 253 308
f 252 308 307
f 253 263 308
f 254 309 255
f 255 310 311
f 255 311 312
f 255 312 256
f 255 309 310
f 256 312 313
f 256 313 257
f 257 313 314
f 257 314 258
f 258 314 315
f 258 315 316
f 258 316 268
f 258 268 259
f 259 261 260
f 259 268 264
f 262 288 263
f 262 289 288
f 263 317 318
f 263 318 308
f 263 288 317
f 264 268 265
f 266 268 267
f 267 268 269
f 268 319 320
f 268 320 321
f 268 321 269
f 268 316 319
f 269 321 322
f 269 322 323
f 269 323 270
f 270 323 324
f 270 324 325
f 270 325 326
f 270 326 273
f 271 274 327
f 271 327 272
f 272 328 330
f 272 330 275
f 272 327 328
f 273 326 274
f 274 326 329
f 274 329 327
f 275 330 331
f 275 331 276
f 277 279 332
f 277 332 333
f 277 333 334
f 277 334 335
f 277 335 285
f 278 282 332
f 278 332 279
f 280 336 337
f 280 337 281
f 280 283 336
f 281 338 282
f 281 337 338
f 282 338 332
f 283 302 339
f 283 339 336
f 284 285 287
f 285 335 287
f 286 287 340
f 286 340 307
f 286 307 318
f 286 318 317
f 286 317 288
f 287 341 340
f 287 335 334
f 287 334 342
f 287 342 341
f 291 306 343
f 291 343 344
f 291 344 292
f 295 345 296
f 296 345 297
f 297 346 347
f 297 347 348
f 297 348 298
f 297 345 346
f 298 348 299
f 299 348 349
f 299 349 300
f 300 349 350
f 300 350 351
f 300 351 352
f 300 352 301
f 301 352 302
f 302 352 353
f 302 353 354
f 302 354 336
f 302 336 339
f 305 355 306
f 306 355 343
f 307 308 318
f 307 340 341
f 307 341 309
f 309 341 310
f 310 342 356
f 310 356 311
f 310 341 342
f 311 356 357
f 311 357 358
f 311 358 312
f 312 358 313
f 313 358 359
f 313 359 314
f 314 359 360
f 314 360 315
f 315 360 361
f 315 361 316
f 316 361 319
f 319 362 363
f 319 363 320
f 319 361 362
f 320 363 364
f 320 364 321
f 321 364 322
f 322 365 324
f 322 324 323
f 322 364 365
f 324 365 366
f 324 366 367
f 324 367 325
f 325 367 326
f 326 368 329
f 326 367 368
f 327 369 370
f 327 370 328
f 327 329 371
f 327 371 369
f 328 370 330
f 329 368 371
f 330 372 373
f 330 373 331
f 330 370 372
f 332 374 333
f 332 338 375
f 332 375 374
f 333 374 334
f 334 356 342
f 334 374 376
f 334 376 377
f 334 377 378
f 334 378 356
f 336 354 337
f 337 354 379
f 337 379 338
f 338 379 380
f 338 380 376
f 338 376 375
f 345 381 347
f 345 347 346
f 347 382 348
f 347 381 383
f 347 383 382
f 348 382 349
f 349 382 350
f 350 384 351
f 350 382 384
f 351 384 352
f 352 384 353
f 353 385 354
f 353 384 385
f 354 385 386
f 354 386 387
f 354 387 379
f 356 378 357
f 357 378 388
f 357 388 358
f 358 360 359
f 358 388 389
f 358 389 390
f 358 390 361
f 358 361 360
f 361 390 391
f 361 391 362
f 362 391 392
f 362 392 363
f 363 392 364
f 364 393 394
f 364 394 365
f 364 392 393
f 365 394 366
f 366 394 395
f 366 395 396
f 366 396 397
f 366 397 398
f 366 398 367
f 367 398 368
f 368 399 400
f 368 400 371
f 368 398 399
f 369 371 400
f 369 400 401
f 369 401 402
f 369 402 403
f 369 403 370
f 370 403 404
f 370 404 372
f 372 404 383
f 372 383 405
f 372 405 373
f 374 375 376
f 376 406 377
f 376 380 387
f 376 387 406
f 377 406 388
f 377 388 378
f 379 387 380
f 382 401 384
f 382 383 404
f 382 404 403
f 382 403 401
f 384 398 396
f 384 396 386
f 384 386 385
f 384 401 398
f 386 396 387
f 387 396 407
f 387 407 408
f 387 408 392
f 387 392 409
f 387 409 390
f 387 390 410
f 387 410 406
f 388 406 389
f 389 406 390
f 390 409 391
f 390 406 410
f 391 409 392
f 392 408 393
f 393 407 395
f 393 395 394
f 393 408 407
f 395 407 396
f 396 398 397
f 398 401 399
f 399 401 400
f 401 403 402

