# https://github.com/mikedh/trimesh
v 0.00000670 -0.04872206 0.11497288
v 0.00000670 -0.04807340 0.11485429
v -0.00761284 -0.04732820 0.11494054
v -0.01040217 -0.04732820 0.11498366
v -0.00343160 -0.04872206 0.11497288
v 0.00000670 -0.04939646 0.11478960
v 0.00000670 -0.04732820 0.11471413
v -0.01128773 -0.04590573 0.11470335
v -0.01128773 -0.04732820 0.11497288
v -0.00482572 -0.04872206 0.11496210
v -0.00064227 -0.04998362 0.11462788
v 0.00000670 -0.04998290 0.11462788
v 0.00000670 -0.04657370 0.11436912
v -0.01128773 -0.04517053 0.11436912
v -0.00900806 -0.04872206 0.11483272
v -0.00761284 -0.04872206 0.11489741
v -0.00621872 -0.04872206 0.11494054
v -0.01128773 -0.04868916 0.11462788
v -0.00343160 -0.04991067 0.11460631
v -0.00064227 -0.05068019 0.11418584
v 0.00000670 -0.05067948 0.11418584
v 0.00000670 -0.04637416 0.11402412
v -0.01128773 -0.04472999 0.11364677
v -0.01050057 -0.04884721 0.11463866
v -0.00900806 -0.04961101 0.11446616
v -0.00761284 -0.04971114 0.11453085
v -0.00621872 -0.04979839 0.11457397
v -0.00482572 -0.04986562 0.11459553
v -0.01128773 -0.04935784 0.11425053
v -0.01103124 -0.04939503 0.11429366
v -0.01010146 -0.04951232 0.11439069
v -0.00343160 -0.05060724 0.11407803
v -0.00343160 -0.05105136 0.11337723
v -0.00203638 -0.05108569 0.11343114
v -0.00064227 -0.05111859 0.11348505
v 0.00000670 -0.05111788 0.11348505
v 0.00000670 -0.04614459 0.11361443
v -0.01128773 -0.04456193 0.11310770
v -0.00621872 -0.05049568 0.11385162
v -0.00482572 -0.05056291 0.11400256
v -0.01128773 -0.04950517 0.11401334
v -0.01128773 -0.04976549 0.11357130
v -0.01050057 -0.04982914 0.11374380
v -0.00718167 -0.05085326 0.11301067
v -0.00482572 -0.05100560 0.11330176
v -0.00064227 -0.05148547 0.11222362
v 0.00000670 -0.05148404 0.11222362
v 0.00000670 -0.04579345 0.11222362
v -0.01128773 -0.04426943 0.11214816
v -0.00621872 -0.05092478 0.11315083
v -0.01128773 -0.05015097 0.11222362
v -0.00811145 -0.05075314 0.11260098
v -0.00763384 -0.05089402 0.11216972
v -0.00621872 -0.05109856 0.11222362
v -0.00482572 -0.05125948 0.11222362
v -0.00343160 -0.05135174 0.11222362
v -0.00203638 -0.05141968 0.11222362
v -0.00064227 -0.05154769 0.11083282
v 0.00000670 -0.05154626 0.11083282
v -0.01128773 -0.04424153 0.11032610
v -0.01128773 -0.04424225 0.11083282
v -0.01128773 -0.04425655 0.11155518
v 0.00000670 -0.04581419 0.00486241
v -0.01128773 -0.04424153 0.00625321
v -0.01128773 -0.05017528 0.11133955
v -0.00839447 -0.05082608 0.11167377
v -0.00621872 -0.05116150 0.11083282
v -0.00482572 -0.05132242 0.11083282
v -0.00343160 -0.05141396 0.11083282
v -0.00203638 -0.05148190 0.11083282
v -0.00205407 -0.05148118 0.00484085
v -0.00064227 -0.05154769 0.00484085
v 0.00000670 -0.05154626 0.00484085
v 0.00000670 -0.04582134 0.00484085
v -0.01128773 -0.04424868 0.00484085
v -0.01128773 -0.04424439 0.00486241
v -0.01128773 -0.04424225 0.00575727
v -0.00843648 -0.05083252 0.11083282
v -0.01128773 -0.05017242 0.00485163
v -0.00843648 -0.05083252 0.00484085
v -0.00761284 -0.05095481 0.11083282
v -0.00762389 -0.05095338 0.00484085
v -0.00621872 -0.05116150 0.00484085
v -0.00482572 -0.05132242 0.00484085
v -0.00343160 -0.05141396 0.00484085
v -0.01128773 -0.04967180 0.00484085
v -0.01041986 -0.05028399 0.00484085
f 1 2 3
f 1 3 4
f 1 4 5
f 1 5 6
f 1 6 12
f 1 12 21
f 1 21 36
f 1 36 47
f 1 47 59
f 1 59 73
f 1 73 74
f 1 74 63
f 1 63 48
f 1 48 37
f 1 37 22
f 1 22 13
f 1 13 7
f 1 7 2
f 2 7 3
f 3 7 8
f 3 8 4
f 4 9 10
f 4 10 5
f 4 8 9
f 5 10 11
f 5 11 6
f 6 11 12
f 7 13 14
f 7 14 8
f 8 14 23
f 8 23 38
f 8 38 49
f 8 49 62
f 8 62 61
f 8 61 60
f 8 60 64
f 8 64 77
f 8 77 76
f 8 76 75
f 8 75 86
f 8 86 79
f 8 79 65
f 8 65 51
f 8 51 42
f 8 42 41
f 8 41 29
f 8 29 18
f 8 18 9
f 9 15 16
f 9 16 17
f 9 17 10
f 9 18 15
f 10 17 11
f 11 19 20
f 11 20 21
f 11 21 12
f 11 17 19
f 13 22 23
f 13 23 14
f 15 18 24
f 15 24 25
f 15 25 26
f 15 26 27
f 15 27 16
f 16 27 28
f 16 28 17
f 17 28 19
f 18 29 30
f 18 30 31
f 18 31 25
f 18 25 24
f 19 28 20
f 20 28 27
f 20 27 32
f 20 32 33
f 20 33 34
f 20 34 35
f 20 35 36
f 20 36 21
f 22 37 23
f 23 37 38
f 25 31 39
f 25 39 40
f 25 40 26
f 26 40 27
f 27 40 32
f 29 41 30
f 30 41 42
f 30 42 43
f 30 43 31
f 31 43 44
f 31 44 39
f 32 40 33
f 33 40 45
f 33 45 46
f 33 46 34
f 34 46 35
f 35 46 36
f 36 46 47
f 37 48 49
f 37 49 38
f 39 44 50
f 39 50 45
f 39 45 40
f 42 44 43
f 42 51 44
f 44 52 53
f 44 53 54
f 44 54 55
f 44 55 50
f 44 51 52
f 45 50 55
f 45 55 56
f 45 56 57
f 45 57 46
f 46 57 70
f 46 70 58
f 46 58 59
f 46 59 47
f 48 60 61
f 48 61 62
f 48 62 49
f 48 63 64
f 48 64 60
f 51 65 66
f 51 66 52
f 52 66 53
f 53 66 54
f 54 66 67
f 54 67 68
f 54 68 55
f 55 68 56
f 56 68 69
f 56 69 70
f 56 70 57
f 58 70 71
f 58 71 72
f 58 72 73
f 58 73 59
f 63 74 75
f 63 75 76
f 63 76 77
f 63 77 64
f 65 78 66
f 65 79 80
f 65 80 78
f 66 78 81
f 66 81 67
f 67 81 82
f 67 82 83
f 67 83 84
f 67 84 68
f 68 84 85
f 68 85 69
f 69 85 71
f 69 71 70
f 71 85 84
f 71 84 83
f 71 83 82
f 71 82 80
f 71 80 87
f 71 87 86
f 71 86 75
f 71 75 74
f 71 74 73
f 71 73 72
f 78 80 82
f 78 82 81
f 79 86 87
f 79 87 80

