# https://github.com/mikedh/trimesh
v -0.03386081 0.03045145 0.11083569
v -0.03394538 0.03045145 0.11222652
v -0.04110811 0.01980315 0.11222652
v -0.04110006 0.01980315 0.11196777
v -0.04106650 0.01980315 0.11083569
v -0.03386081 0.03045145 0.00495943
v -0.03398028 0.03045145 0.11236669
v -0.04136450 0.01980315 0.11316453
v -0.04106650 0.01980315 0.00486239
v -0.03386216 0.03045145 0.00486239
v -0.03437359 0.03045145 0.11339095
v -0.04144504 0.01980315 0.11340173
v -0.04107589 0.01980315 0.00485161
v -0.03387155 0.03045145 0.00484083
v -0.03451856 0.03045145 0.11359580
v -0.04183163 0.01980315 0.11400551
v -0.04128530 0.01980315 0.00484083
v -0.04064366 0.02071205 0.00484083
v -0.04153363 0.03045145 0.00484083
v -0.03479374 0.03045145 0.11393003
v -0.04191620 0.01980315 0.11412411
v -0.04757417 0.01980315 0.00484083
v -0.04179270 0.03010227 0.00484083
v -0.04153363 0.03045145 0.11083569
v -0.03496422 0.03045145 0.11412411
v -0.04179270 0.02032639 0.11430739
v -0.04242226 0.01980315 0.11451224
v -0.04757417 0.01980315 0.11083569
v -0.04736342 0.02032014 0.00484083
v -0.04180613 0.03008351 0.00484083
v -0.04179942 0.03009289 0.11083569
v -0.04152692 0.03045145 0.11123461
v -0.03564344 0.03045145 0.11455537
v -0.04261153 0.01980315 0.11459850
v -0.04757148 0.01980315 0.11104053
v -0.04736073 0.02031493 0.11157962
v -0.04736342 0.02032014 0.11083569
v -0.04735939 0.02032952 0.00484083
v -0.04297665 0.02840955 0.00484083
v -0.04297665 0.02840955 0.11083569
v -0.04179136 0.03008351 0.11166588
v -0.04147323 0.03045145 0.11200011
v -0.03579513 0.03045145 0.11462006
v -0.04363037 0.01980315 0.11491116
v -0.04752718 0.01980315 0.11202168
v -0.04599020 0.02315628 0.11183838
v -0.04600631 0.02318859 0.11083569
v -0.04638217 0.02239435 0.11083569
v -0.04728422 0.02020757 0.11251763
v -0.04625196 0.02251421 0.11226965
v -0.04639022 0.02237767 0.00484083
v -0.04343439 0.02771224 0.00484083
v -0.04343439 0.02771224 0.11083569
v -0.04295383 0.02834910 0.11222652
v -0.04216990 0.02947584 0.11217261
v -0.04172022 0.03001367 0.11259310
v -0.04145041 0.03045145 0.11217261
v -0.03688645 0.03045145 0.11488960
v -0.03720727 0.03045145 0.11495429
v -0.04386931 0.01980315 0.11495429
v -0.04750168 0.01980315 0.11220496
v -0.04492841 0.02509499 0.11222652
v -0.04566267 0.02388590 0.11083569
v -0.04592846 0.02305934 0.11276561
v -0.04567341 0.02368786 0.11226965
v -0.04600228 0.02319693 0.00484083
v -0.04600631 0.02318859 0.00484083
v -0.04737953 0.01980315 0.11280873
v -0.04495929 0.02516378 0.00484083
v -0.04496465 0.02515440 0.11083569
v -0.04339814 0.02765179 0.11222652
v -0.04329747 0.02748502 0.11314297
v -0.04208131 0.02908393 0.11335861
v -0.04108663 0.03045145 0.11321844
v -0.04143430 0.03045145 0.11229122
v -0.03829188 0.03045145 0.11494351
v -0.03829188 0.02936535 0.11497586
v -0.04386931 0.02099973 0.11497586
v -0.04506533 0.01980315 0.11490038
v -0.04478344 0.02485213 0.11327235
v -0.04497405 0.02513876 0.00484083
v -0.04566267 0.02388590 0.00484083
v -0.04616471 0.02212960 0.11327235
v -0.04696072 0.01980315 0.11364971
v -0.04297665 0.02696073 0.11407020
v -0.04252831 0.02805620 0.11371440
v -0.04088662 0.03045145 0.11360658
v -0.04174170 0.02862635 0.11428583
v -0.03968657 0.02797178 0.11498664
v -0.03860196 0.03045145 0.11492195
v -0.04247461 0.02378896 0.11497586
v -0.04386931 0.02239435 0.11491116
v -0.04527339 0.01980315 0.11485726
v -0.04504788 0.02382440 0.11369284
v -0.04445188 0.02431221 0.11419957
v -0.04639559 0.02102057 0.11369284
v -0.04584523 0.02149900 0.11419957
v -0.04689226 0.01980315 0.11374675
v -0.04326257 0.02603098 0.11438287
v -0.04037922 0.03045145 0.11427505
v -0.04204641 0.02769661 0.11447990
v -0.04047587 0.03018774 0.11438287
v -0.04107992 0.02657716 0.11496507
v -0.03968657 0.02936535 0.11485726
v -0.03967718 0.03045145 0.11462006
v -0.04247461 0.02518254 0.11485726
v -0.04393911 0.02382440 0.11464162
v -0.04494184 0.02239435 0.11454459
v -0.04624390 0.01980315 0.11450146
v -0.04471767 0.02338246 0.11442599
v -0.04608685 0.02056925 0.11440443
v -0.04350285 0.02518254 0.11450146
v -0.04006108 0.03045145 0.11447990
v -0.04249609 0.02652817 0.11458771
v -0.04119805 0.02808539 0.11467397
v -0.04077387 0.02936535 0.11451224
v -0.03987718 0.03045145 0.11455537
f 1 2 3
f 1 3 4
f 1 4 5
f 1 5 9
f 1 9 6
f 1 6 10
f 1 10 14
f 1 14 19
f 1 19 24
f 1 24 32
f 1 32 42
f 1 42 57
f 1 57 75
f 1 75 74
f 1 74 87
f 1 87 100
f 1 100 113
f 1 113 117
f 1 117 105
f 1 105 90
f 1 90 76
f 1 76 59
f 1 59 58
f 1 58 43
f 1 43 33
f 1 33 25
f 1 25 20
f 1 20 15
f 1 15 11
f 1 11 7
f 1 7 2
f 2 7 3
f 3 7 8
f 3 8 12
f 3 12 16
f 3 16 21
f 3 21 27
f 3 27 34
f 3 34 44
f 3 44 60
f 3 60 79
f 3 79 93
f 3 93 109
f 3 109 98
f 3 98 84
f 3 84 68
f 3 68 61
f 3 61 45
f 3 45 35
f 3 35 28
f 3 28 22
f 3 22 17
f 3 17 13
f 3 13 9
f 3 9 5
f 3 5 4
f 6 9 10
f 7 11 12
f 7 12 8
f 9 13 14
f 9 14 10
f 11 15 16
f 11 16 12
f 13 17 18
f 13 18 14
f 14 18 17
f 14 17 22
f 14 22 29
f 14 29 38
f 14 38 51
f 14 51 67
f 14 67 66
f 14 66 82
f 14 82 81
f 14 81 69
f 14 69 52
f 14 52 39
f 14 39 30
f 14 30 23
f 14 23 19
f 15 20 21
f 15 21 16
f 19 23 24
f 20 25 21
f 21 25 26
f 21 26 27
f 22 28 37
f 22 37 29
f 23 30 31
f 23 31 24
f 24 31 32
f 25 33 27
f 25 27 26
f 27 33 34
f 28 35 36
f 28 36 37
f 29 37 38
f 30 39 40
f 30 40 31
f 31 40 41
f 31 41 32
f 32 41 42
f 33 43 34
f 34 43 44
f 35 45 36
f 36 46 47
f 36 47 48
f 36 48 37
f 36 45 49
f 36 49 50
f 36 50 46
f 37 48 38
f 38 48 51
f 39 52 53
f 39 53 40
f 40 53 54
f 40 54 41
f 41 54 55
f 41 55 56
f 41 56 57
f 41 57 42
f 43 58 44
f 44 58 59
f 44 59 60
f 45 61 49
f 46 62 63
f 46 63 47
f 46 50 64
f 46 64 65
f 46 65 62
f 47 63 66
f 47 66 67
f 47 67 51
f 47 51 48
f 49 68 64
f 49 64 50
f 49 61 68
f 52 69 53
f 53 70 62
f 53 62 71
f 53 71 54
f 53 69 70
f 54 71 72
f 54 72 56
f 54 56 55
f 56 72 73
f 56 73 74
f 56 74 75
f 56 75 57
f 59 76 77
f 59 77 60
f 60 77 78
f 60 78 79
f 62 70 63
f 62 65 64
f 62 64 80
f 62 80 72
f 62 72 71
f 63 70 81
f 63 81 82
f 63 82 66
f 64 68 83
f 64 83 80
f 68 84 83
f 69 81 70
f 72 80 85
f 72 85 86
f 72 86 73
f 73 87 74
f 73 86 88
f 73 88 87
f 76 89 77
f 76 90 89
f 77 89 78
f 78 89 91
f 78 91 92
f 78 92 79
f 79 92 93
f 80 83 94
f 80 94 95
f 80 95 85
f 83 84 96
f 83 96 97
f 83 97 94
f 84 98 97
f 84 97 96
f 85 95 99
f 85 99 88
f 85 88 86
f 87 88 100
f 88 99 101
f 88 101 102
f 88 102 100
f 89 90 103
f 89 103 91
f 90 104 103
f 90 105 104
f 91 103 92
f 92 106 107
f 92 107 108
f 92 108 93
f 92 103 106
f 93 108 109
f 94 97 95
f 95 97 110
f 95 110 99
f 97 98 111
f 97 111 110
f 98 109 111
f 99 110 112
f 99 112 101
f 100 102 113
f 101 112 114
f 101 114 115
f 101 115 116
f 101 116 102
f 102 116 113
f 103 104 106
f 104 105 115
f 104 115 106
f 105 117 115
f 106 115 114
f 106 114 107
f 107 114 112
f 107 112 110
f 107 110 108
f 108 110 111
f 108 111 109
f 113 116 117
f 115 117 116

