# https://github.com/mikedh/trimesh
v 0.02006787 -0.04095483 0.00484032
v 0.02006787 -0.04739474 0.00484032
v 0.02006787 -0.04337692 0.00075579
v 0.00000670 -0.04759900 0.00075579
v 0.00000670 -0.04622309 0.00383069
v 0.00000670 -0.04582079 0.00484032
v 0.02006787 -0.04739474 0.00346402
v 0.01844193 -0.04811743 0.00484032
v 0.02006787 -0.04705362 0.00075579
v 0.00000670 -0.05115126 0.00075579
v 0.00000670 -0.05154631 0.00484032
v 0.02006787 -0.04738645 0.00206972
v 0.01844193 -0.04811743 0.00346402
v 0.01748561 -0.04845959 0.00484032
v 0.02006787 -0.04733978 0.00188179
v 0.01831232 -0.04807077 0.00126081
v 0.01880914 -0.04759174 0.00075579
v 0.00000670 -0.05152246 0.00206972
v 0.00010881 -0.05115126 0.00075579
v 0.00075290 -0.05154423 0.00484032
v 0.00000670 -0.05154631 0.00346402
v 0.01840854 -0.04810498 0.00206972
v 0.01748561 -0.04845959 0.00346402
v 0.01748561 -0.04843574 0.00206972
v 0.01432797 -0.04951096 0.00484032
v 0.01416499 -0.04946534 0.00125761
v 0.01748561 -0.04821800 0.00097692
v 0.01748561 -0.04809773 0.00075579
v 0.01788620 -0.04795049 0.00075579
v 0.00000670 -0.05153387 0.00271829
v 0.00075290 -0.05152143 0.00206972
v 0.00071756 -0.05115023 0.00075579
v 0.00212946 -0.05147684 0.00484032
v 0.00075290 -0.05154423 0.00346402
v 0.01432797 -0.04951096 0.00346402
v 0.01428870 -0.04949956 0.00206972
v 0.01431619 -0.04951407 0.00484032
v 0.01330096 -0.04957524 0.00102730
v 0.01330096 -0.04942801 0.00075579
v 0.01369763 -0.04931914 0.00075579
v 0.01464609 -0.04903090 0.00075579
v 0.01730102 -0.04816305 0.00075579
v 0.01330096 -0.04975358 0.00206972
v 0.01190673 -0.05008019 0.00206972
v 0.00836814 -0.05079355 0.00162508
v 0.00743931 -0.05087339 0.00122203
v 0.00214910 -0.05112638 0.00075579
v 0.00268126 -0.05110876 0.00075579
v 0.00354332 -0.05108698 0.00078978
v 0.00214910 -0.05145299 0.00206972
v 0.00352565 -0.05140841 0.00484032
v 0.00214910 -0.05147580 0.00346402
v 0.01330096 -0.04977743 0.00346402
v 0.01330096 -0.04977743 0.00484032
v 0.01237213 -0.04965716 0.00075579
v 0.01300837 -0.04950163 0.00075579
v 0.01190673 -0.05008849 0.00346402
v 0.00848989 -0.05082362 0.00346402
v 0.00846632 -0.05082051 0.00255475
v 0.00783205 -0.05089931 0.00208172
v 0.00633178 -0.05112016 0.00206972
v 0.00493755 -0.05128709 0.00206972
v 0.00633178 -0.05095530 0.00104049
v 0.00780848 -0.05056337 0.00075579
v 0.01059301 -0.05002628 0.00075579
v 0.00348049 -0.05107246 0.00075579
v 0.00354332 -0.05138456 0.00206972
v 0.00354332 -0.05106935 0.00075579
v 0.00493755 -0.05103825 0.00087615
v 0.00354332 -0.05140737 0.00346402
v 0.00354332 -0.05140737 0.00484032
v 0.01328328 -0.04978158 0.00484032
v 0.01190673 -0.05008849 0.00484032
v 0.00848989 -0.05082362 0.00484032
v 0.00770833 -0.05093974 0.00484032
v 0.00633178 -0.05114401 0.00346402
v 0.00493755 -0.05130991 0.00346402
v 0.00633178 -0.05080185 0.00075579
v 0.00472351 -0.05098951 0.00075579
v 0.00493755 -0.05097292 0.00075579
v 0.00491988 -0.05131198 0.00484032
v 0.00633178 -0.05114401 0.00484032
v 0.00493755 -0.05130991 0.00484032
f 1 2 7
f 1 7 12
f 1 12 15
f 1 15 9
f 1 9 3
f 1 3 4
f 1 4 5
f 1 5 6
f 1 6 11
f 1 11 20
f 1 20 33
f 1 33 51
f 1 51 71
f 1 71 81
f 1 81 83
f 1 83 82
f 1 82 75
f 1 75 74
f 1 74 73
f 1 73 72
f 1 72 54
f 1 54 37
f 1 37 25
f 1 25 14
f 1 14 8
f 1 8 2
f 2 8 13
f 2 13 7
f 3 9 17
f 3 17 29
f 3 29 28
f 3 28 42
f 3 42 41
f 3 41 40
f 3 40 39
f 3 39 56
f 3 56 55
f 3 55 65
f 3 65 64
f 3 64 78
f 3 78 80
f 3 80 79
f 3 79 68
f 3 68 66
f 3 66 48
f 3 48 47
f 3 47 32
f 3 32 19
f 3 19 10
f 3 10 4
f 4 10 18
f 4 18 30
f 4 30 21
f 4 21 11
f 4 11 6
f 4 6 5
f 7 13 12
f 8 14 23
f 8 23 13
f 9 15 16
f 9 16 17
f 10 19 18
f 11 21 34
f 11 34 20
f 12 13 22
f 12 22 16
f 12 16 15
f 13 23 24
f 13 24 22
f 14 25 35
f 14 35 23
f 16 22 24
f 16 24 26
f 16 26 27
f 16 27 28
f 16 28 29
f 16 29 17
f 18 19 31
f 18 31 30
f 19 32 31
f 20 34 33
f 21 30 31
f 21 31 34
f 23 35 24
f 24 35 36
f 24 36 26
f 25 37 35
f 26 38 39
f 26 39 40
f 26 40 41
f 26 41 42
f 26 42 27
f 26 36 43
f 26 43 44
f 26 44 45
f 26 45 46
f 26 46 38
f 27 42 28
f 31 32 47
f 31 47 48
f 31 48 49
f 31 49 50
f 31 50 52
f 31 52 34
f 33 34 52
f 33 52 51
f 35 37 53
f 35 53 36
f 36 53 43
f 37 54 53
f 38 55 56
f 38 56 39
f 38 46 55
f 43 53 44
f 44 53 57
f 44 57 58
f 44 58 59
f 44 59 45
f 45 59 60
f 45 60 61
f 45 61 46
f 46 61 62
f 46 62 63
f 46 63 64
f 46 64 65
f 46 65 55
f 48 66 49
f 49 67 50
f 49 66 68
f 49 68 69
f 49 69 67
f 50 67 70
f 50 70 52
f 51 70 71
f 51 52 70
f 53 54 72
f 53 72 57
f 57 72 73
f 57 73 74
f 57 74 58
f 58 74 75
f 58 75 76
f 58 76 59
f 59 76 61
f 59 61 60
f 61 76 62
f 62 69 63
f 62 76 77
f 62 77 70
f 62 70 67
f 62 67 69
f 63 78 64
f 63 69 78
f 68 79 69
f 69 80 78
f 69 79 80
f 70 77 81
f 70 81 71
f 75 82 76
f 76 82 83
f 76 83 77
f 77 83 81

