# https://github.com/mikedh/trimesh
v 0.00747475 0.05084277 0.00484084
v 0.00747475 0.05084277 0.00346370
v 0.00747475 0.04483281 0.00484084
v 0.01190833 0.04997853 0.00484084
v 0.00747475 0.05083240 0.00214893
v 0.01190833 0.04997853 0.00346370
v 0.03118628 0.03318451 0.00484084
v 0.00747475 0.04486219 0.00468729
v 0.01319198 0.04970715 0.00484084
v 0.00747475 0.05082030 0.00192621
v 0.01051558 0.05023780 0.00206976
v 0.01319198 0.04970715 0.00346370
v 0.01313859 0.04969678 0.00206976
v 0.01190833 0.04995433 0.00206976
v 0.03118628 0.03319315 0.00480645
v 0.03118628 0.04097828 0.00484084
v 0.00747475 0.04511628 0.00381358
v 0.01609354 0.04886538 0.00484084
v 0.00747475 0.05060770 0.00097532
v 0.01292735 0.04965184 0.00120924
v 0.01609354 0.04886538 0.00346370
v 0.01609354 0.04885674 0.00206976
v 0.03118628 0.03369096 0.00389276
v 0.03118628 0.04097828 0.00346370
v 0.03079631 0.04126693 0.00484084
v 0.00747475 0.04688971 0.00075579
v 0.00813630 0.04650772 0.00075579
v 0.01747468 0.04843498 0.00484084
v 0.00747475 0.05051090 0.00075579
v 0.01190833 0.04975728 0.00098572
v 0.01720309 0.04833646 0.00106089
v 0.01640226 0.04844535 0.00075579
v 0.01464740 0.04893797 0.00075579
v 0.01332197 0.04930441 0.00075579
v 0.01314555 0.04934590 0.00075579
v 0.01190833 0.04963283 0.00075579
v 0.01747468 0.04843498 0.00346370
v 0.01744218 0.04842288 0.00206976
v 0.03008137 0.03638568 0.00075579
v 0.03118628 0.03634246 0.00075579
v 0.03118628 0.04095062 0.00206976
v 0.03077774 0.04125310 0.00206976
v 0.03079631 0.04126693 0.00346370
v 0.02845185 0.04294703 0.00484084
v 0.01889992 0.04788359 0.00484084
v 0.01103322 0.04981605 0.00075579
v 0.02022536 0.04700725 0.00075579
v 0.01747932 0.04805299 0.00075579
v 0.02110975 0.04686033 0.00122484
v 0.01888135 0.04789051 0.00346370
v 0.01888135 0.04786804 0.00206976
v 0.03118628 0.04036466 0.00075579
v 0.03118628 0.04093506 0.00177946
v 0.03074989 0.04123409 0.00134320
v 0.02912966 0.04243366 0.00206976
v 0.02845185 0.04294703 0.00346370
v 0.02735158 0.04363496 0.00484084
v 0.02027410 0.04734085 0.00484084
v 0.02027410 0.04734085 0.00346370
v 0.02310834 0.04564174 0.00075579
v 0.02120260 0.04690527 0.00206976
v 0.02403684 0.04554840 0.00206976
v 0.02392774 0.04549136 0.00117486
v 0.02027410 0.04732529 0.00206976
v 0.03118628 0.04055479 0.00075939
v 0.02999548 0.04141731 0.00075579
v 0.03118628 0.04064986 0.00091414
v 0.02970301 0.04162819 0.00075579
v 0.02825687 0.04281739 0.00099451
v 0.02658093 0.04402733 0.00132721
v 0.02843096 0.04293320 0.00206976
v 0.02731676 0.04363151 0.00206976
v 0.02733765 0.04364361 0.00346370
v 0.02733765 0.04364361 0.00484084
v 0.02122813 0.04691737 0.00484084
v 0.02122813 0.04691737 0.00346370
v 0.02435717 0.04500220 0.00075579
v 0.02405773 0.04556050 0.00346370
v 0.02473322 0.04515604 0.00206976
v 0.02574064 0.04421401 0.00078738
v 0.02850988 0.04248725 0.00075579
v 0.02741890 0.04319247 0.00075579
v 0.02714963 0.04335668 0.00075579
v 0.02585206 0.04450094 0.00206976
v 0.02662039 0.04404980 0.00206976
v 0.02664128 0.04406190 0.00346370
v 0.02664128 0.04406190 0.00484084
v 0.02405773 0.04556050 0.00484084
v 0.02571975 0.04420710 0.00075579
v 0.02475643 0.04515949 0.00346370
v 0.02624667 0.04389424 0.00075579
v 0.02475643 0.04515949 0.00484084
f 1 2 5
f 1 5 10
f 1 10 19
f 1 19 29
f 1 29 26
f 1 26 17
f 1 17 8
f 1 8 3
f 1 3 7
f 1 7 16
f 1 16 25
f 1 25 44
f 1 44 57
f 1 57 74
f 1 74 87
f 1 87 92
f 1 92 88
f 1 88 75
f 1 75 58
f 1 58 45
f 1 45 28
f 1 28 18
f 1 18 9
f 1 9 4
f 1 4 6
f 1 6 2
f 2 6 5
f 3 8 7
f 4 9 12
f 4 12 6
f 5 6 11
f 5 11 10
f 6 12 13
f 6 13 14
f 6 14 11
f 7 15 23
f 7 23 40
f 7 40 52
f 7 52 65
f 7 65 67
f 7 67 53
f 7 53 41
f 7 41 24
f 7 24 16
f 7 8 15
f 8 17 15
f 9 18 21
f 9 21 12
f 10 11 20
f 10 20 19
f 11 14 20
f 12 21 22
f 12 22 13
f 13 20 14
f 13 22 20
f 15 17 23
f 16 24 43
f 16 43 25
f 17 26 27
f 17 27 23
f 18 28 37
f 18 37 21
f 19 20 30
f 19 30 29
f 20 22 31
f 20 31 32
f 20 32 33
f 20 33 34
f 20 34 35
f 20 35 36
f 20 36 30
f 21 37 22
f 22 37 38
f 22 38 31
f 23 39 40
f 23 27 39
f 24 41 42
f 24 42 43
f 25 43 56
f 25 56 44
f 26 29 46
f 26 46 36
f 26 36 35
f 26 35 34
f 26 34 33
f 26 33 32
f 26 32 48
f 26 48 47
f 26 47 60
f 26 60 77
f 26 77 89
f 26 89 91
f 26 91 83
f 26 83 82
f 26 82 81
f 26 81 68
f 26 68 66
f 26 66 52
f 26 52 40
f 26 40 39
f 26 39 27
f 28 45 37
f 29 30 46
f 30 36 46
f 31 47 48
f 31 48 32
f 31 38 49
f 31 49 47
f 37 45 50
f 37 50 51
f 37 51 38
f 38 51 49
f 41 53 42
f 42 53 54
f 42 54 55
f 42 55 56
f 42 56 43
f 44 56 57
f 45 58 59
f 45 59 50
f 47 49 60
f 49 61 62
f 49 62 63
f 49 63 60
f 49 51 64
f 49 64 61
f 50 59 64
f 50 64 51
f 52 66 65
f 53 67 54
f 54 67 65
f 54 65 66
f 54 66 68
f 54 68 69
f 54 69 70
f 54 70 71
f 54 71 55
f 55 71 56
f 56 71 72
f 56 72 73
f 56 73 57
f 57 73 74
f 58 75 76
f 58 76 59
f 59 76 64
f 60 63 77
f 61 76 62
f 61 64 76
f 62 76 78
f 62 78 79
f 62 79 70
f 62 70 63
f 63 70 80
f 63 80 77
f 68 81 69
f 69 81 82
f 69 82 83
f 69 83 70
f 70 79 84
f 70 84 85
f 70 85 72
f 70 72 71
f 70 83 80
f 72 85 86
f 72 86 73
f 73 86 87
f 73 87 74
f 75 88 78
f 75 78 76
f 77 80 89
f 78 88 92
f 78 92 90
f 78 90 79
f 79 90 86
f 79 86 84
f 80 83 91
f 80 91 89
f 84 86 85
f 86 90 92
f 86 92 87

