# https://github.com/mikedh/trimesh
v -0.03372914 -0.03062407 0.10943600
v -0.03971678 -0.02239868 0.11082686
v -0.03373038 -0.03062407 0.11082686
v -0.03372914 -0.03062407 0.00588669
v -0.03972545 -0.02239868 0.11105328
v -0.03971678 -0.02239868 0.00625328
v -0.03977380 -0.02239868 0.11222851
v -0.03379609 -0.03062407 0.11192662
v -0.03373038 -0.03062407 0.00486241
v -0.03972049 -0.02239868 0.00509962
v -0.03381468 -0.03062407 0.11222851
v -0.04009240 -0.02239868 0.11331748
v -0.03373162 -0.03062407 0.00484085
v -0.03972173 -0.02239868 0.00486241
v -0.03428452 -0.03062407 0.11343608
v -0.04057587 -0.02239868 0.11403987
v -0.04142629 -0.03062407 0.00484085
v -0.03972545 -0.02239868 0.00484085
v -0.03439981 -0.03062407 0.11358702
v -0.04127257 -0.02239868 0.11457896
v -0.04041719 -0.02296958 0.11428785
v -0.04187133 -0.03002418 0.00484085
v -0.04142629 -0.03062407 0.11082686
v -0.04639367 -0.02239868 0.00484085
v -0.03508659 -0.03020697 0.11398595
v -0.03551551 -0.03062407 0.11454661
v -0.04247381 -0.02239868 0.11493476
v -0.03553287 -0.03062407 0.11455739
v -0.04349282 -0.02764312 0.00484085
v -0.04187133 -0.03002418 0.11082686
v -0.04134943 -0.03062407 0.11222851
v -0.04639367 -0.02239868 0.11082686
v -0.04605276 -0.02311935 0.00484085
v -0.04387960 -0.02239868 0.11490242
v -0.04247381 -0.02362262 0.11498867
v -0.03829239 -0.02919963 0.11496711
v -0.03689775 -0.03059428 0.11492398
v -0.03601138 -0.03062407 0.11468678
v -0.04418085 -0.02649567 0.00484085
v -0.04349282 -0.02764312 0.11082686
v -0.04183290 -0.02997184 0.11222851
v -0.04299324 -0.02828005 0.11222851
v -0.04090934 -0.03062407 0.11344686
v -0.04178827 -0.02991225 0.11294011
v -0.04605276 -0.02311935 0.11082686
v -0.04601804 -0.02304688 0.11222851
v -0.04633788 -0.02239868 0.11195896
v -0.04570812 -0.02381668 0.00484085
v -0.04396514 -0.02369912 0.11465443
v -0.04247381 -0.02501728 0.11489163
v -0.04108042 -0.02641193 0.11497789
v -0.04495068 -0.02239868 0.11453583
v -0.03968702 -0.02780497 0.11497789
v -0.03829239 -0.03059428 0.11496711
v -0.03689775 -0.03062407 0.11492398
v -0.04460729 -0.02578385 0.00484085
v -0.04460729 -0.02578385 0.11082686
v -0.04345563 -0.02758273 0.11222851
v -0.04459366 -0.02576050 0.11179723
v -0.04074942 -0.03062407 0.11367328
v -0.04098372 -0.03046464 0.11351156
v -0.04145356 -0.02945972 0.11387813
v -0.04179695 -0.02853048 0.11433098
v -0.04199530 -0.02907723 0.11348999
v -0.04333663 -0.02738384 0.11319888
v -0.04570812 -0.02381668 0.11082686
v -0.04567465 -0.02374421 0.11222851
v -0.04632424 -0.02239868 0.11222851
v -0.04597590 -0.02295831 0.11295089
v -0.04505234 -0.02501728 0.00484085
v -0.04251596 -0.02640226 0.11461130
v -0.04474738 -0.02328523 0.11443880
v -0.04356349 -0.02501728 0.11452505
v -0.03968702 -0.02919963 0.11489163
v -0.04108042 -0.02780497 0.11479459
v -0.04563251 -0.02239868 0.11388891
v -0.03829363 -0.03062407 0.11495633
v -0.03970190 -0.03056851 0.11460052
v -0.03967834 -0.03062407 0.11458974
v -0.04505234 -0.02501728 0.11082686
v -0.04452796 -0.02567998 0.11272447
v -0.04491225 -0.02513564 0.11225007
v -0.03976140 -0.03062407 0.11453583
v -0.04052380 -0.03008698 0.11440645
v -0.04102463 -0.02907723 0.11450348
v -0.04201761 -0.02780497 0.11446036
v -0.04330192 -0.02593121 0.11440645
v -0.04300811 -0.02686044 0.11413690
v -0.04481928 -0.02474994 0.11332826
v -0.04610854 -0.02239868 0.11316653
v -0.04524821 -0.02358638 0.11360859
v -0.04449448 -0.02421446 0.11425550
v -0.04575523 -0.02239868 0.11370563
f 1 2 3
f 1 3 8
f 1 8 11
f 1 11 15
f 1 15 19
f 1 19 26
f 1 26 28
f 1 28 38
f 1 38 55
f 1 55 77
f 1 77 79
f 1 79 83
f 1 83 60
f 1 60 43
f 1 43 31
f 1 31 23
f 1 23 17
f 1 17 13
f 1 13 9
f 1 9 4
f 1 4 6
f 1 6 2
f 2 5 3
f 2 6 10
f 2 10 14
f 2 14 18
f 2 18 24
f 2 24 32
f 2 32 47
f 2 47 68
f 2 68 90
f 2 90 93
f 2 93 76
f 2 76 52
f 2 52 34
f 2 34 27
f 2 27 20
f 2 20 16
f 2 16 12
f 2 12 7
f 2 7 5
f 3 5 7
f 3 7 8
f 4 9 6
f 6 9 10
f 7 11 8
f 7 12 11
f 9 13 14
f 9 14 10
f 11 12 15
f 12 16 15
f 13 17 22
f 13 22 29
f 13 29 39
f 13 39 56
f 13 56 70
f 13 70 48
f 13 48 33
f 13 33 24
f 13 24 18
f 13 18 14
f 15 16 19
f 16 20 21
f 16 21 19
f 17 23 30
f 17 30 22
f 19 21 25
f 19 25 26
f 20 27 28
f 20 28 26
f 20 26 21
f 21 26 25
f 22 30 40
f 22 40 29
f 23 31 30
f 24 33 45
f 24 45 32
f 27 34 35
f 27 35 36
f 27 36 37
f 27 37 28
f 28 37 38
f 29 40 39
f 30 31 41
f 30 41 42
f 30 42 40
f 31 43 44
f 31 44 41
f 32 45 46
f 32 46 47
f 33 48 66
f 33 66 45
f 34 49 50
f 34 50 51
f 34 51 35
f 34 52 49
f 35 51 53
f 35 53 36
f 36 53 54
f 36 54 55
f 36 55 37
f 37 55 38
f 39 40 57
f 39 57 56
f 40 42 58
f 40 58 59
f 40 59 57
f 41 44 42
f 42 44 58
f 43 60 61
f 43 61 44
f 44 61 62
f 44 62 63
f 44 63 64
f 44 64 65
f 44 65 58
f 45 66 67
f 45 67 46
f 46 68 47
f 46 67 69
f 46 69 68
f 48 70 80
f 48 80 66
f 49 71 50
f 49 52 72
f 49 72 73
f 49 73 71
f 50 74 51
f 50 71 75
f 50 75 74
f 51 54 53
f 51 74 54
f 52 76 72
f 54 77 55
f 54 74 78
f 54 78 79
f 54 79 77
f 56 57 80
f 56 80 70
f 57 59 80
f 58 65 81
f 58 81 82
f 58 82 59
f 59 82 80
f 60 83 84
f 60 84 63
f 60 63 62
f 60 62 61
f 63 84 85
f 63 85 86
f 63 86 87
f 63 87 88
f 63 88 65
f 63 65 64
f 65 88 89
f 65 89 81
f 66 80 67
f 67 82 69
f 67 80 82
f 68 69 90
f 69 81 89
f 69 89 91
f 69 91 90
f 69 82 81
f 71 73 87
f 71 87 86
f 71 86 75
f 72 87 73
f 72 76 92
f 72 92 87
f 74 75 78
f 75 86 85
f 75 85 78
f 76 93 91
f 76 91 92
f 78 85 84
f 78 84 79
f 79 84 83
f 87 92 88
f 88 92 89
f 89 92 91
f 90 91 93

