# https://github.com/mikedh/trimesh
v -0.00064891 0.05142420 0.00173989
v -0.00064891 0.05122259 0.00083565
v -0.00204049 0.05119122 0.00089356
v -0.00343206 0.05115538 0.00095760
v -0.00482934 0.05111058 0.00105183
v -0.00343206 0.05129875 0.00173989
v 0.00074837 0.05141972 0.00173989
v 0.00074837 0.05122259 0.00083860
v -0.00064891 0.05084624 0.00013901
v 0.00074837 0.05084624 0.00014171
v -0.00343206 0.05077903 0.00026096
v -0.00482934 0.05073423 0.00035519
v -0.00596998 0.05104785 0.00119955
v -0.00482934 0.05121811 0.00173989
v 0.00114189 0.05140628 0.00173989
v 0.00353723 0.05115538 0.00096325
v -0.00064891 0.05015179 -0.00034489
v -0.00204049 0.05011595 -0.00033605
v -0.00343206 0.05008010 -0.00032673
v -0.00482934 0.05003530 -0.00031348
v -0.00204049 0.05081040 0.00019692
v 0.00214565 0.05081040 0.00020232
v 0.00493451 0.05003082 -0.00031176
v 0.00353723 0.05007562 -0.00032599
v 0.00214565 0.05011147 -0.00033532
v 0.00074837 0.05014731 -0.00034415
v -0.00622092 0.04996361 -0.00028526
v -0.00761820 0.04984265 -0.00022097
v -0.00900978 0.04969928 -0.00011962
v -0.00985385 0.04961415 -0.00004895
v -0.00634639 0.05072079 0.00071100
v -0.01035573 0.04986505 0.00059714
v -0.01179863 0.04976648 0.00096693
v -0.01261989 0.04968135 0.00114434
v -0.00689960 0.05097169 0.00146629
v -0.00623233 0.05107025 0.00173989
v 0.00399348 0.05127187 0.00173989
v 0.00493451 0.05110610 0.00106509
v 0.00493451 0.05072975 0.00036844
v 0.00353723 0.05077455 0.00026661
v 0.00074837 0.04888834 -0.00071664
v -0.00064891 0.04888834 -0.00071713
v -0.00343206 0.04888834 -0.00069946
v -0.00482934 0.04888834 -0.00068572
v -0.00622092 0.04888834 -0.00065799
v 0.00632609 0.04995913 -0.00028330
v 0.00493451 0.04888834 -0.00068450
v 0.00632609 0.04888834 -0.00065554
v 0.00353723 0.04888834 -0.00069848
v 0.00214565 0.04888834 -0.00070756
v -0.00761820 0.04888834 -0.00059371
v -0.00900978 0.04888834 -0.00048377
v -0.01319591 0.04855231 -0.00027716
v -0.01458749 0.04839998 -0.00018563
v -0.01078347 0.04949766 0.00008061
v -0.01551711 0.04826557 -0.00008797
v -0.01179863 0.04938565 0.00027029
v -0.01261989 0.04973960 0.00173989
v -0.01261989 0.04946630 0.00075566
v -0.01327006 0.04928708 0.00070756
v -0.01323013 0.04932293 0.00075566
v -0.01458749 0.04893314 0.00067493
v -0.01598477 0.04851199 0.00061284
v -0.01637259 0.04845375 0.00075566
v -0.00692241 0.05097617 0.00173989
v -0.00660874 0.05102545 0.00173989
v 0.00493451 0.05120914 0.00173989
v 0.00605804 0.05104337 0.00121305
v 0.00644585 0.05071183 0.00071860
v 0.00747243 0.05001290 -0.00003276
v 0.00747243 0.04986057 -0.00023005
v 0.00747243 0.04749047 -0.00076645
v -0.00761820 0.04749047 -0.00076645
v -0.00900978 0.04749047 -0.00075860
v -0.01040135 0.04749047 -0.00073259
v -0.01179863 0.04749047 -0.00069554
v -0.01261989 0.04749047 -0.00066879
v -0.01319591 0.04749047 -0.00064965
v 0.00747243 0.04908099 -0.00053506
v 0.00747243 0.04888834 -0.00060229
v 0.00747243 0.04774585 -0.00074682
v -0.01458749 0.04749047 -0.00055371
v -0.01738205 0.04722166 -0.00028967
v -0.01877363 0.04698420 -0.00016428
v -0.01644673 0.04808636 0.00010686
v -0.01957207 0.04683187 -0.00005950
v -0.01693150 0.04827005 0.00075566
v -0.02019372 0.04702004 0.00075566
v -0.02079256 0.04675122 0.00075566
v -0.02364415 0.04539816 0.00075566
v -0.02424869 0.04505766 0.00075566
v -0.02565167 0.04424672 0.00075566
v -0.02625621 0.04389725 0.00075566
v -0.02703184 0.04342682 0.00075566
v -0.02809263 0.04277717 0.00075566
v -0.03045945 0.04109257 0.00075566
v -0.03121798 0.04053253 0.00075566
v -0.03209056 0.03988288 0.00075566
v -0.03256393 0.03947965 0.00075566
v -0.03317987 0.03895098 0.00075566
v -0.03359050 0.03858807 0.00075566
v -0.03505052 0.03725741 0.00075566
v -0.03532427 0.03700203 0.00075566
v -0.03644780 0.03589539 0.00075566
v -0.03751429 0.03476635 0.00075566
v -0.03779375 0.03446617 0.00075566
v -0.03809602 0.03413463 0.00075566
v -0.03878040 0.03337745 0.00075566
v -0.03911689 0.03300110 0.00075566
v -0.03952752 0.03250827 0.00075566
v -0.03991533 0.03202887 0.00075566
v -0.04037159 0.03144643 0.00075566
v -0.04077651 0.03089535 0.00075566
v -0.04156926 0.02978871 0.00075566
v -0.04206543 0.02908978 0.00075566
v -0.04292091 0.02786217 0.00075566
v -0.04322888 0.02739174 0.00075566
v -0.04475734 0.02482451 0.00075566
v -0.04511663 0.02415246 0.00075566
v -0.04535047 0.02370443 0.00075566
v -0.04584664 0.02270980 0.00075566
v -0.04599493 0.02240066 0.00075566
v -0.04633712 0.02167036 0.00075566
v -0.04727814 0.01958701 0.00075566
v -0.04745495 0.01917930 0.00075566
v -0.04866972 0.01582802 0.00075566
v -0.04881230 0.01542479 0.00075566
v -0.04888074 0.01522766 0.00075566
v -0.04901762 0.01470346 0.00075566
v -0.04990161 0.01126257 0.00075566
v -0.05010692 0.01043819 0.00075566
v -0.05023810 0.00985127 0.00075566
v -0.05027802 0.00961829 0.00075566
v -0.05036357 0.00906721 0.00075566
v -0.05061451 0.00714067 0.00075566
v -0.05079131 0.00565768 0.00075566
v -0.01261989 0.04783994 0.00173989
v 0.00536795 0.05117330 0.00173989
v 0.00677093 0.05100753 0.00173989
v 0.00698765 0.05096273 0.00154702
v 0.00747243 0.05060430 0.00097503
v 0.00747243 0.05047885 0.00068351
v 0.00747243 0.00565768 -0.00076645
v -0.01261989 0.04609709 -0.00076670
v -0.01319591 0.04609709 -0.00076670
v -0.01458749 0.04609709 -0.00076253
v -0.01598477 0.04609709 -0.00072989
v -0.01738205 0.04609709 -0.00066192
v -0.01877363 0.04609709 -0.00052451
v -0.02009106 0.04612398 -0.00029139
v -0.02156249 0.04566250 -0.00019913
v -0.02009106 0.04703796 0.00070314
v -0.01877363 0.04753528 0.00067493
v -0.02240656 0.04546537 -0.00007865
v -0.02333618 0.04523687 0.00020944
v -0.02050169 0.04661233 0.00025704
v -0.02433423 0.04496357 0.00067419
v -0.02714020 0.04330585 0.00065309
v -0.02605659 0.04377629 0.00034562
v -0.02776185 0.04255764 0.00003129
v -0.03028836 0.04097160 0.00035274
v -0.03126360 0.04047877 0.00071370
v -0.03184533 0.03968575 0.00014563
v -0.03276924 0.03917947 0.00056647
v -0.03332815 0.03835061 0.00005828
v -0.03477106 0.03699755 0.00000724
v -0.03555240 0.03665257 0.00055322
v -0.03643069 0.03588195 0.00067493
v -0.03619686 0.03564002 -0.00002221
v -0.03888876 0.03275021 0.00007914
v -0.03970431 0.03217672 0.00061382
v -0.04020049 0.03122242 0.00021925
v -0.04205973 0.02906290 0.00067493
v -0.04276122 0.02799210 0.00063100
v -0.04304068 0.02709156 0.00013729
v -0.04453491 0.02445264 0.00000405
v -0.04525922 0.02378956 0.00067051
v -0.04574969 0.02240066 0.00032329
v -0.04592649 0.02165244 0.00000896
v -0.04647970 0.02111480 0.00055420
v -0.04712416 0.01973486 0.00059640
v -0.04726674 0.01871783 0.00007963
v -0.04855566 0.01542479 0.00028109
v -0.04869824 0.01459145 0.00002932
v -0.04909176 0.01408965 0.00056622
v -0.04995294 0.00985127 0.00023962
v -0.05006130 0.00875359 0.00007030
v -0.05039778 0.00835484 0.00059101
v -0.05060310 0.00706002 0.00067493
v -0.05077420 0.00565320 0.00067493
v -0.05070005 0.00565320 0.00075566
v 0.00747243 0.00566216 0.00074682
v 0.00747243 0.04890626 0.00173989
v -0.04804807 0.00565320 0.00075566
v 0.00723289 0.05089104 0.00173989
v 0.00747243 0.05077903 0.00173989
v 0.00747243 0.00565768 0.00047837
v -0.01261989 0.00565320 -0.00014490
v -0.01319021 0.00565320 -0.00076670
v -0.01261989 0.00566216 -0.00076670
v -0.01738205 0.04470371 -0.00076670
v -0.01877363 0.04470371 -0.00075467
v -0.02017091 0.04470371 -0.00070314
v -0.02156249 0.04470371 -0.00056328
v -0.02290273 0.04474404 -0.00030906
v -0.02434564 0.04426912 -0.00019005
v -0.02512698 0.04405407 -0.00006122
v -0.02935874 0.04131211 -0.00009018
v -0.02683793 0.04284886 -0.00017606
v -0.03091571 0.04003969 -0.00015864
v -0.03239854 0.03875384 -0.00020060
v -0.03384144 0.03741871 -0.00020919
v -0.03549536 0.03596260 -0.00016919
v -0.03650483 0.03494108 -0.00016649
v -0.03795914 0.03326096 -0.00020600
v -0.03927658 0.03181830 -0.00019152
v -0.04054839 0.03029051 -0.00013386
v -0.04182590 0.02873583 -0.00005926
v -0.04333154 0.02615965 -0.00013656
v -0.04478585 0.02352522 -0.00017385
v -0.04614892 0.02072053 -0.00016011
v -0.04744353 0.01779488 -0.00010024
v -0.04882371 0.01366402 -0.00009018
v -0.04761463 0.01681817 -0.00021213
v -0.05014684 0.00782168 -0.00003055
v -0.04894918 0.01263803 -0.00018318
v -0.05020388 0.00706002 -0.00007865
v -0.05030083 0.00566216 -0.00015987
v -0.05030083 0.00565320 -0.00016011
v 0.00632609 0.00565768 0.00074682
v -0.01319591 0.00565320 0.00074707
v -0.04665079 0.00565320 -0.00076670
v -0.02574292 0.04051461 -0.00076670
v -0.02156249 0.04330585 -0.00075836
v -0.02294836 0.04330585 -0.00071075
v -0.02434564 0.04330585 -0.00054684
v -0.02565167 0.04330585 -0.00027446
v -0.02853178 0.04159437 -0.00022637
v -0.02723145 0.04202000 -0.00038586
v -0.03136056 0.03918395 -0.00035985
v -0.02986062 0.04051013 -0.00028280
v -0.03279776 0.03782193 -0.00039053
v -0.03422356 0.03645543 -0.00040083
v -0.03549536 0.03494108 -0.00049997
v -0.03836977 0.03223049 -0.00038317
v -0.03971572 0.03075646 -0.00033630
v -0.04103886 0.02926451 -0.00024354
v -0.04206543 0.02796970 -0.00019226
v -0.04361670 0.02518742 -0.00026612
v -0.04253309 0.02660768 -0.00035249
v -0.04398741 0.02391052 -0.00038856
v -0.04505390 0.02240066 -0.00029802
v -0.04638845 0.01960941 -0.00028207
v -0.04785987 0.01542479 -0.00031642
v -0.04665079 0.01681817 -0.00058217
v -0.04912027 0.01124465 -0.00027520
v -0.04926285 0.00985127 -0.00032722
v -0.04944535 0.00706002 -0.00043862
v -0.04944535 0.00566216 -0.00053089
v -0.04944535 0.00565320 -0.00053113
v -0.04804807 0.00565320 -0.00076523
v -0.04665079 0.01124465 -0.00076670
v -0.02434564 0.04191247 -0.00075124
v -0.03131493 0.03633447 -0.00076670
v -0.02992335 0.03772785 -0.00076645
v -0.02853178 0.03912123 -0.00075296
v -0.02713450 0.04051461 -0.00073382
v -0.02574292 0.04191247 -0.00068057
v -0.02853178 0.04051461 -0.00058487
v -0.02992335 0.03912123 -0.00066879
v -0.03131493 0.03772785 -0.00071418
v -0.03271221 0.03633447 -0.00072106
v -0.03410379 0.03494108 -0.00072768
v -0.03549536 0.03354770 -0.00072499
v -0.03689264 0.03215432 -0.00071860
v -0.03828422 0.03075646 -0.00070339
v -0.03968151 0.02935860 -0.00063885
v -0.04107878 0.02796970 -0.00054364
v -0.04247036 0.02518742 -0.00063738
v -0.04386194 0.02240066 -0.00067026
v -0.04525922 0.01960941 -0.00065456
v -0.04804807 0.01263803 -0.00055346
v -0.04665079 0.01542479 -0.00068891
v -0.04804807 0.01124465 -0.00064769
v -0.04804807 0.00985127 -0.00069971
v -0.04804807 0.00845788 -0.00073185
v -0.04804807 0.00706002 -0.00075418
v -0.04804807 0.00566216 -0.00076523
v -0.04665079 0.01263803 -0.00076449
v -0.04525922 0.01681817 -0.00076449
v -0.04386194 0.01960941 -0.00076670
v -0.03689264 0.03075646 -0.00076670
v -0.03828422 0.02935860 -0.00076228
v -0.03968151 0.02796970 -0.00074559
v -0.04107878 0.02658080 -0.00072179
v -0.04386194 0.02100727 -0.00074241
v -0.04525922 0.01821155 -0.00073480
v -0.04247036 0.02379404 -0.00073872
v -0.04665079 0.01403141 -0.00074143
v -0.04247036 0.02240066 -0.00076670
v -0.03968151 0.02658080 -0.00076670
v -0.04107878 0.02518742 -0.00076572
f 1 2 3
f 1 3 4
f 1 4 5
f 1 5 6
f 1 6 14
f 1 14 36
f 1 36 66
f 1 66 65
f 1 65 58
f 1 58 137
f 1 137 193
f 1 193 196
f 1 196 195
f 1 195 139
f 1 139 138
f 1 138 67
f 1 67 37
f 1 37 15
f 1 15 7
f 1 7 8
f 1 8 2
f 2 9 3
f 2 8 10
f 2 10 9
f 3 9 11
f 3 11 4
f 4 11 12
f 4 12 5
f 5 12 13
f 5 13 14
f 5 14 6
f 7 15 16
f 7 16 8
f 8 16 10
f 9 17 18
f 9 18 19
f 9 19 20
f 9 20 21
f 9 21 11
f 9 10 17
f 10 16 22
f 10 22 23
f 10 23 24
f 10 24 25
f 10 25 26
f 10 26 17
f 11 21 20
f 11 20 27
f 11 27 12
f 12 27 28
f 12 28 29
f 12 29 30
f 12 30 31
f 12 31 13
f 13 31 32
f 13 32 33
f 13 33 34
f 13 34 35
f 13 35 36
f 13 36 14
f 15 37 16
f 16 37 38
f 16 38 39
f 16 39 40
f 16 40 22
f 17 26 41
f 17 41 42
f 17 42 43
f 17 43 44
f 17 44 18
f 18 44 19
f 19 44 20
f 20 44 45
f 20 45 27
f 22 40 46
f 22 46 23
f 23 47 24
f 23 46 48
f 23 48 47
f 24 47 25
f 25 47 26
f 26 47 49
f 26 49 50
f 26 50 41
f 27 45 51
f 27 51 52
f 27 52 28
f 28 52 53
f 28 53 54
f 28 54 29
f 29 54 30
f 30 55 32
f 30 32 31
f 30 54 56
f 30 56 55
f 32 55 33
f 33 55 57
f 33 57 34
f 34 58 35
f 34 57 59
f 34 59 60
f 34 60 61
f 34 61 62
f 34 62 63
f 34 63 64
f 34 64 58
f 35 65 66
f 35 66 36
f 35 58 65
f 37 67 38
f 38 67 68
f 38 68 39
f 39 68 69
f 39 69 70
f 39 70 71
f 39 71 46
f 39 46 40
f 41 50 72
f 41 72 42
f 42 72 73
f 42 73 74
f 42 74 43
f 43 74 44
f 44 74 75
f 44 75 45
f 45 75 76
f 45 76 77
f 45 77 78
f 45 78 51
f 46 71 79
f 46 79 80
f 46 80 48
f 47 48 81
f 47 81 72
f 47 72 49
f 48 80 81
f 49 72 50
f 51 78 82
f 51 82 53
f 51 53 52
f 53 82 54
f 54 82 83
f 54 83 84
f 54 84 56
f 55 56 57
f 56 85 63
f 56 63 62
f 56 62 60
f 56 60 57
f 56 84 86
f 56 86 85
f 57 60 59
f 58 64 87
f 58 87 88
f 58 88 89
f 58 89 90
f 58 90 91
f 58 91 92
f 58 92 93
f 58 93 94
f 58 94 95
f 58 95 96
f 58 96 97
f 58 97 98
f 58 98 99
f 58 99 100
f 58 100 101
f 58 101 102
f 58 102 103
f 58 103 104
f 58 104 105
f 58 105 106
f 58 106 107
f 58 107 108
f 58 108 109
f 58 109 110
f 58 110 111
f 58 111 112
f 58 112 113
f 58 113 114
f 58 114 115
f 58 115 116
f 58 116 117
f 58 117 118
f 58 118 119
f 58 119 120
f 58 120 121
f 58 121 122
f 58 122 123
f 58 123 124
f 58 124 125
f 58 125 126
f 58 126 127
f 58 127 128
f 58 128 129
f 58 129 130
f 58 130 131
f 58 131 132
f 58 132 133
f 58 133 134
f 58 134 135
f 58 135 136
f 58 136 137
f 60 62 61
f 63 85 87
f 63 87 64
f 67 138 68
f 68 138 139
f 68 139 140
f 68 140 141
f 68 141 142
f 68 142 69
f 69 142 70
f 70 142 141
f 70 141 196
f 70 196 193
f 70 193 192
f 70 192 197
f 70 197 143
f 70 143 72
f 70 72 81
f 70 81 80
f 70 80 79
f 70 79 71
f 72 143 200
f 72 200 144
f 72 144 145
f 72 145 73
f 73 145 146
f 73 146 74
f 74 146 75
f 75 146 147
f 75 147 76
f 76 147 77
f 77 147 78
f 78 147 148
f 78 148 82
f 82 148 149
f 82 149 83
f 83 149 84
f 84 149 150
f 84 150 151
f 84 151 86
f 85 86 87
f 86 152 153
f 86 153 87
f 86 151 154
f 86 154 155
f 86 155 156
f 86 156 152
f 87 153 88
f 88 153 152
f 88 152 89
f 89 152 156
f 89 156 90
f 90 155 157
f 90 157 91
f 90 156 155
f 91 157 92
f 92 157 93
f 93 158 94
f 93 157 159
f 93 159 158
f 94 158 95
f 95 160 161
f 95 161 96
f 95 158 160
f 96 161 162
f 96 162 97
f 97 162 98
f 98 162 163
f 98 163 164
f 98 164 99
f 99 164 100
f 100 165 101
f 100 164 165
f 101 165 102
f 102 166 167
f 102 167 103
f 102 165 166
f 103 167 168
f 103 168 104
f 104 168 105
f 105 168 106
f 106 168 169
f 106 169 107
f 107 169 170
f 107 170 108
f 108 170 109
f 109 170 110
f 110 170 171
f 110 171 111
f 111 171 172
f 111 172 112
f 112 172 113
f 113 172 173
f 113 173 114
f 114 173 115
f 115 173 116
f 116 173 174
f 116 174 117
f 117 174 175
f 117 175 176
f 117 176 118
f 118 176 119
f 119 176 177
f 119 177 120
f 120 177 121
f 121 177 178
f 121 178 122
f 122 178 179
f 122 179 123
f 123 179 180
f 123 180 124
f 124 181 125
f 124 180 181
f 125 181 182
f 125 182 126
f 126 183 127
f 126 182 183
f 127 183 128
f 128 183 184
f 128 184 185
f 128 185 129
f 129 185 130
f 130 185 184
f 130 184 131
f 131 184 186
f 131 186 132
f 132 186 187
f 132 187 133
f 133 188 134
f 133 187 188
f 134 188 189
f 134 189 135
f 135 189 190
f 135 190 136
f 136 190 191
f 136 191 137
f 137 192 193
f 137 191 194
f 137 194 192
f 139 195 140
f 140 195 196
f 140 196 141
f 143 197 198
f 143 198 199
f 143 199 200
f 144 200 199
f 144 199 232
f 144 232 262
f 144 262 291
f 144 291 300
f 144 300 301
f 144 301 292
f 144 292 264
f 144 264 233
f 144 233 201
f 144 201 145
f 145 201 146
f 146 201 202
f 146 202 147
f 147 202 203
f 147 203 148
f 148 203 149
f 149 203 204
f 149 204 150
f 150 204 205
f 150 205 151
f 151 205 206
f 151 206 154
f 154 206 207
f 154 207 155
f 155 207 157
f 157 207 159
f 158 159 160
f 159 207 160
f 160 208 161
f 160 207 209
f 160 209 208
f 161 163 162
f 161 208 163
f 163 208 210
f 163 210 165
f 163 165 164
f 165 210 211
f 165 211 166
f 166 169 167
f 166 211 169
f 167 169 168
f 169 211 212
f 169 212 213
f 169 213 214
f 169 214 215
f 169 215 216
f 169 216 170
f 170 216 217
f 170 217 218
f 170 218 172
f 170 172 171
f 172 218 173
f 173 218 174
f 174 218 175
f 175 218 176
f 176 218 219
f 176 219 220
f 176 220 179
f 176 179 178
f 176 178 177
f 179 221 182
f 179 182 181
f 179 181 180
f 179 220 221
f 182 222 184
f 182 184 183
f 182 221 222
f 184 223 186
f 184 222 224
f 184 224 223
f 186 223 187
f 187 225 188
f 187 223 226
f 187 226 225
f 188 225 189
f 189 225 190
f 190 225 227
f 190 227 228
f 190 228 229
f 190 229 260
f 190 260 261
f 190 261 232
f 190 232 199
f 190 199 198
f 190 198 231
f 190 231 194
f 190 194 191
f 192 194 230
f 192 230 197
f 194 231 230
f 197 230 231
f 197 231 198
f 201 233 234
f 201 234 202
f 202 234 235
f 202 235 203
f 203 235 204
f 204 235 236
f 204 236 205
f 205 236 206
f 206 236 237
f 206 237 209
f 206 209 207
f 208 209 238
f 208 238 210
f 209 237 239
f 209 239 238
f 210 240 211
f 210 238 241
f 210 241 240
f 211 242 212
f 211 240 242
f 212 242 243
f 212 243 244
f 212 244 213
f 213 244 214
f 214 244 215
f 215 244 245
f 215 245 216
f 216 245 246
f 216 246 217
f 217 246 247
f 217 247 218
f 218 248 219
f 218 247 248
f 219 249 220
f 219 248 250
f 219 250 249
f 220 249 251
f 220 251 252
f 220 252 221
f 221 253 222
f 221 252 253
f 222 253 224
f 223 224 254
f 223 254 226
f 224 253 255
f 224 255 254
f 225 226 256
f 225 256 227
f 226 254 256
f 227 256 228
f 228 256 257
f 228 257 258
f 228 258 259
f 228 259 260
f 228 260 229
f 232 261 288
f 232 288 262
f 233 263 234
f 233 264 265
f 233 265 266
f 233 266 263
f 234 263 235
f 235 263 267
f 235 267 268
f 235 268 236
f 236 268 269
f 236 269 239
f 236 239 237
f 238 239 241
f 239 269 241
f 240 241 269
f 240 269 270
f 240 270 242
f 242 244 243
f 242 270 271
f 242 271 244
f 244 271 272
f 244 272 273
f 244 273 274
f 244 274 275
f 244 275 276
f 244 276 245
f 245 276 277
f 245 277 246
f 246 278 247
f 246 277 278
f 247 278 248
f 248 278 250
f 249 250 251
f 250 278 279
f 250 279 251
f 251 279 280
f 251 280 252
f 252 280 281
f 252 281 253
f 253 281 255
f 254 282 256
f 254 255 282
f 255 283 282
f 255 281 283
f 256 282 257
f 257 282 284
f 257 284 259
f 257 259 258
f 259 284 285
f 259 285 260
f 260 285 286
f 260 286 287
f 260 287 288
f 260 288 261
f 262 289 290
f 262 290 291
f 262 288 289
f 263 266 267
f 264 292 273
f 264 273 265
f 265 273 272
f 265 272 271
f 265 271 266
f 266 271 267
f 267 271 270
f 267 270 268
f 268 270 269
f 273 292 274
f 274 292 293
f 274 293 275
f 275 293 276
f 276 293 294
f 276 294 295
f 276 295 277
f 277 295 279
f 277 279 278
f 279 295 280
f 280 296 297
f 280 297 281
f 280 295 298
f 280 298 296
f 281 297 283
f 282 283 284
f 283 297 299
f 283 299 284
f 284 299 285
f 285 299 286
f 286 299 289
f 286 289 287
f 287 289 288
f 289 299 290
f 290 297 296
f 290 296 291
f 290 299 297
f 291 296 300
f 292 301 302
f 292 302 293
f 293 302 294
f 294 302 295
f 295 302 298
f 296 298 302
f 296 302 300
f 300 302 301

