# https://github.com/mikedh/trimesh
v -0.04513260 -0.01333869 0.00485163
v -0.04362664 -0.01333869 0.00485163
v -0.04513667 -0.01333869 0.00486241
v -0.04611390 -0.00963549 0.00485163
v -0.04524829 0.00565134 0.00485163
v -0.04524258 0.00565134 0.00486241
v -0.04362338 -0.01333869 0.00486241
v -0.04611471 -0.00963921 0.00486241
v -0.04778443 -0.01333869 0.11267548
v -0.04637216 -0.00828212 0.00486241
v -0.04636564 -0.00830628 0.00485163
v -0.04669804 0.00565134 0.00485163
v -0.04524218 0.00565134 0.00487319
v -0.04524177 0.00565134 0.00625320
v -0.04362338 -0.01333869 0.11083188
v -0.04778443 -0.01333869 0.11470237
v -0.04778443 0.00008168 0.11266470
v -0.04686749 0.00008168 0.00625320
v -0.04683002 -0.00131260 0.00486241
v -0.04676362 -0.00409929 0.00486241
v -0.04672085 -0.00549357 0.00486241
v -0.04657868 -0.00688784 0.00486241
v -0.04657135 -0.00691387 0.00485163
v -0.04675303 0.00426636 0.00485163
v -0.04675955 0.00426636 0.00486241
v -0.04670415 0.00565134 0.00486241
v -0.04524177 0.00565134 0.10944109
v -0.04524218 0.00565134 0.11083188
v -0.04528780 0.00565134 0.11222267
v -0.04367959 -0.01333869 0.11222267
v -0.04665812 -0.01333869 0.11497190
v -0.04778443 -0.01246680 0.11482097
v -0.04778443 0.00042002 0.11266470
v -0.04682309 0.00147595 0.00486241
v -0.04685242 0.00008168 0.00486241
v -0.04778443 0.00184776 0.11271861
v -0.04778443 0.00334614 0.11282642
v -0.04778443 0.00555467 0.11310673
v -0.04778443 0.00565134 0.11322533
v -0.04682228 -0.00133676 0.00485163
v -0.04675670 -0.00412160 0.00485163
v -0.04671474 -0.00549357 0.00485163
v -0.04671352 -0.00551587 0.00485163
v -0.04681535 0.00147595 0.00485163
v -0.04564708 0.00565134 0.11349487
v -0.04415334 -0.01333869 0.11364580
v -0.04665812 -0.01246680 0.11497190
v -0.04778443 -0.00967639 0.11493956
v -0.04778443 -0.01107067 0.11490722
v -0.04522711 -0.01333869 0.11463768
v -0.04684427 0.00008168 0.00485163
v -0.04684427 0.00005751 0.00485163
v -0.04778443 0.00565134 0.11489644
v -0.04608376 0.00565134 0.11418487
v -0.04448899 -0.01333869 0.11417408
v -0.04678114 0.00565134 0.11462690
v -0.04471181 -0.01333869 0.11436815
v -0.04459490 -0.01322343 0.11429268
f 1 2 7
f 1 7 15
f 1 15 30
f 1 30 46
f 1 46 55
f 1 55 57
f 1 57 50
f 1 50 31
f 1 31 16
f 1 16 9
f 1 9 3
f 1 3 4
f 1 4 11
f 1 11 23
f 1 23 43
f 1 43 42
f 1 42 41
f 1 41 40
f 1 40 52
f 1 52 51
f 1 51 44
f 1 44 24
f 1 24 12
f 1 12 5
f 1 5 2
f 2 5 6
f 2 6 7
f 3 8 4
f 3 9 8
f 4 8 10
f 4 10 11
f 5 12 26
f 5 26 39
f 5 39 53
f 5 53 56
f 5 56 54
f 5 54 45
f 5 45 29
f 5 29 28
f 5 28 27
f 5 27 14
f 5 14 13
f 5 13 6
f 6 13 7
f 7 13 14
f 7 14 27
f 7 27 15
f 8 9 10
f 9 16 32
f 9 32 49
f 9 49 48
f 9 48 53
f 9 53 39
f 9 39 38
f 9 38 37
f 9 37 36
f 9 36 33
f 9 33 17
f 9 17 18
f 9 18 19
f 9 19 20
f 9 20 21
f 9 21 22
f 9 22 10
f 10 22 11
f 11 22 23
f 12 24 25
f 12 25 26
f 15 27 28
f 15 28 29
f 15 29 30
f 16 31 32
f 17 33 18
f 18 34 35
f 18 35 19
f 18 33 36
f 18 36 37
f 18 37 38
f 18 38 39
f 18 39 34
f 19 35 40
f 19 40 41
f 19 41 20
f 20 41 42
f 20 42 21
f 21 42 43
f 21 43 23
f 21 23 22
f 24 44 34
f 24 34 25
f 25 34 39
f 25 39 26
f 29 45 30
f 30 45 46
f 31 47 48
f 31 48 49
f 31 49 32
f 31 50 47
f 34 44 35
f 35 44 51
f 35 51 52
f 35 52 40
f 45 54 46
f 46 54 55
f 47 53 48
f 47 50 53
f 50 56 53
f 50 57 56
f 54 58 55
f 54 56 58
f 55 58 57
f 56 57 58

