# https://github.com/mikedh/trimesh
v -0.04987991 -0.01250548 0.00212334
v -0.04986698 -0.01251031 0.00484085
v -0.04986698 -0.01250548 0.00484085
v -0.04954655 -0.01250548 0.00075619
v -0.04896604 -0.01525669 0.00092214
v -0.04881804 -0.01614906 0.00121004
v -0.04920744 -0.01525669 0.00206976
v -0.04923043 -0.01525669 0.00346370
v -0.04923043 -0.01525669 0.00484085
v -0.04387653 -0.01250548 0.00484085
v -0.04586089 -0.01250548 0.00075619
v -0.04903501 -0.01467359 0.00075619
v -0.04887695 -0.01525669 0.00075619
v -0.04886545 -0.01627793 0.00206976
v -0.04736533 -0.01943989 0.00075619
v -0.04752051 -0.01943989 0.00103650
v -0.04737395 -0.02017923 0.00132401
v -0.04887695 -0.01631014 0.00346370
v -0.04922612 -0.01526958 0.00484085
v -0.03520194 -0.02895959 0.00484085
v -0.04420414 -0.01250548 0.00381758
v -0.04421851 -0.01250548 0.00379079
v -0.04552609 -0.01273099 0.00075619
v -0.04771018 -0.01943989 0.00206976
v -0.04773461 -0.01943989 0.00346370
v -0.04683942 -0.02063508 0.00075619
v -0.04739694 -0.02022594 0.00206976
v -0.04681787 -0.02072045 0.00078578
v -0.04614971 -0.02210572 0.00075619
v -0.04600458 -0.02301903 0.00126762
v -0.04603907 -0.02309313 0.00206976
v -0.04887695 -0.01631014 0.00484085
v -0.04257901 -0.02895959 0.00484085
v -0.03520626 -0.02895959 0.00482885
v -0.03599224 -0.02822347 0.00393674
v -0.03565026 -0.02895959 0.00388516
v -0.03782573 -0.02873408 0.00075619
v -0.04740843 -0.02025172 0.00346370
v -0.04773461 -0.01943989 0.00484085
v -0.04678626 -0.02074945 0.00075619
v -0.04707939 -0.02094757 0.00346370
v -0.04605200 -0.02311891 0.00346370
v -0.04546000 -0.02353449 0.00075619
v -0.04539534 -0.02365529 0.00075619
v -0.04475304 -0.02489559 0.00079978
v -0.04457630 -0.02573159 0.00134760
v -0.04569852 -0.02379060 0.00206976
v -0.04257901 -0.02895959 0.00346370
v -0.04300720 -0.02835071 0.00484085
v -0.03782573 -0.02895959 0.00075619
v -0.04740843 -0.02025172 0.00484085
v -0.04707220 -0.02096368 0.00484085
v -0.04570858 -0.02381476 0.00346370
v -0.04571289 -0.02380671 0.00484085
v -0.04605200 -0.02311891 0.00484085
v -0.04474442 -0.02486660 0.00075619
v -0.04376876 -0.02651604 0.00075619
v -0.04459498 -0.02576058 0.00206976
v -0.04503036 -0.02501640 0.00206976
v -0.04336786 -0.02743579 0.00100771
v -0.04347851 -0.02762103 0.00206976
v -0.04417684 -0.02645805 0.00206976
v -0.04256607 -0.02895959 0.00245763
v -0.04301439 -0.02833944 0.00346370
v -0.04349144 -0.02764358 0.00484085
v -0.04349144 -0.02764358 0.00346370
v -0.04218817 -0.02895959 0.00075619
v -0.04569996 -0.02383087 0.00484085
v -0.04505191 -0.02501640 0.00346370
v -0.04304025 -0.02769674 0.00075619
v -0.04460791 -0.02578313 0.00346370
v -0.04228157 -0.02895959 0.00104729
v -0.04256033 -0.02895959 0.00206976
v -0.04301007 -0.02831850 0.00206976
v -0.04418115 -0.02649509 0.00484085
v -0.04505191 -0.02501640 0.00484085
v -0.04460791 -0.02578313 0.00484085
f 1 2 3
f 1 3 10
f 1 10 21
f 1 21 22
f 1 22 11
f 1 11 4
f 1 4 5
f 1 5 6
f 1 6 7
f 1 7 8
f 1 8 9
f 1 9 2
f 2 9 19
f 2 19 32
f 2 32 39
f 2 39 51
f 2 51 52
f 2 52 55
f 2 55 54
f 2 54 68
f 2 68 76
f 2 76 77
f 2 77 75
f 2 75 65
f 2 65 49
f 2 49 33
f 2 33 20
f 2 20 10
f 2 10 3
f 4 11 23
f 4 23 37
f 4 37 50
f 4 50 67
f 4 67 70
f 4 70 57
f 4 57 56
f 4 56 44
f 4 44 43
f 4 43 29
f 4 29 40
f 4 40 26
f 4 26 15
f 4 15 13
f 4 13 12
f 4 12 5
f 5 12 13
f 5 13 6
f 6 14 7
f 6 13 15
f 6 15 16
f 6 16 17
f 6 17 14
f 7 14 8
f 8 14 18
f 8 18 19
f 8 19 9
f 10 20 21
f 11 22 23
f 14 17 24
f 14 24 25
f 14 25 18
f 15 26 17
f 15 17 16
f 17 27 24
f 17 26 28
f 17 28 29
f 17 29 30
f 17 30 31
f 17 31 27
f 18 32 19
f 18 25 39
f 18 39 32
f 20 33 48
f 20 48 63
f 20 63 73
f 20 73 72
f 20 72 67
f 20 67 50
f 20 50 36
f 20 36 34
f 20 34 21
f 21 23 22
f 21 34 35
f 21 35 23
f 23 35 36
f 23 36 37
f 24 27 25
f 25 27 38
f 25 38 51
f 25 51 39
f 26 40 28
f 27 41 38
f 27 31 42
f 27 42 41
f 28 40 29
f 29 43 30
f 30 43 44
f 30 44 45
f 30 45 46
f 30 46 47
f 30 47 31
f 31 47 42
f 33 49 48
f 34 36 35
f 36 50 37
f 38 41 52
f 38 52 51
f 41 42 52
f 42 47 53
f 42 53 54
f 42 54 55
f 42 55 52
f 44 56 45
f 45 56 57
f 45 57 46
f 46 58 59
f 46 59 47
f 46 57 60
f 46 60 61
f 46 61 62
f 46 62 58
f 47 59 53
f 48 49 64
f 48 64 63
f 49 65 66
f 49 66 64
f 53 68 54
f 53 59 69
f 53 69 68
f 57 70 60
f 58 71 59
f 58 62 71
f 59 71 69
f 60 70 67
f 60 67 72
f 60 72 73
f 60 73 74
f 60 74 61
f 61 74 66
f 61 66 62
f 62 66 71
f 63 64 74
f 63 74 73
f 64 66 74
f 65 75 66
f 66 75 71
f 68 69 76
f 69 71 77
f 69 77 76
f 71 75 77

