# https://github.com/mikedh/trimesh
v 0.04354757 -0.01374306 0.00484032
v 0.04399747 -0.01374306 0.00392026
v 0.04958106 -0.01374306 0.00484032
v 0.04528961 0.00565320 0.00484032
v 0.04567815 0.00565320 0.00376951
v 0.04557060 -0.01374306 0.00075579
v 0.04958333 -0.01374306 0.00334566
v 0.05037558 -0.01085716 0.00484032
v 0.05106178 0.00565320 0.00484032
v 0.04720584 0.00565320 0.00075579
v 0.04923947 -0.01374306 0.00075579
v 0.04957652 -0.01374306 0.00206972
v 0.05037558 -0.01085716 0.00346402
v 0.05061568 -0.00967622 0.00484032
v 0.05124356 0.00147624 0.00206972
v 0.05114283 0.00426531 0.00206972
v 0.05108829 0.00565320 0.00207732
v 0.05121023 0.00008266 0.00484032
v 0.05128446 0.00008266 0.00206972
v 0.05080654 0.00565320 0.00075579
v 0.04955228 -0.01374306 0.00195137
v 0.04994234 -0.01105652 0.00075579
v 0.05031953 -0.01063692 0.00121443
v 0.05036421 -0.01081160 0.00206972
v 0.05061568 -0.00967622 0.00346402
v 0.05083759 -0.00828264 0.00484032
v 0.05108223 0.00008266 0.00075579
v 0.05104058 0.00147624 0.00075579
v 0.05108829 0.00565320 0.00206972
v 0.05118146 -0.00129384 0.00484032
v 0.05125417 -0.00131282 0.00206972
v 0.05108072 0.00000102 0.00075579
v 0.05091106 0.00426531 0.00075579
v 0.05017335 -0.01014708 0.00075579
v 0.05041193 -0.00967622 0.00101410
v 0.05081411 -0.00828264 0.00206972
v 0.05059220 -0.00967622 0.00206972
v 0.05083759 -0.00828264 0.00346402
v 0.05083987 -0.00826555 0.00484032
v 0.05106254 -0.00549357 0.00484032
v 0.05114661 -0.00409999 0.00206972
v 0.05105118 -0.00131282 0.00075579
v 0.05027105 -0.00967622 0.00075579
v 0.05033695 -0.00927941 0.00075579
v 0.05049600 -0.00828264 0.00075579
v 0.05052327 -0.00828264 0.00080698
v 0.05098680 -0.00688906 0.00206972
v 0.05099438 -0.00688906 0.00346402
v 0.05099438 -0.00688906 0.00484032
v 0.05109132 -0.00549357 0.00206972
v 0.05091636 -0.00417973 0.00075579
v 0.05050433 -0.00822948 0.00075579
v 0.05053312 -0.00801114 0.00075579
v 0.05081184 -0.00557521 0.00075579
f 1 2 6
f 1 6 11
f 1 11 21
f 1 21 12
f 1 12 7
f 1 7 3
f 1 3 8
f 1 8 14
f 1 14 26
f 1 26 39
f 1 39 49
f 1 49 40
f 1 40 30
f 1 30 18
f 1 18 9
f 1 9 4
f 1 4 5
f 1 5 2
f 2 5 6
f 3 7 8
f 4 9 17
f 4 17 29
f 4 29 20
f 4 20 10
f 4 10 5
f 5 10 6
f 6 10 20
f 6 20 33
f 6 33 28
f 6 28 27
f 6 27 32
f 6 32 42
f 6 42 51
f 6 51 54
f 6 54 53
f 6 53 52
f 6 52 45
f 6 45 44
f 6 44 43
f 6 43 34
f 6 34 22
f 6 22 11
f 7 12 13
f 7 13 8
f 8 13 25
f 8 25 14
f 9 15 16
f 9 16 17
f 9 18 19
f 9 19 15
f 11 22 23
f 11 23 21
f 12 21 23
f 12 23 24
f 12 24 13
f 13 24 25
f 14 25 38
f 14 38 26
f 15 19 27
f 15 27 28
f 15 28 16
f 16 28 29
f 16 29 17
f 18 30 19
f 19 30 31
f 19 31 32
f 19 32 27
f 20 29 33
f 22 34 23
f 23 34 35
f 23 35 36
f 23 36 37
f 23 37 24
f 24 37 25
f 25 37 36
f 25 36 38
f 26 38 39
f 28 33 29
f 30 40 31
f 31 41 42
f 31 42 32
f 31 40 41
f 34 43 35
f 35 43 44
f 35 44 45
f 35 45 46
f 35 46 47
f 35 47 36
f 36 47 38
f 38 47 48
f 38 48 39
f 39 48 49
f 40 50 41
f 40 49 50
f 41 50 42
f 42 50 51
f 45 52 46
f 46 52 53
f 46 53 54
f 46 54 47
f 47 54 51
f 47 51 50
f 47 50 48
f 48 50 49

