# https://github.com/mikedh/trimesh
v 0.00747667 0.00565320 0.00047826
v 0.00771845 0.00565320 0.00074715
v 0.00747667 0.00566198 0.00074715
v 0.00747667 0.00565759 -0.00076694
v 0.00772693 0.00565320 -0.00076694
v 0.04815555 0.00565320 0.00075579
v 0.04720538 0.00565759 0.00075579
v 0.00747667 0.04688847 0.00075579
v 0.00747667 0.04749003 -0.00076694
v 0.04677272 0.00565320 -0.00076694
v 0.05080667 0.00565320 0.00075579
v 0.00747667 0.05051099 0.00075579
v 0.00747667 0.04774471 -0.00074682
v 0.00772693 0.04749003 -0.00076694
v 0.04815979 0.00565320 -0.00076053
v 0.04676848 0.01124286 -0.00076694
v 0.05078971 0.00565320 0.00068276
v 0.05052247 0.00806382 0.00075579
v 0.01103554 0.04981723 0.00075579
v 0.00747667 0.05047587 0.00068380
v 0.00747667 0.04888635 -0.00060254
v 0.00912249 0.04749003 -0.00075800
v 0.01470046 0.04609810 -0.00076083
v 0.01330490 0.04609810 -0.00076694
v 0.04816827 0.00565320 -0.00075919
v 0.04676848 0.01263479 -0.00075949
v 0.04815979 0.00705830 -0.00074235
v 0.04397737 0.01960759 -0.00076694
v 0.04537292 0.01681935 -0.00075964
v 0.05035704 0.00565320 -0.00011453
v 0.05078547 0.00566198 0.00067515
v 0.05055641 0.00707147 0.00056322
v 0.05021282 0.00755008 0.00002364
v 0.05046733 0.00845023 0.00075579
v 0.01190935 0.04963281 0.00075579
v 0.01087435 0.04949230 0.00009012
v 0.00994115 0.04960646 -0.00004507
v 0.01045017 0.04985235 0.00060301
v 0.00912249 0.04969428 -0.00011453
v 0.00747667 0.05001043 -0.00003300
v 0.00772693 0.04888635 -0.00059076
v 0.01330490 0.04749003 -0.00064487
v 0.01190935 0.04749003 -0.00069346
v 0.01051804 0.04749003 -0.00073087
v 0.00747667 0.04907955 -0.00053516
v 0.01609177 0.04609810 -0.00072550
v 0.01888287 0.04470179 -0.00075174
v 0.01748732 0.04470179 -0.00076694
v 0.04955534 0.00565320 -0.00048046
v 0.04676848 0.01403111 -0.00072893
v 0.04815979 0.00845023 -0.00071686
v 0.04397737 0.02100391 -0.00073534
v 0.04258182 0.02239584 -0.00076694
v 0.04537292 0.01821128 -0.00072253
v 0.05035704 0.00566198 -0.00011423
v 0.05028917 0.00661921 -0.00005581
v 0.04917358 0.01124286 -0.00024898
v 0.04900391 0.01263479 -0.00014077
v 0.05013222 0.00845023 0.00013409
v 0.05022979 0.00984654 0.00075579
v 0.01332187 0.04930349 0.00075579
v 0.01190935 0.04937813 0.00028821
v 0.01558275 0.04825405 -0.00007712
v 0.01470046 0.04838578 -0.00017401
v 0.00772693 0.04983918 -0.00021842
v 0.01330490 0.04854825 -0.00027238
v 0.00747667 0.04986114 -0.00023020
v 0.00912249 0.04888635 -0.00047808
v 0.01470046 0.04749003 -0.00054038
v 0.01748732 0.04609810 -0.00065336
v 0.02027843 0.04470179 -0.00069629
v 0.02306529 0.04330986 -0.00070404
v 0.02166974 0.04330986 -0.00075576
v 0.02027843 0.04330986 -0.00076694
v 0.04815979 0.00984654 -0.00068407
v 0.04955534 0.00566198 -0.00048016
v 0.04676848 0.01542303 -0.00066872
v 0.04258182 0.02379215 -0.00073206
v 0.04397737 0.02239584 -0.00064636
v 0.03979496 0.02658040 -0.00076694
v 0.04119051 0.02518408 -0.00076158
v 0.04537292 0.01960759 -0.00062937
v 0.04931780 0.00984654 -0.00031158
v 0.04815979 0.01124286 -0.00062147
v 0.04815979 0.01263479 -0.00050595
v 0.04790952 0.01542303 -0.00029623
v 0.04889786 0.01349980 -0.00005804
v 0.05001346 0.00984654 0.00035707
v 0.04876213 0.01443068 0.00009354
v 0.04914389 0.01399159 0.00060510
v 0.04989468 0.01120773 0.00075579
v 0.01464955 0.04893904 0.00075579
v 0.01470046 0.04890391 0.00067515
v 0.01335580 0.04927275 0.00071659
v 0.01606632 0.04849116 0.00062760
v 0.01651171 0.04806963 0.00013111
v 0.01963791 0.04681822 -0.00004478
v 0.01888287 0.04696312 -0.00014703
v 0.01748732 0.04720462 -0.00028088
v 0.01888287 0.04609810 -0.00050446
v 0.02166974 0.04470179 -0.00054604
v 0.02446084 0.04330986 -0.00052533
v 0.02585640 0.04191354 -0.00066708
v 0.02724771 0.04052162 -0.00072908
v 0.02446084 0.04191354 -0.00074727
v 0.02585640 0.04052162 -0.00076694
v 0.04676848 0.01681935 -0.00054202
v 0.04119051 0.02658040 -0.00071090
v 0.04258182 0.02518408 -0.00060835
v 0.04407493 0.02386241 -0.00036986
v 0.04510145 0.02239584 -0.00027387
v 0.03700809 0.03076057 -0.00076694
v 0.03839941 0.02936425 -0.00075770
v 0.03979496 0.02797232 -0.00073937
v 0.04546625 0.02106099 -0.00036345
v 0.04644186 0.01960759 -0.00025703
v 0.04767198 0.01681935 -0.00017669
v 0.04751928 0.01767997 -0.00007011
v 0.04860518 0.01542303 0.00040105
v 0.04880030 0.01542303 0.00075579
v 0.04909722 0.01442629 0.00075579
v 0.04733688 0.01860646 0.00014691
v 0.01640142 0.04844286 0.00075579
v 0.01747884 0.04805207 0.00075579
v 0.01888287 0.04748564 0.00067515
v 0.02017238 0.04701581 0.00072598
v 0.02056687 0.04659867 0.00029507
v 0.02340888 0.04522431 0.00024498
v 0.02247992 0.04545264 -0.00006445
v 0.02166974 0.04564145 -0.00018459
v 0.02017238 0.04612006 -0.00027715
v 0.02299318 0.04473692 -0.00029518
v 0.02446084 0.04424074 -0.00017252
v 0.02574187 0.04329669 -0.00025300
v 0.02732406 0.04200575 -0.00037463
v 0.02864326 0.04052162 -0.00056125
v 0.03003457 0.03912530 -0.00065038
v 0.03143012 0.03772898 -0.00070464
v 0.02864326 0.03912530 -0.00074846
v 0.03003457 0.03772898 -0.00076396
v 0.03143012 0.03633706 -0.00076694
v 0.03839941 0.03076057 -0.00068645
v 0.03979496 0.02936425 -0.00061074
v 0.04119051 0.02797232 -0.00050923
v 0.04262848 0.02656722 -0.00032932
v 0.04485542 0.02344527 -0.00015150
v 0.04366772 0.02518408 -0.00024108
v 0.04622553 0.02063507 -0.00013644
v 0.03561254 0.03354881 -0.00071925
v 0.03700809 0.03215249 -0.00071254
v 0.03421699 0.03494074 -0.00072223
v 0.04775258 0.01817176 0.00063715
v 0.04771016 0.01846156 0.00075579
v 0.04599223 0.02156595 0.00006671
v 0.04727326 0.01955929 0.00075579
v 0.02022752 0.04700703 0.00075579
v 0.02311195 0.04564145 0.00075579
v 0.02435904 0.04500037 0.00075579
v 0.02442267 0.04493012 0.00069588
v 0.02520316 0.04402997 -0.00004343
v 0.02690836 0.04282686 -0.00016357
v 0.02864326 0.04155788 -0.00020710
v 0.02994973 0.04049527 -0.00025822
v 0.03144285 0.03916482 -0.00034288
v 0.03288930 0.03780363 -0.00038059
v 0.03431455 0.03643366 -0.00039237
v 0.03282143 0.03633706 -0.00071582
v 0.03709293 0.03363224 -0.00038730
v 0.03846303 0.03220519 -0.00036852
v 0.03980768 0.03072544 -0.00030905
v 0.04112688 0.02923252 -0.00020784
v 0.04212371 0.02797232 -0.00016432
v 0.04340473 0.02609300 -0.00011230
v 0.04460092 0.02437615 0.00005852
v 0.03572282 0.03505051 -0.00039505
v 0.04600071 0.02234315 0.00075579
v 0.04640792 0.02149130 0.00075579
v 0.04515659 0.02386241 0.00058408
v 0.02528799 0.04446029 0.00075579
v 0.02613211 0.04375334 0.00039732
v 0.02783732 0.04253267 0.00006463
v 0.02942799 0.04128564 -0.00007086
v 0.03098473 0.04001227 -0.00014315
v 0.03247361 0.03873012 -0.00019115
v 0.03391158 0.03738649 -0.00020217
v 0.03533258 0.03603408 -0.00021082
v 0.03668147 0.03465972 -0.00020680
v 0.03803885 0.03321949 -0.00019785
v 0.03934957 0.03177487 -0.00017535
v 0.04062211 0.03023805 -0.00011111
v 0.04189889 0.02868366 -0.00003106
v 0.04312053 0.02702388 0.00020385
v 0.04458395 0.02507870 0.00075579
v 0.04504206 0.02427955 0.00075579
v 0.02577580 0.04417487 0.00075579
v 0.02715014 0.04335816 0.00075579
v 0.02625088 0.04389385 0.00075579
v 0.02742162 0.04319130 0.00075579
v 0.02851176 0.04248437 0.00075579
v 0.02869416 0.04225164 0.00058766
v 0.03036119 0.04093875 0.00041342
v 0.03191369 0.03965660 0.00019177
v 0.03340256 0.03831737 0.00010428
v 0.03484053 0.03696496 0.00004943
v 0.03626154 0.03559060 0.00002215
v 0.03761043 0.03415037 0.00007462
v 0.03896780 0.03270136 0.00013156
v 0.04027852 0.03116892 0.00028881
v 0.04211946 0.02898224 0.00067515
v 0.04281088 0.02795476 0.00067128
v 0.04291692 0.02786694 0.00075579
v 0.04359985 0.02673408 0.00075579
v 0.03134529 0.04043380 0.00075579
v 0.03268994 0.03937558 0.00075579
v 0.03284688 0.03914725 0.00061285
v 0.03315229 0.03897162 0.00075579
v 0.03405580 0.03816368 0.00075579
v 0.03473449 0.03754895 0.00075579
v 0.03544287 0.03689031 0.00075579
v 0.03572707 0.03644244 0.00050061
v 0.03621064 0.03615264 0.00075579
v 0.03681297 0.03553351 0.00075579
v 0.03709717 0.03504612 0.00051328
v 0.03822973 0.03398791 0.00075579
v 0.03876420 0.03339513 0.00075579
v 0.03967619 0.03232374 0.00075579
v 0.03977799 0.03213054 0.00067501
v 0.03989676 0.03204711 0.00075579
v 0.04083420 0.03078252 0.00075579
v 0.04213219 0.02900419 0.00075579
f 1 2 3
f 1 3 8
f 1 8 12
f 1 12 20
f 1 20 40
f 1 40 67
f 1 67 45
f 1 45 21
f 1 21 13
f 1 13 9
f 1 9 4
f 1 4 5
f 1 5 10
f 1 10 15
f 1 15 25
f 1 25 49
f 1 49 30
f 1 30 17
f 1 17 11
f 1 11 6
f 1 6 2
f 2 6 7
f 2 7 3
f 3 7 8
f 4 9 14
f 4 14 24
f 4 24 48
f 4 48 74
f 4 74 106
f 4 106 141
f 4 141 112
f 4 112 80
f 4 80 53
f 4 53 28
f 4 28 16
f 4 16 10
f 4 10 5
f 6 11 18
f 6 18 34
f 6 34 60
f 6 60 91
f 6 91 121
f 6 121 120
f 6 120 153
f 6 153 155
f 6 155 177
f 6 177 176
f 6 176 194
f 6 194 193
f 6 193 212
f 6 212 211
f 6 211 230
f 6 230 229
f 6 229 228
f 6 228 226
f 6 226 225
f 6 225 224
f 6 224 222
f 6 222 221
f 6 221 219
f 6 219 218
f 6 218 217
f 6 217 216
f 6 216 214
f 6 214 213
f 6 213 199
f 6 199 198
f 6 198 196
f 6 196 197
f 6 197 195
f 6 195 179
f 6 179 158
f 6 158 157
f 6 157 156
f 6 156 124
f 6 124 123
f 6 123 92
f 6 92 61
f 6 61 35
f 6 35 19
f 6 19 12
f 6 12 8
f 6 8 7
f 9 13 14
f 10 16 15
f 11 17 18
f 12 19 20
f 13 21 22
f 13 22 14
f 14 22 23
f 14 23 24
f 15 16 26
f 15 26 27
f 15 27 25
f 16 28 29
f 16 29 26
f 17 30 31
f 17 31 18
f 18 31 32
f 18 32 33
f 18 33 34
f 19 35 36
f 19 36 37
f 19 37 38
f 19 38 20
f 20 38 37
f 20 37 39
f 20 39 40
f 21 41 42
f 21 42 43
f 21 43 44
f 21 44 22
f 21 45 41
f 22 44 23
f 23 44 46
f 23 46 47
f 23 47 48
f 23 48 24
f 25 27 49
f 26 29 50
f 26 50 51
f 26 51 27
f 27 51 49
f 28 52 29
f 28 53 52
f 29 52 54
f 29 54 50
f 30 49 76
f 30 76 55
f 30 55 31
f 31 55 56
f 31 56 32
f 32 56 33
f 33 57 58
f 33 58 59
f 33 59 34
f 33 56 57
f 34 59 60
f 35 61 62
f 35 62 36
f 36 62 63
f 36 63 37
f 37 63 64
f 37 64 39
f 39 65 40
f 39 64 66
f 39 66 65
f 40 65 67
f 41 45 67
f 41 67 68
f 41 68 66
f 41 66 69
f 41 69 42
f 42 69 70
f 42 70 46
f 42 46 43
f 43 46 44
f 46 70 71
f 46 71 47
f 47 71 72
f 47 72 73
f 47 73 48
f 48 73 74
f 49 51 75
f 49 75 76
f 50 54 77
f 50 77 75
f 50 75 51
f 52 53 78
f 52 78 79
f 52 79 54
f 53 80 81
f 53 81 78
f 54 79 82
f 54 82 77
f 55 76 83
f 55 83 56
f 56 83 57
f 57 83 84
f 57 84 85
f 57 85 86
f 57 86 58
f 58 86 87
f 58 87 59
f 59 88 60
f 59 87 88
f 60 88 89
f 60 89 90
f 60 90 91
f 61 92 93
f 61 93 94
f 61 94 62
f 62 94 63
f 63 94 93
f 63 93 95
f 63 95 96
f 63 96 97
f 63 97 98
f 63 98 64
f 64 69 66
f 64 98 99
f 64 99 69
f 65 66 67
f 66 68 67
f 69 99 100
f 69 100 70
f 70 100 71
f 71 101 72
f 71 100 101
f 72 102 103
f 72 103 104
f 72 104 105
f 72 105 73
f 72 101 102
f 73 105 106
f 73 106 74
f 75 84 76
f 75 77 84
f 76 84 83
f 77 85 84
f 77 82 107
f 77 107 85
f 78 81 108
f 78 108 79
f 79 108 109
f 79 109 110
f 79 110 111
f 79 111 82
f 80 112 81
f 81 112 113
f 81 113 114
f 81 114 108
f 82 115 116
f 82 116 107
f 82 111 115
f 85 107 86
f 86 107 116
f 86 116 117
f 86 117 87
f 87 117 118
f 87 118 89
f 87 89 88
f 89 119 120
f 89 120 121
f 89 121 90
f 89 118 122
f 89 122 119
f 90 121 91
f 92 123 93
f 93 123 95
f 95 123 96
f 96 123 124
f 96 124 97
f 97 124 125
f 97 125 126
f 97 126 127
f 97 127 128
f 97 128 129
f 97 129 130
f 97 130 98
f 98 130 131
f 98 131 100
f 98 100 99
f 100 131 101
f 101 131 132
f 101 132 102
f 102 132 133
f 102 133 134
f 102 134 135
f 102 135 136
f 102 136 103
f 103 136 137
f 103 137 104
f 104 137 138
f 104 138 139
f 104 139 106
f 104 106 105
f 106 139 140
f 106 140 141
f 108 114 142
f 108 142 143
f 108 143 144
f 108 144 109
f 109 144 145
f 109 145 110
f 110 146 111
f 110 145 147
f 110 147 146
f 111 146 148
f 111 148 116
f 111 116 115
f 112 149 150
f 112 150 113
f 112 141 151
f 112 151 149
f 113 150 114
f 114 150 142
f 116 148 118
f 116 118 117
f 118 148 122
f 119 122 120
f 120 122 152
f 120 152 153
f 122 148 154
f 122 154 155
f 122 155 153
f 122 153 152
f 124 156 125
f 125 156 126
f 126 156 127
f 127 156 157
f 127 157 128
f 128 157 158
f 128 158 159
f 128 159 160
f 128 160 129
f 129 160 133
f 129 133 130
f 130 133 132
f 130 132 131
f 133 160 161
f 133 161 134
f 134 161 135
f 135 161 162
f 135 162 163
f 135 163 136
f 136 163 164
f 136 164 137
f 137 164 165
f 137 165 138
f 138 140 139
f 138 165 166
f 138 166 167
f 138 167 140
f 140 167 151
f 140 151 141
f 142 150 168
f 142 168 169
f 142 169 143
f 143 169 170
f 143 170 144
f 144 170 171
f 144 171 172
f 144 172 145
f 145 173 147
f 145 172 173
f 146 147 173
f 146 173 174
f 146 174 154
f 146 154 148
f 149 151 175
f 149 175 150
f 150 175 168
f 151 167 175
f 154 176 177
f 154 177 155
f 154 174 178
f 154 178 176
f 158 179 159
f 159 179 180
f 159 180 160
f 160 180 181
f 160 181 161
f 161 181 182
f 161 182 162
f 162 182 183
f 162 183 163
f 163 183 164
f 164 183 184
f 164 184 165
f 165 184 185
f 165 185 186
f 165 186 166
f 166 186 175
f 166 175 167
f 168 175 187
f 168 187 188
f 168 188 169
f 169 188 189
f 169 189 170
f 170 190 171
f 170 189 190
f 171 190 172
f 172 190 191
f 172 191 173
f 173 191 192
f 173 192 174
f 174 192 193
f 174 193 194
f 174 194 178
f 175 186 187
f 176 178 194
f 179 195 180
f 180 196 181
f 180 195 197
f 180 197 196
f 181 198 199
f 181 199 200
f 181 200 201
f 181 201 182
f 181 196 198
f 182 201 202
f 182 202 183
f 183 202 184
f 184 203 204
f 184 204 185
f 184 202 203
f 185 204 205
f 185 205 186
f 186 205 187
f 187 205 188
f 188 205 189
f 189 205 206
f 189 206 207
f 189 207 190
f 190 207 191
f 191 207 208
f 191 208 209
f 191 209 210
f 191 210 192
f 192 210 211
f 192 211 212
f 192 212 193
f 199 213 200
f 200 213 201
f 201 213 202
f 202 213 214
f 202 214 215
f 202 215 203
f 203 215 216
f 203 216 217
f 203 217 218
f 203 218 204
f 204 218 219
f 204 219 220
f 204 220 205
f 205 220 221
f 205 221 222
f 205 222 223
f 205 223 224
f 205 224 206
f 206 224 207
f 207 225 226
f 207 226 227
f 207 227 208
f 207 224 225
f 208 227 228
f 208 228 229
f 208 229 209
f 209 229 230
f 209 230 211
f 209 211 210
f 214 216 215
f 219 221 220
f 222 224 223
f 226 228 227

