# https://github.com/mikedh/trimesh
v 0.03365704 -0.03070372 0.00484032
v 0.03414657 -0.03070372 0.00389786
v 0.04135845 -0.03070372 0.00484032
v 0.04354728 -0.01374306 0.00484032
v 0.04324327 -0.01444872 0.00409419
v 0.03691066 -0.03070372 0.00075579
v 0.04547107 -0.01386261 0.00075579
v 0.04135845 -0.03070372 0.00346402
v 0.04140678 -0.03064062 0.00484032
v 0.04958057 -0.01374306 0.00484032
v 0.04399627 -0.01374306 0.00392026
v 0.04556929 -0.01374306 0.00075579
v 0.04093597 -0.03070372 0.00075579
v 0.04133195 -0.03070372 0.00206972
v 0.04140678 -0.03064062 0.00346402
v 0.04192281 -0.02994327 0.00484032
v 0.04958213 -0.01374306 0.00334566
v 0.04956498 -0.01384434 0.00484032
v 0.04923915 -0.01374306 0.00075579
v 0.04107472 -0.03051443 0.00075579
v 0.04100144 -0.03070372 0.00086256
v 0.04189319 -0.02990342 0.00136158
v 0.04139275 -0.03062236 0.00206972
v 0.04192281 -0.02994327 0.00346402
v 0.04308270 -0.02823973 0.00484032
v 0.04957589 -0.01374306 0.00206972
v 0.04956186 -0.01386261 0.00346402
v 0.04956186 -0.01386261 0.00484032
v 0.04955095 -0.01374306 0.00195137
v 0.04901777 -0.01525731 0.00103570
v 0.04911131 -0.01438230 0.00075579
v 0.04115111 -0.03040983 0.00075579
v 0.04307958 -0.02821815 0.00206972
v 0.04190878 -0.02992500 0.00206972
v 0.04170455 -0.02964938 0.00075579
v 0.04204909 -0.02916455 0.00075579
v 0.04211145 -0.02907655 0.00075579
v 0.04212080 -0.02910810 0.00080818
v 0.04343815 -0.02736970 0.00106888
v 0.04353013 -0.02752079 0.00206972
v 0.04308270 -0.02823973 0.00346402
v 0.04353792 -0.02755234 0.00484032
v 0.04955407 -0.01386261 0.00206972
v 0.04922668 -0.01523905 0.00484032
v 0.04922200 -0.01525731 0.00346402
v 0.04888994 -0.01603769 0.00129920
v 0.04874807 -0.01559603 0.00075579
v 0.04886499 -0.01525731 0.00075579
v 0.04895074 -0.01498833 0.00075579
v 0.04354260 -0.02754237 0.00346402
v 0.04234685 -0.02872622 0.00075579
v 0.04303749 -0.02769513 0.00075579
v 0.04334305 -0.02721694 0.00075579
v 0.04486774 -0.02464669 0.00075579
v 0.04492075 -0.02473469 0.00093533
v 0.04607596 -0.02293486 0.00135998
v 0.04505482 -0.02496382 0.00206972
v 0.04506729 -0.02498541 0.00346402
v 0.04506729 -0.02498541 0.00484032
v 0.04919862 -0.01525731 0.00206972
v 0.04922200 -0.01525731 0.00484032
v 0.04893203 -0.01613233 0.00484032
v 0.04892735 -0.01614229 0.00346402
v 0.04891644 -0.01611074 0.00206972
v 0.04771913 -0.01939661 0.00206972
v 0.04762716 -0.01915918 0.00103689
v 0.04754765 -0.01896160 0.00075579
v 0.04523878 -0.02393440 0.00075579
v 0.04544613 -0.02353425 0.00075579
v 0.04594188 -0.02251146 0.00075579
v 0.04624277 -0.02222754 0.00104729
v 0.04742292 -0.02009396 0.00206972
v 0.04644076 -0.02222754 0.00206972
v 0.04609155 -0.02296640 0.00206972
v 0.04575169 -0.02366375 0.00206972
v 0.04576416 -0.02368866 0.00346402
v 0.04507665 -0.02496881 0.00484032
v 0.04773161 -0.01942650 0.00346402
v 0.04773161 -0.01942650 0.00484032
v 0.04744163 -0.02012385 0.00346402
v 0.04644076 -0.02145049 0.00075579
v 0.04735121 -0.01941820 0.00075579
v 0.04607908 -0.02222754 0.00075579
v 0.04618197 -0.02201169 0.00075579
v 0.04646415 -0.02222754 0.00346402
v 0.04610246 -0.02299131 0.00346402
v 0.04609934 -0.02299961 0.00484032
v 0.04576416 -0.02368866 0.00484032
v 0.04772849 -0.01943480 0.00484032
v 0.04744163 -0.02012385 0.00484032
v 0.04647350 -0.02221094 0.00484032
f 1 2 6
f 1 6 13
f 1 13 21
f 1 21 14
f 1 14 8
f 1 8 3
f 1 3 9
f 1 9 16
f 1 16 25
f 1 25 42
f 1 42 59
f 1 59 77
f 1 77 88
f 1 88 87
f 1 87 91
f 1 91 90
f 1 90 89
f 1 89 79
f 1 79 62
f 1 62 61
f 1 61 44
f 1 44 28
f 1 28 18
f 1 18 10
f 1 10 4
f 1 4 5
f 1 5 2
f 2 5 7
f 2 7 6
f 3 8 15
f 3 15 9
f 4 10 17
f 4 17 26
f 4 26 29
f 4 29 19
f 4 19 12
f 4 12 11
f 4 11 5
f 5 11 12
f 5 12 7
f 6 7 12
f 6 12 19
f 6 19 31
f 6 31 49
f 6 49 48
f 6 48 47
f 6 47 67
f 6 67 82
f 6 82 81
f 6 81 84
f 6 84 83
f 6 83 70
f 6 70 69
f 6 69 68
f 6 68 54
f 6 54 53
f 6 53 52
f 6 52 51
f 6 51 37
f 6 37 36
f 6 36 35
f 6 35 32
f 6 32 20
f 6 20 13
f 8 14 15
f 9 15 24
f 9 24 16
f 10 18 17
f 13 20 21
f 14 21 22
f 14 22 23
f 14 23 15
f 15 23 34
f 15 34 24
f 16 24 41
f 16 41 25
f 17 18 27
f 17 27 26
f 18 28 27
f 19 29 30
f 19 30 31
f 20 32 22
f 20 22 21
f 22 33 34
f 22 34 23
f 22 32 35
f 22 35 36
f 22 36 37
f 22 37 38
f 22 38 39
f 22 39 40
f 22 40 33
f 24 34 33
f 24 33 41
f 25 41 42
f 26 27 43
f 26 43 29
f 27 44 45
f 27 45 43
f 27 28 44
f 29 43 30
f 30 46 47
f 30 47 48
f 30 48 49
f 30 49 31
f 30 43 46
f 33 40 50
f 33 50 41
f 37 51 38
f 38 51 39
f 39 52 53
f 39 53 54
f 39 54 55
f 39 55 56
f 39 56 57
f 39 57 40
f 39 51 52
f 40 57 58
f 40 58 50
f 41 50 42
f 42 50 58
f 42 58 59
f 43 45 60
f 43 60 46
f 44 61 45
f 45 61 62
f 45 62 63
f 45 63 64
f 45 64 60
f 46 60 64
f 46 64 65
f 46 65 66
f 46 66 67
f 46 67 47
f 54 68 55
f 55 68 69
f 55 69 56
f 56 70 71
f 56 71 66
f 56 66 72
f 56 72 73
f 56 73 74
f 56 74 75
f 56 75 57
f 56 69 70
f 57 75 76
f 57 76 58
f 58 76 77
f 58 77 59
f 62 78 63
f 62 79 78
f 63 78 64
f 64 78 65
f 65 78 80
f 65 80 72
f 65 72 66
f 66 71 81
f 66 81 82
f 66 82 67
f 70 83 71
f 71 83 84
f 71 84 81
f 72 80 73
f 73 80 85
f 73 85 74
f 74 85 86
f 74 86 76
f 74 76 75
f 76 86 87
f 76 87 88
f 76 88 77
f 78 79 89
f 78 89 80
f 80 90 91
f 80 91 85
f 80 89 90
f 85 91 86
f 86 91 87

