# https://github.com/mikedh/trimesh
v 0.04741812 0.02057938 0.09967664
v 0.04719376 0.02108562 0.09828580
v 0.04719224 0.02108562 0.09967664
v 0.04638637 0.02236471 0.11083570
v 0.04713729 0.02057938 0.11083570
v 0.04741812 0.02057938 0.01461984
v 0.04658784 0.02239525 0.09828580
v 0.04719376 0.02108562 0.01461984
v 0.04658631 0.02239525 0.09967664
v 0.04501426 0.02505563 0.11083570
v 0.04497915 0.02499455 0.11222654
v 0.04635279 0.02229189 0.11222654
v 0.04708540 0.02057938 0.11222654
v 0.04616201 0.02327147 0.09967664
v 0.04740286 0.02057938 0.01364949
v 0.04658784 0.02239525 0.01461984
v 0.04739523 0.02057938 0.01322900
v 0.04718003 0.02105860 0.01322900
v 0.04656189 0.02239525 0.01322900
v 0.04348494 0.02761147 0.11083570
v 0.04580334 0.02396799 0.09967664
v 0.04515315 0.02518365 0.09967664
v 0.04472427 0.02596239 0.09967664
v 0.04431370 0.02665773 0.09967664
v 0.04344831 0.02755156 0.11222654
v 0.04336894 0.02741884 0.11307829
v 0.04485400 0.02478548 0.11321845
v 0.04623527 0.02204523 0.11321845
v 0.04661226 0.02057938 0.11363894
v 0.04616201 0.02327147 0.01461984
v 0.04614980 0.02324681 0.01322900
v 0.04713729 0.02057938 0.00484084
v 0.04638637 0.02236471 0.00484084
v 0.04305453 0.02830916 0.11083570
v 0.04361772 0.02780409 0.09967664
v 0.04580334 0.02396799 0.01461984
v 0.04515315 0.02518365 0.01461984
v 0.04472427 0.02596239 0.01461984
v 0.04431370 0.02665773 0.01461984
v 0.04301790 0.02824808 0.11222654
v 0.04232040 0.02926290 0.11222654
v 0.04053620 0.03151570 0.11300282
v 0.04215098 0.02902916 0.11331549
v 0.04260276 0.02799437 0.11366051
v 0.04305301 0.02689499 0.11400552
v 0.04452433 0.02423696 0.11415646
v 0.04591781 0.02141449 0.11414568
v 0.04620932 0.02057938 0.11424271
v 0.04579113 0.02394332 0.01322900
v 0.04501426 0.02505563 0.00484084
v 0.04073156 0.02057938 0.00484084
v 0.04235856 0.02931458 0.11083570
v 0.04315221 0.02850178 0.09967664
v 0.04199531 0.03021077 0.09967664
v 0.04361772 0.02780409 0.01461984
v 0.04512720 0.02518365 0.01322900
v 0.04471053 0.02594007 0.01322900
v 0.04429997 0.02663541 0.01322900
v 0.04059725 0.03159675 0.11222654
v 0.04063540 0.03164960 0.11083570
v 0.03946781 0.03257633 0.11332627
v 0.03972270 0.03205952 0.11354190
v 0.04020042 0.03106350 0.11393005
v 0.04005695 0.03229443 0.11222654
v 0.03982648 0.03257633 0.11222654
v 0.04180605 0.02856991 0.11424271
v 0.04333384 0.02596591 0.11435054
v 0.04478837 0.02330788 0.11440444
v 0.04601396 0.02057938 0.11442600
v 0.04348494 0.02761147 0.00484084
v 0.04071172 0.02060170 0.00484084
v 0.04072088 0.02057938 0.00486241
v 0.04148096 0.03090845 0.09967664
v 0.04315221 0.02850178 0.01461984
v 0.04199531 0.03021077 0.01461984
v 0.04360246 0.02778178 0.01322900
v 0.04314153 0.02847947 0.01322900
v 0.04009816 0.03234611 0.11083570
v 0.04078345 0.03183166 0.09967664
v 0.03892904 0.03257633 0.11404864
v 0.04054535 0.03013325 0.11435054
v 0.03990890 0.03257633 0.11083570
v 0.04212351 0.02763966 0.11446913
v 0.04355515 0.02518365 0.11447991
v 0.04402829 0.02377888 0.11460929
v 0.04499289 0.02239525 0.11451226
v 0.04542177 0.02096934 0.11459851
v 0.04540804 0.02057938 0.11467399
v 0.04304690 0.02832208 0.00484084
v 0.03183954 0.03257633 0.00484084
v 0.03183496 0.03257633 0.00486241
v 0.04071782 0.02057938 0.00625324
v 0.03182733 0.03257633 0.00625324
v 0.04148096 0.03090845 0.01461984
v 0.04198005 0.03019080 0.01322900
v 0.04023552 0.03252935 0.09967664
v 0.04078345 0.03183166 0.01461984
v 0.03885883 0.03257633 0.11411334
v 0.03927245 0.03167427 0.11442600
v 0.04019584 0.03257633 0.09967664
v 0.03976086 0.03066297 0.11453382
v 0.04128101 0.02805193 0.11466320
v 0.04258750 0.02648976 0.11455539
v 0.04258445 0.02518365 0.11482493
v 0.04397945 0.02239525 0.11487884
v 0.04397945 0.02099987 0.11497587
v 0.04397945 0.02057938 0.11497587
v 0.04235856 0.02931458 0.00484084
v 0.03876421 0.03257633 0.00484084
v 0.04071782 0.02057938 0.11083570
v 0.03182733 0.03257633 0.10943408
v 0.04146569 0.03088849 0.01322900
v 0.04076819 0.03181286 0.01322900
v 0.04023552 0.03252935 0.01461984
v 0.03821475 0.03257633 0.11454461
v 0.03841469 0.03214526 0.11460929
v 0.04019584 0.03257633 0.01461984
v 0.03979596 0.02936626 0.11482493
v 0.04119096 0.02657786 0.11495431
v 0.04258445 0.02378945 0.11497587
v 0.03979596 0.02797088 0.11498665
v 0.03700900 0.03076046 0.11496509
v 0.03561399 0.03215466 0.11494353
v 0.04258445 0.02239525 0.11496509
v 0.04258445 0.02099987 0.11480336
v 0.04257834 0.02057938 0.11472789
v 0.04063540 0.03164960 0.00484084
v 0.04008900 0.03235669 0.00484084
v 0.03990890 0.03257633 0.00485162
v 0.04076361 0.02057938 0.11222654
v 0.03182886 0.03257633 0.11083570
v 0.04021873 0.03250938 0.01322900
v 0.04009816 0.03234611 0.00484084
v 0.04016379 0.03257633 0.01322900
v 0.04019431 0.03257633 0.01454437
v 0.03701968 0.03257633 0.11485727
v 0.03700900 0.03215466 0.11495431
v 0.03840401 0.03076046 0.11491118
v 0.03561399 0.03257633 0.11495431
v 0.03421746 0.03257633 0.11469555
v 0.03342991 0.03257633 0.11444757
v 0.04178010 0.02057938 0.11439366
v 0.03192654 0.03257633 0.11222654
v 0.04120165 0.02057938 0.11358503
v 0.03325591 0.03257633 0.11430741
v 0.03268204 0.03257633 0.11376832
v 0.03226232 0.03257633 0.11325080
f 1 2 3
f 1 3 4
f 1 4 5
f 1 5 13
f 1 13 29
f 1 29 48
f 1 48 69
f 1 69 88
f 1 88 107
f 1 107 126
f 1 126 142
f 1 142 144
f 1 144 130
f 1 130 110
f 1 110 92
f 1 92 72
f 1 72 51
f 1 51 32
f 1 32 17
f 1 17 15
f 1 15 6
f 1 6 8
f 1 8 2
f 2 7 9
f 2 9 3
f 2 8 16
f 2 16 7
f 3 9 4
f 4 10 11
f 4 11 12
f 4 12 13
f 4 13 5
f 4 9 14
f 4 14 10
f 6 15 8
f 7 14 9
f 7 16 30
f 7 30 14
f 8 15 17
f 8 17 18
f 8 18 19
f 8 19 16
f 10 20 11
f 10 14 21
f 10 21 22
f 10 22 23
f 10 23 24
f 10 24 20
f 11 20 25
f 11 25 26
f 11 26 27
f 11 27 12
f 12 27 28
f 12 28 13
f 13 28 29
f 14 30 36
f 14 36 21
f 16 19 31
f 16 31 30
f 17 32 33
f 17 33 18
f 18 33 19
f 19 33 31
f 20 34 25
f 20 24 35
f 20 35 34
f 21 36 37
f 21 37 22
f 22 37 38
f 22 38 23
f 23 38 39
f 23 39 24
f 24 39 55
f 24 55 35
f 25 34 40
f 25 40 26
f 26 40 41
f 26 41 42
f 26 42 43
f 26 43 44
f 26 44 45
f 26 45 27
f 27 45 46
f 27 46 28
f 28 46 47
f 28 47 29
f 29 47 48
f 30 31 49
f 30 49 36
f 31 33 50
f 31 50 49
f 32 51 71
f 32 71 90
f 32 90 109
f 32 109 128
f 32 128 133
f 32 133 127
f 32 127 108
f 32 108 89
f 32 89 70
f 32 70 50
f 32 50 33
f 34 52 41
f 34 41 40
f 34 35 53
f 34 53 54
f 34 54 52
f 35 55 74
f 35 74 53
f 36 49 37
f 37 49 56
f 37 56 38
f 38 56 57
f 38 57 58
f 38 58 39
f 39 58 55
f 41 59 42
f 41 52 60
f 41 60 59
f 42 61 62
f 42 62 63
f 42 63 43
f 42 59 64
f 42 64 65
f 42 65 61
f 43 63 66
f 43 66 44
f 44 66 45
f 45 66 67
f 45 67 46
f 46 67 68
f 46 68 47
f 47 68 48
f 48 68 69
f 49 50 56
f 50 70 58
f 50 58 57
f 50 57 56
f 51 72 71
f 52 54 73
f 52 73 60
f 53 74 75
f 53 75 54
f 54 75 94
f 54 94 73
f 55 58 76
f 55 76 77
f 55 77 74
f 58 70 76
f 59 60 78
f 59 78 64
f 60 73 79
f 60 79 78
f 61 80 62
f 61 65 82
f 61 82 100
f 61 100 117
f 61 117 135
f 61 135 134
f 61 134 129
f 61 129 109
f 61 109 90
f 61 90 91
f 61 91 93
f 61 93 111
f 61 111 131
f 61 131 143
f 61 143 147
f 61 147 146
f 61 146 145
f 61 145 141
f 61 141 140
f 61 140 139
f 61 139 136
f 61 136 115
f 61 115 98
f 61 98 80
f 62 80 63
f 63 80 81
f 63 81 66
f 64 78 65
f 65 78 82
f 66 81 83
f 66 83 67
f 67 83 84
f 67 84 68
f 68 84 85
f 68 85 86
f 68 86 69
f 69 86 87
f 69 87 88
f 70 89 76
f 71 72 90
f 72 91 90
f 72 92 93
f 72 93 91
f 73 94 97
f 73 97 79
f 74 77 75
f 75 77 95
f 75 95 112
f 75 112 94
f 76 89 77
f 77 89 95
f 78 79 96
f 78 96 82
f 79 97 114
f 79 114 96
f 80 98 99
f 80 99 81
f 81 99 83
f 82 96 100
f 83 99 101
f 83 101 102
f 83 102 103
f 83 103 84
f 84 103 85
f 85 103 104
f 85 104 105
f 85 105 86
f 86 105 88
f 86 88 87
f 88 105 106
f 88 106 107
f 89 108 95
f 92 110 111
f 92 111 93
f 94 112 113
f 94 113 97
f 95 108 112
f 96 114 117
f 96 117 100
f 97 113 114
f 98 115 99
f 99 115 116
f 99 116 101
f 101 116 118
f 101 118 102
f 102 118 119
f 102 119 104
f 102 104 103
f 104 119 105
f 105 119 120
f 105 120 106
f 106 120 121
f 106 121 107
f 107 121 122
f 107 122 123
f 107 123 124
f 107 124 125
f 107 125 126
f 108 127 112
f 109 129 128
f 110 130 131
f 110 131 111
f 112 127 113
f 113 132 114
f 113 127 133
f 113 133 132
f 114 132 134
f 114 134 135
f 114 135 117
f 115 136 116
f 116 136 137
f 116 137 138
f 116 138 118
f 118 138 119
f 119 137 121
f 119 121 120
f 119 138 137
f 121 137 139
f 121 139 122
f 122 139 123
f 123 125 124
f 123 139 140
f 123 140 125
f 125 140 126
f 126 140 141
f 126 141 142
f 128 129 133
f 129 134 133
f 130 143 131
f 130 144 143
f 132 133 134
f 136 139 137
f 141 145 142
f 142 145 146
f 142 146 147
f 142 147 144
f 143 144 147

