# https://github.com/mikedh/trimesh
v 0.01054351 -0.04729826 0.11497340
v 0.01051360 -0.04732819 0.11498418
v 0.01054351 -0.04732819 0.11497340
v 0.01054351 -0.04638349 0.11473621
v 0.00000670 -0.04872193 0.11497340
v 0.00354235 -0.04872193 0.11497340
v 0.00493680 -0.04872193 0.11496262
v 0.00633023 -0.04872193 0.11494106
v 0.00772468 -0.04872193 0.11489793
v 0.00911914 -0.04872193 0.11483324
v 0.01054351 -0.04883541 0.11463917
v 0.01054351 -0.04792064 0.11484402
v 0.00772468 -0.04732819 0.11494106
v 0.01054351 -0.04585788 0.11459605
v 0.00000670 -0.04807379 0.11485480
v 0.00000670 -0.04939653 0.11479011
v 0.00075343 -0.04998201 0.11462839
v 0.00354235 -0.04990752 0.11460683
v 0.00493680 -0.04986018 0.11459605
v 0.00633023 -0.04979056 0.11456370
v 0.01054351 -0.04886256 0.11462839
v 0.00772468 -0.04970284 0.11452058
v 0.00911914 -0.04960259 0.11446667
v 0.00000670 -0.04732819 0.11471464
v 0.01054351 -0.04527518 0.11427260
v 0.00000670 -0.04657354 0.11436964
v 0.00000670 -0.04998271 0.11462839
v 0.00000670 -0.05035585 0.11439120
v 0.00075343 -0.05067888 0.11417557
v 0.00214789 -0.05064059 0.11413245
v 0.00354235 -0.05060439 0.11407854
v 0.01054351 -0.04891338 0.11460683
v 0.00493680 -0.05055774 0.11399228
v 0.00633023 -0.05048813 0.11383056
v 0.01017530 -0.04950652 0.11439120
v 0.01054351 -0.04492431 0.11370119
v 0.00000670 -0.04637374 0.11402463
v 0.00000670 -0.05067958 0.11417557
v 0.00000670 -0.05091419 0.11380900
v 0.00075343 -0.05111677 0.11348556
v 0.00354235 -0.05104855 0.11337774
v 0.01054351 -0.04945710 0.11434808
v 0.00493680 -0.05099912 0.11329149
v 0.00633023 -0.05091558 0.11314055
v 0.00725333 -0.05084735 0.11300039
v 0.01054351 -0.04982746 0.11373353
v 0.01054351 -0.04978221 0.11380900
v 0.01054351 -0.04491943 0.11369041
v 0.00000670 -0.04614470 0.11361493
v 0.00000670 -0.05111747 0.11348556
v 0.00000670 -0.05148366 0.11222413
v 0.00075343 -0.05148226 0.11222413
v 0.00214789 -0.05141404 0.11222413
v 0.00354235 -0.05134512 0.11222413
v 0.00493680 -0.05124765 0.11222413
v 0.00818263 -0.05074432 0.11253679
v 0.01054351 -0.05027510 0.11222413
v 0.00633023 -0.05108058 0.11222413
v 0.00772056 -0.05088286 0.11212709
v 0.01054351 -0.04475792 0.11317289
v 0.01054351 -0.04446344 0.11222413
v 0.00000670 -0.04579313 0.11222413
v 0.00000670 -0.05151707 0.11148021
v 0.00075343 -0.05154422 0.11083332
v 0.00354235 -0.05140777 0.11083332
v 0.00493680 -0.05131031 0.11083332
v 0.00633023 -0.05114393 0.11083332
v 0.00846523 -0.05082020 0.11159880
v 0.00848792 -0.05082368 0.11083332
v 0.00848792 -0.05082368 0.00484072
v 0.01054351 -0.05027440 0.00485150
v 0.01054351 -0.04446274 0.11219178
v 0.01054351 -0.04443490 0.11083332
v 0.01054351 -0.04443420 0.10943173
v 0.01054351 -0.04443420 0.00623153
v 0.00000670 -0.04581402 0.00486229
v 0.00000670 -0.05154561 0.11083332
v 0.00075343 -0.05154422 0.00484072
v 0.00354235 -0.05140777 0.00484072
v 0.00491927 -0.05131170 0.00484072
v 0.00493680 -0.05131031 0.00484072
v 0.00633023 -0.05114393 0.00484072
v 0.01051360 -0.05027788 0.00484072
v 0.01054351 -0.04889737 0.00484072
v 0.01054351 -0.04443559 0.00486229
v 0.00000670 -0.04582098 0.00484072
v 0.00000670 -0.05154561 0.00484072
v 0.01054351 -0.04445578 0.00484072
v 0.01054351 -0.04444395 0.00485150
v 0.01051360 -0.04444952 0.00484072
f 1 2 3
f 1 3 12
f 1 12 11
f 1 11 21
f 1 21 32
f 1 32 42
f 1 42 47
f 1 47 46
f 1 46 57
f 1 57 71
f 1 71 84
f 1 84 88
f 1 88 89
f 1 89 85
f 1 85 75
f 1 75 74
f 1 74 73
f 1 73 72
f 1 72 61
f 1 61 60
f 1 60 48
f 1 48 36
f 1 36 25
f 1 25 14
f 1 14 4
f 1 4 2
f 2 5 6
f 2 6 7
f 2 7 8
f 2 8 9
f 2 9 10
f 2 10 11
f 2 11 12
f 2 12 3
f 2 4 13
f 2 13 5
f 4 14 13
f 5 13 15
f 5 15 24
f 5 24 26
f 5 26 37
f 5 37 49
f 5 49 62
f 5 62 76
f 5 76 86
f 5 86 87
f 5 87 77
f 5 77 63
f 5 63 51
f 5 51 50
f 5 50 39
f 5 39 38
f 5 38 28
f 5 28 27
f 5 27 16
f 5 16 6
f 6 16 17
f 6 17 7
f 7 17 8
f 8 17 18
f 8 18 19
f 8 19 9
f 9 19 20
f 9 20 10
f 10 21 11
f 10 20 22
f 10 22 23
f 10 23 21
f 13 14 24
f 13 24 15
f 14 25 26
f 14 26 24
f 16 27 17
f 17 27 28
f 17 28 29
f 17 29 18
f 18 29 19
f 19 29 30
f 19 30 31
f 19 31 20
f 20 31 22
f 21 23 32
f 22 31 33
f 22 33 23
f 23 33 34
f 23 34 35
f 23 35 32
f 25 36 26
f 26 36 37
f 28 38 29
f 29 38 39
f 29 39 40
f 29 40 30
f 30 40 41
f 30 41 31
f 31 41 33
f 32 35 42
f 33 41 43
f 33 43 34
f 34 43 44
f 34 44 35
f 35 44 45
f 35 45 46
f 35 46 47
f 35 47 42
f 36 48 49
f 36 49 37
f 39 50 40
f 40 50 51
f 40 51 52
f 40 52 41
f 41 52 53
f 41 53 54
f 41 54 43
f 43 54 55
f 43 55 44
f 44 55 45
f 45 56 57
f 45 57 46
f 45 55 58
f 45 58 59
f 45 59 56
f 48 60 49
f 49 60 61
f 49 61 62
f 51 63 52
f 52 63 64
f 52 64 65
f 52 65 53
f 53 65 54
f 54 65 66
f 54 66 55
f 55 66 67
f 55 67 58
f 56 59 68
f 56 68 57
f 57 68 69
f 57 69 70
f 57 70 71
f 58 67 68
f 58 68 59
f 61 72 62
f 62 72 73
f 62 73 74
f 62 74 75
f 62 75 76
f 63 77 64
f 64 77 87
f 64 87 78
f 64 78 79
f 64 79 65
f 65 79 80
f 65 80 66
f 66 80 81
f 66 81 82
f 66 82 67
f 67 69 68
f 67 82 70
f 67 70 69
f 70 82 81
f 70 81 80
f 70 80 79
f 70 79 78
f 70 78 87
f 70 87 86
f 70 86 90
f 70 90 88
f 70 88 84
f 70 84 83
f 70 83 71
f 71 83 84
f 75 85 76
f 76 85 86
f 85 89 90
f 85 90 86
f 88 90 89

