# https://github.com/mikedh/trimesh
v 0.00747243 0.05085504 0.02532851
v 0.00618436 0.05225627 0.02246767
v 0.00710862 0.05099875 0.02532851
v 0.00747243 0.04483064 0.02532851
v 0.00747243 0.05156777 0.02019563
v 0.00686674 0.05225627 0.02019563
v 0.00665239 0.05225627 0.02129933
v 0.00484515 0.05225627 0.02377918
v 0.00491398 0.05149925 0.02532851
v 0.00452068 0.05225627 0.02393850
v -0.01261756 0.04372018 0.02532851
v 0.00747243 0.04483064 0.00600228
v 0.00747243 0.05161957 0.01880100
v 0.00687264 0.05225627 0.02010558
v 0.00354135 0.05168976 0.02532851
v 0.00399955 0.05225627 0.02411629
v 0.00354135 0.05225627 0.02426638
v -0.01261756 0.04982563 0.02532851
v -0.01261756 0.04372018 0.00625396
v 0.00747243 0.04483148 0.00485933
v 0.00690804 0.05225627 0.01880100
v 0.00747243 0.05083331 0.00214858
v 0.00214709 0.05225627 0.02450420
v 0.00214709 0.05180423 0.02532851
v -0.00485766 0.05176329 0.02532851
v -0.00483210 0.05225627 0.02433565
v -0.00553218 0.05225627 0.02368451
v -0.00604544 0.05225627 0.02293178
v -0.00656264 0.05225627 0.02159949
v -0.00683795 0.05225627 0.02019563
v -0.01261756 0.04982563 0.00346470
v -0.01261756 0.04372186 0.00485933
v -0.01261756 0.04386808 0.00396575
v 0.00747243 0.04486240 0.00468847
v 0.00645770 0.05225627 0.01739021
v 0.00747243 0.05082161 0.00192691
v 0.00723448 0.05089264 0.00173989
v 0.00677628 0.05100711 0.00173989
v 0.00075086 0.05225627 0.02468199
v 0.00075086 0.05190784 0.02532851
v -0.00413792 0.05189197 0.02532851
v -0.00342997 0.05225627 0.02482284
v -0.00677305 0.05225627 0.01880100
v -0.01261756 0.04980307 0.00207007
v -0.01261756 0.04981727 0.00292671
v -0.01261756 0.04784284 0.00173989
v 0.00747243 0.04511724 0.00381567
v 0.00568289 0.05225627 0.01628882
v 0.00644590 0.05107145 0.00203544
v 0.00493561 0.05125861 0.00207007
v 0.00747243 0.05077984 0.00173989
v 0.00536825 0.05117589 0.00173989
v -0.00064341 0.05225627 0.02475819
v -0.00064341 0.05195463 0.02532851
v -0.00342997 0.05197218 0.02532851
v -0.00334737 0.05225627 0.02482515
v -0.00657050 0.05225627 0.01774580
v -0.00691858 0.05097786 0.00173989
v -0.01261756 0.04974123 0.00173989
v 0.00747243 0.04890567 0.00173989
v 0.00453248 0.05225627 0.01588475
v 0.00354135 0.05135554 0.00207007
v 0.00214709 0.05142405 0.00207007
v 0.00075086 0.05149257 0.00207007
v 0.00493561 0.05120848 0.00173989
v 0.00399758 0.05127449 0.00173989
v -0.00610050 0.05225627 0.01651048
v -0.00660787 0.05102883 0.00173989
v 0.00162203 0.05225627 0.01489188
v 0.00256202 0.05134468 0.00173989
v 0.00114416 0.05140734 0.00173989
v 0.00075086 0.05142071 0.00173989
v -0.00026977 0.05142322 0.00173989
v -0.00064341 0.05149591 0.00207007
v 0.00073119 0.05225627 0.01472333
v -0.00592155 0.05225627 0.01632346
v -0.00482423 0.05127031 0.00207007
v -0.00622833 0.05107061 0.00173989
v -0.00064341 0.05142405 0.00173989
v -0.00203767 0.05136389 0.00173989
v -0.00342997 0.05130123 0.00173989
v -0.00203767 0.05142990 0.00207007
v -0.00483800 0.05225627 0.01577392
v -0.00205340 0.05225627 0.01490112
v -0.00062571 0.05225627 0.01470024
v 0.00038902 0.05225627 0.01471178
v -0.00342997 0.05136139 0.00207007
v -0.00482423 0.05121934 0.00173989
f 1 2 3
f 1 3 9
f 1 9 15
f 1 15 24
f 1 24 40
f 1 40 54
f 1 54 55
f 1 55 41
f 1 41 25
f 1 25 18
f 1 18 11
f 1 11 4
f 1 4 12
f 1 12 20
f 1 20 34
f 1 34 47
f 1 47 60
f 1 60 51
f 1 51 36
f 1 36 22
f 1 22 13
f 1 13 5
f 1 5 6
f 1 6 7
f 1 7 2
f 2 8 3
f 2 7 6
f 2 6 14
f 2 14 21
f 2 21 35
f 2 35 48
f 2 48 61
f 2 61 69
f 2 69 75
f 2 75 86
f 2 86 85
f 2 85 84
f 2 84 83
f 2 83 76
f 2 76 67
f 2 67 57
f 2 57 43
f 2 43 30
f 2 30 29
f 2 29 28
f 2 28 27
f 2 27 26
f 2 26 42
f 2 42 56
f 2 56 53
f 2 53 39
f 2 39 23
f 2 23 17
f 2 17 16
f 2 16 10
f 2 10 8
f 3 8 10
f 3 10 9
f 4 11 19
f 4 19 12
f 5 13 14
f 5 14 6
f 9 10 16
f 9 16 17
f 9 17 15
f 11 18 31
f 11 31 45
f 11 45 44
f 11 44 59
f 11 59 46
f 11 46 33
f 11 33 32
f 11 32 19
f 12 19 20
f 13 21 14
f 13 22 21
f 15 23 24
f 15 17 23
f 18 25 26
f 18 26 27
f 18 27 28
f 18 28 29
f 18 29 30
f 18 30 31
f 19 32 20
f 20 32 33
f 20 33 34
f 21 22 36
f 21 36 37
f 21 37 38
f 21 38 35
f 23 39 40
f 23 40 24
f 25 41 26
f 26 41 42
f 30 43 44
f 30 44 45
f 30 45 31
f 33 46 47
f 33 47 34
f 35 38 49
f 35 49 50
f 35 50 48
f 36 51 37
f 37 51 60
f 37 60 46
f 37 46 59
f 37 59 58
f 37 58 68
f 37 68 78
f 37 78 88
f 37 88 81
f 37 81 80
f 37 80 79
f 37 79 73
f 37 73 72
f 37 72 71
f 37 71 70
f 37 70 66
f 37 66 65
f 37 65 52
f 37 52 38
f 38 52 50
f 38 50 49
f 39 53 54
f 39 54 40
f 41 55 42
f 42 55 56
f 43 57 44
f 44 58 59
f 44 57 58
f 46 60 47
f 48 50 62
f 48 62 63
f 48 63 64
f 48 64 61
f 50 52 65
f 50 65 66
f 50 66 62
f 53 56 54
f 54 56 55
f 57 67 58
f 58 67 68
f 61 64 69
f 62 66 63
f 63 66 64
f 64 66 70
f 64 70 71
f 64 71 72
f 64 72 73
f 64 73 74
f 64 74 75
f 64 75 69
f 67 76 77
f 67 77 68
f 68 77 78
f 73 79 74
f 74 79 80
f 74 80 81
f 74 81 82
f 74 82 76
f 74 76 83
f 74 83 84
f 74 84 85
f 74 85 86
f 74 86 75
f 76 82 87
f 76 87 77
f 77 87 88
f 77 88 78
f 81 88 87
f 81 87 82

