# https://github.com/mikedh/trimesh
v 0.00648579 0.08375024 0.07318480
v 0.00648071 0.08375024 0.07458035
v 0.00648198 0.08235578 0.07832830
v 0.00648325 0.08514362 0.04669355
v 0.00648325 0.08514362 0.05784758
v 0.00648071 0.08514362 0.06063868
v 0.00645656 0.08375024 0.07597245
v 0.00647562 0.08514362 0.06202732
v 0.00646927 0.08514362 0.06342287
v 0.00645783 0.08514362 0.06481842
v 0.00643496 0.08514362 0.06621051
v 0.00645656 0.08279081 0.07832830
v 0.00609950 0.08118530 0.07832830
v 0.00646927 0.08235578 0.07736799
v 0.00636634 0.08375024 0.04303887
v 0.00647435 0.08514362 0.04303887
v 0.00647817 0.08514362 0.04390591
v 0.00648198 0.08514362 0.04529800
v 0.00609696 0.08653807 0.05227229
v 0.00609187 0.08653807 0.05366439
v 0.00638795 0.08375024 0.07736799
v 0.00639684 0.08514362 0.06760606
v 0.00634601 0.08514362 0.06900161
v 0.00628121 0.08514362 0.07039716
v 0.00608044 0.08653807 0.05505994
v 0.00606265 0.08653807 0.05645549
v 0.00603723 0.08653807 0.05784758
v 0.00600547 0.08653807 0.05924313
v 0.00631170 0.08375024 0.07832830
v 0.00597751 0.08088164 0.07832830
v 0.00585171 0.08274774 0.04303887
v 0.00565348 0.08023879 0.07832830
v 0.00595845 0.08643901 0.04303887
v 0.00597243 0.08648639 0.04390591
v 0.00603596 0.08653807 0.04669355
v 0.00606519 0.08653807 0.04808910
v 0.00608425 0.08653807 0.04948120
v 0.00609442 0.08653807 0.05087674
v 0.00570431 0.08731121 0.05227229
v 0.00570177 0.08730906 0.05366439
v 0.00620370 0.08514362 0.07178925
v 0.00610331 0.08514362 0.07318480
v 0.00596353 0.08645300 0.06202732
v 0.00594447 0.08638840 0.06342287
v 0.00592287 0.08632271 0.06481842
v 0.00589873 0.08625595 0.06621051
v 0.00587077 0.08618919 0.06760606
v 0.00584028 0.08612350 0.06900161
v 0.00580470 0.08605890 0.07039716
v 0.00576531 0.08599752 0.07178925
v 0.00569415 0.08730045 0.05505994
v 0.00568271 0.08728752 0.05645549
v 0.00566619 0.08727030 0.05784758
v 0.00564459 0.08724768 0.05924313
v 0.00563315 0.08723476 0.05994090
v 0.00591017 0.08665544 0.06050051
v 0.00614906 0.08407651 0.07832830
v 0.00592668 0.08524161 0.07455272
v 0.00542222 0.08231486 0.04303887
v 0.00537139 0.08004605 0.07832830
v 0.00443870 0.08153526 0.04303887
v 0.00513631 0.08204997 0.04303887
v 0.00581105 0.08670498 0.04303887
v 0.00562172 0.08722292 0.04474876
v 0.00564713 0.08724984 0.04567798
v 0.00592668 0.08666944 0.04524619
v 0.00566619 0.08726922 0.04669355
v 0.00568398 0.08728860 0.04808910
v 0.00569669 0.08730260 0.04948120
v 0.00570177 0.08731014 0.05087674
v 0.00493554 0.08782808 0.05227229
v 0.00493554 0.08782161 0.05366439
v 0.00570812 0.08592430 0.07318480
v 0.00565857 0.08586830 0.07406911
v 0.00559884 0.08719815 0.06086666
v 0.00555056 0.08714970 0.06202732
v 0.00493554 0.08780331 0.05505994
v 0.00493554 0.08777639 0.05645549
v 0.00493554 0.08773870 0.05784758
v 0.00493554 0.08769132 0.05924313
v 0.00505499 0.08756534 0.06050051
v 0.00485422 0.08761164 0.06202732
v 0.00478560 0.08756857 0.06342287
v 0.00582376 0.08471074 0.07832830
v 0.00501305 0.07982100 0.07832830
v 0.00386307 0.08123914 0.04303887
v 0.00376142 0.07908662 0.07832830
v 0.00553531 0.08713677 0.04303887
v 0.00558360 0.08718307 0.04390591
v 0.00510327 0.08743181 0.04303887
v 0.00483897 0.08760303 0.04303887
v 0.00488726 0.08763318 0.04390591
v 0.00506769 0.08759333 0.04524619
v 0.00493554 0.08773655 0.04669355
v 0.00493554 0.08777854 0.04808910
v 0.00493554 0.08780869 0.04948120
v 0.00493554 0.08782377 0.05087674
v 0.00388849 0.08844939 0.05227229
v 0.00388086 0.08844508 0.05366439
v 0.00548194 0.08708616 0.06342287
v 0.00540316 0.08702048 0.06481842
v 0.00531294 0.08695264 0.06621051
v 0.00521001 0.08688588 0.06760606
v 0.00493554 0.08645516 0.07318480
v 0.00503593 0.08619673 0.07455272
v 0.00556708 0.08577247 0.07500178
v 0.00451240 0.08740274 0.06760606
v 0.00439804 0.08733275 0.06900161
v 0.00430274 0.08727460 0.07003445
v 0.00421125 0.08721969 0.07096367
v 0.00470682 0.08752119 0.06481842
v 0.00386053 0.08843539 0.05505994
v 0.00382877 0.08842032 0.05645549
v 0.00378429 0.08839986 0.05784758
v 0.00372965 0.08837509 0.05924313
v 0.00365976 0.08834494 0.06063868
v 0.00354159 0.08823834 0.06342287
v 0.00521255 0.08549465 0.07736799
v 0.00497875 0.08546019 0.07832830
v 0.00354159 0.08107655 0.04303887
v 0.00328110 0.07885080 0.07832830
v 0.00435865 0.08786792 0.04303887
v 0.00362673 0.08832987 0.04390591
v 0.00371440 0.08836863 0.04529800
v 0.00378302 0.08839986 0.04669355
v 0.00383131 0.08842247 0.04808910
v 0.00386562 0.08843755 0.04948120
v 0.00388341 0.08844616 0.05087674
v 0.00319215 0.08878535 0.05227229
v 0.00318325 0.08878105 0.05366439
v 0.00461533 0.08746520 0.06621051
v 0.00410959 0.08716584 0.07178925
v 0.00473223 0.08614504 0.07597245
v 0.00391771 0.08706893 0.07318480
v 0.00451494 0.08601152 0.07736799
v 0.00474621 0.08563248 0.07832830
v 0.00354159 0.08803267 0.06621051
v 0.00354159 0.08790776 0.06760606
v 0.00354159 0.08776670 0.06900161
v 0.00366358 0.08754380 0.07045588
v 0.00341325 0.08750396 0.07178925
v 0.00354159 0.08814250 0.06481842
v 0.00316292 0.08877135 0.05505994
v 0.00313115 0.08875628 0.05645549
v 0.00308795 0.08873582 0.05784758
v 0.00303204 0.08871105 0.05924313
v 0.00296342 0.08868090 0.06063868
v 0.00289735 0.08865183 0.06174752
v 0.00343358 0.08837078 0.06214131
v 0.00282746 0.08862706 0.06267673
v 0.00267752 0.08079765 0.04303887
v 0.00308668 0.07875820 0.07832830
v 0.00349076 0.08833310 0.04303887
v 0.00290497 0.08862060 0.04303887
v 0.00292911 0.08866582 0.04390591
v 0.00301679 0.08870459 0.04529800
v 0.00308541 0.08873582 0.04669355
v 0.00313370 0.08875736 0.04808910
v 0.00316800 0.08877351 0.04948120
v 0.00318579 0.08878212 0.05087674
v 0.00214637 0.08905455 0.05227229
v 0.00214637 0.08904594 0.05366439
v 0.00368899 0.08696125 0.07458035
v 0.00322010 0.08740705 0.07318480
v 0.00299138 0.08730045 0.07458035
v 0.00354159 0.08652299 0.07736799
v 0.00435610 0.08591353 0.07832830
v 0.00341198 0.08687403 0.07585845
v 0.00267879 0.08860230 0.06342287
v 0.00214637 0.08835894 0.06760606
v 0.00214637 0.08821895 0.06900161
v 0.00214637 0.08902656 0.05505994
v 0.00214637 0.08899749 0.05645549
v 0.00214637 0.08895656 0.05784758
v 0.00214637 0.08890703 0.05924313
v 0.00214637 0.08884565 0.06063868
v 0.00227598 0.08874659 0.06214131
v 0.00075241 0.08899964 0.06202732
v 0.00075241 0.08891564 0.06342287
v 0.00198118 0.08871644 0.06342287
v 0.00214637 0.08062644 0.04303887
v 0.00213493 0.07852561 0.07832830
v 0.00282492 0.08864537 0.04303887
v 0.00286939 0.08863998 0.04307341
v 0.00214637 0.08889303 0.04529800
v 0.00214637 0.08895549 0.04669355
v 0.00214637 0.08899964 0.04808910
v 0.00214637 0.08903194 0.04948120
v 0.00214637 0.08904917 0.05087674
v 0.00075241 0.08927422 0.05087674
v 0.00075241 0.08927852 0.05227229
v 0.00075241 0.08927099 0.05366439
v 0.00286050 0.08724230 0.07531612
v 0.00214637 0.08806067 0.07039716
v 0.00214637 0.08788730 0.07178925
v 0.00360894 0.08629149 0.07832830
v 0.00168892 0.08866906 0.06481842
v 0.00238526 0.08855384 0.06481842
v 0.00125942 0.08859799 0.06655249
v 0.00096716 0.08855061 0.06760606
v 0.00006751 0.08863137 0.06832111
v 0.00204217 0.08850646 0.06613797
v 0.00075241 0.08828787 0.07039716
v 0.00062026 0.08848169 0.06887380
v 0.00075241 0.08925161 0.05505994
v 0.00075241 0.08922254 0.05645549
v 0.00075241 0.08918269 0.05784758
v 0.00075241 0.08913208 0.05924313
v 0.00075241 0.08907070 0.06063868
v -0.00064154 0.08900933 0.06202732
v -0.00064154 0.08908147 0.06063868
v 0.00075241 0.08881981 0.06481842
v 0.00122765 0.08047677 0.04303887
v 0.00075241 0.07829948 0.07832830
v 0.00217305 0.08875304 0.04303887
v 0.00214637 0.08881658 0.04390591
v 0.00075241 0.08911916 0.04529800
v 0.00075241 0.08918054 0.04669355
v 0.00075241 0.08922576 0.04808910
v 0.00075241 0.08925699 0.04948120
v -0.00064154 0.08928391 0.05087674
v -0.00064154 0.08928929 0.05227229
v -0.00064154 0.08928176 0.05366439
v 0.00214637 0.08730260 0.07564428
v 0.00214637 0.08717446 0.07634206
v 0.00214637 0.08697848 0.07736799
v 0.00214637 0.08677928 0.07832830
v 0.00258221 0.08663714 0.07832830
v 0.00214637 0.08769240 0.07318480
v 0.00214637 0.08748027 0.07458035
v 0.00075241 0.08770748 0.07458035
v 0.00075241 0.08811343 0.07178925
v 0.00150721 0.08863891 0.06562327
v 0.00026955 0.08866367 0.06760606
v 0.00077783 0.08871213 0.06613797
v 0.00004082 0.08863137 0.06832111
v -0.00064154 0.08792930 0.07318480
v 0.00075241 0.08791853 0.07318480
v -0.00064154 0.08926237 0.05505994
v -0.00064154 0.08923223 0.05645549
v -0.00064154 0.08919238 0.05784758
v -0.00064154 0.08914285 0.05924313
v -0.00203549 0.08879397 0.06202732
v -0.00064154 0.08892533 0.06342287
v -0.00203549 0.08886503 0.06063868
v 0.00072192 0.08039493 0.04303887
v -0.00064154 0.07828871 0.07832830
v 0.00168129 0.08883273 0.04303887
v 0.00075241 0.08904271 0.04390591
v -0.00064154 0.08912885 0.04529800
v -0.00064154 0.08919023 0.04669355
v -0.00064154 0.08923545 0.04808910
v -0.00064154 0.08926668 0.04948120
v -0.00203549 0.08906855 0.05087674
v -0.00203549 0.08907393 0.05227229
v -0.00203549 0.08906640 0.05366439
v 0.00088457 0.08742428 0.07610716
v 0.00143859 0.08723368 0.07665986
v 0.00088457 0.08716800 0.07745781
v 0.00079689 0.08700217 0.07832830
v -0.00064154 0.08771717 0.07458035
v 0.00050844 0.08730906 0.07705019
v -0.00050939 0.08848923 0.06887380
v -0.00064154 0.08829756 0.07039716
v -0.00064154 0.08812312 0.07178925
v -0.00064154 0.08882950 0.06481842
v -0.00018028 0.08866367 0.06760606
v -0.00087662 0.08856138 0.06760606
v -0.00203549 0.08790668 0.07178925
v -0.00203549 0.08771178 0.07318480
v -0.00203549 0.08904701 0.05505994
v -0.00203549 0.08901687 0.05645549
v -0.00203549 0.08897702 0.05784758
v -0.00203549 0.08892641 0.05924313
v -0.00274327 0.08863352 0.06278382
v -0.00207615 0.08870890 0.06331924
v -0.00163776 0.08867875 0.06481842
v -0.00011039 0.08038955 0.04303887
v -0.00203168 0.07850730 0.07832830
v -0.00203549 0.08060599 0.04303887
v -0.00061613 0.08038632 0.04303887
v 0.00075241 0.08898241 0.04303887
v -0.00064154 0.08905240 0.04390591
v -0.00203549 0.08891349 0.04529800
v -0.00203549 0.08897487 0.04669355
v -0.00203549 0.08902009 0.04808910
v -0.00203549 0.08905132 0.04948120
v -0.00312448 0.08879181 0.05087674
v -0.00310542 0.08878320 0.04948120
v -0.00313083 0.08879504 0.05227229
v -0.00312194 0.08879074 0.05366439
v -0.00310033 0.08878105 0.05505994
v -0.00064154 0.08702048 0.07832830
v -0.00203549 0.08749965 0.07458035
v -0.00191351 0.08730045 0.07587918
v -0.00064154 0.08748027 0.07597245
v -0.00064154 0.08729398 0.07697420
v -0.00064154 0.08715831 0.07767197
v -0.00203549 0.08823834 0.06900161
v -0.00203549 0.08808005 0.07039716
v -0.00143699 0.08864537 0.06569927
v -0.00068220 0.08871644 0.06618288
v -0.00117396 0.08860553 0.06662849
v -0.00203549 0.08837832 0.06760606
v -0.00316133 0.08741674 0.07318480
v -0.00291735 0.08731014 0.07458035
v -0.00276741 0.08724876 0.07535067
v -0.00306603 0.08876597 0.05645549
v -0.00301901 0.08874551 0.05784758
v -0.00296056 0.08872075 0.05924313
v -0.00288559 0.08869059 0.06063868
v -0.00279664 0.08865398 0.06202732
v -0.00349425 0.08834494 0.06202732
v -0.00329602 0.08835248 0.06331924
v -0.00342944 0.08818988 0.06481842
v -0.00342944 0.08807897 0.06621051
v -0.00342944 0.08795406 0.06760606
v -0.00256918 0.08860230 0.06371303
v -0.00233538 0.08856461 0.06481842
v -0.00241543 0.07858914 0.07832830
v -0.00289956 0.08086872 0.04303887
v -0.00301774 0.07874743 0.07832830
v -0.00064154 0.08899210 0.04303887
v -0.00203549 0.08883596 0.04390591
v -0.00117142 0.08891026 0.04303887
v -0.00278139 0.08864860 0.04303887
v -0.00285001 0.08867551 0.04390591
v -0.00301774 0.08874551 0.04669355
v -0.00294404 0.08871428 0.04529800
v -0.00306984 0.08876705 0.04808910
v -0.00382209 0.08848277 0.05087674
v -0.00380303 0.08847416 0.04948120
v -0.00376618 0.08845908 0.04808910
v -0.00382717 0.08848600 0.05227229
v -0.00381955 0.08848169 0.05366439
v -0.00379668 0.08847200 0.05505994
v -0.00376364 0.08845693 0.05645549
v -0.00147893 0.08688911 0.07832830
v -0.00229726 0.08716262 0.07627988
v -0.00136711 0.08724015 0.07669440
v -0.00191351 0.08704309 0.07724364
v -0.00342944 0.08781408 0.06900161
v -0.00342944 0.08765579 0.07039716
v -0.00195544 0.08851831 0.06618288
v -0.00350696 0.08746304 0.07169253
v -0.00402286 0.08718307 0.07209323
v -0.00385767 0.08710554 0.07318480
v -0.00361370 0.08699894 0.07458035
v -0.00331127 0.08690741 0.07587918
v -0.00342944 0.08657037 0.07736799
v -0.00351204 0.08633348 0.07832830
v -0.00199991 0.08680512 0.07832830
v -0.00371662 0.08843647 0.05784758
v -0.00365817 0.08841170 0.05924313
v -0.00358320 0.08838155 0.06063868
v -0.00473445 0.08760625 0.06342287
v -0.00465567 0.08755780 0.06481842
v -0.00456418 0.08750181 0.06621051
v -0.00446125 0.08743935 0.06760606
v -0.00434689 0.08736936 0.06900161
v -0.00342944 0.08103024 0.04303887
v -0.00369121 0.07905001 0.07832830
v -0.00207615 0.08876920 0.04303887
v -0.00340403 0.08836756 0.04303887
v -0.00354762 0.08836648 0.04390591
v -0.00371535 0.08843647 0.04669355
v -0.00364165 0.08840524 0.04529800
v -0.00482467 0.08790884 0.05087674
v -0.00482467 0.08789161 0.04948120
v -0.00482467 0.08786038 0.04808910
v -0.00482467 0.08781731 0.04669355
v -0.00482467 0.08791314 0.05227229
v -0.00482467 0.08790561 0.05366439
v -0.00482467 0.08788730 0.05505994
v -0.00482467 0.08785823 0.05645549
v -0.00482467 0.08781839 0.05784758
v -0.00421728 0.08728968 0.07039716
v -0.00414230 0.08724445 0.07116402
v -0.00482467 0.08654238 0.07318480
v -0.00494920 0.08624411 0.07465980
v -0.00468108 0.08618165 0.07597245
v -0.00446379 0.08604813 0.07736799
v -0.00415501 0.08602551 0.07832830
v -0.00482467 0.08776885 0.05924313
v -0.00482467 0.08770748 0.06063868
v -0.00494284 0.08756857 0.06193751
v -0.00552609 0.08723907 0.06141245
v -0.00548670 0.08720138 0.06234166
v -0.00543206 0.08715185 0.06342287
v -0.00526179 0.08701832 0.06621051
v -0.00535201 0.08708616 0.06481842
v -0.00515886 0.08695156 0.06760606
v -0.00504450 0.08688480 0.06900161
v -0.00491489 0.08681912 0.07039716
v -0.00469379 0.08681804 0.07169253
v -0.00438755 0.08149865 0.04303887
v -0.00417788 0.07931275 0.07832830
v -0.00483737 0.08761056 0.04303887
v -0.00482467 0.08775486 0.04529800
v -0.00564045 0.08735752 0.05087674
v -0.00563410 0.08734998 0.04948120
v -0.00562012 0.08733490 0.04808910
v -0.00559979 0.08731337 0.04669355
v -0.00554134 0.08725414 0.04427207
v -0.00556930 0.08728214 0.04529800
v -0.00564300 0.08735967 0.05227229
v -0.00563918 0.08735644 0.05366439
v -0.00563156 0.08734782 0.05505994
v -0.00561885 0.08733383 0.05645549
v -0.00560106 0.08731337 0.05784758
v -0.00557692 0.08728968 0.05924313
v -0.00557819 0.08589845 0.07424873
v -0.00549687 0.08581662 0.07517795
v -0.00430368 0.08595014 0.07832830
v -0.00554642 0.08725845 0.06063868
v -0.00583741 0.08665760 0.06193751
v -0.00589332 0.08645408 0.06342287
v -0.00587299 0.08638840 0.06481842
v -0.00584758 0.08632164 0.06621051
v -0.00581962 0.08625380 0.06760606
v -0.00578913 0.08618811 0.06900161
v -0.00575355 0.08612243 0.07039716
v -0.00571161 0.08605566 0.07178925
v -0.00564808 0.08597383 0.07318480
v -0.00465312 0.08168278 0.04303887
v -0.00484627 0.07970363 0.07832830
v -0.00520842 0.07993406 0.07832830
v -0.00558581 0.08019464 0.07832830
v -0.00548924 0.08720461 0.04303887
v -0.00550830 0.08722184 0.04334285
v -0.00495555 0.08759441 0.04384718
v -0.00609282 0.08653807 0.05087674
v -0.00608139 0.08653807 0.04948120
v -0.00606105 0.08653807 0.04808910
v -0.00603056 0.08653807 0.04669355
v -0.00598735 0.08653807 0.04529800
v -0.00588189 0.08655314 0.04303887
v -0.00585393 0.08666944 0.04384718
v -0.00609536 0.08653807 0.05227229
v -0.00609155 0.08653807 0.05366439
v -0.00607884 0.08653807 0.05505994
v -0.00605978 0.08653807 0.05645549
v -0.00603183 0.08653807 0.05784758
v -0.00599752 0.08653807 0.05924313
v -0.00595305 0.08653807 0.06063868
v -0.00577261 0.08477427 0.07832830
v -0.00556803 0.08499179 0.07832830
v -0.00516140 0.08556034 0.07736799
v -0.00491616 0.08552696 0.07832830
v -0.00640922 0.08514362 0.06760606
v -0.00635713 0.08514362 0.06900161
v -0.00629105 0.08514362 0.07039716
v -0.00621100 0.08514362 0.07178925
v -0.00610299 0.08514362 0.07318480
v -0.00588189 0.08526853 0.07465980
v -0.00508516 0.08198536 0.04303887
v -0.00599625 0.08093656 0.07832830
v -0.00580056 0.08268313 0.04303887
v -0.00648547 0.08514362 0.04303887
v -0.00649055 0.08514362 0.04390591
v -0.00623387 0.08574985 0.04303887
v -0.00649309 0.08514362 0.05924313
v -0.00649182 0.08514362 0.06063868
v -0.00649182 0.08514362 0.04529800
v -0.00649309 0.08514362 0.04669355
v -0.00648801 0.08514362 0.06202732
v -0.00648038 0.08514362 0.06342287
v -0.00646895 0.08514362 0.06481842
v -0.00644607 0.08514362 0.06621051
v -0.00632155 0.08375024 0.07832830
v -0.00646768 0.08375024 0.07597245
v -0.00639906 0.08375024 0.07736799
v -0.00649309 0.08235578 0.07832830
v -0.00648165 0.08235578 0.07736799
v -0.00637873 0.08375024 0.04303887
v -0.00601658 0.08307831 0.04303887
v -0.00642956 0.08427895 0.04303887
v -0.00649563 0.08375024 0.07318480
v -0.00649182 0.08375024 0.07458035
f 1 2 3
f 1 3 4
f 1 4 5
f 1 5 6
f 1 6 2
f 2 7 3
f 2 6 8
f 2 8 9
f 2 9 10
f 2 10 11
f 2 11 7
f 3 7 12
f 3 12 29
f 3 29 57
f 3 57 84
f 3 84 119
f 3 119 136
f 3 136 167
f 3 167 196
f 3 196 228
f 3 228 227
f 3 227 260
f 3 260 293
f 3 293 338
f 3 338 352
f 3 352 351
f 3 351 383
f 3 383 414
f 3 414 449
f 3 449 447
f 3 447 446
f 3 446 470
f 3 470 473
f 3 473 457
f 3 457 428
f 3 428 427
f 3 427 426
f 3 426 397
f 3 397 362
f 3 362 322
f 3 322 320
f 3 320 279
f 3 279 247
f 3 247 214
f 3 214 182
f 3 182 152
f 3 152 121
f 3 121 87
f 3 87 85
f 3 85 60
f 3 60 32
f 3 32 30
f 3 30 13
f 3 13 14
f 3 14 15
f 3 15 16
f 3 16 17
f 3 17 18
f 3 18 4
f 4 18 19
f 4 19 5
f 5 19 6
f 6 19 20
f 6 20 8
f 7 21 12
f 7 11 22
f 7 22 23
f 7 23 24
f 7 24 21
f 8 20 9
f 9 20 25
f 9 25 10
f 10 25 26
f 10 26 11
f 11 26 27
f 11 27 28
f 11 28 22
f 12 21 29
f 13 30 15
f 13 15 14
f 15 31 59
f 15 59 62
f 15 62 61
f 15 61 86
f 15 86 120
f 15 120 151
f 15 151 181
f 15 181 213
f 15 213 246
f 15 246 278
f 15 278 281
f 15 281 280
f 15 280 321
f 15 321 361
f 15 361 396
f 15 396 425
f 15 425 456
f 15 456 458
f 15 458 476
f 15 476 475
f 15 475 477
f 15 477 459
f 15 459 461
f 15 461 437
f 15 437 429
f 15 429 398
f 15 398 364
f 15 364 326
f 15 326 363
f 15 363 325
f 15 325 323
f 15 323 282
f 15 282 248
f 15 248 215
f 15 215 183
f 15 183 154
f 15 154 153
f 15 153 122
f 15 122 91
f 15 91 90
f 15 90 88
f 15 88 63
f 15 63 33
f 15 33 16
f 15 30 32
f 15 32 31
f 16 33 34
f 16 34 35
f 16 35 36
f 16 36 37
f 16 37 38
f 16 38 17
f 17 38 18
f 18 38 19
f 19 38 39
f 19 39 40
f 19 40 20
f 20 40 25
f 21 24 41
f 21 41 42
f 21 42 29
f 22 28 43
f 22 43 44
f 22 44 23
f 23 44 45
f 23 45 46
f 23 46 47
f 23 47 48
f 23 48 24
f 24 48 49
f 24 49 50
f 24 50 41
f 25 40 51
f 25 51 26
f 26 51 52
f 26 52 53
f 26 53 27
f 27 53 28
f 28 53 54
f 28 54 55
f 28 55 56
f 28 56 43
f 29 42 58
f 29 58 57
f 31 32 59
f 32 60 61
f 32 61 62
f 32 62 59
f 33 63 64
f 33 64 34
f 34 64 65
f 34 65 66
f 34 66 35
f 35 65 67
f 35 67 36
f 35 66 65
f 36 67 68
f 36 68 69
f 36 69 37
f 37 69 38
f 38 70 39
f 38 69 70
f 39 70 71
f 39 71 40
f 40 71 72
f 40 72 51
f 41 50 73
f 41 73 42
f 42 73 74
f 42 74 58
f 43 56 55
f 43 55 44
f 44 55 45
f 45 55 46
f 46 55 47
f 47 55 48
f 48 55 49
f 49 55 50
f 50 55 75
f 50 75 76
f 50 76 73
f 51 72 77
f 51 77 52
f 52 77 78
f 52 78 53
f 53 78 54
f 54 78 79
f 54 79 55
f 55 79 80
f 55 80 81
f 55 81 82
f 55 82 83
f 55 83 75
f 57 58 74
f 57 74 84
f 60 85 61
f 61 85 87
f 61 87 86
f 63 88 89
f 63 89 64
f 64 89 90
f 64 90 91
f 64 91 92
f 64 92 93
f 64 93 65
f 65 94 67
f 65 93 94
f 67 94 95
f 67 95 68
f 68 95 96
f 68 96 69
f 69 96 97
f 69 97 70
f 70 97 71
f 71 97 98
f 71 98 72
f 72 98 99
f 72 99 77
f 73 76 100
f 73 100 101
f 73 101 102
f 73 102 103
f 73 103 74
f 74 104 105
f 74 105 106
f 74 106 84
f 74 103 107
f 74 107 108
f 74 108 109
f 74 109 110
f 74 110 104
f 75 83 76
f 76 83 111
f 76 111 100
f 77 99 112
f 77 112 78
f 78 112 113
f 78 113 79
f 79 113 114
f 79 114 80
f 80 115 82
f 80 82 81
f 80 114 115
f 82 115 116
f 82 116 83
f 83 117 111
f 83 116 117
f 84 118 119
f 84 106 118
f 86 87 120
f 87 121 120
f 88 90 89
f 91 122 123
f 91 123 92
f 92 123 124
f 92 124 125
f 92 125 93
f 93 125 94
f 94 125 126
f 94 126 95
f 95 126 127
f 95 127 96
f 96 127 128
f 96 128 97
f 97 128 98
f 98 128 129
f 98 129 99
f 99 129 130
f 99 130 143
f 99 143 112
f 100 111 131
f 100 131 101
f 101 131 102
f 102 131 107
f 102 107 103
f 104 132 105
f 104 110 132
f 105 133 106
f 105 132 134
f 105 134 133
f 106 133 135
f 106 135 136
f 106 136 119
f 106 119 118
f 107 131 137
f 107 137 138
f 107 138 108
f 108 138 139
f 108 139 109
f 109 139 110
f 110 139 140
f 110 140 141
f 110 141 132
f 111 117 142
f 111 142 131
f 112 143 144
f 112 144 113
f 113 144 145
f 113 145 114
f 114 145 115
f 115 145 146
f 115 146 147
f 115 147 116
f 116 147 148
f 116 148 149
f 116 149 117
f 117 149 150
f 117 150 142
f 120 121 152
f 120 152 151
f 122 153 123
f 123 153 154
f 123 154 155
f 123 155 156
f 123 156 124
f 124 156 157
f 124 157 125
f 125 157 126
f 126 157 158
f 126 158 159
f 126 159 127
f 127 159 160
f 127 160 128
f 128 160 129
f 129 160 161
f 129 161 130
f 130 161 162
f 130 162 143
f 131 142 137
f 132 141 134
f 133 134 163
f 133 163 135
f 134 141 164
f 134 164 165
f 134 165 163
f 135 166 167
f 135 167 136
f 135 163 168
f 135 168 166
f 137 142 150
f 137 150 138
f 138 150 169
f 138 169 170
f 138 170 171
f 138 171 139
f 139 171 141
f 139 141 140
f 141 171 164
f 143 162 172
f 143 172 144
f 144 172 173
f 144 173 145
f 145 173 146
f 146 173 174
f 146 174 147
f 147 174 175
f 147 175 148
f 148 175 150
f 148 150 149
f 150 175 176
f 150 176 177
f 150 177 178
f 150 178 179
f 150 179 180
f 150 180 169
f 151 152 181
f 152 182 181
f 154 183 184
f 154 184 155
f 155 184 185
f 155 185 186
f 155 186 156
f 156 186 157
f 157 186 187
f 157 187 158
f 158 187 188
f 158 188 159
f 159 188 189
f 159 189 160
f 160 189 161
f 161 189 190
f 161 190 191
f 161 191 192
f 161 192 162
f 162 192 205
f 162 205 172
f 163 165 193
f 163 193 168
f 164 171 194
f 164 194 165
f 165 194 195
f 165 195 193
f 166 196 167
f 166 168 193
f 166 193 196
f 169 180 197
f 169 197 198
f 169 198 170
f 170 199 200
f 170 200 201
f 170 201 171
f 170 198 202
f 170 202 199
f 171 203 194
f 171 201 204
f 171 204 203
f 172 205 206
f 172 206 173
f 173 206 207
f 173 207 174
f 174 207 175
f 175 208 209
f 175 209 176
f 175 207 208
f 176 209 178
f 176 178 177
f 178 210 201
f 178 201 179
f 178 209 211
f 178 211 210
f 179 212 197
f 179 197 180
f 179 201 212
f 181 182 214
f 181 214 213
f 183 215 216
f 183 216 184
f 184 216 185
f 185 216 249
f 185 249 217
f 185 217 186
f 186 218 219
f 186 219 187
f 186 217 218
f 187 219 188
f 188 219 220
f 188 220 190
f 188 190 189
f 190 220 253
f 190 253 221
f 190 221 222
f 190 222 191
f 191 222 223
f 191 223 192
f 192 223 239
f 192 239 205
f 193 224 225
f 193 225 226
f 193 226 227
f 193 227 228
f 193 228 196
f 193 195 229
f 193 229 230
f 193 230 231
f 193 231 224
f 194 203 195
f 195 232 238
f 195 238 229
f 195 203 232
f 197 212 233
f 197 233 198
f 198 233 202
f 199 234 200
f 199 202 233
f 199 233 235
f 199 235 234
f 200 234 201
f 201 203 204
f 201 234 212
f 201 210 236
f 201 236 237
f 201 237 238
f 201 238 232
f 201 232 203
f 205 239 206
f 206 239 240
f 206 240 241
f 206 241 207
f 207 241 242
f 207 242 208
f 208 242 211
f 208 211 209
f 210 211 243
f 210 243 244
f 210 244 236
f 211 242 274
f 211 274 245
f 211 245 243
f 212 235 233
f 212 234 235
f 213 214 246
f 214 247 246
f 215 248 249
f 215 249 216
f 217 250 251
f 217 251 218
f 217 249 283
f 217 283 250
f 218 251 252
f 218 252 219
f 219 252 253
f 219 253 220
f 221 254 255
f 221 255 222
f 221 253 287
f 221 287 254
f 222 255 256
f 222 256 223
f 223 256 271
f 223 271 239
f 224 231 257
f 224 257 258
f 224 258 225
f 225 258 226
f 226 258 259
f 226 259 260
f 226 260 227
f 229 238 231
f 229 231 230
f 231 238 237
f 231 237 261
f 231 261 262
f 231 262 257
f 236 263 264
f 236 264 265
f 236 265 237
f 236 244 266
f 236 266 267
f 236 267 268
f 236 268 263
f 237 265 269
f 237 269 270
f 237 270 294
f 237 294 261
f 239 271 272
f 239 272 240
f 240 272 273
f 240 273 241
f 241 273 242
f 242 273 274
f 243 275 276
f 243 276 244
f 243 245 275
f 244 276 277
f 244 277 266
f 245 274 275
f 246 247 278
f 247 279 280
f 247 280 281
f 247 281 278
f 248 282 249
f 249 282 323
f 249 323 283
f 250 284 285
f 250 285 251
f 250 283 284
f 251 285 286
f 251 286 252
f 252 286 287
f 252 287 253
f 254 288 255
f 254 287 289
f 254 289 288
f 255 290 291
f 255 291 256
f 255 288 290
f 256 291 292
f 256 292 271
f 257 262 258
f 258 262 259
f 259 262 260
f 260 262 293
f 261 294 295
f 261 295 296
f 261 296 262
f 262 296 297
f 262 297 298
f 262 298 293
f 263 268 299
f 263 299 264
f 264 299 300
f 264 300 269
f 264 269 265
f 266 277 301
f 266 301 302
f 266 302 267
f 267 303 268
f 267 302 303
f 268 303 304
f 268 304 299
f 269 305 306
f 269 306 307
f 269 307 270
f 269 300 305
f 270 307 294
f 271 292 308
f 271 308 272
f 272 309 310
f 272 310 273
f 272 308 309
f 273 310 311
f 273 311 274
f 274 311 312
f 274 312 275
f 275 312 313
f 275 313 314
f 275 314 315
f 275 315 316
f 275 316 317
f 275 317 318
f 275 318 276
f 276 318 277
f 277 318 319
f 277 319 301
f 279 320 280
f 280 320 322
f 280 322 321
f 283 324 284
f 283 323 325
f 283 325 324
f 284 324 326
f 284 326 327
f 284 327 285
f 285 328 286
f 285 327 329
f 285 329 328
f 286 330 287
f 286 328 330
f 287 330 289
f 288 331 290
f 288 289 332
f 288 332 331
f 289 330 333
f 289 333 332
f 290 334 335
f 290 335 291
f 290 331 334
f 291 335 292
f 292 336 337
f 292 337 308
f 292 335 336
f 293 298 338
f 294 307 295
f 295 307 339
f 295 339 340
f 295 340 296
f 296 340 297
f 297 340 298
f 298 340 341
f 298 341 338
f 299 342 343
f 299 343 300
f 299 304 317
f 299 317 342
f 300 343 305
f 301 344 303
f 301 303 302
f 301 319 344
f 303 344 304
f 304 344 319
f 304 319 317
f 305 343 345
f 305 345 346
f 305 346 347
f 305 347 348
f 305 348 306
f 306 348 307
f 307 349 350
f 307 350 351
f 307 351 352
f 307 352 339
f 307 348 349
f 308 337 353
f 308 353 309
f 309 353 354
f 309 354 310
f 310 354 355
f 310 355 311
f 311 355 313
f 311 313 312
f 313 356 357
f 313 357 315
f 313 315 314
f 313 355 356
f 315 357 358
f 315 358 316
f 316 358 359
f 316 359 317
f 317 359 360
f 317 360 342
f 317 319 318
f 321 322 361
f 322 362 361
f 324 325 363
f 324 363 326
f 326 364 365
f 326 365 327
f 327 365 367
f 327 367 329
f 328 366 333
f 328 333 330
f 328 329 367
f 328 367 366
f 331 368 334
f 331 332 369
f 331 369 368
f 332 333 370
f 332 370 369
f 333 366 371
f 333 371 370
f 334 372 373
f 334 373 335
f 334 368 372
f 335 373 374
f 335 374 336
f 336 374 375
f 336 375 337
f 337 375 376
f 337 376 353
f 338 341 352
f 339 352 341
f 339 341 340
f 342 360 377
f 342 377 378
f 342 378 343
f 343 378 345
f 345 378 346
f 346 379 380
f 346 380 347
f 346 378 379
f 347 380 381
f 347 381 348
f 348 381 382
f 348 382 383
f 348 383 350
f 348 350 349
f 350 383 351
f 353 376 384
f 353 384 354
f 354 384 385
f 354 385 355
f 355 385 356
f 356 385 386
f 356 386 387
f 356 387 388
f 356 388 357
f 357 388 389
f 357 389 358
f 358 390 359
f 358 389 391
f 358 391 390
f 359 392 393
f 359 393 360
f 359 390 392
f 360 393 394
f 360 394 395
f 360 395 377
f 361 362 396
f 362 397 396
f 364 398 365
f 365 398 367
f 366 367 399
f 366 399 371
f 367 398 399
f 368 400 372
f 368 369 401
f 368 401 400
f 369 370 402
f 369 402 401
f 370 371 403
f 370 403 402
f 371 399 404
f 371 404 405
f 371 405 403
f 372 406 407
f 372 407 373
f 372 400 406
f 373 407 408
f 373 408 374
f 374 408 409
f 374 409 375
f 375 409 410
f 375 410 411
f 375 411 376
f 376 411 384
f 377 395 378
f 378 395 379
f 379 412 413
f 379 413 380
f 379 395 412
f 380 413 381
f 381 413 382
f 382 414 383
f 382 413 414
f 384 411 415
f 384 415 387
f 384 387 385
f 385 387 386
f 387 416 417
f 387 417 418
f 387 418 419
f 387 419 420
f 387 420 421
f 387 421 422
f 387 422 423
f 387 423 388
f 387 415 416
f 388 423 389
f 389 423 391
f 390 391 424
f 390 424 392
f 391 423 424
f 392 424 393
f 393 424 394
f 394 424 412
f 394 412 395
f 396 397 426
f 396 426 427
f 396 427 428
f 396 428 425
f 398 429 430
f 398 430 431
f 398 431 399
f 399 431 404
f 400 432 406
f 400 401 432
f 401 433 432
f 401 402 434
f 401 434 433
f 402 403 435
f 402 435 434
f 403 405 436
f 403 436 435
f 404 431 430
f 404 430 437
f 404 437 438
f 404 438 405
f 405 438 436
f 406 439 440
f 406 440 407
f 406 432 439
f 407 440 408
f 408 441 442
f 408 442 409
f 408 440 441
f 409 442 443
f 409 443 410
f 410 443 444
f 410 444 411
f 411 444 445
f 411 445 415
f 412 424 446
f 412 446 413
f 413 446 447
f 413 447 448
f 413 448 449
f 413 449 414
f 415 445 416
f 416 445 417
f 417 450 451
f 417 451 418
f 417 445 450
f 418 451 419
f 419 451 420
f 420 451 452
f 420 452 421
f 421 452 422
f 422 452 423
f 423 453 454
f 423 454 424
f 423 452 453
f 424 454 455
f 424 455 446
f 425 428 456
f 428 457 458
f 428 458 456
f 429 437 430
f 432 433 459
f 432 459 460
f 432 460 439
f 433 434 459
f 434 435 459
f 435 436 459
f 436 438 437
f 436 437 461
f 436 461 459
f 439 462 463
f 439 463 440
f 439 460 464
f 439 464 465
f 439 465 462
f 440 463 466
f 440 466 467
f 440 467 468
f 440 468 441
f 441 468 442
f 442 468 469
f 442 469 443
f 443 469 444
f 444 469 450
f 444 450 445
f 446 455 454
f 446 454 470
f 447 449 448
f 450 469 471
f 450 471 451
f 451 471 452
f 452 471 472
f 452 472 453
f 453 472 454
f 454 472 470
f 457 473 474
f 457 474 475
f 457 475 476
f 457 476 458
f 459 477 460
f 460 477 473
f 460 473 464
f 462 465 478
f 462 478 463
f 463 478 479
f 463 479 466
f 464 473 465
f 465 473 478
f 466 479 467
f 467 479 468
f 468 479 469
f 469 479 471
f 470 472 473
f 471 479 473
f 471 473 472
f 473 479 478
f 473 477 475
f 473 475 474

