# https://github.com/mikedh/trimesh
v 0.02182034 0.04331128 0.11497672
v 0.02027404 0.04470554 0.11494438
v 0.01887941 0.04470554 0.11498750
v 0.02166866 0.04331128 0.11497672
v 0.02182034 0.04185204 0.11467483
v 0.02182034 0.04482133 0.11467483
v 0.01748479 0.04609861 0.11489047
v 0.01609016 0.04609861 0.11496594
v 0.02027404 0.04585993 0.11456702
v 0.01051448 0.04749286 0.11497672
v 0.00911985 0.04749286 0.11497672
v 0.00747383 0.04749286 0.11496594
v 0.02027404 0.04331128 0.11491203
v 0.00747383 0.04631838 0.11459936
v 0.02182034 0.04151648 0.11454545
v 0.02182034 0.04486505 0.11465327
v 0.02139901 0.04560471 0.11445920
v 0.01330373 0.04749286 0.11487969
v 0.01895245 0.04620377 0.11464249
v 0.01748479 0.04710413 0.11452389
v 0.01609016 0.04735344 0.11461015
v 0.01190910 0.04749286 0.11494438
v 0.01853532 0.04692689 0.11441607
v 0.00747383 0.04888830 0.11482578
v 0.00747383 0.04562244 0.11403870
v 0.02114621 0.04132743 0.11421122
v 0.02182034 0.04067284 0.11373682
v 0.02182034 0.04595682 0.11377994
v 0.01946507 0.04673784 0.11426513
v 0.01483318 0.04763229 0.11465327
v 0.01330373 0.04845821 0.11451311
v 0.01538934 0.04818881 0.11431903
v 0.01446240 0.04832233 0.11441607
v 0.01190910 0.04858700 0.11457780
v 0.00772523 0.04974612 0.11444841
v 0.00747383 0.04976857 0.11445920
v 0.00747383 0.04518053 0.11333789
v 0.02182034 0.04049442 0.11349962
v 0.02182034 0.04054995 0.11358588
v 0.02182034 0.04606434 0.11361822
v 0.02027404 0.04655588 0.11398480
v 0.02027404 0.04700842 0.11328399
v 0.01712104 0.04830933 0.11315460
v 0.00870132 0.04964332 0.11436216
v 0.01483318 0.04865908 0.11375838
v 0.01279531 0.04962442 0.11301444
v 0.01190910 0.04928413 0.11388776
v 0.00963107 0.04952989 0.11426513
v 0.01609016 0.04849129 0.11344571
v 0.00747383 0.05033573 0.11360744
v 0.00747383 0.04489577 0.11222737
v 0.02182034 0.04005015 0.11222737
v 0.02104649 0.04683119 0.11299288
v 0.02182034 0.04654643 0.11222737
v 0.01737946 0.04840267 0.11222737
v 0.01609016 0.04882922 0.11222737
v 0.01190910 0.04971776 0.11318695
v 0.01303969 0.04967641 0.11222737
v 0.01190910 0.04991509 0.11222737
v 0.01051448 0.05019748 0.11222737
v 0.00747383 0.05076936 0.11221659
v 0.01051448 0.04986546 0.11343493
v 0.00747383 0.04488396 0.11196861
v 0.02182034 0.03997807 0.11082574
v 0.02115604 0.04688317 0.11222737
v 0.02027404 0.04728136 0.11222737
v 0.02182034 0.04655115 0.11215190
v 0.01887941 0.04789105 0.11082574
v 0.01747215 0.04843576 0.11082574
v 0.01318996 0.04970831 0.11082574
v 0.00747383 0.05204782 0.09270157
v 0.00747383 0.05080245 0.11201173
v 0.00747383 0.04483197 0.11082574
v 0.02182034 0.03997689 0.10943488
v 0.02122907 0.04691862 0.11082574
v 0.02027404 0.04734162 0.11082574
v 0.02182034 0.04659842 0.11082574
v 0.02028668 0.04733690 0.00484085
v 0.01889767 0.04788396 0.00484085
v 0.01887941 0.04789105 0.00484085
v 0.01747215 0.04843576 0.00484085
v 0.01609016 0.04886585 0.00484085
v 0.00747383 0.05161891 0.01880324
v 0.00747383 0.04483079 0.10943488
v 0.02182034 0.03997689 0.00625325
v 0.02122907 0.04691862 0.00484085
v 0.02182034 0.04659842 0.00485163
v 0.01318996 0.04970831 0.00484085
v 0.01190910 0.04997889 0.00484085
v 0.01053273 0.05024711 0.00484085
v 0.00747383 0.05084262 0.00484085
v 0.00747383 0.04483079 0.00600527
v 0.00747383 0.04483197 0.00486241
v 0.02182034 0.03997925 0.00485163
v 0.02182034 0.04643181 0.00484085
v 0.00747383 0.04483433 0.00484085
v 0.02182034 0.03998044 0.00484085
f 1 2 3
f 1 3 4
f 1 4 5
f 1 5 15
f 1 15 27
f 1 27 39
f 1 39 38
f 1 38 52
f 1 52 64
f 1 64 74
f 1 74 85
f 1 85 94
f 1 94 97
f 1 97 95
f 1 95 87
f 1 87 77
f 1 77 67
f 1 67 54
f 1 54 40
f 1 40 28
f 1 28 16
f 1 16 6
f 1 6 2
f 2 7 8
f 2 8 3
f 2 6 9
f 2 9 7
f 3 10 11
f 3 11 12
f 3 12 4
f 3 8 10
f 4 12 13
f 4 13 5
f 5 13 12
f 5 12 14
f 5 14 15
f 6 16 17
f 6 17 9
f 7 18 8
f 7 9 19
f 7 19 20
f 7 20 21
f 7 21 18
f 8 18 22
f 8 22 10
f 9 17 23
f 9 23 20
f 9 20 19
f 10 22 24
f 10 24 11
f 11 24 12
f 12 24 36
f 12 36 50
f 12 50 61
f 12 61 72
f 12 72 71
f 12 71 83
f 12 83 91
f 12 91 96
f 12 96 93
f 12 93 92
f 12 92 84
f 12 84 73
f 12 73 63
f 12 63 51
f 12 51 37
f 12 37 25
f 12 25 14
f 14 25 15
f 15 25 26
f 15 26 27
f 16 28 17
f 17 28 29
f 17 29 23
f 18 24 22
f 18 21 30
f 18 30 31
f 18 31 24
f 20 23 32
f 20 32 33
f 20 33 21
f 21 33 31
f 21 31 30
f 23 29 32
f 24 31 34
f 24 34 35
f 24 35 36
f 25 27 26
f 25 37 38
f 25 38 39
f 25 39 27
f 28 40 41
f 28 41 29
f 29 41 42
f 29 42 43
f 29 43 32
f 31 33 44
f 31 44 35
f 31 35 34
f 32 45 46
f 32 46 47
f 32 47 48
f 32 48 33
f 32 43 49
f 32 49 45
f 33 48 44
f 35 44 50
f 35 50 36
f 37 51 52
f 37 52 38
f 40 53 42
f 40 42 41
f 40 54 53
f 42 53 43
f 43 46 49
f 43 53 55
f 43 55 56
f 43 56 46
f 44 48 50
f 45 49 46
f 46 50 57
f 46 57 47
f 46 56 58
f 46 58 59
f 46 59 60
f 46 60 61
f 46 61 50
f 47 57 62
f 47 62 48
f 48 62 50
f 50 62 57
f 51 63 64
f 51 64 52
f 53 54 65
f 53 65 66
f 53 66 55
f 54 67 65
f 55 66 68
f 55 68 69
f 55 69 56
f 56 70 58
f 56 69 71
f 56 71 70
f 58 70 71
f 58 71 59
f 59 71 60
f 60 72 61
f 60 71 72
f 63 73 64
f 64 73 84
f 64 84 74
f 65 67 75
f 65 75 66
f 66 75 76
f 66 76 68
f 67 77 75
f 68 76 78
f 68 78 79
f 68 79 80
f 68 80 81
f 68 81 69
f 69 81 71
f 71 81 82
f 71 82 83
f 74 84 92
f 74 92 85
f 75 77 87
f 75 87 86
f 75 86 78
f 75 78 76
f 78 86 95
f 78 95 97
f 78 97 96
f 78 96 91
f 78 91 90
f 78 90 89
f 78 89 88
f 78 88 82
f 78 82 81
f 78 81 80
f 78 80 79
f 82 88 83
f 83 88 89
f 83 89 90
f 83 90 91
f 85 92 93
f 85 93 94
f 86 87 95
f 93 96 97
f 93 97 94

