# https://github.com/mikedh/trimesh
v -0.01261756 0.04372018 0.09868211
v -0.01261756 0.04372018 0.11007981
v -0.01261756 0.04982605 0.09868211
v 0.00747243 0.04483100 0.09868211
v -0.01261756 0.04372098 0.11083455
v 0.00747243 0.04483100 0.11058244
v -0.01261756 0.04982605 0.11083455
v -0.00644071 0.05119841 0.09868211
v 0.00747243 0.05089380 0.09868211
v -0.01261756 0.04379036 0.11222915
v 0.00747243 0.04483179 0.11083455
v 0.00747243 0.04488363 0.11197703
v 0.00747243 0.04489559 0.11222915
v -0.01261756 0.04978219 0.11180151
v -0.00697167 0.05099108 0.11166429
v -0.00699920 0.05099746 0.11083455
v -0.00521950 0.05145917 0.09868211
v 0.00735837 0.05094483 0.09868211
v 0.00747243 0.05084276 0.11083455
v -0.01261756 0.04386292 0.11274294
v 0.00747243 0.04518106 0.11334450
v -0.01261756 0.04393549 0.11307324
v -0.01261756 0.04976225 0.11222915
v -0.00672389 0.05091852 0.11259295
v -0.00624406 0.05106445 0.11216851
v -0.00621849 0.05112505 0.11083455
v -0.01179555 0.04993370 0.11222915
v -0.00382524 0.05163460 0.09868211
v 0.00726988 0.05098072 0.09868211
v 0.00747243 0.05080289 0.11201852
v 0.00716172 0.05102378 0.09868211
v 0.00709092 0.05099348 0.11083455
v 0.00706929 0.05098869 0.11163557
v 0.00747243 0.04562204 0.11404180
v -0.01261756 0.04409657 0.11334450
v -0.01261756 0.04966417 0.11294080
v -0.00579569 0.05102298 0.11302218
v -0.00482423 0.05123031 0.11222915
v -0.00482423 0.05129331 0.11083455
v -0.00117437 0.05184432 0.09868211
v 0.00747243 0.05076940 0.11222276
v 0.00632988 0.05123270 0.09868211
v 0.00493561 0.05150064 0.09868211
v 0.00632988 0.05111229 0.11083455
v 0.00493561 0.05128134 0.11083455
v 0.00633774 0.05105488 0.11215096
v 0.00680971 0.05091533 0.11256423
v 0.00747243 0.04631978 0.11460347
v -0.01261756 0.04505746 0.11455081
v -0.01261756 0.04464759 0.11415509
v -0.01261756 0.04435095 0.11374660
v -0.01261756 0.04964184 0.11304771
v -0.00624406 0.05061869 0.11354237
v -0.00482423 0.05064899 0.11382639
v -0.00482423 0.05107401 0.11312909
v -0.01179555 0.04972796 0.11321047
v -0.01040129 0.04987310 0.11345141
v -0.00953995 0.04953658 0.11427636
v -0.00342997 0.05132281 0.11222915
v -0.00342997 0.05138501 0.11083455
v -0.00203767 0.05145359 0.11083455
v -0.00064341 0.05151898 0.11083455
v -0.00071027 0.05186586 0.09868211
v 0.00747243 0.05033560 0.11360779
v 0.00354135 0.05166092 0.09868211
v 0.00493561 0.05121835 0.11222915
v 0.00209596 0.05180366 0.09868211
v 0.00354135 0.05137863 0.11083455
v 0.00354135 0.05131643 0.11222915
v 0.00587954 0.05101740 0.11300942
v 0.00747243 0.04749439 0.11496727
v -0.01261756 0.04609969 0.11492420
v -0.01261756 0.04545219 0.11470399
v -0.01261756 0.04923516 0.11369395
v -0.01179555 0.04929178 0.11390777
v -0.00860978 0.04964663 0.11437370
v -0.00342997 0.05068567 0.11391574
v -0.00342997 0.05112027 0.11321845
v -0.00761276 0.04975109 0.11445188
v -0.00621849 0.04987629 0.11453326
v -0.00064341 0.05145678 0.11222915
v -0.00203767 0.05139139 0.11222915
v -0.01261756 0.04880694 0.11426998
v -0.01261756 0.04851987 0.11454762
v 0.00075086 0.05151579 0.11083455
v 0.00075086 0.05184751 0.09868211
v 0.00747243 0.04976863 0.11446305
v 0.00633774 0.05061151 0.11353439
v 0.00493561 0.05106763 0.11311633
v 0.00161416 0.05182678 0.09868211
v 0.00214709 0.05144721 0.11083455
v 0.00214709 0.05138501 0.11222915
v 0.00354135 0.05111708 0.11321366
v 0.00493561 0.05064420 0.11381362
v -0.00900702 0.04749439 0.11498323
v -0.01261756 0.04667384 0.11495132
v 0.00747243 0.04888828 0.11482686
v 0.00632988 0.04888828 0.11490345
v 0.00493561 0.04888828 0.11494334
v 0.00354135 0.04888828 0.11495770
v 0.00214709 0.04888828 0.11496568
v 0.00075086 0.04888828 0.11497047
v -0.00064341 0.04888828 0.11497206
v -0.00482423 0.04995124 0.11457156
v -0.00203767 0.05071438 0.11397798
v -0.00064341 0.05118725 0.11333812
v -0.00203767 0.05115455 0.11328068
v -0.00621849 0.04888828 0.11490505
v -0.00761276 0.04888828 0.11481569
v 0.00075086 0.05118565 0.11333493
v 0.00075086 0.05145359 0.11222915
v -0.01261756 0.04794732 0.11476622
v 0.00632988 0.04987150 0.11453007
v 0.00354135 0.05068328 0.11391096
v 0.00214709 0.05115136 0.11327589
v -0.01040129 0.04749439 0.11497845
v -0.01261756 0.04749439 0.11491941
v -0.01179555 0.04749439 0.11495292
v 0.00493561 0.04994646 0.11456996
v 0.00354135 0.04998553 0.11458432
v 0.00075086 0.05004534 0.11460347
v -0.00064341 0.05004694 0.11460347
v -0.00203767 0.04888828 0.11496568
v -0.00482423 0.04888828 0.11494494
v -0.00342997 0.04998793 0.11458592
v -0.00064341 0.05074388 0.11403383
v 0.00075086 0.05074308 0.11403223
v 0.00214709 0.05071199 0.11397319
v -0.00342997 0.04888828 0.11495770
v -0.00203767 0.05001743 0.11459549
f 1 2 5
f 1 5 10
f 1 10 20
f 1 20 22
f 1 22 35
f 1 35 51
f 1 51 50
f 1 50 49
f 1 49 73
f 1 73 72
f 1 72 96
f 1 96 117
f 1 117 112
f 1 112 84
f 1 84 83
f 1 83 74
f 1 74 52
f 1 52 36
f 1 36 23
f 1 23 14
f 1 14 7
f 1 7 3
f 1 3 8
f 1 8 17
f 1 17 28
f 1 28 40
f 1 40 63
f 1 63 86
f 1 86 90
f 1 90 67
f 1 67 65
f 1 65 43
f 1 43 42
f 1 42 31
f 1 31 29
f 1 29 18
f 1 18 9
f 1 9 4
f 1 4 6
f 1 6 2
f 2 6 5
f 3 7 8
f 4 9 19
f 4 19 30
f 4 30 41
f 4 41 64
f 4 64 87
f 4 87 97
f 4 97 71
f 4 71 48
f 4 48 34
f 4 34 21
f 4 21 13
f 4 13 12
f 4 12 11
f 4 11 6
f 5 6 11
f 5 11 12
f 5 12 13
f 5 13 10
f 7 14 15
f 7 15 16
f 7 16 17
f 7 17 8
f 9 18 19
f 10 13 20
f 13 21 22
f 13 22 20
f 14 23 15
f 15 24 25
f 15 25 26
f 15 26 17
f 15 17 16
f 15 23 27
f 15 27 24
f 17 26 28
f 18 29 19
f 19 29 31
f 19 31 32
f 19 32 33
f 19 33 30
f 21 34 35
f 21 35 22
f 23 36 27
f 24 37 25
f 24 27 36
f 24 36 37
f 25 37 38
f 25 38 39
f 25 39 26
f 26 39 28
f 28 39 40
f 30 33 41
f 31 42 32
f 32 42 43
f 32 43 33
f 33 43 44
f 33 44 45
f 33 45 46
f 33 46 47
f 33 47 41
f 34 48 49
f 34 49 50
f 34 50 51
f 34 51 35
f 36 52 37
f 37 53 54
f 37 54 55
f 37 55 38
f 37 52 56
f 37 56 57
f 37 57 58
f 37 58 53
f 38 55 59
f 38 59 39
f 39 59 60
f 39 60 40
f 40 61 62
f 40 62 63
f 40 60 61
f 41 47 64
f 43 45 44
f 43 65 45
f 45 66 46
f 45 65 67
f 45 67 68
f 45 68 69
f 45 69 66
f 46 66 70
f 46 70 47
f 47 70 64
f 48 71 72
f 48 72 73
f 48 73 49
f 52 74 75
f 52 75 56
f 53 76 54
f 53 58 76
f 54 77 78
f 54 78 55
f 54 76 79
f 54 79 80
f 54 80 77
f 55 78 81
f 55 81 82
f 55 82 59
f 56 75 57
f 57 75 58
f 58 75 83
f 58 83 84
f 58 84 76
f 59 82 61
f 59 61 60
f 61 82 81
f 61 81 62
f 62 81 111
f 62 111 85
f 62 85 63
f 63 85 86
f 64 70 88
f 64 88 87
f 66 89 70
f 66 69 89
f 67 90 85
f 67 85 91
f 67 91 68
f 68 91 92
f 68 92 69
f 69 92 93
f 69 93 89
f 70 89 94
f 70 94 88
f 71 95 96
f 71 96 72
f 71 97 98
f 71 98 99
f 71 99 100
f 71 100 101
f 71 101 102
f 71 102 103
f 71 103 95
f 74 83 75
f 76 84 79
f 77 80 104
f 77 104 105
f 77 105 106
f 77 106 107
f 77 107 78
f 78 107 81
f 79 84 80
f 80 108 104
f 80 84 109
f 80 109 108
f 81 107 106
f 81 106 110
f 81 110 111
f 84 112 109
f 85 111 92
f 85 92 91
f 85 90 86
f 87 88 94
f 87 94 113
f 87 113 97
f 89 93 94
f 92 111 93
f 93 114 94
f 93 111 115
f 93 115 114
f 94 114 113
f 95 116 96
f 95 103 116
f 96 116 118
f 96 118 117
f 97 113 98
f 98 113 119
f 98 119 99
f 99 119 120
f 99 120 121
f 99 121 100
f 100 121 101
f 101 121 102
f 102 121 103
f 103 121 122
f 103 122 123
f 103 123 116
f 104 124 125
f 104 125 126
f 104 126 105
f 104 108 124
f 105 126 106
f 106 126 127
f 106 127 110
f 108 109 117
f 108 117 118
f 108 118 124
f 109 112 117
f 110 115 111
f 110 127 114
f 110 114 115
f 113 114 119
f 114 127 128
f 114 128 119
f 116 123 129
f 116 129 124
f 116 124 118
f 119 128 127
f 119 127 120
f 120 127 121
f 121 127 126
f 121 126 122
f 122 126 130
f 122 130 124
f 122 124 129
f 122 129 123
f 124 130 125
f 125 130 126

