# https://github.com/mikedh/trimesh
v -0.03002506 -0.03756636 0.11495300
v -0.03689638 -0.03062597 0.11492066
v -0.03550336 -0.03338362 0.11498534
v -0.03131985 -0.03756636 0.11497456
v -0.03002506 -0.03896391 0.11492066
v -0.03002506 -0.03617872 0.11460799
v -0.03601123 -0.03062597 0.11469424
v -0.03829274 -0.03062597 0.11495300
v -0.03689638 -0.03198938 0.11497456
v -0.03562168 -0.03489681 0.11468346
v -0.03421192 -0.03627674 0.11468346
v -0.03278989 -0.03764345 0.11467268
v -0.03134553 -0.03900686 0.11464033
v -0.03002506 -0.04026013 0.11454330
v -0.03002506 -0.03606198 0.11456486
v -0.03554020 -0.03062597 0.11456486
v -0.03967683 -0.03062597 0.11459720
v -0.03835525 -0.03204775 0.11466190
v -0.03658161 -0.03451025 0.11448939
v -0.03523659 -0.03588247 0.11450017
v -0.03381567 -0.03723046 0.11448939
v -0.03237466 -0.03857295 0.11447861
v -0.03089793 -0.03986146 0.11444626
v -0.03002506 -0.04052334 0.11432767
v -0.03002506 -0.03489791 0.11352983
v -0.03044475 -0.03531530 0.11441392
v -0.03466622 -0.03113808 0.11440314
v -0.03439945 -0.03062597 0.11358374
v -0.03976054 -0.03062597 0.11453252
v -0.04017689 -0.03101694 0.11406891
v -0.03924710 -0.03162155 0.11446783
v -0.03793333 -0.03306535 0.11448939
v -0.03616527 -0.03544085 0.11429532
v -0.03474547 -0.03681087 0.11427376
v -0.03330445 -0.03815996 0.11423063
v -0.03182772 -0.03950244 0.11415516
v -0.03027174 -0.04079206 0.11398266
v -0.03002506 -0.04114338 0.11373468
v -0.03002506 -0.03488359 0.11350827
v -0.03003623 -0.03487919 0.11351905
v -0.03428448 -0.03062597 0.11344358
v -0.04074950 -0.03062597 0.11366999
v -0.04051398 -0.03146957 0.11314169
v -0.03970250 -0.03201031 0.11366999
v -0.03886312 -0.03255104 0.11419829
v -0.03751141 -0.03399595 0.11425220
v -0.03566075 -0.03631969 0.11382093
v -0.03788645 -0.03440453 0.11331420
v -0.03653585 -0.03582961 0.11335733
v -0.03515511 -0.03718531 0.11333576
v -0.03371298 -0.03853660 0.11329264
v -0.03278207 -0.03901897 0.11372390
v -0.03226081 -0.03985265 0.11322795
v -0.03127521 -0.04032181 0.11360530
v -0.03072380 -0.04112686 0.11305544
v -0.03002506 -0.04133610 0.11345436
v -0.03002506 -0.03435607 0.11222526
v -0.03055637 -0.03402128 0.11302310
v -0.03337254 -0.03124931 0.11299075
v -0.03381456 -0.03062597 0.11222526
v -0.04090912 -0.03062597 0.11344358
v -0.03922923 -0.03296183 0.11327107
v -0.04134889 -0.03062597 0.11222526
v -0.04061890 -0.03161054 0.11222526
v -0.04008759 -0.03230766 0.11222526
v -0.03939108 -0.03314575 0.11222526
v -0.03837534 -0.03347834 0.11375625
v -0.03807397 -0.03461158 0.11222526
v -0.03743104 -0.03530870 0.11222526
v -0.03673453 -0.03604216 0.11222526
v -0.03606593 -0.03673818 0.11222526
v -0.03390943 -0.03871391 0.11222526
v -0.03312810 -0.03941103 0.11222526
v -0.03243047 -0.03998921 0.11222526
v -0.03152300 -0.04068633 0.11222526
v -0.03082649 -0.04120284 0.11222526
v -0.03002506 -0.04179644 0.11213901
v -0.03002506 -0.03426907 0.11083444
v -0.03379558 -0.03062597 0.11192338
v -0.03877159 -0.03384397 0.11222526
v -0.04135448 -0.03062597 0.11212823
v -0.04142703 -0.03062597 0.11083444
v -0.04065685 -0.03166230 0.11083444
v -0.04012889 -0.03235942 0.11083444
v -0.03943127 -0.03319310 0.11083444
v -0.03881178 -0.03389022 0.11083444
v -0.03811415 -0.03465673 0.11083444
v -0.03746118 -0.03535385 0.11083444
v -0.03610611 -0.03677342 0.11083444
v -0.03395520 -0.03875576 0.11083444
v -0.03317609 -0.03945398 0.11083444
v -0.03247847 -0.04002776 0.11083444
v -0.03157546 -0.04072488 0.11083444
v -0.03002506 -0.04187574 0.11083444
v -0.03372973 -0.03062597 0.11083444
v -0.03002506 -0.03426907 0.00568181
v -0.04142703 -0.03062597 0.00484085
v -0.04065685 -0.03166230 0.00484085
v -0.04013559 -0.03235061 0.00484085
v -0.04012889 -0.03235942 0.00484085
v -0.04011996 -0.03237043 0.00484085
v -0.03943127 -0.03319310 0.00484085
v -0.03881178 -0.03389022 0.00484085
v -0.03811415 -0.03465673 0.00484085
v -0.03745225 -0.03536376 0.00484085
v -0.03611504 -0.03676461 0.00484085
v -0.03610611 -0.03677342 0.00484085
v -0.03395520 -0.03875576 0.00484085
v -0.03318614 -0.03944517 0.00484085
v -0.03317609 -0.03945398 0.00484085
v -0.03247847 -0.04002776 0.00484085
v -0.03157546 -0.04072488 0.00484085
v -0.03002506 -0.04187574 0.00484085
v -0.03372973 -0.03062597 0.00588666
v -0.03002506 -0.03427237 0.00486241
v -0.03373084 -0.03062597 0.00486241
v -0.03373196 -0.03062597 0.00484085
v -0.03002506 -0.03427458 0.00484085
f 1 2 3
f 1 3 4
f 1 4 5
f 1 5 14
f 1 14 24
f 1 24 38
f 1 38 56
f 1 56 77
f 1 77 94
f 1 94 113
f 1 113 118
f 1 118 115
f 1 115 96
f 1 96 78
f 1 78 57
f 1 57 39
f 1 39 25
f 1 25 15
f 1 15 6
f 1 6 2
f 2 7 16
f 2 16 28
f 2 28 41
f 2 41 60
f 2 60 79
f 2 79 95
f 2 95 114
f 2 114 116
f 2 116 117
f 2 117 97
f 2 97 82
f 2 82 81
f 2 81 63
f 2 63 61
f 2 61 42
f 2 42 29
f 2 29 17
f 2 17 8
f 2 8 9
f 2 9 3
f 2 6 7
f 3 9 10
f 3 10 4
f 4 10 11
f 4 11 12
f 4 12 5
f 5 12 13
f 5 13 14
f 6 15 16
f 6 16 7
f 8 17 18
f 8 18 10
f 8 10 9
f 10 18 19
f 10 19 20
f 10 20 11
f 11 20 12
f 12 20 21
f 12 21 22
f 12 22 13
f 13 22 23
f 13 23 14
f 14 23 24
f 15 25 26
f 15 26 16
f 16 26 27
f 16 27 28
f 17 29 30
f 17 30 31
f 17 31 18
f 18 31 32
f 18 32 19
f 19 32 33
f 19 33 20
f 20 33 34
f 20 34 21
f 21 34 22
f 22 34 35
f 22 35 23
f 23 35 36
f 23 36 37
f 23 37 24
f 24 37 38
f 25 28 26
f 25 39 40
f 25 40 41
f 25 41 28
f 26 28 27
f 29 42 30
f 30 42 43
f 30 43 44
f 30 44 45
f 30 45 31
f 31 45 46
f 31 46 33
f 31 33 32
f 33 47 34
f 33 46 48
f 33 48 49
f 33 49 47
f 34 47 50
f 34 50 51
f 34 51 35
f 35 52 36
f 35 51 52
f 36 52 53
f 36 53 54
f 36 54 37
f 37 54 55
f 37 55 38
f 38 55 56
f 39 57 58
f 39 58 40
f 40 58 41
f 41 58 59
f 41 59 60
f 42 61 43
f 43 62 44
f 43 61 63
f 43 63 64
f 43 64 65
f 43 65 66
f 43 66 62
f 44 62 45
f 45 62 67
f 45 67 46
f 46 67 48
f 47 49 50
f 48 67 62
f 48 62 68
f 48 68 69
f 48 69 49
f 49 69 70
f 49 70 71
f 49 71 50
f 50 71 51
f 51 53 52
f 51 71 72
f 51 72 73
f 51 73 53
f 53 55 54
f 53 73 74
f 53 74 55
f 55 74 75
f 55 75 76
f 55 76 77
f 55 77 56
f 57 78 60
f 57 60 58
f 58 60 59
f 60 78 79
f 62 66 80
f 62 80 68
f 63 81 64
f 64 81 82
f 64 82 83
f 64 83 84
f 64 84 65
f 65 84 66
f 66 84 85
f 66 85 80
f 68 80 86
f 68 86 87
f 68 87 69
f 69 87 88
f 69 88 70
f 70 88 89
f 70 89 71
f 71 89 90
f 71 90 72
f 72 90 91
f 72 91 73
f 73 91 74
f 74 91 92
f 74 92 93
f 74 93 75
f 75 93 94
f 75 94 76
f 76 94 77
f 78 95 79
f 78 96 114
f 78 114 95
f 80 85 86
f 82 97 98
f 82 98 83
f 83 98 99
f 83 99 84
f 84 99 100
f 84 100 101
f 84 101 85
f 85 101 102
f 85 102 103
f 85 103 86
f 86 103 104
f 86 104 87
f 87 104 105
f 87 105 88
f 88 105 89
f 89 105 106
f 89 106 107
f 89 107 108
f 89 108 90
f 90 108 109
f 90 109 91
f 91 109 110
f 91 110 111
f 91 111 92
f 92 111 112
f 92 112 93
f 93 112 113
f 93 113 94
f 96 115 116
f 96 116 114
f 97 117 118
f 97 118 113
f 97 113 112
f 97 112 111
f 97 111 110
f 97 110 109
f 97 109 108
f 97 108 107
f 97 107 106
f 97 106 105
f 97 105 104
f 97 104 103
f 97 103 102
f 97 102 101
f 97 101 100
f 97 100 99
f 97 99 98
f 115 118 117
f 115 117 116

