# https://github.com/mikedh/trimesh
v -0.01128773 -0.04732701 0.11497541
v -0.01179740 -0.04593277 0.11477056
v -0.01319171 -0.04593277 0.11489994
v -0.02155758 -0.04314526 0.11496463
v -0.01598134 -0.04593277 0.11498619
v -0.01179740 -0.04732701 0.11497541
v -0.01128773 -0.04868910 0.11463040
v -0.01128773 -0.04590549 0.11470587
v -0.02016327 -0.04314526 0.11484603
v -0.02155758 -0.04174420 0.11457649
v -0.02016327 -0.04453950 0.11496463
v -0.02155758 -0.04453950 0.11483525
v -0.01737465 -0.04593277 0.11494307
v -0.01319171 -0.04732701 0.11494307
v -0.01458703 -0.04732701 0.11483525
v -0.01319171 -0.04841531 0.11456571
v -0.01128773 -0.04935747 0.11425304
v -0.01128773 -0.04517085 0.11437164
v -0.02155758 -0.04164384 0.11450102
v -0.02007581 -0.04595712 0.11456571
v -0.01876896 -0.04593277 0.11480290
v -0.02155758 -0.04548946 0.11447946
v -0.01737465 -0.04705322 0.11457649
v -0.01458703 -0.04824286 0.11447946
v -0.01550283 -0.04810256 0.11438242
v -0.01319171 -0.04911292 0.11387568
v -0.01179740 -0.04972382 0.11346598
v -0.01128773 -0.04950460 0.11401584
v -0.01128773 -0.04472949 0.11364927
v -0.02155758 -0.04074455 0.11359536
v -0.02155758 -0.04081470 0.11369239
v -0.02120574 -0.04123853 0.11409132
v -0.01876896 -0.04681647 0.11444711
v -0.02155758 -0.04619778 0.11361692
v -0.02048194 -0.04643843 0.11406975
v -0.01955207 -0.04666935 0.11435007
v -0.01643170 -0.04791354 0.11419913
v -0.01597330 -0.04838901 0.11369239
v -0.01451063 -0.04895509 0.11351989
v -0.01399492 -0.04944711 0.11298080
v -0.01319171 -0.04954942 0.11317487
v -0.01128773 -0.04976571 0.11357380
v -0.01179740 -0.05006775 0.11222609
v -0.01128773 -0.05015057 0.11222609
v -0.01128773 -0.04456191 0.11311018
v -0.02059152 -0.04092578 0.11315331
v -0.02155758 -0.04028370 0.11222609
v -0.02155758 -0.04620947 0.11359536
v -0.02111225 -0.04674924 0.11314253
v -0.02007581 -0.04690903 0.11361692
v -0.01816077 -0.04805677 0.11299159
v -0.01737465 -0.04819707 0.11323957
v -0.01737465 -0.04774986 0.11392959
v -0.01737465 -0.04843675 0.11222609
v -0.01416582 -0.04949388 0.11222609
v -0.01319171 -0.04974330 0.11222609
v -0.01319171 -0.04980761 0.11083526
v -0.01179740 -0.05010672 0.11083526
v -0.01128773 -0.05017590 0.11134199
v -0.01128773 -0.04426962 0.11215062
v -0.02155758 -0.04022330 0.11082447
v -0.02155758 -0.04670053 0.11222609
v -0.02131129 -0.04684375 0.11222609
v -0.01829849 -0.04810548 0.11222609
v -0.01839098 -0.04813861 0.11083526
v -0.01737465 -0.04850203 0.11083526
v -0.01428444 -0.04952603 0.11083526
v -0.01319171 -0.04980761 0.00484085
v -0.01179740 -0.05010672 0.00484085
v -0.01128773 -0.05017200 0.00485163
v -0.01128773 -0.04425695 0.11155763
v -0.01128773 -0.04424233 0.11083526
v -0.02155758 -0.04022330 0.00625324
v -0.02155758 -0.04675606 0.11121261
v -0.02138468 -0.04687785 0.11083526
v -0.01839098 -0.04813861 0.00484085
v -0.01738772 -0.04849813 0.00484085
v -0.01428444 -0.04952603 0.00484085
v -0.01128773 -0.04967120 0.00484085
v -0.01128773 -0.04424233 0.00575729
v -0.02155758 -0.04022427 0.00486241
v -0.02155758 -0.04677165 0.11083526
v -0.02138468 -0.04687785 0.00484085
v -0.01128773 -0.04424915 0.00484085
v -0.01128773 -0.04424428 0.00486241
v -0.02153748 -0.04023693 0.00484085
v -0.02155758 -0.04023109 0.00484085
v -0.02155758 -0.04677165 0.00484085
f 1 2 3
f 1 3 4
f 1 4 5
f 1 5 6
f 1 6 7
f 1 7 17
f 1 17 28
f 1 28 42
f 1 42 44
f 1 44 59
f 1 59 70
f 1 70 79
f 1 79 84
f 1 84 85
f 1 85 80
f 1 80 72
f 1 72 71
f 1 71 60
f 1 60 45
f 1 45 29
f 1 29 18
f 1 18 8
f 1 8 2
f 2 9 3
f 2 8 10
f 2 10 9
f 3 9 4
f 4 11 5
f 4 9 10
f 4 10 19
f 4 19 31
f 4 31 30
f 4 30 47
f 4 47 61
f 4 61 73
f 4 73 81
f 4 81 87
f 4 87 88
f 4 88 82
f 4 82 74
f 4 74 62
f 4 62 48
f 4 48 34
f 4 34 22
f 4 22 12
f 4 12 11
f 5 11 13
f 5 13 14
f 5 14 6
f 6 14 7
f 7 14 15
f 7 15 16
f 7 16 17
f 8 18 10
f 10 18 19
f 11 12 13
f 12 20 21
f 12 21 13
f 12 22 20
f 13 21 15
f 13 15 14
f 15 21 23
f 15 23 24
f 15 24 16
f 16 24 17
f 17 24 25
f 17 25 26
f 17 26 27
f 17 27 28
f 18 29 30
f 18 30 31
f 18 31 32
f 18 32 19
f 19 32 31
f 20 22 33
f 20 33 21
f 21 33 23
f 22 34 35
f 22 35 36
f 22 36 33
f 23 33 24
f 24 33 25
f 25 33 36
f 25 36 37
f 25 37 38
f 25 38 39
f 25 39 26
f 26 39 40
f 26 40 41
f 26 41 27
f 27 42 28
f 27 41 43
f 27 43 44
f 27 44 42
f 29 45 46
f 29 46 30
f 30 46 47
f 34 48 49
f 34 49 35
f 35 49 50
f 35 50 36
f 36 50 51
f 36 51 52
f 36 52 53
f 36 53 37
f 37 53 52
f 37 52 38
f 38 52 40
f 38 40 39
f 40 52 51
f 40 51 54
f 40 54 55
f 40 55 56
f 40 56 43
f 40 43 41
f 43 56 57
f 43 57 58
f 43 58 59
f 43 59 44
f 45 60 46
f 46 60 47
f 47 60 61
f 48 62 49
f 49 51 50
f 49 62 63
f 49 63 51
f 51 63 64
f 51 64 54
f 54 64 65
f 54 65 66
f 54 66 67
f 54 67 55
f 55 67 57
f 55 57 56
f 57 67 78
f 57 78 68
f 57 68 69
f 57 69 58
f 58 69 59
f 59 69 70
f 60 71 61
f 61 71 72
f 61 72 80
f 61 80 73
f 62 74 75
f 62 75 63
f 63 75 65
f 63 65 64
f 65 75 83
f 65 83 76
f 65 76 77
f 65 77 66
f 66 77 67
f 67 77 78
f 68 78 77
f 68 77 76
f 68 76 83
f 68 83 88
f 68 88 87
f 68 87 86
f 68 86 84
f 68 84 79
f 68 79 69
f 69 79 70
f 73 80 81
f 74 82 75
f 75 82 88
f 75 88 83
f 80 85 81
f 81 85 86
f 81 86 87
f 84 86 85

