# https://github.com/mikedh/trimesh
v -0.02105070 -0.04045854 0.00484085
v -0.02105070 -0.04053671 0.00442218
v -0.02105070 -0.04700565 0.00484085
v 0.00000464 -0.04582128 0.00484085
v -0.02105070 -0.04053996 0.00441299
v -0.01838967 -0.04813899 0.00484085
v -0.02105070 -0.04700565 0.00346370
v 0.00000464 -0.05154552 0.00484085
v 0.00000464 -0.04622186 0.00383078
v -0.02105070 -0.04075382 0.00389156
v -0.01838967 -0.04813899 0.00346370
v -0.01738586 -0.04849831 0.00484085
v -0.02105070 -0.04698828 0.00206976
v -0.00062816 -0.05154660 0.00484085
v 0.00000464 -0.05154552 0.00346370
v 0.00000464 -0.04759837 0.00075619
v -0.02097650 -0.04256456 0.00075619
v -0.02105070 -0.04256456 0.00075619
v -0.01835875 -0.04812704 0.00206976
v -0.01737349 -0.04850265 0.00346370
v -0.01737349 -0.04850265 0.00484085
v -0.02105070 -0.04684824 0.00119325
v -0.01824126 -0.04808471 0.00122923
v -0.00066114 -0.05154660 0.00484085
v -0.00064259 -0.05154660 0.00346370
v 0.00000464 -0.05153358 0.00271834
v 0.00000464 -0.05115146 0.00075619
v -0.02105070 -0.04663655 0.00075619
v -0.01737349 -0.04847877 0.00206976
v -0.01428372 -0.04952635 0.00346370
v -0.01428372 -0.04952635 0.00484085
v -0.02105070 -0.04680264 0.00101411
v -0.01870504 -0.04763311 0.00075619
v -0.01737349 -0.04814007 0.00075619
v -0.01737349 -0.04823995 0.00093733
v -0.01409615 -0.04947533 0.00123483
v -0.02045089 -0.04691989 0.00075619
v -0.00203803 -0.05148147 0.00484085
v -0.00203803 -0.05148147 0.00346370
v -0.00064259 -0.05152381 0.00206976
v 0.00000464 -0.05152272 0.00206976
v -0.00061373 -0.05115254 0.00075619
v -0.01424250 -0.04951441 0.00206976
v -0.01319128 -0.04980751 0.00346370
v -0.01319128 -0.04980751 0.00484085
v -0.01676543 -0.04834308 0.00075619
v -0.01454756 -0.04906390 0.00075619
v -0.01319128 -0.04945796 0.00075619
v -0.01319128 -0.04958932 0.00099771
v -0.00829795 -0.05080841 0.00143796
v -0.01179584 -0.05009845 0.00206976
v -0.01319128 -0.04978363 0.00206976
v -0.00343141 -0.05141308 0.00484085
v -0.00203803 -0.05145867 0.00206976
v -0.00343141 -0.05141308 0.00346370
v -0.00343141 -0.05109067 0.00078498
v -0.00268525 -0.05110912 0.00075619
v -0.00201123 -0.05113192 0.00075619
v -0.00843811 -0.05083229 0.00346370
v -0.00843811 -0.05083229 0.00484085
v -0.01233587 -0.04966530 0.00075619
v -0.00893487 -0.05036441 0.00075619
v -0.00736834 -0.05088006 0.00120884
v -0.00482686 -0.05129909 0.00206976
v -0.00622024 -0.05113843 0.00206976
v -0.00774554 -0.05090937 0.00196939
v -0.00839689 -0.05082579 0.00236766
v -0.00344997 -0.05141200 0.00484085
v -0.00343141 -0.05139028 0.00206976
v -0.00482686 -0.05104398 0.00086536
v -0.00482686 -0.05132189 0.00346370
v -0.00343141 -0.05107438 0.00075619
v -0.00482686 -0.05098537 0.00075619
v -0.00622024 -0.05116122 0.00346370
v -0.00623879 -0.05115905 0.00484085
v -0.00771462 -0.05058262 0.00075619
v -0.00754973 -0.05060975 0.00075619
v -0.00622024 -0.05096474 0.00102250
v -0.00482686 -0.05132189 0.00484085
v -0.00510925 -0.05095171 0.00075619
v -0.00622024 -0.05116122 0.00484085
v -0.00622024 -0.05081927 0.00075619
f 1 2 5
f 1 5 10
f 1 10 18
f 1 18 28
f 1 28 32
f 1 32 22
f 1 22 13
f 1 13 7
f 1 7 3
f 1 3 6
f 1 6 12
f 1 12 21
f 1 21 31
f 1 31 45
f 1 45 60
f 1 60 75
f 1 75 81
f 1 81 79
f 1 79 68
f 1 68 53
f 1 53 38
f 1 38 24
f 1 24 14
f 1 14 8
f 1 8 4
f 1 4 2
f 2 4 5
f 3 7 11
f 3 11 6
f 4 8 15
f 4 15 26
f 4 26 41
f 4 41 27
f 4 27 16
f 4 16 9
f 4 9 5
f 5 9 10
f 6 11 12
f 7 13 11
f 8 14 15
f 9 16 10
f 10 17 18
f 10 16 17
f 11 19 20
f 11 20 12
f 11 13 19
f 12 20 21
f 13 22 23
f 13 23 19
f 14 24 25
f 14 25 15
f 15 25 26
f 16 27 42
f 16 42 58
f 16 58 57
f 16 57 72
f 16 72 73
f 16 73 80
f 16 80 82
f 16 82 77
f 16 77 76
f 16 76 62
f 16 62 61
f 16 61 48
f 16 48 47
f 16 47 46
f 16 46 34
f 16 34 33
f 16 33 37
f 16 37 28
f 16 28 18
f 16 18 17
f 19 23 29
f 19 29 20
f 20 29 30
f 20 30 31
f 20 31 21
f 22 32 23
f 23 33 34
f 23 34 35
f 23 35 36
f 23 36 29
f 23 32 37
f 23 37 33
f 24 38 39
f 24 39 25
f 25 39 54
f 25 54 40
f 25 40 26
f 26 40 41
f 27 41 42
f 28 37 32
f 29 36 43
f 29 43 30
f 30 43 44
f 30 44 45
f 30 45 31
f 34 46 35
f 35 46 36
f 36 46 47
f 36 47 48
f 36 48 49
f 36 49 50
f 36 50 51
f 36 51 52
f 36 52 43
f 38 53 55
f 38 55 39
f 39 55 69
f 39 69 54
f 40 54 56
f 40 56 57
f 40 57 58
f 40 58 42
f 40 42 41
f 43 52 44
f 44 52 51
f 44 51 59
f 44 59 60
f 44 60 45
f 48 61 49
f 49 61 50
f 50 62 63
f 50 63 64
f 50 64 65
f 50 65 66
f 50 66 67
f 50 67 51
f 50 61 62
f 51 67 59
f 53 68 55
f 54 69 70
f 54 70 56
f 55 68 71
f 55 71 64
f 55 64 69
f 56 72 57
f 56 70 73
f 56 73 72
f 59 67 74
f 59 74 75
f 59 75 60
f 62 76 63
f 63 77 78
f 63 78 64
f 63 76 77
f 64 70 69
f 64 71 74
f 64 74 65
f 64 78 70
f 65 74 67
f 65 67 66
f 68 79 71
f 70 78 73
f 71 79 81
f 71 81 74
f 73 78 80
f 74 81 75
f 77 82 78
f 78 82 80

